<?xml version="1.0" encoding="UTF-8" standalone="no"?>
<!DOCTYPE svg PUBLIC "-//W3C//DTD SVG 1.1//EN"
 "http://www.w3.org/Graphics/SVG/1.1/DTD/svg11.dtd">
<!-- Generated by graphviz version 2.38.0 (20140413.2041)
 -->
<!-- Title: IG.Lib.LoadableRealFunctionBase Pages: 1 -->
<svg width="282pt" height="301pt"
 viewBox="0.00 0.00 282.00 301.00" xmlns="http://www.w3.org/2000/svg" xmlns:xlink="http://www.w3.org/1999/xlink">
<g id="graph0" class="graph" transform="scale(1 1) rotate(0) translate(4 297)">
<title>IG.Lib.LoadableRealFunctionBase</title>
<polygon fill="white" stroke="none" points="-4,4 -4,-297 278,-297 278,4 -4,4"/>
<!-- Node1 -->
<g id="node1" class="node"><title>Node1</title>
<g id="a_node1"><a xlink:title="A RealFunction class used as base class for dynamically loaded functions. Bunctions loaded from scrip...">
<polygon fill="#bfbfbf" stroke="black" points="0,-0.5 0,-19.5 164,-19.5 164,-0.5 0,-0.5"/>
<text text-anchor="middle" x="82" y="-7.5" font-family="Helvetica,sans-Serif" font-size="10.00">IG.Lib.LoadableRealFunctionBase</text>
</a>
</g>
</g>
<!-- Node2 -->
<g id="node2" class="node"><title>Node2</title>
<g id="a_node2"><a xlink:href="../../d5/d83/classIG_1_1Num_1_1RealFunction.html" target="_top" xlink:title="Represents a real function of a real variabe.">
<polygon fill="white" stroke="black" points="45,-57.5 45,-76.5 119,-76.5 119,-57.5 45,-57.5"/>
<text text-anchor="middle" x="82" y="-64.5" font-family="Helvetica,sans-Serif" font-size="10.00">RealFunction</text>
</a>
</g>
</g>
<!-- Node2&#45;&gt;Node1 -->
<g id="edge1" class="edge"><title>Node2&#45;&gt;Node1</title>
<path fill="none" stroke="midnightblue" d="M82,-47.1166C82,-37.8173 82,-27.0557 82,-19.7149"/>
<polygon fill="midnightblue" stroke="midnightblue" points="78.5001,-47.4062 82,-57.4063 85.5001,-47.4063 78.5001,-47.4062"/>
</g>
<!-- Node3 -->
<g id="node3" class="node"><title>Node3</title>
<g id="a_node3"><a xlink:href="../../d6/d30/classIG_1_1Num_1_1RealFunctionBase.html" target="_top" xlink:title="Base class for real functions of real variable.">
<polygon fill="white" stroke="black" points="25,-216.5 25,-235.5 121,-235.5 121,-216.5 25,-216.5"/>
<text text-anchor="middle" x="73" y="-223.5" font-family="Helvetica,sans-Serif" font-size="10.00">RealFunctionBase</text>
</a>
</g>
</g>
<!-- Node3&#45;&gt;Node2 -->
<g id="edge2" class="edge"><title>Node3&#45;&gt;Node2</title>
<path fill="none" stroke="midnightblue" d="M66.543,-206.591C63.9541,-198.276 61.2833,-188.259 60,-179 54.6601,-140.47 70.7409,-95.1402 78.3016,-76.578"/>
<polygon fill="midnightblue" stroke="midnightblue" points="63.3047,-207.946 69.7754,-216.335 69.9486,-205.742 63.3047,-207.946"/>
</g>
<!-- Node6 -->
<g id="node6" class="node"><title>Node6</title>
<g id="a_node6"><a xlink:href="../../d5/d83/classIG_1_1Num_1_1RealFunction.html" target="_top" xlink:title="Represents a real function of a real variabe.">
<polygon fill="white" stroke="black" points="69,-153 69,-172 179,-172 179,-153 69,-153"/>
<text text-anchor="middle" x="124" y="-160" font-family="Helvetica,sans-Serif" font-size="10.00">IG.Num.RealFunction</text>
</a>
</g>
</g>
<!-- Node3&#45;&gt;Node6 -->
<g id="edge7" class="edge"><title>Node3&#45;&gt;Node6</title>
<path fill="none" stroke="midnightblue" d="M86.4846,-208.739C96.1401,-197.096 108.775,-181.859 116.639,-172.377"/>
<polygon fill="midnightblue" stroke="midnightblue" points="83.7806,-206.517 80.0913,-216.449 89.1689,-210.985 83.7806,-206.517"/>
</g>
<!-- Node4 -->
<g id="node4" class="node"><title>Node4</title>
<g id="a_node4"><a xlink:href="../../db/d0e/interfaceIG_1_1Num_1_1IRealFunction.html" target="_top" xlink:title="Interface for real functions.">
<polygon fill="white" stroke="black" points="35,-273.5 35,-292.5 111,-292.5 111,-273.5 35,-273.5"/>
<text text-anchor="middle" x="73" y="-280.5" font-family="Helvetica,sans-Serif" font-size="10.00">IRealFunction</text>
</a>
</g>
</g>
<!-- Node4&#45;&gt;Node2 -->
<g id="edge4" class="edge"><title>Node4&#45;&gt;Node2</title>
<path fill="none" stroke="midnightblue" d="M46.7898,-268.1C35.0739,-260.358 22.4678,-249.531 16,-236 12.1665,-227.98 14.4898,-224.76 16,-216 25.6965,-159.757 30.4681,-144.429 59,-95 62.8172,-88.3871 68.3327,-81.8457 73.0057,-76.8581"/>
<polygon fill="midnightblue" stroke="midnightblue" points="45.1039,-271.172 55.459,-273.413 48.7617,-265.203 45.1039,-271.172"/>
</g>
<!-- Node4&#45;&gt;Node3 -->
<g id="edge3" class="edge"><title>Node4&#45;&gt;Node3</title>
<path fill="none" stroke="midnightblue" d="M73,-263.117C73,-253.817 73,-243.056 73,-235.715"/>
<polygon fill="midnightblue" stroke="midnightblue" points="69.5001,-263.406 73,-273.406 76.5001,-263.406 69.5001,-263.406"/>
</g>
<!-- Node4&#45;&gt;Node6 -->
<g id="edge8" class="edge"><title>Node4&#45;&gt;Node6</title>
<path fill="none" stroke="midnightblue" d="M99.2102,-268.1C110.926,-260.358 123.532,-249.531 130,-236 140.131,-214.805 132.373,-186.137 127.373,-172.044"/>
<polygon fill="midnightblue" stroke="midnightblue" points="97.2383,-265.203 90.541,-273.413 100.896,-271.172 97.2383,-265.203"/>
</g>
<!-- Node5 -->
<g id="node5" class="node"><title>Node5</title>
<g id="a_node5"><a xlink:title=" ">
<polygon fill="white" stroke="#bfbfbf" points="212,-216.5 212,-235.5 274,-235.5 274,-216.5 212,-216.5"/>
<text text-anchor="middle" x="243" y="-223.5" font-family="Helvetica,sans-Serif" font-size="10.00">ICloneable</text>
</a>
</g>
</g>
<!-- Node5&#45;&gt;Node2 -->
<g id="edge5" class="edge"><title>Node5&#45;&gt;Node2</title>
<path fill="none" stroke="midnightblue" d="M256.184,-207.906C267.313,-191.229 279.714,-165.583 268,-146 237.173,-94.4632 164.174,-76.9716 119.341,-71.0395"/>
<polygon fill="midnightblue" stroke="midnightblue" points="253.258,-205.98 250.293,-216.152 258.954,-210.049 253.258,-205.98"/>
</g>
<!-- Node5&#45;&gt;Node6 -->
<g id="edge9" class="edge"><title>Node5&#45;&gt;Node6</title>
<path fill="none" stroke="midnightblue" d="M217.524,-211.834C194.338,-199.851 160.77,-182.503 140.79,-172.177"/>
<polygon fill="midnightblue" stroke="midnightblue" points="215.963,-214.967 226.454,-216.449 219.177,-208.748 215.963,-214.967"/>
</g>
<!-- Node6&#45;&gt;Node2 -->
<g id="edge6" class="edge"><title>Node6&#45;&gt;Node2</title>
<path fill="none" stroke="#9a32cd" stroke-dasharray="5,2" d="M115.95,-143.579C106.927,-123.493 92.6733,-91.7608 85.8666,-76.6078"/>
<polygon fill="#9a32cd" stroke="#9a32cd" points="112.834,-145.184 120.124,-152.871 119.219,-142.315 112.834,-145.184"/>
<text text-anchor="middle" x="138" y="-120" font-family="Helvetica,sans-Serif" font-size="10.00"> funcDerivative</text>
<text text-anchor="middle" x="138" y="-109" font-family="Helvetica,sans-Serif" font-size="10.00">funcInverse</text>
<text text-anchor="middle" x="138" y="-98" font-family="Helvetica,sans-Serif" font-size="10.00">funcIntegral</text>
</g>
<!-- Node6&#45;&gt;Node6 -->
<g id="edge10" class="edge"><title>Node6&#45;&gt;Node6</title>
<path fill="none" stroke="#9a32cd" stroke-dasharray="5,2" d="M189.001,-167.284C193.952,-166.222 197,-164.627 197,-162.5 197,-159.18 189.574,-157.156 179.073,-156.43"/>
<polygon fill="#9a32cd" stroke="#9a32cd" points="188.541,-163.815 179.073,-168.57 189.44,-170.757 188.541,-163.815"/>
<text text-anchor="middle" x="228" y="-171" font-family="Helvetica,sans-Serif" font-size="10.00"> funcDerivative</text>
<text text-anchor="middle" x="228" y="-160" font-family="Helvetica,sans-Serif" font-size="10.00">funcInverse</text>
<text text-anchor="middle" x="228" y="-149" font-family="Helvetica,sans-Serif" font-size="10.00">funcIntegral</text>
</g>
</g>
</svg>
