<?xml version="1.0" encoding="UTF-8" standalone="no"?>
<!DOCTYPE svg PUBLIC "-//W3C//DTD SVG 1.1//EN"
 "http://www.w3.org/Graphics/SVG/1.1/DTD/svg11.dtd">
<!-- Generated by graphviz version 2.38.0 (20140413.2041)
 -->
<!-- Title: IG.Lib.WaitFileCreationLatence Pages: 1 -->
<svg width="293pt" height="308pt"
 viewBox="0.00 0.00 292.65 308.00" xmlns="http://www.w3.org/2000/svg" xmlns:xlink="http://www.w3.org/1999/xlink">
<g id="graph0" class="graph" transform="scale(1 1) rotate(0) translate(4 304)">
<title>IG.Lib.WaitFileCreationLatence</title>
<polygon fill="white" stroke="none" points="-4,4 -4,-304 288.646,-304 288.646,4 -4,4"/>
<!-- Node1 -->
<g id="node1" class="node"><title>Node1</title>
<g id="a_node1"><a xlink:title="Implements blocking until the specified file is created (becomes existent). File is specified in cons...">
<polygon fill="#bfbfbf" stroke="black" points="101.146,-0.5 101.146,-19.5 253.146,-19.5 253.146,-0.5 101.146,-0.5"/>
<text text-anchor="middle" x="177.146" y="-7.5" font-family="Helvetica,sans-Serif" font-size="10.00">IG.Lib.WaitFileCreationLatence</text>
</a>
</g>
</g>
<!-- Node2 -->
<g id="node2" class="node"><title>Node2</title>
<g id="a_node2"><a xlink:href="../../d4/d27/classIG_1_1Lib_1_1WaitFileEventLatenceBase.html" target="_top" xlink:title="Base class for classes that impelement methods that block until a file or directory is created or del...">
<polygon fill="white" stroke="black" points="110.146,-56.5 110.146,-75.5 244.146,-75.5 244.146,-56.5 110.146,-56.5"/>
<text text-anchor="middle" x="177.146" y="-63.5" font-family="Helvetica,sans-Serif" font-size="10.00">WaitFileEventLatenceBase</text>
</a>
</g>
</g>
<!-- Node2&#45;&gt;Node1 -->
<g id="edge1" class="edge"><title>Node2&#45;&gt;Node1</title>
<path fill="none" stroke="midnightblue" d="M177.146,-45.8045C177.146,-36.9102 177.146,-26.7798 177.146,-19.7511"/>
<polygon fill="midnightblue" stroke="midnightblue" points="173.646,-46.083 177.146,-56.083 180.646,-46.083 173.646,-46.083"/>
</g>
<!-- Node3 -->
<g id="node3" class="node"><title>Node3</title>
<g id="a_node3"><a xlink:href="../../da/d67/classIG_1_1Lib_1_1WaitCondition.html" target="_top" xlink:title="Provides a framework for blocking execution until the specified condition becomes satisfied....">
<polygon fill="white" stroke="black" points="47.646,-112.5 47.646,-131.5 124.646,-131.5 124.646,-112.5 47.646,-112.5"/>
<text text-anchor="middle" x="86.146" y="-119.5" font-family="Helvetica,sans-Serif" font-size="10.00">WaitCondition</text>
</a>
</g>
</g>
<!-- Node3&#45;&gt;Node2 -->
<g id="edge2" class="edge"><title>Node3&#45;&gt;Node2</title>
<path fill="none" stroke="midnightblue" d="M109.44,-107.177C126.185,-97.2407 148.246,-84.1492 162.562,-75.6545"/>
<polygon fill="midnightblue" stroke="midnightblue" points="107.58,-104.211 100.767,-112.324 111.153,-110.231 107.58,-104.211"/>
</g>
<!-- Node4 -->
<g id="node4" class="node"><title>Node4</title>
<g id="a_node4"><a xlink:href="../../df/dea/classIG_1_1Lib_1_1WaitConditionBase.html" target="_top" xlink:title="Base class for objects that perform waiting until a condition is fulfilled.">
<polygon fill="white" stroke="black" points="11.146,-168.5 11.146,-187.5 111.146,-187.5 111.146,-168.5 11.146,-168.5"/>
<text text-anchor="middle" x="61.146" y="-175.5" font-family="Helvetica,sans-Serif" font-size="10.00">WaitConditionBase</text>
</a>
</g>
</g>
<!-- Node4&#45;&gt;Node3 -->
<g id="edge3" class="edge"><title>Node4&#45;&gt;Node3</title>
<path fill="none" stroke="midnightblue" d="M69.4873,-158.983C73.7308,-149.817 78.6959,-139.092 82.0945,-131.751"/>
<polygon fill="midnightblue" stroke="midnightblue" points="66.2994,-157.538 65.2742,-168.083 72.6516,-160.479 66.2994,-157.538"/>
</g>
<!-- Node5 -->
<g id="node5" class="node"><title>Node5</title>
<g id="a_node5"><a xlink:href="../../de/d1e/interfaceIG_1_1Lib_1_1IWaitCondition.html" target="_top" xlink:title="Interface for classes that implement blocking until a specified condition is met.">
<polygon fill="white" stroke="black" points="99.146,-224.5 99.146,-243.5 179.146,-243.5 179.146,-224.5 99.146,-224.5"/>
<text text-anchor="middle" x="139.146" y="-231.5" font-family="Helvetica,sans-Serif" font-size="10.00">IWaitCondition</text>
</a>
</g>
</g>
<!-- Node5&#45;&gt;Node2 -->
<g id="edge12" class="edge"><title>Node5&#45;&gt;Node2</title>
<path fill="none" stroke="midnightblue" d="M143.511,-213.93C151.755,-177.92 169.31,-101.231 175.185,-75.5681"/>
<polygon fill="midnightblue" stroke="midnightblue" points="140.009,-213.546 141.189,-224.075 146.832,-215.108 140.009,-213.546"/>
</g>
<!-- Node5&#45;&gt;Node3 -->
<g id="edge7" class="edge"><title>Node5&#45;&gt;Node3</title>
<path fill="none" stroke="midnightblue" d="M135.571,-214.294C132.571,-200.929 127.57,-182.772 120.146,-168 113.199,-154.177 101.876,-140.275 94.2245,-131.657"/>
<polygon fill="midnightblue" stroke="midnightblue" points="132.171,-215.134 137.629,-224.215 139.025,-213.712 132.171,-215.134"/>
</g>
<!-- Node5&#45;&gt;Node4 -->
<g id="edge4" class="edge"><title>Node5&#45;&gt;Node4</title>
<path fill="none" stroke="midnightblue" d="M118.378,-218.622C104.129,-208.757 85.6898,-195.992 73.6469,-187.655"/>
<polygon fill="midnightblue" stroke="midnightblue" points="116.4,-221.51 126.614,-224.324 120.384,-215.754 116.4,-221.51"/>
</g>
<!-- Node7 -->
<g id="node7" class="node"><title>Node7</title>
<g id="a_node7"><a xlink:href="../../d2/d48/interfaceIG_1_1Lib_1_1IWaitFileEvent.html" target="_top" xlink:title="Interface for classes that provide waiting for specific file events (such as ceration or deletion of ...">
<polygon fill="white" stroke="black" points="205.646,-168.5 205.646,-187.5 284.646,-187.5 284.646,-168.5 205.646,-168.5"/>
<text text-anchor="middle" x="245.146" y="-175.5" font-family="Helvetica,sans-Serif" font-size="10.00">IWaitFileEvent</text>
</a>
</g>
</g>
<!-- Node5&#45;&gt;Node7 -->
<g id="edge10" class="edge"><title>Node5&#45;&gt;Node7</title>
<path fill="none" stroke="midnightblue" d="M165.202,-219.726C184.83,-209.727 211.174,-196.307 228.157,-187.655"/>
<polygon fill="midnightblue" stroke="midnightblue" points="163.498,-216.666 156.177,-224.324 166.676,-222.903 163.498,-216.666"/>
</g>
<!-- Node6 -->
<g id="node6" class="node"><title>Node6</title>
<g id="a_node6"><a xlink:href="../../d3/db6/interfaceIG_1_1Lib_1_1ILockable.html" target="_top" xlink:title="Lockable object, has a Lock property that returns object on which lock must be performed in order to ...">
<polygon fill="white" stroke="black" points="73.146,-280.5 73.146,-299.5 131.146,-299.5 131.146,-280.5 73.146,-280.5"/>
<text text-anchor="middle" x="102.146" y="-287.5" font-family="Helvetica,sans-Serif" font-size="10.00">ILockable</text>
</a>
</g>
</g>
<!-- Node6&#45;&gt;Node3 -->
<g id="edge8" class="edge"><title>Node6&#45;&gt;Node3</title>
<path fill="none" stroke="midnightblue" d="M80.1653,-274.819C55.7982,-257.644 17.8618,-226.21 2.14596,-188 -9.252,-160.288 27.666,-141.567 56.1539,-131.589"/>
<polygon fill="midnightblue" stroke="midnightblue" points="78.2311,-277.737 88.4624,-280.488 82.1801,-271.957 78.2311,-277.737"/>
</g>
<!-- Node6&#45;&gt;Node4 -->
<g id="edge6" class="edge"><title>Node6&#45;&gt;Node4</title>
<path fill="none" stroke="midnightblue" d="M95.4362,-270.998C86.4902,-246.997 71.0114,-205.468 64.3482,-187.591"/>
<polygon fill="midnightblue" stroke="midnightblue" points="92.1565,-272.221 98.9288,-280.368 98.7157,-269.776 92.1565,-272.221"/>
</g>
<!-- Node6&#45;&gt;Node5 -->
<g id="edge5" class="edge"><title>Node6&#45;&gt;Node5</title>
<path fill="none" stroke="midnightblue" d="M114.092,-271.566C120.458,-262.275 128.013,-251.248 133.15,-243.751"/>
<polygon fill="midnightblue" stroke="midnightblue" points="111.021,-269.855 108.256,-280.083 116.795,-273.812 111.021,-269.855"/>
</g>
<!-- Node6&#45;&gt;Node7 -->
<g id="edge11" class="edge"><title>Node6&#45;&gt;Node7</title>
<path fill="none" stroke="midnightblue" d="M133.151,-276.17C150.287,-268.272 171.427,-257.15 188.146,-244 209.617,-227.112 229.368,-201.384 238.993,-187.92"/>
<polygon fill="midnightblue" stroke="midnightblue" points="131.293,-273.166 123.587,-280.438 134.145,-279.559 131.293,-273.166"/>
</g>
<!-- Node7&#45;&gt;Node2 -->
<g id="edge9" class="edge"><title>Node7&#45;&gt;Node2</title>
<path fill="none" stroke="midnightblue" d="M234.414,-159.64C219.642,-135.744 193.607,-93.6286 182.457,-75.5914"/>
<polygon fill="midnightblue" stroke="midnightblue" points="231.575,-161.703 239.81,-168.368 237.529,-158.022 231.575,-161.703"/>
</g>
</g>
</svg>
