<?xml version="1.0" encoding="UTF-8" standalone="no"?>
<!DOCTYPE svg PUBLIC "-//W3C//DTD SVG 1.1//EN"
 "http://www.w3.org/Graphics/SVG/1.1/DTD/svg11.dtd">
<!-- Generated by graphviz version 2.38.0 (20140413.2041)
 -->
<!-- Title: IGLib.Gr3D.Curve3DParameterizationFromCylindricalWithBounds Pages: 1 -->
<svg width="328pt" height="106pt"
 viewBox="0.00 0.00 327.50 106.00" xmlns="http://www.w3.org/2000/svg" xmlns:xlink="http://www.w3.org/1999/xlink">
<g id="graph0" class="graph" transform="scale(1 1) rotate(0) translate(4 102)">
<title>IGLib.Gr3D.Curve3DParameterizationFromCylindricalWithBounds</title>
<polygon fill="white" stroke="none" points="-4,4 -4,-102 323.5,-102 323.5,4 -4,4"/>
<!-- Node1 -->
<g id="node1" class="node"><title>Node1</title>
<g id="a_node1"><a xlink:title="Cartesion parameterization of a curve in 3D. Beside the Curve and (optional) CurveDerivative,...">
<polygon fill="#bfbfbf" stroke="black" points="82,-0.5 82,-30.5 259,-30.5 259,-0.5 82,-0.5"/>
<text text-anchor="start" x="90" y="-18.5" font-family="Helvetica,sans-Serif" font-size="10.00">IGLib.Gr3D.Curve3DParameterization</text>
<text text-anchor="middle" x="170.5" y="-7.5" font-family="Helvetica,sans-Serif" font-size="10.00">FromCylindricalWithBounds</text>
</a>
</g>
</g>
<!-- Node2 -->
<g id="node2" class="node"><title>Node2</title>
<g id="a_node2"><a xlink:href="../../dc/d9b/interfaceIGLib_1_1Gr3D_1_1ICurve3DCylindricalParameterization.html" target="_top" xlink:title="Cylindrical parameterization of a curve in 3D. Beside the CurveCylindrical and (optional) CurveDeriva...">
<polygon fill="white" stroke="black" points="0,-73 0,-92 173,-92 173,-73 0,-73"/>
<text text-anchor="middle" x="86.5" y="-80" font-family="Helvetica,sans-Serif" font-size="10.00">ICurve3DCylindricalParameterization</text>
</a>
</g>
</g>
<!-- Node2&#45;&gt;Node1 -->
<g id="edge1" class="edge"><title>Node2&#45;&gt;Node1</title>
<path fill="none" stroke="midnightblue" d="M105.827,-66.5443C119.809,-55.7254 138.577,-41.2026 152.293,-30.589"/>
<polygon fill="midnightblue" stroke="midnightblue" points="103.595,-63.8459 97.8286,-72.7338 107.879,-69.382 103.595,-63.8459"/>
</g>
<!-- Node3 -->
<g id="node3" class="node"><title>Node3</title>
<g id="a_node3"><a xlink:href="../../d3/d54/interfaceIGLib_1_1Gr3D_1_1ICurve3DParameterizationWithBounds.html" target="_top" xlink:title="Cartesion parameterization of a curve in 3D. Beside the Curve and (optional) CurveDerivative,...">
<polygon fill="white" stroke="black" points="191.5,-67.5 191.5,-97.5 319.5,-97.5 319.5,-67.5 191.5,-67.5"/>
<text text-anchor="start" x="199.5" y="-85.5" font-family="Helvetica,sans-Serif" font-size="10.00">ICurve3DParameterization</text>
<text text-anchor="middle" x="255.5" y="-74.5" font-family="Helvetica,sans-Serif" font-size="10.00">WithBounds</text>
</a>
</g>
</g>
<!-- Node3&#45;&gt;Node1 -->
<g id="edge2" class="edge"><title>Node3&#45;&gt;Node1</title>
<path fill="none" stroke="midnightblue" d="M228.912,-61.1677C215.914,-51.2283 200.596,-39.5144 188.908,-30.5765"/>
<polygon fill="midnightblue" stroke="midnightblue" points="226.987,-64.1017 237.056,-67.396 231.239,-58.5412 226.987,-64.1017"/>
</g>
</g>
</svg>
