<?xml version="1.0" encoding="UTF-8" standalone="no"?>
<!DOCTYPE svg PUBLIC "-//W3C//DTD SVG 1.1//EN"
 "http://www.w3.org/Graphics/SVG/1.1/DTD/svg11.dtd">
<!-- Generated by graphviz version 2.38.0 (20140413.2041)
 -->
<!-- Title: IG.Num.VectorFunctionBase Pages: 1 -->
<svg width="498pt" height="219pt"
 viewBox="0.00 0.00 498.00 219.00" xmlns="http://www.w3.org/2000/svg" xmlns:xlink="http://www.w3.org/1999/xlink">
<g id="graph0" class="graph" transform="scale(1 1) rotate(0) translate(4 215)">
<title>IG.Num.VectorFunctionBase</title>
<polygon fill="white" stroke="none" points="-4,4 -4,-215 494,-215 494,4 -4,4"/>
<!-- Node1 -->
<g id="node1" class="node"><title>Node1</title>
<g id="a_node1"><a xlink:title="Base class for defining Vector functions whose evaluation is defined in bulk, and evaluation of indiv...">
<polygon fill="#bfbfbf" stroke="black" points="0,-67.5 0,-86.5 141,-86.5 141,-67.5 0,-67.5"/>
<text text-anchor="middle" x="70.5" y="-74.5" font-family="Helvetica,sans-Serif" font-size="10.00">IG.Num.VectorFunctionBase</text>
</a>
</g>
</g>
<!-- Node2 -->
<g id="node2" class="node"><title>Node2</title>
<g id="a_node2"><a xlink:href="../../dc/d23/classIG_1_1Num_1_1VectorFunctionBaseGeneral.html" target="_top" xlink:title="Base class for VectorFunctionBase and VectorFunctionBaseComponentwise. In general,...">
<polygon fill="white" stroke="black" points="103,-0.5 103,-19.5 242,-19.5 242,-0.5 103,-0.5"/>
<text text-anchor="middle" x="172.5" y="-7.5" font-family="Helvetica,sans-Serif" font-size="10.00">VectorFunctionBaseGeneral</text>
</a>
</g>
</g>
<!-- Node1&#45;&gt;Node2 -->
<g id="edge8" class="edge"><title>Node1&#45;&gt;Node2</title>
<path fill="none" stroke="#9a32cd" stroke-dasharray="5,2" d="M81.9455,-58.8765C87.4639,-51.6547 94.6003,-43.6339 102.5,-38 113.847,-29.9074 127.938,-23.8629 140.496,-19.5682"/>
<polygon fill="#9a32cd" stroke="#9a32cd" points="78.8518,-57.1859 75.8852,-67.3569 84.547,-61.2558 78.8518,-57.1859"/>
<text text-anchor="middle" x="130.5" y="-41" font-family="Helvetica,sans-Serif" font-size="10.00"> _resultStore</text>
</g>
<!-- Node2&#45;&gt;Node1 -->
<g id="edge1" class="edge"><title>Node2&#45;&gt;Node1</title>
<path fill="none" stroke="midnightblue" d="M104.765,-23.2517C96.5444,-26.9528 88.8308,-31.7598 82.5,-38 74.6165,-45.7706 71.8999,-58.6717 70.971,-67.2548"/>
<polygon fill="midnightblue" stroke="midnightblue" points="106.196,-26.4496 114.215,-19.5254 103.629,-19.9376 106.196,-26.4496"/>
</g>
<!-- Node3 -->
<g id="node3" class="node"><title>Node3</title>
<g id="a_node3"><a xlink:href="../../da/d06/interfaceIG_1_1Num_1_1IVectorFunction.html" target="_top" xlink:title="Vector function of a vector argument.">
<polygon fill="white" stroke="black" points="97,-134.5 97,-153.5 182,-153.5 182,-134.5 97,-134.5"/>
<text text-anchor="middle" x="139.5" y="-141.5" font-family="Helvetica,sans-Serif" font-size="10.00">IVectorFunction</text>
</a>
</g>
</g>
<!-- Node3&#45;&gt;Node1 -->
<g id="edge9" class="edge"><title>Node3&#45;&gt;Node1</title>
<path fill="none" stroke="midnightblue" d="M122.894,-127.356C109.329,-114.578 90.6602,-96.9915 79.6582,-86.6273"/>
<polygon fill="midnightblue" stroke="midnightblue" points="120.515,-129.924 130.194,-134.234 125.315,-124.829 120.515,-129.924"/>
</g>
<!-- Node3&#45;&gt;Node2 -->
<g id="edge2" class="edge"><title>Node3&#45;&gt;Node2</title>
<path fill="none" stroke="midnightblue" d="M144.181,-124.275C151.438,-95.2462 165.115,-40.5381 170.37,-19.5212"/>
<polygon fill="midnightblue" stroke="midnightblue" points="140.695,-123.789 141.665,-134.339 147.486,-125.487 140.695,-123.789"/>
</g>
<!-- Node4 -->
<g id="node4" class="node"><title>Node4</title>
<g id="a_node4"><a xlink:href="../../d3/db6/interfaceIG_1_1Lib_1_1ILockable.html" target="_top" xlink:title="Lockable object, has a Lock property that returns object on which lock must be performed in order to ...">
<polygon fill="white" stroke="black" points="110.5,-191.5 110.5,-210.5 168.5,-210.5 168.5,-191.5 110.5,-191.5"/>
<text text-anchor="middle" x="139.5" y="-198.5" font-family="Helvetica,sans-Serif" font-size="10.00">ILockable</text>
</a>
</g>
</g>
<!-- Node4&#45;&gt;Node1 -->
<g id="edge10" class="edge"><title>Node4&#45;&gt;Node1</title>
<path fill="none" stroke="midnightblue" d="M116.961,-185.14C106.491,-177.114 94.7765,-166.325 87.5,-154 74.5777,-132.111 71.4668,-101.384 70.7259,-86.605"/>
<polygon fill="midnightblue" stroke="midnightblue" points="115.186,-188.175 125.338,-191.204 119.291,-182.505 115.186,-188.175"/>
</g>
<!-- Node4&#45;&gt;Node2 -->
<g id="edge4" class="edge"><title>Node4&#45;&gt;Node2</title>
<path fill="none" stroke="midnightblue" d="M163.215,-185.354C173.656,-177.485 184.822,-166.767 190.5,-154 211.547,-106.673 186.788,-42.3858 176.539,-19.5098"/>
<polygon fill="midnightblue" stroke="midnightblue" points="160.939,-182.676 154.752,-191.277 164.952,-188.411 160.939,-182.676"/>
</g>
<!-- Node4&#45;&gt;Node3 -->
<g id="edge3" class="edge"><title>Node4&#45;&gt;Node3</title>
<path fill="none" stroke="midnightblue" d="M139.5,-181.117C139.5,-171.817 139.5,-161.056 139.5,-153.715"/>
<polygon fill="midnightblue" stroke="midnightblue" points="136,-181.406 139.5,-191.406 143,-181.406 136,-181.406"/>
</g>
<!-- Node5 -->
<g id="node5" class="node"><title>Node5</title>
<g id="a_node5"><a xlink:href="../../d5/dc3/classIG_1_1Num_1_1VectorFunctionResults.html" target="_top" xlink:title="Vector function results. Used to transfer parameters input (e.g. vector of parameters,...">
<polygon fill="white" stroke="black" points="238.5,-67.5 238.5,-86.5 390.5,-86.5 390.5,-67.5 238.5,-67.5"/>
<text text-anchor="middle" x="314.5" y="-74.5" font-family="Helvetica,sans-Serif" font-size="10.00">IG.Num.VectorFunctionResults</text>
</a>
</g>
</g>
<!-- Node5&#45;&gt;Node2 -->
<g id="edge5" class="edge"><title>Node5&#45;&gt;Node2</title>
<path fill="none" stroke="#9a32cd" stroke-dasharray="5,2" d="M286.346,-63.1127C258.221,-50.2387 215.768,-30.8059 191.434,-19.6672"/>
<polygon fill="#9a32cd" stroke="#9a32cd" points="285.094,-66.3887 295.643,-67.3685 288.008,-60.0239 285.094,-66.3887"/>
<text text-anchor="middle" x="281.5" y="-41" font-family="Helvetica,sans-Serif" font-size="10.00"> _auxResults</text>
</g>
<!-- Node6 -->
<g id="node6" class="node"><title>Node6</title>
<g id="a_node6"><a xlink:href="../../d6/dbe/interfaceIG_1_1Num_1_1IVectorFunctionResults.html" target="_top" xlink:title="Vector function results. Used to transfer parameters input (e.g. vector of parameters,...">
<polygon fill="white" stroke="black" points="246.5,-134.5 246.5,-153.5 364.5,-153.5 364.5,-134.5 246.5,-134.5"/>
<text text-anchor="middle" x="305.5" y="-141.5" font-family="Helvetica,sans-Serif" font-size="10.00">IVectorFunctionResults</text>
</a>
</g>
</g>
<!-- Node6&#45;&gt;Node5 -->
<g id="edge6" class="edge"><title>Node6&#45;&gt;Node5</title>
<path fill="none" stroke="midnightblue" d="M308.126,-124.037C309.838,-111.67 311.991,-96.1198 313.305,-86.6273"/>
<polygon fill="midnightblue" stroke="midnightblue" points="304.618,-123.848 306.714,-134.234 311.552,-124.808 304.618,-123.848"/>
</g>
<!-- Node7 -->
<g id="node7" class="node"><title>Node7</title>
<g id="a_node7"><a xlink:href="../../d3/d24/interfaceIG_1_1Num_1_1IVector.html" target="_top" xlink:title="Generic Vector interface">
<polygon fill="white" stroke="black" points="383,-134.5 383,-153.5 490,-153.5 490,-134.5 383,-134.5"/>
<text text-anchor="middle" x="436.5" y="-141.5" font-family="Helvetica,sans-Serif" font-size="10.00">IG.Num.IVector&lt; T &gt;</text>
</a>
</g>
</g>
<!-- Node7&#45;&gt;Node5 -->
<g id="edge7" class="edge"><title>Node7&#45;&gt;Node5</title>
<path fill="none" stroke="#9a32cd" stroke-dasharray="5,2" d="M411.356,-129.603C387.195,-116.731 351.4,-97.66 330.768,-86.6672"/>
<polygon fill="#9a32cd" stroke="#9a32cd" points="409.828,-132.755 420.299,-134.369 413.12,-126.577 409.828,-132.755"/>
<text text-anchor="middle" x="412.5" y="-108" font-family="Helvetica,sans-Serif" font-size="10.00"> _parameters</text>
</g>
</g>
</svg>
