<?xml version="1.0" encoding="UTF-8" standalone="no"?>
<!DOCTYPE svg PUBLIC "-//W3C//DTD SVG 1.1//EN"
 "http://www.w3.org/Graphics/SVG/1.1/DTD/svg11.dtd">
<!-- Generated by graphviz version 2.38.0 (20140413.2041)
 -->
<!-- Title: IG.Num.Func.WeightReciprocalPower Pages: 1 -->
<svg width="213pt" height="207pt"
 viewBox="0.00 0.00 213.00 207.00" xmlns="http://www.w3.org/2000/svg" xmlns:xlink="http://www.w3.org/1999/xlink">
<g id="graph0" class="graph" transform="scale(1 1) rotate(0) translate(4 203)">
<title>IG.Num.Func.WeightReciprocalPower</title>
<polygon fill="white" stroke="none" points="-4,4 -4,-203 209,-203 209,4 -4,4"/>
<!-- Node1 -->
<g id="node1" class="node"><title>Node1</title>
<g id="a_node1"><a xlink:title="A RealFunction class representing bell like polynomial weighting function with finite support,...">
<polygon fill="#bfbfbf" stroke="black" points="0,-0.5 0,-30.5 154,-30.5 154,-0.5 0,-0.5"/>
<text text-anchor="start" x="8" y="-18.5" font-family="Helvetica,sans-Serif" font-size="10.00">IG.Num.Func.WeightReciprocal</text>
<text text-anchor="middle" x="77" y="-7.5" font-family="Helvetica,sans-Serif" font-size="10.00">Power</text>
</a>
</g>
</g>
<!-- Node2 -->
<g id="node2" class="node"><title>Node2</title>
<g id="a_node2"><a xlink:href="../../d5/d83/classIG_1_1Num_1_1RealFunction.html" target="_top" xlink:title="Represents a real function of a real variabe.">
<polygon fill="white" stroke="black" points="40,-67.5 40,-86.5 114,-86.5 114,-67.5 40,-67.5"/>
<text text-anchor="middle" x="77" y="-74.5" font-family="Helvetica,sans-Serif" font-size="10.00">RealFunction</text>
</a>
</g>
</g>
<!-- Node2&#45;&gt;Node1 -->
<g id="edge1" class="edge"><title>Node2&#45;&gt;Node1</title>
<path fill="none" stroke="midnightblue" d="M77,-57.2349C77,-48.5864 77,-38.4969 77,-30.523"/>
<polygon fill="midnightblue" stroke="midnightblue" points="73.5001,-57.4751 77,-67.4751 80.5001,-57.4751 73.5001,-57.4751"/>
</g>
<!-- Node3 -->
<g id="node3" class="node"><title>Node3</title>
<g id="a_node3"><a xlink:href="../../d6/d30/classIG_1_1Num_1_1RealFunctionBase.html" target="_top" xlink:title="Base class for real functions of real variable.">
<polygon fill="white" stroke="black" points="29,-123.5 29,-142.5 125,-142.5 125,-123.5 29,-123.5"/>
<text text-anchor="middle" x="77" y="-130.5" font-family="Helvetica,sans-Serif" font-size="10.00">RealFunctionBase</text>
</a>
</g>
</g>
<!-- Node3&#45;&gt;Node2 -->
<g id="edge2" class="edge"><title>Node3&#45;&gt;Node2</title>
<path fill="none" stroke="midnightblue" d="M77,-112.805C77,-103.91 77,-93.7798 77,-86.7511"/>
<polygon fill="midnightblue" stroke="midnightblue" points="73.5001,-113.083 77,-123.083 80.5001,-113.083 73.5001,-113.083"/>
</g>
<!-- Node4 -->
<g id="node4" class="node"><title>Node4</title>
<g id="a_node4"><a xlink:href="../../db/d0e/interfaceIG_1_1Num_1_1IRealFunction.html" target="_top" xlink:title="Interface for real functions.">
<polygon fill="white" stroke="black" points="1,-179.5 1,-198.5 77,-198.5 77,-179.5 1,-179.5"/>
<text text-anchor="middle" x="39" y="-186.5" font-family="Helvetica,sans-Serif" font-size="10.00">IRealFunction</text>
</a>
</g>
</g>
<!-- Node4&#45;&gt;Node2 -->
<g id="edge4" class="edge"><title>Node4&#45;&gt;Node2</title>
<path fill="none" stroke="midnightblue" d="M27.164,-170.546C19.6333,-157.116 12.5737,-138.325 20,-123 28.0275,-106.435 45.4382,-94.1278 58.9185,-86.6099"/>
<polygon fill="midnightblue" stroke="midnightblue" points="24.3033,-172.575 32.5304,-179.251 30.262,-168.901 24.3033,-172.575"/>
</g>
<!-- Node4&#45;&gt;Node3 -->
<g id="edge3" class="edge"><title>Node4&#45;&gt;Node3</title>
<path fill="none" stroke="midnightblue" d="M51.0647,-170.855C57.6447,-161.505 65.511,-150.327 70.8418,-142.751"/>
<polygon fill="midnightblue" stroke="midnightblue" points="48.1676,-168.891 45.2749,-179.083 53.8922,-172.919 48.1676,-168.891"/>
</g>
<!-- Node5 -->
<g id="node5" class="node"><title>Node5</title>
<g id="a_node5"><a xlink:title=" ">
<polygon fill="white" stroke="#bfbfbf" points="143,-123.5 143,-142.5 205,-142.5 205,-123.5 143,-123.5"/>
<text text-anchor="middle" x="174" y="-130.5" font-family="Helvetica,sans-Serif" font-size="10.00">ICloneable</text>
</a>
</g>
</g>
<!-- Node5&#45;&gt;Node2 -->
<g id="edge5" class="edge"><title>Node5&#45;&gt;Node2</title>
<path fill="none" stroke="midnightblue" d="M149.665,-118.453C131.757,-108.483 107.946,-95.2279 92.5461,-86.6545"/>
<polygon fill="midnightblue" stroke="midnightblue" points="147.975,-121.518 158.415,-123.324 151.38,-115.402 147.975,-121.518"/>
</g>
</g>
</svg>
