<?xml version="1.0" encoding="UTF-8" standalone="no"?>
<!DOCTYPE svg PUBLIC "-//W3C//DTD SVG 1.1//EN"
 "http://www.w3.org/Graphics/SVG/1.1/DTD/svg11.dtd">
<!-- Generated by graphviz version 2.38.0 (20140413.2041)
 -->
<!-- Title: IG.Lib.IpcStreamServerBase Pages: 1 -->
<svg width="312pt" height="319pt"
 viewBox="0.00 0.00 312.00 319.00" xmlns="http://www.w3.org/2000/svg" xmlns:xlink="http://www.w3.org/1999/xlink">
<g id="graph0" class="graph" transform="scale(1 1) rotate(0) translate(4 315)">
<title>IG.Lib.IpcStreamServerBase</title>
<polygon fill="white" stroke="none" points="-4,4 -4,-315 308,-315 308,4 -4,4"/>
<!-- Node1 -->
<g id="node1" class="node"><title>Node1</title>
<g id="a_node1"><a xlink:title="Server that creates a named pipe, listens on its input stream, and sends responses to the client.">
<polygon fill="#bfbfbf" stroke="black" points="82,-123.5 82,-142.5 221,-142.5 221,-123.5 82,-123.5"/>
<text text-anchor="middle" x="151.5" y="-130.5" font-family="Helvetica,sans-Serif" font-size="10.00">IG.Lib.IpcStreamServerBase</text>
</a>
</g>
</g>
<!-- Node5 -->
<g id="node5" class="node"><title>Node5</title>
<g id="a_node5"><a xlink:href="../../d3/d6a/classIG_1_1Lib_1_1NamedPipeServerBase.html" target="_top" xlink:title="Server that creates a named pipe, listens on its input stream, and sends responses to the client.">
<polygon fill="white" stroke="black" points="5,-67.5 5,-86.5 150,-86.5 150,-67.5 5,-67.5"/>
<text text-anchor="middle" x="77.5" y="-74.5" font-family="Helvetica,sans-Serif" font-size="10.00">IG.Lib.NamedPipeServerBase</text>
</a>
</g>
</g>
<!-- Node1&#45;&gt;Node5 -->
<g id="edge6" class="edge"><title>Node1&#45;&gt;Node5</title>
<path fill="none" stroke="midnightblue" d="M131.466,-117.38C118.091,-107.62 100.941,-95.1057 89.6057,-86.8339"/>
<polygon fill="midnightblue" stroke="midnightblue" points="129.47,-120.257 139.611,-123.324 133.596,-114.602 129.47,-120.257"/>
</g>
<!-- Node7 -->
<g id="node7" class="node"><title>Node7</title>
<g id="a_node7"><a xlink:href="../../d9/db5/classIG_1_1Lib_1_1PipeServerBase.html" target="_top" xlink:title="Server that creates a named pipe, listens on its input stream, and sends responses to the client.">
<polygon fill="white" stroke="black" points="168.5,-67.5 168.5,-86.5 282.5,-86.5 282.5,-67.5 168.5,-67.5"/>
<text text-anchor="middle" x="225.5" y="-74.5" font-family="Helvetica,sans-Serif" font-size="10.00">IG.Lib.PipeServerBase</text>
</a>
</g>
</g>
<!-- Node1&#45;&gt;Node7 -->
<g id="edge8" class="edge"><title>Node1&#45;&gt;Node7</title>
<path fill="none" stroke="midnightblue" d="M171.534,-117.38C184.909,-107.62 202.059,-95.1057 213.394,-86.8339"/>
<polygon fill="midnightblue" stroke="midnightblue" points="169.404,-114.602 163.389,-123.324 173.53,-120.257 169.404,-114.602"/>
</g>
<!-- Node2 -->
<g id="node2" class="node"><title>Node2</title>
<g id="a_node2"><a xlink:href="../../da/d2c/classIG_1_1Lib_1_1IpcStreamClientServerBase2.html" target="_top" xlink:title="Base class for named pipe servers and clients, contains common stuff for both.">
<polygon fill="white" stroke="black" points="130.5,-179.5 130.5,-198.5 270.5,-198.5 270.5,-179.5 130.5,-179.5"/>
<text text-anchor="middle" x="200.5" y="-186.5" font-family="Helvetica,sans-Serif" font-size="10.00">IpcStreamClientServerBase2</text>
</a>
</g>
</g>
<!-- Node2&#45;&gt;Node1 -->
<g id="edge1" class="edge"><title>Node2&#45;&gt;Node1</title>
<path fill="none" stroke="midnightblue" d="M185.466,-171.431C176.878,-161.967 166.457,-150.483 159.441,-142.751"/>
<polygon fill="midnightblue" stroke="midnightblue" points="183.097,-174.029 192.409,-179.083 188.281,-169.325 183.097,-174.029"/>
</g>
<!-- Node3 -->
<g id="node3" class="node"><title>Node3</title>
<g id="a_node3"><a xlink:href="../../d5/dd9/classIG_1_1Lib_1_1IpcStreamClientServerBase.html" target="_top" xlink:title="Base class for client and server classes with stream&#45;based communication.">
<polygon fill="white" stroke="black" points="169,-235.5 169,-254.5 304,-254.5 304,-235.5 169,-235.5"/>
<text text-anchor="middle" x="236.5" y="-242.5" font-family="Helvetica,sans-Serif" font-size="10.00">IpcStreamClientServerBase</text>
</a>
</g>
</g>
<!-- Node3&#45;&gt;Node2 -->
<g id="edge2" class="edge"><title>Node3&#45;&gt;Node2</title>
<path fill="none" stroke="midnightblue" d="M224.877,-226.566C218.683,-217.275 211.332,-206.248 206.334,-198.751"/>
<polygon fill="midnightblue" stroke="midnightblue" points="222.096,-228.704 230.555,-235.083 227.92,-224.821 222.096,-228.704"/>
</g>
<!-- Node4 -->
<g id="node4" class="node"><title>Node4</title>
<g id="a_node4"><a xlink:href="../../d3/db6/interfaceIG_1_1Lib_1_1ILockable.html" target="_top" xlink:title="Lockable object, has a Lock property that returns object on which lock must be performed in order to ...">
<polygon fill="white" stroke="black" points="111.5,-291.5 111.5,-310.5 169.5,-310.5 169.5,-291.5 111.5,-291.5"/>
<text text-anchor="middle" x="140.5" y="-298.5" font-family="Helvetica,sans-Serif" font-size="10.00">ILockable</text>
</a>
</g>
</g>
<!-- Node4&#45;&gt;Node1 -->
<g id="edge5" class="edge"><title>Node4&#45;&gt;Node1</title>
<path fill="none" stroke="midnightblue" d="M132.649,-281.735C123.453,-257.736 110.759,-214.474 121.5,-179 125.745,-164.981 135.956,-151.337 143.286,-142.818"/>
<polygon fill="midnightblue" stroke="midnightblue" points="129.529,-283.357 136.531,-291.309 136.016,-280.727 129.529,-283.357"/>
</g>
<!-- Node4&#45;&gt;Node2 -->
<g id="edge4" class="edge"><title>Node4&#45;&gt;Node2</title>
<path fill="none" stroke="midnightblue" d="M143.666,-281.077C146.47,-267.608 151.405,-249.416 159.5,-235 167.573,-220.624 181.032,-207.059 190.315,-198.654"/>
<polygon fill="midnightblue" stroke="midnightblue" points="140.191,-280.621 141.79,-291.094 147.071,-281.91 140.191,-280.621"/>
</g>
<!-- Node4&#45;&gt;Node3 -->
<g id="edge3" class="edge"><title>Node4&#45;&gt;Node3</title>
<path fill="none" stroke="midnightblue" d="M165.074,-286.177C182.739,-276.241 206.013,-263.149 221.114,-254.655"/>
<polygon fill="midnightblue" stroke="midnightblue" points="162.924,-283.371 155.924,-291.324 166.356,-289.472 162.924,-283.371"/>
</g>
<!-- Node6 -->
<g id="node6" class="node"><title>Node6</title>
<g id="a_node6"><a xlink:href="../../da/d87/classIG_1_1Lib_1_1CommandLineApplicationInterpreter_1_1InterpreterPipeServer.html" target="_top" xlink:title="Command&#45;line interpreter&#39;s server that creates a named pipe, listens on its input stream for client r...">
<polygon fill="white" stroke="black" points="0,-0.5 0,-30.5 155,-30.5 155,-0.5 0,-0.5"/>
<text text-anchor="start" x="8" y="-18.5" font-family="Helvetica,sans-Serif" font-size="10.00">IG.Lib.CommandLineApplication</text>
<text text-anchor="middle" x="77.5" y="-7.5" font-family="Helvetica,sans-Serif" font-size="10.00">Interpreter.InterpreterPipeServer</text>
</a>
</g>
</g>
<!-- Node5&#45;&gt;Node6 -->
<g id="edge7" class="edge"><title>Node5&#45;&gt;Node6</title>
<path fill="none" stroke="midnightblue" d="M77.5,-57.2349C77.5,-48.5864 77.5,-38.4969 77.5,-30.523"/>
<polygon fill="midnightblue" stroke="midnightblue" points="74.0001,-57.4751 77.5,-67.4751 81.0001,-57.4751 74.0001,-57.4751"/>
</g>
</g>
</svg>
