<?xml version="1.0" encoding="UTF-8" standalone="no"?>
<!DOCTYPE svg PUBLIC "-//W3C//DTD SVG 1.1//EN"
 "http://www.w3.org/Graphics/SVG/1.1/DTD/svg11.dtd">
<!-- Generated by graphviz version 2.38.0 (20140413.2041)
 -->
<!-- Title: IG.Script.ScritpRealFunctionExample Pages: 1 -->
<svg width="416pt" height="231pt"
 viewBox="0.00 0.00 415.50 231.00" xmlns="http://www.w3.org/2000/svg" xmlns:xlink="http://www.w3.org/1999/xlink">
<g id="graph0" class="graph" transform="scale(1 1) rotate(0) translate(4 227)">
<title>IG.Script.ScritpRealFunctionExample</title>
<polygon fill="white" stroke="none" points="-4,4 -4,-227 411.5,-227 411.5,4 -4,4"/>
<!-- Node1 -->
<g id="node1" class="node"><title>Node1</title>
<g id="a_node1"><a xlink:title="Example script for definition of a new real function class.">
<polygon fill="#bfbfbf" stroke="black" points="4.5,-0.5 4.5,-30.5 144.5,-30.5 144.5,-0.5 4.5,-0.5"/>
<text text-anchor="start" x="12.5" y="-18.5" font-family="Helvetica,sans-Serif" font-size="10.00">IG.Script.ScritpRealFunction</text>
<text text-anchor="middle" x="74.5" y="-7.5" font-family="Helvetica,sans-Serif" font-size="10.00">Example</text>
</a>
</g>
</g>
<!-- Node2 -->
<g id="node2" class="node"><title>Node2</title>
<g id="a_node2"><a xlink:href="../../d0/d74/classIG_1_1Lib_1_1LoadableScriptRealFunctionBase.html" target="_top" xlink:title="Base class for loadable scripts that define real functions of one variable.">
<polygon fill="white" stroke="black" points="70,-68.5 70,-87.5 231,-87.5 231,-68.5 70,-68.5"/>
<text text-anchor="middle" x="150.5" y="-75.5" font-family="Helvetica,sans-Serif" font-size="10.00">LoadableScriptRealFunctionBase</text>
</a>
</g>
</g>
<!-- Node2&#45;&gt;Node1 -->
<g id="edge1" class="edge"><title>Node2&#45;&gt;Node1</title>
<path fill="none" stroke="midnightblue" d="M131.532,-61.9003C119.456,-52.2876 103.925,-39.9235 92.1195,-30.526"/>
<polygon fill="midnightblue" stroke="midnightblue" points="129.607,-64.842 139.611,-68.3318 133.967,-59.3654 129.607,-64.842"/>
</g>
<!-- Node3 -->
<g id="node3" class="node"><title>Node3</title>
<g id="a_node3"><a xlink:href="../../d7/d15/classIG_1_1Lib_1_1LoadableScriptBase.html" target="_top" xlink:title="Base class for classes that can be dynamically loadeded from scripts and run, which provides function...">
<polygon fill="white" stroke="black" points="98.5,-125.5 98.5,-144.5 202.5,-144.5 202.5,-125.5 98.5,-125.5"/>
<text text-anchor="middle" x="150.5" y="-132.5" font-family="Helvetica,sans-Serif" font-size="10.00">LoadableScriptBase</text>
</a>
</g>
</g>
<!-- Node3&#45;&gt;Node2 -->
<g id="edge2" class="edge"><title>Node3&#45;&gt;Node2</title>
<path fill="none" stroke="midnightblue" d="M150.5,-115.117C150.5,-105.817 150.5,-95.0557 150.5,-87.7149"/>
<polygon fill="midnightblue" stroke="midnightblue" points="147,-115.406 150.5,-125.406 154,-115.406 147,-115.406"/>
</g>
<!-- Node4 -->
<g id="node4" class="node"><title>Node4</title>
<g id="a_node4"><a xlink:href="../../d7/d66/interfaceIG_1_1Lib_1_1ILoadableScript.html" target="_top" xlink:title="Interface for classes that can be dynamically loadeded from scripts and run, which provides functiona...">
<polygon fill="white" stroke="black" points="0,-198 0,-217 83,-217 83,-198 0,-198"/>
<text text-anchor="middle" x="41.5" y="-205" font-family="Helvetica,sans-Serif" font-size="10.00">ILoadableScript</text>
</a>
</g>
</g>
<!-- Node4&#45;&gt;Node1 -->
<g id="edge7" class="edge"><title>Node4&#45;&gt;Node1</title>
<path fill="none" stroke="midnightblue" d="M43.3298,-187.418C46.0808,-160.587 51.8943,-110.262 60.5,-68 63.0883,-55.2892 67.0326,-41.0786 70.0758,-30.8101"/>
<polygon fill="midnightblue" stroke="midnightblue" points="39.8157,-187.386 42.3105,-197.683 46.7815,-188.078 39.8157,-187.386"/>
</g>
<!-- Node4&#45;&gt;Node3 -->
<g id="edge3" class="edge"><title>Node4&#45;&gt;Node3</title>
<path fill="none" stroke="midnightblue" d="M63.5414,-192.244C85.5477,-178.01 118.661,-156.593 137.025,-144.715"/>
<polygon fill="midnightblue" stroke="midnightblue" points="61.3615,-189.485 54.8655,-197.855 65.1631,-195.363 61.3615,-189.485"/>
</g>
<!-- Node5 -->
<g id="node5" class="node"><title>Node5</title>
<g id="a_node5"><a xlink:href="../../d3/db6/interfaceIG_1_1Lib_1_1ILockable.html" target="_top" xlink:title="Lockable object, has a Lock property that returns object on which lock must be performed in order to ...">
<polygon fill="white" stroke="black" points="101.5,-198 101.5,-217 159.5,-217 159.5,-198 101.5,-198"/>
<text text-anchor="middle" x="130.5" y="-205" font-family="Helvetica,sans-Serif" font-size="10.00">ILockable</text>
</a>
</g>
</g>
<!-- Node5&#45;&gt;Node3 -->
<g id="edge4" class="edge"><title>Node5&#45;&gt;Node3</title>
<path fill="none" stroke="midnightblue" d="M135.788,-187.858C139.75,-173.895 144.989,-155.426 148.028,-144.715"/>
<polygon fill="midnightblue" stroke="midnightblue" points="132.315,-187.28 132.952,-197.855 139.049,-189.19 132.315,-187.28"/>
</g>
<!-- Node6 -->
<g id="node6" class="node"><title>Node6</title>
<g id="a_node6"><a xlink:href="../../de/dfd/interfaceIG_1_1Lib_1_1ICommandLineApplicationInterpreter.html" target="_top" xlink:title="Interface for simple command&#45;line applicatino interpreters.">
<polygon fill="white" stroke="black" points="177.5,-192.5 177.5,-222.5 335.5,-222.5 335.5,-192.5 177.5,-192.5"/>
<text text-anchor="start" x="185.5" y="-210.5" font-family="Helvetica,sans-Serif" font-size="10.00">IG.Lib.ICommandLineApplication</text>
<text text-anchor="middle" x="256.5" y="-199.5" font-family="Helvetica,sans-Serif" font-size="10.00">Interpreter</text>
</a>
</g>
</g>
<!-- Node6&#45;&gt;Node3 -->
<g id="edge5" class="edge"><title>Node6&#45;&gt;Node3</title>
<path fill="none" stroke="#9a32cd" stroke-dasharray="5,2" d="M226.769,-186.726C205.876,-172.831 178.965,-154.932 163.331,-144.534"/>
<polygon fill="#9a32cd" stroke="#9a32cd" points="225.039,-189.779 235.304,-192.403 228.916,-183.95 225.039,-189.779"/>
<text text-anchor="middle" x="248.5" y="-166" font-family="Helvetica,sans-Serif" font-size="10.00"> _script_interpreter</text>
</g>
<!-- Node7 -->
<g id="node7" class="node"><title>Node7</title>
<g id="a_node7"><a xlink:title=" ">
<polygon fill="white" stroke="#bfbfbf" points="354,-198 354,-217 395,-217 395,-198 354,-198"/>
<text text-anchor="middle" x="374.5" y="-205" font-family="Helvetica,sans-Serif" font-size="10.00">static</text>
</a>
</g>
</g>
<!-- Node7&#45;&gt;Node3 -->
<g id="edge6" class="edge"><title>Node7&#45;&gt;Node3</title>
<path fill="none" stroke="#9a32cd" stroke-dasharray="5,2" d="M353.087,-192.649C337.224,-182.983 314.761,-170.514 293.5,-163 264.319,-152.687 230.322,-146.061 202.799,-141.956"/>
<polygon fill="#9a32cd" stroke="#9a32cd" points="351.268,-195.639 361.606,-197.957 354.97,-189.698 351.268,-195.639"/>
<text text-anchor="middle" x="363.5" y="-166" font-family="Helvetica,sans-Serif" font-size="10.00"> _defaultOutputLevel</text>
</g>
</g>
</svg>
