<?xml version="1.0" encoding="UTF-8" standalone="no"?>
<!DOCTYPE svg PUBLIC "-//W3C//DTD SVG 1.1//EN"
 "http://www.w3.org/Graphics/SVG/1.1/DTD/svg11.dtd">
<!-- Generated by graphviz version 2.38.0 (20140413.2041)
 -->
<!-- Title: IG.Num.Func3d2dExamples.TorusVertical Pages: 1 -->
<svg width="280pt" height="319pt"
 viewBox="0.00 0.00 279.50 319.00" xmlns="http://www.w3.org/2000/svg" xmlns:xlink="http://www.w3.org/1999/xlink">
<g id="graph0" class="graph" transform="scale(1 1) rotate(0) translate(4 315)">
<title>IG.Num.Func3d2dExamples.TorusVertical</title>
<polygon fill="white" stroke="none" points="-4,4 -4,-315 275.5,-315 275.5,4 -4,4"/>
<!-- Node1 -->
<g id="node1" class="node"><title>Node1</title>
<g id="a_node1"><a xlink:title="Parametric equation of a horizontal toroid surface in form of 3D vector function of 2 variables.">
<polygon fill="#bfbfbf" stroke="black" points="0,-0.5 0,-30.5 142,-30.5 142,-0.5 0,-0.5"/>
<text text-anchor="start" x="8" y="-18.5" font-family="Helvetica,sans-Serif" font-size="10.00">IG.Num.Func3d2dExamples.</text>
<text text-anchor="middle" x="71" y="-7.5" font-family="Helvetica,sans-Serif" font-size="10.00">TorusVertical</text>
</a>
</g>
</g>
<!-- Node2 -->
<g id="node2" class="node"><title>Node2</title>
<g id="a_node2"><a xlink:href="../../de/de3/classIG_1_1Num_1_1Func3d2dExamples_1_1TorusHorizontal.html" target="_top" xlink:title="Parametric equation of a horizontal toroid surface in form of 3D vector function of 2 variables.">
<polygon fill="white" stroke="black" points="64,-67.5 64,-86.5 148,-86.5 148,-67.5 64,-67.5"/>
<text text-anchor="middle" x="106" y="-74.5" font-family="Helvetica,sans-Serif" font-size="10.00">TorusHorizontal</text>
</a>
</g>
</g>
<!-- Node2&#45;&gt;Node1 -->
<g id="edge1" class="edge"><title>Node2&#45;&gt;Node1</title>
<path fill="none" stroke="midnightblue" d="M95.8108,-58.6783C90.5451,-49.7267 84.2029,-38.9448 79.2488,-30.523"/>
<polygon fill="midnightblue" stroke="midnightblue" points="92.8983,-60.6303 100.985,-67.4751 98.9319,-57.0812 92.8983,-60.6303"/>
</g>
<!-- Node3 -->
<g id="node3" class="node"><title>Node3</title>
<g id="a_node3"><a xlink:href="../../d0/d54/classIG_1_1Num_1_1Func3d2dExamples_1_1ParametricSurface.html" target="_top" xlink:title="Base class for easy definition of parametric surfaces intended for plotting.">
<polygon fill="white" stroke="black" points="102.5,-123.5 102.5,-142.5 199.5,-142.5 199.5,-123.5 102.5,-123.5"/>
<text text-anchor="middle" x="151" y="-130.5" font-family="Helvetica,sans-Serif" font-size="10.00">ParametricSurface</text>
</a>
</g>
</g>
<!-- Node3&#45;&gt;Node2 -->
<g id="edge2" class="edge"><title>Node3&#45;&gt;Node2</title>
<path fill="none" stroke="midnightblue" d="M136.953,-115.144C129.113,-105.736 119.671,-94.4046 113.293,-86.7511"/>
<polygon fill="midnightblue" stroke="midnightblue" points="134.479,-117.641 143.569,-123.083 139.856,-113.16 134.479,-117.641"/>
</g>
<!-- Node4 -->
<g id="node4" class="node"><title>Node4</title>
<g id="a_node4"><a xlink:href="../../d3/dc0/classIG_1_1Num_1_1Func3d2dBaseNoGradient.html" target="_top" xlink:title="Base class for 3D vector functions of 2 variables (implementations of the IFunc3d2d interface) that d...">
<polygon fill="white" stroke="black" points="140.5,-179.5 140.5,-198.5 271.5,-198.5 271.5,-179.5 140.5,-179.5"/>
<text text-anchor="middle" x="206" y="-186.5" font-family="Helvetica,sans-Serif" font-size="10.00">Func3d2dBaseNoGradient</text>
</a>
</g>
</g>
<!-- Node4&#45;&gt;Node3 -->
<g id="edge3" class="edge"><title>Node4&#45;&gt;Node3</title>
<path fill="none" stroke="midnightblue" d="M189.706,-172.002C179.959,-162.433 167.947,-150.639 159.913,-142.751"/>
<polygon fill="midnightblue" stroke="midnightblue" points="187.33,-174.575 196.918,-179.083 192.234,-169.58 187.33,-174.575"/>
</g>
<!-- Node5 -->
<g id="node5" class="node"><title>Node5</title>
<g id="a_node5"><a xlink:href="../../df/d0e/classIG_1_1Num_1_1Func3d2dBase.html" target="_top" xlink:title="Base class for 3D vector functions of 2 variables (base for implementation of IFunc3d2d interface).">
<polygon fill="white" stroke="black" points="178,-235.5 178,-254.5 260,-254.5 260,-235.5 178,-235.5"/>
<text text-anchor="middle" x="219" y="-242.5" font-family="Helvetica,sans-Serif" font-size="10.00">Func3d2dBase</text>
</a>
</g>
</g>
<!-- Node5&#45;&gt;Node4 -->
<g id="edge4" class="edge"><title>Node5&#45;&gt;Node4</title>
<path fill="none" stroke="midnightblue" d="M214.45,-225.101C212.292,-216.136 209.818,-205.858 208.107,-198.751"/>
<polygon fill="midnightblue" stroke="midnightblue" points="211.11,-226.18 216.853,-235.083 217.915,-224.542 211.11,-226.18"/>
</g>
<!-- Node6 -->
<g id="node6" class="node"><title>Node6</title>
<g id="a_node6"><a xlink:href="../../d3/d6f/interfaceIG_1_1Num_1_1IFunc3d2d.html" target="_top" xlink:title="Represents 3D vector functions of 2 variables.">
<polygon fill="white" stroke="black" points="81,-291.5 81,-310.5 143,-310.5 143,-291.5 81,-291.5"/>
<text text-anchor="middle" x="112" y="-298.5" font-family="Helvetica,sans-Serif" font-size="10.00">IFunc3d2d</text>
</a>
</g>
</g>
<!-- Node6&#45;&gt;Node1 -->
<g id="edge9" class="edge"><title>Node6&#45;&gt;Node1</title>
<path fill="none" stroke="midnightblue" d="M92.4821,-284.846C69.9641,-265.496 36,-229.724 36,-190 36,-190 36,-190 36,-132 36,-94.0759 53.4963,-52.0412 63.748,-30.6665"/>
<polygon fill="midnightblue" stroke="midnightblue" points="90.518,-287.764 100.457,-291.433 94.9755,-282.366 90.518,-287.764"/>
</g>
<!-- Node6&#45;&gt;Node2 -->
<g id="edge8" class="edge"><title>Node6&#45;&gt;Node2</title>
<path fill="none" stroke="midnightblue" d="M106.948,-281.27C98.8985,-248.912 84.8631,-180.484 93,-123 94.8236,-110.117 99.4458,-95.7598 102.656,-86.8034"/>
<polygon fill="midnightblue" stroke="midnightblue" points="103.606,-282.329 109.499,-291.134 110.383,-280.576 103.606,-282.329"/>
</g>
<!-- Node6&#45;&gt;Node3 -->
<g id="edge7" class="edge"><title>Node6&#45;&gt;Node3</title>
<path fill="none" stroke="midnightblue" d="M113.423,-281.105C115.586,-257.005 120.603,-214.229 131,-179 134.872,-165.88 141.717,-151.582 146.305,-142.703"/>
<polygon fill="midnightblue" stroke="midnightblue" points="109.914,-281.067 112.579,-291.321 116.89,-281.643 109.914,-281.067"/>
</g>
<!-- Node6&#45;&gt;Node4 -->
<g id="edge6" class="edge"><title>Node6&#45;&gt;Node4</title>
<path fill="none" stroke="midnightblue" d="M126.027,-283.586C146.292,-259.871 183.039,-216.869 198.658,-198.591"/>
<polygon fill="midnightblue" stroke="midnightblue" points="123.212,-281.492 119.376,-291.368 128.533,-286.04 123.212,-281.492"/>
</g>
<!-- Node6&#45;&gt;Node5 -->
<g id="edge5" class="edge"><title>Node6&#45;&gt;Node5</title>
<path fill="none" stroke="midnightblue" d="M138.302,-286.726C158.115,-276.727 184.707,-263.307 201.851,-254.655"/>
<polygon fill="midnightblue" stroke="midnightblue" points="136.542,-283.694 129.191,-291.324 139.696,-289.943 136.542,-283.694"/>
</g>
</g>
</svg>
