<?xml version="1.0" encoding="UTF-8" standalone="no"?>
<!DOCTYPE svg PUBLIC "-//W3C//DTD SVG 1.1//EN"
 "http://www.w3.org/Graphics/SVG/1.1/DTD/svg11.dtd">
<!-- Generated by graphviz version 2.38.0 (20140413.2041)
 -->
<!-- Title: IG.Num.NeuralTrainingTable Pages: 1 -->
<svg width="356pt" height="305pt"
 viewBox="0.00 0.00 355.50 305.00" xmlns="http://www.w3.org/2000/svg" xmlns:xlink="http://www.w3.org/1999/xlink">
<g id="graph0" class="graph" transform="scale(1 1) rotate(0) translate(4 301)">
<title>IG.Num.NeuralTrainingTable</title>
<polygon fill="white" stroke="none" points="-4,4 -4,-301 351.5,-301 351.5,4 -4,4"/>
<!-- Node1 -->
<g id="node1" class="node"><title>Node1</title>
<g id="a_node1"><a xlink:title="Contains Parameters that define neural network architecture and trainig limits, together with achieve...">
<polygon fill="#bfbfbf" stroke="black" points="0,-0.5 0,-19.5 137,-19.5 137,-0.5 0,-0.5"/>
<text text-anchor="middle" x="68.5" y="-7.5" font-family="Helvetica,sans-Serif" font-size="10.00">IG.Num.NeuralTrainingTable</text>
</a>
</g>
</g>
<!-- Node2 -->
<g id="node2" class="node"><title>Node2</title>
<g id="a_node2"><a xlink:href="../../d3/db6/interfaceIG_1_1Lib_1_1ILockable.html" target="_top" xlink:title="Lockable object, has a Lock property that returns object on which lock must be performed in order to ...">
<polygon fill="white" stroke="black" points="2.5,-67.5 2.5,-86.5 60.5,-86.5 60.5,-67.5 2.5,-67.5"/>
<text text-anchor="middle" x="31.5" y="-74.5" font-family="Helvetica,sans-Serif" font-size="10.00">ILockable</text>
</a>
</g>
</g>
<!-- Node2&#45;&gt;Node1 -->
<g id="edge1" class="edge"><title>Node2&#45;&gt;Node1</title>
<path fill="none" stroke="midnightblue" d="M41.4418,-58.5347C48.6055,-45.9499 57.9651,-29.5072 63.5891,-19.6273"/>
<polygon fill="midnightblue" stroke="midnightblue" points="38.3953,-56.8117 36.49,-67.2338 44.4788,-60.2746 38.3953,-56.8117"/>
</g>
<!-- Node3 -->
<g id="node3" class="node"><title>Node3</title>
<g id="a_node3"><a xlink:href="../../d6/d82/classIG_1_1Num_1_1NeuralTrainingLimits.html" target="_top" xlink:title="Contains Parameters that define neural network architecture limits and trainig parameter limits.">
<polygon fill="white" stroke="black" points="78.5,-67.5 78.5,-86.5 218.5,-86.5 218.5,-67.5 78.5,-67.5"/>
<text text-anchor="middle" x="148.5" y="-74.5" font-family="Helvetica,sans-Serif" font-size="10.00">IG.Num.NeuralTrainingLimits</text>
</a>
</g>
</g>
<!-- Node3&#45;&gt;Node1 -->
<g id="edge2" class="edge"><title>Node3&#45;&gt;Node1</title>
<path fill="none" stroke="#9a32cd" stroke-dasharray="5,2" d="M129.686,-60.7134C113.924,-47.907 91.9934,-30.0884 79.1182,-19.6273"/>
<polygon fill="#9a32cd" stroke="#9a32cd" points="127.743,-63.6443 137.711,-67.2338 132.157,-58.2114 127.743,-63.6443"/>
<text text-anchor="middle" x="146" y="-41" font-family="Helvetica,sans-Serif" font-size="10.00"> _trainingLimits</text>
</g>
<!-- Node4 -->
<g id="node4" class="node"><title>Node4</title>
<g id="a_node4"><a xlink:href="../../d3/d24/interfaceIG_1_1Num_1_1IVector.html" target="_top" xlink:title="Generic Vector interface">
<polygon fill="white" stroke="black" points="47,-277.5 47,-296.5 154,-296.5 154,-277.5 47,-277.5"/>
<text text-anchor="middle" x="100.5" y="-284.5" font-family="Helvetica,sans-Serif" font-size="10.00">IG.Num.IVector&lt; T &gt;</text>
</a>
</g>
</g>
<!-- Node4&#45;&gt;Node3 -->
<g id="edge3" class="edge"><title>Node4&#45;&gt;Node3</title>
<path fill="none" stroke="#9a32cd" stroke-dasharray="5,2" d="M94.2283,-267.52C83.6611,-232.818 66.3431,-156.749 97.5,-105 102.564,-96.5888 111.225,-90.6607 119.986,-86.5472"/>
<polygon fill="#9a32cd" stroke="#9a32cd" points="90.9627,-268.798 97.352,-277.25 97.6277,-266.658 90.9627,-268.798"/>
<text text-anchor="middle" x="133.5" y="-196" font-family="Helvetica,sans-Serif" font-size="10.00"> _tolMaxRelative</text>
<text text-anchor="middle" x="133.5" y="-185" font-family="Helvetica,sans-Serif" font-size="10.00">_tolRmsRelative</text>
<text text-anchor="middle" x="133.5" y="-174" font-family="Helvetica,sans-Serif" font-size="10.00">_toleranceMax</text>
<text text-anchor="middle" x="133.5" y="-163" font-family="Helvetica,sans-Serif" font-size="10.00">_toleranceRms</text>
</g>
<!-- Node5 -->
<g id="node5" class="node"><title>Node5</title>
<g id="a_node5"><a xlink:title=" ">
<polygon fill="white" stroke="#bfbfbf" points="175,-277.5 175,-296.5 216,-296.5 216,-277.5 175,-277.5"/>
<text text-anchor="middle" x="195.5" y="-284.5" font-family="Helvetica,sans-Serif" font-size="10.00">static</text>
</a>
</g>
</g>
<!-- Node5&#45;&gt;Node3 -->
<g id="edge4" class="edge"><title>Node5&#45;&gt;Node3</title>
<path fill="none" stroke="#9a32cd" stroke-dasharray="5,2" d="M196.92,-266.799C198.658,-232.563 198.741,-159.466 173.5,-105 170.223,-97.9286 164.392,-91.4652 159.185,-86.6362"/>
<polygon fill="#9a32cd" stroke="#9a32cd" points="193.401,-266.996 196.274,-277.193 200.387,-267.429 193.401,-266.996"/>
<text text-anchor="start" x="197.5" y="-251" font-family="Helvetica,sans-Serif" font-size="10.00"> DefaultNumHiddenNeuronsFirst</text>
<text text-anchor="middle" x="272.5" y="-240" font-family="Helvetica,sans-Serif" font-size="10.00">Min</text>
<text text-anchor="middle" x="272.5" y="-229" font-family="Helvetica,sans-Serif" font-size="10.00">DefaultMomentumMin</text>
<text text-anchor="middle" x="272.5" y="-218" font-family="Helvetica,sans-Serif" font-size="10.00">DefaultMomentumMax</text>
<text text-anchor="middle" x="272.5" y="-207" font-family="Helvetica,sans-Serif" font-size="10.00">DefaultLearningRateMax</text>
<text text-anchor="start" x="197.5" y="-196" font-family="Helvetica,sans-Serif" font-size="10.00">DefaultNumHiddenNeuronsSecond</text>
<text text-anchor="middle" x="272.5" y="-185" font-family="Helvetica,sans-Serif" font-size="10.00">Num</text>
<text text-anchor="start" x="197.5" y="-174" font-family="Helvetica,sans-Serif" font-size="10.00">DefaultNumHiddenNeuronsSecond</text>
<text text-anchor="middle" x="272.5" y="-163" font-family="Helvetica,sans-Serif" font-size="10.00">Max</text>
<text text-anchor="middle" x="272.5" y="-152" font-family="Helvetica,sans-Serif" font-size="10.00">DefaultInputSafetyFactorMin</text>
<text text-anchor="middle" x="272.5" y="-141" font-family="Helvetica,sans-Serif" font-size="10.00">DefaultLearningRateNum</text>
<text text-anchor="middle" x="272.5" y="-130" font-family="Helvetica,sans-Serif" font-size="10.00">DefaultEpochBundle</text>
<text text-anchor="middle" x="272.5" y="-119" font-family="Helvetica,sans-Serif" font-size="10.00">DefaultAlphaMax</text>
<text text-anchor="middle" x="272.5" y="-108" font-family="Helvetica,sans-Serif" font-size="10.00">...</text>
</g>
</g>
</svg>
