<?xml version="1.0" encoding="UTF-8" standalone="no"?>
<!DOCTYPE svg PUBLIC "-//W3C//DTD SVG 1.1//EN"
 "http://www.w3.org/Graphics/SVG/1.1/DTD/svg11.dtd">
<!-- Generated by graphviz version 2.38.0 (20140413.2041)
 -->
<!-- Title: IG.Num.StructuredMesh2d&lt; TCoord, TIndexField, TIndex, TScalarField, TScalar, TVectorField, TVector, TTensorField, TTensor &gt; Pages: 1 -->
<svg width="172pt" height="206pt"
 viewBox="0.00 0.00 172.00 206.00" xmlns="http://www.w3.org/2000/svg" xmlns:xlink="http://www.w3.org/1999/xlink">
<g id="graph0" class="graph" transform="scale(1 1) rotate(0) translate(4 202)">
<title>IG.Num.StructuredMesh2d&lt; TCoord, TIndexField, TIndex, TScalarField, TScalar, TVectorField, TVector, TTensorField, TTensor &gt;</title>
<polygon fill="white" stroke="none" points="-4,4 -4,-202 168,-202 168,4 -4,4"/>
<!-- Node1 -->
<g id="node1" class="node"><title>Node1</title>
<g id="a_node1"><a xlink:title="Generic 2D structured mesh with collections of named scalar, vector, tensor and index fields.">
<polygon fill="#bfbfbf" stroke="black" points="0,-0.5 0,-63.5 164,-63.5 164,-0.5 0,-0.5"/>
<text text-anchor="start" x="8" y="-51.5" font-family="Helvetica,sans-Serif" font-size="10.00">IG.Num.StructuredMesh2d</text>
<text text-anchor="start" x="8" y="-40.5" font-family="Helvetica,sans-Serif" font-size="10.00">&lt; TCoord, TIndexField,</text>
<text text-anchor="start" x="8" y="-29.5" font-family="Helvetica,sans-Serif" font-size="10.00"> TIndex, TScalarField,</text>
<text text-anchor="start" x="8" y="-18.5" font-family="Helvetica,sans-Serif" font-size="10.00"> TScalar, TVectorField,</text>
<text text-anchor="middle" x="82" y="-7.5" font-family="Helvetica,sans-Serif" font-size="10.00"> TVector, TTensorField, TTensor &gt;</text>
</a>
</g>
</g>
<!-- Node2 -->
<g id="node2" class="node"><title>Node2</title>
<g id="a_node2"><a xlink:href="../../da/d85/classIG_1_1Num_1_1StructuredMeshGeometry2d.html" target="_top" xlink:title="Structured mesh geometry in 2 dimensions.">
<polygon fill="white" stroke="black" points="12.5,-100.5 12.5,-130.5 151.5,-130.5 151.5,-100.5 12.5,-100.5"/>
<text text-anchor="start" x="20.5" y="-118.5" font-family="Helvetica,sans-Serif" font-size="10.00">StructuredMeshGeometry2d</text>
<text text-anchor="middle" x="82" y="-107.5" font-family="Helvetica,sans-Serif" font-size="10.00">&lt; TCoord &gt;</text>
</a>
</g>
</g>
<!-- Node2&#45;&gt;Node1 -->
<g id="edge1" class="edge"><title>Node2&#45;&gt;Node1</title>
<path fill="none" stroke="midnightblue" d="M82,-90.1194C82,-81.7781 82,-72.3394 82,-63.5722"/>
<polygon fill="midnightblue" stroke="midnightblue" points="78.5001,-90.3037 82,-100.304 85.5001,-90.3038 78.5001,-90.3037"/>
</g>
<!-- Node3 -->
<g id="node3" class="node"><title>Node3</title>
<g id="a_node3"><a xlink:href="../../dd/db2/classIG_1_1Num_1_1StructuredField2d.html" target="_top" xlink:title=" ">
<polygon fill="white" stroke="black" points="32.5,-167.5 32.5,-197.5 131.5,-197.5 131.5,-167.5 32.5,-167.5"/>
<text text-anchor="start" x="40.5" y="-185.5" font-family="Helvetica,sans-Serif" font-size="10.00">StructuredField2d&lt;</text>
<text text-anchor="middle" x="82" y="-174.5" font-family="Helvetica,sans-Serif" font-size="10.00"> TCoord &gt;</text>
</a>
</g>
</g>
<!-- Node3&#45;&gt;Node2 -->
<g id="edge2" class="edge"><title>Node3&#45;&gt;Node2</title>
<path fill="none" stroke="midnightblue" d="M82,-157.108C82,-148.154 82,-138.323 82,-130.577"/>
<polygon fill="midnightblue" stroke="midnightblue" points="78.5001,-157.396 82,-167.396 85.5001,-157.396 78.5001,-157.396"/>
</g>
</g>
</svg>
