<?xml version="1.0" encoding="UTF-8" standalone="no"?>
<!DOCTYPE svg PUBLIC "-//W3C//DTD SVG 1.1//EN"
 "http://www.w3.org/Graphics/SVG/1.1/DTD/svg11.dtd">
<!-- Generated by graphviz version 2.38.0 (20140413.2041)
 -->
<!-- Title: IG.Num.Counter Pages: 1 -->
<svg width="351pt" height="84pt"
 viewBox="0.00 0.00 351.00 84.00" xmlns="http://www.w3.org/2000/svg" xmlns:xlink="http://www.w3.org/1999/xlink">
<g id="graph0" class="graph" transform="scale(1 1) rotate(0) translate(4 80)">
<title>IG.Num.Counter</title>
<polygon fill="white" stroke="none" points="-4,4 -4,-80 347,-80 347,4 -4,4"/>
<!-- Node1 -->
<g id="node1" class="node"><title>Node1</title>
<g id="a_node1"><a xlink:title="Represents a real number.">
<polygon fill="#bfbfbf" stroke="black" points="107.5,-0.5 107.5,-19.5 193.5,-19.5 193.5,-0.5 107.5,-0.5"/>
<text text-anchor="middle" x="150.5" y="-7.5" font-family="Helvetica,sans-Serif" font-size="10.00">IG.Num.Counter</text>
</a>
</g>
</g>
<!-- Node2 -->
<g id="node2" class="node"><title>Node2</title>
<g id="a_node2"><a xlink:title=" ">
<polygon fill="white" stroke="#bfbfbf" points="0,-56.5 0,-75.5 71,-75.5 71,-56.5 0,-56.5"/>
<text text-anchor="middle" x="35.5" y="-63.5" font-family="Helvetica,sans-Serif" font-size="10.00">IFormattable</text>
</a>
</g>
</g>
<!-- Node2&#45;&gt;Node1 -->
<g id="edge1" class="edge"><title>Node2&#45;&gt;Node1</title>
<path fill="none" stroke="midnightblue" d="M62.9808,-52.096C84.4659,-42.0073 113.722,-28.2697 132.363,-19.5164"/>
<polygon fill="midnightblue" stroke="midnightblue" points="61.2862,-49.025 53.7221,-56.4435 64.2615,-55.3612 61.2862,-49.025"/>
</g>
<!-- Node3 -->
<g id="node3" class="node"><title>Node3</title>
<g id="a_node3"><a xlink:title=" ">
<polygon fill="white" stroke="#bfbfbf" points="89.5,-56.5 89.5,-75.5 211.5,-75.5 211.5,-56.5 89.5,-56.5"/>
<text text-anchor="middle" x="150.5" y="-63.5" font-family="Helvetica,sans-Serif" font-size="10.00">IComparable&lt; Counter &gt;</text>
</a>
</g>
</g>
<!-- Node3&#45;&gt;Node1 -->
<g id="edge2" class="edge"><title>Node3&#45;&gt;Node1</title>
<path fill="none" stroke="midnightblue" d="M150.5,-45.8045C150.5,-36.9102 150.5,-26.7798 150.5,-19.7511"/>
<polygon fill="midnightblue" stroke="midnightblue" points="147,-46.083 150.5,-56.083 154,-46.083 147,-46.083"/>
</g>
<!-- Node4 -->
<g id="node4" class="node"><title>Node4</title>
<g id="a_node4"><a xlink:title=" ">
<polygon fill="white" stroke="#bfbfbf" points="230,-56.5 230,-75.5 343,-75.5 343,-56.5 230,-56.5"/>
<text text-anchor="middle" x="286.5" y="-63.5" font-family="Helvetica,sans-Serif" font-size="10.00">IComparer&lt; Counter &gt;</text>
</a>
</g>
</g>
<!-- Node4&#45;&gt;Node1 -->
<g id="edge3" class="edge"><title>Node4&#45;&gt;Node1</title>
<path fill="none" stroke="midnightblue" d="M255.365,-52.6377C229.843,-42.504 194.391,-28.4274 171.949,-19.5164"/>
<polygon fill="midnightblue" stroke="midnightblue" points="254.365,-56.0061 264.95,-56.4435 256.948,-49.5002 254.365,-56.0061"/>
</g>
</g>
</svg>
