<?xml version="1.0" encoding="UTF-8" standalone="no"?>
<!DOCTYPE svg PUBLIC "-//W3C//DTD SVG 1.1//EN"
 "http://www.w3.org/Graphics/SVG/1.1/DTD/svg11.dtd">
<!-- Generated by graphviz version 2.38.0 (20140413.2041)
 -->
<!-- Title: IG.Num.ScalarFunctionRadialOneParametric Pages: 1 -->
<svg width="1038pt" height="186pt"
 viewBox="0.00 0.00 1038.00 185.99" xmlns="http://www.w3.org/2000/svg" xmlns:xlink="http://www.w3.org/1999/xlink">
<g id="graph0" class="graph" transform="scale(1 1) rotate(0) translate(4 181.991)">
<title>IG.Num.ScalarFunctionRadialOneParametric</title>
<polygon fill="white" stroke="none" points="-4,4 -4,-181.991 1034,-181.991 1034,4 -4,4"/>
<!-- Node1 -->
<g id="node1" class="node"><title>Node1</title>
<g id="a_node1"><a xlink:title="Base class for one parametric families of radial scalar functions with affine transformation of co&#45;or...">
<polygon fill="#bfbfbf" stroke="black" points="885,-38.9909 885,-68.9909 1030,-68.9909 1030,-38.9909 885,-38.9909"/>
<text text-anchor="start" x="893" y="-56.9909" font-family="Helvetica,sans-Serif" font-size="10.00">IG.Num.ScalarFunctionRadial</text>
<text text-anchor="middle" x="957.5" y="-45.9909" font-family="Helvetica,sans-Serif" font-size="10.00">OneParametric</text>
</a>
</g>
</g>
<!-- Node2 -->
<g id="node2" class="node"><title>Node2</title>
<g id="a_node2"><a xlink:href="../../d4/d52/classIG_1_1Num_1_1ScalarFunctionRadialParametric.html" target="_top" xlink:title="Parametric scalar function.">
<polygon fill="white" stroke="black" points="693,-101.491 693,-120.491 849,-120.491 849,-101.491 693,-101.491"/>
<text text-anchor="middle" x="771" y="-108.491" font-family="Helvetica,sans-Serif" font-size="10.00">ScalarFunctionRadialParametric</text>
</a>
</g>
</g>
<!-- Node2&#45;&gt;Node1 -->
<g id="edge1" class="edge"><title>Node2&#45;&gt;Node1</title>
<path fill="none" stroke="midnightblue" d="M812.758,-98.399C840.801,-89.7355 878.183,-78.1865 907.796,-69.0378"/>
<polygon fill="midnightblue" stroke="midnightblue" points="811.402,-95.1545 802.881,-101.45 813.469,-101.843 811.402,-95.1545"/>
</g>
<!-- Node3 -->
<g id="node3" class="node"><title>Node3</title>
<g id="a_node3"><a xlink:href="../../df/dd1/classIG_1_1Num_1_1ScalarFunctionRadial.html" target="_top" xlink:title="Radial scalar functions.">
<polygon fill="white" stroke="black" points="537,-120.491 537,-139.491 646,-139.491 646,-120.491 537,-120.491"/>
<text text-anchor="middle" x="591.5" y="-127.491" font-family="Helvetica,sans-Serif" font-size="10.00">ScalarFunctionRadial</text>
</a>
</g>
</g>
<!-- Node3&#45;&gt;Node2 -->
<g id="edge2" class="edge"><title>Node3&#45;&gt;Node2</title>
<path fill="none" stroke="midnightblue" d="M656.436,-123.147C668.254,-121.882 680.711,-120.549 692.872,-119.247"/>
<polygon fill="midnightblue" stroke="midnightblue" points="655.808,-119.694 646.238,-124.239 656.553,-126.654 655.808,-119.694"/>
</g>
<!-- Node4 -->
<g id="node4" class="node"><title>Node4</title>
<g id="a_node4"><a xlink:href="../../d2/d85/classIG_1_1Num_1_1ScalarFunctionBase.html" target="_top" xlink:title="Base class for scalar functions with affine transformation of co&#45;ordinates. The reference function is...">
<polygon fill="white" stroke="black" points="386,-158.491 386,-177.491 490,-177.491 490,-158.491 386,-158.491"/>
<text text-anchor="middle" x="438" y="-165.491" font-family="Helvetica,sans-Serif" font-size="10.00">ScalarFunctionBase</text>
</a>
</g>
</g>
<!-- Node4&#45;&gt;Node3 -->
<g id="edge3" class="edge"><title>Node4&#45;&gt;Node3</title>
<path fill="none" stroke="midnightblue" d="M487.002,-155.951C508.167,-150.642 532.686,-144.492 552.545,-139.511"/>
<polygon fill="midnightblue" stroke="midnightblue" points="486.078,-152.574 477.23,-158.402 487.781,-159.364 486.078,-152.574"/>
</g>
<!-- Node5 -->
<g id="node5" class="node"><title>Node5</title>
<g id="a_node5"><a xlink:href="../../d2/d9e/classIG_1_1Num_1_1ScalarFunctionUntransformedBase.html" target="_top" xlink:title="Base class for defining scalar functions without possibility of affine transformation of parameters.">
<polygon fill="white" stroke="black" points="183,-148.491 183,-167.491 350,-167.491 350,-148.491 183,-148.491"/>
<text text-anchor="middle" x="266.5" y="-155.491" font-family="Helvetica,sans-Serif" font-size="10.00">ScalarFunctionUntransformedBase</text>
</a>
</g>
</g>
<!-- Node5&#45;&gt;Node4 -->
<g id="edge4" class="edge"><title>Node5&#45;&gt;Node4</title>
<path fill="none" stroke="midnightblue" d="M360.465,-163.476C369.129,-163.987 377.676,-164.491 385.742,-164.967"/>
<polygon fill="midnightblue" stroke="midnightblue" points="360.453,-159.969 350.264,-162.874 360.04,-166.957 360.453,-159.969"/>
</g>
<!-- Node6 -->
<g id="node6" class="node"><title>Node6</title>
<g id="a_node6"><a xlink:href="../../d8/d56/interfaceIG_1_1Num_1_1IScalarFunctionUntransformed.html" target="_top" xlink:title="Scalar functions of vector arguments.">
<polygon fill="white" stroke="black" points="0,-119.491 0,-138.491 147,-138.491 147,-119.491 0,-119.491"/>
<text text-anchor="middle" x="73.5" y="-126.491" font-family="Helvetica,sans-Serif" font-size="10.00">IScalarFunctionUntransformed</text>
</a>
</g>
</g>
<!-- Node6&#45;&gt;Node5 -->
<g id="edge5" class="edge"><title>Node6&#45;&gt;Node5</title>
<path fill="none" stroke="midnightblue" d="M147.299,-140.044C165.538,-142.813 184.949,-145.761 202.657,-148.449"/>
<polygon fill="midnightblue" stroke="midnightblue" points="147.717,-136.568 137.305,-138.527 146.666,-143.488 147.717,-136.568"/>
</g>
<!-- Node7 -->
<g id="node7" class="node"><title>Node7</title>
<g id="a_node7"><a xlink:href="../../dd/d1e/interfaceIG_1_1Num_1_1IScalarFunction.html" target="_top" xlink:title="Scalar functions of vector arguments, with eventual affine transformation of parameters....">
<polygon fill="white" stroke="black" points="224.5,-91.4909 224.5,-110.491 308.5,-110.491 308.5,-91.4909 224.5,-91.4909"/>
<text text-anchor="middle" x="266.5" y="-98.4909" font-family="Helvetica,sans-Serif" font-size="10.00">IScalarFunction</text>
</a>
</g>
</g>
<!-- Node6&#45;&gt;Node7 -->
<g id="edge7" class="edge"><title>Node6&#45;&gt;Node7</title>
<path fill="none" stroke="midnightblue" d="M149.46,-118.002C174.965,-114.263 202.521,-110.224 224.377,-107.019"/>
<polygon fill="midnightblue" stroke="midnightblue" points="148.817,-114.559 139.43,-119.472 149.832,-121.485 148.817,-114.559"/>
</g>
<!-- Node7&#45;&gt;Node1 -->
<g id="edge12" class="edge"><title>Node7&#45;&gt;Node1</title>
<path fill="none" stroke="midnightblue" d="M301.164,-87.7647C324.649,-78.9294 356.876,-67.5798 386,-59.9909 586.026,-7.86977 645.271,18.9574 849,-15.9909 874.753,-20.4087 902.529,-30.3737 923.395,-38.9908"/>
<polygon fill="midnightblue" stroke="midnightblue" points="299.769,-84.5505 291.668,-91.379 302.259,-91.0926 299.769,-84.5505"/>
</g>
<!-- Node7&#45;&gt;Node2 -->
<g id="edge9" class="edge"><title>Node7&#45;&gt;Node2</title>
<path fill="none" stroke="midnightblue" d="M318.67,-102.009C407.049,-103.768 588.785,-107.385 692.663,-109.452"/>
<polygon fill="midnightblue" stroke="midnightblue" points="318.689,-98.509 308.622,-101.809 318.55,-105.508 318.689,-98.509"/>
</g>
<!-- Node7&#45;&gt;Node3 -->
<g id="edge8" class="edge"><title>Node7&#45;&gt;Node3</title>
<path fill="none" stroke="midnightblue" d="M319.05,-105.619C378.684,-110.973 476.401,-119.747 536.894,-125.178"/>
<polygon fill="midnightblue" stroke="midnightblue" points="319.009,-102.102 308.736,-104.693 318.383,-109.074 319.009,-102.102"/>
</g>
<!-- Node7&#45;&gt;Node4 -->
<g id="edge6" class="edge"><title>Node7&#45;&gt;Node4</title>
<path fill="none" stroke="midnightblue" d="M301.449,-114.41C334.397,-127.434 383.579,-146.875 412.76,-158.409"/>
<polygon fill="midnightblue" stroke="midnightblue" points="302.372,-111.012 291.785,-110.59 299.798,-117.521 302.372,-111.012"/>
</g>
<!-- Node8 -->
<g id="node8" class="node"><title>Node8</title>
<g id="a_node8"><a xlink:href="../../d4/d4e/interfaceIG_1_1Num_1_1IScalarFunctionParametric.html" target="_top" xlink:title="Parameterized scalar functions with affine transformation of coordinates.">
<polygon fill="white" stroke="black" points="526,-44.4909 526,-63.4909 657,-63.4909 657,-44.4909 526,-44.4909"/>
<text text-anchor="middle" x="591.5" y="-51.4909" font-family="Helvetica,sans-Serif" font-size="10.00">IScalarFunctionParametric</text>
</a>
</g>
</g>
<!-- Node7&#45;&gt;Node8 -->
<g id="edge11" class="edge"><title>Node7&#45;&gt;Node8</title>
<path fill="none" stroke="midnightblue" d="M318.687,-90.187C339.509,-86.0192 363.844,-81.4363 386,-77.9909 432.626,-70.7405 485.539,-64.5862 525.859,-60.3254"/>
<polygon fill="midnightblue" stroke="midnightblue" points="317.879,-86.7794 308.772,-92.1929 319.267,-93.6404 317.879,-86.7794"/>
</g>
<!-- Node8&#45;&gt;Node1 -->
<g id="edge13" class="edge"><title>Node8&#45;&gt;Node1</title>
<path fill="none" stroke="midnightblue" d="M667.544,-53.9909C731.311,-53.9909 822.227,-53.9909 884.97,-53.9909"/>
<polygon fill="midnightblue" stroke="midnightblue" points="667.157,-50.491 657.156,-53.9909 667.156,-57.491 667.157,-50.491"/>
</g>
<!-- Node8&#45;&gt;Node2 -->
<g id="edge10" class="edge"><title>Node8&#45;&gt;Node2</title>
<path fill="none" stroke="midnightblue" d="M630.718,-66.6907C649.464,-72.8815 672.392,-80.3962 693,-86.9909 708.07,-91.8134 724.839,-97.0546 738.87,-101.405"/>
<polygon fill="midnightblue" stroke="midnightblue" points="631.647,-63.3114 621.054,-63.4941 629.449,-69.9573 631.647,-63.3114"/>
</g>
<!-- Node9 -->
<g id="node9" class="node"><title>Node9</title>
<g id="a_node9"><a xlink:href="../../d1/d49/interfaceIG_1_1Num_1_1IScalarFunctionOneParametric.html" target="_top" xlink:title=" ">
<polygon fill="white" stroke="black" points="696.5,-25.4909 696.5,-44.4909 845.5,-44.4909 845.5,-25.4909 696.5,-25.4909"/>
<text text-anchor="middle" x="771" y="-32.4909" font-family="Helvetica,sans-Serif" font-size="10.00">IScalarFunctionOneParametric</text>
</a>
</g>
</g>
<!-- Node8&#45;&gt;Node9 -->
<g id="edge15" class="edge"><title>Node8&#45;&gt;Node9</title>
<path fill="none" stroke="midnightblue" d="M667.098,-46.0058C676.808,-44.9665 686.749,-43.9023 696.441,-42.8648"/>
<polygon fill="midnightblue" stroke="midnightblue" points="666.654,-42.5332 657.084,-47.0778 667.399,-49.4935 666.654,-42.5332"/>
</g>
<!-- Node9&#45;&gt;Node1 -->
<g id="edge14" class="edge"><title>Node9&#45;&gt;Node1</title>
<path fill="none" stroke="midnightblue" d="M855.733,-43.6139C865.408,-44.6102 875.209,-45.6195 884.705,-46.5975"/>
<polygon fill="midnightblue" stroke="midnightblue" points="856.021,-40.1251 845.715,-42.5822 855.304,-47.0882 856.021,-40.1251"/>
</g>
</g>
</svg>
