<?xml version="1.0" encoding="UTF-8" standalone="no"?>
<!DOCTYPE svg PUBLIC "-//W3C//DTD SVG 1.1//EN"
 "http://www.w3.org/Graphics/SVG/1.1/DTD/svg11.dtd">
<!-- Generated by graphviz version 2.38.0 (20140413.2041)
 -->
<!-- Title: IG.Lib.ObjectStore&lt; T &gt; Pages: 1 -->
<svg width="178pt" height="84pt"
 viewBox="0.00 0.00 178.00 84.00" xmlns="http://www.w3.org/2000/svg" xmlns:xlink="http://www.w3.org/1999/xlink">
<g id="graph0" class="graph" transform="scale(1 1) rotate(0) translate(4 80)">
<title>IG.Lib.ObjectStore&lt; T &gt;</title>
<polygon fill="white" stroke="none" points="-4,4 -4,-80 174,-80 174,4 -4,4"/>
<!-- Node1 -->
<g id="node1" class="node"><title>Node1</title>
<g id="a_node1"><a xlink:title="Object store. Objects of the specified type can be stored here for later reuse (efficiency improvemen...">
<polygon fill="#bfbfbf" stroke="black" points="34,-0.5 34,-19.5 154,-19.5 154,-0.5 34,-0.5"/>
<text text-anchor="middle" x="94" y="-7.5" font-family="Helvetica,sans-Serif" font-size="10.00">IG.Lib.ObjectStore&lt; T &gt;</text>
</a>
</g>
</g>
<!-- Node2 -->
<g id="node2" class="node"><title>Node2</title>
<g id="a_node2"><a xlink:href="../../d5/dd6/interfaceIG_1_1Lib_1_1IObjectStore.html" target="_top" xlink:title="Object store. Objects of the specified type can be stored here for later reuse (efficiency improvemen...">
<polygon fill="white" stroke="black" points="0,-56.5 0,-75.5 94,-75.5 94,-56.5 0,-56.5"/>
<text text-anchor="middle" x="47" y="-63.5" font-family="Helvetica,sans-Serif" font-size="10.00">IObjectStore&lt; T &gt;</text>
</a>
</g>
</g>
<!-- Node2&#45;&gt;Node1 -->
<g id="edge1" class="edge"><title>Node2&#45;&gt;Node1</title>
<path fill="none" stroke="midnightblue" d="M61.4208,-48.4314C69.6581,-38.9673 79.6539,-27.4827 86.3833,-19.7511"/>
<polygon fill="midnightblue" stroke="midnightblue" points="58.6863,-46.2421 54.7611,-56.083 63.9664,-50.8378 58.6863,-46.2421"/>
</g>
<!-- Node3 -->
<g id="node3" class="node"><title>Node3</title>
<g id="a_node3"><a xlink:href="../../d3/db6/interfaceIG_1_1Lib_1_1ILockable.html" target="_top" xlink:title="Lockable object, has a Lock property that returns object on which lock must be performed in order to ...">
<polygon fill="white" stroke="black" points="112,-56.5 112,-75.5 170,-75.5 170,-56.5 112,-56.5"/>
<text text-anchor="middle" x="141" y="-63.5" font-family="Helvetica,sans-Serif" font-size="10.00">ILockable</text>
</a>
</g>
</g>
<!-- Node3&#45;&gt;Node1 -->
<g id="edge2" class="edge"><title>Node3&#45;&gt;Node1</title>
<path fill="none" stroke="midnightblue" d="M126.579,-48.4314C118.342,-38.9673 108.346,-27.4827 101.617,-19.7511"/>
<polygon fill="midnightblue" stroke="midnightblue" points="124.034,-50.8378 133.239,-56.083 129.314,-46.2421 124.034,-50.8378"/>
</g>
</g>
</svg>
