<?xml version="1.0" encoding="UTF-8" standalone="no"?>
<!DOCTYPE svg PUBLIC "-//W3C//DTD SVG 1.1//EN"
 "http://www.w3.org/Graphics/SVG/1.1/DTD/svg11.dtd">
<!-- Generated by graphviz version 2.38.0 (20140413.2041)
 -->
<!-- Title: IG.Num.QRDecomposition Pages: 1 -->
<svg width="476pt" height="187pt"
 viewBox="0.00 0.00 476.00 187.00" xmlns="http://www.w3.org/2000/svg" xmlns:xlink="http://www.w3.org/1999/xlink">
<g id="graph0" class="graph" transform="scale(1 1) rotate(0) translate(4 183)">
<title>IG.Num.QRDecomposition</title>
<polygon fill="white" stroke="none" points="-4,4 -4,-183 472,-183 472,4 -4,4"/>
<!-- Node1 -->
<g id="node1" class="node"><title>Node1</title>
<g id="a_node1"><a xlink:title="QR decomposition of a matrix.">
<polygon fill="#bfbfbf" stroke="black" points="269,-0.5 269,-19.5 400,-19.5 400,-0.5 269,-0.5"/>
<text text-anchor="middle" x="334.5" y="-7.5" font-family="Helvetica,sans-Serif" font-size="10.00">IG.Num.QRDecomposition</text>
</a>
</g>
</g>
<!-- Node2 -->
<g id="node2" class="node"><title>Node2</title>
<g id="a_node2"><a xlink:href="../../d1/d9a/classIG_1_1Num_1_1LinearSolverBase.html" target="_top" xlink:title=" ">
<polygon fill="white" stroke="black" points="56.5,-58.5 56.5,-77.5 148.5,-77.5 148.5,-58.5 56.5,-58.5"/>
<text text-anchor="middle" x="102.5" y="-65.5" font-family="Helvetica,sans-Serif" font-size="10.00">LinearSolverBase</text>
</a>
</g>
</g>
<!-- Node2&#45;&gt;Node1 -->
<g id="edge1" class="edge"><title>Node2&#45;&gt;Node1</title>
<path fill="none" stroke="midnightblue" d="M147.64,-56.1041C191.855,-45.4314 258.337,-29.3843 298.933,-19.5852"/>
<polygon fill="midnightblue" stroke="midnightblue" points="146.635,-52.746 137.736,-58.4948 148.278,-59.5506 146.635,-52.746"/>
</g>
<!-- Node3 -->
<g id="node3" class="node"><title>Node3</title>
<g id="a_node3"><a xlink:href="../../d3/d24/interfaceIG_1_1Num_1_1IVector.html" target="_top" xlink:title="Generic Vector interface">
<polygon fill="white" stroke="black" points="0,-159.5 0,-178.5 107,-178.5 107,-159.5 0,-159.5"/>
<text text-anchor="middle" x="53.5" y="-166.5" font-family="Helvetica,sans-Serif" font-size="10.00">IG.Num.IVector&lt; T &gt;</text>
</a>
</g>
</g>
<!-- Node3&#45;&gt;Node2 -->
<g id="edge2" class="edge"><title>Node3&#45;&gt;Node2</title>
<path fill="none" stroke="#9a32cd" stroke-dasharray="5,2" d="M48.9839,-149.233C46.408,-134.088 45.2882,-112.78 54.5,-97 59.607,-88.2517 68.5997,-81.9693 77.4313,-77.6018"/>
<polygon fill="#9a32cd" stroke="#9a32cd" points="45.6378,-150.335 51.0905,-159.419 52.4927,-148.918 45.6378,-150.335"/>
<text text-anchor="middle" x="67.5" y="-122" font-family="Helvetica,sans-Serif" font-size="10.00"> auxB</text>
<text text-anchor="middle" x="67.5" y="-111" font-family="Helvetica,sans-Serif" font-size="10.00">auxX</text>
</g>
<!-- Node4 -->
<g id="node4" class="node"><title>Node4</title>
<g id="a_node4"><a xlink:title=" ">
<polygon fill="white" stroke="#bfbfbf" points="216.5,-159.5 216.5,-178.5 274.5,-178.5 274.5,-159.5 216.5,-159.5"/>
<text text-anchor="middle" x="245.5" y="-166.5" font-family="Helvetica,sans-Serif" font-size="10.00">Numerics</text>
</a>
</g>
</g>
<!-- Node4&#45;&gt;Node1 -->
<g id="edge7" class="edge"><title>Node4&#45;&gt;Node1</title>
<path fill="none" stroke="#9a32cd" stroke-dasharray="5,2" d="M273.775,-153.996C278.942,-150.367 283.847,-146.034 287.5,-141 310.168,-109.766 295.293,-92.8825 309.5,-57 314.92,-43.3093 323.492,-28.5251 329.056,-19.5138"/>
<polygon fill="#9a32cd" stroke="#9a32cd" points="271.654,-151.193 265.004,-159.44 275.346,-157.14 271.654,-151.193"/>
<text text-anchor="middle" x="329" y="-71" font-family="Helvetica,sans-Serif" font-size="10.00"> _inverse</text>
<text text-anchor="middle" x="329" y="-60" font-family="Helvetica,sans-Serif" font-size="10.00">Base</text>
</g>
<!-- Node4&#45;&gt;Node2 -->
<g id="edge3" class="edge"><title>Node4&#45;&gt;Node2</title>
<path fill="none" stroke="#9a32cd" stroke-dasharray="5,2" d="M206.309,-165.966C168.923,-163.113 116.442,-156.416 103.5,-141 88.3883,-123 94.9326,-92.6075 99.4755,-77.7314"/>
<polygon fill="#9a32cd" stroke="#9a32cd" points="206.187,-169.466 216.407,-166.673 206.676,-162.483 206.187,-169.466"/>
<text text-anchor="middle" x="195.5" y="-133" font-family="Helvetica,sans-Serif" font-size="10.00"> _vectorSolution_MathNetNumerics</text>
<text text-anchor="middle" x="195.5" y="-122" font-family="Helvetica,sans-Serif" font-size="10.00">_matrixSolution_MathNetNumerics</text>
<text text-anchor="middle" x="195.5" y="-111" font-family="Helvetica,sans-Serif" font-size="10.00">_matrixRighthandSides_MathNetNumerics</text>
<text text-anchor="middle" x="195.5" y="-100" font-family="Helvetica,sans-Serif" font-size="10.00">_vectorRighthandSides_MathNetNumerics</text>
</g>
<!-- Node5 -->
<g id="node5" class="node"><title>Node5</title>
<g id="a_node5"><a xlink:href="../../da/d85/interfaceIG_1_1Num_1_1ILinearSolver.html" target="_top" xlink:title="Classes that can be used for solution of linear systems of equations.">
<polygon fill="white" stroke="black" points="397,-58.5 397,-77.5 468,-77.5 468,-58.5 397,-58.5"/>
<text text-anchor="middle" x="432.5" y="-65.5" font-family="Helvetica,sans-Serif" font-size="10.00">ILinearSolver</text>
</a>
</g>
</g>
<!-- Node5&#45;&gt;Node1 -->
<g id="edge4" class="edge"><title>Node5&#45;&gt;Node1</title>
<path fill="none" stroke="midnightblue" d="M408.836,-53.1891C400.523,-48.3603 391.11,-42.9182 382.5,-38 371.707,-31.8349 359.498,-24.9687 350.094,-19.7032"/>
<polygon fill="midnightblue" stroke="midnightblue" points="407.249,-56.3152 417.652,-58.3197 410.77,-50.265 407.249,-56.3152"/>
</g>
<!-- Node6 -->
<g id="node6" class="node"><title>Node6</title>
<g id="a_node6"><a xlink:href="../../d3/db6/interfaceIG_1_1Lib_1_1ILockable.html" target="_top" xlink:title="Lockable object, has a Lock property that returns object on which lock must be performed in order to ...">
<polygon fill="white" stroke="black" points="361.5,-159.5 361.5,-178.5 419.5,-178.5 419.5,-159.5 361.5,-159.5"/>
<text text-anchor="middle" x="390.5" y="-166.5" font-family="Helvetica,sans-Serif" font-size="10.00">ILockable</text>
</a>
</g>
</g>
<!-- Node6&#45;&gt;Node1 -->
<g id="edge6" class="edge"><title>Node6&#45;&gt;Node1</title>
<path fill="none" stroke="midnightblue" d="M383.902,-149.501C371.8,-115.574 346.488,-44.608 337.636,-19.7933"/>
<polygon fill="midnightblue" stroke="midnightblue" points="380.673,-150.866 387.329,-159.109 387.266,-148.515 380.673,-150.866"/>
</g>
<!-- Node6&#45;&gt;Node5 -->
<g id="edge5" class="edge"><title>Node6&#45;&gt;Node5</title>
<path fill="none" stroke="midnightblue" d="M398.173,-149.913C407.263,-128.488 422.027,-93.6858 428.841,-77.6245"/>
<polygon fill="midnightblue" stroke="midnightblue" points="394.911,-148.642 394.227,-159.214 401.355,-151.376 394.911,-148.642"/>
</g>
</g>
</svg>
