<?xml version="1.0" encoding="UTF-8" standalone="no"?>
<!DOCTYPE svg PUBLIC "-//W3C//DTD SVG 1.1//EN"
 "http://www.w3.org/Graphics/SVG/1.1/DTD/svg11.dtd">
<!-- Generated by graphviz version 2.38.0 (20140413.2041)
 -->
<!-- Title: IG.Num.Experimental.ExampleMathClassExperimental Pages: 1 -->
<svg width="185pt" height="288pt"
 viewBox="0.00 0.00 184.50 288.00" xmlns="http://www.w3.org/2000/svg" xmlns:xlink="http://www.w3.org/1999/xlink">
<g id="graph0" class="graph" transform="scale(1 1) rotate(0) translate(4 284)">
<title>IG.Num.Experimental.ExampleMathClassExperimental</title>
<polygon fill="white" stroke="none" points="-4,4 -4,-284 180.5,-284 180.5,4 -4,4"/>
<!-- Node1 -->
<g id="node1" class="node"><title>Node1</title>
<g id="a_node1"><a xlink:title="Example class that derives from the M class. Implements a method that uses basic mathematical functio...">
<polygon fill="#bfbfbf" stroke="black" points="0,-0.5 0,-30.5 151,-30.5 151,-0.5 0,-0.5"/>
<text text-anchor="start" x="8" y="-18.5" font-family="Helvetica,sans-Serif" font-size="10.00">IG.Num.Experimental.Example</text>
<text text-anchor="middle" x="75.5" y="-7.5" font-family="Helvetica,sans-Serif" font-size="10.00">MathClassExperimental</text>
</a>
</g>
</g>
<!-- Node2 -->
<g id="node2" class="node"><title>Node2</title>
<g id="a_node2"><a xlink:href="../../d8/d55/classIG_1_1Num_1_1Experimental_1_1MX.html" target="_top" xlink:title="Defines some mathematical functions to be used in derived classes. Beside the auxiliary functions alr...">
<polygon fill="white" stroke="black" points="60.5,-68.5 60.5,-87.5 90.5,-87.5 90.5,-68.5 60.5,-68.5"/>
<text text-anchor="middle" x="75.5" y="-75.5" font-family="Helvetica,sans-Serif" font-size="10.00">MX</text>
</a>
</g>
</g>
<!-- Node2&#45;&gt;Node1 -->
<g id="edge1" class="edge"><title>Node2&#45;&gt;Node1</title>
<path fill="none" stroke="midnightblue" d="M75.5,-58.2154C75.5,-49.3565 75.5,-38.9577 75.5,-30.7587"/>
<polygon fill="midnightblue" stroke="midnightblue" points="72.0001,-58.3318 75.5,-68.3318 79.0001,-58.3319 72.0001,-58.3318"/>
</g>
<!-- Node3 -->
<g id="node3" class="node"><title>Node3</title>
<g id="a_node3"><a xlink:href="../../d7/d48/classIG_1_1Num_1_1MExt.html" target="_top" xlink:title="Defines some mathematical functions to be used in derived classes. In addition to functions defined i...">
<polygon fill="white" stroke="black" points="55.5,-125.5 55.5,-144.5 95.5,-144.5 95.5,-125.5 55.5,-125.5"/>
<text text-anchor="middle" x="75.5" y="-132.5" font-family="Helvetica,sans-Serif" font-size="10.00">MExt</text>
</a>
</g>
</g>
<!-- Node3&#45;&gt;Node2 -->
<g id="edge2" class="edge"><title>Node3&#45;&gt;Node2</title>
<path fill="none" stroke="midnightblue" d="M75.5,-115.117C75.5,-105.817 75.5,-95.0557 75.5,-87.7149"/>
<polygon fill="midnightblue" stroke="midnightblue" points="72.0001,-115.406 75.5,-125.406 79.0001,-115.406 72.0001,-115.406"/>
</g>
<!-- Node4 -->
<g id="node4" class="node"><title>Node4</title>
<g id="a_node4"><a xlink:href="../../d5/db7/classIG_1_1Num_1_1M.html" target="_top" xlink:title="Defines some mathematical functions to be used in derived and other classes.">
<polygon fill="white" stroke="black" points="61,-182.5 61,-201.5 90,-201.5 90,-182.5 61,-182.5"/>
<text text-anchor="middle" x="75.5" y="-189.5" font-family="Helvetica,sans-Serif" font-size="10.00">M</text>
</a>
</g>
</g>
<!-- Node4&#45;&gt;Node3 -->
<g id="edge3" class="edge"><title>Node4&#45;&gt;Node3</title>
<path fill="none" stroke="midnightblue" d="M75.5,-172.117C75.5,-162.817 75.5,-152.056 75.5,-144.715"/>
<polygon fill="midnightblue" stroke="midnightblue" points="72.0001,-172.406 75.5,-182.406 79.0001,-172.406 72.0001,-172.406"/>
</g>
<!-- Node5 -->
<g id="node5" class="node"><title>Node5</title>
<g id="a_node5"><a xlink:title=" ">
<polygon fill="white" stroke="#bfbfbf" points="55,-260.5 55,-279.5 96,-279.5 96,-260.5 55,-260.5"/>
<text text-anchor="middle" x="75.5" y="-267.5" font-family="Helvetica,sans-Serif" font-size="10.00">static</text>
</a>
</g>
</g>
<!-- Node5&#45;&gt;Node4 -->
<g id="edge4" class="edge"><title>Node5&#45;&gt;Node4</title>
<path fill="none" stroke="#9a32cd" stroke-dasharray="5,2" d="M75.5,-250.224C75.5,-234.697 75.5,-213.358 75.5,-201.616"/>
<polygon fill="#9a32cd" stroke="#9a32cd" points="72.0001,-250.282 75.5,-260.282 79.0001,-250.282 72.0001,-250.282"/>
<text text-anchor="middle" x="126" y="-234" font-family="Helvetica,sans-Serif" font-size="10.00"> factorials64</text>
<text text-anchor="middle" x="126" y="-223" font-family="Helvetica,sans-Serif" font-size="10.00">factorialsArrayChecked</text>
</g>
</g>
</svg>
