<?xml version="1.0" encoding="UTF-8" standalone="no"?>
<!DOCTYPE svg PUBLIC "-//W3C//DTD SVG 1.1//EN"
 "http://www.w3.org/Graphics/SVG/1.1/DTD/svg11.dtd">
<!-- Generated by graphviz version 2.38.0 (20140413.2041)
 -->
<!-- Title: IG.Num.Matrix Pages: 1 -->
<svg width="245pt" height="162pt"
 viewBox="0.00 0.00 245.00 162.00" xmlns="http://www.w3.org/2000/svg" xmlns:xlink="http://www.w3.org/1999/xlink">
<g id="graph0" class="graph" transform="scale(1 1) rotate(0) translate(4 158)">
<title>IG.Num.Matrix</title>
<polygon fill="white" stroke="none" points="-4,4 -4,-158 241,-158 241,4 -4,4"/>
<!-- Node1 -->
<g id="node1" class="node"><title>Node1</title>
<g id="a_node1"><a xlink:title="Real matrix class. Some operations are performed by the MathNet.Numerics.LinearAlgebra....">
<polygon fill="#bfbfbf" stroke="black" points="44,-0.5 44,-19.5 124,-19.5 124,-0.5 44,-0.5"/>
<text text-anchor="middle" x="84" y="-7.5" font-family="Helvetica,sans-Serif" font-size="10.00">IG.Num.Matrix</text>
</a>
</g>
</g>
<!-- Node2 -->
<g id="node2" class="node"><title>Node2</title>
<g id="a_node2"><a xlink:href="../../d9/db9/classIG_1_1Num_1_1MatrixBase.html" target="_top" xlink:title="Base class for matrices.">
<polygon fill="white" stroke="black" points="51,-67.5 51,-86.5 117,-86.5 117,-67.5 51,-67.5"/>
<text text-anchor="middle" x="84" y="-74.5" font-family="Helvetica,sans-Serif" font-size="10.00">MatrixBase</text>
</a>
</g>
</g>
<!-- Node2&#45;&gt;Node1 -->
<g id="edge1" class="edge"><title>Node2&#45;&gt;Node1</title>
<path fill="none" stroke="midnightblue" d="M84,-57.037C84,-44.6703 84,-29.1198 84,-19.6273"/>
<polygon fill="midnightblue" stroke="midnightblue" points="80.5001,-57.2338 84,-67.2338 87.5001,-57.2338 80.5001,-57.2338"/>
</g>
<!-- Node3 -->
<g id="node3" class="node"><title>Node3</title>
<g id="a_node3"><a xlink:href="../../d8/d86/interfaceIG_1_1Num_1_1IMatrix.html" target="_top" xlink:title="Generic Matrix interface.">
<polygon fill="white" stroke="black" points="0,-134.5 0,-153.5 46,-153.5 46,-134.5 0,-134.5"/>
<text text-anchor="middle" x="23" y="-141.5" font-family="Helvetica,sans-Serif" font-size="10.00">IMatrix</text>
</a>
</g>
</g>
<!-- Node3&#45;&gt;Node1 -->
<g id="edge4" class="edge"><title>Node3&#45;&gt;Node1</title>
<path fill="none" stroke="midnightblue" d="M25.5827,-124.071C28.2381,-108.247 33.2515,-85.3803 42,-67 50.7745,-48.565 66.1204,-30.2088 75.6338,-19.7672"/>
<polygon fill="midnightblue" stroke="midnightblue" points="22.0881,-123.772 24.0463,-134.184 29.0087,-124.823 22.0881,-123.772"/>
</g>
<!-- Node3&#45;&gt;Node2 -->
<g id="edge2" class="edge"><title>Node3&#45;&gt;Node2</title>
<path fill="none" stroke="midnightblue" d="M38.3581,-126.635C50.2879,-113.923 66.359,-96.7978 75.9036,-86.6273"/>
<polygon fill="midnightblue" stroke="midnightblue" points="35.5177,-124.547 31.2267,-134.234 40.6221,-129.337 35.5177,-124.547"/>
</g>
<!-- Node4 -->
<g id="node4" class="node"><title>Node4</title>
<g id="a_node4"><a xlink:title=" ">
<polygon fill="white" stroke="#bfbfbf" points="64.5,-134.5 64.5,-153.5 105.5,-153.5 105.5,-134.5 64.5,-134.5"/>
<text text-anchor="middle" x="85" y="-141.5" font-family="Helvetica,sans-Serif" font-size="10.00">static</text>
</a>
</g>
</g>
<!-- Node4&#45;&gt;Node2 -->
<g id="edge3" class="edge"><title>Node4&#45;&gt;Node2</title>
<path fill="none" stroke="#9a32cd" stroke-dasharray="5,2" d="M84.7083,-124.037C84.518,-111.67 84.2788,-96.1198 84.1327,-86.6273"/>
<polygon fill="#9a32cd" stroke="#9a32cd" points="81.2116,-124.289 84.8651,-134.234 88.2108,-124.181 81.2116,-124.289"/>
<text text-anchor="middle" x="114.5" y="-108" font-family="Helvetica,sans-Serif" font-size="10.00"> _matrixStore</text>
</g>
<!-- Node5 -->
<g id="node5" class="node"><title>Node5</title>
<g id="a_node5"><a xlink:title=" ">
<polygon fill="white" stroke="#bfbfbf" points="135,-67.5 135,-86.5 193,-86.5 193,-67.5 135,-67.5"/>
<text text-anchor="middle" x="164" y="-74.5" font-family="Helvetica,sans-Serif" font-size="10.00">Numerics</text>
</a>
</g>
</g>
<!-- Node5&#45;&gt;Node1 -->
<g id="edge5" class="edge"><title>Node5&#45;&gt;Node1</title>
<path fill="none" stroke="#9a32cd" stroke-dasharray="5,2" d="M145.186,-60.7134C129.424,-47.907 107.493,-30.0884 94.6182,-19.6273"/>
<polygon fill="#9a32cd" stroke="#9a32cd" points="143.243,-63.6443 153.211,-67.2338 147.657,-58.2114 143.243,-63.6443"/>
<text text-anchor="middle" x="183" y="-41" font-family="Helvetica,sans-Serif" font-size="10.00"> _copyMathNetNumerics</text>
</g>
</g>
</svg>
