<?xml version="1.0" encoding="UTF-8" standalone="no"?>
<!DOCTYPE svg PUBLIC "-//W3C//DTD SVG 1.1//EN"
 "http://www.w3.org/Graphics/SVG/1.1/DTD/svg11.dtd">
<!-- Generated by graphviz version 2.38.0 (20140413.2041)
 -->
<!-- Title: IG.Num.NeuralTrainingLimitsDto Pages: 1 -->
<svg width="286pt" height="229pt"
 viewBox="0.00 0.00 286.00 229.00" xmlns="http://www.w3.org/2000/svg" xmlns:xlink="http://www.w3.org/1999/xlink">
<g id="graph0" class="graph" transform="scale(1 1) rotate(0) translate(4 225)">
<title>IG.Num.NeuralTrainingLimitsDto</title>
<polygon fill="white" stroke="none" points="-4,4 -4,-225 282,-225 282,4 -4,4"/>
<!-- Node1 -->
<g id="node1" class="node"><title>Node1</title>
<g id="a_node1"><a xlink:title="Transfer Object (DTO) for neural network training limits.">
<polygon fill="#bfbfbf" stroke="black" points="25.5,-0.5 25.5,-19.5 180.5,-19.5 180.5,-0.5 25.5,-0.5"/>
<text text-anchor="middle" x="103" y="-7.5" font-family="Helvetica,sans-Serif" font-size="10.00">IG.Num.NeuralTrainingLimitsDto</text>
</a>
</g>
</g>
<!-- Node2 -->
<g id="node2" class="node"><title>Node2</title>
<g id="a_node2"><a xlink:href="../../da/d46/classIG_1_1Lib_1_1SerializationDto.html" target="_top" xlink:title=" ">
<polygon fill="white" stroke="black" points="0,-122.5 0,-152.5 122,-152.5 122,-122.5 0,-122.5"/>
<text text-anchor="start" x="8" y="-140.5" font-family="Helvetica,sans-Serif" font-size="10.00">SerializationDto&lt; Neural</text>
<text text-anchor="middle" x="61" y="-129.5" font-family="Helvetica,sans-Serif" font-size="10.00">TrainingLimits &gt;</text>
</a>
</g>
</g>
<!-- Node2&#45;&gt;Node1 -->
<g id="edge1" class="edge"><title>Node2&#45;&gt;Node1</title>
<path fill="none" stroke="midnightblue" d="M69.0197,-112.536C78.4972,-84.2167 93.7778,-38.5567 100.109,-19.6385"/>
<polygon fill="midnightblue" stroke="midnightblue" points="65.6725,-111.51 65.8179,-122.104 72.3107,-113.731 65.6725,-111.51"/>
</g>
<!-- Node3 -->
<g id="node3" class="node"><title>Node3</title>
<g id="a_node3"><a xlink:href="../../dc/dec/classIG_1_1Lib_1_1VectorDtoBase.html" target="_top" xlink:title="Base class for various vector DTO (Data Transfer Objects) for vectors. Used to store a state of a vec...">
<polygon fill="white" stroke="black" points="140.5,-122.5 140.5,-152.5 251.5,-152.5 251.5,-122.5 140.5,-122.5"/>
<text text-anchor="start" x="148.5" y="-140.5" font-family="Helvetica,sans-Serif" font-size="10.00">IG.Lib.VectorDtoBase</text>
<text text-anchor="middle" x="196" y="-129.5" font-family="Helvetica,sans-Serif" font-size="10.00">&lt; VectorType &gt;</text>
</a>
</g>
</g>
<!-- Node3&#45;&gt;Node1 -->
<g id="edge2" class="edge"><title>Node3&#45;&gt;Node1</title>
<path fill="none" stroke="#9a32cd" stroke-dasharray="5,2" d="M179.334,-114.01C158.45,-85.827 123.666,-38.8886 109.401,-19.6385"/>
<polygon fill="#9a32cd" stroke="#9a32cd" points="176.566,-116.153 185.332,-122.104 182.19,-111.985 176.566,-116.153"/>
<text text-anchor="middle" x="224.5" y="-96" font-family="Helvetica,sans-Serif" font-size="10.00"> ToleranceRms</text>
<text text-anchor="start" x="171" y="-85" font-family="Helvetica,sans-Serif" font-size="10.00">ToleranceRmsRelativeTo</text>
<text text-anchor="middle" x="224.5" y="-74" font-family="Helvetica,sans-Serif" font-size="10.00">Range</text>
<text text-anchor="start" x="171" y="-63" font-family="Helvetica,sans-Serif" font-size="10.00">ToleranceMaxRelativeTo</text>
<text text-anchor="middle" x="224.5" y="-52" font-family="Helvetica,sans-Serif" font-size="10.00">Range</text>
<text text-anchor="middle" x="224.5" y="-41" font-family="Helvetica,sans-Serif" font-size="10.00">ToleranceMax</text>
</g>
<!-- Node4 -->
<g id="node4" class="node"><title>Node4</title>
<g id="a_node4"><a xlink:href="../../d7/dd8/classIG_1_1Lib_1_1SerializationDtoBase.html" target="_top" xlink:title=" ">
<polygon fill="white" stroke="black" points="135.5,-190.5 135.5,-220.5 256.5,-220.5 256.5,-190.5 135.5,-190.5"/>
<text text-anchor="start" x="143.5" y="-208.5" font-family="Helvetica,sans-Serif" font-size="10.00">SerializationDtoBase</text>
<text text-anchor="middle" x="196" y="-197.5" font-family="Helvetica,sans-Serif" font-size="10.00">&lt; VectorType, IVector &gt;</text>
</a>
</g>
</g>
<!-- Node4&#45;&gt;Node3 -->
<g id="edge3" class="edge"><title>Node4&#45;&gt;Node3</title>
<path fill="none" stroke="midnightblue" d="M196,-180.032C196,-170.861 196,-160.745 196,-152.793"/>
<polygon fill="midnightblue" stroke="midnightblue" points="192.5,-180.179 196,-190.179 199.5,-180.179 192.5,-180.179"/>
</g>
</g>
</svg>
