<?xml version="1.0" encoding="UTF-8" standalone="no"?>
<!DOCTYPE svg PUBLIC "-//W3C//DTD SVG 1.1//EN"
 "http://www.w3.org/Graphics/SVG/1.1/DTD/svg11.dtd">
<!-- Generated by graphviz version 2.38.0 (20140413.2041)
 -->
<!-- Title: IG.Num.LinearSolverBase Pages: 1 -->
<svg width="335pt" height="128pt"
 viewBox="0.00 0.00 334.50 128.00" xmlns="http://www.w3.org/2000/svg" xmlns:xlink="http://www.w3.org/1999/xlink">
<g id="graph0" class="graph" transform="scale(1 1) rotate(0) translate(4 124)">
<title>IG.Num.LinearSolverBase</title>
<polygon fill="white" stroke="none" points="-4,4 -4,-124 330.5,-124 330.5,4 -4,4"/>
<!-- Node1 -->
<g id="node1" class="node"><title>Node1</title>
<g id="a_node1"><a xlink:title=" ">
<polygon fill="#bfbfbf" stroke="black" points="39.5,-0.5 39.5,-19.5 167.5,-19.5 167.5,-0.5 39.5,-0.5"/>
<text text-anchor="middle" x="103.5" y="-7.5" font-family="Helvetica,sans-Serif" font-size="10.00">IG.Num.LinearSolverBase</text>
</a>
</g>
</g>
<!-- Node2 -->
<g id="node2" class="node"><title>Node2</title>
<g id="a_node2"><a xlink:href="../../d3/d24/interfaceIG_1_1Num_1_1IVector.html" target="_top" xlink:title="Generic Vector interface">
<polygon fill="white" stroke="black" points="0,-100.5 0,-119.5 107,-119.5 107,-100.5 0,-100.5"/>
<text text-anchor="middle" x="53.5" y="-107.5" font-family="Helvetica,sans-Serif" font-size="10.00">IG.Num.IVector&lt; T &gt;</text>
</a>
</g>
</g>
<!-- Node2&#45;&gt;Node1 -->
<g id="edge1" class="edge"><title>Node2&#45;&gt;Node1</title>
<path fill="none" stroke="#9a32cd" stroke-dasharray="5,2" d="M62.488,-91.3836C73.2954,-70.2011 90.9955,-35.5087 99.1442,-19.5374"/>
<polygon fill="#9a32cd" stroke="#9a32cd" points="59.3643,-89.8049 57.9372,-100.303 65.5996,-92.9862 59.3643,-89.8049"/>
<text text-anchor="middle" x="102.5" y="-63" font-family="Helvetica,sans-Serif" font-size="10.00"> auxB</text>
<text text-anchor="middle" x="102.5" y="-52" font-family="Helvetica,sans-Serif" font-size="10.00">auxX</text>
</g>
<!-- Node3 -->
<g id="node3" class="node"><title>Node3</title>
<g id="a_node3"><a xlink:title=" ">
<polygon fill="white" stroke="#bfbfbf" points="125.5,-100.5 125.5,-119.5 183.5,-119.5 183.5,-100.5 125.5,-100.5"/>
<text text-anchor="middle" x="154.5" y="-107.5" font-family="Helvetica,sans-Serif" font-size="10.00">Numerics</text>
</a>
</g>
</g>
<!-- Node3&#45;&gt;Node1 -->
<g id="edge2" class="edge"><title>Node3&#45;&gt;Node1</title>
<path fill="none" stroke="#9a32cd" stroke-dasharray="5,2" d="M146.025,-90.8451C139.16,-76.3822 129.087,-55.6967 119.5,-38 116.178,-31.8677 112.178,-25.1177 109.008,-19.9007"/>
<polygon fill="#9a32cd" stroke="#9a32cd" points="142.977,-92.5888 150.404,-100.145 149.31,-89.6066 142.977,-92.5888"/>
<text text-anchor="middle" x="234.5" y="-74" font-family="Helvetica,sans-Serif" font-size="10.00"> _vectorSolution_MathNetNumerics</text>
<text text-anchor="middle" x="234.5" y="-63" font-family="Helvetica,sans-Serif" font-size="10.00">_matrixSolution_MathNetNumerics</text>
<text text-anchor="middle" x="234.5" y="-52" font-family="Helvetica,sans-Serif" font-size="10.00">_matrixRighthandSides_MathNetNumerics</text>
<text text-anchor="middle" x="234.5" y="-41" font-family="Helvetica,sans-Serif" font-size="10.00">_vectorRighthandSides_MathNetNumerics</text>
</g>
</g>
</svg>
