<?xml version="1.0" encoding="UTF-8" standalone="no"?>
<!DOCTYPE svg PUBLIC "-//W3C//DTD SVG 1.1//EN"
 "http://www.w3.org/Graphics/SVG/1.1/DTD/svg11.dtd">
<!-- Generated by graphviz version 2.38.0 (20140413.2041)
 -->
<!-- Title: IG.Num.VectorFunctionFromScalar Pages: 1 -->
<svg width="241pt" height="263pt"
 viewBox="0.00 0.00 241.01 263.00" xmlns="http://www.w3.org/2000/svg" xmlns:xlink="http://www.w3.org/1999/xlink">
<g id="graph0" class="graph" transform="scale(1 1) rotate(0) translate(4 259)">
<title>IG.Num.VectorFunctionFromScalar</title>
<polygon fill="white" stroke="none" points="-4,4 -4,-259 237.011,-259 237.011,4 -4,4"/>
<!-- Node1 -->
<g id="node1" class="node"><title>Node1</title>
<g id="a_node1"><a xlink:title=" ">
<polygon fill="#bfbfbf" stroke="black" points="92.0111,-0.5 92.0111,-30.5 233.011,-30.5 233.011,-0.5 92.0111,-0.5"/>
<text text-anchor="start" x="100.011" y="-18.5" font-family="Helvetica,sans-Serif" font-size="10.00">IG.Num.VectorFunctionFrom</text>
<text text-anchor="middle" x="162.511" y="-7.5" font-family="Helvetica,sans-Serif" font-size="10.00">Scalar</text>
</a>
</g>
</g>
<!-- Node2 -->
<g id="node2" class="node"><title>Node2</title>
<g id="a_node2"><a xlink:href="../../dc/df8/classIG_1_1Num_1_1VectorFunctionBaseComponentWise.html" target="_top" xlink:title="Base class for defining Vector functions whose component&#45;wise evaluation is defined directly.">
<polygon fill="white" stroke="black" points="6.01112,-67.5 6.01112,-86.5 183.011,-86.5 183.011,-67.5 6.01112,-67.5"/>
<text text-anchor="middle" x="94.5111" y="-74.5" font-family="Helvetica,sans-Serif" font-size="10.00">VectorFunctionBaseComponentWise</text>
</a>
</g>
</g>
<!-- Node2&#45;&gt;Node1 -->
<g id="edge1" class="edge"><title>Node2&#45;&gt;Node1</title>
<path fill="none" stroke="midnightblue" d="M112.059,-60.6459C122.688,-51.3456 136.143,-39.572 146.485,-30.523"/>
<polygon fill="midnightblue" stroke="midnightblue" points="109.475,-58.256 104.254,-67.4751 114.084,-63.524 109.475,-58.256"/>
</g>
<!-- Node3 -->
<g id="node3" class="node"><title>Node3</title>
<g id="a_node3"><a xlink:href="../../dc/d23/classIG_1_1Num_1_1VectorFunctionBaseGeneral.html" target="_top" xlink:title="Base class for VectorFunctionBase and VectorFunctionBaseComponentwise. In general,...">
<polygon fill="white" stroke="black" points="16.0111,-123.5 16.0111,-142.5 155.011,-142.5 155.011,-123.5 16.0111,-123.5"/>
<text text-anchor="middle" x="85.5111" y="-130.5" font-family="Helvetica,sans-Serif" font-size="10.00">VectorFunctionBaseGeneral</text>
</a>
</g>
</g>
<!-- Node3&#45;&gt;Node2 -->
<g id="edge2" class="edge"><title>Node3&#45;&gt;Node2</title>
<path fill="none" stroke="midnightblue" d="M88.661,-113.101C90.1552,-104.136 91.8681,-93.8579 93.0526,-86.7511"/>
<polygon fill="midnightblue" stroke="midnightblue" points="85.189,-112.644 86.9973,-123.083 92.0937,-113.794 85.189,-112.644"/>
</g>
<!-- Node4 -->
<g id="node4" class="node"><title>Node4</title>
<g id="a_node4"><a xlink:href="../../da/d06/interfaceIG_1_1Num_1_1IVectorFunction.html" target="_top" xlink:title="Vector function of a vector argument.">
<polygon fill="white" stroke="black" points="127.011,-179.5 127.011,-198.5 212.011,-198.5 212.011,-179.5 127.011,-179.5"/>
<text text-anchor="middle" x="169.511" y="-186.5" font-family="Helvetica,sans-Serif" font-size="10.00">IVectorFunction</text>
</a>
</g>
</g>
<!-- Node4&#45;&gt;Node1 -->
<g id="edge8" class="edge"><title>Node4&#45;&gt;Node1</title>
<path fill="none" stroke="midnightblue" d="M177.923,-170.199C188.019,-146.422 202.426,-103.103 192.511,-67 188.838,-53.6263 180.601,-40.2097 173.686,-30.5702"/>
<polygon fill="midnightblue" stroke="midnightblue" points="174.702,-168.826 173.816,-179.384 181.093,-171.683 174.702,-168.826"/>
</g>
<!-- Node4&#45;&gt;Node2 -->
<g id="edge6" class="edge"><title>Node4&#45;&gt;Node2</title>
<path fill="none" stroke="midnightblue" d="M172.316,-169.075C173.387,-155.339 172.759,-136.819 164.511,-123 154.145,-105.632 134.182,-93.8022 118.218,-86.6472"/>
<polygon fill="midnightblue" stroke="midnightblue" points="168.808,-168.946 171.146,-179.28 175.762,-169.744 168.808,-168.946"/>
</g>
<!-- Node4&#45;&gt;Node3 -->
<g id="edge3" class="edge"><title>Node4&#45;&gt;Node3</title>
<path fill="none" stroke="midnightblue" d="M147.579,-173.901C132.176,-163.999 112.065,-151.071 98.9737,-142.655"/>
<polygon fill="midnightblue" stroke="midnightblue" points="145.711,-176.86 156.015,-179.324 149.496,-170.972 145.711,-176.86"/>
</g>
<!-- Node5 -->
<g id="node5" class="node"><title>Node5</title>
<g id="a_node5"><a xlink:href="../../d3/db6/interfaceIG_1_1Lib_1_1ILockable.html" target="_top" xlink:title="Lockable object, has a Lock property that returns object on which lock must be performed in order to ...">
<polygon fill="white" stroke="black" points="56.5111,-235.5 56.5111,-254.5 114.511,-254.5 114.511,-235.5 56.5111,-235.5"/>
<text text-anchor="middle" x="85.5111" y="-242.5" font-family="Helvetica,sans-Serif" font-size="10.00">ILockable</text>
</a>
</g>
</g>
<!-- Node5&#45;&gt;Node2 -->
<g id="edge7" class="edge"><title>Node5&#45;&gt;Node2</title>
<path fill="none" stroke="midnightblue" d="M63.567,-229.289C32.6814,-206.69 -17.3218,-161.956 6.51112,-123 17.8841,-104.411 39.6305,-93.1904 58.659,-86.6029"/>
<polygon fill="midnightblue" stroke="midnightblue" points="61.8815,-232.384 72.0651,-235.307 65.9272,-226.671 61.8815,-232.384"/>
</g>
<!-- Node5&#45;&gt;Node3 -->
<g id="edge5" class="edge"><title>Node5&#45;&gt;Node3</title>
<path fill="none" stroke="midnightblue" d="M85.5111,-225.348C85.5111,-201.254 85.5111,-160.308 85.5111,-142.591"/>
<polygon fill="midnightblue" stroke="midnightblue" points="82.0112,-225.368 85.5111,-235.368 89.0112,-225.369 82.0112,-225.368"/>
</g>
<!-- Node5&#45;&gt;Node4 -->
<g id="edge4" class="edge"><title>Node5&#45;&gt;Node4</title>
<path fill="none" stroke="midnightblue" d="M107.444,-229.901C122.847,-219.999 142.957,-207.071 156.049,-198.655"/>
<polygon fill="midnightblue" stroke="midnightblue" points="105.526,-226.972 99.0072,-235.324 109.312,-232.86 105.526,-226.972"/>
</g>
</g>
</svg>
