<?xml version="1.0" encoding="UTF-8" standalone="no"?>
<!DOCTYPE svg PUBLIC "-//W3C//DTD SVG 1.1//EN"
 "http://www.w3.org/Graphics/SVG/1.1/DTD/svg11.dtd">
<!-- Generated by graphviz version 2.38.0 (20140413.2041)
 -->
<!-- Title: IG.Num.SampledDataSet.ComparerInputDistance Pages: 1 -->
<svg width="495pt" height="106pt"
 viewBox="0.00 0.00 495.00 106.00" xmlns="http://www.w3.org/2000/svg" xmlns:xlink="http://www.w3.org/1999/xlink">
<g id="graph0" class="graph" transform="scale(1 1) rotate(0) translate(4 102)">
<title>IG.Num.SampledDataSet.ComparerInputDistance</title>
<polygon fill="white" stroke="none" points="-4,4 -4,-102 491,-102 491,4 -4,4"/>
<!-- Node1 -->
<g id="node1" class="node"><title>Node1</title>
<g id="a_node1"><a xlink:title="Comparer that compares two data elements of type SampledDataElement according to the distance of thei...">
<polygon fill="#bfbfbf" stroke="black" points="190,-0.5 190,-30.5 361,-30.5 361,-0.5 190,-0.5"/>
<text text-anchor="start" x="198" y="-18.5" font-family="Helvetica,sans-Serif" font-size="10.00">IG.Num.SampledDataSet.Comparer</text>
<text text-anchor="middle" x="275.5" y="-7.5" font-family="Helvetica,sans-Serif" font-size="10.00">InputDistance</text>
</a>
</g>
</g>
<!-- Node2 -->
<g id="node2" class="node"><title>Node2</title>
<g id="a_node2"><a xlink:title=" ">
<polygon fill="white" stroke="#bfbfbf" points="0,-78.5 0,-97.5 171,-97.5 171,-78.5 0,-78.5"/>
<text text-anchor="middle" x="85.5" y="-85.5" font-family="Helvetica,sans-Serif" font-size="10.00">Comparer&lt; SampledDataElement &gt;</text>
</a>
</g>
</g>
<!-- Node2&#45;&gt;Node1 -->
<g id="edge1" class="edge"><title>Node2&#45;&gt;Node1</title>
<path fill="none" stroke="midnightblue" d="M118.103,-74.9026C151.321,-62.577 202.789,-43.4797 237.754,-30.5059"/>
<polygon fill="midnightblue" stroke="midnightblue" points="116.576,-71.7358 108.418,-78.4961 119.011,-78.2986 116.576,-71.7358"/>
</g>
<!-- Node3 -->
<g id="node3" class="node"><title>Node3</title>
<g id="a_node3"><a xlink:title=" ">
<polygon fill="white" stroke="#bfbfbf" points="189,-78.5 189,-97.5 362,-97.5 362,-78.5 189,-78.5"/>
<text text-anchor="middle" x="275.5" y="-85.5" font-family="Helvetica,sans-Serif" font-size="10.00">IComparer&lt; SampledDataElement &gt;</text>
</a>
</g>
</g>
<!-- Node3&#45;&gt;Node1 -->
<g id="edge2" class="edge"><title>Node3&#45;&gt;Node1</title>
<path fill="none" stroke="midnightblue" d="M275.5,-68.2362C275.5,-56.4079 275.5,-41.3829 275.5,-30.5762"/>
<polygon fill="midnightblue" stroke="midnightblue" points="272,-68.3553 275.5,-78.3553 279,-68.3554 272,-68.3553"/>
</g>
<!-- Node4 -->
<g id="node4" class="node"><title>Node4</title>
<g id="a_node4"><a xlink:href="../../d3/d24/interfaceIG_1_1Num_1_1IVector.html" target="_top" xlink:title="Generic Vector interface">
<polygon fill="white" stroke="black" points="380,-78.5 380,-97.5 487,-97.5 487,-78.5 380,-78.5"/>
<text text-anchor="middle" x="433.5" y="-85.5" font-family="Helvetica,sans-Serif" font-size="10.00">IG.Num.IVector&lt; T &gt;</text>
</a>
</g>
</g>
<!-- Node4&#45;&gt;Node1 -->
<g id="edge3" class="edge"><title>Node4&#45;&gt;Node1</title>
<path fill="none" stroke="#9a32cd" stroke-dasharray="5,2" d="M405.309,-74.421C377.66,-62.0841 335.589,-43.3119 306.889,-30.5059"/>
<polygon fill="#9a32cd" stroke="#9a32cd" points="403.883,-77.6175 414.442,-78.4961 406.736,-71.225 403.883,-77.6175"/>
<text text-anchor="middle" x="405" y="-52" font-family="Helvetica,sans-Serif" font-size="10.00"> _referencePoint</text>
</g>
</g>
</svg>
