<?xml version="1.0" encoding="UTF-8" standalone="no"?>
<!DOCTYPE svg PUBLIC "-//W3C//DTD SVG 1.1//EN"
 "http://www.w3.org/Graphics/SVG/1.1/DTD/svg11.dtd">
<!-- Generated by graphviz version 2.38.0 (20140413.2041)
 -->
<!-- Title: IG.Lib.LoadableScriptRealFunctionBase Pages: 1 -->
<svg width="168pt" height="218pt"
 viewBox="0.00 0.00 167.50 218.00" xmlns="http://www.w3.org/2000/svg" xmlns:xlink="http://www.w3.org/1999/xlink">
<g id="graph0" class="graph" transform="scale(1 1) rotate(0) translate(4 214)">
<title>IG.Lib.LoadableScriptRealFunctionBase</title>
<polygon fill="white" stroke="none" points="-4,4 -4,-214 163.5,-214 163.5,4 -4,4"/>
<!-- Node1 -->
<g id="node1" class="node"><title>Node1</title>
<g id="a_node1"><a xlink:title="Base class for loadable scripts that define real functions of one variable.">
<polygon fill="#bfbfbf" stroke="black" points="21,-67.5 21,-97.5 150,-97.5 150,-67.5 21,-67.5"/>
<text text-anchor="start" x="29" y="-85.5" font-family="Helvetica,sans-Serif" font-size="10.00">IG.Lib.LoadableScriptReal</text>
<text text-anchor="middle" x="85.5" y="-74.5" font-family="Helvetica,sans-Serif" font-size="10.00">FunctionBase</text>
</a>
</g>
</g>
<!-- Node5 -->
<g id="node5" class="node"><title>Node5</title>
<g id="a_node5"><a xlink:href="../../dc/d6c/classIG_1_1Script_1_1ScritpRealFunctionExample.html" target="_top" xlink:title="Example script for definition of a new real function class.">
<polygon fill="white" stroke="black" points="15.5,-0.5 15.5,-30.5 155.5,-30.5 155.5,-0.5 15.5,-0.5"/>
<text text-anchor="start" x="23.5" y="-18.5" font-family="Helvetica,sans-Serif" font-size="10.00">IG.Script.ScritpRealFunction</text>
<text text-anchor="middle" x="85.5" y="-7.5" font-family="Helvetica,sans-Serif" font-size="10.00">Example</text>
</a>
</g>
</g>
<!-- Node1&#45;&gt;Node5 -->
<g id="edge4" class="edge"><title>Node1&#45;&gt;Node5</title>
<path fill="none" stroke="midnightblue" d="M85.5,-57.1081C85.5,-48.1539 85.5,-38.3227 85.5,-30.5765"/>
<polygon fill="midnightblue" stroke="midnightblue" points="82.0001,-57.3959 85.5,-67.396 89.0001,-57.396 82.0001,-57.3959"/>
</g>
<!-- Node2 -->
<g id="node2" class="node"><title>Node2</title>
<g id="a_node2"><a xlink:href="../../d7/d15/classIG_1_1Lib_1_1LoadableScriptBase.html" target="_top" xlink:title="Base class for classes that can be dynamically loadeded from scripts and run, which provides function...">
<polygon fill="white" stroke="black" points="33.5,-134.5 33.5,-153.5 137.5,-153.5 137.5,-134.5 33.5,-134.5"/>
<text text-anchor="middle" x="85.5" y="-141.5" font-family="Helvetica,sans-Serif" font-size="10.00">LoadableScriptBase</text>
</a>
</g>
</g>
<!-- Node2&#45;&gt;Node1 -->
<g id="edge1" class="edge"><title>Node2&#45;&gt;Node1</title>
<path fill="none" stroke="midnightblue" d="M85.5,-124.235C85.5,-115.586 85.5,-105.497 85.5,-97.523"/>
<polygon fill="midnightblue" stroke="midnightblue" points="82.0001,-124.475 85.5,-134.475 89.0001,-124.475 82.0001,-124.475"/>
</g>
<!-- Node3 -->
<g id="node3" class="node"><title>Node3</title>
<g id="a_node3"><a xlink:href="../../d7/d66/interfaceIG_1_1Lib_1_1ILoadableScript.html" target="_top" xlink:title="Interface for classes that can be dynamically loadeded from scripts and run, which provides functiona...">
<polygon fill="white" stroke="black" points="0,-190.5 0,-209.5 83,-209.5 83,-190.5 0,-190.5"/>
<text text-anchor="middle" x="41.5" y="-197.5" font-family="Helvetica,sans-Serif" font-size="10.00">ILoadableScript</text>
</a>
</g>
</g>
<!-- Node3&#45;&gt;Node2 -->
<g id="edge2" class="edge"><title>Node3&#45;&gt;Node2</title>
<path fill="none" stroke="midnightblue" d="M55.2345,-182.144C62.9005,-172.736 72.1333,-161.405 78.3695,-153.751"/>
<polygon fill="midnightblue" stroke="midnightblue" points="52.3691,-180.12 48.7657,-190.083 57.7958,-184.541 52.3691,-180.12"/>
</g>
<!-- Node4 -->
<g id="node4" class="node"><title>Node4</title>
<g id="a_node4"><a xlink:href="../../d3/db6/interfaceIG_1_1Lib_1_1ILockable.html" target="_top" xlink:title="Lockable object, has a Lock property that returns object on which lock must be performed in order to ...">
<polygon fill="white" stroke="black" points="101.5,-190.5 101.5,-209.5 159.5,-209.5 159.5,-190.5 101.5,-190.5"/>
<text text-anchor="middle" x="130.5" y="-197.5" font-family="Helvetica,sans-Serif" font-size="10.00">ILockable</text>
</a>
</g>
</g>
<!-- Node4&#45;&gt;Node2 -->
<g id="edge3" class="edge"><title>Node4&#45;&gt;Node2</title>
<path fill="none" stroke="midnightblue" d="M116.453,-182.144C108.613,-172.736 99.1705,-161.405 92.7926,-153.751"/>
<polygon fill="midnightblue" stroke="midnightblue" points="113.979,-184.641 123.069,-190.083 119.356,-180.16 113.979,-184.641"/>
</g>
</g>
</svg>
