<?xml version="1.0" encoding="UTF-8" standalone="no"?>
<!DOCTYPE svg PUBLIC "-//W3C//DTD SVG 1.1//EN"
 "http://www.w3.org/Graphics/SVG/1.1/DTD/svg11.dtd">
<!-- Generated by graphviz version 2.38.0 (20140413.2041)
 -->
<!-- Title: IG.Num.SimKosecFileManagerBase Pages: 1 -->
<svg width="328pt" height="229pt"
 viewBox="0.00 0.00 328.00 229.00" xmlns="http://www.w3.org/2000/svg" xmlns:xlink="http://www.w3.org/1999/xlink">
<g id="graph0" class="graph" transform="scale(1 1) rotate(0) translate(4 225)">
<title>IG.Num.SimKosecFileManagerBase</title>
<polygon fill="white" stroke="none" points="-4,4 -4,-225 324,-225 324,4 -4,4"/>
<!-- Node1 -->
<g id="node1" class="node"><title>Node1</title>
<g id="a_node1"><a xlink:title="File manager for interfacing (for optimization purposes) the simulation code of Gregor Kosec.">
<polygon fill="#bfbfbf" stroke="black" points="73,-134.5 73,-153.5 246,-153.5 246,-134.5 73,-134.5"/>
<text text-anchor="middle" x="159.5" y="-141.5" font-family="Helvetica,sans-Serif" font-size="10.00">IG.Num.SimKosecFileManagerBase</text>
</a>
</g>
</g>
<!-- Node4 -->
<g id="node4" class="node"><title>Node4</title>
<g id="a_node4"><a xlink:href="../../df/dee/classIG_1_1Num_1_1SimKosecFileManagerConvBase.html" target="_top" xlink:title="Base class for interface with simulator of G. Kosec for convection problems in a cave with obstacles.">
<polygon fill="white" stroke="black" points="84,-67.5 84,-97.5 235,-97.5 235,-67.5 84,-67.5"/>
<text text-anchor="start" x="92" y="-85.5" font-family="Helvetica,sans-Serif" font-size="10.00">IG.Num.SimKosecFileManager</text>
<text text-anchor="middle" x="159.5" y="-74.5" font-family="Helvetica,sans-Serif" font-size="10.00">ConvBase</text>
</a>
</g>
</g>
<!-- Node1&#45;&gt;Node4 -->
<g id="edge3" class="edge"><title>Node1&#45;&gt;Node4</title>
<path fill="none" stroke="midnightblue" d="M159.5,-124.235C159.5,-115.586 159.5,-105.497 159.5,-97.523"/>
<polygon fill="midnightblue" stroke="midnightblue" points="156,-124.475 159.5,-134.475 163,-124.475 156,-124.475"/>
</g>
<!-- Node2 -->
<g id="node2" class="node"><title>Node2</title>
<g id="a_node2"><a xlink:href="../../d6/d7c/interfaceIG_1_1Num_1_1IResponseEvaluatorVectorSimple.html" target="_top" xlink:title="Interface for simulators and other systems (used e.g. for optimization) that can calculate vector res...">
<polygon fill="white" stroke="black" points="38,-190.5 38,-220.5 169,-220.5 169,-190.5 38,-190.5"/>
<text text-anchor="start" x="46" y="-208.5" font-family="Helvetica,sans-Serif" font-size="10.00">IResponseEvaluatorVector</text>
<text text-anchor="middle" x="103.5" y="-197.5" font-family="Helvetica,sans-Serif" font-size="10.00">Simple</text>
</a>
</g>
</g>
<!-- Node2&#45;&gt;Node1 -->
<g id="edge1" class="edge"><title>Node2&#45;&gt;Node1</title>
<path fill="none" stroke="midnightblue" d="M123.733,-183.002C133.277,-172.862 144.129,-161.332 151.352,-153.658"/>
<polygon fill="midnightblue" stroke="midnightblue" points="121.076,-180.719 116.771,-190.399 126.174,-185.516 121.076,-180.719"/>
</g>
<!-- Node3 -->
<g id="node3" class="node"><title>Node3</title>
<g id="a_node3"><a xlink:href="../../d3/db6/interfaceIG_1_1Lib_1_1ILockable.html" target="_top" xlink:title="Lockable object, has a Lock property that returns object on which lock must be performed in order to ...">
<polygon fill="white" stroke="black" points="187.5,-196 187.5,-215 245.5,-215 245.5,-196 187.5,-196"/>
<text text-anchor="middle" x="216.5" y="-203" font-family="Helvetica,sans-Serif" font-size="10.00">ILockable</text>
</a>
</g>
</g>
<!-- Node3&#45;&gt;Node1 -->
<g id="edge2" class="edge"><title>Node3&#45;&gt;Node1</title>
<path fill="none" stroke="midnightblue" d="M201.17,-188.497C190.381,-177.236 176.365,-162.604 167.652,-153.509"/>
<polygon fill="midnightblue" stroke="midnightblue" points="198.888,-191.175 208.333,-195.975 203.943,-186.333 198.888,-191.175"/>
</g>
<!-- Node5 -->
<g id="node5" class="node"><title>Node5</title>
<g id="a_node5"><a xlink:href="../../d3/d50/classIG_1_1Num_1_1SimKosecFileManagerConv2.html" target="_top" xlink:title="Interface with simulator of G. Kosec for convection problems in a cave with 2 obstacles.">
<polygon fill="white" stroke="black" points="0,-0.5 0,-30.5 151,-30.5 151,-0.5 0,-0.5"/>
<text text-anchor="start" x="8" y="-18.5" font-family="Helvetica,sans-Serif" font-size="10.00">IG.Num.SimKosecFileManager</text>
<text text-anchor="middle" x="75.5" y="-7.5" font-family="Helvetica,sans-Serif" font-size="10.00">Conv2</text>
</a>
</g>
</g>
<!-- Node4&#45;&gt;Node5 -->
<g id="edge4" class="edge"><title>Node4&#45;&gt;Node5</title>
<path fill="none" stroke="midnightblue" d="M133.224,-61.1677C120.38,-51.2283 105.242,-39.5144 93.6912,-30.5765"/>
<polygon fill="midnightblue" stroke="midnightblue" points="131.223,-64.0442 141.273,-67.396 135.506,-58.508 131.223,-64.0442"/>
</g>
<!-- Node6 -->
<g id="node6" class="node"><title>Node6</title>
<g id="a_node6"><a xlink:href="../../d4/d0f/classIG_1_1Num_1_1SimKosecFileManagerConv3.html" target="_top" xlink:title="Interface with simulator of G. Kosec for convection problems in a cave with 3 obstacles.">
<polygon fill="white" stroke="black" points="169,-0.5 169,-30.5 320,-30.5 320,-0.5 169,-0.5"/>
<text text-anchor="start" x="177" y="-18.5" font-family="Helvetica,sans-Serif" font-size="10.00">IG.Num.SimKosecFileManager</text>
<text text-anchor="middle" x="244.5" y="-7.5" font-family="Helvetica,sans-Serif" font-size="10.00">Conv3</text>
</a>
</g>
</g>
<!-- Node4&#45;&gt;Node6 -->
<g id="edge5" class="edge"><title>Node4&#45;&gt;Node6</title>
<path fill="none" stroke="midnightblue" d="M186.088,-61.1677C199.086,-51.2283 214.404,-39.5144 226.092,-30.5765"/>
<polygon fill="midnightblue" stroke="midnightblue" points="183.761,-58.5412 177.944,-67.396 188.013,-64.1017 183.761,-58.5412"/>
</g>
</g>
</svg>
