<?xml version="1.0" encoding="UTF-8" standalone="no"?>
<!DOCTYPE svg PUBLIC "-//W3C//DTD SVG 1.1//EN"
 "http://www.w3.org/Graphics/SVG/1.1/DTD/svg11.dtd">
<!-- Generated by graphviz version 2.38.0 (20140413.2041)
 -->
<!-- Title: IG.Lib.IReporter Pages: 1 -->
<svg width="454pt" height="140pt"
 viewBox="0.00 0.00 453.50 140.00" xmlns="http://www.w3.org/2000/svg" xmlns:xlink="http://www.w3.org/1999/xlink">
<g id="graph0" class="graph" transform="scale(1 1) rotate(0) translate(4 136)">
<title>IG.Lib.IReporter</title>
<polygon fill="white" stroke="none" points="-4,4 -4,-136 449.5,-136 449.5,4 -4,4"/>
<!-- Node1 -->
<g id="node1" class="node"><title>Node1</title>
<g id="a_node1"><a xlink:title="Interface from which majority of reporters inherit. Includes generic reporting functionality plus tra...">
<polygon fill="#bfbfbf" stroke="black" points="132.5,-0.5 132.5,-19.5 216.5,-19.5 216.5,-0.5 132.5,-0.5"/>
<text text-anchor="middle" x="174.5" y="-7.5" font-family="Helvetica,sans-Serif" font-size="10.00">IG.Lib.IReporter</text>
</a>
</g>
</g>
<!-- Node2 -->
<g id="node2" class="node"><title>Node2</title>
<g id="a_node2"><a xlink:title=" ">
<polygon fill="white" stroke="#bfbfbf" points="0,-56.5 0,-75.5 67,-75.5 67,-56.5 0,-56.5"/>
<text text-anchor="middle" x="33.5" y="-63.5" font-family="Helvetica,sans-Serif" font-size="10.00">IDisposable</text>
</a>
</g>
</g>
<!-- Node2&#45;&gt;Node1 -->
<g id="edge1" class="edge"><title>Node2&#45;&gt;Node1</title>
<path fill="none" stroke="midnightblue" d="M65.4286,-52.772C91.914,-42.6287 128.892,-28.4669 152.263,-19.5164"/>
<polygon fill="midnightblue" stroke="midnightblue" points="63.9287,-49.5985 55.8419,-56.4435 66.4322,-56.1355 63.9287,-49.5985"/>
</g>
<!-- Node3 -->
<g id="node3" class="node"><title>Node3</title>
<g id="a_node3"><a xlink:href="../../de/d0d/interfaceIG_1_1Lib_1_1IReporterBase.html" target="_top" xlink:title="Interface from which all reporters inherit.">
<polygon fill="white" stroke="black" points="195.5,-112.5 195.5,-131.5 273.5,-131.5 273.5,-112.5 195.5,-112.5"/>
<text text-anchor="middle" x="234.5" y="-119.5" font-family="Helvetica,sans-Serif" font-size="10.00">IReporterBase</text>
</a>
</g>
</g>
<!-- Node3&#45;&gt;Node1 -->
<g id="edge2" class="edge"><title>Node3&#45;&gt;Node1</title>
<path fill="none" stroke="midnightblue" d="M185.326,-115.773C159.695,-110.268 130.443,-99.0063 114.5,-76 99.1043,-53.7841 133.237,-31.3924 156.074,-19.5671"/>
<polygon fill="midnightblue" stroke="midnightblue" points="184.823,-119.24 195.302,-117.675 186.134,-112.364 184.823,-119.24"/>
</g>
<!-- Node4 -->
<g id="node4" class="node"><title>Node4</title>
<g id="a_node4"><a xlink:href="../../d2/d8e/interfaceIG_1_1Lib_1_1IReporterTextWriter.html" target="_top" xlink:title="Reporters that utilize writing messages to files. Messages are typically formatted as multi&#45;line mess...">
<polygon fill="white" stroke="black" points="124,-56.5 124,-75.5 225,-75.5 225,-56.5 124,-56.5"/>
<text text-anchor="middle" x="174.5" y="-63.5" font-family="Helvetica,sans-Serif" font-size="10.00">IReporterTextWriter</text>
</a>
</g>
</g>
<!-- Node3&#45;&gt;Node4 -->
<g id="edge4" class="edge"><title>Node3&#45;&gt;Node4</title>
<path fill="none" stroke="midnightblue" d="M217.319,-105.537C206.621,-95.9087 193.244,-83.8694 184.315,-75.8339"/>
<polygon fill="midnightblue" stroke="midnightblue" points="215.086,-108.236 224.86,-112.324 219.768,-103.033 215.086,-108.236"/>
</g>
<!-- Node5 -->
<g id="node5" class="node"><title>Node5</title>
<g id="a_node5"><a xlink:href="../../d1/ddb/interfaceIG_1_1Lib_1_1IReporterTextLogger.html" target="_top" xlink:title="Reporters that utilize logging messages to files. IReporterTextLogger typically outputs (to a file) m...">
<polygon fill="white" stroke="black" points="243.5,-56.5 243.5,-75.5 347.5,-75.5 347.5,-56.5 243.5,-56.5"/>
<text text-anchor="middle" x="295.5" y="-63.5" font-family="Helvetica,sans-Serif" font-size="10.00">IReporterTextLogger</text>
</a>
</g>
</g>
<!-- Node3&#45;&gt;Node5 -->
<g id="edge6" class="edge"><title>Node3&#45;&gt;Node5</title>
<path fill="none" stroke="midnightblue" d="M251.967,-105.537C262.844,-95.9087 276.444,-83.8694 285.521,-75.8339"/>
<polygon fill="midnightblue" stroke="midnightblue" points="249.468,-103.075 244.301,-112.324 254.108,-108.316 249.468,-103.075"/>
</g>
<!-- Node6 -->
<g id="node6" class="node"><title>Node6</title>
<g id="a_node6"><a xlink:href="../../d0/d0e/interfaceIG_1_1Lib_1_1IReporterTrace.html" target="_top" xlink:title="Reporters that utilize system&#39;s trace utility.">
<polygon fill="white" stroke="black" points="365.5,-56.5 365.5,-75.5 445.5,-75.5 445.5,-56.5 365.5,-56.5"/>
<text text-anchor="middle" x="405.5" y="-63.5" font-family="Helvetica,sans-Serif" font-size="10.00">IReporterTrace</text>
</a>
</g>
</g>
<!-- Node3&#45;&gt;Node6 -->
<g id="edge8" class="edge"><title>Node3&#45;&gt;Node6</title>
<path fill="none" stroke="midnightblue" d="M271.536,-109.304C303.757,-99.1294 349.689,-84.6246 378.531,-75.5164"/>
<polygon fill="midnightblue" stroke="midnightblue" points="270.077,-106.095 261.595,-112.444 272.185,-112.77 270.077,-106.095"/>
</g>
<!-- Node4&#45;&gt;Node1 -->
<g id="edge3" class="edge"><title>Node4&#45;&gt;Node1</title>
<path fill="none" stroke="midnightblue" d="M174.5,-45.8045C174.5,-36.9102 174.5,-26.7798 174.5,-19.7511"/>
<polygon fill="midnightblue" stroke="midnightblue" points="171,-46.083 174.5,-56.083 178,-46.083 171,-46.083"/>
</g>
<!-- Node5&#45;&gt;Node1 -->
<g id="edge5" class="edge"><title>Node5&#45;&gt;Node1</title>
<path fill="none" stroke="midnightblue" d="M267.194,-52.3678C244.535,-42.2553 213.374,-28.3486 193.583,-19.5164"/>
<polygon fill="midnightblue" stroke="midnightblue" points="265.769,-55.5643 276.327,-56.4435 268.622,-49.1719 265.769,-55.5643"/>
</g>
<!-- Node6&#45;&gt;Node1 -->
<g id="edge7" class="edge"><title>Node6&#45;&gt;Node1</title>
<path fill="none" stroke="midnightblue" d="M359.098,-54.1529C315.453,-43.95 250.99,-28.8809 210.931,-19.5164"/>
<polygon fill="midnightblue" stroke="midnightblue" points="358.363,-57.5753 368.897,-56.4435 359.957,-50.7591 358.363,-57.5753"/>
</g>
</g>
</svg>
