<?xml version="1.0" encoding="UTF-8" standalone="no"?>
<!DOCTYPE svg PUBLIC "-//W3C//DTD SVG 1.1//EN"
 "http://www.w3.org/Graphics/SVG/1.1/DTD/svg11.dtd">
<!-- Generated by graphviz version 2.38.0 (20140413.2041)
 -->
<!-- Title: IG.Num.GridGenerator1dBase Pages: 1 -->
<svg width="296pt" height="196pt"
 viewBox="0.00 0.00 296.00 196.00" xmlns="http://www.w3.org/2000/svg" xmlns:xlink="http://www.w3.org/1999/xlink">
<g id="graph0" class="graph" transform="scale(1 1) rotate(0) translate(4 192)">
<title>IG.Num.GridGenerator1dBase</title>
<polygon fill="white" stroke="none" points="-4,4 -4,-192 292,-192 292,4 -4,4"/>
<!-- Node1 -->
<g id="node1" class="node"><title>Node1</title>
<g id="a_node1"><a xlink:title="Base class for 1D grid generators.">
<polygon fill="#bfbfbf" stroke="black" points="65,-56.5 65,-75.5 211,-75.5 211,-56.5 65,-56.5"/>
<text text-anchor="middle" x="138" y="-63.5" font-family="Helvetica,sans-Serif" font-size="10.00">IG.Num.GridGenerator1dBase</text>
</a>
</g>
</g>
<!-- Node4 -->
<g id="node4" class="node"><title>Node4</title>
<g id="a_node4"><a xlink:href="../../d1/ddc/classIG_1_1Num_1_1GridGenerator1d.html" target="_top" xlink:title="Generates 1D grids with equidistant or geometrically grown intervals.">
<polygon fill="white" stroke="black" points="0,-0.5 0,-19.5 124,-19.5 124,-0.5 0,-0.5"/>
<text text-anchor="middle" x="62" y="-7.5" font-family="Helvetica,sans-Serif" font-size="10.00">IG.Num.GridGenerator1d</text>
</a>
</g>
</g>
<!-- Node1&#45;&gt;Node4 -->
<g id="edge4" class="edge"><title>Node1&#45;&gt;Node4</title>
<path fill="none" stroke="midnightblue" d="M117.424,-50.3804C103.688,-40.6204 86.0747,-28.1057 74.4329,-19.8339"/>
<polygon fill="midnightblue" stroke="midnightblue" points="115.61,-53.385 125.789,-56.324 119.665,-47.6787 115.61,-53.385"/>
</g>
<!-- Node5 -->
<g id="node5" class="node"><title>Node5</title>
<g id="a_node5"><a xlink:href="../../d8/d06/classIG_1_1Num_1_1GridGenerator1dFunc.html" target="_top" xlink:title="Generates 1D grids with equidistant or geometrically grown intervals.">
<polygon fill="white" stroke="black" points="142,-0.5 142,-19.5 288,-19.5 288,-0.5 142,-0.5"/>
<text text-anchor="middle" x="215" y="-7.5" font-family="Helvetica,sans-Serif" font-size="10.00">IG.Num.GridGenerator1dFunc</text>
</a>
</g>
</g>
<!-- Node1&#45;&gt;Node5 -->
<g id="edge5" class="edge"><title>Node1&#45;&gt;Node5</title>
<path fill="none" stroke="midnightblue" d="M158.901,-50.3422C172.911,-40.5169 190.883,-27.9132 202.659,-19.6545"/>
<polygon fill="midnightblue" stroke="midnightblue" points="156.549,-47.7166 150.371,-56.324 160.568,-53.4477 156.549,-47.7166"/>
</g>
<!-- Node2 -->
<g id="node2" class="node"><title>Node2</title>
<g id="a_node2"><a xlink:href="../../d5/d2d/interfaceIG_1_1Num_1_1IGridGenerator1d.html" target="_top" xlink:title="Interface for 1d grid generators.">
<polygon fill="white" stroke="black" points="130,-112.5 130,-131.5 220,-131.5 220,-112.5 130,-112.5"/>
<text text-anchor="middle" x="175" y="-119.5" font-family="Helvetica,sans-Serif" font-size="10.00">IGridGenerator1d</text>
</a>
</g>
</g>
<!-- Node2&#45;&gt;Node1 -->
<g id="edge1" class="edge"><title>Node2&#45;&gt;Node1</title>
<path fill="none" stroke="midnightblue" d="M163.054,-103.566C156.688,-94.2747 149.133,-83.2484 143.996,-75.7511"/>
<polygon fill="midnightblue" stroke="midnightblue" points="160.351,-105.812 168.89,-112.083 166.125,-101.855 160.351,-105.812"/>
</g>
<!-- Node3 -->
<g id="node3" class="node"><title>Node3</title>
<g id="a_node3"><a xlink:href="../../d3/db6/interfaceIG_1_1Lib_1_1ILockable.html" target="_top" xlink:title="Lockable object, has a Lock property that returns object on which lock must be performed in order to ...">
<polygon fill="white" stroke="black" points="109,-168.5 109,-187.5 167,-187.5 167,-168.5 109,-168.5"/>
<text text-anchor="middle" x="138" y="-175.5" font-family="Helvetica,sans-Serif" font-size="10.00">ILockable</text>
</a>
</g>
</g>
<!-- Node3&#45;&gt;Node1 -->
<g id="edge3" class="edge"><title>Node3&#45;&gt;Node1</title>
<path fill="none" stroke="midnightblue" d="M129.554,-159.145C126.175,-151.052 122.688,-141.243 121,-132 117.271,-111.575 126.946,-88.1288 133.189,-75.7372"/>
<polygon fill="midnightblue" stroke="midnightblue" points="126.369,-160.595 133.634,-168.307 132.763,-157.748 126.369,-160.595"/>
</g>
<!-- Node3&#45;&gt;Node2 -->
<g id="edge2" class="edge"><title>Node3&#45;&gt;Node2</title>
<path fill="none" stroke="midnightblue" d="M149.946,-159.566C156.312,-150.275 163.867,-139.248 169.004,-131.751"/>
<polygon fill="midnightblue" stroke="midnightblue" points="146.875,-157.855 144.11,-168.083 152.649,-161.812 146.875,-157.855"/>
</g>
</g>
</svg>
