<?xml version="1.0" encoding="UTF-8" standalone="no"?>
<!DOCTYPE svg PUBLIC "-//W3C//DTD SVG 1.1//EN"
 "http://www.w3.org/Graphics/SVG/1.1/DTD/svg11.dtd">
<!-- Generated by graphviz version 2.38.0 (20140413.2041)
 -->
<!-- Title: IG.Script.ScritpRealFunctionExample Pages: 1 -->
<svg width="229pt" height="207pt"
 viewBox="0.00 0.00 229.00 207.00" xmlns="http://www.w3.org/2000/svg" xmlns:xlink="http://www.w3.org/1999/xlink">
<g id="graph0" class="graph" transform="scale(1 1) rotate(0) translate(4 203)">
<title>IG.Script.ScritpRealFunctionExample</title>
<polygon fill="white" stroke="none" points="-4,4 -4,-203 225,-203 225,4 -4,4"/>
<!-- Node1 -->
<g id="node1" class="node"><title>Node1</title>
<g id="a_node1"><a xlink:title="Example script for definition of a new real function class.">
<polygon fill="#bfbfbf" stroke="black" points="15.5,-0.5 15.5,-30.5 155.5,-30.5 155.5,-0.5 15.5,-0.5"/>
<text text-anchor="start" x="23.5" y="-18.5" font-family="Helvetica,sans-Serif" font-size="10.00">IG.Script.ScritpRealFunction</text>
<text text-anchor="middle" x="85.5" y="-7.5" font-family="Helvetica,sans-Serif" font-size="10.00">Example</text>
</a>
</g>
</g>
<!-- Node2 -->
<g id="node2" class="node"><title>Node2</title>
<g id="a_node2"><a xlink:href="../../d0/d74/classIG_1_1Lib_1_1LoadableScriptRealFunctionBase.html" target="_top" xlink:title="Base class for loadable scripts that define real functions of one variable.">
<polygon fill="white" stroke="black" points="60,-67.5 60,-86.5 221,-86.5 221,-67.5 60,-67.5"/>
<text text-anchor="middle" x="140.5" y="-74.5" font-family="Helvetica,sans-Serif" font-size="10.00">LoadableScriptRealFunctionBase</text>
</a>
</g>
</g>
<!-- Node2&#45;&gt;Node1 -->
<g id="edge1" class="edge"><title>Node2&#45;&gt;Node1</title>
<path fill="none" stroke="midnightblue" d="M125.794,-60.0906C117.28,-50.8804 106.661,-39.3928 98.4624,-30.523"/>
<polygon fill="midnightblue" stroke="midnightblue" points="123.262,-62.5076 132.62,-67.4751 128.402,-57.756 123.262,-62.5076"/>
</g>
<!-- Node3 -->
<g id="node3" class="node"><title>Node3</title>
<g id="a_node3"><a xlink:href="../../d7/d15/classIG_1_1Lib_1_1LoadableScriptBase.html" target="_top" xlink:title="Base class for classes that can be dynamically loadeded from scripts and run, which provides function...">
<polygon fill="white" stroke="black" points="83.5,-123.5 83.5,-142.5 187.5,-142.5 187.5,-123.5 83.5,-123.5"/>
<text text-anchor="middle" x="135.5" y="-130.5" font-family="Helvetica,sans-Serif" font-size="10.00">LoadableScriptBase</text>
</a>
</g>
</g>
<!-- Node3&#45;&gt;Node2 -->
<g id="edge2" class="edge"><title>Node3&#45;&gt;Node2</title>
<path fill="none" stroke="midnightblue" d="M137.25,-113.101C138.08,-104.136 139.032,-93.8579 139.69,-86.7511"/>
<polygon fill="midnightblue" stroke="midnightblue" points="133.763,-112.803 136.326,-123.083 140.733,-113.448 133.763,-112.803"/>
</g>
<!-- Node4 -->
<g id="node4" class="node"><title>Node4</title>
<g id="a_node4"><a xlink:href="../../d7/d66/interfaceIG_1_1Lib_1_1ILoadableScript.html" target="_top" xlink:title="Interface for classes that can be dynamically loadeded from scripts and run, which provides functiona...">
<polygon fill="white" stroke="black" points="0,-179.5 0,-198.5 83,-198.5 83,-179.5 0,-179.5"/>
<text text-anchor="middle" x="41.5" y="-186.5" font-family="Helvetica,sans-Serif" font-size="10.00">ILoadableScript</text>
</a>
</g>
</g>
<!-- Node4&#45;&gt;Node1 -->
<g id="edge5" class="edge"><title>Node4&#45;&gt;Node1</title>
<path fill="none" stroke="midnightblue" d="M39.9049,-169.174C38.5073,-144.832 38.3,-101.472 50.5,-67 55.2689,-53.5249 64.6349,-40.3203 72.4788,-30.7949"/>
<polygon fill="midnightblue" stroke="midnightblue" points="36.4367,-169.748 40.6374,-179.474 43.4191,-169.251 36.4367,-169.748"/>
</g>
<!-- Node4&#45;&gt;Node3 -->
<g id="edge3" class="edge"><title>Node4&#45;&gt;Node3</title>
<path fill="none" stroke="midnightblue" d="M65.5616,-174.177C82.8589,-164.241 105.648,-151.149 120.435,-142.655"/>
<polygon fill="midnightblue" stroke="midnightblue" points="63.5303,-171.308 56.6027,-179.324 67.0172,-177.378 63.5303,-171.308"/>
</g>
<!-- Node5 -->
<g id="node5" class="node"><title>Node5</title>
<g id="a_node5"><a xlink:href="../../d3/db6/interfaceIG_1_1Lib_1_1ILockable.html" target="_top" xlink:title="Lockable object, has a Lock property that returns object on which lock must be performed in order to ...">
<polygon fill="white" stroke="black" points="106.5,-179.5 106.5,-198.5 164.5,-198.5 164.5,-179.5 106.5,-179.5"/>
<text text-anchor="middle" x="135.5" y="-186.5" font-family="Helvetica,sans-Serif" font-size="10.00">ILockable</text>
</a>
</g>
</g>
<!-- Node5&#45;&gt;Node3 -->
<g id="edge4" class="edge"><title>Node5&#45;&gt;Node3</title>
<path fill="none" stroke="midnightblue" d="M135.5,-168.805C135.5,-159.91 135.5,-149.78 135.5,-142.751"/>
<polygon fill="midnightblue" stroke="midnightblue" points="132,-169.083 135.5,-179.083 139,-169.083 132,-169.083"/>
</g>
</g>
</svg>
