<?xml version="1.0" encoding="UTF-8" standalone="no"?>
<!DOCTYPE svg PUBLIC "-//W3C//DTD SVG 1.1//EN"
 "http://www.w3.org/Graphics/SVG/1.1/DTD/svg11.dtd">
<!-- Generated by graphviz version 2.38.0 (20140413.2041)
 -->
<!-- Title: IG.Num.SimKosecFileManagerConv3 Pages: 1 -->
<svg width="297pt" height="218pt"
 viewBox="0.00 0.00 296.50 218.00" xmlns="http://www.w3.org/2000/svg" xmlns:xlink="http://www.w3.org/1999/xlink">
<g id="graph0" class="graph" transform="scale(1 1) rotate(0) translate(4 214)">
<title>IG.Num.SimKosecFileManagerConv3</title>
<polygon fill="white" stroke="none" points="-4,4 -4,-214 292.5,-214 292.5,4 -4,4"/>
<!-- Node1 -->
<g id="node1" class="node"><title>Node1</title>
<g id="a_node1"><a xlink:title="Interface with simulator of G. Kosec for convection problems in a cave with 3 obstacles.">
<polygon fill="#bfbfbf" stroke="black" points="87,-0.5 87,-30.5 238,-30.5 238,-0.5 87,-0.5"/>
<text text-anchor="start" x="95" y="-18.5" font-family="Helvetica,sans-Serif" font-size="10.00">IG.Num.SimKosecFileManager</text>
<text text-anchor="middle" x="162.5" y="-7.5" font-family="Helvetica,sans-Serif" font-size="10.00">Conv3</text>
</a>
</g>
</g>
<!-- Node2 -->
<g id="node2" class="node"><title>Node2</title>
<g id="a_node2"><a xlink:href="../../df/dee/classIG_1_1Num_1_1SimKosecFileManagerConvBase.html" target="_top" xlink:title="Base class for interface with simulator of G. Kosec for convection problems in a cave with obstacles.">
<polygon fill="white" stroke="black" points="83.5,-67.5 83.5,-86.5 241.5,-86.5 241.5,-67.5 83.5,-67.5"/>
<text text-anchor="middle" x="162.5" y="-74.5" font-family="Helvetica,sans-Serif" font-size="10.00">SimKosecFileManagerConvBase</text>
</a>
</g>
</g>
<!-- Node2&#45;&gt;Node1 -->
<g id="edge1" class="edge"><title>Node2&#45;&gt;Node1</title>
<path fill="none" stroke="midnightblue" d="M162.5,-57.2349C162.5,-48.5864 162.5,-38.4969 162.5,-30.523"/>
<polygon fill="midnightblue" stroke="midnightblue" points="159,-57.4751 162.5,-67.4751 166,-57.4751 159,-57.4751"/>
</g>
<!-- Node3 -->
<g id="node3" class="node"><title>Node3</title>
<g id="a_node3"><a xlink:href="../../d9/dfc/classIG_1_1Num_1_1SimKosecFileManagerBase.html" target="_top" xlink:title="File manager for interfacing (for optimization purposes) the simulation code of Gregor Kosec.">
<polygon fill="white" stroke="black" points="94,-123.5 94,-142.5 231,-142.5 231,-123.5 94,-123.5"/>
<text text-anchor="middle" x="162.5" y="-130.5" font-family="Helvetica,sans-Serif" font-size="10.00">SimKosecFileManagerBase</text>
</a>
</g>
</g>
<!-- Node3&#45;&gt;Node2 -->
<g id="edge2" class="edge"><title>Node3&#45;&gt;Node2</title>
<path fill="none" stroke="midnightblue" d="M162.5,-112.805C162.5,-103.91 162.5,-93.7798 162.5,-86.7511"/>
<polygon fill="midnightblue" stroke="midnightblue" points="159,-113.083 162.5,-123.083 166,-113.083 159,-113.083"/>
</g>
<!-- Node4 -->
<g id="node4" class="node"><title>Node4</title>
<g id="a_node4"><a xlink:href="../../d6/d7c/interfaceIG_1_1Num_1_1IResponseEvaluatorVectorSimple.html" target="_top" xlink:title="Interface for simulators and other systems (used e.g. for optimization) that can calculate vector res...">
<polygon fill="white" stroke="black" points="0,-179.5 0,-209.5 131,-209.5 131,-179.5 0,-179.5"/>
<text text-anchor="start" x="8" y="-197.5" font-family="Helvetica,sans-Serif" font-size="10.00">IResponseEvaluatorVector</text>
<text text-anchor="middle" x="65.5" y="-186.5" font-family="Helvetica,sans-Serif" font-size="10.00">Simple</text>
</a>
</g>
</g>
<!-- Node4&#45;&gt;Node1 -->
<g id="edge7" class="edge"><title>Node4&#45;&gt;Node1</title>
<path fill="none" stroke="midnightblue" d="M60.8577,-169.122C57.0556,-142.015 55.0551,-97.9763 74.5,-67 84.9889,-50.2909 103.144,-38.5362 120.249,-30.5991"/>
<polygon fill="midnightblue" stroke="midnightblue" points="57.4472,-169.96 62.4805,-179.283 64.3596,-168.856 57.4472,-169.96"/>
</g>
<!-- Node4&#45;&gt;Node2 -->
<g id="edge5" class="edge"><title>Node4&#45;&gt;Node2</title>
<path fill="none" stroke="midnightblue" d="M67.4027,-169.067C69.6063,-154.452 74.3419,-136.214 84.5,-123 97.9347,-105.524 120.232,-93.6474 137.554,-86.504"/>
<polygon fill="midnightblue" stroke="midnightblue" points="63.8799,-169.049 66.1634,-179.394 70.8301,-169.883 63.8799,-169.049"/>
</g>
<!-- Node4&#45;&gt;Node3 -->
<g id="edge3" class="edge"><title>Node4&#45;&gt;Node3</title>
<path fill="none" stroke="midnightblue" d="M97.1778,-174.069C114.469,-163.462 135.016,-150.859 148.386,-142.658"/>
<polygon fill="midnightblue" stroke="midnightblue" points="95.1817,-171.187 88.4876,-179.399 98.8418,-177.154 95.1817,-171.187"/>
</g>
<!-- Node5 -->
<g id="node5" class="node"><title>Node5</title>
<g id="a_node5"><a xlink:href="../../d3/db6/interfaceIG_1_1Lib_1_1ILockable.html" target="_top" xlink:title="Lockable object, has a Lock property that returns object on which lock must be performed in order to ...">
<polygon fill="white" stroke="black" points="230.5,-185 230.5,-204 288.5,-204 288.5,-185 230.5,-185"/>
<text text-anchor="middle" x="259.5" y="-192" font-family="Helvetica,sans-Serif" font-size="10.00">ILockable</text>
</a>
</g>
</g>
<!-- Node5&#45;&gt;Node1 -->
<g id="edge8" class="edge"><title>Node5&#45;&gt;Node1</title>
<path fill="none" stroke="midnightblue" d="M263.597,-175.018C268.357,-148.557 272.949,-99.4929 250.5,-67 239.086,-50.4788 220.387,-38.6575 203.154,-30.6264"/>
<polygon fill="midnightblue" stroke="midnightblue" points="260.158,-174.367 261.625,-184.86 267.022,-175.743 260.158,-174.367"/>
</g>
<!-- Node5&#45;&gt;Node2 -->
<g id="edge6" class="edge"><title>Node5&#45;&gt;Node2</title>
<path fill="none" stroke="midnightblue" d="M257.991,-174.46C255.929,-159.185 251.049,-137.907 239.5,-123 226.129,-105.742 204.128,-93.8435 187.06,-86.6362"/>
<polygon fill="midnightblue" stroke="midnightblue" points="254.549,-175.189 259.083,-184.765 261.51,-174.452 254.549,-175.189"/>
</g>
<!-- Node5&#45;&gt;Node3 -->
<g id="edge4" class="edge"><title>Node5&#45;&gt;Node3</title>
<path fill="none" stroke="midnightblue" d="M237.074,-179.744C218.336,-168.25 192.207,-152.223 176.372,-142.509"/>
<polygon fill="midnightblue" stroke="midnightblue" points="235.248,-182.73 245.602,-184.975 238.908,-176.763 235.248,-182.73"/>
</g>
</g>
</svg>
