<?xml version="1.0" encoding="UTF-8" standalone="no"?>
<!DOCTYPE svg PUBLIC "-//W3C//DTD SVG 1.1//EN"
 "http://www.w3.org/Graphics/SVG/1.1/DTD/svg11.dtd">
<!-- Generated by graphviz version 2.38.0 (20140413.2041)
 -->
<!-- Title: IG.Num.ParallelJobContainerBase Pages: 1 -->
<svg width="172pt" height="151pt"
 viewBox="0.00 0.00 172.00 151.00" xmlns="http://www.w3.org/2000/svg" xmlns:xlink="http://www.w3.org/1999/xlink">
<g id="graph0" class="graph" transform="scale(1 1) rotate(0) translate(4 147)">
<title>IG.Num.ParallelJobContainerBase</title>
<polygon fill="white" stroke="none" points="-4,4 -4,-147 168,-147 168,4 -4,4"/>
<!-- Node1 -->
<g id="node1" class="node"><title>Node1</title>
<g id="a_node1"><a xlink:title="Contains input data and results of a parallel job to be executed, oropertied indicating the state of ...">
<polygon fill="#bfbfbf" stroke="black" points="0,-67.5 0,-86.5 164,-86.5 164,-67.5 0,-67.5"/>
<text text-anchor="middle" x="82" y="-74.5" font-family="Helvetica,sans-Serif" font-size="10.00">IG.Num.ParallelJobContainerBase</text>
</a>
</g>
</g>
<!-- Node4 -->
<g id="node4" class="node"><title>Node4</title>
<g id="a_node4"><a xlink:href="../../d3/d64/classIG_1_1Num_1_1ParallelJobContainerGen.html" target="_top" xlink:title="General purpose parallel job container that contains methods for running the job in on the same machi...">
<polygon fill="white" stroke="black" points="7.5,-0.5 7.5,-30.5 156.5,-30.5 156.5,-0.5 7.5,-0.5"/>
<text text-anchor="start" x="15.5" y="-18.5" font-family="Helvetica,sans-Serif" font-size="10.00">IG.Num.ParallelJobContainer</text>
<text text-anchor="middle" x="82" y="-7.5" font-family="Helvetica,sans-Serif" font-size="10.00">Gen&lt; InputType, ResultType &gt;</text>
</a>
</g>
</g>
<!-- Node1&#45;&gt;Node4 -->
<g id="edge3" class="edge"><title>Node1&#45;&gt;Node4</title>
<path fill="none" stroke="midnightblue" d="M82,-57.2349C82,-48.5864 82,-38.4969 82,-30.523"/>
<polygon fill="midnightblue" stroke="midnightblue" points="78.5001,-57.4751 82,-67.4751 85.5001,-57.4751 78.5001,-57.4751"/>
</g>
<!-- Node2 -->
<g id="node2" class="node"><title>Node2</title>
<g id="a_node2"><a xlink:href="../../d3/db6/interfaceIG_1_1Lib_1_1ILockable.html" target="_top" xlink:title="Lockable object, has a Lock property that returns object on which lock must be performed in order to ...">
<polygon fill="white" stroke="black" points="13,-123.5 13,-142.5 71,-142.5 71,-123.5 13,-123.5"/>
<text text-anchor="middle" x="42" y="-130.5" font-family="Helvetica,sans-Serif" font-size="10.00">ILockable</text>
</a>
</g>
</g>
<!-- Node2&#45;&gt;Node1 -->
<g id="edge1" class="edge"><title>Node2&#45;&gt;Node1</title>
<path fill="none" stroke="midnightblue" d="M54.6997,-114.855C61.626,-105.505 69.9063,-94.3265 75.5177,-86.7511"/>
<polygon fill="midnightblue" stroke="midnightblue" points="51.745,-112.964 48.6052,-123.083 57.37,-117.131 51.745,-112.964"/>
</g>
<!-- Node3 -->
<g id="node3" class="node"><title>Node3</title>
<g id="a_node3"><a xlink:href="../../dc/d79/interfaceIG_1_1Lib_1_1IIdentifiable.html" target="_top" xlink:title="Classes whose instances have unique integer IDs.">
<polygon fill="white" stroke="black" points="89.5,-123.5 89.5,-142.5 154.5,-142.5 154.5,-123.5 89.5,-123.5"/>
<text text-anchor="middle" x="122" y="-130.5" font-family="Helvetica,sans-Serif" font-size="10.00">IIdentifiable</text>
</a>
</g>
</g>
<!-- Node3&#45;&gt;Node1 -->
<g id="edge2" class="edge"><title>Node3&#45;&gt;Node1</title>
<path fill="none" stroke="midnightblue" d="M109.3,-114.855C102.374,-105.505 94.0937,-94.3265 88.4823,-86.7511"/>
<polygon fill="midnightblue" stroke="midnightblue" points="106.63,-117.131 115.395,-123.083 112.255,-112.964 106.63,-117.131"/>
</g>
</g>
</svg>
