<?xml version="1.0" encoding="UTF-8" standalone="no"?>
<!DOCTYPE svg PUBLIC "-//W3C//DTD SVG 1.1//EN"
 "http://www.w3.org/Graphics/SVG/1.1/DTD/svg11.dtd">
<!-- Generated by graphviz version 2.38.0 (20140413.2041)
 -->
<!-- Title: IG.Gr.GraphicPrimitive Pages: 1 -->
<svg width="276pt" height="229pt"
 viewBox="0.00 0.00 275.50 229.00" xmlns="http://www.w3.org/2000/svg" xmlns:xlink="http://www.w3.org/1999/xlink">
<g id="graph0" class="graph" transform="scale(1 1) rotate(0) translate(4 225)">
<title>IG.Gr.GraphicPrimitive</title>
<polygon fill="white" stroke="none" points="-4,4 -4,-225 271.5,-225 271.5,4 -4,4"/>
<!-- Node1 -->
<g id="node1" class="node"><title>Node1</title>
<g id="a_node1"><a xlink:title="Abstract base class for all graphic primitives such as lines, facets, etc.">
<polygon fill="#bfbfbf" stroke="black" points="26.5,-0.5 26.5,-19.5 139.5,-19.5 139.5,-0.5 26.5,-0.5"/>
<text text-anchor="middle" x="83" y="-7.5" font-family="Helvetica,sans-Serif" font-size="10.00">IG.Gr.GraphicPrimitive</text>
</a>
</g>
</g>
<!-- Node2 -->
<g id="node2" class="node"><title>Node2</title>
<g id="a_node2"><a xlink:href="../../d0/da2/classIG_1_1Gr_1_1GraphicObject.html" target="_top" xlink:title="Graphic object, a tree &#45; like collection of graphic primitives.">
<polygon fill="white" stroke="black" points="108.5,-67.5 108.5,-86.5 213.5,-86.5 213.5,-67.5 108.5,-67.5"/>
<text text-anchor="middle" x="161" y="-74.5" font-family="Helvetica,sans-Serif" font-size="10.00">IG.Gr.GraphicObject</text>
</a>
</g>
</g>
<!-- Node2&#45;&gt;Node1 -->
<g id="edge1" class="edge"><title>Node2&#45;&gt;Node1</title>
<path fill="none" stroke="#9a32cd" stroke-dasharray="5,2" d="M142.656,-60.7134C127.288,-47.907 105.906,-30.0884 93.3528,-19.6273"/>
<polygon fill="#9a32cd" stroke="#9a32cd" points="140.558,-63.5207 150.481,-67.2338 145.039,-58.1431 140.558,-63.5207"/>
<text text-anchor="middle" x="144" y="-41" font-family="Helvetica,sans-Serif" font-size="10.00"> _parent</text>
</g>
<!-- Node2&#45;&gt;Node2 -->
<g id="edge2" class="edge"><title>Node2&#45;&gt;Node2</title>
<path fill="none" stroke="#9a32cd" stroke-dasharray="5,2" d="M223.845,-81.4883C228.585,-80.4883 231.5,-78.9922 231.5,-77 231.5,-73.8125 224.039,-71.895 213.575,-71.2476"/>
<polygon fill="#9a32cd" stroke="#9a32cd" points="223.073,-78.0568 213.575,-82.7524 223.928,-85.0044 223.073,-78.0568"/>
<text text-anchor="middle" x="249.5" y="-74.5" font-family="Helvetica,sans-Serif" font-size="10.00"> _parent</text>
</g>
<!-- Node3 -->
<g id="node3" class="node"><title>Node3</title>
<g id="a_node3"><a xlink:href="../../dc/d46/classIG_1_1Gr_1_1GrPrimitiveSettings.html" target="_top" xlink:title="Settings for graphic primitive.">
<polygon fill="white" stroke="black" points="0,-134.5 0,-153.5 126,-153.5 126,-134.5 0,-134.5"/>
<text text-anchor="middle" x="63" y="-141.5" font-family="Helvetica,sans-Serif" font-size="10.00">IG.Gr.GrPrimitiveSettings</text>
</a>
</g>
</g>
<!-- Node3&#45;&gt;Node1 -->
<g id="edge5" class="edge"><title>Node3&#45;&gt;Node1</title>
<path fill="none" stroke="#9a32cd" stroke-dasharray="5,2" d="M58.544,-124.57C55.5026,-109.047 52.7284,-86.3438 57,-67 60.9292,-49.2064 71.1054,-30.3501 77.4991,-19.6891"/>
<polygon fill="#9a32cd" stroke="#9a32cd" points="55.15,-125.433 60.7088,-134.452 61.9879,-123.935 55.15,-125.433"/>
<text text-anchor="middle" x="78.5" y="-74.5" font-family="Helvetica,sans-Serif" font-size="10.00"> _settings</text>
</g>
<!-- Node3&#45;&gt;Node2 -->
<g id="edge3" class="edge"><title>Node3&#45;&gt;Node2</title>
<path fill="none" stroke="#9a32cd" stroke-dasharray="5,2" d="M84.7191,-128.595C104.106,-115.736 131.855,-97.3306 147.993,-86.6273"/>
<polygon fill="#9a32cd" stroke="#9a32cd" points="82.6157,-125.79 76.2167,-134.234 86.4849,-131.623 82.6157,-125.79"/>
<text text-anchor="middle" x="138.5" y="-108" font-family="Helvetica,sans-Serif" font-size="10.00"> _settings</text>
</g>
<!-- Node4 -->
<g id="node4" class="node"><title>Node4</title>
<g id="a_node4"><a xlink:href="../../dd/d52/structIG_1_1Lib_1_1color.html" target="_top" xlink:title="Extended color representation. Stores RGB components and opacity as double numbers ranging fom 0 to 1...">
<polygon fill="white" stroke="black" points="30,-201.5 30,-220.5 96,-220.5 96,-201.5 30,-201.5"/>
<text text-anchor="middle" x="63" y="-208.5" font-family="Helvetica,sans-Serif" font-size="10.00">IG.Lib.color</text>
</a>
</g>
</g>
<!-- Node4&#45;&gt;Node3 -->
<g id="edge4" class="edge"><title>Node4&#45;&gt;Node3</title>
<path fill="none" stroke="#9a32cd" stroke-dasharray="5,2" d="M63,-191.037C63,-178.67 63,-163.12 63,-153.627"/>
<polygon fill="#9a32cd" stroke="#9a32cd" points="59.5001,-191.234 63,-201.234 66.5001,-191.234 59.5001,-191.234"/>
<text text-anchor="middle" x="78" y="-175" font-family="Helvetica,sans-Serif" font-size="10.00"> _color</text>
</g>
</g>
</svg>
