<?xml version="1.0" encoding="UTF-8" standalone="no"?>
<!DOCTYPE svg PUBLIC "-//W3C//DTD SVG 1.1//EN"
 "http://www.w3.org/Graphics/SVG/1.1/DTD/svg11.dtd">
<!-- Generated by graphviz version 2.38.0 (20140413.2041)
 -->
<!-- Title: IG.Lib.WaitCondition Pages: 1 -->
<svg width="301pt" height="242pt"
 viewBox="0.00 0.00 301.12 242.00" xmlns="http://www.w3.org/2000/svg" xmlns:xlink="http://www.w3.org/1999/xlink">
<g id="graph0" class="graph" transform="scale(1 1) rotate(0) translate(4 238)">
<title>IG.Lib.WaitCondition</title>
<polygon fill="white" stroke="none" points="-4,4 -4,-238 297.122,-238 297.122,4 -4,4"/>
<!-- Node1 -->
<g id="node1" class="node"><title>Node1</title>
<g id="a_node1"><a xlink:title="Provides a framework for blocking execution until the specified condition becomes satisfied....">
<polygon fill="#bfbfbf" stroke="black" points="71.1217,-0.5 71.1217,-19.5 177.122,-19.5 177.122,-0.5 71.1217,-0.5"/>
<text text-anchor="middle" x="124.122" y="-7.5" font-family="Helvetica,sans-Serif" font-size="10.00">IG.Lib.WaitCondition</text>
</a>
</g>
</g>
<!-- Node2 -->
<g id="node2" class="node"><title>Node2</title>
<g id="a_node2"><a xlink:href="../../df/dea/classIG_1_1Lib_1_1WaitConditionBase.html" target="_top" xlink:title="Base class for objects that perform waiting until a condition is fulfilled.">
<polygon fill="white" stroke="black" points="22.1217,-57.5 22.1217,-76.5 122.122,-76.5 122.122,-57.5 22.1217,-57.5"/>
<text text-anchor="middle" x="72.1217" y="-64.5" font-family="Helvetica,sans-Serif" font-size="10.00">WaitConditionBase</text>
</a>
</g>
</g>
<!-- Node2&#45;&gt;Node1 -->
<g id="edge1" class="edge"><title>Node2&#45;&gt;Node1</title>
<path fill="none" stroke="midnightblue" d="M87.1328,-50.1229C96.4919,-40.2238 108.179,-27.8624 115.882,-19.7149"/>
<polygon fill="midnightblue" stroke="midnightblue" points="84.5736,-47.7352 80.2467,-57.4063 89.6601,-52.5443 84.5736,-47.7352"/>
</g>
<!-- Node3 -->
<g id="node3" class="node"><title>Node3</title>
<g id="a_node3"><a xlink:href="../../de/d1e/interfaceIG_1_1Lib_1_1IWaitCondition.html" target="_top" xlink:title="Interface for classes that implement blocking until a specified condition is met.">
<polygon fill="white" stroke="black" points="60.1217,-114.5 60.1217,-133.5 140.122,-133.5 140.122,-114.5 60.1217,-114.5"/>
<text text-anchor="middle" x="100.122" y="-121.5" font-family="Helvetica,sans-Serif" font-size="10.00">IWaitCondition</text>
</a>
</g>
</g>
<!-- Node3&#45;&gt;Node1 -->
<g id="edge5" class="edge"><title>Node3&#45;&gt;Node1</title>
<path fill="none" stroke="midnightblue" d="M114.861,-106.367C121.183,-98.1358 127.857,-87.6866 131.122,-77 137.182,-57.1643 131.259,-32.5932 127.208,-19.7523"/>
<polygon fill="midnightblue" stroke="midnightblue" points="111.959,-104.386 108.318,-114.335 117.369,-108.829 111.959,-104.386"/>
</g>
<!-- Node3&#45;&gt;Node2 -->
<g id="edge2" class="edge"><title>Node3&#45;&gt;Node2</title>
<path fill="none" stroke="midnightblue" d="M91.1281,-105.334C86.2591,-95.77 80.4598,-84.3784 76.5584,-76.7149"/>
<polygon fill="midnightblue" stroke="midnightblue" points="88.0907,-107.083 95.7467,-114.406 94.3289,-103.907 88.0907,-107.083"/>
</g>
<!-- Node4 -->
<g id="node4" class="node"><title>Node4</title>
<g id="a_node4"><a xlink:href="../../d3/db6/interfaceIG_1_1Lib_1_1ILockable.html" target="_top" xlink:title="Lockable object, has a Lock property that returns object on which lock must be performed in order to ...">
<polygon fill="white" stroke="black" points="15.1217,-214.5 15.1217,-233.5 73.1217,-233.5 73.1217,-214.5 15.1217,-214.5"/>
<text text-anchor="middle" x="44.1217" y="-221.5" font-family="Helvetica,sans-Serif" font-size="10.00">ILockable</text>
</a>
</g>
</g>
<!-- Node4&#45;&gt;Node1 -->
<g id="edge6" class="edge"><title>Node4&#45;&gt;Node1</title>
<path fill="none" stroke="midnightblue" d="M33.1886,-205.445C14.6566,-173.209 -18.0201,-103.616 13.1217,-57 26.3317,-37.2261 49.7882,-25.9414 71.7459,-19.5064"/>
<polygon fill="midnightblue" stroke="midnightblue" points="30.2716,-207.387 38.3994,-214.184 36.2837,-203.802 30.2716,-207.387"/>
</g>
<!-- Node4&#45;&gt;Node2 -->
<g id="edge4" class="edge"><title>Node4&#45;&gt;Node2</title>
<path fill="none" stroke="midnightblue" d="M43.2806,-204.103C42.7703,-182.111 43.3651,-144.866 51.1217,-114 54.545,-100.377 61.8923,-85.8142 66.9214,-76.8076"/>
<polygon fill="midnightblue" stroke="midnightblue" points="39.7913,-204.482 43.6277,-214.358 46.7873,-204.245 39.7913,-204.482"/>
</g>
<!-- Node4&#45;&gt;Node3 -->
<g id="edge3" class="edge"><title>Node4&#45;&gt;Node3</title>
<path fill="none" stroke="midnightblue" d="M54.1882,-205.384C66.2925,-184.201 86.1167,-149.509 95.2432,-133.537"/>
<polygon fill="midnightblue" stroke="midnightblue" points="51.0139,-203.884 49.0913,-214.303 57.0916,-207.357 51.0139,-203.884"/>
</g>
<!-- Node5 -->
<g id="node5" class="node"><title>Node5</title>
<g id="a_node5"><a xlink:href="../../de/de7/classIG_1_1Lib_1_1StopWatch1.html" target="_top" xlink:title="Timer for measuring execution times and other intervals of time elapsed between successive events....">
<polygon fill="white" stroke="black" points="158.622,-114.5 158.622,-133.5 257.622,-133.5 257.622,-114.5 158.622,-114.5"/>
<text text-anchor="middle" x="208.122" y="-121.5" font-family="Helvetica,sans-Serif" font-size="10.00">IG.Lib.StopWatch1</text>
</a>
</g>
</g>
<!-- Node4&#45;&gt;Node5 -->
<g id="edge8" class="edge"><title>Node4&#45;&gt;Node5</title>
<path fill="none" stroke="midnightblue" d="M67.2677,-209.169C101.687,-188.601 165.351,-150.558 193.771,-133.575"/>
<polygon fill="midnightblue" stroke="midnightblue" points="65.1775,-206.341 58.3887,-214.475 68.7682,-212.349 65.1775,-206.341"/>
</g>
<!-- Node5&#45;&gt;Node1 -->
<g id="edge7" class="edge"><title>Node5&#45;&gt;Node1</title>
<path fill="none" stroke="#9a32cd" stroke-dasharray="5,2" d="M196.106,-105.97C183.803,-88.6667 164.004,-61.1871 146.122,-38 141.395,-31.8713 135.895,-25.1213 131.577,-19.9035"/>
<polygon fill="#9a32cd" stroke="#9a32cd" points="193.473,-108.307 202.11,-114.444 199.185,-104.261 193.473,-108.307"/>
<text text-anchor="middle" x="190.622" y="-64.5" font-family="Helvetica,sans-Serif" font-size="10.00"> _timer</text>
</g>
<!-- Node6 -->
<g id="node6" class="node"><title>Node6</title>
<g id="a_node6"><a xlink:href="../../dc/d79/interfaceIG_1_1Lib_1_1IIdentifiable.html" target="_top" xlink:title="Classes whose instances have unique integer IDs.">
<polygon fill="white" stroke="black" points="139.622,-214.5 139.622,-233.5 204.622,-233.5 204.622,-214.5 139.622,-214.5"/>
<text text-anchor="middle" x="172.122" y="-221.5" font-family="Helvetica,sans-Serif" font-size="10.00">IIdentifiable</text>
</a>
</g>
</g>
<!-- Node6&#45;&gt;Node5 -->
<g id="edge9" class="edge"><title>Node6&#45;&gt;Node5</title>
<path fill="none" stroke="midnightblue" d="M178.805,-204.805C186.604,-183.575 199.172,-149.364 204.985,-133.537"/>
<polygon fill="midnightblue" stroke="midnightblue" points="175.479,-203.71 175.316,-214.303 182.05,-206.123 175.479,-203.71"/>
</g>
<!-- Node7 -->
<g id="node7" class="node"><title>Node7</title>
<g id="a_node7"><a xlink:title=" ">
<polygon fill="white" stroke="#bfbfbf" points="222.622,-214.5 222.622,-233.5 263.622,-233.5 263.622,-214.5 222.622,-214.5"/>
<text text-anchor="middle" x="243.122" y="-221.5" font-family="Helvetica,sans-Serif" font-size="10.00">static</text>
</a>
</g>
</g>
<!-- Node7&#45;&gt;Node5 -->
<g id="edge10" class="edge"><title>Node7&#45;&gt;Node5</title>
<path fill="none" stroke="#9a32cd" stroke-dasharray="5,2" d="M236.624,-204.805C229.041,-183.575 216.823,-149.364 211.171,-133.537"/>
<polygon fill="#9a32cd" stroke="#9a32cd" points="233.356,-206.063 240.016,-214.303 239.948,-203.709 233.356,-206.063"/>
<text text-anchor="middle" x="263.122" y="-188" font-family="Helvetica,sans-Serif" font-size="10.00"> lastId</text>
<text text-anchor="middle" x="263.122" y="-177" font-family="Helvetica,sans-Serif" font-size="10.00">_staticLock</text>
<text text-anchor="middle" x="263.122" y="-166" font-family="Helvetica,sans-Serif" font-size="10.00">numWarnCpu</text>
<text text-anchor="middle" x="263.122" y="-155" font-family="Helvetica,sans-Serif" font-size="10.00">MaxWarnCpu</text>
</g>
</g>
</svg>
