<?xml version="1.0" encoding="UTF-8" standalone="no"?>
<!DOCTYPE svg PUBLIC "-//W3C//DTD SVG 1.1//EN"
 "http://www.w3.org/Graphics/SVG/1.1/DTD/svg11.dtd">
<!-- Generated by graphviz version 2.38.0 (20140413.2041)
 -->
<!-- Title: IG.Num.Func3d2dExamples.ParametricSurface Pages: 1 -->
<svg width="939pt" height="725pt"
 viewBox="0.00 0.00 939.00 725.00" xmlns="http://www.w3.org/2000/svg" xmlns:xlink="http://www.w3.org/1999/xlink">
<g id="graph0" class="graph" transform="scale(1 1) rotate(0) translate(4 721)">
<title>IG.Num.Func3d2dExamples.ParametricSurface</title>
<polygon fill="white" stroke="none" points="-4,4 -4,-721 935,-721 935,4 -4,4"/>
<!-- Node1 -->
<g id="node1" class="node"><title>Node1</title>
<g id="a_node1"><a xlink:title="Base class for easy definition of parametric surfaces intended for plotting.">
<polygon fill="#bfbfbf" stroke="black" points="383,-343.5 383,-373.5 525,-373.5 525,-343.5 383,-343.5"/>
<text text-anchor="start" x="391" y="-361.5" font-family="Helvetica,sans-Serif" font-size="10.00">IG.Num.Func3d2dExamples.</text>
<text text-anchor="middle" x="454" y="-350.5" font-family="Helvetica,sans-Serif" font-size="10.00">ParametricSurface</text>
</a>
</g>
</g>
<!-- Node5 -->
<g id="node5" class="node"><title>Node5</title>
<g id="a_node5"><a xlink:href="../../d2/dff/classIG_1_1Num_1_1Func3d2dExamples_1_1CylinderParametric.html" target="_top" xlink:title="Parametric equation of an origin&#45;centered (ellipsoidal) cylindrical surface in form of 3D vector func...">
<polygon fill="white" stroke="black" points="561,-686.5 561,-716.5 703,-716.5 703,-686.5 561,-686.5"/>
<text text-anchor="start" x="569" y="-704.5" font-family="Helvetica,sans-Serif" font-size="10.00">IG.Num.Func3d2dExamples.</text>
<text text-anchor="middle" x="632" y="-693.5" font-family="Helvetica,sans-Serif" font-size="10.00">CylinderParametric</text>
</a>
</g>
</g>
<!-- Node1&#45;&gt;Node5 -->
<g id="edge6" class="edge"><title>Node1&#45;&gt;Node5</title>
<path fill="none" stroke="midnightblue" d="M456.062,-383.558C459.931,-442.953 477.873,-593.581 561,-677.5 564.436,-680.968 568.394,-683.936 572.643,-686.475"/>
<polygon fill="midnightblue" stroke="midnightblue" points="459.556,-383.351 455.491,-373.567 452.568,-383.75 459.556,-383.351"/>
</g>
<!-- Node6 -->
<g id="node6" class="node"><title>Node6</title>
<g id="a_node6"><a xlink:href="../../de/d46/classIG_1_1Num_1_1Func3d2dExamples_1_1EllipsoidParametric.html" target="_top" xlink:title="Parametric equation of an origin&#45;centered ellipsoid surface in form of 3D vector function of 2 variab...">
<polygon fill="white" stroke="black" points="561,-637.5 561,-667.5 703,-667.5 703,-637.5 561,-637.5"/>
<text text-anchor="start" x="569" y="-655.5" font-family="Helvetica,sans-Serif" font-size="10.00">IG.Num.Func3d2dExamples.</text>
<text text-anchor="middle" x="632" y="-644.5" font-family="Helvetica,sans-Serif" font-size="10.00">EllipsoidParametric</text>
</a>
</g>
</g>
<!-- Node1&#45;&gt;Node6 -->
<g id="edge7" class="edge"><title>Node1&#45;&gt;Node6</title>
<path fill="none" stroke="midnightblue" d="M457.877,-383.992C465.197,-437.008 489.336,-559.909 561,-628.5 564.62,-631.964 568.761,-634.93 573.181,-637.469"/>
<polygon fill="midnightblue" stroke="midnightblue" points="461.311,-383.254 456.559,-373.785 454.368,-384.151 461.311,-383.254"/>
</g>
<!-- Node9 -->
<g id="node9" class="node"><title>Node9</title>
<g id="a_node9"><a xlink:href="../../de/d49/classIG_1_1Num_1_1Func3d2dExamples_1_1EnneperSurface.html" target="_top" xlink:title="Parametric equation of the Enneper surface, in form of 3D vector function of 2 variables.">
<polygon fill="white" stroke="black" points="561,-588.5 561,-618.5 703,-618.5 703,-588.5 561,-588.5"/>
<text text-anchor="start" x="569" y="-606.5" font-family="Helvetica,sans-Serif" font-size="10.00">IG.Num.Func3d2dExamples.</text>
<text text-anchor="middle" x="632" y="-595.5" font-family="Helvetica,sans-Serif" font-size="10.00">EnneperSurface</text>
</a>
</g>
</g>
<!-- Node1&#45;&gt;Node9 -->
<g id="edge10" class="edge"><title>Node1&#45;&gt;Node9</title>
<path fill="none" stroke="midnightblue" d="M460.255,-383.437C471.102,-428.874 500.214,-525.436 561,-579.5 564.84,-582.915 569.189,-585.849 573.794,-588.369"/>
<polygon fill="midnightblue" stroke="midnightblue" points="463.634,-382.51 457.992,-373.543 456.81,-384.071 463.634,-382.51"/>
</g>
<!-- Node10 -->
<g id="node10" class="node"><title>Node10</title>
<g id="a_node10"><a xlink:href="../../d5/dc2/classIG_1_1Num_1_1Func3d2dExamples_1_1HyperboloidParametric.html" target="_top" xlink:title="Parametric definition of an origin&#45;centered hyperboloid surface (x^2/a^2+y^2/b^2&#45;z^2/c^2=1) in form o...">
<polygon fill="white" stroke="black" points="561,-539.5 561,-569.5 703,-569.5 703,-539.5 561,-539.5"/>
<text text-anchor="start" x="569" y="-557.5" font-family="Helvetica,sans-Serif" font-size="10.00">IG.Num.Func3d2dExamples.</text>
<text text-anchor="middle" x="632" y="-546.5" font-family="Helvetica,sans-Serif" font-size="10.00">HyperboloidParametric</text>
</a>
</g>
</g>
<!-- Node1&#45;&gt;Node10 -->
<g id="edge11" class="edge"><title>Node1&#45;&gt;Node10</title>
<path fill="none" stroke="midnightblue" d="M463.866,-383.097C478.47,-420.246 511.039,-490.56 561,-530.5 565.315,-533.95 570.155,-536.917 575.223,-539.468"/>
<polygon fill="midnightblue" stroke="midnightblue" points="467.058,-381.646 460.223,-373.551 460.518,-384.142 467.058,-381.646"/>
</g>
<!-- Node15 -->
<g id="node15" class="node"><title>Node15</title>
<g id="a_node15"><a xlink:href="../../df/d5f/classIG_1_1Num_1_1Func3d2dExamples_1_1HyperboloidParametric2.html" target="_top" xlink:title="Alternative parametric definition of an origin&#45;centered hyperboloid surface (x^2/a^2+y^2/b^2&#45;z^2/c^2=...">
<polygon fill="white" stroke="black" points="561,-490.5 561,-520.5 703,-520.5 703,-490.5 561,-490.5"/>
<text text-anchor="start" x="569" y="-508.5" font-family="Helvetica,sans-Serif" font-size="10.00">IG.Num.Func3d2dExamples.</text>
<text text-anchor="middle" x="632" y="-497.5" font-family="Helvetica,sans-Serif" font-size="10.00">HyperboloidParametric2</text>
</a>
</g>
</g>
<!-- Node1&#45;&gt;Node15 -->
<g id="edge16" class="edge"><title>Node1&#45;&gt;Node15</title>
<path fill="none" stroke="midnightblue" d="M469.766,-382.257C488.024,-409.799 521.566,-454.816 561,-481.5 566.001,-484.884 571.525,-487.834 577.212,-490.396"/>
<polygon fill="midnightblue" stroke="midnightblue" points="472.552,-380.122 464.173,-373.638 466.68,-383.932 472.552,-380.122"/>
</g>
<!-- Node16 -->
<g id="node16" class="node"><title>Node16</title>
<g id="a_node16"><a xlink:href="../../db/de8/classIG_1_1Num_1_1Func3d2dExamples_1_1KleinBottle.html" target="_top" xlink:title="Defines the Klein&#39;s bottle (a parametric surface), a closed surface with no interior and exterior.">
<polygon fill="white" stroke="black" points="561,-441.5 561,-471.5 703,-471.5 703,-441.5 561,-441.5"/>
<text text-anchor="start" x="569" y="-459.5" font-family="Helvetica,sans-Serif" font-size="10.00">IG.Num.Func3d2dExamples.</text>
<text text-anchor="middle" x="632" y="-448.5" font-family="Helvetica,sans-Serif" font-size="10.00">KleinBottle</text>
</a>
</g>
</g>
<!-- Node1&#45;&gt;Node16 -->
<g id="edge17" class="edge"><title>Node1&#45;&gt;Node16</title>
<path fill="none" stroke="midnightblue" d="M481.13,-379.855C501.823,-395.976 531.98,-417.763 561,-432.5 567.415,-435.757 574.373,-438.738 581.329,-441.407"/>
<polygon fill="midnightblue" stroke="midnightblue" points="483.16,-376.999 473.143,-373.548 478.822,-382.492 483.16,-376.999"/>
</g>
<!-- Node17 -->
<g id="node17" class="node"><title>Node17</title>
<g id="a_node17"><a xlink:href="../../d2/d37/classIG_1_1Num_1_1Func3d2dExamples_1_1KleinBottle1.html" target="_top" xlink:title="Defines the Klein&#39;s bottle (a parametric surface), a closed surface with no interior and exterior.">
<polygon fill="white" stroke="black" points="561,-392.5 561,-422.5 703,-422.5 703,-392.5 561,-392.5"/>
<text text-anchor="start" x="569" y="-410.5" font-family="Helvetica,sans-Serif" font-size="10.00">IG.Num.Func3d2dExamples.</text>
<text text-anchor="middle" x="632" y="-399.5" font-family="Helvetica,sans-Serif" font-size="10.00">KleinBottle1</text>
</a>
</g>
</g>
<!-- Node1&#45;&gt;Node17 -->
<g id="edge18" class="edge"><title>Node1&#45;&gt;Node17</title>
<path fill="none" stroke="midnightblue" d="M519.011,-376.321C538.014,-381.612 558.632,-387.352 576.937,-392.448"/>
<polygon fill="midnightblue" stroke="midnightblue" points="519.814,-372.912 509.242,-373.601 517.937,-379.655 519.814,-372.912"/>
</g>
<!-- Node18 -->
<g id="node18" class="node"><title>Node18</title>
<g id="a_node18"><a xlink:href="../../d6/d09/classIG_1_1Num_1_1Func3d2dExamples_1_1KleinBottle2.html" target="_top" xlink:title="Defines the Klein&#39;s bottle (a parametric surface), a closed surface with no interior and exterior.">
<polygon fill="white" stroke="black" points="561,-343.5 561,-373.5 703,-373.5 703,-343.5 561,-343.5"/>
<text text-anchor="start" x="569" y="-361.5" font-family="Helvetica,sans-Serif" font-size="10.00">IG.Num.Func3d2dExamples.</text>
<text text-anchor="middle" x="632" y="-350.5" font-family="Helvetica,sans-Serif" font-size="10.00">KleinBottle2</text>
</a>
</g>
</g>
<!-- Node1&#45;&gt;Node18 -->
<g id="edge19" class="edge"><title>Node1&#45;&gt;Node18</title>
<path fill="none" stroke="midnightblue" d="M535.101,-358.5C543.706,-358.5 552.412,-358.5 560.888,-358.5"/>
<polygon fill="midnightblue" stroke="midnightblue" points="535.066,-355 525.066,-358.5 535.066,-362 535.066,-355"/>
</g>
<!-- Node19 -->
<g id="node19" class="node"><title>Node19</title>
<g id="a_node19"><a xlink:href="../../d0/d6c/classIG_1_1Num_1_1Func3d2dExamples_1_1SnailConicSpiral__ToCheck.html" target="_top" xlink:title="Defines a parametric definition of a snail shell &#45; like surface (a parametric surface) in form of 3D ...">
<polygon fill="white" stroke="black" points="561,-294.5 561,-324.5 703,-324.5 703,-294.5 561,-294.5"/>
<text text-anchor="start" x="569" y="-312.5" font-family="Helvetica,sans-Serif" font-size="10.00">IG.Num.Func3d2dExamples.</text>
<text text-anchor="middle" x="632" y="-301.5" font-family="Helvetica,sans-Serif" font-size="10.00">SnailConicSpiral_ToCheck</text>
</a>
</g>
</g>
<!-- Node1&#45;&gt;Node19 -->
<g id="edge20" class="edge"><title>Node1&#45;&gt;Node19</title>
<path fill="none" stroke="midnightblue" d="M519.011,-340.679C538.014,-335.388 558.632,-329.648 576.937,-324.552"/>
<polygon fill="midnightblue" stroke="midnightblue" points="517.937,-337.345 509.242,-343.399 519.814,-344.088 517.937,-337.345"/>
</g>
<!-- Node20 -->
<g id="node20" class="node"><title>Node20</title>
<g id="a_node20"><a xlink:href="../../df/d3d/classIG_1_1Num_1_1Func3d2dExamples_1_1SnailShell1.html" target="_top" xlink:title="Definition of parametric surface that ressembles a snail&#39;s shell in form of 3D vector function of 2 v...">
<polygon fill="white" stroke="black" points="561,-245.5 561,-275.5 703,-275.5 703,-245.5 561,-245.5"/>
<text text-anchor="start" x="569" y="-263.5" font-family="Helvetica,sans-Serif" font-size="10.00">IG.Num.Func3d2dExamples.</text>
<text text-anchor="middle" x="632" y="-252.5" font-family="Helvetica,sans-Serif" font-size="10.00">SnailShell1</text>
</a>
</g>
</g>
<!-- Node1&#45;&gt;Node20 -->
<g id="edge21" class="edge"><title>Node1&#45;&gt;Node20</title>
<path fill="none" stroke="midnightblue" d="M481.13,-337.145C501.823,-321.024 531.98,-299.237 561,-284.5 567.415,-281.243 574.373,-278.262 581.329,-275.593"/>
<polygon fill="midnightblue" stroke="midnightblue" points="478.822,-334.508 473.143,-343.452 483.16,-340.001 478.822,-334.508"/>
</g>
<!-- Node21 -->
<g id="node21" class="node"><title>Node21</title>
<g id="a_node21"><a xlink:href="../../d3/de2/classIG_1_1Num_1_1Func3d2dExamples_1_1SnailShell1Streched.html" target="_top" xlink:title="Definition of parametric surface that ressembles a snail&#39;s shell (a bit stretched along the axis) in ...">
<polygon fill="white" stroke="black" points="561,-196.5 561,-226.5 703,-226.5 703,-196.5 561,-196.5"/>
<text text-anchor="start" x="569" y="-214.5" font-family="Helvetica,sans-Serif" font-size="10.00">IG.Num.Func3d2dExamples.</text>
<text text-anchor="middle" x="632" y="-203.5" font-family="Helvetica,sans-Serif" font-size="10.00">SnailShell1Streched</text>
</a>
</g>
</g>
<!-- Node1&#45;&gt;Node21 -->
<g id="edge22" class="edge"><title>Node1&#45;&gt;Node21</title>
<path fill="none" stroke="midnightblue" d="M469.766,-334.743C488.024,-307.201 521.566,-262.184 561,-235.5 566.001,-232.116 571.525,-229.166 577.212,-226.604"/>
<polygon fill="midnightblue" stroke="midnightblue" points="466.68,-333.068 464.173,-343.362 472.552,-336.878 466.68,-333.068"/>
</g>
<!-- Node22 -->
<g id="node22" class="node"><title>Node22</title>
<g id="a_node22"><a xlink:href="../../dc/d0f/classIG_1_1Num_1_1Func3d2dExamples_1_1Surface.html" target="_top" xlink:title="Base class for easy definition of surfaces defined through a function of 2 variables.">
<polygon fill="white" stroke="black" points="561,-147.5 561,-177.5 703,-177.5 703,-147.5 561,-147.5"/>
<text text-anchor="start" x="569" y="-165.5" font-family="Helvetica,sans-Serif" font-size="10.00">IG.Num.Func3d2dExamples.</text>
<text text-anchor="middle" x="632" y="-154.5" font-family="Helvetica,sans-Serif" font-size="10.00">Surface</text>
</a>
</g>
</g>
<!-- Node1&#45;&gt;Node22 -->
<g id="edge23" class="edge"><title>Node1&#45;&gt;Node22</title>
<path fill="none" stroke="midnightblue" d="M463.866,-333.903C478.47,-296.754 511.039,-226.44 561,-186.5 565.315,-183.05 570.155,-180.083 575.223,-177.532"/>
<polygon fill="midnightblue" stroke="midnightblue" points="460.518,-332.858 460.223,-343.449 467.058,-335.354 460.518,-332.858"/>
</g>
<!-- Node26 -->
<g id="node26" class="node"><title>Node26</title>
<g id="a_node26"><a xlink:href="../../de/d95/classIG_1_1Num_1_1Func3d2dExamples_1_1Torus.html" target="_top" xlink:title="Parametric equation of a toroid surface in form of 3D vector function of 2 variables.">
<polygon fill="white" stroke="black" points="561,-98.5 561,-128.5 703,-128.5 703,-98.5 561,-98.5"/>
<text text-anchor="start" x="569" y="-116.5" font-family="Helvetica,sans-Serif" font-size="10.00">IG.Num.Func3d2dExamples.</text>
<text text-anchor="middle" x="632" y="-105.5" font-family="Helvetica,sans-Serif" font-size="10.00">Torus</text>
</a>
</g>
</g>
<!-- Node1&#45;&gt;Node26 -->
<g id="edge27" class="edge"><title>Node1&#45;&gt;Node26</title>
<path fill="none" stroke="midnightblue" d="M460.255,-333.563C471.102,-288.126 500.214,-191.564 561,-137.5 564.84,-134.085 569.189,-131.151 573.794,-128.631"/>
<polygon fill="midnightblue" stroke="midnightblue" points="456.81,-332.929 457.992,-343.457 463.634,-334.49 456.81,-332.929"/>
</g>
<!-- Node27 -->
<g id="node27" class="node"><title>Node27</title>
<g id="a_node27"><a xlink:href="../../de/de3/classIG_1_1Num_1_1Func3d2dExamples_1_1TorusHorizontal.html" target="_top" xlink:title="Parametric equation of a horizontal toroid surface in form of 3D vector function of 2 variables.">
<polygon fill="white" stroke="black" points="561,-49.5 561,-79.5 703,-79.5 703,-49.5 561,-49.5"/>
<text text-anchor="start" x="569" y="-67.5" font-family="Helvetica,sans-Serif" font-size="10.00">IG.Num.Func3d2dExamples.</text>
<text text-anchor="middle" x="632" y="-56.5" font-family="Helvetica,sans-Serif" font-size="10.00">TorusHorizontal</text>
</a>
</g>
</g>
<!-- Node1&#45;&gt;Node27 -->
<g id="edge28" class="edge"><title>Node1&#45;&gt;Node27</title>
<path fill="none" stroke="midnightblue" d="M457.877,-333.008C465.197,-279.992 489.336,-157.091 561,-88.5 564.62,-85.0355 568.761,-82.0697 573.181,-79.5308"/>
<polygon fill="midnightblue" stroke="midnightblue" points="454.368,-332.849 456.559,-343.215 461.311,-333.746 454.368,-332.849"/>
</g>
<!-- Node29 -->
<g id="node29" class="node"><title>Node29</title>
<g id="a_node29"><a xlink:href="../../df/d65/classIG_1_1Num_1_1Func3d2dExamples_1_1UmbilicTorus.html" target="_top" xlink:title="Parametric equation of the umbilic torus surface, a closed single&#45;edged surface in 3D,...">
<polygon fill="white" stroke="black" points="561,-0.5 561,-30.5 703,-30.5 703,-0.5 561,-0.5"/>
<text text-anchor="start" x="569" y="-18.5" font-family="Helvetica,sans-Serif" font-size="10.00">IG.Num.Func3d2dExamples.</text>
<text text-anchor="middle" x="632" y="-7.5" font-family="Helvetica,sans-Serif" font-size="10.00">UmbilicTorus</text>
</a>
</g>
</g>
<!-- Node1&#45;&gt;Node29 -->
<g id="edge30" class="edge"><title>Node1&#45;&gt;Node29</title>
<path fill="none" stroke="midnightblue" d="M456.062,-333.442C459.931,-274.047 477.873,-123.419 561,-39.5 564.436,-36.0316 568.394,-33.0641 572.643,-30.5252"/>
<polygon fill="midnightblue" stroke="midnightblue" points="452.568,-333.25 455.491,-343.433 459.556,-333.649 452.568,-333.25"/>
</g>
<!-- Node2 -->
<g id="node2" class="node"><title>Node2</title>
<g id="a_node2"><a xlink:href="../../d3/dc0/classIG_1_1Num_1_1Func3d2dBaseNoGradient.html" target="_top" xlink:title="Base class for 3D vector functions of 2 variables (implementations of the IFunc3d2d interface) that d...">
<polygon fill="white" stroke="black" points="216,-330 216,-349 347,-349 347,-330 216,-330"/>
<text text-anchor="middle" x="281.5" y="-337" font-family="Helvetica,sans-Serif" font-size="10.00">Func3d2dBaseNoGradient</text>
</a>
</g>
</g>
<!-- Node2&#45;&gt;Node1 -->
<g id="edge1" class="edge"><title>Node2&#45;&gt;Node1</title>
<path fill="none" stroke="midnightblue" d="M357.594,-347.868C365.986,-348.803 374.512,-349.754 382.839,-350.681"/>
<polygon fill="midnightblue" stroke="midnightblue" points="357.771,-344.366 347.445,-346.737 356.996,-351.323 357.771,-344.366"/>
</g>
<!-- Node3 -->
<g id="node3" class="node"><title>Node3</title>
<g id="a_node3"><a xlink:href="../../df/d0e/classIG_1_1Num_1_1Func3d2dBase.html" target="_top" xlink:title="Base class for 3D vector functions of 2 variables (base for implementation of IFunc3d2d interface).">
<polygon fill="white" stroke="black" points="98,-292 98,-311 180,-311 180,-292 98,-292"/>
<text text-anchor="middle" x="139" y="-299" font-family="Helvetica,sans-Serif" font-size="10.00">Func3d2dBase</text>
</a>
</g>
</g>
<!-- Node3&#45;&gt;Node2 -->
<g id="edge2" class="edge"><title>Node3&#45;&gt;Node2</title>
<path fill="none" stroke="midnightblue" d="M185.279,-313.746C204.645,-318.984 226.922,-325.009 245.057,-329.914"/>
<polygon fill="midnightblue" stroke="midnightblue" points="186.021,-310.321 175.454,-311.089 184.193,-317.079 186.021,-310.321"/>
</g>
<!-- Node4 -->
<g id="node4" class="node"><title>Node4</title>
<g id="a_node4"><a xlink:href="../../d3/d6f/interfaceIG_1_1Num_1_1IFunc3d2d.html" target="_top" xlink:title="Represents 3D vector functions of 2 variables.">
<polygon fill="white" stroke="black" points="0,-330 0,-349 62,-349 62,-330 0,-330"/>
<text text-anchor="middle" x="31" y="-337" font-family="Helvetica,sans-Serif" font-size="10.00">IFunc3d2d</text>
</a>
</g>
</g>
<!-- Node4&#45;&gt;Node1 -->
<g id="edge5" class="edge"><title>Node4&#45;&gt;Node1</title>
<path fill="none" stroke="midnightblue" d="M71.8459,-349.069C80.4277,-350.815 89.4804,-352.424 98,-353.5 196.302,-365.921 311.125,-364.714 382.962,-362.097"/>
<polygon fill="midnightblue" stroke="midnightblue" points="72.5584,-345.642 62.0481,-346.978 71.0973,-352.488 72.5584,-345.642"/>
</g>
<!-- Node4&#45;&gt;Node2 -->
<g id="edge4" class="edge"><title>Node4&#45;&gt;Node2</title>
<path fill="none" stroke="midnightblue" d="M72.8519,-339.5C111.652,-339.5 170.607,-339.5 215.798,-339.5"/>
<polygon fill="midnightblue" stroke="midnightblue" points="72.471,-336 62.471,-339.5 72.4709,-343 72.471,-336"/>
</g>
<!-- Node4&#45;&gt;Node3 -->
<g id="edge3" class="edge"><title>Node4&#45;&gt;Node3</title>
<path fill="none" stroke="midnightblue" d="M68.1845,-326.528C82.3066,-321.466 98.2056,-315.766 111.26,-311.086"/>
<polygon fill="midnightblue" stroke="midnightblue" points="66.9805,-323.242 58.7483,-329.911 69.3428,-329.831 66.9805,-323.242"/>
</g>
<!-- Node7 -->
<g id="node7" class="node"><title>Node7</title>
<g id="a_node7"><a xlink:href="../../d9/d8e/classIG_1_1Num_1_1Func3d2dExamples_1_1MobiusStrip.html" target="_top" xlink:title="Defines the Möbius strip (a parametric surface), a surface with only one side and only one boundary c...">
<polygon fill="white" stroke="black" points="764,-686.5 764,-716.5 906,-716.5 906,-686.5 764,-686.5"/>
<text text-anchor="start" x="772" y="-704.5" font-family="Helvetica,sans-Serif" font-size="10.00">IG.Num.Func3d2dExamples.</text>
<text text-anchor="middle" x="835" y="-693.5" font-family="Helvetica,sans-Serif" font-size="10.00">MobiusStrip</text>
</a>
</g>
</g>
<!-- Node6&#45;&gt;Node7 -->
<g id="edge8" class="edge"><title>Node6&#45;&gt;Node7</title>
<path fill="none" stroke="midnightblue" d="M704.391,-669.904C726.626,-675.324 750.942,-681.252 772.444,-686.494"/>
<polygon fill="midnightblue" stroke="midnightblue" points="705.217,-666.503 694.673,-667.535 703.559,-673.304 705.217,-666.503"/>
</g>
<!-- Node8 -->
<g id="node8" class="node"><title>Node8</title>
<g id="a_node8"><a xlink:href="../../d3/dd4/classIG_1_1Num_1_1Func3d2dExamples_1_1SphereParametric.html" target="_top" xlink:title="Parametric equation of an origin&#45;centered sphere.">
<polygon fill="white" stroke="black" points="764,-637.5 764,-667.5 906,-667.5 906,-637.5 764,-637.5"/>
<text text-anchor="start" x="772" y="-655.5" font-family="Helvetica,sans-Serif" font-size="10.00">IG.Num.Func3d2dExamples.</text>
<text text-anchor="middle" x="835" y="-644.5" font-family="Helvetica,sans-Serif" font-size="10.00">SphereParametric</text>
</a>
</g>
</g>
<!-- Node6&#45;&gt;Node8 -->
<g id="edge9" class="edge"><title>Node6&#45;&gt;Node8</title>
<path fill="none" stroke="midnightblue" d="M713.318,-652.5C730.052,-652.5 747.563,-652.5 763.893,-652.5"/>
<polygon fill="midnightblue" stroke="midnightblue" points="713.018,-649 703.018,-652.5 713.018,-656 713.018,-649"/>
</g>
<!-- Node11 -->
<g id="node11" class="node"><title>Node11</title>
<g id="a_node11"><a xlink:href="../../d5/dde/classIG_1_1Num_1_1Func3d2dExamples_1_1HyperboloidParametricMinus.html" target="_top" xlink:title="Alternative parameterization of an origin&#45;centered hyperboloid surface (x^2/a^2+y^2/b^2&#45;z^2/c^2=1) in...">
<polygon fill="white" stroke="black" points="764,-588.5 764,-618.5 906,-618.5 906,-588.5 764,-588.5"/>
<text text-anchor="start" x="772" y="-606.5" font-family="Helvetica,sans-Serif" font-size="10.00">IG.Num.Func3d2dExamples.</text>
<text text-anchor="middle" x="835" y="-595.5" font-family="Helvetica,sans-Serif" font-size="10.00">HyperboloidParametricMinus</text>
</a>
</g>
</g>
<!-- Node10&#45;&gt;Node11 -->
<g id="edge12" class="edge"><title>Node10&#45;&gt;Node11</title>
<path fill="none" stroke="midnightblue" d="M704.391,-571.904C726.626,-577.324 750.942,-583.252 772.444,-588.494"/>
<polygon fill="midnightblue" stroke="midnightblue" points="705.217,-568.503 694.673,-569.535 703.559,-575.304 705.217,-568.503"/>
</g>
<!-- Node12 -->
<g id="node12" class="node"><title>Node12</title>
<g id="a_node12"><a xlink:href="../../dd/d78/classIG_1_1Num_1_1Func3d2dExamples_1_1HyperboloidParametricPlus.html" target="_top" xlink:title="Alternative parameterization of an origin&#45;centered hyperboloid surface (x^2/a^2+y^2/b^2&#45;z^2/c^2=1) in...">
<polygon fill="white" stroke="black" points="764,-539.5 764,-569.5 906,-569.5 906,-539.5 764,-539.5"/>
<text text-anchor="start" x="772" y="-557.5" font-family="Helvetica,sans-Serif" font-size="10.00">IG.Num.Func3d2dExamples.</text>
<text text-anchor="middle" x="835" y="-546.5" font-family="Helvetica,sans-Serif" font-size="10.00">HyperboloidParametricPlus</text>
</a>
</g>
</g>
<!-- Node10&#45;&gt;Node12 -->
<g id="edge13" class="edge"><title>Node10&#45;&gt;Node12</title>
<path fill="none" stroke="midnightblue" d="M713.318,-554.5C730.052,-554.5 747.563,-554.5 763.893,-554.5"/>
<polygon fill="midnightblue" stroke="midnightblue" points="713.018,-551 703.018,-554.5 713.018,-558 713.018,-551"/>
</g>
<!-- Node13 -->
<g id="node13" class="node"><title>Node13</title>
<g id="a_node13"><a xlink:href="../../d8/d4c/classIG_1_1Num_1_1Func3d2dExamples_1_1HyperboloidTwosheetedLowerParametric.html" target="_top" xlink:title="Parametric definition of an origin&#45;centered upper two&#45;sheeted hyperboloid surface (x^2/a^2+y^2/b^2&#45;z^...">
<polygon fill="white" stroke="black" points="739,-490.5 739,-520.5 931,-520.5 931,-490.5 739,-490.5"/>
<text text-anchor="start" x="747" y="-508.5" font-family="Helvetica,sans-Serif" font-size="10.00">IG.Num.Func3d2dExamples.</text>
<text text-anchor="middle" x="835" y="-497.5" font-family="Helvetica,sans-Serif" font-size="10.00">HyperboloidTwosheetedLowerParametric</text>
</a>
</g>
</g>
<!-- Node10&#45;&gt;Node13 -->
<g id="edge14" class="edge"><title>Node10&#45;&gt;Node13</title>
<path fill="none" stroke="midnightblue" d="M704.391,-537.096C726.626,-531.676 750.942,-525.748 772.444,-520.506"/>
<polygon fill="midnightblue" stroke="midnightblue" points="703.559,-533.696 694.673,-539.465 705.217,-540.497 703.559,-533.696"/>
</g>
<!-- Node14 -->
<g id="node14" class="node"><title>Node14</title>
<g id="a_node14"><a xlink:href="../../da/d7a/classIG_1_1Num_1_1Func3d2dExamples_1_1HyperboloidTwosheetedUpperParametric.html" target="_top" xlink:title="Parametric definition of an origin&#45;centered upper two&#45;sheeted hyperboloid surface (x^2/a^2+y^2/b^2&#45;z^...">
<polygon fill="white" stroke="black" points="739,-441.5 739,-471.5 931,-471.5 931,-441.5 739,-441.5"/>
<text text-anchor="start" x="747" y="-459.5" font-family="Helvetica,sans-Serif" font-size="10.00">IG.Num.Func3d2dExamples.</text>
<text text-anchor="middle" x="835" y="-448.5" font-family="Helvetica,sans-Serif" font-size="10.00">HyperboloidTwosheetedUpperParametric</text>
</a>
</g>
</g>
<!-- Node10&#45;&gt;Node14 -->
<g id="edge15" class="edge"><title>Node10&#45;&gt;Node14</title>
<path fill="none" stroke="midnightblue" d="M696.611,-534.733C698.823,-533.407 700.962,-531.998 703,-530.5 724.776,-514.498 716.655,-496.697 739,-481.5 744.641,-477.664 750.838,-474.416 757.281,-471.666"/>
<polygon fill="midnightblue" stroke="midnightblue" points="694.956,-531.649 687.777,-539.441 698.248,-537.826 694.956,-531.649"/>
</g>
<!-- Node23 -->
<g id="node23" class="node"><title>Node23</title>
<g id="a_node23"><a xlink:href="../../d3/d38/classIG_1_1Num_1_1Func3d2dExamples_1_1HyperbolicParaboloid.html" target="_top" xlink:title="Surface that is a graph of the function z/c=x^2/a^2&#45;y^2/b^2.">
<polygon fill="white" stroke="black" points="764,-196.5 764,-226.5 906,-226.5 906,-196.5 764,-196.5"/>
<text text-anchor="start" x="772" y="-214.5" font-family="Helvetica,sans-Serif" font-size="10.00">IG.Num.Func3d2dExamples.</text>
<text text-anchor="middle" x="835" y="-203.5" font-family="Helvetica,sans-Serif" font-size="10.00">HyperbolicParaboloid</text>
</a>
</g>
</g>
<!-- Node22&#45;&gt;Node23 -->
<g id="edge24" class="edge"><title>Node22&#45;&gt;Node23</title>
<path fill="none" stroke="midnightblue" d="M704.391,-179.904C726.626,-185.324 750.942,-191.252 772.444,-196.494"/>
<polygon fill="midnightblue" stroke="midnightblue" points="705.217,-176.503 694.673,-177.535 703.559,-183.304 705.217,-176.503"/>
</g>
<!-- Node24 -->
<g id="node24" class="node"><title>Node24</title>
<g id="a_node24"><a xlink:href="../../df/dc7/classIG_1_1Num_1_1Func3d2dExamples_1_1Paraboloid.html" target="_top" xlink:title="Surface that is a graph of the function z/c=x^2/a^2+y^2/b^2.">
<polygon fill="white" stroke="black" points="764,-147.5 764,-177.5 906,-177.5 906,-147.5 764,-147.5"/>
<text text-anchor="start" x="772" y="-165.5" font-family="Helvetica,sans-Serif" font-size="10.00">IG.Num.Func3d2dExamples.</text>
<text text-anchor="middle" x="835" y="-154.5" font-family="Helvetica,sans-Serif" font-size="10.00">Paraboloid</text>
</a>
</g>
</g>
<!-- Node22&#45;&gt;Node24 -->
<g id="edge25" class="edge"><title>Node22&#45;&gt;Node24</title>
<path fill="none" stroke="midnightblue" d="M713.318,-162.5C730.052,-162.5 747.563,-162.5 763.893,-162.5"/>
<polygon fill="midnightblue" stroke="midnightblue" points="713.018,-159 703.018,-162.5 713.018,-166 713.018,-159"/>
</g>
<!-- Node25 -->
<g id="node25" class="node"><title>Node25</title>
<g id="a_node25"><a xlink:href="../../da/db2/classIG_1_1Num_1_1Func3d2dExamples_1_1SaddleXY.html" target="_top" xlink:title="Parametric surface that is a graph of the function f(x,y)=x*y.">
<polygon fill="white" stroke="black" points="764,-98.5 764,-128.5 906,-128.5 906,-98.5 764,-98.5"/>
<text text-anchor="start" x="772" y="-116.5" font-family="Helvetica,sans-Serif" font-size="10.00">IG.Num.Func3d2dExamples.</text>
<text text-anchor="middle" x="835" y="-105.5" font-family="Helvetica,sans-Serif" font-size="10.00">SaddleXY</text>
</a>
</g>
</g>
<!-- Node22&#45;&gt;Node25 -->
<g id="edge26" class="edge"><title>Node22&#45;&gt;Node25</title>
<path fill="none" stroke="midnightblue" d="M704.391,-145.096C726.626,-139.676 750.942,-133.748 772.444,-128.506"/>
<polygon fill="midnightblue" stroke="midnightblue" points="703.559,-141.696 694.673,-147.465 705.217,-148.497 703.559,-141.696"/>
</g>
<!-- Node28 -->
<g id="node28" class="node"><title>Node28</title>
<g id="a_node28"><a xlink:href="../../dc/db8/classIG_1_1Num_1_1Func3d2dExamples_1_1TorusVertical.html" target="_top" xlink:title="Parametric equation of a horizontal toroid surface in form of 3D vector function of 2 variables.">
<polygon fill="white" stroke="black" points="764,-49.5 764,-79.5 906,-79.5 906,-49.5 764,-49.5"/>
<text text-anchor="start" x="772" y="-67.5" font-family="Helvetica,sans-Serif" font-size="10.00">IG.Num.Func3d2dExamples.</text>
<text text-anchor="middle" x="835" y="-56.5" font-family="Helvetica,sans-Serif" font-size="10.00">TorusVertical</text>
</a>
</g>
</g>
<!-- Node27&#45;&gt;Node28 -->
<g id="edge29" class="edge"><title>Node27&#45;&gt;Node28</title>
<path fill="none" stroke="midnightblue" d="M713.318,-64.5C730.052,-64.5 747.563,-64.5 763.893,-64.5"/>
<polygon fill="midnightblue" stroke="midnightblue" points="713.018,-61.0001 703.018,-64.5 713.018,-68.0001 713.018,-61.0001"/>
</g>
</g>
</svg>
