<?xml version="1.0" encoding="UTF-8" standalone="no"?>
<!DOCTYPE svg PUBLIC "-//W3C//DTD SVG 1.1//EN"
 "http://www.w3.org/Graphics/SVG/1.1/DTD/svg11.dtd">
<!-- Generated by graphviz version 2.38.0 (20140413.2041)
 -->
<!-- Title: IG.Num.ILinearSolver Pages: 1 -->
<svg width="422pt" height="180pt"
 viewBox="0.00 0.00 422.00 180.00" xmlns="http://www.w3.org/2000/svg" xmlns:xlink="http://www.w3.org/1999/xlink">
<g id="graph0" class="graph" transform="scale(1 1) rotate(0) translate(4 176)">
<title>IG.Num.ILinearSolver</title>
<polygon fill="white" stroke="none" points="-4,4 -4,-176 418,-176 418,4 -4,4"/>
<!-- Node1 -->
<g id="node1" class="node"><title>Node1</title>
<g id="a_node1"><a xlink:title="Classes that can be used for solution of linear systems of equations.">
<polygon fill="#bfbfbf" stroke="black" points="94,-76.5 94,-95.5 201,-95.5 201,-76.5 94,-76.5"/>
<text text-anchor="middle" x="147.5" y="-83.5" font-family="Helvetica,sans-Serif" font-size="10.00">IG.Num.ILinearSolver</text>
</a>
</g>
</g>
<!-- Node3 -->
<g id="node3" class="node"><title>Node3</title>
<g id="a_node3"><a xlink:href="../../df/de1/classIG_1_1Num_1_1CholeskyDecomposition.html" target="_top" xlink:title="Cholesky decomposition of a matrix. Available for symmetric positive definite matrices.">
<polygon fill="white" stroke="black" points="246.5,-152.5 246.5,-171.5 404.5,-171.5 404.5,-152.5 246.5,-152.5"/>
<text text-anchor="middle" x="325.5" y="-159.5" font-family="Helvetica,sans-Serif" font-size="10.00">IG.Num.CholeskyDecomposition</text>
</a>
</g>
</g>
<!-- Node1&#45;&gt;Node3 -->
<g id="edge2" class="edge"><title>Node1&#45;&gt;Node3</title>
<path fill="none" stroke="midnightblue" d="M168.472,-101.857C185.688,-114.766 211.698,-132.51 237,-143 246.19,-146.81 256.254,-149.903 266.181,-152.398"/>
<polygon fill="midnightblue" stroke="midnightblue" points="170.388,-98.9155 160.321,-95.6114 166.13,-104.472 170.388,-98.9155"/>
</g>
<!-- Node4 -->
<g id="node4" class="node"><title>Node4</title>
<g id="a_node4"><a xlink:href="../../dd/d87/classIG_1_1Num_1_1EigenValueDecomposition.html" target="_top" xlink:title="Eigenvalue decomposition of a matrix.">
<polygon fill="white" stroke="black" points="242,-114.5 242,-133.5 409,-133.5 409,-114.5 242,-114.5"/>
<text text-anchor="middle" x="325.5" y="-121.5" font-family="Helvetica,sans-Serif" font-size="10.00">IG.Num.EigenValueDecomposition</text>
</a>
</g>
</g>
<!-- Node1&#45;&gt;Node4 -->
<g id="edge3" class="edge"><title>Node1&#45;&gt;Node4</title>
<path fill="none" stroke="midnightblue" d="M202.933,-97.7526C227.819,-103.126 256.919,-109.409 280.407,-114.48"/>
<polygon fill="midnightblue" stroke="midnightblue" points="203.426,-94.2784 192.912,-95.589 201.948,-101.121 203.426,-94.2784"/>
</g>
<!-- Node5 -->
<g id="node5" class="node"><title>Node5</title>
<g id="a_node5"><a xlink:href="../../db/dc0/classIG_1_1Num_1_1LUDecomposition.html" target="_top" xlink:title="LU decomposition of a matrix.">
<polygon fill="white" stroke="black" points="261,-76.5 261,-95.5 390,-95.5 390,-76.5 261,-76.5"/>
<text text-anchor="middle" x="325.5" y="-83.5" font-family="Helvetica,sans-Serif" font-size="10.00">IG.Num.LUDecomposition</text>
</a>
</g>
</g>
<!-- Node1&#45;&gt;Node5 -->
<g id="edge4" class="edge"><title>Node1&#45;&gt;Node5</title>
<path fill="none" stroke="midnightblue" d="M211.625,-86C227.629,-86 244.828,-86 260.857,-86"/>
<polygon fill="midnightblue" stroke="midnightblue" points="211.306,-82.5001 201.306,-86 211.306,-89.5001 211.306,-82.5001"/>
</g>
<!-- Node6 -->
<g id="node6" class="node"><title>Node6</title>
<g id="a_node6"><a xlink:href="../../d3/d52/classIG_1_1Num_1_1QRDecomposition.html" target="_top" xlink:title="QR decomposition of a matrix.">
<polygon fill="white" stroke="black" points="260,-38.5 260,-57.5 391,-57.5 391,-38.5 260,-38.5"/>
<text text-anchor="middle" x="325.5" y="-45.5" font-family="Helvetica,sans-Serif" font-size="10.00">IG.Num.QRDecomposition</text>
</a>
</g>
</g>
<!-- Node1&#45;&gt;Node6 -->
<g id="edge5" class="edge"><title>Node1&#45;&gt;Node6</title>
<path fill="none" stroke="midnightblue" d="M202.933,-74.2474C227.819,-68.8742 256.919,-62.5914 280.407,-57.5201"/>
<polygon fill="midnightblue" stroke="midnightblue" points="201.948,-70.8793 192.912,-76.411 203.426,-77.7216 201.948,-70.8793"/>
</g>
<!-- Node7 -->
<g id="node7" class="node"><title>Node7</title>
<g id="a_node7"><a xlink:href="../../d5/de5/classIG_1_1Num_1_1SingularValueDecomposition.html" target="_top" xlink:title="Singular value decomposition of a matrix.">
<polygon fill="white" stroke="black" points="237,-0.5 237,-19.5 414,-19.5 414,-0.5 237,-0.5"/>
<text text-anchor="middle" x="325.5" y="-7.5" font-family="Helvetica,sans-Serif" font-size="10.00">IG.Num.SingularValueDecomposition</text>
</a>
</g>
</g>
<!-- Node1&#45;&gt;Node7 -->
<g id="edge6" class="edge"><title>Node1&#45;&gt;Node7</title>
<path fill="none" stroke="midnightblue" d="M168.472,-70.1428C185.688,-57.2339 211.698,-39.4897 237,-29 246.19,-25.1899 256.254,-22.0974 266.181,-19.6017"/>
<polygon fill="midnightblue" stroke="midnightblue" points="166.13,-67.5282 160.321,-76.3886 170.388,-73.0845 166.13,-67.5282"/>
</g>
<!-- Node2 -->
<g id="node2" class="node"><title>Node2</title>
<g id="a_node2"><a xlink:href="../../d3/db6/interfaceIG_1_1Lib_1_1ILockable.html" target="_top" xlink:title="Lockable object, has a Lock property that returns object on which lock must be performed in order to ...">
<polygon fill="white" stroke="black" points="0,-76.5 0,-95.5 58,-95.5 58,-76.5 0,-76.5"/>
<text text-anchor="middle" x="29" y="-83.5" font-family="Helvetica,sans-Serif" font-size="10.00">ILockable</text>
</a>
</g>
</g>
<!-- Node2&#45;&gt;Node1 -->
<g id="edge1" class="edge"><title>Node2&#45;&gt;Node1</title>
<path fill="none" stroke="midnightblue" d="M68.2385,-86C76.4645,-86 85.2966,-86 93.9588,-86"/>
<polygon fill="midnightblue" stroke="midnightblue" points="68.2014,-82.5001 58.2014,-86 68.2014,-89.5001 68.2014,-82.5001"/>
</g>
</g>
</svg>
