<?xml version="1.0" encoding="UTF-8" standalone="no"?>
<!DOCTYPE svg PUBLIC "-//W3C//DTD SVG 1.1//EN"
 "http://www.w3.org/Graphics/SVG/1.1/DTD/svg11.dtd">
<!-- Generated by graphviz version 2.38.0 (20140413.2041)
 -->
<!-- Title: IG.Num.InputOutputElementDefinition Pages: 1 -->
<svg width="334pt" height="95pt"
 viewBox="0.00 0.00 333.50 95.00" xmlns="http://www.w3.org/2000/svg" xmlns:xlink="http://www.w3.org/1999/xlink">
<g id="graph0" class="graph" transform="scale(1 1) rotate(0) translate(4 91)">
<title>IG.Num.InputOutputElementDefinition</title>
<polygon fill="white" stroke="none" points="-4,4 -4,-91 329.5,-91 329.5,4 -4,4"/>
<!-- Node1 -->
<g id="node1" class="node"><title>Node1</title>
<g id="a_node1"><a xlink:title="Base class for input or output data element definition for vector functions, approximations,...">
<polygon fill="#bfbfbf" stroke="black" points="91,-56.5 91,-86.5 230,-86.5 230,-56.5 91,-56.5"/>
<text text-anchor="start" x="99" y="-74.5" font-family="Helvetica,sans-Serif" font-size="10.00">IG.Num.InputOutputElement</text>
<text text-anchor="middle" x="160.5" y="-63.5" font-family="Helvetica,sans-Serif" font-size="10.00">Definition</text>
</a>
</g>
</g>
<!-- Node2 -->
<g id="node2" class="node"><title>Node2</title>
<g id="a_node2"><a xlink:href="../../d6/d7a/classIG_1_1Num_1_1InputElementDefinition.html" target="_top" xlink:title="Input data element definition for vector functions, approximations, etc.">
<polygon fill="white" stroke="black" points="0,-0.5 0,-19.5 149,-19.5 149,-0.5 0,-0.5"/>
<text text-anchor="middle" x="74.5" y="-7.5" font-family="Helvetica,sans-Serif" font-size="10.00">IG.Num.InputElementDefinition</text>
</a>
</g>
</g>
<!-- Node1&#45;&gt;Node2 -->
<g id="edge1" class="edge"><title>Node1&#45;&gt;Node2</title>
<path fill="none" stroke="midnightblue" d="M131.568,-50.483C116.418,-40.0013 98.6496,-27.7081 87.0138,-19.6578"/>
<polygon fill="midnightblue" stroke="midnightblue" points="129.904,-53.588 140.119,-56.3993 133.887,-47.8314 129.904,-53.588"/>
</g>
<!-- Node3 -->
<g id="node3" class="node"><title>Node3</title>
<g id="a_node3"><a xlink:href="../../d2/de1/classIG_1_1Num_1_1OutputElementDefinition.html" target="_top" xlink:title="Input data element definition for vector functions, approximations, etc.">
<polygon fill="white" stroke="black" points="167.5,-0.5 167.5,-19.5 325.5,-19.5 325.5,-0.5 167.5,-0.5"/>
<text text-anchor="middle" x="246.5" y="-7.5" font-family="Helvetica,sans-Serif" font-size="10.00">IG.Num.OutputElementDefinition</text>
</a>
</g>
</g>
<!-- Node1&#45;&gt;Node3 -->
<g id="edge2" class="edge"><title>Node1&#45;&gt;Node3</title>
<path fill="none" stroke="midnightblue" d="M189.432,-50.483C204.582,-40.0013 222.35,-27.7081 233.986,-19.6578"/>
<polygon fill="midnightblue" stroke="midnightblue" points="187.113,-47.8314 180.881,-56.3993 191.096,-53.588 187.113,-47.8314"/>
</g>
</g>
</svg>
