<?xml version="1.0" encoding="UTF-8" standalone="no"?>
<!DOCTYPE svg PUBLIC "-//W3C//DTD SVG 1.1//EN"
 "http://www.w3.org/Graphics/SVG/1.1/DTD/svg11.dtd">
<!-- Generated by graphviz version 2.38.0 (20140413.2041)
 -->
<!-- Title: IG.Num.IGridGenerator1d Pages: 1 -->
<svg width="308pt" height="196pt"
 viewBox="0.00 0.00 308.00 196.00" xmlns="http://www.w3.org/2000/svg" xmlns:xlink="http://www.w3.org/1999/xlink">
<g id="graph0" class="graph" transform="scale(1 1) rotate(0) translate(4 192)">
<title>IG.Num.IGridGenerator1d</title>
<polygon fill="white" stroke="none" points="-4,4 -4,-192 304,-192 304,4 -4,4"/>
<!-- Node1 -->
<g id="node1" class="node"><title>Node1</title>
<g id="a_node1"><a xlink:title="Interface for 1d grid generators.">
<polygon fill="#bfbfbf" stroke="black" points="76,-112.5 76,-131.5 202,-131.5 202,-112.5 76,-112.5"/>
<text text-anchor="middle" x="139" y="-119.5" font-family="Helvetica,sans-Serif" font-size="10.00">IG.Num.IGridGenerator1d</text>
</a>
</g>
</g>
<!-- Node3 -->
<g id="node3" class="node"><title>Node3</title>
<g id="a_node3"><a xlink:href="../../d1/ddc/classIG_1_1Num_1_1GridGenerator1d.html" target="_top" xlink:title="Generates 1D grids with equidistant or geometrically grown intervals.">
<polygon fill="white" stroke="black" points="0,-0.5 0,-19.5 124,-19.5 124,-0.5 0,-0.5"/>
<text text-anchor="middle" x="62" y="-7.5" font-family="Helvetica,sans-Serif" font-size="10.00">IG.Num.GridGenerator1d</text>
</a>
</g>
</g>
<!-- Node1&#45;&gt;Node3 -->
<g id="edge2" class="edge"><title>Node1&#45;&gt;Node3</title>
<path fill="none" stroke="midnightblue" d="M97.6346,-108.496C82.0669,-101.552 65.9733,-91.1601 57,-76 46.5077,-58.2736 53.4613,-32.8988 58.3581,-19.7102"/>
<polygon fill="midnightblue" stroke="midnightblue" points="96.6097,-111.857 107.191,-112.385 99.2483,-105.373 96.6097,-111.857"/>
</g>
<!-- Node4 -->
<g id="node4" class="node"><title>Node4</title>
<g id="a_node4"><a xlink:href="../../d5/de2/classIG_1_1Num_1_1GridGenerator1dBase.html" target="_top" xlink:title="Base class for 1D grid generators.">
<polygon fill="white" stroke="black" points="66,-56.5 66,-75.5 212,-75.5 212,-56.5 66,-56.5"/>
<text text-anchor="middle" x="139" y="-63.5" font-family="Helvetica,sans-Serif" font-size="10.00">IG.Num.GridGenerator1dBase</text>
</a>
</g>
</g>
<!-- Node1&#45;&gt;Node4 -->
<g id="edge3" class="edge"><title>Node1&#45;&gt;Node4</title>
<path fill="none" stroke="midnightblue" d="M139,-101.805C139,-92.9102 139,-82.7798 139,-75.7511"/>
<polygon fill="midnightblue" stroke="midnightblue" points="135.5,-102.083 139,-112.083 142.5,-102.083 135.5,-102.083"/>
</g>
<!-- Node5 -->
<g id="node5" class="node"><title>Node5</title>
<g id="a_node5"><a xlink:href="../../d8/d06/classIG_1_1Num_1_1GridGenerator1dFunc.html" target="_top" xlink:title="Generates 1D grids with equidistant or geometrically grown intervals.">
<polygon fill="white" stroke="black" points="154,-0.5 154,-19.5 300,-19.5 300,-0.5 154,-0.5"/>
<text text-anchor="middle" x="227" y="-7.5" font-family="Helvetica,sans-Serif" font-size="10.00">IG.Num.GridGenerator1dFunc</text>
</a>
</g>
</g>
<!-- Node1&#45;&gt;Node5 -->
<g id="edge6" class="edge"><title>Node1&#45;&gt;Node5</title>
<path fill="none" stroke="midnightblue" d="M178.619,-108.545C194.395,-101.529 211.117,-91.0685 221,-76 232.311,-58.7528 230.572,-33.1759 228.621,-19.8303"/>
<polygon fill="midnightblue" stroke="midnightblue" points="176.923,-105.457 168.989,-112.478 179.57,-111.937 176.923,-105.457"/>
</g>
<!-- Node2 -->
<g id="node2" class="node"><title>Node2</title>
<g id="a_node2"><a xlink:href="../../d3/db6/interfaceIG_1_1Lib_1_1ILockable.html" target="_top" xlink:title="Lockable object, has a Lock property that returns object on which lock must be performed in order to ...">
<polygon fill="white" stroke="black" points="110,-168.5 110,-187.5 168,-187.5 168,-168.5 110,-168.5"/>
<text text-anchor="middle" x="139" y="-175.5" font-family="Helvetica,sans-Serif" font-size="10.00">ILockable</text>
</a>
</g>
</g>
<!-- Node2&#45;&gt;Node1 -->
<g id="edge1" class="edge"><title>Node2&#45;&gt;Node1</title>
<path fill="none" stroke="midnightblue" d="M139,-157.805C139,-148.91 139,-138.78 139,-131.751"/>
<polygon fill="midnightblue" stroke="midnightblue" points="135.5,-158.083 139,-168.083 142.5,-158.083 135.5,-158.083"/>
</g>
<!-- Node4&#45;&gt;Node3 -->
<g id="edge4" class="edge"><title>Node4&#45;&gt;Node3</title>
<path fill="none" stroke="midnightblue" d="M118.099,-50.3422C104.089,-40.5169 86.117,-27.9132 74.3407,-19.6545"/>
<polygon fill="midnightblue" stroke="midnightblue" points="116.432,-53.4477 126.629,-56.324 120.451,-47.7166 116.432,-53.4477"/>
</g>
<!-- Node4&#45;&gt;Node5 -->
<g id="edge5" class="edge"><title>Node4&#45;&gt;Node5</title>
<path fill="none" stroke="midnightblue" d="M161.977,-50.9005C178.113,-40.9986 199.181,-28.0705 212.896,-19.6545"/>
<polygon fill="midnightblue" stroke="midnightblue" points="159.831,-48.1106 153.139,-56.324 163.493,-54.0769 159.831,-48.1106"/>
</g>
</g>
</svg>
