<?xml version="1.0" encoding="UTF-8" standalone="no"?>
<!DOCTYPE svg PUBLIC "-//W3C//DTD SVG 1.1//EN"
 "http://www.w3.org/Graphics/SVG/1.1/DTD/svg11.dtd">
<!-- Generated by graphviz version 2.38.0 (20140413.2041)
 -->
<!-- Title: IG.Num.ScalarFunctionTransformed Pages: 1 -->
<svg width="919pt" height="193pt"
 viewBox="0.00 0.00 919.00 193.00" xmlns="http://www.w3.org/2000/svg" xmlns:xlink="http://www.w3.org/1999/xlink">
<g id="graph0" class="graph" transform="scale(1 1) rotate(0) translate(4 189)">
<title>IG.Num.ScalarFunctionTransformed</title>
<polygon fill="white" stroke="none" points="-4,4 -4,-189 915,-189 915,4 -4,4"/>
<!-- Node1 -->
<g id="node1" class="node"><title>Node1</title>
<g id="a_node1"><a xlink:title="Scalar function that is defined as some reference function evaluated at inverse affine&#45;trasformed par...">
<polygon fill="#bfbfbf" stroke="black" points="740,-90.5 740,-109.5 911,-109.5 911,-90.5 740,-90.5"/>
<text text-anchor="middle" x="825.5" y="-97.5" font-family="Helvetica,sans-Serif" font-size="10.00">IG.Num.ScalarFunctionTransformed</text>
</a>
</g>
</g>
<!-- Node2 -->
<g id="node2" class="node"><title>Node2</title>
<g id="a_node2"><a xlink:href="../../d2/d85/classIG_1_1Num_1_1ScalarFunctionBase.html" target="_top" xlink:title="Base class for scalar functions with affine transformation of co&#45;ordinates. The reference function is...">
<polygon fill="white" stroke="black" points="474.5,-90.5 474.5,-109.5 578.5,-109.5 578.5,-90.5 474.5,-90.5"/>
<text text-anchor="middle" x="526.5" y="-97.5" font-family="Helvetica,sans-Serif" font-size="10.00">ScalarFunctionBase</text>
</a>
</g>
</g>
<!-- Node2&#45;&gt;Node1 -->
<g id="edge1" class="edge"><title>Node2&#45;&gt;Node1</title>
<path fill="none" stroke="midnightblue" d="M588.744,-100C632.413,-100 691.683,-100 739.868,-100"/>
<polygon fill="midnightblue" stroke="midnightblue" points="588.556,-96.5001 578.556,-100 588.556,-103.5 588.556,-96.5001"/>
</g>
<!-- Node3 -->
<g id="node3" class="node"><title>Node3</title>
<g id="a_node3"><a xlink:href="../../d2/d9e/classIG_1_1Num_1_1ScalarFunctionUntransformedBase.html" target="_top" xlink:title="Base class for defining scalar functions without possibility of affine transformation of parameters.">
<polygon fill="white" stroke="black" points="184,-165.5 184,-184.5 351,-184.5 351,-165.5 184,-165.5"/>
<text text-anchor="middle" x="267.5" y="-172.5" font-family="Helvetica,sans-Serif" font-size="10.00">ScalarFunctionUntransformedBase</text>
</a>
</g>
</g>
<!-- Node3&#45;&gt;Node2 -->
<g id="edge2" class="edge"><title>Node3&#45;&gt;Node2</title>
<path fill="none" stroke="midnightblue" d="M323.178,-163.09C332.495,-160.866 342.05,-158.462 351,-156 403.612,-141.527 464.047,-121.313 498.211,-109.546"/>
<polygon fill="midnightblue" stroke="midnightblue" points="322.139,-159.738 313.201,-165.427 323.736,-166.554 322.139,-159.738"/>
</g>
<!-- Node4 -->
<g id="node4" class="node"><title>Node4</title>
<g id="a_node4"><a xlink:href="../../d8/d56/interfaceIG_1_1Num_1_1IScalarFunctionUntransformed.html" target="_top" xlink:title="Scalar functions of vector arguments.">
<polygon fill="white" stroke="black" points="0,-147.5 0,-166.5 147,-166.5 147,-147.5 0,-147.5"/>
<text text-anchor="middle" x="73.5" y="-154.5" font-family="Helvetica,sans-Serif" font-size="10.00">IScalarFunctionUntransformed</text>
</a>
</g>
</g>
<!-- Node4&#45;&gt;Node3 -->
<g id="edge3" class="edge"><title>Node4&#45;&gt;Node3</title>
<path fill="none" stroke="midnightblue" d="M157.317,-164.764C166.106,-165.588 175.045,-166.426 183.832,-167.25"/>
<polygon fill="midnightblue" stroke="midnightblue" points="157.37,-161.254 147.087,-163.805 156.717,-168.223 157.37,-161.254"/>
</g>
<!-- Node5 -->
<g id="node5" class="node"><title>Node5</title>
<g id="a_node5"><a xlink:href="../../dd/d1e/interfaceIG_1_1Num_1_1IScalarFunction.html" target="_top" xlink:title="Scalar functions of vector arguments, with eventual affine transformation of parameters....">
<polygon fill="white" stroke="black" points="225.5,-127.5 225.5,-146.5 309.5,-146.5 309.5,-127.5 225.5,-127.5"/>
<text text-anchor="middle" x="267.5" y="-134.5" font-family="Helvetica,sans-Serif" font-size="10.00">IScalarFunction</text>
</a>
</g>
</g>
<!-- Node4&#45;&gt;Node5 -->
<g id="edge5" class="edge"><title>Node4&#45;&gt;Node5</title>
<path fill="none" stroke="midnightblue" d="M157.104,-148.395C180.674,-145.94 205.343,-143.371 225.276,-141.294"/>
<polygon fill="midnightblue" stroke="midnightblue" points="156.67,-144.922 147.087,-149.439 157.396,-151.884 156.67,-144.922"/>
</g>
<!-- Node5&#45;&gt;Node1 -->
<g id="edge9" class="edge"><title>Node5&#45;&gt;Node1</title>
<path fill="none" stroke="midnightblue" d="M319.595,-135.854C403.674,-133.643 576.4,-127.738 722,-114 734.606,-112.811 748.043,-111.214 760.896,-109.526"/>
<polygon fill="midnightblue" stroke="midnightblue" points="319.453,-132.356 309.546,-136.111 319.632,-139.354 319.453,-132.356"/>
</g>
<!-- Node5&#45;&gt;Node2 -->
<g id="edge4" class="edge"><title>Node5&#45;&gt;Node2</title>
<path fill="none" stroke="midnightblue" d="M319.619,-129.64C364.541,-123.173 429.566,-113.811 474.463,-107.348"/>
<polygon fill="midnightblue" stroke="midnightblue" points="318.906,-126.207 309.507,-131.096 319.903,-133.136 318.906,-126.207"/>
</g>
<!-- Node6 -->
<g id="node6" class="node"><title>Node6</title>
<g id="a_node6"><a xlink:href="../../d8/d86/interfaceIG_1_1Num_1_1IMatrix.html" target="_top" xlink:title="Generic Matrix interface.">
<polygon fill="white" stroke="black" points="197.5,-78 197.5,-108 337.5,-108 337.5,-78 197.5,-78"/>
<text text-anchor="start" x="205.5" y="-96" font-family="Helvetica,sans-Serif" font-size="10.00">IG.Num.IMatrix&lt; Component</text>
<text text-anchor="middle" x="267.5" y="-85" font-family="Helvetica,sans-Serif" font-size="10.00">Type &gt;</text>
</a>
</g>
</g>
<!-- Node6&#45;&gt;Node2 -->
<g id="edge6" class="edge"><title>Node6&#45;&gt;Node2</title>
<path fill="none" stroke="#9a32cd" stroke-dasharray="5,2" d="M347.776,-92.8227C370.163,-92.9657 394.541,-93.3038 417,-94 435.762,-94.5816 456.33,-95.6175 474.466,-96.6667"/>
<polygon fill="#9a32cd" stroke="#9a32cd" points="347.662,-89.3221 337.644,-92.77 347.625,-96.322 347.662,-89.3221"/>
<text text-anchor="middle" x="393" y="-97" font-family="Helvetica,sans-Serif" font-size="10.00"> _refHess</text>
</g>
<!-- Node7 -->
<g id="node7" class="node"><title>Node7</title>
<g id="a_node7"><a xlink:href="../../d3/d24/interfaceIG_1_1Num_1_1IVector.html" target="_top" xlink:title="Generic Vector interface">
<polygon fill="white" stroke="black" points="214,-38.5 214,-57.5 321,-57.5 321,-38.5 214,-38.5"/>
<text text-anchor="middle" x="267.5" y="-45.5" font-family="Helvetica,sans-Serif" font-size="10.00">IG.Num.IVector&lt; T &gt;</text>
</a>
</g>
</g>
<!-- Node7&#45;&gt;Node2 -->
<g id="edge7" class="edge"><title>Node7&#45;&gt;Node2</title>
<path fill="none" stroke="#9a32cd" stroke-dasharray="5,2" d="M331.436,-49.6618C358.54,-52.0902 390.112,-57.2707 417,-68 426.165,-71.6574 425.974,-77.0103 435,-81 447.187,-86.3873 460.985,-90.2785 474.068,-93.0775"/>
<polygon fill="#9a32cd" stroke="#9a32cd" points="331.531,-46.1585 321.286,-48.86 330.979,-53.1367 331.531,-46.1585"/>
<text text-anchor="middle" x="393" y="-82" font-family="Helvetica,sans-Serif" font-size="10.00"> _refParam</text>
<text text-anchor="middle" x="393" y="-71" font-family="Helvetica,sans-Serif" font-size="10.00">_refGrad</text>
</g>
<!-- Node8 -->
<g id="node8" class="node"><title>Node8</title>
<g id="a_node8"><a xlink:href="../../d5/d50/interfaceIG_1_1Num_1_1IAffineTransformation.html" target="_top" xlink:title="Affine Transformation.">
<polygon fill="white" stroke="black" points="196,-0.5 196,-19.5 339,-19.5 339,-0.5 196,-0.5"/>
<text text-anchor="middle" x="267.5" y="-7.5" font-family="Helvetica,sans-Serif" font-size="10.00">IG.Num.IAffineTransformation</text>
</a>
</g>
</g>
<!-- Node8&#45;&gt;Node2 -->
<g id="edge8" class="edge"><title>Node8&#45;&gt;Node2</title>
<path fill="none" stroke="#9a32cd" stroke-dasharray="5,2" d="M349.471,-12.3671C373.28,-16.5412 398.004,-24.6942 417,-40 432.497,-52.4861 419.551,-68.4551 435,-81 446.092,-90.0069 460.41,-95.0476 474.37,-97.7913"/>
<polygon fill="#9a32cd" stroke="#9a32cd" points="349.759,-8.87031 339.343,-10.8126 348.697,-15.7893 349.759,-8.87031"/>
<text text-anchor="middle" x="393" y="-43" font-family="Helvetica,sans-Serif" font-size="10.00"> _transf</text>
</g>
<!-- Node9 -->
<g id="node9" class="node"><title>Node9</title>
<g id="a_node9"><a xlink:href="../../d8/d56/interfaceIG_1_1Num_1_1IScalarFunctionUntransformed.html" target="_top" xlink:title="Scalar functions of vector arguments.">
<polygon fill="white" stroke="black" points="435,-52.5 435,-71.5 618,-71.5 618,-52.5 435,-52.5"/>
<text text-anchor="middle" x="526.5" y="-59.5" font-family="Helvetica,sans-Serif" font-size="10.00">IG.Num.IScalarFunctionUntransformed</text>
</a>
</g>
</g>
<!-- Node9&#45;&gt;Node1 -->
<g id="edge10" class="edge"><title>Node9&#45;&gt;Node1</title>
<path fill="none" stroke="#9a32cd" stroke-dasharray="5,2" d="M622.438,-72.695C654.124,-76.4062 689.606,-80.7152 722,-85 734.748,-86.6862 748.371,-88.6006 761.385,-90.4842"/>
<polygon fill="#9a32cd" stroke="#9a32cd" points="622.63,-69.1939 612.292,-71.5119 621.819,-76.1467 622.63,-69.1939"/>
<text text-anchor="middle" x="679" y="-88" font-family="Helvetica,sans-Serif" font-size="10.00"> _referenceFunction</text>
</g>
</g>
</svg>
