<?xml version="1.0" encoding="UTF-8" standalone="no"?>
<!DOCTYPE svg PUBLIC "-//W3C//DTD SVG 1.1//EN"
 "http://www.w3.org/Graphics/SVG/1.1/DTD/svg11.dtd">
<!-- Generated by graphviz version 2.38.0 (20140413.2041)
 -->
<!-- Title: IG.Lib.WaitDirectoryCreationByProxy Pages: 1 -->
<svg width="249pt" height="330pt"
 viewBox="0.00 0.00 249.47 330.00" xmlns="http://www.w3.org/2000/svg" xmlns:xlink="http://www.w3.org/1999/xlink">
<g id="graph0" class="graph" transform="scale(1 1) rotate(0) translate(4 326)">
<title>IG.Lib.WaitDirectoryCreationByProxy</title>
<polygon fill="white" stroke="none" points="-4,4 -4,-326 245.466,-326 245.466,4 -4,4"/>
<!-- Node1 -->
<g id="node1" class="node"><title>Node1</title>
<g id="a_node1"><a xlink:title="Implements blocking until the specified directory is created (becomes existent). Directory is specifi...">
<polygon fill="#bfbfbf" stroke="black" points="23.966,-0.5 23.966,-30.5 163.966,-30.5 163.966,-0.5 23.966,-0.5"/>
<text text-anchor="start" x="31.966" y="-18.5" font-family="Helvetica,sans-Serif" font-size="10.00">IG.Lib.WaitDirectoryCreation</text>
<text text-anchor="middle" x="93.966" y="-7.5" font-family="Helvetica,sans-Serif" font-size="10.00">ByProxy</text>
</a>
</g>
</g>
<!-- Node2 -->
<g id="node2" class="node"><title>Node2</title>
<g id="a_node2"><a xlink:href="../../dd/d05/classIG_1_1Lib_1_1WaitFileEventBaseByProxy.html" target="_top" xlink:title="Base class for classes that provide blocking until a file or directory is created/removed....">
<polygon fill="white" stroke="black" points="25.466,-67.5 25.466,-86.5 162.466,-86.5 162.466,-67.5 25.466,-67.5"/>
<text text-anchor="middle" x="93.966" y="-74.5" font-family="Helvetica,sans-Serif" font-size="10.00">WaitFileEventBaseByProxy</text>
</a>
</g>
</g>
<!-- Node2&#45;&gt;Node1 -->
<g id="edge1" class="edge"><title>Node2&#45;&gt;Node1</title>
<path fill="none" stroke="midnightblue" d="M93.966,-57.2349C93.966,-48.5864 93.966,-38.4969 93.966,-30.523"/>
<polygon fill="midnightblue" stroke="midnightblue" points="90.4661,-57.4751 93.966,-67.4751 97.4661,-57.4751 90.4661,-57.4751"/>
</g>
<!-- Node3 -->
<g id="node3" class="node"><title>Node3</title>
<g id="a_node3"><a xlink:href="../../df/d44/classIG_1_1Lib_1_1WaitFileEventBaseByProxyLatence.html" target="_top" xlink:title="Base class for classes that provide blocking until a file or directory is created/removed....">
<polygon fill="white" stroke="black" points="25.466,-123.5 25.466,-153.5 162.466,-153.5 162.466,-123.5 25.466,-123.5"/>
<text text-anchor="start" x="33.466" y="-141.5" font-family="Helvetica,sans-Serif" font-size="10.00">WaitFileEventBaseByProxy</text>
<text text-anchor="middle" x="93.966" y="-130.5" font-family="Helvetica,sans-Serif" font-size="10.00">Latence</text>
</a>
</g>
</g>
<!-- Node3&#45;&gt;Node2 -->
<g id="edge2" class="edge"><title>Node3&#45;&gt;Node2</title>
<path fill="none" stroke="midnightblue" d="M93.966,-113.289C93.966,-103.857 93.966,-93.6548 93.966,-86.6578"/>
<polygon fill="midnightblue" stroke="midnightblue" points="90.4661,-113.399 93.966,-123.399 97.4661,-113.399 90.4661,-113.399"/>
</g>
<!-- Node4 -->
<g id="node4" class="node"><title>Node4</title>
<g id="a_node4"><a xlink:href="../../df/dea/classIG_1_1Lib_1_1WaitConditionBase.html" target="_top" xlink:title="Base class for objects that perform waiting until a condition is fulfilled.">
<polygon fill="white" stroke="black" points="43.966,-190.5 43.966,-209.5 143.966,-209.5 143.966,-190.5 43.966,-190.5"/>
<text text-anchor="middle" x="93.966" y="-197.5" font-family="Helvetica,sans-Serif" font-size="10.00">WaitConditionBase</text>
</a>
</g>
</g>
<!-- Node4&#45;&gt;Node3 -->
<g id="edge3" class="edge"><title>Node4&#45;&gt;Node3</title>
<path fill="none" stroke="midnightblue" d="M93.966,-180.235C93.966,-171.586 93.966,-161.497 93.966,-153.523"/>
<polygon fill="midnightblue" stroke="midnightblue" points="90.4661,-180.475 93.966,-190.475 97.4661,-180.475 90.4661,-180.475"/>
</g>
<!-- Node5 -->
<g id="node5" class="node"><title>Node5</title>
<g id="a_node5"><a xlink:href="../../de/d1e/interfaceIG_1_1Lib_1_1IWaitCondition.html" target="_top" xlink:title="Interface for classes that implement blocking until a specified condition is met.">
<polygon fill="white" stroke="black" points="84.966,-246.5 84.966,-265.5 164.966,-265.5 164.966,-246.5 84.966,-246.5"/>
<text text-anchor="middle" x="124.966" y="-253.5" font-family="Helvetica,sans-Serif" font-size="10.00">IWaitCondition</text>
</a>
</g>
</g>
<!-- Node5&#45;&gt;Node4 -->
<g id="edge4" class="edge"><title>Node5&#45;&gt;Node4</title>
<path fill="none" stroke="midnightblue" d="M114.79,-237.275C109.492,-228.045 103.249,-217.17 98.9897,-209.751"/>
<polygon fill="midnightblue" stroke="midnightblue" points="111.833,-239.153 119.847,-246.083 117.904,-235.668 111.833,-239.153"/>
</g>
<!-- Node7 -->
<g id="node7" class="node"><title>Node7</title>
<g id="a_node7"><a xlink:href="../../d2/d48/interfaceIG_1_1Lib_1_1IWaitFileEvent.html" target="_top" xlink:title="Interface for classes that provide waiting for specific file events (such as ceration or deletion of ...">
<polygon fill="white" stroke="black" points="162.466,-190.5 162.466,-209.5 241.466,-209.5 241.466,-190.5 162.466,-190.5"/>
<text text-anchor="middle" x="201.966" y="-197.5" font-family="Helvetica,sans-Serif" font-size="10.00">IWaitFileEvent</text>
</a>
</g>
</g>
<!-- Node5&#45;&gt;Node7 -->
<g id="edge8" class="edge"><title>Node5&#45;&gt;Node7</title>
<path fill="none" stroke="midnightblue" d="M145.867,-240.342C159.877,-230.517 177.849,-217.913 189.625,-209.655"/>
<polygon fill="midnightblue" stroke="midnightblue" points="143.515,-237.717 137.337,-246.324 147.534,-243.448 143.515,-237.717"/>
</g>
<!-- Node6 -->
<g id="node6" class="node"><title>Node6</title>
<g id="a_node6"><a xlink:href="../../d3/db6/interfaceIG_1_1Lib_1_1ILockable.html" target="_top" xlink:title="Lockable object, has a Lock property that returns object on which lock must be performed in order to ...">
<polygon fill="white" stroke="black" points="27.966,-302.5 27.966,-321.5 85.966,-321.5 85.966,-302.5 27.966,-302.5"/>
<text text-anchor="middle" x="56.966" y="-309.5" font-family="Helvetica,sans-Serif" font-size="10.00">ILockable</text>
</a>
</g>
</g>
<!-- Node6&#45;&gt;Node2 -->
<g id="edge12" class="edge"><title>Node6&#45;&gt;Node2</title>
<path fill="none" stroke="midnightblue" d="M43.4743,-294.213C37.7181,-286.147 31.5201,-276.06 27.966,-266 6.7207,-205.864 -15.9324,-178.229 15.966,-123 26.4434,-104.859 47.3233,-93.3801 64.8448,-86.5592"/>
<polygon fill="midnightblue" stroke="midnightblue" points="40.8015,-296.482 49.6208,-302.353 46.3877,-292.263 40.8015,-296.482"/>
</g>
<!-- Node6&#45;&gt;Node3 -->
<g id="edge10" class="edge"><title>Node6&#45;&gt;Node3</title>
<path fill="none" stroke="midnightblue" d="M47.4092,-293.247C35.6824,-268.904 19.1847,-224.28 34.966,-190 42.0137,-174.691 56.2456,-162.292 68.9655,-153.611"/>
<polygon fill="midnightblue" stroke="midnightblue" points="44.384,-295.02 52.0348,-302.349 50.6244,-291.849 44.384,-295.02"/>
</g>
<!-- Node6&#45;&gt;Node4 -->
<g id="edge6" class="edge"><title>Node6&#45;&gt;Node4</title>
<path fill="none" stroke="midnightblue" d="M61.8975,-292.377C65.4848,-279.299 70.6302,-261.454 75.966,-246 80.4146,-233.115 86.441,-218.517 90.2669,-209.534"/>
<polygon fill="midnightblue" stroke="midnightblue" points="58.5043,-291.517 59.2806,-302.084 65.263,-293.339 58.5043,-291.517"/>
</g>
<!-- Node6&#45;&gt;Node5 -->
<g id="edge5" class="edge"><title>Node6&#45;&gt;Node5</title>
<path fill="none" stroke="midnightblue" d="M75.728,-296.101C87.9659,-286.382 103.525,-274.027 113.842,-265.834"/>
<polygon fill="midnightblue" stroke="midnightblue" points="73.5459,-293.364 67.8913,-302.324 77.8991,-298.846 73.5459,-293.364"/>
</g>
<!-- Node6&#45;&gt;Node7 -->
<g id="edge9" class="edge"><title>Node6&#45;&gt;Node7</title>
<path fill="none" stroke="midnightblue" d="M96.038,-304.098C121.038,-297.894 152.66,-286.479 173.966,-266 190.266,-250.333 197.599,-223.608 200.435,-209.815"/>
<polygon fill="midnightblue" stroke="midnightblue" points="95.0883,-300.725 86.1262,-306.376 96.6561,-307.547 95.0883,-300.725"/>
</g>
<!-- Node7&#45;&gt;Node2 -->
<g id="edge11" class="edge"><title>Node7&#45;&gt;Node2</title>
<path fill="none" stroke="midnightblue" d="M197.866,-179.908C193.509,-163.32 185.23,-139.442 170.966,-123 156.355,-106.158 133.818,-94.0253 116.895,-86.6325"/>
<polygon fill="midnightblue" stroke="midnightblue" points="194.559,-181.129 200.282,-190.045 201.369,-179.506 194.559,-181.129"/>
</g>
<!-- Node7&#45;&gt;Node3 -->
<g id="edge7" class="edge"><title>Node7&#45;&gt;Node3</title>
<path fill="none" stroke="midnightblue" d="M177.539,-185.542C160.201,-175.991 136.983,-163.199 119.419,-153.523"/>
<polygon fill="midnightblue" stroke="midnightblue" points="176.045,-188.715 186.492,-190.475 179.422,-182.584 176.045,-188.715"/>
</g>
</g>
</svg>
