<?xml version="1.0" encoding="UTF-8" standalone="no"?>
<!DOCTYPE svg PUBLIC "-//W3C//DTD SVG 1.1//EN"
 "http://www.w3.org/Graphics/SVG/1.1/DTD/svg11.dtd">
<!-- Generated by graphviz version 2.38.0 (20140413.2041)
 -->
<!-- Title: IG.Lib.CommandLineApplicationInterpreter.InterpreterPipeClient Pages: 1 -->
<svg width="494pt" height="446pt"
 viewBox="0.00 0.00 494.00 446.00" xmlns="http://www.w3.org/2000/svg" xmlns:xlink="http://www.w3.org/1999/xlink">
<g id="graph0" class="graph" transform="scale(1 1) rotate(0) translate(4 442)">
<title>IG.Lib.CommandLineApplicationInterpreter.InterpreterPipeClient</title>
<polygon fill="white" stroke="none" points="-4,4 -4,-442 490,-442 490,4 -4,4"/>
<!-- Node1 -->
<g id="node1" class="node"><title>Node1</title>
<g id="a_node1"><a xlink:title="Client to the interpreter pipe server (classes derived from InterpreterPipeServer).">
<polygon fill="#bfbfbf" stroke="black" points="22.5,-0.5 22.5,-30.5 177.5,-30.5 177.5,-0.5 22.5,-0.5"/>
<text text-anchor="start" x="30.5" y="-18.5" font-family="Helvetica,sans-Serif" font-size="10.00">IG.Lib.CommandLineApplication</text>
<text text-anchor="middle" x="100" y="-7.5" font-family="Helvetica,sans-Serif" font-size="10.00">Interpreter.InterpreterPipeClient</text>
</a>
</g>
</g>
<!-- Node2 -->
<g id="node2" class="node"><title>Node2</title>
<g id="a_node2"><a xlink:href="../../d3/d53/classIG_1_1Lib_1_1NamedPipeClientBase.html" target="_top" xlink:title="Client to the pipe server (classes derived from IpcStreamClientServerBase2).">
<polygon fill="white" stroke="black" points="43,-68.5 43,-87.5 157,-87.5 157,-68.5 43,-68.5"/>
<text text-anchor="middle" x="100" y="-75.5" font-family="Helvetica,sans-Serif" font-size="10.00">NamedPipeClientBase</text>
</a>
</g>
</g>
<!-- Node2&#45;&gt;Node1 -->
<g id="edge1" class="edge"><title>Node2&#45;&gt;Node1</title>
<path fill="none" stroke="midnightblue" d="M100,-58.2154C100,-49.3565 100,-38.9577 100,-30.7587"/>
<polygon fill="midnightblue" stroke="midnightblue" points="96.5001,-58.3318 100,-68.3318 103.5,-58.3319 96.5001,-58.3318"/>
</g>
<!-- Node3 -->
<g id="node3" class="node"><title>Node3</title>
<g id="a_node3"><a xlink:href="../../da/d66/classIG_1_1Lib_1_1IpcStreamClientBase.html" target="_top" xlink:title="Client to the pipe server (classes derived from IpcStreamClientServerBase2).">
<polygon fill="white" stroke="black" points="46,-125.5 46,-144.5 154,-144.5 154,-125.5 46,-125.5"/>
<text text-anchor="middle" x="100" y="-132.5" font-family="Helvetica,sans-Serif" font-size="10.00">IpcStreamClientBase</text>
</a>
</g>
</g>
<!-- Node3&#45;&gt;Node2 -->
<g id="edge2" class="edge"><title>Node3&#45;&gt;Node2</title>
<path fill="none" stroke="midnightblue" d="M100,-115.117C100,-105.817 100,-95.0557 100,-87.7149"/>
<polygon fill="midnightblue" stroke="midnightblue" points="96.5001,-115.406 100,-125.406 103.5,-115.406 96.5001,-115.406"/>
</g>
<!-- Node4 -->
<g id="node4" class="node"><title>Node4</title>
<g id="a_node4"><a xlink:href="../../da/d2c/classIG_1_1Lib_1_1IpcStreamClientServerBase2.html" target="_top" xlink:title="Base class for named pipe servers and clients, contains common stuff for both.">
<polygon fill="white" stroke="black" points="75,-182.5 75,-201.5 215,-201.5 215,-182.5 75,-182.5"/>
<text text-anchor="middle" x="145" y="-189.5" font-family="Helvetica,sans-Serif" font-size="10.00">IpcStreamClientServerBase2</text>
</a>
</g>
</g>
<!-- Node4&#45;&gt;Node3 -->
<g id="edge3" class="edge"><title>Node4&#45;&gt;Node3</title>
<path fill="none" stroke="midnightblue" d="M131.526,-174.532C123.511,-164.736 113.664,-152.701 107.13,-144.715"/>
<polygon fill="midnightblue" stroke="midnightblue" points="128.927,-176.883 137.969,-182.406 134.345,-172.45 128.927,-176.883"/>
</g>
<!-- Node5 -->
<g id="node5" class="node"><title>Node5</title>
<g id="a_node5"><a xlink:href="../../d5/dd9/classIG_1_1Lib_1_1IpcStreamClientServerBase.html" target="_top" xlink:title="Base class for client and server classes with stream&#45;based communication.">
<polygon fill="white" stroke="black" points="104.5,-240.5 104.5,-259.5 239.5,-259.5 239.5,-240.5 104.5,-240.5"/>
<text text-anchor="middle" x="172" y="-247.5" font-family="Helvetica,sans-Serif" font-size="10.00">IpcStreamClientServerBase</text>
</a>
</g>
</g>
<!-- Node5&#45;&gt;Node4 -->
<g id="edge4" class="edge"><title>Node5&#45;&gt;Node4</title>
<path fill="none" stroke="midnightblue" d="M163.42,-231.204C158.632,-221.273 152.887,-209.358 149.101,-201.505"/>
<polygon fill="midnightblue" stroke="midnightblue" points="160.286,-232.762 167.781,-240.25 166.591,-229.722 160.286,-232.762"/>
</g>
<!-- Node6 -->
<g id="node6" class="node"><title>Node6</title>
<g id="a_node6"><a xlink:href="../../d3/db6/interfaceIG_1_1Lib_1_1ILockable.html" target="_top" xlink:title="Lockable object, has a Lock property that returns object on which lock must be performed in order to ...">
<polygon fill="white" stroke="black" points="28,-418.5 28,-437.5 86,-437.5 86,-418.5 28,-418.5"/>
<text text-anchor="middle" x="57" y="-425.5" font-family="Helvetica,sans-Serif" font-size="10.00">ILockable</text>
</a>
</g>
</g>
<!-- Node6&#45;&gt;Node2 -->
<g id="edge10" class="edge"><title>Node6&#45;&gt;Node2</title>
<path fill="none" stroke="midnightblue" d="M46.3958,-409.28C44.7999,-406.242 43.2668,-403.074 42,-400 15.7831,-336.388 0,-319.803 0,-251 0,-251 0,-251 0,-134 0,-108.737 24.8051,-94.996 49.707,-87.5659"/>
<polygon fill="midnightblue" stroke="midnightblue" points="43.4998,-411.269 51.4615,-418.259 49.5966,-407.83 43.4998,-411.269"/>
</g>
<!-- Node6&#45;&gt;Node3 -->
<g id="edge9" class="edge"><title>Node6&#45;&gt;Node3</title>
<path fill="none" stroke="midnightblue" d="M53.5412,-408.112C46.6619,-365.801 34.4895,-260.939 66,-182 71.817,-167.427 83.405,-153.321 91.4245,-144.656"/>
<polygon fill="midnightblue" stroke="midnightblue" points="50.1156,-408.843 55.2622,-418.104 57.014,-407.655 50.1156,-408.843"/>
</g>
<!-- Node6&#45;&gt;Node4 -->
<g id="edge7" class="edge"><title>Node6&#45;&gt;Node4</title>
<path fill="none" stroke="midnightblue" d="M57.0479,-408.215C57.9134,-372.814 63.5648,-294.774 95,-239 103.919,-223.176 120.201,-209.744 131.76,-201.552"/>
<polygon fill="midnightblue" stroke="midnightblue" points="53.5445,-408.445 56.9075,-418.492 60.5439,-408.541 53.5445,-408.445"/>
</g>
<!-- Node6&#45;&gt;Node5 -->
<g id="edge5" class="edge"><title>Node6&#45;&gt;Node5</title>
<path fill="none" stroke="midnightblue" d="M79.2919,-412.207C83.3544,-408.632 87.1896,-404.52 90,-400 119.145,-353.122 84.16,-322.609 118,-279 124.798,-270.24 135.104,-263.955 144.896,-259.589"/>
<polygon fill="midnightblue" stroke="midnightblue" points="77.1186,-409.463 71.4091,-418.388 81.438,-414.972 77.1186,-409.463"/>
</g>
<!-- Node7 -->
<g id="node7" class="node"><title>Node7</title>
<g id="a_node7"><a xlink:title=" ">
<polygon fill="white" stroke="#bfbfbf" points="255.5,-418.5 255.5,-437.5 296.5,-437.5 296.5,-418.5 255.5,-418.5"/>
<text text-anchor="middle" x="276" y="-425.5" font-family="Helvetica,sans-Serif" font-size="10.00">static</text>
</a>
</g>
</g>
<!-- Node7&#45;&gt;Node2 -->
<g id="edge11" class="edge"><title>Node7&#45;&gt;Node2</title>
<path fill="none" stroke="#9a32cd" stroke-dasharray="5,2" d="M294.155,-411.597C325.395,-383.262 386,-319.469 386,-251 386,-251 386,-251 386,-134 386,-87.8616 240.651,-79.5548 157.189,-78.5881"/>
<polygon fill="#9a32cd" stroke="#9a32cd" points="291.721,-409.077 286.547,-418.322 296.358,-414.321 291.721,-409.077"/>
<text text-anchor="middle" x="436" y="-189.5" font-family="Helvetica,sans-Serif" font-size="10.00"> _defaultServerAddress</text>
</g>
<!-- Node7&#45;&gt;Node4 -->
<g id="edge8" class="edge"><title>Node7&#45;&gt;Node4</title>
<path fill="none" stroke="#9a32cd" stroke-dasharray="5,2" d="M279.422,-408.04C285.018,-370.514 291.531,-286.319 248,-239 230.498,-219.975 203.66,-208.339 181.768,-201.531"/>
<polygon fill="#9a32cd" stroke="#9a32cd" points="275.938,-407.661 277.772,-418.096 282.846,-408.795 275.938,-407.661"/>
<text text-anchor="middle" x="304" y="-253" font-family="Helvetica,sans-Serif" font-size="10.00"> _defaultPipeName</text>
<text text-anchor="middle" x="304" y="-242" font-family="Helvetica,sans-Serif" font-size="10.00">_defaultErrorBegin</text>
</g>
<!-- Node7&#45;&gt;Node5 -->
<g id="edge6" class="edge"><title>Node7&#45;&gt;Node5</title>
<path fill="none" stroke="#9a32cd" stroke-dasharray="5,2" d="M245.127,-425.244C209.43,-422.492 153.909,-415.746 141,-400 106.905,-358.411 119.165,-328.145 141,-279 144.534,-271.047 151.566,-264.397 158.041,-259.577"/>
<polygon fill="#9a32cd" stroke="#9a32cd" points="245.278,-428.763 255.5,-425.975 245.771,-421.78 245.278,-428.763"/>
<text text-anchor="middle" x="201.5" y="-392" font-family="Helvetica,sans-Serif" font-size="10.00"> _defaultMsgTestSpeed</text>
<text text-anchor="middle" x="201.5" y="-381" font-family="Helvetica,sans-Serif" font-size="10.00">_defaultStopRequest</text>
<text text-anchor="middle" x="201.5" y="-370" font-family="Helvetica,sans-Serif" font-size="10.00">_defaultMessagePrefix</text>
<text text-anchor="middle" x="201.5" y="-359" font-family="Helvetica,sans-Serif" font-size="10.00">_defaultMsgRequestBegin</text>
<text text-anchor="middle" x="201.5" y="-348" font-family="Helvetica,sans-Serif" font-size="10.00">_defaultMsgRequestEnd</text>
<text text-anchor="middle" x="201.5" y="-337" font-family="Helvetica,sans-Serif" font-size="10.00">_defaultMessageSeparator</text>
<text text-anchor="middle" x="201.5" y="-326" font-family="Helvetica,sans-Serif" font-size="10.00">_defaultStoppedResponse</text>
<text text-anchor="middle" x="201.5" y="-315" font-family="Helvetica,sans-Serif" font-size="10.00">_defaultMsgResponseEnd</text>
<text text-anchor="middle" x="201.5" y="-304" font-family="Helvetica,sans-Serif" font-size="10.00">_defaultIsMultilineResponse</text>
<text text-anchor="middle" x="201.5" y="-293" font-family="Helvetica,sans-Serif" font-size="10.00">_defaultMsgResponseBegin</text>
<text text-anchor="middle" x="201.5" y="-282" font-family="Helvetica,sans-Serif" font-size="10.00">...</text>
</g>
</g>
</svg>
