<?xml version="1.0" encoding="UTF-8" standalone="no"?>
<!DOCTYPE svg PUBLIC "-//W3C//DTD SVG 1.1//EN"
 "http://www.w3.org/Graphics/SVG/1.1/DTD/svg11.dtd">
<!-- Generated by graphviz version 2.38.0 (20140413.2041)
 -->
<!-- Title: IG.Num.Func3d2dExamples.HyperboloidParametric Pages: 1 -->
<svg width="894pt" height="203pt"
 viewBox="0.00 0.00 894.00 202.50" xmlns="http://www.w3.org/2000/svg" xmlns:xlink="http://www.w3.org/1999/xlink">
<g id="graph0" class="graph" transform="scale(1 1) rotate(0) translate(4 198.5)">
<title>IG.Num.Func3d2dExamples.HyperboloidParametric</title>
<polygon fill="white" stroke="none" points="-4,4 -4,-198.5 890,-198.5 890,4 -4,4"/>
<!-- Node1 -->
<g id="node1" class="node"><title>Node1</title>
<g id="a_node1"><a xlink:title="Parametric definition of an origin&#45;centered hyperboloid surface (x^2/a^2+y^2/b^2&#45;z^2/c^2=1) in form o...">
<polygon fill="#bfbfbf" stroke="black" points="516,-90 516,-120 658,-120 658,-90 516,-90"/>
<text text-anchor="start" x="524" y="-108" font-family="Helvetica,sans-Serif" font-size="10.00">IG.Num.Func3d2dExamples.</text>
<text text-anchor="middle" x="587" y="-97" font-family="Helvetica,sans-Serif" font-size="10.00">HyperboloidParametric</text>
</a>
</g>
</g>
<!-- Node6 -->
<g id="node6" class="node"><title>Node6</title>
<g id="a_node6"><a xlink:href="../../d5/dde/classIG_1_1Num_1_1Func3d2dExamples_1_1HyperboloidParametricMinus.html" target="_top" xlink:title="Alternative parameterization of an origin&#45;centered hyperboloid surface (x^2/a^2+y^2/b^2&#45;z^2/c^2=1) in...">
<polygon fill="white" stroke="black" points="719,-164 719,-194 861,-194 861,-164 719,-164"/>
<text text-anchor="start" x="727" y="-182" font-family="Helvetica,sans-Serif" font-size="10.00">IG.Num.Func3d2dExamples.</text>
<text text-anchor="middle" x="790" y="-171" font-family="Helvetica,sans-Serif" font-size="10.00">HyperboloidParametricMinus</text>
</a>
</g>
</g>
<!-- Node1&#45;&gt;Node6 -->
<g id="edge8" class="edge"><title>Node1&#45;&gt;Node6</title>
<path fill="none" stroke="midnightblue" d="M625.229,-124.729C645.22,-134.765 670.519,-146.585 694,-155 703.128,-158.271 712.901,-161.275 722.579,-163.969"/>
<polygon fill="midnightblue" stroke="midnightblue" points="626.658,-121.53 616.158,-120.116 623.485,-127.769 626.658,-121.53"/>
</g>
<!-- Node7 -->
<g id="node7" class="node"><title>Node7</title>
<g id="a_node7"><a xlink:href="../../dd/d78/classIG_1_1Num_1_1Func3d2dExamples_1_1HyperboloidParametricPlus.html" target="_top" xlink:title="Alternative parameterization of an origin&#45;centered hyperboloid surface (x^2/a^2+y^2/b^2&#45;z^2/c^2=1) in...">
<polygon fill="white" stroke="black" points="719,-115 719,-145 861,-145 861,-115 719,-115"/>
<text text-anchor="start" x="727" y="-133" font-family="Helvetica,sans-Serif" font-size="10.00">IG.Num.Func3d2dExamples.</text>
<text text-anchor="middle" x="790" y="-122" font-family="Helvetica,sans-Serif" font-size="10.00">HyperboloidParametricPlus</text>
</a>
</g>
</g>
<!-- Node1&#45;&gt;Node7 -->
<g id="edge9" class="edge"><title>Node1&#45;&gt;Node7</title>
<path fill="none" stroke="midnightblue" d="M668.318,-114.99C685.052,-117.071 702.563,-119.249 718.893,-121.28"/>
<polygon fill="midnightblue" stroke="midnightblue" points="668.373,-111.47 658.018,-113.709 667.509,-118.416 668.373,-111.47"/>
</g>
<!-- Node8 -->
<g id="node8" class="node"><title>Node8</title>
<g id="a_node8"><a xlink:href="../../d8/d4c/classIG_1_1Num_1_1Func3d2dExamples_1_1HyperboloidTwosheetedLowerParametric.html" target="_top" xlink:title="Parametric definition of an origin&#45;centered upper two&#45;sheeted hyperboloid surface (x^2/a^2+y^2/b^2&#45;z^...">
<polygon fill="white" stroke="black" points="694,-66 694,-96 886,-96 886,-66 694,-66"/>
<text text-anchor="start" x="702" y="-84" font-family="Helvetica,sans-Serif" font-size="10.00">IG.Num.Func3d2dExamples.</text>
<text text-anchor="middle" x="790" y="-73" font-family="Helvetica,sans-Serif" font-size="10.00">HyperboloidTwosheetedLowerParametric</text>
</a>
</g>
</g>
<!-- Node1&#45;&gt;Node8 -->
<g id="edge10" class="edge"><title>Node1&#45;&gt;Node8</title>
<path fill="none" stroke="midnightblue" d="M668.172,-95.4273C676.59,-94.4221 685.207,-93.3931 693.773,-92.3703"/>
<polygon fill="midnightblue" stroke="midnightblue" points="667.532,-91.9786 658.018,-96.6397 668.362,-98.9293 667.532,-91.9786"/>
</g>
<!-- Node9 -->
<g id="node9" class="node"><title>Node9</title>
<g id="a_node9"><a xlink:href="../../da/d7a/classIG_1_1Num_1_1Func3d2dExamples_1_1HyperboloidTwosheetedUpperParametric.html" target="_top" xlink:title="Parametric definition of an origin&#45;centered upper two&#45;sheeted hyperboloid surface (x^2/a^2+y^2/b^2&#45;z^...">
<polygon fill="white" stroke="black" points="694,-17 694,-47 886,-47 886,-17 694,-17"/>
<text text-anchor="start" x="702" y="-35" font-family="Helvetica,sans-Serif" font-size="10.00">IG.Num.Func3d2dExamples.</text>
<text text-anchor="middle" x="790" y="-24" font-family="Helvetica,sans-Serif" font-size="10.00">HyperboloidTwosheetedUpperParametric</text>
</a>
</g>
</g>
<!-- Node1&#45;&gt;Node9 -->
<g id="edge11" class="edge"><title>Node1&#45;&gt;Node9</title>
<path fill="none" stroke="midnightblue" d="M626.623,-85.6214C646.439,-76.1665 671.157,-65.113 694,-57 704.205,-53.3755 715.193,-50.011 725.947,-47.0004"/>
<polygon fill="midnightblue" stroke="midnightblue" points="625.088,-82.4759 617.603,-89.9752 628.131,-88.7798 625.088,-82.4759"/>
</g>
<!-- Node2 -->
<g id="node2" class="node"><title>Node2</title>
<g id="a_node2"><a xlink:href="../../d0/d54/classIG_1_1Num_1_1Func3d2dExamples_1_1ParametricSurface.html" target="_top" xlink:title="Base class for easy definition of parametric surfaces intended for plotting.">
<polygon fill="white" stroke="black" points="383,-76.5 383,-95.5 480,-95.5 480,-76.5 383,-76.5"/>
<text text-anchor="middle" x="431.5" y="-83.5" font-family="Helvetica,sans-Serif" font-size="10.00">ParametricSurface</text>
</a>
</g>
</g>
<!-- Node2&#45;&gt;Node1 -->
<g id="edge1" class="edge"><title>Node2&#45;&gt;Node1</title>
<path fill="none" stroke="midnightblue" d="M490.212,-93.1435C498.552,-94.1758 507.212,-95.2478 515.764,-96.3063"/>
<polygon fill="midnightblue" stroke="midnightblue" points="490.581,-89.6626 480.227,-91.9076 489.721,-96.6096 490.581,-89.6626"/>
</g>
<!-- Node3 -->
<g id="node3" class="node"><title>Node3</title>
<g id="a_node3"><a xlink:href="../../d3/dc0/classIG_1_1Num_1_1Func3d2dBaseNoGradient.html" target="_top" xlink:title="Base class for 3D vector functions of 2 variables (implementations of the IFunc3d2d interface) that d...">
<polygon fill="white" stroke="black" points="216,-38.5 216,-57.5 347,-57.5 347,-38.5 216,-38.5"/>
<text text-anchor="middle" x="281.5" y="-45.5" font-family="Helvetica,sans-Serif" font-size="10.00">Func3d2dBaseNoGradient</text>
</a>
</g>
</g>
<!-- Node3&#45;&gt;Node2 -->
<g id="edge2" class="edge"><title>Node3&#45;&gt;Node2</title>
<path fill="none" stroke="midnightblue" d="M329.673,-60.1121C350.286,-65.4044 374.109,-71.5213 393.422,-76.4799"/>
<polygon fill="midnightblue" stroke="midnightblue" points="330.403,-56.6859 319.847,-57.589 328.662,-63.466 330.403,-56.6859"/>
</g>
<!-- Node4 -->
<g id="node4" class="node"><title>Node4</title>
<g id="a_node4"><a xlink:href="../../df/d0e/classIG_1_1Num_1_1Func3d2dBase.html" target="_top" xlink:title="Base class for 3D vector functions of 2 variables (base for implementation of IFunc3d2d interface).">
<polygon fill="white" stroke="black" points="98,-0.5 98,-19.5 180,-19.5 180,-0.5 98,-0.5"/>
<text text-anchor="middle" x="139" y="-7.5" font-family="Helvetica,sans-Serif" font-size="10.00">Func3d2dBase</text>
</a>
</g>
</g>
<!-- Node4&#45;&gt;Node3 -->
<g id="edge3" class="edge"><title>Node4&#45;&gt;Node3</title>
<path fill="none" stroke="midnightblue" d="M185.279,-22.2462C204.645,-27.484 226.922,-33.5091 245.057,-38.4141"/>
<polygon fill="midnightblue" stroke="midnightblue" points="186.021,-18.8213 175.454,-19.589 184.193,-25.5785 186.021,-18.8213"/>
</g>
<!-- Node5 -->
<g id="node5" class="node"><title>Node5</title>
<g id="a_node5"><a xlink:href="../../d3/d6f/interfaceIG_1_1Num_1_1IFunc3d2d.html" target="_top" xlink:title="Represents 3D vector functions of 2 variables.">
<polygon fill="white" stroke="black" points="0,-57.5 0,-76.5 62,-76.5 62,-57.5 0,-57.5"/>
<text text-anchor="middle" x="31" y="-64.5" font-family="Helvetica,sans-Serif" font-size="10.00">IFunc3d2d</text>
</a>
</g>
</g>
<!-- Node5&#45;&gt;Node1 -->
<g id="edge7" class="edge"><title>Node5&#45;&gt;Node1</title>
<path fill="none" stroke="midnightblue" d="M66.6098,-79.7902C76.6098,-82.9976 87.6264,-86.0714 98,-88 244.688,-115.271 420.336,-113.08 515.791,-109.047"/>
<polygon fill="midnightblue" stroke="midnightblue" points="67.6041,-76.4322 57.0102,-76.5759 65.3814,-83.07 67.6041,-76.4322"/>
</g>
<!-- Node5&#45;&gt;Node2 -->
<g id="edge6" class="edge"><title>Node5&#45;&gt;Node2</title>
<path fill="none" stroke="midnightblue" d="M72.2931,-70.2684C80.78,-70.8963 89.6815,-71.5099 98,-72 199.367,-77.972 318.264,-82.3426 382.846,-84.4959"/>
<polygon fill="midnightblue" stroke="midnightblue" points="72.4501,-66.7704 62.2137,-69.5029 71.9199,-73.7503 72.4501,-66.7704"/>
</g>
<!-- Node5&#45;&gt;Node3 -->
<g id="edge5" class="edge"><title>Node5&#45;&gt;Node3</title>
<path fill="none" stroke="midnightblue" d="M72.8519,-63.8765C111.652,-60.9099 170.607,-56.4023 215.798,-52.9471"/>
<polygon fill="midnightblue" stroke="midnightblue" points="72.175,-60.418 62.471,-64.6702 72.7087,-67.3976 72.175,-60.418"/>
</g>
<!-- Node5&#45;&gt;Node4 -->
<g id="edge4" class="edge"><title>Node5&#45;&gt;Node4</title>
<path fill="none" stroke="midnightblue" d="M58.8767,-52.5475C78.1321,-42.1931 103.522,-28.54 120.284,-19.5265"/>
<polygon fill="midnightblue" stroke="midnightblue" points="57.1312,-49.512 49.9815,-57.3307 60.4465,-55.6772 57.1312,-49.512"/>
</g>
</g>
</svg>
