<?xml version="1.0" encoding="UTF-8" standalone="no"?>
<!DOCTYPE svg PUBLIC "-//W3C//DTD SVG 1.1//EN"
 "http://www.w3.org/Graphics/SVG/1.1/DTD/svg11.dtd">
<!-- Generated by graphviz version 2.38.0 (20140413.2041)
 -->
<!-- Title: IG.Lib.ICharacterBufferReadOnly Pages: 1 -->
<svg width="187pt" height="140pt"
 viewBox="0.00 0.00 186.50 140.00" xmlns="http://www.w3.org/2000/svg" xmlns:xlink="http://www.w3.org/1999/xlink">
<g id="graph0" class="graph" transform="scale(1 1) rotate(0) translate(4 136)">
<title>IG.Lib.ICharacterBufferReadOnly</title>
<polygon fill="white" stroke="none" points="-4,4 -4,-136 182.5,-136 182.5,4 -4,4"/>
<!-- Node1 -->
<g id="node1" class="node"><title>Node1</title>
<g id="a_node1"><a xlink:title="Interface for all implementations of read&#45;only character buffer. Classes that implement this interfac...">
<polygon fill="#bfbfbf" stroke="black" points="0,-112.5 0,-131.5 157,-131.5 157,-112.5 0,-112.5"/>
<text text-anchor="middle" x="78.5" y="-119.5" font-family="Helvetica,sans-Serif" font-size="10.00">IG.Lib.ICharacterBufferReadOnly</text>
</a>
</g>
</g>
<!-- Node2 -->
<g id="node2" class="node"><title>Node2</title>
<g id="a_node2"><a xlink:href="../../d8/def/classIG_1_1Lib_1_1CharacterBuffer.html" target="_top" xlink:title="CharacterBufferInterface wrapper for StringBilder.">
<polygon fill="white" stroke="black" points="22.5,-0.5 22.5,-19.5 134.5,-19.5 134.5,-0.5 22.5,-0.5"/>
<text text-anchor="middle" x="78.5" y="-7.5" font-family="Helvetica,sans-Serif" font-size="10.00">IG.Lib.CharacterBuffer</text>
</a>
</g>
</g>
<!-- Node1&#45;&gt;Node2 -->
<g id="edge1" class="edge"><title>Node1&#45;&gt;Node2</title>
<path fill="none" stroke="midnightblue" d="M67.0782,-103.442C62.5173,-95.4187 57.8067,-85.5817 55.5,-76 50.5129,-55.2846 63.5805,-31.9517 72.0066,-19.6563"/>
<polygon fill="midnightblue" stroke="midnightblue" points="64.2106,-105.463 72.3954,-112.191 70.1924,-101.827 64.2106,-105.463"/>
</g>
<!-- Node3 -->
<g id="node3" class="node"><title>Node3</title>
<g id="a_node3"><a xlink:href="../../dc/d03/interfaceIG_1_1Lib_1_1ICharacterBuffer.html" target="_top" xlink:title="Interface for all implementations of read&#45;write character buffer. Classes that implement this interfa...">
<polygon fill="white" stroke="black" points="64.5,-56.5 64.5,-75.5 178.5,-75.5 178.5,-56.5 64.5,-56.5"/>
<text text-anchor="middle" x="121.5" y="-63.5" font-family="Helvetica,sans-Serif" font-size="10.00">IG.Lib.ICharacterBuffer</text>
</a>
</g>
</g>
<!-- Node1&#45;&gt;Node3 -->
<g id="edge2" class="edge"><title>Node1&#45;&gt;Node3</title>
<path fill="none" stroke="midnightblue" d="M91.9224,-104.144C99.4142,-94.7357 108.437,-83.4046 114.532,-75.7511"/>
<polygon fill="midnightblue" stroke="midnightblue" points="89.0919,-102.08 85.6006,-112.083 94.5679,-106.44 89.0919,-102.08"/>
</g>
<!-- Node3&#45;&gt;Node2 -->
<g id="edge3" class="edge"><title>Node3&#45;&gt;Node2</title>
<path fill="none" stroke="midnightblue" d="M108.078,-48.144C100.586,-38.7357 91.5629,-27.4046 85.4685,-19.7511"/>
<polygon fill="midnightblue" stroke="midnightblue" points="105.432,-50.4404 114.399,-56.083 110.908,-46.0799 105.432,-50.4404"/>
</g>
</g>
</svg>
