<?xml version="1.0" encoding="UTF-8" standalone="no"?>
<!DOCTYPE svg PUBLIC "-//W3C//DTD SVG 1.1//EN"
 "http://www.w3.org/Graphics/SVG/1.1/DTD/svg11.dtd">
<!-- Generated by graphviz version 2.38.0 (20140413.2041)
 -->
<!-- Title: IG.Num.Func3d2dExamples.SaddleXY Pages: 1 -->
<svg width="396pt" height="470pt"
 viewBox="0.00 0.00 395.50 470.00" xmlns="http://www.w3.org/2000/svg" xmlns:xlink="http://www.w3.org/1999/xlink">
<g id="graph0" class="graph" transform="scale(1 1) rotate(0) translate(4 466)">
<title>IG.Num.Func3d2dExamples.SaddleXY</title>
<polygon fill="white" stroke="none" points="-4,4 -4,-466 391.5,-466 391.5,4 -4,4"/>
<!-- Node1 -->
<g id="node1" class="node"><title>Node1</title>
<g id="a_node1"><a xlink:title="Parametric surface that is a graph of the function f(x,y)=x*y.">
<polygon fill="#bfbfbf" stroke="black" points="0,-0.5 0,-30.5 142,-30.5 142,-0.5 0,-0.5"/>
<text text-anchor="start" x="8" y="-18.5" font-family="Helvetica,sans-Serif" font-size="10.00">IG.Num.Func3d2dExamples.</text>
<text text-anchor="middle" x="71" y="-7.5" font-family="Helvetica,sans-Serif" font-size="10.00">SaddleXY</text>
</a>
</g>
</g>
<!-- Node2 -->
<g id="node2" class="node"><title>Node2</title>
<g id="a_node2"><a xlink:href="../../dc/d0f/classIG_1_1Num_1_1Func3d2dExamples_1_1Surface.html" target="_top" xlink:title="Base class for easy definition of surfaces defined through a function of 2 variables.">
<polygon fill="white" stroke="black" points="80,-68.5 80,-87.5 130,-87.5 130,-68.5 80,-68.5"/>
<text text-anchor="middle" x="105" y="-75.5" font-family="Helvetica,sans-Serif" font-size="10.00">Surface</text>
</a>
</g>
</g>
<!-- Node2&#45;&gt;Node1 -->
<g id="edge1" class="edge"><title>Node2&#45;&gt;Node1</title>
<path fill="none" stroke="midnightblue" d="M95.1019,-59.3872C89.9867,-50.2851 83.8256,-39.3221 79.0131,-30.7587"/>
<polygon fill="midnightblue" stroke="midnightblue" points="92.1782,-61.3289 100.129,-68.3318 98.2806,-57.8994 92.1782,-61.3289"/>
</g>
<!-- Node3 -->
<g id="node3" class="node"><title>Node3</title>
<g id="a_node3"><a xlink:href="../../d0/d54/classIG_1_1Num_1_1Func3d2dExamples_1_1ParametricSurface.html" target="_top" xlink:title="Base class for easy definition of parametric surfaces intended for plotting.">
<polygon fill="white" stroke="black" points="118.5,-125.5 118.5,-144.5 215.5,-144.5 215.5,-125.5 118.5,-125.5"/>
<text text-anchor="middle" x="167" y="-132.5" font-family="Helvetica,sans-Serif" font-size="10.00">ParametricSurface</text>
</a>
</g>
</g>
<!-- Node3&#45;&gt;Node2 -->
<g id="edge2" class="edge"><title>Node3&#45;&gt;Node2</title>
<path fill="none" stroke="midnightblue" d="M149.762,-118.708C138.497,-108.715 124.19,-96.0237 114.824,-87.7149"/>
<polygon fill="midnightblue" stroke="midnightblue" points="147.509,-121.388 157.313,-125.406 152.154,-116.152 147.509,-121.388"/>
</g>
<!-- Node4 -->
<g id="node4" class="node"><title>Node4</title>
<g id="a_node4"><a xlink:href="../../d3/dc0/classIG_1_1Num_1_1Func3d2dBaseNoGradient.html" target="_top" xlink:title="Base class for 3D vector functions of 2 variables (implementations of the IFunc3d2d interface) that d...">
<polygon fill="white" stroke="black" points="156.5,-182.5 156.5,-201.5 287.5,-201.5 287.5,-182.5 156.5,-182.5"/>
<text text-anchor="middle" x="222" y="-189.5" font-family="Helvetica,sans-Serif" font-size="10.00">Func3d2dBaseNoGradient</text>
</a>
</g>
</g>
<!-- Node4&#45;&gt;Node3 -->
<g id="edge3" class="edge"><title>Node4&#45;&gt;Node3</title>
<path fill="none" stroke="midnightblue" d="M206.123,-175.123C196.224,-165.224 183.862,-152.862 175.715,-144.715"/>
<polygon fill="midnightblue" stroke="midnightblue" points="203.86,-177.81 213.406,-182.406 208.81,-172.86 203.86,-177.81"/>
</g>
<!-- Node5 -->
<g id="node5" class="node"><title>Node5</title>
<g id="a_node5"><a xlink:href="../../df/d0e/classIG_1_1Num_1_1Func3d2dBase.html" target="_top" xlink:title="Base class for 3D vector functions of 2 variables (base for implementation of IFunc3d2d interface).">
<polygon fill="white" stroke="black" points="194,-239.5 194,-258.5 276,-258.5 276,-239.5 194,-239.5"/>
<text text-anchor="middle" x="235" y="-246.5" font-family="Helvetica,sans-Serif" font-size="10.00">Func3d2dBase</text>
</a>
</g>
</g>
<!-- Node5&#45;&gt;Node4 -->
<g id="edge4" class="edge"><title>Node5&#45;&gt;Node4</title>
<path fill="none" stroke="midnightblue" d="M230.609,-229.423C228.395,-220.054 225.814,-209.136 224.06,-201.715"/>
<polygon fill="midnightblue" stroke="midnightblue" points="227.262,-230.48 232.969,-239.406 234.075,-228.869 227.262,-230.48"/>
</g>
<!-- Node6 -->
<g id="node6" class="node"><title>Node6</title>
<g id="a_node6"><a xlink:href="../../d3/d6f/interfaceIG_1_1Num_1_1IFunc3d2d.html" target="_top" xlink:title="Represents 3D vector functions of 2 variables.">
<polygon fill="white" stroke="black" points="97,-328.5 97,-347.5 159,-347.5 159,-328.5 97,-328.5"/>
<text text-anchor="middle" x="128" y="-335.5" font-family="Helvetica,sans-Serif" font-size="10.00">IFunc3d2d</text>
</a>
</g>
</g>
<!-- Node6&#45;&gt;Node1 -->
<g id="edge14" class="edge"><title>Node6&#45;&gt;Node1</title>
<path fill="none" stroke="midnightblue" d="M103.569,-322.752C81.3478,-307.753 52,-281.905 52,-250 52,-250 52,-250 52,-77 52,-60.4861 58.5231,-42.5534 63.9251,-30.5342"/>
<polygon fill="midnightblue" stroke="midnightblue" points="101.946,-325.868 112.253,-328.321 105.725,-319.976 101.946,-325.868"/>
</g>
<!-- Node6&#45;&gt;Node2 -->
<g id="edge13" class="edge"><title>Node6&#45;&gt;Node2</title>
<path fill="none" stroke="midnightblue" d="M115.689,-320.162C104.59,-303.292 90,-276.145 90,-250 90,-250 90,-250 90,-134 90,-117.174 96.6147,-98.4415 101.059,-87.7541"/>
<polygon fill="midnightblue" stroke="midnightblue" points="112.818,-322.165 121.381,-328.405 118.579,-318.187 112.818,-322.165"/>
</g>
<!-- Node6&#45;&gt;Node3 -->
<g id="edge12" class="edge"><title>Node6&#45;&gt;Node3</title>
<path fill="none" stroke="midnightblue" d="M128.559,-318.356C129.824,-288.906 133.911,-230.031 147,-182 150.709,-168.389 157.733,-153.584 162.391,-144.546"/>
<polygon fill="midnightblue" stroke="midnightblue" points="125.058,-318.313 128.19,-328.434 132.053,-318.569 125.058,-318.313"/>
</g>
<!-- Node6&#45;&gt;Node4 -->
<g id="edge11" class="edge"><title>Node6&#45;&gt;Node4</title>
<path fill="none" stroke="midnightblue" d="M137.163,-319.458C147.84,-299.466 166.404,-266.06 185,-239 194.404,-225.316 206.722,-210.53 214.501,-201.517"/>
<polygon fill="midnightblue" stroke="midnightblue" points="134.043,-317.87 132.464,-328.347 140.232,-321.142 134.043,-317.87"/>
</g>
<!-- Node6&#45;&gt;Node5 -->
<g id="edge5" class="edge"><title>Node6&#45;&gt;Node5</title>
<path fill="none" stroke="midnightblue" d="M157.53,-323.937C165.174,-319.958 173.169,-315.235 180,-310 200.189,-294.528 219.178,-271.151 228.674,-258.634"/>
<polygon fill="midnightblue" stroke="midnightblue" points="155.899,-320.839 148.483,-328.405 158.999,-327.115 155.899,-320.839"/>
</g>
<!-- Node7 -->
<g id="node7" class="node"><title>Node7</title>
<g id="a_node7"><a xlink:href="../../da/d29/classIG_1_1Num_1_1Func2dBase.html" target="_top" xlink:title="Base class for scalar functions of 2 variables (base for implementation of IFunc2d interface).">
<polygon fill="white" stroke="black" points="181.5,-328.5 181.5,-347.5 288.5,-347.5 288.5,-328.5 181.5,-328.5"/>
<text text-anchor="middle" x="235" y="-335.5" font-family="Helvetica,sans-Serif" font-size="10.00">IG.Num.Func2dBase</text>
</a>
</g>
</g>
<!-- Node7&#45;&gt;Node5 -->
<g id="edge6" class="edge"><title>Node7&#45;&gt;Node5</title>
<path fill="none" stroke="#9a32cd" stroke-dasharray="5,2" d="M235,-318.195C235,-299.738 235,-272.412 235,-258.625"/>
<polygon fill="#9a32cd" stroke="#9a32cd" points="231.5,-318.34 235,-328.34 238.5,-318.34 231.5,-318.34"/>
<text text-anchor="middle" x="254" y="-302" font-family="Helvetica,sans-Serif" font-size="10.00"> _comp1</text>
<text text-anchor="middle" x="254" y="-291" font-family="Helvetica,sans-Serif" font-size="10.00">_comp2</text>
<text text-anchor="middle" x="254" y="-280" font-family="Helvetica,sans-Serif" font-size="10.00">_comp3</text>
</g>
<!-- Node8 -->
<g id="node8" class="node"><title>Node8</title>
<g id="a_node8"><a xlink:href="../../d2/d9e/classIG_1_1Num_1_1ScalarFunctionUntransformedBase.html" target="_top" xlink:title="Base class for defining scalar functions without possibility of affine transformation of parameters.">
<polygon fill="white" stroke="black" points="151.5,-385.5 151.5,-404.5 318.5,-404.5 318.5,-385.5 151.5,-385.5"/>
<text text-anchor="middle" x="235" y="-392.5" font-family="Helvetica,sans-Serif" font-size="10.00">ScalarFunctionUntransformedBase</text>
</a>
</g>
</g>
<!-- Node8&#45;&gt;Node7 -->
<g id="edge7" class="edge"><title>Node8&#45;&gt;Node7</title>
<path fill="none" stroke="midnightblue" d="M235,-375.117C235,-365.817 235,-355.056 235,-347.715"/>
<polygon fill="midnightblue" stroke="midnightblue" points="231.5,-375.406 235,-385.406 238.5,-375.406 231.5,-375.406"/>
</g>
<!-- Node9 -->
<g id="node9" class="node"><title>Node9</title>
<g id="a_node9"><a xlink:href="../../d8/d56/interfaceIG_1_1Num_1_1IScalarFunctionUntransformed.html" target="_top" xlink:title="Scalar functions of vector arguments.">
<polygon fill="white" stroke="black" points="83.5,-442.5 83.5,-461.5 230.5,-461.5 230.5,-442.5 83.5,-442.5"/>
<text text-anchor="middle" x="157" y="-449.5" font-family="Helvetica,sans-Serif" font-size="10.00">IScalarFunctionUntransformed</text>
</a>
</g>
</g>
<!-- Node9&#45;&gt;Node7 -->
<g id="edge10" class="edge"><title>Node9&#45;&gt;Node7</title>
<path fill="none" stroke="midnightblue" d="M146.123,-433.118C139.139,-419.112 132.921,-399.619 142,-385 153.974,-365.719 176.69,-354.274 196.673,-347.623"/>
<polygon fill="midnightblue" stroke="midnightblue" points="143.239,-435.135 151.136,-442.198 149.367,-431.752 143.239,-435.135"/>
</g>
<!-- Node9&#45;&gt;Node8 -->
<g id="edge8" class="edge"><title>Node9&#45;&gt;Node8</title>
<path fill="none" stroke="midnightblue" d="M177.511,-436.537C191.953,-426.354 210.795,-413.068 222.898,-404.533"/>
<polygon fill="midnightblue" stroke="midnightblue" points="175.343,-433.783 169.188,-442.406 179.377,-439.504 175.343,-433.783"/>
</g>
<!-- Node10 -->
<g id="node10" class="node"><title>Node10</title>
<g id="a_node10"><a xlink:href="../../d8/d15/interfaceIG_1_1Num_1_1IFunc2d.html" target="_top" xlink:title="Represents scalar functions of 2 variables.">
<polygon fill="white" stroke="black" points="336.5,-385.5 336.5,-404.5 387.5,-404.5 387.5,-385.5 336.5,-385.5"/>
<text text-anchor="middle" x="362" y="-392.5" font-family="Helvetica,sans-Serif" font-size="10.00">IFunc2d</text>
</a>
</g>
</g>
<!-- Node10&#45;&gt;Node7 -->
<g id="edge9" class="edge"><title>Node10&#45;&gt;Node7</title>
<path fill="none" stroke="midnightblue" d="M332.844,-381.374C308.894,-371.001 275.62,-356.591 254.704,-347.533"/>
<polygon fill="midnightblue" stroke="midnightblue" points="331.589,-384.644 342.156,-385.406 334.371,-378.22 331.589,-384.644"/>
</g>
</g>
</svg>
