<?xml version="1.0" encoding="UTF-8" standalone="no"?>
<!DOCTYPE svg PUBLIC "-//W3C//DTD SVG 1.1//EN"
 "http://www.w3.org/Graphics/SVG/1.1/DTD/svg11.dtd">
<!-- Generated by graphviz version 2.38.0 (20140413.2041)
 -->
<!-- Title: LearnCs.Lib.VectorFactoryFromDelegate&lt; VectorType &gt; Pages: 1 -->
<svg width="282pt" height="106pt"
 viewBox="0.00 0.00 281.50 106.00" xmlns="http://www.w3.org/2000/svg" xmlns:xlink="http://www.w3.org/1999/xlink">
<g id="graph0" class="graph" transform="scale(1 1) rotate(0) translate(4 102)">
<title>LearnCs.Lib.VectorFactoryFromDelegate&lt; VectorType &gt;</title>
<polygon fill="white" stroke="none" points="-4,4 -4,-102 277.5,-102 277.5,4 -4,4"/>
<!-- Node1 -->
<g id="node1" class="node"><title>Node1</title>
<g id="a_node1"><a xlink:title="A generic vector factory that creates vectors of type VectorType , based on a delegate that is inject...">
<polygon fill="#bfbfbf" stroke="black" points="54,-0.5 54,-30.5 199,-30.5 199,-0.5 54,-0.5"/>
<text text-anchor="start" x="62" y="-18.5" font-family="Helvetica,sans-Serif" font-size="10.00">LearnCs.Lib.VectorFactory</text>
<text text-anchor="middle" x="126.5" y="-7.5" font-family="Helvetica,sans-Serif" font-size="10.00">FromDelegate&lt; VectorType &gt;</text>
</a>
</g>
</g>
<!-- Node2 -->
<g id="node2" class="node"><title>Node2</title>
<g id="a_node2"><a xlink:href="../../d9/d07/classLearnCs_1_1Lib_1_1VectorFactoryBase.html" target="_top" xlink:title=" ">
<polygon fill="white" stroke="black" points="0,-67.5 0,-97.5 107,-97.5 107,-67.5 0,-67.5"/>
<text text-anchor="start" x="8" y="-85.5" font-family="Helvetica,sans-Serif" font-size="10.00">VectorFactoryBase&lt;</text>
<text text-anchor="middle" x="53.5" y="-74.5" font-family="Helvetica,sans-Serif" font-size="10.00"> VectorType &gt;</text>
</a>
</g>
</g>
<!-- Node2&#45;&gt;Node1 -->
<g id="edge1" class="edge"><title>Node2&#45;&gt;Node1</title>
<path fill="none" stroke="midnightblue" d="M76.9748,-60.5978C87.9975,-50.7831 100.844,-39.3442 110.691,-30.5765"/>
<polygon fill="midnightblue" stroke="midnightblue" points="74.4809,-58.132 69.3399,-67.396 79.1359,-63.3599 74.4809,-58.132"/>
</g>
<!-- Node3 -->
<g id="node3" class="node"><title>Node3</title>
<g id="a_node3"><a xlink:href="../../da/d36/interfaceLearnCs_1_1Lib_1_1IVectorFactory.html" target="_top" xlink:title=" ">
<polygon fill="white" stroke="black" points="125.5,-73 125.5,-92 273.5,-92 273.5,-73 125.5,-73"/>
<text text-anchor="middle" x="199.5" y="-80" font-family="Helvetica,sans-Serif" font-size="10.00">IVectorFactory&lt; VectorType &gt;</text>
</a>
</g>
</g>
<!-- Node3&#45;&gt;Node1 -->
<g id="edge2" class="edge"><title>Node3&#45;&gt;Node1</title>
<path fill="none" stroke="midnightblue" d="M182.011,-65.928C169.939,-55.1788 154.018,-41.0024 142.323,-30.589"/>
<polygon fill="midnightblue" stroke="midnightblue" points="179.859,-68.6978 189.655,-72.7338 184.514,-63.4698 179.859,-68.6978"/>
</g>
</g>
</svg>
