<?xml version="1.0" encoding="UTF-8" standalone="no"?>
<!DOCTYPE svg PUBLIC "-//W3C//DTD SVG 1.1//EN"
 "http://www.w3.org/Graphics/SVG/1.1/DTD/svg11.dtd">
<!-- Generated by graphviz version 2.38.0 (20140413.2041)
 -->
<!-- Title: IG.Num.IAnalysis Pages: 1 -->
<svg width="431pt" height="86pt"
 viewBox="0.00 0.00 431.00 85.50" xmlns="http://www.w3.org/2000/svg" xmlns:xlink="http://www.w3.org/1999/xlink">
<g id="graph0" class="graph" transform="scale(1 1) rotate(0) translate(4 81.5)">
<title>IG.Num.IAnalysis</title>
<polygon fill="white" stroke="none" points="-4,4 -4,-81.5 427,-81.5 427,4 -4,4"/>
<!-- Node1 -->
<g id="node1" class="node"><title>Node1</title>
<g id="a_node1"><a xlink:title="Interface for direct analysis classes used in optimization problems.">
<polygon fill="#bfbfbf" stroke="black" points="0,-22.5 0,-41.5 92,-41.5 92,-22.5 0,-22.5"/>
<text text-anchor="middle" x="46" y="-29.5" font-family="Helvetica,sans-Serif" font-size="10.00">IG.Num.IAnalysis</text>
</a>
</g>
</g>
<!-- Node2 -->
<g id="node2" class="node"><title>Node2</title>
<g id="a_node2"><a xlink:href="../../da/dba/classIG_1_1Lib_1_1LoadableScriptOptBase_1_1AnalysisScript.html" target="_top" xlink:title=" ">
<polygon fill="white" stroke="black" points="287.5,-47 287.5,-77 412.5,-77 412.5,-47 287.5,-47"/>
<text text-anchor="start" x="295.5" y="-65" font-family="Helvetica,sans-Serif" font-size="10.00">IG.Lib.LoadableScriptOpt</text>
<text text-anchor="middle" x="350" y="-54" font-family="Helvetica,sans-Serif" font-size="10.00">Base.AnalysisScript</text>
</a>
</g>
</g>
<!-- Node1&#45;&gt;Node2 -->
<g id="edge1" class="edge"><title>Node1&#45;&gt;Node2</title>
<path fill="none" stroke="midnightblue" d="M91.4883,-43.9578C103.278,-46.7075 116.053,-49.3155 128,-51 181.445,-58.5353 242.794,-61.1128 287.272,-61.9047"/>
<polygon fill="midnightblue" stroke="midnightblue" points="91.969,-40.4733 81.4265,-41.5247 90.3237,-47.2772 91.969,-40.4733"/>
</g>
<!-- Node3 -->
<g id="node3" class="node"><title>Node3</title>
<g id="a_node3"><a xlink:href="../../dd/d1e/classIG_1_1Num_1_1AnalysisBase.html" target="_top" xlink:title="Base class for direct analysis classes that define optimization problems. Represent the complete defi...">
<polygon fill="white" stroke="black" points="128,-22.5 128,-41.5 241,-41.5 241,-22.5 128,-22.5"/>
<text text-anchor="middle" x="184.5" y="-29.5" font-family="Helvetica,sans-Serif" font-size="10.00">IG.Num.AnalysisBase</text>
</a>
</g>
</g>
<!-- Node1&#45;&gt;Node3 -->
<g id="edge2" class="edge"><title>Node1&#45;&gt;Node3</title>
<path fill="none" stroke="midnightblue" d="M102.112,-32C110.483,-32 119.128,-32 127.517,-32"/>
<polygon fill="midnightblue" stroke="midnightblue" points="102.074,-28.5001 92.0735,-32 102.073,-35.5001 102.074,-28.5001"/>
</g>
<!-- Node4 -->
<g id="node4" class="node"><title>Node4</title>
<g id="a_node4"><a xlink:href="../../dc/d51/classIG_1_1Num_1_1OptFileAnalysisClient.html" target="_top" xlink:title="File analysis client. Passes direct analysis request to the server and gets analysis results from it.">
<polygon fill="white" stroke="black" points="277,-0.5 277,-19.5 423,-19.5 423,-0.5 277,-0.5"/>
<text text-anchor="middle" x="350" y="-7.5" font-family="Helvetica,sans-Serif" font-size="10.00">IG.Num.OptFileAnalysisClient</text>
</a>
</g>
</g>
<!-- Node1&#45;&gt;Node4 -->
<g id="edge5" class="edge"><title>Node1&#45;&gt;Node4</title>
<path fill="none" stroke="midnightblue" d="M90.1042,-20.063C102.263,-17.196 115.567,-14.5242 128,-13 177.417,-6.94161 233.513,-6.25379 276.822,-7.04884"/>
<polygon fill="midnightblue" stroke="midnightblue" points="89.0801,-16.7105 80.2046,-22.4963 90.751,-23.5081 89.0801,-16.7105"/>
</g>
<!-- Node3&#45;&gt;Node2 -->
<g id="edge3" class="edge"><title>Node3&#45;&gt;Node2</title>
<path fill="none" stroke="midnightblue" d="M247.877,-43.4453C260.806,-45.8177 274.421,-48.3158 287.325,-50.6835"/>
<polygon fill="midnightblue" stroke="midnightblue" points="248.149,-39.937 237.682,-41.5747 246.886,-46.822 248.149,-39.937"/>
</g>
<!-- Node3&#45;&gt;Node4 -->
<g id="edge4" class="edge"><title>Node3&#45;&gt;Node4</title>
<path fill="none" stroke="midnightblue" d="M251.468,-23.1236C260.241,-21.9431 269.266,-20.7287 278.119,-19.5376"/>
<polygon fill="midnightblue" stroke="midnightblue" points="250.754,-19.688 241.31,-24.4904 251.688,-26.6255 250.754,-19.688"/>
</g>
</g>
</svg>
