<?xml version="1.0" encoding="UTF-8" standalone="no"?>
<!DOCTYPE svg PUBLIC "-//W3C//DTD SVG 1.1//EN"
 "http://www.w3.org/Graphics/SVG/1.1/DTD/svg11.dtd">
<!-- Generated by graphviz version 2.38.0 (20140413.2041)
 -->
<!-- Title: IG.Num.ParallelJobDispatcherBase&lt; JobContainerType &gt; Pages: 1 -->
<svg width="301pt" height="162pt"
 viewBox="0.00 0.00 301.00 162.00" xmlns="http://www.w3.org/2000/svg" xmlns:xlink="http://www.w3.org/1999/xlink">
<g id="graph0" class="graph" transform="scale(1 1) rotate(0) translate(4 158)">
<title>IG.Num.ParallelJobDispatcherBase&lt; JobContainerType &gt;</title>
<polygon fill="white" stroke="none" points="-4,4 -4,-158 297,-158 297,4 -4,4"/>
<!-- Node1 -->
<g id="node1" class="node"><title>Node1</title>
<g id="a_node1"><a xlink:title="Parallel job dispatcher. Accepts job requests and dispatches jobs to parallel job servers when availa...">
<polygon fill="#bfbfbf" stroke="black" points="107.5,-67.5 107.5,-97.5 253.5,-97.5 253.5,-67.5 107.5,-67.5"/>
<text text-anchor="start" x="115.5" y="-85.5" font-family="Helvetica,sans-Serif" font-size="10.00">IG.Num.ParallelJobDispatcher</text>
<text text-anchor="middle" x="180.5" y="-74.5" font-family="Helvetica,sans-Serif" font-size="10.00">Base&lt; JobContainerType &gt;</text>
</a>
</g>
</g>
<!-- Node5 -->
<g id="node5" class="node"><title>Node5</title>
<g id="a_node5"><a xlink:href="../../dc/da7/classIG_1_1Num_1_1ParallelJobDispatcherGen.html" target="_top" xlink:title="Parallel job jerver for job containers that inherit from ParallelJobContainerGen&lt;InputType,...">
<polygon fill="white" stroke="black" points="104.5,-0.5 104.5,-30.5 256.5,-30.5 256.5,-0.5 104.5,-0.5"/>
<text text-anchor="start" x="112.5" y="-18.5" font-family="Helvetica,sans-Serif" font-size="10.00">IG::Num::ParallelJobDispatcher</text>
<text text-anchor="middle" x="180.5" y="-7.5" font-family="Helvetica,sans-Serif" font-size="10.00">Gen&lt; JobContainerType &gt;</text>
</a>
</g>
</g>
<!-- Node1&#45;&gt;Node5 -->
<g id="edge4" class="edge"><title>Node1&#45;&gt;Node5</title>
<path fill="none" stroke="midnightblue" d="M180.5,-57.1081C180.5,-48.1539 180.5,-38.3227 180.5,-30.5765"/>
<polygon fill="midnightblue" stroke="midnightblue" points="177,-57.3959 180.5,-67.396 184,-57.396 177,-57.3959"/>
</g>
<!-- Node2 -->
<g id="node2" class="node"><title>Node2</title>
<g id="a_node2"><a xlink:title=" ">
<polygon fill="white" stroke="#bfbfbf" points="0,-134.5 0,-153.5 133,-153.5 133,-134.5 0,-134.5"/>
<text text-anchor="middle" x="66.5" y="-141.5" font-family="Helvetica,sans-Serif" font-size="10.00">ParallelJobDispatcherBase</text>
</a>
</g>
</g>
<!-- Node2&#45;&gt;Node1 -->
<g id="edge1" class="edge"><title>Node2&#45;&gt;Node1</title>
<path fill="none" stroke="midnightblue" d="M91.7777,-129.807C110.131,-120.228 134.922,-107.289 153.632,-97.523"/>
<polygon fill="midnightblue" stroke="midnightblue" points="90.0791,-126.745 82.8334,-134.475 93.3181,-132.951 90.0791,-126.745"/>
</g>
<!-- Node3 -->
<g id="node3" class="node"><title>Node3</title>
<g id="a_node3"><a xlink:href="../../d3/db6/interfaceIG_1_1Lib_1_1ILockable.html" target="_top" xlink:title="Lockable object, has a Lock property that returns object on which lock must be performed in order to ...">
<polygon fill="white" stroke="black" points="151.5,-134.5 151.5,-153.5 209.5,-153.5 209.5,-134.5 151.5,-134.5"/>
<text text-anchor="middle" x="180.5" y="-141.5" font-family="Helvetica,sans-Serif" font-size="10.00">ILockable</text>
</a>
</g>
</g>
<!-- Node3&#45;&gt;Node1 -->
<g id="edge2" class="edge"><title>Node3&#45;&gt;Node1</title>
<path fill="none" stroke="midnightblue" d="M180.5,-124.235C180.5,-115.586 180.5,-105.497 180.5,-97.523"/>
<polygon fill="midnightblue" stroke="midnightblue" points="177,-124.475 180.5,-134.475 184,-124.475 177,-124.475"/>
</g>
<!-- Node4 -->
<g id="node4" class="node"><title>Node4</title>
<g id="a_node4"><a xlink:href="../../dc/d79/interfaceIG_1_1Lib_1_1IIdentifiable.html" target="_top" xlink:title="Classes whose instances have unique integer IDs.">
<polygon fill="white" stroke="black" points="228,-134.5 228,-153.5 293,-153.5 293,-134.5 228,-134.5"/>
<text text-anchor="middle" x="260.5" y="-141.5" font-family="Helvetica,sans-Serif" font-size="10.00">IIdentifiable</text>
</a>
</g>
</g>
<!-- Node4&#45;&gt;Node1 -->
<g id="edge3" class="edge"><title>Node4&#45;&gt;Node1</title>
<path fill="none" stroke="midnightblue" d="M240.961,-128.468C228.295,-119.047 211.883,-106.841 199.354,-97.523"/>
<polygon fill="midnightblue" stroke="midnightblue" points="238.925,-131.316 249.038,-134.475 243.103,-125.699 238.925,-131.316"/>
</g>
</g>
</svg>
