<?xml version="1.0" encoding="UTF-8" standalone="no"?>
<!DOCTYPE svg PUBLIC "-//W3C//DTD SVG 1.1//EN"
 "http://www.w3.org/Graphics/SVG/1.1/DTD/svg11.dtd">
<!-- Generated by graphviz version 2.38.0 (20140413.2041)
 -->
<!-- Title: IG.Neural.MapImputElementDefinitionDto Pages: 1 -->
<svg width="186pt" height="117pt"
 viewBox="0.00 0.00 186.00 117.00" xmlns="http://www.w3.org/2000/svg" xmlns:xlink="http://www.w3.org/1999/xlink">
<g id="graph0" class="graph" transform="scale(1 1) rotate(0) translate(4 113)">
<title>IG.Neural.MapImputElementDefinitionDto</title>
<polygon fill="white" stroke="none" points="-4,4 -4,-113 182,-113 182,4 -4,4"/>
<!-- Node1 -->
<g id="node1" class="node"><title>Node1</title>
<g id="a_node1"><a xlink:title="DTO (data transfer object) for neural data input element mapping definition.">
<polygon fill="#bfbfbf" stroke="black" points="19.5,-0.5 19.5,-30.5 158.5,-30.5 158.5,-0.5 19.5,-0.5"/>
<text text-anchor="start" x="27.5" y="-18.5" font-family="Helvetica,sans-Serif" font-size="10.00">IG.Neural.MapImputElement</text>
<text text-anchor="middle" x="89" y="-7.5" font-family="Helvetica,sans-Serif" font-size="10.00">DefinitionDto</text>
</a>
</g>
</g>
<!-- Node2 -->
<g id="node2" class="node"><title>Node2</title>
<g id="a_node2"><a xlink:href="../../da/db9/classIG_1_1Neural_1_1MapNeuralImputOutputElementDefinitionDto.html" target="_top" xlink:title=" ">
<polygon fill="white" stroke="black" points="0,-67.5 0,-108.5 178,-108.5 178,-67.5 0,-67.5"/>
<text text-anchor="start" x="8" y="-96.5" font-family="Helvetica,sans-Serif" font-size="10.00">MapNeuralImputOutputElement</text>
<text text-anchor="start" x="8" y="-85.5" font-family="Helvetica,sans-Serif" font-size="10.00">DefinitionDto&lt; InputMappingDefinition</text>
<text text-anchor="middle" x="89" y="-74.5" font-family="Helvetica,sans-Serif" font-size="10.00">Element &gt;</text>
</a>
</g>
</g>
<!-- Node2&#45;&gt;Node1 -->
<g id="edge1" class="edge"><title>Node2&#45;&gt;Node1</title>
<path fill="none" stroke="midnightblue" d="M89,-57.08C89,-48.0061 89,-38.4498 89,-30.8916"/>
<polygon fill="midnightblue" stroke="midnightblue" points="85.5001,-57.3618 89,-67.3618 92.5001,-57.3619 85.5001,-57.3618"/>
</g>
</g>
</svg>
