<?xml version="1.0" encoding="UTF-8" standalone="no"?>
<!DOCTYPE svg PUBLIC "-//W3C//DTD SVG 1.1//EN"
 "http://www.w3.org/Graphics/SVG/1.1/DTD/svg11.dtd">
<!-- Generated by graphviz version 2.38.0 (20140413.2041)
 -->
<!-- Title: LearnCs.Lib.IVectorFactory Pages: 1 -->
<svg width="314pt" height="88pt"
 viewBox="0.00 0.00 314.00 88.00" xmlns="http://www.w3.org/2000/svg" xmlns:xlink="http://www.w3.org/1999/xlink">
<g id="graph0" class="graph" transform="scale(1 1) rotate(0) translate(4 84)">
<title>LearnCs.Lib.IVectorFactory</title>
<polygon fill="white" stroke="none" points="-4,4 -4,-84 310,-84 310,4 -4,4"/>
<!-- Node1 -->
<g id="node1" class="node"><title>Node1</title>
<g id="a_node1"><a xlink:title=" ">
<polygon fill="#bfbfbf" stroke="black" points="0,-30 0,-49 135,-49 135,-30 0,-30"/>
<text text-anchor="middle" x="67.5" y="-37" font-family="Helvetica,sans-Serif" font-size="10.00">LearnCs.Lib.IVectorFactory</text>
</a>
</g>
</g>
<!-- Node2 -->
<g id="node2" class="node"><title>Node2</title>
<g id="a_node2"><a xlink:href="../../da/d36/interfaceLearnCs_1_1Lib_1_1IVectorFactory.html" target="_top" xlink:title="Generic vector factory interface.">
<polygon fill="white" stroke="black" points="171,-49.5 171,-79.5 306,-79.5 306,-49.5 171,-49.5"/>
<text text-anchor="start" x="179" y="-67.5" font-family="Helvetica,sans-Serif" font-size="10.00">LearnCs.Lib.IVectorFactory</text>
<text text-anchor="middle" x="238.5" y="-56.5" font-family="Helvetica,sans-Serif" font-size="10.00">&lt; VectorType &gt;</text>
</a>
</g>
</g>
<!-- Node1&#45;&gt;Node2 -->
<g id="edge1" class="edge"><title>Node1&#45;&gt;Node2</title>
<path fill="none" stroke="midnightblue" d="M142.868,-50.5012C152.159,-51.8756 161.615,-53.2745 170.78,-54.6301"/>
<polygon fill="midnightblue" stroke="midnightblue" points="143.278,-47.0239 132.874,-49.0227 142.254,-53.9485 143.278,-47.0239"/>
</g>
<!-- Node3 -->
<g id="node3" class="node"><title>Node3</title>
<g id="a_node3"><a xlink:href="../../d9/d07/classLearnCs_1_1Lib_1_1VectorFactoryBase.html" target="_top" xlink:title="Abstract base class for vector factories.">
<polygon fill="white" stroke="black" points="172,-0.5 172,-30.5 305,-30.5 305,-0.5 172,-0.5"/>
<text text-anchor="start" x="180" y="-18.5" font-family="Helvetica,sans-Serif" font-size="10.00">LearnCs.Lib.VectorFactory</text>
<text text-anchor="middle" x="238.5" y="-7.5" font-family="Helvetica,sans-Serif" font-size="10.00">Base&lt; VectorType &gt;</text>
</a>
</g>
</g>
<!-- Node1&#45;&gt;Node3 -->
<g id="edge2" class="edge"><title>Node1&#45;&gt;Node3</title>
<path fill="none" stroke="midnightblue" d="M145.223,-28.6044C154.08,-27.3467 163.051,-26.0726 171.744,-24.8381"/>
<polygon fill="midnightblue" stroke="midnightblue" points="144.702,-25.1432 135.293,-30.0146 145.686,-32.0737 144.702,-25.1432"/>
</g>
</g>
</svg>
