<?xml version="1.0" encoding="UTF-8" standalone="no"?>
<!DOCTYPE svg PUBLIC "-//W3C//DTD SVG 1.1//EN"
 "http://www.w3.org/Graphics/SVG/1.1/DTD/svg11.dtd">
<!-- Generated by graphviz version 2.38.0 (20140413.2041)
 -->
<!-- Title: IG.Lib.WaitDirectoryCreationLatence Pages: 1 -->
<svg width="483pt" height="367pt"
 viewBox="0.00 0.00 482.50 367.00" xmlns="http://www.w3.org/2000/svg" xmlns:xlink="http://www.w3.org/1999/xlink">
<g id="graph0" class="graph" transform="scale(1 1) rotate(0) translate(4 363)">
<title>IG.Lib.WaitDirectoryCreationLatence</title>
<polygon fill="white" stroke="none" points="-4,4 -4,-363 478.5,-363 478.5,4 -4,4"/>
<!-- Node1 -->
<g id="node1" class="node"><title>Node1</title>
<g id="a_node1"><a xlink:title="Implements blocking until the specified directory is created (becomes existent). Directory is specifi...">
<polygon fill="#bfbfbf" stroke="black" points="0,-0.5 0,-30.5 140,-30.5 140,-0.5 0,-0.5"/>
<text text-anchor="start" x="8" y="-18.5" font-family="Helvetica,sans-Serif" font-size="10.00">IG.Lib.WaitDirectoryCreation</text>
<text text-anchor="middle" x="70" y="-7.5" font-family="Helvetica,sans-Serif" font-size="10.00">Latence</text>
</a>
</g>
</g>
<!-- Node2 -->
<g id="node2" class="node"><title>Node2</title>
<g id="a_node2"><a xlink:href="../../d4/d27/classIG_1_1Lib_1_1WaitFileEventLatenceBase.html" target="_top" xlink:title="Base class for classes that impelement methods that block until a file or directory is created or del...">
<polygon fill="white" stroke="black" points="3,-68.5 3,-87.5 137,-87.5 137,-68.5 3,-68.5"/>
<text text-anchor="middle" x="70" y="-75.5" font-family="Helvetica,sans-Serif" font-size="10.00">WaitFileEventLatenceBase</text>
</a>
</g>
</g>
<!-- Node2&#45;&gt;Node1 -->
<g id="edge1" class="edge"><title>Node2&#45;&gt;Node1</title>
<path fill="none" stroke="midnightblue" d="M70,-58.2154C70,-49.3565 70,-38.9577 70,-30.7587"/>
<polygon fill="midnightblue" stroke="midnightblue" points="66.5001,-58.3318 70,-68.3318 73.5001,-58.3319 66.5001,-58.3318"/>
</g>
<!-- Node3 -->
<g id="node3" class="node"><title>Node3</title>
<g id="a_node3"><a xlink:href="../../da/d67/classIG_1_1Lib_1_1WaitCondition.html" target="_top" xlink:title="Provides a framework for blocking execution until the specified condition becomes satisfied....">
<polygon fill="white" stroke="black" points="177.5,-125.5 177.5,-144.5 254.5,-144.5 254.5,-125.5 177.5,-125.5"/>
<text text-anchor="middle" x="216" y="-132.5" font-family="Helvetica,sans-Serif" font-size="10.00">WaitCondition</text>
</a>
</g>
</g>
<!-- Node3&#45;&gt;Node2 -->
<g id="edge2" class="edge"><title>Node3&#45;&gt;Node2</title>
<path fill="none" stroke="midnightblue" d="M183.578,-121.786C155.971,-111.386 117.017,-96.7119 92.6523,-87.5334"/>
<polygon fill="midnightblue" stroke="midnightblue" points="182.596,-125.156 193.188,-125.406 185.063,-118.606 182.596,-125.156"/>
</g>
<!-- Node4 -->
<g id="node4" class="node"><title>Node4</title>
<g id="a_node4"><a xlink:href="../../df/dea/classIG_1_1Lib_1_1WaitConditionBase.html" target="_top" xlink:title="Base class for objects that perform waiting until a condition is fulfilled.">
<polygon fill="white" stroke="black" points="166,-182.5 166,-201.5 266,-201.5 266,-182.5 166,-182.5"/>
<text text-anchor="middle" x="216" y="-189.5" font-family="Helvetica,sans-Serif" font-size="10.00">WaitConditionBase</text>
</a>
</g>
</g>
<!-- Node4&#45;&gt;Node3 -->
<g id="edge3" class="edge"><title>Node4&#45;&gt;Node3</title>
<path fill="none" stroke="midnightblue" d="M216,-172.117C216,-162.817 216,-152.056 216,-144.715"/>
<polygon fill="midnightblue" stroke="midnightblue" points="212.5,-172.406 216,-182.406 219.5,-172.406 212.5,-172.406"/>
</g>
<!-- Node5 -->
<g id="node5" class="node"><title>Node5</title>
<g id="a_node5"><a xlink:href="../../de/d1e/interfaceIG_1_1Lib_1_1IWaitCondition.html" target="_top" xlink:title="Interface for classes that implement blocking until a specified condition is met.">
<polygon fill="white" stroke="black" points="93,-239.5 93,-258.5 173,-258.5 173,-239.5 93,-239.5"/>
<text text-anchor="middle" x="133" y="-246.5" font-family="Helvetica,sans-Serif" font-size="10.00">IWaitCondition</text>
</a>
</g>
</g>
<!-- Node5&#45;&gt;Node2 -->
<g id="edge16" class="edge"><title>Node5&#45;&gt;Node2</title>
<path fill="none" stroke="midnightblue" d="M82.7628,-240.346C59.8841,-234.077 34.8662,-222.685 21,-202 -4.98207,-163.241 41.053,-108.609 61.228,-87.6492"/>
<polygon fill="midnightblue" stroke="midnightblue" points="82.1888,-243.809 92.7361,-242.806 83.8655,-237.013 82.1888,-243.809"/>
</g>
<!-- Node5&#45;&gt;Node3 -->
<g id="edge7" class="edge"><title>Node5&#45;&gt;Node3</title>
<path fill="none" stroke="midnightblue" d="M136.862,-229.195C140.406,-215.204 146.703,-196.162 157,-182 168.686,-165.927 187.478,-152.636 200.708,-144.542"/>
<polygon fill="midnightblue" stroke="midnightblue" points="133.404,-228.614 134.586,-239.143 140.228,-230.176 133.404,-228.614"/>
</g>
<!-- Node5&#45;&gt;Node4 -->
<g id="edge4" class="edge"><title>Node5&#45;&gt;Node4</title>
<path fill="none" stroke="midnightblue" d="M154.392,-233.824C169.814,-223.605 190.122,-210.148 203.122,-201.533"/>
<polygon fill="midnightblue" stroke="midnightblue" points="152.371,-230.965 145.969,-239.406 156.238,-236.8 152.371,-230.965"/>
</g>
<!-- Node10 -->
<g id="node10" class="node"><title>Node10</title>
<g id="a_node10"><a xlink:href="../../d2/d48/interfaceIG_1_1Lib_1_1IWaitFileEvent.html" target="_top" xlink:title="Interface for classes that provide waiting for specific file events (such as ceration or deletion of ...">
<polygon fill="white" stroke="black" points="30.5,-182.5 30.5,-201.5 109.5,-201.5 109.5,-182.5 30.5,-182.5"/>
<text text-anchor="middle" x="70" y="-189.5" font-family="Helvetica,sans-Serif" font-size="10.00">IWaitFileEvent</text>
</a>
</g>
</g>
<!-- Node5&#45;&gt;Node10 -->
<g id="edge14" class="edge"><title>Node5&#45;&gt;Node10</title>
<path fill="none" stroke="midnightblue" d="M115.484,-232.708C104.037,-222.715 89.4999,-210.024 79.9825,-201.715"/>
<polygon fill="midnightblue" stroke="midnightblue" points="113.321,-235.466 123.156,-239.406 117.925,-230.193 113.321,-235.466"/>
</g>
<!-- Node6 -->
<g id="node6" class="node"><title>Node6</title>
<g id="a_node6"><a xlink:href="../../d3/db6/interfaceIG_1_1Lib_1_1ILockable.html" target="_top" xlink:title="Lockable object, has a Lock property that returns object on which lock must be performed in order to ...">
<polygon fill="white" stroke="black" points="210,-339.5 210,-358.5 268,-358.5 268,-339.5 210,-339.5"/>
<text text-anchor="middle" x="239" y="-346.5" font-family="Helvetica,sans-Serif" font-size="10.00">ILockable</text>
</a>
</g>
</g>
<!-- Node6&#45;&gt;Node3 -->
<g id="edge8" class="edge"><title>Node6&#45;&gt;Node3</title>
<path fill="none" stroke="midnightblue" d="M249.992,-330.377C268.017,-299.042 299.522,-232.212 275,-182 266.622,-164.844 248.411,-152.223 234.423,-144.586"/>
<polygon fill="midnightblue" stroke="midnightblue" points="246.823,-328.857 244.702,-339.237 252.833,-332.445 246.823,-328.857"/>
</g>
<!-- Node6&#45;&gt;Node4 -->
<g id="edge6" class="edge"><title>Node6&#45;&gt;Node4</title>
<path fill="none" stroke="midnightblue" d="M236.225,-329.3C231.23,-295.636 220.908,-226.074 217.288,-201.681"/>
<polygon fill="midnightblue" stroke="midnightblue" points="232.768,-329.844 237.698,-339.222 239.692,-328.817 232.768,-329.844"/>
</g>
<!-- Node6&#45;&gt;Node5 -->
<g id="edge5" class="edge"><title>Node6&#45;&gt;Node5</title>
<path fill="none" stroke="midnightblue" d="M208.313,-334.918C200.928,-331.022 193.347,-326.343 187,-321 164.964,-302.449 146.443,-273.375 137.962,-258.861"/>
<polygon fill="midnightblue" stroke="midnightblue" points="206.937,-338.142 217.454,-339.425 210.032,-331.864 206.937,-338.142"/>
</g>
<!-- Node7 -->
<g id="node7" class="node"><title>Node7</title>
<g id="a_node7"><a xlink:href="../../de/de7/classIG_1_1Lib_1_1StopWatch1.html" target="_top" xlink:title="Timer for measuring execution times and other intervals of time elapsed between successive events....">
<polygon fill="white" stroke="black" points="322.5,-239.5 322.5,-258.5 421.5,-258.5 421.5,-239.5 322.5,-239.5"/>
<text text-anchor="middle" x="372" y="-246.5" font-family="Helvetica,sans-Serif" font-size="10.00">IG.Lib.StopWatch1</text>
</a>
</g>
</g>
<!-- Node6&#45;&gt;Node7 -->
<g id="edge10" class="edge"><title>Node6&#45;&gt;Node7</title>
<path fill="none" stroke="midnightblue" d="M277.694,-336.474C288.031,-332.451 298.86,-327.322 308,-321 333.659,-303.253 356.147,-273.281 366.283,-258.611"/>
<polygon fill="midnightblue" stroke="midnightblue" points="276.209,-333.289 268.005,-339.994 278.599,-339.869 276.209,-333.289"/>
</g>
<!-- Node6&#45;&gt;Node10 -->
<g id="edge15" class="edge"><title>Node6&#45;&gt;Node10</title>
<path fill="none" stroke="midnightblue" d="M229.799,-330.314C213.794,-299.558 182.47,-239.428 182,-239 161.264,-220.092 131.697,-208.394 108.149,-201.53"/>
<polygon fill="midnightblue" stroke="midnightblue" points="226.853,-332.234 234.574,-339.489 233.063,-329.003 226.853,-332.234"/>
</g>
<!-- Node7&#45;&gt;Node3 -->
<g id="edge9" class="edge"><title>Node7&#45;&gt;Node3</title>
<path fill="none" stroke="#9a32cd" stroke-dasharray="5,2" d="M363.191,-230.36C352.651,-211.031 333.222,-180.457 308,-163 292.26,-152.105 272.096,-145.55 254.659,-141.635"/>
<polygon fill="#9a32cd" stroke="#9a32cd" points="360.138,-232.076 367.875,-239.313 366.341,-228.83 360.138,-232.076"/>
<text text-anchor="middle" x="360.5" y="-189.5" font-family="Helvetica,sans-Serif" font-size="10.00"> _timer</text>
</g>
<!-- Node8 -->
<g id="node8" class="node"><title>Node8</title>
<g id="a_node8"><a xlink:href="../../dc/d79/interfaceIG_1_1Lib_1_1IIdentifiable.html" target="_top" xlink:title="Classes whose instances have unique integer IDs.">
<polygon fill="white" stroke="black" points="409.5,-339.5 409.5,-358.5 474.5,-358.5 474.5,-339.5 409.5,-339.5"/>
<text text-anchor="middle" x="442" y="-346.5" font-family="Helvetica,sans-Serif" font-size="10.00">IIdentifiable</text>
</a>
</g>
</g>
<!-- Node8&#45;&gt;Node7 -->
<g id="edge11" class="edge"><title>Node8&#45;&gt;Node7</title>
<path fill="none" stroke="midnightblue" d="M442.701,-328.676C442.283,-313.206 439.39,-291.733 428,-277 421.531,-268.632 411.808,-262.714 402.271,-258.596"/>
<polygon fill="midnightblue" stroke="midnightblue" points="439.199,-329.103 442.638,-339.124 446.199,-329.146 439.199,-329.103"/>
</g>
<!-- Node9 -->
<g id="node9" class="node"><title>Node9</title>
<g id="a_node9"><a xlink:title=" ">
<polygon fill="white" stroke="#bfbfbf" points="346.5,-339.5 346.5,-358.5 387.5,-358.5 387.5,-339.5 346.5,-339.5"/>
<text text-anchor="middle" x="367" y="-346.5" font-family="Helvetica,sans-Serif" font-size="10.00">static</text>
</a>
</g>
</g>
<!-- Node9&#45;&gt;Node7 -->
<g id="edge12" class="edge"><title>Node9&#45;&gt;Node7</title>
<path fill="none" stroke="#9a32cd" stroke-dasharray="5,2" d="M366.585,-329.165C366.434,-314.837 366.575,-294.646 368,-277 368.488,-270.954 369.488,-264.204 370.366,-258.966"/>
<polygon fill="#9a32cd" stroke="#9a32cd" points="363.087,-329.297 366.75,-339.238 370.086,-329.182 363.087,-329.297"/>
<text text-anchor="middle" x="398" y="-313" font-family="Helvetica,sans-Serif" font-size="10.00"> lastId</text>
<text text-anchor="middle" x="398" y="-302" font-family="Helvetica,sans-Serif" font-size="10.00">_staticLock</text>
<text text-anchor="middle" x="398" y="-291" font-family="Helvetica,sans-Serif" font-size="10.00">numWarnCpu</text>
<text text-anchor="middle" x="398" y="-280" font-family="Helvetica,sans-Serif" font-size="10.00">MaxWarnCpu</text>
</g>
<!-- Node10&#45;&gt;Node2 -->
<g id="edge13" class="edge"><title>Node10&#45;&gt;Node2</title>
<path fill="none" stroke="midnightblue" d="M70,-172.009C70,-147.477 70,-105.786 70,-87.7476"/>
<polygon fill="midnightblue" stroke="midnightblue" points="66.5001,-172.212 70,-182.212 73.5001,-172.212 66.5001,-172.212"/>
</g>
</g>
</svg>
