<?xml version="1.0" encoding="UTF-8" standalone="no"?>
<!DOCTYPE svg PUBLIC "-//W3C//DTD SVG 1.1//EN"
 "http://www.w3.org/Graphics/SVG/1.1/DTD/svg11.dtd">
<!-- Generated by graphviz version 2.38.0 (20140413.2041)
 -->
<!-- Title: IG.Net.PortScannerSimple Pages: 1 -->
<svg width="142pt" height="106pt"
 viewBox="0.00 0.00 142.00 106.00" xmlns="http://www.w3.org/2000/svg" xmlns:xlink="http://www.w3.org/1999/xlink">
<g id="graph0" class="graph" transform="scale(1 1) rotate(0) translate(4 102)">
<title>IG.Net.PortScannerSimple</title>
<polygon fill="white" stroke="none" points="-4,4 -4,-102 138,-102 138,4 -4,4"/>
<!-- Node1 -->
<g id="node1" class="node"><title>Node1</title>
<g id="a_node1"><a xlink:title="Simple TCP port scanner, multi&#45;threaded.">
<polygon fill="#bfbfbf" stroke="black" points="1.5,-0.5 1.5,-19.5 132.5,-19.5 132.5,-0.5 1.5,-0.5"/>
<text text-anchor="middle" x="67" y="-7.5" font-family="Helvetica,sans-Serif" font-size="10.00">IG.Net.PortScannerSimple</text>
</a>
</g>
</g>
<!-- Node2 -->
<g id="node2" class="node"><title>Node2</title>
<g id="a_node2"><a xlink:href="../../d0/d6a/classIG_1_1Net_1_1PortScannerSimple_1_1PortList.html" target="_top" xlink:title=" ">
<polygon fill="white" stroke="black" points="0,-67.5 0,-97.5 134,-97.5 134,-67.5 0,-67.5"/>
<text text-anchor="start" x="8" y="-85.5" font-family="Helvetica,sans-Serif" font-size="10.00">IG.Net.PortScannerSimple.</text>
<text text-anchor="middle" x="67" y="-74.5" font-family="Helvetica,sans-Serif" font-size="10.00">PortList</text>
</a>
</g>
</g>
<!-- Node2&#45;&gt;Node1 -->
<g id="edge1" class="edge"><title>Node2&#45;&gt;Node1</title>
<path fill="none" stroke="#9a32cd" stroke-dasharray="5,2" d="M67,-57.0913C67,-44.2136 67,-29.1974 67,-19.8932"/>
<polygon fill="#9a32cd" stroke="#9a32cd" points="63.5001,-57.2332 67,-67.2333 70.5001,-57.2333 63.5001,-57.2332"/>
<text text-anchor="middle" x="85" y="-41" font-family="Helvetica,sans-Serif" font-size="10.00"> portList</text>
</g>
</g>
</svg>
