<?xml version="1.0" encoding="UTF-8" standalone="no"?>
<!DOCTYPE svg PUBLIC "-//W3C//DTD SVG 1.1//EN"
 "http://www.w3.org/Graphics/SVG/1.1/DTD/svg11.dtd">
<!-- Generated by graphviz version 2.38.0 (20140413.2041)
 -->
<!-- Title: IG.Num.IVectorFunction Pages: 1 -->
<svg width="956pt" height="249pt"
 viewBox="0.00 0.00 956.00 249.22" xmlns="http://www.w3.org/2000/svg" xmlns:xlink="http://www.w3.org/1999/xlink">
<g id="graph0" class="graph" transform="scale(1 1) rotate(0) translate(4 245.22)">
<title>IG.Num.IVectorFunction</title>
<polygon fill="white" stroke="none" points="-4,4 -4,-245.22 952,-245.22 952,4 -4,4"/>
<!-- Node1 -->
<g id="node1" class="node"><title>Node1</title>
<g id="a_node1"><a xlink:title="Vector function of a vector argument.">
<polygon fill="#bfbfbf" stroke="black" points="94,-112.72 94,-131.72 215,-131.72 215,-112.72 94,-112.72"/>
<text text-anchor="middle" x="154.5" y="-119.72" font-family="Helvetica,sans-Serif" font-size="10.00">IG.Num.IVectorFunction</text>
</a>
</g>
</g>
<!-- Node3 -->
<g id="node3" class="node"><title>Node3</title>
<g id="a_node3"><a xlink:href="../../da/d4f/classIG_1_1Num_1_1LinearBasis.html" target="_top" xlink:title="Vector function containing lineer basis in a n&#45;dimensional vector space. Composed of n+1 functions: 1...">
<polygon fill="white" stroke="black" points="635.5,-221.72 635.5,-240.72 739.5,-240.72 739.5,-221.72 635.5,-221.72"/>
<text text-anchor="middle" x="687.5" y="-228.72" font-family="Helvetica,sans-Serif" font-size="10.00">IG.Num.LinearBasis</text>
</a>
</g>
</g>
<!-- Node1&#45;&gt;Node3 -->
<g id="edge2" class="edge"><title>Node1&#45;&gt;Node3</title>
<path fill="none" stroke="midnightblue" d="M172.016,-138.795C189.816,-155.501 219.812,-180.448 251,-192.22 382.564,-241.878 551.767,-240.09 635.243,-235.308"/>
<polygon fill="midnightblue" stroke="midnightblue" points="174.364,-136.197 164.735,-131.776 169.505,-141.236 174.364,-136.197"/>
</g>
<!-- Node5 -->
<g id="node5" class="node"><title>Node5</title>
<g id="a_node5"><a xlink:href="../../d2/de4/classIG_1_1Num_1_1QuadraticBasis.html" target="_top" xlink:title="Vector function containing quadratic basis in a n&#45;dimensional vector space. Composed of (n+1)*(n+2)/2...">
<polygon fill="white" stroke="black" points="628,-161.72 628,-180.72 747,-180.72 747,-161.72 628,-161.72"/>
<text text-anchor="middle" x="687.5" y="-168.72" font-family="Helvetica,sans-Serif" font-size="10.00">IG.Num.QuadraticBasis</text>
</a>
</g>
</g>
<!-- Node1&#45;&gt;Node5 -->
<g id="edge4" class="edge"><title>Node1&#45;&gt;Node5</title>
<path fill="none" stroke="midnightblue" d="M180.176,-136.755C198.941,-147.075 225.751,-160.285 251,-167.22 381.692,-203.115 542.879,-190.704 627.78,-180.036"/>
<polygon fill="midnightblue" stroke="midnightblue" points="181.831,-133.67 171.4,-131.815 178.398,-139.77 181.831,-133.67"/>
</g>
<!-- Node7 -->
<g id="node7" class="node"><title>Node7</title>
<g id="a_node7"><a xlink:href="../../da/de7/classIG_1_1Num_1_1VectorFunctionBase.html" target="_top" xlink:title="Base class for defining Vector functions whose evaluation is defined in bulk, and evaluation of indiv...">
<polygon fill="white" stroke="black" points="428,-30.7195 428,-49.7195 569,-49.7195 569,-30.7195 428,-30.7195"/>
<text text-anchor="middle" x="498.5" y="-37.7195" font-family="Helvetica,sans-Serif" font-size="10.00">IG.Num.VectorFunctionBase</text>
</a>
</g>
</g>
<!-- Node1&#45;&gt;Node7 -->
<g id="edge6" class="edge"><title>Node1&#45;&gt;Node7</title>
<path fill="none" stroke="midnightblue" d="M175.464,-106.383C193.919,-92.6863 222.688,-73.6464 251,-64.2195 308.522,-45.0665 377.458,-39.7311 427.785,-38.8026"/>
<polygon fill="midnightblue" stroke="midnightblue" points="173.118,-103.77 167.281,-112.612 177.358,-109.34 173.118,-103.77"/>
</g>
<!-- Node8 -->
<g id="node8" class="node"><title>Node8</title>
<g id="a_node8"><a xlink:href="../../dc/d48/classIG_1_1Num_1_1VectorFunctionExamples_1_1RosenrockAndCircle.html" target="_top" xlink:title="Example &#45; 2 component vector function of 2 variables. The first component is the Rosenbrock function ...">
<polygon fill="white" stroke="black" points="605,-13.2195 605,-43.2195 770,-43.2195 770,-13.2195 605,-13.2195"/>
<text text-anchor="start" x="613" y="-31.2195" font-family="Helvetica,sans-Serif" font-size="10.00">IG.Num.VectorFunctionExamples.</text>
<text text-anchor="middle" x="687.5" y="-20.2195" font-family="Helvetica,sans-Serif" font-size="10.00">RosenrockAndCircle</text>
</a>
</g>
</g>
<!-- Node1&#45;&gt;Node8 -->
<g id="edge15" class="edge"><title>Node1&#45;&gt;Node8</title>
<path fill="none" stroke="midnightblue" d="M168.943,-104.875C185.713,-84.6828 216.426,-52.194 251,-37.2195 368.624,13.7248 521.406,1.15316 611.225,-13.1588"/>
<polygon fill="midnightblue" stroke="midnightblue" points="166.194,-102.708 162.638,-112.689 171.642,-107.104 166.194,-102.708"/>
</g>
<!-- Node9 -->
<g id="node9" class="node"><title>Node9</title>
<g id="a_node9"><a xlink:href="../../dc/df8/classIG_1_1Num_1_1VectorFunctionBaseComponentWise.html" target="_top" xlink:title="Base class for defining Vector functions whose component&#45;wise evaluation is defined directly.">
<polygon fill="white" stroke="black" points="428,-145.22 428,-175.22 569,-175.22 569,-145.22 428,-145.22"/>
<text text-anchor="start" x="436" y="-163.22" font-family="Helvetica,sans-Serif" font-size="10.00">IG.Num.VectorFunctionBase</text>
<text text-anchor="middle" x="498.5" y="-152.22" font-family="Helvetica,sans-Serif" font-size="10.00">ComponentWise</text>
</a>
</g>
</g>
<!-- Node1&#45;&gt;Node9 -->
<g id="edge8" class="edge"><title>Node1&#45;&gt;Node9</title>
<path fill="none" stroke="midnightblue" d="M196.989,-134.467C213.634,-138.9 233.086,-143.485 251,-146.22 310.217,-155.258 378.239,-158.601 427.806,-159.772"/>
<polygon fill="midnightblue" stroke="midnightblue" points="197.595,-131.004 187.026,-131.743 195.749,-137.756 197.595,-131.004"/>
</g>
<!-- Node10 -->
<g id="node10" class="node"><title>Node10</title>
<g id="a_node10"><a xlink:href="../../db/db9/classIG_1_1Num_1_1VectorFunctionFromScalar.html" target="_top" xlink:title=" ">
<polygon fill="white" stroke="black" points="617,-75.2195 617,-105.22 758,-105.22 758,-75.2195 617,-75.2195"/>
<text text-anchor="start" x="625" y="-93.2195" font-family="Helvetica,sans-Serif" font-size="10.00">IG.Num.VectorFunctionFrom</text>
<text text-anchor="middle" x="687.5" y="-82.2195" font-family="Helvetica,sans-Serif" font-size="10.00">Scalar</text>
</a>
</g>
</g>
<!-- Node1&#45;&gt;Node10 -->
<g id="edge16" class="edge"><title>Node1&#45;&gt;Node10</title>
<path fill="none" stroke="midnightblue" d="M194.483,-109.751C211.628,-104.859 232.121,-99.804 251,-97.2195 379.111,-79.6813 530.386,-82.4498 616.719,-86.2217"/>
<polygon fill="midnightblue" stroke="midnightblue" points="193.421,-106.415 184.813,-112.593 195.394,-113.131 193.421,-106.415"/>
</g>
<!-- Node11 -->
<g id="node11" class="node"><title>Node11</title>
<g id="a_node11"><a xlink:href="../../dc/d23/classIG_1_1Num_1_1VectorFunctionBaseGeneral.html" target="_top" xlink:title="Base class for VectorFunctionBase and VectorFunctionBaseComponentwise. In general,...">
<polygon fill="white" stroke="black" points="251,-107.22 251,-137.22 392,-137.22 392,-107.22 251,-107.22"/>
<text text-anchor="start" x="259" y="-125.22" font-family="Helvetica,sans-Serif" font-size="10.00">IG.Num.VectorFunctionBase</text>
<text text-anchor="middle" x="321.5" y="-114.22" font-family="Helvetica,sans-Serif" font-size="10.00">General</text>
</a>
</g>
</g>
<!-- Node1&#45;&gt;Node11 -->
<g id="edge12" class="edge"><title>Node1&#45;&gt;Node11</title>
<path fill="none" stroke="midnightblue" d="M225.296,-122.22C233.775,-122.22 242.438,-122.22 250.914,-122.22"/>
<polygon fill="midnightblue" stroke="midnightblue" points="225.069,-118.72 215.069,-122.22 225.069,-125.72 225.069,-118.72"/>
</g>
<!-- Node2 -->
<g id="node2" class="node"><title>Node2</title>
<g id="a_node2"><a xlink:href="../../d3/db6/interfaceIG_1_1Lib_1_1ILockable.html" target="_top" xlink:title="Lockable object, has a Lock property that returns object on which lock must be performed in order to ...">
<polygon fill="white" stroke="black" points="0,-112.72 0,-131.72 58,-131.72 58,-112.72 0,-112.72"/>
<text text-anchor="middle" x="29" y="-119.72" font-family="Helvetica,sans-Serif" font-size="10.00">ILockable</text>
</a>
</g>
</g>
<!-- Node2&#45;&gt;Node1 -->
<g id="edge1" class="edge"><title>Node2&#45;&gt;Node1</title>
<path fill="none" stroke="midnightblue" d="M68.264,-122.22C76.3759,-122.22 85.1233,-122.22 93.816,-122.22"/>
<polygon fill="midnightblue" stroke="midnightblue" points="68.0241,-118.72 58.0241,-122.22 68.024,-125.72 68.0241,-118.72"/>
</g>
<!-- Node4 -->
<g id="node4" class="node"><title>Node4</title>
<g id="a_node4"><a xlink:href="../../d9/d57/classIG_1_1Num_1_1LinearBasisSafer.html" target="_top" xlink:title="The same as LinearBasis, just that it has more meaningful error reporting (but is therefore slower).">
<polygon fill="white" stroke="black" points="814,-221.72 814,-240.72 940,-240.72 940,-221.72 814,-221.72"/>
<text text-anchor="middle" x="877" y="-228.72" font-family="Helvetica,sans-Serif" font-size="10.00">IG.Num.LinearBasisSafer</text>
</a>
</g>
</g>
<!-- Node3&#45;&gt;Node4 -->
<g id="edge3" class="edge"><title>Node3&#45;&gt;Node4</title>
<path fill="none" stroke="midnightblue" d="M749.901,-231.22C770.4,-231.22 793.251,-231.22 813.809,-231.22"/>
<polygon fill="midnightblue" stroke="midnightblue" points="749.735,-227.72 739.735,-231.22 749.735,-234.72 749.735,-227.72"/>
</g>
<!-- Node6 -->
<g id="node6" class="node"><title>Node6</title>
<g id="a_node6"><a xlink:href="../../d6/d46/classIG_1_1Num_1_1QuadraticBasisSafer.html" target="_top" xlink:title="The same as QuadraticBasis, just that it has more meaningful exceptions.">
<polygon fill="white" stroke="black" points="806,-161.72 806,-180.72 948,-180.72 948,-161.72 806,-161.72"/>
<text text-anchor="middle" x="877" y="-168.72" font-family="Helvetica,sans-Serif" font-size="10.00">IG.Num.QuadraticBasisSafer</text>
</a>
</g>
</g>
<!-- Node5&#45;&gt;Node6 -->
<g id="edge5" class="edge"><title>Node5&#45;&gt;Node6</title>
<path fill="none" stroke="midnightblue" d="M757.264,-171.22C773.054,-171.22 789.865,-171.22 805.719,-171.22"/>
<polygon fill="midnightblue" stroke="midnightblue" points="757.055,-167.72 747.055,-171.22 757.055,-174.72 757.055,-167.72"/>
</g>
<!-- Node7&#45;&gt;Node8 -->
<g id="edge7" class="edge"><title>Node7&#45;&gt;Node8</title>
<path fill="none" stroke="midnightblue" d="M579.331,-35.0967C587.769,-34.5552 596.36,-34.0039 604.819,-33.4611"/>
<polygon fill="midnightblue" stroke="midnightblue" points="578.887,-31.6179 569.132,-35.7512 579.336,-38.6035 578.887,-31.6179"/>
</g>
<!-- Node9&#45;&gt;Node3 -->
<g id="edge9" class="edge"><title>Node9&#45;&gt;Node3</title>
<path fill="none" stroke="midnightblue" d="M548.554,-178.844C584.72,-192.576 632.446,-210.696 661.232,-221.626"/>
<polygon fill="midnightblue" stroke="midnightblue" points="549.749,-175.554 539.158,-175.277 547.264,-182.099 549.749,-175.554"/>
</g>
<!-- Node9&#45;&gt;Node5 -->
<g id="edge10" class="edge"><title>Node9&#45;&gt;Node5</title>
<path fill="none" stroke="midnightblue" d="M579.202,-164.908C595.523,-165.868 612.417,-166.862 627.837,-167.769"/>
<polygon fill="midnightblue" stroke="midnightblue" points="579.32,-161.409 569.132,-164.316 578.909,-168.397 579.32,-161.409"/>
</g>
<!-- Node9&#45;&gt;Node10 -->
<g id="edge11" class="edge"><title>Node9&#45;&gt;Node10</title>
<path fill="none" stroke="midnightblue" d="M549.152,-141.633C579.453,-130.291 617.695,-115.975 646.128,-105.332"/>
<polygon fill="midnightblue" stroke="midnightblue" points="547.755,-138.419 539.616,-145.203 550.209,-144.975 547.755,-138.419"/>
</g>
<!-- Node11&#45;&gt;Node7 -->
<g id="edge13" class="edge"><title>Node11&#45;&gt;Node7</title>
<path fill="none" stroke="midnightblue" d="M363.784,-102.875C399.433,-86.1711 449.434,-62.7417 477.088,-49.7839"/>
<polygon fill="midnightblue" stroke="midnightblue" points="362.168,-99.7671 354.598,-107.179 365.138,-106.106 362.168,-99.7671"/>
</g>
<!-- Node11&#45;&gt;Node9 -->
<g id="edge14" class="edge"><title>Node11&#45;&gt;Node9</title>
<path fill="none" stroke="midnightblue" d="M401.628,-139.402C410.515,-141.331 419.517,-143.286 428.265,-145.186"/>
<polygon fill="midnightblue" stroke="midnightblue" points="402.18,-135.94 391.665,-137.238 400.694,-142.78 402.18,-135.94"/>
</g>
</g>
</svg>
