<?xml version="1.0" encoding="UTF-8" standalone="no"?>
<!DOCTYPE svg PUBLIC "-//W3C//DTD SVG 1.1//EN"
 "http://www.w3.org/Graphics/SVG/1.1/DTD/svg11.dtd">
<!-- Generated by graphviz version 2.38.0 (20140413.2041)
 -->
<!-- Title: IG.Num.DistanceComparer&lt; PointContainerType, PointType &gt; Pages: 1 -->
<svg width="454pt" height="107pt"
 viewBox="0.00 0.00 454.00 106.50" xmlns="http://www.w3.org/2000/svg" xmlns:xlink="http://www.w3.org/1999/xlink">
<g id="graph0" class="graph" transform="scale(1 1) rotate(0) translate(4 102.5)">
<title>IG.Num.DistanceComparer&lt; PointContainerType, PointType &gt;</title>
<polygon fill="white" stroke="none" points="-4,4 -4,-102.5 450,-102.5 450,4 -4,4"/>
<!-- Node1 -->
<g id="node1" class="node"><title>Node1</title>
<g id="a_node1"><a xlink:title="Class that is used to calculate and compare distances between point containers.">
<polygon fill="#bfbfbf" stroke="black" points="313,-38.5 313,-79.5 446,-79.5 446,-38.5 313,-38.5"/>
<text text-anchor="start" x="321" y="-67.5" font-family="Helvetica,sans-Serif" font-size="10.00">IG.Num.DistanceComparer</text>
<text text-anchor="start" x="321" y="-56.5" font-family="Helvetica,sans-Serif" font-size="10.00">&lt; PointContainerType,</text>
<text text-anchor="middle" x="379.5" y="-45.5" font-family="Helvetica,sans-Serif" font-size="10.00"> PointType &gt;</text>
</a>
</g>
</g>
<!-- Node2 -->
<g id="node2" class="node"><title>Node2</title>
<g id="a_node2"><a xlink:href="../../d9/d64/interfaceIG_1_1Num_1_1IDistanceComparer.html" target="_top" xlink:title="Interface used for distance comparers in point clouds.">
<polygon fill="white" stroke="black" points="170,-38.5 170,-79.5 277,-79.5 277,-38.5 170,-38.5"/>
<text text-anchor="start" x="178" y="-67.5" font-family="Helvetica,sans-Serif" font-size="10.00">IDistanceComparer&lt;</text>
<text text-anchor="start" x="178" y="-56.5" font-family="Helvetica,sans-Serif" font-size="10.00"> PointContainerType,</text>
<text text-anchor="middle" x="223.5" y="-45.5" font-family="Helvetica,sans-Serif" font-size="10.00"> PointType &gt;</text>
</a>
</g>
</g>
<!-- Node2&#45;&gt;Node1 -->
<g id="edge1" class="edge"><title>Node2&#45;&gt;Node1</title>
<path fill="none" stroke="midnightblue" d="M287.216,-59C295.656,-59 304.334,-59 312.824,-59"/>
<polygon fill="midnightblue" stroke="midnightblue" points="287.067,-55.5001 277.067,-59 287.067,-62.5001 287.067,-55.5001"/>
</g>
<!-- Node3 -->
<g id="node3" class="node"><title>Node3</title>
<g id="a_node3"><a xlink:title=" ">
<polygon fill="white" stroke="#bfbfbf" points="0,-68 0,-98 134,-98 134,-68 0,-68"/>
<text text-anchor="start" x="8" y="-86" font-family="Helvetica,sans-Serif" font-size="10.00">IComparer&lt; PointContainer</text>
<text text-anchor="middle" x="67" y="-75" font-family="Helvetica,sans-Serif" font-size="10.00">Type &gt;</text>
</a>
</g>
</g>
<!-- Node3&#45;&gt;Node1 -->
<g id="edge3" class="edge"><title>Node3&#45;&gt;Node1</title>
<path fill="none" stroke="midnightblue" d="M144.376,-91.4632C184.113,-94.286 233.376,-95.312 277,-89 291.003,-86.9739 305.765,-83.4526 319.563,-79.5187"/>
<polygon fill="midnightblue" stroke="midnightblue" points="144.462,-87.9598 134.225,-90.6889 143.93,-94.9395 144.462,-87.9598"/>
</g>
<!-- Node3&#45;&gt;Node2 -->
<g id="edge2" class="edge"><title>Node3&#45;&gt;Node2</title>
<path fill="none" stroke="midnightblue" d="M144.412,-71.1302C152.951,-69.8037 161.505,-68.475 169.654,-67.2091"/>
<polygon fill="midnightblue" stroke="midnightblue" points="143.763,-67.689 134.419,-72.6826 144.837,-74.606 143.763,-67.689"/>
</g>
<!-- Node4 -->
<g id="node4" class="node"><title>Node4</title>
<g id="a_node4"><a xlink:href="../../d3/db6/interfaceIG_1_1Lib_1_1ILockable.html" target="_top" xlink:title="Lockable object, has a Lock property that returns object on which lock must be performed in order to ...">
<polygon fill="white" stroke="black" points="194.5,-0.5 194.5,-19.5 252.5,-19.5 252.5,-0.5 194.5,-0.5"/>
<text text-anchor="middle" x="223.5" y="-7.5" font-family="Helvetica,sans-Serif" font-size="10.00">ILockable</text>
</a>
</g>
</g>
<!-- Node4&#45;&gt;Node1 -->
<g id="edge4" class="edge"><title>Node4&#45;&gt;Node1</title>
<path fill="none" stroke="midnightblue" d="M262.508,-22.0935C278.055,-27.0401 296.482,-32.9035 314.02,-38.4836"/>
<polygon fill="midnightblue" stroke="midnightblue" points="263.336,-18.6842 252.746,-18.9874 261.214,-25.3547 263.336,-18.6842"/>
</g>
</g>
</svg>
