<?xml version="1.0" encoding="UTF-8" standalone="no"?>
<!DOCTYPE svg PUBLIC "-//W3C//DTD SVG 1.1//EN"
 "http://www.w3.org/Graphics/SVG/1.1/DTD/svg11.dtd">
<!-- Generated by graphviz version 2.38.0 (20140413.2041)
 -->
<!-- Title: IG.Lib.IReporterBase Pages: 1 -->
<svg width="892pt" height="123pt"
 viewBox="0.00 0.00 892.00 122.52" xmlns="http://www.w3.org/2000/svg" xmlns:xlink="http://www.w3.org/1999/xlink">
<g id="graph0" class="graph" transform="scale(1 1) rotate(0) translate(4 118.524)">
<title>IG.Lib.IReporterBase</title>
<polygon fill="white" stroke="none" points="-4,4 -4,-118.524 888,-118.524 888,4 -4,4"/>
<!-- Node1 -->
<g id="node1" class="node"><title>Node1</title>
<g id="a_node1"><a xlink:title="Interface from which all reporters inherit.">
<polygon fill="#bfbfbf" stroke="black" points="0,-57.5 0,-76.5 107,-76.5 107,-57.5 0,-57.5"/>
<text text-anchor="middle" x="53.5" y="-64.5" font-family="Helvetica,sans-Serif" font-size="10.00">IG.Lib.IReporterBase</text>
</a>
</g>
</g>
<!-- Node2 -->
<g id="node2" class="node"><title>Node2</title>
<g id="a_node2"><a xlink:href="../../db/db1/interfaceIG_1_1Lib_1_1IReporter.html" target="_top" xlink:title="Interface from which majority of reporters inherit. Includes generic reporting functionality plus tra...">
<polygon fill="white" stroke="black" points="311,-57.5 311,-76.5 395,-76.5 395,-57.5 311,-57.5"/>
<text text-anchor="middle" x="353" y="-64.5" font-family="Helvetica,sans-Serif" font-size="10.00">IG.Lib.IReporter</text>
</a>
</g>
</g>
<!-- Node1&#45;&gt;Node2 -->
<g id="edge1" class="edge"><title>Node1&#45;&gt;Node2</title>
<path fill="none" stroke="midnightblue" d="M79.9833,-81.2323C97.1946,-90.0057 120.751,-100.425 143,-105 200.465,-116.815 217.868,-118.33 275,-105 298.373,-99.5466 322.802,-85.9227 337.715,-76.5622"/>
<polygon fill="midnightblue" stroke="midnightblue" points="81.603,-78.1297 71.1228,-76.5752 78.3462,-84.3259 81.603,-78.1297"/>
</g>
<!-- Node7 -->
<g id="node7" class="node"><title>Node7</title>
<g id="a_node7"><a xlink:href="../../d1/ddb/interfaceIG_1_1Lib_1_1IReporterTextLogger.html" target="_top" xlink:title="Reporters that utilize logging messages to files. IReporterTextLogger typically outputs (to a file) m...">
<polygon fill="white" stroke="black" points="143,-76.5 143,-95.5 275,-95.5 275,-76.5 143,-76.5"/>
<text text-anchor="middle" x="209" y="-83.5" font-family="Helvetica,sans-Serif" font-size="10.00">IG.Lib.IReporterTextLogger</text>
</a>
</g>
</g>
<!-- Node1&#45;&gt;Node7 -->
<g id="edge8" class="edge"><title>Node1&#45;&gt;Node7</title>
<path fill="none" stroke="midnightblue" d="M117.423,-74.7885C125.816,-75.8274 134.437,-76.8945 142.867,-77.938"/>
<polygon fill="midnightblue" stroke="midnightblue" points="117.68,-71.2937 107.326,-73.5387 116.82,-78.2407 117.68,-71.2937"/>
</g>
<!-- Node8 -->
<g id="node8" class="node"><title>Node8</title>
<g id="a_node8"><a xlink:href="../../d2/d8e/interfaceIG_1_1Lib_1_1IReporterTextWriter.html" target="_top" xlink:title="Reporters that utilize writing messages to files. Messages are typically formatted as multi&#45;line mess...">
<polygon fill="white" stroke="black" points="144.5,-38.5 144.5,-57.5 273.5,-57.5 273.5,-38.5 144.5,-38.5"/>
<text text-anchor="middle" x="209" y="-45.5" font-family="Helvetica,sans-Serif" font-size="10.00">IG.Lib.IReporterTextWriter</text>
</a>
</g>
</g>
<!-- Node1&#45;&gt;Node8 -->
<g id="edge10" class="edge"><title>Node1&#45;&gt;Node8</title>
<path fill="none" stroke="midnightblue" d="M117.309,-59.2255C126.275,-58.1158 135.503,-56.9736 144.482,-55.8622"/>
<polygon fill="midnightblue" stroke="midnightblue" points="116.82,-55.7593 107.326,-60.4613 117.68,-62.7063 116.82,-55.7593"/>
</g>
<!-- Node9 -->
<g id="node9" class="node"><title>Node9</title>
<g id="a_node9"><a xlink:href="../../d0/d0e/interfaceIG_1_1Lib_1_1IReporterTrace.html" target="_top" xlink:title="Reporters that utilize system&#39;s trace utility.">
<polygon fill="white" stroke="black" points="155,-0.5 155,-19.5 263,-19.5 263,-0.5 155,-0.5"/>
<text text-anchor="middle" x="209" y="-7.5" font-family="Helvetica,sans-Serif" font-size="10.00">IG.Lib.IReporterTrace</text>
</a>
</g>
</g>
<!-- Node1&#45;&gt;Node9 -->
<g id="edge12" class="edge"><title>Node1&#45;&gt;Node9</title>
<path fill="none" stroke="midnightblue" d="M84.3567,-53.1078C101.346,-45.4752 123.137,-36.1377 143,-29 152.405,-25.6205 162.73,-22.3905 172.328,-19.5834"/>
<polygon fill="midnightblue" stroke="midnightblue" points="82.6176,-50.0535 74.9597,-57.3753 85.512,-56.4271 82.6176,-50.0535"/>
</g>
<!-- Node3 -->
<g id="node3" class="node"><title>Node3</title>
<g id="a_node3"><a xlink:href="../../dd/d3c/interfaceIG_1_1Lib_1_1IReporterConsole.html" target="_top" xlink:title=" ">
<polygon fill="white" stroke="black" points="431,-76.5 431,-95.5 550,-95.5 550,-76.5 431,-76.5"/>
<text text-anchor="middle" x="490.5" y="-83.5" font-family="Helvetica,sans-Serif" font-size="10.00">IG.Lib.IReporterConsole</text>
</a>
</g>
</g>
<!-- Node2&#45;&gt;Node3 -->
<g id="edge2" class="edge"><title>Node2&#45;&gt;Node3</title>
<path fill="none" stroke="midnightblue" d="M405.004,-74.1518C413.365,-75.3242 422.089,-76.5475 430.622,-77.744"/>
<polygon fill="midnightblue" stroke="midnightblue" points="405.411,-70.6748 395.022,-72.7522 404.439,-77.607 405.411,-70.6748"/>
</g>
<!-- Node6 -->
<g id="node6" class="node"><title>Node6</title>
<g id="a_node6"><a xlink:href="../../d4/de2/classIG_1_1Lib_1_1ReporterBase.html" target="_top" xlink:title="Base IGlib class for reporting, tracing and logging; provides a global reporter and a basis for creat...">
<polygon fill="white" stroke="black" points="438.5,-38.5 438.5,-57.5 542.5,-57.5 542.5,-38.5 438.5,-38.5"/>
<text text-anchor="middle" x="490.5" y="-45.5" font-family="Helvetica,sans-Serif" font-size="10.00">IG.Lib.ReporterBase</text>
</a>
</g>
</g>
<!-- Node2&#45;&gt;Node6 -->
<g id="edge6" class="edge"><title>Node2&#45;&gt;Node6</title>
<path fill="none" stroke="midnightblue" d="M405.13,-59.8305C415.904,-58.3198 427.275,-56.7252 438.06,-55.2129"/>
<polygon fill="midnightblue" stroke="midnightblue" points="404.439,-56.393 395.022,-61.2478 405.411,-63.3252 404.439,-56.393"/>
</g>
<!-- Node4 -->
<g id="node4" class="node"><title>Node4</title>
<g id="a_node4"><a xlink:href="../../de/df1/classIG_1_1Lib_1_1ReporterConsole.html" target="_top" xlink:title=" ">
<polygon fill="white" stroke="black" points="767,-57.5 767,-76.5 884,-76.5 884,-57.5 767,-57.5"/>
<text text-anchor="middle" x="825.5" y="-64.5" font-family="Helvetica,sans-Serif" font-size="10.00">IG.Lib.ReporterConsole</text>
</a>
</g>
</g>
<!-- Node3&#45;&gt;Node4 -->
<g id="edge3" class="edge"><title>Node3&#45;&gt;Node4</title>
<path fill="none" stroke="midnightblue" d="M560.577,-82.0587C621.603,-78.5767 709.565,-73.5579 766.877,-70.2878"/>
<polygon fill="midnightblue" stroke="midnightblue" points="560.052,-78.5829 550.267,-82.6469 560.45,-85.5715 560.052,-78.5829"/>
</g>
<!-- Node5 -->
<g id="node5" class="node"><title>Node5</title>
<g id="a_node5"><a xlink:href="../../da/df9/classIG_1_1Lib_1_1ReporterConsole__Base.html" target="_top" xlink:title="Base class for reporter classes that contain either reporting via system console, reporting via messa...">
<polygon fill="white" stroke="black" points="586,-38.5 586,-57.5 731,-57.5 731,-38.5 586,-38.5"/>
<text text-anchor="middle" x="658.5" y="-45.5" font-family="Helvetica,sans-Serif" font-size="10.00">IG.Lib.ReporterConsole_Base</text>
</a>
</g>
</g>
<!-- Node3&#45;&gt;Node5 -->
<g id="edge4" class="edge"><title>Node3&#45;&gt;Node5</title>
<path fill="none" stroke="midnightblue" d="M543.153,-74.1757C566.556,-68.8184 593.857,-62.5689 615.912,-57.5201"/>
<polygon fill="midnightblue" stroke="midnightblue" points="542.356,-70.7677 533.389,-76.411 543.918,-77.5912 542.356,-70.7677"/>
</g>
<!-- Node5&#45;&gt;Node4 -->
<g id="edge5" class="edge"><title>Node5&#45;&gt;Node4</title>
<path fill="none" stroke="midnightblue" d="M741.479,-57.44C750.093,-58.432 758.716,-59.4249 766.97,-60.3754"/>
<polygon fill="midnightblue" stroke="midnightblue" points="741.726,-53.9454 731.391,-56.2784 740.925,-60.8995 741.726,-53.9454"/>
</g>
<!-- Node6&#45;&gt;Node5 -->
<g id="edge7" class="edge"><title>Node6&#45;&gt;Node5</title>
<path fill="none" stroke="midnightblue" d="M552.769,-48C563.507,-48 574.767,-48 585.758,-48"/>
<polygon fill="midnightblue" stroke="midnightblue" points="552.66,-44.5001 542.66,-48 552.66,-51.5001 552.66,-44.5001"/>
</g>
<!-- Node7&#45;&gt;Node2 -->
<g id="edge9" class="edge"><title>Node7&#45;&gt;Node2</title>
<path fill="none" stroke="midnightblue" d="M285.132,-75.9472C293.938,-74.7688 302.66,-73.6019 310.752,-72.5191"/>
<polygon fill="midnightblue" stroke="midnightblue" points="284.629,-72.4831 275.182,-77.2785 285.557,-79.4213 284.629,-72.4831"/>
</g>
<!-- Node8&#45;&gt;Node2 -->
<g id="edge11" class="edge"><title>Node8&#45;&gt;Node2</title>
<path fill="none" stroke="midnightblue" d="M283.683,-57.859C293.051,-59.1124 302.356,-60.3575 310.946,-61.5068"/>
<polygon fill="midnightblue" stroke="midnightblue" points="283.9,-54.3569 273.524,-56.4997 282.972,-61.2951 283.9,-54.3569"/>
</g>
<!-- Node9&#45;&gt;Node2 -->
<g id="edge13" class="edge"><title>Node9&#45;&gt;Node2</title>
<path fill="none" stroke="midnightblue" d="M256.559,-22.5375C262.816,-24.5335 269.105,-26.7038 275,-29 296.114,-37.2237 319.301,-49.0783 334.655,-57.3528"/>
<polygon fill="midnightblue" stroke="midnightblue" points="257.402,-19.1351 246.815,-19.5514 255.351,-25.8279 257.402,-19.1351"/>
</g>
</g>
</svg>
