<?xml version="1.0" encoding="UTF-8" standalone="no"?>
<!DOCTYPE svg PUBLIC "-//W3C//DTD SVG 1.1//EN"
 "http://www.w3.org/Graphics/SVG/1.1/DTD/svg11.dtd">
<!-- Generated by graphviz version 2.38.0 (20140413.2041)
 -->
<!-- Title: IG.Lib.WaitCondition Pages: 1 -->
<!--zoomable 165 -->
<svg id="main" version="1.1" xmlns="http://www.w3.org/2000/svg" xmlns:xlink="http://www.w3.org/1999/xlink" xml:space="preserve" onload="init(evt)">
<style type="text/css"><![CDATA[
.edge:hover path { stroke: red; }
.edge:hover polygon { stroke: red; fill: red; }
]]></style>
<script type="text/javascript"><![CDATA[
var edges = document.getElementsByTagName('g');
if (edges && edges.length) {
  for (var i=0;i<edges.length;i++) {
    if (edges[i].id.substr(0,4)=='edge') {
      edges[i].setAttribute('class','edge');
    }
  }
}
]]></script>
        <defs>
                <circle id="rim" cx="0" cy="0" r="7"/>
                <circle id="rim2" cx="0" cy="0" r="3.5"/>
                <g id="zoomPlus">
                        <use xlink:href="#rim" fill="#404040">
                                <set attributeName="fill" to="#808080" begin="zoomplus.mouseover" end="zoomplus.mouseout"/>
                        </use>
                        <path d="M-4,0h8M0,-4v8" fill="none" stroke="white" stroke-width="1.5" pointer-events="none"/>
                </g>
                <g id="zoomMin">
                        <use xlink:href="#rim" fill="#404040">
                                <set attributeName="fill" to="#808080" begin="zoomminus.mouseover" end="zoomminus.mouseout"/>
                        </use>
                        <path d="M-4,0h8" fill="none" stroke="white" stroke-width="1.5" pointer-events="none"/>
                </g>
                <g id="dirArrow">
                        <path fill="none" stroke="white" stroke-width="1.5" d="M0,-3.0v7 M-2.5,-0.5L0,-3.0L2.5,-0.5"/>
                </g>
               <g id="resetDef">
                       <use xlink:href="#rim2" fill="#404040">
                               <set attributeName="fill" to="#808080" begin="reset.mouseover" end="reset.mouseout"/>
                       </use>
               </g>
        </defs>

<script type="text/javascript">
var viewWidth = 846;
var viewHeight = 165;
var sectionId = 'dynsection-0';
</script>
<script xlink:href="../../svgpan.js"/>
<svg id="graph" class="graph">
<g id="viewport">
<title>IG.Lib.WaitCondition</title>
<polygon fill="white" stroke="none" points="-4,4 -4,-160.5 842,-160.5 842,4 -4,4"/>
<!-- Node1 -->
<g id="node1" class="node"><title>Node1</title>
<g id="a_node1"><a xlink:title="Provides a framework for blocking execution until the specified condition becomes satisfied....">
<polygon fill="#bfbfbf" stroke="black" points="346,-60.5 346,-79.5 452,-79.5 452,-60.5 346,-60.5"/>
<text text-anchor="middle" x="399" y="-67.5" font-family="Helvetica,sans-Serif" font-size="10.00">IG.Lib.WaitCondition</text>
</a>
</g>
</g>
<!-- Node5 -->
<g id="node5" class="node"><title>Node5</title>
<g id="a_node5"><a xlink:href="../../d4/d27/classIG_1_1Lib_1_1WaitFileEventLatenceBase.html" target="_top" xlink:title="Base class for classes that impelement methods that block until a file or directory is created or del...">
<polygon fill="white" stroke="black" points="488,-60.5 488,-79.5 650,-79.5 650,-60.5 488,-60.5"/>
<text text-anchor="middle" x="569" y="-67.5" font-family="Helvetica,sans-Serif" font-size="10.00">IG.Lib.WaitFileEventLatenceBase</text>
</a>
</g>
</g>
<!-- Node1&#45;&gt;Node5 -->
<g id="edge7" class="edge"><title>Node1&#45;&gt;Node5</title>
<path fill="none" stroke="midnightblue" d="M462.483,-70C470.718,-70 479.25,-70 487.731,-70"/>
<polygon fill="midnightblue" stroke="midnightblue" points="462.235,-66.5001 452.235,-70 462.235,-73.5001 462.235,-66.5001"/>
</g>
<!-- Node2 -->
<g id="node2" class="node"><title>Node2</title>
<g id="a_node2"><a xlink:href="../../df/dea/classIG_1_1Lib_1_1WaitConditionBase.html" target="_top" xlink:title="Base class for objects that perform waiting until a condition is fulfilled.">
<polygon fill="white" stroke="black" points="210,-60.5 210,-79.5 310,-79.5 310,-60.5 210,-60.5"/>
<text text-anchor="middle" x="260" y="-67.5" font-family="Helvetica,sans-Serif" font-size="10.00">WaitConditionBase</text>
</a>
</g>
</g>
<!-- Node2&#45;&gt;Node1 -->
<g id="edge1" class="edge"><title>Node2&#45;&gt;Node1</title>
<path fill="none" stroke="midnightblue" d="M320.225,-70C328.655,-70 337.275,-70 345.563,-70"/>
<polygon fill="midnightblue" stroke="midnightblue" points="320.073,-66.5001 310.073,-70 320.073,-73.5001 320.073,-66.5001"/>
</g>
<!-- Node3 -->
<g id="node3" class="node"><title>Node3</title>
<g id="a_node3"><a xlink:href="../../de/d1e/interfaceIG_1_1Lib_1_1IWaitCondition.html" target="_top" xlink:title="Interface for classes that implement blocking until a specified condition is met.">
<polygon fill="white" stroke="black" points="94,-22.5 94,-41.5 174,-41.5 174,-22.5 94,-22.5"/>
<text text-anchor="middle" x="134" y="-29.5" font-family="Helvetica,sans-Serif" font-size="10.00">IWaitCondition</text>
</a>
</g>
</g>
<!-- Node3&#45;&gt;Node1 -->
<g id="edge5" class="edge"><title>Node3&#45;&gt;Node1</title>
<path fill="none" stroke="midnightblue" d="M184.092,-35.9479C219.273,-39.1133 267.715,-44.1589 310,-51 325.738,-53.5462 342.905,-57.0796 357.864,-60.4095"/>
<polygon fill="midnightblue" stroke="midnightblue" points="184.349,-32.457 174.08,-35.0655 183.734,-39.43 184.349,-32.457"/>
</g>
<!-- Node3&#45;&gt;Node2 -->
<g id="edge2" class="edge"><title>Node3&#45;&gt;Node2</title>
<path fill="none" stroke="midnightblue" d="M175.905,-44.5353C192.773,-49.7048 212.008,-55.5991 227.72,-60.4141"/>
<polygon fill="midnightblue" stroke="midnightblue" points="176.877,-41.1727 166.29,-41.589 174.826,-47.8655 176.877,-41.1727"/>
</g>
<!-- Node4 -->
<g id="node4" class="node"><title>Node4</title>
<g id="a_node4"><a xlink:href="../../d3/db6/interfaceIG_1_1Lib_1_1ILockable.html" target="_top" xlink:title="Lockable object, has a Lock property that returns object on which lock must be performed in order to ...">
<polygon fill="white" stroke="black" points="0,-60.5 0,-79.5 58,-79.5 58,-60.5 0,-60.5"/>
<text text-anchor="middle" x="29" y="-67.5" font-family="Helvetica,sans-Serif" font-size="10.00">ILockable</text>
</a>
</g>
</g>
<!-- Node4&#45;&gt;Node1 -->
<g id="edge6" class="edge"><title>Node4&#45;&gt;Node1</title>
<path fill="none" stroke="midnightblue" d="M68.1724,-79.4759C76.6292,-81.2595 85.5804,-82.9059 94,-84 189.225,-96.3737 214.517,-99.1905 310,-89 327.407,-87.1423 346.426,-83.2734 362.316,-79.5086"/>
<polygon fill="midnightblue" stroke="midnightblue" points="68.6915,-76.0061 58.1711,-77.2602 67.1773,-82.8404 68.6915,-76.0061"/>
</g>
<!-- Node4&#45;&gt;Node2 -->
<g id="edge4" class="edge"><title>Node4&#45;&gt;Node2</title>
<path fill="none" stroke="midnightblue" d="M68.4409,-70C107.297,-70 167.488,-70 209.803,-70"/>
<polygon fill="midnightblue" stroke="midnightblue" points="68.0799,-66.5001 58.0799,-70 68.0799,-73.5001 68.0799,-66.5001"/>
</g>
<!-- Node4&#45;&gt;Node3 -->
<g id="edge3" class="edge"><title>Node4&#45;&gt;Node3</title>
<path fill="none" stroke="midnightblue" d="M65.5567,-56.882C79.1796,-51.8561 94.4539,-46.2209 107.017,-41.5859"/>
<polygon fill="midnightblue" stroke="midnightblue" points="64.1617,-53.666 55.9912,-60.411 66.5846,-60.2333 64.1617,-53.666"/>
</g>
<!-- Node6 -->
<g id="node6" class="node"><title>Node6</title>
<g id="a_node6"><a xlink:href="../../d9/d6b/classIG_1_1Lib_1_1WaitDirectoryCreationLatence.html" target="_top" xlink:title="Implements blocking until the specified directory is created (becomes existent). Directory is specifi...">
<polygon fill="white" stroke="black" points="692,-126 692,-156 832,-156 832,-126 692,-126"/>
<text text-anchor="start" x="700" y="-144" font-family="Helvetica,sans-Serif" font-size="10.00">IG.Lib.WaitDirectoryCreation</text>
<text text-anchor="middle" x="762" y="-133" font-family="Helvetica,sans-Serif" font-size="10.00">Latence</text>
</a>
</g>
</g>
<!-- Node5&#45;&gt;Node6 -->
<g id="edge8" class="edge"><title>Node5&#45;&gt;Node6</title>
<path fill="none" stroke="midnightblue" d="M601.385,-83.4633C624.584,-93.2319 657.038,-106.516 686,-117 694.356,-120.025 703.303,-123.061 712.004,-125.907"/>
<polygon fill="midnightblue" stroke="midnightblue" points="602.62,-80.1853 592.046,-79.5104 599.891,-86.6316 602.62,-80.1853"/>
</g>
<!-- Node7 -->
<g id="node7" class="node"><title>Node7</title>
<g id="a_node7"><a xlink:href="../../d2/dcb/classIG_1_1Lib_1_1WaitDirectoryRemovalLatence.html" target="_top" xlink:title="Implements blocking until the specified directory is deleted (becomes nonexistent)....">
<polygon fill="white" stroke="black" points="691.5,-77 691.5,-107 832.5,-107 832.5,-77 691.5,-77"/>
<text text-anchor="start" x="699.5" y="-95" font-family="Helvetica,sans-Serif" font-size="10.00">IG.Lib.WaitDirectoryRemoval</text>
<text text-anchor="middle" x="762" y="-84" font-family="Helvetica,sans-Serif" font-size="10.00">Latence</text>
</a>
</g>
</g>
<!-- Node5&#45;&gt;Node7 -->
<g id="edge9" class="edge"><title>Node5&#45;&gt;Node7</title>
<path fill="none" stroke="midnightblue" d="M660.17,-80.386C670.643,-81.5924 681.202,-82.8086 691.341,-83.9764"/>
<polygon fill="midnightblue" stroke="midnightblue" points="660.506,-76.9017 650.171,-79.2344 659.705,-83.8557 660.506,-76.9017"/>
</g>
<!-- Node8 -->
<g id="node8" class="node"><title>Node8</title>
<g id="a_node8"><a xlink:href="../../d1/de2/classIG_1_1Lib_1_1WaitFileCreationLatence.html" target="_top" xlink:title="Implements blocking until the specified file is created (becomes existent). File is specified in cons...">
<polygon fill="white" stroke="black" points="686,-38.5 686,-57.5 838,-57.5 838,-38.5 686,-38.5"/>
<text text-anchor="middle" x="762" y="-45.5" font-family="Helvetica,sans-Serif" font-size="10.00">IG.Lib.WaitFileCreationLatence</text>
</a>
</g>
</g>
<!-- Node5&#45;&gt;Node8 -->
<g id="edge10" class="edge"><title>Node5&#45;&gt;Node8</title>
<path fill="none" stroke="midnightblue" d="M660.223,-59.6079C668.822,-58.6174 677.479,-57.6203 685.912,-56.6489"/>
<polygon fill="midnightblue" stroke="midnightblue" points="659.705,-56.1443 650.171,-60.7656 660.506,-63.0983 659.705,-56.1443"/>
</g>
<!-- Node9 -->
<g id="node9" class="node"><title>Node9</title>
<g id="a_node9"><a xlink:href="../../d2/d57/classIG_1_1Lib_1_1WaitFileRemovalLatence.html" target="_top" xlink:title="Implements blocking until the specified file is deleted (becomes nonexistent). File is specified in c...">
<polygon fill="white" stroke="black" points="686,-0.5 686,-19.5 838,-19.5 838,-0.5 686,-0.5"/>
<text text-anchor="middle" x="762" y="-7.5" font-family="Helvetica,sans-Serif" font-size="10.00">IG.Lib.WaitFileRemovalLatence</text>
</a>
</g>
</g>
<!-- Node5&#45;&gt;Node9 -->
<g id="edge11" class="edge"><title>Node5&#45;&gt;Node9</title>
<path fill="none" stroke="midnightblue" d="M604.74,-56.7827C627.643,-48.3022 658.397,-37.3553 686,-29 697.056,-25.6533 709.148,-22.411 720.332,-19.5805"/>
<polygon fill="midnightblue" stroke="midnightblue" points="603.27,-53.5953 595.124,-60.3691 605.716,-60.154 603.27,-53.5953"/>
</g>
</g>
</svg>
        <g id="navigator" transform="translate(0 0)" fill="#404254">
                <rect fill="#f2f5e9" fill-opacity="0.5" stroke="#606060" stroke-width=".5" x="0" y="0" width="60" height="60"/>
                <use id="zoomplus" xlink:href="#zoomPlus" x="17" y="9" onmousedown="handleZoom(evt,'in')"/>
                <use id="zoomminus" xlink:href="#zoomMin" x="42" y="9" onmousedown="handleZoom(evt,'out')"/>
                <use id="reset" xlink:href="#resetDef" x="30" y="36" onmousedown="handleReset()"/>
                <g id="arrowUp" xlink:href="#dirArrow" transform="translate(30 24)" onmousedown="handlePan(0,-1)">
                  <use xlink:href="#rim" fill="#404040">
                        <set attributeName="fill" to="#808080" begin="arrowUp.mouseover" end="arrowUp.mouseout"/>
                  </use>
                  <path fill="none" stroke="white" stroke-width="1.5" d="M0,-3.0v7 M-2.5,-0.5L0,-3.0L2.5,-0.5"/>
                </g>
                <g id="arrowRight" xlink:href="#dirArrow" transform="rotate(90) translate(36 -43)" onmousedown="handlePan(1,0)">
                  <use xlink:href="#rim" fill="#404040">
                        <set attributeName="fill" to="#808080" begin="arrowRight.mouseover" end="arrowRight.mouseout"/>
                  </use>
                  <path fill="none" stroke="white" stroke-width="1.5" d="M0,-3.0v7 M-2.5,-0.5L0,-3.0L2.5,-0.5"/>
                </g>
                <g id="arrowDown" xlink:href="#dirArrow" transform="rotate(180) translate(-30 -48)" onmousedown="handlePan(0,1)">
                  <use xlink:href="#rim" fill="#404040">
                        <set attributeName="fill" to="#808080" begin="arrowDown.mouseover" end="arrowDown.mouseout"/>
                  </use>
                  <path fill="none" stroke="white" stroke-width="1.5" d="M0,-3.0v7 M-2.5,-0.5L0,-3.0L2.5,-0.5"/>
                </g>
                <g id="arrowLeft" xlink:href="#dirArrow" transform="rotate(270) translate(-36 17)" onmousedown="handlePan(-1,0)">
                  <use xlink:href="#rim" fill="#404040">
                        <set attributeName="fill" to="#808080" begin="arrowLeft.mouseover" end="arrowLeft.mouseout"/>
                  </use>
                  <path fill="none" stroke="white" stroke-width="1.5" d="M0,-3.0v7 M-2.5,-0.5L0,-3.0L2.5,-0.5"/>
                </g>
        </g>
        <svg viewBox="0 0 15 15" width="100%" height="30px" preserveAspectRatio="xMaxYMin meet">
         <g id="arrow_out" transform="scale(0.3 0.3)">
          <a xlink:href="classIG_1_1Lib_1_1WaitCondition__inherit__graph_org.svg" target="_base">
           <rect id="button" ry="5" rx="5" y="6" x="6" height="38" width="38"
                fill="#f2f5e9" fill-opacity="0.5" stroke="#606060" stroke-width="1.0"/>
           <path id="arrow"
             d="M 11.500037,31.436501 C 11.940474,20.09759 22.043105,11.32322 32.158766,21.979434 L 37.068811,17.246167 C 37.068811,17.246167 37.088388,32 37.088388,32 L 22.160133,31.978069 C 22.160133,31.978069 26.997745,27.140456 26.997745,27.140456 C 18.528582,18.264221 13.291696,25.230495 11.500037,31.436501 z"
             style="fill:#404040;"/>
          </a>
         </g>
        </svg>
</svg>
