<?xml version="1.0" encoding="UTF-8" standalone="no"?>
<!DOCTYPE svg PUBLIC "-//W3C//DTD SVG 1.1//EN"
 "http://www.w3.org/Graphics/SVG/1.1/DTD/svg11.dtd">
<!-- Generated by graphviz version 2.38.0 (20140413.2041)
 -->
<!-- Title: IG.Num.RealFunctionParametric Pages: 1 -->
<svg width="285pt" height="196pt"
 viewBox="0.00 0.00 285.45 196.00" xmlns="http://www.w3.org/2000/svg" xmlns:xlink="http://www.w3.org/1999/xlink">
<g id="graph0" class="graph" transform="scale(1 1) rotate(0) translate(4 192)">
<title>IG.Num.RealFunctionParametric</title>
<polygon fill="white" stroke="none" points="-4,4 -4,-192 281.453,-192 281.453,4 -4,4"/>
<!-- Node1 -->
<g id="node1" class="node"><title>Node1</title>
<g id="a_node1"><a xlink:title="Base class for parameterized real&#45;valued functions of single variable. Parameters that completely def...">
<polygon fill="#bfbfbf" stroke="black" points="9.45306,-0.5 9.45306,-19.5 166.453,-19.5 166.453,-0.5 9.45306,-0.5"/>
<text text-anchor="middle" x="87.9531" y="-7.5" font-family="Helvetica,sans-Serif" font-size="10.00">IG.Num.RealFunctionParametric</text>
</a>
</g>
</g>
<!-- Node2 -->
<g id="node2" class="node"><title>Node2</title>
<g id="a_node2"><a xlink:href="../../d1/d20/classIG_1_1Num_1_1RealFunctionParametricBase.html" target="_top" xlink:title="Base class for parameterized real&#45;valued functions of single variable. Parameters that completely def...">
<polygon fill="white" stroke="black" points="16.4531,-56.5 16.4531,-75.5 159.453,-75.5 159.453,-56.5 16.4531,-56.5"/>
<text text-anchor="middle" x="87.9531" y="-63.5" font-family="Helvetica,sans-Serif" font-size="10.00">RealFunctionParametricBase</text>
</a>
</g>
</g>
<!-- Node2&#45;&gt;Node1 -->
<g id="edge1" class="edge"><title>Node2&#45;&gt;Node1</title>
<path fill="none" stroke="midnightblue" d="M87.9531,-45.8045C87.9531,-36.9102 87.9531,-26.7798 87.9531,-19.7511"/>
<polygon fill="midnightblue" stroke="midnightblue" points="84.4532,-46.083 87.9531,-56.083 91.4532,-46.083 84.4532,-46.083"/>
</g>
<!-- Node3 -->
<g id="node3" class="node"><title>Node3</title>
<g id="a_node3"><a xlink:href="../../d6/d30/classIG_1_1Num_1_1RealFunctionBase.html" target="_top" xlink:title="Base class for real functions of real variable.">
<polygon fill="white" stroke="black" points="39.9531,-112.5 39.9531,-131.5 135.953,-131.5 135.953,-112.5 39.9531,-112.5"/>
<text text-anchor="middle" x="87.9531" y="-119.5" font-family="Helvetica,sans-Serif" font-size="10.00">RealFunctionBase</text>
</a>
</g>
</g>
<!-- Node3&#45;&gt;Node2 -->
<g id="edge2" class="edge"><title>Node3&#45;&gt;Node2</title>
<path fill="none" stroke="midnightblue" d="M87.9531,-101.805C87.9531,-92.9102 87.9531,-82.7798 87.9531,-75.7511"/>
<polygon fill="midnightblue" stroke="midnightblue" points="84.4532,-102.083 87.9531,-112.083 91.4532,-102.083 84.4532,-102.083"/>
</g>
<!-- Node4 -->
<g id="node4" class="node"><title>Node4</title>
<g id="a_node4"><a xlink:href="../../db/d0e/interfaceIG_1_1Num_1_1IRealFunction.html" target="_top" xlink:title="Interface for real functions.">
<polygon fill="white" stroke="black" points="11.9531,-168.5 11.9531,-187.5 87.9531,-187.5 87.9531,-168.5 11.9531,-168.5"/>
<text text-anchor="middle" x="49.9531" y="-175.5" font-family="Helvetica,sans-Serif" font-size="10.00">IRealFunction</text>
</a>
</g>
</g>
<!-- Node4&#45;&gt;Node1 -->
<g id="edge7" class="edge"><title>Node4&#45;&gt;Node1</title>
<path fill="none" stroke="midnightblue" d="M35.4229,-160.446C16.0977,-136.308 -13.387,-90.5682 6.95306,-56 17.7218,-37.6984 38.9207,-26.3062 56.9305,-19.5639"/>
<polygon fill="midnightblue" stroke="midnightblue" points="32.8798,-162.862 41.9719,-168.301 38.2562,-158.379 32.8798,-162.862"/>
</g>
<!-- Node4&#45;&gt;Node2 -->
<g id="edge4" class="edge"><title>Node4&#45;&gt;Node2</title>
<path fill="none" stroke="midnightblue" d="M38.1171,-159.546C30.5863,-146.116 23.5267,-127.325 30.9531,-112 38.9806,-95.4349 56.3913,-83.1278 69.8715,-75.6099"/>
<polygon fill="midnightblue" stroke="midnightblue" points="35.2563,-161.575 43.4835,-168.251 41.215,-157.901 35.2563,-161.575"/>
</g>
<!-- Node4&#45;&gt;Node3 -->
<g id="edge3" class="edge"><title>Node4&#45;&gt;Node3</title>
<path fill="none" stroke="midnightblue" d="M62.0178,-159.855C68.5978,-150.505 76.464,-139.327 81.7949,-131.751"/>
<polygon fill="midnightblue" stroke="midnightblue" points="59.1206,-157.891 56.228,-168.083 64.8453,-161.919 59.1206,-157.891"/>
</g>
<!-- Node5 -->
<g id="node5" class="node"><title>Node5</title>
<g id="a_node5"><a xlink:href="../../d1/dfb/interfaceIG_1_1Num_1_1IRealFunctionParametric.html" target="_top" xlink:title="Parameterized real&#45;valued functions of single variable.">
<polygon fill="white" stroke="black" points="154.453,-112.5 154.453,-131.5 277.453,-131.5 277.453,-112.5 154.453,-112.5"/>
<text text-anchor="middle" x="215.953" y="-119.5" font-family="Helvetica,sans-Serif" font-size="10.00">IRealFunctionParametric</text>
</a>
</g>
</g>
<!-- Node4&#45;&gt;Node5 -->
<g id="edge6" class="edge"><title>Node4&#45;&gt;Node5</title>
<path fill="none" stroke="midnightblue" d="M85.9061,-165.304C117.185,-155.129 161.774,-140.625 189.773,-131.516"/>
<polygon fill="midnightblue" stroke="midnightblue" points="84.683,-162.022 76.2563,-168.444 86.8485,-168.678 84.683,-162.022"/>
</g>
<!-- Node5&#45;&gt;Node1 -->
<g id="edge8" class="edge"><title>Node5&#45;&gt;Node1</title>
<path fill="none" stroke="midnightblue" d="M205.818,-103.359C197.102,-89.2894 183.5,-69.7337 167.953,-56 150.039,-40.1749 125.652,-27.4453 108.528,-19.6168"/>
<polygon fill="midnightblue" stroke="midnightblue" points="202.9,-105.298 211.036,-112.083 208.907,-101.705 202.9,-105.298"/>
</g>
<!-- Node5&#45;&gt;Node2 -->
<g id="edge5" class="edge"><title>Node5&#45;&gt;Node2</title>
<path fill="none" stroke="midnightblue" d="M186.33,-108.503C162.334,-98.3795 129.169,-84.388 108.14,-75.5164"/>
<polygon fill="midnightblue" stroke="midnightblue" points="185.097,-111.781 195.671,-112.444 187.818,-105.332 185.097,-111.781"/>
</g>
</g>
</svg>
