<?xml version="1.0" encoding="UTF-8" standalone="no"?>
<!DOCTYPE svg PUBLIC "-//W3C//DTD SVG 1.1//EN"
 "http://www.w3.org/Graphics/SVG/1.1/DTD/svg11.dtd">
<!-- Generated by graphviz version 2.38.0 (20140413.2041)
 -->
<!-- Title: IG.Num.DistanceComparer&lt; PointContainerType, PointType &gt;.StoredDistanceComparerClass Pages: 1 -->
<svg width="217pt" height="117pt"
 viewBox="0.00 0.00 217.00 117.00" xmlns="http://www.w3.org/2000/svg" xmlns:xlink="http://www.w3.org/1999/xlink">
<g id="graph0" class="graph" transform="scale(1 1) rotate(0) translate(4 113)">
<title>IG.Num.DistanceComparer&lt; PointContainerType, PointType &gt;.StoredDistanceComparerClass</title>
<polygon fill="white" stroke="none" points="-4,4 -4,-113 213,-113 213,4 -4,4"/>
<!-- Node1 -->
<g id="node1" class="node"><title>Node1</title>
<g id="a_node1"><a xlink:title="Compares two point containers according to their StoredDistance property.">
<polygon fill="#bfbfbf" stroke="black" points="0,-0.5 0,-41.5 209,-41.5 209,-0.5 0,-0.5"/>
<text text-anchor="start" x="8" y="-29.5" font-family="Helvetica,sans-Serif" font-size="10.00">IG.Num.DistanceComparer</text>
<text text-anchor="start" x="8" y="-18.5" font-family="Helvetica,sans-Serif" font-size="10.00">&lt; PointContainerType,</text>
<text text-anchor="middle" x="104.5" y="-7.5" font-family="Helvetica,sans-Serif" font-size="10.00"> PointType &gt;.StoredDistanceComparerClass</text>
</a>
</g>
</g>
<!-- Node2 -->
<g id="node2" class="node"><title>Node2</title>
<g id="a_node2"><a xlink:title=" ">
<polygon fill="white" stroke="#bfbfbf" points="37.5,-78.5 37.5,-108.5 171.5,-108.5 171.5,-78.5 37.5,-78.5"/>
<text text-anchor="start" x="45.5" y="-96.5" font-family="Helvetica,sans-Serif" font-size="10.00">IComparer&lt; PointContainer</text>
<text text-anchor="middle" x="104.5" y="-85.5" font-family="Helvetica,sans-Serif" font-size="10.00">Type &gt;</text>
</a>
</g>
</g>
<!-- Node2&#45;&gt;Node1 -->
<g id="edge1" class="edge"><title>Node2&#45;&gt;Node1</title>
<path fill="none" stroke="midnightblue" d="M104.5,-67.9815C104.5,-59.3468 104.5,-49.7625 104.5,-41.5884"/>
<polygon fill="midnightblue" stroke="midnightblue" points="101,-68.2332 104.5,-78.2333 108,-68.2333 101,-68.2332"/>
</g>
</g>
</svg>
