<?xml version="1.0" encoding="UTF-8" standalone="no"?>
<!DOCTYPE svg PUBLIC "-//W3C//DTD SVG 1.1//EN"
 "http://www.w3.org/Graphics/SVG/1.1/DTD/svg11.dtd">
<!-- Generated by graphviz version 2.38.0 (20140413.2041)
 -->
<!-- Title: IG.Num.RealFunctionParametricBase Pages: 1 -->
<svg width="377pt" height="196pt"
 viewBox="0.00 0.00 377.00 196.00" xmlns="http://www.w3.org/2000/svg" xmlns:xlink="http://www.w3.org/1999/xlink">
<g id="graph0" class="graph" transform="scale(1 1) rotate(0) translate(4 192)">
<title>IG.Num.RealFunctionParametricBase</title>
<polygon fill="white" stroke="none" points="-4,4 -4,-192 373,-192 373,4 -4,4"/>
<!-- Node1 -->
<g id="node1" class="node"><title>Node1</title>
<g id="a_node1"><a xlink:title="Base class for parameterized real&#45;valued functions of single variable. Parameters that completely def...">
<polygon fill="#bfbfbf" stroke="black" points="90,-56.5 90,-75.5 269,-75.5 269,-56.5 90,-56.5"/>
<text text-anchor="middle" x="179.5" y="-63.5" font-family="Helvetica,sans-Serif" font-size="10.00">IG.Num.RealFunctionParametricBase</text>
</a>
</g>
</g>
<!-- Node5 -->
<g id="node5" class="node"><title>Node5</title>
<g id="a_node5"><a xlink:href="../../d0/d78/classIG_1_1Num_1_1RealFunctionOneParametric.html" target="_top" xlink:title="Base class for one parametric families of real&#45;valued functions of single variable....">
<polygon fill="white" stroke="black" points="0,-0.5 0,-19.5 175,-19.5 175,-0.5 0,-0.5"/>
<text text-anchor="middle" x="87.5" y="-7.5" font-family="Helvetica,sans-Serif" font-size="10.00">IG.Num.RealFunctionOneParametric</text>
</a>
</g>
</g>
<!-- Node1&#45;&gt;Node5 -->
<g id="edge6" class="edge"><title>Node1&#45;&gt;Node5</title>
<path fill="none" stroke="midnightblue" d="M155.95,-51.1774C139.021,-41.2407 116.717,-28.1492 102.245,-19.6545"/>
<polygon fill="midnightblue" stroke="midnightblue" points="154.323,-54.2804 164.719,-56.324 157.866,-48.2435 154.323,-54.2804"/>
</g>
<!-- Node6 -->
<g id="node6" class="node"><title>Node6</title>
<g id="a_node6"><a xlink:href="../../d2/d3f/classIG_1_1Num_1_1RealFunctionParametric.html" target="_top" xlink:title="Base class for parameterized real&#45;valued functions of single variable. Parameters that completely def...">
<polygon fill="white" stroke="black" points="193,-0.5 193,-19.5 350,-19.5 350,-0.5 193,-0.5"/>
<text text-anchor="middle" x="271.5" y="-7.5" font-family="Helvetica,sans-Serif" font-size="10.00">IG.Num.RealFunctionParametric</text>
</a>
</g>
</g>
<!-- Node1&#45;&gt;Node6 -->
<g id="edge7" class="edge"><title>Node1&#45;&gt;Node6</title>
<path fill="none" stroke="midnightblue" d="M203.05,-51.1774C219.979,-41.2407 242.283,-28.1492 256.755,-19.6545"/>
<polygon fill="midnightblue" stroke="midnightblue" points="201.134,-48.2435 194.281,-56.324 204.677,-54.2804 201.134,-48.2435"/>
</g>
<!-- Node2 -->
<g id="node2" class="node"><title>Node2</title>
<g id="a_node2"><a xlink:href="../../d6/d30/classIG_1_1Num_1_1RealFunctionBase.html" target="_top" xlink:title="Base class for real functions of real variable.">
<polygon fill="white" stroke="black" points="131.5,-112.5 131.5,-131.5 227.5,-131.5 227.5,-112.5 131.5,-112.5"/>
<text text-anchor="middle" x="179.5" y="-119.5" font-family="Helvetica,sans-Serif" font-size="10.00">RealFunctionBase</text>
</a>
</g>
</g>
<!-- Node2&#45;&gt;Node1 -->
<g id="edge1" class="edge"><title>Node2&#45;&gt;Node1</title>
<path fill="none" stroke="midnightblue" d="M179.5,-101.805C179.5,-92.9102 179.5,-82.7798 179.5,-75.7511"/>
<polygon fill="midnightblue" stroke="midnightblue" points="176,-102.083 179.5,-112.083 183,-102.083 176,-102.083"/>
</g>
<!-- Node3 -->
<g id="node3" class="node"><title>Node3</title>
<g id="a_node3"><a xlink:href="../../db/d0e/interfaceIG_1_1Num_1_1IRealFunction.html" target="_top" xlink:title="Interface for real functions.">
<polygon fill="white" stroke="black" points="141.5,-168.5 141.5,-187.5 217.5,-187.5 217.5,-168.5 141.5,-168.5"/>
<text text-anchor="middle" x="179.5" y="-175.5" font-family="Helvetica,sans-Serif" font-size="10.00">IRealFunction</text>
</a>
</g>
</g>
<!-- Node3&#45;&gt;Node1 -->
<g id="edge3" class="edge"><title>Node3&#45;&gt;Node1</title>
<path fill="none" stroke="midnightblue" d="M152.829,-163.221C141.252,-155.697 128.897,-145.2 122.5,-132 111.111,-108.498 141.537,-86.9159 162.196,-75.5009"/>
<polygon fill="midnightblue" stroke="midnightblue" points="151.046,-166.232 161.418,-168.39 154.655,-160.235 151.046,-166.232"/>
</g>
<!-- Node3&#45;&gt;Node2 -->
<g id="edge2" class="edge"><title>Node3&#45;&gt;Node2</title>
<path fill="none" stroke="midnightblue" d="M179.5,-157.805C179.5,-148.91 179.5,-138.78 179.5,-131.751"/>
<polygon fill="midnightblue" stroke="midnightblue" points="176,-158.083 179.5,-168.083 183,-158.083 176,-158.083"/>
</g>
<!-- Node4 -->
<g id="node4" class="node"><title>Node4</title>
<g id="a_node4"><a xlink:href="../../d1/dfb/interfaceIG_1_1Num_1_1IRealFunctionParametric.html" target="_top" xlink:title="Parameterized real&#45;valued functions of single variable.">
<polygon fill="white" stroke="black" points="246,-112.5 246,-131.5 369,-131.5 369,-112.5 246,-112.5"/>
<text text-anchor="middle" x="307.5" y="-119.5" font-family="Helvetica,sans-Serif" font-size="10.00">IRealFunctionParametric</text>
</a>
</g>
</g>
<!-- Node3&#45;&gt;Node4 -->
<g id="edge5" class="edge"><title>Node3&#45;&gt;Node4</title>
<path fill="none" stroke="midnightblue" d="M209.123,-164.503C233.119,-154.38 266.284,-140.388 287.313,-131.516"/>
<polygon fill="midnightblue" stroke="midnightblue" points="207.635,-161.332 199.782,-168.444 210.356,-167.781 207.635,-161.332"/>
</g>
<!-- Node4&#45;&gt;Node1 -->
<g id="edge4" class="edge"><title>Node4&#45;&gt;Node1</title>
<path fill="none" stroke="midnightblue" d="M277.877,-108.503C253.881,-98.3795 220.716,-84.388 199.687,-75.5164"/>
<polygon fill="midnightblue" stroke="midnightblue" points="276.644,-111.781 287.218,-112.444 279.365,-105.332 276.644,-111.781"/>
</g>
</g>
</svg>
