<?xml version="1.0" encoding="UTF-8" standalone="no"?>
<!DOCTYPE svg PUBLIC "-//W3C//DTD SVG 1.1//EN"
 "http://www.w3.org/Graphics/SVG/1.1/DTD/svg11.dtd">
<!-- Generated by graphviz version 2.38.0 (20140413.2041)
 -->
<!-- Title: IG.Script.LoadableScriptExample Pages: 1 -->
<svg width="186pt" height="151pt"
 viewBox="0.00 0.00 185.50 151.00" xmlns="http://www.w3.org/2000/svg" xmlns:xlink="http://www.w3.org/1999/xlink">
<g id="graph0" class="graph" transform="scale(1 1) rotate(0) translate(4 147)">
<title>IG.Script.LoadableScriptExample</title>
<polygon fill="white" stroke="none" points="-4,4 -4,-147 181.5,-147 181.5,4 -4,4"/>
<!-- Node1 -->
<g id="node1" class="node"><title>Node1</title>
<g id="a_node1"><a xlink:title="Example cls. for testing function of loadable scripts.">
<polygon fill="#bfbfbf" stroke="black" points="25.5,-0.5 25.5,-30.5 147.5,-30.5 147.5,-0.5 25.5,-0.5"/>
<text text-anchor="start" x="33.5" y="-18.5" font-family="Helvetica,sans-Serif" font-size="10.00">IG.Script.LoadableScript</text>
<text text-anchor="middle" x="86.5" y="-7.5" font-family="Helvetica,sans-Serif" font-size="10.00">Example</text>
</a>
</g>
</g>
<!-- Node2 -->
<g id="node2" class="node"><title>Node2</title>
<g id="a_node2"><a xlink:href="../../d7/d15/classIG_1_1Lib_1_1LoadableScriptBase.html" target="_top" xlink:title="Base class for classes that can be dynamically loadeded from scripts and run, which provides function...">
<polygon fill="white" stroke="black" points="34.5,-67.5 34.5,-86.5 138.5,-86.5 138.5,-67.5 34.5,-67.5"/>
<text text-anchor="middle" x="86.5" y="-74.5" font-family="Helvetica,sans-Serif" font-size="10.00">LoadableScriptBase</text>
</a>
</g>
</g>
<!-- Node2&#45;&gt;Node1 -->
<g id="edge1" class="edge"><title>Node2&#45;&gt;Node1</title>
<path fill="none" stroke="midnightblue" d="M86.5,-57.2349C86.5,-48.5864 86.5,-38.4969 86.5,-30.523"/>
<polygon fill="midnightblue" stroke="midnightblue" points="83.0001,-57.4751 86.5,-67.4751 90.0001,-57.4751 83.0001,-57.4751"/>
</g>
<!-- Node3 -->
<g id="node3" class="node"><title>Node3</title>
<g id="a_node3"><a xlink:href="../../d7/d66/interfaceIG_1_1Lib_1_1ILoadableScript.html" target="_top" xlink:title="Interface for classes that can be dynamically loadeded from scripts and run, which provides functiona...">
<polygon fill="white" stroke="black" points="0,-123.5 0,-142.5 83,-142.5 83,-123.5 0,-123.5"/>
<text text-anchor="middle" x="41.5" y="-130.5" font-family="Helvetica,sans-Serif" font-size="10.00">ILoadableScript</text>
</a>
</g>
</g>
<!-- Node3&#45;&gt;Node1 -->
<g id="edge4" class="edge"><title>Node3&#45;&gt;Node1</title>
<path fill="none" stroke="midnightblue" d="M30.8252,-114.1C24.2838,-100.671 18.4051,-82.0844 25.5,-67 32.756,-51.5731 47.2945,-39.2428 60.3582,-30.6286"/>
<polygon fill="midnightblue" stroke="midnightblue" points="27.9199,-116.086 35.7527,-123.22 34.0785,-112.758 27.9199,-116.086"/>
</g>
<!-- Node3&#45;&gt;Node2 -->
<g id="edge2" class="edge"><title>Node3&#45;&gt;Node2</title>
<path fill="none" stroke="midnightblue" d="M55.5467,-115.144C63.3869,-105.736 72.8295,-94.4046 79.2074,-86.7511"/>
<polygon fill="midnightblue" stroke="midnightblue" points="52.6439,-113.16 48.9308,-123.083 58.0215,-117.641 52.6439,-113.16"/>
</g>
<!-- Node4 -->
<g id="node4" class="node"><title>Node4</title>
<g id="a_node4"><a xlink:href="../../d3/db6/interfaceIG_1_1Lib_1_1ILockable.html" target="_top" xlink:title="Lockable object, has a Lock property that returns object on which lock must be performed in order to ...">
<polygon fill="white" stroke="black" points="119.5,-123.5 119.5,-142.5 177.5,-142.5 177.5,-123.5 119.5,-123.5"/>
<text text-anchor="middle" x="148.5" y="-130.5" font-family="Helvetica,sans-Serif" font-size="10.00">ILockable</text>
</a>
</g>
</g>
<!-- Node4&#45;&gt;Node1 -->
<g id="edge5" class="edge"><title>Node4&#45;&gt;Node1</title>
<path fill="none" stroke="midnightblue" d="M152.199,-113.46C153.981,-99.9166 154.442,-81.4683 147.5,-67 140.126,-51.6294 125.583,-39.3008 112.547,-30.6735"/>
<polygon fill="midnightblue" stroke="midnightblue" points="148.719,-113.049 150.525,-123.489 155.624,-114.201 148.719,-113.049"/>
</g>
<!-- Node4&#45;&gt;Node2 -->
<g id="edge3" class="edge"><title>Node4&#45;&gt;Node2</title>
<path fill="none" stroke="midnightblue" d="M130.746,-116.537C119.692,-106.909 105.869,-94.8694 96.6426,-86.8339"/>
<polygon fill="midnightblue" stroke="midnightblue" points="128.699,-119.395 138.539,-123.324 133.297,-114.117 128.699,-119.395"/>
</g>
</g>
</svg>
