<?xml version="1.0" encoding="UTF-8" standalone="no"?>
<!DOCTYPE svg PUBLIC "-//W3C//DTD SVG 1.1//EN"
 "http://www.w3.org/Graphics/SVG/1.1/DTD/svg11.dtd">
<!-- Generated by graphviz version 2.38.0 (20140413.2041)
 -->
<!-- Title: IG.Num.ScalarFunctionExamples.Rosenbrock Pages: 1 -->
<svg width="748pt" height="193pt"
 viewBox="0.00 0.00 748.00 193.00" xmlns="http://www.w3.org/2000/svg" xmlns:xlink="http://www.w3.org/1999/xlink">
<g id="graph0" class="graph" transform="scale(1 1) rotate(0) translate(4 189)">
<title>IG.Num.ScalarFunctionExamples.Rosenbrock</title>
<polygon fill="white" stroke="none" points="-4,4 -4,-189 744,-189 744,4 -4,4"/>
<!-- Node1 -->
<g id="node1" class="node"><title>Node1</title>
<g id="a_node1"><a xlink:title="RosenBrock function. f(x,y) = (1&#45;x)^2 + 100 * (y&#45;x^2)^2">
<polygon fill="#bfbfbf" stroke="black" points="576,-110 576,-140 740,-140 740,-110 576,-110"/>
<text text-anchor="start" x="584" y="-128" font-family="Helvetica,sans-Serif" font-size="10.00">IG.Num.ScalarFunctionExamples.</text>
<text text-anchor="middle" x="658" y="-117" font-family="Helvetica,sans-Serif" font-size="10.00">Rosenbrock</text>
</a>
</g>
</g>
<!-- Node2 -->
<g id="node2" class="node"><title>Node2</title>
<g id="a_node2"><a xlink:href="../../d2/d85/classIG_1_1Num_1_1ScalarFunctionBase.html" target="_top" xlink:title="Base class for scalar functions with affine transformation of co&#45;ordinates. The reference function is...">
<polygon fill="white" stroke="black" points="435,-89.5 435,-108.5 539,-108.5 539,-89.5 435,-89.5"/>
<text text-anchor="middle" x="487" y="-96.5" font-family="Helvetica,sans-Serif" font-size="10.00">ScalarFunctionBase</text>
</a>
</g>
</g>
<!-- Node2&#45;&gt;Node1 -->
<g id="edge1" class="edge"><title>Node2&#45;&gt;Node1</title>
<path fill="none" stroke="midnightblue" d="M549.13,-108.405C557.778,-109.735 566.781,-111.12 575.736,-112.498"/>
<polygon fill="midnightblue" stroke="midnightblue" points="549.58,-104.933 539.164,-106.871 548.516,-111.851 549.58,-104.933"/>
</g>
<!-- Node3 -->
<g id="node3" class="node"><title>Node3</title>
<g id="a_node3"><a xlink:href="../../d2/d9e/classIG_1_1Num_1_1ScalarFunctionUntransformedBase.html" target="_top" xlink:title="Base class for defining scalar functions without possibility of affine transformation of parameters.">
<polygon fill="white" stroke="black" points="184,-165.5 184,-184.5 351,-184.5 351,-165.5 184,-165.5"/>
<text text-anchor="middle" x="267.5" y="-172.5" font-family="Helvetica,sans-Serif" font-size="10.00">ScalarFunctionUntransformedBase</text>
</a>
</g>
</g>
<!-- Node3&#45;&gt;Node2 -->
<g id="edge2" class="edge"><title>Node3&#45;&gt;Node2</title>
<path fill="none" stroke="midnightblue" d="M325.506,-163.041C334.105,-160.9 342.827,-158.535 351,-156 381.112,-146.659 387.946,-142.241 417,-130 433.338,-123.116 451.633,-114.872 465.277,-108.616"/>
<polygon fill="midnightblue" stroke="midnightblue" points="324.411,-159.705 315.508,-165.448 326.05,-166.51 324.411,-159.705"/>
</g>
<!-- Node4 -->
<g id="node4" class="node"><title>Node4</title>
<g id="a_node4"><a xlink:href="../../d8/d56/interfaceIG_1_1Num_1_1IScalarFunctionUntransformed.html" target="_top" xlink:title="Scalar functions of vector arguments.">
<polygon fill="white" stroke="black" points="0,-147.5 0,-166.5 147,-166.5 147,-147.5 0,-147.5"/>
<text text-anchor="middle" x="73.5" y="-154.5" font-family="Helvetica,sans-Serif" font-size="10.00">IScalarFunctionUntransformed</text>
</a>
</g>
</g>
<!-- Node4&#45;&gt;Node3 -->
<g id="edge3" class="edge"><title>Node4&#45;&gt;Node3</title>
<path fill="none" stroke="midnightblue" d="M157.317,-164.764C166.106,-165.588 175.045,-166.426 183.832,-167.25"/>
<polygon fill="midnightblue" stroke="midnightblue" points="157.37,-161.254 147.087,-163.805 156.717,-168.223 157.37,-161.254"/>
</g>
<!-- Node5 -->
<g id="node5" class="node"><title>Node5</title>
<g id="a_node5"><a xlink:href="../../dd/d1e/interfaceIG_1_1Num_1_1IScalarFunction.html" target="_top" xlink:title="Scalar functions of vector arguments, with eventual affine transformation of parameters....">
<polygon fill="white" stroke="black" points="225.5,-127.5 225.5,-146.5 309.5,-146.5 309.5,-127.5 225.5,-127.5"/>
<text text-anchor="middle" x="267.5" y="-134.5" font-family="Helvetica,sans-Serif" font-size="10.00">IScalarFunction</text>
</a>
</g>
</g>
<!-- Node4&#45;&gt;Node5 -->
<g id="edge5" class="edge"><title>Node4&#45;&gt;Node5</title>
<path fill="none" stroke="midnightblue" d="M157.104,-148.395C180.674,-145.94 205.343,-143.371 225.276,-141.294"/>
<polygon fill="midnightblue" stroke="midnightblue" points="156.67,-144.922 147.087,-149.439 157.396,-151.884 156.67,-144.922"/>
</g>
<!-- Node5&#45;&gt;Node1 -->
<g id="edge9" class="edge"><title>Node5&#45;&gt;Node1</title>
<path fill="none" stroke="midnightblue" d="M319.758,-135.417C385.042,-133.4 498.62,-129.892 575.753,-127.51"/>
<polygon fill="midnightblue" stroke="midnightblue" points="319.596,-131.92 309.709,-135.727 319.812,-138.917 319.596,-131.92"/>
</g>
<!-- Node5&#45;&gt;Node2 -->
<g id="edge4" class="edge"><title>Node5&#45;&gt;Node2</title>
<path fill="none" stroke="midnightblue" d="M319.589,-128.074C354.257,-122.017 399.922,-114.039 434.645,-107.972"/>
<polygon fill="midnightblue" stroke="midnightblue" points="318.914,-124.639 309.666,-129.808 320.119,-131.534 318.914,-124.639"/>
</g>
<!-- Node6 -->
<g id="node6" class="node"><title>Node6</title>
<g id="a_node6"><a xlink:href="../../d8/d86/interfaceIG_1_1Num_1_1IMatrix.html" target="_top" xlink:title="Generic Matrix interface.">
<polygon fill="white" stroke="black" points="197.5,-78 197.5,-108 337.5,-108 337.5,-78 197.5,-78"/>
<text text-anchor="start" x="205.5" y="-96" font-family="Helvetica,sans-Serif" font-size="10.00">IG.Num.IMatrix&lt; Component</text>
<text text-anchor="middle" x="267.5" y="-85" font-family="Helvetica,sans-Serif" font-size="10.00">Type &gt;</text>
</a>
</g>
</g>
<!-- Node6&#45;&gt;Node2 -->
<g id="edge6" class="edge"><title>Node6&#45;&gt;Node2</title>
<path fill="none" stroke="#9a32cd" stroke-dasharray="5,2" d="M347.785,-92.5722C370.172,-92.7126 394.548,-93.1119 417,-94 422.761,-94.2279 428.787,-94.5461 434.776,-94.9127"/>
<polygon fill="#9a32cd" stroke="#9a32cd" points="347.668,-89.0717 337.652,-92.5251 347.636,-96.0716 347.668,-89.0717"/>
<text text-anchor="middle" x="393" y="-97" font-family="Helvetica,sans-Serif" font-size="10.00"> _refHess</text>
</g>
<!-- Node7 -->
<g id="node7" class="node"><title>Node7</title>
<g id="a_node7"><a xlink:href="../../d3/d24/interfaceIG_1_1Num_1_1IVector.html" target="_top" xlink:title="Generic Vector interface">
<polygon fill="white" stroke="black" points="214,-38.5 214,-57.5 321,-57.5 321,-38.5 214,-38.5"/>
<text text-anchor="middle" x="267.5" y="-45.5" font-family="Helvetica,sans-Serif" font-size="10.00">IG.Num.IVector&lt; T &gt;</text>
</a>
</g>
</g>
<!-- Node7&#45;&gt;Node2 -->
<g id="edge7" class="edge"><title>Node7&#45;&gt;Node2</title>
<path fill="none" stroke="#9a32cd" stroke-dasharray="5,2" d="M331.214,-51.7318C358.022,-54.423 389.43,-59.0497 417,-67 435.651,-72.3783 455.634,-82.1312 469.269,-89.4614"/>
<polygon fill="#9a32cd" stroke="#9a32cd" points="331.465,-48.2401 321.183,-50.7923 330.813,-55.2096 331.465,-48.2401"/>
<text text-anchor="middle" x="393" y="-81" font-family="Helvetica,sans-Serif" font-size="10.00"> _refParam</text>
<text text-anchor="middle" x="393" y="-70" font-family="Helvetica,sans-Serif" font-size="10.00">_refGrad</text>
</g>
<!-- Node8 -->
<g id="node8" class="node"><title>Node8</title>
<g id="a_node8"><a xlink:href="../../d5/d50/interfaceIG_1_1Num_1_1IAffineTransformation.html" target="_top" xlink:title="Affine Transformation.">
<polygon fill="white" stroke="black" points="196,-0.5 196,-19.5 339,-19.5 339,-0.5 196,-0.5"/>
<text text-anchor="middle" x="267.5" y="-7.5" font-family="Helvetica,sans-Serif" font-size="10.00">IG.Num.IAffineTransformation</text>
</a>
</g>
</g>
<!-- Node8&#45;&gt;Node2 -->
<g id="edge8" class="edge"><title>Node8&#45;&gt;Node2</title>
<path fill="none" stroke="#9a32cd" stroke-dasharray="5,2" d="M349.066,-20.8464C371.761,-25.7598 395.976,-32.8386 417,-43 441.447,-54.8161 464.893,-76.8538 477.159,-89.4735"/>
<polygon fill="#9a32cd" stroke="#9a32cd" points="349.606,-17.3842 339.106,-18.8044 348.2,-24.2416 349.606,-17.3842"/>
<text text-anchor="middle" x="393" y="-46" font-family="Helvetica,sans-Serif" font-size="10.00"> _transf</text>
</g>
</g>
</svg>
