<?xml version="1.0" encoding="UTF-8" standalone="no"?>
<!DOCTYPE svg PUBLIC "-//W3C//DTD SVG 1.1//EN"
 "http://www.w3.org/Graphics/SVG/1.1/DTD/svg11.dtd">
<!-- Generated by graphviz version 2.38.0 (20140413.2041)
 -->
<!-- Title: IG.Num.Matrix2d Pages: 1 -->
<svg width="297pt" height="162pt"
 viewBox="0.00 0.00 297.00 162.00" xmlns="http://www.w3.org/2000/svg" xmlns:xlink="http://www.w3.org/1999/xlink">
<g id="graph0" class="graph" transform="scale(1 1) rotate(0) translate(4 158)">
<title>IG.Num.Matrix2d</title>
<polygon fill="white" stroke="none" points="-4,4 -4,-158 293,-158 293,4 -4,4"/>
<!-- Node1 -->
<g id="node1" class="node"><title>Node1</title>
<g id="a_node1"><a xlink:title="Matrix in a 2 dimensional space.">
<polygon fill="#bfbfbf" stroke="black" points="100,-0.5 100,-19.5 190,-19.5 190,-0.5 100,-0.5"/>
<text text-anchor="middle" x="145" y="-7.5" font-family="Helvetica,sans-Serif" font-size="10.00">IG.Num.Matrix2d</text>
</a>
</g>
</g>
<!-- Node2 -->
<g id="node2" class="node"><title>Node2</title>
<g id="a_node2"><a xlink:href="../../d9/db9/classIG_1_1Num_1_1MatrixBase.html" target="_top" xlink:title="Base class for matrices.">
<polygon fill="white" stroke="black" points="51,-67.5 51,-86.5 117,-86.5 117,-67.5 51,-67.5"/>
<text text-anchor="middle" x="84" y="-74.5" font-family="Helvetica,sans-Serif" font-size="10.00">MatrixBase</text>
</a>
</g>
</g>
<!-- Node2&#45;&gt;Node1 -->
<g id="edge1" class="edge"><title>Node2&#45;&gt;Node1</title>
<path fill="none" stroke="midnightblue" d="M99.3581,-59.6348C111.288,-46.9228 127.359,-29.7978 136.904,-19.6273"/>
<polygon fill="midnightblue" stroke="midnightblue" points="96.5177,-57.5468 92.2267,-67.2338 101.622,-62.337 96.5177,-57.5468"/>
</g>
<!-- Node3 -->
<g id="node3" class="node"><title>Node3</title>
<g id="a_node3"><a xlink:href="../../d8/d86/interfaceIG_1_1Num_1_1IMatrix.html" target="_top" xlink:title="Generic Matrix interface.">
<polygon fill="white" stroke="black" points="0,-134.5 0,-153.5 46,-153.5 46,-134.5 0,-134.5"/>
<text text-anchor="middle" x="23" y="-141.5" font-family="Helvetica,sans-Serif" font-size="10.00">IMatrix</text>
</a>
</g>
</g>
<!-- Node3&#45;&gt;Node1 -->
<g id="edge4" class="edge"><title>Node3&#45;&gt;Node1</title>
<path fill="none" stroke="midnightblue" d="M23.572,-123.9C24.9756,-107.308 29.2808,-83.426 42,-67 60.5678,-43.021 92.4138,-27.9845 115.791,-19.604"/>
<polygon fill="midnightblue" stroke="midnightblue" points="20.0688,-123.859 22.996,-134.041 27.0575,-124.256 20.0688,-123.859"/>
</g>
<!-- Node3&#45;&gt;Node2 -->
<g id="edge2" class="edge"><title>Node3&#45;&gt;Node2</title>
<path fill="none" stroke="midnightblue" d="M38.3581,-126.635C50.2879,-113.923 66.359,-96.7978 75.9036,-86.6273"/>
<polygon fill="midnightblue" stroke="midnightblue" points="35.5177,-124.547 31.2267,-134.234 40.6221,-129.337 35.5177,-124.547"/>
</g>
<!-- Node4 -->
<g id="node4" class="node"><title>Node4</title>
<g id="a_node4"><a xlink:title=" ">
<polygon fill="white" stroke="#bfbfbf" points="64.5,-134.5 64.5,-153.5 105.5,-153.5 105.5,-134.5 64.5,-134.5"/>
<text text-anchor="middle" x="85" y="-141.5" font-family="Helvetica,sans-Serif" font-size="10.00">static</text>
</a>
</g>
</g>
<!-- Node4&#45;&gt;Node2 -->
<g id="edge3" class="edge"><title>Node4&#45;&gt;Node2</title>
<path fill="none" stroke="#9a32cd" stroke-dasharray="5,2" d="M84.7083,-124.037C84.518,-111.67 84.2788,-96.1198 84.1327,-86.6273"/>
<polygon fill="#9a32cd" stroke="#9a32cd" points="81.2116,-124.289 84.8651,-134.234 88.2108,-124.181 81.2116,-124.289"/>
<text text-anchor="middle" x="114.5" y="-108" font-family="Helvetica,sans-Serif" font-size="10.00"> _matrixStore</text>
</g>
<!-- Node5 -->
<g id="node5" class="node"><title>Node5</title>
<g id="a_node5"><a xlink:title=" ">
<polygon fill="white" stroke="#bfbfbf" points="135,-67.5 135,-86.5 197,-86.5 197,-67.5 135,-67.5"/>
<text text-anchor="middle" x="166" y="-74.5" font-family="Helvetica,sans-Serif" font-size="10.00">ICloneable</text>
</a>
</g>
</g>
<!-- Node5&#45;&gt;Node1 -->
<g id="edge5" class="edge"><title>Node5&#45;&gt;Node1</title>
<path fill="none" stroke="midnightblue" d="M159.995,-57.4145C155.981,-44.9883 150.885,-29.2166 147.787,-19.6273"/>
<polygon fill="midnightblue" stroke="midnightblue" points="156.763,-58.7941 163.168,-67.2338 163.424,-56.6421 156.763,-58.7941"/>
</g>
<!-- Node6 -->
<g id="node6" class="node"><title>Node6</title>
<g id="a_node6"><a xlink:href="../../de/d1b/structIG_1_1Num_1_1mat2.html" target="_top" xlink:title="2D matrix, struct implementation.">
<polygon fill="white" stroke="black" points="215,-67.5 215,-86.5 289,-86.5 289,-67.5 215,-67.5"/>
<text text-anchor="middle" x="252" y="-74.5" font-family="Helvetica,sans-Serif" font-size="10.00">IG.Num.mat2</text>
</a>
</g>
</g>
<!-- Node6&#45;&gt;Node1 -->
<g id="edge6" class="edge"><title>Node6&#45;&gt;Node1</title>
<path fill="none" stroke="#9a32cd" stroke-dasharray="5,2" d="M228.859,-61.9422C207.669,-49.0696 176.981,-30.4274 159.202,-19.6273"/>
<polygon fill="#9a32cd" stroke="#9a32cd" points="227.206,-65.0332 237.57,-67.2338 230.84,-59.0506 227.206,-65.0332"/>
<text text-anchor="middle" x="213.5" y="-41" font-family="Helvetica,sans-Serif" font-size="10.00"> _m</text>
</g>
</g>
</svg>
