<?xml version="1.0" encoding="UTF-8" standalone="no"?>
<!DOCTYPE svg PUBLIC "-//W3C//DTD SVG 1.1//EN"
 "http://www.w3.org/Graphics/SVG/1.1/DTD/svg11.dtd">
<!-- Generated by graphviz version 2.38.0 (20140413.2041)
 -->
<!-- Title: IG.Lib.CommandLineInterpreter Pages: 1 -->
<svg width="339pt" height="214pt"
 viewBox="0.00 0.00 339.00 214.00" xmlns="http://www.w3.org/2000/svg" xmlns:xlink="http://www.w3.org/1999/xlink">
<g id="graph0" class="graph" transform="scale(1 1) rotate(0) translate(4 210)">
<title>IG.Lib.CommandLineInterpreter</title>
<polygon fill="white" stroke="none" points="-4,4 -4,-210 335,-210 335,4 -4,4"/>
<!-- Node1 -->
<g id="node1" class="node"><title>Node1</title>
<g id="a_node1"><a xlink:title="Base class for all command line interpreters.">
<polygon fill="#bfbfbf" stroke="black" points="180,-88 180,-107 331,-107 331,-88 180,-88"/>
<text text-anchor="middle" x="255.5" y="-95" font-family="Helvetica,sans-Serif" font-size="10.00">IG.Lib.CommandLineInterpreter</text>
</a>
</g>
</g>
<!-- Node2 -->
<g id="node2" class="node"><title>Node2</title>
<g id="a_node2"><a xlink:href="../../d9/d4e/classIG_1_1Lib_1_1InterpreterBase.html" target="_top" xlink:title=" ">
<polygon fill="white" stroke="black" points="4,-175.5 4,-205.5 140,-205.5 140,-175.5 4,-175.5"/>
<text text-anchor="start" x="12" y="-193.5" font-family="Helvetica,sans-Serif" font-size="10.00">InterpreterBase&lt; Command</text>
<text text-anchor="middle" x="72" y="-182.5" font-family="Helvetica,sans-Serif" font-size="10.00">Line, CommandLineData &gt;</text>
</a>
</g>
</g>
<!-- Node2&#45;&gt;Node1 -->
<g id="edge1" class="edge"><title>Node2&#45;&gt;Node1</title>
<path fill="none" stroke="midnightblue" d="M132.071,-171.718C136.151,-170.059 140.163,-168.316 144,-166.5 181.206,-148.89 221.36,-121.444 241.465,-107.049"/>
<polygon fill="midnightblue" stroke="midnightblue" points="130.539,-168.558 122.477,-175.432 133.066,-175.086 130.539,-168.558"/>
</g>
<!-- Node3 -->
<g id="node3" class="node"><title>Node3</title>
<g id="a_node3"><a xlink:href="../../d4/d11/interfaceIG_1_1Lib_1_1IInterpreter.html" target="_top" xlink:title=" ">
<polygon fill="white" stroke="black" points="3.5,-126.5 3.5,-156.5 140.5,-156.5 140.5,-126.5 3.5,-126.5"/>
<text text-anchor="start" x="11.5" y="-144.5" font-family="Helvetica,sans-Serif" font-size="10.00">IInterpreter&lt; CommandLine,</text>
<text text-anchor="middle" x="72" y="-133.5" font-family="Helvetica,sans-Serif" font-size="10.00"> CommandLineData &gt;</text>
</a>
</g>
</g>
<!-- Node3&#45;&gt;Node1 -->
<g id="edge2" class="edge"><title>Node3&#45;&gt;Node1</title>
<path fill="none" stroke="midnightblue" d="M144.76,-124.104C168.785,-118.279 194.669,-112.005 215.261,-107.012"/>
<polygon fill="midnightblue" stroke="midnightblue" points="143.848,-120.723 134.954,-126.481 145.497,-127.526 143.848,-120.723"/>
</g>
<!-- Node4 -->
<g id="node4" class="node"><title>Node4</title>
<g id="a_node4"><a xlink:href="../../d3/db6/interfaceIG_1_1Lib_1_1ILockable.html" target="_top" xlink:title="Lockable object, has a Lock property that returns object on which lock must be performed in order to ...">
<polygon fill="white" stroke="black" points="43,-88 43,-107 101,-107 101,-88 43,-88"/>
<text text-anchor="middle" x="72" y="-95" font-family="Helvetica,sans-Serif" font-size="10.00">ILockable</text>
</a>
</g>
</g>
<!-- Node4&#45;&gt;Node1 -->
<g id="edge3" class="edge"><title>Node4&#45;&gt;Node1</title>
<path fill="none" stroke="midnightblue" d="M111.54,-97.5C131.4,-97.5 156.316,-97.5 179.76,-97.5"/>
<polygon fill="midnightblue" stroke="midnightblue" points="111.359,-94.0001 101.359,-97.5 111.359,-101 111.359,-94.0001"/>
</g>
<!-- Node5 -->
<g id="node5" class="node"><title>Node5</title>
<g id="a_node5"><a xlink:title=" ">
<polygon fill="white" stroke="#bfbfbf" points="38.5,-50 38.5,-69 105.5,-69 105.5,-50 38.5,-50"/>
<text text-anchor="middle" x="72" y="-57" font-family="Helvetica,sans-Serif" font-size="10.00">IDisposable</text>
</a>
</g>
</g>
<!-- Node5&#45;&gt;Node1 -->
<g id="edge4" class="edge"><title>Node5&#45;&gt;Node1</title>
<path fill="none" stroke="midnightblue" d="M115.769,-68.4545C143.778,-74.3186 180.346,-81.9747 208.907,-87.9543"/>
<polygon fill="midnightblue" stroke="midnightblue" points="116.373,-65.0051 105.868,-66.3815 114.939,-71.8565 116.373,-65.0051"/>
</g>
<!-- Node6 -->
<g id="node6" class="node"><title>Node6</title>
<g id="a_node6"><a xlink:href="../../d5/d7a/interfaceIG_1_1Lib_1_1IRegisterable.html" target="_top" xlink:title=" ">
<polygon fill="white" stroke="black" points="0,-0.5 0,-30.5 144,-30.5 144,-0.5 0,-0.5"/>
<text text-anchor="start" x="8" y="-18.5" font-family="Helvetica,sans-Serif" font-size="10.00">IRegisterable&lt; CommandLine</text>
<text text-anchor="middle" x="72" y="-7.5" font-family="Helvetica,sans-Serif" font-size="10.00">Interpreter &gt;</text>
</a>
</g>
</g>
<!-- Node6&#45;&gt;Node1 -->
<g id="edge5" class="edge"><title>Node6&#45;&gt;Node1</title>
<path fill="none" stroke="midnightblue" d="M128.377,-34.1613C133.695,-36.2039 138.976,-38.3318 144,-40.5 178.089,-55.2108 216.252,-75.8847 237.627,-87.8681"/>
<polygon fill="midnightblue" stroke="midnightblue" points="129.403,-30.8084 118.81,-30.5864 126.953,-37.3655 129.403,-30.8084"/>
</g>
</g>
</svg>
