<?xml version="1.0" encoding="UTF-8" standalone="no"?>
<!DOCTYPE svg PUBLIC "-//W3C//DTD SVG 1.1//EN"
 "http://www.w3.org/Graphics/SVG/1.1/DTD/svg11.dtd">
<!-- Generated by graphviz version 2.38.0 (20140413.2041)
 -->
<!-- Title: IG.Script.ScritpScalarFunctionExample.Container Pages: 1 -->
<svg width="184pt" height="174pt"
 viewBox="0.00 0.00 183.50 174.00" xmlns="http://www.w3.org/2000/svg" xmlns:xlink="http://www.w3.org/1999/xlink">
<g id="graph0" class="graph" transform="scale(1 1) rotate(0) translate(4 170)">
<title>IG.Script.ScritpScalarFunctionExample.Container</title>
<polygon fill="white" stroke="none" points="-4,4 -4,-170 179.5,-170 179.5,4 -4,4"/>
<!-- Node1 -->
<g id="node1" class="node"><title>Node1</title>
<g id="a_node1"><a xlink:title="Container class inherits from M in order to enable use of comfortable mathematical functions.">
<polygon fill="#bfbfbf" stroke="black" points="0,-0.5 0,-30.5 149,-30.5 149,-0.5 0,-0.5"/>
<text text-anchor="start" x="8" y="-18.5" font-family="Helvetica,sans-Serif" font-size="10.00">IG.Script.ScritpScalarFunction</text>
<text text-anchor="middle" x="74.5" y="-7.5" font-family="Helvetica,sans-Serif" font-size="10.00">Example.Container</text>
</a>
</g>
</g>
<!-- Node2 -->
<g id="node2" class="node"><title>Node2</title>
<g id="a_node2"><a xlink:href="../../d5/db7/classIG_1_1Num_1_1M.html" target="_top" xlink:title="Defines some mathematical functions to be used in derived and other classes.">
<polygon fill="white" stroke="black" points="60,-68.5 60,-87.5 89,-87.5 89,-68.5 60,-68.5"/>
<text text-anchor="middle" x="74.5" y="-75.5" font-family="Helvetica,sans-Serif" font-size="10.00">M</text>
</a>
</g>
</g>
<!-- Node2&#45;&gt;Node1 -->
<g id="edge1" class="edge"><title>Node2&#45;&gt;Node1</title>
<path fill="none" stroke="midnightblue" d="M74.5,-58.2154C74.5,-49.3565 74.5,-38.9577 74.5,-30.7587"/>
<polygon fill="midnightblue" stroke="midnightblue" points="71.0001,-58.3318 74.5,-68.3318 78.0001,-58.3319 71.0001,-58.3318"/>
</g>
<!-- Node3 -->
<g id="node3" class="node"><title>Node3</title>
<g id="a_node3"><a xlink:title=" ">
<polygon fill="white" stroke="#bfbfbf" points="54,-146.5 54,-165.5 95,-165.5 95,-146.5 54,-146.5"/>
<text text-anchor="middle" x="74.5" y="-153.5" font-family="Helvetica,sans-Serif" font-size="10.00">static</text>
</a>
</g>
</g>
<!-- Node3&#45;&gt;Node2 -->
<g id="edge2" class="edge"><title>Node3&#45;&gt;Node2</title>
<path fill="none" stroke="#9a32cd" stroke-dasharray="5,2" d="M74.5,-136.224C74.5,-120.697 74.5,-99.3582 74.5,-87.6165"/>
<polygon fill="#9a32cd" stroke="#9a32cd" points="71.0001,-136.282 74.5,-146.282 78.0001,-136.282 71.0001,-136.282"/>
<text text-anchor="middle" x="125" y="-120" font-family="Helvetica,sans-Serif" font-size="10.00"> factorials64</text>
<text text-anchor="middle" x="125" y="-109" font-family="Helvetica,sans-Serif" font-size="10.00">factorialsArrayChecked</text>
</g>
</g>
</svg>
