<?xml version="1.0" encoding="UTF-8" standalone="no"?>
<!DOCTYPE svg PUBLIC "-//W3C//DTD SVG 1.1//EN"
 "http://www.w3.org/Graphics/SVG/1.1/DTD/svg11.dtd">
<!-- Generated by graphviz version 2.38.0 (20140413.2041)
 -->
<!-- Title: IG.Lib.ISettingsRreader Pages: 1 -->
<svg width="142pt" height="151pt"
 viewBox="0.00 0.00 142.00 151.00" xmlns="http://www.w3.org/2000/svg" xmlns:xlink="http://www.w3.org/1999/xlink">
<g id="graph0" class="graph" transform="scale(1 1) rotate(0) translate(4 147)">
<title>IG.Lib.ISettingsRreader</title>
<polygon fill="white" stroke="none" points="-4,4 -4,-147 138,-147 138,4 -4,4"/>
<!-- Node1 -->
<g id="node1" class="node"><title>Node1</title>
<g id="a_node1"><a xlink:title="Interface for settings readers, which read pairs key/vvalue from various files or configuration serve...">
<polygon fill="#bfbfbf" stroke="black" points="8.5,-123.5 8.5,-142.5 125.5,-142.5 125.5,-123.5 8.5,-123.5"/>
<text text-anchor="middle" x="67" y="-130.5" font-family="Helvetica,sans-Serif" font-size="10.00">IG.Lib.ISettingsRreader</text>
</a>
</g>
</g>
<!-- Node2 -->
<g id="node2" class="node"><title>Node2</title>
<g id="a_node2"><a xlink:href="../../dc/d76/classIG_1_1Lib_1_1SettingsReaderBase.html" target="_top" xlink:title=" ">
<polygon fill="white" stroke="black" points="0,-67.5 0,-86.5 134,-86.5 134,-67.5 0,-67.5"/>
<text text-anchor="middle" x="67" y="-74.5" font-family="Helvetica,sans-Serif" font-size="10.00">IG.Lib.SettingsReaderBase</text>
</a>
</g>
</g>
<!-- Node1&#45;&gt;Node2 -->
<g id="edge1" class="edge"><title>Node1&#45;&gt;Node2</title>
<path fill="none" stroke="midnightblue" d="M67,-112.805C67,-103.91 67,-93.7798 67,-86.7511"/>
<polygon fill="midnightblue" stroke="midnightblue" points="63.5001,-113.083 67,-123.083 70.5001,-113.083 63.5001,-113.083"/>
</g>
<!-- Node3 -->
<g id="node3" class="node"><title>Node3</title>
<g id="a_node3"><a xlink:href="../../df/d82/classIG_1_1Lib_1_1SettingsReaderAppConfig.html" target="_top" xlink:title="Provides functionality for retrieving settings from various sources such as application settings file...">
<polygon fill="white" stroke="black" points="2.5,-0.5 2.5,-30.5 131.5,-30.5 131.5,-0.5 2.5,-0.5"/>
<text text-anchor="start" x="10.5" y="-18.5" font-family="Helvetica,sans-Serif" font-size="10.00">IG.Lib.SettingsReaderApp</text>
<text text-anchor="middle" x="67" y="-7.5" font-family="Helvetica,sans-Serif" font-size="10.00">Config</text>
</a>
</g>
</g>
<!-- Node2&#45;&gt;Node3 -->
<g id="edge2" class="edge"><title>Node2&#45;&gt;Node3</title>
<path fill="none" stroke="midnightblue" d="M67,-57.2349C67,-48.5864 67,-38.4969 67,-30.523"/>
<polygon fill="midnightblue" stroke="midnightblue" points="63.5001,-57.4751 67,-67.4751 70.5001,-57.4751 63.5001,-57.4751"/>
</g>
</g>
</svg>
