<?xml version="1.0" encoding="UTF-8" standalone="no"?>
<!DOCTYPE svg PUBLIC "-//W3C//DTD SVG 1.1//EN"
 "http://www.w3.org/Graphics/SVG/1.1/DTD/svg11.dtd">
<!-- Generated by graphviz version 2.38.0 (20140413.2041)
 -->
<!-- Title: IG.Num.StructuredMeshGeometry2d&lt; TCoord &gt; Pages: 1 -->
<svg width="183pt" height="106pt"
 viewBox="0.00 0.00 183.00 106.00" xmlns="http://www.w3.org/2000/svg" xmlns:xlink="http://www.w3.org/1999/xlink">
<g id="graph0" class="graph" transform="scale(1 1) rotate(0) translate(4 102)">
<title>IG.Num.StructuredMeshGeometry2d&lt; TCoord &gt;</title>
<polygon fill="white" stroke="none" points="-4,4 -4,-102 179,-102 179,4 -4,4"/>
<!-- Node1 -->
<g id="node1" class="node"><title>Node1</title>
<g id="a_node1"><a xlink:title="Structured mesh geometry in 2 dimensions.">
<polygon fill="#bfbfbf" stroke="black" points="0,-0.5 0,-30.5 175,-30.5 175,-0.5 0,-0.5"/>
<text text-anchor="start" x="8" y="-18.5" font-family="Helvetica,sans-Serif" font-size="10.00">IG.Num.StructuredMeshGeometry2d</text>
<text text-anchor="middle" x="87.5" y="-7.5" font-family="Helvetica,sans-Serif" font-size="10.00">&lt; TCoord &gt;</text>
</a>
</g>
</g>
<!-- Node2 -->
<g id="node2" class="node"><title>Node2</title>
<g id="a_node2"><a xlink:href="../../dd/db2/classIG_1_1Num_1_1StructuredField2d.html" target="_top" xlink:title=" ">
<polygon fill="white" stroke="black" points="38,-67.5 38,-97.5 137,-97.5 137,-67.5 38,-67.5"/>
<text text-anchor="start" x="46" y="-85.5" font-family="Helvetica,sans-Serif" font-size="10.00">StructuredField2d&lt;</text>
<text text-anchor="middle" x="87.5" y="-74.5" font-family="Helvetica,sans-Serif" font-size="10.00"> TCoord &gt;</text>
</a>
</g>
</g>
<!-- Node2&#45;&gt;Node1 -->
<g id="edge1" class="edge"><title>Node2&#45;&gt;Node1</title>
<path fill="none" stroke="midnightblue" d="M87.5,-57.1081C87.5,-48.1539 87.5,-38.3227 87.5,-30.5765"/>
<polygon fill="midnightblue" stroke="midnightblue" points="84.0001,-57.3959 87.5,-67.396 91.0001,-57.396 84.0001,-57.3959"/>
</g>
</g>
</svg>
