<?xml version="1.0" encoding="UTF-8" standalone="no"?>
<!DOCTYPE svg PUBLIC "-//W3C//DTD SVG 1.1//EN"
 "http://www.w3.org/Graphics/SVG/1.1/DTD/svg11.dtd">
<!-- Generated by graphviz version 2.38.0 (20140413.2041)
 -->
<!-- Title: IG.Lib.ScalarVar Pages: 1 -->
<svg width="214pt" height="308pt"
 viewBox="0.00 0.00 214.00 308.00" xmlns="http://www.w3.org/2000/svg" xmlns:xlink="http://www.w3.org/1999/xlink">
<g id="graph0" class="graph" transform="scale(1 1) rotate(0) translate(4 304)">
<title>IG.Lib.ScalarVar</title>
<polygon fill="white" stroke="none" points="-4,4 -4,-304 210,-304 210,4 -4,4"/>
<!-- Node1 -->
<g id="node1" class="node"><title>Node1</title>
<g id="a_node1"><a xlink:title="Scalar variable.">
<polygon fill="#bfbfbf" stroke="black" points="69.5,-0.5 69.5,-19.5 157.5,-19.5 157.5,-0.5 69.5,-0.5"/>
<text text-anchor="middle" x="113.5" y="-7.5" font-family="Helvetica,sans-Serif" font-size="10.00">IG.Lib.ScalarVar</text>
</a>
</g>
</g>
<!-- Node2 -->
<g id="node2" class="node"><title>Node2</title>
<g id="a_node2"><a xlink:href="../../d0/dc6/classIG_1_1Lib_1_1VarTypeBase.html" target="_top" xlink:title="DO NOT USE! The base class implementing the IVarType interface.">
<polygon fill="white" stroke="black" points="76,-56.5 76,-75.5 151,-75.5 151,-56.5 76,-56.5"/>
<text text-anchor="middle" x="113.5" y="-63.5" font-family="Helvetica,sans-Serif" font-size="10.00">VarTypeBase</text>
</a>
</g>
</g>
<!-- Node2&#45;&gt;Node1 -->
<g id="edge1" class="edge"><title>Node2&#45;&gt;Node1</title>
<path fill="none" stroke="midnightblue" d="M113.5,-45.8045C113.5,-36.9102 113.5,-26.7798 113.5,-19.7511"/>
<polygon fill="midnightblue" stroke="midnightblue" points="110,-46.083 113.5,-56.083 117,-46.083 110,-46.083"/>
</g>
<!-- Node3 -->
<g id="node3" class="node"><title>Node3</title>
<g id="a_node3"><a xlink:href="../../d8/d2d/interfaceIG_1_1Lib_1_1IVarType.html" target="_top" xlink:title="Defines classes that can represent variables of different types. Used e.g. in interpreters and variab...">
<polygon fill="white" stroke="black" points="86,-112.5 86,-131.5 141,-131.5 141,-112.5 86,-112.5"/>
<text text-anchor="middle" x="113.5" y="-119.5" font-family="Helvetica,sans-Serif" font-size="10.00">IVarType</text>
</a>
</g>
</g>
<!-- Node3&#45;&gt;Node2 -->
<g id="edge2" class="edge"><title>Node3&#45;&gt;Node2</title>
<path fill="none" stroke="midnightblue" d="M113.5,-101.805C113.5,-92.9102 113.5,-82.7798 113.5,-75.7511"/>
<polygon fill="midnightblue" stroke="midnightblue" points="110,-102.083 113.5,-112.083 117,-102.083 110,-102.083"/>
</g>
<!-- Node4 -->
<g id="node4" class="node"><title>Node4</title>
<g id="a_node4"><a xlink:href="../../dd/d2c/interfaceIG_1_1Lib_1_1IXmlConvertable.html" target="_top" xlink:title="Defines classes that can be converted to/from Xml elements.">
<polygon fill="white" stroke="black" points="20,-168.5 20,-187.5 105,-187.5 105,-168.5 20,-168.5"/>
<text text-anchor="middle" x="62.5" y="-175.5" font-family="Helvetica,sans-Serif" font-size="10.00">IXmlConvertable</text>
</a>
</g>
</g>
<!-- Node4&#45;&gt;Node3 -->
<g id="edge3" class="edge"><title>Node4&#45;&gt;Node3</title>
<path fill="none" stroke="midnightblue" d="M77.8779,-160.718C86.8669,-151.2 97.8592,-139.561 105.235,-131.751"/>
<polygon fill="midnightblue" stroke="midnightblue" points="75.2433,-158.41 70.9216,-168.083 80.3324,-163.216 75.2433,-158.41"/>
</g>
<!-- Node5 -->
<g id="node5" class="node"><title>Node5</title>
<g id="a_node5"><a xlink:href="../../d6/d87/interfaceIG_1_1Lib_1_1IFromXml.html" target="_top" xlink:title="Defines classes whose instances can be converted to Xml elements. Conversion is different from that u...">
<polygon fill="white" stroke="black" points="0,-224.5 0,-243.5 57,-243.5 57,-224.5 0,-224.5"/>
<text text-anchor="middle" x="28.5" y="-231.5" font-family="Helvetica,sans-Serif" font-size="10.00">IFromXml</text>
</a>
</g>
</g>
<!-- Node5&#45;&gt;Node4 -->
<g id="edge4" class="edge"><title>Node5&#45;&gt;Node4</title>
<path fill="none" stroke="midnightblue" d="M39.4772,-215.566C45.327,-206.275 52.2695,-195.248 56.9901,-187.751"/>
<polygon fill="midnightblue" stroke="midnightblue" points="36.4808,-213.756 34.1144,-224.083 42.4044,-217.486 36.4808,-213.756"/>
</g>
<!-- Node6 -->
<g id="node6" class="node"><title>Node6</title>
<g id="a_node6"><a xlink:href="../../da/d7e/interfaceIG_1_1Lib_1_1ITypeName.html" target="_top" xlink:title="Classes that provide separate type names. Classes used e.g. in interpreter systems to represent types...">
<polygon fill="white" stroke="black" points="30,-280.5 30,-299.5 95,-299.5 95,-280.5 30,-280.5"/>
<text text-anchor="middle" x="62.5" y="-287.5" font-family="Helvetica,sans-Serif" font-size="10.00">ITypeName</text>
</a>
</g>
</g>
<!-- Node6&#45;&gt;Node5 -->
<g id="edge5" class="edge"><title>Node6&#45;&gt;Node5</title>
<path fill="none" stroke="midnightblue" d="M51.5228,-271.566C45.673,-262.275 38.7305,-251.248 34.0099,-243.751"/>
<polygon fill="midnightblue" stroke="midnightblue" points="48.5956,-273.486 56.8856,-280.083 54.5192,-269.756 48.5956,-273.486"/>
</g>
<!-- Node7 -->
<g id="node7" class="node"><title>Node7</title>
<g id="a_node7"><a xlink:href="../../d3/dd7/interfaceIG_1_1Lib_1_1IToXml.html" target="_top" xlink:title="Defines classes whose instances can be created from Xml elements. Conversion is different from that u...">
<polygon fill="white" stroke="black" points="75,-224.5 75,-243.5 120,-243.5 120,-224.5 75,-224.5"/>
<text text-anchor="middle" x="97.5" y="-231.5" font-family="Helvetica,sans-Serif" font-size="10.00">IToXml</text>
</a>
</g>
</g>
<!-- Node6&#45;&gt;Node7 -->
<g id="edge7" class="edge"><title>Node6&#45;&gt;Node7</title>
<path fill="none" stroke="midnightblue" d="M73.8001,-271.566C79.8219,-262.275 86.9686,-251.248 91.828,-243.751"/>
<polygon fill="midnightblue" stroke="midnightblue" points="70.7815,-269.788 68.2795,-280.083 76.6556,-273.595 70.7815,-269.788"/>
</g>
<!-- Node7&#45;&gt;Node4 -->
<g id="edge6" class="edge"><title>Node7&#45;&gt;Node4</title>
<path fill="none" stroke="midnightblue" d="M86.1999,-215.566C80.1781,-206.275 73.0314,-195.248 68.172,-187.751"/>
<polygon fill="midnightblue" stroke="midnightblue" points="83.3444,-217.595 91.7205,-224.083 89.2185,-213.788 83.3444,-217.595"/>
</g>
<!-- Node8 -->
<g id="node8" class="node"><title>Node8</title>
<g id="a_node8"><a xlink:href="../../d2/d80/interfaceIG_1_1Lib_1_1IStringParsable.html" target="_top" xlink:title="Defines classes that can be converted to strings and whose values can be parsed from strings....">
<polygon fill="white" stroke="black" points="123,-168.5 123,-187.5 206,-187.5 206,-168.5 123,-168.5"/>
<text text-anchor="middle" x="164.5" y="-175.5" font-family="Helvetica,sans-Serif" font-size="10.00">IStringParsable</text>
</a>
</g>
</g>
<!-- Node8&#45;&gt;Node3 -->
<g id="edge8" class="edge"><title>Node8&#45;&gt;Node3</title>
<path fill="none" stroke="midnightblue" d="M149.122,-160.718C140.133,-151.2 129.141,-139.561 121.765,-131.751"/>
<polygon fill="midnightblue" stroke="midnightblue" points="146.668,-163.216 156.078,-168.083 151.757,-158.41 146.668,-163.216"/>
</g>
</g>
</svg>
