<?xml version="1.0" encoding="UTF-8" standalone="no"?>
<!DOCTYPE svg PUBLIC "-//W3C//DTD SVG 1.1//EN"
 "http://www.w3.org/Graphics/SVG/1.1/DTD/svg11.dtd">
<!-- Generated by graphviz version 2.38.0 (20140413.2041)
 -->
<!-- Title: IG.Num.MatrixBase Pages: 1 -->
<svg width="304pt" height="140pt"
 viewBox="0.00 0.00 304.00 140.00" xmlns="http://www.w3.org/2000/svg" xmlns:xlink="http://www.w3.org/1999/xlink">
<g id="graph0" class="graph" transform="scale(1 1) rotate(0) translate(4 136)">
<title>IG.Num.MatrixBase</title>
<polygon fill="white" stroke="none" points="-4,4 -4,-136 300,-136 300,4 -4,4"/>
<!-- Node1 -->
<g id="node1" class="node"><title>Node1</title>
<g id="a_node1"><a xlink:title="Base class for matrices.">
<polygon fill="#bfbfbf" stroke="black" points="92,-56.5 92,-75.5 194,-75.5 194,-56.5 92,-56.5"/>
<text text-anchor="middle" x="143" y="-63.5" font-family="Helvetica,sans-Serif" font-size="10.00">IG.Num.MatrixBase</text>
</a>
</g>
</g>
<!-- Node3 -->
<g id="node3" class="node"><title>Node3</title>
<g id="a_node3"><a xlink:href="../../d4/d1d/classIG_1_1Num_1_1Matrix.html" target="_top" xlink:title="Real matrix class. Some operations are performed by the MathNet.Numerics.LinearAlgebra....">
<polygon fill="white" stroke="black" points="0,-0.5 0,-19.5 80,-19.5 80,-0.5 0,-0.5"/>
<text text-anchor="middle" x="40" y="-7.5" font-family="Helvetica,sans-Serif" font-size="10.00">IG.Num.Matrix</text>
</a>
</g>
</g>
<!-- Node1&#45;&gt;Node3 -->
<g id="edge2" class="edge"><title>Node1&#45;&gt;Node3</title>
<path fill="none" stroke="midnightblue" d="M117.421,-51.5895C98.3766,-41.6052 72.9356,-28.2672 56.5077,-19.6545"/>
<polygon fill="midnightblue" stroke="midnightblue" points="115.969,-54.7805 126.451,-56.324 119.22,-48.5808 115.969,-54.7805"/>
</g>
<!-- Node4 -->
<g id="node4" class="node"><title>Node4</title>
<g id="a_node4"><a xlink:href="../../da/d89/classIG_1_1Num_1_1Matrix2d.html" target="_top" xlink:title="Matrix in a 2 dimensional space.">
<polygon fill="white" stroke="black" points="98,-0.5 98,-19.5 188,-19.5 188,-0.5 98,-0.5"/>
<text text-anchor="middle" x="143" y="-7.5" font-family="Helvetica,sans-Serif" font-size="10.00">IG.Num.Matrix2d</text>
</a>
</g>
</g>
<!-- Node1&#45;&gt;Node4 -->
<g id="edge3" class="edge"><title>Node1&#45;&gt;Node4</title>
<path fill="none" stroke="midnightblue" d="M143,-45.8045C143,-36.9102 143,-26.7798 143,-19.7511"/>
<polygon fill="midnightblue" stroke="midnightblue" points="139.5,-46.083 143,-56.083 146.5,-46.083 139.5,-46.083"/>
</g>
<!-- Node5 -->
<g id="node5" class="node"><title>Node5</title>
<g id="a_node5"><a xlink:href="../../da/d2e/classIG_1_1Num_1_1Matrix3d.html" target="_top" xlink:title="Matrix in a 3 dimensional space.">
<polygon fill="white" stroke="black" points="206,-0.5 206,-19.5 296,-19.5 296,-0.5 206,-0.5"/>
<text text-anchor="middle" x="251" y="-7.5" font-family="Helvetica,sans-Serif" font-size="10.00">IG.Num.Matrix3d</text>
</a>
</g>
</g>
<!-- Node1&#45;&gt;Node5 -->
<g id="edge4" class="edge"><title>Node1&#45;&gt;Node5</title>
<path fill="none" stroke="midnightblue" d="M169.548,-51.7261C189.546,-41.7271 216.387,-28.3065 233.691,-19.6545"/>
<polygon fill="midnightblue" stroke="midnightblue" points="167.731,-48.7213 160.352,-56.324 170.862,-54.9823 167.731,-48.7213"/>
</g>
<!-- Node2 -->
<g id="node2" class="node"><title>Node2</title>
<g id="a_node2"><a xlink:href="../../d8/d86/interfaceIG_1_1Num_1_1IMatrix.html" target="_top" xlink:title="Generic Matrix interface.">
<polygon fill="white" stroke="black" points="120,-112.5 120,-131.5 166,-131.5 166,-112.5 120,-112.5"/>
<text text-anchor="middle" x="143" y="-119.5" font-family="Helvetica,sans-Serif" font-size="10.00">IMatrix</text>
</a>
</g>
</g>
<!-- Node2&#45;&gt;Node1 -->
<g id="edge1" class="edge"><title>Node2&#45;&gt;Node1</title>
<path fill="none" stroke="midnightblue" d="M143,-101.805C143,-92.9102 143,-82.7798 143,-75.7511"/>
<polygon fill="midnightblue" stroke="midnightblue" points="139.5,-102.083 143,-112.083 146.5,-102.083 139.5,-102.083"/>
</g>
</g>
</svg>
