<?xml version="1.0" encoding="UTF-8" standalone="no"?>
<!DOCTYPE svg PUBLIC "-//W3C//DTD SVG 1.1//EN"
 "http://www.w3.org/Graphics/SVG/1.1/DTD/svg11.dtd">
<!-- Generated by graphviz version 2.38.0 (20140413.2041)
 -->
<!-- Title: IG.Num.SampledDataSet.ComparerOutputDistance Pages: 1 -->
<svg width="370pt" height="95pt"
 viewBox="0.00 0.00 370.00 95.00" xmlns="http://www.w3.org/2000/svg" xmlns:xlink="http://www.w3.org/1999/xlink">
<g id="graph0" class="graph" transform="scale(1 1) rotate(0) translate(4 91)">
<title>IG.Num.SampledDataSet.ComparerOutputDistance</title>
<polygon fill="white" stroke="none" points="-4,4 -4,-91 366,-91 366,4 -4,4"/>
<!-- Node1 -->
<g id="node1" class="node"><title>Node1</title>
<g id="a_node1"><a xlink:title="Comparer that compares two data elements of type SampledDataElement according to the distance of thei...">
<polygon fill="#bfbfbf" stroke="black" points="95,-0.5 95,-30.5 266,-30.5 266,-0.5 95,-0.5"/>
<text text-anchor="start" x="103" y="-18.5" font-family="Helvetica,sans-Serif" font-size="10.00">IG.Num.SampledDataSet.Comparer</text>
<text text-anchor="middle" x="180.5" y="-7.5" font-family="Helvetica,sans-Serif" font-size="10.00">OutputDistance</text>
</a>
</g>
</g>
<!-- Node2 -->
<g id="node2" class="node"><title>Node2</title>
<g id="a_node2"><a xlink:title=" ">
<polygon fill="white" stroke="#bfbfbf" points="0,-67.5 0,-86.5 171,-86.5 171,-67.5 0,-67.5"/>
<text text-anchor="middle" x="85.5" y="-74.5" font-family="Helvetica,sans-Serif" font-size="10.00">Comparer&lt; SampledDataElement &gt;</text>
</a>
</g>
</g>
<!-- Node2&#45;&gt;Node1 -->
<g id="edge1" class="edge"><title>Node2&#45;&gt;Node1</title>
<path fill="none" stroke="midnightblue" d="M107.84,-62.0084C122.992,-52.518 142.947,-40.02 158.11,-30.523"/>
<polygon fill="midnightblue" stroke="midnightblue" points="105.728,-59.2008 99.1112,-67.4751 109.444,-65.1333 105.728,-59.2008"/>
</g>
<!-- Node3 -->
<g id="node3" class="node"><title>Node3</title>
<g id="a_node3"><a xlink:title=" ">
<polygon fill="white" stroke="#bfbfbf" points="189,-67.5 189,-86.5 362,-86.5 362,-67.5 189,-67.5"/>
<text text-anchor="middle" x="275.5" y="-74.5" font-family="Helvetica,sans-Serif" font-size="10.00">IComparer&lt; SampledDataElement &gt;</text>
</a>
</g>
</g>
<!-- Node3&#45;&gt;Node1 -->
<g id="edge2" class="edge"><title>Node3&#45;&gt;Node1</title>
<path fill="none" stroke="midnightblue" d="M253.16,-62.0084C238.008,-52.518 218.053,-40.02 202.89,-30.523"/>
<polygon fill="midnightblue" stroke="midnightblue" points="251.556,-65.1333 261.889,-67.4751 255.272,-59.2008 251.556,-65.1333"/>
</g>
</g>
</svg>
