<?xml version="1.0" encoding="UTF-8" standalone="no"?>
<!DOCTYPE svg PUBLIC "-//W3C//DTD SVG 1.1//EN"
 "http://www.w3.org/Graphics/SVG/1.1/DTD/svg11.dtd">
<!-- Generated by graphviz version 2.38.0 (20140413.2041)
 -->
<!-- Title: IG.Lib.CommandLineApplicationScriptInterpreter Pages: 1 -->
<svg width="281pt" height="151pt"
 viewBox="0.00 0.00 280.50 151.00" xmlns="http://www.w3.org/2000/svg" xmlns:xlink="http://www.w3.org/1999/xlink">
<g id="graph0" class="graph" transform="scale(1 1) rotate(0) translate(4 147)">
<title>IG.Lib.CommandLineApplicationScriptInterpreter</title>
<polygon fill="white" stroke="none" points="-4,4 -4,-147 276.5,-147 276.5,4 -4,4"/>
<!-- Node1 -->
<g id="node1" class="node"><title>Node1</title>
<g id="a_node1"><a xlink:title="Command&#45;line interpreters adapted for executing script commands.">
<polygon fill="#bfbfbf" stroke="black" points="76,-0.5 76,-30.5 231,-30.5 231,-0.5 76,-0.5"/>
<text text-anchor="start" x="84" y="-18.5" font-family="Helvetica,sans-Serif" font-size="10.00">IG.Lib.CommandLineApplication</text>
<text text-anchor="middle" x="153.5" y="-7.5" font-family="Helvetica,sans-Serif" font-size="10.00">ScriptInterpreter</text>
</a>
</g>
</g>
<!-- Node2 -->
<g id="node2" class="node"><title>Node2</title>
<g id="a_node2"><a xlink:href="../../de/dcf/classIG_1_1Lib_1_1CommandLineApplicationInterpreter.html" target="_top" xlink:title="Simple command&#45;line application interpreters, holds a set of commands that can be executed by name....">
<polygon fill="white" stroke="black" points="68.5,-67.5 68.5,-86.5 238.5,-86.5 238.5,-67.5 68.5,-67.5"/>
<text text-anchor="middle" x="153.5" y="-74.5" font-family="Helvetica,sans-Serif" font-size="10.00">CommandLineApplicationInterpreter</text>
</a>
</g>
</g>
<!-- Node2&#45;&gt;Node1 -->
<g id="edge1" class="edge"><title>Node2&#45;&gt;Node1</title>
<path fill="none" stroke="midnightblue" d="M153.5,-57.2349C153.5,-48.5864 153.5,-38.4969 153.5,-30.523"/>
<polygon fill="midnightblue" stroke="midnightblue" points="150,-57.4751 153.5,-67.4751 157,-57.4751 150,-57.4751"/>
</g>
<!-- Node3 -->
<g id="node3" class="node"><title>Node3</title>
<g id="a_node3"><a xlink:href="../../de/dfd/interfaceIG_1_1Lib_1_1ICommandLineApplicationInterpreter.html" target="_top" xlink:title="Interface for simple command&#45;line applicatino interpreters.">
<polygon fill="white" stroke="black" points="0,-123.5 0,-142.5 173,-142.5 173,-123.5 0,-123.5"/>
<text text-anchor="middle" x="86.5" y="-130.5" font-family="Helvetica,sans-Serif" font-size="10.00">ICommandLineApplicationInterpreter</text>
</a>
</g>
</g>
<!-- Node3&#45;&gt;Node1 -->
<g id="edge4" class="edge"><title>Node3&#45;&gt;Node1</title>
<path fill="none" stroke="midnightblue" d="M71.1097,-115.249C60.6447,-101.732 50.2404,-82.4858 59.5,-67 69.6727,-49.9872 87.7632,-38.3738 105.376,-30.6183"/>
<polygon fill="midnightblue" stroke="midnightblue" points="68.6795,-117.797 77.7894,-123.207 74.0411,-113.297 68.6795,-117.797"/>
</g>
<!-- Node3&#45;&gt;Node2 -->
<g id="edge2" class="edge"><title>Node3&#45;&gt;Node2</title>
<path fill="none" stroke="midnightblue" d="M105.335,-116.82C117.338,-107.145 132.472,-94.9481 142.539,-86.8339"/>
<polygon fill="midnightblue" stroke="midnightblue" points="102.854,-114.324 97.2647,-123.324 107.247,-119.774 102.854,-114.324"/>
</g>
<!-- Node4 -->
<g id="node4" class="node"><title>Node4</title>
<g id="a_node4"><a xlink:href="../../d3/db6/interfaceIG_1_1Lib_1_1ILockable.html" target="_top" xlink:title="Lockable object, has a Lock property that returns object on which lock must be performed in order to ...">
<polygon fill="white" stroke="black" points="214.5,-123.5 214.5,-142.5 272.5,-142.5 272.5,-123.5 214.5,-123.5"/>
<text text-anchor="middle" x="243.5" y="-130.5" font-family="Helvetica,sans-Serif" font-size="10.00">ILockable</text>
</a>
</g>
</g>
<!-- Node4&#45;&gt;Node1 -->
<g id="edge5" class="edge"><title>Node4&#45;&gt;Node1</title>
<path fill="none" stroke="midnightblue" d="M249.954,-113.473C253.558,-99.691 255.833,-80.9354 247.5,-67 237.327,-49.9872 219.237,-38.3738 201.624,-30.6183"/>
<polygon fill="midnightblue" stroke="midnightblue" points="246.535,-112.687 246.957,-123.273 253.229,-114.734 246.535,-112.687"/>
</g>
<!-- Node4&#45;&gt;Node2 -->
<g id="edge3" class="edge"><title>Node4&#45;&gt;Node2</title>
<path fill="none" stroke="midnightblue" d="M220.462,-118.177C203.901,-108.241 182.082,-95.1492 167.924,-86.6545"/>
<polygon fill="midnightblue" stroke="midnightblue" points="218.664,-121.18 229.04,-123.324 222.266,-115.178 218.664,-121.18"/>
</g>
</g>
</svg>
