<?xml version="1.0" encoding="UTF-8" standalone="no"?>
<!DOCTYPE svg PUBLIC "-//W3C//DTD SVG 1.1//EN"
 "http://www.w3.org/Graphics/SVG/1.1/DTD/svg11.dtd">
<!-- Generated by graphviz version 2.38.0 (20140413.2041)
 -->
<!-- Title: IG.Lib.StringTable Pages: 1 -->
<svg width="234pt" height="140pt"
 viewBox="0.00 0.00 234.00 140.00" xmlns="http://www.w3.org/2000/svg" xmlns:xlink="http://www.w3.org/1999/xlink">
<g id="graph0" class="graph" transform="scale(1 1) rotate(0) translate(4 136)">
<title>IG.Lib.StringTable</title>
<polygon fill="white" stroke="none" points="-4,4 -4,-136 230,-136 230,4 -4,4"/>
<!-- Node1 -->
<g id="node1" class="node"><title>Node1</title>
<g id="a_node1"><a xlink:title="2D tables of data represented by strings. Maps to CSV files.">
<polygon fill="#bfbfbf" stroke="black" points="54.5,-56.5 54.5,-75.5 148.5,-75.5 148.5,-56.5 54.5,-56.5"/>
<text text-anchor="middle" x="101.5" y="-63.5" font-family="Helvetica,sans-Serif" font-size="10.00">IG.Lib.StringTable</text>
</a>
</g>
</g>
<!-- Node3 -->
<g id="node3" class="node"><title>Node3</title>
<g id="a_node3"><a xlink:href="../../d9/d82/classIG_1_1Lib_1_1CsvData.html" target="_top" xlink:title="Memory representation of CSV data.">
<polygon fill="white" stroke="black" points="0,-0.5 0,-19.5 81,-19.5 81,-0.5 0,-0.5"/>
<text text-anchor="middle" x="40.5" y="-7.5" font-family="Helvetica,sans-Serif" font-size="10.00">IG.Lib.CsvData</text>
</a>
</g>
</g>
<!-- Node1&#45;&gt;Node3 -->
<g id="edge2" class="edge"><title>Node1&#45;&gt;Node3</title>
<path fill="none" stroke="midnightblue" d="M84.0328,-49.5372C73.1562,-39.9087 59.5561,-27.8694 50.479,-19.8339"/>
<polygon fill="midnightblue" stroke="midnightblue" points="81.8917,-52.3162 91.6993,-56.324 86.5316,-47.0749 81.8917,-52.3162"/>
</g>
<!-- Node4 -->
<g id="node4" class="node"><title>Node4</title>
<g id="a_node4"><a xlink:href="../../da/d93/classIG_1_1Num_1_1SampledDataCsv.html" target="_top" xlink:title="Base class for CSV (comma separated files) representation, importer and exporter of sampled data and ...">
<polygon fill="white" stroke="black" points="99,-0.5 99,-19.5 226,-19.5 226,-0.5 99,-0.5"/>
<text text-anchor="middle" x="162.5" y="-7.5" font-family="Helvetica,sans-Serif" font-size="10.00">IG.Num.SampledDataCsv</text>
</a>
</g>
</g>
<!-- Node1&#45;&gt;Node4 -->
<g id="edge3" class="edge"><title>Node1&#45;&gt;Node4</title>
<path fill="none" stroke="midnightblue" d="M118.967,-49.5372C129.844,-39.9087 143.444,-27.8694 152.521,-19.8339"/>
<polygon fill="midnightblue" stroke="midnightblue" points="116.468,-47.0749 111.301,-56.324 121.108,-52.3162 116.468,-47.0749"/>
</g>
<!-- Node2 -->
<g id="node2" class="node"><title>Node2</title>
<g id="a_node2"><a xlink:href="../../d3/db6/interfaceIG_1_1Lib_1_1ILockable.html" target="_top" xlink:title="Lockable object, has a Lock property that returns object on which lock must be performed in order to ...">
<polygon fill="white" stroke="black" points="72.5,-112.5 72.5,-131.5 130.5,-131.5 130.5,-112.5 72.5,-112.5"/>
<text text-anchor="middle" x="101.5" y="-119.5" font-family="Helvetica,sans-Serif" font-size="10.00">ILockable</text>
</a>
</g>
</g>
<!-- Node2&#45;&gt;Node1 -->
<g id="edge1" class="edge"><title>Node2&#45;&gt;Node1</title>
<path fill="none" stroke="midnightblue" d="M101.5,-101.805C101.5,-92.9102 101.5,-82.7798 101.5,-75.7511"/>
<polygon fill="midnightblue" stroke="midnightblue" points="98.0001,-102.083 101.5,-112.083 105,-102.083 98.0001,-102.083"/>
</g>
</g>
</svg>
