<?xml version="1.0" encoding="UTF-8" standalone="no"?>
<!DOCTYPE svg PUBLIC "-//W3C//DTD SVG 1.1//EN"
 "http://www.w3.org/Graphics/SVG/1.1/DTD/svg11.dtd">
<!-- Generated by graphviz version 2.38.0 (20140413.2041)
 -->
<!-- Title: IG.Num.SimKosecFileManagerConvBase Pages: 1 -->
<svg width="328pt" height="229pt"
 viewBox="0.00 0.00 328.00 229.00" xmlns="http://www.w3.org/2000/svg" xmlns:xlink="http://www.w3.org/1999/xlink">
<g id="graph0" class="graph" transform="scale(1 1) rotate(0) translate(4 225)">
<title>IG.Num.SimKosecFileManagerConvBase</title>
<polygon fill="white" stroke="none" points="-4,4 -4,-225 324,-225 324,4 -4,4"/>
<!-- Node1 -->
<g id="node1" class="node"><title>Node1</title>
<g id="a_node1"><a xlink:title="Base class for interface with simulator of G. Kosec for convection problems in a cave with obstacles.">
<polygon fill="#bfbfbf" stroke="black" points="84,-67.5 84,-97.5 235,-97.5 235,-67.5 84,-67.5"/>
<text text-anchor="start" x="92" y="-85.5" font-family="Helvetica,sans-Serif" font-size="10.00">IG.Num.SimKosecFileManager</text>
<text text-anchor="middle" x="159.5" y="-74.5" font-family="Helvetica,sans-Serif" font-size="10.00">ConvBase</text>
</a>
</g>
</g>
<!-- Node5 -->
<g id="node5" class="node"><title>Node5</title>
<g id="a_node5"><a xlink:href="../../d3/d50/classIG_1_1Num_1_1SimKosecFileManagerConv2.html" target="_top" xlink:title="Interface with simulator of G. Kosec for convection problems in a cave with 2 obstacles.">
<polygon fill="white" stroke="black" points="0,-0.5 0,-30.5 151,-30.5 151,-0.5 0,-0.5"/>
<text text-anchor="start" x="8" y="-18.5" font-family="Helvetica,sans-Serif" font-size="10.00">IG.Num.SimKosecFileManager</text>
<text text-anchor="middle" x="75.5" y="-7.5" font-family="Helvetica,sans-Serif" font-size="10.00">Conv2</text>
</a>
</g>
</g>
<!-- Node1&#45;&gt;Node5 -->
<g id="edge6" class="edge"><title>Node1&#45;&gt;Node5</title>
<path fill="none" stroke="midnightblue" d="M133.224,-61.1677C120.38,-51.2283 105.242,-39.5144 93.6912,-30.5765"/>
<polygon fill="midnightblue" stroke="midnightblue" points="131.223,-64.0442 141.273,-67.396 135.506,-58.508 131.223,-64.0442"/>
</g>
<!-- Node6 -->
<g id="node6" class="node"><title>Node6</title>
<g id="a_node6"><a xlink:href="../../d4/d0f/classIG_1_1Num_1_1SimKosecFileManagerConv3.html" target="_top" xlink:title="Interface with simulator of G. Kosec for convection problems in a cave with 3 obstacles.">
<polygon fill="white" stroke="black" points="169,-0.5 169,-30.5 320,-30.5 320,-0.5 169,-0.5"/>
<text text-anchor="start" x="177" y="-18.5" font-family="Helvetica,sans-Serif" font-size="10.00">IG.Num.SimKosecFileManager</text>
<text text-anchor="middle" x="244.5" y="-7.5" font-family="Helvetica,sans-Serif" font-size="10.00">Conv3</text>
</a>
</g>
</g>
<!-- Node1&#45;&gt;Node6 -->
<g id="edge7" class="edge"><title>Node1&#45;&gt;Node6</title>
<path fill="none" stroke="midnightblue" d="M186.088,-61.1677C199.086,-51.2283 214.404,-39.5144 226.092,-30.5765"/>
<polygon fill="midnightblue" stroke="midnightblue" points="183.761,-58.5412 177.944,-67.396 188.013,-64.1017 183.761,-58.5412"/>
</g>
<!-- Node2 -->
<g id="node2" class="node"><title>Node2</title>
<g id="a_node2"><a xlink:href="../../d9/dfc/classIG_1_1Num_1_1SimKosecFileManagerBase.html" target="_top" xlink:title="File manager for interfacing (for optimization purposes) the simulation code of Gregor Kosec.">
<polygon fill="white" stroke="black" points="91,-134.5 91,-153.5 228,-153.5 228,-134.5 91,-134.5"/>
<text text-anchor="middle" x="159.5" y="-141.5" font-family="Helvetica,sans-Serif" font-size="10.00">SimKosecFileManagerBase</text>
</a>
</g>
</g>
<!-- Node2&#45;&gt;Node1 -->
<g id="edge1" class="edge"><title>Node2&#45;&gt;Node1</title>
<path fill="none" stroke="midnightblue" d="M159.5,-124.235C159.5,-115.586 159.5,-105.497 159.5,-97.523"/>
<polygon fill="midnightblue" stroke="midnightblue" points="156,-124.475 159.5,-134.475 163,-124.475 156,-124.475"/>
</g>
<!-- Node3 -->
<g id="node3" class="node"><title>Node3</title>
<g id="a_node3"><a xlink:href="../../d6/d7c/interfaceIG_1_1Num_1_1IResponseEvaluatorVectorSimple.html" target="_top" xlink:title="Interface for simulators and other systems (used e.g. for optimization) that can calculate vector res...">
<polygon fill="white" stroke="black" points="37,-190.5 37,-220.5 168,-220.5 168,-190.5 37,-190.5"/>
<text text-anchor="start" x="45" y="-208.5" font-family="Helvetica,sans-Serif" font-size="10.00">IResponseEvaluatorVector</text>
<text text-anchor="middle" x="102.5" y="-197.5" font-family="Helvetica,sans-Serif" font-size="10.00">Simple</text>
</a>
</g>
</g>
<!-- Node3&#45;&gt;Node1 -->
<g id="edge4" class="edge"><title>Node3&#45;&gt;Node1</title>
<path fill="none" stroke="midnightblue" d="M86.976,-181.613C79.3602,-167.337 73.3915,-148.909 81.5,-134 90.4406,-117.561 107.294,-105.651 123.053,-97.5408"/>
<polygon fill="midnightblue" stroke="midnightblue" points="84.0049,-183.466 92.0871,-190.316 90.041,-179.921 84.0049,-183.466"/>
</g>
<!-- Node3&#45;&gt;Node2 -->
<g id="edge2" class="edge"><title>Node3&#45;&gt;Node2</title>
<path fill="none" stroke="midnightblue" d="M123.094,-183.002C132.809,-172.862 143.854,-161.332 151.206,-153.658"/>
<polygon fill="midnightblue" stroke="midnightblue" points="120.399,-180.757 116.008,-190.399 125.453,-185.599 120.399,-180.757"/>
</g>
<!-- Node4 -->
<g id="node4" class="node"><title>Node4</title>
<g id="a_node4"><a xlink:href="../../d3/db6/interfaceIG_1_1Lib_1_1ILockable.html" target="_top" xlink:title="Lockable object, has a Lock property that returns object on which lock must be performed in order to ...">
<polygon fill="white" stroke="black" points="206.5,-196 206.5,-215 264.5,-215 264.5,-196 206.5,-196"/>
<text text-anchor="middle" x="235.5" y="-203" font-family="Helvetica,sans-Serif" font-size="10.00">ILockable</text>
</a>
</g>
</g>
<!-- Node4&#45;&gt;Node1 -->
<g id="edge5" class="edge"><title>Node4&#45;&gt;Node1</title>
<path fill="none" stroke="midnightblue" d="M240.562,-185.538C243.459,-170.622 245.028,-149.792 236.5,-134 227.688,-117.683 211.052,-105.784 195.492,-97.6504"/>
<polygon fill="midnightblue" stroke="midnightblue" points="237.076,-185.078 238.233,-195.61 243.896,-186.656 237.076,-185.078"/>
</g>
<!-- Node4&#45;&gt;Node2 -->
<g id="edge3" class="edge"><title>Node4&#45;&gt;Node2</title>
<path fill="none" stroke="midnightblue" d="M216.716,-189.794C202.137,-178.38 182.438,-162.958 170.369,-153.509"/>
<polygon fill="midnightblue" stroke="midnightblue" points="214.579,-192.566 224.611,-195.975 218.895,-187.055 214.579,-192.566"/>
</g>
</g>
</svg>
