<?xml version="1.0" encoding="UTF-8" standalone="no"?>
<!DOCTYPE svg PUBLIC "-//W3C//DTD SVG 1.1//EN"
 "http://www.w3.org/Graphics/SVG/1.1/DTD/svg11.dtd">
<!-- Generated by graphviz version 2.38.0 (20140413.2041)
 -->
<!-- Title: IG.Neural.DataMapperSimple Pages: 1 -->
<svg width="688pt" height="133pt"
 viewBox="0.00 0.00 688.00 132.61" xmlns="http://www.w3.org/2000/svg" xmlns:xlink="http://www.w3.org/1999/xlink">
<g id="graph0" class="graph" transform="scale(1 1) rotate(0) translate(4 128.61)">
<title>IG.Neural.DataMapperSimple</title>
<polygon fill="white" stroke="none" points="-4,4 -4,-128.61 684,-128.61 684,4 -4,4"/>
<!-- Node1 -->
<g id="node1" class="node"><title>Node1</title>
<g id="a_node1"><a xlink:title=" ">
<polygon fill="#bfbfbf" stroke="black" points="537,-59.1101 537,-78.1101 680,-78.1101 680,-59.1101 537,-59.1101"/>
<text text-anchor="middle" x="608.5" y="-66.1101" font-family="Helvetica,sans-Serif" font-size="10.00">IG.Neural.DataMapperSimple</text>
</a>
</g>
</g>
<!-- Node2 -->
<g id="node2" class="node"><title>Node2</title>
<g id="a_node2"><a xlink:href="../../df/dec/classIG_1_1Neural_1_1DataMapperIdentity.html" target="_top" xlink:title=" ">
<polygon fill="white" stroke="black" points="285,-80.1101 285,-99.1101 386,-99.1101 386,-80.1101 285,-80.1101"/>
<text text-anchor="middle" x="335.5" y="-87.1101" font-family="Helvetica,sans-Serif" font-size="10.00">DataMapperIdentity</text>
</a>
</g>
</g>
<!-- Node2&#45;&gt;Node1 -->
<g id="edge1" class="edge"><title>Node2&#45;&gt;Node1</title>
<path fill="none" stroke="midnightblue" d="M396.439,-84.9654C437.927,-81.7504 493.308,-77.4589 536.931,-74.0785"/>
<polygon fill="midnightblue" stroke="midnightblue" points="395.905,-81.4961 386.206,-85.7583 396.446,-88.4752 395.905,-81.4961"/>
</g>
<!-- Node3 -->
<g id="node3" class="node"><title>Node3</title>
<g id="a_node3"><a xlink:href="../../d0/d0b/interfaceIG_1_1Neural_1_1IDataMapper.html" target="_top" xlink:title=" ">
<polygon fill="white" stroke="black" points="0,-105.11 0,-124.11 71,-124.11 71,-105.11 0,-105.11"/>
<text text-anchor="middle" x="35.5" y="-112.11" font-family="Helvetica,sans-Serif" font-size="10.00">IDataMapper</text>
</a>
</g>
</g>
<!-- Node3&#45;&gt;Node1 -->
<g id="edge3" class="edge"><title>Node3&#45;&gt;Node1</title>
<path fill="none" stroke="midnightblue" d="M81.4048,-117.402C167.423,-121.691 360.934,-126.212 519,-92.6101 537.997,-88.5716 558.987,-82.9316 575.756,-78.1337"/>
<polygon fill="midnightblue" stroke="midnightblue" points="81.382,-113.896 71.213,-116.869 81.0166,-120.887 81.382,-113.896"/>
</g>
<!-- Node3&#45;&gt;Node2 -->
<g id="edge2" class="edge"><title>Node3&#45;&gt;Node2</title>
<path fill="none" stroke="midnightblue" d="M81.3524,-110.847C136.024,-106.261 228.12,-98.5346 284.871,-93.7736"/>
<polygon fill="midnightblue" stroke="midnightblue" points="80.94,-107.369 71.2676,-111.693 81.5252,-114.345 80.94,-107.369"/>
</g>
<!-- Node4 -->
<g id="node4" class="node"><title>Node4</title>
<g id="a_node4"><a xlink:href="../../d5/dd5/classIG_1_1Num_1_1InputOutputDataDefiniton.html" target="_top" xlink:title="Definition of input and output data for vector functions, approximations, etc. Contains descriptiove ...">
<polygon fill="white" stroke="black" points="255,-42.1101 255,-61.1101 416,-61.1101 416,-42.1101 255,-42.1101"/>
<text text-anchor="middle" x="335.5" y="-49.1101" font-family="Helvetica,sans-Serif" font-size="10.00">IG.Num.InputOutputDataDefiniton</text>
</a>
</g>
</g>
<!-- Node4&#45;&gt;Node1 -->
<g id="edge4" class="edge"><title>Node4&#45;&gt;Node1</title>
<path fill="none" stroke="#9a32cd" stroke-dasharray="5,2" d="M426.367,-53.7314C455.903,-54.7823 488.879,-56.3338 519,-58.6101 524.705,-59.0412 530.609,-59.5566 536.537,-60.1229"/>
<polygon fill="#9a32cd" stroke="#9a32cd" points="426.188,-50.2233 416.074,-53.3802 425.949,-57.2192 426.188,-50.2233"/>
<text text-anchor="middle" x="476.5" y="-61.6101" font-family="Helvetica,sans-Serif" font-size="10.00"> _dataDefinition</text>
</g>
<!-- Node5 -->
<g id="node5" class="node"><title>Node5</title>
<g id="a_node5"><a xlink:title=" ">
<polygon fill="white" stroke="#bfbfbf" points="15,-1.11007 15,-20.1101 56,-20.1101 56,-1.11007 15,-1.11007"/>
<text text-anchor="middle" x="35.5" y="-8.11007" font-family="Helvetica,sans-Serif" font-size="10.00">static</text>
</a>
</g>
</g>
<!-- Node5&#45;&gt;Node4 -->
<g id="edge5" class="edge"><title>Node5&#45;&gt;Node4</title>
<path fill="none" stroke="#9a32cd" stroke-dasharray="5,2" d="M66.1441,-5.39444C106.425,0.357399 179.961,6.05832 237,-16.6101 246.947,-20.5632 245.509,-27.6615 255,-32.6101 262.424,-36.4809 270.649,-39.5768 278.911,-42.0492"/>
<polygon fill="#9a32cd" stroke="#9a32cd" points="65.5341,-1.94693 56.1776,-6.91743 66.5916,-8.86661 65.5341,-1.94693"/>
<text text-anchor="start" x="89" y="-85.6101" font-family="Helvetica,sans-Serif" font-size="10.00"> _defaultElementNameStating</text>
<text text-anchor="middle" x="163" y="-74.6101" font-family="Helvetica,sans-Serif" font-size="10.00">Index</text>
<text text-anchor="middle" x="163" y="-63.6101" font-family="Helvetica,sans-Serif" font-size="10.00">DefaultDescription</text>
<text text-anchor="middle" x="163" y="-52.6101" font-family="Helvetica,sans-Serif" font-size="10.00">_defaultElementNameNumDigits</text>
<text text-anchor="middle" x="163" y="-41.6101" font-family="Helvetica,sans-Serif" font-size="10.00">_defaultOutputElementNameBase</text>
<text text-anchor="middle" x="163" y="-30.6101" font-family="Helvetica,sans-Serif" font-size="10.00">_defaultInputElementNameBase</text>
<text text-anchor="middle" x="163" y="-19.6101" font-family="Helvetica,sans-Serif" font-size="10.00">DefaultName</text>
</g>
<!-- Node6 -->
<g id="node6" class="node"><title>Node6</title>
<g id="a_node6"><a xlink:href="../../d9/d40/classIG_1_1Neural_1_1MappingDefinition.html" target="_top" xlink:title="Definition of input and output data mapping. Contains Mapped and Original Index, descriptiove informa...">
<polygon fill="white" stroke="black" points="267,-4.11007 267,-23.1101 404,-23.1101 404,-4.11007 267,-4.11007"/>
<text text-anchor="middle" x="335.5" y="-11.1101" font-family="Helvetica,sans-Serif" font-size="10.00">IG.Neural.MappingDefinition</text>
</a>
</g>
</g>
<!-- Node6&#45;&gt;Node1 -->
<g id="edge6" class="edge"><title>Node6&#45;&gt;Node1</title>
<path fill="none" stroke="#9a32cd" stroke-dasharray="5,2" d="M414.175,-20.9402C446.808,-24.8722 485.008,-30.598 519,-38.6101 541.265,-43.8581 565.851,-52.4259 583.447,-59.0645"/>
<polygon fill="#9a32cd" stroke="#9a32cd" points="414.576,-17.4633 404.237,-19.7769 413.762,-24.4159 414.576,-17.4633"/>
<text text-anchor="middle" x="476.5" y="-41.6101" font-family="Helvetica,sans-Serif" font-size="10.00"> _mappingDefinition</text>
</g>
</g>
</svg>
