<?xml version="1.0" encoding="UTF-8" standalone="no"?>
<!DOCTYPE svg PUBLIC "-//W3C//DTD SVG 1.1//EN"
 "http://www.w3.org/Graphics/SVG/1.1/DTD/svg11.dtd">
<!-- Generated by graphviz version 2.38.0 (20140413.2041)
 -->
<!-- Title: IG.Num.GridGenerator1dFunc Pages: 1 -->
<svg width="303pt" height="209pt"
 viewBox="0.00 0.00 303.45 209.00" xmlns="http://www.w3.org/2000/svg" xmlns:xlink="http://www.w3.org/1999/xlink">
<g id="graph0" class="graph" transform="scale(1 1) rotate(0) translate(4 205)">
<title>IG.Num.GridGenerator1dFunc</title>
<polygon fill="white" stroke="none" points="-4,4 -4,-205 299.451,-205 299.451,4 -4,4"/>
<!-- Node1 -->
<g id="node1" class="node"><title>Node1</title>
<g id="a_node1"><a xlink:title="Generates 1D grids with equidistant or geometrically grown intervals.">
<polygon fill="#bfbfbf" stroke="black" points="61.4512,-0.5 61.4512,-19.5 207.451,-19.5 207.451,-0.5 61.4512,-0.5"/>
<text text-anchor="middle" x="134.451" y="-7.5" font-family="Helvetica,sans-Serif" font-size="10.00">IG.Num.GridGenerator1dFunc</text>
</a>
</g>
</g>
<!-- Node2 -->
<g id="node2" class="node"><title>Node2</title>
<g id="a_node2"><a xlink:href="../../d5/de2/classIG_1_1Num_1_1GridGenerator1dBase.html" target="_top" xlink:title="Base class for 1D grid generators.">
<polygon fill="white" stroke="black" points="17.4512,-67.5 17.4512,-86.5 127.451,-86.5 127.451,-67.5 17.4512,-67.5"/>
<text text-anchor="middle" x="72.4512" y="-74.5" font-family="Helvetica,sans-Serif" font-size="10.00">GridGenerator1dBase</text>
</a>
</g>
</g>
<!-- Node2&#45;&gt;Node1 -->
<g id="edge1" class="edge"><title>Node2&#45;&gt;Node1</title>
<path fill="none" stroke="midnightblue" d="M87.7157,-59.9968C99.8746,-47.2496 116.429,-29.8947 126.222,-19.6273"/>
<polygon fill="midnightblue" stroke="midnightblue" points="85.1822,-57.582 80.8127,-67.2338 90.2475,-62.4134 85.1822,-57.582"/>
</g>
<!-- Node3 -->
<g id="node3" class="node"><title>Node3</title>
<g id="a_node3"><a xlink:href="../../d5/d2d/interfaceIG_1_1Num_1_1IGridGenerator1d.html" target="_top" xlink:title="Interface for 1d grid generators.">
<polygon fill="white" stroke="black" points="72.4512,-124.5 72.4512,-143.5 162.451,-143.5 162.451,-124.5 72.4512,-124.5"/>
<text text-anchor="middle" x="117.451" y="-131.5" font-family="Helvetica,sans-Serif" font-size="10.00">IGridGenerator1d</text>
</a>
</g>
</g>
<!-- Node3&#45;&gt;Node1 -->
<g id="edge5" class="edge"><title>Node3&#45;&gt;Node1</title>
<path fill="none" stroke="midnightblue" d="M126.759,-115.105C130.574,-106.796 134.539,-96.6407 136.451,-87 141.229,-62.9192 138.008,-33.7109 135.89,-19.5381"/>
<polygon fill="midnightblue" stroke="midnightblue" points="123.577,-113.645 122.328,-124.166 129.865,-116.721 123.577,-113.645"/>
</g>
<!-- Node3&#45;&gt;Node2 -->
<g id="edge2" class="edge"><title>Node3&#45;&gt;Node2</title>
<path fill="none" stroke="midnightblue" d="M103.977,-116.532C95.9623,-106.736 86.1156,-94.701 79.5815,-86.7149"/>
<polygon fill="midnightblue" stroke="midnightblue" points="101.379,-118.883 110.42,-124.406 106.796,-114.45 101.379,-118.883"/>
</g>
<!-- Node4 -->
<g id="node4" class="node"><title>Node4</title>
<g id="a_node4"><a xlink:href="../../d3/db6/interfaceIG_1_1Lib_1_1ILockable.html" target="_top" xlink:title="Lockable object, has a Lock property that returns object on which lock must be performed in order to ...">
<polygon fill="white" stroke="black" points="15.4512,-181.5 15.4512,-200.5 73.4512,-200.5 73.4512,-181.5 15.4512,-181.5"/>
<text text-anchor="middle" x="44.4512" y="-188.5" font-family="Helvetica,sans-Serif" font-size="10.00">ILockable</text>
</a>
</g>
</g>
<!-- Node4&#45;&gt;Node1 -->
<g id="edge6" class="edge"><title>Node4&#45;&gt;Node1</title>
<path fill="none" stroke="midnightblue" d="M31.2815,-173.125C13.5282,-148.166 -13.4693,-100.73 8.45115,-67 25.2782,-41.1071 57.1409,-27.0898 84.6133,-19.5545"/>
<polygon fill="midnightblue" stroke="midnightblue" points="28.5284,-175.289 37.2962,-181.237 34.1513,-171.119 28.5284,-175.289"/>
</g>
<!-- Node4&#45;&gt;Node2 -->
<g id="edge4" class="edge"><title>Node4&#45;&gt;Node2</title>
<path fill="none" stroke="midnightblue" d="M49.1159,-171.341C55.2376,-146.854 65.7342,-104.868 70.2642,-86.7476"/>
<polygon fill="midnightblue" stroke="midnightblue" points="45.6782,-170.661 46.6483,-181.212 52.4692,-172.359 45.6782,-170.661"/>
</g>
<!-- Node4&#45;&gt;Node3 -->
<g id="edge3" class="edge"><title>Node4&#45;&gt;Node3</title>
<path fill="none" stroke="midnightblue" d="M63.9793,-175.287C77.3548,-165.21 94.6419,-152.185 105.884,-143.715"/>
<polygon fill="midnightblue" stroke="midnightblue" points="61.7381,-172.593 55.8574,-181.406 65.9504,-178.184 61.7381,-172.593"/>
</g>
<!-- Node5 -->
<g id="node5" class="node"><title>Node5</title>
<g id="a_node5"><a xlink:href="../../db/d0e/interfaceIG_1_1Num_1_1IRealFunction.html" target="_top" xlink:title="Interface for real functions.">
<polygon fill="white" stroke="black" points="183.451,-67.5 183.451,-86.5 295.451,-86.5 295.451,-67.5 183.451,-67.5"/>
<text text-anchor="middle" x="239.451" y="-74.5" font-family="Helvetica,sans-Serif" font-size="10.00">IG.Num.IRealFunction</text>
</a>
</g>
</g>
<!-- Node5&#45;&gt;Node1 -->
<g id="edge7" class="edge"><title>Node5&#45;&gt;Node1</title>
<path fill="none" stroke="#9a32cd" stroke-dasharray="5,2" d="M216.742,-61.9422C195.948,-49.0696 165.834,-30.4274 148.388,-19.6273"/>
<polygon fill="#9a32cd" stroke="#9a32cd" points="214.945,-64.9462 225.29,-67.2338 218.63,-58.9943 214.945,-64.9462"/>
<text text-anchor="middle" x="205.951" y="-41" font-family="Helvetica,sans-Serif" font-size="10.00"> _func</text>
</g>
</g>
</svg>
