<?xml version="1.0" encoding="UTF-8" standalone="no"?>
<!DOCTYPE svg PUBLIC "-//W3C//DTD SVG 1.1//EN"
 "http://www.w3.org/Graphics/SVG/1.1/DTD/svg11.dtd">
<!-- Generated by graphviz version 2.38.0 (20140413.2041)
 -->
<!-- Title: IG.Lib.CommandLine Pages: 1 -->
<svg width="515pt" height="256pt"
 viewBox="0.00 0.00 515.00 256.00" xmlns="http://www.w3.org/2000/svg" xmlns:xlink="http://www.w3.org/1999/xlink">
<g id="graph0" class="graph" transform="scale(1 1) rotate(0) translate(4 252)">
<title>IG.Lib.CommandLine</title>
<polygon fill="white" stroke="none" points="-4,4 -4,-252 511,-252 511,4 -4,4"/>
<!-- Node1 -->
<g id="node1" class="node"><title>Node1</title>
<g id="a_node1"><a xlink:title="Represents a single command&#45;line that can be executed. $A Igor Feb09;">
<polygon fill="#bfbfbf" stroke="black" points="400,-114.5 400,-133.5 507,-133.5 507,-114.5 400,-114.5"/>
<text text-anchor="middle" x="453.5" y="-121.5" font-family="Helvetica,sans-Serif" font-size="10.00">IG.Lib.CommandLine</text>
</a>
</g>
</g>
<!-- Node2 -->
<g id="node2" class="node"><title>Node2</title>
<g id="a_node2"><a xlink:href="../../d0/de6/classIG_1_1Lib_1_1InterpreterCommandBase.html" target="_top" xlink:title=" ">
<polygon fill="white" stroke="black" points="177,-228.5 177,-247.5 304,-247.5 304,-228.5 177,-228.5"/>
<text text-anchor="middle" x="240.5" y="-235.5" font-family="Helvetica,sans-Serif" font-size="10.00">InterpreterCommandBase</text>
</a>
</g>
</g>
<!-- Node2&#45;&gt;Node1 -->
<g id="edge1" class="edge"><title>Node2&#45;&gt;Node1</title>
<path fill="none" stroke="midnightblue" d="M298.759,-225.571C305.006,-223.633 311.197,-221.447 317,-219 368.886,-197.118 420.749,-153.056 442.21,-133.603"/>
<polygon fill="midnightblue" stroke="midnightblue" points="297.576,-222.27 288.946,-228.416 299.525,-228.994 297.576,-222.27"/>
</g>
<!-- Node3 -->
<g id="node3" class="node"><title>Node3</title>
<g id="a_node3"><a xlink:href="../../d2/dc2/interfaceIG_1_1Lib_1_1IInterpreterCommandData.html" target="_top" xlink:title=" ">
<polygon fill="white" stroke="black" points="0,-228.5 0,-247.5 127,-247.5 127,-228.5 0,-228.5"/>
<text text-anchor="middle" x="63.5" y="-235.5" font-family="Helvetica,sans-Serif" font-size="10.00">IInterpreterCommandData</text>
</a>
</g>
</g>
<!-- Node3&#45;&gt;Node2 -->
<g id="edge2" class="edge"><title>Node3&#45;&gt;Node2</title>
<path fill="none" stroke="midnightblue" d="M137.567,-238C150.66,-238 164.196,-238 176.959,-238"/>
<polygon fill="midnightblue" stroke="midnightblue" points="137.185,-234.5 127.185,-238 137.185,-241.5 137.185,-234.5"/>
</g>
<!-- Node4 -->
<g id="node4" class="node"><title>Node4</title>
<g id="a_node4"><a xlink:href="../../da/d2c/interfaceIG_1_1Lib_1_1IInterpreterCommand.html" target="_top" xlink:title=" ">
<polygon fill="white" stroke="black" points="187,-190.5 187,-209.5 294,-209.5 294,-190.5 187,-190.5"/>
<text text-anchor="middle" x="240.5" y="-197.5" font-family="Helvetica,sans-Serif" font-size="10.00">IInterpreterCommand</text>
</a>
</g>
</g>
<!-- Node4&#45;&gt;Node1 -->
<g id="edge3" class="edge"><title>Node4&#45;&gt;Node1</title>
<path fill="none" stroke="midnightblue" d="M293.021,-187.919C301.092,-185.773 309.305,-183.438 317,-181 359.332,-167.586 406.717,-146.074 432.729,-133.669"/>
<polygon fill="midnightblue" stroke="midnightblue" points="292.094,-184.544 283.291,-190.439 293.849,-191.32 292.094,-184.544"/>
</g>
<!-- Node5 -->
<g id="node5" class="node"><title>Node5</title>
<g id="a_node5"><a xlink:href="../../d3/db6/interfaceIG_1_1Lib_1_1ILockable.html" target="_top" xlink:title="Lockable object, has a Lock property that returns object on which lock must be performed in order to ...">
<polygon fill="white" stroke="black" points="211.5,-152.5 211.5,-171.5 269.5,-171.5 269.5,-152.5 211.5,-152.5"/>
<text text-anchor="middle" x="240.5" y="-159.5" font-family="Helvetica,sans-Serif" font-size="10.00">ILockable</text>
</a>
</g>
</g>
<!-- Node5&#45;&gt;Node1 -->
<g id="edge4" class="edge"><title>Node5&#45;&gt;Node1</title>
<path fill="none" stroke="midnightblue" d="M279.415,-155.807C307.718,-151.114 347.324,-144.404 382,-138 389.608,-136.595 397.666,-135.049 405.51,-133.514"/>
<polygon fill="midnightblue" stroke="midnightblue" points="278.825,-152.356 269.529,-157.439 279.966,-159.263 278.825,-152.356"/>
</g>
<!-- Node6 -->
<g id="node6" class="node"><title>Node6</title>
<g id="a_node6"><a xlink:title=" ">
<polygon fill="white" stroke="#bfbfbf" points="207,-114.5 207,-133.5 274,-133.5 274,-114.5 207,-114.5"/>
<text text-anchor="middle" x="240.5" y="-121.5" font-family="Helvetica,sans-Serif" font-size="10.00">IDisposable</text>
</a>
</g>
</g>
<!-- Node6&#45;&gt;Node1 -->
<g id="edge5" class="edge"><title>Node6&#45;&gt;Node1</title>
<path fill="none" stroke="midnightblue" d="M284.349,-124C317.718,-124 364.198,-124 399.836,-124"/>
<polygon fill="midnightblue" stroke="midnightblue" points="284.006,-120.5 274.006,-124 284.006,-127.5 284.006,-120.5"/>
</g>
<!-- Node7 -->
<g id="node7" class="node"><title>Node7</title>
<g id="a_node7"><a xlink:href="../../d5/d7a/interfaceIG_1_1Lib_1_1IRegisterable.html" target="_top" xlink:title=" ">
<polygon fill="white" stroke="black" points="164,-76.5 164,-95.5 317,-95.5 317,-76.5 164,-76.5"/>
<text text-anchor="middle" x="240.5" y="-83.5" font-family="Helvetica,sans-Serif" font-size="10.00">IRegisterable&lt; CommandLine &gt;</text>
</a>
</g>
</g>
<!-- Node7&#45;&gt;Node1 -->
<g id="edge6" class="edge"><title>Node7&#45;&gt;Node1</title>
<path fill="none" stroke="midnightblue" d="M304.544,-97.354C334.938,-102.828 370.974,-109.318 399.872,-114.522"/>
<polygon fill="midnightblue" stroke="midnightblue" points="304.934,-93.8679 294.472,-95.54 303.693,-100.757 304.934,-93.8679"/>
</g>
<!-- Node8 -->
<g id="node8" class="node"><title>Node8</title>
<g id="a_node8"><a xlink:title=" ">
<polygon fill="white" stroke="#bfbfbf" points="220,-38.5 220,-57.5 261,-57.5 261,-38.5 220,-38.5"/>
<text text-anchor="middle" x="240.5" y="-45.5" font-family="Helvetica,sans-Serif" font-size="10.00">static</text>
</a>
</g>
</g>
<!-- Node8&#45;&gt;Node1 -->
<g id="edge7" class="edge"><title>Node8&#45;&gt;Node1</title>
<path fill="none" stroke="#9a32cd" stroke-dasharray="5,2" d="M270.935,-54.2951C299.83,-60.9554 344.848,-72.6284 382,-88 400.921,-95.8288 421.7,-106.74 435.764,-114.493"/>
<polygon fill="#9a32cd" stroke="#9a32cd" points="271.589,-50.8546 261.064,-52.0705 270.05,-57.6834 271.589,-50.8546"/>
<text text-anchor="middle" x="358.5" y="-91" font-family="Helvetica,sans-Serif" font-size="10.00"> _register</text>
</g>
<!-- Node9 -->
<g id="node9" class="node"><title>Node9</title>
<g id="a_node9"><a xlink:href="../../d4/d93/classIG_1_1Lib_1_1IdProxy.html" target="_top" xlink:title="Proxy class that stores the object&#39;s unique ID (generated by a static instance of the IdGenerator cla...">
<polygon fill="white" stroke="black" points="201.5,-0.5 201.5,-19.5 279.5,-19.5 279.5,-0.5 201.5,-0.5"/>
<text text-anchor="middle" x="240.5" y="-7.5" font-family="Helvetica,sans-Serif" font-size="10.00">IG.Lib.IdProxy</text>
</a>
</g>
</g>
<!-- Node9&#45;&gt;Node1 -->
<g id="edge8" class="edge"><title>Node9&#45;&gt;Node1</title>
<path fill="none" stroke="#9a32cd" stroke-dasharray="5,2" d="M289.433,-19.0651C317.973,-26.0166 353.971,-37.6151 382,-56 407.879,-72.9747 432.594,-100.183 444.72,-114.494"/>
<polygon fill="#9a32cd" stroke="#9a32cd" points="290.206,-15.6517 279.674,-16.7965 288.621,-22.4699 290.206,-15.6517"/>
<text text-anchor="middle" x="358.5" y="-59" font-family="Helvetica,sans-Serif" font-size="10.00"> _idPproxy</text>
</g>
<!-- Node10 -->
<g id="node10" class="node"><title>Node10</title>
<g id="a_node10"><a xlink:href="../../dc/d79/interfaceIG_1_1Lib_1_1IIdentifiable.html" target="_top" xlink:title="Classes whose instances have unique integer IDs.">
<polygon fill="white" stroke="black" points="31,-0.5 31,-19.5 96,-19.5 96,-0.5 31,-0.5"/>
<text text-anchor="middle" x="63.5" y="-7.5" font-family="Helvetica,sans-Serif" font-size="10.00">IIdentifiable</text>
</a>
</g>
</g>
<!-- Node10&#45;&gt;Node9 -->
<g id="edge9" class="edge"><title>Node10&#45;&gt;Node9</title>
<path fill="none" stroke="midnightblue" d="M106.374,-10C135.241,-10 173.305,-10 201.335,-10"/>
<polygon fill="midnightblue" stroke="midnightblue" points="106.191,-6.5001 96.1912,-10 106.191,-13.5001 106.191,-6.5001"/>
</g>
</g>
</svg>
