<?xml version="1.0" encoding="UTF-8" standalone="no"?>
<!DOCTYPE svg PUBLIC "-//W3C//DTD SVG 1.1//EN"
 "http://www.w3.org/Graphics/SVG/1.1/DTD/svg11.dtd">
<!-- Generated by graphviz version 2.38.0 (20140413.2041)
 -->
<!-- Title: IG.Num.RealFunctionParametric Pages: 1 -->
<svg width="675pt" height="133pt"
 viewBox="0.00 0.00 675.00 133.33" xmlns="http://www.w3.org/2000/svg" xmlns:xlink="http://www.w3.org/1999/xlink">
<g id="graph0" class="graph" transform="scale(1 1) rotate(0) translate(4 129.333)">
<title>IG.Num.RealFunctionParametric</title>
<polygon fill="white" stroke="none" points="-4,4 -4,-129.333 671,-129.333 671,4 -4,4"/>
<!-- Node1 -->
<g id="node1" class="node"><title>Node1</title>
<g id="a_node1"><a xlink:title="Base class for parameterized real&#45;valued functions of single variable. Parameters that completely def...">
<polygon fill="#bfbfbf" stroke="black" points="510,-55.5 510,-74.5 667,-74.5 667,-55.5 510,-55.5"/>
<text text-anchor="middle" x="588.5" y="-62.5" font-family="Helvetica,sans-Serif" font-size="10.00">IG.Num.RealFunctionParametric</text>
</a>
</g>
</g>
<!-- Node2 -->
<g id="node2" class="node"><title>Node2</title>
<g id="a_node2"><a xlink:href="../../d1/d20/classIG_1_1Num_1_1RealFunctionParametricBase.html" target="_top" xlink:title="Base class for parameterized real&#45;valued functions of single variable. Parameters that completely def...">
<polygon fill="white" stroke="black" points="273,-82.5 273,-101.5 416,-101.5 416,-82.5 273,-82.5"/>
<text text-anchor="middle" x="344.5" y="-89.5" font-family="Helvetica,sans-Serif" font-size="10.00">RealFunctionParametricBase</text>
</a>
</g>
</g>
<!-- Node2&#45;&gt;Node1 -->
<g id="edge1" class="edge"><title>Node2&#45;&gt;Node1</title>
<path fill="none" stroke="midnightblue" d="M426.324,-82.9824C453.296,-79.9732 483.273,-76.6287 509.987,-73.6481"/>
<polygon fill="midnightblue" stroke="midnightblue" points="425.697,-79.5306 416.147,-84.1179 426.473,-86.4874 425.697,-79.5306"/>
</g>
<!-- Node3 -->
<g id="node3" class="node"><title>Node3</title>
<g id="a_node3"><a xlink:href="../../d6/d30/classIG_1_1Num_1_1RealFunctionBase.html" target="_top" xlink:title="Base class for real functions of real variable.">
<polygon fill="white" stroke="black" points="126.5,-76.5 126.5,-95.5 222.5,-95.5 222.5,-76.5 126.5,-76.5"/>
<text text-anchor="middle" x="174.5" y="-83.5" font-family="Helvetica,sans-Serif" font-size="10.00">RealFunctionBase</text>
</a>
</g>
</g>
<!-- Node3&#45;&gt;Node2 -->
<g id="edge2" class="edge"><title>Node3&#45;&gt;Node2</title>
<path fill="none" stroke="midnightblue" d="M232.823,-88.0473C245.672,-88.5061 259.449,-88.9982 272.77,-89.4739"/>
<polygon fill="midnightblue" stroke="midnightblue" points="232.863,-84.5465 222.744,-87.6873 232.613,-91.5421 232.863,-84.5465"/>
</g>
<!-- Node4 -->
<g id="node4" class="node"><title>Node4</title>
<g id="a_node4"><a xlink:href="../../db/d0e/interfaceIG_1_1Num_1_1IRealFunction.html" target="_top" xlink:title="Interface for real functions.">
<polygon fill="white" stroke="black" points="0,-98.5 0,-117.5 76,-117.5 76,-98.5 0,-98.5"/>
<text text-anchor="middle" x="38" y="-105.5" font-family="Helvetica,sans-Serif" font-size="10.00">IRealFunction</text>
</a>
</g>
</g>
<!-- Node4&#45;&gt;Node1 -->
<g id="edge7" class="edge"><title>Node4&#45;&gt;Node1</title>
<path fill="none" stroke="midnightblue" d="M70.9648,-120.525C78.7132,-122.61 87.056,-124.085 95,-124 237.776,-122.481 274.825,-132.371 416,-111 450.425,-105.789 458.355,-100.959 492,-92 512.812,-86.4579 536.069,-79.8907 554.421,-74.6208"/>
<polygon fill="midnightblue" stroke="midnightblue" points="71.792,-117.118 61.2045,-117.514 69.7279,-123.807 71.792,-117.118"/>
</g>
<!-- Node4&#45;&gt;Node2 -->
<g id="edge4" class="edge"><title>Node4&#45;&gt;Node2</title>
<path fill="none" stroke="midnightblue" d="M86.1924,-110.046C89.1726,-110.063 92.1275,-110.051 95,-110 157.696,-108.889 173.484,-109.88 236,-105 247.901,-104.071 260.513,-102.803 272.749,-101.421"/>
<polygon fill="midnightblue" stroke="midnightblue" points="86.1013,-106.544 76.0459,-109.881 85.9879,-113.543 86.1013,-106.544"/>
</g>
<!-- Node4&#45;&gt;Node3 -->
<g id="edge3" class="edge"><title>Node4&#45;&gt;Node3</title>
<path fill="none" stroke="midnightblue" d="M86.2695,-100.268C99.2853,-98.1392 113.399,-95.8306 126.405,-93.7032"/>
<polygon fill="midnightblue" stroke="midnightblue" points="85.4126,-96.8617 76.1088,-101.93 86.5426,-103.77 85.4126,-96.8617"/>
</g>
<!-- Node5 -->
<g id="node5" class="node"><title>Node5</title>
<g id="a_node5"><a xlink:href="../../d1/dfb/interfaceIG_1_1Num_1_1IRealFunctionParametric.html" target="_top" xlink:title="Parameterized real&#45;valued functions of single variable.">
<polygon fill="white" stroke="black" points="113,-38.5 113,-57.5 236,-57.5 236,-38.5 113,-38.5"/>
<text text-anchor="middle" x="174.5" y="-45.5" font-family="Helvetica,sans-Serif" font-size="10.00">IRealFunctionParametric</text>
</a>
</g>
</g>
<!-- Node4&#45;&gt;Node5 -->
<g id="edge6" class="edge"><title>Node4&#45;&gt;Node5</title>
<path fill="none" stroke="midnightblue" d="M62.7797,-93.2123C76.9938,-84.7861 95.6155,-74.4553 113,-67 121.196,-63.4853 130.262,-60.2926 138.827,-57.57"/>
<polygon fill="midnightblue" stroke="midnightblue" points="60.8899,-90.2647 54.1328,-98.4251 64.504,-96.2596 60.8899,-90.2647"/>
</g>
<!-- Node5&#45;&gt;Node1 -->
<g id="edge8" class="edge"><title>Node5&#45;&gt;Node1</title>
<path fill="none" stroke="midnightblue" d="M246.369,-50.9242C319.771,-53.9529 434.132,-58.6717 509.919,-61.7988"/>
<polygon fill="midnightblue" stroke="midnightblue" points="246.428,-47.4237 236.292,-50.5084 246.139,-54.4178 246.428,-47.4237"/>
</g>
<!-- Node5&#45;&gt;Node2 -->
<g id="edge5" class="edge"><title>Node5&#45;&gt;Node2</title>
<path fill="none" stroke="midnightblue" d="M221.909,-60.1547C248.792,-67.1955 282.147,-75.9312 307.118,-82.4713"/>
<polygon fill="midnightblue" stroke="midnightblue" points="222.514,-56.6952 211.953,-57.5473 220.74,-63.4668 222.514,-56.6952"/>
</g>
<!-- Node6 -->
<g id="node6" class="node"><title>Node6</title>
<g id="a_node6"><a xlink:href="../../d3/d24/interfaceIG_1_1Num_1_1IVector.html" target="_top" xlink:title="Generic Vector interface">
<polygon fill="white" stroke="black" points="291,-0.5 291,-19.5 398,-19.5 398,-0.5 291,-0.5"/>
<text text-anchor="middle" x="344.5" y="-7.5" font-family="Helvetica,sans-Serif" font-size="10.00">IG.Num.IVector&lt; T &gt;</text>
</a>
</g>
</g>
<!-- Node6&#45;&gt;Node1 -->
<g id="edge9" class="edge"><title>Node6&#45;&gt;Node1</title>
<path fill="none" stroke="#9a32cd" stroke-dasharray="5,2" d="M408.255,-11.0863C434.467,-12.6898 465.036,-16.0743 492,-23 520.77,-30.3898 551.872,-45.5482 570.511,-55.489"/>
<polygon fill="#9a32cd" stroke="#9a32cd" points="408.239,-7.5805 398.065,-10.5378 407.862,-14.5704 408.239,-7.5805"/>
<text text-anchor="middle" x="463" y="-26" font-family="Helvetica,sans-Serif" font-size="10.00"> _parameters</text>
</g>
</g>
</svg>
