<?xml version="1.0" encoding="UTF-8" standalone="no"?>
<!DOCTYPE svg PUBLIC "-//W3C//DTD SVG 1.1//EN"
 "http://www.w3.org/Graphics/SVG/1.1/DTD/svg11.dtd">
<!-- Generated by graphviz version 2.38.0 (20140413.2041)
 -->
<!-- Title: IG.Lib.WaitFileEventBaseByProxy Pages: 1 -->
<!--zoomable 186 -->
<svg id="main" version="1.1" xmlns="http://www.w3.org/2000/svg" xmlns:xlink="http://www.w3.org/1999/xlink" xml:space="preserve" onload="init(evt)">
<style type="text/css"><![CDATA[
.edge:hover path { stroke: red; }
.edge:hover polygon { stroke: red; fill: red; }
]]></style>
<script type="text/javascript"><![CDATA[
var edges = document.getElementsByTagName('g');
if (edges && edges.length) {
  for (var i=0;i<edges.length;i++) {
    if (edges[i].id.substr(0,4)=='edge') {
      edges[i].setAttribute('class','edge');
    }
  }
}
]]></script>
        <defs>
                <circle id="rim" cx="0" cy="0" r="7"/>
                <circle id="rim2" cx="0" cy="0" r="3.5"/>
                <g id="zoomPlus">
                        <use xlink:href="#rim" fill="#404040">
                                <set attributeName="fill" to="#808080" begin="zoomplus.mouseover" end="zoomplus.mouseout"/>
                        </use>
                        <path d="M-4,0h8M0,-4v8" fill="none" stroke="white" stroke-width="1.5" pointer-events="none"/>
                </g>
                <g id="zoomMin">
                        <use xlink:href="#rim" fill="#404040">
                                <set attributeName="fill" to="#808080" begin="zoomminus.mouseover" end="zoomminus.mouseout"/>
                        </use>
                        <path d="M-4,0h8" fill="none" stroke="white" stroke-width="1.5" pointer-events="none"/>
                </g>
                <g id="dirArrow">
                        <path fill="none" stroke="white" stroke-width="1.5" d="M0,-3.0v7 M-2.5,-0.5L0,-3.0L2.5,-0.5"/>
                </g>
               <g id="resetDef">
                       <use xlink:href="#rim2" fill="#404040">
                               <set attributeName="fill" to="#808080" begin="reset.mouseover" end="reset.mouseout"/>
                       </use>
               </g>
        </defs>

<script type="text/javascript">
var viewWidth = 832;
var viewHeight = 186;
var sectionId = 'dynsection-0';
</script>
<script xlink:href="../../svgpan.js"/>
<svg id="graph" class="graph">
<g id="viewport">
<title>IG.Lib.WaitFileEventBaseByProxy</title>
<polygon fill="white" stroke="none" points="-4,4 -4,-182 828,-182 828,4 -4,4"/>
<!-- Node1 -->
<g id="node1" class="node"><title>Node1</title>
<g id="a_node1"><a xlink:title="Base class for classes that provide blocking until a file or directory is created/removed....">
<polygon fill="#bfbfbf" stroke="black" points="519,-73.5 519,-103.5 647,-103.5 647,-73.5 519,-73.5"/>
<text text-anchor="start" x="527" y="-91.5" font-family="Helvetica,sans-Serif" font-size="10.00">IG.Lib.WaitFileEventBase</text>
<text text-anchor="middle" x="583" y="-80.5" font-family="Helvetica,sans-Serif" font-size="10.00">ByProxy</text>
</a>
</g>
</g>
<!-- Node7 -->
<g id="node7" class="node"><title>Node7</title>
<g id="a_node7"><a xlink:href="../../d5/d05/classIG_1_1Lib_1_1WaitDirectoryCreationByProxy.html" target="_top" xlink:title="Implements blocking until the specified directory is created (becomes existent). Directory is specifi...">
<polygon fill="white" stroke="black" points="683.5,-147.5 683.5,-177.5 823.5,-177.5 823.5,-147.5 683.5,-147.5"/>
<text text-anchor="start" x="691.5" y="-165.5" font-family="Helvetica,sans-Serif" font-size="10.00">IG.Lib.WaitDirectoryCreation</text>
<text text-anchor="middle" x="753.5" y="-154.5" font-family="Helvetica,sans-Serif" font-size="10.00">ByProxy</text>
</a>
</g>
</g>
<!-- Node1&#45;&gt;Node7 -->
<g id="edge12" class="edge"><title>Node1&#45;&gt;Node7</title>
<path fill="none" stroke="midnightblue" d="M621.112,-108.125C639.497,-117.523 662.169,-128.633 683,-137.5 691.023,-140.915 699.687,-144.28 708.086,-147.38"/>
<polygon fill="midnightblue" stroke="midnightblue" points="622.683,-104.997 612.19,-103.528 619.476,-111.22 622.683,-104.997"/>
</g>
<!-- Node8 -->
<g id="node8" class="node"><title>Node8</title>
<g id="a_node8"><a xlink:href="../../d4/d92/classIG_1_1Lib_1_1WaitDirectoryRemovalByProxy.html" target="_top" xlink:title="Implements blocking until the specified directory is deleted (becomes nonexistent)....">
<polygon fill="white" stroke="black" points="683,-98.5 683,-128.5 824,-128.5 824,-98.5 683,-98.5"/>
<text text-anchor="start" x="691" y="-116.5" font-family="Helvetica,sans-Serif" font-size="10.00">IG.Lib.WaitDirectoryRemoval</text>
<text text-anchor="middle" x="753.5" y="-105.5" font-family="Helvetica,sans-Serif" font-size="10.00">ByProxy</text>
</a>
</g>
</g>
<!-- Node1&#45;&gt;Node8 -->
<g id="edge13" class="edge"><title>Node1&#45;&gt;Node8</title>
<path fill="none" stroke="midnightblue" d="M657.186,-99.3585C665.753,-100.63 674.476,-101.924 682.991,-103.187"/>
<polygon fill="midnightblue" stroke="midnightblue" points="657.628,-95.8858 647.223,-97.8802 656.601,-102.81 657.628,-95.8858"/>
</g>
<!-- Node9 -->
<g id="node9" class="node"><title>Node9</title>
<g id="a_node9"><a xlink:href="../../db/dbb/classIG_1_1Lib_1_1WaitFileCreationByProxy.html" target="_top" xlink:title="Implements blocking until the specified file is created (becomes existent). File is specified in cons...">
<polygon fill="white" stroke="black" points="689,-49.5 689,-79.5 818,-79.5 818,-49.5 689,-49.5"/>
<text text-anchor="start" x="697" y="-67.5" font-family="Helvetica,sans-Serif" font-size="10.00">IG.Lib.WaitFileCreationBy</text>
<text text-anchor="middle" x="753.5" y="-56.5" font-family="Helvetica,sans-Serif" font-size="10.00">Proxy</text>
</a>
</g>
</g>
<!-- Node1&#45;&gt;Node9 -->
<g id="edge14" class="edge"><title>Node1&#45;&gt;Node9</title>
<path fill="none" stroke="midnightblue" d="M657.245,-78.0675C667.796,-76.5647 678.581,-75.0285 688.923,-73.5555"/>
<polygon fill="midnightblue" stroke="midnightblue" points="656.629,-74.6198 647.223,-79.495 657.616,-81.5498 656.629,-74.6198"/>
</g>
<!-- Node10 -->
<g id="node10" class="node"><title>Node10</title>
<g id="a_node10"><a xlink:href="../../d2/d43/classIG_1_1Lib_1_1WaitFileRemovalByProxy.html" target="_top" xlink:title="Implements blocking until the specified file is deleted (becomes nonexistent). File is specified in c...">
<polygon fill="white" stroke="black" points="688.5,-0.5 688.5,-30.5 818.5,-30.5 818.5,-0.5 688.5,-0.5"/>
<text text-anchor="start" x="696.5" y="-18.5" font-family="Helvetica,sans-Serif" font-size="10.00">IG.Lib.WaitFileRemovalBy</text>
<text text-anchor="middle" x="753.5" y="-7.5" font-family="Helvetica,sans-Serif" font-size="10.00">Proxy</text>
</a>
</g>
</g>
<!-- Node1&#45;&gt;Node10 -->
<g id="edge15" class="edge"><title>Node1&#45;&gt;Node10</title>
<path fill="none" stroke="midnightblue" d="M621.063,-68.7583C639.436,-59.333 662.113,-48.234 683,-39.5 690.42,-36.3976 698.396,-33.3686 706.207,-30.5649"/>
<polygon fill="midnightblue" stroke="midnightblue" points="619.42,-65.6675 612.148,-73.3728 622.638,-71.8841 619.42,-65.6675"/>
</g>
<!-- Node2 -->
<g id="node2" class="node"><title>Node2</title>
<g id="a_node2"><a xlink:href="../../df/d44/classIG_1_1Lib_1_1WaitFileEventBaseByProxyLatence.html" target="_top" xlink:title="Base class for classes that provide blocking until a file or directory is created/removed....">
<polygon fill="white" stroke="black" points="346,-73.5 346,-103.5 483,-103.5 483,-73.5 346,-73.5"/>
<text text-anchor="start" x="354" y="-91.5" font-family="Helvetica,sans-Serif" font-size="10.00">WaitFileEventBaseByProxy</text>
<text text-anchor="middle" x="414.5" y="-80.5" font-family="Helvetica,sans-Serif" font-size="10.00">Latence</text>
</a>
</g>
</g>
<!-- Node2&#45;&gt;Node1 -->
<g id="edge1" class="edge"><title>Node2&#45;&gt;Node1</title>
<path fill="none" stroke="midnightblue" d="M493.254,-88.5C501.848,-88.5 510.522,-88.5 518.905,-88.5"/>
<polygon fill="midnightblue" stroke="midnightblue" points="493.222,-85.0001 483.222,-88.5 493.222,-92.0001 493.222,-85.0001"/>
</g>
<!-- Node3 -->
<g id="node3" class="node"><title>Node3</title>
<g id="a_node3"><a xlink:href="../../df/dea/classIG_1_1Lib_1_1WaitConditionBase.html" target="_top" xlink:title="Base class for objects that perform waiting until a condition is fulfilled.">
<polygon fill="white" stroke="black" points="210,-73 210,-92 310,-92 310,-73 210,-73"/>
<text text-anchor="middle" x="260" y="-80" font-family="Helvetica,sans-Serif" font-size="10.00">WaitConditionBase</text>
</a>
</g>
</g>
<!-- Node3&#45;&gt;Node2 -->
<g id="edge2" class="edge"><title>Node3&#45;&gt;Node2</title>
<path fill="none" stroke="midnightblue" d="M320.187,-84.8287C328.607,-85.1599 337.319,-85.5027 345.885,-85.8397"/>
<polygon fill="midnightblue" stroke="midnightblue" points="320.221,-81.3274 310.091,-84.4315 319.946,-88.322 320.221,-81.3274"/>
</g>
<!-- Node4 -->
<g id="node4" class="node"><title>Node4</title>
<g id="a_node4"><a xlink:href="../../de/d1e/interfaceIG_1_1Lib_1_1IWaitCondition.html" target="_top" xlink:title="Interface for classes that implement blocking until a specified condition is met.">
<polygon fill="white" stroke="black" points="94,-35 94,-54 174,-54 174,-35 94,-35"/>
<text text-anchor="middle" x="134" y="-42" font-family="Helvetica,sans-Serif" font-size="10.00">IWaitCondition</text>
</a>
</g>
</g>
<!-- Node4&#45;&gt;Node3 -->
<g id="edge3" class="edge"><title>Node4&#45;&gt;Node3</title>
<path fill="none" stroke="midnightblue" d="M175.905,-57.0353C192.773,-62.2048 212.008,-68.0991 227.72,-72.9141"/>
<polygon fill="midnightblue" stroke="midnightblue" points="176.877,-53.6727 166.29,-54.089 174.826,-60.3655 176.877,-53.6727"/>
</g>
<!-- Node6 -->
<g id="node6" class="node"><title>Node6</title>
<g id="a_node6"><a xlink:href="../../d2/d48/interfaceIG_1_1Lib_1_1IWaitFileEvent.html" target="_top" xlink:title="Interface for classes that provide waiting for specific file events (such as ceration or deletion of ...">
<polygon fill="white" stroke="black" points="220.5,-35 220.5,-54 299.5,-54 299.5,-35 220.5,-35"/>
<text text-anchor="middle" x="260" y="-42" font-family="Helvetica,sans-Serif" font-size="10.00">IWaitFileEvent</text>
</a>
</g>
</g>
<!-- Node4&#45;&gt;Node6 -->
<g id="edge7" class="edge"><title>Node4&#45;&gt;Node6</title>
<path fill="none" stroke="midnightblue" d="M184.526,-44.5C196.48,-44.5 209.079,-44.5 220.445,-44.5"/>
<polygon fill="midnightblue" stroke="midnightblue" points="184.234,-41.0001 174.234,-44.5 184.234,-48.0001 184.234,-41.0001"/>
</g>
<!-- Node5 -->
<g id="node5" class="node"><title>Node5</title>
<g id="a_node5"><a xlink:href="../../d3/db6/interfaceIG_1_1Lib_1_1ILockable.html" target="_top" xlink:title="Lockable object, has a Lock property that returns object on which lock must be performed in order to ...">
<polygon fill="white" stroke="black" points="0,-73 0,-92 58,-92 58,-73 0,-73"/>
<text text-anchor="middle" x="29" y="-80" font-family="Helvetica,sans-Serif" font-size="10.00">ILockable</text>
</a>
</g>
</g>
<!-- Node5&#45;&gt;Node1 -->
<g id="edge11" class="edge"><title>Node5&#45;&gt;Node1</title>
<path fill="none" stroke="midnightblue" d="M52.711,-97.4014C64.5134,-104.299 79.4761,-111.777 94,-115.5 261.478,-158.436 311.708,-135.984 483,-112.5 497.981,-110.446 513.998,-107.087 528.688,-103.524"/>
<polygon fill="midnightblue" stroke="midnightblue" points="54.3508,-94.3018 43.9921,-92.0774 50.7027,-100.276 54.3508,-94.3018"/>
</g>
<!-- Node5&#45;&gt;Node2 -->
<g id="edge9" class="edge"><title>Node5&#45;&gt;Node2</title>
<path fill="none" stroke="midnightblue" d="M68.1724,-91.9759C76.6292,-93.7595 85.5804,-95.4059 94,-96.5 189.225,-108.874 214.162,-107.495 310,-101.5 321.658,-100.771 334.012,-99.5837 345.971,-98.2158"/>
<polygon fill="midnightblue" stroke="midnightblue" points="68.6915,-88.5061 58.1711,-89.7602 67.1773,-95.3404 68.6915,-88.5061"/>
</g>
<!-- Node5&#45;&gt;Node3 -->
<g id="edge5" class="edge"><title>Node5&#45;&gt;Node3</title>
<path fill="none" stroke="midnightblue" d="M68.4409,-82.5C107.297,-82.5 167.488,-82.5 209.803,-82.5"/>
<polygon fill="midnightblue" stroke="midnightblue" points="68.0799,-79.0001 58.0799,-82.5 68.0799,-86.0001 68.0799,-79.0001"/>
</g>
<!-- Node5&#45;&gt;Node4 -->
<g id="edge4" class="edge"><title>Node5&#45;&gt;Node4</title>
<path fill="none" stroke="midnightblue" d="M65.5567,-69.382C79.1796,-64.3561 94.4539,-58.7209 107.017,-54.0859"/>
<polygon fill="midnightblue" stroke="midnightblue" points="64.1617,-66.166 55.9912,-72.911 66.5846,-72.7333 64.1617,-66.166"/>
</g>
<!-- Node5&#45;&gt;Node6 -->
<g id="edge8" class="edge"><title>Node5&#45;&gt;Node6</title>
<path fill="none" stroke="midnightblue" d="M43.3225,-65.1024C54.9845,-51.4189 73.2726,-33.392 94,-25.5 141.563,-7.39022 201.973,-23.2837 234.906,-34.9015"/>
<polygon fill="midnightblue" stroke="midnightblue" points="40.5493,-62.965 36.9549,-72.9315 45.98,-67.3819 40.5493,-62.965"/>
</g>
<!-- Node6&#45;&gt;Node1 -->
<g id="edge10" class="edge"><title>Node6&#45;&gt;Node1</title>
<path fill="none" stroke="midnightblue" d="M309.848,-46.4053C355.02,-48.7044 423.896,-53.5754 483,-63.5 498.122,-66.0393 514.328,-69.7168 529.158,-73.4735"/>
<polygon fill="midnightblue" stroke="midnightblue" points="309.897,-42.9036 299.739,-45.9136 309.557,-49.8954 309.897,-42.9036"/>
</g>
<!-- Node6&#45;&gt;Node2 -->
<g id="edge6" class="edge"><title>Node6&#45;&gt;Node2</title>
<path fill="none" stroke="midnightblue" d="M304.169,-56.9553C321.935,-62.0813 342.674,-68.0649 361.285,-73.4346"/>
<polygon fill="midnightblue" stroke="midnightblue" points="304.669,-53.4568 294.09,-54.0473 302.728,-60.1824 304.669,-53.4568"/>
</g>
</g>
</svg>
        <g id="navigator" transform="translate(0 0)" fill="#404254">
                <rect fill="#f2f5e9" fill-opacity="0.5" stroke="#606060" stroke-width=".5" x="0" y="0" width="60" height="60"/>
                <use id="zoomplus" xlink:href="#zoomPlus" x="17" y="9" onmousedown="handleZoom(evt,'in')"/>
                <use id="zoomminus" xlink:href="#zoomMin" x="42" y="9" onmousedown="handleZoom(evt,'out')"/>
                <use id="reset" xlink:href="#resetDef" x="30" y="36" onmousedown="handleReset()"/>
                <g id="arrowUp" xlink:href="#dirArrow" transform="translate(30 24)" onmousedown="handlePan(0,-1)">
                  <use xlink:href="#rim" fill="#404040">
                        <set attributeName="fill" to="#808080" begin="arrowUp.mouseover" end="arrowUp.mouseout"/>
                  </use>
                  <path fill="none" stroke="white" stroke-width="1.5" d="M0,-3.0v7 M-2.5,-0.5L0,-3.0L2.5,-0.5"/>
                </g>
                <g id="arrowRight" xlink:href="#dirArrow" transform="rotate(90) translate(36 -43)" onmousedown="handlePan(1,0)">
                  <use xlink:href="#rim" fill="#404040">
                        <set attributeName="fill" to="#808080" begin="arrowRight.mouseover" end="arrowRight.mouseout"/>
                  </use>
                  <path fill="none" stroke="white" stroke-width="1.5" d="M0,-3.0v7 M-2.5,-0.5L0,-3.0L2.5,-0.5"/>
                </g>
                <g id="arrowDown" xlink:href="#dirArrow" transform="rotate(180) translate(-30 -48)" onmousedown="handlePan(0,1)">
                  <use xlink:href="#rim" fill="#404040">
                        <set attributeName="fill" to="#808080" begin="arrowDown.mouseover" end="arrowDown.mouseout"/>
                  </use>
                  <path fill="none" stroke="white" stroke-width="1.5" d="M0,-3.0v7 M-2.5,-0.5L0,-3.0L2.5,-0.5"/>
                </g>
                <g id="arrowLeft" xlink:href="#dirArrow" transform="rotate(270) translate(-36 17)" onmousedown="handlePan(-1,0)">
                  <use xlink:href="#rim" fill="#404040">
                        <set attributeName="fill" to="#808080" begin="arrowLeft.mouseover" end="arrowLeft.mouseout"/>
                  </use>
                  <path fill="none" stroke="white" stroke-width="1.5" d="M0,-3.0v7 M-2.5,-0.5L0,-3.0L2.5,-0.5"/>
                </g>
        </g>
        <svg viewBox="0 0 15 15" width="100%" height="30px" preserveAspectRatio="xMaxYMin meet">
         <g id="arrow_out" transform="scale(0.3 0.3)">
          <a xlink:href="classIG_1_1Lib_1_1WaitFileEventBaseByProxy__inherit__graph_org.svg" target="_base">
           <rect id="button" ry="5" rx="5" y="6" x="6" height="38" width="38"
                fill="#f2f5e9" fill-opacity="0.5" stroke="#606060" stroke-width="1.0"/>
           <path id="arrow"
             d="M 11.500037,31.436501 C 11.940474,20.09759 22.043105,11.32322 32.158766,21.979434 L 37.068811,17.246167 C 37.068811,17.246167 37.088388,32 37.088388,32 L 22.160133,31.978069 C 22.160133,31.978069 26.997745,27.140456 26.997745,27.140456 C 18.528582,18.264221 13.291696,25.230495 11.500037,31.436501 z"
             style="fill:#404040;"/>
          </a>
         </g>
        </svg>
</svg>
