<?xml version="1.0" encoding="UTF-8" standalone="no"?>
<!DOCTYPE svg PUBLIC "-//W3C//DTD SVG 1.1//EN"
 "http://www.w3.org/Graphics/SVG/1.1/DTD/svg11.dtd">
<!-- Generated by graphviz version 2.38.0 (20140413.2041)
 -->
<!-- Title: IG.Neural.MappingDefinitionElement Pages: 1 -->
<svg width="350pt" height="106pt"
 viewBox="0.00 0.00 350.00 106.00" xmlns="http://www.w3.org/2000/svg" xmlns:xlink="http://www.w3.org/1999/xlink">
<g id="graph0" class="graph" transform="scale(1 1) rotate(0) translate(4 102)">
<title>IG.Neural.MappingDefinitionElement</title>
<polygon fill="white" stroke="none" points="-4,4 -4,-102 346,-102 346,4 -4,4"/>
<!-- Node1 -->
<g id="node1" class="node"><title>Node1</title>
<g id="a_node1"><a xlink:title="Base class for input or output data element mapping definition.">
<polygon fill="#bfbfbf" stroke="black" points="100.5,-67.5 100.5,-97.5 237.5,-97.5 237.5,-67.5 100.5,-67.5"/>
<text text-anchor="start" x="108.5" y="-85.5" font-family="Helvetica,sans-Serif" font-size="10.00">IG.Neural.MappingDefinition</text>
<text text-anchor="middle" x="169" y="-74.5" font-family="Helvetica,sans-Serif" font-size="10.00">Element</text>
</a>
</g>
</g>
<!-- Node2 -->
<g id="node2" class="node"><title>Node2</title>
<g id="a_node2"><a xlink:href="../../da/d85/classIG_1_1Neural_1_1InputMappingDefinitionElement.html" target="_top" xlink:title="Input data element mapping definition for neural networks.">
<polygon fill="white" stroke="black" points="0,-0.5 0,-30.5 158,-30.5 158,-0.5 0,-0.5"/>
<text text-anchor="start" x="8" y="-18.5" font-family="Helvetica,sans-Serif" font-size="10.00">IG.Neural.InputMappingDefinition</text>
<text text-anchor="middle" x="79" y="-7.5" font-family="Helvetica,sans-Serif" font-size="10.00">Element</text>
</a>
</g>
</g>
<!-- Node1&#45;&gt;Node2 -->
<g id="edge1" class="edge"><title>Node1&#45;&gt;Node2</title>
<path fill="none" stroke="midnightblue" d="M141.24,-61.4511C127.395,-51.4517 110.984,-39.5995 98.4905,-30.5765"/>
<polygon fill="midnightblue" stroke="midnightblue" points="139.315,-64.3784 149.471,-67.396 143.414,-58.7036 139.315,-64.3784"/>
</g>
<!-- Node3 -->
<g id="node3" class="node"><title>Node3</title>
<g id="a_node3"><a xlink:href="../../d6/d84/classIG_1_1Neural_1_1OutputMappingDefinitionElement.html" target="_top" xlink:title="Output data element mapping definition for neural networks.">
<polygon fill="white" stroke="black" points="176,-0.5 176,-30.5 342,-30.5 342,-0.5 176,-0.5"/>
<text text-anchor="start" x="184" y="-18.5" font-family="Helvetica,sans-Serif" font-size="10.00">IG.Neural.OutputMappingDefinition</text>
<text text-anchor="middle" x="259" y="-7.5" font-family="Helvetica,sans-Serif" font-size="10.00">Element</text>
</a>
</g>
</g>
<!-- Node1&#45;&gt;Node3 -->
<g id="edge2" class="edge"><title>Node1&#45;&gt;Node3</title>
<path fill="none" stroke="midnightblue" d="M196.76,-61.4511C210.605,-51.4517 227.016,-39.5995 239.509,-30.5765"/>
<polygon fill="midnightblue" stroke="midnightblue" points="194.586,-58.7036 188.529,-67.396 198.685,-64.3784 194.586,-58.7036"/>
</g>
</g>
</svg>
