<?xml version="1.0" encoding="UTF-8" standalone="no"?>
<!DOCTYPE svg PUBLIC "-//W3C//DTD SVG 1.1//EN"
 "http://www.w3.org/Graphics/SVG/1.1/DTD/svg11.dtd">
<!-- Generated by graphviz version 2.38.0 (20140413.2041)
 -->
<!-- Title: IG.Num.VectorFunctionBaseGeneral.ObjectStoreResults Pages: 1 -->
<svg width="469pt" height="127pt"
 viewBox="0.00 0.00 469.00 126.50" xmlns="http://www.w3.org/2000/svg" xmlns:xlink="http://www.w3.org/1999/xlink">
<g id="graph0" class="graph" transform="scale(1 1) rotate(0) translate(4 122.5)">
<title>IG.Num.VectorFunctionBaseGeneral.ObjectStoreResults</title>
<polygon fill="white" stroke="none" points="-4,4 -4,-122.5 465,-122.5 465,4 -4,4"/>
<!-- Node1 -->
<g id="node1" class="node"><title>Node1</title>
<g id="a_node1"><a xlink:title="Storage for IVectorFunctionResults objects.">
<polygon fill="#bfbfbf" stroke="black" points="320,-39 320,-69 461,-69 461,-39 320,-39"/>
<text text-anchor="start" x="328" y="-57" font-family="Helvetica,sans-Serif" font-size="10.00">IG.Num.VectorFunctionBase</text>
<text text-anchor="middle" x="390.5" y="-46" font-family="Helvetica,sans-Serif" font-size="10.00">General.ObjectStoreResults</text>
</a>
</g>
</g>
<!-- Node2 -->
<g id="node2" class="node"><title>Node2</title>
<g id="a_node2"><a xlink:href="../../d7/d24/classIG_1_1Lib_1_1ObjectStore.html" target="_top" xlink:title=" ">
<polygon fill="white" stroke="black" points="96,-88 96,-118 242,-118 242,-88 96,-88"/>
<text text-anchor="start" x="104" y="-106" font-family="Helvetica,sans-Serif" font-size="10.00">ObjectStore&lt; IVectorFunction</text>
<text text-anchor="middle" x="169" y="-95" font-family="Helvetica,sans-Serif" font-size="10.00">Results &gt;</text>
</a>
</g>
</g>
<!-- Node2&#45;&gt;Node1 -->
<g id="edge1" class="edge"><title>Node2&#45;&gt;Node1</title>
<path fill="none" stroke="midnightblue" d="M247.309,-85.7419C271.767,-80.282 298.587,-74.295 322.278,-69.0062"/>
<polygon fill="midnightblue" stroke="midnightblue" points="246.346,-82.3707 237.349,-87.9654 247.871,-89.2025 246.346,-82.3707"/>
</g>
<!-- Node3 -->
<g id="node3" class="node"><title>Node3</title>
<g id="a_node3"><a xlink:href="../../d5/dd6/interfaceIG_1_1Lib_1_1IObjectStore.html" target="_top" xlink:title=" ">
<polygon fill="white" stroke="black" points="95,-39 95,-69 243,-69 243,-39 95,-39"/>
<text text-anchor="start" x="103" y="-57" font-family="Helvetica,sans-Serif" font-size="10.00">IObjectStore&lt; IVectorFunction</text>
<text text-anchor="middle" x="169" y="-46" font-family="Helvetica,sans-Serif" font-size="10.00">Results &gt;</text>
</a>
</g>
</g>
<!-- Node3&#45;&gt;Node1 -->
<g id="edge2" class="edge"><title>Node3&#45;&gt;Node1</title>
<path fill="none" stroke="midnightblue" d="M253.36,-54C275.243,-54 298.614,-54 319.705,-54"/>
<polygon fill="midnightblue" stroke="midnightblue" points="253.09,-50.5001 243.09,-54 253.09,-57.5001 253.09,-50.5001"/>
</g>
<!-- Node4 -->
<g id="node4" class="node"><title>Node4</title>
<g id="a_node4"><a xlink:href="../../da/d06/interfaceIG_1_1Num_1_1IVectorFunction.html" target="_top" xlink:title="Vector function of a vector argument.">
<polygon fill="white" stroke="black" points="108.5,-0.5 108.5,-19.5 229.5,-19.5 229.5,-0.5 108.5,-0.5"/>
<text text-anchor="middle" x="169" y="-7.5" font-family="Helvetica,sans-Serif" font-size="10.00">IG.Num.IVectorFunction</text>
</a>
</g>
</g>
<!-- Node4&#45;&gt;Node1 -->
<g id="edge3" class="edge"><title>Node4&#45;&gt;Node1</title>
<path fill="none" stroke="#9a32cd" stroke-dasharray="5,2" d="M227.743,-21.5749C255.983,-27.2359 290.2,-34.0947 319.877,-40.0437"/>
<polygon fill="#9a32cd" stroke="#9a32cd" points="228.121,-18.0811 217.628,-19.5473 226.745,-24.9446 228.121,-18.0811"/>
<text text-anchor="middle" x="281.5" y="-39" font-family="Helvetica,sans-Serif" font-size="10.00"> _vecfunc</text>
</g>
<!-- Node5 -->
<g id="node5" class="node"><title>Node5</title>
<g id="a_node5"><a xlink:href="../../d3/db6/interfaceIG_1_1Lib_1_1ILockable.html" target="_top" xlink:title="Lockable object, has a Lock property that returns object on which lock must be performed in order to ...">
<polygon fill="white" stroke="black" points="0,-0.5 0,-19.5 58,-19.5 58,-0.5 0,-0.5"/>
<text text-anchor="middle" x="29" y="-7.5" font-family="Helvetica,sans-Serif" font-size="10.00">ILockable</text>
</a>
</g>
</g>
<!-- Node5&#45;&gt;Node4 -->
<g id="edge4" class="edge"><title>Node5&#45;&gt;Node4</title>
<path fill="none" stroke="midnightblue" d="M68.2708,-10C80.7154,-10 94.8359,-10 108.455,-10"/>
<polygon fill="midnightblue" stroke="midnightblue" points="68.2594,-6.5001 58.2594,-10 68.2593,-13.5001 68.2594,-6.5001"/>
</g>
</g>
</svg>
