<?xml version="1.0" encoding="UTF-8" standalone="no"?>
<!DOCTYPE svg PUBLIC "-//W3C//DTD SVG 1.1//EN"
 "http://www.w3.org/Graphics/SVG/1.1/DTD/svg11.dtd">
<!-- Generated by graphviz version 2.38.0 (20140413.2041)
 -->
<!-- Title: IG.Lib.LoadableScriptOptShellBaseControllable Pages: 1 -->
<svg width="831pt" height="321pt"
 viewBox="0.00 0.00 831.00 321.03" xmlns="http://www.w3.org/2000/svg" xmlns:xlink="http://www.w3.org/1999/xlink">
<g id="graph0" class="graph" transform="scale(1 1) rotate(0) translate(4 317.032)">
<title>IG.Lib.LoadableScriptOptShellBaseControllable</title>
<polygon fill="white" stroke="none" points="-4,4 -4,-317.032 827,-317.032 827,4 -4,4"/>
<!-- Node1 -->
<g id="node1" class="node"><title>Node1</title>
<g id="a_node1"><a xlink:title="Controllable version of LoadableScriptOptBase, implements the ILoadableScriptC interface.">
<polygon fill="#bfbfbf" stroke="black" points="698,-115.077 698,-145.077 823,-145.077 823,-115.077 698,-115.077"/>
<text text-anchor="start" x="706" y="-133.077" font-family="Helvetica,sans-Serif" font-size="10.00">IG.Lib.LoadableScriptOpt</text>
<text text-anchor="middle" x="760.5" y="-122.077" font-family="Helvetica,sans-Serif" font-size="10.00">ShellBaseControllable</text>
</a>
</g>
</g>
<!-- Node2 -->
<g id="node2" class="node"><title>Node2</title>
<g id="a_node2"><a xlink:href="../../d5/d05/classIG_1_1Lib_1_1LoadableScriptOptBase.html" target="_top" xlink:title="Base class for loadable scripts for optimization problems. AGREEMENTS: The first argument to initiali...">
<polygon fill="white" stroke="black" points="542,-120.577 542,-139.577 661,-139.577 661,-120.577 542,-120.577"/>
<text text-anchor="middle" x="601.5" y="-127.577" font-family="Helvetica,sans-Serif" font-size="10.00">LoadableScriptOptBase</text>
</a>
</g>
</g>
<!-- Node2&#45;&gt;Node1 -->
<g id="edge1" class="edge"><title>Node2&#45;&gt;Node1</title>
<path fill="none" stroke="midnightblue" d="M671.592,-130.077C680.352,-130.077 689.27,-130.077 697.903,-130.077"/>
<polygon fill="midnightblue" stroke="midnightblue" points="671.408,-126.577 661.408,-130.077 671.408,-133.577 671.408,-126.577"/>
</g>
<!-- Node3 -->
<g id="node3" class="node"><title>Node3</title>
<g id="a_node3"><a xlink:href="../../d7/d15/classIG_1_1Lib_1_1LoadableScriptBase.html" target="_top" xlink:title="Base class for classes that can be dynamically loadeded from scripts and run, which provides function...">
<polygon fill="white" stroke="black" points="297,-190.577 297,-209.577 401,-209.577 401,-190.577 297,-190.577"/>
<text text-anchor="middle" x="349" y="-197.577" font-family="Helvetica,sans-Serif" font-size="10.00">LoadableScriptBase</text>
</a>
</g>
</g>
<!-- Node3&#45;&gt;Node2 -->
<g id="edge2" class="edge"><title>Node3&#45;&gt;Node2</title>
<path fill="none" stroke="midnightblue" d="M411.283,-191.892C445.051,-186.444 487.417,-178.054 524,-166.077 545.204,-159.135 568.197,-147.745 583.38,-139.637"/>
<polygon fill="midnightblue" stroke="midnightblue" points="410.433,-188.483 401.096,-193.489 411.517,-195.398 410.433,-188.483"/>
</g>
<!-- Node4 -->
<g id="node4" class="node"><title>Node4</title>
<g id="a_node4"><a xlink:href="../../d7/d66/interfaceIG_1_1Lib_1_1ILoadableScript.html" target="_top" xlink:title="Interface for classes that can be dynamically loadeded from scripts and run, which provides functiona...">
<polygon fill="white" stroke="black" points="37.5,-215.577 37.5,-234.577 120.5,-234.577 120.5,-215.577 37.5,-215.577"/>
<text text-anchor="middle" x="79" y="-222.577" font-family="Helvetica,sans-Serif" font-size="10.00">ILoadableScript</text>
</a>
</g>
</g>
<!-- Node4&#45;&gt;Node2 -->
<g id="edge7" class="edge"><title>Node4&#45;&gt;Node2</title>
<path fill="none" stroke="midnightblue" d="M107.371,-210.972C126.192,-201.883 152.021,-190.587 176,-184.077 243.574,-165.733 441.79,-145.126 541.62,-135.534"/>
<polygon fill="midnightblue" stroke="midnightblue" points="105.636,-207.925 98.2154,-215.487 108.732,-214.204 105.636,-207.925"/>
</g>
<!-- Node4&#45;&gt;Node3 -->
<g id="edge3" class="edge"><title>Node4&#45;&gt;Node3</title>
<path fill="none" stroke="midnightblue" d="M130.838,-227.504C167.922,-228.484 219.299,-228.204 264,-222.077 282.371,-219.559 302.48,-214.382 318.416,-209.682"/>
<polygon fill="midnightblue" stroke="midnightblue" points="130.877,-224.003 120.775,-227.198 130.664,-231 130.877,-224.003"/>
</g>
<!-- Node12 -->
<g id="node12" class="node"><title>Node12</title>
<g id="a_node12"><a xlink:href="../../d1/dca/interfaceIG_1_1Lib_1_1ILoadableScriptC.html" target="_top" xlink:title="Controllable loadable script, provides more control over loading and execution.">
<polygon fill="white" stroke="black" points="434,-274.577 434,-293.577 524,-293.577 524,-274.577 434,-274.577"/>
<text text-anchor="middle" x="479" y="-281.577" font-family="Helvetica,sans-Serif" font-size="10.00">ILoadableScriptC</text>
</a>
</g>
</g>
<!-- Node4&#45;&gt;Node12 -->
<g id="edge16" class="edge"><title>Node4&#45;&gt;Node12</title>
<path fill="none" stroke="midnightblue" d="M130.495,-230.63C140.35,-233.494 150.072,-237.756 158,-244.077 171.988,-255.228 160.846,-270.572 176,-280.077 261.065,-333.432 387.856,-309.201 446.347,-293.604"/>
<polygon fill="midnightblue" stroke="midnightblue" points="131.204,-227.2 120.657,-228.208 129.53,-233.997 131.204,-227.2"/>
</g>
<!-- Node5 -->
<g id="node5" class="node"><title>Node5</title>
<g id="a_node5"><a xlink:href="../../d3/db6/interfaceIG_1_1Lib_1_1ILockable.html" target="_top" xlink:title="Lockable object, has a Lock property that returns object on which lock must be performed in order to ...">
<polygon fill="white" stroke="black" points="50,-6.57698 50,-25.577 108,-25.577 108,-6.57698 50,-6.57698"/>
<text text-anchor="middle" x="79" y="-13.577" font-family="Helvetica,sans-Serif" font-size="10.00">ILockable</text>
</a>
</g>
</g>
<!-- Node5&#45;&gt;Node1 -->
<g id="edge17" class="edge"><title>Node5&#45;&gt;Node1</title>
<path fill="none" stroke="midnightblue" d="M117.925,-9.25413C135.524,-6.42114 156.761,-3.47242 176,-2.07698 215.009,0.75243 224.89,-1.81969 264,-2.07698 380.129,-2.84096 413.535,7.75891 524,-28.077 600.286,-52.8251 685.723,-93.1984 729.727,-114.989"/>
<polygon fill="midnightblue" stroke="midnightblue" points="117.319,-5.80673 108.027,-10.8962 118.465,-12.7124 117.319,-5.80673"/>
</g>
<!-- Node5&#45;&gt;Node2 -->
<g id="edge8" class="edge"><title>Node5&#45;&gt;Node2</title>
<path fill="none" stroke="midnightblue" d="M118.142,-11.3902C198.432,-3.34861 388.621,5.9745 524,-65.077 551.777,-79.6554 578.313,-105.868 591.621,-120.147"/>
<polygon fill="midnightblue" stroke="midnightblue" points="117.585,-7.92937 108.007,-12.4582 118.319,-14.8908 117.585,-7.92937"/>
</g>
<!-- Node5&#45;&gt;Node3 -->
<g id="edge4" class="edge"><title>Node5&#45;&gt;Node3</title>
<path fill="none" stroke="midnightblue" d="M118.323,-19.9826C132.708,-23.3733 147.982,-29.6202 158,-41.077 188.014,-75.4016 146.246,-107.527 176,-142.077 206.024,-176.94 257.746,-190.902 296.651,-196.464"/>
<polygon fill="midnightblue" stroke="midnightblue" points="118.58,-16.4666 108.094,-17.9847 117.238,-23.3368 118.58,-16.4666"/>
</g>
<!-- Node9 -->
<g id="node9" class="node"><title>Node9</title>
<g id="a_node9"><a xlink:href="../../de/de7/classIG_1_1Lib_1_1StopWatch1.html" target="_top" xlink:title="Timer for measuring execution times and other intervals of time elapsed between successive events....">
<polygon fill="white" stroke="black" points="299.5,-83.577 299.5,-102.577 398.5,-102.577 398.5,-83.577 299.5,-83.577"/>
<text text-anchor="middle" x="349" y="-90.577" font-family="Helvetica,sans-Serif" font-size="10.00">IG.Lib.StopWatch1</text>
</a>
</g>
</g>
<!-- Node5&#45;&gt;Node9 -->
<g id="edge11" class="edge"><title>Node5&#45;&gt;Node9</title>
<path fill="none" stroke="midnightblue" d="M118.423,-21.0632C156.67,-27.027 216.379,-39.083 264,-61.077 272.959,-65.2147 273.127,-69.7589 282,-74.077 289.72,-77.8335 298.318,-80.9799 306.689,-83.5623"/>
<polygon fill="midnightblue" stroke="midnightblue" points="118.64,-17.5568 108.232,-19.5394 117.604,-24.4798 118.64,-17.5568"/>
</g>
<!-- Node6 -->
<g id="node6" class="node"><title>Node6</title>
<g id="a_node6"><a xlink:href="../../de/dfd/interfaceIG_1_1Lib_1_1ICommandLineApplicationInterpreter.html" target="_top" xlink:title="Interface for simple command&#45;line applicatino interpreters.">
<polygon fill="white" stroke="black" points="0,-254.077 0,-284.077 158,-284.077 158,-254.077 0,-254.077"/>
<text text-anchor="start" x="8" y="-272.077" font-family="Helvetica,sans-Serif" font-size="10.00">IG.Lib.ICommandLineApplication</text>
<text text-anchor="middle" x="79" y="-261.077" font-family="Helvetica,sans-Serif" font-size="10.00">Interpreter</text>
</a>
</g>
</g>
<!-- Node6&#45;&gt;Node3 -->
<g id="edge5" class="edge"><title>Node6&#45;&gt;Node3</title>
<path fill="none" stroke="#9a32cd" stroke-dasharray="5,2" d="M168.222,-266.742C199.953,-262.87 235.035,-254.893 264,-239.077 274.496,-233.346 271.862,-225.421 282,-219.077 288.166,-215.219 295.141,-212.12 302.189,-209.639"/>
<polygon fill="#9a32cd" stroke="#9a32cd" points="167.607,-263.289 158.05,-267.86 168.372,-270.247 167.607,-263.289"/>
<text text-anchor="middle" x="220" y="-268.077" font-family="Helvetica,sans-Serif" font-size="10.00"> _script_interpreter</text>
</g>
<!-- Node7 -->
<g id="node7" class="node"><title>Node7</title>
<g id="a_node7"><a xlink:title=" ">
<polygon fill="white" stroke="#bfbfbf" points="58.5,-133.577 58.5,-152.577 99.5,-152.577 99.5,-133.577 58.5,-133.577"/>
<text text-anchor="middle" x="79" y="-140.577" font-family="Helvetica,sans-Serif" font-size="10.00">static</text>
</a>
</g>
</g>
<!-- Node7&#45;&gt;Node3 -->
<g id="edge6" class="edge"><title>Node7&#45;&gt;Node3</title>
<path fill="none" stroke="#9a32cd" stroke-dasharray="5,2" d="M104.426,-157.617C123.283,-168.063 150.395,-181.43 176,-188.077 215.693,-198.381 262.162,-201.094 296.786,-201.389"/>
<polygon fill="#9a32cd" stroke="#9a32cd" points="106.046,-154.512 95.622,-152.619 102.59,-160.6 106.046,-154.512"/>
<text text-anchor="middle" x="220" y="-204.077" font-family="Helvetica,sans-Serif" font-size="10.00"> _defaultOutputLevel</text>
</g>
<!-- Node7&#45;&gt;Node9 -->
<g id="edge13" class="edge"><title>Node7&#45;&gt;Node9</title>
<path fill="none" stroke="#9a32cd" stroke-dasharray="5,2" d="M102.22,-127.932C120.958,-116.123 148.97,-100.66 176,-94.077 216.764,-84.1497 264.592,-84.8179 299.451,-87.4417"/>
<polygon fill="#9a32cd" stroke="#9a32cd" points="100.3,-125.005 93.8116,-133.38 104.107,-130.879 100.3,-125.005"/>
<text text-anchor="middle" x="220" y="-130.077" font-family="Helvetica,sans-Serif" font-size="10.00"> lastId</text>
<text text-anchor="middle" x="220" y="-119.077" font-family="Helvetica,sans-Serif" font-size="10.00">_staticLock</text>
<text text-anchor="middle" x="220" y="-108.077" font-family="Helvetica,sans-Serif" font-size="10.00">numWarnCpu</text>
<text text-anchor="middle" x="220" y="-97.077" font-family="Helvetica,sans-Serif" font-size="10.00">MaxWarnCpu</text>
</g>
<!-- Node8 -->
<g id="node8" class="node"><title>Node8</title>
<g id="a_node8"><a xlink:href="../../d5/d59/interfaceIG_1_1Num_1_1IAnalysis.html" target="_top" xlink:title="Interface for direct analysis classes used in optimization problems.">
<polygon fill="white" stroke="black" points="303,-228.577 303,-247.577 395,-247.577 395,-228.577 303,-228.577"/>
<text text-anchor="middle" x="349" y="-235.577" font-family="Helvetica,sans-Serif" font-size="10.00">IG.Num.IAnalysis</text>
</a>
</g>
</g>
<!-- Node8&#45;&gt;Node2 -->
<g id="edge9" class="edge"><title>Node8&#45;&gt;Node2</title>
<path fill="none" stroke="#9a32cd" stroke-dasharray="5,2" d="M405.201,-229.167C440.498,-222.044 486.519,-210.045 524,-191.077 550.978,-177.424 577.425,-153.266 591.036,-139.813"/>
<polygon fill="#9a32cd" stroke="#9a32cd" points="404.228,-225.791 395.081,-231.136 405.565,-232.662 404.228,-225.791"/>
<text text-anchor="middle" x="479" y="-226.077" font-family="Helvetica,sans-Serif" font-size="10.00"> _analysis</text>
</g>
<!-- Node9&#45;&gt;Node2 -->
<g id="edge10" class="edge"><title>Node9&#45;&gt;Node2</title>
<path fill="none" stroke="#9a32cd" stroke-dasharray="5,2" d="M408.51,-101.719C448.661,-107.65 501.738,-115.489 541.907,-121.423"/>
<polygon fill="#9a32cd" stroke="#9a32cd" points="409,-98.2537 398.596,-100.255 407.977,-105.179 409,-98.2537"/>
<text text-anchor="middle" x="479" y="-122.077" font-family="Helvetica,sans-Serif" font-size="10.00"> _timer</text>
</g>
<!-- Node10 -->
<g id="node10" class="node"><title>Node10</title>
<g id="a_node10"><a xlink:href="../../dc/d79/interfaceIG_1_1Lib_1_1IIdentifiable.html" target="_top" xlink:title="Classes whose instances have unique integer IDs.">
<polygon fill="white" stroke="black" points="46.5,-50.577 46.5,-69.577 111.5,-69.577 111.5,-50.577 46.5,-50.577"/>
<text text-anchor="middle" x="79" y="-57.577" font-family="Helvetica,sans-Serif" font-size="10.00">IIdentifiable</text>
</a>
</g>
</g>
<!-- Node10&#45;&gt;Node9 -->
<g id="edge12" class="edge"><title>Node10&#45;&gt;Node9</title>
<path fill="none" stroke="midnightblue" d="M121.772,-61.5105C159.194,-63.2085 215.495,-66.7861 264,-74.077 279.525,-76.4105 296.446,-80.0262 311.006,-83.4796"/>
<polygon fill="midnightblue" stroke="midnightblue" points="121.881,-58.012 111.74,-61.0798 121.581,-65.0056 121.881,-58.012"/>
</g>
<!-- Node11 -->
<g id="node11" class="node"><title>Node11</title>
<g id="a_node11"><a xlink:href="../../d4/d43/interfaceIG_1_1Num_1_1IRandomGenerator.html" target="_top" xlink:title="Uniform random number generator.">
<polygon fill="white" stroke="black" points="282,-45.577 282,-64.577 416,-64.577 416,-45.577 282,-45.577"/>
<text text-anchor="middle" x="349" y="-52.577" font-family="Helvetica,sans-Serif" font-size="10.00">IG.Num.IRandomGenerator</text>
</a>
</g>
</g>
<!-- Node11&#45;&gt;Node2 -->
<g id="edge14" class="edge"><title>Node11&#45;&gt;Node2</title>
<path fill="none" stroke="#9a32cd" stroke-dasharray="5,2" d="M423.468,-66.4596C454.924,-72.4139 491.763,-80.8446 524,-92.077 545.706,-99.64 569.172,-111.975 584.309,-120.531"/>
<polygon fill="#9a32cd" stroke="#9a32cd" points="423.926,-62.9851 413.457,-64.613 422.657,-69.869 423.926,-62.9851"/>
<text text-anchor="middle" x="479" y="-95.077" font-family="Helvetica,sans-Serif" font-size="10.00"> _randGen</text>
</g>
<!-- Node12&#45;&gt;Node1 -->
<g id="edge15" class="edge"><title>Node12&#45;&gt;Node1</title>
<path fill="none" stroke="midnightblue" d="M506.277,-269.599C559.218,-240.429 678.242,-174.849 732.102,-145.173"/>
<polygon fill="midnightblue" stroke="midnightblue" points="504.553,-266.552 497.484,-274.444 507.932,-272.683 504.553,-266.552"/>
</g>
</g>
</svg>
