<?xml version="1.0" encoding="UTF-8" standalone="no"?>
<!DOCTYPE svg PUBLIC "-//W3C//DTD SVG 1.1//EN"
 "http://www.w3.org/Graphics/SVG/1.1/DTD/svg11.dtd">
<!-- Generated by graphviz version 2.38.0 (20140413.2041)
 -->
<!-- Title: IG.Num.VectorFunctionScriptControllerBase&lt; VectorFunctionType, ScalarFunctionControllerType, ScalarFunctionType &gt; Pages: 1 -->
<svg width="189pt" height="139pt"
 viewBox="0.00 0.00 188.50 139.00" xmlns="http://www.w3.org/2000/svg" xmlns:xlink="http://www.w3.org/1999/xlink">
<g id="graph0" class="graph" transform="scale(1 1) rotate(0) translate(4 135)">
<title>IG.Num.VectorFunctionScriptControllerBase&lt; VectorFunctionType, ScalarFunctionControllerType, ScalarFunctionType &gt;</title>
<polygon fill="white" stroke="none" points="-4,4 -4,-135 184.5,-135 184.5,4 -4,4"/>
<!-- Node1 -->
<g id="node1" class="node"><title>Node1</title>
<g id="a_node1"><a xlink:title="Base class for building vector functions from scripts. This is currently an interrmediate class betwe...">
<polygon fill="#bfbfbf" stroke="black" points="0,-0.5 0,-52.5 179,-52.5 179,-0.5 0,-0.5"/>
<text text-anchor="start" x="8" y="-40.5" font-family="Helvetica,sans-Serif" font-size="10.00">IG.Num.VectorFunctionScript</text>
<text text-anchor="start" x="8" y="-29.5" font-family="Helvetica,sans-Serif" font-size="10.00">ControllerBase&lt; VectorFunctionType,</text>
<text text-anchor="start" x="8" y="-18.5" font-family="Helvetica,sans-Serif" font-size="10.00"> ScalarFunctionControllerType,</text>
<text text-anchor="middle" x="89.5" y="-7.5" font-family="Helvetica,sans-Serif" font-size="10.00"> ScalarFunctionType &gt;</text>
</a>
</g>
</g>
<!-- Node2 -->
<g id="node2" class="node"><title>Node2</title>
<g id="a_node2"><a xlink:title=" ">
<polygon fill="white" stroke="#bfbfbf" points="69,-111.5 69,-130.5 110,-130.5 110,-111.5 69,-111.5"/>
<text text-anchor="middle" x="89.5" y="-118.5" font-family="Helvetica,sans-Serif" font-size="10.00">static</text>
</a>
</g>
</g>
<!-- Node2&#45;&gt;Node1 -->
<g id="edge1" class="edge"><title>Node2&#45;&gt;Node1</title>
<path fill="none" stroke="#9a32cd" stroke-dasharray="5,2" d="M89.5,-101.145C89.5,-87.1595 89.5,-67.9481 89.5,-52.6538"/>
<polygon fill="#9a32cd" stroke="#9a32cd" points="86.0001,-101.464 89.5,-111.464 93.0001,-101.464 86.0001,-101.464"/>
<text text-anchor="middle" x="135" y="-85" font-family="Helvetica,sans-Serif" font-size="10.00"> _defaultLowerBound</text>
<text text-anchor="middle" x="135" y="-74" font-family="Helvetica,sans-Serif" font-size="10.00">_defaultUpperBound</text>
</g>
</g>
</svg>
