<?xml version="1.0" encoding="UTF-8" standalone="no"?>
<!DOCTYPE svg PUBLIC "-//W3C//DTD SVG 1.1//EN"
 "http://www.w3.org/Graphics/SVG/1.1/DTD/svg11.dtd">
<!-- Generated by graphviz version 2.38.0 (20140413.2041)
 -->
<!-- Title: IG.Num.UnstructuredMeshGeometry2d&lt; TCoord &gt; Pages: 1 -->
<svg width="193pt" height="162pt"
 viewBox="0.00 0.00 193.00 162.00" xmlns="http://www.w3.org/2000/svg" xmlns:xlink="http://www.w3.org/1999/xlink">
<g id="graph0" class="graph" transform="scale(1 1) rotate(0) translate(4 158)">
<title>IG.Num.UnstructuredMeshGeometry2d&lt; TCoord &gt;</title>
<polygon fill="white" stroke="none" points="-4,4 -4,-158 189,-158 189,4 -4,4"/>
<!-- Node1 -->
<g id="node1" class="node"><title>Node1</title>
<g id="a_node1"><a xlink:title="Geometry and topology of an unstructured 2D mesh. Presents both connected meshes and unconnected sets...">
<polygon fill="#bfbfbf" stroke="black" points="0,-67.5 0,-97.5 185,-97.5 185,-67.5 0,-67.5"/>
<text text-anchor="start" x="8" y="-85.5" font-family="Helvetica,sans-Serif" font-size="10.00">IG.Num.UnstructuredMeshGeometry2d</text>
<text text-anchor="middle" x="92.5" y="-74.5" font-family="Helvetica,sans-Serif" font-size="10.00">&lt; TCoord &gt;</text>
</a>
</g>
</g>
<!-- Node3 -->
<g id="node3" class="node"><title>Node3</title>
<g id="a_node3"><a xlink:href="../../dc/d45/classIG_1_1Num_1_1UnstructuredMesh2d.html" target="_top" xlink:title="Generic 2D unstructured mesh with collections of named scalar, vector, tensor and index fields.">
<polygon fill="white" stroke="black" points="18,-0.5 18,-30.5 167,-30.5 167,-0.5 18,-0.5"/>
<text text-anchor="start" x="26" y="-18.5" font-family="Helvetica,sans-Serif" font-size="10.00">IG::Num::UnstructuredMesh2d</text>
<text text-anchor="middle" x="92.5" y="-7.5" font-family="Helvetica,sans-Serif" font-size="10.00">&lt; TCoord &gt;</text>
</a>
</g>
</g>
<!-- Node1&#45;&gt;Node3 -->
<g id="edge2" class="edge"><title>Node1&#45;&gt;Node3</title>
<path fill="none" stroke="midnightblue" d="M92.5,-57.1081C92.5,-48.1539 92.5,-38.3227 92.5,-30.5765"/>
<polygon fill="midnightblue" stroke="midnightblue" points="89.0001,-57.3959 92.5,-67.396 96.0001,-57.396 89.0001,-57.3959"/>
</g>
<!-- Node2 -->
<g id="node2" class="node"><title>Node2</title>
<g id="a_node2"><a xlink:href="../../d3/df2/classIG_1_1Num_1_1Field.html" target="_top" xlink:title=" ">
<polygon fill="white" stroke="black" points="49.5,-134.5 49.5,-153.5 135.5,-153.5 135.5,-134.5 49.5,-134.5"/>
<text text-anchor="middle" x="92.5" y="-141.5" font-family="Helvetica,sans-Serif" font-size="10.00">Field&lt; TCoord &gt;</text>
</a>
</g>
</g>
<!-- Node2&#45;&gt;Node1 -->
<g id="edge1" class="edge"><title>Node2&#45;&gt;Node1</title>
<path fill="none" stroke="midnightblue" d="M92.5,-124.235C92.5,-115.586 92.5,-105.497 92.5,-97.523"/>
<polygon fill="midnightblue" stroke="midnightblue" points="89.0001,-124.475 92.5,-134.475 96.0001,-124.475 89.0001,-124.475"/>
</g>
</g>
</svg>
