<?xml version="1.0" encoding="UTF-8" standalone="no"?>
<!DOCTYPE svg PUBLIC "-//W3C//DTD SVG 1.1//EN"
 "http://www.w3.org/Graphics/SVG/1.1/DTD/svg11.dtd">
<!-- Generated by graphviz version 2.38.0 (20140413.2041)
 -->
<!-- Title: IG.Num.IVector&lt; T &gt; Pages: 1 -->
<svg width="310pt" height="140pt"
 viewBox="0.00 0.00 309.50 140.00" xmlns="http://www.w3.org/2000/svg" xmlns:xlink="http://www.w3.org/1999/xlink">
<g id="graph0" class="graph" transform="scale(1 1) rotate(0) translate(4 136)">
<title>IG.Num.IVector&lt; T &gt;</title>
<polygon fill="white" stroke="none" points="-4,4 -4,-136 305.5,-136 305.5,4 -4,4"/>
<!-- Node1 -->
<g id="node1" class="node"><title>Node1</title>
<g id="a_node1"><a xlink:title="Generic Vector interface">
<polygon fill="#bfbfbf" stroke="black" points="113,-112.5 113,-131.5 220,-131.5 220,-112.5 113,-112.5"/>
<text text-anchor="middle" x="166.5" y="-119.5" font-family="Helvetica,sans-Serif" font-size="10.00">IG.Num.IVector&lt; T &gt;</text>
</a>
</g>
</g>
<!-- Node2 -->
<g id="node2" class="node"><title>Node2</title>
<g id="a_node2"><a xlink:href="../../d7/de0/classIG_1_1Num_1_1Vector.html" target="_top" xlink:title="Real vector class.">
<polygon fill="white" stroke="black" points="0,-0.5 0,-19.5 81,-19.5 81,-0.5 0,-0.5"/>
<text text-anchor="middle" x="40.5" y="-7.5" font-family="Helvetica,sans-Serif" font-size="10.00">IG.Num.Vector</text>
</a>
</g>
</g>
<!-- Node1&#45;&gt;Node2 -->
<g id="edge1" class="edge"><title>Node1&#45;&gt;Node2</title>
<path fill="none" stroke="midnightblue" d="M121.104,-109.275C101.834,-102.329 80.4245,-91.721 65.5,-76 50.1832,-59.8658 43.9693,-33.3454 41.6855,-19.7039"/>
<polygon fill="midnightblue" stroke="midnightblue" points="120.052,-112.614 130.646,-112.489 122.286,-105.98 120.052,-112.614"/>
</g>
<!-- Node3 -->
<g id="node3" class="node"><title>Node3</title>
<g id="a_node3"><a xlink:href="../../dc/de8/classIG_1_1Num_1_1Vector2d.html" target="_top" xlink:title="Vector or point in a 2 dimensional space.">
<polygon fill="white" stroke="black" points="99.5,-0.5 99.5,-19.5 191.5,-19.5 191.5,-0.5 99.5,-0.5"/>
<text text-anchor="middle" x="145.5" y="-7.5" font-family="Helvetica,sans-Serif" font-size="10.00">IG.Num.Vector2d</text>
</a>
</g>
</g>
<!-- Node1&#45;&gt;Node3 -->
<g id="edge2" class="edge"><title>Node1&#45;&gt;Node3</title>
<path fill="none" stroke="midnightblue" d="M178.502,-103.917C186.247,-90.6857 193.799,-71.9805 187.5,-56 181.543,-40.8879 167.854,-27.8572 157.714,-19.7638"/>
<polygon fill="midnightblue" stroke="midnightblue" points="175.472,-102.158 173.023,-112.466 181.366,-105.935 175.472,-102.158"/>
</g>
<!-- Node4 -->
<g id="node4" class="node"><title>Node4</title>
<g id="a_node4"><a xlink:href="../../da/d5b/classIG_1_1Num_1_1Vector3d.html" target="_top" xlink:title="Vector or point in a 3 dimensional space.">
<polygon fill="white" stroke="black" points="209.5,-0.5 209.5,-19.5 301.5,-19.5 301.5,-0.5 209.5,-0.5"/>
<text text-anchor="middle" x="255.5" y="-7.5" font-family="Helvetica,sans-Serif" font-size="10.00">IG.Num.Vector3d</text>
</a>
</g>
</g>
<!-- Node1&#45;&gt;Node4 -->
<g id="edge3" class="edge"><title>Node1&#45;&gt;Node4</title>
<path fill="none" stroke="midnightblue" d="M179.998,-104.691C187.032,-96.1654 195.759,-85.5443 203.5,-76 219.704,-56.0213 238.514,-32.4006 248.472,-19.8615"/>
<polygon fill="midnightblue" stroke="midnightblue" points="177.299,-102.463 173.628,-112.401 182.695,-106.921 177.299,-102.463"/>
</g>
<!-- Node5 -->
<g id="node5" class="node"><title>Node5</title>
<g id="a_node5"><a xlink:href="../../d0/d5a/classIG_1_1Num_1_1VectorBase.html" target="_top" xlink:title="Base class for real vectors.">
<polygon fill="white" stroke="black" points="74.5,-56.5 74.5,-75.5 178.5,-75.5 178.5,-56.5 74.5,-56.5"/>
<text text-anchor="middle" x="126.5" y="-63.5" font-family="Helvetica,sans-Serif" font-size="10.00">IG.Num.VectorBase</text>
</a>
</g>
</g>
<!-- Node1&#45;&gt;Node5 -->
<g id="edge4" class="edge"><title>Node1&#45;&gt;Node5</title>
<path fill="none" stroke="midnightblue" d="M153.8,-103.855C146.874,-94.5048 138.594,-83.3265 132.982,-75.7511"/>
<polygon fill="midnightblue" stroke="midnightblue" points="151.13,-106.131 159.895,-112.083 156.755,-101.964 151.13,-106.131"/>
</g>
<!-- Node5&#45;&gt;Node2 -->
<g id="edge5" class="edge"><title>Node5&#45;&gt;Node2</title>
<path fill="none" stroke="midnightblue" d="M104.045,-50.9005C88.2756,-40.9986 67.6864,-28.0705 54.2831,-19.6545"/>
<polygon fill="midnightblue" stroke="midnightblue" points="102.352,-53.9704 112.683,-56.324 106.075,-48.0421 102.352,-53.9704"/>
</g>
<!-- Node5&#45;&gt;Node3 -->
<g id="edge6" class="edge"><title>Node5&#45;&gt;Node3</title>
<path fill="none" stroke="midnightblue" d="M133.046,-46.3956C136.224,-37.362 139.893,-26.936 142.421,-19.7511"/>
<polygon fill="midnightblue" stroke="midnightblue" points="129.655,-45.4882 129.637,-56.083 136.258,-47.8116 129.655,-45.4882"/>
</g>
<!-- Node5&#45;&gt;Node4 -->
<g id="edge7" class="edge"><title>Node5&#45;&gt;Node4</title>
<path fill="none" stroke="midnightblue" d="M156.354,-52.503C180.538,-42.3795 213.962,-28.388 235.155,-19.5164"/>
<polygon fill="midnightblue" stroke="midnightblue" points="154.813,-49.3536 146.94,-56.4435 157.516,-55.8106 154.813,-49.3536"/>
</g>
</g>
</svg>
