<?xml version="1.0" encoding="UTF-8" standalone="no"?>
<!DOCTYPE svg PUBLIC "-//W3C//DTD SVG 1.1//EN"
 "http://www.w3.org/Graphics/SVG/1.1/DTD/svg11.dtd">
<!-- Generated by graphviz version 2.38.0 (20140413.2041)
 -->
<!-- Title: IG.Num.NeuralApproximatorAforgeFake Pages: 1 -->
<svg width="996pt" height="440pt"
 viewBox="0.00 0.00 996.00 440.04" xmlns="http://www.w3.org/2000/svg" xmlns:xlink="http://www.w3.org/1999/xlink">
<g id="graph0" class="graph" transform="scale(1 1) rotate(0) translate(4 436.036)">
<title>IG.Num.NeuralApproximatorAforgeFake</title>
<polygon fill="white" stroke="none" points="-4,4 -4,-436.036 992,-436.036 992,4 -4,4"/>
<!-- Node1 -->
<g id="node1" class="node"><title>Node1</title>
<g id="a_node1"><a xlink:title=" ">
<polygon fill="#bfbfbf" stroke="black" points="850,-176.018 850,-206.018 988,-206.018 988,-176.018 850,-176.018"/>
<text text-anchor="start" x="858" y="-194.018" font-family="Helvetica,sans-Serif" font-size="10.00">IG.Num.NeuralApproximator</text>
<text text-anchor="middle" x="919" y="-183.018" font-family="Helvetica,sans-Serif" font-size="10.00">AforgeFake</text>
</a>
</g>
</g>
<!-- Node2 -->
<g id="node2" class="node"><title>Node2</title>
<g id="a_node2"><a xlink:href="../../dc/db5/classIG_1_1Num_1_1NeuralApproximatorBase.html" target="_top" xlink:title="Base class for neural network approximators.">
<polygon fill="white" stroke="black" points="688,-181.518 688,-200.518 813,-200.518 813,-181.518 688,-181.518"/>
<text text-anchor="middle" x="750.5" y="-188.518" font-family="Helvetica,sans-Serif" font-size="10.00">NeuralApproximatorBase</text>
</a>
</g>
</g>
<!-- Node2&#45;&gt;Node1 -->
<g id="edge1" class="edge"><title>Node2&#45;&gt;Node1</title>
<path fill="none" stroke="midnightblue" d="M823.237,-191.018C832.024,-191.018 840.985,-191.018 849.72,-191.018"/>
<polygon fill="midnightblue" stroke="midnightblue" points="823.025,-187.518 813.025,-191.018 823.025,-194.518 823.025,-187.518"/>
</g>
<!-- Node3 -->
<g id="node3" class="node"><title>Node3</title>
<g id="a_node3"><a xlink:href="../../db/d03/classIG_1_1Num_1_1VectorApproximatorBase.html" target="_top" xlink:title="Base class for vector function approximators.">
<polygon fill="white" stroke="black" points="429.5,-275.518 429.5,-294.518 554.5,-294.518 554.5,-275.518 429.5,-275.518"/>
<text text-anchor="middle" x="492" y="-282.518" font-family="Helvetica,sans-Serif" font-size="10.00">VectorApproximatorBase</text>
</a>
</g>
</g>
<!-- Node3&#45;&gt;Node2 -->
<g id="edge2" class="edge"><title>Node3&#45;&gt;Node2</title>
<path fill="none" stroke="midnightblue" d="M528.536,-271.995C580.801,-252.842 677.19,-217.518 723.425,-200.574"/>
<polygon fill="midnightblue" stroke="midnightblue" points="527.191,-268.761 519.006,-275.488 529.6,-275.333 527.191,-268.761"/>
</g>
<!-- Node4 -->
<g id="node4" class="node"><title>Node4</title>
<g id="a_node4"><a xlink:href="../../dc/d13/interfaceIG_1_1Num_1_1IVectorApproximator.html" target="_top" xlink:title="Interface for vector function approximators.">
<polygon fill="white" stroke="black" points="144.5,-313.518 144.5,-332.518 249.5,-332.518 249.5,-313.518 144.5,-313.518"/>
<text text-anchor="middle" x="197" y="-320.518" font-family="Helvetica,sans-Serif" font-size="10.00">IVectorApproximator</text>
</a>
</g>
</g>
<!-- Node4&#45;&gt;Node2 -->
<g id="edge9" class="edge"><title>Node4&#45;&gt;Node2</title>
<path fill="none" stroke="midnightblue" d="M259.96,-326.586C331.965,-329.164 453.84,-328.658 555,-304.018 609.5,-290.744 621.876,-280.837 670,-252.018 696.269,-236.288 723.994,-213.355 738.757,-200.558"/>
<polygon fill="midnightblue" stroke="midnightblue" points="259.835,-323.078 249.706,-326.185 259.562,-330.073 259.835,-323.078"/>
</g>
<!-- Node4&#45;&gt;Node3 -->
<g id="edge3" class="edge"><title>Node4&#45;&gt;Node3</title>
<path fill="none" stroke="midnightblue" d="M254.195,-311.621C259.527,-310.682 264.859,-309.796 270,-309.018 323.614,-300.909 384.946,-294.472 429.376,-290.314"/>
<polygon fill="midnightblue" stroke="midnightblue" points="253.203,-308.244 243.992,-313.48 254.457,-315.131 253.203,-308.244"/>
</g>
<!-- Node7 -->
<g id="node7" class="node"><title>Node7</title>
<g id="a_node7"><a xlink:href="../../d7/db4/interfaceIG_1_1Num_1_1INeuralApproximator.html" target="_top" xlink:title="Approximator of response by using neural networks. $A Igor Mar11;">
<polygon fill="white" stroke="black" points="440,-351.518 440,-370.518 544,-370.518 544,-351.518 440,-351.518"/>
<text text-anchor="middle" x="492" y="-358.518" font-family="Helvetica,sans-Serif" font-size="10.00">INeuralApproximator</text>
</a>
</g>
</g>
<!-- Node4&#45;&gt;Node7 -->
<g id="edge7" class="edge"><title>Node4&#45;&gt;Node7</title>
<path fill="none" stroke="midnightblue" d="M260.036,-332.617C263.405,-333.101 266.743,-333.571 270,-334.018 328.014,-341.992 394.763,-349.984 439.59,-355.18"/>
<polygon fill="midnightblue" stroke="midnightblue" points="260.286,-329.116 249.885,-331.136 259.275,-336.043 260.286,-329.116"/>
</g>
<!-- Node5 -->
<g id="node5" class="node"><title>Node5</title>
<g id="a_node5"><a xlink:href="../../d3/db6/interfaceIG_1_1Lib_1_1ILockable.html" target="_top" xlink:title="Lockable object, has a Lock property that returns object on which lock must be performed in order to ...">
<polygon fill="white" stroke="black" points="168,-388.518 168,-407.518 226,-407.518 226,-388.518 168,-388.518"/>
<text text-anchor="middle" x="197" y="-395.518" font-family="Helvetica,sans-Serif" font-size="10.00">ILockable</text>
</a>
</g>
</g>
<!-- Node5&#45;&gt;Node2 -->
<g id="edge10" class="edge"><title>Node5&#45;&gt;Node2</title>
<path fill="none" stroke="midnightblue" d="M235.943,-408.016C322.695,-428.454 538.19,-465.191 670,-366.018 726.797,-323.284 744.116,-230.514 748.332,-200.555"/>
<polygon fill="midnightblue" stroke="midnightblue" points="236.559,-404.564 226.016,-405.615 234.913,-411.368 236.559,-404.564"/>
</g>
<!-- Node5&#45;&gt;Node3 -->
<g id="edge4" class="edge"><title>Node5&#45;&gt;Node3</title>
<path fill="none" stroke="midnightblue" d="M232.359,-384.767C292.092,-361.731 413.701,-314.83 466.082,-294.628"/>
<polygon fill="midnightblue" stroke="midnightblue" points="231.052,-381.52 222.981,-388.384 233.571,-388.051 231.052,-381.52"/>
</g>
<!-- Node5&#45;&gt;Node7 -->
<g id="edge8" class="edge"><title>Node5&#45;&gt;Node7</title>
<path fill="none" stroke="midnightblue" d="M236.403,-397.96C279.28,-397.325 350.589,-394.562 411,-384.018 428.653,-380.937 447.974,-375.445 463.206,-370.6"/>
<polygon fill="midnightblue" stroke="midnightblue" points="236.097,-394.463 226.139,-398.079 236.179,-401.463 236.097,-394.463"/>
</g>
<!-- Node6 -->
<g id="node6" class="node"><title>Node6</title>
<g id="a_node6"><a xlink:href="../../d3/d24/interfaceIG_1_1Num_1_1IVector.html" target="_top" xlink:title="Generic Vector interface">
<polygon fill="white" stroke="black" points="143.5,-205.518 143.5,-224.518 250.5,-224.518 250.5,-205.518 143.5,-205.518"/>
<text text-anchor="middle" x="197" y="-212.518" font-family="Helvetica,sans-Serif" font-size="10.00">IG.Num.IVector&lt; T &gt;</text>
</a>
</g>
</g>
<!-- Node6&#45;&gt;Node2 -->
<g id="edge14" class="edge"><title>Node6&#45;&gt;Node2</title>
<path fill="none" stroke="#9a32cd" stroke-dasharray="5,2" d="M260.931,-210.305C307.358,-206.98 372.083,-202.665 429,-200.018 518.94,-195.837 623.174,-193.346 687.734,-192.079"/>
<polygon fill="#9a32cd" stroke="#9a32cd" points="260.445,-206.831 250.723,-211.041 260.949,-213.813 260.445,-206.831"/>
<text text-anchor="middle" x="492" y="-258.018" font-family="Helvetica,sans-Serif" font-size="10.00"> _tolMaxRelative</text>
<text text-anchor="middle" x="492" y="-247.018" font-family="Helvetica,sans-Serif" font-size="10.00">_output</text>
<text text-anchor="middle" x="492" y="-236.018" font-family="Helvetica,sans-Serif" font-size="10.00">_tolRmsRelative</text>
<text text-anchor="middle" x="492" y="-225.018" font-family="Helvetica,sans-Serif" font-size="10.00">_toleranceMax</text>
<text text-anchor="middle" x="492" y="-214.018" font-family="Helvetica,sans-Serif" font-size="10.00">_toleranceRms</text>
<text text-anchor="middle" x="492" y="-203.018" font-family="Helvetica,sans-Serif" font-size="10.00">_outputFiltered1</text>
</g>
<!-- Node6&#45;&gt;Node3 -->
<g id="edge5" class="edge"><title>Node6&#45;&gt;Node3</title>
<path fill="none" stroke="#9a32cd" stroke-dasharray="5,2" d="M247.73,-226.899C304.982,-240.577 397.907,-262.778 450.797,-275.414"/>
<polygon fill="#9a32cd" stroke="#9a32cd" points="248.36,-223.451 237.82,-224.532 246.733,-230.26 248.36,-223.451"/>
<text text-anchor="middle" x="340.5" y="-279.018" font-family="Helvetica,sans-Serif" font-size="10.00"> _lastCalculationOutputValues</text>
<text text-anchor="middle" x="340.5" y="-268.018" font-family="Helvetica,sans-Serif" font-size="10.00">_lastCalculationInputParameters</text>
</g>
<!-- Node7&#45;&gt;Node2 -->
<g id="edge6" class="edge"><title>Node7&#45;&gt;Node2</title>
<path fill="none" stroke="midnightblue" d="M554.325,-365.93C590.87,-365.831 636.509,-360.102 670,-337.018 719.428,-302.95 741.018,-227.86 747.376,-200.899"/>
<polygon fill="midnightblue" stroke="midnightblue" points="554.314,-362.43 544.276,-365.818 554.236,-369.429 554.314,-362.43"/>
</g>
<!-- Node8 -->
<g id="node8" class="node"><title>Node8</title>
<g id="a_node8"><a xlink:href="../../d5/d84/classIG_1_1Lib_1_1IndexList.html" target="_top" xlink:title="Index list, a sorted list of unique integer indices. Used for tasks such as filtering specified eleme...">
<polygon fill="white" stroke="black" points="450,-135.518 450,-154.518 534,-154.518 534,-135.518 450,-135.518"/>
<text text-anchor="middle" x="492" y="-142.518" font-family="Helvetica,sans-Serif" font-size="10.00">IG.Lib.IndexList</text>
</a>
</g>
</g>
<!-- Node8&#45;&gt;Node2 -->
<g id="edge11" class="edge"><title>Node8&#45;&gt;Node2</title>
<path fill="none" stroke="#9a32cd" stroke-dasharray="5,2" d="M544.272,-148.557C579.835,-151.629 628.143,-157.036 670,-166.018 688.107,-169.904 707.982,-176.154 723.331,-181.433"/>
<polygon fill="#9a32cd" stroke="#9a32cd" points="544.387,-145.054 534.131,-147.714 543.807,-152.03 544.387,-145.054"/>
<text text-anchor="middle" x="621.5" y="-169.018" font-family="Helvetica,sans-Serif" font-size="10.00"> _verificationIndices</text>
</g>
<!-- Node9 -->
<g id="node9" class="node"><title>Node9</title>
<g id="a_node9"><a xlink:href="../../da/d2a/classIG_1_1Lib_1_1SortedUniqueItemList.html" target="_top" xlink:title=" ">
<polygon fill="white" stroke="black" points="142,-136.018 142,-166.018 252,-166.018 252,-136.018 142,-136.018"/>
<text text-anchor="start" x="150" y="-154.018" font-family="Helvetica,sans-Serif" font-size="10.00">SortedUniqueItemList</text>
<text text-anchor="middle" x="197" y="-143.018" font-family="Helvetica,sans-Serif" font-size="10.00">&lt; int &gt;</text>
</a>
</g>
</g>
<!-- Node9&#45;&gt;Node8 -->
<g id="edge12" class="edge"><title>Node9&#45;&gt;Node8</title>
<path fill="none" stroke="midnightblue" d="M262.097,-149.706C319.256,-148.535 401.218,-146.857 449.984,-145.858"/>
<polygon fill="midnightblue" stroke="midnightblue" points="262.008,-146.207 252.082,-149.911 262.152,-153.205 262.008,-146.207"/>
</g>
<!-- Node10 -->
<g id="node10" class="node"><title>Node10</title>
<g id="a_node10"><a xlink:href="../../d4/d29/classIG_1_1Num_1_1SampledDataSet.html" target="_top" xlink:title="Sampled data consisting of elements of which each contains vector of input parameters and output valu...">
<polygon fill="white" stroke="black" points="429,-97.5184 429,-116.518 555,-116.518 555,-97.5184 429,-97.5184"/>
<text text-anchor="middle" x="492" y="-104.518" font-family="Helvetica,sans-Serif" font-size="10.00">IG.Num.SampledDataSet</text>
</a>
</g>
</g>
<!-- Node10&#45;&gt;Node2 -->
<g id="edge13" class="edge"><title>Node10&#45;&gt;Node2</title>
<path fill="none" stroke="#9a32cd" stroke-dasharray="5,2" d="M565.371,-112.215C598.201,-116.341 636.98,-123.742 670,-137.018 697.091,-147.911 724.294,-169.145 738.796,-181.492"/>
<polygon fill="#9a32cd" stroke="#9a32cd" points="565.727,-108.733 555.386,-111.037 564.907,-115.685 565.727,-108.733"/>
<text text-anchor="middle" x="621.5" y="-140.018" font-family="Helvetica,sans-Serif" font-size="10.00"> _trainingData</text>
</g>
<!-- Node11 -->
<g id="node11" class="node"><title>Node11</title>
<g id="a_node11"><a xlink:href="../../d7/de0/classIG_1_1Num_1_1Vector.html" target="_top" xlink:title="Real vector class.">
<polygon fill="white" stroke="black" points="451.5,-59.5184 451.5,-78.5184 532.5,-78.5184 532.5,-59.5184 451.5,-59.5184"/>
<text text-anchor="middle" x="492" y="-66.5184" font-family="Helvetica,sans-Serif" font-size="10.00">IG.Num.Vector</text>
</a>
</g>
</g>
<!-- Node11&#45;&gt;Node2 -->
<g id="edge15" class="edge"><title>Node11&#45;&gt;Node2</title>
<path fill="none" stroke="#9a32cd" stroke-dasharray="5,2" d="M542.921,-68.5888C580.13,-70.2976 631.03,-77.0653 670,-99.0184 705.864,-119.222 733.219,-162.027 744.218,-181.278"/>
<polygon fill="#9a32cd" stroke="#9a32cd" points="542.928,-65.087 532.811,-68.2326 542.681,-72.0827 542.928,-65.087"/>
<text text-anchor="middle" x="621.5" y="-102.018" font-family="Helvetica,sans-Serif" font-size="10.00"> _auxErrors</text>
</g>
<!-- Node12 -->
<g id="node12" class="node"><title>Node12</title>
<g id="a_node12"><a xlink:href="../../d0/d5a/classIG_1_1Num_1_1VectorBase.html" target="_top" xlink:title="Base class for real vectors.">
<polygon fill="white" stroke="black" points="163,-97.5184 163,-116.518 231,-116.518 231,-97.5184 163,-97.5184"/>
<text text-anchor="middle" x="197" y="-104.518" font-family="Helvetica,sans-Serif" font-size="10.00">VectorBase</text>
</a>
</g>
</g>
<!-- Node12&#45;&gt;Node11 -->
<g id="edge16" class="edge"><title>Node12&#45;&gt;Node11</title>
<path fill="none" stroke="midnightblue" d="M241.424,-102.909C284.537,-98.6452 352.47,-91.4292 411,-83.0184 424.119,-81.1331 438.39,-78.7448 451.198,-76.477"/>
<polygon fill="midnightblue" stroke="midnightblue" points="240.896,-99.4442 231.285,-103.903 241.579,-106.411 240.896,-99.4442"/>
</g>
<!-- Node13 -->
<g id="node13" class="node"><title>Node13</title>
<g id="a_node13"><a xlink:href="../../d3/d24/interfaceIG_1_1Num_1_1IVector.html" target="_top" xlink:title="Generic Vector interface">
<polygon fill="white" stroke="black" points="0,-21.5184 0,-40.5184 47,-40.5184 47,-21.5184 0,-21.5184"/>
<text text-anchor="middle" x="23.5" y="-28.5184" font-family="Helvetica,sans-Serif" font-size="10.00">IVector</text>
</a>
</g>
</g>
<!-- Node13&#45;&gt;Node11 -->
<g id="edge19" class="edge"><title>Node13&#45;&gt;Node11</title>
<path fill="none" stroke="midnightblue" d="M57.4426,-24.2405C80.9028,-19.7702 113.242,-14.3285 142,-12.0184 261.57,-2.41344 295.551,-1.45069 411,-34.0184 433.178,-40.2746 457.222,-51.4404 473.099,-59.4801"/>
<polygon fill="midnightblue" stroke="midnightblue" points="56.4786,-20.8625 47.3331,-26.2114 57.8181,-27.7331 56.4786,-20.8625"/>
</g>
<!-- Node13&#45;&gt;Node12 -->
<g id="edge17" class="edge"><title>Node13&#45;&gt;Node12</title>
<path fill="none" stroke="midnightblue" d="M51.5571,-45.2293C75.118,-57.3406 110.364,-74.8293 142,-88.0184 149.981,-91.3455 158.774,-94.6056 166.905,-97.46"/>
<polygon fill="midnightblue" stroke="midnightblue" points="53.014,-42.0424 42.5241,-40.5549 49.7968,-48.2593 53.014,-42.0424"/>
</g>
<!-- Node14 -->
<g id="node14" class="node"><title>Node14</title>
<g id="a_node14"><a xlink:title=" ">
<polygon fill="white" stroke="#bfbfbf" points="3,-97.5184 3,-116.518 44,-116.518 44,-97.5184 3,-97.5184"/>
<text text-anchor="middle" x="23.5" y="-104.518" font-family="Helvetica,sans-Serif" font-size="10.00">static</text>
</a>
</g>
</g>
<!-- Node14&#45;&gt;Node12 -->
<g id="edge18" class="edge"><title>Node14&#45;&gt;Node12</title>
<path fill="none" stroke="#9a32cd" stroke-dasharray="5,2" d="M54.5276,-107.018C84.7977,-107.018 131.407,-107.018 162.771,-107.018"/>
<polygon fill="#9a32cd" stroke="#9a32cd" points="54.1733,-103.518 44.1732,-107.018 54.1732,-110.518 54.1733,-103.518"/>
<text text-anchor="middle" x="94.5" y="-110.018" font-family="Helvetica,sans-Serif" font-size="10.00"> _matrixStore</text>
</g>
<!-- Node15 -->
<g id="node15" class="node"><title>Node15</title>
<g id="a_node15"><a xlink:title=" ">
<polygon fill="white" stroke="#bfbfbf" points="166,-59.5184 166,-78.5184 228,-78.5184 228,-59.5184 166,-59.5184"/>
<text text-anchor="middle" x="197" y="-66.5184" font-family="Helvetica,sans-Serif" font-size="10.00">ICloneable</text>
</a>
</g>
</g>
<!-- Node15&#45;&gt;Node11 -->
<g id="edge20" class="edge"><title>Node15&#45;&gt;Node11</title>
<path fill="none" stroke="midnightblue" d="M238.524,-69.0184C294.65,-69.0184 395.416,-69.0184 451.17,-69.0184"/>
<polygon fill="midnightblue" stroke="midnightblue" points="238.253,-65.5185 228.253,-69.0184 238.253,-72.5185 238.253,-65.5185"/>
</g>
<!-- Node16 -->
<g id="node16" class="node"><title>Node16</title>
<g id="a_node16"><a xlink:title=" ">
<polygon fill="white" stroke="#bfbfbf" points="168,-21.5184 168,-40.5184 226,-40.5184 226,-21.5184 168,-21.5184"/>
<text text-anchor="middle" x="197" y="-28.5184" font-family="Helvetica,sans-Serif" font-size="10.00">Numerics</text>
</a>
</g>
</g>
<!-- Node16&#45;&gt;Node11 -->
<g id="edge21" class="edge"><title>Node16&#45;&gt;Node11</title>
<path fill="none" stroke="#9a32cd" stroke-dasharray="5,2" d="M236.31,-34.2506C279.038,-38.0658 350.152,-45.0426 411,-54.0184 424.141,-55.9568 438.418,-58.4941 451.224,-60.9291"/>
<polygon fill="#9a32cd" stroke="#9a32cd" points="236.61,-30.7636 226.342,-33.3721 235.996,-37.7366 236.61,-30.7636"/>
<text text-anchor="middle" x="340.5" y="-57.0184" font-family="Helvetica,sans-Serif" font-size="10.00"> _copyMathNetNumerics</text>
</g>
<!-- Node17 -->
<g id="node17" class="node"><title>Node17</title>
<g id="a_node17"><a xlink:href="../../db/d5e/interfaceIG_1_1Num_1_1IBoundingBox.html" target="_top" xlink:title="Bounding box, defines minimum and maximum co&#45;ordinates of domains, geometric objects and their groups...">
<polygon fill="white" stroke="black" points="435.5,-2.51839 435.5,-21.5184 548.5,-21.5184 548.5,-2.51839 435.5,-2.51839"/>
<text text-anchor="middle" x="492" y="-9.51839" font-family="Helvetica,sans-Serif" font-size="10.00">IG.Num.IBoundingBox</text>
</a>
</g>
</g>
<!-- Node17&#45;&gt;Node2 -->
<g id="edge22" class="edge"><title>Node17&#45;&gt;Node2</title>
<path fill="none" stroke="#9a32cd" stroke-dasharray="5,2" d="M551.706,-1.39436C588.692,2.06077 635.75,0.184577 670,-23.0184 726.635,-61.3859 743.988,-151.42 748.281,-181.236"/>
<polygon fill="#9a32cd" stroke="#9a32cd" points="551.124,2.06305 541.561,-2.49696 551.88,-4.89597 551.124,2.06305"/>
<text text-anchor="middle" x="621.5" y="-59.0184" font-family="Helvetica,sans-Serif" font-size="10.00"> _inputNeuronRange</text>
<text text-anchor="middle" x="621.5" y="-48.0184" font-family="Helvetica,sans-Serif" font-size="10.00">_outputNeuronsRange</text>
<text text-anchor="middle" x="621.5" y="-37.0184" font-family="Helvetica,sans-Serif" font-size="10.00">_inputDataBounds</text>
<text text-anchor="middle" x="621.5" y="-26.0184" font-family="Helvetica,sans-Serif" font-size="10.00">_outputDataBounds</text>
</g>
</g>
</svg>
