<?xml version="1.0" encoding="UTF-8" standalone="no"?>
<!DOCTYPE svg PUBLIC "-//W3C//DTD SVG 1.1//EN"
 "http://www.w3.org/Graphics/SVG/1.1/DTD/svg11.dtd">
<!-- Generated by graphviz version 2.38.0 (20140413.2041)
 -->
<!-- Title: IG.Num.FunctionPolynomial Pages: 1 -->
<svg width="269pt" height="301pt"
 viewBox="0.00 0.00 269.00 301.00" xmlns="http://www.w3.org/2000/svg" xmlns:xlink="http://www.w3.org/1999/xlink">
<g id="graph0" class="graph" transform="scale(1 1) rotate(0) translate(4 297)">
<title>IG.Num.FunctionPolynomial</title>
<polygon fill="white" stroke="none" points="-4,4 -4,-297 265,-297 265,4 -4,4"/>
<!-- Node1 -->
<g id="node1" class="node"><title>Node1</title>
<g id="a_node1"><a xlink:title="Polynomial real functions of one variable.">
<polygon fill="#bfbfbf" stroke="black" points="0,-0.5 0,-19.5 138,-19.5 138,-0.5 0,-0.5"/>
<text text-anchor="middle" x="69" y="-7.5" font-family="Helvetica,sans-Serif" font-size="10.00">IG.Num.FunctionPolynomial</text>
</a>
</g>
</g>
<!-- Node2 -->
<g id="node2" class="node"><title>Node2</title>
<g id="a_node2"><a xlink:href="../../d5/d83/classIG_1_1Num_1_1RealFunction.html" target="_top" xlink:title="Represents a real function of a real variabe.">
<polygon fill="white" stroke="black" points="32,-57.5 32,-76.5 106,-76.5 106,-57.5 32,-57.5"/>
<text text-anchor="middle" x="69" y="-64.5" font-family="Helvetica,sans-Serif" font-size="10.00">RealFunction</text>
</a>
</g>
</g>
<!-- Node2&#45;&gt;Node1 -->
<g id="edge1" class="edge"><title>Node2&#45;&gt;Node1</title>
<path fill="none" stroke="midnightblue" d="M69,-47.1166C69,-37.8173 69,-27.0557 69,-19.7149"/>
<polygon fill="midnightblue" stroke="midnightblue" points="65.5001,-47.4062 69,-57.4063 72.5001,-47.4063 65.5001,-47.4062"/>
</g>
<!-- Node3 -->
<g id="node3" class="node"><title>Node3</title>
<g id="a_node3"><a xlink:href="../../d6/d30/classIG_1_1Num_1_1RealFunctionBase.html" target="_top" xlink:title="Base class for real functions of real variable.">
<polygon fill="white" stroke="black" points="12,-216.5 12,-235.5 108,-235.5 108,-216.5 12,-216.5"/>
<text text-anchor="middle" x="60" y="-223.5" font-family="Helvetica,sans-Serif" font-size="10.00">RealFunctionBase</text>
</a>
</g>
</g>
<!-- Node3&#45;&gt;Node2 -->
<g id="edge2" class="edge"><title>Node3&#45;&gt;Node2</title>
<path fill="none" stroke="midnightblue" d="M53.543,-206.591C50.9541,-198.276 48.2833,-188.259 47,-179 41.6601,-140.47 57.7409,-95.1402 65.3016,-76.578"/>
<polygon fill="midnightblue" stroke="midnightblue" points="50.3047,-207.946 56.7754,-216.335 56.9486,-205.742 50.3047,-207.946"/>
</g>
<!-- Node6 -->
<g id="node6" class="node"><title>Node6</title>
<g id="a_node6"><a xlink:href="../../d5/d83/classIG_1_1Num_1_1RealFunction.html" target="_top" xlink:title="Represents a real function of a real variabe.">
<polygon fill="white" stroke="black" points="56,-153 56,-172 166,-172 166,-153 56,-153"/>
<text text-anchor="middle" x="111" y="-160" font-family="Helvetica,sans-Serif" font-size="10.00">IG.Num.RealFunction</text>
</a>
</g>
</g>
<!-- Node3&#45;&gt;Node6 -->
<g id="edge7" class="edge"><title>Node3&#45;&gt;Node6</title>
<path fill="none" stroke="midnightblue" d="M73.4846,-208.739C83.1401,-197.096 95.7751,-181.859 103.639,-172.377"/>
<polygon fill="midnightblue" stroke="midnightblue" points="70.7806,-206.517 67.0913,-216.449 76.1689,-210.985 70.7806,-206.517"/>
</g>
<!-- Node4 -->
<g id="node4" class="node"><title>Node4</title>
<g id="a_node4"><a xlink:href="../../db/d0e/interfaceIG_1_1Num_1_1IRealFunction.html" target="_top" xlink:title="Interface for real functions.">
<polygon fill="white" stroke="black" points="22,-273.5 22,-292.5 98,-292.5 98,-273.5 22,-273.5"/>
<text text-anchor="middle" x="60" y="-280.5" font-family="Helvetica,sans-Serif" font-size="10.00">IRealFunction</text>
</a>
</g>
</g>
<!-- Node4&#45;&gt;Node2 -->
<g id="edge4" class="edge"><title>Node4&#45;&gt;Node2</title>
<path fill="none" stroke="midnightblue" d="M33.7898,-268.1C22.0739,-260.358 9.46784,-249.531 3,-236 -0.833476,-227.98 1.4898,-224.76 3,-216 12.6965,-159.757 17.4681,-144.429 46,-95 49.8172,-88.3871 55.3327,-81.8457 60.0057,-76.8581"/>
<polygon fill="midnightblue" stroke="midnightblue" points="32.1039,-271.172 42.459,-273.413 35.7617,-265.203 32.1039,-271.172"/>
</g>
<!-- Node4&#45;&gt;Node3 -->
<g id="edge3" class="edge"><title>Node4&#45;&gt;Node3</title>
<path fill="none" stroke="midnightblue" d="M60,-263.117C60,-253.817 60,-243.056 60,-235.715"/>
<polygon fill="midnightblue" stroke="midnightblue" points="56.5001,-263.406 60,-273.406 63.5001,-263.406 56.5001,-263.406"/>
</g>
<!-- Node4&#45;&gt;Node6 -->
<g id="edge8" class="edge"><title>Node4&#45;&gt;Node6</title>
<path fill="none" stroke="midnightblue" d="M86.2102,-268.1C97.9261,-260.358 110.532,-249.531 117,-236 127.131,-214.805 119.373,-186.137 114.373,-172.044"/>
<polygon fill="midnightblue" stroke="midnightblue" points="84.2383,-265.203 77.541,-273.413 87.8961,-271.172 84.2383,-265.203"/>
</g>
<!-- Node5 -->
<g id="node5" class="node"><title>Node5</title>
<g id="a_node5"><a xlink:title=" ">
<polygon fill="white" stroke="#bfbfbf" points="199,-216.5 199,-235.5 261,-235.5 261,-216.5 199,-216.5"/>
<text text-anchor="middle" x="230" y="-223.5" font-family="Helvetica,sans-Serif" font-size="10.00">ICloneable</text>
</a>
</g>
</g>
<!-- Node5&#45;&gt;Node2 -->
<g id="edge5" class="edge"><title>Node5&#45;&gt;Node2</title>
<path fill="none" stroke="midnightblue" d="M243.184,-207.906C254.313,-191.229 266.714,-165.583 255,-146 224.173,-94.4632 151.174,-76.9716 106.341,-71.0395"/>
<polygon fill="midnightblue" stroke="midnightblue" points="240.258,-205.98 237.293,-216.152 245.954,-210.049 240.258,-205.98"/>
</g>
<!-- Node5&#45;&gt;Node6 -->
<g id="edge9" class="edge"><title>Node5&#45;&gt;Node6</title>
<path fill="none" stroke="midnightblue" d="M204.524,-211.834C181.338,-199.851 147.77,-182.503 127.79,-172.177"/>
<polygon fill="midnightblue" stroke="midnightblue" points="202.963,-214.967 213.454,-216.449 206.177,-208.748 202.963,-214.967"/>
</g>
<!-- Node6&#45;&gt;Node2 -->
<g id="edge6" class="edge"><title>Node6&#45;&gt;Node2</title>
<path fill="none" stroke="#9a32cd" stroke-dasharray="5,2" d="M102.95,-143.579C93.9273,-123.493 79.6733,-91.7608 72.8666,-76.6078"/>
<polygon fill="#9a32cd" stroke="#9a32cd" points="99.8337,-145.184 107.124,-152.871 106.219,-142.315 99.8337,-145.184"/>
<text text-anchor="middle" x="125" y="-120" font-family="Helvetica,sans-Serif" font-size="10.00"> funcDerivative</text>
<text text-anchor="middle" x="125" y="-109" font-family="Helvetica,sans-Serif" font-size="10.00">funcInverse</text>
<text text-anchor="middle" x="125" y="-98" font-family="Helvetica,sans-Serif" font-size="10.00">funcIntegral</text>
</g>
<!-- Node6&#45;&gt;Node6 -->
<g id="edge10" class="edge"><title>Node6&#45;&gt;Node6</title>
<path fill="none" stroke="#9a32cd" stroke-dasharray="5,2" d="M176.001,-167.284C180.952,-166.222 184,-164.627 184,-162.5 184,-159.18 176.574,-157.156 166.073,-156.43"/>
<polygon fill="#9a32cd" stroke="#9a32cd" points="175.541,-163.815 166.073,-168.57 176.44,-170.757 175.541,-163.815"/>
<text text-anchor="middle" x="215" y="-171" font-family="Helvetica,sans-Serif" font-size="10.00"> funcDerivative</text>
<text text-anchor="middle" x="215" y="-160" font-family="Helvetica,sans-Serif" font-size="10.00">funcInverse</text>
<text text-anchor="middle" x="215" y="-149" font-family="Helvetica,sans-Serif" font-size="10.00">funcIntegral</text>
</g>
</g>
</svg>
