<?xml version="1.0" encoding="UTF-8" standalone="no"?>
<!DOCTYPE svg PUBLIC "-//W3C//DTD SVG 1.1//EN"
 "http://www.w3.org/Graphics/SVG/1.1/DTD/svg11.dtd">
<!-- Generated by graphviz version 2.38.0 (20140413.2041)
 -->
<!-- Title: IG.Num.Func3d2dExamples.HyperboloidParametricPlus Pages: 1 -->
<svg width="388pt" height="470pt"
 viewBox="0.00 0.00 387.50 470.00" xmlns="http://www.w3.org/2000/svg" xmlns:xlink="http://www.w3.org/1999/xlink">
<g id="graph0" class="graph" transform="scale(1 1) rotate(0) translate(4 466)">
<title>IG.Num.Func3d2dExamples.HyperboloidParametricPlus</title>
<polygon fill="white" stroke="none" points="-4,4 -4,-466 383.5,-466 383.5,4 -4,4"/>
<!-- Node1 -->
<g id="node1" class="node"><title>Node1</title>
<g id="a_node1"><a xlink:title="Alternative parameterization of an origin&#45;centered hyperboloid surface (x^2/a^2+y^2/b^2&#45;z^2/c^2=1) in...">
<polygon fill="#bfbfbf" stroke="black" points="0,-0.5 0,-30.5 142,-30.5 142,-0.5 0,-0.5"/>
<text text-anchor="start" x="8" y="-18.5" font-family="Helvetica,sans-Serif" font-size="10.00">IG.Num.Func3d2dExamples.</text>
<text text-anchor="middle" x="71" y="-7.5" font-family="Helvetica,sans-Serif" font-size="10.00">HyperboloidParametricPlus</text>
</a>
</g>
</g>
<!-- Node2 -->
<g id="node2" class="node"><title>Node2</title>
<g id="a_node2"><a xlink:href="../../d5/dc2/classIG_1_1Num_1_1Func3d2dExamples_1_1HyperboloidParametric.html" target="_top" xlink:title="Parametric definition of an origin&#45;centered hyperboloid surface (x^2/a^2+y^2/b^2&#45;z^2/c^2=1) in form o...">
<polygon fill="white" stroke="black" points="72.5,-68.5 72.5,-87.5 187.5,-87.5 187.5,-68.5 72.5,-68.5"/>
<text text-anchor="middle" x="130" y="-75.5" font-family="Helvetica,sans-Serif" font-size="10.00">HyperboloidParametric</text>
</a>
</g>
</g>
<!-- Node2&#45;&gt;Node1 -->
<g id="edge1" class="edge"><title>Node2&#45;&gt;Node1</title>
<path fill="none" stroke="midnightblue" d="M114.5,-61.1063C105.322,-51.6944 93.7893,-39.8687 84.9051,-30.7587"/>
<polygon fill="midnightblue" stroke="midnightblue" points="112.059,-63.6162 121.547,-68.3318 117.071,-58.7289 112.059,-63.6162"/>
</g>
<!-- Node3 -->
<g id="node3" class="node"><title>Node3</title>
<g id="a_node3"><a xlink:href="../../d0/d54/classIG_1_1Num_1_1Func3d2dExamples_1_1ParametricSurface.html" target="_top" xlink:title="Base class for easy definition of parametric surfaces intended for plotting.">
<polygon fill="white" stroke="black" points="110.5,-125.5 110.5,-144.5 207.5,-144.5 207.5,-125.5 110.5,-125.5"/>
<text text-anchor="middle" x="159" y="-132.5" font-family="Helvetica,sans-Serif" font-size="10.00">ParametricSurface</text>
</a>
</g>
</g>
<!-- Node3&#45;&gt;Node2 -->
<g id="edge2" class="edge"><title>Node3&#45;&gt;Node2</title>
<path fill="none" stroke="midnightblue" d="M149.685,-116.334C144.642,-106.77 138.636,-95.3784 134.595,-87.7149"/>
<polygon fill="midnightblue" stroke="midnightblue" points="146.709,-118.193 154.469,-125.406 152.901,-114.928 146.709,-118.193"/>
</g>
<!-- Node4 -->
<g id="node4" class="node"><title>Node4</title>
<g id="a_node4"><a xlink:href="../../d3/dc0/classIG_1_1Num_1_1Func3d2dBaseNoGradient.html" target="_top" xlink:title="Base class for 3D vector functions of 2 variables (implementations of the IFunc3d2d interface) that d...">
<polygon fill="white" stroke="black" points="148.5,-182.5 148.5,-201.5 279.5,-201.5 279.5,-182.5 148.5,-182.5"/>
<text text-anchor="middle" x="214" y="-189.5" font-family="Helvetica,sans-Serif" font-size="10.00">Func3d2dBaseNoGradient</text>
</a>
</g>
</g>
<!-- Node4&#45;&gt;Node3 -->
<g id="edge3" class="edge"><title>Node4&#45;&gt;Node3</title>
<path fill="none" stroke="midnightblue" d="M198.123,-175.123C188.224,-165.224 175.862,-152.862 167.715,-144.715"/>
<polygon fill="midnightblue" stroke="midnightblue" points="195.86,-177.81 205.406,-182.406 200.81,-172.86 195.86,-177.81"/>
</g>
<!-- Node5 -->
<g id="node5" class="node"><title>Node5</title>
<g id="a_node5"><a xlink:href="../../df/d0e/classIG_1_1Num_1_1Func3d2dBase.html" target="_top" xlink:title="Base class for 3D vector functions of 2 variables (base for implementation of IFunc3d2d interface).">
<polygon fill="white" stroke="black" points="186,-239.5 186,-258.5 268,-258.5 268,-239.5 186,-239.5"/>
<text text-anchor="middle" x="227" y="-246.5" font-family="Helvetica,sans-Serif" font-size="10.00">Func3d2dBase</text>
</a>
</g>
</g>
<!-- Node5&#45;&gt;Node4 -->
<g id="edge4" class="edge"><title>Node5&#45;&gt;Node4</title>
<path fill="none" stroke="midnightblue" d="M222.609,-229.423C220.395,-220.054 217.814,-209.136 216.06,-201.715"/>
<polygon fill="midnightblue" stroke="midnightblue" points="219.262,-230.48 224.969,-239.406 226.075,-228.869 219.262,-230.48"/>
</g>
<!-- Node6 -->
<g id="node6" class="node"><title>Node6</title>
<g id="a_node6"><a xlink:href="../../d3/d6f/interfaceIG_1_1Num_1_1IFunc3d2d.html" target="_top" xlink:title="Represents 3D vector functions of 2 variables.">
<polygon fill="white" stroke="black" points="89,-328.5 89,-347.5 151,-347.5 151,-328.5 89,-328.5"/>
<text text-anchor="middle" x="120" y="-335.5" font-family="Helvetica,sans-Serif" font-size="10.00">IFunc3d2d</text>
</a>
</g>
</g>
<!-- Node6&#45;&gt;Node1 -->
<g id="edge14" class="edge"><title>Node6&#45;&gt;Node1</title>
<path fill="none" stroke="midnightblue" d="M95.5692,-322.752C73.3478,-307.753 44,-281.905 44,-250 44,-250 44,-250 44,-77 44,-59.9771 53.0242,-42.4161 60.6383,-30.6287"/>
<polygon fill="midnightblue" stroke="midnightblue" points="93.9456,-325.868 104.253,-328.321 97.7246,-319.976 93.9456,-325.868"/>
</g>
<!-- Node6&#45;&gt;Node2 -->
<g id="edge13" class="edge"><title>Node6&#45;&gt;Node2</title>
<path fill="none" stroke="midnightblue" d="M107.689,-320.162C96.5897,-303.292 82,-276.145 82,-250 82,-250 82,-250 82,-134 82,-113.595 100.985,-97.1023 115.076,-87.6711"/>
<polygon fill="midnightblue" stroke="midnightblue" points="104.818,-322.165 113.381,-328.405 110.579,-318.187 104.818,-322.165"/>
</g>
<!-- Node6&#45;&gt;Node3 -->
<g id="edge12" class="edge"><title>Node6&#45;&gt;Node3</title>
<path fill="none" stroke="midnightblue" d="M120.559,-318.356C121.824,-288.906 125.911,-230.031 139,-182 142.709,-168.389 149.733,-153.584 154.391,-144.546"/>
<polygon fill="midnightblue" stroke="midnightblue" points="117.058,-318.313 120.19,-328.434 124.053,-318.569 117.058,-318.313"/>
</g>
<!-- Node6&#45;&gt;Node4 -->
<g id="edge11" class="edge"><title>Node6&#45;&gt;Node4</title>
<path fill="none" stroke="midnightblue" d="M129.163,-319.458C139.84,-299.466 158.404,-266.06 177,-239 186.404,-225.316 198.722,-210.53 206.501,-201.517"/>
<polygon fill="midnightblue" stroke="midnightblue" points="126.043,-317.87 124.464,-328.347 132.232,-321.142 126.043,-317.87"/>
</g>
<!-- Node6&#45;&gt;Node5 -->
<g id="edge5" class="edge"><title>Node6&#45;&gt;Node5</title>
<path fill="none" stroke="midnightblue" d="M149.53,-323.937C157.174,-319.958 165.169,-315.235 172,-310 192.189,-294.528 211.178,-271.151 220.674,-258.634"/>
<polygon fill="midnightblue" stroke="midnightblue" points="147.899,-320.839 140.483,-328.405 150.999,-327.115 147.899,-320.839"/>
</g>
<!-- Node7 -->
<g id="node7" class="node"><title>Node7</title>
<g id="a_node7"><a xlink:href="../../da/d29/classIG_1_1Num_1_1Func2dBase.html" target="_top" xlink:title="Base class for scalar functions of 2 variables (base for implementation of IFunc2d interface).">
<polygon fill="white" stroke="black" points="173.5,-328.5 173.5,-347.5 280.5,-347.5 280.5,-328.5 173.5,-328.5"/>
<text text-anchor="middle" x="227" y="-335.5" font-family="Helvetica,sans-Serif" font-size="10.00">IG.Num.Func2dBase</text>
</a>
</g>
</g>
<!-- Node7&#45;&gt;Node5 -->
<g id="edge6" class="edge"><title>Node7&#45;&gt;Node5</title>
<path fill="none" stroke="#9a32cd" stroke-dasharray="5,2" d="M227,-318.195C227,-299.738 227,-272.412 227,-258.625"/>
<polygon fill="#9a32cd" stroke="#9a32cd" points="223.5,-318.34 227,-328.34 230.5,-318.34 223.5,-318.34"/>
<text text-anchor="middle" x="246" y="-302" font-family="Helvetica,sans-Serif" font-size="10.00"> _comp1</text>
<text text-anchor="middle" x="246" y="-291" font-family="Helvetica,sans-Serif" font-size="10.00">_comp2</text>
<text text-anchor="middle" x="246" y="-280" font-family="Helvetica,sans-Serif" font-size="10.00">_comp3</text>
</g>
<!-- Node8 -->
<g id="node8" class="node"><title>Node8</title>
<g id="a_node8"><a xlink:href="../../d2/d9e/classIG_1_1Num_1_1ScalarFunctionUntransformedBase.html" target="_top" xlink:title="Base class for defining scalar functions without possibility of affine transformation of parameters.">
<polygon fill="white" stroke="black" points="143.5,-385.5 143.5,-404.5 310.5,-404.5 310.5,-385.5 143.5,-385.5"/>
<text text-anchor="middle" x="227" y="-392.5" font-family="Helvetica,sans-Serif" font-size="10.00">ScalarFunctionUntransformedBase</text>
</a>
</g>
</g>
<!-- Node8&#45;&gt;Node7 -->
<g id="edge7" class="edge"><title>Node8&#45;&gt;Node7</title>
<path fill="none" stroke="midnightblue" d="M227,-375.117C227,-365.817 227,-355.056 227,-347.715"/>
<polygon fill="midnightblue" stroke="midnightblue" points="223.5,-375.406 227,-385.406 230.5,-375.406 223.5,-375.406"/>
</g>
<!-- Node9 -->
<g id="node9" class="node"><title>Node9</title>
<g id="a_node9"><a xlink:href="../../d8/d56/interfaceIG_1_1Num_1_1IScalarFunctionUntransformed.html" target="_top" xlink:title="Scalar functions of vector arguments.">
<polygon fill="white" stroke="black" points="75.5,-442.5 75.5,-461.5 222.5,-461.5 222.5,-442.5 75.5,-442.5"/>
<text text-anchor="middle" x="149" y="-449.5" font-family="Helvetica,sans-Serif" font-size="10.00">IScalarFunctionUntransformed</text>
</a>
</g>
</g>
<!-- Node9&#45;&gt;Node7 -->
<g id="edge10" class="edge"><title>Node9&#45;&gt;Node7</title>
<path fill="none" stroke="midnightblue" d="M138.123,-433.118C131.139,-419.112 124.921,-399.619 134,-385 145.974,-365.719 168.69,-354.274 188.673,-347.623"/>
<polygon fill="midnightblue" stroke="midnightblue" points="135.239,-435.135 143.136,-442.198 141.367,-431.752 135.239,-435.135"/>
</g>
<!-- Node9&#45;&gt;Node8 -->
<g id="edge8" class="edge"><title>Node9&#45;&gt;Node8</title>
<path fill="none" stroke="midnightblue" d="M169.511,-436.537C183.953,-426.354 202.795,-413.068 214.898,-404.533"/>
<polygon fill="midnightblue" stroke="midnightblue" points="167.343,-433.783 161.188,-442.406 171.377,-439.504 167.343,-433.783"/>
</g>
<!-- Node10 -->
<g id="node10" class="node"><title>Node10</title>
<g id="a_node10"><a xlink:href="../../d8/d15/interfaceIG_1_1Num_1_1IFunc2d.html" target="_top" xlink:title="Represents scalar functions of 2 variables.">
<polygon fill="white" stroke="black" points="328.5,-385.5 328.5,-404.5 379.5,-404.5 379.5,-385.5 328.5,-385.5"/>
<text text-anchor="middle" x="354" y="-392.5" font-family="Helvetica,sans-Serif" font-size="10.00">IFunc2d</text>
</a>
</g>
</g>
<!-- Node10&#45;&gt;Node7 -->
<g id="edge9" class="edge"><title>Node10&#45;&gt;Node7</title>
<path fill="none" stroke="midnightblue" d="M324.844,-381.374C300.894,-371.001 267.62,-356.591 246.704,-347.533"/>
<polygon fill="midnightblue" stroke="midnightblue" points="323.589,-384.644 334.156,-385.406 326.371,-378.22 323.589,-384.644"/>
</g>
</g>
</svg>
