<?xml version="1.0" encoding="UTF-8" standalone="no"?>
<!DOCTYPE svg PUBLIC "-//W3C//DTD SVG 1.1//EN"
 "http://www.w3.org/Graphics/SVG/1.1/DTD/svg11.dtd">
<!-- Generated by graphviz version 2.38.0 (20140413.2041)
 -->
<!-- Title: IG.Num.InputOutputDataDefiniton Pages: 1 -->
<svg width="237pt" height="161pt"
 viewBox="0.00 0.00 236.50 161.00" xmlns="http://www.w3.org/2000/svg" xmlns:xlink="http://www.w3.org/1999/xlink">
<g id="graph0" class="graph" transform="scale(1 1) rotate(0) translate(4 157)">
<title>IG.Num.InputOutputDataDefiniton</title>
<polygon fill="white" stroke="none" points="-4,4 -4,-157 232.5,-157 232.5,4 -4,4"/>
<!-- Node1 -->
<g id="node1" class="node"><title>Node1</title>
<g id="a_node1"><a xlink:title="Definition of input and output data for vector functions, approximations, etc. Contains descriptiove ...">
<polygon fill="#bfbfbf" stroke="black" points="0,-0.5 0,-19.5 161,-19.5 161,-0.5 0,-0.5"/>
<text text-anchor="middle" x="80.5" y="-7.5" font-family="Helvetica,sans-Serif" font-size="10.00">IG.Num.InputOutputDataDefiniton</text>
</a>
</g>
</g>
<!-- Node2 -->
<g id="node2" class="node"><title>Node2</title>
<g id="a_node2"><a xlink:title=" ">
<polygon fill="white" stroke="#bfbfbf" points="60,-133.5 60,-152.5 101,-152.5 101,-133.5 60,-133.5"/>
<text text-anchor="middle" x="80.5" y="-140.5" font-family="Helvetica,sans-Serif" font-size="10.00">static</text>
</a>
</g>
</g>
<!-- Node2&#45;&gt;Node1 -->
<g id="edge1" class="edge"><title>Node2&#45;&gt;Node1</title>
<path fill="none" stroke="#9a32cd" stroke-dasharray="5,2" d="M80.5,-123.09C80.5,-94.3564 80.5,-40.8221 80.5,-19.7987"/>
<polygon fill="#9a32cd" stroke="#9a32cd" points="77.0001,-123.405 80.5,-133.405 84.0001,-123.405 77.0001,-123.405"/>
<text text-anchor="start" x="80.5" y="-107" font-family="Helvetica,sans-Serif" font-size="10.00"> _defaultElementNameStating</text>
<text text-anchor="middle" x="154.5" y="-96" font-family="Helvetica,sans-Serif" font-size="10.00">Index</text>
<text text-anchor="middle" x="154.5" y="-85" font-family="Helvetica,sans-Serif" font-size="10.00">DefaultDescription</text>
<text text-anchor="middle" x="154.5" y="-74" font-family="Helvetica,sans-Serif" font-size="10.00">_defaultElementNameNumDigits</text>
<text text-anchor="middle" x="154.5" y="-63" font-family="Helvetica,sans-Serif" font-size="10.00">_defaultOutputElementNameBase</text>
<text text-anchor="middle" x="154.5" y="-52" font-family="Helvetica,sans-Serif" font-size="10.00">_defaultInputElementNameBase</text>
<text text-anchor="middle" x="154.5" y="-41" font-family="Helvetica,sans-Serif" font-size="10.00">DefaultName</text>
</g>
</g>
</svg>
