<?xml version="1.0" encoding="UTF-8" standalone="no"?>
<!DOCTYPE svg PUBLIC "-//W3C//DTD SVG 1.1//EN"
 "http://www.w3.org/Graphics/SVG/1.1/DTD/svg11.dtd">
<!-- Generated by graphviz version 2.38.0 (20140413.2041)
 -->
<!-- Title: IG.Num.Vector Pages: 1 -->
<svg width="177pt" height="140pt"
 viewBox="0.00 0.00 176.50 140.00" xmlns="http://www.w3.org/2000/svg" xmlns:xlink="http://www.w3.org/1999/xlink">
<g id="graph0" class="graph" transform="scale(1 1) rotate(0) translate(4 136)">
<title>IG.Num.Vector</title>
<polygon fill="white" stroke="none" points="-4,4 -4,-136 172.5,-136 172.5,4 -4,4"/>
<!-- Node1 -->
<g id="node1" class="node"><title>Node1</title>
<g id="a_node1"><a xlink:title="Real vector class.">
<polygon fill="#bfbfbf" stroke="black" points="14,-0.5 14,-19.5 95,-19.5 95,-0.5 14,-0.5"/>
<text text-anchor="middle" x="54.5" y="-7.5" font-family="Helvetica,sans-Serif" font-size="10.00">IG.Num.Vector</text>
</a>
</g>
</g>
<!-- Node2 -->
<g id="node2" class="node"><title>Node2</title>
<g id="a_node2"><a xlink:href="../../d0/d5a/classIG_1_1Num_1_1VectorBase.html" target="_top" xlink:title="Base class for real vectors.">
<polygon fill="white" stroke="black" points="20.5,-56.5 20.5,-75.5 88.5,-75.5 88.5,-56.5 20.5,-56.5"/>
<text text-anchor="middle" x="54.5" y="-63.5" font-family="Helvetica,sans-Serif" font-size="10.00">VectorBase</text>
</a>
</g>
</g>
<!-- Node2&#45;&gt;Node1 -->
<g id="edge1" class="edge"><title>Node2&#45;&gt;Node1</title>
<path fill="none" stroke="midnightblue" d="M54.5,-45.8045C54.5,-36.9102 54.5,-26.7798 54.5,-19.7511"/>
<polygon fill="midnightblue" stroke="midnightblue" points="51.0001,-46.083 54.5,-56.083 58.0001,-46.083 51.0001,-46.083"/>
</g>
<!-- Node3 -->
<g id="node3" class="node"><title>Node3</title>
<g id="a_node3"><a xlink:href="../../d3/d24/interfaceIG_1_1Num_1_1IVector.html" target="_top" xlink:title="Generic Vector interface">
<polygon fill="white" stroke="black" points="0,-112.5 0,-131.5 47,-131.5 47,-112.5 0,-112.5"/>
<text text-anchor="middle" x="23.5" y="-119.5" font-family="Helvetica,sans-Serif" font-size="10.00">IVector</text>
</a>
</g>
</g>
<!-- Node3&#45;&gt;Node1 -->
<g id="edge3" class="edge"><title>Node3&#45;&gt;Node1</title>
<path fill="none" stroke="midnightblue" d="M14.876,-102.817C9.79293,-89.4775 5.43425,-71.1279 11.5,-56 17.6127,-40.755 31.6257,-27.7492 42.0025,-19.698"/>
<polygon fill="midnightblue" stroke="midnightblue" points="11.7738,-104.465 18.9226,-112.284 18.2105,-101.713 11.7738,-104.465"/>
</g>
<!-- Node3&#45;&gt;Node2 -->
<g id="edge2" class="edge"><title>Node3&#45;&gt;Node2</title>
<path fill="none" stroke="midnightblue" d="M33.6756,-103.275C38.9739,-94.0454 45.217,-83.1703 49.4762,-75.7511"/>
<polygon fill="midnightblue" stroke="midnightblue" points="30.5624,-101.668 28.619,-112.083 36.6331,-105.153 30.5624,-101.668"/>
</g>
<!-- Node4 -->
<g id="node4" class="node"><title>Node4</title>
<g id="a_node4"><a xlink:title=" ">
<polygon fill="white" stroke="#bfbfbf" points="106.5,-56.5 106.5,-75.5 168.5,-75.5 168.5,-56.5 106.5,-56.5"/>
<text text-anchor="middle" x="137.5" y="-63.5" font-family="Helvetica,sans-Serif" font-size="10.00">ICloneable</text>
</a>
</g>
</g>
<!-- Node4&#45;&gt;Node1 -->
<g id="edge4" class="edge"><title>Node4&#45;&gt;Node1</title>
<path fill="none" stroke="midnightblue" d="M115.401,-50.6221C100.238,-40.7574 80.6172,-27.9919 67.8023,-19.6545"/>
<polygon fill="midnightblue" stroke="midnightblue" points="113.874,-53.8042 124.165,-56.324 117.691,-47.9367 113.874,-53.8042"/>
</g>
</g>
</svg>
