<?xml version="1.0" encoding="UTF-8" standalone="no"?>
<!DOCTYPE svg PUBLIC "-//W3C//DTD SVG 1.1//EN"
 "http://www.w3.org/Graphics/SVG/1.1/DTD/svg11.dtd">
<!-- Generated by graphviz version 2.38.0 (20140413.2041)
 -->
<!-- Title: IG.Num.VectorFunctionBaseGeneral Pages: 1 -->
<svg width="450pt" height="230pt"
 viewBox="0.00 0.00 449.98 230.00" xmlns="http://www.w3.org/2000/svg" xmlns:xlink="http://www.w3.org/1999/xlink">
<g id="graph0" class="graph" transform="scale(1 1) rotate(0) translate(4 226)">
<title>IG.Num.VectorFunctionBaseGeneral</title>
<polygon fill="white" stroke="none" points="-4,4 -4,-226 445.983,-226 445.983,4 -4,4"/>
<!-- Node1 -->
<g id="node1" class="node"><title>Node1</title>
<g id="a_node1"><a xlink:title="Base class for VectorFunctionBase and VectorFunctionBaseComponentwise. In general,...">
<polygon fill="#bfbfbf" stroke="black" points="46.2707,-0.5 46.2707,-30.5 187.271,-30.5 187.271,-0.5 46.2707,-0.5"/>
<text text-anchor="start" x="54.2707" y="-18.5" font-family="Helvetica,sans-Serif" font-size="10.00">IG.Num.VectorFunctionBase</text>
<text text-anchor="middle" x="116.771" y="-7.5" font-family="Helvetica,sans-Serif" font-size="10.00">General</text>
</a>
</g>
</g>
<!-- Node2 -->
<g id="node2" class="node"><title>Node2</title>
<g id="a_node2"><a xlink:href="../../da/d06/interfaceIG_1_1Num_1_1IVectorFunction.html" target="_top" xlink:title="Vector function of a vector argument.">
<polygon fill="white" stroke="black" points="331.271,-145.5 331.271,-164.5 416.271,-164.5 416.271,-145.5 331.271,-145.5"/>
<text text-anchor="middle" x="373.771" y="-152.5" font-family="Helvetica,sans-Serif" font-size="10.00">IVectorFunction</text>
</a>
</g>
</g>
<!-- Node2&#45;&gt;Node1 -->
<g id="edge1" class="edge"><title>Node2&#45;&gt;Node1</title>
<path fill="none" stroke="midnightblue" d="M326.341,-142.74C296.328,-133.99 257.847,-119.642 228.771,-98 206.663,-81.5448 212.5,-65.9513 190.771,-49 181.256,-41.5776 169.783,-35.4744 158.741,-30.6416"/>
<polygon fill="midnightblue" stroke="midnightblue" points="325.595,-146.166 336.169,-145.495 327.485,-139.426 325.595,-146.166"/>
</g>
<!-- Node7 -->
<g id="node7" class="node"><title>Node7</title>
<g id="a_node7"><a xlink:href="../../da/de7/classIG_1_1Num_1_1VectorFunctionBase.html" target="_top" xlink:title="Base class for defining Vector functions whose evaluation is defined in bulk, and evaluation of indiv...">
<polygon fill="white" stroke="black" points="238.271,-78.5 238.271,-97.5 379.271,-97.5 379.271,-78.5 238.271,-78.5"/>
<text text-anchor="middle" x="308.771" y="-85.5" font-family="Helvetica,sans-Serif" font-size="10.00">IG.Num.VectorFunctionBase</text>
</a>
</g>
</g>
<!-- Node2&#45;&gt;Node7 -->
<g id="edge13" class="edge"><title>Node2&#45;&gt;Node7</title>
<path fill="none" stroke="midnightblue" d="M357.768,-137.997C345.02,-125.25 327.665,-107.895 317.398,-97.6273"/>
<polygon fill="midnightblue" stroke="midnightblue" points="355.459,-140.638 365.005,-145.234 360.408,-135.688 355.459,-140.638"/>
</g>
<!-- Node8 -->
<g id="node8" class="node"><title>Node8</title>
<g id="a_node8"><a xlink:href="../../dc/d23/classIG_1_1Num_1_1VectorFunctionBaseGeneral.html" target="_top" xlink:title="Base class for VectorFunctionBase and VectorFunctionBaseComponentwise. In general,...">
<polygon fill="white" stroke="black" points="272.271,-6 272.271,-25 411.271,-25 411.271,-6 272.271,-6"/>
<text text-anchor="middle" x="341.771" y="-13" font-family="Helvetica,sans-Serif" font-size="10.00">VectorFunctionBaseGeneral</text>
</a>
</g>
</g>
<!-- Node2&#45;&gt;Node8 -->
<g id="edge9" class="edge"><title>Node2&#45;&gt;Node8</title>
<path fill="none" stroke="midnightblue" d="M382.004,-136.132C390.783,-114.261 401.551,-76.7181 386.771,-49 381.148,-38.4556 370.414,-30.501 360.84,-25.1012"/>
<polygon fill="midnightblue" stroke="midnightblue" points="378.712,-134.929 377.975,-145.499 385.142,-137.696 378.712,-134.929"/>
</g>
<!-- Node3 -->
<g id="node3" class="node"><title>Node3</title>
<g id="a_node3"><a xlink:href="../../d3/db6/interfaceIG_1_1Lib_1_1ILockable.html" target="_top" xlink:title="Lockable object, has a Lock property that returns object on which lock must be performed in order to ...">
<polygon fill="white" stroke="black" points="297.771,-202.5 297.771,-221.5 355.771,-221.5 355.771,-202.5 297.771,-202.5"/>
<text text-anchor="middle" x="326.771" y="-209.5" font-family="Helvetica,sans-Serif" font-size="10.00">ILockable</text>
</a>
</g>
</g>
<!-- Node3&#45;&gt;Node1 -->
<g id="edge3" class="edge"><title>Node3&#45;&gt;Node1</title>
<path fill="none" stroke="midnightblue" d="M287.666,-211.269C212.117,-210.867 50.4665,-205.205 15.7707,-165 -9.49142,-135.727 0.67143,-113.597 15.7707,-78 25.5111,-55.0369 48.7564,-40.0177 70.4934,-30.5744"/>
<polygon fill="midnightblue" stroke="midnightblue" points="287.724,-214.769 297.733,-211.294 287.741,-207.769 287.724,-214.769"/>
</g>
<!-- Node3&#45;&gt;Node2 -->
<g id="edge2" class="edge"><title>Node3&#45;&gt;Node2</title>
<path fill="none" stroke="midnightblue" d="M340.843,-194.532C349.215,-184.736 359.499,-172.701 366.323,-164.715"/>
<polygon fill="midnightblue" stroke="midnightblue" points="337.95,-192.53 334.114,-202.406 343.272,-197.078 337.95,-192.53"/>
</g>
<!-- Node3&#45;&gt;Node7 -->
<g id="edge14" class="edge"><title>Node3&#45;&gt;Node7</title>
<path fill="none" stroke="midnightblue" d="M323.996,-192.191C320.042,-165.397 312.948,-117.314 310.053,-97.6944"/>
<polygon fill="midnightblue" stroke="midnightblue" points="320.554,-192.844 325.476,-202.226 327.479,-191.822 320.554,-192.844"/>
</g>
<!-- Node3&#45;&gt;Node8 -->
<g id="edge10" class="edge"><title>Node3&#45;&gt;Node8</title>
<path fill="none" stroke="midnightblue" d="M365.782,-203.324C387.129,-196.919 411.807,-185.406 424.771,-165 442.276,-137.446 459.882,-122.556 403.771,-49 395.294,-37.888 381.922,-30.2011 369.763,-25.1043"/>
<polygon fill="midnightblue" stroke="midnightblue" points="364.681,-199.996 355.95,-205.998 366.518,-206.751 364.681,-199.996"/>
</g>
<!-- Node4 -->
<g id="node4" class="node"><title>Node4</title>
<g id="a_node4"><a xlink:href="../../d5/dc3/classIG_1_1Num_1_1VectorFunctionResults.html" target="_top" xlink:title="Vector function results. Used to transfer parameters input (e.g. vector of parameters,...">
<polygon fill="white" stroke="black" points="24.7707,-78.5 24.7707,-97.5 176.771,-97.5 176.771,-78.5 24.7707,-78.5"/>
<text text-anchor="middle" x="100.771" y="-85.5" font-family="Helvetica,sans-Serif" font-size="10.00">IG.Num.VectorFunctionResults</text>
</a>
</g>
</g>
<!-- Node4&#45;&gt;Node1 -->
<g id="edge4" class="edge"><title>Node4&#45;&gt;Node1</title>
<path fill="none" stroke="#9a32cd" stroke-dasharray="5,2" d="M65.2994,-73.9799C53.831,-67.6231 45.5018,-59.1434 51.7707,-49 56.6128,-41.1653 63.9788,-35.1562 72.0355,-30.5685"/>
<polygon fill="#9a32cd" stroke="#9a32cd" points="63.9645,-77.222 74.4915,-78.4196 67.009,-70.9187 63.9645,-77.222"/>
<text text-anchor="middle" x="80.7707" y="-52" font-family="Helvetica,sans-Serif" font-size="10.00"> _auxResults</text>
</g>
<!-- Node4&#45;&gt;Node8 -->
<g id="edge11" class="edge"><title>Node4&#45;&gt;Node8</title>
<path fill="none" stroke="#9a32cd" stroke-dasharray="5,2" d="M117.877,-71.6836C127.713,-63.6987 140.686,-54.48 153.771,-49 191.197,-33.326 235.853,-25.2108 272.249,-21.0093"/>
<polygon fill="#9a32cd" stroke="#9a32cd" points="115.485,-69.1234 110.117,-78.2581 120.01,-74.4643 115.485,-69.1234"/>
<text text-anchor="middle" x="182.771" y="-52" font-family="Helvetica,sans-Serif" font-size="10.00"> _auxResults</text>
</g>
<!-- Node5 -->
<g id="node5" class="node"><title>Node5</title>
<g id="a_node5"><a xlink:href="../../d6/dbe/interfaceIG_1_1Num_1_1IVectorFunctionResults.html" target="_top" xlink:title="Vector function results. Used to transfer parameters input (e.g. vector of parameters,...">
<polygon fill="white" stroke="black" points="150.771,-145.5 150.771,-164.5 268.771,-164.5 268.771,-145.5 150.771,-145.5"/>
<text text-anchor="middle" x="209.771" y="-152.5" font-family="Helvetica,sans-Serif" font-size="10.00">IVectorFunctionResults</text>
</a>
</g>
</g>
<!-- Node5&#45;&gt;Node4 -->
<g id="edge5" class="edge"><title>Node5&#45;&gt;Node4</title>
<path fill="none" stroke="midnightblue" d="M189.598,-139.414C179.115,-132.066 165.976,-123.212 153.771,-116 142.569,-109.381 129.554,-102.737 119.226,-97.6958"/>
<polygon fill="midnightblue" stroke="midnightblue" points="187.855,-142.469 198.035,-145.403 191.907,-136.761 187.855,-142.469"/>
</g>
<!-- Node6 -->
<g id="node6" class="node"><title>Node6</title>
<g id="a_node6"><a xlink:href="../../d3/d24/interfaceIG_1_1Num_1_1IVector.html" target="_top" xlink:title="Generic Vector interface">
<polygon fill="white" stroke="black" points="25.2707,-145.5 25.2707,-164.5 132.271,-164.5 132.271,-145.5 25.2707,-145.5"/>
<text text-anchor="middle" x="78.7707" y="-152.5" font-family="Helvetica,sans-Serif" font-size="10.00">IG.Num.IVector&lt; T &gt;</text>
</a>
</g>
</g>
<!-- Node6&#45;&gt;Node4 -->
<g id="edge6" class="edge"><title>Node6&#45;&gt;Node4</title>
<path fill="none" stroke="#9a32cd" stroke-dasharray="5,2" d="M85.0612,-135.415C89.267,-122.988 94.6051,-107.217 97.8507,-97.6273"/>
<polygon fill="#9a32cd" stroke="#9a32cd" points="81.6285,-134.64 81.7377,-145.234 88.259,-136.884 81.6285,-134.64"/>
<text text-anchor="middle" x="120.771" y="-119" font-family="Helvetica,sans-Serif" font-size="10.00"> _parameters</text>
</g>
<!-- Node7&#45;&gt;Node1 -->
<g id="edge7" class="edge"><title>Node7&#45;&gt;Node1</title>
<path fill="none" stroke="#9a32cd" stroke-dasharray="5,2" d="M279.755,-74.5266C261.514,-66.8392 237.416,-56.9637 215.771,-49 198.284,-42.5663 178.843,-36.0486 161.85,-30.556"/>
<polygon fill="#9a32cd" stroke="#9a32cd" points="278.401,-77.7543 288.974,-78.4356 281.134,-71.3097 278.401,-77.7543"/>
<text text-anchor="middle" x="272.771" y="-52" font-family="Helvetica,sans-Serif" font-size="10.00"> _resultStore</text>
</g>
<!-- Node7&#45;&gt;Node8 -->
<g id="edge12" class="edge"><title>Node7&#45;&gt;Node8</title>
<path fill="none" stroke="#9a32cd" stroke-dasharray="5,2" d="M317.111,-69.1821C323.689,-55.13 332.578,-36.1384 337.691,-25.2154"/>
<polygon fill="#9a32cd" stroke="#9a32cd" points="313.887,-67.8146 312.817,-78.3553 320.227,-70.7822 313.887,-67.8146"/>
<text text-anchor="middle" x="354.771" y="-52" font-family="Helvetica,sans-Serif" font-size="10.00"> _resultStore</text>
</g>
<!-- Node8&#45;&gt;Node7 -->
<g id="edge8" class="edge"><title>Node8&#45;&gt;Node7</title>
<path fill="none" stroke="midnightblue" d="M330.77,-34.0223C327.987,-38.7907 325.123,-44.0167 322.771,-49 318.149,-58.7914 314.022,-70.5538 311.466,-78.3726"/>
<polygon fill="midnightblue" stroke="midnightblue" points="333.987,-35.467 336.18,-25.1016 328.002,-31.8371 333.987,-35.467"/>
</g>
</g>
</svg>
