<?xml version="1.0" encoding="UTF-8" standalone="no"?>
<!DOCTYPE svg PUBLIC "-//W3C//DTD SVG 1.1//EN"
 "http://www.w3.org/Graphics/SVG/1.1/DTD/svg11.dtd">
<!-- Generated by graphviz version 2.38.0 (20140413.2041)
 -->
<!-- Title: IG.Reflection.SerializationBinderElementary Pages: 1 -->
<svg width="224pt" height="207pt"
 viewBox="0.00 0.00 224.00 207.00" xmlns="http://www.w3.org/2000/svg" xmlns:xlink="http://www.w3.org/1999/xlink">
<g id="graph0" class="graph" transform="scale(1 1) rotate(0) translate(4 203)">
<title>IG.Reflection.SerializationBinderElementary</title>
<polygon fill="white" stroke="none" points="-4,4 -4,-203 220,-203 220,4 -4,4"/>
<!-- Node1 -->
<g id="node1" class="node"><title>Node1</title>
<g id="a_node1"><a xlink:title="A SerializationBinder, defines a single mapping from the original assembly and type name to a target ...">
<polygon fill="#bfbfbf" stroke="black" points="79,-0.5 79,-30.5 207,-30.5 207,-0.5 79,-0.5"/>
<text text-anchor="start" x="87" y="-18.5" font-family="Helvetica,sans-Serif" font-size="10.00">IG.Reflection.Serialization</text>
<text text-anchor="middle" x="143" y="-7.5" font-family="Helvetica,sans-Serif" font-size="10.00">BinderElementary</text>
</a>
</g>
</g>
<!-- Node2 -->
<g id="node2" class="node"><title>Node2</title>
<g id="a_node2"><a xlink:href="../../da/daa/classIG_1_1Reflection_1_1SerializationBinderSimple.html" target="_top" xlink:title="A simple SerializationBinder, defines a single mapping from the original assembly and type name to a ...">
<polygon fill="white" stroke="black" points="33,-67.5 33,-86.5 161,-86.5 161,-67.5 33,-67.5"/>
<text text-anchor="middle" x="97" y="-74.5" font-family="Helvetica,sans-Serif" font-size="10.00">SerializationBinderSimple</text>
</a>
</g>
</g>
<!-- Node2&#45;&gt;Node1 -->
<g id="edge1" class="edge"><title>Node2&#45;&gt;Node1</title>
<path fill="none" stroke="midnightblue" d="M109.733,-59.5296C116.778,-50.4173 125.44,-39.2136 132.159,-30.523"/>
<polygon fill="midnightblue" stroke="midnightblue" points="106.938,-57.423 103.591,-67.4751 112.476,-61.7044 106.938,-57.423"/>
</g>
<!-- Node3 -->
<g id="node3" class="node"><title>Node3</title>
<g id="a_node3"><a xlink:href="../../db/dfd/classIG_1_1Reflection_1_1SerializationBinderBase.html" target="_top" xlink:title="Enables to reference classes that both inherit from the framework&#39;s SerializationBinder (necessary fo...">
<polygon fill="white" stroke="black" points="3,-123.5 3,-142.5 123,-142.5 123,-123.5 3,-123.5"/>
<text text-anchor="middle" x="63" y="-130.5" font-family="Helvetica,sans-Serif" font-size="10.00">SerializationBinderBase</text>
</a>
</g>
</g>
<!-- Node3&#45;&gt;Node2 -->
<g id="edge2" class="edge"><title>Node3&#45;&gt;Node2</title>
<path fill="none" stroke="midnightblue" d="M73.9772,-114.566C79.827,-105.275 86.7695,-94.2484 91.4901,-86.7511"/>
<polygon fill="midnightblue" stroke="midnightblue" points="70.9808,-112.756 68.6144,-123.083 76.9044,-116.486 70.9808,-112.756"/>
</g>
<!-- Node4 -->
<g id="node4" class="node"><title>Node4</title>
<g id="a_node4"><a xlink:title=" ">
<polygon fill="white" stroke="#bfbfbf" points="0,-179.5 0,-198.5 98,-198.5 98,-179.5 0,-179.5"/>
<text text-anchor="middle" x="49" y="-186.5" font-family="Helvetica,sans-Serif" font-size="10.00">SerializationBinder</text>
</a>
</g>
</g>
<!-- Node4&#45;&gt;Node3 -->
<g id="edge3" class="edge"><title>Node4&#45;&gt;Node3</title>
<path fill="none" stroke="midnightblue" d="M53.8234,-169.396C56.1654,-160.362 58.8684,-149.936 60.7312,-142.751"/>
<polygon fill="midnightblue" stroke="midnightblue" points="50.4335,-168.525 51.3118,-179.083 57.2095,-170.281 50.4335,-168.525"/>
</g>
<!-- Node5 -->
<g id="node5" class="node"><title>Node5</title>
<g id="a_node5"><a xlink:href="../../d6/dde/interfaceIG_1_1Reflection_1_1ISerializationBinder.html" target="_top" xlink:title="Interface implemented by IGLib&#39;s classes based on the framework&#39;s SerializationBinder class.">
<polygon fill="white" stroke="black" points="116,-179.5 116,-198.5 216,-198.5 216,-179.5 116,-179.5"/>
<text text-anchor="middle" x="166" y="-186.5" font-family="Helvetica,sans-Serif" font-size="10.00">ISerializationBinder</text>
</a>
</g>
</g>
<!-- Node5&#45;&gt;Node1 -->
<g id="edge6" class="edge"><title>Node5&#45;&gt;Node1</title>
<path fill="none" stroke="midnightblue" d="M169.738,-169.429C173.874,-145.387 178.864,-102.378 170,-67 166.714,-53.8845 159.299,-40.4518 153.07,-30.7405"/>
<polygon fill="midnightblue" stroke="midnightblue" points="166.287,-168.847 167.896,-179.319 173.168,-170.129 166.287,-168.847"/>
</g>
<!-- Node5&#45;&gt;Node2 -->
<g id="edge5" class="edge"><title>Node5&#45;&gt;Node2</title>
<path fill="none" stroke="midnightblue" d="M157.791,-170.262C151.363,-156.917 141.88,-138.364 132,-123 123.435,-109.681 111.904,-95.4323 104.461,-86.6192"/>
<polygon fill="midnightblue" stroke="midnightblue" points="154.631,-171.767 162.068,-179.313 160.96,-168.776 154.631,-171.767"/>
</g>
<!-- Node5&#45;&gt;Node3 -->
<g id="edge4" class="edge"><title>Node5&#45;&gt;Node3</title>
<path fill="none" stroke="midnightblue" d="M140.421,-174.59C121.377,-164.605 95.9356,-151.267 79.5077,-142.655"/>
<polygon fill="midnightblue" stroke="midnightblue" points="138.969,-177.78 149.451,-179.324 142.22,-171.581 138.969,-177.78"/>
</g>
</g>
</svg>
