<?xml version="1.0" encoding="UTF-8" standalone="no"?>
<!DOCTYPE svg PUBLIC "-//W3C//DTD SVG 1.1//EN"
 "http://www.w3.org/Graphics/SVG/1.1/DTD/svg11.dtd">
<!-- Generated by graphviz version 2.38.0 (20140413.2041)
 -->
<!-- Title: IG.Lib.KeyValueSortable&lt; Tkey, Tvalue &gt;.ComparerBase Pages: 1 -->
<svg width="565pt" height="88pt"
 viewBox="0.00 0.00 565.00 88.00" xmlns="http://www.w3.org/2000/svg" xmlns:xlink="http://www.w3.org/1999/xlink">
<g id="graph0" class="graph" transform="scale(1 1) rotate(0) translate(4 84)">
<title>IG.Lib.KeyValueSortable&lt; Tkey, Tvalue &gt;.ComparerBase</title>
<polygon fill="white" stroke="none" points="-4,4 -4,-84 561,-84 561,4 -4,4"/>
<!-- Node1 -->
<g id="node1" class="node"><title>Node1</title>
<g id="a_node1"><a xlink:title="Base class for different IComparer classes.">
<polygon fill="#bfbfbf" stroke="black" points="184,-24.5 184,-54.5 340,-54.5 340,-24.5 184,-24.5"/>
<text text-anchor="start" x="192" y="-42.5" font-family="Helvetica,sans-Serif" font-size="10.00">IG.Lib.KeyValueSortable</text>
<text text-anchor="middle" x="262" y="-31.5" font-family="Helvetica,sans-Serif" font-size="10.00">&lt; Tkey, Tvalue &gt;.ComparerBase</text>
</a>
</g>
</g>
<!-- Node3 -->
<g id="node3" class="node"><title>Node3</title>
<g id="a_node3"><a xlink:href="../../d4/dcd/classIG_1_1Lib_1_1KeyValueSortable_1_1ComparerKeyBase.html" target="_top" xlink:title="IComparer that compares the key first and then eventually the value and finally the additional orderi...">
<polygon fill="white" stroke="black" points="380,-49.5 380,-79.5 553,-79.5 553,-49.5 380,-49.5"/>
<text text-anchor="start" x="388" y="-67.5" font-family="Helvetica,sans-Serif" font-size="10.00">IG.Lib.KeyValueSortable</text>
<text text-anchor="middle" x="466.5" y="-56.5" font-family="Helvetica,sans-Serif" font-size="10.00">&lt; Tkey, Tvalue &gt;.ComparerKeyBase</text>
</a>
</g>
</g>
<!-- Node1&#45;&gt;Node3 -->
<g id="edge2" class="edge"><title>Node1&#45;&gt;Node3</title>
<path fill="none" stroke="midnightblue" d="M350.258,-50.2726C360.05,-51.4815 370.02,-52.7123 379.791,-53.9187"/>
<polygon fill="midnightblue" stroke="midnightblue" points="350.488,-46.7745 340.134,-49.0227 349.63,-53.7217 350.488,-46.7745"/>
</g>
<!-- Node4 -->
<g id="node4" class="node"><title>Node4</title>
<g id="a_node4"><a xlink:href="../../db/d28/classIG_1_1Lib_1_1KeyValueSortable_1_1ComparerValueBase.html" target="_top" xlink:title="IComparer that compares the key first and then eventually the value and finally the additional orderi...">
<polygon fill="white" stroke="black" points="376,-0.5 376,-30.5 557,-30.5 557,-0.5 376,-0.5"/>
<text text-anchor="start" x="384" y="-18.5" font-family="Helvetica,sans-Serif" font-size="10.00">IG.Lib.KeyValueSortable</text>
<text text-anchor="middle" x="466.5" y="-7.5" font-family="Helvetica,sans-Serif" font-size="10.00">&lt; Tkey, Tvalue &gt;.ComparerValueBase</text>
</a>
</g>
</g>
<!-- Node1&#45;&gt;Node4 -->
<g id="edge3" class="edge"><title>Node1&#45;&gt;Node4</title>
<path fill="none" stroke="midnightblue" d="M350.311,-29.152C358.721,-28.1553 367.262,-27.1431 375.695,-26.1436"/>
<polygon fill="midnightblue" stroke="midnightblue" points="349.653,-25.7055 340.134,-30.3582 350.477,-32.6568 349.653,-25.7055"/>
</g>
<!-- Node2 -->
<g id="node2" class="node"><title>Node2</title>
<g id="a_node2"><a xlink:title=" ">
<polygon fill="white" stroke="#bfbfbf" points="0,-24.5 0,-54.5 148,-54.5 148,-24.5 0,-24.5"/>
<text text-anchor="start" x="8" y="-42.5" font-family="Helvetica,sans-Serif" font-size="10.00">IComparer&lt; KeyValueSortable</text>
<text text-anchor="middle" x="74" y="-31.5" font-family="Helvetica,sans-Serif" font-size="10.00">&lt; Tkey, Tvalue &gt;&gt;</text>
</a>
</g>
</g>
<!-- Node2&#45;&gt;Node1 -->
<g id="edge1" class="edge"><title>Node2&#45;&gt;Node1</title>
<path fill="none" stroke="midnightblue" d="M158.474,-39.5C166.918,-39.5 175.468,-39.5 183.842,-39.5"/>
<polygon fill="midnightblue" stroke="midnightblue" points="158.245,-36.0001 148.245,-39.5 158.245,-43.0001 158.245,-36.0001"/>
</g>
</g>
</svg>
