<?xml version="1.0" encoding="UTF-8" standalone="no"?>
<!DOCTYPE svg PUBLIC "-//W3C//DTD SVG 1.1//EN"
 "http://www.w3.org/Graphics/SVG/1.1/DTD/svg11.dtd">
<!-- Generated by graphviz version 2.38.0 (20140413.2041)
 -->
<!-- Title: IG.Num.BoundingBox Pages: 1 -->
<svg width="151pt" height="140pt"
 viewBox="0.00 0.00 150.50 140.00" xmlns="http://www.w3.org/2000/svg" xmlns:xlink="http://www.w3.org/1999/xlink">
<g id="graph0" class="graph" transform="scale(1 1) rotate(0) translate(4 136)">
<title>IG.Num.BoundingBox</title>
<polygon fill="white" stroke="none" points="-4,4 -4,-136 146.5,-136 146.5,4 -4,4"/>
<!-- Node1 -->
<g id="node1" class="node"><title>Node1</title>
<g id="a_node1"><a xlink:title="Bounding box, defines lower and upper bounds on vector quantities such as coordinates of geometrix ob...">
<polygon fill="#bfbfbf" stroke="black" points="0,-0.5 0,-19.5 110,-19.5 110,-0.5 0,-0.5"/>
<text text-anchor="middle" x="55" y="-7.5" font-family="Helvetica,sans-Serif" font-size="10.00">IG.Num.BoundingBox</text>
</a>
</g>
</g>
<!-- Node2 -->
<g id="node2" class="node"><title>Node2</title>
<g id="a_node2"><a xlink:href="../../df/d61/classIG_1_1Num_1_1BoundingBoxBase.html" target="_top" xlink:title="Base class for bounding boxes that define minimal and maximal co&#45;ordinates of objects,...">
<polygon fill="white" stroke="black" points="45.5,-56.5 45.5,-75.5 142.5,-75.5 142.5,-56.5 45.5,-56.5"/>
<text text-anchor="middle" x="94" y="-63.5" font-family="Helvetica,sans-Serif" font-size="10.00">BoundingBoxBase</text>
</a>
</g>
</g>
<!-- Node2&#45;&gt;Node1 -->
<g id="edge1" class="edge"><title>Node2&#45;&gt;Node1</title>
<path fill="none" stroke="midnightblue" d="M81.6178,-47.8554C74.8646,-38.5048 66.7914,-27.3265 61.3202,-19.7511"/>
<polygon fill="midnightblue" stroke="midnightblue" points="78.8676,-50.0254 87.5599,-56.083 84.5424,-45.927 78.8676,-50.0254"/>
</g>
<!-- Node3 -->
<g id="node3" class="node"><title>Node3</title>
<g id="a_node3"><a xlink:href="../../db/d5e/interfaceIG_1_1Num_1_1IBoundingBox.html" target="_top" xlink:title="Bounding box, defines minimum and maximum co&#45;ordinates of domains, geometric objects and their groups...">
<polygon fill="white" stroke="black" points="16.5,-112.5 16.5,-131.5 93.5,-131.5 93.5,-112.5 16.5,-112.5"/>
<text text-anchor="middle" x="55" y="-119.5" font-family="Helvetica,sans-Serif" font-size="10.00">IBoundingBox</text>
</a>
</g>
</g>
<!-- Node3&#45;&gt;Node1 -->
<g id="edge3" class="edge"><title>Node3&#45;&gt;Node1</title>
<path fill="none" stroke="midnightblue" d="M46.0607,-103.195C42.483,-95.1113 38.7901,-85.2953 37,-76 33.0585,-55.5333 43.3004,-32.1032 49.9075,-19.7256"/>
<polygon fill="midnightblue" stroke="midnightblue" points="42.9436,-104.791 50.3788,-112.339 49.2733,-101.802 42.9436,-104.791"/>
</g>
<!-- Node3&#45;&gt;Node2 -->
<g id="edge2" class="edge"><title>Node3&#45;&gt;Node2</title>
<path fill="none" stroke="midnightblue" d="M67.3822,-103.855C74.1354,-94.5048 82.2086,-83.3265 87.6798,-75.7511"/>
<polygon fill="midnightblue" stroke="midnightblue" points="64.4576,-101.927 61.4401,-112.083 70.1324,-106.025 64.4576,-101.927"/>
</g>
</g>
</svg>
