<?xml version="1.0" encoding="UTF-8" standalone="no"?>
<!DOCTYPE svg PUBLIC "-//W3C//DTD SVG 1.1//EN"
 "http://www.w3.org/Graphics/SVG/1.1/DTD/svg11.dtd">
<!-- Generated by graphviz version 2.38.0 (20140413.2041)
 -->
<!-- Title: IG.Lib.ScriptLoaderIGLib.ScriptLoaderTest Pages: 1 -->
<svg width="430pt" height="253pt"
 viewBox="0.00 0.00 429.50 253.00" xmlns="http://www.w3.org/2000/svg" xmlns:xlink="http://www.w3.org/1999/xlink">
<g id="graph0" class="graph" transform="scale(1 1) rotate(0) translate(4 249)">
<title>IG.Lib.ScriptLoaderIGLib.ScriptLoaderTest</title>
<polygon fill="white" stroke="none" points="-4,4 -4,-249 425.5,-249 425.5,4 -4,4"/>
<!-- Node1 -->
<g id="node1" class="node"><title>Node1</title>
<g id="a_node1"><a xlink:title="ScriptLoader used for testing.">
<polygon fill="#bfbfbf" stroke="black" points="0,-0.5 0,-30.5 125,-30.5 125,-0.5 0,-0.5"/>
<text text-anchor="start" x="8" y="-18.5" font-family="Helvetica,sans-Serif" font-size="10.00">IG.Lib.ScriptLoaderIGLib.</text>
<text text-anchor="middle" x="62.5" y="-7.5" font-family="Helvetica,sans-Serif" font-size="10.00">ScriptLoaderTest</text>
</a>
</g>
</g>
<!-- Node2 -->
<g id="node2" class="node"><title>Node2</title>
<g id="a_node2"><a xlink:href="../../d3/dc9/classIG_1_1Lib_1_1ScriptLoaderIGLib.html" target="_top" xlink:title="Base script loader class for IGLib.">
<polygon fill="white" stroke="black" points="65.5,-68.5 65.5,-87.5 159.5,-87.5 159.5,-68.5 65.5,-68.5"/>
<text text-anchor="middle" x="112.5" y="-75.5" font-family="Helvetica,sans-Serif" font-size="10.00">ScriptLoaderIGLib</text>
</a>
</g>
</g>
<!-- Node2&#45;&gt;Node1 -->
<g id="edge1" class="edge"><title>Node2&#45;&gt;Node1</title>
<path fill="none" stroke="midnightblue" d="M98.8956,-60.5387C91.1963,-51.2225 81.6624,-39.6865 74.284,-30.7587"/>
<polygon fill="midnightblue" stroke="midnightblue" points="96.2678,-62.8532 105.336,-68.3318 101.664,-58.3939 96.2678,-62.8532"/>
</g>
<!-- Node3 -->
<g id="node3" class="node"><title>Node3</title>
<g id="a_node3"><a xlink:href="../../d3/d40/classIG_1_1Lib_1_1ScriptLoaderBase.html" target="_top" xlink:title="Dynamically compiles, loads and instantiates classes of type ILoadableScript from files or from strin...">
<polygon fill="white" stroke="black" points="103.5,-125.5 103.5,-144.5 197.5,-144.5 197.5,-125.5 103.5,-125.5"/>
<text text-anchor="middle" x="150.5" y="-132.5" font-family="Helvetica,sans-Serif" font-size="10.00">ScriptLoaderBase</text>
</a>
</g>
</g>
<!-- Node3&#45;&gt;Node2 -->
<g id="edge2" class="edge"><title>Node3&#45;&gt;Node2</title>
<path fill="none" stroke="midnightblue" d="M138.71,-116.936C132.019,-107.251 123.927,-95.5397 118.521,-87.7149"/>
<polygon fill="midnightblue" stroke="midnightblue" points="135.999,-119.168 144.563,-125.406 141.758,-115.189 135.999,-119.168"/>
</g>
<!-- Node4 -->
<g id="node4" class="node"><title>Node4</title>
<g id="a_node4"><a xlink:href="../../d3/db6/interfaceIG_1_1Lib_1_1ILockable.html" target="_top" xlink:title="Lockable object, has a Lock property that returns object on which lock must be performed in order to ...">
<polygon fill="white" stroke="black" points="13.5,-225.5 13.5,-244.5 71.5,-244.5 71.5,-225.5 13.5,-225.5"/>
<text text-anchor="middle" x="42.5" y="-232.5" font-family="Helvetica,sans-Serif" font-size="10.00">ILockable</text>
</a>
</g>
</g>
<!-- Node4&#45;&gt;Node1 -->
<g id="edge8" class="edge"><title>Node4&#45;&gt;Node1</title>
<path fill="none" stroke="midnightblue" d="M43.8877,-215.224C46.2068,-184.442 51.1458,-121.331 56.5,-68 57.7589,-55.461 59.4353,-41.2343 60.6961,-30.9159"/>
<polygon fill="midnightblue" stroke="midnightblue" points="40.386,-215.118 43.1318,-225.35 47.3666,-215.639 40.386,-215.118"/>
</g>
<!-- Node4&#45;&gt;Node2 -->
<g id="edge7" class="edge"><title>Node4&#45;&gt;Node2</title>
<path fill="none" stroke="midnightblue" d="M50.748,-215.737C65.8745,-182.242 97.5156,-112.18 108.579,-87.6813"/>
<polygon fill="midnightblue" stroke="midnightblue" points="47.3902,-214.668 46.4641,-225.222 53.7698,-217.549 47.3902,-214.668"/>
</g>
<!-- Node4&#45;&gt;Node3 -->
<g id="edge3" class="edge"><title>Node4&#45;&gt;Node3</title>
<path fill="none" stroke="midnightblue" d="M69.7601,-220.425C76.511,-216.512 83.5185,-211.949 89.5,-207 112.789,-187.731 134.438,-158.982 144.535,-144.7"/>
<polygon fill="midnightblue" stroke="midnightblue" points="67.9114,-217.447 60.8338,-225.331 71.2832,-223.581 67.9114,-217.447"/>
</g>
<!-- Node5 -->
<g id="node5" class="node"><title>Node5</title>
<g id="a_node5"><a xlink:href="../../d7/d66/interfaceIG_1_1Lib_1_1ILoadableScript.html" target="_top" xlink:title="Interface for classes that can be dynamically loadeded from scripts and run, which provides functiona...">
<polygon fill="white" stroke="black" points="89.5,-225.5 89.5,-244.5 201.5,-244.5 201.5,-225.5 89.5,-225.5"/>
<text text-anchor="middle" x="145.5" y="-232.5" font-family="Helvetica,sans-Serif" font-size="10.00">IG.Lib.ILoadableScript</text>
</a>
</g>
</g>
<!-- Node5&#45;&gt;Node3 -->
<g id="edge4" class="edge"><title>Node5&#45;&gt;Node3</title>
<path fill="none" stroke="#9a32cd" stroke-dasharray="5,2" d="M146.458,-215.22C147.543,-193.951 149.264,-160.22 150.064,-144.537"/>
<polygon fill="#9a32cd" stroke="#9a32cd" points="142.958,-215.138 145.944,-225.303 149.949,-215.495 142.958,-215.138"/>
<text text-anchor="middle" x="186.5" y="-182.5" font-family="Helvetica,sans-Serif" font-size="10.00"> _runnableObject</text>
</g>
<!-- Node6 -->
<g id="node6" class="node"><title>Node6</title>
<g id="a_node6"><a xlink:href="../../d7/df0/classIG_1_1Lib_1_1Logger.html" target="_top" xlink:title="Temporary logging of errors, warnings and infos for later processing. It is used to log multiple even...">
<polygon fill="white" stroke="black" points="219.5,-225.5 219.5,-244.5 293.5,-244.5 293.5,-225.5 219.5,-225.5"/>
<text text-anchor="middle" x="256.5" y="-232.5" font-family="Helvetica,sans-Serif" font-size="10.00">IG.Lib.Logger</text>
</a>
</g>
</g>
<!-- Node6&#45;&gt;Node3 -->
<g id="edge5" class="edge"><title>Node6&#45;&gt;Node3</title>
<path fill="none" stroke="#9a32cd" stroke-dasharray="5,2" d="M253.241,-215.046C249.57,-199.149 242.098,-176.879 227.5,-163 218.465,-154.411 206.543,-148.536 194.787,-144.525"/>
<polygon fill="#9a32cd" stroke="#9a32cd" points="249.895,-216.164 255.289,-225.284 256.759,-214.791 249.895,-216.164"/>
<text text-anchor="middle" x="269" y="-182.5" font-family="Helvetica,sans-Serif" font-size="10.00"> _logger</text>
</g>
<!-- Node7 -->
<g id="node7" class="node"><title>Node7</title>
<g id="a_node7"><a xlink:title=" ">
<polygon fill="white" stroke="#bfbfbf" points="312,-225.5 312,-244.5 353,-244.5 353,-225.5 312,-225.5"/>
<text text-anchor="middle" x="332.5" y="-232.5" font-family="Helvetica,sans-Serif" font-size="10.00">static</text>
</a>
</g>
</g>
<!-- Node7&#45;&gt;Node3 -->
<g id="edge6" class="edge"><title>Node7&#45;&gt;Node3</title>
<path fill="none" stroke="#9a32cd" stroke-dasharray="5,2" d="M326.626,-215.807C320.346,-199.373 308.75,-175.852 290.5,-163 275.726,-152.596 232.268,-145.277 197.648,-140.908"/>
<polygon fill="#9a32cd" stroke="#9a32cd" points="323.38,-217.129 330.001,-225.4 329.983,-214.805 323.38,-217.129"/>
<text text-anchor="middle" x="372.5" y="-199" font-family="Helvetica,sans-Serif" font-size="10.00"> _isScriptingInitialized</text>
<text text-anchor="middle" x="372.5" y="-188" font-family="Helvetica,sans-Serif" font-size="10.00">_usedClassFullNames</text>
<text text-anchor="middle" x="372.5" y="-177" font-family="Helvetica,sans-Serif" font-size="10.00">_global</text>
<text text-anchor="middle" x="372.5" y="-166" font-family="Helvetica,sans-Serif" font-size="10.00">_defaultAssemblies</text>
</g>
</g>
</svg>
