<?xml version="1.0" encoding="UTF-8" standalone="no"?>
<!DOCTYPE svg PUBLIC "-//W3C//DTD SVG 1.1//EN"
 "http://www.w3.org/Graphics/SVG/1.1/DTD/svg11.dtd">
<!-- Generated by graphviz version 2.38.0 (20140413.2041)
 -->
<!-- Title: IG.Lib.WaitDirectoryRemoval Pages: 1 -->
<svg width="226pt" height="308pt"
 viewBox="0.00 0.00 226.00 308.00" xmlns="http://www.w3.org/2000/svg" xmlns:xlink="http://www.w3.org/1999/xlink">
<g id="graph0" class="graph" transform="scale(1 1) rotate(0) translate(4 304)">
<title>IG.Lib.WaitDirectoryRemoval</title>
<polygon fill="white" stroke="none" points="-4,4 -4,-304 222,-304 222,4 -4,4"/>
<!-- Node1 -->
<g id="node1" class="node"><title>Node1</title>
<g id="a_node1"><a xlink:title="Blocking execution of the current thread until the specified directory ceases to exist.">
<polygon fill="#bfbfbf" stroke="black" points="0,-0.5 0,-19.5 141,-19.5 141,-0.5 0,-0.5"/>
<text text-anchor="middle" x="70.5" y="-7.5" font-family="Helvetica,sans-Serif" font-size="10.00">IG.Lib.WaitDirectoryRemoval</text>
</a>
</g>
</g>
<!-- Node2 -->
<g id="node2" class="node"><title>Node2</title>
<g id="a_node2"><a xlink:href="../../d2/ddf/classIG_1_1Lib_1_1WaitFileEvent.html" target="_top" xlink:title="Concrete class derived from WaitFileEventBase. It does not have a meaningful unblocking condition (it...">
<polygon fill="white" stroke="black" points="32,-56.5 32,-75.5 109,-75.5 109,-56.5 32,-56.5"/>
<text text-anchor="middle" x="70.5" y="-63.5" font-family="Helvetica,sans-Serif" font-size="10.00">WaitFileEvent</text>
</a>
</g>
</g>
<!-- Node2&#45;&gt;Node1 -->
<g id="edge1" class="edge"><title>Node2&#45;&gt;Node1</title>
<path fill="none" stroke="midnightblue" d="M70.5,-45.8045C70.5,-36.9102 70.5,-26.7798 70.5,-19.7511"/>
<polygon fill="midnightblue" stroke="midnightblue" points="67.0001,-46.083 70.5,-56.083 74.0001,-46.083 67.0001,-46.083"/>
</g>
<!-- Node3 -->
<g id="node3" class="node"><title>Node3</title>
<g id="a_node3"><a xlink:href="../../d5/d42/classIG_1_1Lib_1_1WaitFileEventBase.html" target="_top" xlink:title="Base class for classes that provide blocking until a file or directory is created/removed.">
<polygon fill="white" stroke="black" points="21,-112.5 21,-131.5 120,-131.5 120,-112.5 21,-112.5"/>
<text text-anchor="middle" x="70.5" y="-119.5" font-family="Helvetica,sans-Serif" font-size="10.00">WaitFileEventBase</text>
</a>
</g>
</g>
<!-- Node3&#45;&gt;Node2 -->
<g id="edge2" class="edge"><title>Node3&#45;&gt;Node2</title>
<path fill="none" stroke="midnightblue" d="M70.5,-101.805C70.5,-92.9102 70.5,-82.7798 70.5,-75.7511"/>
<polygon fill="midnightblue" stroke="midnightblue" points="67.0001,-102.083 70.5,-112.083 74.0001,-102.083 67.0001,-102.083"/>
</g>
<!-- Node4 -->
<g id="node4" class="node"><title>Node4</title>
<g id="a_node4"><a xlink:href="../../df/dea/classIG_1_1Lib_1_1WaitConditionBase.html" target="_top" xlink:title="Base class for objects that perform waiting until a condition is fulfilled.">
<polygon fill="white" stroke="black" points="20.5,-168.5 20.5,-187.5 120.5,-187.5 120.5,-168.5 20.5,-168.5"/>
<text text-anchor="middle" x="70.5" y="-175.5" font-family="Helvetica,sans-Serif" font-size="10.00">WaitConditionBase</text>
</a>
</g>
</g>
<!-- Node4&#45;&gt;Node3 -->
<g id="edge3" class="edge"><title>Node4&#45;&gt;Node3</title>
<path fill="none" stroke="midnightblue" d="M70.5,-157.805C70.5,-148.91 70.5,-138.78 70.5,-131.751"/>
<polygon fill="midnightblue" stroke="midnightblue" points="67.0001,-158.083 70.5,-168.083 74.0001,-158.083 67.0001,-158.083"/>
</g>
<!-- Node5 -->
<g id="node5" class="node"><title>Node5</title>
<g id="a_node5"><a xlink:href="../../de/d1e/interfaceIG_1_1Lib_1_1IWaitCondition.html" target="_top" xlink:title="Interface for classes that implement blocking until a specified condition is met.">
<polygon fill="white" stroke="black" points="70.5,-224.5 70.5,-243.5 150.5,-243.5 150.5,-224.5 70.5,-224.5"/>
<text text-anchor="middle" x="110.5" y="-231.5" font-family="Helvetica,sans-Serif" font-size="10.00">IWaitCondition</text>
</a>
</g>
</g>
<!-- Node5&#45;&gt;Node4 -->
<g id="edge4" class="edge"><title>Node5&#45;&gt;Node4</title>
<path fill="none" stroke="midnightblue" d="M97.8003,-215.855C90.874,-206.505 82.5937,-195.327 76.9823,-187.751"/>
<polygon fill="midnightblue" stroke="midnightblue" points="95.13,-218.131 103.895,-224.083 100.755,-213.964 95.13,-218.131"/>
</g>
<!-- Node7 -->
<g id="node7" class="node"><title>Node7</title>
<g id="a_node7"><a xlink:href="../../d2/d48/interfaceIG_1_1Lib_1_1IWaitFileEvent.html" target="_top" xlink:title="Interface for classes that provide waiting for specific file events (such as ceration or deletion of ...">
<polygon fill="white" stroke="black" points="139,-168.5 139,-187.5 218,-187.5 218,-168.5 139,-168.5"/>
<text text-anchor="middle" x="178.5" y="-175.5" font-family="Helvetica,sans-Serif" font-size="10.00">IWaitFileEvent</text>
</a>
</g>
</g>
<!-- Node5&#45;&gt;Node7 -->
<g id="edge8" class="edge"><title>Node5&#45;&gt;Node7</title>
<path fill="none" stroke="midnightblue" d="M129.262,-218.101C141.5,-208.382 157.059,-196.027 167.376,-187.834"/>
<polygon fill="midnightblue" stroke="midnightblue" points="127.08,-215.364 121.425,-224.324 131.433,-220.846 127.08,-215.364"/>
</g>
<!-- Node6 -->
<g id="node6" class="node"><title>Node6</title>
<g id="a_node6"><a xlink:href="../../d3/db6/interfaceIG_1_1Lib_1_1ILockable.html" target="_top" xlink:title="Lockable object, has a Lock property that returns object on which lock must be performed in order to ...">
<polygon fill="white" stroke="black" points="47.5,-280.5 47.5,-299.5 105.5,-299.5 105.5,-280.5 47.5,-280.5"/>
<text text-anchor="middle" x="76.5" y="-287.5" font-family="Helvetica,sans-Serif" font-size="10.00">ILockable</text>
</a>
</g>
</g>
<!-- Node6&#45;&gt;Node3 -->
<g id="edge10" class="edge"><title>Node6&#45;&gt;Node3</title>
<path fill="none" stroke="midnightblue" d="M61.8115,-272.811C45.8423,-254.014 21.2921,-221.309 11.5,-188 8.99299,-179.472 7.55694,-175.966 11.5,-168 19.7861,-151.259 37.6137,-139.046 51.5158,-131.602"/>
<polygon fill="midnightblue" stroke="midnightblue" points="59.2454,-275.194 68.461,-280.421 64.5166,-270.588 59.2454,-275.194"/>
</g>
<!-- Node6&#45;&gt;Node4 -->
<g id="edge6" class="edge"><title>Node6&#45;&gt;Node4</title>
<path fill="none" stroke="midnightblue" d="M68.9438,-270.782C65.9923,-262.725 62.9675,-253.043 61.5,-244 58.2518,-223.983 63.8717,-200.378 67.598,-187.851"/>
<polygon fill="midnightblue" stroke="midnightblue" points="65.7436,-272.209 72.6443,-280.249 72.2632,-269.661 65.7436,-272.209"/>
</g>
<!-- Node6&#45;&gt;Node5 -->
<g id="edge5" class="edge"><title>Node6&#45;&gt;Node5</title>
<path fill="none" stroke="midnightblue" d="M87.4772,-271.566C93.327,-262.275 100.27,-251.248 104.99,-243.751"/>
<polygon fill="midnightblue" stroke="midnightblue" points="84.4808,-269.756 82.1144,-280.083 90.4044,-273.486 84.4808,-269.756"/>
</g>
<!-- Node6&#45;&gt;Node7 -->
<g id="edge9" class="edge"><title>Node6&#45;&gt;Node7</title>
<path fill="none" stroke="midnightblue" d="M113.373,-276.499C129.595,-269.303 147.622,-258.713 159.5,-244 173.089,-227.168 176.959,-200.953 178.061,-187.538"/>
<polygon fill="midnightblue" stroke="midnightblue" points="111.986,-273.285 104.09,-280.35 114.668,-279.751 111.986,-273.285"/>
</g>
<!-- Node7&#45;&gt;Node3 -->
<g id="edge7" class="edge"><title>Node7&#45;&gt;Node3</title>
<path fill="none" stroke="midnightblue" d="M151.952,-163.726C131.954,-153.727 105.113,-140.307 87.809,-131.655"/>
<polygon fill="midnightblue" stroke="midnightblue" points="150.638,-166.982 161.148,-168.324 153.769,-160.721 150.638,-166.982"/>
</g>
</g>
</svg>
