<?xml version="1.0" encoding="UTF-8" standalone="no"?>
<!DOCTYPE svg PUBLIC "-//W3C//DTD SVG 1.1//EN"
 "http://www.w3.org/Graphics/SVG/1.1/DTD/svg11.dtd">
<!-- Generated by graphviz version 2.38.0 (20140413.2041)
 -->
<!-- Title: IG.Lib.IStringParsable Pages: 1 -->
<svg width="208pt" height="196pt"
 viewBox="0.00 0.00 208.00 196.00" xmlns="http://www.w3.org/2000/svg" xmlns:xlink="http://www.w3.org/1999/xlink">
<g id="graph0" class="graph" transform="scale(1 1) rotate(0) translate(4 192)">
<title>IG.Lib.IStringParsable</title>
<polygon fill="white" stroke="none" points="-4,4 -4,-192 204,-192 204,4 -4,4"/>
<!-- Node1 -->
<g id="node1" class="node"><title>Node1</title>
<g id="a_node1"><a xlink:title="Defines classes that can be converted to strings and whose values can be parsed from strings....">
<polygon fill="#bfbfbf" stroke="black" points="45.5,-168.5 45.5,-187.5 156.5,-187.5 156.5,-168.5 45.5,-168.5"/>
<text text-anchor="middle" x="101" y="-175.5" font-family="Helvetica,sans-Serif" font-size="10.00">IG.Lib.IStringParsable</text>
</a>
</g>
</g>
<!-- Node2 -->
<g id="node2" class="node"><title>Node2</title>
<g id="a_node2"><a xlink:href="../../d8/d2d/interfaceIG_1_1Lib_1_1IVarType.html" target="_top" xlink:title="Defines classes that can represent variables of different types. Used e.g. in interpreters and variab...">
<polygon fill="white" stroke="black" points="59.5,-112.5 59.5,-131.5 142.5,-131.5 142.5,-112.5 59.5,-112.5"/>
<text text-anchor="middle" x="101" y="-119.5" font-family="Helvetica,sans-Serif" font-size="10.00">IG.Lib.IVarType</text>
</a>
</g>
</g>
<!-- Node1&#45;&gt;Node2 -->
<g id="edge1" class="edge"><title>Node1&#45;&gt;Node2</title>
<path fill="none" stroke="midnightblue" d="M101,-157.805C101,-148.91 101,-138.78 101,-131.751"/>
<polygon fill="midnightblue" stroke="midnightblue" points="97.5001,-158.083 101,-168.083 104.5,-158.083 97.5001,-158.083"/>
</g>
<!-- Node3 -->
<g id="node3" class="node"><title>Node3</title>
<g id="a_node3"><a xlink:href="../../d0/dc6/classIG_1_1Lib_1_1VarTypeBase.html" target="_top" xlink:title="DO NOT USE! The base class implementing the IVarType interface.">
<polygon fill="white" stroke="black" points="49,-56.5 49,-75.5 153,-75.5 153,-56.5 49,-56.5"/>
<text text-anchor="middle" x="101" y="-63.5" font-family="Helvetica,sans-Serif" font-size="10.00">IG.Lib.VarTypeBase</text>
</a>
</g>
</g>
<!-- Node2&#45;&gt;Node3 -->
<g id="edge2" class="edge"><title>Node2&#45;&gt;Node3</title>
<path fill="none" stroke="midnightblue" d="M101,-101.805C101,-92.9102 101,-82.7798 101,-75.7511"/>
<polygon fill="midnightblue" stroke="midnightblue" points="97.5001,-102.083 101,-112.083 104.5,-102.083 97.5001,-102.083"/>
</g>
<!-- Node4 -->
<g id="node4" class="node"><title>Node4</title>
<g id="a_node4"><a xlink:href="../../da/d4c/classIG_1_1Lib_1_1CounterVar.html" target="_top" xlink:title=" ">
<polygon fill="white" stroke="black" points="0,-0.5 0,-19.5 94,-19.5 94,-0.5 0,-0.5"/>
<text text-anchor="middle" x="47" y="-7.5" font-family="Helvetica,sans-Serif" font-size="10.00">IG.Lib.CounterVar</text>
</a>
</g>
</g>
<!-- Node3&#45;&gt;Node4 -->
<g id="edge3" class="edge"><title>Node3&#45;&gt;Node4</title>
<path fill="none" stroke="midnightblue" d="M85.0024,-49.0024C75.4329,-39.4329 63.6389,-27.6389 55.7511,-19.7511"/>
<polygon fill="midnightblue" stroke="midnightblue" points="82.537,-51.4868 92.083,-56.083 87.4868,-46.537 82.537,-51.4868"/>
</g>
<!-- Node5 -->
<g id="node5" class="node"><title>Node5</title>
<g id="a_node5"><a xlink:href="../../d9/d24/classIG_1_1Lib_1_1ScalarVar.html" target="_top" xlink:title="Scalar variable.">
<polygon fill="white" stroke="black" points="112,-0.5 112,-19.5 200,-19.5 200,-0.5 112,-0.5"/>
<text text-anchor="middle" x="156" y="-7.5" font-family="Helvetica,sans-Serif" font-size="10.00">IG.Lib.ScalarVar</text>
</a>
</g>
</g>
<!-- Node3&#45;&gt;Node5 -->
<g id="edge4" class="edge"><title>Node3&#45;&gt;Node5</title>
<path fill="none" stroke="midnightblue" d="M117.294,-49.0024C127.041,-39.4329 139.053,-27.6389 147.087,-19.7511"/>
<polygon fill="midnightblue" stroke="midnightblue" points="114.766,-46.5796 110.082,-56.083 119.67,-51.5746 114.766,-46.5796"/>
</g>
</g>
</svg>
