<?xml version="1.0" encoding="UTF-8" standalone="no"?>
<!DOCTYPE svg PUBLIC "-//W3C//DTD SVG 1.1//EN"
 "http://www.w3.org/Graphics/SVG/1.1/DTD/svg11.dtd">
<!-- Generated by graphviz version 2.38.0 (20140413.2041)
 -->
<!-- Title: IG.Num.Func.PenaltyPower Pages: 1 -->
<svg width="463pt" height="320pt"
 viewBox="0.00 0.00 462.50 320.00" xmlns="http://www.w3.org/2000/svg" xmlns:xlink="http://www.w3.org/1999/xlink">
<g id="graph0" class="graph" transform="scale(1 1) rotate(0) translate(4 316)">
<title>IG.Num.Func.PenaltyPower</title>
<polygon fill="white" stroke="none" points="-4,4 -4,-316 458.5,-316 458.5,4 -4,4"/>
<!-- Node1 -->
<g id="node1" class="node"><title>Node1</title>
<g id="a_node1"><a xlink:title="Penalty function consisting of sticked together constant zero&#45;valued function and a power function wi...">
<polygon fill="#bfbfbf" stroke="black" points="261.5,-0.5 261.5,-19.5 398.5,-19.5 398.5,-0.5 261.5,-0.5"/>
<text text-anchor="middle" x="330" y="-7.5" font-family="Helvetica,sans-Serif" font-size="10.00">IG.Num.Func.PenaltyPower</text>
</a>
</g>
</g>
<!-- Node2 -->
<g id="node2" class="node"><title>Node2</title>
<g id="a_node2"><a xlink:href="../../d5/d83/classIG_1_1Num_1_1RealFunction.html" target="_top" xlink:title="Represents a real function of a real variabe.">
<polygon fill="white" stroke="black" points="217,-57.5 217,-76.5 291,-76.5 291,-57.5 217,-57.5"/>
<text text-anchor="middle" x="254" y="-64.5" font-family="Helvetica,sans-Serif" font-size="10.00">RealFunction</text>
</a>
</g>
</g>
<!-- Node2&#45;&gt;Node1 -->
<g id="edge1" class="edge"><title>Node2&#45;&gt;Node1</title>
<path fill="none" stroke="midnightblue" d="M274.331,-51.287C288.256,-41.2095 306.253,-28.1851 317.958,-19.7149"/>
<polygon fill="midnightblue" stroke="midnightblue" points="271.924,-48.7081 265.875,-57.4063 276.028,-54.3789 271.924,-48.7081"/>
</g>
<!-- Node3 -->
<g id="node3" class="node"><title>Node3</title>
<g id="a_node3"><a xlink:href="../../d6/d30/classIG_1_1Num_1_1RealFunctionBase.html" target="_top" xlink:title="Base class for real functions of real variable.">
<polygon fill="white" stroke="black" points="168,-235.5 168,-254.5 264,-254.5 264,-235.5 168,-235.5"/>
<text text-anchor="middle" x="216" y="-242.5" font-family="Helvetica,sans-Serif" font-size="10.00">RealFunctionBase</text>
</a>
</g>
</g>
<!-- Node3&#45;&gt;Node2 -->
<g id="edge2" class="edge"><title>Node3&#45;&gt;Node2</title>
<path fill="none" stroke="midnightblue" d="M221.969,-225.675C226.033,-212.734 231.321,-194.93 235,-179 243.711,-141.282 250.313,-95.508 252.857,-76.703"/>
<polygon fill="midnightblue" stroke="midnightblue" points="218.618,-224.662 218.905,-235.253 225.285,-226.795 218.618,-224.662"/>
</g>
<!-- Node6 -->
<g id="node6" class="node"><title>Node6</title>
<g id="a_node6"><a xlink:href="../../d5/d83/classIG_1_1Num_1_1RealFunction.html" target="_top" xlink:title="Represents a real function of a real variabe.">
<polygon fill="white" stroke="black" points="36,-153 36,-172 146,-172 146,-153 36,-153"/>
<text text-anchor="middle" x="91" y="-160" font-family="Helvetica,sans-Serif" font-size="10.00">IG.Num.RealFunction</text>
</a>
</g>
</g>
<!-- Node3&#45;&gt;Node6 -->
<g id="edge7" class="edge"><title>Node3&#45;&gt;Node6</title>
<path fill="none" stroke="midnightblue" d="M194.197,-229.959C168.248,-213.247 125.74,-185.872 104.281,-172.053"/>
<polygon fill="midnightblue" stroke="midnightblue" points="192.32,-232.913 202.623,-235.385 196.11,-227.028 192.32,-232.913"/>
</g>
<!-- Node4 -->
<g id="node4" class="node"><title>Node4</title>
<g id="a_node4"><a xlink:href="../../db/d0e/interfaceIG_1_1Num_1_1IRealFunction.html" target="_top" xlink:title="Interface for real functions.">
<polygon fill="white" stroke="black" points="254,-292.5 254,-311.5 330,-311.5 330,-292.5 254,-292.5"/>
<text text-anchor="middle" x="292" y="-299.5" font-family="Helvetica,sans-Serif" font-size="10.00">IRealFunction</text>
</a>
</g>
</g>
<!-- Node4&#45;&gt;Node1 -->
<g id="edge13" class="edge"><title>Node4&#45;&gt;Node1</title>
<path fill="none" stroke="midnightblue" d="M310.687,-284.971C320.29,-274.908 330,-261.019 330,-246 330,-246 330,-246 330,-66 330,-49.5764 330,-30.3941 330,-19.574"/>
<polygon fill="midnightblue" stroke="midnightblue" points="307.981,-282.718 303.196,-292.17 312.831,-287.765 307.981,-282.718"/>
</g>
<!-- Node4&#45;&gt;Node2 -->
<g id="edge4" class="edge"><title>Node4&#45;&gt;Node2</title>
<path fill="none" stroke="midnightblue" d="M289.837,-282.196C285.507,-245.832 274.979,-163.425 261,-95 259.759,-88.9271 258.009,-82.1771 256.57,-76.9453"/>
<polygon fill="midnightblue" stroke="midnightblue" points="286.382,-282.783 291.021,-292.308 293.334,-281.969 286.382,-282.783"/>
</g>
<!-- Node4&#45;&gt;Node3 -->
<g id="edge3" class="edge"><title>Node4&#45;&gt;Node3</title>
<path fill="none" stroke="midnightblue" d="M271.669,-286.287C257.744,-276.21 239.747,-263.185 228.042,-254.715"/>
<polygon fill="midnightblue" stroke="midnightblue" points="269.972,-289.379 280.125,-292.406 274.076,-283.708 269.972,-289.379"/>
</g>
<!-- Node4&#45;&gt;Node6 -->
<g id="edge8" class="edge"><title>Node4&#45;&gt;Node6</title>
<path fill="none" stroke="midnightblue" d="M243.942,-291.74C217.084,-284.847 184.078,-273.374 159,-255 127.549,-231.956 104.235,-190.194 95.1591,-172.168"/>
<polygon fill="midnightblue" stroke="midnightblue" points="243.361,-295.201 253.905,-294.163 245.015,-288.399 243.361,-295.201"/>
</g>
<!-- Node7 -->
<g id="node7" class="node"><title>Node7</title>
<g id="a_node7"><a xlink:href="../../d7/d8a/interfaceIG_1_1Num_1_1IRealFunctionPenalty.html" target="_top" xlink:title="Interface that must be satisfied by penalty functions. Penalty functions have small values where argu...">
<polygon fill="white" stroke="black" points="345.5,-197.5 345.5,-216.5 454.5,-216.5 454.5,-197.5 345.5,-197.5"/>
<text text-anchor="middle" x="400" y="-204.5" font-family="Helvetica,sans-Serif" font-size="10.00">IRealFunctionPenalty</text>
</a>
</g>
</g>
<!-- Node4&#45;&gt;Node7 -->
<g id="edge12" class="edge"><title>Node4&#45;&gt;Node7</title>
<path fill="none" stroke="midnightblue" d="M321.86,-288.011C329.444,-284.052 337.327,-279.32 344,-274 365.62,-256.764 385.091,-230.209 394.333,-216.635"/>
<polygon fill="midnightblue" stroke="midnightblue" points="320.283,-284.886 312.859,-292.444 323.376,-291.166 320.283,-284.886"/>
</g>
<!-- Node5 -->
<g id="node5" class="node"><title>Node5</title>
<g id="a_node5"><a xlink:title=" ">
<polygon fill="white" stroke="#bfbfbf" points="0,-235.5 0,-254.5 62,-254.5 62,-235.5 0,-235.5"/>
<text text-anchor="middle" x="31" y="-242.5" font-family="Helvetica,sans-Serif" font-size="10.00">ICloneable</text>
</a>
</g>
</g>
<!-- Node5&#45;&gt;Node2 -->
<g id="edge5" class="edge"><title>Node5&#45;&gt;Node2</title>
<path fill="none" stroke="midnightblue" d="M24.5659,-225.768C18.3975,-204.856 12.0301,-170.329 27,-146 66.4173,-81.9387 163.1,-69.4373 216.699,-67.6354"/>
<polygon fill="midnightblue" stroke="midnightblue" points="21.2527,-226.897 27.6593,-235.336 27.9133,-224.744 21.2527,-226.897"/>
</g>
<!-- Node5&#45;&gt;Node6 -->
<g id="edge9" class="edge"><title>Node5&#45;&gt;Node6</title>
<path fill="none" stroke="midnightblue" d="M43.624,-227.063C56.0911,-210.336 74.6682,-185.412 84.4432,-172.297"/>
<polygon fill="midnightblue" stroke="midnightblue" points="40.5909,-225.276 37.4211,-235.385 46.2034,-229.459 40.5909,-225.276"/>
</g>
<!-- Node6&#45;&gt;Node2 -->
<g id="edge6" class="edge"><title>Node6&#45;&gt;Node2</title>
<path fill="none" stroke="#9a32cd" stroke-dasharray="5,2" d="M108.299,-145.653C125.092,-130.932 151.816,-109.203 178,-95 192.155,-87.3225 208.929,-81.0942 223.113,-76.5624"/>
<polygon fill="#9a32cd" stroke="#9a32cd" points="105.606,-143.365 100.478,-152.636 110.268,-148.587 105.606,-143.365"/>
<text text-anchor="middle" x="209" y="-120" font-family="Helvetica,sans-Serif" font-size="10.00"> funcDerivative</text>
<text text-anchor="middle" x="209" y="-109" font-family="Helvetica,sans-Serif" font-size="10.00">funcInverse</text>
<text text-anchor="middle" x="209" y="-98" font-family="Helvetica,sans-Serif" font-size="10.00">funcIntegral</text>
</g>
<!-- Node6&#45;&gt;Node6 -->
<g id="edge10" class="edge"><title>Node6&#45;&gt;Node6</title>
<path fill="none" stroke="#9a32cd" stroke-dasharray="5,2" d="M156.001,-168.692C160.952,-167.317 164,-165.253 164,-162.5 164,-158.203 156.574,-155.585 146.073,-154.645"/>
<polygon fill="#9a32cd" stroke="#9a32cd" points="155.357,-165.251 146.073,-170.355 156.514,-172.154 155.357,-165.251"/>
<text text-anchor="middle" x="195" y="-171" font-family="Helvetica,sans-Serif" font-size="10.00"> funcDerivative</text>
<text text-anchor="middle" x="195" y="-160" font-family="Helvetica,sans-Serif" font-size="10.00">funcInverse</text>
<text text-anchor="middle" x="195" y="-149" font-family="Helvetica,sans-Serif" font-size="10.00">funcIntegral</text>
</g>
<!-- Node7&#45;&gt;Node1 -->
<g id="edge11" class="edge"><title>Node7&#45;&gt;Node1</title>
<path fill="none" stroke="midnightblue" d="M394.873,-187.521C385.958,-156.209 366.395,-90.9613 344,-38 341.368,-31.775 337.868,-25.025 335.026,-19.8313"/>
<polygon fill="midnightblue" stroke="midnightblue" points="391.585,-188.757 397.661,-197.436 398.323,-186.862 391.585,-188.757"/>
</g>
</g>
</svg>
