<?xml version="1.0" encoding="UTF-8" standalone="no"?>
<!DOCTYPE svg PUBLIC "-//W3C//DTD SVG 1.1//EN"
 "http://www.w3.org/Graphics/SVG/1.1/DTD/svg11.dtd">
<!-- Generated by graphviz version 2.38.0 (20140413.2041)
 -->
<!-- Title: IG.Num.VectorFunctionBaseGeneral Pages: 1 -->
<!--zoomable 165 -->
<svg id="main" version="1.1" xmlns="http://www.w3.org/2000/svg" xmlns:xlink="http://www.w3.org/1999/xlink" xml:space="preserve" onload="init(evt)">
<style type="text/css"><![CDATA[
.edge:hover path { stroke: red; }
.edge:hover polygon { stroke: red; fill: red; }
]]></style>
<script type="text/javascript"><![CDATA[
var edges = document.getElementsByTagName('g');
if (edges && edges.length) {
  for (var i=0;i<edges.length;i++) {
    if (edges[i].id.substr(0,4)=='edge') {
      edges[i].setAttribute('class','edge');
    }
  }
}
]]></script>
        <defs>
                <circle id="rim" cx="0" cy="0" r="7"/>
                <circle id="rim2" cx="0" cy="0" r="3.5"/>
                <g id="zoomPlus">
                        <use xlink:href="#rim" fill="#404040">
                                <set attributeName="fill" to="#808080" begin="zoomplus.mouseover" end="zoomplus.mouseout"/>
                        </use>
                        <path d="M-4,0h8M0,-4v8" fill="none" stroke="white" stroke-width="1.5" pointer-events="none"/>
                </g>
                <g id="zoomMin">
                        <use xlink:href="#rim" fill="#404040">
                                <set attributeName="fill" to="#808080" begin="zoomminus.mouseover" end="zoomminus.mouseout"/>
                        </use>
                        <path d="M-4,0h8" fill="none" stroke="white" stroke-width="1.5" pointer-events="none"/>
                </g>
                <g id="dirArrow">
                        <path fill="none" stroke="white" stroke-width="1.5" d="M0,-3.0v7 M-2.5,-0.5L0,-3.0L2.5,-0.5"/>
                </g>
               <g id="resetDef">
                       <use xlink:href="#rim2" fill="#404040">
                               <set attributeName="fill" to="#808080" begin="reset.mouseover" end="reset.mouseout"/>
                       </use>
               </g>
        </defs>

<script type="text/javascript">
var viewWidth = 920;
var viewHeight = 165;
var sectionId = 'dynsection-0';
</script>
<script xlink:href="../../svgpan.js"/>
<svg id="graph" class="graph">
<g id="viewport">
<title>IG.Num.VectorFunctionBaseGeneral</title>
<polygon fill="white" stroke="none" points="-4,4 -4,-161 916,-161 916,4 -4,4"/>
<!-- Node1 -->
<g id="node1" class="node"><title>Node1</title>
<g id="a_node1"><a xlink:title="Base class for VectorFunctionBase and VectorFunctionBaseComponentwise. In general,...">
<polygon fill="#bfbfbf" stroke="black" points="215,-75.5 215,-105.5 356,-105.5 356,-75.5 215,-75.5"/>
<text text-anchor="start" x="223" y="-93.5" font-family="Helvetica,sans-Serif" font-size="10.00">IG.Num.VectorFunctionBase</text>
<text text-anchor="middle" x="285.5" y="-82.5" font-family="Helvetica,sans-Serif" font-size="10.00">General</text>
</a>
</g>
</g>
<!-- Node4 -->
<g id="node4" class="node"><title>Node4</title>
<g id="a_node4"><a xlink:href="../../da/de7/classIG_1_1Num_1_1VectorFunctionBase.html" target="_top" xlink:title="Base class for defining Vector functions whose evaluation is defined in bulk, and evaluation of indiv...">
<polygon fill="white" stroke="black" points="392,-122 392,-141 533,-141 533,-122 392,-122"/>
<text text-anchor="middle" x="462.5" y="-129" font-family="Helvetica,sans-Serif" font-size="10.00">IG.Num.VectorFunctionBase</text>
</a>
</g>
</g>
<!-- Node1&#45;&gt;Node4 -->
<g id="edge4" class="edge"><title>Node1&#45;&gt;Node4</title>
<path fill="none" stroke="midnightblue" d="M360.669,-107.877C381.243,-112.697 402.825,-117.753 420.719,-121.946"/>
<polygon fill="midnightblue" stroke="midnightblue" points="361.205,-104.408 350.67,-105.534 359.608,-111.223 361.205,-104.408"/>
</g>
<!-- Node6 -->
<g id="node6" class="node"><title>Node6</title>
<g id="a_node6"><a xlink:href="../../dc/df8/classIG_1_1Num_1_1VectorFunctionBaseComponentWise.html" target="_top" xlink:title="Base class for defining Vector functions whose component&#45;wise evaluation is defined directly.">
<polygon fill="white" stroke="black" points="392,-53.5 392,-83.5 533,-83.5 533,-53.5 392,-53.5"/>
<text text-anchor="start" x="400" y="-71.5" font-family="Helvetica,sans-Serif" font-size="10.00">IG.Num.VectorFunctionBase</text>
<text text-anchor="middle" x="462.5" y="-60.5" font-family="Helvetica,sans-Serif" font-size="10.00">ComponentWise</text>
</a>
</g>
</g>
<!-- Node1&#45;&gt;Node6 -->
<g id="edge6" class="edge"><title>Node1&#45;&gt;Node6</title>
<path fill="none" stroke="midnightblue" d="M366.146,-80.4874C374.702,-79.4118 383.359,-78.3234 391.786,-77.264"/>
<polygon fill="midnightblue" stroke="midnightblue" points="365.653,-77.0217 356.167,-81.7418 366.526,-83.9671 365.653,-77.0217"/>
</g>
<!-- Node2 -->
<g id="node2" class="node"><title>Node2</title>
<g id="a_node2"><a xlink:href="../../da/d06/interfaceIG_1_1Num_1_1IVectorFunction.html" target="_top" xlink:title="Vector function of a vector argument.">
<polygon fill="white" stroke="black" points="94,-62 94,-81 179,-81 179,-62 94,-62"/>
<text text-anchor="middle" x="136.5" y="-69" font-family="Helvetica,sans-Serif" font-size="10.00">IVectorFunction</text>
</a>
</g>
</g>
<!-- Node2&#45;&gt;Node1 -->
<g id="edge1" class="edge"><title>Node2&#45;&gt;Node1</title>
<path fill="none" stroke="midnightblue" d="M189.417,-78.2104C197.654,-79.275 206.287,-80.3909 214.851,-81.4977"/>
<polygon fill="midnightblue" stroke="midnightblue" points="189.597,-74.7046 179.231,-76.8938 188.7,-81.6469 189.597,-74.7046"/>
</g>
<!-- Node3 -->
<g id="node3" class="node"><title>Node3</title>
<g id="a_node3"><a xlink:href="../../d3/db6/interfaceIG_1_1Lib_1_1ILockable.html" target="_top" xlink:title="Lockable object, has a Lock property that returns object on which lock must be performed in order to ...">
<polygon fill="white" stroke="black" points="0,-81 0,-100 58,-100 58,-81 0,-81"/>
<text text-anchor="middle" x="29" y="-88" font-family="Helvetica,sans-Serif" font-size="10.00">ILockable</text>
</a>
</g>
</g>
<!-- Node3&#45;&gt;Node1 -->
<g id="edge3" class="edge"><title>Node3&#45;&gt;Node1</title>
<path fill="none" stroke="midnightblue" d="M68.5216,-90.5C107.242,-90.5 167.785,-90.5 214.93,-90.5"/>
<polygon fill="midnightblue" stroke="midnightblue" points="68.2084,-87.0001 58.2083,-90.5 68.2083,-94.0001 68.2084,-87.0001"/>
</g>
<!-- Node3&#45;&gt;Node2 -->
<g id="edge2" class="edge"><title>Node3&#45;&gt;Node2</title>
<path fill="none" stroke="midnightblue" d="M68.3521,-83.593C76.5761,-82.1119 85.3058,-80.5397 93.6544,-79.0362"/>
<polygon fill="midnightblue" stroke="midnightblue" points="67.4934,-80.1912 58.2721,-85.4083 68.7341,-87.0804 67.4934,-80.1912"/>
</g>
<!-- Node5 -->
<g id="node5" class="node"><title>Node5</title>
<g id="a_node5"><a xlink:href="../../dc/d48/classIG_1_1Num_1_1VectorFunctionExamples_1_1RosenrockAndCircle.html" target="_top" xlink:title="Example &#45; 2 component vector function of 2 variables. The first component is the Rosenbrock function ...">
<polygon fill="white" stroke="black" points="569,-126.5 569,-156.5 734,-156.5 734,-126.5 569,-126.5"/>
<text text-anchor="start" x="577" y="-144.5" font-family="Helvetica,sans-Serif" font-size="10.00">IG.Num.VectorFunctionExamples.</text>
<text text-anchor="middle" x="651.5" y="-133.5" font-family="Helvetica,sans-Serif" font-size="10.00">RosenrockAndCircle</text>
</a>
</g>
</g>
<!-- Node4&#45;&gt;Node5 -->
<g id="edge5" class="edge"><title>Node4&#45;&gt;Node5</title>
<path fill="none" stroke="midnightblue" d="M543.331,-135.769C551.769,-136.22 560.36,-136.68 568.819,-137.132"/>
<polygon fill="midnightblue" stroke="midnightblue" points="543.305,-132.263 533.132,-135.224 542.931,-139.253 543.305,-132.263"/>
</g>
<!-- Node7 -->
<g id="node7" class="node"><title>Node7</title>
<g id="a_node7"><a xlink:href="../../da/d4f/classIG_1_1Num_1_1LinearBasis.html" target="_top" xlink:title="Vector function containing lineer basis in a n&#45;dimensional vector space. Composed of n+1 functions: 1...">
<polygon fill="white" stroke="black" points="599.5,-88 599.5,-107 703.5,-107 703.5,-88 599.5,-88"/>
<text text-anchor="middle" x="651.5" y="-95" font-family="Helvetica,sans-Serif" font-size="10.00">IG.Num.LinearBasis</text>
</a>
</g>
</g>
<!-- Node6&#45;&gt;Node7 -->
<g id="edge7" class="edge"><title>Node6&#45;&gt;Node7</title>
<path fill="none" stroke="midnightblue" d="M543.258,-80.8688C562.211,-83.8081 581.934,-86.8667 599.22,-89.5475"/>
<polygon fill="midnightblue" stroke="midnightblue" points="543.55,-77.3724 533.132,-79.2985 542.477,-84.2898 543.55,-77.3724"/>
</g>
<!-- Node9 -->
<g id="node9" class="node"><title>Node9</title>
<g id="a_node9"><a xlink:href="../../d2/de4/classIG_1_1Num_1_1QuadraticBasis.html" target="_top" xlink:title="Vector function containing quadratic basis in a n&#45;dimensional vector space. Composed of (n+1)*(n+2)/2...">
<polygon fill="white" stroke="black" points="592,-50 592,-69 711,-69 711,-50 592,-50"/>
<text text-anchor="middle" x="651.5" y="-57" font-family="Helvetica,sans-Serif" font-size="10.00">IG.Num.QuadraticBasis</text>
</a>
</g>
</g>
<!-- Node6&#45;&gt;Node9 -->
<g id="edge9" class="edge"><title>Node6&#45;&gt;Node9</title>
<path fill="none" stroke="midnightblue" d="M543.202,-64.6641C559.523,-63.8786 576.417,-63.0655 591.837,-62.3233"/>
<polygon fill="midnightblue" stroke="midnightblue" points="542.952,-61.172 533.132,-65.1487 543.289,-68.1639 542.952,-61.172"/>
</g>
<!-- Node11 -->
<g id="node11" class="node"><title>Node11</title>
<g id="a_node11"><a xlink:href="../../db/db9/classIG_1_1Num_1_1VectorFunctionFromScalar.html" target="_top" xlink:title=" ">
<polygon fill="white" stroke="black" points="581,-0.5 581,-30.5 722,-30.5 722,-0.5 581,-0.5"/>
<text text-anchor="start" x="589" y="-18.5" font-family="Helvetica,sans-Serif" font-size="10.00">IG.Num.VectorFunctionFrom</text>
<text text-anchor="middle" x="651.5" y="-7.5" font-family="Helvetica,sans-Serif" font-size="10.00">Scalar</text>
</a>
</g>
</g>
<!-- Node6&#45;&gt;Node11 -->
<g id="edge11" class="edge"><title>Node6&#45;&gt;Node11</title>
<path fill="none" stroke="midnightblue" d="M526.271,-50.7092C549.313,-44.1785 575.157,-36.8539 597.281,-30.5835"/>
<polygon fill="midnightblue" stroke="midnightblue" points="525.253,-47.3598 516.586,-53.4541 527.162,-54.0946 525.253,-47.3598"/>
</g>
<!-- Node8 -->
<g id="node8" class="node"><title>Node8</title>
<g id="a_node8"><a xlink:href="../../d9/d57/classIG_1_1Num_1_1LinearBasisSafer.html" target="_top" xlink:title="The same as LinearBasis, just that it has more meaningful error reporting (but is therefore slower).">
<polygon fill="white" stroke="black" points="778,-88 778,-107 904,-107 904,-88 778,-88"/>
<text text-anchor="middle" x="841" y="-95" font-family="Helvetica,sans-Serif" font-size="10.00">IG.Num.LinearBasisSafer</text>
</a>
</g>
</g>
<!-- Node7&#45;&gt;Node8 -->
<g id="edge8" class="edge"><title>Node7&#45;&gt;Node8</title>
<path fill="none" stroke="midnightblue" d="M713.901,-97.5C734.4,-97.5 757.251,-97.5 777.809,-97.5"/>
<polygon fill="midnightblue" stroke="midnightblue" points="713.735,-94.0001 703.735,-97.5 713.735,-101 713.735,-94.0001"/>
</g>
<!-- Node10 -->
<g id="node10" class="node"><title>Node10</title>
<g id="a_node10"><a xlink:href="../../d6/d46/classIG_1_1Num_1_1QuadraticBasisSafer.html" target="_top" xlink:title="The same as QuadraticBasis, just that it has more meaningful exceptions.">
<polygon fill="white" stroke="black" points="770,-50 770,-69 912,-69 912,-50 770,-50"/>
<text text-anchor="middle" x="841" y="-57" font-family="Helvetica,sans-Serif" font-size="10.00">IG.Num.QuadraticBasisSafer</text>
</a>
</g>
</g>
<!-- Node9&#45;&gt;Node10 -->
<g id="edge10" class="edge"><title>Node9&#45;&gt;Node10</title>
<path fill="none" stroke="midnightblue" d="M721.264,-59.5C737.054,-59.5 753.865,-59.5 769.719,-59.5"/>
<polygon fill="midnightblue" stroke="midnightblue" points="721.055,-56.0001 711.055,-59.5 721.055,-63.0001 721.055,-56.0001"/>
</g>
</g>
</svg>
        <g id="navigator" transform="translate(0 0)" fill="#404254">
                <rect fill="#f2f5e9" fill-opacity="0.5" stroke="#606060" stroke-width=".5" x="0" y="0" width="60" height="60"/>
                <use id="zoomplus" xlink:href="#zoomPlus" x="17" y="9" onmousedown="handleZoom(evt,'in')"/>
                <use id="zoomminus" xlink:href="#zoomMin" x="42" y="9" onmousedown="handleZoom(evt,'out')"/>
                <use id="reset" xlink:href="#resetDef" x="30" y="36" onmousedown="handleReset()"/>
                <g id="arrowUp" xlink:href="#dirArrow" transform="translate(30 24)" onmousedown="handlePan(0,-1)">
                  <use xlink:href="#rim" fill="#404040">
                        <set attributeName="fill" to="#808080" begin="arrowUp.mouseover" end="arrowUp.mouseout"/>
                  </use>
                  <path fill="none" stroke="white" stroke-width="1.5" d="M0,-3.0v7 M-2.5,-0.5L0,-3.0L2.5,-0.5"/>
                </g>
                <g id="arrowRight" xlink:href="#dirArrow" transform="rotate(90) translate(36 -43)" onmousedown="handlePan(1,0)">
                  <use xlink:href="#rim" fill="#404040">
                        <set attributeName="fill" to="#808080" begin="arrowRight.mouseover" end="arrowRight.mouseout"/>
                  </use>
                  <path fill="none" stroke="white" stroke-width="1.5" d="M0,-3.0v7 M-2.5,-0.5L0,-3.0L2.5,-0.5"/>
                </g>
                <g id="arrowDown" xlink:href="#dirArrow" transform="rotate(180) translate(-30 -48)" onmousedown="handlePan(0,1)">
                  <use xlink:href="#rim" fill="#404040">
                        <set attributeName="fill" to="#808080" begin="arrowDown.mouseover" end="arrowDown.mouseout"/>
                  </use>
                  <path fill="none" stroke="white" stroke-width="1.5" d="M0,-3.0v7 M-2.5,-0.5L0,-3.0L2.5,-0.5"/>
                </g>
                <g id="arrowLeft" xlink:href="#dirArrow" transform="rotate(270) translate(-36 17)" onmousedown="handlePan(-1,0)">
                  <use xlink:href="#rim" fill="#404040">
                        <set attributeName="fill" to="#808080" begin="arrowLeft.mouseover" end="arrowLeft.mouseout"/>
                  </use>
                  <path fill="none" stroke="white" stroke-width="1.5" d="M0,-3.0v7 M-2.5,-0.5L0,-3.0L2.5,-0.5"/>
                </g>
        </g>
        <svg viewBox="0 0 15 15" width="100%" height="30px" preserveAspectRatio="xMaxYMin meet">
         <g id="arrow_out" transform="scale(0.3 0.3)">
          <a xlink:href="classIG_1_1Num_1_1VectorFunctionBaseGeneral__inherit__graph_org.svg" target="_base">
           <rect id="button" ry="5" rx="5" y="6" x="6" height="38" width="38"
                fill="#f2f5e9" fill-opacity="0.5" stroke="#606060" stroke-width="1.0"/>
           <path id="arrow"
             d="M 11.500037,31.436501 C 11.940474,20.09759 22.043105,11.32322 32.158766,21.979434 L 37.068811,17.246167 C 37.068811,17.246167 37.088388,32 37.088388,32 L 22.160133,31.978069 C 22.160133,31.978069 26.997745,27.140456 26.997745,27.140456 C 18.528582,18.264221 13.291696,25.230495 11.500037,31.436501 z"
             style="fill:#404040;"/>
          </a>
         </g>
        </svg>
</svg>
