<?xml version="1.0" encoding="UTF-8" standalone="no"?>
<!DOCTYPE svg PUBLIC "-//W3C//DTD SVG 1.1//EN"
 "http://www.w3.org/Graphics/SVG/1.1/DTD/svg11.dtd">
<!-- Generated by graphviz version 2.38.0 (20140413.2041)
 -->
<!-- Title: IG.Lib.SerializationDtoTypedBase&lt; Type, BaseType &gt; Pages: 1 -->
<svg width="287pt" height="173pt"
 viewBox="0.00 0.00 287.00 173.00" xmlns="http://www.w3.org/2000/svg" xmlns:xlink="http://www.w3.org/1999/xlink">
<g id="graph0" class="graph" transform="scale(1 1) rotate(0) translate(4 169)">
<title>IG.Lib.SerializationDtoTypedBase&lt; Type, BaseType &gt;</title>
<polygon fill="white" stroke="none" points="-4,4 -4,-169 283,-169 283,4 -4,4"/>
<!-- Node1 -->
<g id="node1" class="node"><title>Node1</title>
<g id="a_node1"><a xlink:title=" ">
<polygon fill="#bfbfbf" stroke="black" points="62.5,-0.5 62.5,-30.5 202.5,-30.5 202.5,-0.5 62.5,-0.5"/>
<text text-anchor="start" x="70.5" y="-18.5" font-family="Helvetica,sans-Serif" font-size="10.00">IG.Lib.SerializationDtoTyped</text>
<text text-anchor="middle" x="132.5" y="-7.5" font-family="Helvetica,sans-Serif" font-size="10.00">Base&lt; Type, BaseType &gt;</text>
</a>
</g>
</g>
<!-- Node2 -->
<g id="node2" class="node"><title>Node2</title>
<g id="a_node2"><a xlink:href="../../d7/dd8/classIG_1_1Lib_1_1SerializationDtoBase.html" target="_top" xlink:title="Generic base class for Data Transfer Objects (DTO). This class is used as template for producing conc...">
<polygon fill="white" stroke="black" points="79,-67.5 79,-97.5 186,-97.5 186,-67.5 79,-67.5"/>
<text text-anchor="start" x="87" y="-85.5" font-family="Helvetica,sans-Serif" font-size="10.00">SerializationDtoBase</text>
<text text-anchor="middle" x="132.5" y="-74.5" font-family="Helvetica,sans-Serif" font-size="10.00">&lt; Type, BaseType &gt;</text>
</a>
</g>
</g>
<!-- Node2&#45;&gt;Node1 -->
<g id="edge1" class="edge"><title>Node2&#45;&gt;Node1</title>
<path fill="none" stroke="midnightblue" d="M132.5,-57.1081C132.5,-48.1539 132.5,-38.3227 132.5,-30.5765"/>
<polygon fill="midnightblue" stroke="midnightblue" points="129,-57.3959 132.5,-67.396 136,-57.396 129,-57.3959"/>
</g>
<!-- Node3 -->
<g id="node3" class="node"><title>Node3</title>
<g id="a_node3"><a xlink:href="../../da/d46/classIG_1_1Lib_1_1SerializationDto.html" target="_top" xlink:title="Auxiliary base class for DTOs, contains some static methods. Provided for simplicity,...">
<polygon fill="white" stroke="black" points="0,-140 0,-159 85,-159 85,-140 0,-140"/>
<text text-anchor="middle" x="42.5" y="-147" font-family="Helvetica,sans-Serif" font-size="10.00">SerializationDto</text>
</a>
</g>
</g>
<!-- Node3&#45;&gt;Node2 -->
<g id="edge2" class="edge"><title>Node3&#45;&gt;Node2</title>
<path fill="none" stroke="midnightblue" d="M62.7854,-133.849C77.808,-123 98.1577,-108.303 112.992,-97.589"/>
<polygon fill="midnightblue" stroke="midnightblue" points="60.6954,-131.041 54.6378,-139.734 64.7938,-136.716 60.6954,-131.041"/>
</g>
<!-- Node4 -->
<g id="node4" class="node"><title>Node4</title>
<g id="a_node4"><a xlink:href="../../d3/db6/interfaceIG_1_1Lib_1_1ILockable.html" target="_top" xlink:title="Lockable object, has a Lock property that returns object on which lock must be performed in order to ...">
<polygon fill="white" stroke="black" points="103.5,-140 103.5,-159 161.5,-159 161.5,-140 103.5,-140"/>
<text text-anchor="middle" x="132.5" y="-147" font-family="Helvetica,sans-Serif" font-size="10.00">ILockable</text>
</a>
</g>
</g>
<!-- Node4&#45;&gt;Node2 -->
<g id="edge3" class="edge"><title>Node4&#45;&gt;Node2</title>
<path fill="none" stroke="midnightblue" d="M132.5,-129.411C132.5,-119.222 132.5,-106.901 132.5,-97.589"/>
<polygon fill="midnightblue" stroke="midnightblue" points="129,-129.734 132.5,-139.734 136,-129.734 129,-129.734"/>
</g>
<!-- Node5 -->
<g id="node5" class="node"><title>Node5</title>
<g id="a_node5"><a xlink:href="../../d8/d1e/interfaceIG_1_1Lib_1_1ISerializationDto.html" target="_top" xlink:title=" ">
<polygon fill="white" stroke="black" points="180,-134.5 180,-164.5 279,-164.5 279,-134.5 180,-134.5"/>
<text text-anchor="start" x="188" y="-152.5" font-family="Helvetica,sans-Serif" font-size="10.00">ISerializationDto&lt;</text>
<text text-anchor="middle" x="229.5" y="-141.5" font-family="Helvetica,sans-Serif" font-size="10.00"> Type, BaseType &gt;</text>
</a>
</g>
</g>
<!-- Node5&#45;&gt;Node2 -->
<g id="edge4" class="edge"><title>Node5&#45;&gt;Node2</title>
<path fill="none" stroke="midnightblue" d="M200.003,-128.734C184.993,-118.676 167.099,-106.685 153.506,-97.5765"/>
<polygon fill="midnightblue" stroke="midnightblue" points="198.197,-131.737 208.452,-134.396 202.094,-125.922 198.197,-131.737"/>
</g>
</g>
</svg>
