<?xml version="1.0" encoding="UTF-8" standalone="no"?>
<!DOCTYPE svg PUBLIC "-//W3C//DTD SVG 1.1//EN"
 "http://www.w3.org/Graphics/SVG/1.1/DTD/svg11.dtd">
<!-- Generated by graphviz version 2.38.0 (20140413.2041)
 -->
<!-- Title: IG.Num.RealFunction Pages: 1 -->
<!--zoomable 654 -->
<svg id="main" version="1.1" xmlns="http://www.w3.org/2000/svg" xmlns:xlink="http://www.w3.org/1999/xlink" xml:space="preserve" onload="init(evt)">
<style type="text/css"><![CDATA[
.edge:hover path { stroke: red; }
.edge:hover polygon { stroke: red; fill: red; }
]]></style>
<script type="text/javascript"><![CDATA[
var edges = document.getElementsByTagName('g');
if (edges && edges.length) {
  for (var i=0;i<edges.length;i++) {
    if (edges[i].id.substr(0,4)=='edge') {
      edges[i].setAttribute('class','edge');
    }
  }
}
]]></script>
        <defs>
                <circle id="rim" cx="0" cy="0" r="7"/>
                <circle id="rim2" cx="0" cy="0" r="3.5"/>
                <g id="zoomPlus">
                        <use xlink:href="#rim" fill="#404040">
                                <set attributeName="fill" to="#808080" begin="zoomplus.mouseover" end="zoomplus.mouseout"/>
                        </use>
                        <path d="M-4,0h8M0,-4v8" fill="none" stroke="white" stroke-width="1.5" pointer-events="none"/>
                </g>
                <g id="zoomMin">
                        <use xlink:href="#rim" fill="#404040">
                                <set attributeName="fill" to="#808080" begin="zoomminus.mouseover" end="zoomminus.mouseout"/>
                        </use>
                        <path d="M-4,0h8" fill="none" stroke="white" stroke-width="1.5" pointer-events="none"/>
                </g>
                <g id="dirArrow">
                        <path fill="none" stroke="white" stroke-width="1.5" d="M0,-3.0v7 M-2.5,-0.5L0,-3.0L2.5,-0.5"/>
                </g>
               <g id="resetDef">
                       <use xlink:href="#rim2" fill="#404040">
                               <set attributeName="fill" to="#808080" begin="reset.mouseover" end="reset.mouseout"/>
                       </use>
               </g>
        </defs>

<script type="text/javascript">
var viewWidth = 738;
var viewHeight = 654;
var sectionId = 'dynsection-0';
</script>
<script xlink:href="../../svgpan.js"/>
<svg id="graph" class="graph">
<g id="viewport">
<title>IG.Num.RealFunction</title>
<polygon fill="white" stroke="none" points="-4,4 -4,-649.5 734,-649.5 734,4 -4,4"/>
<!-- Node1 -->
<g id="node1" class="node"><title>Node1</title>
<g id="a_node1"><a xlink:title="Represents a real function of a real variabe.">
<polygon fill="#bfbfbf" stroke="black" points="244,-316.5 244,-335.5 354,-335.5 354,-316.5 244,-316.5"/>
<text text-anchor="middle" x="299" y="-323.5" font-family="Helvetica,sans-Serif" font-size="10.00">IG.Num.RealFunction</text>
</a>
</g>
</g>
<!-- Node5 -->
<g id="node5" class="node"><title>Node5</title>
<g id="a_node5"><a xlink:href="../../db/d84/classIG_1_1Lib_1_1LoadableRealFunctionBase.html" target="_top" xlink:title="A RealFunction class used as base class for dynamically loaded functions. Bunctions loaded from scrip...">
<polygon fill="white" stroke="black" points="390,-620.5 390,-639.5 554,-639.5 554,-620.5 390,-620.5"/>
<text text-anchor="middle" x="472" y="-627.5" font-family="Helvetica,sans-Serif" font-size="10.00">IG.Lib.LoadableRealFunctionBase</text>
</a>
</g>
</g>
<!-- Node1&#45;&gt;Node5 -->
<g id="edge5" class="edge"><title>Node1&#45;&gt;Node5</title>
<path fill="none" stroke="midnightblue" d="M299.983,-345.757C301.066,-397.535 311.472,-538.186 390,-611 394.131,-614.83 398.883,-617.934 403.971,-620.445"/>
<polygon fill="midnightblue" stroke="midnightblue" points="303.481,-345.563 299.871,-335.602 296.481,-345.639 303.481,-345.563"/>
</g>
<!-- Node7 -->
<g id="node7" class="node"><title>Node7</title>
<g id="a_node7"><a xlink:href="../../d2/d7a/classIG_1_1Num_1_1ComposedFunction.html" target="_top" xlink:title="Composition of real functions.">
<polygon fill="white" stroke="black" points="403.5,-582.5 403.5,-601.5 540.5,-601.5 540.5,-582.5 403.5,-582.5"/>
<text text-anchor="middle" x="472" y="-589.5" font-family="Helvetica,sans-Serif" font-size="10.00">IG.Num.ComposedFunction</text>
</a>
</g>
</g>
<!-- Node1&#45;&gt;Node7 -->
<g id="edge7" class="edge"><title>Node1&#45;&gt;Node7</title>
<path fill="none" stroke="midnightblue" d="M301.077,-345.621C304.751,-392.48 320.782,-511.566 390,-573 394.321,-576.835 399.27,-579.936 404.544,-582.438"/>
<polygon fill="midnightblue" stroke="midnightblue" points="304.565,-345.317 300.398,-335.576 297.581,-345.79 304.565,-345.317"/>
</g>
<!-- Node8 -->
<g id="node8" class="node"><title>Node8</title>
<g id="a_node8"><a xlink:href="../../d6/d88/classIG_1_1Num_1_1Func_1_1Constant.html" target="_top" xlink:title="A RealFunction class representing a constant function.">
<polygon fill="white" stroke="black" points="414,-544.5 414,-563.5 530,-563.5 530,-544.5 414,-544.5"/>
<text text-anchor="middle" x="472" y="-551.5" font-family="Helvetica,sans-Serif" font-size="10.00">IG.Num.Func.Constant</text>
</a>
</g>
</g>
<!-- Node1&#45;&gt;Node8 -->
<g id="edge8" class="edge"><title>Node1&#45;&gt;Node8</title>
<path fill="none" stroke="midnightblue" d="M302.546,-345.677C309.02,-387.353 330.079,-484.806 390,-535 396.865,-540.751 405.156,-544.83 413.779,-547.711"/>
<polygon fill="midnightblue" stroke="midnightblue" points="305.999,-345.101 301.114,-335.7 299.07,-346.096 305.999,-345.101"/>
</g>
<!-- Node9 -->
<g id="node9" class="node"><title>Node9</title>
<g id="a_node9"><a xlink:href="../../dc/dbf/classIG_1_1Num_1_1Func_1_1Cubic.html" target="_top" xlink:title="Cubic function, f(x) = a3*x*x*x + a2*x*x + a1*x + a0. Specific properties: Zero &#45; returns a zero....">
<polygon fill="white" stroke="black" points="421,-506.5 421,-525.5 523,-525.5 523,-506.5 421,-506.5"/>
<text text-anchor="middle" x="472" y="-513.5" font-family="Helvetica,sans-Serif" font-size="10.00">IG.Num.Func.Cubic</text>
</a>
</g>
</g>
<!-- Node1&#45;&gt;Node9 -->
<g id="edge9" class="edge"><title>Node1&#45;&gt;Node9</title>
<path fill="none" stroke="midnightblue" d="M304.613,-345.724C314.084,-381.668 339.236,-457.735 390,-497 398.912,-503.893 409.912,-508.35 420.902,-511.214"/>
<polygon fill="midnightblue" stroke="midnightblue" points="307.894,-344.416 302.076,-335.562 301.103,-346.112 307.894,-344.416"/>
</g>
<!-- Node10 -->
<g id="node10" class="node"><title>Node10</title>
<g id="a_node10"><a xlink:href="../../da/da5/classIG_1_1Num_1_1Func_1_1Exp.html" target="_top" xlink:title="A RealFunction class representing exponential function.">
<polygon fill="white" stroke="black" points="424.5,-468.5 424.5,-487.5 519.5,-487.5 519.5,-468.5 424.5,-468.5"/>
<text text-anchor="middle" x="472" y="-475.5" font-family="Helvetica,sans-Serif" font-size="10.00">IG.Num.Func.Exp</text>
</a>
</g>
</g>
<!-- Node1&#45;&gt;Node10 -->
<g id="edge10" class="edge"><title>Node1&#45;&gt;Node10</title>
<path fill="none" stroke="midnightblue" d="M307.435,-344.992C319.903,-374.247 347.874,-429.985 390,-459 400.111,-465.964 412.438,-470.398 424.394,-473.215"/>
<polygon fill="midnightblue" stroke="midnightblue" points="310.579,-343.434 303.546,-335.511 304.103,-346.091 310.579,-343.434"/>
</g>
<!-- Node11 -->
<g id="node11" class="node"><title>Node11</title>
<g id="a_node11"><a xlink:href="../../d4/d1e/classIG_1_1Num_1_1Func_1_1Identity.html" target="_top" xlink:title="A RealFunction class representing identity (or linear) function.">
<polygon fill="white" stroke="black" points="417.5,-430.5 417.5,-449.5 526.5,-449.5 526.5,-430.5 417.5,-430.5"/>
<text text-anchor="middle" x="472" y="-437.5" font-family="Helvetica,sans-Serif" font-size="10.00">IG.Num.Func.Identity</text>
</a>
</g>
</g>
<!-- Node1&#45;&gt;Node11 -->
<g id="edge11" class="edge"><title>Node1&#45;&gt;Node11</title>
<path fill="none" stroke="midnightblue" d="M311.901,-343.875C327.304,-365.552 356.214,-401.592 390,-421 398.392,-425.82 407.939,-429.419 417.462,-432.105"/>
<polygon fill="midnightblue" stroke="midnightblue" points="314.715,-341.791 306.151,-335.554 308.956,-345.771 314.715,-341.791"/>
</g>
<!-- Node12 -->
<g id="node12" class="node"><title>Node12</title>
<g id="a_node12"><a xlink:href="../../d8/ddb/classIG_1_1Num_1_1Func_1_1Linear.html" target="_top" xlink:title="Linear function, f(x) = a1*x + a0. Specific properties: Zero &#45; returns a zero. HasZero &#45; either the f...">
<polygon fill="white" stroke="black" points="420,-392.5 420,-411.5 524,-411.5 524,-392.5 420,-392.5"/>
<text text-anchor="middle" x="472" y="-399.5" font-family="Helvetica,sans-Serif" font-size="10.00">IG.Num.Func.Linear</text>
</a>
</g>
</g>
<!-- Node1&#45;&gt;Node12 -->
<g id="edge12" class="edge"><title>Node1&#45;&gt;Node12</title>
<path fill="none" stroke="midnightblue" d="M320.4,-341.733C337.962,-354.567 364.442,-372.27 390,-383 399.323,-386.914 409.603,-390.108 419.621,-392.683"/>
<polygon fill="midnightblue" stroke="midnightblue" points="322.19,-338.702 312.081,-335.529 318.004,-344.313 322.19,-338.702"/>
</g>
<!-- Node13 -->
<g id="node13" class="node"><title>Node13</title>
<g id="a_node13"><a xlink:href="../../dd/dd0/classIG_1_1Num_1_1Func_1_1PenaltyPower.html" target="_top" xlink:title="Penalty function consisting of sticked together constant zero&#45;valued function and a power function wi...">
<polygon fill="white" stroke="black" points="403.5,-354.5 403.5,-373.5 540.5,-373.5 540.5,-354.5 403.5,-354.5"/>
<text text-anchor="middle" x="472" y="-361.5" font-family="Helvetica,sans-Serif" font-size="10.00">IG.Num.Func.PenaltyPower</text>
</a>
</g>
</g>
<!-- Node1&#45;&gt;Node13 -->
<g id="edge13" class="edge"><title>Node1&#45;&gt;Node13</title>
<path fill="none" stroke="midnightblue" d="M353.209,-337.824C377.317,-343.182 405.44,-349.431 428.16,-354.48"/>
<polygon fill="midnightblue" stroke="midnightblue" points="353.672,-334.342 343.151,-335.589 352.153,-341.175 353.672,-334.342"/>
</g>
<!-- Node14 -->
<g id="node14" class="node"><title>Node14</title>
<g id="a_node14"><a xlink:href="../../d7/d61/classIG_1_1Num_1_1Func_1_1Quadratic.html" target="_top" xlink:title="Quadratic function, f(x) = a2*x*x + a1*x + a0. Specific properties: Zero &#45; returns a zero....">
<polygon fill="white" stroke="black" points="412.5,-316.5 412.5,-335.5 531.5,-335.5 531.5,-316.5 412.5,-316.5"/>
<text text-anchor="middle" x="472" y="-323.5" font-family="Helvetica,sans-Serif" font-size="10.00">IG.Num.Func.Quadratic</text>
</a>
</g>
</g>
<!-- Node1&#45;&gt;Node14 -->
<g id="edge14" class="edge"><title>Node1&#45;&gt;Node14</title>
<path fill="none" stroke="midnightblue" d="M364.27,-326C380,-326 396.753,-326 412.211,-326"/>
<polygon fill="midnightblue" stroke="midnightblue" points="364.106,-322.5 354.105,-326 364.105,-329.5 364.106,-322.5"/>
</g>
<!-- Node15 -->
<g id="node15" class="node"><title>Node15</title>
<g id="a_node15"><a xlink:href="../../d0/dc0/classIG_1_1Num_1_1Func_1_1ReciprocalPower.html" target="_top" xlink:title="A RealFunction class representing a reciprocal power function.">
<polygon fill="white" stroke="black" points="397,-278.5 397,-297.5 547,-297.5 547,-278.5 397,-278.5"/>
<text text-anchor="middle" x="472" y="-285.5" font-family="Helvetica,sans-Serif" font-size="10.00">IG.Num.Func.ReciprocalPower</text>
</a>
</g>
</g>
<!-- Node1&#45;&gt;Node15 -->
<g id="edge15" class="edge"><title>Node1&#45;&gt;Node15</title>
<path fill="none" stroke="midnightblue" d="M353.209,-314.176C377.317,-308.818 405.44,-302.569 428.16,-297.52"/>
<polygon fill="midnightblue" stroke="midnightblue" points="352.153,-310.825 343.151,-316.411 353.672,-317.658 352.153,-310.825"/>
</g>
<!-- Node16 -->
<g id="node16" class="node"><title>Node16</title>
<g id="a_node16"><a xlink:href="../../d9/d61/classIG_1_1Num_1_1Func_1_1WeightGauss.html" target="_top" xlink:title="A RealFunction class representing bell like polynomial weighting function with finite support,...">
<polygon fill="white" stroke="black" points="403.5,-240.5 403.5,-259.5 540.5,-259.5 540.5,-240.5 403.5,-240.5"/>
<text text-anchor="middle" x="472" y="-247.5" font-family="Helvetica,sans-Serif" font-size="10.00">IG.Num.Func.WeightGauss</text>
</a>
</g>
</g>
<!-- Node1&#45;&gt;Node16 -->
<g id="edge16" class="edge"><title>Node1&#45;&gt;Node16</title>
<path fill="none" stroke="midnightblue" d="M320.4,-310.267C337.962,-297.433 364.442,-279.73 390,-269 399.056,-265.198 409.017,-262.075 418.761,-259.539"/>
<polygon fill="midnightblue" stroke="midnightblue" points="318.004,-307.687 312.081,-316.471 322.19,-313.298 318.004,-307.687"/>
</g>
<!-- Node17 -->
<g id="node17" class="node"><title>Node17</title>
<g id="a_node17"><a xlink:href="../../d5/d42/classIG_1_1Num_1_1Func_1_1WeightPol3.html" target="_top" xlink:title="A RealFunction class representing bell like polynomial weighting function with finite support....">
<polygon fill="white" stroke="black" points="408,-202.5 408,-221.5 536,-221.5 536,-202.5 408,-202.5"/>
<text text-anchor="middle" x="472" y="-209.5" font-family="Helvetica,sans-Serif" font-size="10.00">IG.Num.Func.WeightPol3</text>
</a>
</g>
</g>
<!-- Node1&#45;&gt;Node17 -->
<g id="edge17" class="edge"><title>Node1&#45;&gt;Node17</title>
<path fill="none" stroke="midnightblue" d="M311.901,-308.125C327.304,-286.448 356.214,-250.408 390,-231 396.763,-227.115 404.278,-224.023 411.925,-221.564"/>
<polygon fill="midnightblue" stroke="midnightblue" points="308.956,-306.229 306.151,-316.446 314.715,-310.209 308.956,-306.229"/>
</g>
<!-- Node18 -->
<g id="node18" class="node"><title>Node18</title>
<g id="a_node18"><a xlink:href="../../da/d50/classIG_1_1Num_1_1Func_1_1WeightPol4.html" target="_top" xlink:title="A RealFunction class representing bell like polynomial weighting function with finite support,...">
<polygon fill="white" stroke="black" points="408,-164.5 408,-183.5 536,-183.5 536,-164.5 408,-164.5"/>
<text text-anchor="middle" x="472" y="-171.5" font-family="Helvetica,sans-Serif" font-size="10.00">IG.Num.Func.WeightPol4</text>
</a>
</g>
</g>
<!-- Node1&#45;&gt;Node18 -->
<g id="edge18" class="edge"><title>Node1&#45;&gt;Node18</title>
<path fill="none" stroke="midnightblue" d="M307.435,-307.008C319.903,-277.753 347.874,-222.015 390,-193 395.591,-189.149 401.859,-186.072 408.368,-183.614"/>
<polygon fill="midnightblue" stroke="midnightblue" points="304.103,-305.909 303.546,-316.489 310.579,-308.566 304.103,-305.909"/>
</g>
<!-- Node19 -->
<g id="node19" class="node"><title>Node19</title>
<g id="a_node19"><a xlink:href="../../d1/d27/classIG_1_1Num_1_1Func_1_1WeightPol5.html" target="_top" xlink:title="A RealFunction class representing bell like polynomial weighting function with finite support,...">
<polygon fill="white" stroke="black" points="408,-126.5 408,-145.5 536,-145.5 536,-126.5 408,-126.5"/>
<text text-anchor="middle" x="472" y="-133.5" font-family="Helvetica,sans-Serif" font-size="10.00">IG.Num.Func.WeightPol5</text>
</a>
</g>
</g>
<!-- Node1&#45;&gt;Node19 -->
<g id="edge19" class="edge"><title>Node1&#45;&gt;Node19</title>
<path fill="none" stroke="midnightblue" d="M304.613,-306.276C314.084,-270.332 339.236,-194.265 390,-155 395.37,-150.846 401.498,-147.578 407.926,-145.009"/>
<polygon fill="midnightblue" stroke="midnightblue" points="301.103,-305.888 302.076,-316.438 307.894,-307.584 301.103,-305.888"/>
</g>
<!-- Node20 -->
<g id="node20" class="node"><title>Node20</title>
<g id="a_node20"><a xlink:href="../../df/d14/classIG_1_1Num_1_1Func_1_1WeightPol7.html" target="_top" xlink:title="A RealFunction class representing bell like polynomial weighting function with finite support,...">
<polygon fill="white" stroke="black" points="408,-88.5 408,-107.5 536,-107.5 536,-88.5 408,-88.5"/>
<text text-anchor="middle" x="472" y="-95.5" font-family="Helvetica,sans-Serif" font-size="10.00">IG.Num.Func.WeightPol7</text>
</a>
</g>
</g>
<!-- Node1&#45;&gt;Node20 -->
<g id="edge20" class="edge"><title>Node1&#45;&gt;Node20</title>
<path fill="none" stroke="midnightblue" d="M302.546,-306.323C309.02,-264.647 330.079,-167.194 390,-117 395.204,-112.641 401.228,-109.242 407.594,-106.597"/>
<polygon fill="midnightblue" stroke="midnightblue" points="299.07,-305.904 301.114,-316.3 305.999,-306.899 299.07,-305.904"/>
</g>
<!-- Node21 -->
<g id="node21" class="node"><title>Node21</title>
<g id="a_node21"><a xlink:href="../../d4/d40/classIG_1_1Num_1_1Func_1_1WeightReciprocalPower.html" target="_top" xlink:title="A RealFunction class representing bell like polynomial weighting function with finite support,...">
<polygon fill="white" stroke="black" points="395,-39 395,-69 549,-69 549,-39 395,-39"/>
<text text-anchor="start" x="403" y="-57" font-family="Helvetica,sans-Serif" font-size="10.00">IG.Num.Func.WeightReciprocal</text>
<text text-anchor="middle" x="472" y="-46" font-family="Helvetica,sans-Serif" font-size="10.00">Power</text>
</a>
</g>
</g>
<!-- Node1&#45;&gt;Node21 -->
<g id="edge21" class="edge"><title>Node1&#45;&gt;Node21</title>
<path fill="none" stroke="midnightblue" d="M301.414,-306.072C305.801,-259.466 323.235,-142.504 390,-79 394.052,-75.1457 398.686,-71.8848 403.64,-69.1261"/>
<polygon fill="midnightblue" stroke="midnightblue" points="297.902,-306.073 300.558,-316.329 304.878,-306.655 297.902,-306.073"/>
</g>
<!-- Node22 -->
<g id="node22" class="node"><title>Node22</title>
<g id="a_node22"><a xlink:href="../../d6/d03/classIG_1_1Num_1_1FunctionPolynomial.html" target="_top" xlink:title="Polynomial real functions of one variable.">
<polygon fill="white" stroke="black" points="403,-0.5 403,-19.5 541,-19.5 541,-0.5 403,-0.5"/>
<text text-anchor="middle" x="472" y="-7.5" font-family="Helvetica,sans-Serif" font-size="10.00">IG.Num.FunctionPolynomial</text>
</a>
</g>
</g>
<!-- Node1&#45;&gt;Node22 -->
<g id="edge22" class="edge"><title>Node1&#45;&gt;Node22</title>
<path fill="none" stroke="midnightblue" d="M299.688,-306.133C299.995,-252.809 308.548,-105.412 390,-29 394.108,-25.1458 398.845,-22.025 403.923,-19.5036"/>
<polygon fill="midnightblue" stroke="midnightblue" points="296.189,-306.301 299.729,-316.287 303.189,-306.273 296.189,-306.301"/>
</g>
<!-- Node2 -->
<g id="node2" class="node"><title>Node2</title>
<g id="a_node2"><a xlink:href="../../d6/d30/classIG_1_1Num_1_1RealFunctionBase.html" target="_top" xlink:title="Base class for real functions of real variable.">
<polygon fill="white" stroke="black" points="112,-316.5 112,-335.5 208,-335.5 208,-316.5 112,-316.5"/>
<text text-anchor="middle" x="160" y="-323.5" font-family="Helvetica,sans-Serif" font-size="10.00">RealFunctionBase</text>
</a>
</g>
</g>
<!-- Node2&#45;&gt;Node1 -->
<g id="edge1" class="edge"><title>Node2&#45;&gt;Node1</title>
<path fill="none" stroke="midnightblue" d="M218.268,-326C226.689,-326 235.342,-326 243.7,-326"/>
<polygon fill="midnightblue" stroke="midnightblue" points="218.148,-322.5 208.148,-326 218.148,-329.5 218.148,-322.5"/>
</g>
<!-- Node3 -->
<g id="node3" class="node"><title>Node3</title>
<g id="a_node3"><a xlink:href="../../db/d0e/interfaceIG_1_1Num_1_1IRealFunction.html" target="_top" xlink:title="Interface for real functions.">
<polygon fill="white" stroke="black" points="0,-335.5 0,-354.5 76,-354.5 76,-335.5 0,-335.5"/>
<text text-anchor="middle" x="38" y="-342.5" font-family="Helvetica,sans-Serif" font-size="10.00">IRealFunction</text>
</a>
</g>
</g>
<!-- Node3&#45;&gt;Node1 -->
<g id="edge3" class="edge"><title>Node3&#45;&gt;Node1</title>
<path fill="none" stroke="midnightblue" d="M86.1466,-347.615C120.12,-348.863 167.009,-349.28 208,-345 225.789,-343.143 245.239,-339.274 261.492,-335.509"/>
<polygon fill="midnightblue" stroke="midnightblue" points="86.1722,-344.113 76.0387,-347.205 85.8887,-351.107 86.1722,-344.113"/>
</g>
<!-- Node3&#45;&gt;Node2 -->
<g id="edge2" class="edge"><title>Node3&#45;&gt;Node2</title>
<path fill="none" stroke="midnightblue" d="M86.3631,-337.501C94.7844,-336.167 103.554,-334.779 111.966,-333.447"/>
<polygon fill="midnightblue" stroke="midnightblue" points="85.6405,-334.072 76.311,-339.092 86.7353,-340.985 85.6405,-334.072"/>
</g>
<!-- Node4 -->
<g id="node4" class="node"><title>Node4</title>
<g id="a_node4"><a xlink:title=" ">
<polygon fill="white" stroke="#bfbfbf" points="129,-278.5 129,-297.5 191,-297.5 191,-278.5 129,-278.5"/>
<text text-anchor="middle" x="160" y="-285.5" font-family="Helvetica,sans-Serif" font-size="10.00">ICloneable</text>
</a>
</g>
</g>
<!-- Node4&#45;&gt;Node1 -->
<g id="edge4" class="edge"><title>Node4&#45;&gt;Node1</title>
<path fill="none" stroke="midnightblue" d="M200.777,-299.033C220.69,-304.556 244.558,-311.177 263.661,-316.475"/>
<polygon fill="midnightblue" stroke="midnightblue" points="201.637,-295.639 191.065,-296.339 199.766,-302.385 201.637,-295.639"/>
</g>
<!-- Node6 -->
<g id="node6" class="node"><title>Node6</title>
<g id="a_node6"><a xlink:href="../../d5/d44/classIG_1_1Script_1_1ScritpRealFunctionExample_1_1Container_1_1Function.html" target="_top" xlink:title=" ">
<polygon fill="white" stroke="black" points="590,-615 590,-645 730,-645 730,-615 590,-615"/>
<text text-anchor="start" x="598" y="-633" font-family="Helvetica,sans-Serif" font-size="10.00">IG.Script.ScritpRealFunction</text>
<text text-anchor="middle" x="660" y="-622" font-family="Helvetica,sans-Serif" font-size="10.00">Example.Container.Function</text>
</a>
</g>
</g>
<!-- Node5&#45;&gt;Node6 -->
<g id="edge6" class="edge"><title>Node5&#45;&gt;Node6</title>
<path fill="none" stroke="midnightblue" d="M564.164,-630C572.811,-630 581.479,-630 589.869,-630"/>
<polygon fill="midnightblue" stroke="midnightblue" points="564.041,-626.5 554.041,-630 564.041,-633.5 564.041,-626.5"/>
</g>
</g>
</svg>
        <g id="navigator" transform="translate(0 0)" fill="#404254">
                <rect fill="#f2f5e9" fill-opacity="0.5" stroke="#606060" stroke-width=".5" x="0" y="0" width="60" height="60"/>
                <use id="zoomplus" xlink:href="#zoomPlus" x="17" y="9" onmousedown="handleZoom(evt,'in')"/>
                <use id="zoomminus" xlink:href="#zoomMin" x="42" y="9" onmousedown="handleZoom(evt,'out')"/>
                <use id="reset" xlink:href="#resetDef" x="30" y="36" onmousedown="handleReset()"/>
                <g id="arrowUp" xlink:href="#dirArrow" transform="translate(30 24)" onmousedown="handlePan(0,-1)">
                  <use xlink:href="#rim" fill="#404040">
                        <set attributeName="fill" to="#808080" begin="arrowUp.mouseover" end="arrowUp.mouseout"/>
                  </use>
                  <path fill="none" stroke="white" stroke-width="1.5" d="M0,-3.0v7 M-2.5,-0.5L0,-3.0L2.5,-0.5"/>
                </g>
                <g id="arrowRight" xlink:href="#dirArrow" transform="rotate(90) translate(36 -43)" onmousedown="handlePan(1,0)">
                  <use xlink:href="#rim" fill="#404040">
                        <set attributeName="fill" to="#808080" begin="arrowRight.mouseover" end="arrowRight.mouseout"/>
                  </use>
                  <path fill="none" stroke="white" stroke-width="1.5" d="M0,-3.0v7 M-2.5,-0.5L0,-3.0L2.5,-0.5"/>
                </g>
                <g id="arrowDown" xlink:href="#dirArrow" transform="rotate(180) translate(-30 -48)" onmousedown="handlePan(0,1)">
                  <use xlink:href="#rim" fill="#404040">
                        <set attributeName="fill" to="#808080" begin="arrowDown.mouseover" end="arrowDown.mouseout"/>
                  </use>
                  <path fill="none" stroke="white" stroke-width="1.5" d="M0,-3.0v7 M-2.5,-0.5L0,-3.0L2.5,-0.5"/>
                </g>
                <g id="arrowLeft" xlink:href="#dirArrow" transform="rotate(270) translate(-36 17)" onmousedown="handlePan(-1,0)">
                  <use xlink:href="#rim" fill="#404040">
                        <set attributeName="fill" to="#808080" begin="arrowLeft.mouseover" end="arrowLeft.mouseout"/>
                  </use>
                  <path fill="none" stroke="white" stroke-width="1.5" d="M0,-3.0v7 M-2.5,-0.5L0,-3.0L2.5,-0.5"/>
                </g>
        </g>
        <svg viewBox="0 0 15 15" width="100%" height="30px" preserveAspectRatio="xMaxYMin meet">
         <g id="arrow_out" transform="scale(0.3 0.3)">
          <a xlink:href="classIG_1_1Num_1_1RealFunction__inherit__graph_org.svg" target="_base">
           <rect id="button" ry="5" rx="5" y="6" x="6" height="38" width="38"
                fill="#f2f5e9" fill-opacity="0.5" stroke="#606060" stroke-width="1.0"/>
           <path id="arrow"
             d="M 11.500037,31.436501 C 11.940474,20.09759 22.043105,11.32322 32.158766,21.979434 L 37.068811,17.246167 C 37.068811,17.246167 37.088388,32 37.088388,32 L 22.160133,31.978069 C 22.160133,31.978069 26.997745,27.140456 26.997745,27.140456 C 18.528582,18.264221 13.291696,25.230495 11.500037,31.436501 z"
             style="fill:#404040;"/>
          </a>
         </g>
        </svg>
</svg>
