<?xml version="1.0" encoding="UTF-8" standalone="no"?>
<!DOCTYPE svg PUBLIC "-//W3C//DTD SVG 1.1//EN"
 "http://www.w3.org/Graphics/SVG/1.1/DTD/svg11.dtd">
<!-- Generated by graphviz version 2.38.0 (20140413.2041)
 -->
<!-- Title: IG.Gr.GraphicSetBase Pages: 1 -->
<svg width="319pt" height="230pt"
 viewBox="0.00 0.00 318.50 230.00" xmlns="http://www.w3.org/2000/svg" xmlns:xlink="http://www.w3.org/1999/xlink">
<g id="graph0" class="graph" transform="scale(1 1) rotate(0) translate(4 226)">
<title>IG.Gr.GraphicSetBase</title>
<polygon fill="white" stroke="none" points="-4,4 -4,-226 314.5,-226 314.5,4 -4,4"/>
<!-- Node1 -->
<g id="node1" class="node"><title>Node1</title>
<g id="a_node1"><a xlink:title="Base class for graphic sets that contain groups of graphic primitives.">
<polygon fill="#bfbfbf" stroke="black" points="36,-0.5 36,-19.5 150,-19.5 150,-0.5 36,-0.5"/>
<text text-anchor="middle" x="93" y="-7.5" font-family="Helvetica,sans-Serif" font-size="10.00">IG.Gr.GraphicSetBase</text>
</a>
</g>
</g>
<!-- Node2 -->
<g id="node2" class="node"><title>Node2</title>
<g id="a_node2"><a xlink:href="../../d2/d42/interfaceIG_1_1Gr_1_1IGraphicSet.html" target="_top" xlink:title="Graphic set that contain graphic primitives and other graphic sets.">
<polygon fill="white" stroke="black" points="0,-67.5 0,-86.5 94,-86.5 94,-67.5 0,-67.5"/>
<text text-anchor="middle" x="47" y="-74.5" font-family="Helvetica,sans-Serif" font-size="10.00">IG.Gr.IGraphicSet</text>
</a>
</g>
</g>
<!-- Node2&#45;&gt;Node1 -->
<g id="edge1" class="edge"><title>Node2&#45;&gt;Node1</title>
<path fill="none" stroke="#9a32cd" stroke-dasharray="5,2" d="M59.0989,-58.9037C68.0376,-46.2729 79.834,-29.6041 86.8945,-19.6273"/>
<polygon fill="#9a32cd" stroke="#9a32cd" points="56.1235,-57.0492 53.2038,-67.2338 61.8375,-61.0929 56.1235,-57.0492"/>
<text text-anchor="middle" x="91" y="-41" font-family="Helvetica,sans-Serif" font-size="10.00"> _parent</text>
</g>
<!-- Node3 -->
<g id="node3" class="node"><title>Node3</title>
<g id="a_node3"><a xlink:href="../../d5/da6/classIG_1_1Num_1_1BoundingBox3d.html" target="_top" xlink:title="A 3D bounding box.">
<polygon fill="white" stroke="black" points="112.5,-67.5 112.5,-86.5 233.5,-86.5 233.5,-67.5 112.5,-67.5"/>
<text text-anchor="middle" x="173" y="-74.5" font-family="Helvetica,sans-Serif" font-size="10.00">IG.Num.BoundingBox3d</text>
</a>
</g>
</g>
<!-- Node3&#45;&gt;Node1 -->
<g id="edge2" class="edge"><title>Node3&#45;&gt;Node1</title>
<path fill="none" stroke="#9a32cd" stroke-dasharray="5,2" d="M154.186,-60.7134C138.424,-47.907 116.493,-30.0884 103.618,-19.6273"/>
<polygon fill="#9a32cd" stroke="#9a32cd" points="152.243,-63.6443 162.211,-67.2338 156.657,-58.2114 152.243,-63.6443"/>
<text text-anchor="middle" x="158" y="-41" font-family="Helvetica,sans-Serif" font-size="10.00"> _bounds</text>
</g>
<!-- Node4 -->
<g id="node4" class="node"><title>Node4</title>
<g id="a_node4"><a xlink:href="../../df/d61/classIG_1_1Num_1_1BoundingBoxBase.html" target="_top" xlink:title="Base class for bounding boxes that define minimal and maximal co&#45;ordinates of objects,...">
<polygon fill="white" stroke="black" points="175.5,-124.5 175.5,-143.5 272.5,-143.5 272.5,-124.5 175.5,-124.5"/>
<text text-anchor="middle" x="224" y="-131.5" font-family="Helvetica,sans-Serif" font-size="10.00">BoundingBoxBase</text>
</a>
</g>
</g>
<!-- Node4&#45;&gt;Node3 -->
<g id="edge3" class="edge"><title>Node4&#45;&gt;Node3</title>
<path fill="none" stroke="midnightblue" d="M209.004,-116.828C199.872,-106.979 188.561,-94.7817 181.081,-86.7149"/>
<polygon fill="midnightblue" stroke="midnightblue" points="206.665,-119.453 216.031,-124.406 211.798,-114.694 206.665,-119.453"/>
</g>
<!-- Node5 -->
<g id="node5" class="node"><title>Node5</title>
<g id="a_node5"><a xlink:href="../../db/d5e/interfaceIG_1_1Num_1_1IBoundingBox.html" target="_top" xlink:title="Bounding box, defines minimum and maximum co&#45;ordinates of domains, geometric objects and their groups...">
<polygon fill="white" stroke="black" points="108.5,-202.5 108.5,-221.5 185.5,-221.5 185.5,-202.5 108.5,-202.5"/>
<text text-anchor="middle" x="147" y="-209.5" font-family="Helvetica,sans-Serif" font-size="10.00">IBoundingBox</text>
</a>
</g>
</g>
<!-- Node5&#45;&gt;Node3 -->
<g id="edge6" class="edge"><title>Node5&#45;&gt;Node3</title>
<path fill="none" stroke="midnightblue" d="M150.688,-192.133C156.406,-162.884 167.182,-107.762 171.322,-86.5857"/>
<polygon fill="midnightblue" stroke="midnightblue" points="147.19,-191.788 148.706,-202.273 154.06,-193.131 147.19,-191.788"/>
</g>
<!-- Node5&#45;&gt;Node4 -->
<g id="edge4" class="edge"><title>Node5&#45;&gt;Node4</title>
<path fill="none" stroke="midnightblue" d="M163.337,-194.875C179.202,-179.216 202.681,-156.042 215.27,-143.616"/>
<polygon fill="midnightblue" stroke="midnightblue" points="160.491,-192.766 155.833,-202.282 165.409,-197.748 160.491,-192.766"/>
</g>
<!-- Node6 -->
<g id="node6" class="node"><title>Node6</title>
<g id="a_node6"><a xlink:href="../../d3/d24/interfaceIG_1_1Num_1_1IVector.html" target="_top" xlink:title="Generic Vector interface">
<polygon fill="white" stroke="black" points="203.5,-202.5 203.5,-221.5 310.5,-221.5 310.5,-202.5 203.5,-202.5"/>
<text text-anchor="middle" x="257" y="-209.5" font-family="Helvetica,sans-Serif" font-size="10.00">IG.Num.IVector&lt; T &gt;</text>
</a>
</g>
</g>
<!-- Node6&#45;&gt;Node4 -->
<g id="edge5" class="edge"><title>Node6&#45;&gt;Node4</title>
<path fill="none" stroke="#9a32cd" stroke-dasharray="5,2" d="M249.043,-192.674C242.286,-177.113 232.889,-155.472 227.741,-143.616"/>
<polygon fill="#9a32cd" stroke="#9a32cd" points="246.021,-194.503 253.214,-202.282 252.442,-191.715 246.021,-194.503"/>
<text text-anchor="middle" x="266.5" y="-176" font-family="Helvetica,sans-Serif" font-size="10.00"> _maxAux</text>
<text text-anchor="middle" x="266.5" y="-165" font-family="Helvetica,sans-Serif" font-size="10.00">_minAux</text>
</g>
</g>
</svg>
