<?xml version="1.0" encoding="UTF-8" standalone="no"?>
<!DOCTYPE svg PUBLIC "-//W3C//DTD SVG 1.1//EN"
 "http://www.w3.org/Graphics/SVG/1.1/DTD/svg11.dtd">
<!-- Generated by graphviz version 2.38.0 (20140413.2041)
 -->
<!-- Title: IG.Lib.IVarType Pages: 1 -->
<svg width="214pt" height="196pt"
 viewBox="0.00 0.00 214.00 196.00" xmlns="http://www.w3.org/2000/svg" xmlns:xlink="http://www.w3.org/1999/xlink">
<g id="graph0" class="graph" transform="scale(1 1) rotate(0) translate(4 192)">
<title>IG.Lib.IVarType</title>
<polygon fill="white" stroke="none" points="-4,4 -4,-192 210,-192 210,4 -4,4"/>
<!-- Node1 -->
<g id="node1" class="node"><title>Node1</title>
<g id="a_node1"><a xlink:title="Defines classes that can represent variables of different types. Used e.g. in interpreters and variab...">
<polygon fill="#bfbfbf" stroke="black" points="72,-0.5 72,-19.5 155,-19.5 155,-0.5 72,-0.5"/>
<text text-anchor="middle" x="113.5" y="-7.5" font-family="Helvetica,sans-Serif" font-size="10.00">IG.Lib.IVarType</text>
</a>
</g>
</g>
<!-- Node2 -->
<g id="node2" class="node"><title>Node2</title>
<g id="a_node2"><a xlink:href="../../dd/d2c/interfaceIG_1_1Lib_1_1IXmlConvertable.html" target="_top" xlink:title="Defines classes that can be converted to/from Xml elements.">
<polygon fill="white" stroke="black" points="20,-56.5 20,-75.5 105,-75.5 105,-56.5 20,-56.5"/>
<text text-anchor="middle" x="62.5" y="-63.5" font-family="Helvetica,sans-Serif" font-size="10.00">IXmlConvertable</text>
</a>
</g>
</g>
<!-- Node2&#45;&gt;Node1 -->
<g id="edge1" class="edge"><title>Node2&#45;&gt;Node1</title>
<path fill="none" stroke="midnightblue" d="M77.8779,-48.7175C86.8669,-39.1997 97.8592,-27.5608 105.235,-19.7511"/>
<polygon fill="midnightblue" stroke="midnightblue" points="75.2433,-46.4096 70.9216,-56.083 80.3324,-51.216 75.2433,-46.4096"/>
</g>
<!-- Node3 -->
<g id="node3" class="node"><title>Node3</title>
<g id="a_node3"><a xlink:href="../../d6/d87/interfaceIG_1_1Lib_1_1IFromXml.html" target="_top" xlink:title="Defines classes whose instances can be converted to Xml elements. Conversion is different from that u...">
<polygon fill="white" stroke="black" points="0,-112.5 0,-131.5 57,-131.5 57,-112.5 0,-112.5"/>
<text text-anchor="middle" x="28.5" y="-119.5" font-family="Helvetica,sans-Serif" font-size="10.00">IFromXml</text>
</a>
</g>
</g>
<!-- Node3&#45;&gt;Node2 -->
<g id="edge2" class="edge"><title>Node3&#45;&gt;Node2</title>
<path fill="none" stroke="midnightblue" d="M39.4772,-103.566C45.327,-94.2747 52.2695,-83.2484 56.9901,-75.7511"/>
<polygon fill="midnightblue" stroke="midnightblue" points="36.4808,-101.756 34.1144,-112.083 42.4044,-105.486 36.4808,-101.756"/>
</g>
<!-- Node4 -->
<g id="node4" class="node"><title>Node4</title>
<g id="a_node4"><a xlink:href="../../da/d7e/interfaceIG_1_1Lib_1_1ITypeName.html" target="_top" xlink:title="Classes that provide separate type names. Classes used e.g. in interpreter systems to represent types...">
<polygon fill="white" stroke="black" points="30,-168.5 30,-187.5 95,-187.5 95,-168.5 30,-168.5"/>
<text text-anchor="middle" x="62.5" y="-175.5" font-family="Helvetica,sans-Serif" font-size="10.00">ITypeName</text>
</a>
</g>
</g>
<!-- Node4&#45;&gt;Node3 -->
<g id="edge3" class="edge"><title>Node4&#45;&gt;Node3</title>
<path fill="none" stroke="midnightblue" d="M51.5228,-159.566C45.673,-150.275 38.7305,-139.248 34.0099,-131.751"/>
<polygon fill="midnightblue" stroke="midnightblue" points="48.5956,-161.486 56.8856,-168.083 54.5192,-157.756 48.5956,-161.486"/>
</g>
<!-- Node5 -->
<g id="node5" class="node"><title>Node5</title>
<g id="a_node5"><a xlink:href="../../d3/dd7/interfaceIG_1_1Lib_1_1IToXml.html" target="_top" xlink:title="Defines classes whose instances can be created from Xml elements. Conversion is different from that u...">
<polygon fill="white" stroke="black" points="75,-112.5 75,-131.5 120,-131.5 120,-112.5 75,-112.5"/>
<text text-anchor="middle" x="97.5" y="-119.5" font-family="Helvetica,sans-Serif" font-size="10.00">IToXml</text>
</a>
</g>
</g>
<!-- Node4&#45;&gt;Node5 -->
<g id="edge5" class="edge"><title>Node4&#45;&gt;Node5</title>
<path fill="none" stroke="midnightblue" d="M73.8001,-159.566C79.8219,-150.275 86.9686,-139.248 91.828,-131.751"/>
<polygon fill="midnightblue" stroke="midnightblue" points="70.7815,-157.788 68.2795,-168.083 76.6556,-161.595 70.7815,-157.788"/>
</g>
<!-- Node5&#45;&gt;Node2 -->
<g id="edge4" class="edge"><title>Node5&#45;&gt;Node2</title>
<path fill="none" stroke="midnightblue" d="M86.1999,-103.566C80.1781,-94.2747 73.0314,-83.2484 68.172,-75.7511"/>
<polygon fill="midnightblue" stroke="midnightblue" points="83.3444,-105.595 91.7205,-112.083 89.2185,-101.788 83.3444,-105.595"/>
</g>
<!-- Node6 -->
<g id="node6" class="node"><title>Node6</title>
<g id="a_node6"><a xlink:href="../../d2/d80/interfaceIG_1_1Lib_1_1IStringParsable.html" target="_top" xlink:title="Defines classes that can be converted to strings and whose values can be parsed from strings....">
<polygon fill="white" stroke="black" points="123,-56.5 123,-75.5 206,-75.5 206,-56.5 123,-56.5"/>
<text text-anchor="middle" x="164.5" y="-63.5" font-family="Helvetica,sans-Serif" font-size="10.00">IStringParsable</text>
</a>
</g>
</g>
<!-- Node6&#45;&gt;Node1 -->
<g id="edge6" class="edge"><title>Node6&#45;&gt;Node1</title>
<path fill="none" stroke="midnightblue" d="M149.122,-48.7175C140.133,-39.1997 129.141,-27.5608 121.765,-19.7511"/>
<polygon fill="midnightblue" stroke="midnightblue" points="146.668,-51.216 156.078,-56.083 151.757,-46.4096 146.668,-51.216"/>
</g>
</g>
</svg>
