<?xml version="1.0" encoding="UTF-8" standalone="no"?>
<!DOCTYPE svg PUBLIC "-//W3C//DTD SVG 1.1//EN"
 "http://www.w3.org/Graphics/SVG/1.1/DTD/svg11.dtd">
<!-- Generated by graphviz version 2.38.0 (20140413.2041)
 -->
<!-- Title: IG.Lib.IpcStreamClientBase Pages: 1 -->
<svg width="311pt" height="319pt"
 viewBox="0.00 0.00 311.00 319.00" xmlns="http://www.w3.org/2000/svg" xmlns:xlink="http://www.w3.org/1999/xlink">
<g id="graph0" class="graph" transform="scale(1 1) rotate(0) translate(4 315)">
<title>IG.Lib.IpcStreamClientBase</title>
<polygon fill="white" stroke="none" points="-4,4 -4,-315 307,-315 307,4 -4,4"/>
<!-- Node1 -->
<g id="node1" class="node"><title>Node1</title>
<g id="a_node1"><a xlink:title="Client to the pipe server (classes derived from IpcStreamClientServerBase2).">
<polygon fill="#bfbfbf" stroke="black" points="82,-123.5 82,-142.5 219,-142.5 219,-123.5 82,-123.5"/>
<text text-anchor="middle" x="150.5" y="-130.5" font-family="Helvetica,sans-Serif" font-size="10.00">IG.Lib.IpcStreamClientBase</text>
</a>
</g>
</g>
<!-- Node5 -->
<g id="node5" class="node"><title>Node5</title>
<g id="a_node5"><a xlink:href="../../d3/d53/classIG_1_1Lib_1_1NamedPipeClientBase.html" target="_top" xlink:title="Client to the pipe server (classes derived from IpcStreamClientServerBase2).">
<polygon fill="white" stroke="black" points="6,-67.5 6,-86.5 149,-86.5 149,-67.5 6,-67.5"/>
<text text-anchor="middle" x="77.5" y="-74.5" font-family="Helvetica,sans-Serif" font-size="10.00">IG.Lib.NamedPipeClientBase</text>
</a>
</g>
</g>
<!-- Node1&#45;&gt;Node5 -->
<g id="edge6" class="edge"><title>Node1&#45;&gt;Node5</title>
<path fill="none" stroke="midnightblue" d="M130.358,-117.101C117.221,-107.382 100.518,-95.0269 89.4421,-86.8339"/>
<polygon fill="midnightblue" stroke="midnightblue" points="128.65,-120.191 138.771,-123.324 132.813,-114.563 128.65,-120.191"/>
</g>
<!-- Node7 -->
<g id="node7" class="node"><title>Node7</title>
<g id="a_node7"><a xlink:href="../../df/d28/classIG_1_1Lib_1_1PipeClientBase.html" target="_top" xlink:title="Client to the pipe server (classes derived from IpcStreamClientServerBase2).">
<polygon fill="white" stroke="black" points="167.5,-67.5 167.5,-86.5 279.5,-86.5 279.5,-67.5 167.5,-67.5"/>
<text text-anchor="middle" x="223.5" y="-74.5" font-family="Helvetica,sans-Serif" font-size="10.00">IG.Lib.PipeClientBase</text>
</a>
</g>
</g>
<!-- Node1&#45;&gt;Node7 -->
<g id="edge8" class="edge"><title>Node1&#45;&gt;Node7</title>
<path fill="none" stroke="midnightblue" d="M170.642,-117.101C183.779,-107.382 200.482,-95.0269 211.558,-86.8339"/>
<polygon fill="midnightblue" stroke="midnightblue" points="168.187,-114.563 162.229,-123.324 172.35,-120.191 168.187,-114.563"/>
</g>
<!-- Node2 -->
<g id="node2" class="node"><title>Node2</title>
<g id="a_node2"><a xlink:href="../../da/d2c/classIG_1_1Lib_1_1IpcStreamClientServerBase2.html" target="_top" xlink:title="Base class for named pipe servers and clients, contains common stuff for both.">
<polygon fill="white" stroke="black" points="129.5,-179.5 129.5,-198.5 269.5,-198.5 269.5,-179.5 129.5,-179.5"/>
<text text-anchor="middle" x="199.5" y="-186.5" font-family="Helvetica,sans-Serif" font-size="10.00">IpcStreamClientServerBase2</text>
</a>
</g>
</g>
<!-- Node2&#45;&gt;Node1 -->
<g id="edge1" class="edge"><title>Node2&#45;&gt;Node1</title>
<path fill="none" stroke="midnightblue" d="M184.466,-171.431C175.878,-161.967 165.457,-150.483 158.441,-142.751"/>
<polygon fill="midnightblue" stroke="midnightblue" points="182.097,-174.029 191.409,-179.083 187.281,-169.325 182.097,-174.029"/>
</g>
<!-- Node3 -->
<g id="node3" class="node"><title>Node3</title>
<g id="a_node3"><a xlink:href="../../d5/dd9/classIG_1_1Lib_1_1IpcStreamClientServerBase.html" target="_top" xlink:title="Base class for client and server classes with stream&#45;based communication.">
<polygon fill="white" stroke="black" points="168,-235.5 168,-254.5 303,-254.5 303,-235.5 168,-235.5"/>
<text text-anchor="middle" x="235.5" y="-242.5" font-family="Helvetica,sans-Serif" font-size="10.00">IpcStreamClientServerBase</text>
</a>
</g>
</g>
<!-- Node3&#45;&gt;Node2 -->
<g id="edge2" class="edge"><title>Node3&#45;&gt;Node2</title>
<path fill="none" stroke="midnightblue" d="M223.877,-226.566C217.683,-217.275 210.332,-206.248 205.334,-198.751"/>
<polygon fill="midnightblue" stroke="midnightblue" points="221.096,-228.704 229.555,-235.083 226.92,-224.821 221.096,-228.704"/>
</g>
<!-- Node4 -->
<g id="node4" class="node"><title>Node4</title>
<g id="a_node4"><a xlink:href="../../d3/db6/interfaceIG_1_1Lib_1_1ILockable.html" target="_top" xlink:title="Lockable object, has a Lock property that returns object on which lock must be performed in order to ...">
<polygon fill="white" stroke="black" points="110.5,-291.5 110.5,-310.5 168.5,-310.5 168.5,-291.5 110.5,-291.5"/>
<text text-anchor="middle" x="139.5" y="-298.5" font-family="Helvetica,sans-Serif" font-size="10.00">ILockable</text>
</a>
</g>
</g>
<!-- Node4&#45;&gt;Node1 -->
<g id="edge5" class="edge"><title>Node4&#45;&gt;Node1</title>
<path fill="none" stroke="midnightblue" d="M131.649,-281.735C122.453,-257.736 109.759,-214.474 120.5,-179 124.745,-164.981 134.956,-151.337 142.286,-142.818"/>
<polygon fill="midnightblue" stroke="midnightblue" points="128.529,-283.357 135.531,-291.309 135.016,-280.727 128.529,-283.357"/>
</g>
<!-- Node4&#45;&gt;Node2 -->
<g id="edge4" class="edge"><title>Node4&#45;&gt;Node2</title>
<path fill="none" stroke="midnightblue" d="M142.666,-281.077C145.47,-267.608 150.405,-249.416 158.5,-235 166.573,-220.624 180.032,-207.059 189.315,-198.654"/>
<polygon fill="midnightblue" stroke="midnightblue" points="139.191,-280.621 140.79,-291.094 146.071,-281.91 139.191,-280.621"/>
</g>
<!-- Node4&#45;&gt;Node3 -->
<g id="edge3" class="edge"><title>Node4&#45;&gt;Node3</title>
<path fill="none" stroke="midnightblue" d="M164.074,-286.177C181.739,-276.241 205.013,-263.149 220.114,-254.655"/>
<polygon fill="midnightblue" stroke="midnightblue" points="161.924,-283.371 154.924,-291.324 165.356,-289.472 161.924,-283.371"/>
</g>
<!-- Node6 -->
<g id="node6" class="node"><title>Node6</title>
<g id="a_node6"><a xlink:href="../../df/d39/classIG_1_1Lib_1_1CommandLineApplicationInterpreter_1_1InterpreterPipeClient.html" target="_top" xlink:title="Client to the interpreter pipe server (classes derived from InterpreterPipeServer).">
<polygon fill="white" stroke="black" points="0,-0.5 0,-30.5 155,-30.5 155,-0.5 0,-0.5"/>
<text text-anchor="start" x="8" y="-18.5" font-family="Helvetica,sans-Serif" font-size="10.00">IG.Lib.CommandLineApplication</text>
<text text-anchor="middle" x="77.5" y="-7.5" font-family="Helvetica,sans-Serif" font-size="10.00">Interpreter.InterpreterPipeClient</text>
</a>
</g>
</g>
<!-- Node5&#45;&gt;Node6 -->
<g id="edge7" class="edge"><title>Node5&#45;&gt;Node6</title>
<path fill="none" stroke="midnightblue" d="M77.5,-57.2349C77.5,-48.5864 77.5,-38.4969 77.5,-30.523"/>
<polygon fill="midnightblue" stroke="midnightblue" points="74.0001,-57.4751 77.5,-67.4751 81.0001,-57.4751 74.0001,-57.4751"/>
</g>
</g>
</svg>
