<?xml version="1.0" encoding="UTF-8" standalone="no"?>
<!DOCTYPE svg PUBLIC "-//W3C//DTD SVG 1.1//EN"
 "http://www.w3.org/Graphics/SVG/1.1/DTD/svg11.dtd">
<!-- Generated by graphviz version 2.38.0 (20140413.2041)
 -->
<!-- Title: IG.Num.IRealFunctionOneParametric Pages: 1 -->
<svg width="203pt" height="140pt"
 viewBox="0.00 0.00 203.00 140.00" xmlns="http://www.w3.org/2000/svg" xmlns:xlink="http://www.w3.org/1999/xlink">
<g id="graph0" class="graph" transform="scale(1 1) rotate(0) translate(4 136)">
<title>IG.Num.IRealFunctionOneParametric</title>
<polygon fill="white" stroke="none" points="-4,4 -4,-136 199,-136 199,4 -4,4"/>
<!-- Node1 -->
<g id="node1" class="node"><title>Node1</title>
<g id="a_node1"><a xlink:title="Parameterized real&#45;valued functions of single variable.">
<polygon fill="#bfbfbf" stroke="black" points="0,-0.5 0,-19.5 177,-19.5 177,-0.5 0,-0.5"/>
<text text-anchor="middle" x="88.5" y="-7.5" font-family="Helvetica,sans-Serif" font-size="10.00">IG.Num.IRealFunctionOneParametric</text>
</a>
</g>
</g>
<!-- Node2 -->
<g id="node2" class="node"><title>Node2</title>
<g id="a_node2"><a xlink:href="../../d1/dfb/interfaceIG_1_1Num_1_1IRealFunctionParametric.html" target="_top" xlink:title="Parameterized real&#45;valued functions of single variable.">
<polygon fill="white" stroke="black" points="72,-56.5 72,-75.5 195,-75.5 195,-56.5 72,-56.5"/>
<text text-anchor="middle" x="133.5" y="-63.5" font-family="Helvetica,sans-Serif" font-size="10.00">IRealFunctionParametric</text>
</a>
</g>
</g>
<!-- Node2&#45;&gt;Node1 -->
<g id="edge1" class="edge"><title>Node2&#45;&gt;Node1</title>
<path fill="none" stroke="midnightblue" d="M119.453,-48.144C111.613,-38.7357 102.171,-27.4046 95.7926,-19.7511"/>
<polygon fill="midnightblue" stroke="midnightblue" points="116.979,-50.6414 126.069,-56.083 122.356,-46.1601 116.979,-50.6414"/>
</g>
<!-- Node3 -->
<g id="node3" class="node"><title>Node3</title>
<g id="a_node3"><a xlink:href="../../db/d0e/interfaceIG_1_1Num_1_1IRealFunction.html" target="_top" xlink:title="Interface for real functions.">
<polygon fill="white" stroke="black" points="50.5,-112.5 50.5,-131.5 126.5,-131.5 126.5,-112.5 50.5,-112.5"/>
<text text-anchor="middle" x="88.5" y="-119.5" font-family="Helvetica,sans-Serif" font-size="10.00">IRealFunction</text>
</a>
</g>
</g>
<!-- Node3&#45;&gt;Node1 -->
<g id="edge3" class="edge"><title>Node3&#45;&gt;Node1</title>
<path fill="none" stroke="midnightblue" d="M76.2585,-103.834C71.2526,-95.7882 66.0459,-85.8248 63.5,-76 58.1016,-55.1668 72.2968,-31.8799 81.4482,-19.6235"/>
<polygon fill="midnightblue" stroke="midnightblue" points="73.4196,-105.886 81.8713,-112.275 79.2486,-102.01 73.4196,-105.886"/>
</g>
<!-- Node3&#45;&gt;Node2 -->
<g id="edge2" class="edge"><title>Node3&#45;&gt;Node2</title>
<path fill="none" stroke="midnightblue" d="M102.547,-104.144C110.387,-94.7357 119.829,-83.4046 126.207,-75.7511"/>
<polygon fill="midnightblue" stroke="midnightblue" points="99.6439,-102.16 95.9308,-112.083 105.021,-106.641 99.6439,-102.16"/>
</g>
</g>
</svg>
