<?xml version="1.0" encoding="UTF-8" standalone="no"?>
<!DOCTYPE svg PUBLIC "-//W3C//DTD SVG 1.1//EN"
 "http://www.w3.org/Graphics/SVG/1.1/DTD/svg11.dtd">
<!-- Generated by graphviz version 2.38.0 (20140413.2041)
 -->
<!-- Title: IGLib.Core.ModelParameterSetFixedBase&lt; ModelParameterType &gt; Pages: 1 -->
<svg width="196pt" height="106pt"
 viewBox="0.00 0.00 196.00 106.00" xmlns="http://www.w3.org/2000/svg" xmlns:xlink="http://www.w3.org/1999/xlink">
<g id="graph0" class="graph" transform="scale(1 1) rotate(0) translate(4 102)">
<title>IGLib.Core.ModelParameterSetFixedBase&lt; ModelParameterType &gt;</title>
<polygon fill="white" stroke="none" points="-4,4 -4,-102 192,-102 192,4 -4,4"/>
<!-- Node1 -->
<g id="node1" class="node"><title>Node1</title>
<g id="a_node1"><a xlink:title="Contains a set of model parameters as ModelParameterType &#160;objects, accessible by string keys,...">
<polygon fill="#bfbfbf" stroke="black" points="0,-0.5 0,-30.5 188,-30.5 188,-0.5 0,-0.5"/>
<text text-anchor="start" x="8" y="-18.5" font-family="Helvetica,sans-Serif" font-size="10.00">IGLib.Core.ModelParameter</text>
<text text-anchor="middle" x="94" y="-7.5" font-family="Helvetica,sans-Serif" font-size="10.00">SetFixedBase&lt; ModelParameterType &gt;</text>
</a>
</g>
</g>
<!-- Node2 -->
<g id="node2" class="node"><title>Node2</title>
<g id="a_node2"><a xlink:href="../../df/d1f/interfaceIGLib_1_1Core_1_1IModelParameterSetBaseFixed.html" target="_top" xlink:title="A fixed set of model parameters of the specified type, where parameters cannot be added,...">
<polygon fill="white" stroke="black" points="18,-67.5 18,-97.5 170,-97.5 170,-67.5 18,-67.5"/>
<text text-anchor="start" x="26" y="-85.5" font-family="Helvetica,sans-Serif" font-size="10.00">IModelParameterSetBaseFixed</text>
<text text-anchor="middle" x="94" y="-74.5" font-family="Helvetica,sans-Serif" font-size="10.00">&lt; ModelParameterType &gt;</text>
</a>
</g>
</g>
<!-- Node2&#45;&gt;Node1 -->
<g id="edge1" class="edge"><title>Node2&#45;&gt;Node1</title>
<path fill="none" stroke="midnightblue" d="M94,-57.1081C94,-48.1539 94,-38.3227 94,-30.5765"/>
<polygon fill="midnightblue" stroke="midnightblue" points="90.5001,-57.3959 94,-67.396 97.5001,-57.396 90.5001,-57.3959"/>
</g>
</g>
</svg>
