<?xml version="1.0" encoding="UTF-8" standalone="no"?>
<!DOCTYPE svg PUBLIC "-//W3C//DTD SVG 1.1//EN"
 "http://www.w3.org/Graphics/SVG/1.1/DTD/svg11.dtd">
<!-- Generated by graphviz version 2.38.0 (20140413.2041)
 -->
<!-- Title: IG.Num.ParallelJobServerBase&lt; JobContainerType &gt; Pages: 1 -->
<svg width="150pt" height="162pt"
 viewBox="0.00 0.00 149.50 162.00" xmlns="http://www.w3.org/2000/svg" xmlns:xlink="http://www.w3.org/1999/xlink">
<g id="graph0" class="graph" transform="scale(1 1) rotate(0) translate(4 158)">
<title>IG.Num.ParallelJobServerBase&lt; JobContainerType &gt;</title>
<polygon fill="white" stroke="none" points="-4,4 -4,-158 145.5,-158 145.5,4 -4,4"/>
<!-- Node1 -->
<g id="node1" class="node"><title>Node1</title>
<g id="a_node1"><a xlink:title="Parallel job server. Waits for job requests and executes them in a parallel thread.">
<polygon fill="#bfbfbf" stroke="black" points="2,-67.5 2,-97.5 136,-97.5 136,-67.5 2,-67.5"/>
<text text-anchor="start" x="10" y="-85.5" font-family="Helvetica,sans-Serif" font-size="10.00">IG.Num.ParallelJobServer</text>
<text text-anchor="middle" x="69" y="-74.5" font-family="Helvetica,sans-Serif" font-size="10.00">Base&lt; JobContainerType &gt;</text>
</a>
</g>
</g>
<!-- Node4 -->
<g id="node4" class="node"><title>Node4</title>
<g id="a_node4"><a xlink:href="../../d5/d32/classIG_1_1Num_1_1ParallelJobServerGen.html" target="_top" xlink:title="Parallel job server for job containers that inherit from ParallelJobContainerGen&lt;InputType,...">
<polygon fill="white" stroke="black" points="2.5,-0.5 2.5,-30.5 135.5,-30.5 135.5,-0.5 2.5,-0.5"/>
<text text-anchor="start" x="10.5" y="-18.5" font-family="Helvetica,sans-Serif" font-size="10.00">IG::Num::ParallelJobServer</text>
<text text-anchor="middle" x="69" y="-7.5" font-family="Helvetica,sans-Serif" font-size="10.00">Gen&lt; JobContainerType &gt;</text>
</a>
</g>
</g>
<!-- Node1&#45;&gt;Node4 -->
<g id="edge3" class="edge"><title>Node1&#45;&gt;Node4</title>
<path fill="none" stroke="midnightblue" d="M69,-57.1081C69,-48.1539 69,-38.3227 69,-30.5765"/>
<polygon fill="midnightblue" stroke="midnightblue" points="65.5001,-57.3959 69,-67.396 72.5001,-57.396 65.5001,-57.3959"/>
</g>
<!-- Node2 -->
<g id="node2" class="node"><title>Node2</title>
<g id="a_node2"><a xlink:href="../../d3/db6/interfaceIG_1_1Lib_1_1ILockable.html" target="_top" xlink:title="Lockable object, has a Lock property that returns object on which lock must be performed in order to ...">
<polygon fill="white" stroke="black" points="0,-134.5 0,-153.5 58,-153.5 58,-134.5 0,-134.5"/>
<text text-anchor="middle" x="29" y="-141.5" font-family="Helvetica,sans-Serif" font-size="10.00">ILockable</text>
</a>
</g>
</g>
<!-- Node2&#45;&gt;Node1 -->
<g id="edge1" class="edge"><title>Node2&#45;&gt;Node1</title>
<path fill="none" stroke="midnightblue" d="M40.4532,-125.963C46.5083,-116.956 53.8508,-106.034 59.5728,-97.523"/>
<polygon fill="midnightblue" stroke="midnightblue" points="37.4056,-124.223 34.731,-134.475 43.2149,-128.129 37.4056,-124.223"/>
</g>
<!-- Node3 -->
<g id="node3" class="node"><title>Node3</title>
<g id="a_node3"><a xlink:href="../../dc/d79/interfaceIG_1_1Lib_1_1IIdentifiable.html" target="_top" xlink:title="Classes whose instances have unique integer IDs.">
<polygon fill="white" stroke="black" points="76.5,-134.5 76.5,-153.5 141.5,-153.5 141.5,-134.5 76.5,-134.5"/>
<text text-anchor="middle" x="109" y="-141.5" font-family="Helvetica,sans-Serif" font-size="10.00">IIdentifiable</text>
</a>
</g>
</g>
<!-- Node3&#45;&gt;Node1 -->
<g id="edge2" class="edge"><title>Node3&#45;&gt;Node1</title>
<path fill="none" stroke="midnightblue" d="M97.5468,-125.963C91.4917,-116.956 84.1492,-106.034 78.4272,-97.523"/>
<polygon fill="midnightblue" stroke="midnightblue" points="94.7851,-128.129 103.269,-134.475 100.594,-124.223 94.7851,-128.129"/>
</g>
</g>
</svg>
