<?xml version="1.0" encoding="UTF-8" standalone="no"?>
<!DOCTYPE svg PUBLIC "-//W3C//DTD SVG 1.1//EN"
 "http://www.w3.org/Graphics/SVG/1.1/DTD/svg11.dtd">
<!-- Generated by graphviz version 2.38.0 (20140413.2041)
 -->
<!-- Title: IG.Num.Func.Cubic Pages: 1 -->
<svg width="250pt" height="196pt"
 viewBox="0.00 0.00 250.00 196.00" xmlns="http://www.w3.org/2000/svg" xmlns:xlink="http://www.w3.org/1999/xlink">
<g id="graph0" class="graph" transform="scale(1 1) rotate(0) translate(4 192)">
<title>IG.Num.Func.Cubic</title>
<polygon fill="white" stroke="none" points="-4,4 -4,-192 246,-192 246,4 -4,4"/>
<!-- Node1 -->
<g id="node1" class="node"><title>Node1</title>
<g id="a_node1"><a xlink:title="Cubic function, f(x) = a3*x*x*x + a2*x*x + a1*x + a0. Specific properties: Zero &#45; returns a zero....">
<polygon fill="#bfbfbf" stroke="black" points="38,-0.5 38,-19.5 140,-19.5 140,-0.5 38,-0.5"/>
<text text-anchor="middle" x="89" y="-7.5" font-family="Helvetica,sans-Serif" font-size="10.00">IG.Num.Func.Cubic</text>
</a>
</g>
</g>
<!-- Node2 -->
<g id="node2" class="node"><title>Node2</title>
<g id="a_node2"><a xlink:href="../../d5/d83/classIG_1_1Num_1_1RealFunction.html" target="_top" xlink:title="Represents a real function of a real variabe.">
<polygon fill="white" stroke="black" points="52,-56.5 52,-75.5 126,-75.5 126,-56.5 52,-56.5"/>
<text text-anchor="middle" x="89" y="-63.5" font-family="Helvetica,sans-Serif" font-size="10.00">RealFunction</text>
</a>
</g>
</g>
<!-- Node2&#45;&gt;Node1 -->
<g id="edge1" class="edge"><title>Node2&#45;&gt;Node1</title>
<path fill="none" stroke="midnightblue" d="M89,-45.8045C89,-36.9102 89,-26.7798 89,-19.7511"/>
<polygon fill="midnightblue" stroke="midnightblue" points="85.5001,-46.083 89,-56.083 92.5001,-46.083 85.5001,-46.083"/>
</g>
<!-- Node3 -->
<g id="node3" class="node"><title>Node3</title>
<g id="a_node3"><a xlink:href="../../d6/d30/classIG_1_1Num_1_1RealFunctionBase.html" target="_top" xlink:title="Base class for real functions of real variable.">
<polygon fill="white" stroke="black" points="66,-112.5 66,-131.5 162,-131.5 162,-112.5 66,-112.5"/>
<text text-anchor="middle" x="114" y="-119.5" font-family="Helvetica,sans-Serif" font-size="10.00">RealFunctionBase</text>
</a>
</g>
</g>
<!-- Node3&#45;&gt;Node2 -->
<g id="edge2" class="edge"><title>Node3&#45;&gt;Node2</title>
<path fill="none" stroke="midnightblue" d="M105.659,-102.983C101.415,-93.8168 96.4501,-83.0922 93.0514,-75.7511"/>
<polygon fill="midnightblue" stroke="midnightblue" points="102.494,-104.479 109.872,-112.083 108.847,-101.538 102.494,-104.479"/>
</g>
<!-- Node4 -->
<g id="node4" class="node"><title>Node4</title>
<g id="a_node4"><a xlink:href="../../db/d0e/interfaceIG_1_1Num_1_1IRealFunction.html" target="_top" xlink:title="Interface for real functions.">
<polygon fill="white" stroke="black" points="0,-168.5 0,-187.5 76,-187.5 76,-168.5 0,-168.5"/>
<text text-anchor="middle" x="38" y="-175.5" font-family="Helvetica,sans-Serif" font-size="10.00">IRealFunction</text>
</a>
</g>
</g>
<!-- Node4&#45;&gt;Node1 -->
<g id="edge6" class="edge"><title>Node4&#45;&gt;Node1</title>
<path fill="none" stroke="midnightblue" d="M34.6537,-158.159C31.172,-133.502 28.0887,-89.4946 43,-56 49.9064,-40.4865 64.8282,-27.531 75.8124,-19.565"/>
<polygon fill="midnightblue" stroke="midnightblue" points="31.2392,-158.973 36.2679,-168.299 38.1521,-157.873 31.2392,-158.973"/>
</g>
<!-- Node4&#45;&gt;Node2 -->
<g id="edge4" class="edge"><title>Node4&#45;&gt;Node2</title>
<path fill="none" stroke="midnightblue" d="M41.7055,-158.359C44.7677,-145.024 49.7898,-126.878 57,-112 63.6055,-98.3697 74.2468,-84.4229 81.426,-75.7423"/>
<polygon fill="midnightblue" stroke="midnightblue" points="38.2589,-157.74 39.5892,-168.251 45.104,-159.204 38.2589,-157.74"/>
</g>
<!-- Node4&#45;&gt;Node3 -->
<g id="edge3" class="edge"><title>Node4&#45;&gt;Node3</title>
<path fill="none" stroke="midnightblue" d="M58.5758,-162.38C72.312,-152.62 89.9253,-140.106 101.567,-131.834"/>
<polygon fill="midnightblue" stroke="midnightblue" points="56.3353,-159.679 50.2107,-168.324 60.3898,-165.385 56.3353,-159.679"/>
</g>
<!-- Node5 -->
<g id="node5" class="node"><title>Node5</title>
<g id="a_node5"><a xlink:title=" ">
<polygon fill="white" stroke="#bfbfbf" points="180,-112.5 180,-131.5 242,-131.5 242,-112.5 180,-112.5"/>
<text text-anchor="middle" x="211" y="-119.5" font-family="Helvetica,sans-Serif" font-size="10.00">ICloneable</text>
</a>
</g>
</g>
<!-- Node5&#45;&gt;Node2 -->
<g id="edge5" class="edge"><title>Node5&#45;&gt;Node2</title>
<path fill="none" stroke="midnightblue" d="M182.461,-108.368C159.614,-98.2553 128.195,-84.3486 108.241,-75.5164"/>
<polygon fill="midnightblue" stroke="midnightblue" points="181.108,-111.597 191.669,-112.444 183.941,-105.196 181.108,-111.597"/>
</g>
<!-- Node6 -->
<g id="node6" class="node"><title>Node6</title>
<g id="a_node6"><a xlink:href="../../d3/db6/interfaceIG_1_1Lib_1_1ILockable.html" target="_top" xlink:title="Lockable object, has a Lock property that returns object on which lock must be performed in order to ...">
<polygon fill="white" stroke="black" points="144,-56.5 144,-75.5 202,-75.5 202,-56.5 144,-56.5"/>
<text text-anchor="middle" x="173" y="-63.5" font-family="Helvetica,sans-Serif" font-size="10.00">ILockable</text>
</a>
</g>
</g>
<!-- Node6&#45;&gt;Node1 -->
<g id="edge7" class="edge"><title>Node6&#45;&gt;Node1</title>
<path fill="none" stroke="midnightblue" d="M151.068,-50.9005C135.665,-40.9986 115.554,-28.0705 102.463,-19.6545"/>
<polygon fill="midnightblue" stroke="midnightblue" points="149.199,-53.8605 159.504,-56.324 152.985,-47.9722 149.199,-53.8605"/>
</g>
</g>
</svg>
