<?xml version="1.0" encoding="UTF-8" standalone="no"?>
<!DOCTYPE svg PUBLIC "-//W3C//DTD SVG 1.1//EN"
 "http://www.w3.org/Graphics/SVG/1.1/DTD/svg11.dtd">
<!-- Generated by graphviz version 2.38.0 (20140413.2041)
 -->
<!-- Title: IGLib.Core.ICapturedVar&lt; DeclaredType &gt; Pages: 1 -->
<svg width="270pt" height="162pt"
 viewBox="0.00 0.00 270.00 162.00" xmlns="http://www.w3.org/2000/svg" xmlns:xlink="http://www.w3.org/1999/xlink">
<g id="graph0" class="graph" transform="scale(1 1) rotate(0) translate(4 158)">
<title>IGLib.Core.ICapturedVar&lt; DeclaredType &gt;</title>
<polygon fill="white" stroke="none" points="-4,4 -4,-158 266,-158 266,4 -4,4"/>
<!-- Node1 -->
<g id="node1" class="node"><title>Node1</title>
<g id="a_node1"><a xlink:title="Interface for the CapturedVar&lt;DeclaredType&gt; and its derived types. See documetation for that type for...">
<polygon fill="#bfbfbf" stroke="black" points="68.5,-67.5 68.5,-97.5 190.5,-97.5 190.5,-67.5 68.5,-67.5"/>
<text text-anchor="start" x="76.5" y="-85.5" font-family="Helvetica,sans-Serif" font-size="10.00">IGLib.Core.ICapturedVar</text>
<text text-anchor="middle" x="129.5" y="-74.5" font-family="Helvetica,sans-Serif" font-size="10.00">&lt; DeclaredType &gt;</text>
</a>
</g>
</g>
<!-- Node3 -->
<g id="node3" class="node"><title>Node3</title>
<g id="a_node3"><a xlink:href="../../d6/d7e/classIGLib_1_1Core_1_1CapturedVar.html" target="_top" xlink:title="Captures the declared type of the specified entity, its value at the time of capture,...">
<polygon fill="white" stroke="black" points="0,-0.5 0,-30.5 119,-30.5 119,-0.5 0,-0.5"/>
<text text-anchor="start" x="8" y="-18.5" font-family="Helvetica,sans-Serif" font-size="10.00">IGLib.Core.CapturedVar</text>
<text text-anchor="middle" x="59.5" y="-7.5" font-family="Helvetica,sans-Serif" font-size="10.00">&lt; DeclaredType &gt;</text>
</a>
</g>
</g>
<!-- Node1&#45;&gt;Node3 -->
<g id="edge2" class="edge"><title>Node1&#45;&gt;Node3</title>
<path fill="none" stroke="midnightblue" d="M106.682,-60.3115C96.1813,-50.5612 84.0097,-39.259 74.6593,-30.5765"/>
<polygon fill="midnightblue" stroke="midnightblue" points="104.601,-63.1562 114.311,-67.396 109.365,-58.0266 104.601,-63.1562"/>
</g>
<!-- Node4 -->
<g id="node4" class="node"><title>Node4</title>
<g id="a_node4"><a xlink:href="../../d6/d7e/classIGLib_1_1Core_1_1CapturedVar.html" target="_top" xlink:title="Captures the declared type of the specified entity, its value at the time of capture,...">
<polygon fill="white" stroke="black" points="137,-0.5 137,-30.5 262,-30.5 262,-0.5 137,-0.5"/>
<text text-anchor="start" x="145" y="-18.5" font-family="Helvetica,sans-Serif" font-size="10.00">IGLib::Core::CapturedVar</text>
<text text-anchor="middle" x="199.5" y="-7.5" font-family="Helvetica,sans-Serif" font-size="10.00">&lt; DeclaredType &gt;</text>
</a>
</g>
</g>
<!-- Node1&#45;&gt;Node4 -->
<g id="edge3" class="edge"><title>Node1&#45;&gt;Node4</title>
<path fill="none" stroke="midnightblue" d="M152.318,-60.3115C162.819,-50.5612 174.99,-39.259 184.341,-30.5765"/>
<polygon fill="midnightblue" stroke="midnightblue" points="149.635,-58.0266 144.689,-67.396 154.399,-63.1562 149.635,-58.0266"/>
</g>
<!-- Node2 -->
<g id="node2" class="node"><title>Node2</title>
<g id="a_node2"><a xlink:title=" ">
<polygon fill="white" stroke="#bfbfbf" points="93,-134.5 93,-153.5 166,-153.5 166,-134.5 93,-134.5"/>
<text text-anchor="middle" x="129.5" y="-141.5" font-family="Helvetica,sans-Serif" font-size="10.00">ICapturedVar</text>
</a>
</g>
</g>
<!-- Node2&#45;&gt;Node1 -->
<g id="edge1" class="edge"><title>Node2&#45;&gt;Node1</title>
<path fill="none" stroke="midnightblue" d="M129.5,-124.235C129.5,-115.586 129.5,-105.497 129.5,-97.523"/>
<polygon fill="midnightblue" stroke="midnightblue" points="126,-124.475 129.5,-134.475 133,-124.475 126,-124.475"/>
</g>
</g>
</svg>
