<?xml version="1.0" encoding="UTF-8" standalone="no"?>
<!DOCTYPE svg PUBLIC "-//W3C//DTD SVG 1.1//EN"
 "http://www.w3.org/Graphics/SVG/1.1/DTD/svg11.dtd">
<!-- Generated by graphviz version 2.38.0 (20140413.2041)
 -->
<!-- Title: IG.Num.Experimental.MX Pages: 1 -->
<svg width="172pt" height="220pt"
 viewBox="0.00 0.00 172.00 220.00" xmlns="http://www.w3.org/2000/svg" xmlns:xlink="http://www.w3.org/1999/xlink">
<g id="graph0" class="graph" transform="scale(1 1) rotate(0) translate(4 216)">
<title>IG.Num.Experimental.MX</title>
<polygon fill="white" stroke="none" points="-4,4 -4,-216 168,-216 168,4 -4,4"/>
<!-- Node1 -->
<g id="node1" class="node"><title>Node1</title>
<g id="a_node1"><a xlink:title="Defines some mathematical functions to be used in derived classes. Beside the auxiliary functions alr...">
<polygon fill="#bfbfbf" stroke="black" points="0,-0.5 0,-19.5 126,-19.5 126,-0.5 0,-0.5"/>
<text text-anchor="middle" x="63" y="-7.5" font-family="Helvetica,sans-Serif" font-size="10.00">IG.Num.Experimental.MX</text>
</a>
</g>
</g>
<!-- Node2 -->
<g id="node2" class="node"><title>Node2</title>
<g id="a_node2"><a xlink:href="../../d7/d48/classIG_1_1Num_1_1MExt.html" target="_top" xlink:title="Defines some mathematical functions to be used in derived classes. In addition to functions defined i...">
<polygon fill="white" stroke="black" points="43,-57.5 43,-76.5 83,-76.5 83,-57.5 43,-57.5"/>
<text text-anchor="middle" x="63" y="-64.5" font-family="Helvetica,sans-Serif" font-size="10.00">MExt</text>
</a>
</g>
</g>
<!-- Node2&#45;&gt;Node1 -->
<g id="edge1" class="edge"><title>Node2&#45;&gt;Node1</title>
<path fill="none" stroke="midnightblue" d="M63,-47.1166C63,-37.8173 63,-27.0557 63,-19.7149"/>
<polygon fill="midnightblue" stroke="midnightblue" points="59.5001,-47.4062 63,-57.4063 66.5001,-47.4063 59.5001,-47.4062"/>
</g>
<!-- Node3 -->
<g id="node3" class="node"><title>Node3</title>
<g id="a_node3"><a xlink:href="../../d5/db7/classIG_1_1Num_1_1M.html" target="_top" xlink:title="Defines some mathematical functions to be used in derived and other classes.">
<polygon fill="white" stroke="black" points="48.5,-114.5 48.5,-133.5 77.5,-133.5 77.5,-114.5 48.5,-114.5"/>
<text text-anchor="middle" x="63" y="-121.5" font-family="Helvetica,sans-Serif" font-size="10.00">M</text>
</a>
</g>
</g>
<!-- Node3&#45;&gt;Node2 -->
<g id="edge2" class="edge"><title>Node3&#45;&gt;Node2</title>
<path fill="none" stroke="midnightblue" d="M63,-104.117C63,-94.8173 63,-84.0557 63,-76.7149"/>
<polygon fill="midnightblue" stroke="midnightblue" points="59.5001,-104.406 63,-114.406 66.5001,-104.406 59.5001,-104.406"/>
</g>
<!-- Node4 -->
<g id="node4" class="node"><title>Node4</title>
<g id="a_node4"><a xlink:title=" ">
<polygon fill="white" stroke="#bfbfbf" points="42.5,-192.5 42.5,-211.5 83.5,-211.5 83.5,-192.5 42.5,-192.5"/>
<text text-anchor="middle" x="63" y="-199.5" font-family="Helvetica,sans-Serif" font-size="10.00">static</text>
</a>
</g>
</g>
<!-- Node4&#45;&gt;Node3 -->
<g id="edge3" class="edge"><title>Node4&#45;&gt;Node3</title>
<path fill="none" stroke="#9a32cd" stroke-dasharray="5,2" d="M63,-182.224C63,-166.697 63,-145.358 63,-133.616"/>
<polygon fill="#9a32cd" stroke="#9a32cd" points="59.5001,-182.282 63,-192.282 66.5001,-182.282 59.5001,-182.282"/>
<text text-anchor="middle" x="113.5" y="-166" font-family="Helvetica,sans-Serif" font-size="10.00"> factorials64</text>
<text text-anchor="middle" x="113.5" y="-155" font-family="Helvetica,sans-Serif" font-size="10.00">factorialsArrayChecked</text>
</g>
</g>
</svg>
