<?xml version="1.0" encoding="UTF-8" standalone="no"?>
<!DOCTYPE svg PUBLIC "-//W3C//DTD SVG 1.1//EN"
 "http://www.w3.org/Graphics/SVG/1.1/DTD/svg11.dtd">
<!-- Generated by graphviz version 2.38.0 (20140413.2041)
 -->
<!-- Title: IG.Reflection.SerializationBinderBase Pages: 1 -->
<!--zoomable 88 -->
<svg id="main" version="1.1" xmlns="http://www.w3.org/2000/svg" xmlns:xlink="http://www.w3.org/1999/xlink" xml:space="preserve" onload="init(evt)">
<style type="text/css"><![CDATA[
.edge:hover path { stroke: red; }
.edge:hover polygon { stroke: red; fill: red; }
]]></style>
<script type="text/javascript"><![CDATA[
var edges = document.getElementsByTagName('g');
if (edges && edges.length) {
  for (var i=0;i<edges.length;i++) {
    if (edges[i].id.substr(0,4)=='edge') {
      edges[i].setAttribute('class','edge');
    }
  }
}
]]></script>
        <defs>
                <circle id="rim" cx="0" cy="0" r="7"/>
                <circle id="rim2" cx="0" cy="0" r="3.5"/>
                <g id="zoomPlus">
                        <use xlink:href="#rim" fill="#404040">
                                <set attributeName="fill" to="#808080" begin="zoomplus.mouseover" end="zoomplus.mouseout"/>
                        </use>
                        <path d="M-4,0h8M0,-4v8" fill="none" stroke="white" stroke-width="1.5" pointer-events="none"/>
                </g>
                <g id="zoomMin">
                        <use xlink:href="#rim" fill="#404040">
                                <set attributeName="fill" to="#808080" begin="zoomminus.mouseover" end="zoomminus.mouseout"/>
                        </use>
                        <path d="M-4,0h8" fill="none" stroke="white" stroke-width="1.5" pointer-events="none"/>
                </g>
                <g id="dirArrow">
                        <path fill="none" stroke="white" stroke-width="1.5" d="M0,-3.0v7 M-2.5,-0.5L0,-3.0L2.5,-0.5"/>
                </g>
               <g id="resetDef">
                       <use xlink:href="#rim2" fill="#404040">
                               <set attributeName="fill" to="#808080" begin="reset.mouseover" end="reset.mouseout"/>
                       </use>
               </g>
        </defs>

<script type="text/javascript">
var viewWidth = 605;
var viewHeight = 88;
var sectionId = 'dynsection-0';
</script>
<script xlink:href="../../svgpan.js"/>
<svg id="graph" class="graph">
<g id="viewport">
<title>IG.Reflection.SerializationBinderBase</title>
<polygon fill="white" stroke="none" points="-4,4 -4,-84 601,-84 601,4 -4,4"/>
<!-- Node1 -->
<g id="node1" class="node"><title>Node1</title>
<g id="a_node1"><a xlink:title="Enables to reference classes that both inherit from the framework&#39;s SerializationBinder (necessary fo...">
<polygon fill="#bfbfbf" stroke="black" points="136,-24.5 136,-54.5 264,-54.5 264,-24.5 136,-24.5"/>
<text text-anchor="start" x="144" y="-42.5" font-family="Helvetica,sans-Serif" font-size="10.00">IG.Reflection.Serialization</text>
<text text-anchor="middle" x="200" y="-31.5" font-family="Helvetica,sans-Serif" font-size="10.00">BinderBase</text>
</a>
</g>
</g>
<!-- Node4 -->
<g id="node4" class="node"><title>Node4</title>
<g id="a_node4"><a xlink:href="../../d3/dae/classIG_1_1Reflection_1_1SerializationBinderCascadedImmutable.html" target="_top" xlink:title="A cascaded SerializationBinder class that maps the assembly and type information of the serialized ob...">
<polygon fill="white" stroke="black" points="300,-49.5 300,-79.5 433,-79.5 433,-49.5 300,-49.5"/>
<text text-anchor="start" x="308" y="-67.5" font-family="Helvetica,sans-Serif" font-size="10.00">IG.Reflection.Serialization</text>
<text text-anchor="middle" x="366.5" y="-56.5" font-family="Helvetica,sans-Serif" font-size="10.00">BinderCascadedImmutable</text>
</a>
</g>
</g>
<!-- Node1&#45;&gt;Node4 -->
<g id="edge3" class="edge"><title>Node1&#45;&gt;Node4</title>
<path fill="none" stroke="midnightblue" d="M274.098,-50.6091C282.662,-51.9106 291.359,-53.2324 299.813,-54.5172"/>
<polygon fill="midnightblue" stroke="midnightblue" points="274.542,-47.1365 264.13,-49.0942 273.49,-54.057 274.542,-47.1365"/>
</g>
<!-- Node6 -->
<g id="node6" class="node"><title>Node6</title>
<g id="a_node6"><a xlink:href="../../da/daa/classIG_1_1Reflection_1_1SerializationBinderSimple.html" target="_top" xlink:title="A simple SerializationBinder, defines a single mapping from the original assembly and type name to a ...">
<polygon fill="white" stroke="black" points="302.5,-0.5 302.5,-30.5 430.5,-30.5 430.5,-0.5 302.5,-0.5"/>
<text text-anchor="start" x="310.5" y="-18.5" font-family="Helvetica,sans-Serif" font-size="10.00">IG.Reflection.Serialization</text>
<text text-anchor="middle" x="366.5" y="-7.5" font-family="Helvetica,sans-Serif" font-size="10.00">BinderSimple</text>
</a>
</g>
</g>
<!-- Node1&#45;&gt;Node6 -->
<g id="edge5" class="edge"><title>Node1&#45;&gt;Node6</title>
<path fill="none" stroke="midnightblue" d="M274.202,-28.8201C283.563,-27.4543 293.083,-26.0654 302.268,-24.7254"/>
<polygon fill="midnightblue" stroke="midnightblue" points="273.519,-25.3825 264.13,-30.2896 274.53,-32.3092 273.519,-25.3825"/>
</g>
<!-- Node2 -->
<g id="node2" class="node"><title>Node2</title>
<g id="a_node2"><a xlink:title=" ">
<polygon fill="white" stroke="#bfbfbf" points="1,-49 1,-68 99,-68 99,-49 1,-49"/>
<text text-anchor="middle" x="50" y="-56" font-family="Helvetica,sans-Serif" font-size="10.00">SerializationBinder</text>
</a>
</g>
</g>
<!-- Node2&#45;&gt;Node1 -->
<g id="edge1" class="edge"><title>Node2&#45;&gt;Node1</title>
<path fill="none" stroke="midnightblue" d="M109.156,-51.0341C117.911,-49.9101 126.977,-48.7462 135.831,-47.6095"/>
<polygon fill="midnightblue" stroke="midnightblue" points="108.524,-47.5863 99.0514,-52.3312 109.416,-54.5293 108.524,-47.5863"/>
</g>
<!-- Node3 -->
<g id="node3" class="node"><title>Node3</title>
<g id="a_node3"><a xlink:href="../../d6/dde/interfaceIG_1_1Reflection_1_1ISerializationBinder.html" target="_top" xlink:title="Interface implemented by IGLib&#39;s classes based on the framework&#39;s SerializationBinder class.">
<polygon fill="white" stroke="black" points="0,-11 0,-30 100,-30 100,-11 0,-11"/>
<text text-anchor="middle" x="50" y="-18" font-family="Helvetica,sans-Serif" font-size="10.00">ISerializationBinder</text>
</a>
</g>
</g>
<!-- Node3&#45;&gt;Node1 -->
<g id="edge2" class="edge"><title>Node3&#45;&gt;Node1</title>
<path fill="none" stroke="midnightblue" d="M110.391,-28.1245C118.811,-29.2055 127.494,-30.3202 135.98,-31.4096"/>
<polygon fill="midnightblue" stroke="midnightblue" points="110.646,-24.6286 100.282,-26.8267 109.755,-31.5717 110.646,-24.6286"/>
</g>
<!-- Node5 -->
<g id="node5" class="node"><title>Node5</title>
<g id="a_node5"><a xlink:href="../../d1/d07/classIG_1_1Reflection_1_1SerializationBinderCascaded.html" target="_top" xlink:title="A cascaded SerializationBinder class that maps the assembly and type information of the serialized ob...">
<polygon fill="white" stroke="black" points="469,-49.5 469,-79.5 597,-79.5 597,-49.5 469,-49.5"/>
<text text-anchor="start" x="477" y="-67.5" font-family="Helvetica,sans-Serif" font-size="10.00">IG.Reflection.Serialization</text>
<text text-anchor="middle" x="533" y="-56.5" font-family="Helvetica,sans-Serif" font-size="10.00">BinderCascaded</text>
</a>
</g>
</g>
<!-- Node4&#45;&gt;Node5 -->
<g id="edge4" class="edge"><title>Node4&#45;&gt;Node5</title>
<path fill="none" stroke="midnightblue" d="M443.706,-64.5C452.16,-64.5 460.699,-64.5 468.964,-64.5"/>
<polygon fill="midnightblue" stroke="midnightblue" points="443.461,-61.0001 433.461,-64.5 443.461,-68.0001 443.461,-61.0001"/>
</g>
<!-- Node7 -->
<g id="node7" class="node"><title>Node7</title>
<g id="a_node7"><a xlink:href="../../da/d8e/classIG_1_1Reflection_1_1SerializationBinderElementary.html" target="_top" xlink:title="A SerializationBinder, defines a single mapping from the original assembly and type name to a target ...">
<polygon fill="white" stroke="black" points="469,-0.5 469,-30.5 597,-30.5 597,-0.5 469,-0.5"/>
<text text-anchor="start" x="477" y="-18.5" font-family="Helvetica,sans-Serif" font-size="10.00">IG.Reflection.Serialization</text>
<text text-anchor="middle" x="533" y="-7.5" font-family="Helvetica,sans-Serif" font-size="10.00">BinderElementary</text>
</a>
</g>
</g>
<!-- Node6&#45;&gt;Node7 -->
<g id="edge6" class="edge"><title>Node6&#45;&gt;Node7</title>
<path fill="none" stroke="midnightblue" d="M440.702,-15.5C450.063,-15.5 459.583,-15.5 468.768,-15.5"/>
<polygon fill="midnightblue" stroke="midnightblue" points="440.63,-12.0001 430.63,-15.5 440.63,-19.0001 440.63,-12.0001"/>
</g>
</g>
</svg>
        <g id="navigator" transform="translate(0 0)" fill="#404254">
                <rect fill="#f2f5e9" fill-opacity="0.5" stroke="#606060" stroke-width=".5" x="0" y="0" width="60" height="60"/>
                <use id="zoomplus" xlink:href="#zoomPlus" x="17" y="9" onmousedown="handleZoom(evt,'in')"/>
                <use id="zoomminus" xlink:href="#zoomMin" x="42" y="9" onmousedown="handleZoom(evt,'out')"/>
                <use id="reset" xlink:href="#resetDef" x="30" y="36" onmousedown="handleReset()"/>
                <g id="arrowUp" xlink:href="#dirArrow" transform="translate(30 24)" onmousedown="handlePan(0,-1)">
                  <use xlink:href="#rim" fill="#404040">
                        <set attributeName="fill" to="#808080" begin="arrowUp.mouseover" end="arrowUp.mouseout"/>
                  </use>
                  <path fill="none" stroke="white" stroke-width="1.5" d="M0,-3.0v7 M-2.5,-0.5L0,-3.0L2.5,-0.5"/>
                </g>
                <g id="arrowRight" xlink:href="#dirArrow" transform="rotate(90) translate(36 -43)" onmousedown="handlePan(1,0)">
                  <use xlink:href="#rim" fill="#404040">
                        <set attributeName="fill" to="#808080" begin="arrowRight.mouseover" end="arrowRight.mouseout"/>
                  </use>
                  <path fill="none" stroke="white" stroke-width="1.5" d="M0,-3.0v7 M-2.5,-0.5L0,-3.0L2.5,-0.5"/>
                </g>
                <g id="arrowDown" xlink:href="#dirArrow" transform="rotate(180) translate(-30 -48)" onmousedown="handlePan(0,1)">
                  <use xlink:href="#rim" fill="#404040">
                        <set attributeName="fill" to="#808080" begin="arrowDown.mouseover" end="arrowDown.mouseout"/>
                  </use>
                  <path fill="none" stroke="white" stroke-width="1.5" d="M0,-3.0v7 M-2.5,-0.5L0,-3.0L2.5,-0.5"/>
                </g>
                <g id="arrowLeft" xlink:href="#dirArrow" transform="rotate(270) translate(-36 17)" onmousedown="handlePan(-1,0)">
                  <use xlink:href="#rim" fill="#404040">
                        <set attributeName="fill" to="#808080" begin="arrowLeft.mouseover" end="arrowLeft.mouseout"/>
                  </use>
                  <path fill="none" stroke="white" stroke-width="1.5" d="M0,-3.0v7 M-2.5,-0.5L0,-3.0L2.5,-0.5"/>
                </g>
        </g>
        <svg viewBox="0 0 15 15" width="100%" height="30px" preserveAspectRatio="xMaxYMin meet">
         <g id="arrow_out" transform="scale(0.3 0.3)">
          <a xlink:href="classIG_1_1Reflection_1_1SerializationBinderBase__inherit__graph_org.svg" target="_base">
           <rect id="button" ry="5" rx="5" y="6" x="6" height="38" width="38"
                fill="#f2f5e9" fill-opacity="0.5" stroke="#606060" stroke-width="1.0"/>
           <path id="arrow"
             d="M 11.500037,31.436501 C 11.940474,20.09759 22.043105,11.32322 32.158766,21.979434 L 37.068811,17.246167 C 37.068811,17.246167 37.088388,32 37.088388,32 L 22.160133,31.978069 C 22.160133,31.978069 26.997745,27.140456 26.997745,27.140456 C 18.528582,18.264221 13.291696,25.230495 11.500037,31.436501 z"
             style="fill:#404040;"/>
          </a>
         </g>
        </svg>
</svg>
