<?xml version="1.0" encoding="UTF-8" standalone="no"?>
<!DOCTYPE svg PUBLIC "-//W3C//DTD SVG 1.1//EN"
 "http://www.w3.org/Graphics/SVG/1.1/DTD/svg11.dtd">
<!-- Generated by graphviz version 2.38.0 (20140413.2041)
 -->
<!-- Title: IG.Lib.ReporterConsole Pages: 1 -->
<svg width="454pt" height="308pt"
 viewBox="0.00 0.00 453.50 308.00" xmlns="http://www.w3.org/2000/svg" xmlns:xlink="http://www.w3.org/1999/xlink">
<g id="graph0" class="graph" transform="scale(1 1) rotate(0) translate(4 304)">
<title>IG.Lib.ReporterConsole</title>
<polygon fill="white" stroke="none" points="-4,4 -4,-304 449.5,-304 449.5,4 -4,4"/>
<!-- Node1 -->
<g id="node1" class="node"><title>Node1</title>
<g id="a_node1"><a xlink:title=" ">
<polygon fill="#bfbfbf" stroke="black" points="124,-0.5 124,-19.5 241,-19.5 241,-0.5 124,-0.5"/>
<text text-anchor="middle" x="182.5" y="-7.5" font-family="Helvetica,sans-Serif" font-size="10.00">IG.Lib.ReporterConsole</text>
</a>
</g>
</g>
<!-- Node2 -->
<g id="node2" class="node"><title>Node2</title>
<g id="a_node2"><a xlink:href="../../da/df9/classIG_1_1Lib_1_1ReporterConsole__Base.html" target="_top" xlink:title="Base class for reporter classes that contain either reporting via system console, reporting via messa...">
<polygon fill="white" stroke="black" points="81.5,-56.5 81.5,-75.5 197.5,-75.5 197.5,-56.5 81.5,-56.5"/>
<text text-anchor="middle" x="139.5" y="-63.5" font-family="Helvetica,sans-Serif" font-size="10.00">ReporterConsole_Base</text>
</a>
</g>
</g>
<!-- Node2&#45;&gt;Node1 -->
<g id="edge1" class="edge"><title>Node2&#45;&gt;Node1</title>
<path fill="none" stroke="midnightblue" d="M152.922,-48.144C160.414,-38.7357 169.437,-27.4046 175.532,-19.7511"/>
<polygon fill="midnightblue" stroke="midnightblue" points="150.092,-46.0799 146.601,-56.083 155.568,-50.4404 150.092,-46.0799"/>
</g>
<!-- Node3 -->
<g id="node3" class="node"><title>Node3</title>
<g id="a_node3"><a xlink:href="../../d4/de2/classIG_1_1Lib_1_1ReporterBase.html" target="_top" xlink:title="Base IGlib class for reporting, tracing and logging; provides a global reporter and a basis for creat...">
<polygon fill="white" stroke="black" points="85.5,-112.5 85.5,-131.5 161.5,-131.5 161.5,-112.5 85.5,-112.5"/>
<text text-anchor="middle" x="123.5" y="-119.5" font-family="Helvetica,sans-Serif" font-size="10.00">ReporterBase</text>
</a>
</g>
</g>
<!-- Node3&#45;&gt;Node2 -->
<g id="edge2" class="edge"><title>Node3&#45;&gt;Node2</title>
<path fill="none" stroke="midnightblue" d="M129.012,-102.396C131.689,-93.362 134.778,-82.936 136.907,-75.7511"/>
<polygon fill="midnightblue" stroke="midnightblue" points="125.627,-101.501 126.142,-112.083 132.339,-103.489 125.627,-101.501"/>
</g>
<!-- Node4 -->
<g id="node4" class="node"><title>Node4</title>
<g id="a_node4"><a xlink:href="../../db/db1/interfaceIG_1_1Lib_1_1IReporter.html" target="_top" xlink:title="Interface from which majority of reporters inherit. Includes generic reporting functionality plus tra...">
<polygon fill="white" stroke="black" points="146.5,-168.5 146.5,-187.5 202.5,-187.5 202.5,-168.5 146.5,-168.5"/>
<text text-anchor="middle" x="174.5" y="-175.5" font-family="Helvetica,sans-Serif" font-size="10.00">IReporter</text>
</a>
</g>
</g>
<!-- Node4&#45;&gt;Node3 -->
<g id="edge3" class="edge"><title>Node4&#45;&gt;Node3</title>
<path fill="none" stroke="midnightblue" d="M159.122,-160.718C150.133,-151.2 139.141,-139.561 131.765,-131.751"/>
<polygon fill="midnightblue" stroke="midnightblue" points="156.668,-163.216 166.078,-168.083 161.757,-158.41 156.668,-163.216"/>
</g>
<!-- Node10 -->
<g id="node10" class="node"><title>Node10</title>
<g id="a_node10"><a xlink:href="../../dd/d3c/interfaceIG_1_1Lib_1_1IReporterConsole.html" target="_top" xlink:title=" ">
<polygon fill="white" stroke="black" points="180,-112.5 180,-131.5 271,-131.5 271,-112.5 180,-112.5"/>
<text text-anchor="middle" x="225.5" y="-119.5" font-family="Helvetica,sans-Serif" font-size="10.00">IReporterConsole</text>
</a>
</g>
</g>
<!-- Node4&#45;&gt;Node10 -->
<g id="edge13" class="edge"><title>Node4&#45;&gt;Node10</title>
<path fill="none" stroke="midnightblue" d="M189.878,-160.718C198.867,-151.2 209.859,-139.561 217.235,-131.751"/>
<polygon fill="midnightblue" stroke="midnightblue" points="187.243,-158.41 182.922,-168.083 192.332,-163.216 187.243,-158.41"/>
</g>
<!-- Node5 -->
<g id="node5" class="node"><title>Node5</title>
<g id="a_node5"><a xlink:title=" ">
<polygon fill="white" stroke="#bfbfbf" points="0,-224.5 0,-243.5 67,-243.5 67,-224.5 0,-224.5"/>
<text text-anchor="middle" x="33.5" y="-231.5" font-family="Helvetica,sans-Serif" font-size="10.00">IDisposable</text>
</a>
</g>
</g>
<!-- Node5&#45;&gt;Node4 -->
<g id="edge4" class="edge"><title>Node5&#45;&gt;Node4</title>
<path fill="none" stroke="midnightblue" d="M65.4286,-220.772C91.914,-210.629 128.892,-196.467 152.263,-187.516"/>
<polygon fill="midnightblue" stroke="midnightblue" points="63.9287,-217.599 55.8419,-224.444 66.4322,-224.136 63.9287,-217.599"/>
</g>
<!-- Node6 -->
<g id="node6" class="node"><title>Node6</title>
<g id="a_node6"><a xlink:href="../../de/d0d/interfaceIG_1_1Lib_1_1IReporterBase.html" target="_top" xlink:title="Interface from which all reporters inherit.">
<polygon fill="white" stroke="black" points="195.5,-280.5 195.5,-299.5 273.5,-299.5 273.5,-280.5 195.5,-280.5"/>
<text text-anchor="middle" x="234.5" y="-287.5" font-family="Helvetica,sans-Serif" font-size="10.00">IReporterBase</text>
</a>
</g>
</g>
<!-- Node6&#45;&gt;Node4 -->
<g id="edge5" class="edge"><title>Node6&#45;&gt;Node4</title>
<path fill="none" stroke="midnightblue" d="M185.326,-283.773C159.695,-278.268 130.443,-267.006 114.5,-244 99.1043,-221.784 133.237,-199.392 156.074,-187.567"/>
<polygon fill="midnightblue" stroke="midnightblue" points="184.823,-287.24 195.302,-285.675 186.134,-280.364 184.823,-287.24"/>
</g>
<!-- Node7 -->
<g id="node7" class="node"><title>Node7</title>
<g id="a_node7"><a xlink:href="../../d2/d8e/interfaceIG_1_1Lib_1_1IReporterTextWriter.html" target="_top" xlink:title="Reporters that utilize writing messages to files. Messages are typically formatted as multi&#45;line mess...">
<polygon fill="white" stroke="black" points="124,-224.5 124,-243.5 225,-243.5 225,-224.5 124,-224.5"/>
<text text-anchor="middle" x="174.5" y="-231.5" font-family="Helvetica,sans-Serif" font-size="10.00">IReporterTextWriter</text>
</a>
</g>
</g>
<!-- Node6&#45;&gt;Node7 -->
<g id="edge7" class="edge"><title>Node6&#45;&gt;Node7</title>
<path fill="none" stroke="midnightblue" d="M217.319,-273.537C206.621,-263.909 193.244,-251.869 184.315,-243.834"/>
<polygon fill="midnightblue" stroke="midnightblue" points="215.086,-276.236 224.86,-280.324 219.768,-271.033 215.086,-276.236"/>
</g>
<!-- Node8 -->
<g id="node8" class="node"><title>Node8</title>
<g id="a_node8"><a xlink:href="../../d1/ddb/interfaceIG_1_1Lib_1_1IReporterTextLogger.html" target="_top" xlink:title="Reporters that utilize logging messages to files. IReporterTextLogger typically outputs (to a file) m...">
<polygon fill="white" stroke="black" points="243.5,-224.5 243.5,-243.5 347.5,-243.5 347.5,-224.5 243.5,-224.5"/>
<text text-anchor="middle" x="295.5" y="-231.5" font-family="Helvetica,sans-Serif" font-size="10.00">IReporterTextLogger</text>
</a>
</g>
</g>
<!-- Node6&#45;&gt;Node8 -->
<g id="edge9" class="edge"><title>Node6&#45;&gt;Node8</title>
<path fill="none" stroke="midnightblue" d="M251.967,-273.537C262.844,-263.909 276.444,-251.869 285.521,-243.834"/>
<polygon fill="midnightblue" stroke="midnightblue" points="249.468,-271.075 244.301,-280.324 254.108,-276.316 249.468,-271.075"/>
</g>
<!-- Node9 -->
<g id="node9" class="node"><title>Node9</title>
<g id="a_node9"><a xlink:href="../../d0/d0e/interfaceIG_1_1Lib_1_1IReporterTrace.html" target="_top" xlink:title="Reporters that utilize system&#39;s trace utility.">
<polygon fill="white" stroke="black" points="365.5,-224.5 365.5,-243.5 445.5,-243.5 445.5,-224.5 365.5,-224.5"/>
<text text-anchor="middle" x="405.5" y="-231.5" font-family="Helvetica,sans-Serif" font-size="10.00">IReporterTrace</text>
</a>
</g>
</g>
<!-- Node6&#45;&gt;Node9 -->
<g id="edge11" class="edge"><title>Node6&#45;&gt;Node9</title>
<path fill="none" stroke="midnightblue" d="M271.536,-277.304C303.757,-267.129 349.689,-252.625 378.531,-243.516"/>
<polygon fill="midnightblue" stroke="midnightblue" points="270.077,-274.095 261.595,-280.444 272.185,-280.77 270.077,-274.095"/>
</g>
<!-- Node7&#45;&gt;Node4 -->
<g id="edge6" class="edge"><title>Node7&#45;&gt;Node4</title>
<path fill="none" stroke="midnightblue" d="M174.5,-213.805C174.5,-204.91 174.5,-194.78 174.5,-187.751"/>
<polygon fill="midnightblue" stroke="midnightblue" points="171,-214.083 174.5,-224.083 178,-214.083 171,-214.083"/>
</g>
<!-- Node8&#45;&gt;Node4 -->
<g id="edge8" class="edge"><title>Node8&#45;&gt;Node4</title>
<path fill="none" stroke="midnightblue" d="M267.194,-220.368C244.535,-210.255 213.374,-196.349 193.583,-187.516"/>
<polygon fill="midnightblue" stroke="midnightblue" points="265.769,-223.564 276.327,-224.444 268.622,-217.172 265.769,-223.564"/>
</g>
<!-- Node9&#45;&gt;Node4 -->
<g id="edge10" class="edge"><title>Node9&#45;&gt;Node4</title>
<path fill="none" stroke="midnightblue" d="M358.997,-222.129C312.168,-211.182 241.451,-194.651 202.575,-185.563"/>
<polygon fill="midnightblue" stroke="midnightblue" points="358.363,-225.575 368.897,-224.444 359.957,-218.759 358.363,-225.575"/>
</g>
<!-- Node10&#45;&gt;Node1 -->
<g id="edge14" class="edge"><title>Node10&#45;&gt;Node1</title>
<path fill="none" stroke="midnightblue" d="M221.205,-102.622C217.86,-89.4131 212.742,-71.3094 206.5,-56 201.151,-42.8819 193.113,-28.5833 187.837,-19.7041"/>
<polygon fill="midnightblue" stroke="midnightblue" points="217.818,-103.507 223.583,-112.396 224.62,-101.852 217.818,-103.507"/>
</g>
<!-- Node10&#45;&gt;Node2 -->
<g id="edge12" class="edge"><title>Node10&#45;&gt;Node2</title>
<path fill="none" stroke="midnightblue" d="M203.045,-106.901C187.276,-96.9986 166.686,-84.0705 153.283,-75.6545"/>
<polygon fill="midnightblue" stroke="midnightblue" points="201.352,-109.97 211.683,-112.324 205.075,-104.042 201.352,-109.97"/>
</g>
</g>
</svg>
