<?xml version="1.0" encoding="UTF-8" standalone="no"?>
<!DOCTYPE svg PUBLIC "-//W3C//DTD SVG 1.1//EN"
 "http://www.w3.org/Graphics/SVG/1.1/DTD/svg11.dtd">
<!-- Generated by graphviz version 2.38.0 (20140413.2041)
 -->
<!-- Title: IGLib.Gr3D.IParametricSurfaceMeshGenerator Pages: 1 -->
<svg width="360pt" height="88pt"
 viewBox="0.00 0.00 360.00 88.00" xmlns="http://www.w3.org/2000/svg" xmlns:xlink="http://www.w3.org/1999/xlink">
<g id="graph0" class="graph" transform="scale(1 1) rotate(0) translate(4 84)">
<title>IGLib.Gr3D.IParametricSurfaceMeshGenerator</title>
<polygon fill="white" stroke="none" points="-4,4 -4,-84 356,-84 356,4 -4,4"/>
<!-- Node1 -->
<g id="node1" class="node"><title>Node1</title>
<g id="a_node1"><a xlink:title=" ">
<polygon fill="#bfbfbf" stroke="black" points="0,-24.5 0,-54.5 150,-54.5 150,-24.5 0,-24.5"/>
<text text-anchor="start" x="8" y="-42.5" font-family="Helvetica,sans-Serif" font-size="10.00">IGLib.Gr3D.IParametricSurface</text>
<text text-anchor="middle" x="75" y="-31.5" font-family="Helvetica,sans-Serif" font-size="10.00">MeshGenerator</text>
</a>
</g>
</g>
<!-- Node2 -->
<g id="node2" class="node"><title>Node2</title>
<g id="a_node2"><a xlink:href="../../d8/d18/classIGLib_1_1Gr3D_1_1IGLib_1_1Gr3D_1_1ParametricSurfaceMeshGenerator.html" target="_top" xlink:title="Generates regular structured meshes of parametric surfaces in 3D space.">
<polygon fill="white" stroke="black" points="186,-49.5 186,-79.5 352,-79.5 352,-49.5 186,-49.5"/>
<text text-anchor="start" x="194" y="-67.5" font-family="Helvetica,sans-Serif" font-size="10.00">IGLib.Gr3D.IGLib.Gr3D.Parametric</text>
<text text-anchor="middle" x="269" y="-56.5" font-family="Helvetica,sans-Serif" font-size="10.00">SurfaceMeshGenerator</text>
</a>
</g>
</g>
<!-- Node1&#45;&gt;Node2 -->
<g id="edge1" class="edge"><title>Node1&#45;&gt;Node2</title>
<path fill="none" stroke="midnightblue" d="M160.207,-50.4644C168.768,-51.5791 177.456,-52.7104 185.993,-53.822"/>
<polygon fill="midnightblue" stroke="midnightblue" points="160.6,-46.9862 150.232,-49.1657 159.697,-53.9276 160.6,-46.9862"/>
</g>
<!-- Node3 -->
<g id="node3" class="node"><title>Node3</title>
<g id="a_node3"><a xlink:href="../../d9/d8d/classIGLib_1_1Gr3D_1_1ParametricSurfaceMeshGeneratorNotImplemented.html" target="_top" xlink:title="Generates regular (one set of parameter values for each independent variable) structured (nodes can b...">
<polygon fill="white" stroke="black" points="192,-0.5 192,-30.5 346,-30.5 346,-0.5 192,-0.5"/>
<text text-anchor="start" x="200" y="-18.5" font-family="Helvetica,sans-Serif" font-size="10.00">IGLib.Gr3D.ParametricSurface</text>
<text text-anchor="middle" x="269" y="-7.5" font-family="Helvetica,sans-Serif" font-size="10.00">MeshGeneratorNotImplemented</text>
</a>
</g>
</g>
<!-- Node1&#45;&gt;Node3 -->
<g id="edge2" class="edge"><title>Node1&#45;&gt;Node3</title>
<path fill="none" stroke="midnightblue" d="M160.214,-28.9732C170.704,-27.6619 181.385,-26.3269 191.745,-25.0319"/>
<polygon fill="midnightblue" stroke="midnightblue" points="159.721,-25.5076 150.232,-30.221 160.589,-32.4535 159.721,-25.5076"/>
</g>
</g>
</svg>
