<?xml version="1.0" encoding="UTF-8" standalone="no"?>
<!DOCTYPE svg PUBLIC "-//W3C//DTD SVG 1.1//EN"
 "http://www.w3.org/Graphics/SVG/1.1/DTD/svg11.dtd">
<!-- Generated by graphviz version 2.38.0 (20140413.2041)
 -->
<!-- Title: IG.Num.ScalarFunctionRadialOneParametric Pages: 1 -->
<svg width="1385pt" height="302pt"
 viewBox="0.00 0.00 1385.00 302.00" xmlns="http://www.w3.org/2000/svg" xmlns:xlink="http://www.w3.org/1999/xlink">
<g id="graph0" class="graph" transform="scale(1 1) rotate(0) translate(4 298)">
<title>IG.Num.ScalarFunctionRadialOneParametric</title>
<polygon fill="white" stroke="none" points="-4,4 -4,-298 1381,-298 1381,4 -4,4"/>
<!-- Node1 -->
<g id="node1" class="node"><title>Node1</title>
<g id="a_node1"><a xlink:title="Base class for one parametric families of radial scalar functions with affine transformation of co&#45;or...">
<polygon fill="#bfbfbf" stroke="black" points="1232,-182 1232,-212 1377,-212 1377,-182 1232,-182"/>
<text text-anchor="start" x="1240" y="-200" font-family="Helvetica,sans-Serif" font-size="10.00">IG.Num.ScalarFunctionRadial</text>
<text text-anchor="middle" x="1304.5" y="-189" font-family="Helvetica,sans-Serif" font-size="10.00">OneParametric</text>
</a>
</g>
</g>
<!-- Node2 -->
<g id="node2" class="node"><title>Node2</title>
<g id="a_node2"><a xlink:href="../../d4/d52/classIG_1_1Num_1_1ScalarFunctionRadialParametric.html" target="_top" xlink:title="Parametric scalar function.">
<polygon fill="white" stroke="black" points="921.5,-170.5 921.5,-189.5 1077.5,-189.5 1077.5,-170.5 921.5,-170.5"/>
<text text-anchor="middle" x="999.5" y="-177.5" font-family="Helvetica,sans-Serif" font-size="10.00">ScalarFunctionRadialParametric</text>
</a>
</g>
</g>
<!-- Node2&#45;&gt;Node1 -->
<g id="edge1" class="edge"><title>Node2&#45;&gt;Node1</title>
<path fill="none" stroke="midnightblue" d="M1087.93,-184.905C1133.59,-187.467 1188.76,-190.562 1231.86,-192.98"/>
<polygon fill="midnightblue" stroke="midnightblue" points="1087.92,-181.4 1077.74,-184.334 1087.53,-188.389 1087.92,-181.4"/>
</g>
<!-- Node3 -->
<g id="node3" class="node"><title>Node3</title>
<g id="a_node3"><a xlink:href="../../df/dd1/classIG_1_1Num_1_1ScalarFunctionRadial.html" target="_top" xlink:title="Radial scalar functions.">
<polygon fill="white" stroke="black" points="651,-131.5 651,-150.5 760,-150.5 760,-131.5 651,-131.5"/>
<text text-anchor="middle" x="705.5" y="-138.5" font-family="Helvetica,sans-Serif" font-size="10.00">ScalarFunctionRadial</text>
</a>
</g>
</g>
<!-- Node3&#45;&gt;Node2 -->
<g id="edge2" class="edge"><title>Node3&#45;&gt;Node2</title>
<path fill="none" stroke="midnightblue" d="M769.971,-149.477C816.276,-155.662 879.072,-164.049 927.121,-170.467"/>
<polygon fill="midnightblue" stroke="midnightblue" points="770.433,-146.008 760.057,-148.153 769.506,-152.946 770.433,-146.008"/>
</g>
<!-- Node4 -->
<g id="node4" class="node"><title>Node4</title>
<g id="a_node4"><a xlink:href="../../d2/d85/classIG_1_1Num_1_1ScalarFunctionBase.html" target="_top" xlink:title="Base class for scalar functions with affine transformation of co&#45;ordinates. The reference function is...">
<polygon fill="white" stroke="black" points="439,-108.5 439,-127.5 543,-127.5 543,-108.5 439,-108.5"/>
<text text-anchor="middle" x="491" y="-115.5" font-family="Helvetica,sans-Serif" font-size="10.00">ScalarFunctionBase</text>
</a>
</g>
</g>
<!-- Node4&#45;&gt;Node3 -->
<g id="edge3" class="edge"><title>Node4&#45;&gt;Node3</title>
<path fill="none" stroke="midnightblue" d="M553.361,-124.641C584.167,-127.976 621.142,-131.978 650.809,-135.189"/>
<polygon fill="midnightblue" stroke="midnightblue" points="553.488,-121.135 543.169,-123.538 552.735,-128.094 553.488,-121.135"/>
</g>
<!-- Node5 -->
<g id="node5" class="node"><title>Node5</title>
<g id="a_node5"><a xlink:href="../../d2/d9e/classIG_1_1Num_1_1ScalarFunctionUntransformedBase.html" target="_top" xlink:title="Base class for defining scalar functions without possibility of affine transformation of parameters.">
<polygon fill="white" stroke="black" points="184,-136.5 184,-155.5 351,-155.5 351,-136.5 184,-136.5"/>
<text text-anchor="middle" x="267.5" y="-143.5" font-family="Helvetica,sans-Serif" font-size="10.00">ScalarFunctionUntransformedBase</text>
</a>
</g>
</g>
<!-- Node5&#45;&gt;Node4 -->
<g id="edge4" class="edge"><title>Node5&#45;&gt;Node4</title>
<path fill="none" stroke="midnightblue" d="M352.091,-135.153C357.813,-134.421 363.491,-133.698 369,-133 391.89,-130.101 417.224,-126.951 438.771,-124.29"/>
<polygon fill="midnightblue" stroke="midnightblue" points="351.245,-131.733 341.771,-136.476 352.135,-138.676 351.245,-131.733"/>
</g>
<!-- Node6 -->
<g id="node6" class="node"><title>Node6</title>
<g id="a_node6"><a xlink:href="../../d8/d56/interfaceIG_1_1Num_1_1IScalarFunctionUntransformed.html" target="_top" xlink:title="Scalar functions of vector arguments.">
<polygon fill="white" stroke="black" points="0,-159.5 0,-178.5 147,-178.5 147,-159.5 0,-159.5"/>
<text text-anchor="middle" x="73.5" y="-166.5" font-family="Helvetica,sans-Serif" font-size="10.00">IScalarFunctionUntransformed</text>
</a>
</g>
</g>
<!-- Node6&#45;&gt;Node5 -->
<g id="edge5" class="edge"><title>Node6&#45;&gt;Node5</title>
<path fill="none" stroke="midnightblue" d="M157.294,-159.082C167.172,-157.899 177.241,-156.693 187.07,-155.515"/>
<polygon fill="midnightblue" stroke="midnightblue" points="156.6,-155.64 147.087,-160.305 157.432,-162.59 156.6,-155.64"/>
</g>
<!-- Node7 -->
<g id="node7" class="node"><title>Node7</title>
<g id="a_node7"><a xlink:href="../../dd/d1e/interfaceIG_1_1Num_1_1IScalarFunction.html" target="_top" xlink:title="Scalar functions of vector arguments, with eventual affine transformation of parameters....">
<polygon fill="white" stroke="black" points="225.5,-179.5 225.5,-198.5 309.5,-198.5 309.5,-179.5 225.5,-179.5"/>
<text text-anchor="middle" x="267.5" y="-186.5" font-family="Helvetica,sans-Serif" font-size="10.00">IScalarFunction</text>
</a>
</g>
</g>
<!-- Node6&#45;&gt;Node7 -->
<g id="edge7" class="edge"><title>Node6&#45;&gt;Node7</title>
<path fill="none" stroke="midnightblue" d="M157.104,-177.605C180.674,-180.06 205.343,-182.629 225.276,-184.706"/>
<polygon fill="midnightblue" stroke="midnightblue" points="157.396,-174.116 147.087,-176.561 156.67,-181.078 157.396,-174.116"/>
</g>
<!-- Node7&#45;&gt;Node1 -->
<g id="edge18" class="edge"><title>Node7&#45;&gt;Node1</title>
<path fill="none" stroke="midnightblue" d="M287.467,-205.147C324.061,-234.591 408.052,-294 490,-294 490,-294 490,-294 1000.5,-294 1097.86,-294 1122.85,-279.199 1214,-245 1237.28,-236.267 1262.06,-222.593 1279.64,-212.069"/>
<polygon fill="midnightblue" stroke="midnightblue" points="289.554,-202.333 279.605,-198.69 285.111,-207.742 289.554,-202.333"/>
</g>
<!-- Node7&#45;&gt;Node2 -->
<g id="edge13" class="edge"><title>Node7&#45;&gt;Node2</title>
<path fill="none" stroke="midnightblue" d="M319.724,-188.368C445.777,-186.814 771.611,-182.797 921.266,-180.952"/>
<polygon fill="midnightblue" stroke="midnightblue" points="319.532,-184.87 309.576,-188.494 319.618,-191.87 319.532,-184.87"/>
</g>
<!-- Node7&#45;&gt;Node3 -->
<g id="edge11" class="edge"><title>Node7&#45;&gt;Node3</title>
<path fill="none" stroke="midnightblue" d="M319.472,-183.388C402.479,-174.25 566.081,-156.239 650.81,-146.911"/>
<polygon fill="midnightblue" stroke="midnightblue" points="319.075,-179.911 309.518,-184.484 319.841,-186.869 319.075,-179.911"/>
</g>
<!-- Node7&#45;&gt;Node4 -->
<g id="edge6" class="edge"><title>Node7&#45;&gt;Node4</title>
<path fill="none" stroke="midnightblue" d="M313.951,-176.554C326.057,-173.027 339.081,-169.043 351,-165 359.129,-162.243 360.922,-160.904 369,-158 399.711,-146.961 435.201,-135.363 459.768,-127.516"/>
<polygon fill="midnightblue" stroke="midnightblue" points="312.688,-173.275 304.042,-179.399 314.62,-180.003 312.688,-173.275"/>
</g>
<!-- Node12 -->
<g id="node12" class="node"><title>Node12</title>
<g id="a_node12"><a xlink:href="../../d4/d4e/interfaceIG_1_1Num_1_1IScalarFunctionParametric.html" target="_top" xlink:title="Parameterized scalar functions with affine transformation of coordinates.">
<polygon fill="white" stroke="black" points="640,-222.5 640,-241.5 771,-241.5 771,-222.5 640,-222.5"/>
<text text-anchor="middle" x="705.5" y="-229.5" font-family="Helvetica,sans-Serif" font-size="10.00">IScalarFunctionParametric</text>
</a>
</g>
</g>
<!-- Node7&#45;&gt;Node12 -->
<g id="edge15" class="edge"><title>Node7&#45;&gt;Node12</title>
<path fill="none" stroke="midnightblue" d="M319.932,-199.906C335.624,-202.913 352.966,-205.918 369,-208 462.813,-220.182 572.245,-226.557 639.961,-229.596"/>
<polygon fill="midnightblue" stroke="midnightblue" points="320.376,-196.426 309.89,-197.939 319.03,-203.296 320.376,-196.426"/>
</g>
<!-- Node8 -->
<g id="node8" class="node"><title>Node8</title>
<g id="a_node8"><a xlink:href="../../d8/d86/interfaceIG_1_1Num_1_1IMatrix.html" target="_top" xlink:title="Generic Matrix interface.">
<polygon fill="white" stroke="black" points="197.5,-78 197.5,-108 337.5,-108 337.5,-78 197.5,-78"/>
<text text-anchor="start" x="205.5" y="-96" font-family="Helvetica,sans-Serif" font-size="10.00">IG.Num.IMatrix&lt; Component</text>
<text text-anchor="middle" x="267.5" y="-85" font-family="Helvetica,sans-Serif" font-size="10.00">Type &gt;</text>
</a>
</g>
</g>
<!-- Node8&#45;&gt;Node4 -->
<g id="edge8" class="edge"><title>Node8&#45;&gt;Node4</title>
<path fill="none" stroke="#9a32cd" stroke-dasharray="5,2" d="M347.812,-88.9947C370.296,-89.0854 394.715,-90.3537 417,-94 421.674,-94.7648 443.623,-102.065 462.245,-108.416"/>
<polygon fill="#9a32cd" stroke="#9a32cd" points="347.62,-85.4953 337.633,-89.0316 347.645,-92.4952 347.62,-85.4953"/>
<text text-anchor="middle" x="393" y="-97" font-family="Helvetica,sans-Serif" font-size="10.00"> _refHess</text>
</g>
<!-- Node9 -->
<g id="node9" class="node"><title>Node9</title>
<g id="a_node9"><a xlink:href="../../d3/d24/interfaceIG_1_1Num_1_1IVector.html" target="_top" xlink:title="Generic Vector interface">
<polygon fill="white" stroke="black" points="214,-38.5 214,-57.5 321,-57.5 321,-38.5 214,-38.5"/>
<text text-anchor="middle" x="267.5" y="-45.5" font-family="Helvetica,sans-Serif" font-size="10.00">IG.Num.IVector&lt; T &gt;</text>
</a>
</g>
</g>
<!-- Node9&#45;&gt;Node4 -->
<g id="edge9" class="edge"><title>Node9&#45;&gt;Node4</title>
<path fill="none" stroke="#9a32cd" stroke-dasharray="5,2" d="M331.4,-41.8533C359.761,-42.1525 392.343,-47.0747 417,-64 431.421,-73.8993 421.783,-87.5424 435,-99 439.504,-102.904 444.853,-106.018 450.419,-108.498"/>
<polygon fill="#9a32cd" stroke="#9a32cd" points="331.135,-38.3553 321.165,-41.9386 331.194,-45.3551 331.135,-38.3553"/>
<text text-anchor="middle" x="393" y="-78" font-family="Helvetica,sans-Serif" font-size="10.00"> _refParam</text>
<text text-anchor="middle" x="393" y="-67" font-family="Helvetica,sans-Serif" font-size="10.00">_refGrad</text>
</g>
<!-- Node10 -->
<g id="node10" class="node"><title>Node10</title>
<g id="a_node10"><a xlink:href="../../d5/d50/interfaceIG_1_1Num_1_1IAffineTransformation.html" target="_top" xlink:title="Affine Transformation.">
<polygon fill="white" stroke="black" points="196,-0.5 196,-19.5 339,-19.5 339,-0.5 196,-0.5"/>
<text text-anchor="middle" x="267.5" y="-7.5" font-family="Helvetica,sans-Serif" font-size="10.00">IG.Num.IAffineTransformation</text>
</a>
</g>
</g>
<!-- Node10&#45;&gt;Node4 -->
<g id="edge10" class="edge"><title>Node10&#45;&gt;Node4</title>
<path fill="none" stroke="#9a32cd" stroke-dasharray="5,2" d="M349.289,-5.66154C373.57,-8.33497 398.613,-15.6207 417,-32 440.024,-52.5093 413.975,-76.446 435,-99 438.651,-102.916 443.147,-106.026 447.983,-108.494"/>
<polygon fill="#9a32cd" stroke="#9a32cd" points="349.578,-2.17356 339.316,-4.80747 348.981,-9.14804 349.578,-2.17356"/>
<text text-anchor="middle" x="393" y="-35" font-family="Helvetica,sans-Serif" font-size="10.00"> _transf</text>
</g>
<!-- Node11 -->
<g id="node11" class="node"><title>Node11</title>
<g id="a_node11"><a xlink:href="../../db/d0e/interfaceIG_1_1Num_1_1IRealFunction.html" target="_top" xlink:title="Interface for real functions.">
<polygon fill="white" stroke="black" points="435,-70.5 435,-89.5 547,-89.5 547,-70.5 435,-70.5"/>
<text text-anchor="middle" x="491" y="-77.5" font-family="Helvetica,sans-Serif" font-size="10.00">IG.Num.IRealFunction</text>
</a>
</g>
</g>
<!-- Node11&#45;&gt;Node3 -->
<g id="edge12" class="edge"><title>Node11&#45;&gt;Node3</title>
<path fill="none" stroke="#9a32cd" stroke-dasharray="5,2" d="M544.208,-92.0945C564.417,-97.3724 587.56,-104.157 608,-112 616.351,-115.204 617.618,-117.878 626,-121 636.807,-125.025 648.745,-128.524 659.98,-131.42"/>
<polygon fill="#9a32cd" stroke="#9a32cd" points="544.798,-88.6331 534.243,-89.5506 543.067,-95.4155 544.798,-88.6331"/>
<text text-anchor="middle" x="586.5" y="-115" font-family="Helvetica,sans-Serif" font-size="10.00"> _function</text>
</g>
<!-- Node12&#45;&gt;Node1 -->
<g id="edge19" class="edge"><title>Node12&#45;&gt;Node1</title>
<path fill="none" stroke="midnightblue" d="M781.124,-238.803C788.51,-239.291 795.898,-239.706 803,-240 985.705,-247.56 1034.57,-256.28 1214,-221 1226.47,-218.548 1239.77,-215.324 1252.19,-212.038"/>
<polygon fill="midnightblue" stroke="midnightblue" points="781.3,-235.307 771.079,-238.097 780.809,-242.29 781.3,-235.307"/>
</g>
<!-- Node12&#45;&gt;Node2 -->
<g id="edge14" class="edge"><title>Node12&#45;&gt;Node2</title>
<path fill="none" stroke="midnightblue" d="M770.21,-220.654C822.428,-211.355 895.5,-198.342 944.789,-189.565"/>
<polygon fill="midnightblue" stroke="midnightblue" points="769.289,-217.263 760.057,-222.462 770.516,-224.155 769.289,-217.263"/>
</g>
<!-- Node15 -->
<g id="node15" class="node"><title>Node15</title>
<g id="a_node15"><a xlink:href="../../d1/d49/interfaceIG_1_1Num_1_1IScalarFunctionOneParametric.html" target="_top" xlink:title=" ">
<polygon fill="white" stroke="black" points="925,-208.5 925,-227.5 1074,-227.5 1074,-208.5 925,-208.5"/>
<text text-anchor="middle" x="999.5" y="-215.5" font-family="Helvetica,sans-Serif" font-size="10.00">IScalarFunctionOneParametric</text>
</a>
</g>
</g>
<!-- Node12&#45;&gt;Node15 -->
<g id="edge21" class="edge"><title>Node12&#45;&gt;Node15</title>
<path fill="none" stroke="midnightblue" d="M781.388,-228.409C825.476,-226.296 881.011,-223.633 924.878,-221.53"/>
<polygon fill="midnightblue" stroke="midnightblue" points="781.125,-224.918 771.304,-228.893 781.46,-231.91 781.125,-224.918"/>
</g>
<!-- Node13 -->
<g id="node13" class="node"><title>Node13</title>
<g id="a_node13"><a xlink:href="../../d1/dfb/interfaceIG_1_1Num_1_1IRealFunctionParametric.html" target="_top" xlink:title="Parameterized real&#45;valued functions of single variable.">
<polygon fill="white" stroke="black" points="626,-92.5 626,-111.5 785,-111.5 785,-92.5 626,-92.5"/>
<text text-anchor="middle" x="705.5" y="-99.5" font-family="Helvetica,sans-Serif" font-size="10.00">IG.Num.IRealFunctionParametric</text>
</a>
</g>
</g>
<!-- Node13&#45;&gt;Node2 -->
<g id="edge16" class="edge"><title>Node13&#45;&gt;Node2</title>
<path fill="none" stroke="#9a32cd" stroke-dasharray="5,2" d="M775.706,-113.349C811.12,-119.849 854.721,-128.922 893,-140 922.353,-148.495 955.108,-161.49 976.219,-170.346"/>
<polygon fill="#9a32cd" stroke="#9a32cd" points="775.933,-109.834 765.471,-111.501 774.689,-116.723 775.933,-109.834"/>
<text text-anchor="middle" x="848" y="-143" font-family="Helvetica,sans-Serif" font-size="10.00"> _functionParametric</text>
</g>
<!-- Node14 -->
<g id="node14" class="node"><title>Node14</title>
<g id="a_node14"><a xlink:href="../../db/d0e/interfaceIG_1_1Num_1_1IRealFunction.html" target="_top" xlink:title="Interface for real functions.">
<polygon fill="white" stroke="black" points="453,-32.5 453,-51.5 529,-51.5 529,-32.5 453,-32.5"/>
<text text-anchor="middle" x="491" y="-39.5" font-family="Helvetica,sans-Serif" font-size="10.00">IRealFunction</text>
</a>
</g>
</g>
<!-- Node14&#45;&gt;Node13 -->
<g id="edge17" class="edge"><title>Node14&#45;&gt;Node13</title>
<path fill="none" stroke="midnightblue" d="M532.466,-54.546C558.988,-62.6533 594.461,-73.2789 626,-82 638.877,-85.5608 653.008,-89.2331 665.688,-92.4437"/>
<polygon fill="midnightblue" stroke="midnightblue" points="533.353,-51.1572 522.767,-51.5713 531.301,-57.8495 533.353,-51.1572"/>
</g>
<!-- Node16 -->
<g id="node16" class="node"><title>Node16</title>
<g id="a_node16"><a xlink:href="../../da/d11/interfaceIG_1_1Num_1_1IRealFunctionOneParametric.html" target="_top" xlink:title="Parameterized real&#45;valued functions of single variable.">
<polygon fill="white" stroke="black" points="911,-104.5 911,-123.5 1088,-123.5 1088,-104.5 911,-104.5"/>
<text text-anchor="middle" x="999.5" y="-111.5" font-family="Helvetica,sans-Serif" font-size="10.00">IG.Num.IRealFunctionOneParametric</text>
</a>
</g>
</g>
<!-- Node14&#45;&gt;Node16 -->
<g id="edge25" class="edge"><title>Node14&#45;&gt;Node16</title>
<path fill="none" stroke="midnightblue" d="M539.336,-31.2881C619.621,-15.9478 784.335,2.9952 893,-70 904.365,-77.6346 899.55,-87.4933 911,-95 916.85,-98.8353 923.347,-101.909 930.083,-104.371"/>
<polygon fill="midnightblue" stroke="midnightblue" points="538.176,-27.9497 529.046,-33.324 539.535,-34.8166 538.176,-27.9497"/>
</g>
<!-- Node17 -->
<g id="node17" class="node"><title>Node17</title>
<g id="a_node17"><a xlink:href="../../d1/dfb/interfaceIG_1_1Num_1_1IRealFunctionParametric.html" target="_top" xlink:title="Parameterized real&#45;valued functions of single variable.">
<polygon fill="white" stroke="black" points="644,-53.5 644,-72.5 767,-72.5 767,-53.5 644,-53.5"/>
<text text-anchor="middle" x="705.5" y="-60.5" font-family="Helvetica,sans-Serif" font-size="10.00">IRealFunctionParametric</text>
</a>
</g>
</g>
<!-- Node14&#45;&gt;Node17 -->
<g id="edge24" class="edge"><title>Node14&#45;&gt;Node17</title>
<path fill="none" stroke="midnightblue" d="M539.076,-46.6522C569.921,-49.7005 610.536,-53.7141 643.802,-57.0016"/>
<polygon fill="midnightblue" stroke="midnightblue" points="539.31,-43.1584 529.015,-45.6579 538.622,-50.1245 539.31,-43.1584"/>
</g>
<!-- Node15&#45;&gt;Node1 -->
<g id="edge20" class="edge"><title>Node15&#45;&gt;Node1</title>
<path fill="none" stroke="midnightblue" d="M1084.25,-212.196C1130.57,-208.985 1187.54,-205.037 1231.79,-201.97"/>
<polygon fill="midnightblue" stroke="midnightblue" points="1083.97,-208.707 1074.23,-212.89 1084.45,-215.69 1083.97,-208.707"/>
</g>
<!-- Node16&#45;&gt;Node1 -->
<g id="edge22" class="edge"><title>Node16&#45;&gt;Node1</title>
<path fill="none" stroke="#9a32cd" stroke-dasharray="5,2" d="M1046.9,-126.075C1090.2,-137.418 1156.57,-154.995 1214,-171 1226.47,-174.475 1239.89,-178.318 1252.44,-181.958"/>
<polygon fill="#9a32cd" stroke="#9a32cd" points="1047.77,-122.686 1037.21,-123.541 1046,-129.458 1047.77,-122.686"/>
<text text-anchor="middle" x="1160" y="-174" font-family="Helvetica,sans-Serif" font-size="10.00"> _functionOneParametric</text>
</g>
<!-- Node17&#45;&gt;Node16 -->
<g id="edge23" class="edge"><title>Node17&#45;&gt;Node16</title>
<path fill="none" stroke="midnightblue" d="M777.224,-69.7679C812.323,-73.9075 855.194,-80.1427 893,-89 901.21,-90.9236 902.868,-92.7687 911,-95 923.592,-98.4551 937.342,-101.688 950.133,-104.474"/>
<polygon fill="midnightblue" stroke="midnightblue" points="777.404,-66.2656 767.07,-68.6028 776.606,-73.22 777.404,-66.2656"/>
</g>
<!-- Node18 -->
<g id="node18" class="node"><title>Node18</title>
<g id="a_node18"><a xlink:title=" ">
<polygon fill="white" stroke="#bfbfbf" points="979,-66.5 979,-85.5 1020,-85.5 1020,-66.5 979,-66.5"/>
<text text-anchor="middle" x="999.5" y="-73.5" font-family="Helvetica,sans-Serif" font-size="10.00">static</text>
</a>
</g>
</g>
<!-- Node18&#45;&gt;Node1 -->
<g id="edge26" class="edge"><title>Node18&#45;&gt;Node1</title>
<path fill="none" stroke="#9a32cd" stroke-dasharray="5,2" d="M1029.97,-79.0867C1072.47,-84.4244 1152.6,-97.8492 1214,-128 1242.71,-142.096 1271.14,-166.215 1288.01,-181.879"/>
<polygon fill="#9a32cd" stroke="#9a32cd" points="1030.36,-75.6078 1020.01,-77.8986 1029.53,-82.5585 1030.36,-75.6078"/>
<text text-anchor="middle" x="1160" y="-131" font-family="Helvetica,sans-Serif" font-size="10.00"> _parAux</text>
</g>
</g>
</svg>
