<?xml version="1.0" encoding="UTF-8" standalone="no"?>
<!DOCTYPE svg PUBLIC "-//W3C//DTD SVG 1.1//EN"
 "http://www.w3.org/Graphics/SVG/1.1/DTD/svg11.dtd">
<!-- Generated by graphviz version 2.38.0 (20140413.2041)
 -->
<!-- Title: IG.Num.MExt Pages: 1 -->
<svg width="147pt" height="163pt"
 viewBox="0.00 0.00 147.00 163.00" xmlns="http://www.w3.org/2000/svg" xmlns:xlink="http://www.w3.org/1999/xlink">
<g id="graph0" class="graph" transform="scale(1 1) rotate(0) translate(4 159)">
<title>IG.Num.MExt</title>
<polygon fill="white" stroke="none" points="-4,4 -4,-159 143,-159 143,4 -4,4"/>
<!-- Node1 -->
<g id="node1" class="node"><title>Node1</title>
<g id="a_node1"><a xlink:title="Defines some mathematical functions to be used in derived classes. In addition to functions defined i...">
<polygon fill="#bfbfbf" stroke="black" points="0,-0.5 0,-19.5 76,-19.5 76,-0.5 0,-0.5"/>
<text text-anchor="middle" x="38" y="-7.5" font-family="Helvetica,sans-Serif" font-size="10.00">IG.Num.MExt</text>
</a>
</g>
</g>
<!-- Node2 -->
<g id="node2" class="node"><title>Node2</title>
<g id="a_node2"><a xlink:href="../../d5/db7/classIG_1_1Num_1_1M.html" target="_top" xlink:title="Defines some mathematical functions to be used in derived and other classes.">
<polygon fill="white" stroke="black" points="23.5,-57.5 23.5,-76.5 52.5,-76.5 52.5,-57.5 23.5,-57.5"/>
<text text-anchor="middle" x="38" y="-64.5" font-family="Helvetica,sans-Serif" font-size="10.00">M</text>
</a>
</g>
</g>
<!-- Node2&#45;&gt;Node1 -->
<g id="edge1" class="edge"><title>Node2&#45;&gt;Node1</title>
<path fill="none" stroke="midnightblue" d="M38,-47.1166C38,-37.8173 38,-27.0557 38,-19.7149"/>
<polygon fill="midnightblue" stroke="midnightblue" points="34.5001,-47.4062 38,-57.4063 41.5001,-47.4063 34.5001,-47.4062"/>
</g>
<!-- Node3 -->
<g id="node3" class="node"><title>Node3</title>
<g id="a_node3"><a xlink:title=" ">
<polygon fill="white" stroke="#bfbfbf" points="17.5,-135.5 17.5,-154.5 58.5,-154.5 58.5,-135.5 17.5,-135.5"/>
<text text-anchor="middle" x="38" y="-142.5" font-family="Helvetica,sans-Serif" font-size="10.00">static</text>
</a>
</g>
</g>
<!-- Node3&#45;&gt;Node2 -->
<g id="edge2" class="edge"><title>Node3&#45;&gt;Node2</title>
<path fill="none" stroke="#9a32cd" stroke-dasharray="5,2" d="M38,-125.224C38,-109.697 38,-88.3582 38,-76.6165"/>
<polygon fill="#9a32cd" stroke="#9a32cd" points="34.5001,-125.282 38,-135.282 41.5001,-125.282 34.5001,-125.282"/>
<text text-anchor="middle" x="88.5" y="-109" font-family="Helvetica,sans-Serif" font-size="10.00"> factorials64</text>
<text text-anchor="middle" x="88.5" y="-98" font-family="Helvetica,sans-Serif" font-size="10.00">factorialsArrayChecked</text>
</g>
</g>
</svg>
