<?xml version="1.0" encoding="UTF-8" standalone="no"?>
<!DOCTYPE svg PUBLIC "-//W3C//DTD SVG 1.1//EN"
 "http://www.w3.org/Graphics/SVG/1.1/DTD/svg11.dtd">
<!-- Generated by graphviz version 2.38.0 (20140413.2041)
 -->
<!-- Title: IG.Gr.GraphicPrimitiveBase Pages: 1 -->
<svg width="384pt" height="106pt"
 viewBox="0.00 0.00 383.50 106.00" xmlns="http://www.w3.org/2000/svg" xmlns:xlink="http://www.w3.org/1999/xlink">
<g id="graph0" class="graph" transform="scale(1 1) rotate(0) translate(4 102)">
<title>IG.Gr.GraphicPrimitiveBase</title>
<polygon fill="white" stroke="none" points="-4,4 -4,-102 379.5,-102 379.5,4 -4,4"/>
<!-- Node1 -->
<g id="node1" class="node"><title>Node1</title>
<g id="a_node1"><a xlink:title="Base class for graphic primitives.">
<polygon fill="#bfbfbf" stroke="black" points="136.5,-0.5 136.5,-19.5 272.5,-19.5 272.5,-0.5 136.5,-0.5"/>
<text text-anchor="middle" x="204.5" y="-7.5" font-family="Helvetica,sans-Serif" font-size="10.00">IG.Gr.GraphicPrimitiveBase</text>
</a>
</g>
</g>
<!-- Node2 -->
<g id="node2" class="node"><title>Node2</title>
<g id="a_node2"><a xlink:href="../../dd/d5f/interfaceIG_1_1Gr_1_1IGraphicPrimitive.html" target="_top" xlink:title=" ">
<polygon fill="white" stroke="black" points="0,-78.5 0,-97.5 89,-97.5 89,-78.5 0,-78.5"/>
<text text-anchor="middle" x="44.5" y="-85.5" font-family="Helvetica,sans-Serif" font-size="10.00">IGraphicPrimitive</text>
</a>
</g>
</g>
<!-- Node2&#45;&gt;Node1 -->
<g id="edge1" class="edge"><title>Node2&#45;&gt;Node1</title>
<path fill="none" stroke="midnightblue" d="M71.9625,-73.9553C104.651,-58.4283 158.319,-32.9362 186.277,-19.6557"/>
<polygon fill="midnightblue" stroke="midnightblue" points="70.0741,-70.9775 62.543,-78.4296 73.0775,-77.3004 70.0741,-70.9775"/>
</g>
<!-- Node3 -->
<g id="node3" class="node"><title>Node3</title>
<g id="a_node3"><a xlink:href="../../d2/d42/interfaceIG_1_1Gr_1_1IGraphicSet.html" target="_top" xlink:title="Graphic set that contain graphic primitives and other graphic sets.">
<polygon fill="white" stroke="black" points="107.5,-78.5 107.5,-97.5 201.5,-97.5 201.5,-78.5 107.5,-78.5"/>
<text text-anchor="middle" x="154.5" y="-85.5" font-family="Helvetica,sans-Serif" font-size="10.00">IG.Gr.IGraphicSet</text>
</a>
</g>
</g>
<!-- Node3&#45;&gt;Node1 -->
<g id="edge2" class="edge"><title>Node3&#45;&gt;Node1</title>
<path fill="none" stroke="#9a32cd" stroke-dasharray="5,2" d="M165.97,-69.5654C176.244,-53.9486 190.881,-31.7002 198.831,-19.6165"/>
<polygon fill="#9a32cd" stroke="#9a32cd" points="162.808,-68.004 160.236,-78.2818 168.656,-71.8513 162.808,-68.004"/>
<text text-anchor="middle" x="203.5" y="-46.5" font-family="Helvetica,sans-Serif" font-size="10.00"> _parent</text>
</g>
<!-- Node4 -->
<g id="node4" class="node"><title>Node4</title>
<g id="a_node4"><a xlink:href="../../df/d16/structIG_1_1Num_1_1vec3.html" target="_top" xlink:title="3D vector, struct implementation.">
<polygon fill="white" stroke="black" points="219.5,-78.5 219.5,-97.5 291.5,-97.5 291.5,-78.5 219.5,-78.5"/>
<text text-anchor="middle" x="255.5" y="-85.5" font-family="Helvetica,sans-Serif" font-size="10.00">IG.Num.vec3</text>
</a>
</g>
</g>
<!-- Node4&#45;&gt;Node1 -->
<g id="edge3" class="edge"><title>Node4&#45;&gt;Node1</title>
<path fill="none" stroke="#9a32cd" stroke-dasharray="5,2" d="M245.503,-69.6225C239.876,-60.117 232.576,-48.2282 225.5,-38 221.175,-31.7489 215.925,-24.9989 211.757,-19.8117"/>
<polygon fill="#9a32cd" stroke="#9a32cd" points="242.618,-71.6235 250.682,-78.4958 248.664,-68.0949 242.618,-71.6235"/>
<text text-anchor="middle" x="256" y="-46.5" font-family="Helvetica,sans-Serif" font-size="10.00"> _coord</text>
</g>
<!-- Node5 -->
<g id="node5" class="node"><title>Node5</title>
<g id="a_node5"><a xlink:href="../../dd/d52/structIG_1_1Lib_1_1color.html" target="_top" xlink:title="Extended color representation. Stores RGB components and opacity as double numbers ranging fom 0 to 1...">
<polygon fill="white" stroke="black" points="309.5,-78.5 309.5,-97.5 375.5,-97.5 375.5,-78.5 309.5,-78.5"/>
<text text-anchor="middle" x="342.5" y="-85.5" font-family="Helvetica,sans-Serif" font-size="10.00">IG.Lib.color</text>
</a>
</g>
</g>
<!-- Node5&#45;&gt;Node1 -->
<g id="edge4" class="edge"><title>Node5&#45;&gt;Node1</title>
<path fill="none" stroke="#9a32cd" stroke-dasharray="5,2" d="M324.866,-71.765C312.075,-61.2654 294.015,-47.5388 276.5,-38 262.666,-30.4655 246.287,-24.1404 232.65,-19.5105"/>
<polygon fill="#9a32cd" stroke="#9a32cd" points="322.897,-74.6819 332.808,-78.4273 327.396,-69.3189 322.897,-74.6819"/>
<text text-anchor="middle" x="333" y="-52" font-family="Helvetica,sans-Serif" font-size="10.00"> _fillColors</text>
<text text-anchor="middle" x="333" y="-41" font-family="Helvetica,sans-Serif" font-size="10.00">_lineColors</text>
</g>
</g>
</svg>
