<?xml version="1.0" encoding="UTF-8" standalone="no"?>
<!DOCTYPE svg PUBLIC "-//W3C//DTD SVG 1.1//EN"
 "http://www.w3.org/Graphics/SVG/1.1/DTD/svg11.dtd">
<!-- Generated by graphviz version 2.38.0 (20140413.2041)
 -->
<!-- Title: IGLib.Gr3D.CylindricalBilliardKnot Pages: 1 -->
<svg width="564pt" height="100pt"
 viewBox="0.00 0.00 564.00 99.50" xmlns="http://www.w3.org/2000/svg" xmlns:xlink="http://www.w3.org/1999/xlink">
<g id="graph0" class="graph" transform="scale(1 1) rotate(0) translate(4 95.5)">
<title>IGLib.Gr3D.CylindricalBilliardKnot</title>
<polygon fill="white" stroke="none" points="-4,4 -4,-95.5 560,-95.5 560,4 -4,4"/>
<!-- Node1 -->
<g id="node1" class="node"><title>Node1</title>
<g id="a_node1"><a xlink:title="Cartesian and cylindrical parameterization of a cylindrical billiard knot in 3D.">
<polygon fill="#bfbfbf" stroke="black" points="394,-39 394,-58 556,-58 556,-39 394,-39"/>
<text text-anchor="middle" x="475" y="-46" font-family="Helvetica,sans-Serif" font-size="10.00">IGLib.Gr3D.CylindricalBilliardKnot</text>
</a>
</g>
</g>
<!-- Node2 -->
<g id="node2" class="node"><title>Node2</title>
<g id="a_node2"><a xlink:href="../../d7/dac/classIGLib_1_1Gr3D_1_1Curve3DParameterizationFromCylindricalWithBounds.html" target="_top" xlink:title="Cartesion parameterization of a curve in 3D. Beside the Curve and (optional) CurveDerivative,...">
<polygon fill="white" stroke="black" points="209,-33.5 209,-63.5 358,-63.5 358,-33.5 209,-33.5"/>
<text text-anchor="start" x="217" y="-51.5" font-family="Helvetica,sans-Serif" font-size="10.00">Curve3DParameterizationFrom</text>
<text text-anchor="middle" x="283.5" y="-40.5" font-family="Helvetica,sans-Serif" font-size="10.00">CylindricalWithBounds</text>
</a>
</g>
</g>
<!-- Node2&#45;&gt;Node1 -->
<g id="edge1" class="edge"><title>Node2&#45;&gt;Node1</title>
<path fill="none" stroke="midnightblue" d="M368.048,-48.5C376.639,-48.5 385.355,-48.5 393.908,-48.5"/>
<polygon fill="midnightblue" stroke="midnightblue" points="368.037,-45.0001 358.037,-48.5 368.037,-52.0001 368.037,-45.0001"/>
</g>
<!-- Node3 -->
<g id="node3" class="node"><title>Node3</title>
<g id="a_node3"><a xlink:href="../../dc/d9b/interfaceIGLib_1_1Gr3D_1_1ICurve3DCylindricalParameterization.html" target="_top" xlink:title="Cylindrical parameterization of a curve in 3D. Beside the CurveCylindrical and (optional) CurveDeriva...">
<polygon fill="white" stroke="black" points="0,-72 0,-91 173,-91 173,-72 0,-72"/>
<text text-anchor="middle" x="86.5" y="-79" font-family="Helvetica,sans-Serif" font-size="10.00">ICurve3DCylindricalParameterization</text>
</a>
</g>
</g>
<!-- Node3&#45;&gt;Node1 -->
<g id="edge4" class="edge"><title>Node3&#45;&gt;Node1</title>
<path fill="none" stroke="midnightblue" d="M183.274,-82.9158C235.159,-82.6154 300.284,-80.5132 358,-73.5 385.097,-70.2074 415.22,-63.6259 437.977,-58.0422"/>
<polygon fill="midnightblue" stroke="midnightblue" points="183.067,-79.4164 173.08,-82.9528 183.093,-86.4164 183.067,-79.4164"/>
</g>
<!-- Node3&#45;&gt;Node2 -->
<g id="edge2" class="edge"><title>Node3&#45;&gt;Node2</title>
<path fill="none" stroke="midnightblue" d="M153.882,-70.2661C171.612,-67.2656 190.876,-64.0056 208.966,-60.9442"/>
<polygon fill="midnightblue" stroke="midnightblue" points="152.916,-66.8797 143.64,-71.9993 154.084,-73.7816 152.916,-66.8797"/>
</g>
<!-- Node4 -->
<g id="node4" class="node"><title>Node4</title>
<g id="a_node4"><a xlink:href="../../d3/d54/interfaceIGLib_1_1Gr3D_1_1ICurve3DParameterizationWithBounds.html" target="_top" xlink:title="Cartesion parameterization of a curve in 3D. Beside the Curve and (optional) CurveDerivative,...">
<polygon fill="white" stroke="black" points="22.5,-0.5 22.5,-30.5 150.5,-30.5 150.5,-0.5 22.5,-0.5"/>
<text text-anchor="start" x="30.5" y="-18.5" font-family="Helvetica,sans-Serif" font-size="10.00">ICurve3DParameterization</text>
<text text-anchor="middle" x="86.5" y="-7.5" font-family="Helvetica,sans-Serif" font-size="10.00">WithBounds</text>
</a>
</g>
</g>
<!-- Node4&#45;&gt;Node1 -->
<g id="edge5" class="edge"><title>Node4&#45;&gt;Node1</title>
<path fill="none" stroke="midnightblue" d="M160.873,-14.0602C215.439,-13.8641 291.62,-15.434 358,-23.5 385.097,-26.7926 415.22,-33.3741 437.977,-38.9578"/>
<polygon fill="midnightblue" stroke="midnightblue" points="160.58,-10.5617 150.6,-14.1189 160.62,-17.5616 160.58,-10.5617"/>
</g>
<!-- Node4&#45;&gt;Node2 -->
<g id="edge3" class="edge"><title>Node4&#45;&gt;Node2</title>
<path fill="none" stroke="midnightblue" d="M160.726,-27.8921C176.449,-30.5529 193.071,-33.3659 208.812,-36.0297"/>
<polygon fill="midnightblue" stroke="midnightblue" points="160.985,-24.3863 150.542,-26.1686 159.817,-31.2882 160.985,-24.3863"/>
</g>
</g>
</svg>
