<?xml version="1.0" encoding="UTF-8" standalone="no"?>
<!DOCTYPE svg PUBLIC "-//W3C//DTD SVG 1.1//EN"
 "http://www.w3.org/Graphics/SVG/1.1/DTD/svg11.dtd">
<!-- Generated by graphviz version 2.38.0 (20140413.2041)
 -->
<!-- Title: IG.Num.ScalarFunctionRadialUntransformedOneParametric Pages: 1 -->
<svg width="234pt" height="207pt"
 viewBox="0.00 0.00 233.50 207.00" xmlns="http://www.w3.org/2000/svg" xmlns:xlink="http://www.w3.org/1999/xlink">
<g id="graph0" class="graph" transform="scale(1 1) rotate(0) translate(4 203)">
<title>IG.Num.ScalarFunctionRadialUntransformedOneParametric</title>
<polygon fill="white" stroke="none" points="-4,4 -4,-203 229.5,-203 229.5,4 -4,4"/>
<!-- Node1 -->
<g id="node1" class="node"><title>Node1</title>
<g id="a_node1"><a xlink:title="One parametric radial scalar function (dependent on one tunning parameter).">
<polygon fill="#bfbfbf" stroke="black" points="13.5,-0.5 13.5,-30.5 158.5,-30.5 158.5,-0.5 13.5,-0.5"/>
<text text-anchor="start" x="21.5" y="-18.5" font-family="Helvetica,sans-Serif" font-size="10.00">IG.Num.ScalarFunctionRadial</text>
<text text-anchor="middle" x="86" y="-7.5" font-family="Helvetica,sans-Serif" font-size="10.00">UntransformedOneParametric</text>
</a>
</g>
</g>
<!-- Node2 -->
<g id="node2" class="node"><title>Node2</title>
<g id="a_node2"><a xlink:href="../../d7/ddc/classIG_1_1Num_1_1ScalarFunctionRadialUntransformed.html" target="_top" xlink:title="Radial scalar functions.">
<polygon fill="white" stroke="black" points="0,-67.5 0,-86.5 172,-86.5 172,-67.5 0,-67.5"/>
<text text-anchor="middle" x="86" y="-74.5" font-family="Helvetica,sans-Serif" font-size="10.00">ScalarFunctionRadialUntransformed</text>
</a>
</g>
</g>
<!-- Node2&#45;&gt;Node1 -->
<g id="edge1" class="edge"><title>Node2&#45;&gt;Node1</title>
<path fill="none" stroke="midnightblue" d="M86,-57.2349C86,-48.5864 86,-38.4969 86,-30.523"/>
<polygon fill="midnightblue" stroke="midnightblue" points="82.5001,-57.4751 86,-67.4751 89.5001,-57.4751 82.5001,-57.4751"/>
</g>
<!-- Node3 -->
<g id="node3" class="node"><title>Node3</title>
<g id="a_node3"><a xlink:href="../../d2/d9e/classIG_1_1Num_1_1ScalarFunctionUntransformedBase.html" target="_top" xlink:title="Base class for defining scalar functions without possibility of affine transformation of parameters.">
<polygon fill="white" stroke="black" points="58.5,-123.5 58.5,-142.5 225.5,-142.5 225.5,-123.5 58.5,-123.5"/>
<text text-anchor="middle" x="142" y="-130.5" font-family="Helvetica,sans-Serif" font-size="10.00">ScalarFunctionUntransformedBase</text>
</a>
</g>
</g>
<!-- Node3&#45;&gt;Node2 -->
<g id="edge2" class="edge"><title>Node3&#45;&gt;Node2</title>
<path fill="none" stroke="midnightblue" d="M125.67,-116.253C115.735,-106.673 103.412,-94.7906 95.1611,-86.8339"/>
<polygon fill="midnightblue" stroke="midnightblue" points="123.375,-118.902 133.003,-123.324 128.234,-113.863 123.375,-118.902"/>
</g>
<!-- Node4 -->
<g id="node4" class="node"><title>Node4</title>
<g id="a_node4"><a xlink:href="../../d8/d56/interfaceIG_1_1Num_1_1IScalarFunctionUntransformed.html" target="_top" xlink:title="Scalar functions of vector arguments.">
<polygon fill="white" stroke="black" points="12.5,-179.5 12.5,-198.5 159.5,-198.5 159.5,-179.5 12.5,-179.5"/>
<text text-anchor="middle" x="86" y="-186.5" font-family="Helvetica,sans-Serif" font-size="10.00">IScalarFunctionUntransformed</text>
</a>
</g>
</g>
<!-- Node4&#45;&gt;Node2 -->
<g id="edge4" class="edge"><title>Node4&#45;&gt;Node2</title>
<path fill="none" stroke="midnightblue" d="M68.2573,-172.089C56.3087,-159.351 43.7765,-140.742 50,-123 55.1,-108.461 67.0916,-95.1298 75.8379,-86.8145"/>
<polygon fill="midnightblue" stroke="midnightblue" points="65.8774,-174.658 75.4487,-179.201 70.7997,-169.68 65.8774,-174.658"/>
</g>
<!-- Node4&#45;&gt;Node3 -->
<g id="edge3" class="edge"><title>Node4&#45;&gt;Node3</title>
<path fill="none" stroke="midnightblue" d="M102.33,-172.253C112.265,-162.673 124.588,-150.791 132.839,-142.834"/>
<polygon fill="midnightblue" stroke="midnightblue" points="99.7664,-169.863 94.9974,-179.324 104.625,-174.902 99.7664,-169.863"/>
</g>
</g>
</svg>
