<?xml version="1.0" encoding="UTF-8" standalone="no"?>
<!DOCTYPE svg PUBLIC "-//W3C//DTD SVG 1.1//EN"
 "http://www.w3.org/Graphics/SVG/1.1/DTD/svg11.dtd">
<!-- Generated by graphviz version 2.38.0 (20140413.2041)
 -->
<!-- Title: IG.Script.LoadableScriptSpecialFunctionBase Pages: 1 -->
<svg width="408pt" height="174pt"
 viewBox="0.00 0.00 407.50 174.00" xmlns="http://www.w3.org/2000/svg" xmlns:xlink="http://www.w3.org/1999/xlink">
<g id="graph0" class="graph" transform="scale(1 1) rotate(0) translate(4 170)">
<title>IG.Script.LoadableScriptSpecialFunctionBase</title>
<polygon fill="white" stroke="none" points="-4,4 -4,-170 403.5,-170 403.5,4 -4,4"/>
<!-- Node1 -->
<g id="node1" class="node"><title>Node1</title>
<g id="a_node1"><a xlink:title="Base cls. for various special function loadable scripts.">
<polygon fill="#bfbfbf" stroke="black" points="12.5,-0.5 12.5,-30.5 134.5,-30.5 134.5,-0.5 12.5,-0.5"/>
<text text-anchor="start" x="20.5" y="-18.5" font-family="Helvetica,sans-Serif" font-size="10.00">IG.Script.LoadableScript</text>
<text text-anchor="middle" x="73.5" y="-7.5" font-family="Helvetica,sans-Serif" font-size="10.00">SpecialFunctionBase</text>
</a>
</g>
</g>
<!-- Node2 -->
<g id="node2" class="node"><title>Node2</title>
<g id="a_node2"><a xlink:href="../../d7/d15/classIG_1_1Lib_1_1LoadableScriptBase.html" target="_top" xlink:title="Base class for classes that can be dynamically loadeded from scripts and run, which provides function...">
<polygon fill="white" stroke="black" points="78.5,-68.5 78.5,-87.5 182.5,-87.5 182.5,-68.5 78.5,-68.5"/>
<text text-anchor="middle" x="130.5" y="-75.5" font-family="Helvetica,sans-Serif" font-size="10.00">LoadableScriptBase</text>
</a>
</g>
</g>
<!-- Node2&#45;&gt;Node1 -->
<g id="edge1" class="edge"><title>Node2&#45;&gt;Node1</title>
<path fill="none" stroke="midnightblue" d="M115.259,-60.8232C106.436,-51.4582 95.4309,-39.7776 86.9338,-30.7587"/>
<polygon fill="midnightblue" stroke="midnightblue" points="112.928,-63.4534 122.333,-68.3318 118.023,-58.6532 112.928,-63.4534"/>
</g>
<!-- Node3 -->
<g id="node3" class="node"><title>Node3</title>
<g id="a_node3"><a xlink:href="../../d7/d66/interfaceIG_1_1Lib_1_1ILoadableScript.html" target="_top" xlink:title="Interface for classes that can be dynamically loadeded from scripts and run, which provides functiona...">
<polygon fill="white" stroke="black" points="0,-141 0,-160 83,-160 83,-141 0,-141"/>
<text text-anchor="middle" x="41.5" y="-148" font-family="Helvetica,sans-Serif" font-size="10.00">ILoadableScript</text>
</a>
</g>
</g>
<!-- Node3&#45;&gt;Node1 -->
<g id="edge6" class="edge"><title>Node3&#45;&gt;Node1</title>
<path fill="none" stroke="midnightblue" d="M46.0117,-130.748C52.4711,-103.902 64.2157,-55.088 70.0374,-30.8914"/>
<polygon fill="midnightblue" stroke="midnightblue" points="42.5361,-130.232 43.5996,-140.773 49.3418,-131.87 42.5361,-130.232"/>
</g>
<!-- Node3&#45;&gt;Node2 -->
<g id="edge2" class="edge"><title>Node3&#45;&gt;Node2</title>
<path fill="none" stroke="midnightblue" d="M60.4682,-134.475C78.4273,-120.249 104.771,-99.3808 119.498,-87.7154"/>
<polygon fill="midnightblue" stroke="midnightblue" points="58.0786,-131.902 52.4131,-140.855 62.4251,-137.39 58.0786,-131.902"/>
</g>
<!-- Node4 -->
<g id="node4" class="node"><title>Node4</title>
<g id="a_node4"><a xlink:href="../../d3/db6/interfaceIG_1_1Lib_1_1ILockable.html" target="_top" xlink:title="Lockable object, has a Lock property that returns object on which lock must be performed in order to ...">
<polygon fill="white" stroke="black" points="101.5,-141 101.5,-160 159.5,-160 159.5,-141 101.5,-141"/>
<text text-anchor="middle" x="130.5" y="-148" font-family="Helvetica,sans-Serif" font-size="10.00">ILockable</text>
</a>
</g>
</g>
<!-- Node4&#45;&gt;Node2 -->
<g id="edge3" class="edge"><title>Node4&#45;&gt;Node2</title>
<path fill="none" stroke="midnightblue" d="M130.5,-130.442C130.5,-116.53 130.5,-98.3203 130.5,-87.7154"/>
<polygon fill="midnightblue" stroke="midnightblue" points="127,-130.855 130.5,-140.855 134,-130.855 127,-130.855"/>
</g>
<!-- Node5 -->
<g id="node5" class="node"><title>Node5</title>
<g id="a_node5"><a xlink:href="../../de/dfd/interfaceIG_1_1Lib_1_1ICommandLineApplicationInterpreter.html" target="_top" xlink:title="Interface for simple command&#45;line applicatino interpreters.">
<polygon fill="white" stroke="black" points="177.5,-135.5 177.5,-165.5 335.5,-165.5 335.5,-135.5 177.5,-135.5"/>
<text text-anchor="start" x="185.5" y="-153.5" font-family="Helvetica,sans-Serif" font-size="10.00">IG.Lib.ICommandLineApplication</text>
<text text-anchor="middle" x="256.5" y="-142.5" font-family="Helvetica,sans-Serif" font-size="10.00">Interpreter</text>
</a>
</g>
</g>
<!-- Node5&#45;&gt;Node2 -->
<g id="edge4" class="edge"><title>Node5&#45;&gt;Node2</title>
<path fill="none" stroke="#9a32cd" stroke-dasharray="5,2" d="M222.483,-130.467C197.472,-116.472 164.667,-98.1173 145.751,-87.5336"/>
<polygon fill="#9a32cd" stroke="#9a32cd" points="220.869,-133.574 231.305,-135.403 224.287,-127.465 220.869,-133.574"/>
<text text-anchor="middle" x="238.5" y="-109" font-family="Helvetica,sans-Serif" font-size="10.00"> _script_interpreter</text>
</g>
<!-- Node6 -->
<g id="node6" class="node"><title>Node6</title>
<g id="a_node6"><a xlink:title=" ">
<polygon fill="white" stroke="#bfbfbf" points="354,-141 354,-160 395,-160 395,-141 354,-141"/>
<text text-anchor="middle" x="374.5" y="-148" font-family="Helvetica,sans-Serif" font-size="10.00">static</text>
</a>
</g>
</g>
<!-- Node6&#45;&gt;Node2 -->
<g id="edge5" class="edge"><title>Node6&#45;&gt;Node2</title>
<path fill="none" stroke="#9a32cd" stroke-dasharray="5,2" d="M347.52,-136.449C346.5,-135.96 345.491,-135.475 344.5,-135 317.431,-122.024 312.095,-115.135 283.5,-106 250.741,-95.5342 212.661,-88.7959 182.686,-84.6683"/>
<polygon fill="#9a32cd" stroke="#9a32cd" points="346.214,-139.705 356.742,-140.894 349.253,-133.399 346.214,-139.705"/>
<text text-anchor="middle" x="355.5" y="-109" font-family="Helvetica,sans-Serif" font-size="10.00"> _defaultOutputLevel</text>
</g>
</g>
</svg>
