<?xml version="1.0" encoding="UTF-8" standalone="no"?>
<!DOCTYPE svg PUBLIC "-//W3C//DTD SVG 1.1//EN"
 "http://www.w3.org/Graphics/SVG/1.1/DTD/svg11.dtd">
<!-- Generated by graphviz version 2.38.0 (20140413.2041)
 -->
<!-- Title: IG.Num.RealFunction Pages: 1 -->
<svg width="232pt" height="155pt"
 viewBox="0.00 0.00 232.00 155.00" xmlns="http://www.w3.org/2000/svg" xmlns:xlink="http://www.w3.org/1999/xlink">
<g id="graph0" class="graph" transform="scale(1 1) rotate(0) translate(4 151)">
<title>IG.Num.RealFunction</title>
<polygon fill="white" stroke="none" points="-4,4 -4,-151 228,-151 228,4 -4,4"/>
<!-- Node1 -->
<g id="node1" class="node"><title>Node1</title>
<g id="a_node1"><a xlink:title="Represents a real function of a real variabe.">
<polygon fill="#bfbfbf" stroke="black" points="34,-7 34,-26 144,-26 144,-7 34,-7"/>
<text text-anchor="middle" x="89" y="-14" font-family="Helvetica,sans-Serif" font-size="10.00">IG.Num.RealFunction</text>
</a>
</g>
</g>
<!-- Node1&#45;&gt;Node1 -->
<g id="edge5" class="edge"><title>Node1&#45;&gt;Node1</title>
<path fill="none" stroke="#9a32cd" stroke-dasharray="5,2" d="M154.001,-21.2844C158.952,-20.2219 162,-18.6271 162,-16.5 162,-13.1797 154.574,-11.1564 144.073,-10.4301"/>
<polygon fill="#9a32cd" stroke="#9a32cd" points="153.541,-17.8146 144.073,-22.5699 154.44,-24.7567 153.541,-17.8146"/>
<text text-anchor="middle" x="193" y="-25" font-family="Helvetica,sans-Serif" font-size="10.00"> funcDerivative</text>
<text text-anchor="middle" x="193" y="-14" font-family="Helvetica,sans-Serif" font-size="10.00">funcInverse</text>
<text text-anchor="middle" x="193" y="-3" font-family="Helvetica,sans-Serif" font-size="10.00">funcIntegral</text>
</g>
<!-- Node2 -->
<g id="node2" class="node"><title>Node2</title>
<g id="a_node2"><a xlink:href="../../d6/d30/classIG_1_1Num_1_1RealFunctionBase.html" target="_top" xlink:title="Base class for real functions of real variable.">
<polygon fill="white" stroke="black" points="41,-70.5 41,-89.5 137,-89.5 137,-70.5 41,-70.5"/>
<text text-anchor="middle" x="89" y="-77.5" font-family="Helvetica,sans-Serif" font-size="10.00">RealFunctionBase</text>
</a>
</g>
</g>
<!-- Node2&#45;&gt;Node1 -->
<g id="edge1" class="edge"><title>Node2&#45;&gt;Node1</title>
<path fill="none" stroke="midnightblue" d="M89,-60.3184C89,-49.0514 89,-35.215 89,-26.3769"/>
<polygon fill="midnightblue" stroke="midnightblue" points="85.5001,-60.4487 89,-70.4487 92.5001,-60.4487 85.5001,-60.4487"/>
</g>
<!-- Node3 -->
<g id="node3" class="node"><title>Node3</title>
<g id="a_node3"><a xlink:href="../../db/d0e/interfaceIG_1_1Num_1_1IRealFunction.html" target="_top" xlink:title="Interface for real functions.">
<polygon fill="white" stroke="black" points="0,-127.5 0,-146.5 76,-146.5 76,-127.5 0,-127.5"/>
<text text-anchor="middle" x="38" y="-134.5" font-family="Helvetica,sans-Serif" font-size="10.00">IRealFunction</text>
</a>
</g>
</g>
<!-- Node3&#45;&gt;Node1 -->
<g id="edge3" class="edge"><title>Node3&#45;&gt;Node1</title>
<path fill="none" stroke="midnightblue" d="M31.7093,-117.756C28.0621,-104.057 25.3647,-85.1323 32,-70 40.5362,-50.5324 60.248,-35.0968 74.0889,-26.1318"/>
<polygon fill="midnightblue" stroke="midnightblue" points="28.4033,-118.914 34.6779,-127.451 35.0966,-116.865 28.4033,-118.914"/>
</g>
<!-- Node3&#45;&gt;Node2 -->
<g id="edge2" class="edge"><title>Node3&#45;&gt;Node2</title>
<path fill="none" stroke="midnightblue" d="M52.9957,-119.828C62.1282,-109.979 73.4388,-97.7817 80.9189,-89.7149"/>
<polygon fill="midnightblue" stroke="midnightblue" points="50.2017,-117.694 45.9688,-127.406 55.3346,-122.453 50.2017,-117.694"/>
</g>
<!-- Node4 -->
<g id="node4" class="node"><title>Node4</title>
<g id="a_node4"><a xlink:title=" ">
<polygon fill="white" stroke="#bfbfbf" points="155,-70.5 155,-89.5 217,-89.5 217,-70.5 155,-70.5"/>
<text text-anchor="middle" x="186" y="-77.5" font-family="Helvetica,sans-Serif" font-size="10.00">ICloneable</text>
</a>
</g>
</g>
<!-- Node4&#45;&gt;Node1 -->
<g id="edge4" class="edge"><title>Node4&#45;&gt;Node1</title>
<path fill="none" stroke="midnightblue" d="M163.962,-65.0272C145.124,-53.0837 118.611,-36.2737 102.686,-26.1769"/>
<polygon fill="midnightblue" stroke="midnightblue" points="162.193,-68.0499 172.513,-70.4487 165.941,-62.138 162.193,-68.0499"/>
</g>
</g>
</svg>
