<?xml version="1.0" encoding="UTF-8" standalone="no"?>
<!DOCTYPE svg PUBLIC "-//W3C//DTD SVG 1.1//EN"
 "http://www.w3.org/Graphics/SVG/1.1/DTD/svg11.dtd">
<!-- Generated by graphviz version 2.38.0 (20140413.2041)
 -->
<!-- Title: IG.Gr.SurfaceGridPrimitive Pages: 1 -->
<svg width="147pt" height="151pt"
 viewBox="0.00 0.00 147.00 151.00" xmlns="http://www.w3.org/2000/svg" xmlns:xlink="http://www.w3.org/1999/xlink">
<g id="graph0" class="graph" transform="scale(1 1) rotate(0) translate(4 147)">
<title>IG.Gr.SurfaceGridPrimitive</title>
<polygon fill="white" stroke="none" points="-4,4 -4,-147 143,-147 143,4 -4,4"/>
<!-- Node1 -->
<g id="node1" class="node"><title>Node1</title>
<g id="a_node1"><a xlink:title=" ">
<polygon fill="#bfbfbf" stroke="black" points="4,-67.5 4,-86.5 135,-86.5 135,-67.5 4,-67.5"/>
<text text-anchor="middle" x="69.5" y="-74.5" font-family="Helvetica,sans-Serif" font-size="10.00">IG.Gr.SurfaceGridPrimitive</text>
</a>
</g>
</g>
<!-- Node3 -->
<g id="node3" class="node"><title>Node3</title>
<g id="a_node3"><a xlink:href="../../d8/d07/classIG_1_1Gr_1_1StructuredSurfaceGridPrimitive.html" target="_top" xlink:title=" ">
<polygon fill="white" stroke="black" points="0,-0.5 0,-30.5 139,-30.5 139,-0.5 0,-0.5"/>
<text text-anchor="start" x="8" y="-18.5" font-family="Helvetica,sans-Serif" font-size="10.00">IG.Gr.StructuredSurfaceGrid</text>
<text text-anchor="middle" x="69.5" y="-7.5" font-family="Helvetica,sans-Serif" font-size="10.00">Primitive</text>
</a>
</g>
</g>
<!-- Node1&#45;&gt;Node3 -->
<g id="edge2" class="edge"><title>Node1&#45;&gt;Node3</title>
<path fill="none" stroke="midnightblue" d="M69.5,-57.2349C69.5,-48.5864 69.5,-38.4969 69.5,-30.523"/>
<polygon fill="midnightblue" stroke="midnightblue" points="66.0001,-57.4751 69.5,-67.4751 73.0001,-57.4751 66.0001,-57.4751"/>
</g>
<!-- Node2 -->
<g id="node2" class="node"><title>Node2</title>
<g id="a_node2"><a xlink:href="../../d3/d1a/classIG_1_1Gr_1_1GraphicPrimitive.html" target="_top" xlink:title="Abstract base class for all graphic primitives such as lines, facets, etc.">
<polygon fill="white" stroke="black" points="26,-123.5 26,-142.5 113,-142.5 113,-123.5 26,-123.5"/>
<text text-anchor="middle" x="69.5" y="-130.5" font-family="Helvetica,sans-Serif" font-size="10.00">GraphicPrimitive</text>
</a>
</g>
</g>
<!-- Node2&#45;&gt;Node1 -->
<g id="edge1" class="edge"><title>Node2&#45;&gt;Node1</title>
<path fill="none" stroke="midnightblue" d="M69.5,-112.805C69.5,-103.91 69.5,-93.7798 69.5,-86.7511"/>
<polygon fill="midnightblue" stroke="midnightblue" points="66.0001,-113.083 69.5,-123.083 73.0001,-113.083 66.0001,-113.083"/>
</g>
</g>
</svg>
