<?xml version="1.0" encoding="UTF-8" standalone="no"?>
<!DOCTYPE svg PUBLIC "-//W3C//DTD SVG 1.1//EN"
 "http://www.w3.org/Graphics/SVG/1.1/DTD/svg11.dtd">
<!-- Generated by graphviz version 2.38.0 (20140413.2041)
 -->
<!-- Title: IG.Reflection.SerializationBinderCascadedImmutable Pages: 1 -->
<svg width="224pt" height="218pt"
 viewBox="0.00 0.00 224.00 218.00" xmlns="http://www.w3.org/2000/svg" xmlns:xlink="http://www.w3.org/1999/xlink">
<g id="graph0" class="graph" transform="scale(1 1) rotate(0) translate(4 214)">
<title>IG.Reflection.SerializationBinderCascadedImmutable</title>
<polygon fill="white" stroke="none" points="-4,4 -4,-214 220,-214 220,4 -4,4"/>
<!-- Node1 -->
<g id="node1" class="node"><title>Node1</title>
<g id="a_node1"><a xlink:title="A cascaded SerializationBinder class that maps the assembly and type information of the serialized ob...">
<polygon fill="#bfbfbf" stroke="black" points="55.5,-67.5 55.5,-97.5 188.5,-97.5 188.5,-67.5 55.5,-67.5"/>
<text text-anchor="start" x="63.5" y="-85.5" font-family="Helvetica,sans-Serif" font-size="10.00">IG.Reflection.Serialization</text>
<text text-anchor="middle" x="122" y="-74.5" font-family="Helvetica,sans-Serif" font-size="10.00">BinderCascadedImmutable</text>
</a>
</g>
</g>
<!-- Node5 -->
<g id="node5" class="node"><title>Node5</title>
<g id="a_node5"><a xlink:href="../../d1/d07/classIG_1_1Reflection_1_1SerializationBinderCascaded.html" target="_top" xlink:title="A cascaded SerializationBinder class that maps the assembly and type information of the serialized ob...">
<polygon fill="white" stroke="black" points="58,-0.5 58,-30.5 186,-30.5 186,-0.5 58,-0.5"/>
<text text-anchor="start" x="66" y="-18.5" font-family="Helvetica,sans-Serif" font-size="10.00">IG.Reflection.Serialization</text>
<text text-anchor="middle" x="122" y="-7.5" font-family="Helvetica,sans-Serif" font-size="10.00">BinderCascaded</text>
</a>
</g>
</g>
<!-- Node1&#45;&gt;Node5 -->
<g id="edge5" class="edge"><title>Node1&#45;&gt;Node5</title>
<path fill="none" stroke="midnightblue" d="M122,-57.1081C122,-48.1539 122,-38.3227 122,-30.5765"/>
<polygon fill="midnightblue" stroke="midnightblue" points="118.5,-57.3959 122,-67.396 125.5,-57.396 118.5,-57.3959"/>
</g>
<!-- Node2 -->
<g id="node2" class="node"><title>Node2</title>
<g id="a_node2"><a xlink:href="../../db/dfd/classIG_1_1Reflection_1_1SerializationBinderBase.html" target="_top" xlink:title="Enables to reference classes that both inherit from the framework&#39;s SerializationBinder (necessary fo...">
<polygon fill="white" stroke="black" points="18,-134.5 18,-153.5 138,-153.5 138,-134.5 18,-134.5"/>
<text text-anchor="middle" x="78" y="-141.5" font-family="Helvetica,sans-Serif" font-size="10.00">SerializationBinderBase</text>
</a>
</g>
</g>
<!-- Node2&#45;&gt;Node1 -->
<g id="edge1" class="edge"><title>Node2&#45;&gt;Node1</title>
<path fill="none" stroke="midnightblue" d="M90.3887,-126.247C97.0889,-117.187 105.27,-106.124 111.63,-97.523"/>
<polygon fill="midnightblue" stroke="midnightblue" points="87.4358,-124.354 84.3041,-134.475 93.0641,-128.516 87.4358,-124.354"/>
</g>
<!-- Node3 -->
<g id="node3" class="node"><title>Node3</title>
<g id="a_node3"><a xlink:title=" ">
<polygon fill="white" stroke="#bfbfbf" points="0,-190.5 0,-209.5 98,-209.5 98,-190.5 0,-190.5"/>
<text text-anchor="middle" x="49" y="-197.5" font-family="Helvetica,sans-Serif" font-size="10.00">SerializationBinder</text>
</a>
</g>
</g>
<!-- Node3&#45;&gt;Node2 -->
<g id="edge2" class="edge"><title>Node3&#45;&gt;Node2</title>
<path fill="none" stroke="midnightblue" d="M58.6759,-180.983C63.5984,-171.817 69.3579,-161.092 73.3003,-153.751"/>
<polygon fill="midnightblue" stroke="midnightblue" points="55.4366,-179.617 53.7888,-190.083 61.6036,-182.929 55.4366,-179.617"/>
</g>
<!-- Node4 -->
<g id="node4" class="node"><title>Node4</title>
<g id="a_node4"><a xlink:href="../../d6/dde/interfaceIG_1_1Reflection_1_1ISerializationBinder.html" target="_top" xlink:title="Interface implemented by IGLib&#39;s classes based on the framework&#39;s SerializationBinder class.">
<polygon fill="white" stroke="black" points="116,-190.5 116,-209.5 216,-209.5 216,-190.5 116,-190.5"/>
<text text-anchor="middle" x="166" y="-197.5" font-family="Helvetica,sans-Serif" font-size="10.00">ISerializationBinder</text>
</a>
</g>
</g>
<!-- Node4&#45;&gt;Node1 -->
<g id="edge4" class="edge"><title>Node4&#45;&gt;Node1</title>
<path fill="none" stroke="midnightblue" d="M161.563,-180.678C158.15,-167.497 153.01,-149.402 147,-134 142.092,-121.423 135.211,-107.731 129.91,-97.7807"/>
<polygon fill="midnightblue" stroke="midnightblue" points="158.18,-181.578 164.005,-190.428 164.971,-179.877 158.18,-181.578"/>
</g>
<!-- Node4&#45;&gt;Node2 -->
<g id="edge3" class="edge"><title>Node4&#45;&gt;Node2</title>
<path fill="none" stroke="midnightblue" d="M143.023,-184.901C126.887,-174.999 105.819,-162.071 92.1036,-153.655"/>
<polygon fill="midnightblue" stroke="midnightblue" points="141.507,-188.077 151.861,-190.324 145.169,-182.111 141.507,-188.077"/>
</g>
</g>
</svg>
