<?xml version="1.0" encoding="UTF-8" standalone="no"?>
<!DOCTYPE svg PUBLIC "-//W3C//DTD SVG 1.1//EN"
 "http://www.w3.org/Graphics/SVG/1.1/DTD/svg11.dtd">
<!-- Generated by graphviz version 2.38.0 (20140413.2041)
 -->
<!-- Title: IG.Num.SIPrefix Pages: 1 -->
<svg width="94pt" height="205pt"
 viewBox="0.00 0.00 94.00 205.00" xmlns="http://www.w3.org/2000/svg" xmlns:xlink="http://www.w3.org/1999/xlink">
<g id="graph0" class="graph" transform="scale(1 1) rotate(0) translate(4 201)">
<title>IG.Num.SIPrefix</title>
<polygon fill="white" stroke="none" points="-4,4 -4,-201 90,-201 90,4 -4,4"/>
<!-- Node1 -->
<g id="node1" class="node"><title>Node1</title>
<g id="a_node1"><a xlink:title="SI prefixes for producing multiples of the original units (such as kilo&#45; or micro&#45;).">
<polygon fill="#bfbfbf" stroke="black" points="0,-0.5 0,-19.5 86,-19.5 86,-0.5 0,-0.5"/>
<text text-anchor="middle" x="43" y="-7.5" font-family="Helvetica,sans-Serif" font-size="10.00">IG.Num.SIPrefix</text>
</a>
</g>
</g>
<!-- Node2 -->
<g id="node2" class="node"><title>Node2</title>
<g id="a_node2"><a xlink:title=" ">
<polygon fill="white" stroke="#bfbfbf" points="22.5,-177.5 22.5,-196.5 63.5,-196.5 63.5,-177.5 22.5,-177.5"/>
<text text-anchor="middle" x="43" y="-184.5" font-family="Helvetica,sans-Serif" font-size="10.00">static</text>
</a>
</g>
</g>
<!-- Node2&#45;&gt;Node1 -->
<g id="edge1" class="edge"><title>Node2&#45;&gt;Node1</title>
<path fill="none" stroke="#9a32cd" stroke-dasharray="5,2" d="M43,-166.951C43,-129.297 43,-46.6537 43,-19.6932"/>
<polygon fill="#9a32cd" stroke="#9a32cd" points="39.5001,-167.081 43,-177.081 46.5001,-167.081 39.5001,-167.081"/>
<text text-anchor="middle" x="51" y="-151" font-family="Helvetica,sans-Serif" font-size="10.00"> f</text>
<text text-anchor="middle" x="51" y="-140" font-family="Helvetica,sans-Serif" font-size="10.00">one</text>
<text text-anchor="middle" x="51" y="-129" font-family="Helvetica,sans-Serif" font-size="10.00">E</text>
<text text-anchor="middle" x="51" y="-118" font-family="Helvetica,sans-Serif" font-size="10.00">y</text>
<text text-anchor="middle" x="51" y="-107" font-family="Helvetica,sans-Serif" font-size="10.00">h</text>
<text text-anchor="middle" x="51" y="-96" font-family="Helvetica,sans-Serif" font-size="10.00">z</text>
<text text-anchor="middle" x="51" y="-85" font-family="Helvetica,sans-Serif" font-size="10.00">G</text>
<text text-anchor="middle" x="51" y="-74" font-family="Helvetica,sans-Serif" font-size="10.00">Y</text>
<text text-anchor="middle" x="51" y="-63" font-family="Helvetica,sans-Serif" font-size="10.00">Z</text>
<text text-anchor="middle" x="51" y="-52" font-family="Helvetica,sans-Serif" font-size="10.00">k</text>
<text text-anchor="middle" x="51" y="-41" font-family="Helvetica,sans-Serif" font-size="10.00">...</text>
</g>
</g>
</svg>
