<?xml version="1.0" encoding="UTF-8" standalone="no"?>
<!DOCTYPE svg PUBLIC "-//W3C//DTD SVG 1.1//EN"
 "http://www.w3.org/Graphics/SVG/1.1/DTD/svg11.dtd">
<!-- Generated by graphviz version 2.38.0 (20140413.2041)
 -->
<!-- Title: IG.Num.ScalarFunctionRadialParametric Pages: 1 -->
<!--zoomable 360 -->
<svg id="main" version="1.1" xmlns="http://www.w3.org/2000/svg" xmlns:xlink="http://www.w3.org/1999/xlink" xml:space="preserve" onload="init(evt)">
<style type="text/css"><![CDATA[
.edge:hover path { stroke: red; }
.edge:hover polygon { stroke: red; fill: red; }
]]></style>
<script type="text/javascript"><![CDATA[
var edges = document.getElementsByTagName('g');
if (edges && edges.length) {
  for (var i=0;i<edges.length;i++) {
    if (edges[i].id.substr(0,4)=='edge') {
      edges[i].setAttribute('class','edge');
    }
  }
}
]]></script>
        <defs>
                <circle id="rim" cx="0" cy="0" r="7"/>
                <circle id="rim2" cx="0" cy="0" r="3.5"/>
                <g id="zoomPlus">
                        <use xlink:href="#rim" fill="#404040">
                                <set attributeName="fill" to="#808080" begin="zoomplus.mouseover" end="zoomplus.mouseout"/>
                        </use>
                        <path d="M-4,0h8M0,-4v8" fill="none" stroke="white" stroke-width="1.5" pointer-events="none"/>
                </g>
                <g id="zoomMin">
                        <use xlink:href="#rim" fill="#404040">
                                <set attributeName="fill" to="#808080" begin="zoomminus.mouseover" end="zoomminus.mouseout"/>
                        </use>
                        <path d="M-4,0h8" fill="none" stroke="white" stroke-width="1.5" pointer-events="none"/>
                </g>
                <g id="dirArrow">
                        <path fill="none" stroke="white" stroke-width="1.5" d="M0,-3.0v7 M-2.5,-0.5L0,-3.0L2.5,-0.5"/>
                </g>
               <g id="resetDef">
                       <use xlink:href="#rim2" fill="#404040">
                               <set attributeName="fill" to="#808080" begin="reset.mouseover" end="reset.mouseout"/>
                       </use>
               </g>
        </defs>

<script type="text/javascript">
var viewWidth = 1152;
var viewHeight = 360;
var sectionId = 'dynsection-1';
</script>
<script xlink:href="../../svgpan.js"/>
<svg id="graph" class="graph">
<g id="viewport">
<title>IG.Num.ScalarFunctionRadialParametric</title>
<polygon fill="white" stroke="none" points="-4,4 -4,-356 1148,-356 1148,4 -4,4"/>
<!-- Node1 -->
<g id="node1" class="node"><title>Node1</title>
<g id="a_node1"><a xlink:title="Parametric scalar function.">
<polygon fill="#bfbfbf" stroke="black" points="999,-52 999,-82 1144,-82 1144,-52 999,-52"/>
<text text-anchor="start" x="1007" y="-70" font-family="Helvetica,sans-Serif" font-size="10.00">IG.Num.ScalarFunctionRadial</text>
<text text-anchor="middle" x="1071.5" y="-59" font-family="Helvetica,sans-Serif" font-size="10.00">Parametric</text>
</a>
</g>
</g>
<!-- Node2 -->
<g id="node2" class="node"><title>Node2</title>
<g id="a_node2"><a xlink:href="../../df/dd1/classIG_1_1Num_1_1ScalarFunctionRadial.html" target="_top" xlink:title="Radial scalar functions.">
<polygon fill="white" stroke="black" points="739,-133.5 739,-152.5 848,-152.5 848,-133.5 739,-133.5"/>
<text text-anchor="middle" x="793.5" y="-140.5" font-family="Helvetica,sans-Serif" font-size="10.00">ScalarFunctionRadial</text>
</a>
</g>
</g>
<!-- Node2&#45;&gt;Node1 -->
<g id="edge1" class="edge"><title>Node2&#45;&gt;Node1</title>
<path fill="none" stroke="midnightblue" d="M853.728,-131.348C890.639,-123.593 938.944,-112.547 981,-100 998.298,-94.8395 1017.09,-88.0909 1032.97,-82.0422"/>
<polygon fill="midnightblue" stroke="midnightblue" points="852.713,-127.984 843.634,-133.446 854.137,-134.837 852.713,-127.984"/>
</g>
<!-- Node3 -->
<g id="node3" class="node"><title>Node3</title>
<g id="a_node3"><a xlink:href="../../d2/d85/classIG_1_1Num_1_1ScalarFunctionBase.html" target="_top" xlink:title="Base class for scalar functions with affine transformation of co&#45;ordinates. The reference function is...">
<polygon fill="white" stroke="black" points="439,-227.5 439,-246.5 543,-246.5 543,-227.5 439,-227.5"/>
<text text-anchor="middle" x="491" y="-234.5" font-family="Helvetica,sans-Serif" font-size="10.00">ScalarFunctionBase</text>
</a>
</g>
</g>
<!-- Node3&#45;&gt;Node2 -->
<g id="edge2" class="edge"><title>Node3&#45;&gt;Node2</title>
<path fill="none" stroke="midnightblue" d="M535.092,-224.644C576.483,-212.65 640.712,-193.712 696,-176 719.607,-168.437 746.254,-159.277 765.556,-152.528"/>
<polygon fill="midnightblue" stroke="midnightblue" points="533.971,-221.324 525.337,-227.464 535.916,-228.049 533.971,-221.324"/>
</g>
<!-- Node4 -->
<g id="node4" class="node"><title>Node4</title>
<g id="a_node4"><a xlink:href="../../d2/d9e/classIG_1_1Num_1_1ScalarFunctionUntransformedBase.html" target="_top" xlink:title="Base class for defining scalar functions without possibility of affine transformation of parameters.">
<polygon fill="white" stroke="black" points="184,-332.5 184,-351.5 351,-351.5 351,-332.5 184,-332.5"/>
<text text-anchor="middle" x="267.5" y="-339.5" font-family="Helvetica,sans-Serif" font-size="10.00">ScalarFunctionUntransformedBase</text>
</a>
</g>
</g>
<!-- Node4&#45;&gt;Node3 -->
<g id="edge3" class="edge"><title>Node4&#45;&gt;Node3</title>
<path fill="none" stroke="midnightblue" d="M332.743,-330.121C359.96,-323.316 391.261,-313.049 417,-298 442.093,-283.328 467.187,-259.998 480.42,-246.85"/>
<polygon fill="midnightblue" stroke="midnightblue" points="331.828,-326.741 322.918,-332.473 333.459,-333.548 331.828,-326.741"/>
</g>
<!-- Node5 -->
<g id="node5" class="node"><title>Node5</title>
<g id="a_node5"><a xlink:href="../../d8/d56/interfaceIG_1_1Num_1_1IScalarFunctionUntransformed.html" target="_top" xlink:title="Scalar functions of vector arguments.">
<polygon fill="white" stroke="black" points="0,-261.5 0,-280.5 147,-280.5 147,-261.5 0,-261.5"/>
<text text-anchor="middle" x="73.5" y="-268.5" font-family="Helvetica,sans-Serif" font-size="10.00">IScalarFunctionUntransformed</text>
</a>
</g>
</g>
<!-- Node5&#45;&gt;Node4 -->
<g id="edge4" class="edge"><title>Node5&#45;&gt;Node4</title>
<path fill="none" stroke="midnightblue" d="M100.778,-285.471C122.544,-296.965 154.566,-312.758 184,-323 194.55,-326.671 206.107,-329.837 217.143,-332.474"/>
<polygon fill="midnightblue" stroke="midnightblue" points="102.298,-282.315 91.83,-280.682 98.9952,-288.486 102.298,-282.315"/>
</g>
<!-- Node6 -->
<g id="node6" class="node"><title>Node6</title>
<g id="a_node6"><a xlink:href="../../dd/d1e/interfaceIG_1_1Num_1_1IScalarFunction.html" target="_top" xlink:title="Scalar functions of vector arguments, with eventual affine transformation of parameters....">
<polygon fill="white" stroke="black" points="225.5,-152.5 225.5,-171.5 309.5,-171.5 309.5,-152.5 225.5,-152.5"/>
<text text-anchor="middle" x="267.5" y="-159.5" font-family="Helvetica,sans-Serif" font-size="10.00">IScalarFunction</text>
</a>
</g>
</g>
<!-- Node5&#45;&gt;Node6 -->
<g id="edge6" class="edge"><title>Node5&#45;&gt;Node6</title>
<path fill="none" stroke="midnightblue" d="M95.201,-255.231C116.67,-239.31 151.574,-214.62 184,-197 202.182,-187.12 223.739,-178.059 240.258,-171.633"/>
<polygon fill="midnightblue" stroke="midnightblue" points="93.0413,-252.475 87.1339,-261.27 97.2366,-258.079 93.0413,-252.475"/>
</g>
<!-- Node6&#45;&gt;Node1 -->
<g id="edge12" class="edge"><title>Node6&#45;&gt;Node1</title>
<path fill="none" stroke="midnightblue" d="M299.862,-148.404C332.819,-134.802 386.51,-114.566 435,-105 448.673,-102.303 835.491,-80.2557 998.821,-71.0328"/>
<polygon fill="midnightblue" stroke="midnightblue" points="298.202,-145.305 290.328,-152.393 300.904,-151.762 298.202,-145.305"/>
</g>
<!-- Node6&#45;&gt;Node2 -->
<g id="edge10" class="edge"><title>Node6&#45;&gt;Node2</title>
<path fill="none" stroke="midnightblue" d="M320.113,-160.627C400.477,-158.417 560.382,-153.734 696,-148 709.912,-147.412 724.946,-146.679 738.913,-145.958"/>
<polygon fill="midnightblue" stroke="midnightblue" points="319.679,-157.137 309.778,-160.909 319.87,-164.135 319.679,-157.137"/>
</g>
<!-- Node6&#45;&gt;Node3 -->
<g id="edge5" class="edge"><title>Node6&#45;&gt;Node3</title>
<path fill="none" stroke="midnightblue" d="M306.499,-174.867C350.545,-189.781 422.124,-214.017 461.606,-227.386"/>
<polygon fill="midnightblue" stroke="midnightblue" points="307.598,-171.543 297.004,-171.651 305.353,-178.174 307.598,-171.543"/>
</g>
<!-- Node11 -->
<g id="node11" class="node"><title>Node11</title>
<g id="a_node11"><a xlink:href="../../d4/d4e/interfaceIG_1_1Num_1_1IScalarFunctionParametric.html" target="_top" xlink:title="Parameterized scalar functions with affine transformation of coordinates.">
<polygon fill="white" stroke="black" points="565,-38.5 565,-57.5 696,-57.5 696,-38.5 565,-38.5"/>
<text text-anchor="middle" x="630.5" y="-45.5" font-family="Helvetica,sans-Serif" font-size="10.00">IScalarFunctionParametric</text>
</a>
</g>
</g>
<!-- Node6&#45;&gt;Node11 -->
<g id="edge14" class="edge"><title>Node6&#45;&gt;Node11</title>
<path fill="none" stroke="midnightblue" d="M282.12,-144.261C299.631,-122.942 332.203,-88.0414 369,-72 431.554,-44.7301 510.414,-41.2031 564.892,-42.9426"/>
<polygon fill="midnightblue" stroke="midnightblue" points="279.274,-142.216 275.768,-152.214 284.743,-146.584 279.274,-142.216"/>
</g>
<!-- Node7 -->
<g id="node7" class="node"><title>Node7</title>
<g id="a_node7"><a xlink:href="../../d8/d86/interfaceIG_1_1Num_1_1IMatrix.html" target="_top" xlink:title="Generic Matrix interface.">
<polygon fill="white" stroke="black" points="197.5,-283 197.5,-313 337.5,-313 337.5,-283 197.5,-283"/>
<text text-anchor="start" x="205.5" y="-301" font-family="Helvetica,sans-Serif" font-size="10.00">IG.Num.IMatrix&lt; Component</text>
<text text-anchor="middle" x="267.5" y="-290" font-family="Helvetica,sans-Serif" font-size="10.00">Type &gt;</text>
</a>
</g>
</g>
<!-- Node7&#45;&gt;Node3 -->
<g id="edge7" class="edge"><title>Node7&#45;&gt;Node3</title>
<path fill="none" stroke="#9a32cd" stroke-dasharray="5,2" d="M347.764,-288.243C370.434,-284.35 394.963,-279.064 417,-272 437.21,-265.522 458.976,-254.509 473.432,-246.564"/>
<polygon fill="#9a32cd" stroke="#9a32cd" points="347.132,-284.8 337.836,-289.882 348.272,-291.707 347.132,-284.8"/>
<text text-anchor="middle" x="393" y="-286" font-family="Helvetica,sans-Serif" font-size="10.00"> _refHess</text>
</g>
<!-- Node8 -->
<g id="node8" class="node"><title>Node8</title>
<g id="a_node8"><a xlink:href="../../d3/d24/interfaceIG_1_1Num_1_1IVector.html" target="_top" xlink:title="Generic Vector interface">
<polygon fill="white" stroke="black" points="214,-244.5 214,-263.5 321,-263.5 321,-244.5 214,-244.5"/>
<text text-anchor="middle" x="267.5" y="-251.5" font-family="Helvetica,sans-Serif" font-size="10.00">IG.Num.IVector&lt; T &gt;</text>
</a>
</g>
</g>
<!-- Node8&#45;&gt;Node3 -->
<g id="edge8" class="edge"><title>Node8&#45;&gt;Node3</title>
<path fill="none" stroke="#9a32cd" stroke-dasharray="5,2" d="M331.553,-249.161C365.499,-246.555 406.836,-243.383 438.776,-240.931"/>
<polygon fill="#9a32cd" stroke="#9a32cd" points="330.976,-245.695 321.273,-249.95 331.512,-252.674 330.976,-245.695"/>
<text text-anchor="middle" x="393" y="-260" font-family="Helvetica,sans-Serif" font-size="10.00"> _refParam</text>
<text text-anchor="middle" x="393" y="-249" font-family="Helvetica,sans-Serif" font-size="10.00">_refGrad</text>
</g>
<!-- Node9 -->
<g id="node9" class="node"><title>Node9</title>
<g id="a_node9"><a xlink:href="../../d5/d50/interfaceIG_1_1Num_1_1IAffineTransformation.html" target="_top" xlink:title="Affine Transformation.">
<polygon fill="white" stroke="black" points="196,-206.5 196,-225.5 339,-225.5 339,-206.5 196,-206.5"/>
<text text-anchor="middle" x="267.5" y="-213.5" font-family="Helvetica,sans-Serif" font-size="10.00">IG.Num.IAffineTransformation</text>
</a>
</g>
</g>
<!-- Node9&#45;&gt;Node3 -->
<g id="edge9" class="edge"><title>Node9&#45;&gt;Node3</title>
<path fill="none" stroke="#9a32cd" stroke-dasharray="5,2" d="M349.183,-221.059C371.201,-222.69 395.04,-224.685 417,-227 424.124,-227.751 431.624,-228.652 438.996,-229.601"/>
<polygon fill="#9a32cd" stroke="#9a32cd" points="349.435,-217.569 339.208,-220.336 348.928,-224.55 349.435,-217.569"/>
<text text-anchor="middle" x="393" y="-230" font-family="Helvetica,sans-Serif" font-size="10.00"> _transf</text>
</g>
<!-- Node10 -->
<g id="node10" class="node"><title>Node10</title>
<g id="a_node10"><a xlink:href="../../db/d0e/interfaceIG_1_1Num_1_1IRealFunction.html" target="_top" xlink:title="Interface for real functions.">
<polygon fill="white" stroke="black" points="435,-114.5 435,-133.5 547,-133.5 547,-114.5 435,-114.5"/>
<text text-anchor="middle" x="491" y="-121.5" font-family="Helvetica,sans-Serif" font-size="10.00">IG.Num.IRealFunction</text>
</a>
</g>
</g>
<!-- Node10&#45;&gt;Node2 -->
<g id="edge11" class="edge"><title>Node10&#45;&gt;Node2</title>
<path fill="none" stroke="#9a32cd" stroke-dasharray="5,2" d="M557.343,-128.131C611.724,-131.57 688.196,-136.405 738.996,-139.617"/>
<polygon fill="#9a32cd" stroke="#9a32cd" points="557.317,-124.623 547.116,-127.485 556.876,-131.609 557.317,-124.623"/>
<text text-anchor="middle" x="630.5" y="-140" font-family="Helvetica,sans-Serif" font-size="10.00"> _function</text>
</g>
<!-- Node11&#45;&gt;Node1 -->
<g id="edge13" class="edge"><title>Node11&#45;&gt;Node1</title>
<path fill="none" stroke="midnightblue" d="M706.505,-51.2462C788.346,-54.7883 918.413,-60.4176 998.891,-63.9007"/>
<polygon fill="midnightblue" stroke="midnightblue" points="706.418,-47.7393 696.276,-50.8035 706.115,-54.7327 706.418,-47.7393"/>
</g>
<!-- Node12 -->
<g id="node12" class="node"><title>Node12</title>
<g id="a_node12"><a xlink:href="../../d1/dfb/interfaceIG_1_1Num_1_1IRealFunctionParametric.html" target="_top" xlink:title="Parameterized real&#45;valued functions of single variable.">
<polygon fill="white" stroke="black" points="714,-0.5 714,-19.5 873,-19.5 873,-0.5 714,-0.5"/>
<text text-anchor="middle" x="793.5" y="-7.5" font-family="Helvetica,sans-Serif" font-size="10.00">IG.Num.IRealFunctionParametric</text>
</a>
</g>
</g>
<!-- Node12&#45;&gt;Node1 -->
<g id="edge15" class="edge"><title>Node12&#45;&gt;Node1</title>
<path fill="none" stroke="#9a32cd" stroke-dasharray="5,2" d="M883.222,-9.20307C914.554,-10.7449 949.752,-14.5784 981,-23 1004.41,-29.3079 1028.98,-41.8757 1046.44,-51.9702"/>
<polygon fill="#9a32cd" stroke="#9a32cd" points="883.334,-5.70477 873.195,-8.78009 883.039,-12.6985 883.334,-5.70477"/>
<text text-anchor="middle" x="936" y="-26" font-family="Helvetica,sans-Serif" font-size="10.00"> _functionParametric</text>
</g>
<!-- Node13 -->
<g id="node13" class="node"><title>Node13</title>
<g id="a_node13"><a xlink:href="../../db/d0e/interfaceIG_1_1Num_1_1IRealFunction.html" target="_top" xlink:title="Interface for real functions.">
<polygon fill="white" stroke="black" points="453,-0.5 453,-19.5 529,-19.5 529,-0.5 453,-0.5"/>
<text text-anchor="middle" x="491" y="-7.5" font-family="Helvetica,sans-Serif" font-size="10.00">IRealFunction</text>
</a>
</g>
</g>
<!-- Node13&#45;&gt;Node12 -->
<g id="edge16" class="edge"><title>Node13&#45;&gt;Node12</title>
<path fill="none" stroke="midnightblue" d="M539.297,-10C586.043,-10 658.401,-10 713.814,-10"/>
<polygon fill="midnightblue" stroke="midnightblue" points="539.149,-6.5001 529.149,-10 539.149,-13.5001 539.149,-6.5001"/>
</g>
</g>
</svg>
        <g id="navigator" transform="translate(0 0)" fill="#404254">
                <rect fill="#f2f5e9" fill-opacity="0.5" stroke="#606060" stroke-width=".5" x="0" y="0" width="60" height="60"/>
                <use id="zoomplus" xlink:href="#zoomPlus" x="17" y="9" onmousedown="handleZoom(evt,'in')"/>
                <use id="zoomminus" xlink:href="#zoomMin" x="42" y="9" onmousedown="handleZoom(evt,'out')"/>
                <use id="reset" xlink:href="#resetDef" x="30" y="36" onmousedown="handleReset()"/>
                <g id="arrowUp" xlink:href="#dirArrow" transform="translate(30 24)" onmousedown="handlePan(0,-1)">
                  <use xlink:href="#rim" fill="#404040">
                        <set attributeName="fill" to="#808080" begin="arrowUp.mouseover" end="arrowUp.mouseout"/>
                  </use>
                  <path fill="none" stroke="white" stroke-width="1.5" d="M0,-3.0v7 M-2.5,-0.5L0,-3.0L2.5,-0.5"/>
                </g>
                <g id="arrowRight" xlink:href="#dirArrow" transform="rotate(90) translate(36 -43)" onmousedown="handlePan(1,0)">
                  <use xlink:href="#rim" fill="#404040">
                        <set attributeName="fill" to="#808080" begin="arrowRight.mouseover" end="arrowRight.mouseout"/>
                  </use>
                  <path fill="none" stroke="white" stroke-width="1.5" d="M0,-3.0v7 M-2.5,-0.5L0,-3.0L2.5,-0.5"/>
                </g>
                <g id="arrowDown" xlink:href="#dirArrow" transform="rotate(180) translate(-30 -48)" onmousedown="handlePan(0,1)">
                  <use xlink:href="#rim" fill="#404040">
                        <set attributeName="fill" to="#808080" begin="arrowDown.mouseover" end="arrowDown.mouseout"/>
                  </use>
                  <path fill="none" stroke="white" stroke-width="1.5" d="M0,-3.0v7 M-2.5,-0.5L0,-3.0L2.5,-0.5"/>
                </g>
                <g id="arrowLeft" xlink:href="#dirArrow" transform="rotate(270) translate(-36 17)" onmousedown="handlePan(-1,0)">
                  <use xlink:href="#rim" fill="#404040">
                        <set attributeName="fill" to="#808080" begin="arrowLeft.mouseover" end="arrowLeft.mouseout"/>
                  </use>
                  <path fill="none" stroke="white" stroke-width="1.5" d="M0,-3.0v7 M-2.5,-0.5L0,-3.0L2.5,-0.5"/>
                </g>
        </g>
        <svg viewBox="0 0 15 15" width="100%" height="30px" preserveAspectRatio="xMaxYMin meet">
         <g id="arrow_out" transform="scale(0.3 0.3)">
          <a xlink:href="classIG_1_1Num_1_1ScalarFunctionRadialParametric__coll__graph_org.svg" target="_base">
           <rect id="button" ry="5" rx="5" y="6" x="6" height="38" width="38"
                fill="#f2f5e9" fill-opacity="0.5" stroke="#606060" stroke-width="1.0"/>
           <path id="arrow"
             d="M 11.500037,31.436501 C 11.940474,20.09759 22.043105,11.32322 32.158766,21.979434 L 37.068811,17.246167 C 37.068811,17.246167 37.088388,32 37.088388,32 L 22.160133,31.978069 C 22.160133,31.978069 26.997745,27.140456 26.997745,27.140456 C 18.528582,18.264221 13.291696,25.230495 11.500037,31.436501 z"
             style="fill:#404040;"/>
          </a>
         </g>
        </svg>
</svg>
