<?xml version="1.0" encoding="UTF-8" standalone="no"?>
<!DOCTYPE svg PUBLIC "-//W3C//DTD SVG 1.1//EN"
 "http://www.w3.org/Graphics/SVG/1.1/DTD/svg11.dtd">
<!-- Generated by graphviz version 2.38.0 (20140413.2041)
 -->
<!-- Title: IG.Lib.SerializerJson Pages: 1 -->
<svg width="135pt" height="196pt"
 viewBox="0.00 0.00 135.00 196.00" xmlns="http://www.w3.org/2000/svg" xmlns:xlink="http://www.w3.org/1999/xlink">
<g id="graph0" class="graph" transform="scale(1 1) rotate(0) translate(4 192)">
<title>IG.Lib.SerializerJson</title>
<polygon fill="white" stroke="none" points="-4,4 -4,-192 131,-192 131,4 -4,4"/>
<!-- Node1 -->
<g id="node1" class="node"><title>Node1</title>
<g id="a_node1"><a xlink:title="Helper class for JSON serialization and deserialization. This class enables formatting of the generat...">
<polygon fill="#bfbfbf" stroke="black" points="0,-0.5 0,-19.5 106,-19.5 106,-0.5 0,-0.5"/>
<text text-anchor="middle" x="53" y="-7.5" font-family="Helvetica,sans-Serif" font-size="10.00">IG.Lib.SerializerJson</text>
</a>
</g>
</g>
<!-- Node2 -->
<g id="node2" class="node"><title>Node2</title>
<g id="a_node2"><a xlink:href="../../d0/d1a/classIG_1_1Lib_1_1SerializerJsonBase.html" target="_top" xlink:title="Helper class for JSON serialization and deserialization. This class does not enable formatting of the...">
<polygon fill="white" stroke="black" points="3,-56.5 3,-75.5 103,-75.5 103,-56.5 3,-56.5"/>
<text text-anchor="middle" x="53" y="-63.5" font-family="Helvetica,sans-Serif" font-size="10.00">SerializerJsonBase</text>
</a>
</g>
</g>
<!-- Node2&#45;&gt;Node1 -->
<g id="edge1" class="edge"><title>Node2&#45;&gt;Node1</title>
<path fill="none" stroke="midnightblue" d="M53,-45.8045C53,-36.9102 53,-26.7798 53,-19.7511"/>
<polygon fill="midnightblue" stroke="midnightblue" points="49.5001,-46.083 53,-56.083 56.5001,-46.083 49.5001,-46.083"/>
</g>
<!-- Node3 -->
<g id="node3" class="node"><title>Node3</title>
<g id="a_node3"><a xlink:href="../../d0/d1b/classIG_1_1Lib_1_1SerializerBase.html" target="_top" xlink:title="Base class for serialization helper classes.">
<polygon fill="white" stroke="black" points="47,-112.5 47,-131.5 127,-131.5 127,-112.5 47,-112.5"/>
<text text-anchor="middle" x="87" y="-119.5" font-family="Helvetica,sans-Serif" font-size="10.00">SerializerBase</text>
</a>
</g>
</g>
<!-- Node3&#45;&gt;Node2 -->
<g id="edge2" class="edge"><title>Node3&#45;&gt;Node2</title>
<path fill="none" stroke="midnightblue" d="M76.0228,-103.566C70.173,-94.2747 63.2305,-83.2484 58.5099,-75.7511"/>
<polygon fill="midnightblue" stroke="midnightblue" points="73.0956,-105.486 81.3856,-112.083 79.0192,-101.756 73.0956,-105.486"/>
</g>
<!-- Node4 -->
<g id="node4" class="node"><title>Node4</title>
<g id="a_node4"><a xlink:href="../../d1/d02/interfaceIG_1_1Lib_1_1ISerializer.html" target="_top" xlink:title="Interface for helper classes that perform serialization/deserialization of objects.">
<polygon fill="white" stroke="black" points="23.5,-168.5 23.5,-187.5 82.5,-187.5 82.5,-168.5 23.5,-168.5"/>
<text text-anchor="middle" x="53" y="-175.5" font-family="Helvetica,sans-Serif" font-size="10.00">ISerializer</text>
</a>
</g>
</g>
<!-- Node4&#45;&gt;Node2 -->
<g id="edge4" class="edge"><title>Node4&#45;&gt;Node2</title>
<path fill="none" stroke="midnightblue" d="M45.4438,-158.782C42.4923,-150.725 39.4675,-141.043 38,-132 34.6979,-111.651 43.2397,-88.1752 48.7514,-75.7585"/>
<polygon fill="midnightblue" stroke="midnightblue" points="42.2436,-160.209 49.1443,-168.249 48.7632,-157.661 42.2436,-160.209"/>
</g>
<!-- Node4&#45;&gt;Node3 -->
<g id="edge3" class="edge"><title>Node4&#45;&gt;Node3</title>
<path fill="none" stroke="midnightblue" d="M63.9772,-159.566C69.827,-150.275 76.7695,-139.248 81.4901,-131.751"/>
<polygon fill="midnightblue" stroke="midnightblue" points="60.9808,-157.756 58.6144,-168.083 66.9044,-161.486 60.9808,-157.756"/>
</g>
</g>
</svg>
