<?xml version="1.0" encoding="UTF-8" standalone="no"?>
<!DOCTYPE svg PUBLIC "-//W3C//DTD SVG 1.1//EN"
 "http://www.w3.org/Graphics/SVG/1.1/DTD/svg11.dtd">
<!-- Generated by graphviz version 2.38.0 (20140413.2041)
 -->
<!-- Title: IG.Num.IAffineTransformation Pages: 1 -->
<svg width="199pt" height="162pt"
 viewBox="0.00 0.00 198.50 162.00" xmlns="http://www.w3.org/2000/svg" xmlns:xlink="http://www.w3.org/1999/xlink">
<g id="graph0" class="graph" transform="scale(1 1) rotate(0) translate(4 158)">
<title>IG.Num.IAffineTransformation</title>
<polygon fill="white" stroke="none" points="-4,4 -4,-158 194.5,-158 194.5,4 -4,4"/>
<!-- Node1 -->
<g id="node1" class="node"><title>Node1</title>
<g id="a_node1"><a xlink:title="Affine Transformation.">
<polygon fill="#bfbfbf" stroke="black" points="0,-134.5 0,-153.5 143,-153.5 143,-134.5 0,-134.5"/>
<text text-anchor="middle" x="71.5" y="-141.5" font-family="Helvetica,sans-Serif" font-size="10.00">IG.Num.IAffineTransformation</text>
</a>
</g>
</g>
<!-- Node2 -->
<g id="node2" class="node"><title>Node2</title>
<g id="a_node2"><a xlink:href="../../d6/d8b/classIG_1_1Num_1_1AffineTransformationDiagonal.html" target="_top" xlink:title="Affine transformation with diagonal tansformation matrix.">
<polygon fill="white" stroke="black" points="1.5,-0.5 1.5,-30.5 141.5,-30.5 141.5,-0.5 1.5,-0.5"/>
<text text-anchor="start" x="9.5" y="-18.5" font-family="Helvetica,sans-Serif" font-size="10.00">IG.Num.AffineTransformation</text>
<text text-anchor="middle" x="71.5" y="-7.5" font-family="Helvetica,sans-Serif" font-size="10.00">Diagonal</text>
</a>
</g>
</g>
<!-- Node1&#45;&gt;Node2 -->
<g id="edge1" class="edge"><title>Node1&#45;&gt;Node2</title>
<path fill="none" stroke="midnightblue" d="M57.0011,-126.398C50.9523,-118.388 44.6171,-108.295 41.5,-98 37.5074,-84.8134 37.8513,-80.2859 41.5,-67 45.1728,-53.6263 53.41,-40.2097 60.3255,-30.5702"/>
<polygon fill="midnightblue" stroke="midnightblue" points="54.2813,-128.601 63.2864,-134.182 59.7277,-124.203 54.2813,-128.601"/>
</g>
<!-- Node3 -->
<g id="node3" class="node"><title>Node3</title>
<g id="a_node3"><a xlink:href="../../de/d0d/classIG_1_1Num_1_1AffineTransformationSquare.html" target="_top" xlink:title="Invertible Affine transformation with square transformation matrix.">
<polygon fill="white" stroke="black" points="50.5,-67.5 50.5,-97.5 190.5,-97.5 190.5,-67.5 50.5,-67.5"/>
<text text-anchor="start" x="58.5" y="-85.5" font-family="Helvetica,sans-Serif" font-size="10.00">IG.Num.AffineTransformation</text>
<text text-anchor="middle" x="120.5" y="-74.5" font-family="Helvetica,sans-Serif" font-size="10.00">Square</text>
</a>
</g>
</g>
<!-- Node1&#45;&gt;Node3 -->
<g id="edge2" class="edge"><title>Node1&#45;&gt;Node3</title>
<path fill="none" stroke="midnightblue" d="M85.0638,-126.53C92.5681,-117.417 101.795,-106.214 108.952,-97.523"/>
<polygon fill="midnightblue" stroke="midnightblue" points="82.1758,-124.531 78.5205,-134.475 87.5794,-128.981 82.1758,-124.531"/>
</g>
<!-- Node3&#45;&gt;Node2 -->
<g id="edge3" class="edge"><title>Node3&#45;&gt;Node2</title>
<path fill="none" stroke="midnightblue" d="M103.657,-59.1575C96.5117,-49.6788 88.4001,-38.9186 82.1115,-30.5765"/>
<polygon fill="midnightblue" stroke="midnightblue" points="101.053,-61.5176 109.868,-67.396 106.643,-57.3038 101.053,-61.5176"/>
</g>
</g>
</svg>
