<?xml version="1.0" encoding="UTF-8" standalone="no"?>
<!DOCTYPE svg PUBLIC "-//W3C//DTD SVG 1.1//EN"
 "http://www.w3.org/Graphics/SVG/1.1/DTD/svg11.dtd">
<!-- Generated by graphviz version 2.38.0 (20140413.2041)
 -->
<!-- Title: IG.Lib.ExpressionEvaluatorJint Pages: 1 -->
<!--zoomable 188 -->
<svg id="main" version="1.1" xmlns="http://www.w3.org/2000/svg" xmlns:xlink="http://www.w3.org/1999/xlink" xml:space="preserve" onload="init(evt)">
<style type="text/css"><![CDATA[
.edge:hover path { stroke: red; }
.edge:hover polygon { stroke: red; fill: red; }
]]></style>
<script type="text/javascript"><![CDATA[
var edges = document.getElementsByTagName('g');
if (edges && edges.length) {
  for (var i=0;i<edges.length;i++) {
    if (edges[i].id.substr(0,4)=='edge') {
      edges[i].setAttribute('class','edge');
    }
  }
}
]]></script>
        <defs>
                <circle id="rim" cx="0" cy="0" r="7"/>
                <circle id="rim2" cx="0" cy="0" r="3.5"/>
                <g id="zoomPlus">
                        <use xlink:href="#rim" fill="#404040">
                                <set attributeName="fill" to="#808080" begin="zoomplus.mouseover" end="zoomplus.mouseout"/>
                        </use>
                        <path d="M-4,0h8M0,-4v8" fill="none" stroke="white" stroke-width="1.5" pointer-events="none"/>
                </g>
                <g id="zoomMin">
                        <use xlink:href="#rim" fill="#404040">
                                <set attributeName="fill" to="#808080" begin="zoomminus.mouseover" end="zoomminus.mouseout"/>
                        </use>
                        <path d="M-4,0h8" fill="none" stroke="white" stroke-width="1.5" pointer-events="none"/>
                </g>
                <g id="dirArrow">
                        <path fill="none" stroke="white" stroke-width="1.5" d="M0,-3.0v7 M-2.5,-0.5L0,-3.0L2.5,-0.5"/>
                </g>
               <g id="resetDef">
                       <use xlink:href="#rim2" fill="#404040">
                               <set attributeName="fill" to="#808080" begin="reset.mouseover" end="reset.mouseout"/>
                       </use>
               </g>
        </defs>

<script type="text/javascript">
var viewWidth = 591;
var viewHeight = 188;
var sectionId = 'dynsection-0';
</script>
<script xlink:href="../../svgpan.js"/>
<svg id="graph" class="graph">
<g id="viewport">
<title>IG.Lib.ExpressionEvaluatorJint</title>
<polygon fill="white" stroke="none" points="-4,4 -4,-184.176 587,-184.176 587,4 -4,4"/>
<!-- Node1 -->
<g id="node1" class="node"><title>Node1</title>
<g id="a_node1"><a xlink:title="JavaScript Evaluator with command&#45;line interpreter, based on Jint.">
<polygon fill="#bfbfbf" stroke="black" points="434,-63.0321 434,-82.0321 583,-82.0321 583,-63.0321 434,-63.0321"/>
<text text-anchor="middle" x="508.5" y="-70.0321" font-family="Helvetica,sans-Serif" font-size="10.00">IG.Lib.ExpressionEvaluatorJint</text>
</a>
</g>
</g>
<!-- Node2 -->
<g id="node2" class="node"><title>Node2</title>
<g id="a_node2"><a xlink:href="../../da/d42/classIG_1_1Lib_1_1ExpressionEvaluatorJs.html" target="_top" xlink:title="JavaScript Evaluator with command&#45;line interpreter.">
<polygon fill="white" stroke="black" points="283,-82.0321 283,-101.032 398,-101.032 398,-82.0321 283,-82.0321"/>
<text text-anchor="middle" x="340.5" y="-89.0321" font-family="Helvetica,sans-Serif" font-size="10.00">ExpressionEvaluatorJs</text>
</a>
</g>
</g>
<!-- Node2&#45;&gt;Node1 -->
<g id="edge1" class="edge"><title>Node2&#45;&gt;Node1</title>
<path fill="none" stroke="midnightblue" d="M408.263,-83.8906C416.657,-82.9298 425.281,-81.9427 433.774,-80.9706"/>
<polygon fill="midnightblue" stroke="midnightblue" points="407.701,-80.432 398.163,-85.0466 408.497,-87.3866 407.701,-80.432"/>
</g>
<!-- Node3 -->
<g id="node3" class="node"><title>Node3</title>
<g id="a_node3"><a xlink:href="../../dd/dec/classIG_1_1Lib_1_1ExpressionEvaluatorCompiled.html" target="_top" xlink:title="Base class for expression evaluators that utilize the functionality of CodeDomProvider class.">
<polygon fill="white" stroke="black" points="101,-120.032 101,-139.032 247,-139.032 247,-120.032 101,-120.032"/>
<text text-anchor="middle" x="174" y="-127.032" font-family="Helvetica,sans-Serif" font-size="10.00">ExpressionEvaluatorCompiled</text>
</a>
</g>
</g>
<!-- Node3&#45;&gt;Node2 -->
<g id="edge2" class="edge"><title>Node3&#45;&gt;Node2</title>
<path fill="none" stroke="midnightblue" d="M226.497,-117.636C249.62,-112.295 276.53,-106.078 298.288,-101.052"/>
<polygon fill="midnightblue" stroke="midnightblue" points="225.466,-114.282 216.51,-119.943 227.042,-121.103 225.466,-114.282"/>
</g>
<!-- Node4 -->
<g id="node4" class="node"><title>Node4</title>
<g id="a_node4"><a xlink:href="../../d3/db6/interfaceIG_1_1Lib_1_1ILockable.html" target="_top" xlink:title="Lockable object, has a Lock property that returns object on which lock must be performed in order to ...">
<polygon fill="white" stroke="black" points="3.5,-158.032 3.5,-177.032 61.5,-177.032 61.5,-158.032 3.5,-158.032"/>
<text text-anchor="middle" x="32.5" y="-165.032" font-family="Helvetica,sans-Serif" font-size="10.00">ILockable</text>
</a>
</g>
</g>
<!-- Node4&#45;&gt;Node1 -->
<g id="edge8" class="edge"><title>Node4&#45;&gt;Node1</title>
<path fill="none" stroke="midnightblue" d="M71.8096,-173.45C114.837,-178.98 186.559,-184.839 247,-173.532 342.834,-155.604 448.769,-103.565 489.865,-82.0322"/>
<polygon fill="midnightblue" stroke="midnightblue" points="72.1519,-169.964 61.7742,-172.098 71.2175,-176.902 72.1519,-169.964"/>
</g>
<!-- Node4&#45;&gt;Node2 -->
<g id="edge5" class="edge"><title>Node4&#45;&gt;Node2</title>
<path fill="none" stroke="midnightblue" d="M71.7808,-169.343C115.352,-170.225 188.108,-168.082 247,-148.532 278.867,-137.954 311.139,-114.529 327.846,-101.236"/>
<polygon fill="midnightblue" stroke="midnightblue" points="71.7125,-165.84 61.6224,-169.071 71.5252,-172.837 71.7125,-165.84"/>
</g>
<!-- Node4&#45;&gt;Node3 -->
<g id="edge3" class="edge"><title>Node4&#45;&gt;Node3</title>
<path fill="none" stroke="midnightblue" d="M71.4691,-157.189C92.1748,-151.549 117.633,-144.614 137.877,-139.1"/>
<polygon fill="midnightblue" stroke="midnightblue" points="70.4584,-153.837 61.7299,-159.842 72.2983,-160.591 70.4584,-153.837"/>
</g>
<!-- Node5 -->
<g id="node5" class="node"><title>Node5</title>
<g id="a_node5"><a xlink:href="../../dc/d79/interfaceIG_1_1Lib_1_1IIdentifiable.html" target="_top" xlink:title="Classes whose instances have unique integer IDs.">
<polygon fill="white" stroke="black" points="0,-82.0321 0,-101.032 65,-101.032 65,-82.0321 0,-82.0321"/>
<text text-anchor="middle" x="32.5" y="-89.0321" font-family="Helvetica,sans-Serif" font-size="10.00">IIdentifiable</text>
</a>
</g>
</g>
<!-- Node5&#45;&gt;Node1 -->
<g id="edge9" class="edge"><title>Node5&#45;&gt;Node1</title>
<path fill="none" stroke="midnightblue" d="M44.921,-73.3829C56.6573,-56.6101 76.6277,-32.7847 101,-22.5321 238.965,35.5051 424.885,-35.7078 486.616,-62.8551"/>
<polygon fill="midnightblue" stroke="midnightblue" points="41.9135,-71.5842 39.2723,-81.8446 47.7355,-75.4708 41.9135,-71.5842"/>
</g>
<!-- Node5&#45;&gt;Node2 -->
<g id="edge6" class="edge"><title>Node5&#45;&gt;Node2</title>
<path fill="none" stroke="midnightblue" d="M75.305,-91.5321C129.125,-91.5321 222.858,-91.5321 282.992,-91.5321"/>
<polygon fill="midnightblue" stroke="midnightblue" points="75.0949,-88.0322 65.0948,-91.5321 75.0948,-95.0322 75.0949,-88.0322"/>
</g>
<!-- Node5&#45;&gt;Node3 -->
<g id="edge4" class="edge"><title>Node5&#45;&gt;Node3</title>
<path fill="none" stroke="midnightblue" d="M74.9698,-102.829C95.0512,-108.299 118.898,-114.795 138.043,-120.01"/>
<polygon fill="midnightblue" stroke="midnightblue" points="75.7231,-99.4063 65.1547,-100.155 73.8832,-106.16 75.7231,-99.4063"/>
</g>
<!-- Node6 -->
<g id="node6" class="node"><title>Node6</title>
<g id="a_node6"><a xlink:href="../../d5/d7a/interfaceIG_1_1Lib_1_1IRegisterable.html" target="_top" xlink:title=" ">
<polygon fill="white" stroke="black" points="108.5,-32.5321 108.5,-62.5321 239.5,-62.5321 239.5,-32.5321 108.5,-32.5321"/>
<text text-anchor="start" x="116.5" y="-50.5321" font-family="Helvetica,sans-Serif" font-size="10.00">IRegisterable&lt; Expression</text>
<text text-anchor="middle" x="174" y="-39.5321" font-family="Helvetica,sans-Serif" font-size="10.00">EvaluatorJs &gt;</text>
</a>
</g>
</g>
<!-- Node6&#45;&gt;Node1 -->
<g id="edge10" class="edge"><title>Node6&#45;&gt;Node1</title>
<path fill="none" stroke="midnightblue" d="M249.542,-53.1368C304.57,-57.2743 379.107,-62.8785 433.908,-66.9989"/>
<polygon fill="midnightblue" stroke="midnightblue" points="249.738,-49.6418 239.504,-52.382 249.213,-56.622 249.738,-49.6418"/>
</g>
<!-- Node6&#45;&gt;Node2 -->
<g id="edge7" class="edge"><title>Node6&#45;&gt;Node2</title>
<path fill="none" stroke="midnightblue" d="M240.872,-65.1515C262.315,-70.8869 285.305,-77.0362 303.69,-81.9539"/>
<polygon fill="midnightblue" stroke="midnightblue" points="241.716,-61.7543 231.151,-62.5514 239.907,-68.5165 241.716,-61.7543"/>
</g>
</g>
</svg>
        <g id="navigator" transform="translate(0 0)" fill="#404254">
                <rect fill="#f2f5e9" fill-opacity="0.5" stroke="#606060" stroke-width=".5" x="0" y="0" width="60" height="60"/>
                <use id="zoomplus" xlink:href="#zoomPlus" x="17" y="9" onmousedown="handleZoom(evt,'in')"/>
                <use id="zoomminus" xlink:href="#zoomMin" x="42" y="9" onmousedown="handleZoom(evt,'out')"/>
                <use id="reset" xlink:href="#resetDef" x="30" y="36" onmousedown="handleReset()"/>
                <g id="arrowUp" xlink:href="#dirArrow" transform="translate(30 24)" onmousedown="handlePan(0,-1)">
                  <use xlink:href="#rim" fill="#404040">
                        <set attributeName="fill" to="#808080" begin="arrowUp.mouseover" end="arrowUp.mouseout"/>
                  </use>
                  <path fill="none" stroke="white" stroke-width="1.5" d="M0,-3.0v7 M-2.5,-0.5L0,-3.0L2.5,-0.5"/>
                </g>
                <g id="arrowRight" xlink:href="#dirArrow" transform="rotate(90) translate(36 -43)" onmousedown="handlePan(1,0)">
                  <use xlink:href="#rim" fill="#404040">
                        <set attributeName="fill" to="#808080" begin="arrowRight.mouseover" end="arrowRight.mouseout"/>
                  </use>
                  <path fill="none" stroke="white" stroke-width="1.5" d="M0,-3.0v7 M-2.5,-0.5L0,-3.0L2.5,-0.5"/>
                </g>
                <g id="arrowDown" xlink:href="#dirArrow" transform="rotate(180) translate(-30 -48)" onmousedown="handlePan(0,1)">
                  <use xlink:href="#rim" fill="#404040">
                        <set attributeName="fill" to="#808080" begin="arrowDown.mouseover" end="arrowDown.mouseout"/>
                  </use>
                  <path fill="none" stroke="white" stroke-width="1.5" d="M0,-3.0v7 M-2.5,-0.5L0,-3.0L2.5,-0.5"/>
                </g>
                <g id="arrowLeft" xlink:href="#dirArrow" transform="rotate(270) translate(-36 17)" onmousedown="handlePan(-1,0)">
                  <use xlink:href="#rim" fill="#404040">
                        <set attributeName="fill" to="#808080" begin="arrowLeft.mouseover" end="arrowLeft.mouseout"/>
                  </use>
                  <path fill="none" stroke="white" stroke-width="1.5" d="M0,-3.0v7 M-2.5,-0.5L0,-3.0L2.5,-0.5"/>
                </g>
        </g>
        <svg viewBox="0 0 15 15" width="100%" height="30px" preserveAspectRatio="xMaxYMin meet">
         <g id="arrow_out" transform="scale(0.3 0.3)">
          <a xlink:href="classIG_1_1Lib_1_1ExpressionEvaluatorJint__inherit__graph_org.svg" target="_base">
           <rect id="button" ry="5" rx="5" y="6" x="6" height="38" width="38"
                fill="#f2f5e9" fill-opacity="0.5" stroke="#606060" stroke-width="1.0"/>
           <path id="arrow"
             d="M 11.500037,31.436501 C 11.940474,20.09759 22.043105,11.32322 32.158766,21.979434 L 37.068811,17.246167 C 37.068811,17.246167 37.088388,32 37.088388,32 L 22.160133,31.978069 C 22.160133,31.978069 26.997745,27.140456 26.997745,27.140456 C 18.528582,18.264221 13.291696,25.230495 11.500037,31.436501 z"
             style="fill:#404040;"/>
          </a>
         </g>
        </svg>
</svg>
