<?xml version="1.0" encoding="UTF-8" standalone="no"?>
<!DOCTYPE svg PUBLIC "-//W3C//DTD SVG 1.1//EN"
 "http://www.w3.org/Graphics/SVG/1.1/DTD/svg11.dtd">
<!-- Generated by graphviz version 2.38.0 (20140413.2041)
 -->
<!-- Title: IG.Num.VectorFunctionExamples.RosenrockAndCircle Pages: 1 -->
<svg width="499pt" height="318pt"
 viewBox="0.00 0.00 499.05 318.00" xmlns="http://www.w3.org/2000/svg" xmlns:xlink="http://www.w3.org/1999/xlink">
<g id="graph0" class="graph" transform="scale(1 1) rotate(0) translate(4 314)">
<title>IG.Num.VectorFunctionExamples.RosenrockAndCircle</title>
<polygon fill="white" stroke="none" points="-4,4 -4,-314 495.053,-314 495.053,4 -4,4"/>
<!-- Node1 -->
<g id="node1" class="node"><title>Node1</title>
<g id="a_node1"><a xlink:title="Example &#45; 2 component vector function of 2 variables. The first component is the Rosenbrock function ...">
<polygon fill="#bfbfbf" stroke="black" points="16.0525,-0.5 16.0525,-30.5 181.053,-30.5 181.053,-0.5 16.0525,-0.5"/>
<text text-anchor="start" x="24.0525" y="-18.5" font-family="Helvetica,sans-Serif" font-size="10.00">IG.Num.VectorFunctionExamples.</text>
<text text-anchor="middle" x="98.5525" y="-7.5" font-family="Helvetica,sans-Serif" font-size="10.00">RosenrockAndCircle</text>
</a>
</g>
</g>
<!-- Node2 -->
<g id="node2" class="node"><title>Node2</title>
<g id="a_node2"><a xlink:href="../../da/de7/classIG_1_1Num_1_1VectorFunctionBase.html" target="_top" xlink:title="Base class for defining Vector functions whose evaluation is defined in bulk, and evaluation of indiv...">
<polygon fill="white" stroke="black" points="46.0525,-89.5 46.0525,-108.5 151.053,-108.5 151.053,-89.5 46.0525,-89.5"/>
<text text-anchor="middle" x="98.5525" y="-96.5" font-family="Helvetica,sans-Serif" font-size="10.00">VectorFunctionBase</text>
</a>
</g>
</g>
<!-- Node2&#45;&gt;Node1 -->
<g id="edge1" class="edge"><title>Node2&#45;&gt;Node1</title>
<path fill="none" stroke="midnightblue" d="M98.5525,-79.229C98.5525,-64.4075 98.5525,-44.0505 98.5525,-30.5974"/>
<polygon fill="midnightblue" stroke="midnightblue" points="95.0526,-79.278 98.5525,-89.2781 102.053,-79.2781 95.0526,-79.278"/>
</g>
<!-- Node3 -->
<g id="node3" class="node"><title>Node3</title>
<g id="a_node3"><a xlink:href="../../dc/d23/classIG_1_1Num_1_1VectorFunctionBaseGeneral.html" target="_top" xlink:title="Base class for VectorFunctionBase and VectorFunctionBaseComponentwise. In general,...">
<polygon fill="white" stroke="black" points="143.053,-156.5 143.053,-175.5 282.053,-175.5 282.053,-156.5 143.053,-156.5"/>
<text text-anchor="middle" x="212.553" y="-163.5" font-family="Helvetica,sans-Serif" font-size="10.00">VectorFunctionBaseGeneral</text>
</a>
</g>
</g>
<!-- Node3&#45;&gt;Node2 -->
<g id="edge2" class="edge"><title>Node3&#45;&gt;Node2</title>
<path fill="none" stroke="midnightblue" d="M188.2,-151.115C165.614,-138.237 132.71,-119.476 113.683,-108.627"/>
<polygon fill="midnightblue" stroke="midnightblue" points="186.757,-154.321 197.178,-156.234 190.224,-148.24 186.757,-154.321"/>
</g>
<!-- Node9 -->
<g id="node9" class="node"><title>Node9</title>
<g id="a_node9"><a xlink:href="../../da/de7/classIG_1_1Num_1_1VectorFunctionBase.html" target="_top" xlink:title="Base class for defining Vector functions whose evaluation is defined in bulk, and evaluation of indiv...">
<polygon fill="white" stroke="black" points="169.053,-89.5 169.053,-108.5 310.053,-108.5 310.053,-89.5 169.053,-89.5"/>
<text text-anchor="middle" x="239.553" y="-96.5" font-family="Helvetica,sans-Serif" font-size="10.00">IG.Num.VectorFunctionBase</text>
</a>
</g>
</g>
<!-- Node3&#45;&gt;Node9 -->
<g id="edge10" class="edge"><title>Node3&#45;&gt;Node9</title>
<path fill="none" stroke="midnightblue" d="M214.986,-146.027C216.191,-139.798 217.964,-132.95 220.553,-127 223.388,-120.483 227.934,-113.944 231.869,-108.934"/>
<polygon fill="midnightblue" stroke="midnightblue" points="211.476,-145.821 213.378,-156.244 218.39,-146.91 211.476,-145.821"/>
</g>
<!-- Node4 -->
<g id="node4" class="node"><title>Node4</title>
<g id="a_node4"><a xlink:href="../../da/d06/interfaceIG_1_1Num_1_1IVectorFunction.html" target="_top" xlink:title="Vector function of a vector argument.">
<polygon fill="white" stroke="black" points="72.0525,-223.5 72.0525,-242.5 157.053,-242.5 157.053,-223.5 72.0525,-223.5"/>
<text text-anchor="middle" x="114.553" y="-230.5" font-family="Helvetica,sans-Serif" font-size="10.00">IVectorFunction</text>
</a>
</g>
</g>
<!-- Node4&#45;&gt;Node1 -->
<g id="edge15" class="edge"><title>Node4&#45;&gt;Node1</title>
<path fill="none" stroke="midnightblue" d="M99.7072,-215.536C80.7357,-193.272 48.8765,-151.446 36.5525,-109 27.4964,-77.8091 57.0276,-47.7199 78.4004,-30.7191"/>
<polygon fill="midnightblue" stroke="midnightblue" points="97.2922,-218.092 106.505,-223.324 102.566,-213.489 97.2922,-218.092"/>
</g>
<!-- Node4&#45;&gt;Node2 -->
<g id="edge13" class="edge"><title>Node4&#45;&gt;Node2</title>
<path fill="none" stroke="midnightblue" d="M112.283,-213.275C108.764,-184.246 102.133,-129.538 99.5854,-108.521"/>
<polygon fill="midnightblue" stroke="midnightblue" points="108.825,-213.833 113.503,-223.339 115.774,-212.991 108.825,-213.833"/>
</g>
<!-- Node4&#45;&gt;Node3 -->
<g id="edge3" class="edge"><title>Node4&#45;&gt;Node3</title>
<path fill="none" stroke="midnightblue" d="M136.272,-217.595C155.658,-204.736 183.408,-186.331 199.545,-175.627"/>
<polygon fill="midnightblue" stroke="midnightblue" points="134.168,-214.79 127.769,-223.234 138.037,-220.623 134.168,-214.79"/>
</g>
<!-- Node4&#45;&gt;Node9 -->
<g id="edge11" class="edge"><title>Node4&#45;&gt;Node9</title>
<path fill="none" stroke="midnightblue" d="M167.336,-222.292C213.624,-212.578 275.785,-196.196 290.553,-176 294.102,-171.146 290.433,-129.947 288.553,-127 283.275,-118.73 274.535,-112.783 265.886,-108.613"/>
<polygon fill="midnightblue" stroke="midnightblue" points="166.522,-218.886 157.428,-224.322 167.927,-225.744 166.522,-218.886"/>
</g>
<!-- Node5 -->
<g id="node5" class="node"><title>Node5</title>
<g id="a_node5"><a xlink:href="../../d3/db6/interfaceIG_1_1Lib_1_1ILockable.html" target="_top" xlink:title="Lockable object, has a Lock property that returns object on which lock must be performed in order to ...">
<polygon fill="white" stroke="black" points="34.5525,-290.5 34.5525,-309.5 92.5525,-309.5 92.5525,-290.5 34.5525,-290.5"/>
<text text-anchor="middle" x="63.5525" y="-297.5" font-family="Helvetica,sans-Serif" font-size="10.00">ILockable</text>
</a>
</g>
</g>
<!-- Node5&#45;&gt;Node2 -->
<g id="edge14" class="edge"><title>Node5&#45;&gt;Node2</title>
<path fill="none" stroke="midnightblue" d="M35.1247,-284.385C30.8674,-280.917 27.0679,-276.801 24.5525,-272 -5.36297,-214.904 -11.7252,-178.109 27.5525,-127 34.1419,-118.426 43.7946,-112.574 53.8721,-108.581"/>
<polygon fill="midnightblue" stroke="midnightblue" points="33.437,-287.472 43.6582,-290.261 37.407,-281.707 33.437,-287.472"/>
</g>
<!-- Node5&#45;&gt;Node3 -->
<g id="edge5" class="edge"><title>Node5&#45;&gt;Node3</title>
<path fill="none" stroke="midnightblue" d="M95.7573,-286.486C117.323,-276.944 145.353,-262.18 165.553,-243 186.928,-222.704 202.464,-190.671 209.054,-175.503"/>
<polygon fill="midnightblue" stroke="midnightblue" points="94.178,-283.354 86.3549,-290.499 96.9262,-289.792 94.178,-283.354"/>
</g>
<!-- Node5&#45;&gt;Node4 -->
<g id="edge4" class="edge"><title>Node5&#45;&gt;Node4</title>
<path fill="none" stroke="midnightblue" d="M76.6788,-282.27C86.6224,-269.597 99.8795,-252.701 107.783,-242.627"/>
<polygon fill="midnightblue" stroke="midnightblue" points="73.8499,-280.206 70.4306,-290.234 79.3571,-284.527 73.8499,-280.206"/>
</g>
<!-- Node5&#45;&gt;Node9 -->
<g id="edge12" class="edge"><title>Node5&#45;&gt;Node9</title>
<path fill="none" stroke="midnightblue" d="M59.1304,-279.944C56.397,-264.043 54.7309,-241.135 62.5525,-223 89.8946,-159.604 169.762,-123.7 212.242,-108.589"/>
<polygon fill="midnightblue" stroke="midnightblue" points="55.7747,-281.009 61.1889,-290.116 62.6357,-279.62 55.7747,-281.009"/>
</g>
<!-- Node6 -->
<g id="node6" class="node"><title>Node6</title>
<g id="a_node6"><a xlink:href="../../d5/dc3/classIG_1_1Num_1_1VectorFunctionResults.html" target="_top" xlink:title="Vector function results. Used to transfer parameters input (e.g. vector of parameters,...">
<polygon fill="white" stroke="black" points="270.553,-223.5 270.553,-242.5 422.553,-242.5 422.553,-223.5 270.553,-223.5"/>
<text text-anchor="middle" x="346.553" y="-230.5" font-family="Helvetica,sans-Serif" font-size="10.00">IG.Num.VectorFunctionResults</text>
</a>
</g>
</g>
<!-- Node6&#45;&gt;Node3 -->
<g id="edge6" class="edge"><title>Node6&#45;&gt;Node3</title>
<path fill="none" stroke="#9a32cd" stroke-dasharray="5,2" d="M319.636,-218.944C293.095,-206.069 253.283,-186.757 230.42,-175.667"/>
<polygon fill="#9a32cd" stroke="#9a32cd" points="318.233,-222.153 328.758,-223.369 321.289,-215.855 318.233,-222.153"/>
<text text-anchor="middle" x="317.553" y="-197" font-family="Helvetica,sans-Serif" font-size="10.00"> _auxResults</text>
</g>
<!-- Node7 -->
<g id="node7" class="node"><title>Node7</title>
<g id="a_node7"><a xlink:href="../../d6/dbe/interfaceIG_1_1Num_1_1IVectorFunctionResults.html" target="_top" xlink:title="Vector function results. Used to transfer parameters input (e.g. vector of parameters,...">
<polygon fill="white" stroke="black" points="247.553,-290.5 247.553,-309.5 365.553,-309.5 365.553,-290.5 247.553,-290.5"/>
<text text-anchor="middle" x="306.553" y="-297.5" font-family="Helvetica,sans-Serif" font-size="10.00">IVectorFunctionResults</text>
</a>
</g>
</g>
<!-- Node7&#45;&gt;Node6 -->
<g id="edge7" class="edge"><title>Node7&#45;&gt;Node6</title>
<path fill="none" stroke="midnightblue" d="M317.3,-281.535C325.045,-268.95 335.163,-252.507 341.243,-242.627"/>
<polygon fill="midnightblue" stroke="midnightblue" points="314.207,-279.883 311.947,-290.234 320.169,-283.552 314.207,-279.883"/>
</g>
<!-- Node8 -->
<g id="node8" class="node"><title>Node8</title>
<g id="a_node8"><a xlink:href="../../d3/d24/interfaceIG_1_1Num_1_1IVector.html" target="_top" xlink:title="Generic Vector interface">
<polygon fill="white" stroke="black" points="384.053,-290.5 384.053,-309.5 491.053,-309.5 491.053,-290.5 384.053,-290.5"/>
<text text-anchor="middle" x="437.553" y="-297.5" font-family="Helvetica,sans-Serif" font-size="10.00">IG.Num.IVector&lt; T &gt;</text>
</a>
</g>
</g>
<!-- Node8&#45;&gt;Node6 -->
<g id="edge8" class="edge"><title>Node8&#45;&gt;Node6</title>
<path fill="none" stroke="#9a32cd" stroke-dasharray="5,2" d="M417.14,-284.42C399.15,-271.569 373.548,-253.282 358.631,-242.627"/>
<polygon fill="#9a32cd" stroke="#9a32cd" points="415.108,-287.269 425.28,-290.234 419.177,-281.573 415.108,-287.269"/>
<text text-anchor="middle" x="426.553" y="-264" font-family="Helvetica,sans-Serif" font-size="10.00"> _parameters</text>
</g>
<!-- Node9&#45;&gt;Node3 -->
<g id="edge9" class="edge"><title>Node9&#45;&gt;Node3</title>
<path fill="none" stroke="#9a32cd" stroke-dasharray="5,2" d="M232.062,-118.032C226.891,-130.481 220.242,-146.488 216.194,-156.234"/>
<polygon fill="#9a32cd" stroke="#9a32cd" points="235.365,-119.205 235.969,-108.627 228.901,-116.52 235.365,-119.205"/>
<text text-anchor="middle" x="256.553" y="-130" font-family="Helvetica,sans-Serif" font-size="10.00"> _resultStore</text>
</g>
<!-- Node10 -->
<g id="node10" class="node"><title>Node10</title>
<g id="a_node10"><a xlink:href="../../dd/d1e/interfaceIG_1_1Num_1_1IScalarFunction.html" target="_top" xlink:title="Scalar functions of vector arguments, with eventual affine transformation of parameters....">
<polygon fill="white" stroke="black" points="340.553,-89.5 340.553,-108.5 460.553,-108.5 460.553,-89.5 340.553,-89.5"/>
<text text-anchor="middle" x="400.553" y="-96.5" font-family="Helvetica,sans-Serif" font-size="10.00">IG.Num.IScalarFunction</text>
</a>
</g>
</g>
<!-- Node10&#45;&gt;Node1 -->
<g id="edge16" class="edge"><title>Node10&#45;&gt;Node1</title>
<path fill="none" stroke="#9a32cd" stroke-dasharray="5,2" d="M358.821,-86.738C304.46,-72.0679 209.426,-46.4211 150.47,-30.5107"/>
<polygon fill="#9a32cd" stroke="#9a32cd" points="358.237,-90.2057 368.804,-89.4321 360.061,-83.4475 358.237,-90.2057"/>
<text text-anchor="middle" x="302.053" y="-63" font-family="Helvetica,sans-Serif" font-size="10.00"> F0</text>
<text text-anchor="middle" x="302.053" y="-52" font-family="Helvetica,sans-Serif" font-size="10.00">F1</text>
</g>
<!-- Node11 -->
<g id="node11" class="node"><title>Node11</title>
<g id="a_node11"><a xlink:href="../../d8/d56/interfaceIG_1_1Num_1_1IScalarFunctionUntransformed.html" target="_top" xlink:title="Scalar functions of vector arguments.">
<polygon fill="white" stroke="black" points="339.053,-156.5 339.053,-175.5 486.053,-175.5 486.053,-156.5 339.053,-156.5"/>
<text text-anchor="middle" x="412.553" y="-163.5" font-family="Helvetica,sans-Serif" font-size="10.00">IScalarFunctionUntransformed</text>
</a>
</g>
</g>
<!-- Node11&#45;&gt;Node10 -->
<g id="edge17" class="edge"><title>Node11&#45;&gt;Node10</title>
<path fill="none" stroke="midnightblue" d="M409.052,-146.037C406.769,-133.67 403.898,-118.12 402.145,-108.627"/>
<polygon fill="midnightblue" stroke="midnightblue" points="405.677,-147.035 410.934,-156.234 412.56,-145.765 405.677,-147.035"/>
</g>
</g>
</svg>
