<?xml version="1.0" encoding="UTF-8" standalone="no"?>
<!DOCTYPE svg PUBLIC "-//W3C//DTD SVG 1.1//EN"
 "http://www.w3.org/Graphics/SVG/1.1/DTD/svg11.dtd">
<!-- Generated by graphviz version 2.38.0 (20140413.2041)
 -->
<!-- Title: IG.Script.ScritpRealFunctionExample.Container.Function Pages: 1 -->
<svg width="212pt" height="263pt"
 viewBox="0.00 0.00 212.00 263.00" xmlns="http://www.w3.org/2000/svg" xmlns:xlink="http://www.w3.org/1999/xlink">
<g id="graph0" class="graph" transform="scale(1 1) rotate(0) translate(4 259)">
<title>IG.Script.ScritpRealFunctionExample.Container.Function</title>
<polygon fill="white" stroke="none" points="-4,4 -4,-259 208,-259 208,4 -4,4"/>
<!-- Node1 -->
<g id="node1" class="node"><title>Node1</title>
<g id="a_node1"><a xlink:title=" ">
<polygon fill="#bfbfbf" stroke="black" points="6,-0.5 6,-30.5 146,-30.5 146,-0.5 6,-0.5"/>
<text text-anchor="start" x="14" y="-18.5" font-family="Helvetica,sans-Serif" font-size="10.00">IG.Script.ScritpRealFunction</text>
<text text-anchor="middle" x="76" y="-7.5" font-family="Helvetica,sans-Serif" font-size="10.00">Example.Container.Function</text>
</a>
</g>
</g>
<!-- Node2 -->
<g id="node2" class="node"><title>Node2</title>
<g id="a_node2"><a xlink:href="../../db/d84/classIG_1_1Lib_1_1LoadableRealFunctionBase.html" target="_top" xlink:title="A RealFunction class used as base class for dynamically loaded functions. Bunctions loaded from scrip...">
<polygon fill="white" stroke="black" points="8.5,-67.5 8.5,-86.5 143.5,-86.5 143.5,-67.5 8.5,-67.5"/>
<text text-anchor="middle" x="76" y="-74.5" font-family="Helvetica,sans-Serif" font-size="10.00">LoadableRealFunctionBase</text>
</a>
</g>
</g>
<!-- Node2&#45;&gt;Node1 -->
<g id="edge1" class="edge"><title>Node2&#45;&gt;Node1</title>
<path fill="none" stroke="midnightblue" d="M76,-57.2349C76,-48.5864 76,-38.4969 76,-30.523"/>
<polygon fill="midnightblue" stroke="midnightblue" points="72.5001,-57.4751 76,-67.4751 79.5001,-57.4751 72.5001,-57.4751"/>
</g>
<!-- Node3 -->
<g id="node3" class="node"><title>Node3</title>
<g id="a_node3"><a xlink:href="../../d5/d83/classIG_1_1Num_1_1RealFunction.html" target="_top" xlink:title="Represents a real function of a real variabe.">
<polygon fill="white" stroke="black" points="39,-123.5 39,-142.5 113,-142.5 113,-123.5 39,-123.5"/>
<text text-anchor="middle" x="76" y="-130.5" font-family="Helvetica,sans-Serif" font-size="10.00">RealFunction</text>
</a>
</g>
</g>
<!-- Node3&#45;&gt;Node2 -->
<g id="edge2" class="edge"><title>Node3&#45;&gt;Node2</title>
<path fill="none" stroke="midnightblue" d="M76,-112.805C76,-103.91 76,-93.7798 76,-86.7511"/>
<polygon fill="midnightblue" stroke="midnightblue" points="72.5001,-113.083 76,-123.083 79.5001,-113.083 72.5001,-113.083"/>
</g>
<!-- Node4 -->
<g id="node4" class="node"><title>Node4</title>
<g id="a_node4"><a xlink:href="../../d6/d30/classIG_1_1Num_1_1RealFunctionBase.html" target="_top" xlink:title="Base class for real functions of real variable.">
<polygon fill="white" stroke="black" points="28,-179.5 28,-198.5 124,-198.5 124,-179.5 28,-179.5"/>
<text text-anchor="middle" x="76" y="-186.5" font-family="Helvetica,sans-Serif" font-size="10.00">RealFunctionBase</text>
</a>
</g>
</g>
<!-- Node4&#45;&gt;Node3 -->
<g id="edge3" class="edge"><title>Node4&#45;&gt;Node3</title>
<path fill="none" stroke="midnightblue" d="M76,-168.805C76,-159.91 76,-149.78 76,-142.751"/>
<polygon fill="midnightblue" stroke="midnightblue" points="72.5001,-169.083 76,-179.083 79.5001,-169.083 72.5001,-169.083"/>
</g>
<!-- Node5 -->
<g id="node5" class="node"><title>Node5</title>
<g id="a_node5"><a xlink:href="../../db/d0e/interfaceIG_1_1Num_1_1IRealFunction.html" target="_top" xlink:title="Interface for real functions.">
<polygon fill="white" stroke="black" points="0,-235.5 0,-254.5 76,-254.5 76,-235.5 0,-235.5"/>
<text text-anchor="middle" x="38" y="-242.5" font-family="Helvetica,sans-Serif" font-size="10.00">IRealFunction</text>
</a>
</g>
</g>
<!-- Node5&#45;&gt;Node3 -->
<g id="edge5" class="edge"><title>Node5&#45;&gt;Node3</title>
<path fill="none" stroke="midnightblue" d="M26.164,-226.546C18.6333,-213.116 11.5737,-194.325 19,-179 27.0275,-162.435 44.4382,-150.128 57.9185,-142.61"/>
<polygon fill="midnightblue" stroke="midnightblue" points="23.3033,-228.575 31.5304,-235.251 29.262,-224.901 23.3033,-228.575"/>
</g>
<!-- Node5&#45;&gt;Node4 -->
<g id="edge4" class="edge"><title>Node5&#45;&gt;Node4</title>
<path fill="none" stroke="midnightblue" d="M50.0647,-226.855C56.6447,-217.505 64.511,-206.327 69.8418,-198.751"/>
<polygon fill="midnightblue" stroke="midnightblue" points="47.1676,-224.891 44.2749,-235.083 52.8922,-228.919 47.1676,-224.891"/>
</g>
<!-- Node6 -->
<g id="node6" class="node"><title>Node6</title>
<g id="a_node6"><a xlink:title=" ">
<polygon fill="white" stroke="#bfbfbf" points="142,-179.5 142,-198.5 204,-198.5 204,-179.5 142,-179.5"/>
<text text-anchor="middle" x="173" y="-186.5" font-family="Helvetica,sans-Serif" font-size="10.00">ICloneable</text>
</a>
</g>
</g>
<!-- Node6&#45;&gt;Node3 -->
<g id="edge6" class="edge"><title>Node6&#45;&gt;Node3</title>
<path fill="none" stroke="midnightblue" d="M148.665,-174.453C130.757,-164.483 106.946,-151.228 91.5461,-142.655"/>
<polygon fill="midnightblue" stroke="midnightblue" points="146.975,-177.518 157.415,-179.324 150.38,-171.402 146.975,-177.518"/>
</g>
</g>
</svg>
