<?xml version="1.0" encoding="UTF-8" standalone="no"?>
<!DOCTYPE svg PUBLIC "-//W3C//DTD SVG 1.1//EN"
 "http://www.w3.org/Graphics/SVG/1.1/DTD/svg11.dtd">
<!-- Generated by graphviz version 2.38.0 (20140413.2041)
 -->
<!-- Title: IG.Gr.GraphicPrimitiveBase Pages: 1 -->
<svg width="462pt" height="142pt"
 viewBox="0.00 0.00 462.00 142.00" xmlns="http://www.w3.org/2000/svg" xmlns:xlink="http://www.w3.org/1999/xlink">
<g id="graph0" class="graph" transform="scale(1 1) rotate(0) translate(4 138)">
<title>IG.Gr.GraphicPrimitiveBase</title>
<polygon fill="white" stroke="none" points="-4,4 -4,-138 458,-138 458,4 -4,4"/>
<!-- Node1 -->
<g id="node1" class="node"><title>Node1</title>
<g id="a_node1"><a xlink:title="Base class for graphic primitives.">
<polygon fill="#bfbfbf" stroke="black" points="125,-57.5 125,-76.5 261,-76.5 261,-57.5 125,-57.5"/>
<text text-anchor="middle" x="193" y="-64.5" font-family="Helvetica,sans-Serif" font-size="10.00">IG.Gr.GraphicPrimitiveBase</text>
</a>
</g>
</g>
<!-- Node3 -->
<g id="node3" class="node"><title>Node3</title>
<g id="a_node3"><a xlink:href="../../d1/daf/classIG_1_1Gr_1_1GraphicLineBase.html" target="_top" xlink:title="Base class for graphic line primitive.">
<polygon fill="white" stroke="black" points="317,-114.5 317,-133.5 434,-133.5 434,-114.5 317,-114.5"/>
<text text-anchor="middle" x="375.5" y="-121.5" font-family="Helvetica,sans-Serif" font-size="10.00">IG.Gr.GraphicLineBase</text>
</a>
</g>
</g>
<!-- Node1&#45;&gt;Node3 -->
<g id="edge2" class="edge"><title>Node1&#45;&gt;Node3</title>
<path fill="none" stroke="midnightblue" d="M226.785,-80.174C246.864,-87.9712 273.192,-97.7154 297,-105 308.128,-108.405 320.297,-111.621 331.626,-114.405"/>
<polygon fill="midnightblue" stroke="midnightblue" points="228.056,-76.9131 217.469,-76.522 225.502,-83.4303 228.056,-76.9131"/>
</g>
<!-- Node4 -->
<g id="node4" class="node"><title>Node4</title>
<g id="a_node4"><a xlink:href="../../d6/dab/classIG_1_1Gr_1_1GraphicPointBase.html" target="_top" xlink:title="Base class for graphic line primitive.">
<polygon fill="white" stroke="black" points="314.5,-76.5 314.5,-95.5 436.5,-95.5 436.5,-76.5 314.5,-76.5"/>
<text text-anchor="middle" x="375.5" y="-83.5" font-family="Helvetica,sans-Serif" font-size="10.00">IG.Gr.GraphicPointBase</text>
</a>
</g>
</g>
<!-- Node1&#45;&gt;Node4 -->
<g id="edge3" class="edge"><title>Node1&#45;&gt;Node4</title>
<path fill="none" stroke="midnightblue" d="M271.55,-75.1632C285.883,-76.6719 300.652,-78.2266 314.373,-79.6708"/>
<polygon fill="midnightblue" stroke="midnightblue" points="271.523,-71.6411 261.212,-74.0749 270.79,-78.6026 271.523,-71.6411"/>
</g>
<!-- Node5 -->
<g id="node5" class="node"><title>Node5</title>
<g id="a_node5"><a xlink:href="../../da/dd8/classIG_1_1Gr_1_1GraphicQuadriLateralBase.html" target="_top" xlink:title="Base class for graphic line primitive.">
<polygon fill="white" stroke="black" points="297,-38.5 297,-57.5 454,-57.5 454,-38.5 297,-38.5"/>
<text text-anchor="middle" x="375.5" y="-45.5" font-family="Helvetica,sans-Serif" font-size="10.00">IG.Gr.GraphicQuadriLateralBase</text>
</a>
</g>
</g>
<!-- Node1&#45;&gt;Node5 -->
<g id="edge4" class="edge"><title>Node1&#45;&gt;Node5</title>
<path fill="none" stroke="midnightblue" d="M271.411,-58.8515C279.851,-57.963 288.445,-57.0584 296.888,-56.1697"/>
<polygon fill="midnightblue" stroke="midnightblue" points="270.79,-55.3974 261.212,-59.9251 271.523,-62.3589 270.79,-55.3974"/>
</g>
<!-- Node6 -->
<g id="node6" class="node"><title>Node6</title>
<g id="a_node6"><a xlink:href="../../d3/db4/classIG_1_1Gr_1_1GraphicTriangleBase.html" target="_top" xlink:title="Base class for graphic line primitive.">
<polygon fill="white" stroke="black" points="309,-0.5 309,-19.5 442,-19.5 442,-0.5 309,-0.5"/>
<text text-anchor="middle" x="375.5" y="-7.5" font-family="Helvetica,sans-Serif" font-size="10.00">IG.Gr.GraphicTriangleBase</text>
</a>
</g>
</g>
<!-- Node1&#45;&gt;Node6 -->
<g id="edge5" class="edge"><title>Node1&#45;&gt;Node6</title>
<path fill="none" stroke="midnightblue" d="M226.785,-53.826C246.864,-46.0288 273.192,-36.2846 297,-29 308.128,-25.5952 320.297,-22.3792 331.626,-19.5946"/>
<polygon fill="midnightblue" stroke="midnightblue" points="225.502,-50.5697 217.469,-57.478 228.056,-57.0869 225.502,-50.5697"/>
</g>
<!-- Node2 -->
<g id="node2" class="node"><title>Node2</title>
<g id="a_node2"><a xlink:href="../../dd/d5f/interfaceIG_1_1Gr_1_1IGraphicPrimitive.html" target="_top" xlink:title=" ">
<polygon fill="white" stroke="black" points="0,-57.5 0,-76.5 89,-76.5 89,-57.5 0,-57.5"/>
<text text-anchor="middle" x="44.5" y="-64.5" font-family="Helvetica,sans-Serif" font-size="10.00">IGraphicPrimitive</text>
</a>
</g>
</g>
<!-- Node2&#45;&gt;Node1 -->
<g id="edge1" class="edge"><title>Node2&#45;&gt;Node1</title>
<path fill="none" stroke="midnightblue" d="M99.3097,-67C107.581,-67 116.209,-67 124.729,-67"/>
<polygon fill="midnightblue" stroke="midnightblue" points="99.0582,-63.5001 89.0582,-67 99.0581,-70.5001 99.0582,-63.5001"/>
</g>
</g>
</svg>
