<?xml version="1.0" encoding="UTF-8" standalone="no"?>
<!DOCTYPE svg PUBLIC "-//W3C//DTD SVG 1.1//EN"
 "http://www.w3.org/Graphics/SVG/1.1/DTD/svg11.dtd">
<!-- Generated by graphviz version 2.38.0 (20140413.2041)
 -->
<!-- Title: IG.Gr.QuadriLateralFacePrimitive Pages: 1 -->
<svg width="271pt" height="353pt"
 viewBox="0.00 0.00 271.00 353.00" xmlns="http://www.w3.org/2000/svg" xmlns:xlink="http://www.w3.org/1999/xlink">
<g id="graph0" class="graph" transform="scale(1 1) rotate(0) translate(4 349)">
<title>IG.Gr.QuadriLateralFacePrimitive</title>
<polygon fill="white" stroke="none" points="-4,4 -4,-349 267,-349 267,4 -4,4"/>
<!-- Node1 -->
<g id="node1" class="node"><title>Node1</title>
<g id="a_node1"><a xlink:title=" ">
<polygon fill="#bfbfbf" stroke="black" points="63,-0.5 63,-19.5 222,-19.5 222,-0.5 63,-0.5"/>
<text text-anchor="middle" x="142.5" y="-7.5" font-family="Helvetica,sans-Serif" font-size="10.00">IG.Gr.QuadriLateralFacePrimitive</text>
</a>
</g>
</g>
<!-- Node2 -->
<g id="node2" class="node"><title>Node2</title>
<g id="a_node2"><a xlink:href="../../df/db0/classIG_1_1Gr_1_1GraphicPrimitiveSimple.html" target="_top" xlink:title="GraphicPrimitive that has a protected Coordinates[] array.">
<polygon fill="white" stroke="black" points="0,-67.5 0,-86.5 117,-86.5 117,-67.5 0,-67.5"/>
<text text-anchor="middle" x="58.5" y="-74.5" font-family="Helvetica,sans-Serif" font-size="10.00">GraphicPrimitiveSimple</text>
</a>
</g>
</g>
<!-- Node2&#45;&gt;Node1 -->
<g id="edge1" class="edge"><title>Node2&#45;&gt;Node1</title>
<path fill="none" stroke="midnightblue" d="M77.797,-61.0678C94.3775,-48.2376 117.707,-30.1853 131.351,-19.6273"/>
<polygon fill="midnightblue" stroke="midnightblue" points="75.5954,-58.3459 69.8286,-67.2338 79.8793,-63.882 75.5954,-58.3459"/>
</g>
<!-- Node3 -->
<g id="node3" class="node"><title>Node3</title>
<g id="a_node3"><a xlink:href="../../d3/d1a/classIG_1_1Gr_1_1GraphicPrimitive.html" target="_top" xlink:title="Abstract base class for all graphic primitives such as lines, facets, etc.">
<polygon fill="white" stroke="black" points="15,-124.5 15,-143.5 102,-143.5 102,-124.5 15,-124.5"/>
<text text-anchor="middle" x="58.5" y="-131.5" font-family="Helvetica,sans-Serif" font-size="10.00">GraphicPrimitive</text>
</a>
</g>
</g>
<!-- Node3&#45;&gt;Node2 -->
<g id="edge2" class="edge"><title>Node3&#45;&gt;Node2</title>
<path fill="none" stroke="midnightblue" d="M58.5,-114.117C58.5,-104.817 58.5,-94.0557 58.5,-86.7149"/>
<polygon fill="midnightblue" stroke="midnightblue" points="55.0001,-114.406 58.5,-124.406 62.0001,-114.406 55.0001,-114.406"/>
</g>
<!-- Node4 -->
<g id="node4" class="node"><title>Node4</title>
<g id="a_node4"><a xlink:href="../../d0/da2/classIG_1_1Gr_1_1GraphicObject.html" target="_top" xlink:title="Graphic object, a tree &#45; like collection of graphic primitives.">
<polygon fill="white" stroke="black" points="104,-191.5 104,-210.5 209,-210.5 209,-191.5 104,-191.5"/>
<text text-anchor="middle" x="156.5" y="-198.5" font-family="Helvetica,sans-Serif" font-size="10.00">IG.Gr.GraphicObject</text>
</a>
</g>
</g>
<!-- Node4&#45;&gt;Node3 -->
<g id="edge3" class="edge"><title>Node4&#45;&gt;Node3</title>
<path fill="none" stroke="#9a32cd" stroke-dasharray="5,2" d="M134.781,-185.595C115.394,-172.736 87.6445,-154.331 71.5073,-143.627"/>
<polygon fill="#9a32cd" stroke="#9a32cd" points="133.015,-188.623 143.283,-191.234 136.884,-182.79 133.015,-188.623"/>
<text text-anchor="middle" x="131.5" y="-165" font-family="Helvetica,sans-Serif" font-size="10.00"> _parent</text>
</g>
<!-- Node4&#45;&gt;Node4 -->
<g id="edge4" class="edge"><title>Node4&#45;&gt;Node4</title>
<path fill="none" stroke="#9a32cd" stroke-dasharray="5,2" d="M219.345,-205.488C224.085,-204.488 227,-202.992 227,-201 227,-197.813 219.539,-195.895 209.075,-195.248"/>
<polygon fill="#9a32cd" stroke="#9a32cd" points="218.573,-202.057 209.075,-206.752 219.428,-209.004 218.573,-202.057"/>
<text text-anchor="middle" x="245" y="-198.5" font-family="Helvetica,sans-Serif" font-size="10.00"> _parent</text>
</g>
<!-- Node5 -->
<g id="node5" class="node"><title>Node5</title>
<g id="a_node5"><a xlink:href="../../dc/d46/classIG_1_1Gr_1_1GrPrimitiveSettings.html" target="_top" xlink:title="Settings for graphic primitive.">
<polygon fill="white" stroke="black" points="15.5,-258.5 15.5,-277.5 141.5,-277.5 141.5,-258.5 15.5,-258.5"/>
<text text-anchor="middle" x="78.5" y="-265.5" font-family="Helvetica,sans-Serif" font-size="10.00">IG.Gr.GrPrimitiveSettings</text>
</a>
</g>
</g>
<!-- Node5&#45;&gt;Node3 -->
<g id="edge7" class="edge"><title>Node5&#45;&gt;Node3</title>
<path fill="none" stroke="#9a32cd" stroke-dasharray="5,2" d="M67.6096,-249.636C61.5558,-238.94 54.6292,-224.695 51.5,-211 46.0103,-186.974 52.1931,-157.741 55.9847,-143.55"/>
<polygon fill="#9a32cd" stroke="#9a32cd" points="64.6688,-251.538 72.7898,-258.343 70.6847,-247.959 64.6688,-251.538"/>
<text text-anchor="middle" x="73" y="-198.5" font-family="Helvetica,sans-Serif" font-size="10.00"> _settings</text>
</g>
<!-- Node5&#45;&gt;Node4 -->
<g id="edge5" class="edge"><title>Node5&#45;&gt;Node4</title>
<path fill="none" stroke="#9a32cd" stroke-dasharray="5,2" d="M96.8439,-251.713C112.212,-238.907 133.594,-221.088 146.147,-210.627"/>
<polygon fill="#9a32cd" stroke="#9a32cd" points="94.461,-249.143 89.0194,-258.234 98.9423,-254.521 94.461,-249.143"/>
<text text-anchor="middle" x="144" y="-232" font-family="Helvetica,sans-Serif" font-size="10.00"> _settings</text>
</g>
<!-- Node6 -->
<g id="node6" class="node"><title>Node6</title>
<g id="a_node6"><a xlink:href="../../dd/d52/structIG_1_1Lib_1_1color.html" target="_top" xlink:title="Extended color representation. Stores RGB components and opacity as double numbers ranging fom 0 to 1...">
<polygon fill="white" stroke="black" points="45.5,-325.5 45.5,-344.5 111.5,-344.5 111.5,-325.5 45.5,-325.5"/>
<text text-anchor="middle" x="78.5" y="-332.5" font-family="Helvetica,sans-Serif" font-size="10.00">IG.Lib.color</text>
</a>
</g>
</g>
<!-- Node6&#45;&gt;Node5 -->
<g id="edge6" class="edge"><title>Node6&#45;&gt;Node5</title>
<path fill="none" stroke="#9a32cd" stroke-dasharray="5,2" d="M78.5,-315.037C78.5,-302.67 78.5,-287.12 78.5,-277.627"/>
<polygon fill="#9a32cd" stroke="#9a32cd" points="75.0001,-315.234 78.5,-325.234 82.0001,-315.234 75.0001,-315.234"/>
<text text-anchor="middle" x="93.5" y="-299" font-family="Helvetica,sans-Serif" font-size="10.00"> _color</text>
</g>
<!-- Node7 -->
<g id="node7" class="node"><title>Node7</title>
<g id="a_node7"><a xlink:href="../../df/d16/structIG_1_1Num_1_1vec3.html" target="_top" xlink:title="3D vector, struct implementation.">
<polygon fill="white" stroke="black" points="135.5,-67.5 135.5,-86.5 207.5,-86.5 207.5,-67.5 135.5,-67.5"/>
<text text-anchor="middle" x="171.5" y="-74.5" font-family="Helvetica,sans-Serif" font-size="10.00">IG.Num.vec3</text>
</a>
</g>
</g>
<!-- Node7&#45;&gt;Node1 -->
<g id="edge8" class="edge"><title>Node7&#45;&gt;Node1</title>
<path fill="none" stroke="#9a32cd" stroke-dasharray="5,2" d="M163.376,-57.79C157.806,-45.3076 150.671,-29.3135 146.349,-19.6273"/>
<polygon fill="#9a32cd" stroke="#9a32cd" points="160.318,-59.5276 167.589,-67.2338 166.711,-56.6754 160.318,-59.5276"/>
<text text-anchor="middle" x="176" y="-41" font-family="Helvetica,sans-Serif" font-size="10.00"> _coord</text>
</g>
</g>
</svg>
