<?xml version="1.0" encoding="UTF-8" standalone="no"?>
<!DOCTYPE svg PUBLIC "-//W3C//DTD SVG 1.1//EN"
 "http://www.w3.org/Graphics/SVG/1.1/DTD/svg11.dtd">
<!-- Generated by graphviz version 2.38.0 (20140413.2041)
 -->
<!-- Title: IG.Lib.LoadableScalarFunctionBase Pages: 1 -->
<svg width="278pt" height="263pt"
 viewBox="0.00 0.00 277.50 263.00" xmlns="http://www.w3.org/2000/svg" xmlns:xlink="http://www.w3.org/1999/xlink">
<g id="graph0" class="graph" transform="scale(1 1) rotate(0) translate(4 259)">
<title>IG.Lib.LoadableScalarFunctionBase</title>
<polygon fill="white" stroke="none" points="-4,4 -4,-259 273.5,-259 273.5,4 -4,4"/>
<!-- Node1 -->
<g id="node1" class="node"><title>Node1</title>
<g id="a_node1"><a xlink:title="A ScalarFunction class used as base class for dynamically loaded scalar functions....">
<polygon fill="#bfbfbf" stroke="black" points="69.5,-67.5 69.5,-86.5 241.5,-86.5 241.5,-67.5 69.5,-67.5"/>
<text text-anchor="middle" x="155.5" y="-74.5" font-family="Helvetica,sans-Serif" font-size="10.00">IG.Lib.LoadableScalarFunctionBase</text>
</a>
</g>
</g>
<!-- Node6 -->
<g id="node6" class="node"><title>Node6</title>
<g id="a_node6"><a xlink:href="../../db/d3b/classIG_1_1Script_1_1ScritpScalarFunctionExample_1_1Container_1_1Function.html" target="_top" xlink:title=" ">
<polygon fill="white" stroke="black" points="81,-0.5 81,-30.5 230,-30.5 230,-0.5 81,-0.5"/>
<text text-anchor="start" x="89" y="-18.5" font-family="Helvetica,sans-Serif" font-size="10.00">IG.Script.ScritpScalarFunction</text>
<text text-anchor="middle" x="155.5" y="-7.5" font-family="Helvetica,sans-Serif" font-size="10.00">Example.Container.Function</text>
</a>
</g>
</g>
<!-- Node1&#45;&gt;Node6 -->
<g id="edge6" class="edge"><title>Node1&#45;&gt;Node6</title>
<path fill="none" stroke="midnightblue" d="M155.5,-57.2349C155.5,-48.5864 155.5,-38.4969 155.5,-30.523"/>
<polygon fill="midnightblue" stroke="midnightblue" points="152,-57.4751 155.5,-67.4751 159,-57.4751 152,-57.4751"/>
</g>
<!-- Node2 -->
<g id="node2" class="node"><title>Node2</title>
<g id="a_node2"><a xlink:href="../../d2/d85/classIG_1_1Num_1_1ScalarFunctionBase.html" target="_top" xlink:title="Base class for scalar functions with affine transformation of co&#45;ordinates. The reference function is...">
<polygon fill="white" stroke="black" points="103.5,-123.5 103.5,-142.5 207.5,-142.5 207.5,-123.5 103.5,-123.5"/>
<text text-anchor="middle" x="155.5" y="-130.5" font-family="Helvetica,sans-Serif" font-size="10.00">ScalarFunctionBase</text>
</a>
</g>
</g>
<!-- Node2&#45;&gt;Node1 -->
<g id="edge1" class="edge"><title>Node2&#45;&gt;Node1</title>
<path fill="none" stroke="midnightblue" d="M155.5,-112.805C155.5,-103.91 155.5,-93.7798 155.5,-86.7511"/>
<polygon fill="midnightblue" stroke="midnightblue" points="152,-113.083 155.5,-123.083 159,-113.083 152,-113.083"/>
</g>
<!-- Node3 -->
<g id="node3" class="node"><title>Node3</title>
<g id="a_node3"><a xlink:href="../../d2/d9e/classIG_1_1Num_1_1ScalarFunctionUntransformedBase.html" target="_top" xlink:title="Base class for defining scalar functions without possibility of affine transformation of parameters.">
<polygon fill="white" stroke="black" points="0,-179.5 0,-198.5 167,-198.5 167,-179.5 0,-179.5"/>
<text text-anchor="middle" x="83.5" y="-186.5" font-family="Helvetica,sans-Serif" font-size="10.00">ScalarFunctionUntransformedBase</text>
</a>
</g>
</g>
<!-- Node3&#45;&gt;Node2 -->
<g id="edge2" class="edge"><title>Node3&#45;&gt;Node2</title>
<path fill="none" stroke="midnightblue" d="M103.366,-173.101C116.323,-163.382 132.797,-151.027 143.721,-142.834"/>
<polygon fill="midnightblue" stroke="midnightblue" points="100.968,-170.524 95.068,-179.324 105.168,-176.124 100.968,-170.524"/>
</g>
<!-- Node4 -->
<g id="node4" class="node"><title>Node4</title>
<g id="a_node4"><a xlink:href="../../d8/d56/interfaceIG_1_1Num_1_1IScalarFunctionUntransformed.html" target="_top" xlink:title="Scalar functions of vector arguments.">
<polygon fill="white" stroke="black" points="82,-235.5 82,-254.5 229,-254.5 229,-235.5 82,-235.5"/>
<text text-anchor="middle" x="155.5" y="-242.5" font-family="Helvetica,sans-Serif" font-size="10.00">IScalarFunctionUntransformed</text>
</a>
</g>
</g>
<!-- Node4&#45;&gt;Node3 -->
<g id="edge3" class="edge"><title>Node4&#45;&gt;Node3</title>
<path fill="none" stroke="midnightblue" d="M135.634,-229.101C122.677,-219.382 106.203,-207.027 95.2785,-198.834"/>
<polygon fill="midnightblue" stroke="midnightblue" points="133.832,-232.124 143.932,-235.324 138.032,-226.524 133.832,-232.124"/>
</g>
<!-- Node5 -->
<g id="node5" class="node"><title>Node5</title>
<g id="a_node5"><a xlink:href="../../dd/d1e/interfaceIG_1_1Num_1_1IScalarFunction.html" target="_top" xlink:title="Scalar functions of vector arguments, with eventual affine transformation of parameters....">
<polygon fill="white" stroke="black" points="185.5,-179.5 185.5,-198.5 269.5,-198.5 269.5,-179.5 185.5,-179.5"/>
<text text-anchor="middle" x="227.5" y="-186.5" font-family="Helvetica,sans-Serif" font-size="10.00">IScalarFunction</text>
</a>
</g>
</g>
<!-- Node4&#45;&gt;Node5 -->
<g id="edge5" class="edge"><title>Node4&#45;&gt;Node5</title>
<path fill="none" stroke="midnightblue" d="M175.366,-229.101C188.323,-219.382 204.797,-207.027 215.721,-198.834"/>
<polygon fill="midnightblue" stroke="midnightblue" points="172.968,-226.524 167.068,-235.324 177.168,-232.124 172.968,-226.524"/>
</g>
<!-- Node5&#45;&gt;Node2 -->
<g id="edge4" class="edge"><title>Node5&#45;&gt;Node2</title>
<path fill="none" stroke="midnightblue" d="M207.634,-173.101C194.677,-163.382 178.203,-151.027 167.279,-142.834"/>
<polygon fill="midnightblue" stroke="midnightblue" points="205.832,-176.124 215.932,-179.324 210.032,-170.524 205.832,-176.124"/>
</g>
</g>
</svg>
