<?xml version="1.0" encoding="UTF-8" standalone="no"?>
<!DOCTYPE svg PUBLIC "-//W3C//DTD SVG 1.1//EN"
 "http://www.w3.org/Graphics/SVG/1.1/DTD/svg11.dtd">
<!-- Generated by graphviz version 2.38.0 (20140413.2041)
 -->
<!-- Title: IG.Num.VectorApproximatorBase Pages: 1 -->
<svg width="365pt" height="106pt"
 viewBox="0.00 0.00 364.50 106.00" xmlns="http://www.w3.org/2000/svg" xmlns:xlink="http://www.w3.org/1999/xlink">
<g id="graph0" class="graph" transform="scale(1 1) rotate(0) translate(4 102)">
<title>IG.Num.VectorApproximatorBase</title>
<polygon fill="white" stroke="none" points="-4,4 -4,-102 360.5,-102 360.5,4 -4,4"/>
<!-- Node1 -->
<g id="node1" class="node"><title>Node1</title>
<g id="a_node1"><a xlink:title="Base class for vector function approximators.">
<polygon fill="#bfbfbf" stroke="black" points="72,-0.5 72,-19.5 233,-19.5 233,-0.5 72,-0.5"/>
<text text-anchor="middle" x="152.5" y="-7.5" font-family="Helvetica,sans-Serif" font-size="10.00">IG.Num.VectorApproximatorBase</text>
</a>
</g>
</g>
<!-- Node2 -->
<g id="node2" class="node"><title>Node2</title>
<g id="a_node2"><a xlink:href="../../dc/d13/interfaceIG_1_1Num_1_1IVectorApproximator.html" target="_top" xlink:title="Interface for vector function approximators.">
<polygon fill="white" stroke="black" points="0,-78.5 0,-97.5 105,-97.5 105,-78.5 0,-78.5"/>
<text text-anchor="middle" x="52.5" y="-85.5" font-family="Helvetica,sans-Serif" font-size="10.00">IVectorApproximator</text>
</a>
</g>
</g>
<!-- Node2&#45;&gt;Node1 -->
<g id="edge1" class="edge"><title>Node2&#45;&gt;Node1</title>
<path fill="none" stroke="midnightblue" d="M72.0388,-72.1505C92.6317,-56.4999 124.363,-32.3841 141.163,-19.6165"/>
<polygon fill="midnightblue" stroke="midnightblue" points="69.8151,-69.4444 63.9713,-78.2818 74.0507,-75.0175 69.8151,-69.4444"/>
</g>
<!-- Node3 -->
<g id="node3" class="node"><title>Node3</title>
<g id="a_node3"><a xlink:href="../../d3/db6/interfaceIG_1_1Lib_1_1ILockable.html" target="_top" xlink:title="Lockable object, has a Lock property that returns object on which lock must be performed in order to ...">
<polygon fill="white" stroke="black" points="123.5,-78.5 123.5,-97.5 181.5,-97.5 181.5,-78.5 123.5,-78.5"/>
<text text-anchor="middle" x="152.5" y="-85.5" font-family="Helvetica,sans-Serif" font-size="10.00">ILockable</text>
</a>
</g>
</g>
<!-- Node3&#45;&gt;Node1 -->
<g id="edge2" class="edge"><title>Node3&#45;&gt;Node1</title>
<path fill="none" stroke="midnightblue" d="M152.5,-68.2239C152.5,-52.6974 152.5,-31.3582 152.5,-19.6165"/>
<polygon fill="midnightblue" stroke="midnightblue" points="149,-68.2818 152.5,-78.2818 156,-68.2819 149,-68.2818"/>
</g>
<!-- Node4 -->
<g id="node4" class="node"><title>Node4</title>
<g id="a_node4"><a xlink:href="../../d3/d24/interfaceIG_1_1Num_1_1IVector.html" target="_top" xlink:title="Generic Vector interface">
<polygon fill="white" stroke="black" points="200,-78.5 200,-97.5 307,-97.5 307,-78.5 200,-78.5"/>
<text text-anchor="middle" x="253.5" y="-85.5" font-family="Helvetica,sans-Serif" font-size="10.00">IG.Num.IVector&lt; T &gt;</text>
</a>
</g>
</g>
<!-- Node4&#45;&gt;Node1 -->
<g id="edge3" class="edge"><title>Node4&#45;&gt;Node1</title>
<path fill="none" stroke="#9a32cd" stroke-dasharray="5,2" d="M233.766,-72.1505C212.967,-56.4999 180.918,-32.3841 163.951,-19.6165"/>
<polygon fill="#9a32cd" stroke="#9a32cd" points="231.819,-75.0658 241.914,-78.2818 236.028,-69.4725 231.819,-75.0658"/>
<text text-anchor="middle" x="286" y="-52" font-family="Helvetica,sans-Serif" font-size="10.00"> _lastCalculationOutputValues</text>
<text text-anchor="middle" x="286" y="-41" font-family="Helvetica,sans-Serif" font-size="10.00">_lastCalculationInputParameters</text>
</g>
</g>
</svg>
