<?xml version="1.0" encoding="UTF-8" standalone="no"?>
<!DOCTYPE svg PUBLIC "-//W3C//DTD SVG 1.1//EN"
 "http://www.w3.org/Graphics/SVG/1.1/DTD/svg11.dtd">
<!-- Generated by graphviz version 2.38.0 (20140413.2041)
 -->
<!-- Title: IG.Num.Func3dQuadratic Pages: 1 -->
<svg width="518pt" height="266pt"
 viewBox="0.00 0.00 518.00 266.00" xmlns="http://www.w3.org/2000/svg" xmlns:xlink="http://www.w3.org/1999/xlink">
<g id="graph0" class="graph" transform="scale(1 1) rotate(0) translate(4 262)">
<title>IG.Num.Func3dQuadratic</title>
<polygon fill="white" stroke="none" points="-4,4 -4,-262 513.996,-262 513.996,4 -4,4"/>
<!-- Node1 -->
<g id="node1" class="node"><title>Node1</title>
<g id="a_node1"><a xlink:title="Quadratic function of 3 variables.">
<polygon fill="#bfbfbf" stroke="black" points="254.496,-0.5 254.496,-19.5 381.496,-19.5 381.496,-0.5 254.496,-0.5"/>
<text text-anchor="middle" x="317.996" y="-7.5" font-family="Helvetica,sans-Serif" font-size="10.00">IG.Num.Func3dQuadratic</text>
</a>
</g>
</g>
<!-- Node2 -->
<g id="node2" class="node"><title>Node2</title>
<g id="a_node2"><a xlink:href="../../d9/d2a/classIG_1_1Num_1_1Func3dVectorFormBase.html" target="_top" xlink:title="Base class for scalar functions of 3 variables (base for implementation of IFunc3d interface).">
<polygon fill="white" stroke="black" points="91.9959,-67.5 91.9959,-86.5 213.996,-86.5 213.996,-67.5 91.9959,-67.5"/>
<text text-anchor="middle" x="152.996" y="-74.5" font-family="Helvetica,sans-Serif" font-size="10.00">Func3dVectorFormBase</text>
</a>
</g>
</g>
<!-- Node2&#45;&gt;Node1 -->
<g id="edge1" class="edge"><title>Node2&#45;&gt;Node1</title>
<path fill="none" stroke="midnightblue" d="M176.668,-62.6408C191.184,-54.7955 210.317,-45.0655 227.996,-38 246.173,-30.7352 267.085,-24.3485 284.173,-19.613"/>
<polygon fill="midnightblue" stroke="midnightblue" points="174.939,-59.5971 167.857,-67.4772 178.307,-65.7335 174.939,-59.5971"/>
</g>
<!-- Node3 -->
<g id="node3" class="node"><title>Node3</title>
<g id="a_node3"><a xlink:href="../../d4/d29/classIG_1_1Num_1_1Func3dBase.html" target="_top" xlink:title="Base class for scalar functions of 3 variables (base for implementation of IFunc3d interface).">
<polygon fill="white" stroke="black" points="78.4959,-124.5 78.4959,-143.5 149.496,-143.5 149.496,-124.5 78.4959,-124.5"/>
<text text-anchor="middle" x="113.996" y="-131.5" font-family="Helvetica,sans-Serif" font-size="10.00">Func3dBase</text>
</a>
</g>
</g>
<!-- Node3&#45;&gt;Node2 -->
<g id="edge2" class="edge"><title>Node3&#45;&gt;Node2</title>
<path fill="none" stroke="midnightblue" d="M125.884,-116.234C132.792,-106.493 141.211,-94.6204 146.816,-86.7149"/>
<polygon fill="midnightblue" stroke="midnightblue" points="123.019,-114.224 120.09,-124.406 128.729,-118.273 123.019,-114.224"/>
</g>
<!-- Node4 -->
<g id="node4" class="node"><title>Node4</title>
<g id="a_node4"><a xlink:href="../../d2/d9e/classIG_1_1Num_1_1ScalarFunctionUntransformedBase.html" target="_top" xlink:title="Base class for defining scalar functions without possibility of affine transformation of parameters.">
<polygon fill="white" stroke="black" points="15.4959,-181.5 15.4959,-200.5 182.496,-200.5 182.496,-181.5 15.4959,-181.5"/>
<text text-anchor="middle" x="98.9959" y="-188.5" font-family="Helvetica,sans-Serif" font-size="10.00">ScalarFunctionUntransformedBase</text>
</a>
</g>
</g>
<!-- Node4&#45;&gt;Node3 -->
<g id="edge3" class="edge"><title>Node4&#45;&gt;Node3</title>
<path fill="none" stroke="midnightblue" d="M103.979,-171.728C106.553,-162.292 109.573,-151.217 111.619,-143.715"/>
<polygon fill="midnightblue" stroke="midnightblue" points="100.594,-170.838 101.34,-181.406 107.348,-172.68 100.594,-170.838"/>
</g>
<!-- Node5 -->
<g id="node5" class="node"><title>Node5</title>
<g id="a_node5"><a xlink:href="../../d8/d56/interfaceIG_1_1Num_1_1IScalarFunctionUntransformed.html" target="_top" xlink:title="Scalar functions of vector arguments.">
<polygon fill="white" stroke="black" points="154.496,-238.5 154.496,-257.5 301.496,-257.5 301.496,-238.5 154.496,-238.5"/>
<text text-anchor="middle" x="227.996" y="-245.5" font-family="Helvetica,sans-Serif" font-size="10.00">IScalarFunctionUntransformed</text>
</a>
</g>
</g>
<!-- Node5&#45;&gt;Node1 -->
<g id="edge10" class="edge"><title>Node5&#45;&gt;Node1</title>
<path fill="none" stroke="midnightblue" d="M278.291,-235.108C298.894,-226.967 317.996,-213.596 317.996,-192 317.996,-192 317.996,-192 317.996,-76 317.996,-55.9132 317.996,-32.3347 317.996,-19.8314"/>
<polygon fill="midnightblue" stroke="midnightblue" points="277.031,-231.841 268.783,-238.491 279.377,-238.436 277.031,-231.841"/>
</g>
<!-- Node5&#45;&gt;Node2 -->
<g id="edge8" class="edge"><title>Node5&#45;&gt;Node2</title>
<path fill="none" stroke="midnightblue" d="M242.996,-230.704C249.581,-222.45 256.582,-211.885 259.996,-201 265.21,-184.374 265.06,-176.881 255.996,-162 234.51,-126.725 192.713,-99.7115 169.514,-86.6528"/>
<polygon fill="midnightblue" stroke="midnightblue" points="240.273,-228.504 236.452,-238.386 245.601,-233.044 240.273,-228.504"/>
</g>
<!-- Node5&#45;&gt;Node3 -->
<g id="edge6" class="edge"><title>Node5&#45;&gt;Node3</title>
<path fill="none" stroke="midnightblue" d="M144.147,-240.486C88.8394,-234.246 23.4818,-222.481 5.99588,-201 -17.7259,-171.859 38.4308,-152.201 78.3376,-142.359"/>
<polygon fill="midnightblue" stroke="midnightblue" points="144.025,-243.993 154.344,-241.587 144.778,-237.033 144.025,-243.993"/>
</g>
<!-- Node5&#45;&gt;Node4 -->
<g id="edge4" class="edge"><title>Node5&#45;&gt;Node4</title>
<path fill="none" stroke="midnightblue" d="M198.381,-234.374C174.053,-224.001 140.255,-209.591 119.011,-200.533"/>
<polygon fill="midnightblue" stroke="midnightblue" points="197.268,-237.704 207.84,-238.406 200.014,-231.265 197.268,-237.704"/>
</g>
<!-- Node6 -->
<g id="node6" class="node"><title>Node6</title>
<g id="a_node6"><a xlink:href="../../d5/d03/interfaceIG_1_1Num_1_1IFunc3d.html" target="_top" xlink:title="Represents scalar functions of 2 variables.">
<polygon fill="white" stroke="black" points="200.496,-181.5 200.496,-200.5 251.496,-200.5 251.496,-181.5 200.496,-181.5"/>
<text text-anchor="middle" x="225.996" y="-188.5" font-family="Helvetica,sans-Serif" font-size="10.00">IFunc3d</text>
</a>
</g>
</g>
<!-- Node6&#45;&gt;Node1 -->
<g id="edge9" class="edge"><title>Node6&#45;&gt;Node1</title>
<path fill="none" stroke="midnightblue" d="M235.013,-172.369C249.513,-144.03 278.928,-86.5974 303.996,-38 307.191,-31.8057 310.813,-24.8208 313.573,-19.5075"/>
<polygon fill="midnightblue" stroke="midnightblue" points="231.82,-170.926 230.381,-181.423 238.052,-174.114 231.82,-170.926"/>
</g>
<!-- Node6&#45;&gt;Node2 -->
<g id="edge7" class="edge"><title>Node6&#45;&gt;Node2</title>
<path fill="none" stroke="midnightblue" d="M214.686,-172.647C198.865,-148.375 170.721,-105.194 158.697,-86.7476"/>
<polygon fill="midnightblue" stroke="midnightblue" points="211.875,-174.745 220.268,-181.212 217.739,-170.923 211.875,-174.745"/>
</g>
<!-- Node6&#45;&gt;Node3 -->
<g id="edge5" class="edge"><title>Node6&#45;&gt;Node3</title>
<path fill="none" stroke="midnightblue" d="M198.963,-177.063C189.758,-172.632 179.415,-167.625 169.996,-163 156.922,-156.58 142.191,-149.209 131.121,-143.642"/>
<polygon fill="midnightblue" stroke="midnightblue" points="197.528,-180.257 208.058,-181.432 200.56,-173.947 197.528,-180.257"/>
</g>
<!-- Node7 -->
<g id="node7" class="node"><title>Node7</title>
<g id="a_node7"><a xlink:href="../../d6/db0/structIG_1_1Num_1_1mat3.html" target="_top" xlink:title="3D matrix, struct implementation.">
<polygon fill="white" stroke="black" points="345.996,-67.5 345.996,-86.5 419.996,-86.5 419.996,-67.5 345.996,-67.5"/>
<text text-anchor="middle" x="382.996" y="-74.5" font-family="Helvetica,sans-Serif" font-size="10.00">IG.Num.mat3</text>
</a>
</g>
</g>
<!-- Node7&#45;&gt;Node1 -->
<g id="edge11" class="edge"><title>Node7&#45;&gt;Node1</title>
<path fill="none" stroke="#9a32cd" stroke-dasharray="5,2" d="M366.993,-59.9968C354.245,-47.2496 336.891,-29.8947 326.623,-19.6273"/>
<polygon fill="#9a32cd" stroke="#9a32cd" points="364.684,-62.6376 374.23,-67.2338 369.633,-57.6878 364.684,-62.6376"/>
<text text-anchor="middle" x="362.996" y="-41" font-family="Helvetica,sans-Serif" font-size="10.00"> _G</text>
</g>
<!-- Node8 -->
<g id="node8" class="node"><title>Node8</title>
<g id="a_node8"><a xlink:href="../../df/d16/structIG_1_1Num_1_1vec3.html" target="_top" xlink:title="3D vector, struct implementation.">
<polygon fill="white" stroke="black" points="437.996,-67.5 437.996,-86.5 509.996,-86.5 509.996,-67.5 437.996,-67.5"/>
<text text-anchor="middle" x="473.996" y="-74.5" font-family="Helvetica,sans-Serif" font-size="10.00">IG.Num.vec3</text>
</a>
</g>
</g>
<!-- Node8&#45;&gt;Node1 -->
<g id="edge12" class="edge"><title>Node8&#45;&gt;Node1</title>
<path fill="none" stroke="#9a32cd" stroke-dasharray="5,2" d="M443.872,-63.4485C412.985,-50.5787 365.763,-30.9032 338.797,-19.6672"/>
<polygon fill="#9a32cd" stroke="#9a32cd" points="442.703,-66.7531 453.28,-67.3685 445.396,-60.2915 442.703,-66.7531"/>
<text text-anchor="middle" x="412.996" y="-41" font-family="Helvetica,sans-Serif" font-size="10.00"> _b</text>
</g>
</g>
</svg>
