<?xml version="1.0" encoding="UTF-8" standalone="no"?>
<!DOCTYPE svg PUBLIC "-//W3C//DTD SVG 1.1//EN"
 "http://www.w3.org/Graphics/SVG/1.1/DTD/svg11.dtd">
<!-- Generated by graphviz version 2.38.0 (20140413.2041)
 -->
<!-- Title: IGLib.Core.IReadonlyArrayAccessor&lt; ElementType &gt; Pages: 1 -->
<svg width="491pt" height="88pt"
 viewBox="0.00 0.00 491.00 88.00" xmlns="http://www.w3.org/2000/svg" xmlns:xlink="http://www.w3.org/1999/xlink">
<g id="graph0" class="graph" transform="scale(1 1) rotate(0) translate(4 84)">
<title>IGLib.Core.IReadonlyArrayAccessor&lt; ElementType &gt;</title>
<polygon fill="white" stroke="none" points="-4,4 -4,-84 487,-84 487,4 -4,4"/>
<!-- Node1 -->
<g id="node1" class="node"><title>Node1</title>
<g id="a_node1"><a xlink:title="Provides read only access to elements of an underlying onedimensional array&#45;like structure.">
<polygon fill="#bfbfbf" stroke="black" points="0,-24.5 0,-54.5 133,-54.5 133,-24.5 0,-24.5"/>
<text text-anchor="start" x="8" y="-42.5" font-family="Helvetica,sans-Serif" font-size="10.00">IGLib.Core.IReadonlyArray</text>
<text text-anchor="middle" x="66.5" y="-31.5" font-family="Helvetica,sans-Serif" font-size="10.00">Accessor&lt; ElementType &gt;</text>
</a>
</g>
</g>
<!-- Node2 -->
<g id="node2" class="node"><title>Node2</title>
<g id="a_node2"><a xlink:href="../../d7/df3/interfaceIGLib_1_1Core_1_1IArrayAccessor.html" target="_top" xlink:title=" ">
<polygon fill="white" stroke="black" points="169,-0.5 169,-30.5 307,-30.5 307,-0.5 169,-0.5"/>
<text text-anchor="start" x="177" y="-18.5" font-family="Helvetica,sans-Serif" font-size="10.00">IGLib::Core::IArrayAccessor</text>
<text text-anchor="middle" x="238" y="-7.5" font-family="Helvetica,sans-Serif" font-size="10.00">&lt; ElementType &gt;</text>
</a>
</g>
</g>
<!-- Node1&#45;&gt;Node2 -->
<g id="edge1" class="edge"><title>Node1&#45;&gt;Node2</title>
<path fill="none" stroke="midnightblue" d="M143.039,-28.8042C151.63,-27.5877 160.35,-26.3531 168.838,-25.1512"/>
<polygon fill="midnightblue" stroke="midnightblue" points="142.444,-25.3535 133.033,-30.221 143.425,-32.2844 142.444,-25.3535"/>
</g>
<!-- Node5 -->
<g id="node5" class="node"><title>Node5</title>
<g id="a_node5"><a xlink:href="../../db/df7/classIGLib_1_1Core_1_1ReadonlyArrayAccessor.html" target="_top" xlink:title="Provides readonly access to elements of a fixed array. This is typically used to access array&#45;like in...">
<polygon fill="white" stroke="black" points="170.5,-49.5 170.5,-79.5 305.5,-79.5 305.5,-49.5 170.5,-49.5"/>
<text text-anchor="start" x="178.5" y="-67.5" font-family="Helvetica,sans-Serif" font-size="10.00">IGLib::Core::ReadonlyArray</text>
<text text-anchor="middle" x="238" y="-56.5" font-family="Helvetica,sans-Serif" font-size="10.00">Accessor&lt; ElementType &gt;</text>
</a>
</g>
</g>
<!-- Node1&#45;&gt;Node5 -->
<g id="edge4" class="edge"><title>Node1&#45;&gt;Node5</title>
<path fill="none" stroke="midnightblue" d="M143.148,-50.6575C152.179,-51.9895 161.349,-53.342 170.242,-54.6537"/>
<polygon fill="midnightblue" stroke="midnightblue" points="143.437,-47.1623 133.033,-49.1657 142.415,-54.0874 143.437,-47.1623"/>
</g>
<!-- Node3 -->
<g id="node3" class="node"><title>Node3</title>
<g id="a_node3"><a xlink:href="../../d3/daf/classIGLib_1_1Core_1_1ArrayAccessor.html" target="_top" xlink:title="Provides read/write access to elements of a fixed array. This is typically used to access array&#45;like ...">
<polygon fill="white" stroke="black" points="345,-49.5 345,-79.5 481,-79.5 481,-49.5 345,-49.5"/>
<text text-anchor="start" x="353" y="-67.5" font-family="Helvetica,sans-Serif" font-size="10.00">IGLib::Core::ArrayAccessor</text>
<text text-anchor="middle" x="413" y="-56.5" font-family="Helvetica,sans-Serif" font-size="10.00">&lt; ElementType &gt;</text>
</a>
</g>
</g>
<!-- Node2&#45;&gt;Node3 -->
<g id="edge2" class="edge"><title>Node2&#45;&gt;Node3</title>
<path fill="none" stroke="midnightblue" d="M302.177,-33.3941C320.785,-38.6644 340.948,-44.3755 358.859,-49.4484"/>
<polygon fill="midnightblue" stroke="midnightblue" points="302.893,-29.9591 292.317,-30.6014 300.985,-36.6942 302.893,-29.9591"/>
</g>
<!-- Node4 -->
<g id="node4" class="node"><title>Node4</title>
<g id="a_node4"><a xlink:href="../../d2/ded/interfaceIGLib_1_1Core_1_1IResizableArrayAccessor.html" target="_top" xlink:title=" ">
<polygon fill="white" stroke="black" points="343,-0.5 343,-30.5 483,-30.5 483,-0.5 343,-0.5"/>
<text text-anchor="start" x="351" y="-18.5" font-family="Helvetica,sans-Serif" font-size="10.00">IGLib::Core::IResizableArray</text>
<text text-anchor="middle" x="413" y="-7.5" font-family="Helvetica,sans-Serif" font-size="10.00">Accessor&lt; ElementType &gt;</text>
</a>
</g>
</g>
<!-- Node2&#45;&gt;Node4 -->
<g id="edge3" class="edge"><title>Node2&#45;&gt;Node4</title>
<path fill="none" stroke="midnightblue" d="M317.624,-15.5C326.087,-15.5 334.651,-15.5 342.989,-15.5"/>
<polygon fill="midnightblue" stroke="midnightblue" points="317.374,-12.0001 307.374,-15.5 317.374,-19.0001 317.374,-12.0001"/>
</g>
<!-- Node5&#45;&gt;Node3 -->
<g id="edge5" class="edge"><title>Node5&#45;&gt;Node3</title>
<path fill="none" stroke="midnightblue" d="M316.144,-64.5C325.673,-64.5 335.355,-64.5 344.721,-64.5"/>
<polygon fill="midnightblue" stroke="midnightblue" points="315.886,-61.0001 305.886,-64.5 315.886,-68.0001 315.886,-61.0001"/>
</g>
</g>
</svg>
