<?xml version="1.0" encoding="UTF-8" standalone="no"?>
<!DOCTYPE svg PUBLIC "-//W3C//DTD SVG 1.1//EN"
 "http://www.w3.org/Graphics/SVG/1.1/DTD/svg11.dtd">
<!-- Generated by graphviz version 2.38.0 (20140413.2041)
 -->
<!-- Title: IG.Num.Func3dVectorFormBase Pages: 1 -->
<svg width="346pt" height="252pt"
 viewBox="0.00 0.00 346.00 252.00" xmlns="http://www.w3.org/2000/svg" xmlns:xlink="http://www.w3.org/1999/xlink">
<g id="graph0" class="graph" transform="scale(1 1) rotate(0) translate(4 248)">
<title>IG.Num.Func3dVectorFormBase</title>
<polygon fill="white" stroke="none" points="-4,4 -4,-248 342,-248 342,4 -4,4"/>
<!-- Node1 -->
<g id="node1" class="node"><title>Node1</title>
<g id="a_node1"><a xlink:title="Base class for scalar functions of 3 variables (base for implementation of IFunc3d interface).">
<polygon fill="#bfbfbf" stroke="black" points="106.5,-56.5 106.5,-75.5 264.5,-75.5 264.5,-56.5 106.5,-56.5"/>
<text text-anchor="middle" x="185.5" y="-63.5" font-family="Helvetica,sans-Serif" font-size="10.00">IG.Num.Func3dVectorFormBase</text>
</a>
</g>
</g>
<!-- Node6 -->
<g id="node6" class="node"><title>Node6</title>
<g id="a_node6"><a xlink:href="../../d4/d33/classIG_1_1Num_1_1Func3dLinear.html" target="_top" xlink:title="Linear (Affine) function of 3 variables.">
<polygon fill="white" stroke="black" points="62,-0.5 62,-19.5 173,-19.5 173,-0.5 62,-0.5"/>
<text text-anchor="middle" x="117.5" y="-7.5" font-family="Helvetica,sans-Serif" font-size="10.00">IG.Num.Func3dLinear</text>
</a>
</g>
</g>
<!-- Node1&#45;&gt;Node6 -->
<g id="edge8" class="edge"><title>Node1&#45;&gt;Node6</title>
<path fill="none" stroke="midnightblue" d="M166.738,-50.1008C154.5,-40.3824 138.941,-28.0269 128.624,-19.8339"/>
<polygon fill="midnightblue" stroke="midnightblue" points="164.567,-52.846 174.575,-56.324 168.92,-47.3642 164.567,-52.846"/>
</g>
<!-- Node7 -->
<g id="node7" class="node"><title>Node7</title>
<g id="a_node7"><a xlink:href="../../dc/dd8/classIG_1_1Num_1_1Func3dQuadratic.html" target="_top" xlink:title="Quadratic function of 3 variables.">
<polygon fill="white" stroke="black" points="191,-0.5 191,-19.5 318,-19.5 318,-0.5 191,-0.5"/>
<text text-anchor="middle" x="254.5" y="-7.5" font-family="Helvetica,sans-Serif" font-size="10.00">IG.Num.Func3dQuadratic</text>
</a>
</g>
</g>
<!-- Node1&#45;&gt;Node7 -->
<g id="edge9" class="edge"><title>Node1&#45;&gt;Node7</title>
<path fill="none" stroke="midnightblue" d="M204.538,-50.1008C216.956,-40.3824 232.743,-28.0269 243.212,-19.8339"/>
<polygon fill="midnightblue" stroke="midnightblue" points="202.304,-47.4046 196.586,-56.324 206.618,-52.9171 202.304,-47.4046"/>
</g>
<!-- Node2 -->
<g id="node2" class="node"><title>Node2</title>
<g id="a_node2"><a xlink:href="../../d4/d29/classIG_1_1Num_1_1Func3dBase.html" target="_top" xlink:title="Base class for scalar functions of 3 variables (base for implementation of IFunc3d interface).">
<polygon fill="white" stroke="black" points="150,-112.5 150,-131.5 221,-131.5 221,-112.5 150,-112.5"/>
<text text-anchor="middle" x="185.5" y="-119.5" font-family="Helvetica,sans-Serif" font-size="10.00">Func3dBase</text>
</a>
</g>
</g>
<!-- Node2&#45;&gt;Node1 -->
<g id="edge1" class="edge"><title>Node2&#45;&gt;Node1</title>
<path fill="none" stroke="midnightblue" d="M185.5,-101.805C185.5,-92.9102 185.5,-82.7798 185.5,-75.7511"/>
<polygon fill="midnightblue" stroke="midnightblue" points="182,-102.083 185.5,-112.083 189,-102.083 182,-102.083"/>
</g>
<!-- Node3 -->
<g id="node3" class="node"><title>Node3</title>
<g id="a_node3"><a xlink:href="../../d2/d9e/classIG_1_1Num_1_1ScalarFunctionUntransformedBase.html" target="_top" xlink:title="Base class for defining scalar functions without possibility of affine transformation of parameters.">
<polygon fill="white" stroke="black" points="102,-168.5 102,-187.5 269,-187.5 269,-168.5 102,-168.5"/>
<text text-anchor="middle" x="185.5" y="-175.5" font-family="Helvetica,sans-Serif" font-size="10.00">ScalarFunctionUntransformedBase</text>
</a>
</g>
</g>
<!-- Node3&#45;&gt;Node2 -->
<g id="edge2" class="edge"><title>Node3&#45;&gt;Node2</title>
<path fill="none" stroke="midnightblue" d="M185.5,-157.805C185.5,-148.91 185.5,-138.78 185.5,-131.751"/>
<polygon fill="midnightblue" stroke="midnightblue" points="182,-158.083 185.5,-168.083 189,-158.083 182,-158.083"/>
</g>
<!-- Node4 -->
<g id="node4" class="node"><title>Node4</title>
<g id="a_node4"><a xlink:href="../../d8/d56/interfaceIG_1_1Num_1_1IScalarFunctionUntransformed.html" target="_top" xlink:title="Scalar functions of vector arguments.">
<polygon fill="white" stroke="black" points="0,-224.5 0,-243.5 147,-243.5 147,-224.5 0,-224.5"/>
<text text-anchor="middle" x="73.5" y="-231.5" font-family="Helvetica,sans-Serif" font-size="10.00">IScalarFunctionUntransformed</text>
</a>
</g>
</g>
<!-- Node4&#45;&gt;Node1 -->
<g id="edge7" class="edge"><title>Node4&#45;&gt;Node1</title>
<path fill="none" stroke="midnightblue" d="M71.4522,-214.045C70.8093,-200.56 71.6416,-182.363 78.5,-168 99.0844,-124.893 146.69,-90.8708 170.857,-75.6621"/>
<polygon fill="midnightblue" stroke="midnightblue" points="67.9677,-214.38 72.2392,-224.076 74.9462,-213.833 67.9677,-214.38"/>
</g>
<!-- Node4&#45;&gt;Node2 -->
<g id="edge5" class="edge"><title>Node4&#45;&gt;Node2</title>
<path fill="none" stroke="midnightblue" d="M74.9002,-214.331C76.8432,-200.188 81.474,-181.031 92.5,-168 107.909,-149.789 132.409,-138.354 152.395,-131.57"/>
<polygon fill="midnightblue" stroke="midnightblue" points="71.4079,-214.076 73.8474,-224.386 78.3699,-214.805 71.4079,-214.076"/>
</g>
<!-- Node4&#45;&gt;Node3 -->
<g id="edge3" class="edge"><title>Node4&#45;&gt;Node3</title>
<path fill="none" stroke="midnightblue" d="M100.749,-219.862C121.516,-209.849 149.523,-196.346 167.55,-187.655"/>
<polygon fill="midnightblue" stroke="midnightblue" points="98.9824,-216.828 91.4947,-224.324 102.023,-223.134 98.9824,-216.828"/>
</g>
<!-- Node5 -->
<g id="node5" class="node"><title>Node5</title>
<g id="a_node5"><a xlink:href="../../d5/d03/interfaceIG_1_1Num_1_1IFunc3d.html" target="_top" xlink:title="Represents scalar functions of 2 variables.">
<polygon fill="white" stroke="black" points="287,-168.5 287,-187.5 338,-187.5 338,-168.5 287,-168.5"/>
<text text-anchor="middle" x="312.5" y="-175.5" font-family="Helvetica,sans-Serif" font-size="10.00">IFunc3d</text>
</a>
</g>
</g>
<!-- Node5&#45;&gt;Node1 -->
<g id="edge6" class="edge"><title>Node5&#45;&gt;Node1</title>
<path fill="none" stroke="midnightblue" d="M294.969,-161.816C267.92,-138.387 216.892,-94.1898 195.419,-75.5914"/>
<polygon fill="midnightblue" stroke="midnightblue" points="292.684,-164.467 302.535,-168.368 297.267,-159.176 292.684,-164.467"/>
</g>
<!-- Node5&#45;&gt;Node2 -->
<g id="edge4" class="edge"><title>Node5&#45;&gt;Node2</title>
<path fill="none" stroke="midnightblue" d="M283.109,-164.503C259.3,-154.38 226.394,-140.388 205.529,-131.516"/>
<polygon fill="midnightblue" stroke="midnightblue" points="281.804,-167.751 292.376,-168.444 284.543,-161.31 281.804,-167.751"/>
</g>
</g>
</svg>
