<?xml version="1.0" encoding="UTF-8" standalone="no"?>
<!DOCTYPE svg PUBLIC "-//W3C//DTD SVG 1.1//EN"
 "http://www.w3.org/Graphics/SVG/1.1/DTD/svg11.dtd">
<!-- Generated by graphviz version 2.38.0 (20140413.2041)
 -->
<!-- Title: IG.Num.QuadraticBasisSafer Pages: 1 -->
<svg width="238pt" height="308pt"
 viewBox="0.00 0.00 238.31 308.00" xmlns="http://www.w3.org/2000/svg" xmlns:xlink="http://www.w3.org/1999/xlink">
<g id="graph0" class="graph" transform="scale(1 1) rotate(0) translate(4 304)">
<title>IG.Num.QuadraticBasisSafer</title>
<polygon fill="white" stroke="none" points="-4,4 -4,-304 234.309,-304 234.309,4 -4,4"/>
<!-- Node1 -->
<g id="node1" class="node"><title>Node1</title>
<g id="a_node1"><a xlink:title="The same as QuadraticBasis, just that it has more meaningful exceptions.">
<polygon fill="#bfbfbf" stroke="black" points="40.8086,-0.5 40.8086,-19.5 182.809,-19.5 182.809,-0.5 40.8086,-0.5"/>
<text text-anchor="middle" x="111.809" y="-7.5" font-family="Helvetica,sans-Serif" font-size="10.00">IG.Num.QuadraticBasisSafer</text>
</a>
</g>
</g>
<!-- Node2 -->
<g id="node2" class="node"><title>Node2</title>
<g id="a_node2"><a xlink:href="../../d2/de4/classIG_1_1Num_1_1QuadraticBasis.html" target="_top" xlink:title="Vector function containing quadratic basis in a n&#45;dimensional vector space. Composed of (n+1)*(n+2)/2...">
<polygon fill="white" stroke="black" points="70.3086,-56.5 70.3086,-75.5 153.309,-75.5 153.309,-56.5 70.3086,-56.5"/>
<text text-anchor="middle" x="111.809" y="-63.5" font-family="Helvetica,sans-Serif" font-size="10.00">QuadraticBasis</text>
</a>
</g>
</g>
<!-- Node2&#45;&gt;Node1 -->
<g id="edge1" class="edge"><title>Node2&#45;&gt;Node1</title>
<path fill="none" stroke="midnightblue" d="M111.809,-45.8045C111.809,-36.9102 111.809,-26.7798 111.809,-19.7511"/>
<polygon fill="midnightblue" stroke="midnightblue" points="108.309,-46.083 111.809,-56.083 115.309,-46.083 108.309,-46.083"/>
</g>
<!-- Node3 -->
<g id="node3" class="node"><title>Node3</title>
<g id="a_node3"><a xlink:href="../../dc/df8/classIG_1_1Num_1_1VectorFunctionBaseComponentWise.html" target="_top" xlink:title="Base class for defining Vector functions whose component&#45;wise evaluation is defined directly.">
<polygon fill="white" stroke="black" points="23.3086,-112.5 23.3086,-131.5 200.309,-131.5 200.309,-112.5 23.3086,-112.5"/>
<text text-anchor="middle" x="111.809" y="-119.5" font-family="Helvetica,sans-Serif" font-size="10.00">VectorFunctionBaseComponentWise</text>
</a>
</g>
</g>
<!-- Node3&#45;&gt;Node2 -->
<g id="edge2" class="edge"><title>Node3&#45;&gt;Node2</title>
<path fill="none" stroke="midnightblue" d="M111.809,-101.805C111.809,-92.9102 111.809,-82.7798 111.809,-75.7511"/>
<polygon fill="midnightblue" stroke="midnightblue" points="108.309,-102.083 111.809,-112.083 115.309,-102.083 108.309,-102.083"/>
</g>
<!-- Node4 -->
<g id="node4" class="node"><title>Node4</title>
<g id="a_node4"><a xlink:href="../../dc/d23/classIG_1_1Num_1_1VectorFunctionBaseGeneral.html" target="_top" xlink:title="Base class for VectorFunctionBase and VectorFunctionBaseComponentwise. In general,...">
<polygon fill="white" stroke="black" points="42.3086,-168.5 42.3086,-187.5 181.309,-187.5 181.309,-168.5 42.3086,-168.5"/>
<text text-anchor="middle" x="111.809" y="-175.5" font-family="Helvetica,sans-Serif" font-size="10.00">VectorFunctionBaseGeneral</text>
</a>
</g>
</g>
<!-- Node4&#45;&gt;Node3 -->
<g id="edge3" class="edge"><title>Node4&#45;&gt;Node3</title>
<path fill="none" stroke="midnightblue" d="M111.809,-157.805C111.809,-148.91 111.809,-138.78 111.809,-131.751"/>
<polygon fill="midnightblue" stroke="midnightblue" points="108.309,-158.083 111.809,-168.083 115.309,-158.083 108.309,-158.083"/>
</g>
<!-- Node5 -->
<g id="node5" class="node"><title>Node5</title>
<g id="a_node5"><a xlink:href="../../da/d06/interfaceIG_1_1Num_1_1IVectorFunction.html" target="_top" xlink:title="Vector function of a vector argument.">
<polygon fill="white" stroke="black" points="145.309,-224.5 145.309,-243.5 230.309,-243.5 230.309,-224.5 145.309,-224.5"/>
<text text-anchor="middle" x="187.809" y="-231.5" font-family="Helvetica,sans-Serif" font-size="10.00">IVectorFunction</text>
</a>
</g>
</g>
<!-- Node5&#45;&gt;Node2 -->
<g id="edge9" class="edge"><title>Node5&#45;&gt;Node2</title>
<path fill="none" stroke="midnightblue" d="M198.066,-215.231C211.016,-190.207 229.279,-144.063 208.809,-112 196.621,-92.9105 174.02,-81.7957 153.698,-75.3901"/>
<polygon fill="midnightblue" stroke="midnightblue" points="194.846,-213.824 193.131,-224.279 200.992,-217.176 194.846,-213.824"/>
</g>
<!-- Node5&#45;&gt;Node3 -->
<g id="edge7" class="edge"><title>Node5&#45;&gt;Node3</title>
<path fill="none" stroke="midnightblue" d="M193.315,-214.534C196.299,-200.783 197.918,-182.04 189.809,-168 179.331,-149.859 158.451,-138.38 140.93,-131.559"/>
<polygon fill="midnightblue" stroke="midnightblue" points="189.903,-213.749 190.789,-224.307 196.681,-215.501 189.903,-213.749"/>
</g>
<!-- Node5&#45;&gt;Node4 -->
<g id="edge4" class="edge"><title>Node5&#45;&gt;Node4</title>
<path fill="none" stroke="midnightblue" d="M167.233,-218.38C153.497,-208.62 135.883,-196.106 124.241,-187.834"/>
<polygon fill="midnightblue" stroke="midnightblue" points="165.419,-221.385 175.598,-224.324 169.473,-215.679 165.419,-221.385"/>
</g>
<!-- Node6 -->
<g id="node6" class="node"><title>Node6</title>
<g id="a_node6"><a xlink:href="../../d3/db6/interfaceIG_1_1Lib_1_1ILockable.html" target="_top" xlink:title="Lockable object, has a Lock property that returns object on which lock must be performed in order to ...">
<polygon fill="white" stroke="black" points="14.8086,-280.5 14.8086,-299.5 72.8086,-299.5 72.8086,-280.5 14.8086,-280.5"/>
<text text-anchor="middle" x="43.8086" y="-287.5" font-family="Helvetica,sans-Serif" font-size="10.00">ILockable</text>
</a>
</g>
</g>
<!-- Node6&#45;&gt;Node2 -->
<g id="edge10" class="edge"><title>Node6&#45;&gt;Node2</title>
<path fill="none" stroke="midnightblue" d="M33.362,-271.334C14.8899,-237.55 -18.6656,-162.646 13.8086,-112 26.2889,-92.5361 49.5353,-81.3789 70.2556,-75.0436"/>
<polygon fill="midnightblue" stroke="midnightblue" points="30.5418,-273.456 38.5207,-280.426 36.6301,-270.002 30.5418,-273.456"/>
</g>
<!-- Node6&#45;&gt;Node3 -->
<g id="edge8" class="edge"><title>Node6&#45;&gt;Node3</title>
<path fill="none" stroke="midnightblue" d="M36.0526,-271.029C26.5758,-246.087 13.9806,-200.393 32.8086,-168 43.358,-149.85 64.269,-138.413 81.9279,-131.613"/>
<polygon fill="midnightblue" stroke="midnightblue" points="32.828,-272.391 39.8225,-280.349 39.3172,-269.766 32.828,-272.391"/>
</g>
<!-- Node6&#45;&gt;Node4 -->
<g id="edge6" class="edge"><title>Node6&#45;&gt;Node4</title>
<path fill="none" stroke="midnightblue" d="M54.5405,-271.64C69.3126,-247.744 95.3473,-205.629 106.498,-187.591"/>
<polygon fill="midnightblue" stroke="midnightblue" points="51.4256,-270.022 49.1444,-280.368 57.3798,-273.703 51.4256,-270.022"/>
</g>
<!-- Node6&#45;&gt;Node5 -->
<g id="edge5" class="edge"><title>Node6&#45;&gt;Node5</title>
<path fill="none" stroke="midnightblue" d="M76.0597,-276.906C103.132,-266.754 141.125,-252.506 165.098,-243.516"/>
<polygon fill="midnightblue" stroke="midnightblue" points="74.7602,-273.655 66.6258,-280.444 77.2181,-280.209 74.7602,-273.655"/>
</g>
</g>
</svg>
