<?xml version="1.0" encoding="UTF-8" standalone="no"?>
<!DOCTYPE svg PUBLIC "-//W3C//DTD SVG 1.1//EN"
 "http://www.w3.org/Graphics/SVG/1.1/DTD/svg11.dtd">
<!-- Generated by graphviz version 2.38.0 (20140413.2041)
 -->
<!-- Title: IGLib.Gr3D.ConicalCurve3DParameterizationFromPolarWithBounds Pages: 1 -->
<svg width="518pt" height="186pt"
 viewBox="0.00 0.00 518.00 186.00" xmlns="http://www.w3.org/2000/svg" xmlns:xlink="http://www.w3.org/1999/xlink">
<g id="graph0" class="graph" transform="scale(1 1) rotate(0) translate(4 182)">
<title>IGLib.Gr3D.ConicalCurve3DParameterizationFromPolarWithBounds</title>
<polygon fill="white" stroke="none" points="-4,4 -4,-182 514,-182 514,4 -4,4"/>
<!-- Node1 -->
<g id="node1" class="node"><title>Node1</title>
<g id="a_node1"><a xlink:title="Cartesion parameterization of a curve in 3D. Beside the Curve and (optional) CurveDerivative,...">
<polygon fill="#bfbfbf" stroke="black" points="187,-68 187,-109 349,-109 349,-68 187,-68"/>
<text text-anchor="start" x="195" y="-97" font-family="Helvetica,sans-Serif" font-size="10.00">IGLib.Gr3D.ConicalCurve3</text>
<text text-anchor="start" x="195" y="-86" font-family="Helvetica,sans-Serif" font-size="10.00">DParameterizationFromPolarWith</text>
<text text-anchor="middle" x="268" y="-75" font-family="Helvetica,sans-Serif" font-size="10.00">Bounds</text>
</a>
</g>
</g>
<!-- Node4 -->
<g id="node4" class="node"><title>Node4</title>
<g id="a_node4"><a xlink:href="../../d5/d08/classIGLib_1_1Gr3D_1_1ConicalSpiralArchimedean3D.html" target="_top" xlink:title="A 3D parametric curve with bounds &#45; the conical archimedean spiral.">
<polygon fill="white" stroke="black" points="385,-147.5 385,-177.5 510,-177.5 510,-147.5 385,-147.5"/>
<text text-anchor="start" x="393" y="-165.5" font-family="Helvetica,sans-Serif" font-size="10.00">IGLib.Gr3D.ConicalSpiral</text>
<text text-anchor="middle" x="447.5" y="-154.5" font-family="Helvetica,sans-Serif" font-size="10.00">Archimedean3D</text>
</a>
</g>
</g>
<!-- Node1&#45;&gt;Node4 -->
<g id="edge3" class="edge"><title>Node1&#45;&gt;Node4</title>
<path fill="none" stroke="midnightblue" d="M325.08,-113.141C344.048,-121.35 365.389,-130.45 385,-138.5 392.21,-141.46 399.929,-144.54 407.377,-147.469"/>
<polygon fill="midnightblue" stroke="midnightblue" points="326.256,-109.836 315.689,-109.066 323.47,-116.257 326.256,-109.836"/>
</g>
<!-- Node5 -->
<g id="node5" class="node"><title>Node5</title>
<g id="a_node5"><a xlink:href="../../de/dc6/classIGLib_1_1Gr3D_1_1ConicalSpiralFermats3D.html" target="_top" xlink:title="A 3D parametric curve with bounds &#45; the conical Fermat&#39;s spiral.">
<polygon fill="white" stroke="black" points="385,-98.5 385,-128.5 510,-128.5 510,-98.5 385,-98.5"/>
<text text-anchor="start" x="393" y="-116.5" font-family="Helvetica,sans-Serif" font-size="10.00">IGLib.Gr3D.ConicalSpiral</text>
<text text-anchor="middle" x="447.5" y="-105.5" font-family="Helvetica,sans-Serif" font-size="10.00">Fermats3D</text>
</a>
</g>
</g>
<!-- Node1&#45;&gt;Node5 -->
<g id="edge4" class="edge"><title>Node1&#45;&gt;Node5</title>
<path fill="none" stroke="midnightblue" d="M359.289,-101.217C367.908,-102.431 376.508,-103.642 384.763,-104.805"/>
<polygon fill="midnightblue" stroke="midnightblue" points="359.572,-97.7222 349.182,-99.7932 358.596,-104.654 359.572,-97.7222"/>
</g>
<!-- Node6 -->
<g id="node6" class="node"><title>Node6</title>
<g id="a_node6"><a xlink:href="../../d8/d32/classIGLib_1_1Gr3D_1_1ConicalSpiralHyperbolic3D.html" target="_top" xlink:title="A 3D parametric curve with bounds &#45; the conical hyperbolic spiral.">
<polygon fill="white" stroke="black" points="385,-49.5 385,-79.5 510,-79.5 510,-49.5 385,-49.5"/>
<text text-anchor="start" x="393" y="-67.5" font-family="Helvetica,sans-Serif" font-size="10.00">IGLib.Gr3D.ConicalSpiral</text>
<text text-anchor="middle" x="447.5" y="-56.5" font-family="Helvetica,sans-Serif" font-size="10.00">Hyperbolic3D</text>
</a>
</g>
</g>
<!-- Node1&#45;&gt;Node6 -->
<g id="edge5" class="edge"><title>Node1&#45;&gt;Node6</title>
<path fill="none" stroke="midnightblue" d="M359.289,-76.2919C367.908,-75.1265 376.508,-73.9638 384.763,-72.8476"/>
<polygon fill="midnightblue" stroke="midnightblue" points="358.622,-72.8501 349.182,-77.6585 359.56,-79.787 358.622,-72.8501"/>
</g>
<!-- Node7 -->
<g id="node7" class="node"><title>Node7</title>
<g id="a_node7"><a xlink:href="../../da/d9b/classIGLib_1_1Gr3D_1_1ConicalSpiralLogarithmic3D.html" target="_top" xlink:title="A 3D parametric curve with bounds &#45; the conical logarithmic spiral.">
<polygon fill="white" stroke="black" points="385,-0.5 385,-30.5 510,-30.5 510,-0.5 385,-0.5"/>
<text text-anchor="start" x="393" y="-18.5" font-family="Helvetica,sans-Serif" font-size="10.00">IGLib.Gr3D.ConicalSpiral</text>
<text text-anchor="middle" x="447.5" y="-7.5" font-family="Helvetica,sans-Serif" font-size="10.00">Logarithmic3D</text>
</a>
</g>
</g>
<!-- Node1&#45;&gt;Node7 -->
<g id="edge6" class="edge"><title>Node1&#45;&gt;Node7</title>
<path fill="none" stroke="midnightblue" d="M326.127,-63.9996C344.842,-56.0719 365.767,-47.3132 385,-39.5 392.221,-36.5667 399.945,-33.4984 407.395,-30.5737"/>
<polygon fill="midnightblue" stroke="midnightblue" points="324.686,-60.8088 316.849,-67.9381 327.421,-67.2523 324.686,-60.8088"/>
</g>
<!-- Node2 -->
<g id="node2" class="node"><title>Node2</title>
<g id="a_node2"><a xlink:href="../../df/d02/interfaceIGLib_1_1Gr3D_1_1ICurve2DPolarParameterization.html" target="_top" xlink:title="Cylindrical parameterization of a curve in 3D. Beside the CurveCylindrical and (optional) CurveDeriva...">
<polygon fill="white" stroke="black" points="0,-101 0,-120 151,-120 151,-101 0,-101"/>
<text text-anchor="middle" x="75.5" y="-108" font-family="Helvetica,sans-Serif" font-size="10.00">ICurve2DPolarParameterization</text>
</a>
</g>
</g>
<!-- Node2&#45;&gt;Node1 -->
<g id="edge1" class="edge"><title>Node2&#45;&gt;Node1</title>
<path fill="none" stroke="midnightblue" d="M161.18,-100.721C169.703,-99.7364 178.341,-98.7389 186.815,-97.7602"/>
<polygon fill="midnightblue" stroke="midnightblue" points="160.776,-97.2439 151.244,-101.868 161.579,-104.198 160.776,-97.2439"/>
</g>
<!-- Node3 -->
<g id="node3" class="node"><title>Node3</title>
<g id="a_node3"><a xlink:href="../../d3/d54/interfaceIGLib_1_1Gr3D_1_1ICurve3DParameterizationWithBounds.html" target="_top" xlink:title="Cartesion parameterization of a curve in 3D. Beside the Curve and (optional) CurveDerivative,...">
<polygon fill="white" stroke="black" points="11.5,-51.5 11.5,-81.5 139.5,-81.5 139.5,-51.5 11.5,-51.5"/>
<text text-anchor="start" x="19.5" y="-69.5" font-family="Helvetica,sans-Serif" font-size="10.00">ICurve3DParameterization</text>
<text text-anchor="middle" x="75.5" y="-58.5" font-family="Helvetica,sans-Serif" font-size="10.00">WithBounds</text>
</a>
</g>
</g>
<!-- Node3&#45;&gt;Node1 -->
<g id="edge2" class="edge"><title>Node3&#45;&gt;Node1</title>
<path fill="none" stroke="midnightblue" d="M149.704,-74.954C161.813,-76.3524 174.425,-77.8089 186.698,-79.2263"/>
<polygon fill="midnightblue" stroke="midnightblue" points="150.005,-71.4656 139.669,-73.7951 149.202,-78.4193 150.005,-71.4656"/>
</g>
</g>
</svg>
