<?xml version="1.0" encoding="UTF-8" standalone="no"?>
<!DOCTYPE svg PUBLIC "-//W3C//DTD SVG 1.1//EN"
 "http://www.w3.org/Graphics/SVG/1.1/DTD/svg11.dtd">
<!-- Generated by graphviz version 2.38.0 (20140413.2041)
 -->
<!-- Title: IG.Num.UnstructuredMesh1d&lt; TCoord, TIndexField, TIndex, TScalarField, TScalar, TVectorField, TVector, TTensorField, TTensor &gt; Pages: 1 -->
<svg width="557pt" height="235pt"
 viewBox="0.00 0.00 557.00 235.00" xmlns="http://www.w3.org/2000/svg" xmlns:xlink="http://www.w3.org/1999/xlink">
<g id="graph0" class="graph" transform="scale(1 1) rotate(0) translate(4 231)">
<title>IG.Num.UnstructuredMesh1d&lt; TCoord, TIndexField, TIndex, TScalarField, TScalar, TVectorField, TVector, TTensorField, TTensor &gt;</title>
<polygon fill="white" stroke="none" points="-4,4 -4,-231 553,-231 553,4 -4,4"/>
<!-- Node1 -->
<g id="node1" class="node"><title>Node1</title>
<g id="a_node1"><a xlink:title="Generic 1D unstructured mesh with collections of named scalar, vector, tensor and index fields.">
<polygon fill="#bfbfbf" stroke="black" points="370,-82 370,-145 549,-145 549,-82 370,-82"/>
<text text-anchor="start" x="378" y="-133" font-family="Helvetica,sans-Serif" font-size="10.00">IG.Num.UnstructuredMesh1d</text>
<text text-anchor="start" x="378" y="-122" font-family="Helvetica,sans-Serif" font-size="10.00">&lt; TCoord, TIndexField,</text>
<text text-anchor="start" x="378" y="-111" font-family="Helvetica,sans-Serif" font-size="10.00"> TIndex, TScalarField, TScalar,</text>
<text text-anchor="start" x="378" y="-100" font-family="Helvetica,sans-Serif" font-size="10.00"> TVectorField, TVector, TTensorField,</text>
<text text-anchor="middle" x="459.5" y="-89" font-family="Helvetica,sans-Serif" font-size="10.00"> TTensor &gt;</text>
</a>
</g>
</g>
<!-- Node2 -->
<g id="node2" class="node"><title>Node2</title>
<g id="a_node2"><a xlink:href="../../d3/d28/classIG_1_1Num_1_1UnstructuredMeshGeometry1d.html" target="_top" xlink:title="Geometry and topology of an unstructured 1D mesh. Presents both connected meshes and unconnected sets...">
<polygon fill="white" stroke="black" points="123,-196.5 123,-226.5 272,-226.5 272,-196.5 123,-196.5"/>
<text text-anchor="start" x="131" y="-214.5" font-family="Helvetica,sans-Serif" font-size="10.00">UnstructuredMeshGeometry1d</text>
<text text-anchor="middle" x="197.5" y="-203.5" font-family="Helvetica,sans-Serif" font-size="10.00">&lt; TCoord &gt;</text>
</a>
</g>
</g>
<!-- Node2&#45;&gt;Node1 -->
<g id="edge1" class="edge"><title>Node2&#45;&gt;Node1</title>
<path fill="none" stroke="midnightblue" d="M257.545,-193.328C286.275,-184.12 321.181,-172.389 352,-160.5 364.256,-155.772 377.154,-150.415 389.578,-145.053"/>
<polygon fill="midnightblue" stroke="midnightblue" points="256.124,-190.108 247.657,-196.476 258.248,-196.778 256.124,-190.108"/>
</g>
<!-- Node3 -->
<g id="node3" class="node"><title>Node3</title>
<g id="a_node3"><a xlink:href="../../d3/df2/classIG_1_1Num_1_1Field.html" target="_top" xlink:title=" ">
<polygon fill="white" stroke="black" points="0,-202 0,-221 86,-221 86,-202 0,-202"/>
<text text-anchor="middle" x="43" y="-209" font-family="Helvetica,sans-Serif" font-size="10.00">Field&lt; TCoord &gt;</text>
</a>
</g>
</g>
<!-- Node3&#45;&gt;Node2 -->
<g id="edge2" class="edge"><title>Node3&#45;&gt;Node2</title>
<path fill="none" stroke="midnightblue" d="M96.3057,-211.5C104.905,-211.5 113.956,-211.5 122.956,-211.5"/>
<polygon fill="midnightblue" stroke="midnightblue" points="96.075,-208 86.075,-211.5 96.075,-215 96.075,-208"/>
</g>
<!-- Node4 -->
<g id="node4" class="node"><title>Node4</title>
<g id="a_node4"><a xlink:href="../../d4/d10/classIG_1_1Num_1_1FieldCollection.html" target="_top" xlink:title=" ">
<polygon fill="white" stroke="black" points="133.5,-147.5 133.5,-177.5 261.5,-177.5 261.5,-147.5 133.5,-147.5"/>
<text text-anchor="start" x="141.5" y="-165.5" font-family="Helvetica,sans-Serif" font-size="10.00">IG.Num.FieldCollection</text>
<text text-anchor="middle" x="197.5" y="-154.5" font-family="Helvetica,sans-Serif" font-size="10.00">&lt; TScalarField, TScalar &gt;</text>
</a>
</g>
</g>
<!-- Node4&#45;&gt;Node1 -->
<g id="edge3" class="edge"><title>Node4&#45;&gt;Node1</title>
<path fill="none" stroke="#9a32cd" stroke-dasharray="5,2" d="M271.886,-148.67C302.334,-142.931 337.93,-136.223 369.824,-130.212"/>
<polygon fill="#9a32cd" stroke="#9a32cd" points="270.949,-145.284 261.771,-150.576 272.246,-152.163 270.949,-145.284"/>
<text text-anchor="middle" x="321" y="-148.5" font-family="Helvetica,sans-Serif" font-size="10.00"> _scalarFields</text>
</g>
<!-- Node5 -->
<g id="node5" class="node"><title>Node5</title>
<g id="a_node5"><a xlink:href="../../d4/d10/classIG_1_1Num_1_1FieldCollection.html" target="_top" xlink:title=" ">
<polygon fill="white" stroke="black" points="138,-98.5 138,-128.5 257,-128.5 257,-98.5 138,-98.5"/>
<text text-anchor="start" x="146" y="-116.5" font-family="Helvetica,sans-Serif" font-size="10.00">IG.Num.FieldCollection</text>
<text text-anchor="middle" x="197.5" y="-105.5" font-family="Helvetica,sans-Serif" font-size="10.00">&lt; TIndexField, TIndex &gt;</text>
</a>
</g>
</g>
<!-- Node5&#45;&gt;Node1 -->
<g id="edge4" class="edge"><title>Node5&#45;&gt;Node1</title>
<path fill="none" stroke="#9a32cd" stroke-dasharray="5,2" d="M267.568,-113.5C298.956,-113.5 336.469,-113.5 369.902,-113.5"/>
<polygon fill="#9a32cd" stroke="#9a32cd" points="267.173,-110 257.173,-113.5 267.173,-117 267.173,-110"/>
<text text-anchor="middle" x="321" y="-116.5" font-family="Helvetica,sans-Serif" font-size="10.00"> _indexFields</text>
</g>
<!-- Node6 -->
<g id="node6" class="node"><title>Node6</title>
<g id="a_node6"><a xlink:href="../../d4/d10/classIG_1_1Num_1_1FieldCollection.html" target="_top" xlink:title=" ">
<polygon fill="white" stroke="black" points="133,-49.5 133,-79.5 262,-79.5 262,-49.5 133,-49.5"/>
<text text-anchor="start" x="141" y="-67.5" font-family="Helvetica,sans-Serif" font-size="10.00">IG.Num.FieldCollection</text>
<text text-anchor="middle" x="197.5" y="-56.5" font-family="Helvetica,sans-Serif" font-size="10.00">&lt; TVectorField, TVector &gt;</text>
</a>
</g>
</g>
<!-- Node6&#45;&gt;Node1 -->
<g id="edge5" class="edge"><title>Node6&#45;&gt;Node1</title>
<path fill="none" stroke="#9a32cd" stroke-dasharray="5,2" d="M272.171,-78.3841C302.465,-84.0935 337.82,-90.7564 369.541,-96.7347"/>
<polygon fill="#9a32cd" stroke="#9a32cd" points="272.578,-74.8994 262.103,-76.4867 271.282,-81.7783 272.578,-74.8994"/>
<text text-anchor="middle" x="321" y="-96.5" font-family="Helvetica,sans-Serif" font-size="10.00"> _vectorFields</text>
</g>
<!-- Node7 -->
<g id="node7" class="node"><title>Node7</title>
<g id="a_node7"><a xlink:href="../../d4/d10/classIG_1_1Num_1_1FieldCollection.html" target="_top" xlink:title=" ">
<polygon fill="white" stroke="black" points="132,-0.5 132,-30.5 263,-30.5 263,-0.5 132,-0.5"/>
<text text-anchor="start" x="140" y="-18.5" font-family="Helvetica,sans-Serif" font-size="10.00">IG.Num.FieldCollection</text>
<text text-anchor="middle" x="197.5" y="-7.5" font-family="Helvetica,sans-Serif" font-size="10.00">&lt; TTensorField, TTensor &gt;</text>
</a>
</g>
</g>
<!-- Node7&#45;&gt;Node1 -->
<g id="edge6" class="edge"><title>Node7&#45;&gt;Node1</title>
<path fill="none" stroke="#9a32cd" stroke-dasharray="5,2" d="M254.896,-33.7812C260.678,-35.6956 266.461,-37.6265 272,-39.5 307.685,-51.5694 316.909,-53.8006 352,-67.5 363.538,-72.0045 375.679,-76.9995 387.467,-81.9894"/>
<polygon fill="#9a32cd" stroke="#9a32cd" points="255.801,-30.3942 245.207,-30.5878 253.609,-37.0424 255.801,-30.3942"/>
<text text-anchor="middle" x="321" y="-70.5" font-family="Helvetica,sans-Serif" font-size="10.00"> _tensorFields</text>
</g>
</g>
</svg>
