<?xml version="1.0" encoding="UTF-8" standalone="no"?>
<!DOCTYPE svg PUBLIC "-//W3C//DTD SVG 1.1//EN"
 "http://www.w3.org/Graphics/SVG/1.1/DTD/svg11.dtd">
<!-- Generated by graphviz version 2.38.0 (20140413.2041)
 -->
<!-- Title: IG.Script.ShellIGLib Pages: 1 -->
<svg width="307pt" height="163pt"
 viewBox="0.00 0.00 306.50 163.00" xmlns="http://www.w3.org/2000/svg" xmlns:xlink="http://www.w3.org/1999/xlink">
<g id="graph0" class="graph" transform="scale(1 1) rotate(0) translate(4 159)">
<title>IG.Script.ShellIGLib</title>
<polygon fill="white" stroke="none" points="-4,4 -4,-159 302.5,-159 302.5,4 -4,4"/>
<!-- Node1 -->
<g id="node1" class="node"><title>Node1</title>
<g id="a_node1"><a xlink:title="Shell application to be installed in script application of the current program.">
<polygon fill="#bfbfbf" stroke="black" points="61,-0.5 61,-19.5 163,-19.5 163,-0.5 61,-0.5"/>
<text text-anchor="middle" x="112" y="-7.5" font-family="Helvetica,sans-Serif" font-size="10.00">IG.Script.ShellIGLib</text>
</a>
</g>
</g>
<!-- Node2 -->
<g id="node2" class="node"><title>Node2</title>
<g id="a_node2"><a xlink:href="../../d4/d93/classIG_1_1Lib_1_1ShellApplication.html" target="_top" xlink:title=" ">
<polygon fill="white" stroke="black" points="0,-67.5 0,-97.5 140,-97.5 140,-67.5 0,-67.5"/>
<text text-anchor="start" x="8" y="-85.5" font-family="Helvetica,sans-Serif" font-size="10.00">ShellApplication&lt; Command</text>
<text text-anchor="middle" x="70" y="-74.5" font-family="Helvetica,sans-Serif" font-size="10.00">LineApplicationInterpreter &gt;</text>
</a>
</g>
</g>
<!-- Node2&#45;&gt;Node1 -->
<g id="edge1" class="edge"><title>Node2&#45;&gt;Node1</title>
<path fill="none" stroke="midnightblue" d="M83.6271,-58.6259C91.492,-45.4241 100.937,-29.5696 106.702,-19.8932"/>
<polygon fill="midnightblue" stroke="midnightblue" points="80.6106,-56.8509 78.4993,-67.2333 86.6243,-60.4336 80.6106,-56.8509"/>
</g>
<!-- Node3 -->
<g id="node3" class="node"><title>Node3</title>
<g id="a_node3"><a xlink:href="../../d5/d63/classIG_1_1Script_1_1AppBase.html" target="_top" xlink:title="Base cls. for application scripts that can also be used on its own.">
<polygon fill="white" stroke="black" points="158,-73 158,-92 256,-92 256,-73 158,-73"/>
<text text-anchor="middle" x="207" y="-80" font-family="Helvetica,sans-Serif" font-size="10.00">IG.Script.AppBase</text>
</a>
</g>
</g>
<!-- Node3&#45;&gt;Node1 -->
<g id="edge2" class="edge"><title>Node3&#45;&gt;Node1</title>
<path fill="none" stroke="#9a32cd" stroke-dasharray="5,2" d="M187.274,-66.8609C168.095,-52.6288 139.606,-31.4868 123.744,-19.7154"/>
<polygon fill="#9a32cd" stroke="#9a32cd" points="185.235,-69.7065 195.351,-72.8553 189.407,-64.0853 185.235,-69.7065"/>
<text text-anchor="middle" x="191" y="-41" font-family="Helvetica,sans-Serif" font-size="10.00"> AppShellExt</text>
</g>
<!-- Node4 -->
<g id="node4" class="node"><title>Node4</title>
<g id="a_node4"><a xlink:href="../../db/da4/classIG_1_1Script_1_1ScriptAppBase.html" target="_top" xlink:title="Partial class definition containing tests of CSV utilities.">
<polygon fill="white" stroke="black" points="115,-135.5 115,-154.5 197,-154.5 197,-135.5 115,-135.5"/>
<text text-anchor="middle" x="156" y="-142.5" font-family="Helvetica,sans-Serif" font-size="10.00">ScriptAppBase</text>
</a>
</g>
</g>
<!-- Node4&#45;&gt;Node3 -->
<g id="edge3" class="edge"><title>Node4&#45;&gt;Node3</title>
<path fill="none" stroke="midnightblue" d="M169.998,-127.394C179.613,-115.989 191.986,-101.311 199.706,-92.1521"/>
<polygon fill="midnightblue" stroke="midnightblue" points="167.076,-125.43 163.307,-135.332 172.428,-129.942 167.076,-125.43"/>
</g>
<!-- Node5 -->
<g id="node5" class="node"><title>Node5</title>
<g id="a_node5"><a xlink:href="../../d7/d66/interfaceIG_1_1Lib_1_1ILoadableScript.html" target="_top" xlink:title="Interface for classes that can be dynamically loadeded from scripts and run, which provides functiona...">
<polygon fill="white" stroke="black" points="215.5,-135.5 215.5,-154.5 298.5,-154.5 298.5,-135.5 215.5,-135.5"/>
<text text-anchor="middle" x="257" y="-142.5" font-family="Helvetica,sans-Serif" font-size="10.00">ILoadableScript</text>
</a>
</g>
</g>
<!-- Node5&#45;&gt;Node3 -->
<g id="edge4" class="edge"><title>Node5&#45;&gt;Node3</title>
<path fill="none" stroke="midnightblue" d="M243.276,-127.394C233.85,-115.989 221.719,-101.311 214.15,-92.1521"/>
<polygon fill="midnightblue" stroke="midnightblue" points="240.768,-129.853 249.836,-135.332 246.164,-125.394 240.768,-129.853"/>
</g>
</g>
</svg>
