<?xml version="1.0" encoding="UTF-8" standalone="no"?>
<!DOCTYPE svg PUBLIC "-//W3C//DTD SVG 1.1//EN"
 "http://www.w3.org/Graphics/SVG/1.1/DTD/svg11.dtd">
<!-- Generated by graphviz version 2.38.0 (20140413.2041)
 -->
<!-- Title: IG.Num.NeuralTrainingParameters.ComparerBase Pages: 1 -->
<svg width="283pt" height="117pt"
 viewBox="0.00 0.00 282.50 117.00" xmlns="http://www.w3.org/2000/svg" xmlns:xlink="http://www.w3.org/1999/xlink">
<g id="graph0" class="graph" transform="scale(1 1) rotate(0) translate(4 113)">
<title>IG.Num.NeuralTrainingParameters.ComparerBase</title>
<polygon fill="white" stroke="none" points="-4,4 -4,-113 278.5,-113 278.5,4 -4,4"/>
<!-- Node1 -->
<g id="node1" class="node"><title>Node1</title>
<g id="a_node1"><a xlink:title="Base comparer class (implementation of the IComparer&lt;NeuralTrainingParameters&gt; interface) for conmpar...">
<polygon fill="#bfbfbf" stroke="black" points="50,-0.5 50,-30.5 217,-30.5 217,-0.5 50,-0.5"/>
<text text-anchor="start" x="58" y="-18.5" font-family="Helvetica,sans-Serif" font-size="10.00">IG.Num.NeuralTrainingParameters.</text>
<text text-anchor="middle" x="133.5" y="-7.5" font-family="Helvetica,sans-Serif" font-size="10.00">ComparerBase</text>
</a>
</g>
</g>
<!-- Node2 -->
<g id="node2" class="node"><title>Node2</title>
<g id="a_node2"><a xlink:title=" ">
<polygon fill="white" stroke="#bfbfbf" points="0,-78.5 0,-108.5 131,-108.5 131,-78.5 0,-78.5"/>
<text text-anchor="start" x="8" y="-96.5" font-family="Helvetica,sans-Serif" font-size="10.00">IComparer&lt; NeuralTraining</text>
<text text-anchor="middle" x="65.5" y="-85.5" font-family="Helvetica,sans-Serif" font-size="10.00">Parameters &gt;</text>
</a>
</g>
</g>
<!-- Node2&#45;&gt;Node1 -->
<g id="edge1" class="edge"><title>Node2&#45;&gt;Node1</title>
<path fill="none" stroke="midnightblue" d="M85.0315,-70.6707C96.5189,-57.8319 110.715,-41.9656 120.767,-30.7309"/>
<polygon fill="midnightblue" stroke="midnightblue" points="82.3499,-68.4187 78.2903,-78.205 87.5666,-73.0863 82.3499,-68.4187"/>
</g>
<!-- Node3 -->
<g id="node3" class="node"><title>Node3</title>
<g id="a_node3"><a xlink:href="../../d3/d24/interfaceIG_1_1Num_1_1IVector.html" target="_top" xlink:title="Generic Vector interface">
<polygon fill="white" stroke="black" points="149,-84 149,-103 256,-103 256,-84 149,-84"/>
<text text-anchor="middle" x="202.5" y="-91" font-family="Helvetica,sans-Serif" font-size="10.00">IG.Num.IVector&lt; T &gt;</text>
</a>
</g>
</g>
<!-- Node3&#45;&gt;Node1 -->
<g id="edge2" class="edge"><title>Node3&#45;&gt;Node1</title>
<path fill="none" stroke="#9a32cd" stroke-dasharray="5,2" d="M187.647,-76.1406C175.308,-62.5495 157.939,-43.4181 146.229,-30.5198"/>
<polygon fill="#9a32cd" stroke="#9a32cd" points="185.272,-78.7307 194.585,-83.7818 190.454,-74.0253 185.272,-78.7307"/>
<text text-anchor="middle" x="223" y="-52" font-family="Helvetica,sans-Serif" font-size="10.00"> _outputScalingLengths</text>
</g>
</g>
</svg>
