<?xml version="1.0" encoding="UTF-8" standalone="no"?>
<!DOCTYPE svg PUBLIC "-//W3C//DTD SVG 1.1//EN"
 "http://www.w3.org/Graphics/SVG/1.1/DTD/svg11.dtd">
<!-- Generated by graphviz version 2.38.0 (20140413.2041)
 -->
<!-- Title: IG.Num.AffineTransformationDiagonal0_TO_DELETE Pages: 1 -->
<svg width="277pt" height="128pt"
 viewBox="0.00 0.00 277.00 128.00" xmlns="http://www.w3.org/2000/svg" xmlns:xlink="http://www.w3.org/1999/xlink">
<g id="graph0" class="graph" transform="scale(1 1) rotate(0) translate(4 124)">
<title>IG.Num.AffineTransformationDiagonal0_TO_DELETE</title>
<polygon fill="white" stroke="none" points="-4,4 -4,-124 273,-124 273,4 -4,4"/>
<!-- Node1 -->
<g id="node1" class="node"><title>Node1</title>
<g id="a_node1"><a xlink:title="Implementation of a general affine transformation.">
<polygon fill="#bfbfbf" stroke="black" points="71,-0.5 71,-30.5 211,-30.5 211,-0.5 71,-0.5"/>
<text text-anchor="start" x="79" y="-18.5" font-family="Helvetica,sans-Serif" font-size="10.00">IG.Num.AffineTransformation</text>
<text text-anchor="middle" x="141" y="-7.5" font-family="Helvetica,sans-Serif" font-size="10.00">Diagonal0_TO_DELETE</text>
</a>
</g>
</g>
<!-- Node2 -->
<g id="node2" class="node"><title>Node2</title>
<g id="a_node2"><a xlink:href="../../d8/d86/interfaceIG_1_1Num_1_1IMatrix.html" target="_top" xlink:title="Generic Matrix interface.">
<polygon fill="white" stroke="black" points="0,-89.5 0,-119.5 140,-119.5 140,-89.5 0,-89.5"/>
<text text-anchor="start" x="8" y="-107.5" font-family="Helvetica,sans-Serif" font-size="10.00">IG.Num.IMatrix&lt; Component</text>
<text text-anchor="middle" x="70" y="-96.5" font-family="Helvetica,sans-Serif" font-size="10.00">Type &gt;</text>
</a>
</g>
</g>
<!-- Node2&#45;&gt;Node1 -->
<g id="edge1" class="edge"><title>Node2&#45;&gt;Node1</title>
<path fill="none" stroke="#9a32cd" stroke-dasharray="5,2" d="M88.1031,-81.3174C101.127,-65.3582 118.301,-44.3137 129.494,-30.599"/>
<polygon fill="#9a32cd" stroke="#9a32cd" points="85.3353,-79.1732 81.7242,-89.1337 90.7586,-83.5991 85.3353,-79.1732"/>
<text text-anchor="middle" x="138.5" y="-57.5" font-family="Helvetica,sans-Serif" font-size="10.00"> _transfMat</text>
</g>
<!-- Node3 -->
<g id="node3" class="node"><title>Node3</title>
<g id="a_node3"><a xlink:href="../../d3/d24/interfaceIG_1_1Num_1_1IVector.html" target="_top" xlink:title="Generic Vector interface">
<polygon fill="white" stroke="black" points="158.5,-95 158.5,-114 265.5,-114 265.5,-95 158.5,-95"/>
<text text-anchor="middle" x="212" y="-102" font-family="Helvetica,sans-Serif" font-size="10.00">IG.Num.IVector&lt; T &gt;</text>
</a>
</g>
</g>
<!-- Node3&#45;&gt;Node1 -->
<g id="edge2" class="edge"><title>Node3&#45;&gt;Node1</title>
<path fill="none" stroke="#9a32cd" stroke-dasharray="5,2" d="M198.309,-86.7242C184.986,-70.3986 164.972,-45.8741 152.464,-30.5475"/>
<polygon fill="#9a32cd" stroke="#9a32cd" points="195.898,-89.3055 204.933,-94.84 201.322,-84.8796 195.898,-89.3055"/>
<text text-anchor="middle" x="227" y="-63" font-family="Helvetica,sans-Serif" font-size="10.00"> _translationVector</text>
<text text-anchor="middle" x="227" y="-52" font-family="Helvetica,sans-Serif" font-size="10.00">_transfMatDiagonal</text>
</g>
</g>
</svg>
