<?xml version="1.0" encoding="UTF-8" standalone="no"?>
<!DOCTYPE svg PUBLIC "-//W3C//DTD SVG 1.1//EN"
 "http://www.w3.org/Graphics/SVG/1.1/DTD/svg11.dtd">
<!-- Generated by graphviz version 2.38.0 (20140413.2041)
 -->
<!-- Title: IG.Lib.ObjectRegister&lt; T &gt; Pages: 1 -->
<svg width="141pt" height="140pt"
 viewBox="0.00 0.00 141.00 140.00" xmlns="http://www.w3.org/2000/svg" xmlns:xlink="http://www.w3.org/1999/xlink">
<g id="graph0" class="graph" transform="scale(1 1) rotate(0) translate(4 136)">
<title>IG.Lib.ObjectRegister&lt; T &gt;</title>
<polygon fill="white" stroke="none" points="-4,4 -4,-136 137,-136 137,4 -4,4"/>
<!-- Node1 -->
<g id="node1" class="node"><title>Node1</title>
<g id="a_node1"><a xlink:title="Provides implementation of register of objects of the specified type. Also generates unique IDs for o...">
<polygon fill="#bfbfbf" stroke="black" points="0,-0.5 0,-19.5 133,-19.5 133,-0.5 0,-0.5"/>
<text text-anchor="middle" x="66.5" y="-7.5" font-family="Helvetica,sans-Serif" font-size="10.00">IG.Lib.ObjectRegister&lt; T &gt;</text>
</a>
</g>
</g>
<!-- Node2 -->
<g id="node2" class="node"><title>Node2</title>
<g id="a_node2"><a xlink:href="../../d1/d14/classIG_1_1Lib_1_1IdGenerator.html" target="_top" xlink:title="Utility class for generaton of unique IDs for objects of specific type. IDs generated by calls of Get...">
<polygon fill="white" stroke="black" points="64,-56.5 64,-75.5 131,-75.5 131,-56.5 64,-56.5"/>
<text text-anchor="middle" x="97.5" y="-63.5" font-family="Helvetica,sans-Serif" font-size="10.00">IdGenerator</text>
</a>
</g>
</g>
<!-- Node2&#45;&gt;Node1 -->
<g id="edge1" class="edge"><title>Node2&#45;&gt;Node1</title>
<path fill="none" stroke="midnightblue" d="M87.3244,-47.2747C82.0261,-38.0454 75.783,-27.1703 71.5238,-19.7511"/>
<polygon fill="midnightblue" stroke="midnightblue" points="84.3669,-49.153 92.381,-56.083 90.4376,-45.6679 84.3669,-49.153"/>
</g>
<!-- Node3 -->
<g id="node3" class="node"><title>Node3</title>
<g id="a_node3"><a xlink:href="../../d3/db6/interfaceIG_1_1Lib_1_1ILockable.html" target="_top" xlink:title="Lockable object, has a Lock property that returns object on which lock must be performed in order to ...">
<polygon fill="white" stroke="black" points="37.5,-112.5 37.5,-131.5 95.5,-131.5 95.5,-112.5 37.5,-112.5"/>
<text text-anchor="middle" x="66.5" y="-119.5" font-family="Helvetica,sans-Serif" font-size="10.00">ILockable</text>
</a>
</g>
</g>
<!-- Node3&#45;&gt;Node1 -->
<g id="edge3" class="edge"><title>Node3&#45;&gt;Node1</title>
<path fill="none" stroke="midnightblue" d="M60.9601,-102.656C58.7923,-94.5656 56.5712,-84.8931 55.5,-76 53.0638,-55.7738 59.3335,-32.2498 63.3802,-19.7925"/>
<polygon fill="midnightblue" stroke="midnightblue" points="57.6563,-103.833 63.7701,-112.486 64.3868,-101.909 57.6563,-103.833"/>
</g>
<!-- Node3&#45;&gt;Node2 -->
<g id="edge2" class="edge"><title>Node3&#45;&gt;Node2</title>
<path fill="none" stroke="midnightblue" d="M76.6756,-103.275C81.9739,-94.0454 88.217,-83.1703 92.4762,-75.7511"/>
<polygon fill="midnightblue" stroke="midnightblue" points="73.5624,-101.668 71.619,-112.083 79.6331,-105.153 73.5624,-101.668"/>
</g>
</g>
</svg>
