<?xml version="1.0" encoding="UTF-8" standalone="no"?>
<!DOCTYPE svg PUBLIC "-//W3C//DTD SVG 1.1//EN"
 "http://www.w3.org/Graphics/SVG/1.1/DTD/svg11.dtd">
<!-- Generated by graphviz version 2.38.0 (20140413.2041)
 -->
<!-- Title: IGLib.Core.IModelParameterSetBase&lt; ModelParameterType &gt; Pages: 1 -->
<svg width="172pt" height="173pt"
 viewBox="0.00 0.00 172.00 173.00" xmlns="http://www.w3.org/2000/svg" xmlns:xlink="http://www.w3.org/1999/xlink">
<g id="graph0" class="graph" transform="scale(1 1) rotate(0) translate(4 169)">
<title>IGLib.Core.IModelParameterSetBase&lt; ModelParameterType &gt;</title>
<polygon fill="white" stroke="none" points="-4,4 -4,-169 168,-169 168,4 -4,4"/>
<!-- Node1 -->
<g id="node1" class="node"><title>Node1</title>
<g id="a_node1"><a xlink:title="A set of model parameters of the specified type, where parameters can be added, removed or changed af...">
<polygon fill="#bfbfbf" stroke="black" points="0,-67.5 0,-97.5 164,-97.5 164,-67.5 0,-67.5"/>
<text text-anchor="start" x="8" y="-85.5" font-family="Helvetica,sans-Serif" font-size="10.00">IGLib.Core.IModelParameter</text>
<text text-anchor="middle" x="82" y="-74.5" font-family="Helvetica,sans-Serif" font-size="10.00">SetBase&lt; ModelParameterType &gt;</text>
</a>
</g>
</g>
<!-- Node3 -->
<g id="node3" class="node"><title>Node3</title>
<g id="a_node3"><a xlink:href="../../da/d85/classIGLib_1_1Core_1_1ModelParameterSetBase.html" target="_top" xlink:title="Similar as ModelParameterSetFixedBase&lt;ModelParameterType&gt;, except that parameter objects can be added...">
<polygon fill="white" stroke="black" points="0,-0.5 0,-30.5 164,-30.5 164,-0.5 0,-0.5"/>
<text text-anchor="start" x="8" y="-18.5" font-family="Helvetica,sans-Serif" font-size="10.00">IGLib::Core::ModelParameter</text>
<text text-anchor="middle" x="82" y="-7.5" font-family="Helvetica,sans-Serif" font-size="10.00">SetBase&lt; ModelParameterType &gt;</text>
</a>
</g>
</g>
<!-- Node1&#45;&gt;Node3 -->
<g id="edge2" class="edge"><title>Node1&#45;&gt;Node3</title>
<path fill="none" stroke="midnightblue" d="M82,-57.1081C82,-48.1539 82,-38.3227 82,-30.5765"/>
<polygon fill="midnightblue" stroke="midnightblue" points="78.5001,-57.3959 82,-67.396 85.5001,-57.396 78.5001,-57.3959"/>
</g>
<!-- Node2 -->
<g id="node2" class="node"><title>Node2</title>
<g id="a_node2"><a xlink:href="../../df/d1f/interfaceIGLib_1_1Core_1_1IModelParameterSetBaseFixed.html" target="_top" xlink:title="A fixed set of model parameters of the specified type, where parameters cannot be added,...">
<polygon fill="white" stroke="black" points="6,-134.5 6,-164.5 158,-164.5 158,-134.5 6,-134.5"/>
<text text-anchor="start" x="14" y="-152.5" font-family="Helvetica,sans-Serif" font-size="10.00">IModelParameterSetBaseFixed</text>
<text text-anchor="middle" x="82" y="-141.5" font-family="Helvetica,sans-Serif" font-size="10.00">&lt; ModelParameterType &gt;</text>
</a>
</g>
</g>
<!-- Node2&#45;&gt;Node1 -->
<g id="edge1" class="edge"><title>Node2&#45;&gt;Node1</title>
<path fill="none" stroke="midnightblue" d="M82,-124.108C82,-115.154 82,-105.323 82,-97.5765"/>
<polygon fill="midnightblue" stroke="midnightblue" points="78.5001,-124.396 82,-134.396 85.5001,-124.396 78.5001,-124.396"/>
</g>
</g>
</svg>
