<?xml version="1.0" encoding="UTF-8" standalone="no"?>
<!DOCTYPE svg PUBLIC "-//W3C//DTD SVG 1.1//EN"
 "http://www.w3.org/Graphics/SVG/1.1/DTD/svg11.dtd">
<!-- Generated by graphviz version 2.38.0 (20140413.2041)
 -->
<!-- Title: IG.Num.ScalarFunctionLinear Pages: 1 -->
<svg width="368pt" height="152pt"
 viewBox="0.00 0.00 368.00 152.00" xmlns="http://www.w3.org/2000/svg" xmlns:xlink="http://www.w3.org/1999/xlink">
<g id="graph0" class="graph" transform="scale(1 1) rotate(0) translate(4 148)">
<title>IG.Num.ScalarFunctionLinear</title>
<polygon fill="white" stroke="none" points="-4,4 -4,-148 364,-148 364,4 -4,4"/>
<!-- Node1 -->
<g id="node1" class="node"><title>Node1</title>
<g id="a_node1"><a xlink:title="Linear scalar function of vector variable. Function is evaluated according to q(x) = b^T*x + c where ...">
<polygon fill="#bfbfbf" stroke="black" points="79.5,-0.5 79.5,-19.5 223.5,-19.5 223.5,-0.5 79.5,-0.5"/>
<text text-anchor="middle" x="151.5" y="-7.5" font-family="Helvetica,sans-Serif" font-size="10.00">IG.Num.ScalarFunctionLinear</text>
</a>
</g>
</g>
<!-- Node2 -->
<g id="node2" class="node"><title>Node2</title>
<g id="a_node2"><a xlink:href="../../d2/d9e/classIG_1_1Num_1_1ScalarFunctionUntransformedBase.html" target="_top" xlink:title="Base class for defining scalar functions without possibility of affine transformation of parameters.">
<polygon fill="white" stroke="black" points="68,-67.5 68,-86.5 235,-86.5 235,-67.5 68,-67.5"/>
<text text-anchor="middle" x="151.5" y="-74.5" font-family="Helvetica,sans-Serif" font-size="10.00">ScalarFunctionUntransformedBase</text>
</a>
</g>
</g>
<!-- Node2&#45;&gt;Node1 -->
<g id="edge1" class="edge"><title>Node2&#45;&gt;Node1</title>
<path fill="none" stroke="midnightblue" d="M151.5,-57.037C151.5,-44.6703 151.5,-29.1198 151.5,-19.6273"/>
<polygon fill="midnightblue" stroke="midnightblue" points="148,-57.2338 151.5,-67.2338 155,-57.2338 148,-57.2338"/>
</g>
<!-- Node3 -->
<g id="node3" class="node"><title>Node3</title>
<g id="a_node3"><a xlink:href="../../d8/d56/interfaceIG_1_1Num_1_1IScalarFunctionUntransformed.html" target="_top" xlink:title="Scalar functions of vector arguments.">
<polygon fill="white" stroke="black" points="0,-124.5 0,-143.5 147,-143.5 147,-124.5 0,-124.5"/>
<text text-anchor="middle" x="73.5" y="-131.5" font-family="Helvetica,sans-Serif" font-size="10.00">IScalarFunctionUntransformed</text>
</a>
</g>
</g>
<!-- Node3&#45;&gt;Node1 -->
<g id="edge3" class="edge"><title>Node3&#45;&gt;Node1</title>
<path fill="none" stroke="midnightblue" d="M62.9593,-115.317C56.1628,-101.422 50.033,-81.982 58.5,-67 72.2239,-42.7162 101.163,-27.7937 123.137,-19.5249"/>
<polygon fill="midnightblue" stroke="midnightblue" points="59.9891,-117.182 67.8269,-124.311 66.1453,-113.85 59.9891,-117.182"/>
</g>
<!-- Node3&#45;&gt;Node2 -->
<g id="edge2" class="edge"><title>Node3&#45;&gt;Node2</title>
<path fill="none" stroke="midnightblue" d="M94.0111,-118.537C108.453,-108.354 127.295,-95.0678 139.398,-86.5334"/>
<polygon fill="midnightblue" stroke="midnightblue" points="91.8431,-115.783 85.6875,-124.406 95.8771,-121.504 91.8431,-115.783"/>
</g>
<!-- Node4 -->
<g id="node4" class="node"><title>Node4</title>
<g id="a_node4"><a xlink:href="../../d3/d24/interfaceIG_1_1Num_1_1IVector.html" target="_top" xlink:title="Generic Vector interface">
<polygon fill="white" stroke="black" points="253,-67.5 253,-86.5 360,-86.5 360,-67.5 253,-67.5"/>
<text text-anchor="middle" x="306.5" y="-74.5" font-family="Helvetica,sans-Serif" font-size="10.00">IG.Num.IVector&lt; T &gt;</text>
</a>
</g>
</g>
<!-- Node4&#45;&gt;Node1 -->
<g id="edge4" class="edge"><title>Node4&#45;&gt;Node1</title>
<path fill="none" stroke="#9a32cd" stroke-dasharray="5,2" d="M276.569,-63.4485C245.88,-50.5787 198.961,-30.9032 172.168,-19.6672"/>
<polygon fill="#9a32cd" stroke="#9a32cd" points="275.342,-66.7289 285.917,-67.3685 278.049,-60.2735 275.342,-66.7289"/>
<text text-anchor="middle" x="245.5" y="-41" font-family="Helvetica,sans-Serif" font-size="10.00"> _b</text>
</g>
</g>
</svg>
