<?xml version="1.0" encoding="UTF-8" standalone="no"?>
<!DOCTYPE svg PUBLIC "-//W3C//DTD SVG 1.1//EN"
 "http://www.w3.org/Graphics/SVG/1.1/DTD/svg11.dtd">
<!-- Generated by graphviz version 2.38.0 (20140413.2041)
 -->
<!-- Title: IG.Gr.Mesh Pages: 1 -->
<svg width="223pt" height="196pt"
 viewBox="0.00 0.00 223.00 196.00" xmlns="http://www.w3.org/2000/svg" xmlns:xlink="http://www.w3.org/1999/xlink">
<g id="graph0" class="graph" transform="scale(1 1) rotate(0) translate(4 192)">
<title>IG.Gr.Mesh</title>
<polygon fill="white" stroke="none" points="-4,4 -4,-192 219,-192 219,4 -4,4"/>
<!-- Node1 -->
<g id="node1" class="node"><title>Node1</title>
<g id="a_node1"><a xlink:title="Base class for all mesh classes.">
<polygon fill="#bfbfbf" stroke="black" points="54,-168.5 54,-187.5 121,-187.5 121,-168.5 54,-168.5"/>
<text text-anchor="middle" x="87.5" y="-175.5" font-family="Helvetica,sans-Serif" font-size="10.00">IG.Gr.Mesh</text>
</a>
</g>
</g>
<!-- Node2 -->
<g id="node2" class="node"><title>Node2</title>
<g id="a_node2"><a xlink:href="../../d7/d1d/classIG_1_1Gr_1_1Mesh2D.html" target="_top" xlink:title=" ">
<polygon fill="white" stroke="black" points="0,-112.5 0,-131.5 79,-131.5 79,-112.5 0,-112.5"/>
<text text-anchor="middle" x="39.5" y="-119.5" font-family="Helvetica,sans-Serif" font-size="10.00">IG.Gr.Mesh2D</text>
</a>
</g>
</g>
<!-- Node1&#45;&gt;Node2 -->
<g id="edge1" class="edge"><title>Node1&#45;&gt;Node2</title>
<path fill="none" stroke="midnightblue" d="M72.7723,-160.431C64.3599,-150.967 54.1513,-139.483 47.2787,-131.751"/>
<polygon fill="midnightblue" stroke="midnightblue" points="70.3142,-162.934 79.5738,-168.083 75.546,-158.284 70.3142,-162.934"/>
</g>
<!-- Node3 -->
<g id="node3" class="node"><title>Node3</title>
<g id="a_node3"><a xlink:href="../../d5/ddb/classIG_1_1Gr_1_1Mesh3D.html" target="_top" xlink:title=" ">
<polygon fill="white" stroke="black" points="97,-112.5 97,-131.5 176,-131.5 176,-112.5 97,-112.5"/>
<text text-anchor="middle" x="136.5" y="-119.5" font-family="Helvetica,sans-Serif" font-size="10.00">IG.Gr.Mesh3D</text>
</a>
</g>
</g>
<!-- Node1&#45;&gt;Node3 -->
<g id="edge2" class="edge"><title>Node1&#45;&gt;Node3</title>
<path fill="none" stroke="midnightblue" d="M102.534,-160.431C111.122,-150.967 121.543,-139.483 128.559,-131.751"/>
<polygon fill="midnightblue" stroke="midnightblue" points="99.7193,-158.325 95.5914,-168.083 104.903,-163.029 99.7193,-158.325"/>
</g>
<!-- Node4 -->
<g id="node4" class="node"><title>Node4</title>
<g id="a_node4"><a xlink:href="../../d9/d83/classIG_1_1Gr_1_1SurfceMesh3D.html" target="_top" xlink:title="Surface mesh in 3 dimensions.">
<polygon fill="white" stroke="black" points="83,-56.5 83,-75.5 190,-75.5 190,-56.5 83,-56.5"/>
<text text-anchor="middle" x="136.5" y="-63.5" font-family="Helvetica,sans-Serif" font-size="10.00">IG.Gr.SurfceMesh3D</text>
</a>
</g>
</g>
<!-- Node3&#45;&gt;Node4 -->
<g id="edge3" class="edge"><title>Node3&#45;&gt;Node4</title>
<path fill="none" stroke="midnightblue" d="M136.5,-101.805C136.5,-92.9102 136.5,-82.7798 136.5,-75.7511"/>
<polygon fill="midnightblue" stroke="midnightblue" points="133,-102.083 136.5,-112.083 140,-102.083 133,-102.083"/>
</g>
<!-- Node5 -->
<g id="node5" class="node"><title>Node5</title>
<g id="a_node5"><a xlink:href="../../d5/da1/classIG_1_1Gr_1_1StructuredSurfaceMesh3D.html" target="_top" xlink:title=" ">
<polygon fill="white" stroke="black" points="58,-0.5 58,-19.5 215,-19.5 215,-0.5 58,-0.5"/>
<text text-anchor="middle" x="136.5" y="-7.5" font-family="Helvetica,sans-Serif" font-size="10.00">IG.Gr.StructuredSurfaceMesh3D</text>
</a>
</g>
</g>
<!-- Node4&#45;&gt;Node5 -->
<g id="edge4" class="edge"><title>Node4&#45;&gt;Node5</title>
<path fill="none" stroke="midnightblue" d="M136.5,-45.8045C136.5,-36.9102 136.5,-26.7798 136.5,-19.7511"/>
<polygon fill="midnightblue" stroke="midnightblue" points="133,-46.083 136.5,-56.083 140,-46.083 133,-46.083"/>
</g>
</g>
</svg>
