<?xml version="1.0" encoding="UTF-8" standalone="no"?>
<!DOCTYPE svg PUBLIC "-//W3C//DTD SVG 1.1//EN"
 "http://www.w3.org/Graphics/SVG/1.1/DTD/svg11.dtd">
<!-- Generated by graphviz version 2.38.0 (20140413.2041)
 -->
<!-- Title: IG.Num.GridGenerator1d Pages: 1 -->
<svg width="173pt" height="196pt"
 viewBox="0.00 0.00 173.16 196.00" xmlns="http://www.w3.org/2000/svg" xmlns:xlink="http://www.w3.org/1999/xlink">
<g id="graph0" class="graph" transform="scale(1 1) rotate(0) translate(4 192)">
<title>IG.Num.GridGenerator1d</title>
<polygon fill="white" stroke="none" points="-4,4 -4,-192 169.162,-192 169.162,4 -4,4"/>
<!-- Node1 -->
<g id="node1" class="node"><title>Node1</title>
<g id="a_node1"><a xlink:title="Generates 1D grids with equidistant or geometrically grown intervals.">
<polygon fill="#bfbfbf" stroke="black" points="8.16161,-0.5 8.16161,-19.5 132.162,-19.5 132.162,-0.5 8.16161,-0.5"/>
<text text-anchor="middle" x="70.1616" y="-7.5" font-family="Helvetica,sans-Serif" font-size="10.00">IG.Num.GridGenerator1d</text>
</a>
</g>
</g>
<!-- Node2 -->
<g id="node2" class="node"><title>Node2</title>
<g id="a_node2"><a xlink:href="../../d5/de2/classIG_1_1Num_1_1GridGenerator1dBase.html" target="_top" xlink:title="Base class for 1D grid generators.">
<polygon fill="white" stroke="black" points="15.1616,-56.5 15.1616,-75.5 125.162,-75.5 125.162,-56.5 15.1616,-56.5"/>
<text text-anchor="middle" x="70.1616" y="-63.5" font-family="Helvetica,sans-Serif" font-size="10.00">GridGenerator1dBase</text>
</a>
</g>
</g>
<!-- Node2&#45;&gt;Node1 -->
<g id="edge1" class="edge"><title>Node2&#45;&gt;Node1</title>
<path fill="none" stroke="midnightblue" d="M70.1616,-45.8045C70.1616,-36.9102 70.1616,-26.7798 70.1616,-19.7511"/>
<polygon fill="midnightblue" stroke="midnightblue" points="66.6617,-46.083 70.1616,-56.083 73.6617,-46.083 66.6617,-46.083"/>
</g>
<!-- Node3 -->
<g id="node3" class="node"><title>Node3</title>
<g id="a_node3"><a xlink:href="../../d5/d2d/interfaceIG_1_1Num_1_1IGridGenerator1d.html" target="_top" xlink:title="Interface for 1d grid generators.">
<polygon fill="white" stroke="black" points="75.1616,-112.5 75.1616,-131.5 165.162,-131.5 165.162,-112.5 75.1616,-112.5"/>
<text text-anchor="middle" x="120.162" y="-119.5" font-family="Helvetica,sans-Serif" font-size="10.00">IGridGenerator1d</text>
</a>
</g>
</g>
<!-- Node3&#45;&gt;Node1 -->
<g id="edge5" class="edge"><title>Node3&#45;&gt;Node1</title>
<path fill="none" stroke="midnightblue" d="M130.327,-102.874C136.477,-89.3282 141.793,-70.6943 134.162,-56 125.272,-38.883 106.553,-26.9097 91.6442,-19.6403"/>
<polygon fill="midnightblue" stroke="midnightblue" points="127.056,-101.588 125.663,-112.091 133.301,-104.749 127.056,-101.588"/>
</g>
<!-- Node3&#45;&gt;Node2 -->
<g id="edge2" class="edge"><title>Node3&#45;&gt;Node2</title>
<path fill="none" stroke="midnightblue" d="M105.085,-104.718C96.2725,-95.1997 85.4957,-83.5608 78.2645,-75.7511"/>
<polygon fill="midnightblue" stroke="midnightblue" points="102.543,-107.123 111.905,-112.083 107.679,-102.367 102.543,-107.123"/>
</g>
<!-- Node4 -->
<g id="node4" class="node"><title>Node4</title>
<g id="a_node4"><a xlink:href="../../d3/db6/interfaceIG_1_1Lib_1_1ILockable.html" target="_top" xlink:title="Lockable object, has a Lock property that returns object on which lock must be performed in order to ...">
<polygon fill="white" stroke="black" points="18.1616,-168.5 18.1616,-187.5 76.1616,-187.5 76.1616,-168.5 18.1616,-168.5"/>
<text text-anchor="middle" x="47.1616" y="-175.5" font-family="Helvetica,sans-Serif" font-size="10.00">ILockable</text>
</a>
</g>
</g>
<!-- Node4&#45;&gt;Node1 -->
<g id="edge6" class="edge"><title>Node4&#45;&gt;Node1</title>
<path fill="none" stroke="midnightblue" d="M33.3345,-160.355C15.2351,-136.413 -12.1485,-91.2575 6.16161,-56 15.0509,-38.883 33.77,-26.9097 48.679,-19.6403"/>
<polygon fill="midnightblue" stroke="midnightblue" points="30.7609,-162.743 39.702,-168.427 36.2569,-158.408 30.7609,-162.743"/>
</g>
<!-- Node4&#45;&gt;Node2 -->
<g id="edge4" class="edge"><title>Node4&#45;&gt;Node2</title>
<path fill="none" stroke="midnightblue" d="M51.0615,-158.348C56.0995,-134.254 64.6609,-93.3079 68.3652,-75.5914"/>
<polygon fill="midnightblue" stroke="midnightblue" points="47.5872,-157.864 48.9664,-168.368 54.439,-159.297 47.5872,-157.864"/>
</g>
<!-- Node4&#45;&gt;Node3 -->
<g id="edge3" class="edge"><title>Node4&#45;&gt;Node3</title>
<path fill="none" stroke="midnightblue" d="M67.3032,-162.101C80.4409,-152.382 97.1437,-140.027 108.219,-131.834"/>
<polygon fill="midnightblue" stroke="midnightblue" points="64.8483,-159.563 58.8903,-168.324 69.0113,-165.191 64.8483,-159.563"/>
</g>
</g>
</svg>
