<?xml version="1.0" encoding="UTF-8" standalone="no"?>
<!DOCTYPE svg PUBLIC "-//W3C//DTD SVG 1.1//EN"
 "http://www.w3.org/Graphics/SVG/1.1/DTD/svg11.dtd">
<!-- Generated by graphviz version 2.38.0 (20140413.2041)
 -->
<!-- Title: IG.Crypto.UtilCrypto Pages: 1 -->
<svg width="171pt" height="216pt"
 viewBox="0.00 0.00 171.00 216.00" xmlns="http://www.w3.org/2000/svg" xmlns:xlink="http://www.w3.org/1999/xlink">
<g id="graph0" class="graph" transform="scale(1 1) rotate(0) translate(4 212)">
<title>IG.Crypto.UtilCrypto</title>
<polygon fill="white" stroke="none" points="-4,4 -4,-212 167,-212 167,4 -4,4"/>
<!-- Node1 -->
<g id="node1" class="node"><title>Node1</title>
<g id="a_node1"><a xlink:title="Basic Cryptographic utilities.">
<polygon fill="#bfbfbf" stroke="black" points="0,-0.5 0,-19.5 104,-19.5 104,-0.5 0,-0.5"/>
<text text-anchor="middle" x="52" y="-7.5" font-family="Helvetica,sans-Serif" font-size="10.00">IG.Crypto.UtilCrypto</text>
</a>
</g>
</g>
<!-- Node2 -->
<g id="node2" class="node"><title>Node2</title>
<g id="a_node2"><a xlink:title=" ">
<polygon fill="white" stroke="#bfbfbf" points="31.5,-188.5 31.5,-207.5 72.5,-207.5 72.5,-188.5 31.5,-188.5"/>
<text text-anchor="middle" x="52" y="-195.5" font-family="Helvetica,sans-Serif" font-size="10.00">static</text>
</a>
</g>
</g>
<!-- Node2&#45;&gt;Node1 -->
<g id="edge1" class="edge"><title>Node2&#45;&gt;Node1</title>
<path fill="none" stroke="#9a32cd" stroke-dasharray="5,2" d="M52,-177.86C52,-138.211 52,-48.4172 52,-19.8812"/>
<polygon fill="#9a32cd" stroke="#9a32cd" points="48.5001,-178.029 52,-188.029 55.5001,-178.029 48.5001,-178.029"/>
<text text-anchor="middle" x="107.5" y="-162" font-family="Helvetica,sans-Serif" font-size="10.00"> _symmetricTypes</text>
<text text-anchor="middle" x="107.5" y="-151" font-family="Helvetica,sans-Serif" font-size="10.00">_igLibLongSaltSuffices</text>
<text text-anchor="middle" x="107.5" y="-140" font-family="Helvetica,sans-Serif" font-size="10.00">_asymmetricTypes</text>
<text text-anchor="middle" x="107.5" y="-129" font-family="Helvetica,sans-Serif" font-size="10.00">_passwordAlgorithmNone</text>
<text text-anchor="middle" x="107.5" y="-118" font-family="Helvetica,sans-Serif" font-size="10.00">_lockStatic</text>
<text text-anchor="middle" x="107.5" y="-107" font-family="Helvetica,sans-Serif" font-size="10.00">_outputLevel</text>
<text text-anchor="middle" x="107.5" y="-96" font-family="Helvetica,sans-Serif" font-size="10.00">_isUsed_fOAEP1</text>
<text text-anchor="middle" x="107.5" y="-85" font-family="Helvetica,sans-Serif" font-size="10.00">_hashTypes</text>
<text text-anchor="middle" x="107.5" y="-74" font-family="Helvetica,sans-Serif" font-size="10.00">_rng</text>
<text text-anchor="start" x="52" y="-63" font-family="Helvetica,sans-Serif" font-size="10.00">_passwordAlgorithm</text>
<text text-anchor="middle" x="107.5" y="-52" font-family="Helvetica,sans-Serif" font-size="10.00">Types</text>
<text text-anchor="middle" x="107.5" y="-41" font-family="Helvetica,sans-Serif" font-size="10.00">...</text>
</g>
</g>
</svg>
