<?xml version="1.0" encoding="UTF-8" standalone="no"?>
<!DOCTYPE svg PUBLIC "-//W3C//DTD SVG 1.1//EN"
 "http://www.w3.org/Graphics/SVG/1.1/DTD/svg11.dtd">
<!-- Generated by graphviz version 2.38.0 (20140413.2041)
 -->
<!-- Title: IG.Lib.KeyValueSortable&lt; Tkey, Tvalue &gt;.ComparerValueBase Pages: 1 -->
<svg width="189pt" height="162pt"
 viewBox="0.00 0.00 189.00 162.00" xmlns="http://www.w3.org/2000/svg" xmlns:xlink="http://www.w3.org/1999/xlink">
<g id="graph0" class="graph" transform="scale(1 1) rotate(0) translate(4 158)">
<title>IG.Lib.KeyValueSortable&lt; Tkey, Tvalue &gt;.ComparerValueBase</title>
<polygon fill="white" stroke="none" points="-4,4 -4,-158 185,-158 185,4 -4,4"/>
<!-- Node1 -->
<g id="node1" class="node"><title>Node1</title>
<g id="a_node1"><a xlink:title="IComparer that compares the key first and then eventually the value and finally the additional orderi...">
<polygon fill="#bfbfbf" stroke="black" points="0,-0.5 0,-30.5 181,-30.5 181,-0.5 0,-0.5"/>
<text text-anchor="start" x="8" y="-18.5" font-family="Helvetica,sans-Serif" font-size="10.00">IG.Lib.KeyValueSortable</text>
<text text-anchor="middle" x="90.5" y="-7.5" font-family="Helvetica,sans-Serif" font-size="10.00">&lt; Tkey, Tvalue &gt;.ComparerValueBase</text>
</a>
</g>
</g>
<!-- Node2 -->
<g id="node2" class="node"><title>Node2</title>
<g id="a_node2"><a xlink:href="../../d5/d86/classIG_1_1Lib_1_1KeyValueSortable_1_1ComparerBase.html" target="_top" xlink:title="Base class for different IComparer classes.">
<polygon fill="white" stroke="black" points="50,-67.5 50,-86.5 131,-86.5 131,-67.5 50,-67.5"/>
<text text-anchor="middle" x="90.5" y="-74.5" font-family="Helvetica,sans-Serif" font-size="10.00">ComparerBase</text>
</a>
</g>
</g>
<!-- Node2&#45;&gt;Node1 -->
<g id="edge1" class="edge"><title>Node2&#45;&gt;Node1</title>
<path fill="none" stroke="midnightblue" d="M90.5,-57.2349C90.5,-48.5864 90.5,-38.4969 90.5,-30.523"/>
<polygon fill="midnightblue" stroke="midnightblue" points="87.0001,-57.4751 90.5,-67.4751 94.0001,-57.4751 87.0001,-57.4751"/>
</g>
<!-- Node3 -->
<g id="node3" class="node"><title>Node3</title>
<g id="a_node3"><a xlink:title=" ">
<polygon fill="white" stroke="#bfbfbf" points="16.5,-123.5 16.5,-153.5 164.5,-153.5 164.5,-123.5 16.5,-123.5"/>
<text text-anchor="start" x="24.5" y="-141.5" font-family="Helvetica,sans-Serif" font-size="10.00">IComparer&lt; KeyValueSortable</text>
<text text-anchor="middle" x="90.5" y="-130.5" font-family="Helvetica,sans-Serif" font-size="10.00">&lt; Tkey, Tvalue &gt;&gt;</text>
</a>
</g>
</g>
<!-- Node3&#45;&gt;Node2 -->
<g id="edge2" class="edge"><title>Node3&#45;&gt;Node2</title>
<path fill="none" stroke="midnightblue" d="M90.5,-113.289C90.5,-103.857 90.5,-93.6548 90.5,-86.6578"/>
<polygon fill="midnightblue" stroke="midnightblue" points="87.0001,-113.399 90.5,-123.399 94.0001,-113.399 87.0001,-113.399"/>
</g>
</g>
</svg>
