<?xml version="1.0" encoding="UTF-8" standalone="no"?>
<!DOCTYPE svg PUBLIC "-//W3C//DTD SVG 1.1//EN"
 "http://www.w3.org/Graphics/SVG/1.1/DTD/svg11.dtd">
<!-- Generated by graphviz version 2.38.0 (20140413.2041)
 -->
<!-- Title: IG.Lib.CommandLineJobContainer Pages: 1 -->
<svg width="355pt" height="126pt"
 viewBox="0.00 0.00 355.00 126.00" xmlns="http://www.w3.org/2000/svg" xmlns:xlink="http://www.w3.org/1999/xlink">
<g id="graph0" class="graph" transform="scale(1 1) rotate(0) translate(4 122)">
<title>IG.Lib.CommandLineJobContainer</title>
<polygon fill="white" stroke="none" points="-4,4 -4,-122 351,-122 351,4 -4,4"/>
<!-- Node1 -->
<g id="node1" class="node"><title>Node1</title>
<g id="a_node1"><a xlink:title="Carries command execution data, results, and other data such as identification number,...">
<polygon fill="#bfbfbf" stroke="black" points="183,-38.5 183,-57.5 347,-57.5 347,-38.5 183,-38.5"/>
<text text-anchor="middle" x="265" y="-45.5" font-family="Helvetica,sans-Serif" font-size="10.00">IG.Lib.CommandLineJobContainer</text>
</a>
</g>
</g>
<!-- Node2 -->
<g id="node2" class="node"><title>Node2</title>
<g id="a_node2"><a xlink:href="../../d3/d64/classIG_1_1Num_1_1ParallelJobContainerGen.html" target="_top" xlink:title=" ">
<polygon fill="white" stroke="black" points="0,-76.5 0,-117.5 147,-117.5 147,-76.5 0,-76.5"/>
<text text-anchor="start" x="8" y="-105.5" font-family="Helvetica,sans-Serif" font-size="10.00">ParallelJobContainerGen</text>
<text text-anchor="start" x="8" y="-94.5" font-family="Helvetica,sans-Serif" font-size="10.00">&lt; CommandLineJobContainer,</text>
<text text-anchor="middle" x="73.5" y="-83.5" font-family="Helvetica,sans-Serif" font-size="10.00"> CommandLineJobContainer &gt;</text>
</a>
</g>
</g>
<!-- Node2&#45;&gt;Node1 -->
<g id="edge1" class="edge"><title>Node2&#45;&gt;Node1</title>
<path fill="none" stroke="midnightblue" d="M156.929,-75.686C181.487,-69.3357 207.17,-62.6949 227.224,-57.5094"/>
<polygon fill="midnightblue" stroke="midnightblue" points="156.029,-72.3034 147.224,-78.1955 157.781,-79.0805 156.029,-72.3034"/>
</g>
<!-- Node3 -->
<g id="node3" class="node"><title>Node3</title>
<g id="a_node3"><a xlink:href="../../dc/d79/interfaceIG_1_1Lib_1_1IIdentifiable.html" target="_top" xlink:title="Classes whose instances have unique integer IDs.">
<polygon fill="white" stroke="black" points="41,-38.5 41,-57.5 106,-57.5 106,-38.5 41,-38.5"/>
<text text-anchor="middle" x="73.5" y="-45.5" font-family="Helvetica,sans-Serif" font-size="10.00">IIdentifiable</text>
</a>
</g>
</g>
<!-- Node3&#45;&gt;Node1 -->
<g id="edge2" class="edge"><title>Node3&#45;&gt;Node1</title>
<path fill="none" stroke="midnightblue" d="M116.294,-48C135.836,-48 159.805,-48 182.704,-48"/>
<polygon fill="midnightblue" stroke="midnightblue" points="116.218,-44.5001 106.218,-48 116.218,-51.5001 116.218,-44.5001"/>
</g>
<!-- Node4 -->
<g id="node4" class="node"><title>Node4</title>
<g id="a_node4"><a xlink:href="../../d3/db6/interfaceIG_1_1Lib_1_1ILockable.html" target="_top" xlink:title="Lockable object, has a Lock property that returns object on which lock must be performed in order to ...">
<polygon fill="white" stroke="black" points="44.5,-0.5 44.5,-19.5 102.5,-19.5 102.5,-0.5 44.5,-0.5"/>
<text text-anchor="middle" x="73.5" y="-7.5" font-family="Helvetica,sans-Serif" font-size="10.00">ILockable</text>
</a>
</g>
</g>
<!-- Node4&#45;&gt;Node1 -->
<g id="edge3" class="edge"><title>Node4&#45;&gt;Node1</title>
<path fill="none" stroke="midnightblue" d="M112.902,-17.7007C142.745,-23.685 184.299,-32.0178 216.279,-38.4305"/>
<polygon fill="midnightblue" stroke="midnightblue" points="113.363,-14.2235 102.87,-15.689 111.987,-21.0869 113.363,-14.2235"/>
</g>
</g>
</svg>
