<?xml version="1.0" encoding="UTF-8" standalone="no"?>
<!DOCTYPE svg PUBLIC "-//W3C//DTD SVG 1.1//EN"
 "http://www.w3.org/Graphics/SVG/1.1/DTD/svg11.dtd">
<!-- Generated by graphviz version 2.38.0 (20140413.2041)
 -->
<!-- Title: IG.Num.RandomGeneratorSystem Pages: 1 -->
<svg width="324pt" height="140pt"
 viewBox="0.00 0.00 324.00 140.00" xmlns="http://www.w3.org/2000/svg" xmlns:xlink="http://www.w3.org/1999/xlink">
<g id="graph0" class="graph" transform="scale(1 1) rotate(0) translate(4 136)">
<title>IG.Num.RandomGeneratorSystem</title>
<polygon fill="white" stroke="none" points="-4,4 -4,-136 320,-136 320,4 -4,4"/>
<!-- Node1 -->
<g id="node1" class="node"><title>Node1</title>
<g id="a_node1"><a xlink:title="Generator of uniformly distributed random numbers. Based on system random generator....">
<polygon fill="#bfbfbf" stroke="black" points="84,-56.5 84,-75.5 249,-75.5 249,-56.5 84,-56.5"/>
<text text-anchor="middle" x="166.5" y="-63.5" font-family="Helvetica,sans-Serif" font-size="10.00">IG.Num.RandomGeneratorSystem</text>
</a>
</g>
</g>
<!-- Node4 -->
<g id="node4" class="node"><title>Node4</title>
<g id="a_node4"><a xlink:href="../../d4/d9b/classIG_1_1Num_1_1RandGeneratorThreadSafe.html" target="_top" xlink:title="Generator of uniformly distributed random numbers. Based on the default random generator....">
<polygon fill="white" stroke="black" points="0,-0.5 0,-19.5 167,-19.5 167,-0.5 0,-0.5"/>
<text text-anchor="middle" x="83.5" y="-7.5" font-family="Helvetica,sans-Serif" font-size="10.00">IG.Num.RandGeneratorThreadSafe</text>
</a>
</g>
</g>
<!-- Node1&#45;&gt;Node4 -->
<g id="edge3" class="edge"><title>Node1&#45;&gt;Node4</title>
<path fill="none" stroke="midnightblue" d="M144.401,-50.6221C129.238,-40.7574 109.617,-27.9919 96.8023,-19.6545"/>
<polygon fill="midnightblue" stroke="midnightblue" points="142.874,-53.8042 153.165,-56.324 146.691,-47.9367 142.874,-53.8042"/>
</g>
<!-- Node5 -->
<g id="node5" class="node"><title>Node5</title>
<g id="a_node5"><a xlink:href="../../d2/dae/classIG_1_1Num_1_1RandomGenerator.html" target="_top" xlink:title="Default generator of uniformly distributed random numbers. Provides a global generator and a static f...">
<polygon fill="white" stroke="black" points="185,-0.5 185,-19.5 316,-19.5 316,-0.5 185,-0.5"/>
<text text-anchor="middle" x="250.5" y="-7.5" font-family="Helvetica,sans-Serif" font-size="10.00">IG.Num.RandomGenerator</text>
</a>
</g>
</g>
<!-- Node1&#45;&gt;Node5 -->
<g id="edge4" class="edge"><title>Node1&#45;&gt;Node5</title>
<path fill="none" stroke="midnightblue" d="M188.432,-50.9005C203.835,-40.9986 223.946,-28.0705 237.037,-19.6545"/>
<polygon fill="midnightblue" stroke="midnightblue" points="186.515,-47.9722 179.996,-56.324 190.301,-53.8605 186.515,-47.9722"/>
</g>
<!-- Node2 -->
<g id="node2" class="node"><title>Node2</title>
<g id="a_node2"><a xlink:title=" ">
<polygon fill="white" stroke="#bfbfbf" points="64.5,-112.5 64.5,-131.5 156.5,-131.5 156.5,-112.5 64.5,-112.5"/>
<text text-anchor="middle" x="110.5" y="-119.5" font-family="Helvetica,sans-Serif" font-size="10.00">System::Random</text>
</a>
</g>
</g>
<!-- Node2&#45;&gt;Node1 -->
<g id="edge1" class="edge"><title>Node2&#45;&gt;Node1</title>
<path fill="none" stroke="midnightblue" d="M126.83,-105.253C136.765,-95.6731 149.088,-83.7906 157.339,-75.8339"/>
<polygon fill="midnightblue" stroke="midnightblue" points="124.266,-102.863 119.497,-112.324 129.125,-107.902 124.266,-102.863"/>
</g>
<!-- Node3 -->
<g id="node3" class="node"><title>Node3</title>
<g id="a_node3"><a xlink:href="../../d4/d43/interfaceIG_1_1Num_1_1IRandomGenerator.html" target="_top" xlink:title="Uniform random number generator.">
<polygon fill="white" stroke="black" points="174.5,-112.5 174.5,-131.5 272.5,-131.5 272.5,-112.5 174.5,-112.5"/>
<text text-anchor="middle" x="223.5" y="-119.5" font-family="Helvetica,sans-Serif" font-size="10.00">IRandomGenerator</text>
</a>
</g>
</g>
<!-- Node3&#45;&gt;Node1 -->
<g id="edge2" class="edge"><title>Node3&#45;&gt;Node1</title>
<path fill="none" stroke="midnightblue" d="M206.879,-105.253C196.766,-95.6731 184.223,-83.7906 175.825,-75.8339"/>
<polygon fill="midnightblue" stroke="midnightblue" points="204.675,-107.987 214.342,-112.324 209.49,-102.906 204.675,-107.987"/>
</g>
</g>
</svg>
