<?xml version="1.0" encoding="UTF-8" standalone="no"?>
<!DOCTYPE svg PUBLIC "-//W3C//DTD SVG 1.1//EN"
 "http://www.w3.org/Graphics/SVG/1.1/DTD/svg11.dtd">
<!-- Generated by graphviz version 2.38.0 (20140413.2041)
 -->
<!-- Title: IG.Lib.ScriptLoaderIGLib.ScriptLoaderTest Pages: 1 -->
<svg width="194pt" height="207pt"
 viewBox="0.00 0.00 193.50 207.00" xmlns="http://www.w3.org/2000/svg" xmlns:xlink="http://www.w3.org/1999/xlink">
<g id="graph0" class="graph" transform="scale(1 1) rotate(0) translate(4 203)">
<title>IG.Lib.ScriptLoaderIGLib.ScriptLoaderTest</title>
<polygon fill="white" stroke="none" points="-4,4 -4,-203 189.5,-203 189.5,4 -4,4"/>
<!-- Node1 -->
<g id="node1" class="node"><title>Node1</title>
<g id="a_node1"><a xlink:title="ScriptLoader used for testing.">
<polygon fill="#bfbfbf" stroke="black" points="0,-0.5 0,-30.5 125,-30.5 125,-0.5 0,-0.5"/>
<text text-anchor="start" x="8" y="-18.5" font-family="Helvetica,sans-Serif" font-size="10.00">IG.Lib.ScriptLoaderIGLib.</text>
<text text-anchor="middle" x="62.5" y="-7.5" font-family="Helvetica,sans-Serif" font-size="10.00">ScriptLoaderTest</text>
</a>
</g>
</g>
<!-- Node2 -->
<g id="node2" class="node"><title>Node2</title>
<g id="a_node2"><a xlink:href="../../d3/dc9/classIG_1_1Lib_1_1ScriptLoaderIGLib.html" target="_top" xlink:title="Base script loader class for IGLib.">
<polygon fill="white" stroke="black" points="53.5,-67.5 53.5,-86.5 147.5,-86.5 147.5,-67.5 53.5,-67.5"/>
<text text-anchor="middle" x="100.5" y="-74.5" font-family="Helvetica,sans-Serif" font-size="10.00">ScriptLoaderIGLib</text>
</a>
</g>
</g>
<!-- Node2&#45;&gt;Node1 -->
<g id="edge1" class="edge"><title>Node2&#45;&gt;Node1</title>
<path fill="none" stroke="midnightblue" d="M89.6195,-58.9634C83.8671,-49.9564 76.8917,-39.0344 71.4558,-30.523"/>
<polygon fill="midnightblue" stroke="midnightblue" points="86.7232,-60.9311 95.0555,-67.4751 92.6227,-57.1633 86.7232,-60.9311"/>
</g>
<!-- Node3 -->
<g id="node3" class="node"><title>Node3</title>
<g id="a_node3"><a xlink:href="../../d3/d40/classIG_1_1Lib_1_1ScriptLoaderBase.html" target="_top" xlink:title="Dynamically compiles, loads and instantiates classes of type ILoadableScript from files or from strin...">
<polygon fill="white" stroke="black" points="91.5,-123.5 91.5,-142.5 185.5,-142.5 185.5,-123.5 91.5,-123.5"/>
<text text-anchor="middle" x="138.5" y="-130.5" font-family="Helvetica,sans-Serif" font-size="10.00">ScriptLoaderBase</text>
</a>
</g>
</g>
<!-- Node3&#45;&gt;Node2 -->
<g id="edge2" class="edge"><title>Node3&#45;&gt;Node2</title>
<path fill="none" stroke="midnightblue" d="M126.435,-114.855C119.855,-105.505 111.989,-94.3265 106.658,-86.7511"/>
<polygon fill="midnightblue" stroke="midnightblue" points="123.608,-116.919 132.225,-123.083 129.332,-112.891 123.608,-116.919"/>
</g>
<!-- Node4 -->
<g id="node4" class="node"><title>Node4</title>
<g id="a_node4"><a xlink:href="../../d3/db6/interfaceIG_1_1Lib_1_1ILockable.html" target="_top" xlink:title="Lockable object, has a Lock property that returns object on which lock must be performed in order to ...">
<polygon fill="white" stroke="black" points="34.5,-179.5 34.5,-198.5 92.5,-198.5 92.5,-179.5 34.5,-179.5"/>
<text text-anchor="middle" x="63.5" y="-186.5" font-family="Helvetica,sans-Serif" font-size="10.00">ILockable</text>
</a>
</g>
</g>
<!-- Node4&#45;&gt;Node1 -->
<g id="edge5" class="edge"><title>Node4&#45;&gt;Node1</title>
<path fill="none" stroke="midnightblue" d="M56.8964,-169.735C49.1785,-146.019 38.214,-103.358 44.5,-67 46.6882,-54.3432 51.7479,-40.6573 55.9473,-30.7297"/>
<polygon fill="midnightblue" stroke="midnightblue" points="53.6826,-171.153 60.2375,-179.477 60.304,-168.882 53.6826,-171.153"/>
</g>
<!-- Node4&#45;&gt;Node2 -->
<g id="edge4" class="edge"><title>Node4&#45;&gt;Node2</title>
<path fill="none" stroke="midnightblue" d="M68.4315,-169.377C72.0189,-156.299 77.1642,-138.454 82.5,-123 86.9486,-110.115 92.9751,-95.5174 96.801,-86.5343"/>
<polygon fill="midnightblue" stroke="midnightblue" points="65.0383,-168.517 65.8146,-179.084 71.797,-170.339 65.0383,-168.517"/>
</g>
<!-- Node4&#45;&gt;Node3 -->
<g id="edge3" class="edge"><title>Node4&#45;&gt;Node3</title>
<path fill="none" stroke="midnightblue" d="M83.8051,-173.38C97.3606,-163.62 114.742,-151.106 126.231,-142.834"/>
<polygon fill="midnightblue" stroke="midnightblue" points="81.6203,-170.641 75.55,-179.324 85.7105,-176.321 81.6203,-170.641"/>
</g>
</g>
</svg>
