<?xml version="1.0" encoding="UTF-8" standalone="no"?>
<!DOCTYPE svg PUBLIC "-//W3C//DTD SVG 1.1//EN"
 "http://www.w3.org/Graphics/SVG/1.1/DTD/svg11.dtd">
<!-- Generated by graphviz version 2.38.0 (20140413.2041)
 -->
<!-- Title: IG.Num.ScalarFunctionQuadratic Pages: 1 -->
<svg width="228pt" height="140pt"
 viewBox="0.00 0.00 227.50 140.00" xmlns="http://www.w3.org/2000/svg" xmlns:xlink="http://www.w3.org/1999/xlink">
<g id="graph0" class="graph" transform="scale(1 1) rotate(0) translate(4 136)">
<title>IG.Num.ScalarFunctionQuadratic</title>
<polygon fill="white" stroke="none" points="-4,4 -4,-136 223.5,-136 223.5,4 -4,4"/>
<!-- Node1 -->
<g id="node1" class="node"><title>Node1</title>
<g id="a_node1"><a xlink:title="Quadratic scalar function of vector variable. Function is evaluated according to q(x) = (1/2)*x^T*G*x...">
<polygon fill="#bfbfbf" stroke="black" points="0,-0.5 0,-19.5 160,-19.5 160,-0.5 0,-0.5"/>
<text text-anchor="middle" x="80" y="-7.5" font-family="Helvetica,sans-Serif" font-size="10.00">IG.Num.ScalarFunctionQuadratic</text>
</a>
</g>
</g>
<!-- Node2 -->
<g id="node2" class="node"><title>Node2</title>
<g id="a_node2"><a xlink:href="../../d2/d9e/classIG_1_1Num_1_1ScalarFunctionUntransformedBase.html" target="_top" xlink:title="Base class for defining scalar functions without possibility of affine transformation of parameters.">
<polygon fill="white" stroke="black" points="52.5,-56.5 52.5,-75.5 219.5,-75.5 219.5,-56.5 52.5,-56.5"/>
<text text-anchor="middle" x="136" y="-63.5" font-family="Helvetica,sans-Serif" font-size="10.00">ScalarFunctionUntransformedBase</text>
</a>
</g>
</g>
<!-- Node2&#45;&gt;Node1 -->
<g id="edge1" class="edge"><title>Node2&#45;&gt;Node1</title>
<path fill="none" stroke="midnightblue" d="M119.67,-49.2533C109.735,-39.6731 97.4125,-27.7906 89.1611,-19.8339"/>
<polygon fill="midnightblue" stroke="midnightblue" points="117.375,-51.902 127.003,-56.324 122.234,-46.8631 117.375,-51.902"/>
</g>
<!-- Node3 -->
<g id="node3" class="node"><title>Node3</title>
<g id="a_node3"><a xlink:href="../../d8/d56/interfaceIG_1_1Num_1_1IScalarFunctionUntransformed.html" target="_top" xlink:title="Scalar functions of vector arguments.">
<polygon fill="white" stroke="black" points="6.5,-112.5 6.5,-131.5 153.5,-131.5 153.5,-112.5 6.5,-112.5"/>
<text text-anchor="middle" x="80" y="-119.5" font-family="Helvetica,sans-Serif" font-size="10.00">IScalarFunctionUntransformed</text>
</a>
</g>
</g>
<!-- Node3&#45;&gt;Node1 -->
<g id="edge3" class="edge"><title>Node3&#45;&gt;Node1</title>
<path fill="none" stroke="midnightblue" d="M62.5998,-104.819C55.3665,-96.916 47.7852,-86.7906 44,-76 36.4849,-54.576 56.3187,-31.8874 69.4487,-19.7991"/>
<polygon fill="midnightblue" stroke="midnightblue" points="60.3326,-107.506 69.8379,-112.185 65.3256,-102.6 60.3326,-107.506"/>
</g>
<!-- Node3&#45;&gt;Node2 -->
<g id="edge2" class="edge"><title>Node3&#45;&gt;Node2</title>
<path fill="none" stroke="midnightblue" d="M96.3299,-105.253C106.265,-95.6731 118.588,-83.7906 126.839,-75.8339"/>
<polygon fill="midnightblue" stroke="midnightblue" points="93.7664,-102.863 88.9974,-112.324 98.6253,-107.902 93.7664,-102.863"/>
</g>
</g>
</svg>
