<?xml version="1.0" encoding="UTF-8" standalone="no"?>
<!DOCTYPE svg PUBLIC "-//W3C//DTD SVG 1.1//EN"
 "http://www.w3.org/Graphics/SVG/1.1/DTD/svg11.dtd">
<!-- Generated by graphviz version 2.38.0 (20140413.2041)
 -->
<!-- Title: IG.Num.OptimizationData Pages: 1 -->
<svg width="228pt" height="163pt"
 viewBox="0.00 0.00 227.50 163.00" xmlns="http://www.w3.org/2000/svg" xmlns:xlink="http://www.w3.org/1999/xlink">
<g id="graph0" class="graph" transform="scale(1 1) rotate(0) translate(4 159)">
<title>IG.Num.OptimizationData</title>
<polygon fill="white" stroke="none" points="-4,4 -4,-159 223.5,-159 223.5,4 -4,4"/>
<!-- Node1 -->
<g id="node1" class="node"><title>Node1</title>
<g id="a_node1"><a xlink:title="Information about optimization data and algorithm parameters.">
<polygon fill="#bfbfbf" stroke="black" points="42,-0.5 42,-19.5 170,-19.5 170,-0.5 42,-0.5"/>
<text text-anchor="middle" x="106" y="-7.5" font-family="Helvetica,sans-Serif" font-size="10.00">IG.Num.OptimizationData</text>
</a>
</g>
</g>
<!-- Node2 -->
<g id="node2" class="node"><title>Node2</title>
<g id="a_node2"><a xlink:href="../../d9/df6/classIG_1_1Num_1_1OptimizationDataBase.html" target="_top" xlink:title="Base class for holding information about optimization data and algorithm parameters.">
<polygon fill="white" stroke="black" points="49,-57.5 49,-76.5 163,-76.5 163,-57.5 49,-57.5"/>
<text text-anchor="middle" x="106" y="-64.5" font-family="Helvetica,sans-Serif" font-size="10.00">OptimizationDataBase</text>
</a>
</g>
</g>
<!-- Node2&#45;&gt;Node1 -->
<g id="edge1" class="edge"><title>Node2&#45;&gt;Node1</title>
<path fill="none" stroke="midnightblue" d="M106,-47.1166C106,-37.8173 106,-27.0557 106,-19.7149"/>
<polygon fill="midnightblue" stroke="midnightblue" points="102.5,-47.4062 106,-57.4063 109.5,-47.4063 102.5,-47.4062"/>
</g>
<!-- Node3 -->
<g id="node3" class="node"><title>Node3</title>
<g id="a_node3"><a xlink:href="../../dd/d7b/interfaceIG_1_1Num_1_1IOptimizationData.html" target="_top" xlink:title="Information about optimization data and algorithm parameters.">
<polygon fill="white" stroke="black" points="0,-135.5 0,-154.5 94,-154.5 94,-135.5 0,-135.5"/>
<text text-anchor="middle" x="47" y="-142.5" font-family="Helvetica,sans-Serif" font-size="10.00">IOptimizationData</text>
</a>
</g>
</g>
<!-- Node3&#45;&gt;Node2 -->
<g id="edge2" class="edge"><title>Node3&#45;&gt;Node2</title>
<path fill="none" stroke="midnightblue" d="M60.193,-127.006C72.3317,-111.369 89.8416,-88.8142 99.3109,-76.6165"/>
<polygon fill="midnightblue" stroke="midnightblue" points="57.1356,-125.236 53.7681,-135.282 62.665,-129.529 57.1356,-125.236"/>
</g>
<!-- Node4 -->
<g id="node4" class="node"><title>Node4</title>
<g id="a_node4"><a xlink:href="../../d3/d24/interfaceIG_1_1Num_1_1IVector.html" target="_top" xlink:title="Generic Vector interface">
<polygon fill="white" stroke="black" points="112.5,-135.5 112.5,-154.5 219.5,-154.5 219.5,-135.5 112.5,-135.5"/>
<text text-anchor="middle" x="166" y="-142.5" font-family="Helvetica,sans-Serif" font-size="10.00">IG.Num.IVector&lt; T &gt;</text>
</a>
</g>
</g>
<!-- Node4&#45;&gt;Node2 -->
<g id="edge3" class="edge"><title>Node4&#45;&gt;Node2</title>
<path fill="none" stroke="#9a32cd" stroke-dasharray="5,2" d="M152.583,-127.006C140.239,-111.369 122.432,-88.8142 112.802,-76.6165"/>
<polygon fill="#9a32cd" stroke="#9a32cd" points="150.174,-129.602 159.117,-135.282 155.668,-125.264 150.174,-129.602"/>
<text text-anchor="middle" x="174" y="-109" font-family="Helvetica,sans-Serif" font-size="10.00"> _initialGuess</text>
<text text-anchor="middle" x="174" y="-98" font-family="Helvetica,sans-Serif" font-size="10.00">_initialStep</text>
</g>
</g>
</svg>
