<?xml version="1.0" encoding="UTF-8" standalone="no"?>
<!DOCTYPE svg PUBLIC "-//W3C//DTD SVG 1.1//EN"
 "http://www.w3.org/Graphics/SVG/1.1/DTD/svg11.dtd">
<!-- Generated by graphviz version 2.38.0 (20140413.2041)
 -->
<!-- Title: IG.Lib.SettingsReaderBase Pages: 1 -->
<svg width="174pt" height="151pt"
 viewBox="0.00 0.00 173.50 151.00" xmlns="http://www.w3.org/2000/svg" xmlns:xlink="http://www.w3.org/1999/xlink">
<g id="graph0" class="graph" transform="scale(1 1) rotate(0) translate(4 147)">
<title>IG.Lib.SettingsReaderBase</title>
<polygon fill="white" stroke="none" points="-4,4 -4,-147 169.5,-147 169.5,4 -4,4"/>
<!-- Node1 -->
<g id="node1" class="node"><title>Node1</title>
<g id="a_node1"><a xlink:title=" ">
<polygon fill="#bfbfbf" stroke="black" points="23.5,-67.5 23.5,-86.5 157.5,-86.5 157.5,-67.5 23.5,-67.5"/>
<text text-anchor="middle" x="90.5" y="-74.5" font-family="Helvetica,sans-Serif" font-size="10.00">IG.Lib.SettingsReaderBase</text>
</a>
</g>
</g>
<!-- Node4 -->
<g id="node4" class="node"><title>Node4</title>
<g id="a_node4"><a xlink:href="../../df/d82/classIG_1_1Lib_1_1SettingsReaderAppConfig.html" target="_top" xlink:title="Provides functionality for retrieving settings from various sources such as application settings file...">
<polygon fill="white" stroke="black" points="26,-0.5 26,-30.5 155,-30.5 155,-0.5 26,-0.5"/>
<text text-anchor="start" x="34" y="-18.5" font-family="Helvetica,sans-Serif" font-size="10.00">IG.Lib.SettingsReaderApp</text>
<text text-anchor="middle" x="90.5" y="-7.5" font-family="Helvetica,sans-Serif" font-size="10.00">Config</text>
</a>
</g>
</g>
<!-- Node1&#45;&gt;Node4 -->
<g id="edge3" class="edge"><title>Node1&#45;&gt;Node4</title>
<path fill="none" stroke="midnightblue" d="M90.5,-57.2349C90.5,-48.5864 90.5,-38.4969 90.5,-30.523"/>
<polygon fill="midnightblue" stroke="midnightblue" points="87.0001,-57.4751 90.5,-67.4751 94.0001,-57.4751 87.0001,-57.4751"/>
</g>
<!-- Node2 -->
<g id="node2" class="node"><title>Node2</title>
<g id="a_node2"><a xlink:href="../../d9/df4/interfaceIG_1_1Lib_1_1ISettingsRreader.html" target="_top" xlink:title="Interface for settings readers, which read pairs key/vvalue from various files or configuration serve...">
<polygon fill="white" stroke="black" points="0,-123.5 0,-142.5 89,-142.5 89,-123.5 0,-123.5"/>
<text text-anchor="middle" x="44.5" y="-130.5" font-family="Helvetica,sans-Serif" font-size="10.00">ISettingsRreader</text>
</a>
</g>
</g>
<!-- Node2&#45;&gt;Node1 -->
<g id="edge1" class="edge"><title>Node2&#45;&gt;Node1</title>
<path fill="none" stroke="midnightblue" d="M58.614,-115.431C66.676,-105.967 76.4592,-94.4827 83.0454,-86.7511"/>
<polygon fill="midnightblue" stroke="midnightblue" points="55.9163,-113.201 52.096,-123.083 61.245,-117.74 55.9163,-113.201"/>
</g>
<!-- Node3 -->
<g id="node3" class="node"><title>Node3</title>
<g id="a_node3"><a xlink:href="../../d3/db6/interfaceIG_1_1Lib_1_1ILockable.html" target="_top" xlink:title="Lockable object, has a Lock property that returns object on which lock must be performed in order to ...">
<polygon fill="white" stroke="black" points="107.5,-123.5 107.5,-142.5 165.5,-142.5 165.5,-123.5 107.5,-123.5"/>
<text text-anchor="middle" x="136.5" y="-130.5" font-family="Helvetica,sans-Serif" font-size="10.00">ILockable</text>
</a>
</g>
</g>
<!-- Node3&#45;&gt;Node1 -->
<g id="edge2" class="edge"><title>Node3&#45;&gt;Node1</title>
<path fill="none" stroke="midnightblue" d="M122.386,-115.431C114.324,-105.967 104.541,-94.4827 97.9546,-86.7511"/>
<polygon fill="midnightblue" stroke="midnightblue" points="119.755,-117.74 128.904,-123.083 125.084,-113.201 119.755,-117.74"/>
</g>
</g>
</svg>
