<?xml version="1.0" encoding="UTF-8" standalone="no"?>
<!DOCTYPE svg PUBLIC "-//W3C//DTD SVG 1.1//EN"
 "http://www.w3.org/Graphics/SVG/1.1/DTD/svg11.dtd">
<!-- Generated by graphviz version 2.38.0 (20140413.2041)
 -->
<!-- Title: IG.Num.FieldCollection&lt; TField, TElement &gt; Pages: 1 -->
<svg width="293pt" height="88pt"
 viewBox="0.00 0.00 293.00 88.00" xmlns="http://www.w3.org/2000/svg" xmlns:xlink="http://www.w3.org/1999/xlink">
<g id="graph0" class="graph" transform="scale(1 1) rotate(0) translate(4 84)">
<title>IG.Num.FieldCollection&lt; TField, TElement &gt;</title>
<polygon fill="white" stroke="none" points="-4,4 -4,-84 289,-84 289,4 -4,4"/>
<!-- Node1 -->
<g id="node1" class="node"><title>Node1</title>
<g id="a_node1"><a xlink:title="Collection of fields of the same type. Fields are identified by their names.">
<polygon fill="#bfbfbf" stroke="black" points="0,-24.5 0,-54.5 116,-54.5 116,-24.5 0,-24.5"/>
<text text-anchor="start" x="8" y="-42.5" font-family="Helvetica,sans-Serif" font-size="10.00">IG.Num.FieldCollection</text>
<text text-anchor="middle" x="58" y="-31.5" font-family="Helvetica,sans-Serif" font-size="10.00">&lt; TField, TElement &gt;</text>
</a>
</g>
</g>
<!-- Node2 -->
<g id="node2" class="node"><title>Node2</title>
<g id="a_node2"><a xlink:href="../../da/d3d/classIG_1_1Num_1_1FieldCollection2d.html" target="_top" xlink:title="Collection of structured 2D fields of the same type. Fields are identified by their names.">
<polygon fill="white" stroke="black" points="152,-49.5 152,-79.5 285,-79.5 285,-49.5 152,-49.5"/>
<text text-anchor="start" x="160" y="-67.5" font-family="Helvetica,sans-Serif" font-size="10.00">IG::Num::FieldCollection2d</text>
<text text-anchor="middle" x="218.5" y="-56.5" font-family="Helvetica,sans-Serif" font-size="10.00">&lt; TField, TElement &gt;</text>
</a>
</g>
</g>
<!-- Node1&#45;&gt;Node2 -->
<g id="edge1" class="edge"><title>Node1&#45;&gt;Node2</title>
<path fill="none" stroke="midnightblue" d="M126.362,-50.1249C134.77,-51.4511 143.361,-52.8062 151.745,-54.1285"/>
<polygon fill="midnightblue" stroke="midnightblue" points="126.645,-46.6264 116.222,-48.5256 125.555,-53.5409 126.645,-46.6264"/>
</g>
<!-- Node3 -->
<g id="node3" class="node"><title>Node3</title>
<g id="a_node3"><a xlink:href="../../d2/dfe/classIG_1_1Num_1_1FieldCollection3d.html" target="_top" xlink:title="Collection of structured 3D fields of the same type. Fields are identified by their names.">
<polygon fill="white" stroke="black" points="152,-0.5 152,-30.5 285,-30.5 285,-0.5 152,-0.5"/>
<text text-anchor="start" x="160" y="-18.5" font-family="Helvetica,sans-Serif" font-size="10.00">IG::Num::FieldCollection3d</text>
<text text-anchor="middle" x="218.5" y="-7.5" font-family="Helvetica,sans-Serif" font-size="10.00">&lt; TField, TElement &gt;</text>
</a>
</g>
</g>
<!-- Node1&#45;&gt;Node3 -->
<g id="edge2" class="edge"><title>Node1&#45;&gt;Node3</title>
<path fill="none" stroke="midnightblue" d="M126.362,-29.3001C134.77,-28.0269 143.361,-26.7261 151.745,-25.4566"/>
<polygon fill="midnightblue" stroke="midnightblue" points="125.585,-25.8777 116.222,-30.8354 126.633,-32.7988 125.585,-25.8777"/>
</g>
</g>
</svg>
