<?xml version="1.0" encoding="UTF-8" standalone="no"?>
<!DOCTYPE svg PUBLIC "-//W3C//DTD SVG 1.1//EN"
 "http://www.w3.org/Graphics/SVG/1.1/DTD/svg11.dtd">
<!-- Generated by graphviz version 2.38.0 (20140413.2041)
 -->
<!-- Title: IG.Lib.IpcStreamServerBase Pages: 1 -->
<svg width="356pt" height="321pt"
 viewBox="0.00 0.00 355.50 321.00" xmlns="http://www.w3.org/2000/svg" xmlns:xlink="http://www.w3.org/1999/xlink">
<g id="graph0" class="graph" transform="scale(1 1) rotate(0) translate(4 317)">
<title>IG.Lib.IpcStreamServerBase</title>
<polygon fill="white" stroke="none" points="-4,4 -4,-317 351.5,-317 351.5,4 -4,4"/>
<!-- Node1 -->
<g id="node1" class="node"><title>Node1</title>
<g id="a_node1"><a xlink:title="Server that creates a named pipe, listens on its input stream, and sends responses to the client.">
<polygon fill="#bfbfbf" stroke="black" points="0,-0.5 0,-19.5 139,-19.5 139,-0.5 0,-0.5"/>
<text text-anchor="middle" x="69.5" y="-7.5" font-family="Helvetica,sans-Serif" font-size="10.00">IG.Lib.IpcStreamServerBase</text>
</a>
</g>
</g>
<!-- Node2 -->
<g id="node2" class="node"><title>Node2</title>
<g id="a_node2"><a xlink:href="../../da/d2c/classIG_1_1Lib_1_1IpcStreamClientServerBase2.html" target="_top" xlink:title="Base class for named pipe servers and clients, contains common stuff for both.">
<polygon fill="white" stroke="black" points="80.5,-57.5 80.5,-76.5 220.5,-76.5 220.5,-57.5 80.5,-57.5"/>
<text text-anchor="middle" x="150.5" y="-64.5" font-family="Helvetica,sans-Serif" font-size="10.00">IpcStreamClientServerBase2</text>
</a>
</g>
</g>
<!-- Node2&#45;&gt;Node1 -->
<g id="edge1" class="edge"><title>Node2&#45;&gt;Node1</title>
<path fill="none" stroke="midnightblue" d="M129.2,-51.537C114.203,-41.3539 94.6362,-28.0678 82.0674,-19.5334"/>
<polygon fill="midnightblue" stroke="midnightblue" points="127.605,-54.6843 137.844,-57.4063 131.537,-48.8931 127.605,-54.6843"/>
</g>
<!-- Node3 -->
<g id="node3" class="node"><title>Node3</title>
<g id="a_node3"><a xlink:href="../../d5/dd9/classIG_1_1Lib_1_1IpcStreamClientServerBase.html" target="_top" xlink:title="Base class for client and server classes with stream&#45;based communication.">
<polygon fill="white" stroke="black" points="101,-115.5 101,-134.5 236,-134.5 236,-115.5 101,-115.5"/>
<text text-anchor="middle" x="168.5" y="-122.5" font-family="Helvetica,sans-Serif" font-size="10.00">IpcStreamClientServerBase</text>
</a>
</g>
</g>
<!-- Node3&#45;&gt;Node2 -->
<g id="edge2" class="edge"><title>Node3&#45;&gt;Node2</title>
<path fill="none" stroke="midnightblue" d="M162.58,-105.581C159.429,-95.7787 155.705,-84.1948 153.234,-76.5052"/>
<polygon fill="midnightblue" stroke="midnightblue" points="159.295,-106.801 165.688,-115.25 165.959,-104.659 159.295,-106.801"/>
</g>
<!-- Node4 -->
<g id="node4" class="node"><title>Node4</title>
<g id="a_node4"><a xlink:href="../../d3/db6/interfaceIG_1_1Lib_1_1ILockable.html" target="_top" xlink:title="Lockable object, has a Lock property that returns object on which lock must be performed in order to ...">
<polygon fill="white" stroke="black" points="43.5,-293.5 43.5,-312.5 101.5,-312.5 101.5,-293.5 43.5,-293.5"/>
<text text-anchor="middle" x="72.5" y="-300.5" font-family="Helvetica,sans-Serif" font-size="10.00">ILockable</text>
</a>
</g>
</g>
<!-- Node4&#45;&gt;Node1 -->
<g id="edge7" class="edge"><title>Node4&#45;&gt;Node1</title>
<path fill="none" stroke="midnightblue" d="M64.7253,-283.651C63.8045,-280.8 63.0115,-277.854 62.5,-275 44.7852,-176.165 62.5021,-53.2282 67.9934,-19.7564"/>
<polygon fill="midnightblue" stroke="midnightblue" points="61.5346,-285.109 68.3466,-293.223 68.0817,-282.632 61.5346,-285.109"/>
</g>
<!-- Node4&#45;&gt;Node2 -->
<g id="edge5" class="edge"><title>Node4&#45;&gt;Node2</title>
<path fill="none" stroke="midnightblue" d="M69.6551,-283.043C65.2744,-247.352 60.3538,-168.846 91.5,-114 101.057,-97.1715 119.476,-84.3494 133.203,-76.5709"/>
<polygon fill="midnightblue" stroke="midnightblue" points="66.2494,-283.973 71.0671,-293.409 73.1853,-283.028 66.2494,-283.973"/>
</g>
<!-- Node4&#45;&gt;Node3 -->
<g id="edge3" class="edge"><title>Node4&#45;&gt;Node3</title>
<path fill="none" stroke="midnightblue" d="M82.1117,-284.124C83.6356,-281.105 85.1519,-277.983 86.5,-275 110.257,-222.426 99.3585,-200.505 133.5,-154 139.118,-146.347 147.33,-139.629 154.388,-134.693"/>
<polygon fill="midnightblue" stroke="midnightblue" points="78.9405,-282.635 77.4126,-293.119 85.145,-285.876 78.9405,-282.635"/>
</g>
<!-- Node5 -->
<g id="node5" class="node"><title>Node5</title>
<g id="a_node5"><a xlink:title=" ">
<polygon fill="white" stroke="#bfbfbf" points="134,-293.5 134,-312.5 175,-312.5 175,-293.5 134,-293.5"/>
<text text-anchor="middle" x="154.5" y="-300.5" font-family="Helvetica,sans-Serif" font-size="10.00">static</text>
</a>
</g>
</g>
<!-- Node5&#45;&gt;Node2 -->
<g id="edge6" class="edge"><title>Node5&#45;&gt;Node2</title>
<path fill="none" stroke="#9a32cd" stroke-dasharray="5,2" d="M184.973,-298.934C214.863,-295.222 257.384,-287.818 267.5,-275 312.28,-218.26 297.288,-163.378 244.5,-114 225.526,-96.2516 198.419,-83.9782 178.185,-76.6013"/>
<polygon fill="#9a32cd" stroke="#9a32cd" points="184.53,-295.462 175.002,-300.095 185.34,-302.415 184.53,-295.462"/>
<text text-anchor="middle" x="306.5" y="-128" font-family="Helvetica,sans-Serif" font-size="10.00"> _defaultPipeName</text>
<text text-anchor="middle" x="306.5" y="-117" font-family="Helvetica,sans-Serif" font-size="10.00">_defaultErrorBegin</text>
</g>
<!-- Node5&#45;&gt;Node3 -->
<g id="edge4" class="edge"><title>Node5&#45;&gt;Node3</title>
<path fill="none" stroke="#9a32cd" stroke-dasharray="5,2" d="M148.276,-283.566C147.54,-280.727 146.907,-277.806 146.5,-275 138.781,-221.779 128.922,-204.824 146.5,-154 149.006,-146.755 154.246,-139.96 158.983,-134.878"/>
<polygon fill="#9a32cd" stroke="#9a32cd" points="144.928,-284.586 151.174,-293.145 151.628,-282.56 144.928,-284.586"/>
<text text-anchor="middle" x="207" y="-267" font-family="Helvetica,sans-Serif" font-size="10.00"> _defaultMsgTestSpeed</text>
<text text-anchor="middle" x="207" y="-256" font-family="Helvetica,sans-Serif" font-size="10.00">_defaultStopRequest</text>
<text text-anchor="middle" x="207" y="-245" font-family="Helvetica,sans-Serif" font-size="10.00">_defaultMessagePrefix</text>
<text text-anchor="middle" x="207" y="-234" font-family="Helvetica,sans-Serif" font-size="10.00">_defaultMsgRequestBegin</text>
<text text-anchor="middle" x="207" y="-223" font-family="Helvetica,sans-Serif" font-size="10.00">_defaultMsgRequestEnd</text>
<text text-anchor="middle" x="207" y="-212" font-family="Helvetica,sans-Serif" font-size="10.00">_defaultMessageSeparator</text>
<text text-anchor="middle" x="207" y="-201" font-family="Helvetica,sans-Serif" font-size="10.00">_defaultStoppedResponse</text>
<text text-anchor="middle" x="207" y="-190" font-family="Helvetica,sans-Serif" font-size="10.00">_defaultMsgResponseEnd</text>
<text text-anchor="middle" x="207" y="-179" font-family="Helvetica,sans-Serif" font-size="10.00">_defaultIsMultilineResponse</text>
<text text-anchor="middle" x="207" y="-168" font-family="Helvetica,sans-Serif" font-size="10.00">_defaultMsgResponseBegin</text>
<text text-anchor="middle" x="207" y="-157" font-family="Helvetica,sans-Serif" font-size="10.00">...</text>
</g>
</g>
</svg>
