<?xml version="1.0" encoding="UTF-8" standalone="no"?>
<!DOCTYPE svg PUBLIC "-//W3C//DTD SVG 1.1//EN"
 "http://www.w3.org/Graphics/SVG/1.1/DTD/svg11.dtd">
<!-- Generated by graphviz version 2.38.0 (20140413.2041)
 -->
<!-- Title: IG.Num.ScalarFunctionResults Pages: 1 -->
<svg width="409pt" height="117pt"
 viewBox="0.00 0.00 409.00 117.00" xmlns="http://www.w3.org/2000/svg" xmlns:xlink="http://www.w3.org/1999/xlink">
<g id="graph0" class="graph" transform="scale(1 1) rotate(0) translate(4 113)">
<title>IG.Num.ScalarFunctionResults</title>
<polygon fill="white" stroke="none" points="-4,4 -4,-113 405,-113 405,4 -4,4"/>
<!-- Node1 -->
<g id="node1" class="node"><title>Node1</title>
<g id="a_node1"><a xlink:title="Storage for results of a scalar function. Includes parameters at which function was (or should be) ev...">
<polygon fill="#bfbfbf" stroke="black" points="130,-0.5 130,-19.5 281,-19.5 281,-0.5 130,-0.5"/>
<text text-anchor="middle" x="205.5" y="-7.5" font-family="Helvetica,sans-Serif" font-size="10.00">IG.Num.ScalarFunctionResults</text>
</a>
</g>
</g>
<!-- Node2 -->
<g id="node2" class="node"><title>Node2</title>
<g id="a_node2"><a xlink:href="../../dc/d24/interfaceIG_1_1Num_1_1IScalarFunctionResults.html" target="_top" xlink:title="Storage for results of a scalar function. Includes parameters at which function was (or should be) ev...">
<polygon fill="white" stroke="black" points="0,-84 0,-103 117,-103 117,-84 0,-84"/>
<text text-anchor="middle" x="58.5" y="-91" font-family="Helvetica,sans-Serif" font-size="10.00">IScalarFunctionResults</text>
</a>
</g>
</g>
<!-- Node2&#45;&gt;Node1 -->
<g id="edge1" class="edge"><title>Node2&#45;&gt;Node1</title>
<path fill="none" stroke="midnightblue" d="M83.0383,-78.8954C113.412,-62.0558 164.246,-33.8722 189.811,-19.6984"/>
<polygon fill="midnightblue" stroke="midnightblue" points="81.0024,-76.0222 73.9537,-83.9321 84.3966,-82.1442 81.0024,-76.0222"/>
</g>
<!-- Node3 -->
<g id="node3" class="node"><title>Node3</title>
<g id="a_node3"><a xlink:href="../../d8/d86/interfaceIG_1_1Num_1_1IMatrix.html" target="_top" xlink:title="Generic Matrix interface.">
<polygon fill="white" stroke="black" points="135.5,-78.5 135.5,-108.5 275.5,-108.5 275.5,-78.5 135.5,-78.5"/>
<text text-anchor="start" x="143.5" y="-96.5" font-family="Helvetica,sans-Serif" font-size="10.00">IG.Num.IMatrix&lt; Component</text>
<text text-anchor="middle" x="205.5" y="-85.5" font-family="Helvetica,sans-Serif" font-size="10.00">Type &gt;</text>
</a>
</g>
</g>
<!-- Node3&#45;&gt;Node1 -->
<g id="edge2" class="edge"><title>Node3&#45;&gt;Node1</title>
<path fill="none" stroke="#9a32cd" stroke-dasharray="5,2" d="M205.5,-68.2485C205.5,-51.781 205.5,-30.9886 205.5,-19.5391"/>
<polygon fill="#9a32cd" stroke="#9a32cd" points="202,-68.3037 205.5,-78.3038 209,-68.3038 202,-68.3037"/>
<text text-anchor="middle" x="227.5" y="-46.5" font-family="Helvetica,sans-Serif" font-size="10.00"> _Hessian</text>
</g>
<!-- Node4 -->
<g id="node4" class="node"><title>Node4</title>
<g id="a_node4"><a xlink:href="../../d3/d24/interfaceIG_1_1Num_1_1IVector.html" target="_top" xlink:title="Generic Vector interface">
<polygon fill="white" stroke="black" points="294,-84 294,-103 401,-103 401,-84 294,-84"/>
<text text-anchor="middle" x="347.5" y="-91" font-family="Helvetica,sans-Serif" font-size="10.00">IG.Num.IVector&lt; T &gt;</text>
</a>
</g>
</g>
<!-- Node4&#45;&gt;Node1 -->
<g id="edge3" class="edge"><title>Node4&#45;&gt;Node1</title>
<path fill="none" stroke="#9a32cd" stroke-dasharray="5,2" d="M324.039,-78.784C305.052,-67.7115 277.603,-51.7654 253.5,-38 242.707,-31.8358 230.497,-24.9695 221.093,-19.7038"/>
<polygon fill="#9a32cd" stroke="#9a32cd" points="322.479,-81.9264 332.88,-83.9447 326.008,-75.8809 322.479,-81.9264"/>
<text text-anchor="middle" x="318" y="-52" font-family="Helvetica,sans-Serif" font-size="10.00"> _Gradient</text>
<text text-anchor="middle" x="318" y="-41" font-family="Helvetica,sans-Serif" font-size="10.00">_parameters</text>
</g>
</g>
</svg>
