<?xml version="1.0" encoding="UTF-8" standalone="no"?>
<!DOCTYPE svg PUBLIC "-//W3C//DTD SVG 1.1//EN"
 "http://www.w3.org/Graphics/SVG/1.1/DTD/svg11.dtd">
<!-- Generated by graphviz version 2.38.0 (20140413.2041)
 -->
<!-- Title: IG.Lib.WaitFileCreation Pages: 1 -->
<svg width="217pt" height="308pt"
 viewBox="0.00 0.00 217.10 308.00" xmlns="http://www.w3.org/2000/svg" xmlns:xlink="http://www.w3.org/1999/xlink">
<g id="graph0" class="graph" transform="scale(1 1) rotate(0) translate(4 304)">
<title>IG.Lib.WaitFileCreation</title>
<polygon fill="white" stroke="none" points="-4,4 -4,-304 213.098,-304 213.098,4 -4,4"/>
<!-- Node1 -->
<g id="node1" class="node"><title>Node1</title>
<g id="a_node1"><a xlink:title="Blocking execution of the current thread until the specified file begins to exist.">
<polygon fill="#bfbfbf" stroke="black" points="3.09828,-0.5 3.09828,-19.5 120.098,-19.5 120.098,-0.5 3.09828,-0.5"/>
<text text-anchor="middle" x="61.5983" y="-7.5" font-family="Helvetica,sans-Serif" font-size="10.00">IG.Lib.WaitFileCreation</text>
</a>
</g>
</g>
<!-- Node2 -->
<g id="node2" class="node"><title>Node2</title>
<g id="a_node2"><a xlink:href="../../d2/ddf/classIG_1_1Lib_1_1WaitFileEvent.html" target="_top" xlink:title="Concrete class derived from WaitFileEventBase. It does not have a meaningful unblocking condition (it...">
<polygon fill="white" stroke="black" points="23.0983,-56.5 23.0983,-75.5 100.098,-75.5 100.098,-56.5 23.0983,-56.5"/>
<text text-anchor="middle" x="61.5983" y="-63.5" font-family="Helvetica,sans-Serif" font-size="10.00">WaitFileEvent</text>
</a>
</g>
</g>
<!-- Node2&#45;&gt;Node1 -->
<g id="edge1" class="edge"><title>Node2&#45;&gt;Node1</title>
<path fill="none" stroke="midnightblue" d="M61.5983,-45.8045C61.5983,-36.9102 61.5983,-26.7798 61.5983,-19.7511"/>
<polygon fill="midnightblue" stroke="midnightblue" points="58.0984,-46.083 61.5983,-56.083 65.0984,-46.083 58.0984,-46.083"/>
</g>
<!-- Node3 -->
<g id="node3" class="node"><title>Node3</title>
<g id="a_node3"><a xlink:href="../../d5/d42/classIG_1_1Lib_1_1WaitFileEventBase.html" target="_top" xlink:title="Base class for classes that provide blocking until a file or directory is created/removed.">
<polygon fill="white" stroke="black" points="12.0983,-112.5 12.0983,-131.5 111.098,-131.5 111.098,-112.5 12.0983,-112.5"/>
<text text-anchor="middle" x="61.5983" y="-119.5" font-family="Helvetica,sans-Serif" font-size="10.00">WaitFileEventBase</text>
</a>
</g>
</g>
<!-- Node3&#45;&gt;Node2 -->
<g id="edge2" class="edge"><title>Node3&#45;&gt;Node2</title>
<path fill="none" stroke="midnightblue" d="M61.5983,-101.805C61.5983,-92.9102 61.5983,-82.7798 61.5983,-75.7511"/>
<polygon fill="midnightblue" stroke="midnightblue" points="58.0984,-102.083 61.5983,-112.083 65.0984,-102.083 58.0984,-102.083"/>
</g>
<!-- Node4 -->
<g id="node4" class="node"><title>Node4</title>
<g id="a_node4"><a xlink:href="../../df/dea/classIG_1_1Lib_1_1WaitConditionBase.html" target="_top" xlink:title="Base class for objects that perform waiting until a condition is fulfilled.">
<polygon fill="white" stroke="black" points="11.5983,-168.5 11.5983,-187.5 111.598,-187.5 111.598,-168.5 11.5983,-168.5"/>
<text text-anchor="middle" x="61.5983" y="-175.5" font-family="Helvetica,sans-Serif" font-size="10.00">WaitConditionBase</text>
</a>
</g>
</g>
<!-- Node4&#45;&gt;Node3 -->
<g id="edge3" class="edge"><title>Node4&#45;&gt;Node3</title>
<path fill="none" stroke="midnightblue" d="M61.5983,-157.805C61.5983,-148.91 61.5983,-138.78 61.5983,-131.751"/>
<polygon fill="midnightblue" stroke="midnightblue" points="58.0984,-158.083 61.5983,-168.083 65.0984,-158.083 58.0984,-158.083"/>
</g>
<!-- Node5 -->
<g id="node5" class="node"><title>Node5</title>
<g id="a_node5"><a xlink:href="../../de/d1e/interfaceIG_1_1Lib_1_1IWaitCondition.html" target="_top" xlink:title="Interface for classes that implement blocking until a specified condition is met.">
<polygon fill="white" stroke="black" points="61.5983,-224.5 61.5983,-243.5 141.598,-243.5 141.598,-224.5 61.5983,-224.5"/>
<text text-anchor="middle" x="101.598" y="-231.5" font-family="Helvetica,sans-Serif" font-size="10.00">IWaitCondition</text>
</a>
</g>
</g>
<!-- Node5&#45;&gt;Node4 -->
<g id="edge4" class="edge"><title>Node5&#45;&gt;Node4</title>
<path fill="none" stroke="midnightblue" d="M88.8986,-215.855C81.9722,-206.505 73.692,-195.327 68.0806,-187.751"/>
<polygon fill="midnightblue" stroke="midnightblue" points="86.2283,-218.131 94.9931,-224.083 91.8532,-213.964 86.2283,-218.131"/>
</g>
<!-- Node7 -->
<g id="node7" class="node"><title>Node7</title>
<g id="a_node7"><a xlink:href="../../d2/d48/interfaceIG_1_1Lib_1_1IWaitFileEvent.html" target="_top" xlink:title="Interface for classes that provide waiting for specific file events (such as ceration or deletion of ...">
<polygon fill="white" stroke="black" points="130.098,-168.5 130.098,-187.5 209.098,-187.5 209.098,-168.5 130.098,-168.5"/>
<text text-anchor="middle" x="169.598" y="-175.5" font-family="Helvetica,sans-Serif" font-size="10.00">IWaitFileEvent</text>
</a>
</g>
</g>
<!-- Node5&#45;&gt;Node7 -->
<g id="edge8" class="edge"><title>Node5&#45;&gt;Node7</title>
<path fill="none" stroke="midnightblue" d="M120.36,-218.101C132.598,-208.382 148.157,-196.027 158.474,-187.834"/>
<polygon fill="midnightblue" stroke="midnightblue" points="118.178,-215.364 112.524,-224.324 122.531,-220.846 118.178,-215.364"/>
</g>
<!-- Node6 -->
<g id="node6" class="node"><title>Node6</title>
<g id="a_node6"><a xlink:href="../../d3/db6/interfaceIG_1_1Lib_1_1ILockable.html" target="_top" xlink:title="Lockable object, has a Lock property that returns object on which lock must be performed in order to ...">
<polygon fill="white" stroke="black" points="38.5983,-280.5 38.5983,-299.5 96.5983,-299.5 96.5983,-280.5 38.5983,-280.5"/>
<text text-anchor="middle" x="67.5983" y="-287.5" font-family="Helvetica,sans-Serif" font-size="10.00">ILockable</text>
</a>
</g>
</g>
<!-- Node6&#45;&gt;Node3 -->
<g id="edge10" class="edge"><title>Node6&#45;&gt;Node3</title>
<path fill="none" stroke="midnightblue" d="M52.9097,-272.811C36.9406,-254.014 12.3903,-221.309 2.59828,-188 0.0912669,-179.472 -1.34477,-175.966 2.59828,-168 10.8844,-151.259 28.712,-139.046 42.6141,-131.602"/>
<polygon fill="midnightblue" stroke="midnightblue" points="50.3437,-275.194 59.5592,-280.421 55.6148,-270.588 50.3437,-275.194"/>
</g>
<!-- Node6&#45;&gt;Node4 -->
<g id="edge6" class="edge"><title>Node6&#45;&gt;Node4</title>
<path fill="none" stroke="midnightblue" d="M60.0421,-270.782C57.0906,-262.725 54.0658,-253.043 52.5983,-244 49.35,-223.983 54.97,-200.378 58.6962,-187.851"/>
<polygon fill="midnightblue" stroke="midnightblue" points="56.8419,-272.209 63.7426,-280.249 63.3614,-269.661 56.8419,-272.209"/>
</g>
<!-- Node6&#45;&gt;Node5 -->
<g id="edge5" class="edge"><title>Node6&#45;&gt;Node5</title>
<path fill="none" stroke="midnightblue" d="M78.5755,-271.566C84.4253,-262.275 91.3678,-251.248 96.0883,-243.751"/>
<polygon fill="midnightblue" stroke="midnightblue" points="75.579,-269.756 73.2127,-280.083 81.5027,-273.486 75.579,-269.756"/>
</g>
<!-- Node6&#45;&gt;Node7 -->
<g id="edge9" class="edge"><title>Node6&#45;&gt;Node7</title>
<path fill="none" stroke="midnightblue" d="M104.471,-276.499C120.693,-269.303 138.72,-258.713 150.598,-244 164.187,-227.168 168.057,-200.953 169.16,-187.538"/>
<polygon fill="midnightblue" stroke="midnightblue" points="103.084,-273.285 95.1882,-280.35 105.766,-279.751 103.084,-273.285"/>
</g>
<!-- Node7&#45;&gt;Node3 -->
<g id="edge7" class="edge"><title>Node7&#45;&gt;Node3</title>
<path fill="none" stroke="midnightblue" d="M143.05,-163.726C123.052,-153.727 96.2113,-140.307 78.9073,-131.655"/>
<polygon fill="midnightblue" stroke="midnightblue" points="141.737,-166.982 152.246,-168.324 144.867,-160.721 141.737,-166.982"/>
</g>
</g>
</svg>
