<?xml version="1.0" encoding="UTF-8" standalone="no"?>
<!DOCTYPE svg PUBLIC "-//W3C//DTD SVG 1.1//EN"
 "http://www.w3.org/Graphics/SVG/1.1/DTD/svg11.dtd">
<!-- Generated by graphviz version 2.38.0 (20140413.2041)
 -->
<!-- Title: IG.Num.Func3d2dExamples.HyperbolicParaboloid Pages: 1 -->
<svg width="289pt" height="319pt"
 viewBox="0.00 0.00 288.50 319.00" xmlns="http://www.w3.org/2000/svg" xmlns:xlink="http://www.w3.org/1999/xlink">
<g id="graph0" class="graph" transform="scale(1 1) rotate(0) translate(4 315)">
<title>IG.Num.Func3d2dExamples.HyperbolicParaboloid</title>
<polygon fill="white" stroke="none" points="-4,4 -4,-315 284.5,-315 284.5,4 -4,4"/>
<!-- Node1 -->
<g id="node1" class="node"><title>Node1</title>
<g id="a_node1"><a xlink:title="Surface that is a graph of the function z/c=x^2/a^2&#45;y^2/b^2.">
<polygon fill="#bfbfbf" stroke="black" points="0,-0.5 0,-30.5 142,-30.5 142,-0.5 0,-0.5"/>
<text text-anchor="start" x="8" y="-18.5" font-family="Helvetica,sans-Serif" font-size="10.00">IG.Num.Func3d2dExamples.</text>
<text text-anchor="middle" x="71" y="-7.5" font-family="Helvetica,sans-Serif" font-size="10.00">HyperbolicParaboloid</text>
</a>
</g>
</g>
<!-- Node2 -->
<g id="node2" class="node"><title>Node2</title>
<g id="a_node2"><a xlink:href="../../dc/d0f/classIG_1_1Num_1_1Func3d2dExamples_1_1Surface.html" target="_top" xlink:title="Base class for easy definition of surfaces defined through a function of 2 variables.">
<polygon fill="white" stroke="black" points="73,-67.5 73,-86.5 123,-86.5 123,-67.5 73,-67.5"/>
<text text-anchor="middle" x="98" y="-74.5" font-family="Helvetica,sans-Serif" font-size="10.00">Surface</text>
</a>
</g>
</g>
<!-- Node2&#45;&gt;Node1 -->
<g id="edge1" class="edge"><title>Node2&#45;&gt;Node1</title>
<path fill="none" stroke="midnightblue" d="M89.8793,-58.1045C85.87,-49.269 81.1037,-38.7657 77.3634,-30.523"/>
<polygon fill="midnightblue" stroke="midnightblue" points="86.812,-59.8151 94.1316,-67.4751 93.1864,-56.9225 86.812,-59.8151"/>
</g>
<!-- Node3 -->
<g id="node3" class="node"><title>Node3</title>
<g id="a_node3"><a xlink:href="../../d0/d54/classIG_1_1Num_1_1Func3d2dExamples_1_1ParametricSurface.html" target="_top" xlink:title="Base class for easy definition of parametric surfaces intended for plotting.">
<polygon fill="white" stroke="black" points="111.5,-123.5 111.5,-142.5 208.5,-142.5 208.5,-123.5 111.5,-123.5"/>
<text text-anchor="middle" x="160" y="-130.5" font-family="Helvetica,sans-Serif" font-size="10.00">ParametricSurface</text>
</a>
</g>
</g>
<!-- Node3&#45;&gt;Node2 -->
<g id="edge2" class="edge"><title>Node3&#45;&gt;Node2</title>
<path fill="none" stroke="midnightblue" d="M142.246,-116.537C131.192,-106.909 117.369,-94.8694 108.143,-86.8339"/>
<polygon fill="midnightblue" stroke="midnightblue" points="140.199,-119.395 150.039,-123.324 144.797,-114.117 140.199,-119.395"/>
</g>
<!-- Node4 -->
<g id="node4" class="node"><title>Node4</title>
<g id="a_node4"><a xlink:href="../../d3/dc0/classIG_1_1Num_1_1Func3d2dBaseNoGradient.html" target="_top" xlink:title="Base class for 3D vector functions of 2 variables (implementations of the IFunc3d2d interface) that d...">
<polygon fill="white" stroke="black" points="149.5,-179.5 149.5,-198.5 280.5,-198.5 280.5,-179.5 149.5,-179.5"/>
<text text-anchor="middle" x="215" y="-186.5" font-family="Helvetica,sans-Serif" font-size="10.00">Func3d2dBaseNoGradient</text>
</a>
</g>
</g>
<!-- Node4&#45;&gt;Node3 -->
<g id="edge3" class="edge"><title>Node4&#45;&gt;Node3</title>
<path fill="none" stroke="midnightblue" d="M198.706,-172.002C188.959,-162.433 176.947,-150.639 168.913,-142.751"/>
<polygon fill="midnightblue" stroke="midnightblue" points="196.33,-174.575 205.918,-179.083 201.234,-169.58 196.33,-174.575"/>
</g>
<!-- Node5 -->
<g id="node5" class="node"><title>Node5</title>
<g id="a_node5"><a xlink:href="../../df/d0e/classIG_1_1Num_1_1Func3d2dBase.html" target="_top" xlink:title="Base class for 3D vector functions of 2 variables (base for implementation of IFunc3d2d interface).">
<polygon fill="white" stroke="black" points="187,-235.5 187,-254.5 269,-254.5 269,-235.5 187,-235.5"/>
<text text-anchor="middle" x="228" y="-242.5" font-family="Helvetica,sans-Serif" font-size="10.00">Func3d2dBase</text>
</a>
</g>
</g>
<!-- Node5&#45;&gt;Node4 -->
<g id="edge4" class="edge"><title>Node5&#45;&gt;Node4</title>
<path fill="none" stroke="midnightblue" d="M223.45,-225.101C221.292,-216.136 218.818,-205.858 217.107,-198.751"/>
<polygon fill="midnightblue" stroke="midnightblue" points="220.11,-226.18 225.853,-235.083 226.915,-224.542 220.11,-226.18"/>
</g>
<!-- Node6 -->
<g id="node6" class="node"><title>Node6</title>
<g id="a_node6"><a xlink:href="../../d3/d6f/interfaceIG_1_1Num_1_1IFunc3d2d.html" target="_top" xlink:title="Represents 3D vector functions of 2 variables.">
<polygon fill="white" stroke="black" points="90,-291.5 90,-310.5 152,-310.5 152,-291.5 90,-291.5"/>
<text text-anchor="middle" x="121" y="-298.5" font-family="Helvetica,sans-Serif" font-size="10.00">IFunc3d2d</text>
</a>
</g>
</g>
<!-- Node6&#45;&gt;Node1 -->
<g id="edge9" class="edge"><title>Node6&#45;&gt;Node1</title>
<path fill="none" stroke="midnightblue" d="M101.482,-284.846C78.9641,-265.496 45,-229.724 45,-190 45,-190 45,-190 45,-132 45,-94.7975 57.9972,-52.464 65.6128,-30.8523"/>
<polygon fill="midnightblue" stroke="midnightblue" points="99.518,-287.764 109.457,-291.433 103.976,-282.366 99.518,-287.764"/>
</g>
<!-- Node6&#45;&gt;Node2 -->
<g id="edge8" class="edge"><title>Node6&#45;&gt;Node2</title>
<path fill="none" stroke="midnightblue" d="M118.342,-281.063C114.29,-251.598 106.557,-192.966 102,-143 100.172,-122.958 98.9524,-99.3623 98.3787,-86.8439"/>
<polygon fill="midnightblue" stroke="midnightblue" points="114.903,-281.743 119.746,-291.167 121.836,-280.78 114.903,-281.743"/>
</g>
<!-- Node6&#45;&gt;Node3 -->
<g id="edge7" class="edge"><title>Node6&#45;&gt;Node3</title>
<path fill="none" stroke="midnightblue" d="M122.423,-281.105C124.586,-257.005 129.603,-214.229 140,-179 143.872,-165.88 150.717,-151.582 155.305,-142.703"/>
<polygon fill="midnightblue" stroke="midnightblue" points="118.914,-281.067 121.579,-291.321 125.89,-281.643 118.914,-281.067"/>
</g>
<!-- Node6&#45;&gt;Node4 -->
<g id="edge6" class="edge"><title>Node6&#45;&gt;Node4</title>
<path fill="none" stroke="midnightblue" d="M135.027,-283.586C155.292,-259.871 192.039,-216.869 207.658,-198.591"/>
<polygon fill="midnightblue" stroke="midnightblue" points="132.212,-281.492 128.376,-291.368 137.533,-286.04 132.212,-281.492"/>
</g>
<!-- Node6&#45;&gt;Node5 -->
<g id="edge5" class="edge"><title>Node6&#45;&gt;Node5</title>
<path fill="none" stroke="midnightblue" d="M147.302,-286.726C167.115,-276.727 193.707,-263.307 210.851,-254.655"/>
<polygon fill="midnightblue" stroke="midnightblue" points="145.542,-283.694 138.191,-291.324 148.696,-289.943 145.542,-283.694"/>
</g>
</g>
</svg>
