<?xml version="1.0" encoding="UTF-8" standalone="no"?>
<!DOCTYPE svg PUBLIC "-//W3C//DTD SVG 1.1//EN"
 "http://www.w3.org/Graphics/SVG/1.1/DTD/svg11.dtd">
<!-- Generated by graphviz version 2.38.0 (20140413.2041)
 -->
<!-- Title: IGLib.Core.BasicTypeConverter Pages: 1 -->
<svg width="160pt" height="218pt"
 viewBox="0.00 0.00 160.00 218.00" xmlns="http://www.w3.org/2000/svg" xmlns:xlink="http://www.w3.org/1999/xlink">
<g id="graph0" class="graph" transform="scale(1 1) rotate(0) translate(4 214)">
<title>IGLib.Core.BasicTypeConverter</title>
<polygon fill="white" stroke="none" points="-4,4 -4,-214 156,-214 156,4 -4,4"/>
<!-- Node1 -->
<g id="node1" class="node"><title>Node1</title>
<g id="a_node1"><a xlink:title="Provides basic type conversion functionality using IConvertible and nullable handling.">
<polygon fill="#bfbfbf" stroke="black" points="0,-134.5 0,-153.5 152,-153.5 152,-134.5 0,-134.5"/>
<text text-anchor="middle" x="76" y="-141.5" font-family="Helvetica,sans-Serif" font-size="10.00">IGLib.Core.BasicTypeConverter</text>
</a>
</g>
</g>
<!-- Node3 -->
<g id="node3" class="node"><title>Node3</title>
<g id="a_node3"><a xlink:href="../../d3/d3d/classIGLib_1_1Core_1_1CollectionTypeConverter.html" target="_top" xlink:title="A type converter that supports conversion between basic types and a wide range of collection types,...">
<polygon fill="white" stroke="black" points="11.5,-67.5 11.5,-97.5 140.5,-97.5 140.5,-67.5 11.5,-67.5"/>
<text text-anchor="start" x="19.5" y="-85.5" font-family="Helvetica,sans-Serif" font-size="10.00">IGLib.Core.CollectionType</text>
<text text-anchor="middle" x="76" y="-74.5" font-family="Helvetica,sans-Serif" font-size="10.00">Converter</text>
</a>
</g>
</g>
<!-- Node1&#45;&gt;Node3 -->
<g id="edge2" class="edge"><title>Node1&#45;&gt;Node3</title>
<path fill="none" stroke="midnightblue" d="M76,-124.235C76,-115.586 76,-105.497 76,-97.523"/>
<polygon fill="midnightblue" stroke="midnightblue" points="72.5001,-124.475 76,-134.475 79.5001,-124.475 72.5001,-124.475"/>
</g>
<!-- Node2 -->
<g id="node2" class="node"><title>Node2</title>
<g id="a_node2"><a xlink:href="../../de/d63/interfaceIGLib_1_1Core_1_1ITypeConverter.html" target="_top" xlink:title="Defines methods for converting objects to a specified type.">
<polygon fill="white" stroke="black" points="36,-190.5 36,-209.5 116,-209.5 116,-190.5 36,-190.5"/>
<text text-anchor="middle" x="76" y="-197.5" font-family="Helvetica,sans-Serif" font-size="10.00">ITypeConverter</text>
</a>
</g>
</g>
<!-- Node2&#45;&gt;Node1 -->
<g id="edge1" class="edge"><title>Node2&#45;&gt;Node1</title>
<path fill="none" stroke="midnightblue" d="M76,-179.805C76,-170.91 76,-160.78 76,-153.751"/>
<polygon fill="midnightblue" stroke="midnightblue" points="72.5001,-180.083 76,-190.083 79.5001,-180.083 72.5001,-180.083"/>
</g>
<!-- Node4 -->
<g id="node4" class="node"><title>Node4</title>
<g id="a_node4"><a xlink:href="../../d3/d28/classIGLib_1_1CoreExtended_1_1ReflectionTypeConverter.html" target="_top" xlink:title="A type converter that supports implicit/explicit conversion operators via reflection,...">
<polygon fill="white" stroke="black" points="1.5,-0.5 1.5,-30.5 150.5,-30.5 150.5,-0.5 1.5,-0.5"/>
<text text-anchor="start" x="9.5" y="-18.5" font-family="Helvetica,sans-Serif" font-size="10.00">IGLib.CoreExtended.Reflection</text>
<text text-anchor="middle" x="76" y="-7.5" font-family="Helvetica,sans-Serif" font-size="10.00">TypeConverter</text>
</a>
</g>
</g>
<!-- Node3&#45;&gt;Node4 -->
<g id="edge3" class="edge"><title>Node3&#45;&gt;Node4</title>
<path fill="none" stroke="midnightblue" d="M76,-57.1081C76,-48.1539 76,-38.3227 76,-30.5765"/>
<polygon fill="midnightblue" stroke="midnightblue" points="72.5001,-57.3959 76,-67.396 79.5001,-57.396 72.5001,-57.3959"/>
</g>
</g>
</svg>
