<?xml version="1.0" encoding="UTF-8" standalone="no"?>
<!DOCTYPE svg PUBLIC "-//W3C//DTD SVG 1.1//EN"
 "http://www.w3.org/Graphics/SVG/1.1/DTD/svg11.dtd">
<!-- Generated by graphviz version 2.38.0 (20140413.2041)
 -->
<!-- Title: IG.Neural.IDataMapper Pages: 1 -->
<svg width="202pt" height="140pt"
 viewBox="0.00 0.00 201.50 140.00" xmlns="http://www.w3.org/2000/svg" xmlns:xlink="http://www.w3.org/1999/xlink">
<g id="graph0" class="graph" transform="scale(1 1) rotate(0) translate(4 136)">
<title>IG.Neural.IDataMapper</title>
<polygon fill="white" stroke="none" points="-4,4 -4,-136 197.5,-136 197.5,4 -4,4"/>
<!-- Node1 -->
<g id="node1" class="node"><title>Node1</title>
<g id="a_node1"><a xlink:title=" ">
<polygon fill="#bfbfbf" stroke="black" points="64.5,-112.5 64.5,-131.5 179.5,-131.5 179.5,-112.5 64.5,-112.5"/>
<text text-anchor="middle" x="122" y="-119.5" font-family="Helvetica,sans-Serif" font-size="10.00">IG.Neural.IDataMapper</text>
</a>
</g>
</g>
<!-- Node2 -->
<g id="node2" class="node"><title>Node2</title>
<g id="a_node2"><a xlink:href="../../df/dec/classIG_1_1Neural_1_1DataMapperIdentity.html" target="_top" xlink:title=" ">
<polygon fill="white" stroke="black" points="0,-56.5 0,-75.5 144,-75.5 144,-56.5 0,-56.5"/>
<text text-anchor="middle" x="72" y="-63.5" font-family="Helvetica,sans-Serif" font-size="10.00">IG.Neural.DataMapperIdentity</text>
</a>
</g>
</g>
<!-- Node1&#45;&gt;Node2 -->
<g id="edge1" class="edge"><title>Node1&#45;&gt;Node2</title>
<path fill="none" stroke="midnightblue" d="M106.924,-104.718C98.1109,-95.1997 87.3341,-83.5608 80.1028,-75.7511"/>
<polygon fill="midnightblue" stroke="midnightblue" points="104.381,-107.123 113.744,-112.083 109.518,-102.367 104.381,-107.123"/>
</g>
<!-- Node3 -->
<g id="node3" class="node"><title>Node3</title>
<g id="a_node3"><a xlink:href="../../d7/d70/classIG_1_1Neural_1_1DataMapperSimple.html" target="_top" xlink:title=" ">
<polygon fill="white" stroke="black" points="50.5,-0.5 50.5,-19.5 193.5,-19.5 193.5,-0.5 50.5,-0.5"/>
<text text-anchor="middle" x="122" y="-7.5" font-family="Helvetica,sans-Serif" font-size="10.00">IG.Neural.DataMapperSimple</text>
</a>
</g>
</g>
<!-- Node1&#45;&gt;Node3 -->
<g id="edge3" class="edge"><title>Node1&#45;&gt;Node3</title>
<path fill="none" stroke="midnightblue" d="M136.975,-104.473C143.224,-96.4791 149.771,-86.3778 153,-76 159.611,-54.7503 142.041,-31.6261 130.721,-19.5075"/>
<polygon fill="midnightblue" stroke="midnightblue" points="134.215,-102.318 130.483,-112.234 139.584,-106.81 134.215,-102.318"/>
</g>
<!-- Node2&#45;&gt;Node3 -->
<g id="edge2" class="edge"><title>Node2&#45;&gt;Node3</title>
<path fill="none" stroke="midnightblue" d="M87.0763,-48.7175C95.8891,-39.1997 106.666,-27.5608 113.897,-19.7511"/>
<polygon fill="midnightblue" stroke="midnightblue" points="84.4824,-46.3674 80.2565,-56.083 89.6188,-51.1233 84.4824,-46.3674"/>
</g>
</g>
</svg>
