<?xml version="1.0" encoding="UTF-8" standalone="no"?>
<!DOCTYPE svg PUBLIC "-//W3C//DTD SVG 1.1//EN"
 "http://www.w3.org/Graphics/SVG/1.1/DTD/svg11.dtd">
<!-- Generated by graphviz version 2.38.0 (20140413.2041)
 -->
<!-- Title: IG.Num.Func2dBase Pages: 1 -->
<svg width="919pt" height="271pt"
 viewBox="0.00 0.00 919.00 270.50" xmlns="http://www.w3.org/2000/svg" xmlns:xlink="http://www.w3.org/1999/xlink">
<g id="graph0" class="graph" transform="scale(1 1) rotate(0) translate(4 266.5)">
<title>IG.Num.Func2dBase</title>
<polygon fill="white" stroke="none" points="-4,4 -4,-266.5 915,-266.5 915,4 -4,4"/>
<!-- Node1 -->
<g id="node1" class="node"><title>Node1</title>
<g id="a_node1"><a xlink:title="Base class for scalar functions of 2 variables (base for implementation of IFunc2d interface).">
<polygon fill="#bfbfbf" stroke="black" points="386,-186 386,-205 493,-205 493,-186 386,-186"/>
<text text-anchor="middle" x="439.5" y="-193" font-family="Helvetica,sans-Serif" font-size="10.00">IG.Num.Func2dBase</text>
</a>
</g>
</g>
<!-- Node5 -->
<g id="node5" class="node"><title>Node5</title>
<g id="a_node5"><a xlink:href="../../d8/d1b/classIG_1_1Num_1_1Func2dBaseNoGradient.html" target="_top" xlink:title="Base class for scalar functions of 2 variables (implementations of the IFunc2d interface)....">
<polygon fill="white" stroke="black" points="536,-243 536,-262 692,-262 692,-243 536,-243"/>
<text text-anchor="middle" x="614" y="-250" font-family="Helvetica,sans-Serif" font-size="10.00">IG.Num.Func2dBaseNoGradient</text>
</a>
</g>
</g>
<!-- Node1&#45;&gt;Node5 -->
<g id="edge5" class="edge"><title>Node1&#45;&gt;Node5</title>
<path fill="none" stroke="midnightblue" d="M469.19,-209.407C486.265,-217.28 508.527,-226.851 529,-233.5 540.092,-237.102 552.223,-240.273 563.73,-242.941"/>
<polygon fill="midnightblue" stroke="midnightblue" points="470.329,-206.076 459.789,-205.003 467.359,-212.414 470.329,-206.076"/>
</g>
<!-- Node6 -->
<g id="node6" class="node"><title>Node6</title>
<g id="a_node6"><a xlink:href="../../da/dee/classIG_1_1Num_1_1Func2dBaseNoHessian.html" target="_top" xlink:title="Base class for scalar functions of 2 variables (implementations of the IFunc2d interface)....">
<polygon fill="white" stroke="black" points="536.5,-205 536.5,-224 691.5,-224 691.5,-205 536.5,-205"/>
<text text-anchor="middle" x="614" y="-212" font-family="Helvetica,sans-Serif" font-size="10.00">IG.Num.Func2dBaseNoHessian</text>
</a>
</g>
</g>
<!-- Node1&#45;&gt;Node6 -->
<g id="edge6" class="edge"><title>Node1&#45;&gt;Node6</title>
<path fill="none" stroke="midnightblue" d="M503.338,-202.421C514.112,-203.608 525.415,-204.853 536.499,-206.074"/>
<polygon fill="midnightblue" stroke="midnightblue" points="503.516,-198.92 493.193,-201.304 502.75,-205.878 503.516,-198.92"/>
</g>
<!-- Node8 -->
<g id="node8" class="node"><title>Node8</title>
<g id="a_node8"><a xlink:href="../../d0/d88/classIG_1_1Num_1_1Func2dVectorFormBase.html" target="_top" xlink:title="Base class for scalar functions of 2 variables (base for implementation of IFunc2d interface).">
<polygon fill="white" stroke="black" points="535,-167 535,-186 693,-186 693,-167 535,-167"/>
<text text-anchor="middle" x="614" y="-174" font-family="Helvetica,sans-Serif" font-size="10.00">IG.Num.Func2dVectorFormBase</text>
</a>
</g>
</g>
<!-- Node1&#45;&gt;Node8 -->
<g id="edge8" class="edge"><title>Node1&#45;&gt;Node8</title>
<path fill="none" stroke="midnightblue" d="M503.284,-188.585C513.56,-187.453 524.317,-186.268 534.908,-185.101"/>
<polygon fill="midnightblue" stroke="midnightblue" points="502.75,-185.122 493.193,-189.696 503.516,-192.08 502.75,-185.122"/>
</g>
<!-- Node11 -->
<g id="node11" class="node"><title>Node11</title>
<g id="a_node11"><a xlink:href="../../df/d17/classIG_1_1Num_1_1Func3d2dBase_1_1ComponentFunctionBase.html" target="_top" xlink:title="Base function for component functions, provides internal variable for vector function.">
<polygon fill="white" stroke="black" points="529,-73.5 529,-103.5 699,-103.5 699,-73.5 529,-73.5"/>
<text text-anchor="start" x="537" y="-91.5" font-family="Helvetica,sans-Serif" font-size="10.00">IG.Num.Func3d2dBase.Component</text>
<text text-anchor="middle" x="614" y="-80.5" font-family="Helvetica,sans-Serif" font-size="10.00">FunctionBase</text>
</a>
</g>
</g>
<!-- Node1&#45;&gt;Node11 -->
<g id="edge11" class="edge"><title>Node1&#45;&gt;Node11</title>
<path fill="none" stroke="midnightblue" d="M464.633,-180.53C497.386,-160.214 555.592,-124.11 588.522,-103.684"/>
<polygon fill="midnightblue" stroke="midnightblue" points="462.765,-177.57 456.112,-185.816 466.455,-183.519 462.765,-177.57"/>
</g>
<!-- Node2 -->
<g id="node2" class="node"><title>Node2</title>
<g id="a_node2"><a xlink:href="../../d2/d9e/classIG_1_1Num_1_1ScalarFunctionUntransformedBase.html" target="_top" xlink:title="Base class for defining scalar functions without possibility of affine transformation of parameters.">
<polygon fill="white" stroke="black" points="183,-186 183,-205 350,-205 350,-186 183,-186"/>
<text text-anchor="middle" x="266.5" y="-193" font-family="Helvetica,sans-Serif" font-size="10.00">ScalarFunctionUntransformedBase</text>
</a>
</g>
</g>
<!-- Node2&#45;&gt;Node1 -->
<g id="edge1" class="edge"><title>Node2&#45;&gt;Node1</title>
<path fill="none" stroke="midnightblue" d="M360.455,-195.5C369.13,-195.5 377.703,-195.5 385.811,-195.5"/>
<polygon fill="midnightblue" stroke="midnightblue" points="360.245,-192 350.245,-195.5 360.245,-199 360.245,-192"/>
</g>
<!-- Node3 -->
<g id="node3" class="node"><title>Node3</title>
<g id="a_node3"><a xlink:href="../../d8/d56/interfaceIG_1_1Num_1_1IScalarFunctionUntransformed.html" target="_top" xlink:title="Scalar functions of vector arguments.">
<polygon fill="white" stroke="black" points="0,-205 0,-224 147,-224 147,-205 0,-205"/>
<text text-anchor="middle" x="73.5" y="-212" font-family="Helvetica,sans-Serif" font-size="10.00">IScalarFunctionUntransformed</text>
</a>
</g>
</g>
<!-- Node3&#45;&gt;Node1 -->
<g id="edge4" class="edge"><title>Node3&#45;&gt;Node1</title>
<path fill="none" stroke="midnightblue" d="M157.244,-219.044C212.078,-220.939 285.523,-221.343 350,-214.5 367.502,-212.642 386.629,-208.773 402.61,-205.009"/>
<polygon fill="midnightblue" stroke="midnightblue" points="157.35,-215.546 147.228,-218.674 157.092,-222.541 157.35,-215.546"/>
</g>
<!-- Node3&#45;&gt;Node2 -->
<g id="edge2" class="edge"><title>Node3&#45;&gt;Node2</title>
<path fill="none" stroke="midnightblue" d="M157.411,-206.252C165.807,-205.417 174.335,-204.569 182.729,-203.734"/>
<polygon fill="midnightblue" stroke="midnightblue" points="156.858,-202.79 147.254,-207.263 157.551,-209.756 156.858,-202.79"/>
</g>
<!-- Node4 -->
<g id="node4" class="node"><title>Node4</title>
<g id="a_node4"><a xlink:href="../../d8/d15/interfaceIG_1_1Num_1_1IFunc2d.html" target="_top" xlink:title="Represents scalar functions of 2 variables.">
<polygon fill="white" stroke="black" points="241,-148 241,-167 292,-167 292,-148 241,-148"/>
<text text-anchor="middle" x="266.5" y="-155" font-family="Helvetica,sans-Serif" font-size="10.00">IFunc2d</text>
</a>
</g>
</g>
<!-- Node4&#45;&gt;Node1 -->
<g id="edge3" class="edge"><title>Node4&#45;&gt;Node1</title>
<path fill="none" stroke="midnightblue" d="M301.774,-165.116C328.76,-171.113 366.53,-179.507 395.536,-185.952"/>
<polygon fill="midnightblue" stroke="midnightblue" points="302.521,-161.697 292,-162.944 301.003,-168.531 302.521,-161.697"/>
</g>
<!-- Node7 -->
<g id="node7" class="node"><title>Node7</title>
<g id="a_node7"><a xlink:href="../../df/d8b/classIG_1_1Num_1_1Func2dExamples_1_1Func2dXY.html" target="_top" xlink:title="Function f(x, y) = x * y.">
<polygon fill="white" stroke="black" points="735,-224 735,-243 911,-243 911,-224 735,-224"/>
<text text-anchor="middle" x="823" y="-231" font-family="Helvetica,sans-Serif" font-size="10.00">IG.Num.Func2dExamples.Func2dXY</text>
</a>
</g>
</g>
<!-- Node6&#45;&gt;Node7 -->
<g id="edge7" class="edge"><title>Node6&#45;&gt;Node7</title>
<path fill="none" stroke="midnightblue" d="M701.756,-222.463C712.708,-223.468 723.918,-224.497 734.875,-225.503"/>
<polygon fill="midnightblue" stroke="midnightblue" points="702.063,-218.977 691.785,-221.548 701.423,-225.947 702.063,-218.977"/>
</g>
<!-- Node9 -->
<g id="node9" class="node"><title>Node9</title>
<g id="a_node9"><a xlink:href="../../db/d84/classIG_1_1Num_1_1Func2dLinear.html" target="_top" xlink:title="Linear (Affine) function of 2 variables.">
<polygon fill="white" stroke="black" points="767.5,-186 767.5,-205 878.5,-205 878.5,-186 767.5,-186"/>
<text text-anchor="middle" x="823" y="-193" font-family="Helvetica,sans-Serif" font-size="10.00">IG.Num.Func2dLinear</text>
</a>
</g>
</g>
<!-- Node8&#45;&gt;Node9 -->
<g id="edge9" class="edge"><title>Node8&#45;&gt;Node9</title>
<path fill="none" stroke="midnightblue" d="M703.5,-184.623C725.233,-186.618 747.868,-188.696 767.461,-190.494"/>
<polygon fill="midnightblue" stroke="midnightblue" points="703.536,-181.112 693.258,-183.683 702.896,-188.083 703.536,-181.112"/>
</g>
<!-- Node10 -->
<g id="node10" class="node"><title>Node10</title>
<g id="a_node10"><a xlink:href="../../de/d0a/classIG_1_1Num_1_1Func2dQuadratic.html" target="_top" xlink:title="Quadratic function of 2 variables.">
<polygon fill="white" stroke="black" points="759.5,-148 759.5,-167 886.5,-167 886.5,-148 759.5,-148"/>
<text text-anchor="middle" x="823" y="-155" font-family="Helvetica,sans-Serif" font-size="10.00">IG.Num.Func2dQuadratic</text>
</a>
</g>
</g>
<!-- Node8&#45;&gt;Node10 -->
<g id="edge10" class="edge"><title>Node8&#45;&gt;Node10</title>
<path fill="none" stroke="midnightblue" d="M703.348,-168.391C722.215,-166.659 741.768,-164.864 759.426,-163.244"/>
<polygon fill="midnightblue" stroke="midnightblue" points="702.896,-164.917 693.258,-169.317 703.536,-171.888 702.896,-164.917"/>
</g>
<!-- Node12 -->
<g id="node12" class="node"><title>Node12</title>
<g id="a_node12"><a xlink:href="../../db/d2c/classIG_1_1Num_1_1Func3d2dBase_1_1ComponentFunction1.html" target="_top" xlink:title="Class that represents a scalar function of 2 variables that is the first component of the specified 3...">
<polygon fill="white" stroke="black" points="738,-98.5 738,-128.5 908,-128.5 908,-98.5 738,-98.5"/>
<text text-anchor="start" x="746" y="-116.5" font-family="Helvetica,sans-Serif" font-size="10.00">IG.Num.Func3d2dBase.Component</text>
<text text-anchor="middle" x="823" y="-105.5" font-family="Helvetica,sans-Serif" font-size="10.00">Function1</text>
</a>
</g>
</g>
<!-- Node11&#45;&gt;Node12 -->
<g id="edge12" class="edge"><title>Node11&#45;&gt;Node12</title>
<path fill="none" stroke="midnightblue" d="M709.131,-99.8685C718.717,-101.026 728.41,-102.197 737.88,-103.341"/>
<polygon fill="midnightblue" stroke="midnightblue" points="709.542,-96.3928 699.195,-98.6685 708.703,-103.342 709.542,-96.3928"/>
</g>
<!-- Node13 -->
<g id="node13" class="node"><title>Node13</title>
<g id="a_node13"><a xlink:href="../../d9/dbc/classIG_1_1Num_1_1Func3d2dBase_1_1ComponentFunction2.html" target="_top" xlink:title="Class that represents a scalar function of 2 variables that is the first component of the specified 3...">
<polygon fill="white" stroke="black" points="738,-49.5 738,-79.5 908,-79.5 908,-49.5 738,-49.5"/>
<text text-anchor="start" x="746" y="-67.5" font-family="Helvetica,sans-Serif" font-size="10.00">IG.Num.Func3d2dBase.Component</text>
<text text-anchor="middle" x="823" y="-56.5" font-family="Helvetica,sans-Serif" font-size="10.00">Function2</text>
</a>
</g>
</g>
<!-- Node11&#45;&gt;Node13 -->
<g id="edge13" class="edge"><title>Node11&#45;&gt;Node13</title>
<path fill="none" stroke="midnightblue" d="M709.131,-77.5863C718.717,-76.4749 728.41,-75.351 737.88,-74.2531"/>
<polygon fill="midnightblue" stroke="midnightblue" points="708.725,-74.1098 699.195,-78.7383 709.531,-81.0632 708.725,-74.1098"/>
</g>
<!-- Node14 -->
<g id="node14" class="node"><title>Node14</title>
<g id="a_node14"><a xlink:href="../../db/d01/classIG_1_1Num_1_1Func3d2dBase_1_1ComponentFunction3.html" target="_top" xlink:title="Class that represents a scalar function of 2 variables that is the third component of the specified 3...">
<polygon fill="white" stroke="black" points="738,-0.5 738,-30.5 908,-30.5 908,-0.5 738,-0.5"/>
<text text-anchor="start" x="746" y="-18.5" font-family="Helvetica,sans-Serif" font-size="10.00">IG.Num.Func3d2dBase.Component</text>
<text text-anchor="middle" x="823" y="-7.5" font-family="Helvetica,sans-Serif" font-size="10.00">Function3</text>
</a>
</g>
</g>
<!-- Node11&#45;&gt;Node14 -->
<g id="edge14" class="edge"><title>Node11&#45;&gt;Node14</title>
<path fill="none" stroke="midnightblue" d="M658.065,-69.4681C680.717,-59.8278 709.093,-48.328 735,-39.5 744.195,-36.3667 754.039,-33.3433 763.679,-30.5605"/>
<polygon fill="midnightblue" stroke="midnightblue" points="656.541,-66.3132 648.731,-73.4726 659.301,-72.7461 656.541,-66.3132"/>
</g>
</g>
</svg>
