<?xml version="1.0" encoding="UTF-8" standalone="no"?>
<!DOCTYPE svg PUBLIC "-//W3C//DTD SVG 1.1//EN"
 "http://www.w3.org/Graphics/SVG/1.1/DTD/svg11.dtd">
<!-- Generated by graphviz version 2.38.0 (20140413.2041)
 -->
<!-- Title: IG.Lib.IXmlConvertable Pages: 1 -->
<svg width="128pt" height="140pt"
 viewBox="0.00 0.00 128.00 140.00" xmlns="http://www.w3.org/2000/svg" xmlns:xlink="http://www.w3.org/1999/xlink">
<g id="graph0" class="graph" transform="scale(1 1) rotate(0) translate(4 136)">
<title>IG.Lib.IXmlConvertable</title>
<polygon fill="white" stroke="none" points="-4,4 -4,-136 124,-136 124,4 -4,4"/>
<!-- Node1 -->
<g id="node1" class="node"><title>Node1</title>
<g id="a_node1"><a xlink:title="Defines classes that can be converted to/from Xml elements.">
<polygon fill="#bfbfbf" stroke="black" points="6,-0.5 6,-19.5 119,-19.5 119,-0.5 6,-0.5"/>
<text text-anchor="middle" x="62.5" y="-7.5" font-family="Helvetica,sans-Serif" font-size="10.00">IG.Lib.IXmlConvertable</text>
</a>
</g>
</g>
<!-- Node2 -->
<g id="node2" class="node"><title>Node2</title>
<g id="a_node2"><a xlink:href="../../d6/d87/interfaceIG_1_1Lib_1_1IFromXml.html" target="_top" xlink:title="Defines classes whose instances can be converted to Xml elements. Conversion is different from that u...">
<polygon fill="white" stroke="black" points="0,-56.5 0,-75.5 57,-75.5 57,-56.5 0,-56.5"/>
<text text-anchor="middle" x="28.5" y="-63.5" font-family="Helvetica,sans-Serif" font-size="10.00">IFromXml</text>
</a>
</g>
</g>
<!-- Node2&#45;&gt;Node1 -->
<g id="edge1" class="edge"><title>Node2&#45;&gt;Node1</title>
<path fill="none" stroke="midnightblue" d="M39.4772,-47.5656C45.327,-38.2747 52.2695,-27.2484 56.9901,-19.7511"/>
<polygon fill="midnightblue" stroke="midnightblue" points="36.4808,-45.7558 34.1144,-56.083 42.4044,-49.4855 36.4808,-45.7558"/>
</g>
<!-- Node3 -->
<g id="node3" class="node"><title>Node3</title>
<g id="a_node3"><a xlink:href="../../da/d7e/interfaceIG_1_1Lib_1_1ITypeName.html" target="_top" xlink:title="Classes that provide separate type names. Classes used e.g. in interpreter systems to represent types...">
<polygon fill="white" stroke="black" points="30,-112.5 30,-131.5 95,-131.5 95,-112.5 30,-112.5"/>
<text text-anchor="middle" x="62.5" y="-119.5" font-family="Helvetica,sans-Serif" font-size="10.00">ITypeName</text>
</a>
</g>
</g>
<!-- Node3&#45;&gt;Node2 -->
<g id="edge2" class="edge"><title>Node3&#45;&gt;Node2</title>
<path fill="none" stroke="midnightblue" d="M51.5228,-103.566C45.673,-94.2747 38.7305,-83.2484 34.0099,-75.7511"/>
<polygon fill="midnightblue" stroke="midnightblue" points="48.5956,-105.486 56.8856,-112.083 54.5192,-101.756 48.5956,-105.486"/>
</g>
<!-- Node4 -->
<g id="node4" class="node"><title>Node4</title>
<g id="a_node4"><a xlink:href="../../d3/dd7/interfaceIG_1_1Lib_1_1IToXml.html" target="_top" xlink:title="Defines classes whose instances can be created from Xml elements. Conversion is different from that u...">
<polygon fill="white" stroke="black" points="75,-56.5 75,-75.5 120,-75.5 120,-56.5 75,-56.5"/>
<text text-anchor="middle" x="97.5" y="-63.5" font-family="Helvetica,sans-Serif" font-size="10.00">IToXml</text>
</a>
</g>
</g>
<!-- Node3&#45;&gt;Node4 -->
<g id="edge4" class="edge"><title>Node3&#45;&gt;Node4</title>
<path fill="none" stroke="midnightblue" d="M73.8001,-103.566C79.8219,-94.2747 86.9686,-83.2484 91.828,-75.7511"/>
<polygon fill="midnightblue" stroke="midnightblue" points="70.7815,-101.788 68.2795,-112.083 76.6556,-105.595 70.7815,-101.788"/>
</g>
<!-- Node4&#45;&gt;Node1 -->
<g id="edge3" class="edge"><title>Node4&#45;&gt;Node1</title>
<path fill="none" stroke="midnightblue" d="M86.1999,-47.5656C80.1781,-38.2747 73.0314,-27.2484 68.172,-19.7511"/>
<polygon fill="midnightblue" stroke="midnightblue" points="83.3444,-49.5951 91.7205,-56.083 89.2185,-45.7878 83.3444,-49.5951"/>
</g>
</g>
</svg>
