<?xml version="1.0" encoding="UTF-8" standalone="no"?>
<!DOCTYPE svg PUBLIC "-//W3C//DTD SVG 1.1//EN"
 "http://www.w3.org/Graphics/SVG/1.1/DTD/svg11.dtd">
<!-- Generated by graphviz version 2.38.0 (20140413.2041)
 -->
<!-- Title: IG.Num.Func.ReciprocalPower Pages: 1 -->
<svg width="275pt" height="301pt"
 viewBox="0.00 0.00 275.00 301.00" xmlns="http://www.w3.org/2000/svg" xmlns:xlink="http://www.w3.org/1999/xlink">
<g id="graph0" class="graph" transform="scale(1 1) rotate(0) translate(4 297)">
<title>IG.Num.Func.ReciprocalPower</title>
<polygon fill="white" stroke="none" points="-4,4 -4,-297 271,-297 271,4 -4,4"/>
<!-- Node1 -->
<g id="node1" class="node"><title>Node1</title>
<g id="a_node1"><a xlink:title="A RealFunction class representing a reciprocal power function.">
<polygon fill="#bfbfbf" stroke="black" points="0,-0.5 0,-19.5 150,-19.5 150,-0.5 0,-0.5"/>
<text text-anchor="middle" x="75" y="-7.5" font-family="Helvetica,sans-Serif" font-size="10.00">IG.Num.Func.ReciprocalPower</text>
</a>
</g>
</g>
<!-- Node2 -->
<g id="node2" class="node"><title>Node2</title>
<g id="a_node2"><a xlink:href="../../d5/d83/classIG_1_1Num_1_1RealFunction.html" target="_top" xlink:title="Represents a real function of a real variabe.">
<polygon fill="white" stroke="black" points="38,-57.5 38,-76.5 112,-76.5 112,-57.5 38,-57.5"/>
<text text-anchor="middle" x="75" y="-64.5" font-family="Helvetica,sans-Serif" font-size="10.00">RealFunction</text>
</a>
</g>
</g>
<!-- Node2&#45;&gt;Node1 -->
<g id="edge1" class="edge"><title>Node2&#45;&gt;Node1</title>
<path fill="none" stroke="midnightblue" d="M75,-47.1166C75,-37.8173 75,-27.0557 75,-19.7149"/>
<polygon fill="midnightblue" stroke="midnightblue" points="71.5001,-47.4062 75,-57.4063 78.5001,-47.4063 71.5001,-47.4062"/>
</g>
<!-- Node3 -->
<g id="node3" class="node"><title>Node3</title>
<g id="a_node3"><a xlink:href="../../d6/d30/classIG_1_1Num_1_1RealFunctionBase.html" target="_top" xlink:title="Base class for real functions of real variable.">
<polygon fill="white" stroke="black" points="18,-216.5 18,-235.5 114,-235.5 114,-216.5 18,-216.5"/>
<text text-anchor="middle" x="66" y="-223.5" font-family="Helvetica,sans-Serif" font-size="10.00">RealFunctionBase</text>
</a>
</g>
</g>
<!-- Node3&#45;&gt;Node2 -->
<g id="edge2" class="edge"><title>Node3&#45;&gt;Node2</title>
<path fill="none" stroke="midnightblue" d="M59.543,-206.591C56.9541,-198.276 54.2833,-188.259 53,-179 47.6601,-140.47 63.7409,-95.1402 71.3016,-76.578"/>
<polygon fill="midnightblue" stroke="midnightblue" points="56.3047,-207.946 62.7754,-216.335 62.9486,-205.742 56.3047,-207.946"/>
</g>
<!-- Node6 -->
<g id="node6" class="node"><title>Node6</title>
<g id="a_node6"><a xlink:href="../../d5/d83/classIG_1_1Num_1_1RealFunction.html" target="_top" xlink:title="Represents a real function of a real variabe.">
<polygon fill="white" stroke="black" points="62,-153 62,-172 172,-172 172,-153 62,-153"/>
<text text-anchor="middle" x="117" y="-160" font-family="Helvetica,sans-Serif" font-size="10.00">IG.Num.RealFunction</text>
</a>
</g>
</g>
<!-- Node3&#45;&gt;Node6 -->
<g id="edge7" class="edge"><title>Node3&#45;&gt;Node6</title>
<path fill="none" stroke="midnightblue" d="M79.4846,-208.739C89.1401,-197.096 101.775,-181.859 109.639,-172.377"/>
<polygon fill="midnightblue" stroke="midnightblue" points="76.7806,-206.517 73.0913,-216.449 82.1689,-210.985 76.7806,-206.517"/>
</g>
<!-- Node4 -->
<g id="node4" class="node"><title>Node4</title>
<g id="a_node4"><a xlink:href="../../db/d0e/interfaceIG_1_1Num_1_1IRealFunction.html" target="_top" xlink:title="Interface for real functions.">
<polygon fill="white" stroke="black" points="28,-273.5 28,-292.5 104,-292.5 104,-273.5 28,-273.5"/>
<text text-anchor="middle" x="66" y="-280.5" font-family="Helvetica,sans-Serif" font-size="10.00">IRealFunction</text>
</a>
</g>
</g>
<!-- Node4&#45;&gt;Node2 -->
<g id="edge4" class="edge"><title>Node4&#45;&gt;Node2</title>
<path fill="none" stroke="midnightblue" d="M39.7898,-268.1C28.0739,-260.358 15.4678,-249.531 9,-236 5.16652,-227.98 7.4898,-224.76 9,-216 18.6965,-159.757 23.4681,-144.429 52,-95 55.8172,-88.3871 61.3327,-81.8457 66.0057,-76.8581"/>
<polygon fill="midnightblue" stroke="midnightblue" points="38.1039,-271.172 48.459,-273.413 41.7617,-265.203 38.1039,-271.172"/>
</g>
<!-- Node4&#45;&gt;Node3 -->
<g id="edge3" class="edge"><title>Node4&#45;&gt;Node3</title>
<path fill="none" stroke="midnightblue" d="M66,-263.117C66,-253.817 66,-243.056 66,-235.715"/>
<polygon fill="midnightblue" stroke="midnightblue" points="62.5001,-263.406 66,-273.406 69.5001,-263.406 62.5001,-263.406"/>
</g>
<!-- Node4&#45;&gt;Node6 -->
<g id="edge8" class="edge"><title>Node4&#45;&gt;Node6</title>
<path fill="none" stroke="midnightblue" d="M92.2102,-268.1C103.926,-260.358 116.532,-249.531 123,-236 133.131,-214.805 125.373,-186.137 120.373,-172.044"/>
<polygon fill="midnightblue" stroke="midnightblue" points="90.2383,-265.203 83.541,-273.413 93.8961,-271.172 90.2383,-265.203"/>
</g>
<!-- Node5 -->
<g id="node5" class="node"><title>Node5</title>
<g id="a_node5"><a xlink:title=" ">
<polygon fill="white" stroke="#bfbfbf" points="205,-216.5 205,-235.5 267,-235.5 267,-216.5 205,-216.5"/>
<text text-anchor="middle" x="236" y="-223.5" font-family="Helvetica,sans-Serif" font-size="10.00">ICloneable</text>
</a>
</g>
</g>
<!-- Node5&#45;&gt;Node2 -->
<g id="edge5" class="edge"><title>Node5&#45;&gt;Node2</title>
<path fill="none" stroke="midnightblue" d="M249.184,-207.906C260.313,-191.229 272.714,-165.583 261,-146 230.173,-94.4632 157.174,-76.9716 112.341,-71.0395"/>
<polygon fill="midnightblue" stroke="midnightblue" points="246.258,-205.98 243.293,-216.152 251.954,-210.049 246.258,-205.98"/>
</g>
<!-- Node5&#45;&gt;Node6 -->
<g id="edge9" class="edge"><title>Node5&#45;&gt;Node6</title>
<path fill="none" stroke="midnightblue" d="M210.524,-211.834C187.338,-199.851 153.77,-182.503 133.79,-172.177"/>
<polygon fill="midnightblue" stroke="midnightblue" points="208.963,-214.967 219.454,-216.449 212.177,-208.748 208.963,-214.967"/>
</g>
<!-- Node6&#45;&gt;Node2 -->
<g id="edge6" class="edge"><title>Node6&#45;&gt;Node2</title>
<path fill="none" stroke="#9a32cd" stroke-dasharray="5,2" d="M108.95,-143.579C99.9273,-123.493 85.6733,-91.7608 78.8666,-76.6078"/>
<polygon fill="#9a32cd" stroke="#9a32cd" points="105.834,-145.184 113.124,-152.871 112.219,-142.315 105.834,-145.184"/>
<text text-anchor="middle" x="131" y="-120" font-family="Helvetica,sans-Serif" font-size="10.00"> funcDerivative</text>
<text text-anchor="middle" x="131" y="-109" font-family="Helvetica,sans-Serif" font-size="10.00">funcInverse</text>
<text text-anchor="middle" x="131" y="-98" font-family="Helvetica,sans-Serif" font-size="10.00">funcIntegral</text>
</g>
<!-- Node6&#45;&gt;Node6 -->
<g id="edge10" class="edge"><title>Node6&#45;&gt;Node6</title>
<path fill="none" stroke="#9a32cd" stroke-dasharray="5,2" d="M182.001,-167.284C186.952,-166.222 190,-164.627 190,-162.5 190,-159.18 182.574,-157.156 172.073,-156.43"/>
<polygon fill="#9a32cd" stroke="#9a32cd" points="181.541,-163.815 172.073,-168.57 182.44,-170.757 181.541,-163.815"/>
<text text-anchor="middle" x="221" y="-171" font-family="Helvetica,sans-Serif" font-size="10.00"> funcDerivative</text>
<text text-anchor="middle" x="221" y="-160" font-family="Helvetica,sans-Serif" font-size="10.00">funcInverse</text>
<text text-anchor="middle" x="221" y="-149" font-family="Helvetica,sans-Serif" font-size="10.00">funcIntegral</text>
</g>
</g>
</svg>
