<?xml version="1.0" encoding="UTF-8" standalone="no"?>
<!DOCTYPE svg PUBLIC "-//W3C//DTD SVG 1.1//EN"
 "http://www.w3.org/Graphics/SVG/1.1/DTD/svg11.dtd">
<!-- Generated by graphviz version 2.38.0 (20140413.2041)
 -->
<!-- Title: IG.Num.Func3d2dExamples.HyperboloidTwosheetedLowerParametric Pages: 1 -->
<svg width="413pt" height="470pt"
 viewBox="0.00 0.00 412.50 470.00" xmlns="http://www.w3.org/2000/svg" xmlns:xlink="http://www.w3.org/1999/xlink">
<g id="graph0" class="graph" transform="scale(1 1) rotate(0) translate(4 466)">
<title>IG.Num.Func3d2dExamples.HyperboloidTwosheetedLowerParametric</title>
<polygon fill="white" stroke="none" points="-4,4 -4,-466 408.5,-466 408.5,4 -4,4"/>
<!-- Node1 -->
<g id="node1" class="node"><title>Node1</title>
<g id="a_node1"><a xlink:title="Parametric definition of an origin&#45;centered upper two&#45;sheeted hyperboloid surface (x^2/a^2+y^2/b^2&#45;z^...">
<polygon fill="#bfbfbf" stroke="black" points="0,-0.5 0,-30.5 192,-30.5 192,-0.5 0,-0.5"/>
<text text-anchor="start" x="8" y="-18.5" font-family="Helvetica,sans-Serif" font-size="10.00">IG.Num.Func3d2dExamples.</text>
<text text-anchor="middle" x="96" y="-7.5" font-family="Helvetica,sans-Serif" font-size="10.00">HyperboloidTwosheetedLowerParametric</text>
</a>
</g>
</g>
<!-- Node2 -->
<g id="node2" class="node"><title>Node2</title>
<g id="a_node2"><a xlink:href="../../d5/dc2/classIG_1_1Num_1_1Func3d2dExamples_1_1HyperboloidParametric.html" target="_top" xlink:title="Parametric definition of an origin&#45;centered hyperboloid surface (x^2/a^2+y^2/b^2&#45;z^2/c^2=1) in form o...">
<polygon fill="white" stroke="black" points="97.5,-68.5 97.5,-87.5 212.5,-87.5 212.5,-68.5 97.5,-68.5"/>
<text text-anchor="middle" x="155" y="-75.5" font-family="Helvetica,sans-Serif" font-size="10.00">HyperboloidParametric</text>
</a>
</g>
</g>
<!-- Node2&#45;&gt;Node1 -->
<g id="edge1" class="edge"><title>Node2&#45;&gt;Node1</title>
<path fill="none" stroke="midnightblue" d="M139.5,-61.1063C130.322,-51.6944 118.789,-39.8687 109.905,-30.7587"/>
<polygon fill="midnightblue" stroke="midnightblue" points="137.059,-63.6162 146.547,-68.3318 142.071,-58.7289 137.059,-63.6162"/>
</g>
<!-- Node3 -->
<g id="node3" class="node"><title>Node3</title>
<g id="a_node3"><a xlink:href="../../d0/d54/classIG_1_1Num_1_1Func3d2dExamples_1_1ParametricSurface.html" target="_top" xlink:title="Base class for easy definition of parametric surfaces intended for plotting.">
<polygon fill="white" stroke="black" points="135.5,-125.5 135.5,-144.5 232.5,-144.5 232.5,-125.5 135.5,-125.5"/>
<text text-anchor="middle" x="184" y="-132.5" font-family="Helvetica,sans-Serif" font-size="10.00">ParametricSurface</text>
</a>
</g>
</g>
<!-- Node3&#45;&gt;Node2 -->
<g id="edge2" class="edge"><title>Node3&#45;&gt;Node2</title>
<path fill="none" stroke="midnightblue" d="M174.685,-116.334C169.642,-106.77 163.636,-95.3784 159.595,-87.7149"/>
<polygon fill="midnightblue" stroke="midnightblue" points="171.709,-118.193 179.469,-125.406 177.901,-114.928 171.709,-118.193"/>
</g>
<!-- Node4 -->
<g id="node4" class="node"><title>Node4</title>
<g id="a_node4"><a xlink:href="../../d3/dc0/classIG_1_1Num_1_1Func3d2dBaseNoGradient.html" target="_top" xlink:title="Base class for 3D vector functions of 2 variables (implementations of the IFunc3d2d interface) that d...">
<polygon fill="white" stroke="black" points="173.5,-182.5 173.5,-201.5 304.5,-201.5 304.5,-182.5 173.5,-182.5"/>
<text text-anchor="middle" x="239" y="-189.5" font-family="Helvetica,sans-Serif" font-size="10.00">Func3d2dBaseNoGradient</text>
</a>
</g>
</g>
<!-- Node4&#45;&gt;Node3 -->
<g id="edge3" class="edge"><title>Node4&#45;&gt;Node3</title>
<path fill="none" stroke="midnightblue" d="M223.123,-175.123C213.224,-165.224 200.862,-152.862 192.715,-144.715"/>
<polygon fill="midnightblue" stroke="midnightblue" points="220.86,-177.81 230.406,-182.406 225.81,-172.86 220.86,-177.81"/>
</g>
<!-- Node5 -->
<g id="node5" class="node"><title>Node5</title>
<g id="a_node5"><a xlink:href="../../df/d0e/classIG_1_1Num_1_1Func3d2dBase.html" target="_top" xlink:title="Base class for 3D vector functions of 2 variables (base for implementation of IFunc3d2d interface).">
<polygon fill="white" stroke="black" points="211,-239.5 211,-258.5 293,-258.5 293,-239.5 211,-239.5"/>
<text text-anchor="middle" x="252" y="-246.5" font-family="Helvetica,sans-Serif" font-size="10.00">Func3d2dBase</text>
</a>
</g>
</g>
<!-- Node5&#45;&gt;Node4 -->
<g id="edge4" class="edge"><title>Node5&#45;&gt;Node4</title>
<path fill="none" stroke="midnightblue" d="M247.609,-229.423C245.395,-220.054 242.814,-209.136 241.06,-201.715"/>
<polygon fill="midnightblue" stroke="midnightblue" points="244.262,-230.48 249.969,-239.406 251.075,-228.869 244.262,-230.48"/>
</g>
<!-- Node6 -->
<g id="node6" class="node"><title>Node6</title>
<g id="a_node6"><a xlink:href="../../d3/d6f/interfaceIG_1_1Num_1_1IFunc3d2d.html" target="_top" xlink:title="Represents 3D vector functions of 2 variables.">
<polygon fill="white" stroke="black" points="114,-328.5 114,-347.5 176,-347.5 176,-328.5 114,-328.5"/>
<text text-anchor="middle" x="145" y="-335.5" font-family="Helvetica,sans-Serif" font-size="10.00">IFunc3d2d</text>
</a>
</g>
</g>
<!-- Node6&#45;&gt;Node1 -->
<g id="edge14" class="edge"><title>Node6&#45;&gt;Node1</title>
<path fill="none" stroke="midnightblue" d="M120.569,-322.752C98.3478,-307.753 69,-281.905 69,-250 69,-250 69,-250 69,-77 69,-59.9771 78.0242,-42.4161 85.6383,-30.6287"/>
<polygon fill="midnightblue" stroke="midnightblue" points="118.946,-325.868 129.253,-328.321 122.725,-319.976 118.946,-325.868"/>
</g>
<!-- Node6&#45;&gt;Node2 -->
<g id="edge13" class="edge"><title>Node6&#45;&gt;Node2</title>
<path fill="none" stroke="midnightblue" d="M132.689,-320.162C121.59,-303.292 107,-276.145 107,-250 107,-250 107,-250 107,-134 107,-113.595 125.985,-97.1023 140.076,-87.6711"/>
<polygon fill="midnightblue" stroke="midnightblue" points="129.818,-322.165 138.381,-328.405 135.579,-318.187 129.818,-322.165"/>
</g>
<!-- Node6&#45;&gt;Node3 -->
<g id="edge12" class="edge"><title>Node6&#45;&gt;Node3</title>
<path fill="none" stroke="midnightblue" d="M145.559,-318.356C146.824,-288.906 150.911,-230.031 164,-182 167.709,-168.389 174.733,-153.584 179.391,-144.546"/>
<polygon fill="midnightblue" stroke="midnightblue" points="142.058,-318.313 145.19,-328.434 149.053,-318.569 142.058,-318.313"/>
</g>
<!-- Node6&#45;&gt;Node4 -->
<g id="edge11" class="edge"><title>Node6&#45;&gt;Node4</title>
<path fill="none" stroke="midnightblue" d="M154.163,-319.458C164.84,-299.466 183.404,-266.06 202,-239 211.404,-225.316 223.722,-210.53 231.501,-201.517"/>
<polygon fill="midnightblue" stroke="midnightblue" points="151.043,-317.87 149.464,-328.347 157.232,-321.142 151.043,-317.87"/>
</g>
<!-- Node6&#45;&gt;Node5 -->
<g id="edge5" class="edge"><title>Node6&#45;&gt;Node5</title>
<path fill="none" stroke="midnightblue" d="M174.53,-323.937C182.174,-319.958 190.169,-315.235 197,-310 217.189,-294.528 236.178,-271.151 245.674,-258.634"/>
<polygon fill="midnightblue" stroke="midnightblue" points="172.899,-320.839 165.483,-328.405 175.999,-327.115 172.899,-320.839"/>
</g>
<!-- Node7 -->
<g id="node7" class="node"><title>Node7</title>
<g id="a_node7"><a xlink:href="../../da/d29/classIG_1_1Num_1_1Func2dBase.html" target="_top" xlink:title="Base class for scalar functions of 2 variables (base for implementation of IFunc2d interface).">
<polygon fill="white" stroke="black" points="198.5,-328.5 198.5,-347.5 305.5,-347.5 305.5,-328.5 198.5,-328.5"/>
<text text-anchor="middle" x="252" y="-335.5" font-family="Helvetica,sans-Serif" font-size="10.00">IG.Num.Func2dBase</text>
</a>
</g>
</g>
<!-- Node7&#45;&gt;Node5 -->
<g id="edge6" class="edge"><title>Node7&#45;&gt;Node5</title>
<path fill="none" stroke="#9a32cd" stroke-dasharray="5,2" d="M252,-318.195C252,-299.738 252,-272.412 252,-258.625"/>
<polygon fill="#9a32cd" stroke="#9a32cd" points="248.5,-318.34 252,-328.34 255.5,-318.34 248.5,-318.34"/>
<text text-anchor="middle" x="271" y="-302" font-family="Helvetica,sans-Serif" font-size="10.00"> _comp1</text>
<text text-anchor="middle" x="271" y="-291" font-family="Helvetica,sans-Serif" font-size="10.00">_comp2</text>
<text text-anchor="middle" x="271" y="-280" font-family="Helvetica,sans-Serif" font-size="10.00">_comp3</text>
</g>
<!-- Node8 -->
<g id="node8" class="node"><title>Node8</title>
<g id="a_node8"><a xlink:href="../../d2/d9e/classIG_1_1Num_1_1ScalarFunctionUntransformedBase.html" target="_top" xlink:title="Base class for defining scalar functions without possibility of affine transformation of parameters.">
<polygon fill="white" stroke="black" points="168.5,-385.5 168.5,-404.5 335.5,-404.5 335.5,-385.5 168.5,-385.5"/>
<text text-anchor="middle" x="252" y="-392.5" font-family="Helvetica,sans-Serif" font-size="10.00">ScalarFunctionUntransformedBase</text>
</a>
</g>
</g>
<!-- Node8&#45;&gt;Node7 -->
<g id="edge7" class="edge"><title>Node8&#45;&gt;Node7</title>
<path fill="none" stroke="midnightblue" d="M252,-375.117C252,-365.817 252,-355.056 252,-347.715"/>
<polygon fill="midnightblue" stroke="midnightblue" points="248.5,-375.406 252,-385.406 255.5,-375.406 248.5,-375.406"/>
</g>
<!-- Node9 -->
<g id="node9" class="node"><title>Node9</title>
<g id="a_node9"><a xlink:href="../../d8/d56/interfaceIG_1_1Num_1_1IScalarFunctionUntransformed.html" target="_top" xlink:title="Scalar functions of vector arguments.">
<polygon fill="white" stroke="black" points="100.5,-442.5 100.5,-461.5 247.5,-461.5 247.5,-442.5 100.5,-442.5"/>
<text text-anchor="middle" x="174" y="-449.5" font-family="Helvetica,sans-Serif" font-size="10.00">IScalarFunctionUntransformed</text>
</a>
</g>
</g>
<!-- Node9&#45;&gt;Node7 -->
<g id="edge10" class="edge"><title>Node9&#45;&gt;Node7</title>
<path fill="none" stroke="midnightblue" d="M163.123,-433.118C156.139,-419.112 149.921,-399.619 159,-385 170.974,-365.719 193.69,-354.274 213.673,-347.623"/>
<polygon fill="midnightblue" stroke="midnightblue" points="160.239,-435.135 168.136,-442.198 166.367,-431.752 160.239,-435.135"/>
</g>
<!-- Node9&#45;&gt;Node8 -->
<g id="edge8" class="edge"><title>Node9&#45;&gt;Node8</title>
<path fill="none" stroke="midnightblue" d="M194.511,-436.537C208.953,-426.354 227.795,-413.068 239.898,-404.533"/>
<polygon fill="midnightblue" stroke="midnightblue" points="192.343,-433.783 186.188,-442.406 196.377,-439.504 192.343,-433.783"/>
</g>
<!-- Node10 -->
<g id="node10" class="node"><title>Node10</title>
<g id="a_node10"><a xlink:href="../../d8/d15/interfaceIG_1_1Num_1_1IFunc2d.html" target="_top" xlink:title="Represents scalar functions of 2 variables.">
<polygon fill="white" stroke="black" points="353.5,-385.5 353.5,-404.5 404.5,-404.5 404.5,-385.5 353.5,-385.5"/>
<text text-anchor="middle" x="379" y="-392.5" font-family="Helvetica,sans-Serif" font-size="10.00">IFunc2d</text>
</a>
</g>
</g>
<!-- Node10&#45;&gt;Node7 -->
<g id="edge9" class="edge"><title>Node10&#45;&gt;Node7</title>
<path fill="none" stroke="midnightblue" d="M349.844,-381.374C325.894,-371.001 292.62,-356.591 271.704,-347.533"/>
<polygon fill="midnightblue" stroke="midnightblue" points="348.589,-384.644 359.156,-385.406 351.371,-378.22 348.589,-384.644"/>
</g>
</g>
</svg>
