<?xml version="1.0" encoding="UTF-8" standalone="no"?>
<!DOCTYPE svg PUBLIC "-//W3C//DTD SVG 1.1//EN"
 "http://www.w3.org/Graphics/SVG/1.1/DTD/svg11.dtd">
<!-- Generated by graphviz version 2.38.0 (20140413.2041)
 -->
<!-- Title: IG.Num.OptFileAnalysisServer Pages: 1 -->
<svg width="859pt" height="213pt"
 viewBox="0.00 0.00 859.00 213.00" xmlns="http://www.w3.org/2000/svg" xmlns:xlink="http://www.w3.org/1999/xlink">
<g id="graph0" class="graph" transform="scale(1 1) rotate(0) translate(4 209)">
<title>IG.Num.OptFileAnalysisServer</title>
<polygon fill="white" stroke="none" points="-4,4 -4,-209 855,-209 855,4 -4,4"/>
<!-- Node1 -->
<g id="node1" class="node"><title>Node1</title>
<g id="a_node1"><a xlink:title="File analysis server. Performs direct analyses by request.">
<polygon fill="#bfbfbf" stroke="black" points="702,-88.5 702,-107.5 851,-107.5 851,-88.5 702,-88.5"/>
<text text-anchor="middle" x="776.5" y="-95.5" font-family="Helvetica,sans-Serif" font-size="10.00">IG.Num.OptFileAnalysisServer</text>
</a>
</g>
</g>
<!-- Node2 -->
<g id="node2" class="node"><title>Node2</title>
<g id="a_node2"><a xlink:href="../../d3/db6/interfaceIG_1_1Lib_1_1ILockable.html" target="_top" xlink:title="Lockable object, has a Lock property that returns object on which lock must be performed in order to ...">
<polygon fill="white" stroke="black" points="291.5,-99.5 291.5,-118.5 349.5,-118.5 349.5,-99.5 291.5,-99.5"/>
<text text-anchor="middle" x="320.5" y="-106.5" font-family="Helvetica,sans-Serif" font-size="10.00">ILockable</text>
</a>
</g>
</g>
<!-- Node2&#45;&gt;Node1 -->
<g id="edge1" class="edge"><title>Node2&#45;&gt;Node1</title>
<path fill="none" stroke="midnightblue" d="M360.005,-108.067C435.533,-106.237 604.239,-102.149 701.861,-99.7842"/>
<polygon fill="midnightblue" stroke="midnightblue" points="359.469,-104.579 349.557,-108.32 359.639,-111.577 359.469,-104.579"/>
</g>
<!-- Node8 -->
<g id="node8" class="node"><title>Node8</title>
<g id="a_node8"><a xlink:href="../../d2/d92/classIG_1_1Num_1_1OptFileManager.html" target="_top" xlink:title="Performs elementary operations for optimization and analysis servers and clients that exchange data a...">
<polygon fill="white" stroke="black" points="486,-66.5 486,-85.5 608,-85.5 608,-66.5 486,-66.5"/>
<text text-anchor="middle" x="547" y="-73.5" font-family="Helvetica,sans-Serif" font-size="10.00">IG.Num.OptFileManager</text>
</a>
</g>
</g>
<!-- Node2&#45;&gt;Node8 -->
<g id="edge8" class="edge"><title>Node2&#45;&gt;Node8</title>
<path fill="none" stroke="midnightblue" d="M360.087,-103.328C394.628,-98.2506 445.834,-90.7238 485.764,-84.8542"/>
<polygon fill="midnightblue" stroke="midnightblue" points="359.318,-99.9033 349.933,-104.821 360.336,-106.829 359.318,-99.9033"/>
</g>
<!-- Node3 -->
<g id="node3" class="node"><title>Node3</title>
<g id="a_node3"><a xlink:href="../../d5/d4e/classIG_1_1Num_1_1AnalysisResults.html" target="_top" xlink:title="Single objective optimization analysis results. Used to transfer parameters input (e....">
<polygon fill="white" stroke="black" points="259,-141.5 259,-160.5 382,-160.5 382,-141.5 259,-141.5"/>
<text text-anchor="middle" x="320.5" y="-148.5" font-family="Helvetica,sans-Serif" font-size="10.00">IG.Num.AnalysisResults</text>
</a>
</g>
</g>
<!-- Node3&#45;&gt;Node1 -->
<g id="edge2" class="edge"><title>Node3&#45;&gt;Node1</title>
<path fill="none" stroke="#9a32cd" stroke-dasharray="5,2" d="M392.281,-148.844C416.342,-147.785 443.37,-146.238 468,-144 564.464,-135.236 588.354,-130.296 684,-115 697.88,-112.78 712.894,-110.106 726.668,-107.542"/>
<polygon fill="#9a32cd" stroke="#9a32cd" points="392.01,-145.352 382.166,-149.268 392.304,-152.346 392.01,-145.352"/>
<text text-anchor="middle" x="547" y="-146" font-family="Helvetica,sans-Serif" font-size="10.00"> _analysisPoint</text>
</g>
<!-- Node3&#45;&gt;Node8 -->
<g id="edge9" class="edge"><title>Node3&#45;&gt;Node8</title>
<path fill="none" stroke="#9a32cd" stroke-dasharray="5,2" d="M366.298,-138.634C395.468,-130.315 434.236,-118.755 468,-107 486.854,-100.436 507.867,-92.0194 523.328,-85.6129"/>
<polygon fill="#9a32cd" stroke="#9a32cd" points="365.071,-135.344 356.404,-141.437 366.979,-142.079 365.071,-135.344"/>
<text text-anchor="middle" x="434" y="-132" font-family="Helvetica,sans-Serif" font-size="10.00"> _anResults</text>
</g>
<!-- Node4 -->
<g id="node4" class="node"><title>Node4</title>
<g id="a_node4"><a xlink:href="../../d4/d34/interfaceIG_1_1Num_1_1IAnalysisResults.html" target="_top" xlink:title="Single objective optimization analysis results. Used to transfer parameters input (e....">
<polygon fill="white" stroke="black" points="25.5,-185.5 25.5,-204.5 114.5,-204.5 114.5,-185.5 25.5,-185.5"/>
<text text-anchor="middle" x="70" y="-192.5" font-family="Helvetica,sans-Serif" font-size="10.00">IAnalysisResults</text>
</a>
</g>
</g>
<!-- Node4&#45;&gt;Node3 -->
<g id="edge3" class="edge"><title>Node4&#45;&gt;Node3</title>
<path fill="none" stroke="midnightblue" d="M124.751,-186.111C158.221,-180.507 202.151,-173.025 241,-166 250.558,-164.272 260.758,-162.367 270.534,-160.512"/>
<polygon fill="midnightblue" stroke="midnightblue" points="124.003,-182.687 114.716,-187.788 125.156,-189.592 124.003,-182.687"/>
</g>
<!-- Node5 -->
<g id="node5" class="node"><title>Node5</title>
<g id="a_node5"><a xlink:href="../../d8/d86/interfaceIG_1_1Num_1_1IMatrix.html" target="_top" xlink:title="Generic Matrix interface.">
<polygon fill="white" stroke="black" points="0,-136 0,-166 140,-166 140,-136 0,-136"/>
<text text-anchor="start" x="8" y="-154" font-family="Helvetica,sans-Serif" font-size="10.00">IG.Num.IMatrix&lt; Component</text>
<text text-anchor="middle" x="70" y="-143" font-family="Helvetica,sans-Serif" font-size="10.00">Type &gt;</text>
</a>
</g>
</g>
<!-- Node5&#45;&gt;Node3 -->
<g id="edge4" class="edge"><title>Node5&#45;&gt;Node3</title>
<path fill="none" stroke="#9a32cd" stroke-dasharray="5,2" d="M150.433,-151C185.504,-151 226.076,-151 258.683,-151"/>
<polygon fill="#9a32cd" stroke="#9a32cd" points="150.221,-147.5 140.221,-151 150.221,-154.5 150.221,-147.5"/>
<text text-anchor="middle" x="199.5" y="-154" font-family="Helvetica,sans-Serif" font-size="10.00"> _objectiveHessian</text>
</g>
<!-- Node6 -->
<g id="node6" class="node"><title>Node6</title>
<g id="a_node6"><a xlink:href="../../d3/d24/interfaceIG_1_1Num_1_1IVector.html" target="_top" xlink:title="Generic Vector interface">
<polygon fill="white" stroke="black" points="16.5,-96.5 16.5,-115.5 123.5,-115.5 123.5,-96.5 16.5,-96.5"/>
<text text-anchor="middle" x="70" y="-103.5" font-family="Helvetica,sans-Serif" font-size="10.00">IG.Num.IVector&lt; T &gt;</text>
</a>
</g>
</g>
<!-- Node6&#45;&gt;Node3 -->
<g id="edge5" class="edge"><title>Node6&#45;&gt;Node3</title>
<path fill="none" stroke="#9a32cd" stroke-dasharray="5,2" d="M133.75,-109.872C166.056,-112.655 205.922,-117.319 241,-125 259.512,-129.054 279.804,-135.84 295.119,-141.462"/>
<polygon fill="#9a32cd" stroke="#9a32cd" points="133.795,-106.364 123.542,-109.033 133.221,-113.34 133.795,-106.364"/>
<text text-anchor="middle" x="199.5" y="-139" font-family="Helvetica,sans-Serif" font-size="10.00"> _objectiveGradient</text>
<text text-anchor="middle" x="199.5" y="-128" font-family="Helvetica,sans-Serif" font-size="10.00">_parameters</text>
</g>
<!-- Node7 -->
<g id="node7" class="node"><title>Node7</title>
<g id="a_node7"><a xlink:href="../../d5/d59/interfaceIG_1_1Num_1_1IAnalysis.html" target="_top" xlink:title="Interface for direct analysis classes used in optimization problems.">
<polygon fill="white" stroke="black" points="274.5,-0.5 274.5,-19.5 366.5,-19.5 366.5,-0.5 274.5,-0.5"/>
<text text-anchor="middle" x="320.5" y="-7.5" font-family="Helvetica,sans-Serif" font-size="10.00">IG.Num.IAnalysis</text>
</a>
</g>
</g>
<!-- Node7&#45;&gt;Node1 -->
<g id="edge6" class="edge"><title>Node7&#45;&gt;Node1</title>
<path fill="none" stroke="#9a32cd" stroke-dasharray="5,2" d="M376.961,-15.0606C404.39,-17.7207 437.972,-21.2128 468,-25 530.424,-32.8731 546.667,-31.9655 608,-46 658.756,-57.6142 716.441,-76.914 749.151,-88.4499"/>
<polygon fill="#9a32cd" stroke="#9a32cd" points="377.058,-11.554 366.77,-14.083 376.39,-18.522 377.058,-11.554"/>
<text text-anchor="middle" x="547" y="-49" font-family="Helvetica,sans-Serif" font-size="10.00"> _analysis</text>
</g>
<!-- Node7&#45;&gt;Node8 -->
<g id="edge10" class="edge"><title>Node7&#45;&gt;Node8</title>
<path fill="none" stroke="#9a32cd" stroke-dasharray="5,2" d="M374.462,-21.9085C402.475,-28.5754 437.326,-37.4552 468,-47 486.485,-52.752 506.99,-60.428 522.335,-66.4378"/>
<polygon fill="#9a32cd" stroke="#9a32cd" points="375.007,-18.4413 364.471,-19.5553 373.403,-25.2548 375.007,-18.4413"/>
<text text-anchor="middle" x="434" y="-50" font-family="Helvetica,sans-Serif" font-size="10.00"> _analysis</text>
</g>
<!-- Node8&#45;&gt;Node1 -->
<g id="edge7" class="edge"><title>Node8&#45;&gt;Node1</title>
<path fill="none" stroke="#9a32cd" stroke-dasharray="5,2" d="M618.426,-82.6947C639.516,-84.7096 662.697,-86.9342 684,-89 689.72,-89.5546 695.64,-90.1313 701.591,-90.7127"/>
<polygon fill="#9a32cd" stroke="#9a32cd" points="618.545,-79.1903 608.258,-81.7241 617.88,-86.1587 618.545,-79.1903"/>
<text text-anchor="middle" x="655" y="-92" font-family="Helvetica,sans-Serif" font-size="10.00"> _fileManager</text>
</g>
<!-- Node9 -->
<g id="node9" class="node"><title>Node9</title>
<g id="a_node9"><a xlink:href="../../d1/d02/interfaceIG_1_1Lib_1_1ISerializer.html" target="_top" xlink:title="Interface for helper classes that perform serialization/deserialization of objects.">
<polygon fill="white" stroke="black" points="276.5,-53.5 276.5,-72.5 364.5,-72.5 364.5,-53.5 276.5,-53.5"/>
<text text-anchor="middle" x="320.5" y="-60.5" font-family="Helvetica,sans-Serif" font-size="10.00">IG.Lib.ISerializer</text>
</a>
</g>
</g>
<!-- Node9&#45;&gt;Node8 -->
<g id="edge11" class="edge"><title>Node9&#45;&gt;Node8</title>
<path fill="none" stroke="#9a32cd" stroke-dasharray="5,2" d="M374.829,-61.4995C402.642,-61.1883 437.2,-61.5389 468,-64 475.375,-64.5893 483.109,-65.464 490.723,-66.4773"/>
<polygon fill="#9a32cd" stroke="#9a32cd" points="374.469,-58.0042 364.521,-61.6481 374.57,-65.0035 374.469,-58.0042"/>
<text text-anchor="middle" x="434" y="-67" font-family="Helvetica,sans-Serif" font-size="10.00"> _serializerJson</text>
</g>
</g>
</svg>
