<?xml version="1.0" encoding="UTF-8" standalone="no"?>
<!DOCTYPE svg PUBLIC "-//W3C//DTD SVG 1.1//EN"
 "http://www.w3.org/Graphics/SVG/1.1/DTD/svg11.dtd">
<!-- Generated by graphviz version 2.38.0 (20140413.2041)
 -->
<!-- Title: IG.Num.LinearSolverBase Pages: 1 -->
<svg width="349pt" height="180pt"
 viewBox="0.00 0.00 349.00 180.00" xmlns="http://www.w3.org/2000/svg" xmlns:xlink="http://www.w3.org/1999/xlink">
<g id="graph0" class="graph" transform="scale(1 1) rotate(0) translate(4 176)">
<title>IG.Num.LinearSolverBase</title>
<polygon fill="white" stroke="none" points="-4,4 -4,-176 345,-176 345,4 -4,4"/>
<!-- Node1 -->
<g id="node1" class="node"><title>Node1</title>
<g id="a_node1"><a xlink:title=" ">
<polygon fill="#bfbfbf" stroke="black" points="0,-76.5 0,-95.5 128,-95.5 128,-76.5 0,-76.5"/>
<text text-anchor="middle" x="64" y="-83.5" font-family="Helvetica,sans-Serif" font-size="10.00">IG.Num.LinearSolverBase</text>
</a>
</g>
</g>
<!-- Node2 -->
<g id="node2" class="node"><title>Node2</title>
<g id="a_node2"><a xlink:href="../../df/de1/classIG_1_1Num_1_1CholeskyDecomposition.html" target="_top" xlink:title="Cholesky decomposition of a matrix. Available for symmetric positive definite matrices.">
<polygon fill="white" stroke="black" points="173.5,-152.5 173.5,-171.5 331.5,-171.5 331.5,-152.5 173.5,-152.5"/>
<text text-anchor="middle" x="252.5" y="-159.5" font-family="Helvetica,sans-Serif" font-size="10.00">IG.Num.CholeskyDecomposition</text>
</a>
</g>
</g>
<!-- Node1&#45;&gt;Node2 -->
<g id="edge1" class="edge"><title>Node1&#45;&gt;Node2</title>
<path fill="none" stroke="midnightblue" d="M86.8395,-101.223C106.27,-114.106 135.885,-132.156 164,-143 173.862,-146.804 184.659,-149.928 195.198,-152.464"/>
<polygon fill="midnightblue" stroke="midnightblue" points="88.6669,-98.2339 78.4202,-95.5402 84.7506,-104.036 88.6669,-98.2339"/>
</g>
<!-- Node3 -->
<g id="node3" class="node"><title>Node3</title>
<g id="a_node3"><a xlink:href="../../dd/d87/classIG_1_1Num_1_1EigenValueDecomposition.html" target="_top" xlink:title="Eigenvalue decomposition of a matrix.">
<polygon fill="white" stroke="black" points="169,-114.5 169,-133.5 336,-133.5 336,-114.5 169,-114.5"/>
<text text-anchor="middle" x="252.5" y="-121.5" font-family="Helvetica,sans-Serif" font-size="10.00">IG.Num.EigenValueDecomposition</text>
</a>
</g>
</g>
<!-- Node1&#45;&gt;Node3 -->
<g id="edge2" class="edge"><title>Node1&#45;&gt;Node3</title>
<path fill="none" stroke="midnightblue" d="M121.978,-97.6095C148.503,-103.014 179.666,-109.364 204.777,-114.48"/>
<polygon fill="midnightblue" stroke="midnightblue" points="122.559,-94.1561 112.062,-95.589 121.162,-101.015 122.559,-94.1561"/>
</g>
<!-- Node4 -->
<g id="node4" class="node"><title>Node4</title>
<g id="a_node4"><a xlink:href="../../db/dc0/classIG_1_1Num_1_1LUDecomposition.html" target="_top" xlink:title="LU decomposition of a matrix.">
<polygon fill="white" stroke="black" points="188,-76.5 188,-95.5 317,-95.5 317,-76.5 188,-76.5"/>
<text text-anchor="middle" x="252.5" y="-83.5" font-family="Helvetica,sans-Serif" font-size="10.00">IG.Num.LUDecomposition</text>
</a>
</g>
</g>
<!-- Node1&#45;&gt;Node4 -->
<g id="edge3" class="edge"><title>Node1&#45;&gt;Node4</title>
<path fill="none" stroke="midnightblue" d="M138.208,-86C154.587,-86 171.832,-86 187.79,-86"/>
<polygon fill="midnightblue" stroke="midnightblue" points="138.14,-82.5001 128.14,-86 138.14,-89.5001 138.14,-82.5001"/>
</g>
<!-- Node5 -->
<g id="node5" class="node"><title>Node5</title>
<g id="a_node5"><a xlink:href="../../d3/d52/classIG_1_1Num_1_1QRDecomposition.html" target="_top" xlink:title="QR decomposition of a matrix.">
<polygon fill="white" stroke="black" points="187,-38.5 187,-57.5 318,-57.5 318,-38.5 187,-38.5"/>
<text text-anchor="middle" x="252.5" y="-45.5" font-family="Helvetica,sans-Serif" font-size="10.00">IG.Num.QRDecomposition</text>
</a>
</g>
</g>
<!-- Node1&#45;&gt;Node5 -->
<g id="edge4" class="edge"><title>Node1&#45;&gt;Node5</title>
<path fill="none" stroke="midnightblue" d="M121.978,-74.3905C148.503,-68.986 179.666,-62.6365 204.777,-57.5201"/>
<polygon fill="midnightblue" stroke="midnightblue" points="121.162,-70.9849 112.062,-76.411 122.559,-77.8439 121.162,-70.9849"/>
</g>
<!-- Node6 -->
<g id="node6" class="node"><title>Node6</title>
<g id="a_node6"><a xlink:href="../../d5/de5/classIG_1_1Num_1_1SingularValueDecomposition.html" target="_top" xlink:title="Singular value decomposition of a matrix.">
<polygon fill="white" stroke="black" points="164,-0.5 164,-19.5 341,-19.5 341,-0.5 164,-0.5"/>
<text text-anchor="middle" x="252.5" y="-7.5" font-family="Helvetica,sans-Serif" font-size="10.00">IG.Num.SingularValueDecomposition</text>
</a>
</g>
</g>
<!-- Node1&#45;&gt;Node6 -->
<g id="edge5" class="edge"><title>Node1&#45;&gt;Node6</title>
<path fill="none" stroke="midnightblue" d="M86.8395,-70.7769C106.27,-57.894 135.885,-39.8437 164,-29 173.862,-25.1961 184.659,-22.0725 195.198,-19.5361"/>
<polygon fill="midnightblue" stroke="midnightblue" points="84.7506,-67.9641 78.4202,-76.4598 88.6669,-73.7661 84.7506,-67.9641"/>
</g>
</g>
</svg>
