<?xml version="1.0" encoding="UTF-8" standalone="no"?>
<!DOCTYPE svg PUBLIC "-//W3C//DTD SVG 1.1//EN"
 "http://www.w3.org/Graphics/SVG/1.1/DTD/svg11.dtd">
<!-- Generated by graphviz version 2.38.0 (20140413.2041)
 -->
<!-- Title: IG.Lib.RealFunctionLoader Pages: 1 -->
<svg width="415pt" height="195pt"
 viewBox="0.00 0.00 415.00 195.00" xmlns="http://www.w3.org/2000/svg" xmlns:xlink="http://www.w3.org/1999/xlink">
<g id="graph0" class="graph" transform="scale(1 1) rotate(0) translate(4 191)">
<title>IG.Lib.RealFunctionLoader</title>
<polygon fill="white" stroke="none" points="-4,4 -4,-191 411,-191 411,4 -4,4"/>
<!-- Node1 -->
<g id="node1" class="node"><title>Node1</title>
<g id="a_node1"><a xlink:title="Dynamically generates IRealFunction classes from user definitions. User can define in string form how...">
<polygon fill="#bfbfbf" stroke="black" points="4.5,-0.5 4.5,-19.5 135.5,-19.5 135.5,-0.5 4.5,-0.5"/>
<text text-anchor="middle" x="70" y="-7.5" font-family="Helvetica,sans-Serif" font-size="10.00">IG.Lib.RealFunctionLoader</text>
</a>
</g>
</g>
<!-- Node2 -->
<g id="node2" class="node"><title>Node2</title>
<g id="a_node2"><a xlink:href="../../d3/db6/interfaceIG_1_1Lib_1_1ILockable.html" target="_top" xlink:title="Lockable object, has a Lock property that returns object on which lock must be performed in order to ...">
<polygon fill="white" stroke="black" points="0,-167.5 0,-186.5 58,-186.5 58,-167.5 0,-167.5"/>
<text text-anchor="middle" x="29" y="-174.5" font-family="Helvetica,sans-Serif" font-size="10.00">ILockable</text>
</a>
</g>
</g>
<!-- Node2&#45;&gt;Node1 -->
<g id="edge1" class="edge"><title>Node2&#45;&gt;Node1</title>
<path fill="none" stroke="midnightblue" d="M33.7102,-157.044C42.604,-121.252 61.5453,-45.025 67.8838,-19.5165"/>
<polygon fill="midnightblue" stroke="midnightblue" points="30.2192,-156.58 31.2043,-167.129 37.0126,-158.268 30.2192,-156.58"/>
</g>
<!-- Node3 -->
<g id="node3" class="node"><title>Node3</title>
<g id="a_node3"><a xlink:href="../../d3/d40/classIG_1_1Lib_1_1ScriptLoaderBase.html" target="_top" xlink:title="Dynamically compiles, loads and instantiates classes of type ILoadableScript from files or from strin...">
<polygon fill="white" stroke="black" points="71,-67.5 71,-86.5 193,-86.5 193,-67.5 71,-67.5"/>
<text text-anchor="middle" x="132" y="-74.5" font-family="Helvetica,sans-Serif" font-size="10.00">IG.Lib.ScriptLoaderBase</text>
</a>
</g>
</g>
<!-- Node2&#45;&gt;Node3 -->
<g id="edge3" class="edge"><title>Node2&#45;&gt;Node3</title>
<path fill="none" stroke="midnightblue" d="M45.4435,-160.355C67.4489,-139.418 105.709,-103.015 123.027,-86.5374"/>
<polygon fill="midnightblue" stroke="midnightblue" points="42.9727,-157.874 38.1406,-167.303 47.7979,-162.946 42.9727,-157.874"/>
</g>
<!-- Node3&#45;&gt;Node1 -->
<g id="edge2" class="edge"><title>Node3&#45;&gt;Node1</title>
<path fill="none" stroke="#9a32cd" stroke-dasharray="5,2" d="M116.735,-59.9968C104.577,-47.2496 88.0226,-29.8947 78.2291,-19.6273"/>
<polygon fill="#9a32cd" stroke="#9a32cd" points="114.204,-62.4134 123.638,-67.2338 119.269,-57.582 114.204,-62.4134"/>
<text text-anchor="middle" x="122.5" y="-41" font-family="Helvetica,sans-Serif" font-size="10.00"> _loader</text>
</g>
<!-- Node4 -->
<g id="node4" class="node"><title>Node4</title>
<g id="a_node4"><a xlink:href="../../d7/d66/interfaceIG_1_1Lib_1_1ILoadableScript.html" target="_top" xlink:title="Interface for classes that can be dynamically loadeded from scripts and run, which provides functiona...">
<polygon fill="white" stroke="black" points="76,-167.5 76,-186.5 188,-186.5 188,-167.5 76,-167.5"/>
<text text-anchor="middle" x="132" y="-174.5" font-family="Helvetica,sans-Serif" font-size="10.00">IG.Lib.ILoadableScript</text>
</a>
</g>
</g>
<!-- Node4&#45;&gt;Node3 -->
<g id="edge4" class="edge"><title>Node4&#45;&gt;Node3</title>
<path fill="none" stroke="#9a32cd" stroke-dasharray="5,2" d="M132,-157.22C132,-135.951 132,-102.22 132,-86.5374"/>
<polygon fill="#9a32cd" stroke="#9a32cd" points="128.5,-157.303 132,-167.303 135.5,-157.303 128.5,-157.303"/>
<text text-anchor="middle" x="169" y="-124.5" font-family="Helvetica,sans-Serif" font-size="10.00"> _runnableObject</text>
</g>
<!-- Node5 -->
<g id="node5" class="node"><title>Node5</title>
<g id="a_node5"><a xlink:href="../../d7/df0/classIG_1_1Lib_1_1Logger.html" target="_top" xlink:title="Temporary logging of errors, warnings and infos for later processing. It is used to log multiple even...">
<polygon fill="white" stroke="black" points="206,-167.5 206,-186.5 280,-186.5 280,-167.5 206,-167.5"/>
<text text-anchor="middle" x="243" y="-174.5" font-family="Helvetica,sans-Serif" font-size="10.00">IG.Lib.Logger</text>
</a>
</g>
</g>
<!-- Node5&#45;&gt;Node3 -->
<g id="edge5" class="edge"><title>Node5&#45;&gt;Node3</title>
<path fill="none" stroke="#9a32cd" stroke-dasharray="5,2" d="M238.746,-157.459C234.179,-141.503 225.41,-118.915 210,-105 200.534,-96.4525 188.223,-90.5848 176.188,-86.5667"/>
<polygon fill="#9a32cd" stroke="#9a32cd" points="235.386,-158.445 241.266,-167.258 242.165,-156.701 235.386,-158.445"/>
<text text-anchor="middle" x="253.5" y="-124.5" font-family="Helvetica,sans-Serif" font-size="10.00"> _logger</text>
</g>
<!-- Node6 -->
<g id="node6" class="node"><title>Node6</title>
<g id="a_node6"><a xlink:title=" ">
<polygon fill="white" stroke="#bfbfbf" points="298.5,-167.5 298.5,-186.5 339.5,-186.5 339.5,-167.5 298.5,-167.5"/>
<text text-anchor="middle" x="319" y="-174.5" font-family="Helvetica,sans-Serif" font-size="10.00">static</text>
</a>
</g>
</g>
<!-- Node6&#45;&gt;Node3 -->
<g id="edge6" class="edge"><title>Node6&#45;&gt;Node3</title>
<path fill="none" stroke="#9a32cd" stroke-dasharray="5,2" d="M312.625,-157.777C305.89,-141.321 293.637,-117.786 275,-105 261.615,-95.8167 225.637,-89.0498 193.12,-84.5872"/>
<polygon fill="#9a32cd" stroke="#9a32cd" points="309.449,-159.273 316.265,-167.384 315.995,-156.793 309.449,-159.273"/>
<text text-anchor="middle" x="358" y="-141" font-family="Helvetica,sans-Serif" font-size="10.00"> _isScriptingInitialized</text>
<text text-anchor="middle" x="358" y="-130" font-family="Helvetica,sans-Serif" font-size="10.00">_usedClassFullNames</text>
<text text-anchor="middle" x="358" y="-119" font-family="Helvetica,sans-Serif" font-size="10.00">_global</text>
<text text-anchor="middle" x="358" y="-108" font-family="Helvetica,sans-Serif" font-size="10.00">_defaultAssemblies</text>
</g>
</g>
</svg>
