<?xml version="1.0" encoding="UTF-8" standalone="no"?>
<!DOCTYPE svg PUBLIC "-//W3C//DTD SVG 1.1//EN"
 "http://www.w3.org/Graphics/SVG/1.1/DTD/svg11.dtd">
<!-- Generated by graphviz version 2.38.0 (20140413.2041)
 -->
<!-- Title: IG.Num.IRealFunctionOneParametric Pages: 1 -->
<svg width="203pt" height="196pt"
 viewBox="0.00 0.00 203.00 196.00" xmlns="http://www.w3.org/2000/svg" xmlns:xlink="http://www.w3.org/1999/xlink">
<g id="graph0" class="graph" transform="scale(1 1) rotate(0) translate(4 192)">
<title>IG.Num.IRealFunctionOneParametric</title>
<polygon fill="white" stroke="none" points="-4,4 -4,-192 199,-192 199,4 -4,4"/>
<!-- Node1 -->
<g id="node1" class="node"><title>Node1</title>
<g id="a_node1"><a xlink:title="Parameterized real&#45;valued functions of single variable.">
<polygon fill="#bfbfbf" stroke="black" points="0,-56.5 0,-75.5 177,-75.5 177,-56.5 0,-56.5"/>
<text text-anchor="middle" x="88.5" y="-63.5" font-family="Helvetica,sans-Serif" font-size="10.00">IG.Num.IRealFunctionOneParametric</text>
</a>
</g>
</g>
<!-- Node4 -->
<g id="node4" class="node"><title>Node4</title>
<g id="a_node4"><a xlink:href="../../d0/d78/classIG_1_1Num_1_1RealFunctionOneParametric.html" target="_top" xlink:title="Base class for one parametric families of real&#45;valued functions of single variable....">
<polygon fill="white" stroke="black" points="1,-0.5 1,-19.5 176,-19.5 176,-0.5 1,-0.5"/>
<text text-anchor="middle" x="88.5" y="-7.5" font-family="Helvetica,sans-Serif" font-size="10.00">IG.Num.RealFunctionOneParametric</text>
</a>
</g>
</g>
<!-- Node1&#45;&gt;Node4 -->
<g id="edge4" class="edge"><title>Node1&#45;&gt;Node4</title>
<path fill="none" stroke="midnightblue" d="M88.5,-45.8045C88.5,-36.9102 88.5,-26.7798 88.5,-19.7511"/>
<polygon fill="midnightblue" stroke="midnightblue" points="85.0001,-46.083 88.5,-56.083 92.0001,-46.083 85.0001,-46.083"/>
</g>
<!-- Node2 -->
<g id="node2" class="node"><title>Node2</title>
<g id="a_node2"><a xlink:href="../../d1/dfb/interfaceIG_1_1Num_1_1IRealFunctionParametric.html" target="_top" xlink:title="Parameterized real&#45;valued functions of single variable.">
<polygon fill="white" stroke="black" points="72,-112.5 72,-131.5 195,-131.5 195,-112.5 72,-112.5"/>
<text text-anchor="middle" x="133.5" y="-119.5" font-family="Helvetica,sans-Serif" font-size="10.00">IRealFunctionParametric</text>
</a>
</g>
</g>
<!-- Node2&#45;&gt;Node1 -->
<g id="edge1" class="edge"><title>Node2&#45;&gt;Node1</title>
<path fill="none" stroke="midnightblue" d="M119.453,-104.144C111.613,-94.7357 102.171,-83.4046 95.7926,-75.7511"/>
<polygon fill="midnightblue" stroke="midnightblue" points="116.979,-106.641 126.069,-112.083 122.356,-102.16 116.979,-106.641"/>
</g>
<!-- Node3 -->
<g id="node3" class="node"><title>Node3</title>
<g id="a_node3"><a xlink:href="../../db/d0e/interfaceIG_1_1Num_1_1IRealFunction.html" target="_top" xlink:title="Interface for real functions.">
<polygon fill="white" stroke="black" points="50.5,-168.5 50.5,-187.5 126.5,-187.5 126.5,-168.5 50.5,-168.5"/>
<text text-anchor="middle" x="88.5" y="-175.5" font-family="Helvetica,sans-Serif" font-size="10.00">IRealFunction</text>
</a>
</g>
</g>
<!-- Node3&#45;&gt;Node1 -->
<g id="edge3" class="edge"><title>Node3&#45;&gt;Node1</title>
<path fill="none" stroke="midnightblue" d="M76.2585,-159.834C71.2526,-151.788 66.0459,-141.825 63.5,-132 58.1016,-111.167 72.2968,-87.8799 81.4482,-75.6235"/>
<polygon fill="midnightblue" stroke="midnightblue" points="73.4196,-161.886 81.8713,-168.275 79.2486,-158.01 73.4196,-161.886"/>
</g>
<!-- Node3&#45;&gt;Node2 -->
<g id="edge2" class="edge"><title>Node3&#45;&gt;Node2</title>
<path fill="none" stroke="midnightblue" d="M102.547,-160.144C110.387,-150.736 119.829,-139.405 126.207,-131.751"/>
<polygon fill="midnightblue" stroke="midnightblue" points="99.6439,-158.16 95.9308,-168.083 105.021,-162.641 99.6439,-158.16"/>
</g>
</g>
</svg>
