<?xml version="1.0" encoding="UTF-8" standalone="no"?>
<!DOCTYPE svg PUBLIC "-//W3C//DTD SVG 1.1//EN"
 "http://www.w3.org/Graphics/SVG/1.1/DTD/svg11.dtd">
<!-- Generated by graphviz version 2.38.0 (20140413.2041)
 -->
<!-- Title: IG.Lib.WaitFileEventLatenceBase Pages: 1 -->
<svg width="817pt" height="185pt"
 viewBox="0.00 0.00 817.00 184.85" xmlns="http://www.w3.org/2000/svg" xmlns:xlink="http://www.w3.org/1999/xlink">
<g id="graph0" class="graph" transform="scale(1 1) rotate(0) translate(4 180.848)">
<title>IG.Lib.WaitFileEventLatenceBase</title>
<polygon fill="white" stroke="none" points="-4,4 -4,-180.848 813,-180.848 813,4 -4,4"/>
<!-- Node1 -->
<g id="node1" class="node"><title>Node1</title>
<g id="a_node1"><a xlink:title="Base class for classes that impelement methods that block until a file or directory is created or del...">
<polygon fill="#bfbfbf" stroke="black" points="459,-60.5 459,-79.5 621,-79.5 621,-60.5 459,-60.5"/>
<text text-anchor="middle" x="540" y="-67.5" font-family="Helvetica,sans-Serif" font-size="10.00">IG.Lib.WaitFileEventLatenceBase</text>
</a>
</g>
</g>
<!-- Node7 -->
<g id="node7" class="node"><title>Node7</title>
<g id="a_node7"><a xlink:href="../../d9/d6b/classIG_1_1Lib_1_1WaitDirectoryCreationLatence.html" target="_top" xlink:title="Implements blocking until the specified directory is created (becomes existent). Directory is specifi...">
<polygon fill="white" stroke="black" points="663,-126 663,-156 803,-156 803,-126 663,-126"/>
<text text-anchor="start" x="671" y="-144" font-family="Helvetica,sans-Serif" font-size="10.00">IG.Lib.WaitDirectoryCreation</text>
<text text-anchor="middle" x="733" y="-133" font-family="Helvetica,sans-Serif" font-size="10.00">Latence</text>
</a>
</g>
</g>
<!-- Node1&#45;&gt;Node7 -->
<g id="edge12" class="edge"><title>Node1&#45;&gt;Node7</title>
<path fill="none" stroke="midnightblue" d="M573.316,-83.3752C596.484,-92.8268 628.505,-105.61 657,-116 666.155,-119.338 676.001,-122.748 685.45,-125.932"/>
<polygon fill="midnightblue" stroke="midnightblue" points="574.545,-80.0966 563.964,-79.5452 571.892,-86.5743 574.545,-80.0966"/>
</g>
<!-- Node8 -->
<g id="node8" class="node"><title>Node8</title>
<g id="a_node8"><a xlink:href="../../d2/dcb/classIG_1_1Lib_1_1WaitDirectoryRemovalLatence.html" target="_top" xlink:title="Implements blocking until the specified directory is deleted (becomes nonexistent)....">
<polygon fill="white" stroke="black" points="662.5,-77 662.5,-107 803.5,-107 803.5,-77 662.5,-77"/>
<text text-anchor="start" x="670.5" y="-95" font-family="Helvetica,sans-Serif" font-size="10.00">IG.Lib.WaitDirectoryRemoval</text>
<text text-anchor="middle" x="733" y="-84" font-family="Helvetica,sans-Serif" font-size="10.00">Latence</text>
</a>
</g>
</g>
<!-- Node1&#45;&gt;Node8 -->
<g id="edge13" class="edge"><title>Node1&#45;&gt;Node8</title>
<path fill="none" stroke="midnightblue" d="M631.17,-80.386C641.643,-81.5924 652.202,-82.8086 662.341,-83.9764"/>
<polygon fill="midnightblue" stroke="midnightblue" points="631.506,-76.9017 621.171,-79.2344 630.705,-83.8557 631.506,-76.9017"/>
</g>
<!-- Node9 -->
<g id="node9" class="node"><title>Node9</title>
<g id="a_node9"><a xlink:href="../../d1/de2/classIG_1_1Lib_1_1WaitFileCreationLatence.html" target="_top" xlink:title="Implements blocking until the specified file is created (becomes existent). File is specified in cons...">
<polygon fill="white" stroke="black" points="657,-38.5 657,-57.5 809,-57.5 809,-38.5 657,-38.5"/>
<text text-anchor="middle" x="733" y="-45.5" font-family="Helvetica,sans-Serif" font-size="10.00">IG.Lib.WaitFileCreationLatence</text>
</a>
</g>
</g>
<!-- Node1&#45;&gt;Node9 -->
<g id="edge14" class="edge"><title>Node1&#45;&gt;Node9</title>
<path fill="none" stroke="midnightblue" d="M631.223,-59.6079C639.822,-58.6174 648.479,-57.6203 656.912,-56.6489"/>
<polygon fill="midnightblue" stroke="midnightblue" points="630.705,-56.1443 621.171,-60.7656 631.506,-63.0983 630.705,-56.1443"/>
</g>
<!-- Node10 -->
<g id="node10" class="node"><title>Node10</title>
<g id="a_node10"><a xlink:href="../../d2/d57/classIG_1_1Lib_1_1WaitFileRemovalLatence.html" target="_top" xlink:title="Implements blocking until the specified file is deleted (becomes nonexistent). File is specified in c...">
<polygon fill="white" stroke="black" points="657,-0.5 657,-19.5 809,-19.5 809,-0.5 657,-0.5"/>
<text text-anchor="middle" x="733" y="-7.5" font-family="Helvetica,sans-Serif" font-size="10.00">IG.Lib.WaitFileRemovalLatence</text>
</a>
</g>
</g>
<!-- Node1&#45;&gt;Node10 -->
<g id="edge15" class="edge"><title>Node1&#45;&gt;Node10</title>
<path fill="none" stroke="midnightblue" d="M575.74,-56.7827C598.643,-48.3022 629.397,-37.3553 657,-29 668.056,-25.6533 680.148,-22.411 691.332,-19.5805"/>
<polygon fill="midnightblue" stroke="midnightblue" points="574.27,-53.5953 566.124,-60.3691 576.716,-60.154 574.27,-53.5953"/>
</g>
<!-- Node2 -->
<g id="node2" class="node"><title>Node2</title>
<g id="a_node2"><a xlink:href="../../da/d67/classIG_1_1Lib_1_1WaitCondition.html" target="_top" xlink:title="Provides a framework for blocking execution until the specified condition becomes satisfied....">
<polygon fill="white" stroke="black" points="346,-117.5 346,-136.5 423,-136.5 423,-117.5 346,-117.5"/>
<text text-anchor="middle" x="384.5" y="-124.5" font-family="Helvetica,sans-Serif" font-size="10.00">WaitCondition</text>
</a>
</g>
</g>
<!-- Node2&#45;&gt;Node1 -->
<g id="edge1" class="edge"><title>Node2&#45;&gt;Node1</title>
<path fill="none" stroke="midnightblue" d="M420.685,-113.935C448.9,-103.457 487.847,-88.9949 513.224,-79.5716"/>
<polygon fill="midnightblue" stroke="midnightblue" points="419.349,-110.697 411.192,-117.459 421.785,-117.259 419.349,-110.697"/>
</g>
<!-- Node3 -->
<g id="node3" class="node"><title>Node3</title>
<g id="a_node3"><a xlink:href="../../df/dea/classIG_1_1Lib_1_1WaitConditionBase.html" target="_top" xlink:title="Base class for objects that perform waiting until a condition is fulfilled.">
<polygon fill="white" stroke="black" points="210,-136.5 210,-155.5 310,-155.5 310,-136.5 210,-136.5"/>
<text text-anchor="middle" x="260" y="-143.5" font-family="Helvetica,sans-Serif" font-size="10.00">WaitConditionBase</text>
</a>
</g>
</g>
<!-- Node3&#45;&gt;Node2 -->
<g id="edge2" class="edge"><title>Node3&#45;&gt;Node2</title>
<path fill="none" stroke="midnightblue" d="M320.225,-136.814C328.889,-135.47 337.608,-134.118 345.686,-132.865"/>
<polygon fill="midnightblue" stroke="midnightblue" points="319.465,-133.39 310.12,-138.381 320.538,-140.307 319.465,-133.39"/>
</g>
<!-- Node4 -->
<g id="node4" class="node"><title>Node4</title>
<g id="a_node4"><a xlink:href="../../de/d1e/interfaceIG_1_1Lib_1_1IWaitCondition.html" target="_top" xlink:title="Interface for classes that implement blocking until a specified condition is met.">
<polygon fill="white" stroke="black" points="94,-98.5 94,-117.5 174,-117.5 174,-98.5 94,-98.5"/>
<text text-anchor="middle" x="134" y="-105.5" font-family="Helvetica,sans-Serif" font-size="10.00">IWaitCondition</text>
</a>
</g>
</g>
<!-- Node4&#45;&gt;Node1 -->
<g id="edge11" class="edge"><title>Node4&#45;&gt;Node1</title>
<path fill="none" stroke="midnightblue" d="M184.161,-103.376C252.428,-96.9548 376.753,-85.2609 458.62,-77.5605"/>
<polygon fill="midnightblue" stroke="midnightblue" points="183.733,-99.9007 174.104,-104.322 184.388,-106.87 183.733,-99.9007"/>
</g>
<!-- Node4&#45;&gt;Node2 -->
<g id="edge6" class="edge"><title>Node4&#45;&gt;Node2</title>
<path fill="none" stroke="midnightblue" d="M184.163,-111.759C231.684,-115.392 302.653,-120.819 345.847,-124.121"/>
<polygon fill="midnightblue" stroke="midnightblue" points="184.339,-108.262 174.101,-110.99 183.806,-115.242 184.339,-108.262"/>
</g>
<!-- Node4&#45;&gt;Node3 -->
<g id="edge3" class="edge"><title>Node4&#45;&gt;Node3</title>
<path fill="none" stroke="midnightblue" d="M175.905,-120.535C192.773,-125.705 212.008,-131.599 227.72,-136.414"/>
<polygon fill="midnightblue" stroke="midnightblue" points="176.877,-117.173 166.29,-117.589 174.826,-123.865 176.877,-117.173"/>
</g>
<!-- Node6 -->
<g id="node6" class="node"><title>Node6</title>
<g id="a_node6"><a xlink:href="../../d2/d48/interfaceIG_1_1Lib_1_1IWaitFileEvent.html" target="_top" xlink:title="Interface for classes that provide waiting for specific file events (such as ceration or deletion of ...">
<polygon fill="white" stroke="black" points="220.5,-22.5 220.5,-41.5 299.5,-41.5 299.5,-22.5 220.5,-22.5"/>
<text text-anchor="middle" x="260" y="-29.5" font-family="Helvetica,sans-Serif" font-size="10.00">IWaitFileEvent</text>
</a>
</g>
</g>
<!-- Node4&#45;&gt;Node6 -->
<g id="edge9" class="edge"><title>Node4&#45;&gt;Node6</title>
<path fill="none" stroke="midnightblue" d="M156.001,-92.1658C170.735,-81.3766 191.103,-67.0933 210,-56 218.822,-50.8208 228.922,-45.74 237.651,-41.5965"/>
<polygon fill="midnightblue" stroke="midnightblue" points="153.572,-89.609 147.618,-98.3723 157.737,-95.2349 153.572,-89.609"/>
</g>
<!-- Node5 -->
<g id="node5" class="node"><title>Node5</title>
<g id="a_node5"><a xlink:href="../../d3/db6/interfaceIG_1_1Lib_1_1ILockable.html" target="_top" xlink:title="Lockable object, has a Lock property that returns object on which lock must be performed in order to ...">
<polygon fill="white" stroke="black" points="0,-117.5 0,-136.5 58,-136.5 58,-117.5 0,-117.5"/>
<text text-anchor="middle" x="29" y="-124.5" font-family="Helvetica,sans-Serif" font-size="10.00">ILockable</text>
</a>
</g>
</g>
<!-- Node5&#45;&gt;Node2 -->
<g id="edge7" class="edge"><title>Node5&#45;&gt;Node2</title>
<path fill="none" stroke="midnightblue" d="M62.3077,-140.146C72.3276,-143.805 83.4982,-147.466 94,-150 187.546,-172.575 216.495,-187.742 310,-165 332.472,-159.534 355.75,-145.914 369.931,-136.557"/>
<polygon fill="midnightblue" stroke="midnightblue" points="63.3306,-136.791 52.739,-136.53 60.8562,-143.339 63.3306,-136.791"/>
</g>
<!-- Node5&#45;&gt;Node3 -->
<g id="edge5" class="edge"><title>Node5&#45;&gt;Node3</title>
<path fill="none" stroke="midnightblue" d="M68.4409,-130.189C107.297,-133.413 167.488,-138.407 209.803,-141.918"/>
<polygon fill="midnightblue" stroke="midnightblue" points="68.3351,-126.669 58.0799,-129.33 67.7562,-133.645 68.3351,-126.669"/>
</g>
<!-- Node5&#45;&gt;Node4 -->
<g id="edge4" class="edge"><title>Node5&#45;&gt;Node4</title>
<path fill="none" stroke="midnightblue" d="M68.0328,-119.984C76.3997,-118.441 85.2767,-116.803 93.6928,-115.251"/>
<polygon fill="midnightblue" stroke="midnightblue" points="67.3443,-116.552 58.1452,-121.808 68.6142,-123.436 67.3443,-116.552"/>
</g>
<!-- Node5&#45;&gt;Node6 -->
<g id="edge10" class="edge"><title>Node5&#45;&gt;Node6</title>
<path fill="none" stroke="midnightblue" d="M52.7514,-111.954C64.7105,-104.445 79.8006,-95.5847 94,-89 137.854,-68.6636 191.112,-51.5416 225.033,-41.5229"/>
<polygon fill="midnightblue" stroke="midnightblue" points="50.82,-109.035 44.2831,-117.372 54.5928,-114.931 50.82,-109.035"/>
</g>
<!-- Node6&#45;&gt;Node1 -->
<g id="edge8" class="edge"><title>Node6&#45;&gt;Node1</title>
<path fill="none" stroke="midnightblue" d="M309.576,-38.6399C353.786,-44.683 419.558,-53.6734 469.359,-60.4807"/>
<polygon fill="midnightblue" stroke="midnightblue" points="310.037,-35.1704 299.655,-37.2837 309.089,-42.1059 310.037,-35.1704"/>
</g>
</g>
</svg>
