<?xml version="1.0" encoding="UTF-8" standalone="no"?>
<!DOCTYPE svg PUBLIC "-//W3C//DTD SVG 1.1//EN"
 "http://www.w3.org/Graphics/SVG/1.1/DTD/svg11.dtd">
<!-- Generated by graphviz version 2.38.0 (20140413.2041)
 -->
<!-- Title: IG.Lib.IWaitFileEvent Pages: 1 -->
<!--zoomable 415 -->
<svg id="main" version="1.1" xmlns="http://www.w3.org/2000/svg" xmlns:xlink="http://www.w3.org/1999/xlink" xml:space="preserve" onload="init(evt)">
<style type="text/css"><![CDATA[
.edge:hover path { stroke: red; }
.edge:hover polygon { stroke: red; fill: red; }
]]></style>
<script type="text/javascript"><![CDATA[
var edges = document.getElementsByTagName('g');
if (edges && edges.length) {
  for (var i=0;i<edges.length;i++) {
    if (edges[i].id.substr(0,4)=='edge') {
      edges[i].setAttribute('class','edge');
    }
  }
}
]]></script>
        <defs>
                <circle id="rim" cx="0" cy="0" r="7"/>
                <circle id="rim2" cx="0" cy="0" r="3.5"/>
                <g id="zoomPlus">
                        <use xlink:href="#rim" fill="#404040">
                                <set attributeName="fill" to="#808080" begin="zoomplus.mouseover" end="zoomplus.mouseout"/>
                        </use>
                        <path d="M-4,0h8M0,-4v8" fill="none" stroke="white" stroke-width="1.5" pointer-events="none"/>
                </g>
                <g id="zoomMin">
                        <use xlink:href="#rim" fill="#404040">
                                <set attributeName="fill" to="#808080" begin="zoomminus.mouseover" end="zoomminus.mouseout"/>
                        </use>
                        <path d="M-4,0h8" fill="none" stroke="white" stroke-width="1.5" pointer-events="none"/>
                </g>
                <g id="dirArrow">
                        <path fill="none" stroke="white" stroke-width="1.5" d="M0,-3.0v7 M-2.5,-0.5L0,-3.0L2.5,-0.5"/>
                </g>
               <g id="resetDef">
                       <use xlink:href="#rim2" fill="#404040">
                               <set attributeName="fill" to="#808080" begin="reset.mouseover" end="reset.mouseout"/>
                       </use>
               </g>
        </defs>

<script type="text/javascript">
var viewWidth = 888;
var viewHeight = 415;
var sectionId = 'dynsection-0';
</script>
<script xlink:href="../../svgpan.js"/>
<svg id="graph" class="graph">
<g id="viewport">
<title>IG.Lib.IWaitFileEvent</title>
<polygon fill="white" stroke="none" points="-4,4 -4,-411 884,-411 884,4 -4,4"/>
<!-- Node1 -->
<g id="node1" class="node"><title>Node1</title>
<g id="a_node1"><a xlink:title="Interface for classes that provide waiting for specific file events (such as ceration or deletion of ...">
<polygon fill="#bfbfbf" stroke="black" points="210,-180.5 210,-199.5 317,-199.5 317,-180.5 210,-180.5"/>
<text text-anchor="middle" x="263.5" y="-187.5" font-family="Helvetica,sans-Serif" font-size="10.00">IG.Lib.IWaitFileEvent</text>
</a>
</g>
</g>
<!-- Node4 -->
<g id="node4" class="node"><title>Node4</title>
<g id="a_node4"><a xlink:href="../../d5/d42/classIG_1_1Lib_1_1WaitFileEventBase.html" target="_top" xlink:title="Base class for classes that provide blocking until a file or directory is created/removed.">
<polygon fill="white" stroke="black" points="370,-286.5 370,-305.5 498,-305.5 498,-286.5 370,-286.5"/>
<text text-anchor="middle" x="434" y="-293.5" font-family="Helvetica,sans-Serif" font-size="10.00">IG.Lib.WaitFileEventBase</text>
</a>
</g>
</g>
<!-- Node1&#45;&gt;Node4 -->
<g id="edge4" class="edge"><title>Node1&#45;&gt;Node4</title>
<path fill="none" stroke="midnightblue" d="M288.4,-205.035C323.457,-227.088 387.856,-267.601 417.418,-286.198"/>
<polygon fill="midnightblue" stroke="midnightblue" points="290.079,-201.956 279.75,-199.594 286.351,-207.881 290.079,-201.956"/>
</g>
<!-- Node10 -->
<g id="node10" class="node"><title>Node10</title>
<g id="a_node10"><a xlink:href="../../dd/d05/classIG_1_1Lib_1_1WaitFileEventBaseByProxy.html" target="_top" xlink:title="Base class for classes that provide blocking until a file or directory is created/removed....">
<polygon fill="white" stroke="black" points="563,-175 563,-205 691,-205 691,-175 563,-175"/>
<text text-anchor="start" x="571" y="-193" font-family="Helvetica,sans-Serif" font-size="10.00">IG.Lib.WaitFileEventBase</text>
<text text-anchor="middle" x="627" y="-182" font-family="Helvetica,sans-Serif" font-size="10.00">ByProxy</text>
</a>
</g>
</g>
<!-- Node1&#45;&gt;Node10 -->
<g id="edge10" class="edge"><title>Node1&#45;&gt;Node10</title>
<path fill="none" stroke="midnightblue" d="M327.392,-191.596C335.997,-191.764 344.716,-191.906 353,-192 424.995,-192.813 443.003,-192.649 515,-192 530.515,-191.86 547.248,-191.611 562.899,-191.334"/>
<polygon fill="midnightblue" stroke="midnightblue" points="327.448,-188.097 317.378,-191.39 327.304,-195.095 327.448,-188.097"/>
</g>
<!-- Node15 -->
<g id="node15" class="node"><title>Node15</title>
<g id="a_node15"><a xlink:href="../../df/d44/classIG_1_1Lib_1_1WaitFileEventBaseByProxyLatence.html" target="_top" xlink:title="Base class for classes that provide blocking until a file or directory is created/removed....">
<polygon fill="white" stroke="black" points="370,-153 370,-183 498,-183 498,-153 370,-153"/>
<text text-anchor="start" x="378" y="-171" font-family="Helvetica,sans-Serif" font-size="10.00">IG.Lib.WaitFileEventBase</text>
<text text-anchor="middle" x="434" y="-160" font-family="Helvetica,sans-Serif" font-size="10.00">ByProxyLatence</text>
</a>
</g>
</g>
<!-- Node1&#45;&gt;Node15 -->
<g id="edge15" class="edge"><title>Node1&#45;&gt;Node15</title>
<path fill="none" stroke="midnightblue" d="M327.331,-181.796C341.272,-179.976 356.052,-178.047 369.999,-176.226"/>
<polygon fill="midnightblue" stroke="midnightblue" points="326.815,-178.334 317.352,-183.099 327.721,-185.275 326.815,-178.334"/>
</g>
<!-- Node16 -->
<g id="node16" class="node"><title>Node16</title>
<g id="a_node16"><a xlink:href="../../d4/d27/classIG_1_1Lib_1_1WaitFileEventLatenceBase.html" target="_top" xlink:title="Base class for classes that impelement methods that block until a file or directory is created or del...">
<polygon fill="white" stroke="black" points="353,-82.5 353,-101.5 515,-101.5 515,-82.5 353,-82.5"/>
<text text-anchor="middle" x="434" y="-89.5" font-family="Helvetica,sans-Serif" font-size="10.00">IG.Lib.WaitFileEventLatenceBase</text>
</a>
</g>
</g>
<!-- Node1&#45;&gt;Node16 -->
<g id="edge17" class="edge"><title>Node1&#45;&gt;Node16</title>
<path fill="none" stroke="midnightblue" d="M290.054,-175.138C324.97,-154.831 386.621,-118.974 416.22,-101.759"/>
<polygon fill="midnightblue" stroke="midnightblue" points="287.848,-172.372 280.963,-180.425 291.367,-178.423 287.848,-172.372"/>
</g>
<!-- Node2 -->
<g id="node2" class="node"><title>Node2</title>
<g id="a_node2"><a xlink:href="../../de/d1e/interfaceIG_1_1Lib_1_1IWaitCondition.html" target="_top" xlink:title="Interface for classes that implement blocking until a specified condition is met.">
<polygon fill="white" stroke="black" points="94,-161.5 94,-180.5 174,-180.5 174,-161.5 94,-161.5"/>
<text text-anchor="middle" x="134" y="-168.5" font-family="Helvetica,sans-Serif" font-size="10.00">IWaitCondition</text>
</a>
</g>
</g>
<!-- Node2&#45;&gt;Node1 -->
<g id="edge1" class="edge"><title>Node2&#45;&gt;Node1</title>
<path fill="none" stroke="midnightblue" d="M184.325,-178.35C192.726,-179.602 201.48,-180.907 209.961,-182.171"/>
<polygon fill="midnightblue" stroke="midnightblue" points="184.701,-174.868 174.295,-176.856 183.669,-181.791 184.701,-174.868"/>
</g>
<!-- Node3 -->
<g id="node3" class="node"><title>Node3</title>
<g id="a_node3"><a xlink:href="../../d3/db6/interfaceIG_1_1Lib_1_1ILockable.html" target="_top" xlink:title="Lockable object, has a Lock property that returns object on which lock must be performed in order to ...">
<polygon fill="white" stroke="black" points="0,-180.5 0,-199.5 58,-199.5 58,-180.5 0,-180.5"/>
<text text-anchor="middle" x="29" y="-187.5" font-family="Helvetica,sans-Serif" font-size="10.00">ILockable</text>
</a>
</g>
</g>
<!-- Node3&#45;&gt;Node1 -->
<g id="edge3" class="edge"><title>Node3&#45;&gt;Node1</title>
<path fill="none" stroke="midnightblue" d="M68.3223,-190C106.863,-190 166.586,-190 209.622,-190"/>
<polygon fill="midnightblue" stroke="midnightblue" points="68.045,-186.5 58.0449,-190 68.0449,-193.5 68.045,-186.5"/>
</g>
<!-- Node3&#45;&gt;Node2 -->
<g id="edge2" class="edge"><title>Node3&#45;&gt;Node2</title>
<path fill="none" stroke="midnightblue" d="M68.0328,-182.984C76.3997,-181.441 85.2767,-179.803 93.6928,-178.251"/>
<polygon fill="midnightblue" stroke="midnightblue" points="67.3443,-179.552 58.1452,-184.808 68.6142,-186.436 67.3443,-179.552"/>
</g>
<!-- Node5 -->
<g id="node5" class="node"><title>Node5</title>
<g id="a_node5"><a xlink:href="../../d2/ddf/classIG_1_1Lib_1_1WaitFileEvent.html" target="_top" xlink:title="Concrete class derived from WaitFileEventBase. It does not have a meaningful unblocking condition (it...">
<polygon fill="white" stroke="black" points="574.5,-311.5 574.5,-330.5 679.5,-330.5 679.5,-311.5 574.5,-311.5"/>
<text text-anchor="middle" x="627" y="-318.5" font-family="Helvetica,sans-Serif" font-size="10.00">IG.Lib.WaitFileEvent</text>
</a>
</g>
</g>
<!-- Node4&#45;&gt;Node5 -->
<g id="edge5" class="edge"><title>Node4&#45;&gt;Node5</title>
<path fill="none" stroke="midnightblue" d="M508.097,-305.568C530.223,-308.464 554.048,-311.582 574.45,-314.253"/>
<polygon fill="midnightblue" stroke="midnightblue" points="508.44,-302.083 498.07,-304.255 507.531,-309.024 508.44,-302.083"/>
</g>
<!-- Node6 -->
<g id="node6" class="node"><title>Node6</title>
<g id="a_node6"><a xlink:href="../../d9/d46/classIG_1_1Lib_1_1WaitDirectoryCreation.html" target="_top" xlink:title="Blocking execution of the current thread until the specified directory begins to exist.">
<polygon fill="white" stroke="black" points="739.5,-387.5 739.5,-406.5 879.5,-406.5 879.5,-387.5 739.5,-387.5"/>
<text text-anchor="middle" x="809.5" y="-394.5" font-family="Helvetica,sans-Serif" font-size="10.00">IG.Lib.WaitDirectoryCreation</text>
</a>
</g>
</g>
<!-- Node5&#45;&gt;Node6 -->
<g id="edge6" class="edge"><title>Node5&#45;&gt;Node6</title>
<path fill="none" stroke="midnightblue" d="M652.769,-335.611C674.821,-348.156 708.257,-366.054 739,-378 748.211,-381.579 758.355,-384.759 767.98,-387.445"/>
<polygon fill="midnightblue" stroke="midnightblue" points="654.468,-332.551 644.056,-330.596 650.976,-338.618 654.468,-332.551"/>
</g>
<!-- Node7 -->
<g id="node7" class="node"><title>Node7</title>
<g id="a_node7"><a xlink:href="../../d3/da5/classIG_1_1Lib_1_1WaitDirectoryRemoval.html" target="_top" xlink:title="Blocking execution of the current thread until the specified directory ceases to exist.">
<polygon fill="white" stroke="black" points="739,-349.5 739,-368.5 880,-368.5 880,-349.5 739,-349.5"/>
<text text-anchor="middle" x="809.5" y="-356.5" font-family="Helvetica,sans-Serif" font-size="10.00">IG.Lib.WaitDirectoryRemoval</text>
</a>
</g>
</g>
<!-- Node5&#45;&gt;Node7 -->
<g id="edge7" class="edge"><title>Node5&#45;&gt;Node7</title>
<path fill="none" stroke="midnightblue" d="M683.485,-332.681C709.082,-338.07 739.084,-344.386 763.28,-349.48"/>
<polygon fill="midnightblue" stroke="midnightblue" points="684.054,-329.224 673.548,-330.589 682.612,-336.074 684.054,-329.224"/>
</g>
<!-- Node8 -->
<g id="node8" class="node"><title>Node8</title>
<g id="a_node8"><a xlink:href="../../d1/d1e/classIG_1_1Lib_1_1WaitFileCreation.html" target="_top" xlink:title="Blocking execution of the current thread until the specified file begins to exist.">
<polygon fill="white" stroke="black" points="751,-311.5 751,-330.5 868,-330.5 868,-311.5 751,-311.5"/>
<text text-anchor="middle" x="809.5" y="-318.5" font-family="Helvetica,sans-Serif" font-size="10.00">IG.Lib.WaitFileCreation</text>
</a>
</g>
</g>
<!-- Node5&#45;&gt;Node8 -->
<g id="edge8" class="edge"><title>Node5&#45;&gt;Node8</title>
<path fill="none" stroke="midnightblue" d="M689.835,-321C709.566,-321 731.314,-321 750.744,-321"/>
<polygon fill="midnightblue" stroke="midnightblue" points="689.724,-317.5 679.724,-321 689.724,-324.5 689.724,-317.5"/>
</g>
<!-- Node9 -->
<g id="node9" class="node"><title>Node9</title>
<g id="a_node9"><a xlink:href="../../d6/de8/classIG_1_1Lib_1_1WaitFileRemoval.html" target="_top" xlink:title="Blocking execution of the current thread until the specified file ceases to exist.">
<polygon fill="white" stroke="black" points="750.5,-273.5 750.5,-292.5 868.5,-292.5 868.5,-273.5 750.5,-273.5"/>
<text text-anchor="middle" x="809.5" y="-280.5" font-family="Helvetica,sans-Serif" font-size="10.00">IG.Lib.WaitFileRemoval</text>
</a>
</g>
</g>
<!-- Node5&#45;&gt;Node9 -->
<g id="edge9" class="edge"><title>Node5&#45;&gt;Node9</title>
<path fill="none" stroke="midnightblue" d="M683.485,-309.319C709.082,-303.93 739.084,-297.614 763.28,-292.52"/>
<polygon fill="midnightblue" stroke="midnightblue" points="682.612,-305.926 673.548,-311.411 684.054,-312.776 682.612,-305.926"/>
</g>
<!-- Node11 -->
<g id="node11" class="node"><title>Node11</title>
<g id="a_node11"><a xlink:href="../../d5/d05/classIG_1_1Lib_1_1WaitDirectoryCreationByProxy.html" target="_top" xlink:title="Implements blocking until the specified directory is created (becomes existent). Directory is specifi...">
<polygon fill="white" stroke="black" points="739.5,-224 739.5,-254 879.5,-254 879.5,-224 739.5,-224"/>
<text text-anchor="start" x="747.5" y="-242" font-family="Helvetica,sans-Serif" font-size="10.00">IG.Lib.WaitDirectoryCreation</text>
<text text-anchor="middle" x="809.5" y="-231" font-family="Helvetica,sans-Serif" font-size="10.00">ByProxy</text>
</a>
</g>
</g>
<!-- Node10&#45;&gt;Node11 -->
<g id="edge11" class="edge"><title>Node10&#45;&gt;Node11</title>
<path fill="none" stroke="midnightblue" d="M693.38,-207.748C712.942,-213.059 734.196,-218.829 753.055,-223.948"/>
<polygon fill="midnightblue" stroke="midnightblue" points="694.196,-204.344 683.629,-205.101 692.363,-211.099 694.196,-204.344"/>
</g>
<!-- Node12 -->
<g id="node12" class="node"><title>Node12</title>
<g id="a_node12"><a xlink:href="../../d4/d92/classIG_1_1Lib_1_1WaitDirectoryRemovalByProxy.html" target="_top" xlink:title="Implements blocking until the specified directory is deleted (becomes nonexistent)....">
<polygon fill="white" stroke="black" points="739,-175 739,-205 880,-205 880,-175 739,-175"/>
<text text-anchor="start" x="747" y="-193" font-family="Helvetica,sans-Serif" font-size="10.00">IG.Lib.WaitDirectoryRemoval</text>
<text text-anchor="middle" x="809.5" y="-182" font-family="Helvetica,sans-Serif" font-size="10.00">ByProxy</text>
</a>
</g>
</g>
<!-- Node10&#45;&gt;Node12 -->
<g id="edge12" class="edge"><title>Node10&#45;&gt;Node12</title>
<path fill="none" stroke="midnightblue" d="M701.417,-190C713.812,-190 726.647,-190 738.94,-190"/>
<polygon fill="midnightblue" stroke="midnightblue" points="701.13,-186.5 691.13,-190 701.13,-193.5 701.13,-186.5"/>
</g>
<!-- Node13 -->
<g id="node13" class="node"><title>Node13</title>
<g id="a_node13"><a xlink:href="../../db/dbb/classIG_1_1Lib_1_1WaitFileCreationByProxy.html" target="_top" xlink:title="Implements blocking until the specified file is created (becomes existent). File is specified in cons...">
<polygon fill="white" stroke="black" points="745,-126 745,-156 874,-156 874,-126 745,-126"/>
<text text-anchor="start" x="753" y="-144" font-family="Helvetica,sans-Serif" font-size="10.00">IG.Lib.WaitFileCreationBy</text>
<text text-anchor="middle" x="809.5" y="-133" font-family="Helvetica,sans-Serif" font-size="10.00">Proxy</text>
</a>
</g>
</g>
<!-- Node10&#45;&gt;Node13 -->
<g id="edge13" class="edge"><title>Node10&#45;&gt;Node13</title>
<path fill="none" stroke="midnightblue" d="M693.38,-172.252C712.942,-166.941 734.196,-161.171 753.055,-156.052"/>
<polygon fill="midnightblue" stroke="midnightblue" points="692.363,-168.901 683.629,-174.899 694.196,-175.656 692.363,-168.901"/>
</g>
<!-- Node14 -->
<g id="node14" class="node"><title>Node14</title>
<g id="a_node14"><a xlink:href="../../d2/d43/classIG_1_1Lib_1_1WaitFileRemovalByProxy.html" target="_top" xlink:title="Implements blocking until the specified file is deleted (becomes nonexistent). File is specified in c...">
<polygon fill="white" stroke="black" points="744.5,-77 744.5,-107 874.5,-107 874.5,-77 744.5,-77"/>
<text text-anchor="start" x="752.5" y="-95" font-family="Helvetica,sans-Serif" font-size="10.00">IG.Lib.WaitFileRemovalBy</text>
<text text-anchor="middle" x="809.5" y="-84" font-family="Helvetica,sans-Serif" font-size="10.00">Proxy</text>
</a>
</g>
</g>
<!-- Node10&#45;&gt;Node14 -->
<g id="edge14" class="edge"><title>Node10&#45;&gt;Node14</title>
<path fill="none" stroke="midnightblue" d="M694.585,-170.396C697.515,-168.735 700.337,-166.939 703,-165 724.844,-149.091 717.241,-132.026 739,-116 743.625,-112.593 748.772,-109.643 754.114,-107.093"/>
<polygon fill="midnightblue" stroke="midnightblue" points="692.867,-167.343 685.532,-174.988 696.033,-173.586 692.867,-167.343"/>
</g>
<!-- Node15&#45;&gt;Node10 -->
<g id="edge16" class="edge"><title>Node15&#45;&gt;Node10</title>
<path fill="none" stroke="midnightblue" d="M508.255,-176.438C526.306,-178.517 545.479,-180.725 562.996,-182.743"/>
<polygon fill="midnightblue" stroke="midnightblue" points="508.405,-172.932 498.07,-175.265 507.604,-179.886 508.405,-172.932"/>
</g>
<!-- Node17 -->
<g id="node17" class="node"><title>Node17</title>
<g id="a_node17"><a xlink:href="../../d9/d6b/classIG_1_1Lib_1_1WaitDirectoryCreationLatence.html" target="_top" xlink:title="Implements blocking until the specified directory is created (becomes existent). Directory is specifi...">
<polygon fill="white" stroke="black" points="557,-126 557,-156 697,-156 697,-126 557,-126"/>
<text text-anchor="start" x="565" y="-144" font-family="Helvetica,sans-Serif" font-size="10.00">IG.Lib.WaitDirectoryCreation</text>
<text text-anchor="middle" x="627" y="-133" font-family="Helvetica,sans-Serif" font-size="10.00">Latence</text>
</a>
</g>
</g>
<!-- Node16&#45;&gt;Node17 -->
<g id="edge18" class="edge"><title>Node16&#45;&gt;Node17</title>
<path fill="none" stroke="midnightblue" d="M482.172,-104.102C507.923,-110.708 540.039,-118.947 567.387,-125.963"/>
<polygon fill="midnightblue" stroke="midnightblue" points="482.836,-100.659 472.28,-101.564 481.097,-107.439 482.836,-100.659"/>
</g>
<!-- Node18 -->
<g id="node18" class="node"><title>Node18</title>
<g id="a_node18"><a xlink:href="../../d2/dcb/classIG_1_1Lib_1_1WaitDirectoryRemovalLatence.html" target="_top" xlink:title="Implements blocking until the specified directory is deleted (becomes nonexistent)....">
<polygon fill="white" stroke="black" points="556.5,-77 556.5,-107 697.5,-107 697.5,-77 556.5,-77"/>
<text text-anchor="start" x="564.5" y="-95" font-family="Helvetica,sans-Serif" font-size="10.00">IG.Lib.WaitDirectoryRemoval</text>
<text text-anchor="middle" x="627" y="-84" font-family="Helvetica,sans-Serif" font-size="10.00">Latence</text>
</a>
</g>
</g>
<!-- Node16&#45;&gt;Node18 -->
<g id="edge19" class="edge"><title>Node16&#45;&gt;Node18</title>
<path fill="none" stroke="midnightblue" d="M525.494,-92C535.86,-92 546.306,-92 556.341,-92"/>
<polygon fill="midnightblue" stroke="midnightblue" points="525.171,-88.5001 515.171,-92 525.171,-95.5001 525.171,-88.5001"/>
</g>
<!-- Node19 -->
<g id="node19" class="node"><title>Node19</title>
<g id="a_node19"><a xlink:href="../../d1/de2/classIG_1_1Lib_1_1WaitFileCreationLatence.html" target="_top" xlink:title="Implements blocking until the specified file is created (becomes existent). File is specified in cons...">
<polygon fill="white" stroke="black" points="551,-38.5 551,-57.5 703,-57.5 703,-38.5 551,-38.5"/>
<text text-anchor="middle" x="627" y="-45.5" font-family="Helvetica,sans-Serif" font-size="10.00">IG.Lib.WaitFileCreationLatence</text>
</a>
</g>
</g>
<!-- Node16&#45;&gt;Node19 -->
<g id="edge20" class="edge"><title>Node16&#45;&gt;Node19</title>
<path fill="none" stroke="midnightblue" d="M486.555,-80.1236C517.322,-73.0358 555.872,-64.1552 584.637,-57.5287"/>
<polygon fill="midnightblue" stroke="midnightblue" points="485.403,-76.797 476.444,-82.4527 486.975,-83.6184 485.403,-76.797"/>
</g>
<!-- Node20 -->
<g id="node20" class="node"><title>Node20</title>
<g id="a_node20"><a xlink:href="../../d2/d57/classIG_1_1Lib_1_1WaitFileRemovalLatence.html" target="_top" xlink:title="Implements blocking until the specified file is deleted (becomes nonexistent). File is specified in c...">
<polygon fill="white" stroke="black" points="551,-0.5 551,-19.5 703,-19.5 703,-0.5 551,-0.5"/>
<text text-anchor="middle" x="627" y="-7.5" font-family="Helvetica,sans-Serif" font-size="10.00">IG.Lib.WaitFileRemovalLatence</text>
</a>
</g>
</g>
<!-- Node16&#45;&gt;Node20 -->
<g id="edge21" class="edge"><title>Node16&#45;&gt;Node20</title>
<path fill="none" stroke="midnightblue" d="M458.451,-76.9889C481.305,-62.9172 517.422,-42.1327 551,-29 560.382,-25.3305 570.704,-22.1804 580.61,-19.5602"/>
<polygon fill="midnightblue" stroke="midnightblue" points="456.433,-74.1226 449.801,-82.3853 460.138,-80.0616 456.433,-74.1226"/>
</g>
</g>
</svg>
        <g id="navigator" transform="translate(0 0)" fill="#404254">
                <rect fill="#f2f5e9" fill-opacity="0.5" stroke="#606060" stroke-width=".5" x="0" y="0" width="60" height="60"/>
                <use id="zoomplus" xlink:href="#zoomPlus" x="17" y="9" onmousedown="handleZoom(evt,'in')"/>
                <use id="zoomminus" xlink:href="#zoomMin" x="42" y="9" onmousedown="handleZoom(evt,'out')"/>
                <use id="reset" xlink:href="#resetDef" x="30" y="36" onmousedown="handleReset()"/>
                <g id="arrowUp" xlink:href="#dirArrow" transform="translate(30 24)" onmousedown="handlePan(0,-1)">
                  <use xlink:href="#rim" fill="#404040">
                        <set attributeName="fill" to="#808080" begin="arrowUp.mouseover" end="arrowUp.mouseout"/>
                  </use>
                  <path fill="none" stroke="white" stroke-width="1.5" d="M0,-3.0v7 M-2.5,-0.5L0,-3.0L2.5,-0.5"/>
                </g>
                <g id="arrowRight" xlink:href="#dirArrow" transform="rotate(90) translate(36 -43)" onmousedown="handlePan(1,0)">
                  <use xlink:href="#rim" fill="#404040">
                        <set attributeName="fill" to="#808080" begin="arrowRight.mouseover" end="arrowRight.mouseout"/>
                  </use>
                  <path fill="none" stroke="white" stroke-width="1.5" d="M0,-3.0v7 M-2.5,-0.5L0,-3.0L2.5,-0.5"/>
                </g>
                <g id="arrowDown" xlink:href="#dirArrow" transform="rotate(180) translate(-30 -48)" onmousedown="handlePan(0,1)">
                  <use xlink:href="#rim" fill="#404040">
                        <set attributeName="fill" to="#808080" begin="arrowDown.mouseover" end="arrowDown.mouseout"/>
                  </use>
                  <path fill="none" stroke="white" stroke-width="1.5" d="M0,-3.0v7 M-2.5,-0.5L0,-3.0L2.5,-0.5"/>
                </g>
                <g id="arrowLeft" xlink:href="#dirArrow" transform="rotate(270) translate(-36 17)" onmousedown="handlePan(-1,0)">
                  <use xlink:href="#rim" fill="#404040">
                        <set attributeName="fill" to="#808080" begin="arrowLeft.mouseover" end="arrowLeft.mouseout"/>
                  </use>
                  <path fill="none" stroke="white" stroke-width="1.5" d="M0,-3.0v7 M-2.5,-0.5L0,-3.0L2.5,-0.5"/>
                </g>
        </g>
        <svg viewBox="0 0 15 15" width="100%" height="30px" preserveAspectRatio="xMaxYMin meet">
         <g id="arrow_out" transform="scale(0.3 0.3)">
          <a xlink:href="interfaceIG_1_1Lib_1_1IWaitFileEvent__inherit__graph_org.svg" target="_base">
           <rect id="button" ry="5" rx="5" y="6" x="6" height="38" width="38"
                fill="#f2f5e9" fill-opacity="0.5" stroke="#606060" stroke-width="1.0"/>
           <path id="arrow"
             d="M 11.500037,31.436501 C 11.940474,20.09759 22.043105,11.32322 32.158766,21.979434 L 37.068811,17.246167 C 37.068811,17.246167 37.088388,32 37.088388,32 L 22.160133,31.978069 C 22.160133,31.978069 26.997745,27.140456 26.997745,27.140456 C 18.528582,18.264221 13.291696,25.230495 11.500037,31.436501 z"
             style="fill:#404040;"/>
          </a>
         </g>
        </svg>
</svg>
