<?xml version="1.0" encoding="UTF-8" standalone="no"?>
<!DOCTYPE svg PUBLIC "-//W3C//DTD SVG 1.1//EN"
 "http://www.w3.org/Graphics/SVG/1.1/DTD/svg11.dtd">
<!-- Generated by graphviz version 2.38.0 (20140413.2041)
 -->
<!-- Title: IG.Num.GridGenerator1dBase Pages: 1 -->
<svg width="163pt" height="140pt"
 viewBox="0.00 0.00 163.00 140.00" xmlns="http://www.w3.org/2000/svg" xmlns:xlink="http://www.w3.org/1999/xlink">
<g id="graph0" class="graph" transform="scale(1 1) rotate(0) translate(4 136)">
<title>IG.Num.GridGenerator1dBase</title>
<polygon fill="white" stroke="none" points="-4,4 -4,-136 159,-136 159,4 -4,4"/>
<!-- Node1 -->
<g id="node1" class="node"><title>Node1</title>
<g id="a_node1"><a xlink:title="Base class for 1D grid generators.">
<polygon fill="#bfbfbf" stroke="black" points="0,-0.5 0,-19.5 146,-19.5 146,-0.5 0,-0.5"/>
<text text-anchor="middle" x="73" y="-7.5" font-family="Helvetica,sans-Serif" font-size="10.00">IG.Num.GridGenerator1dBase</text>
</a>
</g>
</g>
<!-- Node2 -->
<g id="node2" class="node"><title>Node2</title>
<g id="a_node2"><a xlink:href="../../d5/d2d/interfaceIG_1_1Num_1_1IGridGenerator1d.html" target="_top" xlink:title="Interface for 1d grid generators.">
<polygon fill="white" stroke="black" points="65,-56.5 65,-75.5 155,-75.5 155,-56.5 65,-56.5"/>
<text text-anchor="middle" x="110" y="-63.5" font-family="Helvetica,sans-Serif" font-size="10.00">IGridGenerator1d</text>
</a>
</g>
</g>
<!-- Node2&#45;&gt;Node1 -->
<g id="edge1" class="edge"><title>Node2&#45;&gt;Node1</title>
<path fill="none" stroke="midnightblue" d="M98.0542,-47.5656C91.6883,-38.2747 84.1332,-27.2484 78.9961,-19.7511"/>
<polygon fill="midnightblue" stroke="midnightblue" points="95.3506,-49.812 103.89,-56.083 101.125,-45.8553 95.3506,-49.812"/>
</g>
<!-- Node3 -->
<g id="node3" class="node"><title>Node3</title>
<g id="a_node3"><a xlink:href="../../d3/db6/interfaceIG_1_1Lib_1_1ILockable.html" target="_top" xlink:title="Lockable object, has a Lock property that returns object on which lock must be performed in order to ...">
<polygon fill="white" stroke="black" points="44,-112.5 44,-131.5 102,-131.5 102,-112.5 44,-112.5"/>
<text text-anchor="middle" x="73" y="-119.5" font-family="Helvetica,sans-Serif" font-size="10.00">ILockable</text>
</a>
</g>
</g>
<!-- Node3&#45;&gt;Node1 -->
<g id="edge3" class="edge"><title>Node3&#45;&gt;Node1</title>
<path fill="none" stroke="midnightblue" d="M64.5544,-103.145C61.175,-95.0521 57.6876,-85.2425 56,-76 52.2706,-55.5752 61.9462,-32.1288 68.1885,-19.7372"/>
<polygon fill="midnightblue" stroke="midnightblue" points="61.3687,-104.595 68.6337,-112.307 67.7635,-101.748 61.3687,-104.595"/>
</g>
<!-- Node3&#45;&gt;Node2 -->
<g id="edge2" class="edge"><title>Node3&#45;&gt;Node2</title>
<path fill="none" stroke="midnightblue" d="M84.9458,-103.566C91.3117,-94.2747 98.8668,-83.2484 104.004,-75.7511"/>
<polygon fill="midnightblue" stroke="midnightblue" points="81.8749,-101.855 79.1098,-112.083 87.6494,-105.812 81.8749,-101.855"/>
</g>
</g>
</svg>
