<?xml version="1.0" encoding="UTF-8" standalone="no"?>
<!DOCTYPE svg PUBLIC "-//W3C//DTD SVG 1.1//EN"
 "http://www.w3.org/Graphics/SVG/1.1/DTD/svg11.dtd">
<!-- Generated by graphviz version 2.38.0 (20140413.2041)
 -->
<!-- Title: IG.Lib.SerializerJson Pages: 1 -->
<svg width="325pt" height="219pt"
 viewBox="0.00 0.00 325.00 219.00" xmlns="http://www.w3.org/2000/svg" xmlns:xlink="http://www.w3.org/1999/xlink">
<g id="graph0" class="graph" transform="scale(1 1) rotate(0) translate(4 215)">
<title>IG.Lib.SerializerJson</title>
<polygon fill="white" stroke="none" points="-4,4 -4,-215 321,-215 321,4 -4,4"/>
<!-- Node1 -->
<g id="node1" class="node"><title>Node1</title>
<g id="a_node1"><a xlink:title="Helper class for JSON serialization and deserialization. This class enables formatting of the generat...">
<polygon fill="#bfbfbf" stroke="black" points="104.5,-0.5 104.5,-19.5 210.5,-19.5 210.5,-0.5 104.5,-0.5"/>
<text text-anchor="middle" x="157.5" y="-7.5" font-family="Helvetica,sans-Serif" font-size="10.00">IG.Lib.SerializerJson</text>
</a>
</g>
</g>
<!-- Node2 -->
<g id="node2" class="node"><title>Node2</title>
<g id="a_node2"><a xlink:href="../../d0/d1a/classIG_1_1Lib_1_1SerializerJsonBase.html" target="_top" xlink:title="Helper class for JSON serialization and deserialization. This class does not enable formatting of the...">
<polygon fill="white" stroke="black" points="21.5,-67.5 21.5,-86.5 121.5,-86.5 121.5,-67.5 21.5,-67.5"/>
<text text-anchor="middle" x="71.5" y="-74.5" font-family="Helvetica,sans-Serif" font-size="10.00">SerializerJsonBase</text>
</a>
</g>
</g>
<!-- Node2&#45;&gt;Node1 -->
<g id="edge1" class="edge"><title>Node2&#45;&gt;Node1</title>
<path fill="none" stroke="midnightblue" d="M91.2564,-61.0678C108.232,-48.2376 132.116,-30.1853 146.085,-19.6273"/>
<polygon fill="midnightblue" stroke="midnightblue" points="88.9657,-58.4119 83.0983,-67.2338 93.1864,-63.9963 88.9657,-58.4119"/>
</g>
<!-- Node3 -->
<g id="node3" class="node"><title>Node3</title>
<g id="a_node3"><a xlink:href="../../d0/d1b/classIG_1_1Lib_1_1SerializerBase.html" target="_top" xlink:title="Base class for serialization helper classes.">
<polygon fill="white" stroke="black" points="34.5,-134.5 34.5,-153.5 114.5,-153.5 114.5,-134.5 34.5,-134.5"/>
<text text-anchor="middle" x="74.5" y="-141.5" font-family="Helvetica,sans-Serif" font-size="10.00">SerializerBase</text>
</a>
</g>
</g>
<!-- Node3&#45;&gt;Node2 -->
<g id="edge2" class="edge"><title>Node3&#45;&gt;Node2</title>
<path fill="none" stroke="midnightblue" d="M73.6248,-124.037C73.054,-111.67 72.3363,-96.1198 71.8982,-86.6273"/>
<polygon fill="midnightblue" stroke="midnightblue" points="70.138,-124.406 74.0954,-134.234 77.1305,-124.083 70.138,-124.406"/>
</g>
<!-- Node4 -->
<g id="node4" class="node"><title>Node4</title>
<g id="a_node4"><a xlink:href="../../d1/d02/interfaceIG_1_1Lib_1_1ISerializer.html" target="_top" xlink:title="Interface for helper classes that perform serialization/deserialization of objects.">
<polygon fill="white" stroke="black" points="0,-191.5 0,-210.5 59,-210.5 59,-191.5 0,-191.5"/>
<text text-anchor="middle" x="29.5" y="-198.5" font-family="Helvetica,sans-Serif" font-size="10.00">ISerializer</text>
</a>
</g>
</g>
<!-- Node4&#45;&gt;Node2 -->
<g id="edge4" class="edge"><title>Node4&#45;&gt;Node2</title>
<path fill="none" stroke="midnightblue" d="M24.479,-181.127C21.802,-167.614 20.0582,-149.198 25.5,-134 32.5406,-114.337 49.7921,-96.6279 61.0519,-86.6067"/>
<polygon fill="midnightblue" stroke="midnightblue" points="21.135,-182.2 26.81,-191.147 27.9529,-180.614 21.135,-182.2"/>
</g>
<!-- Node4&#45;&gt;Node3 -->
<g id="edge3" class="edge"><title>Node4&#45;&gt;Node3</title>
<path fill="none" stroke="midnightblue" d="M42.9739,-183.532C50.9888,-173.736 60.8355,-161.701 67.3696,-153.715"/>
<polygon fill="midnightblue" stroke="midnightblue" points="40.1548,-181.45 36.5313,-191.406 45.5725,-185.883 40.1548,-181.45"/>
</g>
<!-- Node5 -->
<g id="node5" class="node"><title>Node5</title>
<g id="a_node5"><a xlink:title=" ">
<polygon fill="white" stroke="#bfbfbf" points="134,-134.5 134,-153.5 175,-153.5 175,-134.5 134,-134.5"/>
<text text-anchor="middle" x="154.5" y="-141.5" font-family="Helvetica,sans-Serif" font-size="10.00">static</text>
</a>
</g>
</g>
<!-- Node5&#45;&gt;Node1 -->
<g id="edge7" class="edge"><title>Node5&#45;&gt;Node1</title>
<path fill="none" stroke="#9a32cd" stroke-dasharray="5,2" d="M154.926,-124.275C155.585,-95.2462 156.829,-40.5381 157.306,-19.5212"/>
<polygon fill="#9a32cd" stroke="#9a32cd" points="151.425,-124.262 154.697,-134.339 158.423,-124.421 151.425,-124.262"/>
<text text-anchor="middle" x="173.5" y="-74.5" font-family="Helvetica,sans-Serif" font-size="10.00"> _global</text>
</g>
<!-- Node5&#45;&gt;Node2 -->
<g id="edge5" class="edge"><title>Node5&#45;&gt;Node2</title>
<path fill="none" stroke="#9a32cd" stroke-dasharray="5,2" d="M129.318,-129.368C122.657,-125.37 115.622,-120.78 109.5,-116 98.028,-107.043 86.4266,-94.8914 79.1136,-86.7648"/>
<polygon fill="#9a32cd" stroke="#9a32cd" points="127.639,-132.44 138.048,-134.413 131.141,-126.379 127.639,-132.44"/>
<text text-anchor="middle" x="126.5" y="-108" font-family="Helvetica,sans-Serif" font-size="10.00"> _global</text>
</g>
<!-- Node6 -->
<g id="node6" class="node"><title>Node6</title>
<g id="a_node6"><a xlink:href="../../d0/d0d/classIG_1_1Lib_1_1JsonFormatter.html" target="_top" xlink:title="Formatting of JSON strings into human readable form.">
<polygon fill="white" stroke="black" points="210,-67.5 210,-86.5 317,-86.5 317,-67.5 210,-67.5"/>
<text text-anchor="middle" x="263.5" y="-74.5" font-family="Helvetica,sans-Serif" font-size="10.00">IG.Lib.JsonFormatter</text>
</a>
</g>
</g>
<!-- Node6&#45;&gt;Node1 -->
<g id="edge6" class="edge"><title>Node6&#45;&gt;Node1</title>
<path fill="none" stroke="#9a32cd" stroke-dasharray="5,2" d="M240.575,-61.9422C219.583,-49.0696 189.182,-30.4274 171.569,-19.6273"/>
<polygon fill="#9a32cd" stroke="#9a32cd" points="238.85,-64.99 249.204,-67.2338 242.509,-59.0226 238.85,-64.99"/>
<text text-anchor="middle" x="241" y="-41" font-family="Helvetica,sans-Serif" font-size="10.00"> _formatter</text>
</g>
</g>
</svg>
