<?xml version="1.0" encoding="UTF-8" standalone="no"?>
<!DOCTYPE svg PUBLIC "-//W3C//DTD SVG 1.1//EN"
 "http://www.w3.org/Graphics/SVG/1.1/DTD/svg11.dtd">
<!-- Generated by graphviz version 2.38.0 (20140413.2041)
 -->
<!-- Title: JsonPrettyPrinterPlus.JsonPrettyPrinter Pages: 1 -->
<svg width="190pt" height="206pt"
 viewBox="0.00 0.00 190.00 206.00" xmlns="http://www.w3.org/2000/svg" xmlns:xlink="http://www.w3.org/1999/xlink">
<g id="graph0" class="graph" transform="scale(1 1) rotate(0) translate(4 202)">
<title>JsonPrettyPrinterPlus.JsonPrettyPrinter</title>
<polygon fill="white" stroke="none" points="-4,4 -4,-202 186,-202 186,4 -4,4"/>
<!-- Node1 -->
<g id="node1" class="node"><title>Node1</title>
<g id="a_node1"><a xlink:title=" ">
<polygon fill="#bfbfbf" stroke="black" points="24,-0.5 24,-30.5 158,-30.5 158,-0.5 24,-0.5"/>
<text text-anchor="start" x="32" y="-18.5" font-family="Helvetica,sans-Serif" font-size="10.00">JsonPrettyPrinterPlus.Json</text>
<text text-anchor="middle" x="91" y="-7.5" font-family="Helvetica,sans-Serif" font-size="10.00">PrettyPrinter</text>
</a>
</g>
</g>
<!-- Node2 -->
<g id="node2" class="node"><title>Node2</title>
<g id="a_node2"><a xlink:href="../../d1/d53/classJsonPrettyPrinterPlus_1_1JsonPrettyPrinterInternals_1_1JsonPPStrategyContext.html" target="_top" xlink:title=" ">
<polygon fill="white" stroke="black" points="0,-78.5 0,-119.5 182,-119.5 182,-78.5 0,-78.5"/>
<text text-anchor="start" x="8" y="-107.5" font-family="Helvetica,sans-Serif" font-size="10.00">JsonPrettyPrinterPlus.Json</text>
<text text-anchor="start" x="8" y="-96.5" font-family="Helvetica,sans-Serif" font-size="10.00">PrettyPrinterInternals.JsonPPStrategy</text>
<text text-anchor="middle" x="91" y="-85.5" font-family="Helvetica,sans-Serif" font-size="10.00">Context</text>
</a>
</g>
</g>
<!-- Node2&#45;&gt;Node1 -->
<g id="edge1" class="edge"><title>Node2&#45;&gt;Node1</title>
<path fill="none" stroke="#9a32cd" stroke-dasharray="5,2" d="M91,-68.0254C91,-55.258 91,-40.9702 91,-30.6846"/>
<polygon fill="#9a32cd" stroke="#9a32cd" points="87.5001,-68.2711 91,-78.2711 94.5001,-68.2712 87.5001,-68.2711"/>
<text text-anchor="middle" x="111.5" y="-52" font-family="Helvetica,sans-Serif" font-size="10.00"> _context</text>
</g>
<!-- Node3 -->
<g id="node3" class="node"><title>Node3</title>
<g id="a_node3"><a xlink:href="../../d3/df6/classJsonPrettyPrinterPlus_1_1JsonPrettyPrinterInternals_1_1PPScopeState.html" target="_top" xlink:title=" ">
<polygon fill="white" stroke="black" points="3,-167.5 3,-197.5 179,-197.5 179,-167.5 3,-167.5"/>
<text text-anchor="start" x="11" y="-185.5" font-family="Helvetica,sans-Serif" font-size="10.00">JsonPrettyPrinterPlus.Json</text>
<text text-anchor="middle" x="91" y="-174.5" font-family="Helvetica,sans-Serif" font-size="10.00">PrettyPrinterInternals.PPScopeState</text>
</a>
</g>
</g>
<!-- Node3&#45;&gt;Node2 -->
<g id="edge2" class="edge"><title>Node3&#45;&gt;Node2</title>
<path fill="none" stroke="#9a32cd" stroke-dasharray="5,2" d="M91,-157.066C91,-145.061 91,-130.794 91,-119.528"/>
<polygon fill="#9a32cd" stroke="#9a32cd" points="87.5001,-157.304 91,-167.304 94.5001,-157.304 87.5001,-157.304"/>
<text text-anchor="middle" x="120" y="-141" font-family="Helvetica,sans-Serif" font-size="10.00"> _scopeState</text>
</g>
</g>
</svg>
