<?xml version="1.0" encoding="UTF-8" standalone="no"?>
<!DOCTYPE svg PUBLIC "-//W3C//DTD SVG 1.1//EN"
 "http://www.w3.org/Graphics/SVG/1.1/DTD/svg11.dtd">
<!-- Generated by graphviz version 2.38.0 (20140413.2041)
 -->
<!-- Title: IG.Lib.WaitFileEventBaseByProxyLatence Pages: 1 -->
<svg width="823pt" height="186pt"
 viewBox="0.00 0.00 823.00 186.00" xmlns="http://www.w3.org/2000/svg" xmlns:xlink="http://www.w3.org/1999/xlink">
<g id="graph0" class="graph" transform="scale(1 1) rotate(0) translate(4 182)">
<title>IG.Lib.WaitFileEventBaseByProxyLatence</title>
<polygon fill="white" stroke="none" points="-4,4 -4,-182 819,-182 819,4 -4,4"/>
<!-- Node1 -->
<g id="node1" class="node"><title>Node1</title>
<g id="a_node1"><a xlink:title="Base class for classes that provide blocking until a file or directory is created/removed....">
<polygon fill="#bfbfbf" stroke="black" points="346,-73.5 346,-103.5 474,-103.5 474,-73.5 346,-73.5"/>
<text text-anchor="start" x="354" y="-91.5" font-family="Helvetica,sans-Serif" font-size="10.00">IG.Lib.WaitFileEventBase</text>
<text text-anchor="middle" x="410" y="-80.5" font-family="Helvetica,sans-Serif" font-size="10.00">ByProxyLatence</text>
</a>
</g>
</g>
<!-- Node6 -->
<g id="node6" class="node"><title>Node6</title>
<g id="a_node6"><a xlink:href="../../dd/d05/classIG_1_1Lib_1_1WaitFileEventBaseByProxy.html" target="_top" xlink:title="Base class for classes that provide blocking until a file or directory is created/removed....">
<polygon fill="white" stroke="black" points="510,-73.5 510,-103.5 638,-103.5 638,-73.5 510,-73.5"/>
<text text-anchor="start" x="518" y="-91.5" font-family="Helvetica,sans-Serif" font-size="10.00">IG.Lib.WaitFileEventBase</text>
<text text-anchor="middle" x="574" y="-80.5" font-family="Helvetica,sans-Serif" font-size="10.00">ByProxy</text>
</a>
</g>
</g>
<!-- Node1&#45;&gt;Node6 -->
<g id="edge9" class="edge"><title>Node1&#45;&gt;Node6</title>
<path fill="none" stroke="midnightblue" d="M484.374,-88.5C492.865,-88.5 501.469,-88.5 509.808,-88.5"/>
<polygon fill="midnightblue" stroke="midnightblue" points="484.097,-85.0001 474.097,-88.5 484.097,-92.0001 484.097,-85.0001"/>
</g>
<!-- Node2 -->
<g id="node2" class="node"><title>Node2</title>
<g id="a_node2"><a xlink:href="../../df/dea/classIG_1_1Lib_1_1WaitConditionBase.html" target="_top" xlink:title="Base class for objects that perform waiting until a condition is fulfilled.">
<polygon fill="white" stroke="black" points="210,-79 210,-98 310,-98 310,-79 210,-79"/>
<text text-anchor="middle" x="260" y="-86" font-family="Helvetica,sans-Serif" font-size="10.00">WaitConditionBase</text>
</a>
</g>
</g>
<!-- Node2&#45;&gt;Node1 -->
<g id="edge1" class="edge"><title>Node2&#45;&gt;Node1</title>
<path fill="none" stroke="midnightblue" d="M320.391,-88.5C328.811,-88.5 337.494,-88.5 345.98,-88.5"/>
<polygon fill="midnightblue" stroke="midnightblue" points="320.282,-85.0001 310.282,-88.5 320.282,-92.0001 320.282,-85.0001"/>
</g>
<!-- Node3 -->
<g id="node3" class="node"><title>Node3</title>
<g id="a_node3"><a xlink:href="../../de/d1e/interfaceIG_1_1Lib_1_1IWaitCondition.html" target="_top" xlink:title="Interface for classes that implement blocking until a specified condition is met.">
<polygon fill="white" stroke="black" points="94,-41 94,-60 174,-60 174,-41 94,-41"/>
<text text-anchor="middle" x="134" y="-48" font-family="Helvetica,sans-Serif" font-size="10.00">IWaitCondition</text>
</a>
</g>
</g>
<!-- Node3&#45;&gt;Node2 -->
<g id="edge2" class="edge"><title>Node3&#45;&gt;Node2</title>
<path fill="none" stroke="midnightblue" d="M175.905,-63.0353C192.773,-68.2048 212.008,-74.0991 227.72,-78.9141"/>
<polygon fill="midnightblue" stroke="midnightblue" points="176.877,-59.6727 166.29,-60.089 174.826,-66.3655 176.877,-59.6727"/>
</g>
<!-- Node5 -->
<g id="node5" class="node"><title>Node5</title>
<g id="a_node5"><a xlink:href="../../d2/d48/interfaceIG_1_1Lib_1_1IWaitFileEvent.html" target="_top" xlink:title="Interface for classes that provide waiting for specific file events (such as ceration or deletion of ...">
<polygon fill="white" stroke="black" points="220.5,-41 220.5,-60 299.5,-60 299.5,-41 220.5,-41"/>
<text text-anchor="middle" x="260" y="-48" font-family="Helvetica,sans-Serif" font-size="10.00">IWaitFileEvent</text>
</a>
</g>
</g>
<!-- Node3&#45;&gt;Node5 -->
<g id="edge6" class="edge"><title>Node3&#45;&gt;Node5</title>
<path fill="none" stroke="midnightblue" d="M184.526,-50.5C196.48,-50.5 209.079,-50.5 220.445,-50.5"/>
<polygon fill="midnightblue" stroke="midnightblue" points="184.234,-47.0001 174.234,-50.5 184.234,-54.0001 184.234,-47.0001"/>
</g>
<!-- Node4 -->
<g id="node4" class="node"><title>Node4</title>
<g id="a_node4"><a xlink:href="../../d3/db6/interfaceIG_1_1Lib_1_1ILockable.html" target="_top" xlink:title="Lockable object, has a Lock property that returns object on which lock must be performed in order to ...">
<polygon fill="white" stroke="black" points="0,-60 0,-79 58,-79 58,-60 0,-60"/>
<text text-anchor="middle" x="29" y="-67" font-family="Helvetica,sans-Serif" font-size="10.00">ILockable</text>
</a>
</g>
</g>
<!-- Node4&#45;&gt;Node1 -->
<g id="edge8" class="edge"><title>Node4&#45;&gt;Node1</title>
<path fill="none" stroke="midnightblue" d="M63.9039,-82.5234C73.5203,-85.8412 84.0757,-89.1335 94,-91.5 187.638,-113.828 214.169,-116.613 310,-107.5 321.673,-106.39 334.017,-104.56 345.882,-102.462"/>
<polygon fill="midnightblue" stroke="midnightblue" points="64.8829,-79.1567 54.2883,-79.0944 62.5317,-85.75 64.8829,-79.1567"/>
</g>
<!-- Node4&#45;&gt;Node2 -->
<g id="edge4" class="edge"><title>Node4&#45;&gt;Node2</title>
<path fill="none" stroke="midnightblue" d="M68.4409,-72.6894C107.297,-75.9133 167.488,-80.9073 209.803,-84.4182"/>
<polygon fill="midnightblue" stroke="midnightblue" points="68.3351,-69.1687 58.0799,-71.8298 67.7562,-76.1447 68.3351,-69.1687"/>
</g>
<!-- Node4&#45;&gt;Node3 -->
<g id="edge3" class="edge"><title>Node4&#45;&gt;Node3</title>
<path fill="none" stroke="midnightblue" d="M68.0328,-62.4842C76.3997,-60.9408 85.2767,-59.3033 93.6928,-57.7508"/>
<polygon fill="midnightblue" stroke="midnightblue" points="67.3443,-59.0521 58.1452,-64.3082 68.6142,-65.936 67.3443,-59.0521"/>
</g>
<!-- Node4&#45;&gt;Node5 -->
<g id="edge7" class="edge"><title>Node4&#45;&gt;Node5</title>
<path fill="none" stroke="midnightblue" d="M50.1783,-53.6853C62.1748,-45.3043 78.1121,-35.8613 94,-31.5 140.993,-18.6002 197.849,-31.0125 231.065,-40.9388"/>
<polygon fill="midnightblue" stroke="midnightblue" points="47.8435,-51.0566 41.8387,-59.7855 51.9763,-56.7064 47.8435,-51.0566"/>
</g>
<!-- Node5&#45;&gt;Node1 -->
<g id="edge5" class="edge"><title>Node5&#45;&gt;Node1</title>
<path fill="none" stroke="midnightblue" d="M308.28,-62.6396C321.659,-66.0747 336.384,-69.8555 350.347,-73.4405"/>
<polygon fill="midnightblue" stroke="midnightblue" points="308.903,-59.1859 298.347,-60.089 307.162,-65.966 308.903,-59.1859"/>
</g>
<!-- Node7 -->
<g id="node7" class="node"><title>Node7</title>
<g id="a_node7"><a xlink:href="../../d5/d05/classIG_1_1Lib_1_1WaitDirectoryCreationByProxy.html" target="_top" xlink:title="Implements blocking until the specified directory is created (becomes existent). Directory is specifi...">
<polygon fill="white" stroke="black" points="674.5,-147.5 674.5,-177.5 814.5,-177.5 814.5,-147.5 674.5,-147.5"/>
<text text-anchor="start" x="682.5" y="-165.5" font-family="Helvetica,sans-Serif" font-size="10.00">IG.Lib.WaitDirectoryCreation</text>
<text text-anchor="middle" x="744.5" y="-154.5" font-family="Helvetica,sans-Serif" font-size="10.00">ByProxy</text>
</a>
</g>
</g>
<!-- Node6&#45;&gt;Node7 -->
<g id="edge10" class="edge"><title>Node6&#45;&gt;Node7</title>
<path fill="none" stroke="midnightblue" d="M611.225,-108.278C629.726,-117.996 652.76,-129.518 674,-138.5 681.407,-141.632 689.377,-144.677 697.185,-147.486"/>
<polygon fill="midnightblue" stroke="midnightblue" points="612.74,-105.12 602.266,-103.527 609.461,-111.304 612.74,-105.12"/>
</g>
<!-- Node8 -->
<g id="node8" class="node"><title>Node8</title>
<g id="a_node8"><a xlink:href="../../d4/d92/classIG_1_1Lib_1_1WaitDirectoryRemovalByProxy.html" target="_top" xlink:title="Implements blocking until the specified directory is deleted (becomes nonexistent)....">
<polygon fill="white" stroke="black" points="674,-98.5 674,-128.5 815,-128.5 815,-98.5 674,-98.5"/>
<text text-anchor="start" x="682" y="-116.5" font-family="Helvetica,sans-Serif" font-size="10.00">IG.Lib.WaitDirectoryRemoval</text>
<text text-anchor="middle" x="744.5" y="-105.5" font-family="Helvetica,sans-Serif" font-size="10.00">ByProxy</text>
</a>
</g>
</g>
<!-- Node6&#45;&gt;Node8 -->
<g id="edge11" class="edge"><title>Node6&#45;&gt;Node8</title>
<path fill="none" stroke="midnightblue" d="M648.186,-99.3585C656.753,-100.63 665.476,-101.924 673.991,-103.187"/>
<polygon fill="midnightblue" stroke="midnightblue" points="648.628,-95.8858 638.223,-97.8802 647.601,-102.81 648.628,-95.8858"/>
</g>
<!-- Node9 -->
<g id="node9" class="node"><title>Node9</title>
<g id="a_node9"><a xlink:href="../../db/dbb/classIG_1_1Lib_1_1WaitFileCreationByProxy.html" target="_top" xlink:title="Implements blocking until the specified file is created (becomes existent). File is specified in cons...">
<polygon fill="white" stroke="black" points="680,-49.5 680,-79.5 809,-79.5 809,-49.5 680,-49.5"/>
<text text-anchor="start" x="688" y="-67.5" font-family="Helvetica,sans-Serif" font-size="10.00">IG.Lib.WaitFileCreationBy</text>
<text text-anchor="middle" x="744.5" y="-56.5" font-family="Helvetica,sans-Serif" font-size="10.00">Proxy</text>
</a>
</g>
</g>
<!-- Node6&#45;&gt;Node9 -->
<g id="edge12" class="edge"><title>Node6&#45;&gt;Node9</title>
<path fill="none" stroke="midnightblue" d="M648.245,-78.0675C658.796,-76.5647 669.581,-75.0285 679.923,-73.5555"/>
<polygon fill="midnightblue" stroke="midnightblue" points="647.629,-74.6198 638.223,-79.495 648.616,-81.5498 647.629,-74.6198"/>
</g>
<!-- Node10 -->
<g id="node10" class="node"><title>Node10</title>
<g id="a_node10"><a xlink:href="../../d2/d43/classIG_1_1Lib_1_1WaitFileRemovalByProxy.html" target="_top" xlink:title="Implements blocking until the specified file is deleted (becomes nonexistent). File is specified in c...">
<polygon fill="white" stroke="black" points="679.5,-0.5 679.5,-30.5 809.5,-30.5 809.5,-0.5 679.5,-0.5"/>
<text text-anchor="start" x="687.5" y="-18.5" font-family="Helvetica,sans-Serif" font-size="10.00">IG.Lib.WaitFileRemovalBy</text>
<text text-anchor="middle" x="744.5" y="-7.5" font-family="Helvetica,sans-Serif" font-size="10.00">Proxy</text>
</a>
</g>
</g>
<!-- Node6&#45;&gt;Node10 -->
<g id="edge13" class="edge"><title>Node6&#45;&gt;Node10</title>
<path fill="none" stroke="midnightblue" d="M612.063,-68.7583C630.436,-59.333 653.113,-48.234 674,-39.5 681.42,-36.3976 689.396,-33.3686 697.207,-30.5649"/>
<polygon fill="midnightblue" stroke="midnightblue" points="610.42,-65.6675 603.148,-73.3728 613.638,-71.8841 610.42,-65.6675"/>
</g>
</g>
</svg>
