<?xml version="1.0" encoding="UTF-8" standalone="no"?>
<!DOCTYPE svg PUBLIC "-//W3C//DTD SVG 1.1//EN"
 "http://www.w3.org/Graphics/SVG/1.1/DTD/svg11.dtd">
<!-- Generated by graphviz version 2.38.0 (20140413.2041)
 -->
<!-- Title: IG.Lib.Copy.ClienServerStreamBase Pages: 1 -->
<svg width="260pt" height="139pt"
 viewBox="0.00 0.00 259.50 139.00" xmlns="http://www.w3.org/2000/svg" xmlns:xlink="http://www.w3.org/1999/xlink">
<g id="graph0" class="graph" transform="scale(1 1) rotate(0) translate(4 135)">
<title>IG.Lib.Copy.ClienServerStreamBase</title>
<polygon fill="white" stroke="none" points="-4,4 -4,-135 255.5,-135 255.5,4 -4,4"/>
<!-- Node1 -->
<g id="node1" class="node"><title>Node1</title>
<g id="a_node1"><a xlink:title="Base class for client and server classes with stream&#45;based communication.">
<polygon fill="#bfbfbf" stroke="black" points="0,-0.5 0,-19.5 173,-19.5 173,-0.5 0,-0.5"/>
<text text-anchor="middle" x="86.5" y="-7.5" font-family="Helvetica,sans-Serif" font-size="10.00">IG.Lib.Copy.ClienServerStreamBase</text>
</a>
</g>
</g>
<!-- Node2 -->
<g id="node2" class="node"><title>Node2</title>
<g id="a_node2"><a xlink:href="../../d3/db6/interfaceIG_1_1Lib_1_1ILockable.html" target="_top" xlink:title="Lockable object, has a Lock property that returns object on which lock must be performed in order to ...">
<polygon fill="white" stroke="black" points="23.5,-111.5 23.5,-130.5 81.5,-130.5 81.5,-111.5 23.5,-111.5"/>
<text text-anchor="middle" x="52.5" y="-118.5" font-family="Helvetica,sans-Serif" font-size="10.00">ILockable</text>
</a>
</g>
</g>
<!-- Node2&#45;&gt;Node1 -->
<g id="edge1" class="edge"><title>Node2&#45;&gt;Node1</title>
<path fill="none" stroke="midnightblue" d="M58.1644,-101.841C65.5978,-78.01 78.3437,-37.1482 83.8445,-19.5133"/>
<polygon fill="midnightblue" stroke="midnightblue" points="54.8045,-100.858 55.1679,-111.447 61.487,-102.943 54.8045,-100.858"/>
</g>
<!-- Node3 -->
<g id="node3" class="node"><title>Node3</title>
<g id="a_node3"><a xlink:title=" ">
<polygon fill="white" stroke="#bfbfbf" points="100,-111.5 100,-130.5 141,-130.5 141,-111.5 100,-111.5"/>
<text text-anchor="middle" x="120.5" y="-118.5" font-family="Helvetica,sans-Serif" font-size="10.00">static</text>
</a>
</g>
</g>
<!-- Node3&#45;&gt;Node1 -->
<g id="edge2" class="edge"><title>Node3&#45;&gt;Node1</title>
<path fill="none" stroke="#9a32cd" stroke-dasharray="5,2" d="M114.836,-101.841C107.402,-78.01 94.6563,-37.1482 89.1555,-19.5133"/>
<polygon fill="#9a32cd" stroke="#9a32cd" points="111.513,-102.943 117.832,-111.447 118.195,-100.858 111.513,-102.943"/>
<text text-anchor="middle" x="181.5" y="-85" font-family="Helvetica,sans-Serif" font-size="10.00"> _defaultMessagePrefix</text>
<text text-anchor="middle" x="181.5" y="-74" font-family="Helvetica,sans-Serif" font-size="10.00">_defaultMessageSeparator</text>
<text text-anchor="middle" x="181.5" y="-63" font-family="Helvetica,sans-Serif" font-size="10.00">_defaultMessageFalseSeparator</text>
<text text-anchor="middle" x="181.5" y="-52" font-family="Helvetica,sans-Serif" font-size="10.00">_defatultOutputLevel</text>
<text text-anchor="middle" x="181.5" y="-41" font-family="Helvetica,sans-Serif" font-size="10.00">_lockGlobal</text>
</g>
</g>
</svg>
