<?xml version="1.0" encoding="UTF-8" standalone="no"?>
<!DOCTYPE svg PUBLIC "-//W3C//DTD SVG 1.1//EN"
 "http://www.w3.org/Graphics/SVG/1.1/DTD/svg11.dtd">
<!-- Generated by graphviz version 2.38.0 (20140413.2041)
 -->
<!-- Title: IGLib.Gr3D.IParametricSurfaceWithBounds Pages: 1 -->
<svg width="331pt" height="230pt"
 viewBox="0.00 0.00 331.00 230.00" xmlns="http://www.w3.org/2000/svg" xmlns:xlink="http://www.w3.org/1999/xlink">
<g id="graph0" class="graph" transform="scale(1 1) rotate(0) translate(4 226)">
<title>IGLib.Gr3D.IParametricSurfaceWithBounds</title>
<polygon fill="white" stroke="none" points="-4,4 -4,-226 327,-226 327,4 -4,4"/>
<!-- Node1 -->
<g id="node1" class="node"><title>Node1</title>
<g id="a_node1"><a xlink:title="Parametric surface in 3D. Beside the Surface and (optional) SurfaceDerivative1(double,...">
<polygon fill="#bfbfbf" stroke="black" points="0,-93 0,-123 150,-123 150,-93 0,-93"/>
<text text-anchor="start" x="8" y="-111" font-family="Helvetica,sans-Serif" font-size="10.00">IGLib.Gr3D.IParametricSurface</text>
<text text-anchor="middle" x="75" y="-100" font-family="Helvetica,sans-Serif" font-size="10.00">WithBounds</text>
</a>
</g>
</g>
<!-- Node2 -->
<g id="node2" class="node"><title>Node2</title>
<g id="a_node2"><a xlink:href="../../d2/dc4/classIGLib_1_1Gr3D_1_1Ellipsoid.html" target="_top" xlink:title="Parametric ellipsoid surface, usual parameterization via longitude and latitude.">
<polygon fill="white" stroke="black" points="202.5,-202.5 202.5,-221.5 306.5,-221.5 306.5,-202.5 202.5,-202.5"/>
<text text-anchor="middle" x="254.5" y="-209.5" font-family="Helvetica,sans-Serif" font-size="10.00">IGLib.Gr3D.Ellipsoid</text>
</a>
</g>
</g>
<!-- Node1&#45;&gt;Node2 -->
<g id="edge1" class="edge"><title>Node1&#45;&gt;Node2</title>
<path fill="none" stroke="midnightblue" d="M98.906,-129.997C119.992,-149.141 152.927,-176.361 186,-193 193.504,-196.775 201.867,-199.896 210.08,-202.44"/>
<polygon fill="midnightblue" stroke="midnightblue" points="101.151,-127.305 91.4289,-123.094 96.4022,-132.449 101.151,-127.305"/>
</g>
<!-- Node3 -->
<g id="node3" class="node"><title>Node3</title>
<g id="a_node3"><a xlink:href="../../df/dac/classIGLib_1_1Gr3D_1_1KleinBottle.html" target="_top" xlink:title="Parametric Klein bottle surface with mirror symmetry.">
<polygon fill="white" stroke="black" points="197,-164.5 197,-183.5 312,-183.5 312,-164.5 197,-164.5"/>
<text text-anchor="middle" x="254.5" y="-171.5" font-family="Helvetica,sans-Serif" font-size="10.00">IGLib.Gr3D.KleinBottle</text>
</a>
</g>
</g>
<!-- Node1&#45;&gt;Node3 -->
<g id="edge2" class="edge"><title>Node1&#45;&gt;Node3</title>
<path fill="none" stroke="midnightblue" d="M117.594,-127.28C137.967,-136.333 163.006,-146.89 186,-155 195.644,-158.402 206.227,-161.616 216.093,-164.401"/>
<polygon fill="midnightblue" stroke="midnightblue" points="118.85,-124.007 108.293,-123.107 115.984,-130.393 118.85,-124.007"/>
</g>
<!-- Node4 -->
<g id="node4" class="node"><title>Node4</title>
<g id="a_node4"><a xlink:href="../../d5/d23/classIGLib_1_1Gr3D_1_1KleinBottleFromFigureEight.html" target="_top" xlink:title="Parametric Klein bottle surface generated from the figure eight curve by moving the curve along the c...">
<polygon fill="white" stroke="black" points="186,-115 186,-145 323,-145 323,-115 186,-115"/>
<text text-anchor="start" x="194" y="-133" font-family="Helvetica,sans-Serif" font-size="10.00">IGLib.Gr3D.KleinBottleFrom</text>
<text text-anchor="middle" x="254.5" y="-122" font-family="Helvetica,sans-Serif" font-size="10.00">FigureEight</text>
</a>
</g>
</g>
<!-- Node1&#45;&gt;Node4 -->
<g id="edge3" class="edge"><title>Node1&#45;&gt;Node4</title>
<path fill="none" stroke="midnightblue" d="M160.251,-118.442C168.81,-119.503 177.426,-120.571 185.778,-121.606"/>
<polygon fill="midnightblue" stroke="midnightblue" points="160.602,-114.959 150.248,-117.203 159.741,-121.906 160.602,-114.959"/>
</g>
<!-- Node5 -->
<g id="node5" class="node"><title>Node5</title>
<g id="a_node5"><a xlink:href="../../d6/d09/classIGLib_1_1Gr3D_1_1MoebiusStrip.html" target="_top" xlink:title="Parametric Möbius strip, with configurable number of half&#45;twists ff (which must be odd to generate no...">
<polygon fill="white" stroke="black" points="192,-76.5 192,-95.5 317,-95.5 317,-76.5 192,-76.5"/>
<text text-anchor="middle" x="254.5" y="-83.5" font-family="Helvetica,sans-Serif" font-size="10.00">IGLib.Gr3D.MoebiusStrip</text>
</a>
</g>
</g>
<!-- Node1&#45;&gt;Node5 -->
<g id="edge4" class="edge"><title>Node1&#45;&gt;Node5</title>
<path fill="none" stroke="midnightblue" d="M160.39,-97.5403C171.017,-96.2232 181.727,-94.8958 191.909,-93.6338"/>
<polygon fill="midnightblue" stroke="midnightblue" points="159.741,-94.094 150.248,-98.7975 160.602,-101.041 159.741,-94.094"/>
</g>
<!-- Node6 -->
<g id="node6" class="node"><title>Node6</title>
<g id="a_node6"><a xlink:href="../../d1/df4/classIGLib_1_1Gr3D_1_1Sphere.html" target="_top" xlink:title="Parametric sphere surface, usual parameterization via longitude and latitude.">
<polygon fill="white" stroke="black" points="205.5,-38.5 205.5,-57.5 303.5,-57.5 303.5,-38.5 205.5,-38.5"/>
<text text-anchor="middle" x="254.5" y="-45.5" font-family="Helvetica,sans-Serif" font-size="10.00">IGLib.Gr3D.Sphere</text>
</a>
</g>
</g>
<!-- Node1&#45;&gt;Node6 -->
<g id="edge5" class="edge"><title>Node1&#45;&gt;Node6</title>
<path fill="none" stroke="midnightblue" d="M123.382,-89.3651C142.68,-82.031 165.282,-73.7641 186,-67 196.184,-63.675 207.343,-60.3908 217.603,-57.5122"/>
<polygon fill="midnightblue" stroke="midnightblue" points="121.997,-86.1475 113.909,-92.9908 124.499,-92.6851 121.997,-86.1475"/>
</g>
<!-- Node7 -->
<g id="node7" class="node"><title>Node7</title>
<g id="a_node7"><a xlink:href="../../d4/d76/classIGLib_1_1Gr3D_1_1Torus.html" target="_top" xlink:title="Parametric torus surface.">
<polygon fill="white" stroke="black" points="208.5,-0.5 208.5,-19.5 300.5,-19.5 300.5,-0.5 208.5,-0.5"/>
<text text-anchor="middle" x="254.5" y="-7.5" font-family="Helvetica,sans-Serif" font-size="10.00">IGLib.Gr3D.Torus</text>
</a>
</g>
</g>
<!-- Node1&#45;&gt;Node7 -->
<g id="edge6" class="edge"><title>Node1&#45;&gt;Node7</title>
<path fill="none" stroke="midnightblue" d="M100.959,-86.1659C122.265,-68.5269 154.392,-44.2139 186,-29 193.788,-25.2512 202.449,-22.1203 210.898,-19.553"/>
<polygon fill="midnightblue" stroke="midnightblue" points="98.4716,-83.6844 93.0727,-92.8005 102.978,-89.0409 98.4716,-83.6844"/>
</g>
</g>
</svg>
