<?xml version="1.0" encoding="UTF-8" standalone="no"?>
<!DOCTYPE svg PUBLIC "-//W3C//DTD SVG 1.1//EN"
 "http://www.w3.org/Graphics/SVG/1.1/DTD/svg11.dtd">
<!-- Generated by graphviz version 2.38.0 (20140413.2041)
 -->
<!-- Title: IG.Num.ScalarFunctionQuadratic Pages: 1 -->
<svg width="571pt" height="138pt"
 viewBox="0.00 0.00 571.00 138.00" xmlns="http://www.w3.org/2000/svg" xmlns:xlink="http://www.w3.org/1999/xlink">
<g id="graph0" class="graph" transform="scale(1 1) rotate(0) translate(4 134)">
<title>IG.Num.ScalarFunctionQuadratic</title>
<polygon fill="white" stroke="none" points="-4,4 -4,-134 567,-134 567,4 -4,4"/>
<!-- Node1 -->
<g id="node1" class="node"><title>Node1</title>
<g id="a_node1"><a xlink:title="Quadratic scalar function of vector variable. Function is evaluated according to q(x) = (1/2)*x^T*G*x...">
<polygon fill="#bfbfbf" stroke="black" points="403,-61.5 403,-80.5 563,-80.5 563,-61.5 403,-61.5"/>
<text text-anchor="middle" x="483" y="-68.5" font-family="Helvetica,sans-Serif" font-size="10.00">IG.Num.ScalarFunctionQuadratic</text>
</a>
</g>
</g>
<!-- Node2 -->
<g id="node2" class="node"><title>Node2</title>
<g id="a_node2"><a xlink:href="../../d2/d9e/classIG_1_1Num_1_1ScalarFunctionUntransformedBase.html" target="_top" xlink:title="Base class for defining scalar functions without possibility of affine transformation of parameters.">
<polygon fill="white" stroke="black" points="184,-88.5 184,-107.5 351,-107.5 351,-88.5 184,-88.5"/>
<text text-anchor="middle" x="267.5" y="-95.5" font-family="Helvetica,sans-Serif" font-size="10.00">ScalarFunctionUntransformedBase</text>
</a>
</g>
</g>
<!-- Node2&#45;&gt;Node1 -->
<g id="edge1" class="edge"><title>Node2&#45;&gt;Node1</title>
<path fill="none" stroke="midnightblue" d="M353.939,-87.1951C371.386,-84.9887 389.625,-82.682 406.688,-80.5242"/>
<polygon fill="midnightblue" stroke="midnightblue" points="353.254,-83.7537 343.772,-88.4808 354.132,-90.6984 353.254,-83.7537"/>
</g>
<!-- Node3 -->
<g id="node3" class="node"><title>Node3</title>
<g id="a_node3"><a xlink:href="../../d8/d56/interfaceIG_1_1Num_1_1IScalarFunctionUntransformed.html" target="_top" xlink:title="Scalar functions of vector arguments.">
<polygon fill="white" stroke="black" points="0,-110.5 0,-129.5 147,-129.5 147,-110.5 0,-110.5"/>
<text text-anchor="middle" x="73.5" y="-117.5" font-family="Helvetica,sans-Serif" font-size="10.00">IScalarFunctionUntransformed</text>
</a>
</g>
</g>
<!-- Node3&#45;&gt;Node1 -->
<g id="edge3" class="edge"><title>Node3&#45;&gt;Node1</title>
<path fill="none" stroke="midnightblue" d="M157.674,-122.071C160.483,-122.06 163.264,-122.037 166,-122 248.245,-120.889 270.112,-131.916 351,-117 391.298,-109.569 435.844,-91.7221 461.225,-80.57"/>
<polygon fill="midnightblue" stroke="midnightblue" points="157.42,-118.57 147.416,-122.058 157.412,-125.57 157.42,-118.57"/>
</g>
<!-- Node3&#45;&gt;Node2 -->
<g id="edge2" class="edge"><title>Node3&#45;&gt;Node2</title>
<path fill="none" stroke="midnightblue" d="M157.031,-110.543C165.912,-109.526 174.949,-108.49 183.832,-107.472"/>
<polygon fill="midnightblue" stroke="midnightblue" points="156.623,-107.067 147.087,-111.683 157.42,-114.022 156.623,-107.067"/>
</g>
<!-- Node4 -->
<g id="node4" class="node"><title>Node4</title>
<g id="a_node4"><a xlink:href="../../d8/d86/interfaceIG_1_1Num_1_1IMatrix.html" target="_top" xlink:title="Generic Matrix interface.">
<polygon fill="white" stroke="black" points="197.5,-39 197.5,-69 337.5,-69 337.5,-39 197.5,-39"/>
<text text-anchor="start" x="205.5" y="-57" font-family="Helvetica,sans-Serif" font-size="10.00">IG.Num.IMatrix&lt; Component</text>
<text text-anchor="middle" x="267.5" y="-46" font-family="Helvetica,sans-Serif" font-size="10.00">Type &gt;</text>
</a>
</g>
</g>
<!-- Node4&#45;&gt;Node1 -->
<g id="edge4" class="edge"><title>Node4&#45;&gt;Node1</title>
<path fill="none" stroke="#9a32cd" stroke-dasharray="5,2" d="M347.686,-60.3052C365.692,-61.739 384.822,-63.2622 402.828,-64.6959"/>
<polygon fill="#9a32cd" stroke="#9a32cd" points="347.769,-56.8008 337.522,-59.4959 347.213,-63.7787 347.769,-56.8008"/>
<text text-anchor="middle" x="377" y="-67" font-family="Helvetica,sans-Serif" font-size="10.00"> _G</text>
</g>
<!-- Node5 -->
<g id="node5" class="node"><title>Node5</title>
<g id="a_node5"><a xlink:href="../../d3/d24/interfaceIG_1_1Num_1_1IVector.html" target="_top" xlink:title="Generic Vector interface">
<polygon fill="white" stroke="black" points="214,-0.5 214,-19.5 321,-19.5 321,-0.5 214,-0.5"/>
<text text-anchor="middle" x="267.5" y="-7.5" font-family="Helvetica,sans-Serif" font-size="10.00">IG.Num.IVector&lt; T &gt;</text>
</a>
</g>
</g>
<!-- Node5&#45;&gt;Node1 -->
<g id="edge5" class="edge"><title>Node5&#45;&gt;Node1</title>
<path fill="none" stroke="#9a32cd" stroke-dasharray="5,2" d="M323.177,-21.9122C332.494,-24.1362 342.05,-26.5392 351,-29 387.155,-38.9404 428.235,-52.485 454.6,-61.4744"/>
<polygon fill="#9a32cd" stroke="#9a32cd" points="323.735,-18.4482 313.2,-19.575 322.138,-25.2637 323.735,-18.4482"/>
<text text-anchor="middle" x="377" y="-42" font-family="Helvetica,sans-Serif" font-size="10.00"> _b</text>
</g>
</g>
</svg>
