<?xml version="1.0" encoding="UTF-8" standalone="no"?>
<!DOCTYPE svg PUBLIC "-//W3C//DTD SVG 1.1//EN"
 "http://www.w3.org/Graphics/SVG/1.1/DTD/svg11.dtd">
<!-- Generated by graphviz version 2.38.0 (20140413.2041)
 -->
<!-- Title: IGLib.Core.CollectionTypeConverter Pages: 1 -->
<svg width="157pt" height="218pt"
 viewBox="0.00 0.00 157.00 218.00" xmlns="http://www.w3.org/2000/svg" xmlns:xlink="http://www.w3.org/1999/xlink">
<g id="graph0" class="graph" transform="scale(1 1) rotate(0) translate(4 214)">
<title>IGLib.Core.CollectionTypeConverter</title>
<polygon fill="white" stroke="none" points="-4,4 -4,-214 153,-214 153,4 -4,4"/>
<!-- Node1 -->
<g id="node1" class="node"><title>Node1</title>
<g id="a_node1"><a xlink:title="A type converter that supports conversion between basic types and a wide range of collection types,...">
<polygon fill="#bfbfbf" stroke="black" points="10,-67.5 10,-97.5 139,-97.5 139,-67.5 10,-67.5"/>
<text text-anchor="start" x="18" y="-85.5" font-family="Helvetica,sans-Serif" font-size="10.00">IGLib.Core.CollectionType</text>
<text text-anchor="middle" x="74.5" y="-74.5" font-family="Helvetica,sans-Serif" font-size="10.00">Converter</text>
</a>
</g>
</g>
<!-- Node4 -->
<g id="node4" class="node"><title>Node4</title>
<g id="a_node4"><a xlink:href="../../d3/d28/classIGLib_1_1CoreExtended_1_1ReflectionTypeConverter.html" target="_top" xlink:title="A type converter that supports implicit/explicit conversion operators via reflection,...">
<polygon fill="white" stroke="black" points="0,-0.5 0,-30.5 149,-30.5 149,-0.5 0,-0.5"/>
<text text-anchor="start" x="8" y="-18.5" font-family="Helvetica,sans-Serif" font-size="10.00">IGLib.CoreExtended.Reflection</text>
<text text-anchor="middle" x="74.5" y="-7.5" font-family="Helvetica,sans-Serif" font-size="10.00">TypeConverter</text>
</a>
</g>
</g>
<!-- Node1&#45;&gt;Node4 -->
<g id="edge3" class="edge"><title>Node1&#45;&gt;Node4</title>
<path fill="none" stroke="midnightblue" d="M74.5,-57.1081C74.5,-48.1539 74.5,-38.3227 74.5,-30.5765"/>
<polygon fill="midnightblue" stroke="midnightblue" points="71.0001,-57.3959 74.5,-67.396 78.0001,-57.396 71.0001,-57.3959"/>
</g>
<!-- Node2 -->
<g id="node2" class="node"><title>Node2</title>
<g id="a_node2"><a xlink:href="../../d9/d23/classIGLib_1_1Core_1_1BasicTypeConverter.html" target="_top" xlink:title="Provides basic type conversion functionality using IConvertible and nullable handling.">
<polygon fill="white" stroke="black" points="23,-134.5 23,-153.5 126,-153.5 126,-134.5 23,-134.5"/>
<text text-anchor="middle" x="74.5" y="-141.5" font-family="Helvetica,sans-Serif" font-size="10.00">BasicTypeConverter</text>
</a>
</g>
</g>
<!-- Node2&#45;&gt;Node1 -->
<g id="edge1" class="edge"><title>Node2&#45;&gt;Node1</title>
<path fill="none" stroke="midnightblue" d="M74.5,-124.235C74.5,-115.586 74.5,-105.497 74.5,-97.523"/>
<polygon fill="midnightblue" stroke="midnightblue" points="71.0001,-124.475 74.5,-134.475 78.0001,-124.475 71.0001,-124.475"/>
</g>
<!-- Node3 -->
<g id="node3" class="node"><title>Node3</title>
<g id="a_node3"><a xlink:href="../../de/d63/interfaceIGLib_1_1Core_1_1ITypeConverter.html" target="_top" xlink:title="Defines methods for converting objects to a specified type.">
<polygon fill="white" stroke="black" points="34.5,-190.5 34.5,-209.5 114.5,-209.5 114.5,-190.5 34.5,-190.5"/>
<text text-anchor="middle" x="74.5" y="-197.5" font-family="Helvetica,sans-Serif" font-size="10.00">ITypeConverter</text>
</a>
</g>
</g>
<!-- Node3&#45;&gt;Node2 -->
<g id="edge2" class="edge"><title>Node3&#45;&gt;Node2</title>
<path fill="none" stroke="midnightblue" d="M74.5,-179.805C74.5,-170.91 74.5,-160.78 74.5,-153.751"/>
<polygon fill="midnightblue" stroke="midnightblue" points="71.0001,-180.083 74.5,-190.083 78.0001,-180.083 71.0001,-180.083"/>
</g>
</g>
</svg>
