<?xml version="1.0" encoding="UTF-8" standalone="no"?>
<!DOCTYPE svg PUBLIC "-//W3C//DTD SVG 1.1//EN"
 "http://www.w3.org/Graphics/SVG/1.1/DTD/svg11.dtd">
<!-- Generated by graphviz version 2.38.0 (20140413.2041)
 -->
<!-- Title: IG.Num.VectorFunctionResultsDto Pages: 1 -->
<svg width="769pt" height="156pt"
 viewBox="0.00 0.00 769.00 155.50" xmlns="http://www.w3.org/2000/svg" xmlns:xlink="http://www.w3.org/1999/xlink">
<g id="graph0" class="graph" transform="scale(1 1) rotate(0) translate(4 151.5)">
<title>IG.Num.VectorFunctionResultsDto</title>
<polygon fill="white" stroke="none" points="-4,4 -4,-151.5 765,-151.5 765,4 -4,4"/>
<!-- Node1 -->
<g id="node1" class="node"><title>Node1</title>
<g id="a_node1"><a xlink:title="DTO (Data Transfer Objects) for storing contents of vector function results.">
<polygon fill="#bfbfbf" stroke="black" points="594,-58 594,-77 761,-77 761,-58 594,-58"/>
<text text-anchor="middle" x="677.5" y="-65" font-family="Helvetica,sans-Serif" font-size="10.00">IG.Num.VectorFunctionResultsDto</text>
</a>
</g>
</g>
<!-- Node2 -->
<g id="node2" class="node"><title>Node2</title>
<g id="a_node2"><a xlink:href="../../d6/d7d/classIG_1_1Num_1_1VectorFunctionRequestDTO.html" target="_top" xlink:title="DTO (Data Transfer Objects) for storing contents of vector function evaluation request.">
<polygon fill="white" stroke="black" points="376,-97 376,-116 514,-116 514,-97 376,-97"/>
<text text-anchor="middle" x="445" y="-104" font-family="Helvetica,sans-Serif" font-size="10.00">VectorFunctionRequestDTO</text>
</a>
</g>
</g>
<!-- Node2&#45;&gt;Node1 -->
<g id="edge1" class="edge"><title>Node2&#45;&gt;Node1</title>
<path fill="none" stroke="midnightblue" d="M512.286,-95.2845C546.464,-89.5018 587.698,-82.5251 620.296,-77.0095"/>
<polygon fill="midnightblue" stroke="midnightblue" points="511.663,-91.8402 502.387,-96.9595 512.83,-98.7421 511.663,-91.8402"/>
</g>
<!-- Node3 -->
<g id="node3" class="node"><title>Node3</title>
<g id="a_node3"><a xlink:href="../../d7/dd8/classIG_1_1Lib_1_1SerializationDtoBase.html" target="_top" xlink:title=" ">
<polygon fill="white" stroke="black" points="158,-106 158,-147 286,-147 286,-106 158,-106"/>
<text text-anchor="start" x="166" y="-135" font-family="Helvetica,sans-Serif" font-size="10.00">SerializationDtoBase</text>
<text text-anchor="start" x="166" y="-124" font-family="Helvetica,sans-Serif" font-size="10.00">&lt; VectorFunctionResults,</text>
<text text-anchor="middle" x="222" y="-113" font-family="Helvetica,sans-Serif" font-size="10.00"> VectorFunctionResults &gt;</text>
</a>
</g>
</g>
<!-- Node3&#45;&gt;Node2 -->
<g id="edge2" class="edge"><title>Node3&#45;&gt;Node2</title>
<path fill="none" stroke="midnightblue" d="M296.094,-119.885C321.801,-117.559 350.571,-114.955 375.854,-112.667"/>
<polygon fill="midnightblue" stroke="midnightblue" points="295.678,-116.408 286.034,-120.796 296.309,-123.38 295.678,-116.408"/>
</g>
<!-- Node4 -->
<g id="node4" class="node"><title>Node4</title>
<g id="a_node4"><a xlink:href="../../dc/dec/classIG_1_1Lib_1_1VectorDtoBase.html" target="_top" xlink:title="Base class for various vector DTO (Data Transfer Objects) for vectors. Used to store a state of a vec...">
<polygon fill="white" stroke="black" points="166.5,-54.5 166.5,-84.5 277.5,-84.5 277.5,-54.5 166.5,-54.5"/>
<text text-anchor="start" x="174.5" y="-72.5" font-family="Helvetica,sans-Serif" font-size="10.00">IG.Lib.VectorDtoBase</text>
<text text-anchor="middle" x="222" y="-61.5" font-family="Helvetica,sans-Serif" font-size="10.00">&lt; VectorType &gt;</text>
</a>
</g>
</g>
<!-- Node4&#45;&gt;Node1 -->
<g id="edge7" class="edge"><title>Node4&#45;&gt;Node1</title>
<path fill="none" stroke="#9a32cd" stroke-dasharray="5,2" d="M287.715,-69.2146C368.251,-68.8594 505.888,-68.2524 593.943,-67.8641"/>
<polygon fill="#9a32cd" stroke="#9a32cd" points="287.687,-65.7146 277.703,-69.2588 287.718,-72.7145 287.687,-65.7146"/>
<text text-anchor="middle" x="445" y="-72.5" font-family="Helvetica,sans-Serif" font-size="10.00"> Gradients</text>
</g>
<!-- Node4&#45;&gt;Node2 -->
<g id="edge3" class="edge"><title>Node4&#45;&gt;Node2</title>
<path fill="none" stroke="#9a32cd" stroke-dasharray="5,2" d="M287.611,-80.3172C319.058,-85.582 356.534,-91.8564 386.916,-96.943"/>
<polygon fill="#9a32cd" stroke="#9a32cd" points="288.07,-76.8454 277.629,-78.6461 286.914,-83.7493 288.07,-76.8454"/>
<text text-anchor="middle" x="331" y="-94.5" font-family="Helvetica,sans-Serif" font-size="10.00"> Parameters</text>
</g>
<!-- Node5 -->
<g id="node5" class="node"><title>Node5</title>
<g id="a_node5"><a xlink:href="../../d7/dd8/classIG_1_1Lib_1_1SerializationDtoBase.html" target="_top" xlink:title=" ">
<polygon fill="white" stroke="black" points="0,-54.5 0,-84.5 121,-84.5 121,-54.5 0,-54.5"/>
<text text-anchor="start" x="8" y="-72.5" font-family="Helvetica,sans-Serif" font-size="10.00">SerializationDtoBase</text>
<text text-anchor="middle" x="60.5" y="-61.5" font-family="Helvetica,sans-Serif" font-size="10.00">&lt; VectorType, IVector &gt;</text>
</a>
</g>
</g>
<!-- Node5&#45;&gt;Node4 -->
<g id="edge4" class="edge"><title>Node5&#45;&gt;Node4</title>
<path fill="none" stroke="midnightblue" d="M131.503,-69.5C143.174,-69.5 155.128,-69.5 166.344,-69.5"/>
<polygon fill="midnightblue" stroke="midnightblue" points="131.346,-66.0001 121.346,-69.5 131.346,-73.0001 131.346,-66.0001"/>
</g>
<!-- Node6 -->
<g id="node6" class="node"><title>Node6</title>
<g id="a_node6"><a xlink:href="../../d1/d42/classIG_1_1Lib_1_1MatrixDtoBase.html" target="_top" xlink:title="Base class for various matrix DTO (Data Transfer Objects) for matrixs. Used to store a state of a mat...">
<polygon fill="white" stroke="black" points="390,-0.5 390,-30.5 500,-30.5 500,-0.5 390,-0.5"/>
<text text-anchor="start" x="398" y="-18.5" font-family="Helvetica,sans-Serif" font-size="10.00">IG.Lib.MatrixDtoBase</text>
<text text-anchor="middle" x="445" y="-7.5" font-family="Helvetica,sans-Serif" font-size="10.00">&lt; MatrixType &gt;</text>
</a>
</g>
</g>
<!-- Node6&#45;&gt;Node1 -->
<g id="edge5" class="edge"><title>Node6&#45;&gt;Node1</title>
<path fill="none" stroke="#9a32cd" stroke-dasharray="5,2" d="M509.986,-28.272C531.05,-32.6144 554.562,-37.6092 576,-42.5 597.035,-47.2988 620.432,-53.0919 639.355,-57.8927"/>
<polygon fill="#9a32cd" stroke="#9a32cd" points="510.68,-24.8416 500.181,-26.2611 509.274,-31.6989 510.68,-24.8416"/>
<text text-anchor="middle" x="554" y="-45.5" font-family="Helvetica,sans-Serif" font-size="10.00"> Hessians</text>
</g>
<!-- Node7 -->
<g id="node7" class="node"><title>Node7</title>
<g id="a_node7"><a xlink:href="../../d7/dd8/classIG_1_1Lib_1_1SerializationDtoBase.html" target="_top" xlink:title=" ">
<polygon fill="white" stroke="black" points="163,-0.5 163,-30.5 281,-30.5 281,-0.5 163,-0.5"/>
<text text-anchor="start" x="171" y="-18.5" font-family="Helvetica,sans-Serif" font-size="10.00">SerializationDtoBase</text>
<text text-anchor="middle" x="222" y="-7.5" font-family="Helvetica,sans-Serif" font-size="10.00">&lt; MatrixType, IMatrix &gt;</text>
</a>
</g>
</g>
<!-- Node7&#45;&gt;Node6 -->
<g id="edge6" class="edge"><title>Node7&#45;&gt;Node6</title>
<path fill="none" stroke="midnightblue" d="M291.144,-15.5C322.83,-15.5 359.991,-15.5 389.738,-15.5"/>
<polygon fill="midnightblue" stroke="midnightblue" points="291.065,-12.0001 281.065,-15.5 291.065,-19.0001 291.065,-12.0001"/>
</g>
</g>
</svg>
