<?xml version="1.0" encoding="UTF-8" standalone="no"?>
<!DOCTYPE svg PUBLIC "-//W3C//DTD SVG 1.1//EN"
 "http://www.w3.org/Graphics/SVG/1.1/DTD/svg11.dtd">
<!-- Generated by graphviz version 2.38.0 (20140413.2041)
 -->
<!-- Title: IG.Num.Func3d2dExamples.TorusHorizontal Pages: 1 -->
<svg width="239pt" height="330pt"
 viewBox="0.00 0.00 238.50 330.00" xmlns="http://www.w3.org/2000/svg" xmlns:xlink="http://www.w3.org/1999/xlink">
<g id="graph0" class="graph" transform="scale(1 1) rotate(0) translate(4 326)">
<title>IG.Num.Func3d2dExamples.TorusHorizontal</title>
<polygon fill="white" stroke="none" points="-4,4 -4,-326 234.5,-326 234.5,4 -4,4"/>
<!-- Node1 -->
<g id="node1" class="node"><title>Node1</title>
<g id="a_node1"><a xlink:title="Parametric equation of a horizontal toroid surface in form of 3D vector function of 2 variables.">
<polygon fill="#bfbfbf" stroke="black" points="0,-67.5 0,-97.5 142,-97.5 142,-67.5 0,-67.5"/>
<text text-anchor="start" x="8" y="-85.5" font-family="Helvetica,sans-Serif" font-size="10.00">IG.Num.Func3d2dExamples.</text>
<text text-anchor="middle" x="71" y="-74.5" font-family="Helvetica,sans-Serif" font-size="10.00">TorusHorizontal</text>
</a>
</g>
</g>
<!-- Node6 -->
<g id="node6" class="node"><title>Node6</title>
<g id="a_node6"><a xlink:href="../../dc/db8/classIG_1_1Num_1_1Func3d2dExamples_1_1TorusVertical.html" target="_top" xlink:title="Parametric equation of a horizontal toroid surface in form of 3D vector function of 2 variables.">
<polygon fill="white" stroke="black" points="0,-0.5 0,-30.5 142,-30.5 142,-0.5 0,-0.5"/>
<text text-anchor="start" x="8" y="-18.5" font-family="Helvetica,sans-Serif" font-size="10.00">IG.Num.Func3d2dExamples.</text>
<text text-anchor="middle" x="71" y="-7.5" font-family="Helvetica,sans-Serif" font-size="10.00">TorusVertical</text>
</a>
</g>
</g>
<!-- Node1&#45;&gt;Node6 -->
<g id="edge8" class="edge"><title>Node1&#45;&gt;Node6</title>
<path fill="none" stroke="midnightblue" d="M71,-57.1081C71,-48.1539 71,-38.3227 71,-30.5765"/>
<polygon fill="midnightblue" stroke="midnightblue" points="67.5001,-57.3959 71,-67.396 74.5001,-57.396 67.5001,-57.3959"/>
</g>
<!-- Node2 -->
<g id="node2" class="node"><title>Node2</title>
<g id="a_node2"><a xlink:href="../../d0/d54/classIG_1_1Num_1_1Func3d2dExamples_1_1ParametricSurface.html" target="_top" xlink:title="Base class for easy definition of parametric surfaces intended for plotting.">
<polygon fill="white" stroke="black" points="61.5,-134.5 61.5,-153.5 158.5,-153.5 158.5,-134.5 61.5,-134.5"/>
<text text-anchor="middle" x="110" y="-141.5" font-family="Helvetica,sans-Serif" font-size="10.00">ParametricSurface</text>
</a>
</g>
</g>
<!-- Node2&#45;&gt;Node1 -->
<g id="edge1" class="edge"><title>Node2&#45;&gt;Node1</title>
<path fill="none" stroke="midnightblue" d="M98.8331,-125.963C92.9294,-116.956 85.7705,-106.034 80.1915,-97.523"/>
<polygon fill="midnightblue" stroke="midnightblue" points="96.003,-128.03 104.412,-134.475 101.857,-124.193 96.003,-128.03"/>
</g>
<!-- Node3 -->
<g id="node3" class="node"><title>Node3</title>
<g id="a_node3"><a xlink:href="../../d3/dc0/classIG_1_1Num_1_1Func3d2dBaseNoGradient.html" target="_top" xlink:title="Base class for 3D vector functions of 2 variables (implementations of the IFunc3d2d interface) that d...">
<polygon fill="white" stroke="black" points="99.5,-190.5 99.5,-209.5 230.5,-209.5 230.5,-190.5 99.5,-190.5"/>
<text text-anchor="middle" x="165" y="-197.5" font-family="Helvetica,sans-Serif" font-size="10.00">Func3d2dBaseNoGradient</text>
</a>
</g>
</g>
<!-- Node3&#45;&gt;Node2 -->
<g id="edge2" class="edge"><title>Node3&#45;&gt;Node2</title>
<path fill="none" stroke="midnightblue" d="M148.706,-183.002C138.959,-173.433 126.947,-161.639 118.913,-153.751"/>
<polygon fill="midnightblue" stroke="midnightblue" points="146.33,-185.575 155.918,-190.083 151.234,-180.58 146.33,-185.575"/>
</g>
<!-- Node4 -->
<g id="node4" class="node"><title>Node4</title>
<g id="a_node4"><a xlink:href="../../df/d0e/classIG_1_1Num_1_1Func3d2dBase.html" target="_top" xlink:title="Base class for 3D vector functions of 2 variables (base for implementation of IFunc3d2d interface).">
<polygon fill="white" stroke="black" points="137,-246.5 137,-265.5 219,-265.5 219,-246.5 137,-246.5"/>
<text text-anchor="middle" x="178" y="-253.5" font-family="Helvetica,sans-Serif" font-size="10.00">Func3d2dBase</text>
</a>
</g>
</g>
<!-- Node4&#45;&gt;Node3 -->
<g id="edge3" class="edge"><title>Node4&#45;&gt;Node3</title>
<path fill="none" stroke="midnightblue" d="M173.45,-236.101C171.292,-227.136 168.818,-216.858 167.107,-209.751"/>
<polygon fill="midnightblue" stroke="midnightblue" points="170.11,-237.18 175.853,-246.083 176.915,-235.542 170.11,-237.18"/>
</g>
<!-- Node5 -->
<g id="node5" class="node"><title>Node5</title>
<g id="a_node5"><a xlink:href="../../d3/d6f/interfaceIG_1_1Num_1_1IFunc3d2d.html" target="_top" xlink:title="Represents 3D vector functions of 2 variables.">
<polygon fill="white" stroke="black" points="59,-302.5 59,-321.5 121,-321.5 121,-302.5 59,-302.5"/>
<text text-anchor="middle" x="90" y="-309.5" font-family="Helvetica,sans-Serif" font-size="10.00">IFunc3d2d</text>
</a>
</g>
</g>
<!-- Node5&#45;&gt;Node1 -->
<g id="edge7" class="edge"><title>Node5&#45;&gt;Node1</title>
<path fill="none" stroke="midnightblue" d="M81.2952,-292.817C67.0585,-260.828 41.3881,-192.341 52,-134 54.3134,-121.282 59.6538,-107.601 64.0855,-97.6905"/>
<polygon fill="midnightblue" stroke="midnightblue" points="78.2537,-294.58 85.616,-302.199 84.6118,-291.652 78.2537,-294.58"/>
</g>
<!-- Node5&#45;&gt;Node2 -->
<g id="edge6" class="edge"><title>Node5&#45;&gt;Node2</title>
<path fill="none" stroke="midnightblue" d="M87.6093,-292.19C85.0999,-268.179 82.4673,-225.496 90,-190 92.8396,-176.619 99.9422,-162.386 104.87,-153.593"/>
<polygon fill="midnightblue" stroke="midnightblue" points="84.1602,-292.833 88.7862,-302.364 91.1138,-292.028 84.1602,-292.833"/>
</g>
<!-- Node5&#45;&gt;Node3 -->
<g id="edge5" class="edge"><title>Node5&#45;&gt;Node3</title>
<path fill="none" stroke="midnightblue" d="M99.3622,-293.273C106.644,-279.934 117.281,-261.383 128,-246 137.252,-232.723 149.392,-218.464 157.196,-209.637"/>
<polygon fill="midnightblue" stroke="midnightblue" points="96.1517,-291.854 94.5021,-302.319 102.318,-295.167 96.1517,-291.854"/>
</g>
<!-- Node5&#45;&gt;Node4 -->
<g id="edge4" class="edge"><title>Node5&#45;&gt;Node4</title>
<path fill="none" stroke="midnightblue" d="M112.977,-296.901C129.113,-286.999 150.181,-274.071 163.896,-265.655"/>
<polygon fill="midnightblue" stroke="midnightblue" points="110.831,-294.111 104.139,-302.324 114.493,-300.077 110.831,-294.111"/>
</g>
</g>
</svg>
