<?xml version="1.0" encoding="UTF-8" standalone="no"?>
<!DOCTYPE svg PUBLIC "-//W3C//DTD SVG 1.1//EN"
 "http://www.w3.org/Graphics/SVG/1.1/DTD/svg11.dtd">
<!-- Generated by graphviz version 2.38.0 (20140413.2041)
 -->
<!-- Title: IG.Lib.CommandLineApplicationInterpreter.InterpreterPipeServer Pages: 1 -->
<svg width="405pt" height="467pt"
 viewBox="0.00 0.00 405.00 467.00" xmlns="http://www.w3.org/2000/svg" xmlns:xlink="http://www.w3.org/1999/xlink">
<g id="graph0" class="graph" transform="scale(1 1) rotate(0) translate(4 463)">
<title>IG.Lib.CommandLineApplicationInterpreter.InterpreterPipeServer</title>
<polygon fill="white" stroke="none" points="-4,4 -4,-463 401,-463 401,4 -4,4"/>
<!-- Node1 -->
<g id="node1" class="node"><title>Node1</title>
<g id="a_node1"><a xlink:title="Command&#45;line interpreter&#39;s server that creates a named pipe, listens on its input stream for client r...">
<polygon fill="#bfbfbf" stroke="black" points="96.5,-0.5 96.5,-30.5 251.5,-30.5 251.5,-0.5 96.5,-0.5"/>
<text text-anchor="start" x="104.5" y="-18.5" font-family="Helvetica,sans-Serif" font-size="10.00">IG.Lib.CommandLineApplication</text>
<text text-anchor="middle" x="174" y="-7.5" font-family="Helvetica,sans-Serif" font-size="10.00">Interpreter.InterpreterPipeServer</text>
</a>
</g>
</g>
<!-- Node2 -->
<g id="node2" class="node"><title>Node2</title>
<g id="a_node2"><a xlink:href="../../d3/d6a/classIG_1_1Lib_1_1NamedPipeServerBase.html" target="_top" xlink:title="Server that creates a named pipe, listens on its input stream, and sends responses to the client.">
<polygon fill="white" stroke="black" points="0,-84 0,-103 116,-103 116,-84 0,-84"/>
<text text-anchor="middle" x="58" y="-91" font-family="Helvetica,sans-Serif" font-size="10.00">NamedPipeServerBase</text>
</a>
</g>
</g>
<!-- Node2&#45;&gt;Node1 -->
<g id="edge1" class="edge"><title>Node2&#45;&gt;Node1</title>
<path fill="none" stroke="midnightblue" d="M79.8113,-78.2098C100.658,-64.5516 131.893,-44.0874 152.601,-30.5198"/>
<polygon fill="midnightblue" stroke="midnightblue" points="77.7532,-75.3739 71.3067,-83.7818 81.5894,-81.2291 77.7532,-75.3739"/>
</g>
<!-- Node3 -->
<g id="node3" class="node"><title>Node3</title>
<g id="a_node3"><a xlink:href="../../d1/d4d/classIG_1_1Lib_1_1IpcStreamServerBase.html" target="_top" xlink:title="Server that creates a named pipe, listens on its input stream, and sends responses to the client.">
<polygon fill="white" stroke="black" points="74,-146.5 74,-165.5 184,-165.5 184,-146.5 74,-146.5"/>
<text text-anchor="middle" x="129" y="-153.5" font-family="Helvetica,sans-Serif" font-size="10.00">IpcStreamServerBase</text>
</a>
</g>
</g>
<!-- Node3&#45;&gt;Node2 -->
<g id="edge2" class="edge"><title>Node3&#45;&gt;Node2</title>
<path fill="none" stroke="midnightblue" d="M111.068,-139.72C97.4886,-128.149 79.3231,-112.67 68.1537,-103.152"/>
<polygon fill="midnightblue" stroke="midnightblue" points="108.946,-142.51 118.827,-146.332 113.486,-137.182 108.946,-142.51"/>
</g>
<!-- Node4 -->
<g id="node4" class="node"><title>Node4</title>
<g id="a_node4"><a xlink:href="../../da/d2c/classIG_1_1Lib_1_1IpcStreamClientServerBase2.html" target="_top" xlink:title="Base class for named pipe servers and clients, contains common stuff for both.">
<polygon fill="white" stroke="black" points="121,-203.5 121,-222.5 261,-222.5 261,-203.5 121,-203.5"/>
<text text-anchor="middle" x="191" y="-210.5" font-family="Helvetica,sans-Serif" font-size="10.00">IpcStreamClientServerBase2</text>
</a>
</g>
</g>
<!-- Node4&#45;&gt;Node3 -->
<g id="edge3" class="edge"><title>Node4&#45;&gt;Node3</title>
<path fill="none" stroke="midnightblue" d="M173.762,-196.708C162.497,-186.715 148.19,-174.024 138.824,-165.715"/>
<polygon fill="midnightblue" stroke="midnightblue" points="171.509,-199.388 181.313,-203.406 176.154,-194.152 171.509,-199.388"/>
</g>
<!-- Node5 -->
<g id="node5" class="node"><title>Node5</title>
<g id="a_node5"><a xlink:href="../../d5/dd9/classIG_1_1Lib_1_1IpcStreamClientServerBase.html" target="_top" xlink:title="Base class for client and server classes with stream&#45;based communication.">
<polygon fill="white" stroke="black" points="150.5,-261.5 150.5,-280.5 285.5,-280.5 285.5,-261.5 150.5,-261.5"/>
<text text-anchor="middle" x="218" y="-268.5" font-family="Helvetica,sans-Serif" font-size="10.00">IpcStreamClientServerBase</text>
</a>
</g>
</g>
<!-- Node5&#45;&gt;Node4 -->
<g id="edge4" class="edge"><title>Node5&#45;&gt;Node4</title>
<path fill="none" stroke="midnightblue" d="M209.42,-252.204C204.632,-242.273 198.887,-230.358 195.101,-222.505"/>
<polygon fill="midnightblue" stroke="midnightblue" points="206.286,-253.762 213.781,-261.25 212.591,-250.722 206.286,-253.762"/>
</g>
<!-- Node6 -->
<g id="node6" class="node"><title>Node6</title>
<g id="a_node6"><a xlink:href="../../d3/db6/interfaceIG_1_1Lib_1_1ILockable.html" target="_top" xlink:title="Lockable object, has a Lock property that returns object on which lock must be performed in order to ...">
<polygon fill="white" stroke="black" points="74,-439.5 74,-458.5 132,-458.5 132,-439.5 74,-439.5"/>
<text text-anchor="middle" x="103" y="-446.5" font-family="Helvetica,sans-Serif" font-size="10.00">ILockable</text>
</a>
</g>
</g>
<!-- Node6&#45;&gt;Node2 -->
<g id="edge10" class="edge"><title>Node6&#45;&gt;Node2</title>
<path fill="none" stroke="midnightblue" d="M93.0123,-430.011C76.6664,-398.835 46,-332.309 46,-272 46,-272 46,-272 46,-155 46,-136.154 51.6719,-114.625 55.2168,-103.011"/>
<polygon fill="midnightblue" stroke="midnightblue" points="90.1199,-432.023 97.9416,-439.169 96.2837,-428.705 90.1199,-432.023"/>
</g>
<!-- Node6&#45;&gt;Node3 -->
<g id="edge9" class="edge"><title>Node6&#45;&gt;Node3</title>
<path fill="none" stroke="midnightblue" d="M100.607,-428.847C100.356,-426.214 100.141,-423.543 100,-421 94.6339,-324.113 89.0719,-297.288 112,-203 115.259,-189.598 121.201,-174.737 125.125,-165.631"/>
<polygon fill="midnightblue" stroke="midnightblue" points="97.1556,-429.474 101.75,-439.021 104.112,-428.692 97.1556,-429.474"/>
</g>
<!-- Node6&#45;&gt;Node4 -->
<g id="edge7" class="edge"><title>Node6&#45;&gt;Node4</title>
<path fill="none" stroke="midnightblue" d="M103.048,-429.215C103.913,-393.814 109.565,-315.774 141,-260 149.919,-244.176 166.201,-230.744 177.76,-222.552"/>
<polygon fill="midnightblue" stroke="midnightblue" points="99.5445,-429.445 102.908,-439.492 106.544,-429.541 99.5445,-429.445"/>
</g>
<!-- Node6&#45;&gt;Node5 -->
<g id="edge5" class="edge"><title>Node6&#45;&gt;Node5</title>
<path fill="none" stroke="midnightblue" d="M124.593,-433.057C128.765,-429.462 132.821,-425.381 136,-421 169.885,-374.308 148.858,-346.505 183,-300 188.618,-292.347 196.83,-285.629 203.888,-280.693"/>
<polygon fill="midnightblue" stroke="midnightblue" points="122.323,-430.39 116.627,-439.323 126.651,-435.892 122.323,-430.39"/>
</g>
<!-- Node7 -->
<g id="node7" class="node"><title>Node7</title>
<g id="a_node7"><a xlink:title=" ">
<polygon fill="white" stroke="#bfbfbf" points="249.5,-439.5 249.5,-458.5 290.5,-458.5 290.5,-439.5 249.5,-439.5"/>
<text text-anchor="middle" x="270" y="-446.5" font-family="Helvetica,sans-Serif" font-size="10.00">static</text>
</a>
</g>
</g>
<!-- Node7&#45;&gt;Node4 -->
<g id="edge8" class="edge"><title>Node7&#45;&gt;Node4</title>
<path fill="none" stroke="#9a32cd" stroke-dasharray="5,2" d="M300.156,-439.822C309.426,-435.739 318.601,-429.735 324,-421 352.273,-375.254 341.006,-351.018 324,-300 309.653,-256.958 258.549,-233.674 224.03,-222.559"/>
<polygon fill="#9a32cd" stroke="#9a32cd" points="298.739,-436.616 290.615,-443.417 301.207,-443.166 298.739,-436.616"/>
<text text-anchor="middle" x="356" y="-274" font-family="Helvetica,sans-Serif" font-size="10.00"> _defaultPipeName</text>
<text text-anchor="middle" x="356" y="-263" font-family="Helvetica,sans-Serif" font-size="10.00">_defaultErrorBegin</text>
</g>
<!-- Node7&#45;&gt;Node5 -->
<g id="edge6" class="edge"><title>Node7&#45;&gt;Node5</title>
<path fill="none" stroke="#9a32cd" stroke-dasharray="5,2" d="M239.226,-443.457C225.746,-439.77 211.164,-433.092 203,-421 172.908,-376.43 189.909,-352.16 203,-300 204.718,-293.154 208.468,-286.154 211.789,-280.865"/>
<polygon fill="#9a32cd" stroke="#9a32cd" points="238.666,-446.92 249.195,-445.734 240.225,-440.095 238.666,-446.92"/>
<text text-anchor="middle" x="263.5" y="-413" font-family="Helvetica,sans-Serif" font-size="10.00"> _defaultMsgTestSpeed</text>
<text text-anchor="middle" x="263.5" y="-402" font-family="Helvetica,sans-Serif" font-size="10.00">_defaultStopRequest</text>
<text text-anchor="middle" x="263.5" y="-391" font-family="Helvetica,sans-Serif" font-size="10.00">_defaultMessagePrefix</text>
<text text-anchor="middle" x="263.5" y="-380" font-family="Helvetica,sans-Serif" font-size="10.00">_defaultMsgRequestBegin</text>
<text text-anchor="middle" x="263.5" y="-369" font-family="Helvetica,sans-Serif" font-size="10.00">_defaultMsgRequestEnd</text>
<text text-anchor="middle" x="263.5" y="-358" font-family="Helvetica,sans-Serif" font-size="10.00">_defaultMessageSeparator</text>
<text text-anchor="middle" x="263.5" y="-347" font-family="Helvetica,sans-Serif" font-size="10.00">_defaultStoppedResponse</text>
<text text-anchor="middle" x="263.5" y="-336" font-family="Helvetica,sans-Serif" font-size="10.00">_defaultMsgResponseEnd</text>
<text text-anchor="middle" x="263.5" y="-325" font-family="Helvetica,sans-Serif" font-size="10.00">_defaultIsMultilineResponse</text>
<text text-anchor="middle" x="263.5" y="-314" font-family="Helvetica,sans-Serif" font-size="10.00">_defaultMsgResponseBegin</text>
<text text-anchor="middle" x="263.5" y="-303" font-family="Helvetica,sans-Serif" font-size="10.00">...</text>
</g>
<!-- Node8 -->
<g id="node8" class="node"><title>Node8</title>
<g id="a_node8"><a xlink:href="../../de/dfd/interfaceIG_1_1Lib_1_1ICommandLineApplicationInterpreter.html" target="_top" xlink:title="Interface for simple command&#45;line applicatino interpreters.">
<polygon fill="white" stroke="black" points="134,-78.5 134,-108.5 292,-108.5 292,-78.5 134,-78.5"/>
<text text-anchor="start" x="142" y="-96.5" font-family="Helvetica,sans-Serif" font-size="10.00">IG.Lib.ICommandLineApplication</text>
<text text-anchor="middle" x="213" y="-85.5" font-family="Helvetica,sans-Serif" font-size="10.00">Interpreter</text>
</a>
</g>
</g>
<!-- Node8&#45;&gt;Node1 -->
<g id="edge11" class="edge"><title>Node8&#45;&gt;Node1</title>
<path fill="none" stroke="#9a32cd" stroke-dasharray="5,2" d="M201.046,-69.2047C194.599,-56.641 186.85,-41.5416 181.303,-30.7309"/>
<polygon fill="#9a32cd" stroke="#9a32cd" points="197.985,-70.906 205.664,-78.205 204.213,-67.7101 197.985,-70.906"/>
<text text-anchor="middle" x="222" y="-52" font-family="Helvetica,sans-Serif" font-size="10.00"> _interpreter</text>
</g>
</g>
</svg>
