<?xml version="1.0" encoding="UTF-8" standalone="no"?>
<!DOCTYPE svg PUBLIC "-//W3C//DTD SVG 1.1//EN"
 "http://www.w3.org/Graphics/SVG/1.1/DTD/svg11.dtd">
<!-- Generated by graphviz version 2.38.0 (20140413.2041)
 -->
<!-- Title: IG.Num.DistanceComparer&lt; PointContainerType, PointType &gt; Pages: 1 -->
<!--zoomable 188 -->
<svg id="main" version="1.1" xmlns="http://www.w3.org/2000/svg" xmlns:xlink="http://www.w3.org/1999/xlink" xml:space="preserve" onload="init(evt)">
<style type="text/css"><![CDATA[
.edge:hover path { stroke: red; }
.edge:hover polygon { stroke: red; fill: red; }
]]></style>
<script type="text/javascript"><![CDATA[
var edges = document.getElementsByTagName('g');
if (edges && edges.length) {
  for (var i=0;i<edges.length;i++) {
    if (edges[i].id.substr(0,4)=='edge') {
      edges[i].setAttribute('class','edge');
    }
  }
}
]]></script>
        <defs>
                <circle id="rim" cx="0" cy="0" r="7"/>
                <circle id="rim2" cx="0" cy="0" r="3.5"/>
                <g id="zoomPlus">
                        <use xlink:href="#rim" fill="#404040">
                                <set attributeName="fill" to="#808080" begin="zoomplus.mouseover" end="zoomplus.mouseout"/>
                        </use>
                        <path d="M-4,0h8M0,-4v8" fill="none" stroke="white" stroke-width="1.5" pointer-events="none"/>
                </g>
                <g id="zoomMin">
                        <use xlink:href="#rim" fill="#404040">
                                <set attributeName="fill" to="#808080" begin="zoomminus.mouseover" end="zoomminus.mouseout"/>
                        </use>
                        <path d="M-4,0h8" fill="none" stroke="white" stroke-width="1.5" pointer-events="none"/>
                </g>
                <g id="dirArrow">
                        <path fill="none" stroke="white" stroke-width="1.5" d="M0,-3.0v7 M-2.5,-0.5L0,-3.0L2.5,-0.5"/>
                </g>
               <g id="resetDef">
                       <use xlink:href="#rim2" fill="#404040">
                               <set attributeName="fill" to="#808080" begin="reset.mouseover" end="reset.mouseout"/>
                       </use>
               </g>
        </defs>

<script type="text/javascript">
var viewWidth = 550;
var viewHeight = 188;
var sectionId = 'dynsection-1';
</script>
<script xlink:href="../../svgpan.js"/>
<svg id="graph" class="graph">
<g id="viewport">
<title>IG.Num.DistanceComparer&lt; PointContainerType, PointType &gt;</title>
<polygon fill="white" stroke="none" points="-4,4 -4,-183.5 546,-183.5 546,4 -4,4"/>
<!-- Node1 -->
<g id="node1" class="node"><title>Node1</title>
<g id="a_node1"><a xlink:title="Class that is used to calculate and compare distances between point containers.">
<polygon fill="#bfbfbf" stroke="black" points="409,-85.5 409,-126.5 542,-126.5 542,-85.5 409,-85.5"/>
<text text-anchor="start" x="417" y="-114.5" font-family="Helvetica,sans-Serif" font-size="10.00">IG.Num.DistanceComparer</text>
<text text-anchor="start" x="417" y="-103.5" font-family="Helvetica,sans-Serif" font-size="10.00">&lt; PointContainerType,</text>
<text text-anchor="middle" x="475.5" y="-92.5" font-family="Helvetica,sans-Serif" font-size="10.00"> PointType &gt;</text>
</a>
</g>
</g>
<!-- Node2 -->
<g id="node2" class="node"><title>Node2</title>
<g id="a_node2"><a xlink:href="../../d9/d64/interfaceIG_1_1Num_1_1IDistanceComparer.html" target="_top" xlink:title="Interface used for distance comparers in point clouds.">
<polygon fill="white" stroke="black" points="171,-113.5 171,-154.5 278,-154.5 278,-113.5 171,-113.5"/>
<text text-anchor="start" x="179" y="-142.5" font-family="Helvetica,sans-Serif" font-size="10.00">IDistanceComparer&lt;</text>
<text text-anchor="start" x="179" y="-131.5" font-family="Helvetica,sans-Serif" font-size="10.00"> PointContainerType,</text>
<text text-anchor="middle" x="224.5" y="-120.5" font-family="Helvetica,sans-Serif" font-size="10.00"> PointType &gt;</text>
</a>
</g>
</g>
<!-- Node2&#45;&gt;Node1 -->
<g id="edge1" class="edge"><title>Node2&#45;&gt;Node1</title>
<path fill="none" stroke="midnightblue" d="M288.112,-126.959C324.921,-122.82 371.409,-117.593 408.749,-113.394"/>
<polygon fill="midnightblue" stroke="midnightblue" points="287.548,-123.501 278.002,-128.096 288.331,-130.457 287.548,-123.501"/>
</g>
<!-- Node3 -->
<g id="node3" class="node"><title>Node3</title>
<g id="a_node3"><a xlink:title=" ">
<polygon fill="white" stroke="#bfbfbf" points="0,-149 0,-179 134,-179 134,-149 0,-149"/>
<text text-anchor="start" x="8" y="-167" font-family="Helvetica,sans-Serif" font-size="10.00">IComparer&lt; PointContainer</text>
<text text-anchor="middle" x="67" y="-156" font-family="Helvetica,sans-Serif" font-size="10.00">Type &gt;</text>
</a>
</g>
</g>
<!-- Node3&#45;&gt;Node1 -->
<g id="edge3" class="edge"><title>Node3&#45;&gt;Node1</title>
<path fill="none" stroke="midnightblue" d="M144.233,-168.734C184.224,-170.024 233.935,-169.75 278,-164 329.525,-157.277 341.23,-148.934 391,-134 398.762,-131.671 406.889,-129.106 414.897,-126.503"/>
<polygon fill="midnightblue" stroke="midnightblue" points="144.141,-165.228 134.021,-168.364 143.888,-172.224 144.141,-165.228"/>
</g>
<!-- Node3&#45;&gt;Node2 -->
<g id="edge2" class="edge"><title>Node3&#45;&gt;Node2</title>
<path fill="none" stroke="midnightblue" d="M144.479,-149.245C153.44,-147.516 162.423,-145.783 170.953,-144.138"/>
<polygon fill="midnightblue" stroke="midnightblue" points="143.553,-145.859 134.397,-151.19 144.879,-152.733 143.553,-145.859"/>
</g>
<!-- Node4 -->
<g id="node4" class="node"><title>Node4</title>
<g id="a_node4"><a xlink:href="../../d3/db6/interfaceIG_1_1Lib_1_1ILockable.html" target="_top" xlink:title="Lockable object, has a Lock property that returns object on which lock must be performed in order to ...">
<polygon fill="white" stroke="black" points="195.5,-75.5 195.5,-94.5 253.5,-94.5 253.5,-75.5 195.5,-75.5"/>
<text text-anchor="middle" x="224.5" y="-82.5" font-family="Helvetica,sans-Serif" font-size="10.00">ILockable</text>
</a>
</g>
</g>
<!-- Node4&#45;&gt;Node1 -->
<g id="edge4" class="edge"><title>Node4&#45;&gt;Node1</title>
<path fill="none" stroke="midnightblue" d="M263.853,-88.2346C302.415,-91.4868 362.607,-96.5633 408.791,-100.458"/>
<polygon fill="midnightblue" stroke="midnightblue" points="263.838,-84.721 253.579,-87.3681 263.25,-91.6962 263.838,-84.721"/>
</g>
<!-- Node5 -->
<g id="node5" class="node"><title>Node5</title>
<g id="a_node5"><a xlink:href="../../d3/d24/interfaceIG_1_1Num_1_1IVector.html" target="_top" xlink:title="Generic Vector interface">
<polygon fill="white" stroke="black" points="171,-0.5 171,-19.5 278,-19.5 278,-0.5 171,-0.5"/>
<text text-anchor="middle" x="224.5" y="-7.5" font-family="Helvetica,sans-Serif" font-size="10.00">IG.Num.IVector&lt; T &gt;</text>
</a>
</g>
</g>
<!-- Node5&#45;&gt;Node1 -->
<g id="edge5" class="edge"><title>Node5&#45;&gt;Node1</title>
<path fill="none" stroke="#9a32cd" stroke-dasharray="5,2" d="M288.313,-4.36213C320.382,-3.95964 359.225,-7.41281 391,-22 420.9,-35.7266 446.042,-65.1074 460.694,-85.2128"/>
<polygon fill="#9a32cd" stroke="#9a32cd" points="288.065,-0.867194 278.156,-4.61907 288.242,-7.86496 288.065,-0.867194"/>
<text text-anchor="middle" x="343.5" y="-80" font-family="Helvetica,sans-Serif" font-size="10.00"> _outputLengthScales</text>
<text text-anchor="middle" x="343.5" y="-69" font-family="Helvetica,sans-Serif" font-size="10.00">_min</text>
<text text-anchor="middle" x="343.5" y="-58" font-family="Helvetica,sans-Serif" font-size="10.00">_max</text>
<text text-anchor="middle" x="343.5" y="-47" font-family="Helvetica,sans-Serif" font-size="10.00">_outputMax</text>
<text text-anchor="middle" x="343.5" y="-36" font-family="Helvetica,sans-Serif" font-size="10.00">_outputMin</text>
<text text-anchor="middle" x="343.5" y="-25" font-family="Helvetica,sans-Serif" font-size="10.00">_lengthScales</text>
</g>
</g>
</svg>
        <g id="navigator" transform="translate(0 0)" fill="#404254">
                <rect fill="#f2f5e9" fill-opacity="0.5" stroke="#606060" stroke-width=".5" x="0" y="0" width="60" height="60"/>
                <use id="zoomplus" xlink:href="#zoomPlus" x="17" y="9" onmousedown="handleZoom(evt,'in')"/>
                <use id="zoomminus" xlink:href="#zoomMin" x="42" y="9" onmousedown="handleZoom(evt,'out')"/>
                <use id="reset" xlink:href="#resetDef" x="30" y="36" onmousedown="handleReset()"/>
                <g id="arrowUp" xlink:href="#dirArrow" transform="translate(30 24)" onmousedown="handlePan(0,-1)">
                  <use xlink:href="#rim" fill="#404040">
                        <set attributeName="fill" to="#808080" begin="arrowUp.mouseover" end="arrowUp.mouseout"/>
                  </use>
                  <path fill="none" stroke="white" stroke-width="1.5" d="M0,-3.0v7 M-2.5,-0.5L0,-3.0L2.5,-0.5"/>
                </g>
                <g id="arrowRight" xlink:href="#dirArrow" transform="rotate(90) translate(36 -43)" onmousedown="handlePan(1,0)">
                  <use xlink:href="#rim" fill="#404040">
                        <set attributeName="fill" to="#808080" begin="arrowRight.mouseover" end="arrowRight.mouseout"/>
                  </use>
                  <path fill="none" stroke="white" stroke-width="1.5" d="M0,-3.0v7 M-2.5,-0.5L0,-3.0L2.5,-0.5"/>
                </g>
                <g id="arrowDown" xlink:href="#dirArrow" transform="rotate(180) translate(-30 -48)" onmousedown="handlePan(0,1)">
                  <use xlink:href="#rim" fill="#404040">
                        <set attributeName="fill" to="#808080" begin="arrowDown.mouseover" end="arrowDown.mouseout"/>
                  </use>
                  <path fill="none" stroke="white" stroke-width="1.5" d="M0,-3.0v7 M-2.5,-0.5L0,-3.0L2.5,-0.5"/>
                </g>
                <g id="arrowLeft" xlink:href="#dirArrow" transform="rotate(270) translate(-36 17)" onmousedown="handlePan(-1,0)">
                  <use xlink:href="#rim" fill="#404040">
                        <set attributeName="fill" to="#808080" begin="arrowLeft.mouseover" end="arrowLeft.mouseout"/>
                  </use>
                  <path fill="none" stroke="white" stroke-width="1.5" d="M0,-3.0v7 M-2.5,-0.5L0,-3.0L2.5,-0.5"/>
                </g>
        </g>
        <svg viewBox="0 0 15 15" width="100%" height="30px" preserveAspectRatio="xMaxYMin meet">
         <g id="arrow_out" transform="scale(0.3 0.3)">
          <a xlink:href="classIG_1_1Num_1_1DistanceComparer__coll__graph_org.svg" target="_base">
           <rect id="button" ry="5" rx="5" y="6" x="6" height="38" width="38"
                fill="#f2f5e9" fill-opacity="0.5" stroke="#606060" stroke-width="1.0"/>
           <path id="arrow"
             d="M 11.500037,31.436501 C 11.940474,20.09759 22.043105,11.32322 32.158766,21.979434 L 37.068811,17.246167 C 37.068811,17.246167 37.088388,32 37.088388,32 L 22.160133,31.978069 C 22.160133,31.978069 26.997745,27.140456 26.997745,27.140456 C 18.528582,18.264221 13.291696,25.230495 11.500037,31.436501 z"
             style="fill:#404040;"/>
          </a>
         </g>
        </svg>
</svg>
