<?xml version="1.0" encoding="UTF-8" standalone="no"?>
<!DOCTYPE svg PUBLIC "-//W3C//DTD SVG 1.1//EN"
 "http://www.w3.org/Graphics/SVG/1.1/DTD/svg11.dtd">
<!-- Generated by graphviz version 2.38.0 (20140413.2041)
 -->
<!-- Title: IG.Lib.CommandLineJobContainer Pages: 1 -->
<svg width="463pt" height="214pt"
 viewBox="0.00 0.00 463.00 214.00" xmlns="http://www.w3.org/2000/svg" xmlns:xlink="http://www.w3.org/1999/xlink">
<g id="graph0" class="graph" transform="scale(1 1) rotate(0) translate(4 210)">
<title>IG.Lib.CommandLineJobContainer</title>
<polygon fill="white" stroke="none" points="-4,4 -4,-210 459,-210 459,4 -4,4"/>
<!-- Node1 -->
<g id="node1" class="node"><title>Node1</title>
<g id="a_node1"><a xlink:title="Carries command execution data, results, and other data such as identification number,...">
<polygon fill="#bfbfbf" stroke="black" points="291,-88.5 291,-107.5 455,-107.5 455,-88.5 291,-88.5"/>
<text text-anchor="middle" x="373" y="-95.5" font-family="Helvetica,sans-Serif" font-size="10.00">IG.Lib.CommandLineJobContainer</text>
</a>
</g>
</g>
<!-- Node2 -->
<g id="node2" class="node"><title>Node2</title>
<g id="a_node2"><a xlink:href="../../d3/d64/classIG_1_1Num_1_1ParallelJobContainerGen.html" target="_top" xlink:title=" ">
<polygon fill="white" stroke="black" points="5.5,-164.5 5.5,-205.5 152.5,-205.5 152.5,-164.5 5.5,-164.5"/>
<text text-anchor="start" x="13.5" y="-193.5" font-family="Helvetica,sans-Serif" font-size="10.00">ParallelJobContainerGen</text>
<text text-anchor="start" x="13.5" y="-182.5" font-family="Helvetica,sans-Serif" font-size="10.00">&lt; CommandLineJobContainer,</text>
<text text-anchor="middle" x="79" y="-171.5" font-family="Helvetica,sans-Serif" font-size="10.00"> CommandLineJobContainer &gt;</text>
</a>
</g>
</g>
<!-- Node2&#45;&gt;Node1 -->
<g id="edge1" class="edge"><title>Node2&#45;&gt;Node1</title>
<path fill="none" stroke="midnightblue" d="M162.756,-164.192C197.043,-155.186 237.11,-144.161 273,-133 298.241,-125.15 326.65,-114.964 346.54,-107.607"/>
<polygon fill="midnightblue" stroke="midnightblue" points="161.572,-160.884 152.782,-166.798 163.342,-167.657 161.572,-160.884"/>
</g>
<!-- Node3 -->
<g id="node3" class="node"><title>Node3</title>
<g id="a_node3"><a xlink:href="../../dc/d79/interfaceIG_1_1Lib_1_1IIdentifiable.html" target="_top" xlink:title="Classes whose instances have unique integer IDs.">
<polygon fill="white" stroke="black" points="46.5,-126.5 46.5,-145.5 111.5,-145.5 111.5,-126.5 46.5,-126.5"/>
<text text-anchor="middle" x="79" y="-133.5" font-family="Helvetica,sans-Serif" font-size="10.00">IIdentifiable</text>
</a>
</g>
</g>
<!-- Node3&#45;&gt;Node1 -->
<g id="edge2" class="edge"><title>Node3&#45;&gt;Node1</title>
<path fill="none" stroke="midnightblue" d="M121.744,-131.014C160.851,-126.294 220.921,-118.92 273,-112 283.582,-110.594 294.794,-109.055 305.721,-107.529"/>
<polygon fill="midnightblue" stroke="midnightblue" points="121.292,-127.543 111.782,-132.213 122.129,-134.493 121.292,-127.543"/>
</g>
<!-- Node4 -->
<g id="node4" class="node"><title>Node4</title>
<g id="a_node4"><a xlink:href="../../d3/db6/interfaceIG_1_1Lib_1_1ILockable.html" target="_top" xlink:title="Lockable object, has a Lock property that returns object on which lock must be performed in order to ...">
<polygon fill="white" stroke="black" points="50,-88.5 50,-107.5 108,-107.5 108,-88.5 50,-88.5"/>
<text text-anchor="middle" x="79" y="-95.5" font-family="Helvetica,sans-Serif" font-size="10.00">ILockable</text>
</a>
</g>
</g>
<!-- Node4&#45;&gt;Node1 -->
<g id="edge3" class="edge"><title>Node4&#45;&gt;Node1</title>
<path fill="none" stroke="midnightblue" d="M118.452,-98C162.119,-98 234.604,-98 290.913,-98"/>
<polygon fill="midnightblue" stroke="midnightblue" points="118.264,-94.5001 108.264,-98 118.263,-101.5 118.264,-94.5001"/>
</g>
<!-- Node5 -->
<g id="node5" class="node"><title>Node5</title>
<g id="a_node5"><a xlink:href="../../de/dfd/interfaceIG_1_1Lib_1_1ICommandLineApplicationInterpreter.html" target="_top" xlink:title="Interface for simple command&#45;line applicatino interpreters.">
<polygon fill="white" stroke="black" points="0,-39 0,-69 158,-69 158,-39 0,-39"/>
<text text-anchor="start" x="8" y="-57" font-family="Helvetica,sans-Serif" font-size="10.00">IG.Lib.ICommandLineApplication</text>
<text text-anchor="middle" x="79" y="-46" font-family="Helvetica,sans-Serif" font-size="10.00">Interpreter</text>
</a>
</g>
</g>
<!-- Node5&#45;&gt;Node1 -->
<g id="edge4" class="edge"><title>Node5&#45;&gt;Node1</title>
<path fill="none" stroke="#9a32cd" stroke-dasharray="5,2" d="M168.443,-67.2661C201.28,-72.1976 238.842,-77.846 273,-83 284.689,-84.7637 297.153,-86.6487 309.156,-88.4663"/>
<polygon fill="#9a32cd" stroke="#9a32cd" points="168.822,-63.7838 158.413,-65.7599 167.782,-70.7062 168.822,-63.7838"/>
<text text-anchor="middle" x="224.5" y="-86" font-family="Helvetica,sans-Serif" font-size="10.00"> Interpreter</text>
</g>
<!-- Node6 -->
<g id="node6" class="node"><title>Node6</title>
<g id="a_node6"><a xlink:title=" ">
<polygon fill="white" stroke="#bfbfbf" points="58.5,-0.5 58.5,-19.5 99.5,-19.5 99.5,-0.5 58.5,-0.5"/>
<text text-anchor="middle" x="79" y="-7.5" font-family="Helvetica,sans-Serif" font-size="10.00">static</text>
</a>
</g>
</g>
<!-- Node6&#45;&gt;Node1 -->
<g id="edge5" class="edge"><title>Node6&#45;&gt;Node1</title>
<path fill="none" stroke="#9a32cd" stroke-dasharray="5,2" d="M109.764,-11.9658C148.354,-15.2128 217.308,-23.411 273,-43 305.459,-54.417 339.803,-75.9263 358.287,-88.3947"/>
<polygon fill="#9a32cd" stroke="#9a32cd" points="109.965,-8.4709 99.7209,-11.176 109.416,-15.4493 109.965,-8.4709"/>
<text text-anchor="middle" x="224.5" y="-57" font-family="Helvetica,sans-Serif" font-size="10.00"> _lockIdCommandLine</text>
<text text-anchor="middle" x="224.5" y="-46" font-family="Helvetica,sans-Serif" font-size="10.00">_nextIdCommandLine</text>
</g>
</g>
</svg>
