<?xml version="1.0" encoding="UTF-8" standalone="no"?>
<!DOCTYPE svg PUBLIC "-//W3C//DTD SVG 1.1//EN"
 "http://www.w3.org/Graphics/SVG/1.1/DTD/svg11.dtd">
<!-- Generated by graphviz version 2.38.0 (20140413.2041)
 -->
<!-- Title: IG.Num.VectorFunctionFromScalar Pages: 1 -->
<svg width="568pt" height="297pt"
 viewBox="0.00 0.00 568.00 297.00" xmlns="http://www.w3.org/2000/svg" xmlns:xlink="http://www.w3.org/1999/xlink">
<g id="graph0" class="graph" transform="scale(1 1) rotate(0) translate(4 293)">
<title>IG.Num.VectorFunctionFromScalar</title>
<polygon fill="white" stroke="none" points="-4,4 -4,-293 564,-293 564,4 -4,4"/>
<!-- Node1 -->
<g id="node1" class="node"><title>Node1</title>
<g id="a_node1"><a xlink:title=" ">
<polygon fill="#bfbfbf" stroke="black" points="419,-0.5 419,-30.5 560,-30.5 560,-0.5 419,-0.5"/>
<text text-anchor="start" x="427" y="-18.5" font-family="Helvetica,sans-Serif" font-size="10.00">IG.Num.VectorFunctionFrom</text>
<text text-anchor="middle" x="489.5" y="-7.5" font-family="Helvetica,sans-Serif" font-size="10.00">Scalar</text>
</a>
</g>
</g>
<!-- Node2 -->
<g id="node2" class="node"><title>Node2</title>
<g id="a_node2"><a xlink:href="../../dc/df8/classIG_1_1Num_1_1VectorFunctionBaseComponentWise.html" target="_top" xlink:title="Base class for defining Vector functions whose component&#45;wise evaluation is defined directly.">
<polygon fill="white" stroke="black" points="200,-68.5 200,-87.5 377,-87.5 377,-68.5 200,-68.5"/>
<text text-anchor="middle" x="288.5" y="-75.5" font-family="Helvetica,sans-Serif" font-size="10.00">VectorFunctionBaseComponentWise</text>
</a>
</g>
</g>
<!-- Node2&#45;&gt;Node1 -->
<g id="edge1" class="edge"><title>Node2&#45;&gt;Node1</title>
<path fill="none" stroke="midnightblue" d="M326.6,-65.532C359.579,-55.6055 407.392,-41.214 442.693,-30.5885"/>
<polygon fill="midnightblue" stroke="midnightblue" points="325.439,-62.2264 316.872,-68.4601 327.457,-68.9293 325.439,-62.2264"/>
</g>
<!-- Node3 -->
<g id="node3" class="node"><title>Node3</title>
<g id="a_node3"><a xlink:href="../../dc/d23/classIG_1_1Num_1_1VectorFunctionBaseGeneral.html" target="_top" xlink:title="Base class for VectorFunctionBase and VectorFunctionBaseComponentwise. In general,...">
<polygon fill="white" stroke="black" points="277,-135.5 277,-154.5 416,-154.5 416,-135.5 277,-135.5"/>
<text text-anchor="middle" x="346.5" y="-142.5" font-family="Helvetica,sans-Serif" font-size="10.00">VectorFunctionBaseGeneral</text>
</a>
</g>
</g>
<!-- Node3&#45;&gt;Node2 -->
<g id="edge2" class="edge"><title>Node3&#45;&gt;Node2</title>
<path fill="none" stroke="midnightblue" d="M331.897,-127.635C320.554,-114.923 305.273,-97.7978 296.198,-87.6273"/>
<polygon fill="midnightblue" stroke="midnightblue" points="329.408,-130.103 338.678,-135.234 334.631,-125.442 329.408,-130.103"/>
</g>
<!-- Node9 -->
<g id="node9" class="node"><title>Node9</title>
<g id="a_node9"><a xlink:href="../../da/de7/classIG_1_1Num_1_1VectorFunctionBase.html" target="_top" xlink:title="Base class for defining Vector functions whose evaluation is defined in bulk, and evaluation of indiv...">
<polygon fill="white" stroke="black" points="395,-68.5 395,-87.5 536,-87.5 536,-68.5 395,-68.5"/>
<text text-anchor="middle" x="465.5" y="-75.5" font-family="Helvetica,sans-Serif" font-size="10.00">IG.Num.VectorFunctionBase</text>
</a>
</g>
</g>
<!-- Node3&#45;&gt;Node9 -->
<g id="edge10" class="edge"><title>Node3&#45;&gt;Node9</title>
<path fill="none" stroke="midnightblue" d="M414.607,-132.346C424.941,-128.579 434.981,-123.595 443.5,-117 453.265,-109.441 459.481,-96.2315 462.73,-87.5501"/>
<polygon fill="midnightblue" stroke="midnightblue" points="413.48,-129.032 405.069,-135.475 415.662,-135.684 413.48,-129.032"/>
</g>
<!-- Node4 -->
<g id="node4" class="node"><title>Node4</title>
<g id="a_node4"><a xlink:href="../../da/d06/interfaceIG_1_1Num_1_1IVectorFunction.html" target="_top" xlink:title="Vector function of a vector argument.">
<polygon fill="white" stroke="black" points="402,-202.5 402,-221.5 487,-221.5 487,-202.5 402,-202.5"/>
<text text-anchor="middle" x="444.5" y="-209.5" font-family="Helvetica,sans-Serif" font-size="10.00">IVectorFunction</text>
</a>
</g>
</g>
<!-- Node4&#45;&gt;Node1 -->
<g id="edge15" class="edge"><title>Node4&#45;&gt;Node1</title>
<path fill="none" stroke="midnightblue" d="M463.704,-195.747C488.47,-174.659 530.18,-133.959 545.5,-88 548.311,-79.5673 549.073,-76.1393 545.5,-68 538.705,-52.5189 524.705,-39.6439 512.404,-30.6392"/>
<polygon fill="midnightblue" stroke="midnightblue" points="461.186,-193.287 455.721,-202.364 465.654,-198.677 461.186,-193.287"/>
</g>
<!-- Node4&#45;&gt;Node2 -->
<g id="edge13" class="edge"><title>Node4&#45;&gt;Node2</title>
<path fill="none" stroke="midnightblue" d="M444.697,-191.808C443.832,-174.777 439.887,-150.291 425.5,-135 407.295,-115.651 393.224,-126.722 368.5,-117 345.891,-108.109 320.716,-95.7181 304.755,-87.5339"/>
<polygon fill="midnightblue" stroke="midnightblue" points="441.205,-192.271 444.893,-202.203 448.203,-192.138 441.205,-192.271"/>
</g>
<!-- Node4&#45;&gt;Node3 -->
<g id="edge3" class="edge"><title>Node4&#45;&gt;Node3</title>
<path fill="none" stroke="midnightblue" d="M422.781,-196.595C403.394,-183.736 375.645,-165.331 359.507,-154.627"/>
<polygon fill="midnightblue" stroke="midnightblue" points="421.015,-199.623 431.283,-202.234 424.884,-193.79 421.015,-199.623"/>
</g>
<!-- Node4&#45;&gt;Node9 -->
<g id="edge11" class="edge"><title>Node4&#45;&gt;Node9</title>
<path fill="none" stroke="midnightblue" d="M454.916,-193.416C456.344,-190.362 457.619,-187.153 458.5,-184 468.185,-149.336 467.11,-105.844 466.099,-87.6372"/>
<polygon fill="midnightblue" stroke="midnightblue" points="451.752,-191.911 450.136,-202.382 457.929,-195.205 451.752,-191.911"/>
</g>
<!-- Node5 -->
<g id="node5" class="node"><title>Node5</title>
<g id="a_node5"><a xlink:href="../../d3/db6/interfaceIG_1_1Lib_1_1ILockable.html" target="_top" xlink:title="Lockable object, has a Lock property that returns object on which lock must be performed in order to ...">
<polygon fill="white" stroke="black" points="368.5,-269.5 368.5,-288.5 426.5,-288.5 426.5,-269.5 368.5,-269.5"/>
<text text-anchor="middle" x="397.5" y="-276.5" font-family="Helvetica,sans-Serif" font-size="10.00">ILockable</text>
</a>
</g>
</g>
<!-- Node5&#45;&gt;Node2 -->
<g id="edge14" class="edge"><title>Node5&#45;&gt;Node2</title>
<path fill="none" stroke="midnightblue" d="M363.957,-265.454C331.34,-251.232 283.707,-224.607 262.5,-184 245.287,-151.04 270.254,-106.253 282.45,-87.6514"/>
<polygon fill="midnightblue" stroke="midnightblue" points="362.976,-268.837 373.552,-269.471 365.679,-262.38 362.976,-268.837"/>
</g>
<!-- Node5&#45;&gt;Node3 -->
<g id="edge5" class="edge"><title>Node5&#45;&gt;Node3</title>
<path fill="none" stroke="midnightblue" d="M390.414,-259.659C379.237,-230.731 357.948,-175.631 349.792,-154.521"/>
<polygon fill="midnightblue" stroke="midnightblue" points="387.285,-261.273 394.154,-269.339 393.814,-258.75 387.285,-261.273"/>
</g>
<!-- Node5&#45;&gt;Node4 -->
<g id="edge4" class="edge"><title>Node5&#45;&gt;Node4</title>
<path fill="none" stroke="midnightblue" d="M409.862,-260.904C418.995,-248.273 431.048,-231.604 438.262,-221.627"/>
<polygon fill="midnightblue" stroke="midnightblue" points="406.862,-259.079 403.839,-269.234 412.534,-263.181 406.862,-259.079"/>
</g>
<!-- Node5&#45;&gt;Node9 -->
<g id="edge12" class="edge"><title>Node5&#45;&gt;Node9</title>
<path fill="none" stroke="midnightblue" d="M436.107,-266.901C457.98,-258.413 483.501,-244.288 496.5,-222 522.993,-176.577 486.373,-111.115 471.384,-87.719"/>
<polygon fill="midnightblue" stroke="midnightblue" points="434.902,-263.615 426.688,-270.308 437.283,-270.198 434.902,-263.615"/>
</g>
<!-- Node6 -->
<g id="node6" class="node"><title>Node6</title>
<g id="a_node6"><a xlink:href="../../d5/dc3/classIG_1_1Num_1_1VectorFunctionResults.html" target="_top" xlink:title="Vector function results. Used to transfer parameters input (e.g. vector of parameters,...">
<polygon fill="white" stroke="black" points="68.5,-202.5 68.5,-221.5 220.5,-221.5 220.5,-202.5 68.5,-202.5"/>
<text text-anchor="middle" x="144.5" y="-209.5" font-family="Helvetica,sans-Serif" font-size="10.00">IG.Num.VectorFunctionResults</text>
</a>
</g>
</g>
<!-- Node6&#45;&gt;Node3 -->
<g id="edge6" class="edge"><title>Node6&#45;&gt;Node3</title>
<path fill="none" stroke="#9a32cd" stroke-dasharray="5,2" d="M180.968,-199.265C220.992,-186.386 284.28,-166.021 319.887,-154.564"/>
<polygon fill="#9a32cd" stroke="#9a32cd" points="179.771,-195.974 171.324,-202.369 181.915,-202.637 179.771,-195.974"/>
<text text-anchor="middle" x="286.5" y="-176" font-family="Helvetica,sans-Serif" font-size="10.00"> _auxResults</text>
</g>
<!-- Node7 -->
<g id="node7" class="node"><title>Node7</title>
<g id="a_node7"><a xlink:href="../../d6/dbe/interfaceIG_1_1Num_1_1IVectorFunctionResults.html" target="_top" xlink:title="Vector function results. Used to transfer parameters input (e.g. vector of parameters,...">
<polygon fill="white" stroke="black" points="125.5,-269.5 125.5,-288.5 243.5,-288.5 243.5,-269.5 125.5,-269.5"/>
<text text-anchor="middle" x="184.5" y="-276.5" font-family="Helvetica,sans-Serif" font-size="10.00">IVectorFunctionResults</text>
</a>
</g>
</g>
<!-- Node7&#45;&gt;Node6 -->
<g id="edge7" class="edge"><title>Node7&#45;&gt;Node6</title>
<path fill="none" stroke="midnightblue" d="M173.752,-260.535C166.008,-247.95 155.889,-231.507 149.809,-221.627"/>
<polygon fill="midnightblue" stroke="midnightblue" points="170.884,-262.552 179.105,-269.234 176.845,-258.883 170.884,-262.552"/>
</g>
<!-- Node8 -->
<g id="node8" class="node"><title>Node8</title>
<g id="a_node8"><a xlink:href="../../d3/d24/interfaceIG_1_1Num_1_1IVector.html" target="_top" xlink:title="Generic Vector interface">
<polygon fill="white" stroke="black" points="0,-269.5 0,-288.5 107,-288.5 107,-269.5 0,-269.5"/>
<text text-anchor="middle" x="53.5" y="-276.5" font-family="Helvetica,sans-Serif" font-size="10.00">IG.Num.IVector&lt; T &gt;</text>
</a>
</g>
</g>
<!-- Node8&#45;&gt;Node6 -->
<g id="edge8" class="edge"><title>Node8&#45;&gt;Node6</title>
<path fill="none" stroke="#9a32cd" stroke-dasharray="5,2" d="M71.154,-262.823C79.7947,-255.631 90.4736,-247.085 100.5,-240 109.869,-233.38 120.869,-226.63 129.527,-221.535"/>
<polygon fill="#9a32cd" stroke="#9a32cd" points="68.6763,-260.334 63.2924,-269.459 73.1916,-265.683 68.6763,-260.334"/>
<text text-anchor="middle" x="129.5" y="-243" font-family="Helvetica,sans-Serif" font-size="10.00"> _parameters</text>
</g>
<!-- Node9&#45;&gt;Node3 -->
<g id="edge9" class="edge"><title>Node9&#45;&gt;Node3</title>
<path fill="none" stroke="#9a32cd" stroke-dasharray="5,2" d="M421.286,-90.7577C409.855,-94.7356 397.86,-99.7852 387.5,-106 374.184,-113.988 361.497,-126.835 353.855,-135.347"/>
<polygon fill="#9a32cd" stroke="#9a32cd" points="422.715,-93.9727 431.13,-87.5355 420.537,-87.32 422.715,-93.9727"/>
<text text-anchor="middle" x="415.5" y="-109" font-family="Helvetica,sans-Serif" font-size="10.00"> _resultStore</text>
</g>
</g>
</svg>
