<?xml version="1.0" encoding="UTF-8" standalone="no"?>
<!DOCTYPE svg PUBLIC "-//W3C//DTD SVG 1.1//EN"
 "http://www.w3.org/Graphics/SVG/1.1/DTD/svg11.dtd">
<!-- Generated by graphviz version 2.38.0 (20140413.2041)
 -->
<!-- Title: IG.Num.RealFunctionOneParametric Pages: 1 -->
<svg width="633pt" height="144pt"
 viewBox="0.00 0.00 633.00 144.06" xmlns="http://www.w3.org/2000/svg" xmlns:xlink="http://www.w3.org/1999/xlink">
<g id="graph0" class="graph" transform="scale(1 1) rotate(0) translate(4 140.058)">
<title>IG.Num.RealFunctionOneParametric</title>
<polygon fill="white" stroke="none" points="-4,4 -4,-140.058 629,-140.058 629,4 -4,4"/>
<!-- Node1 -->
<g id="node1" class="node"><title>Node1</title>
<g id="a_node1"><a xlink:title="Base class for one parametric families of real&#45;valued functions of single variable....">
<polygon fill="#bfbfbf" stroke="black" points="450,-57.5 450,-76.5 625,-76.5 625,-57.5 450,-57.5"/>
<text text-anchor="middle" x="537.5" y="-64.5" font-family="Helvetica,sans-Serif" font-size="10.00">IG.Num.RealFunctionOneParametric</text>
</a>
</g>
</g>
<!-- Node2 -->
<g id="node2" class="node"><title>Node2</title>
<g id="a_node2"><a xlink:href="../../d1/d20/classIG_1_1Num_1_1RealFunctionParametricBase.html" target="_top" xlink:title="Base class for parameterized real&#45;valued functions of single variable. Parameters that completely def...">
<polygon fill="white" stroke="black" points="271,-76.5 271,-95.5 414,-95.5 414,-76.5 271,-76.5"/>
<text text-anchor="middle" x="342.5" y="-83.5" font-family="Helvetica,sans-Serif" font-size="10.00">RealFunctionParametricBase</text>
</a>
</g>
</g>
<!-- Node2&#45;&gt;Node1 -->
<g id="edge1" class="edge"><title>Node2&#45;&gt;Node1</title>
<path fill="none" stroke="midnightblue" d="M424.463,-78.0296C432.899,-77.199 441.499,-76.3524 449.994,-75.5161"/>
<polygon fill="midnightblue" stroke="midnightblue" points="423.879,-74.57 414.27,-79.033 424.565,-81.5363 423.879,-74.57"/>
</g>
<!-- Node3 -->
<g id="node3" class="node"><title>Node3</title>
<g id="a_node3"><a xlink:href="../../d6/d30/classIG_1_1Num_1_1RealFunctionBase.html" target="_top" xlink:title="Base class for real functions of real variable.">
<polygon fill="white" stroke="black" points="125.5,-76.5 125.5,-95.5 221.5,-95.5 221.5,-76.5 125.5,-76.5"/>
<text text-anchor="middle" x="173.5" y="-83.5" font-family="Helvetica,sans-Serif" font-size="10.00">RealFunctionBase</text>
</a>
</g>
</g>
<!-- Node3&#45;&gt;Node2 -->
<g id="edge2" class="edge"><title>Node3&#45;&gt;Node2</title>
<path fill="none" stroke="midnightblue" d="M232.164,-86C244.646,-86 257.982,-86 270.896,-86"/>
<polygon fill="midnightblue" stroke="midnightblue" points="231.909,-82.5001 221.909,-86 231.909,-89.5001 231.909,-82.5001"/>
</g>
<!-- Node4 -->
<g id="node4" class="node"><title>Node4</title>
<g id="a_node4"><a xlink:href="../../db/d0e/interfaceIG_1_1Num_1_1IRealFunction.html" target="_top" xlink:title="Interface for real functions.">
<polygon fill="white" stroke="black" points="0,-76.5 0,-95.5 76,-95.5 76,-76.5 0,-76.5"/>
<text text-anchor="middle" x="38" y="-83.5" font-family="Helvetica,sans-Serif" font-size="10.00">IRealFunction</text>
</a>
</g>
</g>
<!-- Node4&#45;&gt;Node1 -->
<g id="edge7" class="edge"><title>Node4&#45;&gt;Node1</title>
<path fill="none" stroke="midnightblue" d="M62.7503,-100.736C76.5636,-108.432 94.6285,-117.051 112,-121 243.066,-150.796 282.136,-131.04 414,-105 448.297,-98.2271 486.601,-85.4692 511.097,-76.6147"/>
<polygon fill="midnightblue" stroke="midnightblue" points="64.3346,-97.6093 53.9274,-95.6244 60.8254,-103.666 64.3346,-97.6093"/>
</g>
<!-- Node4&#45;&gt;Node2 -->
<g id="edge4" class="edge"><title>Node4&#45;&gt;Node2</title>
<path fill="none" stroke="midnightblue" d="M78.4688,-98.2276C89.2361,-101.025 100.975,-103.589 112,-105 166.224,-111.941 180.546,-109.819 235,-105 255.953,-103.146 278.957,-99.277 298.207,-95.5117"/>
<polygon fill="midnightblue" stroke="midnightblue" points="79.0671,-94.7628 68.4983,-95.5042 77.2227,-101.515 79.0671,-94.7628"/>
</g>
<!-- Node4&#45;&gt;Node3 -->
<g id="edge3" class="edge"><title>Node4&#45;&gt;Node3</title>
<path fill="none" stroke="midnightblue" d="M86.5388,-86C99.1977,-86 112.864,-86 125.495,-86"/>
<polygon fill="midnightblue" stroke="midnightblue" points="86.1872,-82.5001 76.1872,-86 86.1872,-89.5001 86.1872,-82.5001"/>
</g>
<!-- Node5 -->
<g id="node5" class="node"><title>Node5</title>
<g id="a_node5"><a xlink:href="../../d1/dfb/interfaceIG_1_1Num_1_1IRealFunctionParametric.html" target="_top" xlink:title="Parameterized real&#45;valued functions of single variable.">
<polygon fill="white" stroke="black" points="112,-38.5 112,-57.5 235,-57.5 235,-38.5 112,-38.5"/>
<text text-anchor="middle" x="173.5" y="-45.5" font-family="Helvetica,sans-Serif" font-size="10.00">IRealFunctionParametric</text>
</a>
</g>
</g>
<!-- Node4&#45;&gt;Node5 -->
<g id="edge6" class="edge"><title>Node4&#45;&gt;Node5</title>
<path fill="none" stroke="midnightblue" d="M82.53,-73.6094C100.812,-68.4055 121.749,-62.4459 138.823,-57.5859"/>
<polygon fill="midnightblue" stroke="midnightblue" points="81.3474,-70.3069 72.6877,-76.411 83.2639,-77.0395 81.3474,-70.3069"/>
</g>
<!-- Node6 -->
<g id="node6" class="node"><title>Node6</title>
<g id="a_node6"><a xlink:href="../../da/d11/interfaceIG_1_1Num_1_1IRealFunctionOneParametric.html" target="_top" xlink:title="Parameterized real&#45;valued functions of single variable.">
<polygon fill="white" stroke="black" points="272,-0.5 272,-19.5 413,-19.5 413,-0.5 272,-0.5"/>
<text text-anchor="middle" x="342.5" y="-7.5" font-family="Helvetica,sans-Serif" font-size="10.00">IRealFunctionOneParametric</text>
</a>
</g>
</g>
<!-- Node4&#45;&gt;Node6 -->
<g id="edge11" class="edge"><title>Node4&#45;&gt;Node6</title>
<path fill="none" stroke="midnightblue" d="M54.9602,-68.9688C68.6757,-55.5546 89.7175,-37.7136 112,-29 163.011,-9.05204 225.151,-5.01318 271.9,-5.56865"/>
<polygon fill="midnightblue" stroke="midnightblue" points="52.3067,-66.675 47.7774,-76.2529 57.2909,-71.59 52.3067,-66.675"/>
</g>
<!-- Node5&#45;&gt;Node1 -->
<g id="edge8" class="edge"><title>Node5&#45;&gt;Node1</title>
<path fill="none" stroke="midnightblue" d="M245.366,-51.7195C303.957,-54.7947 387.388,-59.1737 449.929,-62.4562"/>
<polygon fill="midnightblue" stroke="midnightblue" points="245.26,-48.2092 235.091,-51.1802 244.893,-55.1996 245.26,-48.2092"/>
</g>
<!-- Node5&#45;&gt;Node2 -->
<g id="edge5" class="edge"><title>Node5&#45;&gt;Node2</title>
<path fill="none" stroke="midnightblue" d="M226.465,-59.8243C250.009,-65.1816 277.474,-71.4311 299.662,-76.4799"/>
<polygon fill="midnightblue" stroke="midnightblue" points="227.168,-56.3951 216.641,-57.589 225.615,-63.2206 227.168,-56.3951"/>
</g>
<!-- Node5&#45;&gt;Node6 -->
<g id="edge10" class="edge"><title>Node5&#45;&gt;Node6</title>
<path fill="none" stroke="midnightblue" d="M226.465,-36.1757C250.009,-30.8184 277.474,-24.5689 299.662,-19.5201"/>
<polygon fill="midnightblue" stroke="midnightblue" points="225.615,-32.7794 216.641,-38.411 227.168,-39.6049 225.615,-32.7794"/>
</g>
<!-- Node6&#45;&gt;Node1 -->
<g id="edge9" class="edge"><title>Node6&#45;&gt;Node1</title>
<path fill="none" stroke="midnightblue" d="M385.435,-22.385C421.068,-32.9088 471.487,-47.7993 504.091,-57.4284"/>
<polygon fill="midnightblue" stroke="midnightblue" points="386.386,-19.0163 375.804,-19.5405 384.403,-25.7297 386.386,-19.0163"/>
</g>
</g>
</svg>
