<?xml version="1.0" encoding="UTF-8" standalone="no"?>
<!DOCTYPE svg PUBLIC "-//W3C//DTD SVG 1.1//EN"
 "http://www.w3.org/Graphics/SVG/1.1/DTD/svg11.dtd">
<!-- Generated by graphviz version 2.38.0 (20140413.2041)
 -->
<!-- Title: IG.Num.Matrix2d Pages: 1 -->
<svg width="175pt" height="140pt"
 viewBox="0.00 0.00 175.00 140.00" xmlns="http://www.w3.org/2000/svg" xmlns:xlink="http://www.w3.org/1999/xlink">
<g id="graph0" class="graph" transform="scale(1 1) rotate(0) translate(4 136)">
<title>IG.Num.Matrix2d</title>
<polygon fill="white" stroke="none" points="-4,4 -4,-136 171,-136 171,4 -4,4"/>
<!-- Node1 -->
<g id="node1" class="node"><title>Node1</title>
<g id="a_node1"><a xlink:title="Matrix in a 2 dimensional space.">
<polygon fill="#bfbfbf" stroke="black" points="9,-0.5 9,-19.5 99,-19.5 99,-0.5 9,-0.5"/>
<text text-anchor="middle" x="54" y="-7.5" font-family="Helvetica,sans-Serif" font-size="10.00">IG.Num.Matrix2d</text>
</a>
</g>
</g>
<!-- Node2 -->
<g id="node2" class="node"><title>Node2</title>
<g id="a_node2"><a xlink:href="../../d9/db9/classIG_1_1Num_1_1MatrixBase.html" target="_top" xlink:title="Base class for matrices.">
<polygon fill="white" stroke="black" points="21,-56.5 21,-75.5 87,-75.5 87,-56.5 21,-56.5"/>
<text text-anchor="middle" x="54" y="-63.5" font-family="Helvetica,sans-Serif" font-size="10.00">MatrixBase</text>
</a>
</g>
</g>
<!-- Node2&#45;&gt;Node1 -->
<g id="edge1" class="edge"><title>Node2&#45;&gt;Node1</title>
<path fill="none" stroke="midnightblue" d="M54,-45.8045C54,-36.9102 54,-26.7798 54,-19.7511"/>
<polygon fill="midnightblue" stroke="midnightblue" points="50.5001,-46.083 54,-56.083 57.5001,-46.083 50.5001,-46.083"/>
</g>
<!-- Node3 -->
<g id="node3" class="node"><title>Node3</title>
<g id="a_node3"><a xlink:href="../../d8/d86/interfaceIG_1_1Num_1_1IMatrix.html" target="_top" xlink:title="Generic Matrix interface.">
<polygon fill="white" stroke="black" points="0,-112.5 0,-131.5 46,-131.5 46,-112.5 0,-112.5"/>
<text text-anchor="middle" x="23" y="-119.5" font-family="Helvetica,sans-Serif" font-size="10.00">IMatrix</text>
</a>
</g>
</g>
<!-- Node3&#45;&gt;Node1 -->
<g id="edge3" class="edge"><title>Node3&#45;&gt;Node1</title>
<path fill="none" stroke="midnightblue" d="M14.8564,-102.815C10.0783,-89.4734 6.03895,-71.1233 12,-56 17.9566,-40.8879 31.6464,-27.8572 41.7863,-19.7638"/>
<polygon fill="midnightblue" stroke="midnightblue" points="11.6872,-104.314 18.6697,-112.283 18.1803,-101.699 11.6872,-104.314"/>
</g>
<!-- Node3&#45;&gt;Node2 -->
<g id="edge2" class="edge"><title>Node3&#45;&gt;Node2</title>
<path fill="none" stroke="midnightblue" d="M33.1756,-103.275C38.4739,-94.0454 44.717,-83.1703 48.9762,-75.7511"/>
<polygon fill="midnightblue" stroke="midnightblue" points="30.0624,-101.668 28.119,-112.083 36.1331,-105.153 30.0624,-101.668"/>
</g>
<!-- Node4 -->
<g id="node4" class="node"><title>Node4</title>
<g id="a_node4"><a xlink:title=" ">
<polygon fill="white" stroke="#bfbfbf" points="105,-56.5 105,-75.5 167,-75.5 167,-56.5 105,-56.5"/>
<text text-anchor="middle" x="136" y="-63.5" font-family="Helvetica,sans-Serif" font-size="10.00">ICloneable</text>
</a>
</g>
</g>
<!-- Node4&#45;&gt;Node1 -->
<g id="edge4" class="edge"><title>Node4&#45;&gt;Node1</title>
<path fill="none" stroke="midnightblue" d="M114.167,-50.6221C99.1871,-40.7574 79.8025,-27.9919 67.142,-19.6545"/>
<polygon fill="midnightblue" stroke="midnightblue" points="112.549,-53.7471 122.825,-56.324 116.399,-47.9009 112.549,-53.7471"/>
</g>
</g>
</svg>
