<?xml version="1.0" encoding="UTF-8" standalone="no"?>
<!DOCTYPE svg PUBLIC "-//W3C//DTD SVG 1.1//EN"
 "http://www.w3.org/Graphics/SVG/1.1/DTD/svg11.dtd">
<!-- Generated by graphviz version 2.38.0 (20140413.2041)
 -->
<!-- Title: IG.Lib.Copy.NamedPipeServerBase Pages: 1 -->
<svg width="481pt" height="389pt"
 viewBox="0.00 0.00 481.00 389.00" xmlns="http://www.w3.org/2000/svg" xmlns:xlink="http://www.w3.org/1999/xlink">
<g id="graph0" class="graph" transform="scale(1 1) rotate(0) translate(4 385)">
<title>IG.Lib.Copy.NamedPipeServerBase</title>
<polygon fill="white" stroke="none" points="-4,4 -4,-385 477,-385 477,4 -4,4"/>
<!-- Node1 -->
<g id="node1" class="node"><title>Node1</title>
<g id="a_node1"><a xlink:title="Server that creates a named pipe, listens on its input stream, and sends responses to the client.">
<polygon fill="#bfbfbf" stroke="black" points="0,-0.5 0,-19.5 170,-19.5 170,-0.5 0,-0.5"/>
<text text-anchor="middle" x="85" y="-7.5" font-family="Helvetica,sans-Serif" font-size="10.00">IG.Lib.Copy.NamedPipeServerBase</text>
</a>
</g>
</g>
<!-- Node2 -->
<g id="node2" class="node"><title>Node2</title>
<g id="a_node2"><a xlink:href="../../de/dc2/classIG_1_1Lib_1_1Copy_1_1ServerStreamBase.html" target="_top" xlink:title="Server that creates a named pipe, listens on its input stream, and sends responses to the client.">
<polygon fill="white" stroke="black" points="88,-57.5 88,-76.5 186,-76.5 186,-57.5 88,-57.5"/>
<text text-anchor="middle" x="137" y="-64.5" font-family="Helvetica,sans-Serif" font-size="10.00">ServerStreamBase</text>
</a>
</g>
</g>
<!-- Node2&#45;&gt;Node1 -->
<g id="edge1" class="edge"><title>Node2&#45;&gt;Node1</title>
<path fill="none" stroke="midnightblue" d="M121.989,-50.1229C112.63,-40.2238 100.943,-27.8624 93.2396,-19.7149"/>
<polygon fill="midnightblue" stroke="midnightblue" points="119.462,-52.5443 128.875,-57.4063 124.548,-47.7352 119.462,-52.5443"/>
</g>
<!-- Node3 -->
<g id="node3" class="node"><title>Node3</title>
<g id="a_node3"><a xlink:href="../../db/d41/classIG_1_1Lib_1_1Copy_1_1ClientServerStreamBase2.html" target="_top" xlink:title="Base class for named pipe servers and clients, contains common stuff for both.">
<polygon fill="white" stroke="black" points="143,-114.5 143,-133.5 271,-133.5 271,-114.5 143,-114.5"/>
<text text-anchor="middle" x="207" y="-121.5" font-family="Helvetica,sans-Serif" font-size="10.00">ClientServerStreamBase2</text>
</a>
</g>
</g>
<!-- Node3&#45;&gt;Node2 -->
<g id="edge2" class="edge"><title>Node3&#45;&gt;Node2</title>
<path fill="none" stroke="midnightblue" d="M187.907,-107.998C175.133,-97.9619 158.769,-85.1044 148.092,-76.7149"/>
<polygon fill="midnightblue" stroke="midnightblue" points="186.037,-110.98 196.063,-114.406 190.362,-105.476 186.037,-110.98"/>
</g>
<!-- Node4 -->
<g id="node4" class="node"><title>Node4</title>
<g id="a_node4"><a xlink:href="../../d5/d2f/classIG_1_1Lib_1_1Copy_1_1ClienServerStreamBase.html" target="_top" xlink:title="Base class for client and server classes with stream&#45;based communication.">
<polygon fill="white" stroke="black" points="164.5,-211 164.5,-230 283.5,-230 283.5,-211 164.5,-211"/>
<text text-anchor="middle" x="224" y="-218" font-family="Helvetica,sans-Serif" font-size="10.00">ClienServerStreamBase</text>
</a>
</g>
</g>
<!-- Node4&#45;&gt;Node3 -->
<g id="edge3" class="edge"><title>Node4&#45;&gt;Node3</title>
<path fill="none" stroke="midnightblue" d="M220.641,-200.825C216.984,-180.499 211.295,-148.874 208.565,-133.7"/>
<polygon fill="midnightblue" stroke="midnightblue" points="217.216,-201.557 222.431,-210.779 224.105,-200.317 217.216,-201.557"/>
</g>
<!-- Node5 -->
<g id="node5" class="node"><title>Node5</title>
<g id="a_node5"><a xlink:href="../../d3/db6/interfaceIG_1_1Lib_1_1ILockable.html" target="_top" xlink:title="Lockable object, has a Lock property that returns object on which lock must be performed in order to ...">
<polygon fill="white" stroke="black" points="88,-361.5 88,-380.5 146,-380.5 146,-361.5 88,-361.5"/>
<text text-anchor="middle" x="117" y="-368.5" font-family="Helvetica,sans-Serif" font-size="10.00">ILockable</text>
</a>
</g>
</g>
<!-- Node5&#45;&gt;Node1 -->
<g id="edge9" class="edge"><title>Node5&#45;&gt;Node1</title>
<path fill="none" stroke="midnightblue" d="M105.624,-352.803C88.993,-325.955 60,-271.919 60,-221.5 60,-221.5 60,-221.5 60,-66 60,-48.3789 70.7666,-30.199 78.1686,-19.7824"/>
<polygon fill="midnightblue" stroke="midnightblue" points="102.785,-354.861 111.115,-361.408 108.685,-351.095 102.785,-354.861"/>
</g>
<!-- Node5&#45;&gt;Node2 -->
<g id="edge8" class="edge"><title>Node5&#45;&gt;Node2</title>
<path fill="none" stroke="midnightblue" d="M113.81,-350.864C113.475,-348.229 113.188,-345.552 113,-343 111.204,-318.622 112.27,-312.434 113,-288 114.556,-235.93 114.195,-222.769 120,-171 123.958,-135.698 131.821,-94.0757 135.289,-76.5042"/>
<polygon fill="midnightblue" stroke="midnightblue" points="110.391,-351.666 115.334,-361.037 117.314,-350.629 110.391,-351.666"/>
</g>
<!-- Node5&#45;&gt;Node3 -->
<g id="edge6" class="edge"><title>Node5&#45;&gt;Node3</title>
<path fill="none" stroke="midnightblue" d="M116.666,-351.073C116.823,-314.007 121.236,-230.298 155,-171 164.065,-155.079 180.698,-141.848 192.715,-133.724"/>
<polygon fill="midnightblue" stroke="midnightblue" points="113.168,-351.402 116.733,-361.379 120.168,-351.356 113.168,-351.402"/>
</g>
<!-- Node5&#45;&gt;Node4 -->
<g id="edge4" class="edge"><title>Node5&#45;&gt;Node4</title>
<path fill="none" stroke="midnightblue" d="M137.6,-354.957C141.949,-351.301 146.328,-347.22 150,-343 182.911,-305.177 210.158,-250.94 220.03,-230.103"/>
<polygon fill="midnightblue" stroke="midnightblue" points="135.139,-352.441 129.467,-361.391 139.482,-357.931 135.139,-352.441"/>
</g>
<!-- Node6 -->
<g id="node6" class="node"><title>Node6</title>
<g id="a_node6"><a xlink:title=" ">
<polygon fill="white" stroke="#bfbfbf" points="272.5,-361.5 272.5,-380.5 313.5,-380.5 313.5,-361.5 272.5,-361.5"/>
<text text-anchor="middle" x="293" y="-368.5" font-family="Helvetica,sans-Serif" font-size="10.00">static</text>
</a>
</g>
</g>
<!-- Node6&#45;&gt;Node3 -->
<g id="edge7" class="edge"><title>Node6&#45;&gt;Node3</title>
<path fill="none" stroke="#9a32cd" stroke-dasharray="5,2" d="M323.339,-364.83C335.966,-361.019 349.424,-354.418 357,-343 370.514,-322.631 363.132,-311.663 357,-288 342.078,-230.416 334.295,-212.83 292,-171 274.582,-153.773 249.385,-141.234 230.947,-133.639"/>
<polygon fill="#9a32cd" stroke="#9a32cd" points="322.348,-361.471 313.518,-367.327 324.073,-368.255 322.348,-361.471"/>
<text text-anchor="middle" x="412.5" y="-262" font-family="Helvetica,sans-Serif" font-size="10.00"> _defaultResponseEnd</text>
<text text-anchor="middle" x="412.5" y="-251" font-family="Helvetica,sans-Serif" font-size="10.00">_defaultStopRequest</text>
<text text-anchor="middle" x="412.5" y="-240" font-family="Helvetica,sans-Serif" font-size="10.00">_defaultPipeName</text>
<text text-anchor="middle" x="412.5" y="-229" font-family="Helvetica,sans-Serif" font-size="10.00">_defaultStoppedResponse</text>
<text text-anchor="middle" x="412.5" y="-218" font-family="Helvetica,sans-Serif" font-size="10.00">_defaultRequestEnd</text>
<text text-anchor="middle" x="412.5" y="-207" font-family="Helvetica,sans-Serif" font-size="10.00">_defaultIsMultilineResponse</text>
<text text-anchor="middle" x="412.5" y="-196" font-family="Helvetica,sans-Serif" font-size="10.00">_defaultIsMultilineRequest</text>
<text text-anchor="middle" x="412.5" y="-185" font-family="Helvetica,sans-Serif" font-size="10.00">_defaultErrorBegin</text>
<text text-anchor="middle" x="412.5" y="-174" font-family="Helvetica,sans-Serif" font-size="10.00">_defaultGenericResponse</text>
</g>
<!-- Node6&#45;&gt;Node4 -->
<g id="edge5" class="edge"><title>Node6&#45;&gt;Node4</title>
<path fill="none" stroke="#9a32cd" stroke-dasharray="5,2" d="M262.108,-367.359C245.842,-364.214 227.202,-357.451 217,-343 192.141,-307.788 211.346,-251.541 220.174,-230.144"/>
<polygon fill="#9a32cd" stroke="#9a32cd" points="261.923,-370.872 272.342,-368.946 262.997,-363.954 261.923,-370.872"/>
<text text-anchor="middle" x="287" y="-335" font-family="Helvetica,sans-Serif" font-size="10.00"> _defaultMessagePrefix</text>
<text text-anchor="middle" x="287" y="-324" font-family="Helvetica,sans-Serif" font-size="10.00">_defaultMessageSeparator</text>
<text text-anchor="middle" x="287" y="-313" font-family="Helvetica,sans-Serif" font-size="10.00">_defaultMessageFalseSeparator</text>
<text text-anchor="middle" x="287" y="-302" font-family="Helvetica,sans-Serif" font-size="10.00">_defatultOutputLevel</text>
<text text-anchor="middle" x="287" y="-291" font-family="Helvetica,sans-Serif" font-size="10.00">_lockGlobal</text>
</g>
</g>
</svg>
