<?xml version="1.0" encoding="UTF-8" standalone="no"?>
<!DOCTYPE svg PUBLIC "-//W3C//DTD SVG 1.1//EN"
 "http://www.w3.org/Graphics/SVG/1.1/DTD/svg11.dtd">
<!-- Generated by graphviz version 2.38.0 (20140413.2041)
 -->
<!-- Title: IG.Lib.LoadableScriptBase Pages: 1 -->
<svg width="430pt" height="106pt"
 viewBox="0.00 0.00 429.50 106.00" xmlns="http://www.w3.org/2000/svg" xmlns:xlink="http://www.w3.org/1999/xlink">
<g id="graph0" class="graph" transform="scale(1 1) rotate(0) translate(4 102)">
<title>IG.Lib.LoadableScriptBase</title>
<polygon fill="white" stroke="none" points="-4,4 -4,-102 425.5,-102 425.5,4 -4,4"/>
<!-- Node1 -->
<g id="node1" class="node"><title>Node1</title>
<g id="a_node1"><a xlink:title="Base class for classes that can be dynamically loadeded from scripts and run, which provides function...">
<polygon fill="#bfbfbf" stroke="black" points="127.5,-0.5 127.5,-19.5 259.5,-19.5 259.5,-0.5 127.5,-0.5"/>
<text text-anchor="middle" x="193.5" y="-7.5" font-family="Helvetica,sans-Serif" font-size="10.00">IG.Lib.LoadableScriptBase</text>
</a>
</g>
</g>
<!-- Node2 -->
<g id="node2" class="node"><title>Node2</title>
<g id="a_node2"><a xlink:href="../../d7/d66/interfaceIG_1_1Lib_1_1ILoadableScript.html" target="_top" xlink:title="Interface for classes that can be dynamically loadeded from scripts and run, which provides functiona...">
<polygon fill="white" stroke="black" points="0,-73 0,-92 83,-92 83,-73 0,-73"/>
<text text-anchor="middle" x="41.5" y="-80" font-family="Helvetica,sans-Serif" font-size="10.00">ILoadableScript</text>
</a>
</g>
</g>
<!-- Node2&#45;&gt;Node1 -->
<g id="edge1" class="edge"><title>Node2&#45;&gt;Node1</title>
<path fill="none" stroke="midnightblue" d="M69.1316,-68.684C99.8799,-54.4225 148.701,-31.7783 175.1,-19.5341"/>
<polygon fill="midnightblue" stroke="midnightblue" points="67.4338,-65.6133 59.8348,-72.9961 70.3792,-71.9635 67.4338,-65.6133"/>
</g>
<!-- Node3 -->
<g id="node3" class="node"><title>Node3</title>
<g id="a_node3"><a xlink:href="../../d3/db6/interfaceIG_1_1Lib_1_1ILockable.html" target="_top" xlink:title="Lockable object, has a Lock property that returns object on which lock must be performed in order to ...">
<polygon fill="white" stroke="black" points="101.5,-73 101.5,-92 159.5,-92 159.5,-73 101.5,-73"/>
<text text-anchor="middle" x="130.5" y="-80" font-family="Helvetica,sans-Serif" font-size="10.00">ILockable</text>
</a>
</g>
</g>
<!-- Node3&#45;&gt;Node1 -->
<g id="edge2" class="edge"><title>Node3&#45;&gt;Node1</title>
<path fill="none" stroke="midnightblue" d="M144.98,-65.2962C157.651,-51.1172 175.572,-31.0626 185.712,-19.7154"/>
<polygon fill="midnightblue" stroke="midnightblue" points="142.279,-63.0666 138.225,-72.8553 147.498,-67.7309 142.279,-63.0666"/>
</g>
<!-- Node4 -->
<g id="node4" class="node"><title>Node4</title>
<g id="a_node4"><a xlink:href="../../de/dfd/interfaceIG_1_1Lib_1_1ICommandLineApplicationInterpreter.html" target="_top" xlink:title="Interface for simple command&#45;line applicatino interpreters.">
<polygon fill="white" stroke="black" points="177.5,-67.5 177.5,-97.5 335.5,-97.5 335.5,-67.5 177.5,-67.5"/>
<text text-anchor="start" x="185.5" y="-85.5" font-family="Helvetica,sans-Serif" font-size="10.00">IG.Lib.ICommandLineApplication</text>
<text text-anchor="middle" x="256.5" y="-74.5" font-family="Helvetica,sans-Serif" font-size="10.00">Interpreter</text>
</a>
</g>
</g>
<!-- Node4&#45;&gt;Node1 -->
<g id="edge3" class="edge"><title>Node4&#45;&gt;Node1</title>
<path fill="none" stroke="#9a32cd" stroke-dasharray="5,2" d="M237.074,-59.7615C225.084,-46.3439 210.344,-29.8487 201.447,-19.8932"/>
<polygon fill="#9a32cd" stroke="#9a32cd" points="234.478,-62.1089 243.751,-67.2333 239.697,-57.4445 234.478,-62.1089"/>
<text text-anchor="middle" x="268.5" y="-41" font-family="Helvetica,sans-Serif" font-size="10.00"> _script_interpreter</text>
</g>
<!-- Node5 -->
<g id="node5" class="node"><title>Node5</title>
<g id="a_node5"><a xlink:title=" ">
<polygon fill="white" stroke="#bfbfbf" points="354,-73 354,-92 395,-92 395,-73 354,-73"/>
<text text-anchor="middle" x="374.5" y="-80" font-family="Helvetica,sans-Serif" font-size="10.00">static</text>
</a>
</g>
</g>
<!-- Node5&#45;&gt;Node1 -->
<g id="edge4" class="edge"><title>Node5&#45;&gt;Node1</title>
<path fill="none" stroke="#9a32cd" stroke-dasharray="5,2" d="M356.952,-66.0984C345.35,-56.6768 329.397,-45.1068 313.5,-38 294.59,-29.5464 272.782,-23.6226 252.987,-19.5253"/>
<polygon fill="#9a32cd" stroke="#9a32cd" points="354.994,-69.0249 364.903,-72.7749 359.496,-63.6641 354.994,-69.0249"/>
<text text-anchor="middle" x="377.5" y="-41" font-family="Helvetica,sans-Serif" font-size="10.00"> _defaultOutputLevel</text>
</g>
</g>
</svg>
