<?xml version="1.0" encoding="UTF-8" standalone="no"?>
<!DOCTYPE svg PUBLIC "-//W3C//DTD SVG 1.1//EN"
 "http://www.w3.org/Graphics/SVG/1.1/DTD/svg11.dtd">
<!-- Generated by graphviz version 2.38.0 (20140413.2041)
 -->
<!-- Title: IG.Lib.ExpressionEvaluatorCompiled Pages: 1 -->
<svg width="250pt" height="128pt"
 viewBox="0.00 0.00 250.00 128.00" xmlns="http://www.w3.org/2000/svg" xmlns:xlink="http://www.w3.org/1999/xlink">
<g id="graph0" class="graph" transform="scale(1 1) rotate(0) translate(4 124)">
<title>IG.Lib.ExpressionEvaluatorCompiled</title>
<polygon fill="white" stroke="none" points="-4,4 -4,-124 246,-124 246,4 -4,4"/>
<!-- Node1 -->
<g id="node1" class="node"><title>Node1</title>
<g id="a_node1"><a xlink:title="Base class for expression evaluators that utilize the functionality of CodeDomProvider class.">
<polygon fill="#bfbfbf" stroke="black" points="42,-0.5 42,-30.5 176,-30.5 176,-0.5 42,-0.5"/>
<text text-anchor="start" x="50" y="-18.5" font-family="Helvetica,sans-Serif" font-size="10.00">IG.Lib.ExpressionEvaluator</text>
<text text-anchor="middle" x="109" y="-7.5" font-family="Helvetica,sans-Serif" font-size="10.00">Compiled</text>
</a>
</g>
</g>
<!-- Node2 -->
<g id="node2" class="node"><title>Node2</title>
<g id="a_node2"><a xlink:href="../../d3/db6/interfaceIG_1_1Lib_1_1ILockable.html" target="_top" xlink:title="Lockable object, has a Lock property that returns object on which lock must be performed in order to ...">
<polygon fill="white" stroke="black" points="0,-100.5 0,-119.5 58,-119.5 58,-100.5 0,-100.5"/>
<text text-anchor="middle" x="29" y="-107.5" font-family="Helvetica,sans-Serif" font-size="10.00">ILockable</text>
</a>
</g>
</g>
<!-- Node2&#45;&gt;Node1 -->
<g id="edge1" class="edge"><title>Node2&#45;&gt;Node1</title>
<path fill="none" stroke="midnightblue" d="M43.0587,-92.7446C58.2594,-75.1688 82.2494,-47.4304 96.719,-30.6999"/>
<polygon fill="midnightblue" stroke="midnightblue" points="40.2771,-90.6104 36.3828,-100.464 45.5716,-95.1895 40.2771,-90.6104"/>
</g>
<!-- Node3 -->
<g id="node3" class="node"><title>Node3</title>
<g id="a_node3"><a xlink:href="../../dc/d79/interfaceIG_1_1Lib_1_1IIdentifiable.html" target="_top" xlink:title="Classes whose instances have unique integer IDs.">
<polygon fill="white" stroke="black" points="76.5,-100.5 76.5,-119.5 141.5,-119.5 141.5,-100.5 76.5,-100.5"/>
<text text-anchor="middle" x="109" y="-107.5" font-family="Helvetica,sans-Serif" font-size="10.00">IIdentifiable</text>
</a>
</g>
</g>
<!-- Node3&#45;&gt;Node1 -->
<g id="edge2" class="edge"><title>Node3&#45;&gt;Node1</title>
<path fill="none" stroke="midnightblue" d="M109,-90.2869C109,-72.6698 109,-46.6699 109,-30.6999"/>
<polygon fill="midnightblue" stroke="midnightblue" points="105.5,-90.4636 109,-100.464 112.5,-90.4637 105.5,-90.4636"/>
</g>
<!-- Node4 -->
<g id="node4" class="node"><title>Node4</title>
<g id="a_node4"><a xlink:title=" ">
<polygon fill="white" stroke="#bfbfbf" points="159.5,-100.5 159.5,-119.5 200.5,-119.5 200.5,-100.5 159.5,-100.5"/>
<text text-anchor="middle" x="180" y="-107.5" font-family="Helvetica,sans-Serif" font-size="10.00">static</text>
</a>
</g>
</g>
<!-- Node4&#45;&gt;Node1 -->
<g id="edge3" class="edge"><title>Node4&#45;&gt;Node1</title>
<path fill="none" stroke="#9a32cd" stroke-dasharray="5,2" d="M167.153,-92.2628C153.646,-74.6653 132.624,-47.2783 119.899,-30.6999"/>
<polygon fill="#9a32cd" stroke="#9a32cd" points="164.582,-94.6621 173.448,-100.464 170.135,-90.3999 164.582,-94.6621"/>
<text text-anchor="middle" x="201" y="-74" font-family="Helvetica,sans-Serif" font-size="10.00"> _lastId</text>
<text text-anchor="middle" x="201" y="-63" font-family="Helvetica,sans-Serif" font-size="10.00">DefaultOutputLevel</text>
<text text-anchor="middle" x="201" y="-52" font-family="Helvetica,sans-Serif" font-size="10.00">_idLock</text>
</g>
</g>
</svg>
