<?xml version="1.0" encoding="UTF-8" standalone="no"?>
<!DOCTYPE svg PUBLIC "-//W3C//DTD SVG 1.1//EN"
 "http://www.w3.org/Graphics/SVG/1.1/DTD/svg11.dtd">
<!-- Generated by graphviz version 2.38.0 (20140413.2041)
 -->
<!-- Title: IG.Num.NonSIUnit Pages: 1 -->
<svg width="104pt" height="205pt"
 viewBox="0.00 0.00 104.00 205.00" xmlns="http://www.w3.org/2000/svg" xmlns:xlink="http://www.w3.org/1999/xlink">
<g id="graph0" class="graph" transform="scale(1 1) rotate(0) translate(4 201)">
<title>IG.Num.NonSIUnit</title>
<polygon fill="white" stroke="none" points="-4,4 -4,-201 100,-201 100,4 -4,4"/>
<!-- Node1 -->
<g id="node1" class="node"><title>Node1</title>
<g id="a_node1"><a xlink:title="Non&#45;SI units whose use is not encouraged or not allowed">
<polygon fill="#bfbfbf" stroke="black" points="0,-0.5 0,-19.5 96,-19.5 96,-0.5 0,-0.5"/>
<text text-anchor="middle" x="48" y="-7.5" font-family="Helvetica,sans-Serif" font-size="10.00">IG.Num.NonSIUnit</text>
</a>
</g>
</g>
<!-- Node2 -->
<g id="node2" class="node"><title>Node2</title>
<g id="a_node2"><a xlink:title=" ">
<polygon fill="white" stroke="#bfbfbf" points="27.5,-177.5 27.5,-196.5 68.5,-196.5 68.5,-177.5 27.5,-177.5"/>
<text text-anchor="middle" x="48" y="-184.5" font-family="Helvetica,sans-Serif" font-size="10.00">static</text>
</a>
</g>
</g>
<!-- Node2&#45;&gt;Node1 -->
<g id="edge1" class="edge"><title>Node2&#45;&gt;Node1</title>
<path fill="none" stroke="#9a32cd" stroke-dasharray="5,2" d="M48,-166.951C48,-129.297 48,-46.6537 48,-19.6932"/>
<polygon fill="#9a32cd" stroke="#9a32cd" points="44.5001,-167.081 48,-177.081 51.5001,-167.081 44.5001,-167.081"/>
<text text-anchor="middle" x="59" y="-151" font-family="Helvetica,sans-Serif" font-size="10.00"> psi</text>
<text text-anchor="middle" x="59" y="-140" font-family="Helvetica,sans-Serif" font-size="10.00">at</text>
<text text-anchor="middle" x="59" y="-129" font-family="Helvetica,sans-Serif" font-size="10.00">atm</text>
<text text-anchor="middle" x="59" y="-118" font-family="Helvetica,sans-Serif" font-size="10.00">mbar</text>
<text text-anchor="middle" x="59" y="-107" font-family="Helvetica,sans-Serif" font-size="10.00">mile</text>
<text text-anchor="middle" x="59" y="-96" font-family="Helvetica,sans-Serif" font-size="10.00">knot</text>
<text text-anchor="middle" x="59" y="-85" font-family="Helvetica,sans-Serif" font-size="10.00">Torr</text>
<text text-anchor="middle" x="59" y="-74" font-family="Helvetica,sans-Serif" font-size="10.00">inch</text>
<text text-anchor="middle" x="59" y="-63" font-family="Helvetica,sans-Serif" font-size="10.00">An</text>
<text text-anchor="middle" x="59" y="-52" font-family="Helvetica,sans-Serif" font-size="10.00">a</text>
<text text-anchor="middle" x="59" y="-41" font-family="Helvetica,sans-Serif" font-size="10.00">...</text>
</g>
</g>
</svg>
