<?xml version="1.0" encoding="UTF-8" standalone="no"?>
<!DOCTYPE svg PUBLIC "-//W3C//DTD SVG 1.1//EN"
 "http://www.w3.org/Graphics/SVG/1.1/DTD/svg11.dtd">
<!-- Generated by graphviz version 2.38.0 (20140413.2041)
 -->
<!-- Title: IG.Lib.LoadableScriptInterpreterBase Pages: 1 -->
<svg width="451pt" height="195pt"
 viewBox="0.00 0.00 450.50 195.00" xmlns="http://www.w3.org/2000/svg" xmlns:xlink="http://www.w3.org/1999/xlink">
<g id="graph0" class="graph" transform="scale(1 1) rotate(0) translate(4 191)">
<title>IG.Lib.LoadableScriptInterpreterBase</title>
<polygon fill="white" stroke="none" points="-4,4 -4,-191 446.5,-191 446.5,4 -4,4"/>
<!-- Node1 -->
<g id="node1" class="node"><title>Node1</title>
<g id="a_node1"><a xlink:title="Interpreter that can install commands from dynamically loaded (compiled) scripts and run them....">
<polygon fill="#bfbfbf" stroke="black" points="60.5,-0.5 60.5,-19.5 236.5,-19.5 236.5,-0.5 60.5,-0.5"/>
<text text-anchor="middle" x="148.5" y="-7.5" font-family="Helvetica,sans-Serif" font-size="10.00">IG.Lib.LoadableScriptInterpreterBase</text>
</a>
</g>
</g>
<!-- Node2 -->
<g id="node2" class="node"><title>Node2</title>
<g id="a_node2"><a xlink:href="../../d8/dff/interfaceIG_1_1Lib_1_1ILoadableScriptInterpreter.html" target="_top" xlink:title="Interface for interpreters that can install commands from loadable scripts and run them.">
<polygon fill="white" stroke="black" points="0,-67.5 0,-86.5 127,-86.5 127,-67.5 0,-67.5"/>
<text text-anchor="middle" x="63.5" y="-74.5" font-family="Helvetica,sans-Serif" font-size="10.00">ILoadableScriptInterpreter</text>
</a>
</g>
</g>
<!-- Node2&#45;&gt;Node1 -->
<g id="edge1" class="edge"><title>Node2&#45;&gt;Node1</title>
<path fill="none" stroke="midnightblue" d="M83.0267,-61.0678C99.8047,-48.2376 123.412,-30.1853 137.218,-19.6273"/>
<polygon fill="midnightblue" stroke="midnightblue" points="80.781,-58.379 74.9635,-67.2338 85.0332,-63.9395 80.781,-58.379"/>
</g>
<!-- Node3 -->
<g id="node3" class="node"><title>Node3</title>
<g id="a_node3"><a xlink:href="../../d3/db6/interfaceIG_1_1Lib_1_1ILockable.html" target="_top" xlink:title="Lockable object, has a Lock property that returns object on which lock must be performed in order to ...">
<polygon fill="white" stroke="black" points="34.5,-167.5 34.5,-186.5 92.5,-186.5 92.5,-167.5 34.5,-167.5"/>
<text text-anchor="middle" x="63.5" y="-174.5" font-family="Helvetica,sans-Serif" font-size="10.00">ILockable</text>
</a>
</g>
</g>
<!-- Node3&#45;&gt;Node2 -->
<g id="edge2" class="edge"><title>Node3&#45;&gt;Node2</title>
<path fill="none" stroke="midnightblue" d="M63.5,-157.22C63.5,-135.951 63.5,-102.22 63.5,-86.5374"/>
<polygon fill="midnightblue" stroke="midnightblue" points="60.0001,-157.303 63.5,-167.303 67.0001,-157.303 60.0001,-157.303"/>
</g>
<!-- Node4 -->
<g id="node4" class="node"><title>Node4</title>
<g id="a_node4"><a xlink:href="../../d3/d40/classIG_1_1Lib_1_1ScriptLoaderBase.html" target="_top" xlink:title="Dynamically compiles, loads and instantiates classes of type ILoadableScript from files or from strin...">
<polygon fill="white" stroke="black" points="145.5,-67.5 145.5,-86.5 267.5,-86.5 267.5,-67.5 145.5,-67.5"/>
<text text-anchor="middle" x="206.5" y="-74.5" font-family="Helvetica,sans-Serif" font-size="10.00">IG.Lib.ScriptLoaderBase</text>
</a>
</g>
</g>
<!-- Node3&#45;&gt;Node4 -->
<g id="edge4" class="edge"><title>Node3&#45;&gt;Node4</title>
<path fill="none" stroke="midnightblue" d="M83.9415,-161.541C104.459,-147.083 137.021,-124.285 165.5,-105 174.674,-98.7877 185.104,-91.9222 193.148,-86.6688"/>
<polygon fill="midnightblue" stroke="midnightblue" points="81.829,-158.748 75.6765,-167.373 85.865,-164.467 81.829,-158.748"/>
</g>
<!-- Node4&#45;&gt;Node1 -->
<g id="edge3" class="edge"><title>Node4&#45;&gt;Node1</title>
<path fill="none" stroke="#9a32cd" stroke-dasharray="5,2" d="M191.897,-59.6348C180.554,-46.9228 165.273,-29.7978 156.198,-19.6273"/>
<polygon fill="#9a32cd" stroke="#9a32cd" points="189.408,-62.1026 198.678,-67.2338 194.631,-57.4421 189.408,-62.1026"/>
<text text-anchor="middle" x="212.5" y="-41" font-family="Helvetica,sans-Serif" font-size="10.00"> _scriptLoader</text>
</g>
<!-- Node5 -->
<g id="node5" class="node"><title>Node5</title>
<g id="a_node5"><a xlink:href="../../d7/d66/interfaceIG_1_1Lib_1_1ILoadableScript.html" target="_top" xlink:title="Interface for classes that can be dynamically loadeded from scripts and run, which provides functiona...">
<polygon fill="white" stroke="black" points="110.5,-167.5 110.5,-186.5 222.5,-186.5 222.5,-167.5 110.5,-167.5"/>
<text text-anchor="middle" x="166.5" y="-174.5" font-family="Helvetica,sans-Serif" font-size="10.00">IG.Lib.ILoadableScript</text>
</a>
</g>
</g>
<!-- Node5&#45;&gt;Node4 -->
<g id="edge5" class="edge"><title>Node5&#45;&gt;Node4</title>
<path fill="none" stroke="#9a32cd" stroke-dasharray="5,2" d="M167.725,-157.178C169.324,-142.31 173.009,-121.406 181.5,-105 185.141,-97.9648 191.12,-91.4103 196.318,-86.5213"/>
<polygon fill="#9a32cd" stroke="#9a32cd" points="164.233,-156.933 166.864,-167.196 171.207,-157.533 164.233,-156.933"/>
<text text-anchor="middle" x="218.5" y="-124.5" font-family="Helvetica,sans-Serif" font-size="10.00"> _runnableObject</text>
</g>
<!-- Node6 -->
<g id="node6" class="node"><title>Node6</title>
<g id="a_node6"><a xlink:href="../../d7/df0/classIG_1_1Lib_1_1Logger.html" target="_top" xlink:title="Temporary logging of errors, warnings and infos for later processing. It is used to log multiple even...">
<polygon fill="white" stroke="black" points="240.5,-167.5 240.5,-186.5 314.5,-186.5 314.5,-167.5 240.5,-167.5"/>
<text text-anchor="middle" x="277.5" y="-174.5" font-family="Helvetica,sans-Serif" font-size="10.00">IG.Lib.Logger</text>
</a>
</g>
</g>
<!-- Node6&#45;&gt;Node4 -->
<g id="edge6" class="edge"><title>Node6&#45;&gt;Node4</title>
<path fill="none" stroke="#9a32cd" stroke-dasharray="5,2" d="M275.582,-157.178C273.156,-141.706 267.702,-119.972 255.5,-105 248.934,-96.9439 239.297,-90.9053 230.303,-86.6052"/>
<polygon fill="#9a32cd" stroke="#9a32cd" points="272.118,-157.68 276.866,-167.151 279.06,-156.786 272.118,-157.68"/>
<text text-anchor="middle" x="292" y="-124.5" font-family="Helvetica,sans-Serif" font-size="10.00"> _logger</text>
</g>
<!-- Node7 -->
<g id="node7" class="node"><title>Node7</title>
<g id="a_node7"><a xlink:title=" ">
<polygon fill="white" stroke="#bfbfbf" points="333,-167.5 333,-186.5 374,-186.5 374,-167.5 333,-167.5"/>
<text text-anchor="middle" x="353.5" y="-174.5" font-family="Helvetica,sans-Serif" font-size="10.00">static</text>
</a>
</g>
</g>
<!-- Node7&#45;&gt;Node4 -->
<g id="edge7" class="edge"><title>Node7&#45;&gt;Node4</title>
<path fill="none" stroke="#9a32cd" stroke-dasharray="5,2" d="M347.781,-157.537C341.802,-141.3 330.837,-118.247 313.5,-105 300.256,-94.8801 283.656,-88.5203 267.51,-84.5336"/>
<polygon fill="#9a32cd" stroke="#9a32cd" points="344.481,-158.704 351.006,-167.051 351.11,-156.457 344.481,-158.704"/>
<text text-anchor="middle" x="393.5" y="-141" font-family="Helvetica,sans-Serif" font-size="10.00"> _isScriptingInitialized</text>
<text text-anchor="middle" x="393.5" y="-130" font-family="Helvetica,sans-Serif" font-size="10.00">_usedClassFullNames</text>
<text text-anchor="middle" x="393.5" y="-119" font-family="Helvetica,sans-Serif" font-size="10.00">_global</text>
<text text-anchor="middle" x="393.5" y="-108" font-family="Helvetica,sans-Serif" font-size="10.00">_defaultAssemblies</text>
</g>
</g>
</svg>
