<?xml version="1.0" encoding="UTF-8" standalone="no"?>
<!DOCTYPE svg PUBLIC "-//W3C//DTD SVG 1.1//EN"
 "http://www.w3.org/Graphics/SVG/1.1/DTD/svg11.dtd">
<!-- Generated by graphviz version 2.38.0 (20140413.2041)
 -->
<!-- Title: IGLib.Gr3D.ICurve3DCylindricalParameterization Pages: 1 -->
<svg width="570pt" height="89pt"
 viewBox="0.00 0.00 570.00 88.50" xmlns="http://www.w3.org/2000/svg" xmlns:xlink="http://www.w3.org/1999/xlink">
<g id="graph0" class="graph" transform="scale(1 1) rotate(0) translate(4 84.5)">
<title>IGLib.Gr3D.ICurve3DCylindricalParameterization</title>
<polygon fill="white" stroke="none" points="-4,4 -4,-84.5 566,-84.5 566,4 -4,4"/>
<!-- Node1 -->
<g id="node1" class="node"><title>Node1</title>
<g id="a_node1"><a xlink:title="Cylindrical parameterization of a curve in 3D. Beside the CurveCylindrical and (optional) CurveDeriva...">
<polygon fill="#bfbfbf" stroke="black" points="0,-33.5 0,-63.5 151,-63.5 151,-33.5 0,-33.5"/>
<text text-anchor="start" x="8" y="-51.5" font-family="Helvetica,sans-Serif" font-size="10.00">IGLib.Gr3D.ICurve3DCylindrical</text>
<text text-anchor="middle" x="75.5" y="-40.5" font-family="Helvetica,sans-Serif" font-size="10.00">Parameterization</text>
</a>
</g>
</g>
<!-- Node2 -->
<g id="node2" class="node"><title>Node2</title>
<g id="a_node2"><a xlink:href="../../d7/dac/classIGLib_1_1Gr3D_1_1Curve3DParameterizationFromCylindricalWithBounds.html" target="_top" xlink:title="Cartesion parameterization of a curve in 3D. Beside the Curve and (optional) CurveDerivative,...">
<polygon fill="white" stroke="black" points="187,-33.5 187,-63.5 364,-63.5 364,-33.5 187,-33.5"/>
<text text-anchor="start" x="195" y="-51.5" font-family="Helvetica,sans-Serif" font-size="10.00">IGLib.Gr3D.Curve3DParameterization</text>
<text text-anchor="middle" x="275.5" y="-40.5" font-family="Helvetica,sans-Serif" font-size="10.00">FromCylindricalWithBounds</text>
</a>
</g>
</g>
<!-- Node1&#45;&gt;Node2 -->
<g id="edge1" class="edge"><title>Node1&#45;&gt;Node2</title>
<path fill="none" stroke="midnightblue" d="M161.253,-48.5C169.67,-48.5 178.227,-48.5 186.674,-48.5"/>
<polygon fill="midnightblue" stroke="midnightblue" points="161.073,-45.0001 151.073,-48.5 161.073,-52.0001 161.073,-45.0001"/>
</g>
<!-- Node3 -->
<g id="node3" class="node"><title>Node3</title>
<g id="a_node3"><a xlink:href="../../df/d6e/classIGLib_1_1Gr3D_1_1CylindricalBilliardKnot.html" target="_top" xlink:title="Cartesian and cylindrical parameterization of a cylindrical billiard knot in 3D.">
<polygon fill="white" stroke="black" points="400,-61 400,-80 562,-80 562,-61 400,-61"/>
<text text-anchor="middle" x="481" y="-68" font-family="Helvetica,sans-Serif" font-size="10.00">IGLib.Gr3D.CylindricalBilliardKnot</text>
</a>
</g>
</g>
<!-- Node1&#45;&gt;Node3 -->
<g id="edge4" class="edge"><title>Node1&#45;&gt;Node3</title>
<path fill="none" stroke="midnightblue" d="M141.788,-65.7924C156.552,-68.996 172.23,-71.85 187,-73.5 258.663,-81.5056 340.798,-79.7258 399.836,-76.5427"/>
<polygon fill="midnightblue" stroke="midnightblue" points="142.261,-62.3113 131.736,-63.5293 140.723,-69.1404 142.261,-62.3113"/>
</g>
<!-- Node4 -->
<g id="node4" class="node"><title>Node4</title>
<g id="a_node4"><a xlink:href="../../da/da0/classIGLib_1_1Gr3D_1_1CylindricalBilliardKnot__WrongParameterization.html" target="_top" xlink:title="Cartesian and cylindrical parameterization of a cylindrical billiard knot in 3D.">
<polygon fill="white" stroke="black" points="409,-0.5 409,-30.5 553,-30.5 553,-0.5 409,-0.5"/>
<text text-anchor="start" x="417" y="-18.5" font-family="Helvetica,sans-Serif" font-size="10.00">IGLib.Gr3D.CylindricalBilliard</text>
<text text-anchor="middle" x="481" y="-7.5" font-family="Helvetica,sans-Serif" font-size="10.00">Knot_WrongParameterization</text>
</a>
</g>
</g>
<!-- Node1&#45;&gt;Node4 -->
<g id="edge5" class="edge"><title>Node1&#45;&gt;Node4</title>
<path fill="none" stroke="midnightblue" d="M143.016,-31.2487C157.427,-28.1309 172.65,-25.3017 187,-23.5 262.357,-14.0388 349.437,-12.8903 408.957,-13.5776"/>
<polygon fill="midnightblue" stroke="midnightblue" points="142.187,-27.8478 133.19,-33.4443 143.713,-34.6793 142.187,-27.8478"/>
</g>
<!-- Node2&#45;&gt;Node3 -->
<g id="edge2" class="edge"><title>Node2&#45;&gt;Node3</title>
<path fill="none" stroke="midnightblue" d="M374.309,-59.074C382.881,-60.0006 391.49,-60.9313 399.892,-61.8397"/>
<polygon fill="midnightblue" stroke="midnightblue" points="374.597,-55.5848 364.279,-57.9896 373.845,-62.5442 374.597,-55.5848"/>
</g>
<!-- Node2&#45;&gt;Node4 -->
<g id="edge3" class="edge"><title>Node2&#45;&gt;Node4</title>
<path fill="none" stroke="midnightblue" d="M374.416,-32.6217C385.988,-30.7452 397.626,-28.8579 408.731,-27.0572"/>
<polygon fill="midnightblue" stroke="midnightblue" points="373.59,-29.2099 364.279,-34.2656 374.71,-36.1197 373.59,-29.2099"/>
</g>
</g>
</svg>
