<?xml version="1.0" encoding="UTF-8" standalone="no"?>
<!DOCTYPE svg PUBLIC "-//W3C//DTD SVG 1.1//EN"
 "http://www.w3.org/Graphics/SVG/1.1/DTD/svg11.dtd">
<!-- Generated by graphviz version 2.38.0 (20140413.2041)
 -->
<!-- Title: IG.Reflection.SerializationBinderSimple Pages: 1 -->
<svg width="224pt" height="151pt"
 viewBox="0.00 0.00 224.00 151.00" xmlns="http://www.w3.org/2000/svg" xmlns:xlink="http://www.w3.org/1999/xlink">
<g id="graph0" class="graph" transform="scale(1 1) rotate(0) translate(4 147)">
<title>IG.Reflection.SerializationBinderSimple</title>
<polygon fill="white" stroke="none" points="-4,4 -4,-147 220,-147 220,4 -4,4"/>
<!-- Node1 -->
<g id="node1" class="node"><title>Node1</title>
<g id="a_node1"><a xlink:title="A simple SerializationBinder, defines a single mapping from the original assembly and type name to a ...">
<polygon fill="#bfbfbf" stroke="black" points="58,-0.5 58,-30.5 186,-30.5 186,-0.5 58,-0.5"/>
<text text-anchor="start" x="66" y="-18.5" font-family="Helvetica,sans-Serif" font-size="10.00">IG.Reflection.Serialization</text>
<text text-anchor="middle" x="122" y="-7.5" font-family="Helvetica,sans-Serif" font-size="10.00">BinderSimple</text>
</a>
</g>
</g>
<!-- Node2 -->
<g id="node2" class="node"><title>Node2</title>
<g id="a_node2"><a xlink:href="../../db/dfd/classIG_1_1Reflection_1_1SerializationBinderBase.html" target="_top" xlink:title="Enables to reference classes that both inherit from the framework&#39;s SerializationBinder (necessary fo...">
<polygon fill="white" stroke="black" points="18,-67.5 18,-86.5 138,-86.5 138,-67.5 18,-67.5"/>
<text text-anchor="middle" x="78" y="-74.5" font-family="Helvetica,sans-Serif" font-size="10.00">SerializationBinderBase</text>
</a>
</g>
</g>
<!-- Node2&#45;&gt;Node1 -->
<g id="edge1" class="edge"><title>Node2&#45;&gt;Node1</title>
<path fill="none" stroke="midnightblue" d="M90.3887,-59.2472C97.0889,-50.1866 105.27,-39.124 111.63,-30.523"/>
<polygon fill="midnightblue" stroke="midnightblue" points="87.4358,-57.3537 84.3041,-67.4751 93.0641,-61.5158 87.4358,-57.3537"/>
</g>
<!-- Node3 -->
<g id="node3" class="node"><title>Node3</title>
<g id="a_node3"><a xlink:title=" ">
<polygon fill="white" stroke="#bfbfbf" points="0,-123.5 0,-142.5 98,-142.5 98,-123.5 0,-123.5"/>
<text text-anchor="middle" x="49" y="-130.5" font-family="Helvetica,sans-Serif" font-size="10.00">SerializationBinder</text>
</a>
</g>
</g>
<!-- Node3&#45;&gt;Node2 -->
<g id="edge2" class="edge"><title>Node3&#45;&gt;Node2</title>
<path fill="none" stroke="midnightblue" d="M58.6759,-113.983C63.5984,-104.817 69.3579,-94.0922 73.3003,-86.7511"/>
<polygon fill="midnightblue" stroke="midnightblue" points="55.4366,-112.617 53.7888,-123.083 61.6036,-115.929 55.4366,-112.617"/>
</g>
<!-- Node4 -->
<g id="node4" class="node"><title>Node4</title>
<g id="a_node4"><a xlink:href="../../d6/dde/interfaceIG_1_1Reflection_1_1ISerializationBinder.html" target="_top" xlink:title="Interface implemented by IGLib&#39;s classes based on the framework&#39;s SerializationBinder class.">
<polygon fill="white" stroke="black" points="116,-123.5 116,-142.5 216,-142.5 216,-123.5 116,-123.5"/>
<text text-anchor="middle" x="166" y="-130.5" font-family="Helvetica,sans-Serif" font-size="10.00">ISerializationBinder</text>
</a>
</g>
</g>
<!-- Node4&#45;&gt;Node1 -->
<g id="edge4" class="edge"><title>Node4&#45;&gt;Node1</title>
<path fill="none" stroke="midnightblue" d="M161.563,-113.678C158.15,-100.497 153.01,-82.4022 147,-67 142.092,-54.4232 135.211,-40.731 129.91,-30.7807"/>
<polygon fill="midnightblue" stroke="midnightblue" points="158.18,-114.578 164.005,-123.428 164.971,-112.877 158.18,-114.578"/>
</g>
<!-- Node4&#45;&gt;Node2 -->
<g id="edge3" class="edge"><title>Node4&#45;&gt;Node2</title>
<path fill="none" stroke="midnightblue" d="M143.023,-117.901C126.887,-107.999 105.819,-95.0705 92.1036,-86.6545"/>
<polygon fill="midnightblue" stroke="midnightblue" points="141.507,-121.077 151.861,-123.324 145.169,-115.111 141.507,-121.077"/>
</g>
</g>
</svg>
