<?xml version="1.0" encoding="UTF-8" standalone="no"?>
<!DOCTYPE svg PUBLIC "-//W3C//DTD SVG 1.1//EN"
 "http://www.w3.org/Graphics/SVG/1.1/DTD/svg11.dtd">
<!-- Generated by graphviz version 2.38.0 (20140413.2041)
 -->
<!-- Title: IG.Lib.WaitFileEventBaseByProxyLatence Pages: 1 -->
<svg width="497pt" height="396pt"
 viewBox="0.00 0.00 496.50 396.00" xmlns="http://www.w3.org/2000/svg" xmlns:xlink="http://www.w3.org/1999/xlink">
<g id="graph0" class="graph" transform="scale(1 1) rotate(0) translate(4 392)">
<title>IG.Lib.WaitFileEventBaseByProxyLatence</title>
<polygon fill="white" stroke="none" points="-4,4 -4,-392 492.5,-392 492.5,4 -4,4"/>
<!-- Node1 -->
<g id="node1" class="node"><title>Node1</title>
<g id="a_node1"><a xlink:title="Base class for classes that provide blocking until a file or directory is created/removed....">
<polygon fill="#bfbfbf" stroke="black" points="9,-0.5 9,-30.5 137,-30.5 137,-0.5 9,-0.5"/>
<text text-anchor="start" x="17" y="-18.5" font-family="Helvetica,sans-Serif" font-size="10.00">IG.Lib.WaitFileEventBase</text>
<text text-anchor="middle" x="73" y="-7.5" font-family="Helvetica,sans-Serif" font-size="10.00">ByProxyLatence</text>
</a>
</g>
</g>
<!-- Node2 -->
<g id="node2" class="node"><title>Node2</title>
<g id="a_node2"><a xlink:href="../../df/dea/classIG_1_1Lib_1_1WaitConditionBase.html" target="_top" xlink:title="Base class for objects that perform waiting until a condition is fulfilled.">
<polygon fill="white" stroke="black" points="180,-211.5 180,-230.5 280,-230.5 280,-211.5 180,-211.5"/>
<text text-anchor="middle" x="230" y="-218.5" font-family="Helvetica,sans-Serif" font-size="10.00">WaitConditionBase</text>
</a>
</g>
</g>
<!-- Node2&#45;&gt;Node1 -->
<g id="edge1" class="edge"><title>Node2&#45;&gt;Node1</title>
<path fill="none" stroke="midnightblue" d="M236.669,-201.824C245.897,-173.392 259.077,-117.563 237,-78 217.441,-42.9489 174.45,-27.6933 137.391,-21.1381"/>
<polygon fill="midnightblue" stroke="midnightblue" points="233.357,-200.694 233.408,-211.288 239.975,-202.974 233.357,-200.694"/>
</g>
<!-- Node7 -->
<g id="node7" class="node"><title>Node7</title>
<g id="a_node7"><a xlink:href="../../da/d67/classIG_1_1Lib_1_1WaitCondition.html" target="_top" xlink:title="Provides a framework for blocking execution until the specified condition becomes satisfied....">
<polygon fill="white" stroke="black" points="150.5,-135.5 150.5,-154.5 227.5,-154.5 227.5,-135.5 150.5,-135.5"/>
<text text-anchor="middle" x="189" y="-142.5" font-family="Helvetica,sans-Serif" font-size="10.00">WaitCondition</text>
</a>
</g>
</g>
<!-- Node2&#45;&gt;Node7 -->
<g id="edge11" class="edge"><title>Node2&#45;&gt;Node7</title>
<path fill="none" stroke="midnightblue" d="M220.233,-202.372C211.92,-187.368 200.328,-166.445 193.858,-154.768"/>
<polygon fill="midnightblue" stroke="midnightblue" points="217.228,-204.17 225.136,-211.221 223.351,-200.777 217.228,-204.17"/>
</g>
<!-- Node3 -->
<g id="node3" class="node"><title>Node3</title>
<g id="a_node3"><a xlink:href="../../de/d1e/interfaceIG_1_1Lib_1_1IWaitCondition.html" target="_top" xlink:title="Interface for classes that implement blocking until a specified condition is met.">
<polygon fill="white" stroke="black" points="112,-268.5 112,-287.5 192,-287.5 192,-268.5 112,-268.5"/>
<text text-anchor="middle" x="152" y="-275.5" font-family="Helvetica,sans-Serif" font-size="10.00">IWaitCondition</text>
</a>
</g>
</g>
<!-- Node3&#45;&gt;Node2 -->
<g id="edge2" class="edge"><title>Node3&#45;&gt;Node2</title>
<path fill="none" stroke="midnightblue" d="M172.511,-262.537C186.953,-252.354 205.795,-239.068 217.898,-230.533"/>
<polygon fill="midnightblue" stroke="midnightblue" points="170.343,-259.783 164.188,-268.406 174.377,-265.504 170.343,-259.783"/>
</g>
<!-- Node5 -->
<g id="node5" class="node"><title>Node5</title>
<g id="a_node5"><a xlink:href="../../d2/d48/interfaceIG_1_1Lib_1_1IWaitFileEvent.html" target="_top" xlink:title="Interface for classes that provide waiting for specific file events (such as ceration or deletion of ...">
<polygon fill="white" stroke="black" points="17.5,-173.5 17.5,-192.5 96.5,-192.5 96.5,-173.5 17.5,-173.5"/>
<text text-anchor="middle" x="57" y="-180.5" font-family="Helvetica,sans-Serif" font-size="10.00">IWaitFileEvent</text>
</a>
</g>
</g>
<!-- Node3&#45;&gt;Node5 -->
<g id="edge6" class="edge"><title>Node3&#45;&gt;Node5</title>
<path fill="none" stroke="midnightblue" d="M120.654,-264.032C113.399,-260.168 106.042,-255.475 100,-250 81.3523,-233.105 67.2968,-206.401 60.8656,-192.716"/>
<polygon fill="midnightblue" stroke="midnightblue" points="119.166,-267.201 129.684,-268.481 122.26,-260.922 119.166,-267.201"/>
</g>
<!-- Node6 -->
<g id="node6" class="node"><title>Node6</title>
<g id="a_node6"><a xlink:href="../../d4/d27/classIG_1_1Lib_1_1WaitFileEventLatenceBase.html" target="_top" xlink:title="Base class for classes that impelement methods that block until a file or directory is created or del...">
<polygon fill="white" stroke="black" points="66,-78.5 66,-97.5 228,-97.5 228,-78.5 66,-78.5"/>
<text text-anchor="middle" x="147" y="-85.5" font-family="Helvetica,sans-Serif" font-size="10.00">IG.Lib.WaitFileEventLatenceBase</text>
</a>
</g>
</g>
<!-- Node3&#45;&gt;Node6 -->
<g id="edge19" class="edge"><title>Node3&#45;&gt;Node6</title>
<path fill="none" stroke="midnightblue" d="M148.861,-258.346C144.68,-231.212 138.126,-179.26 141,-135 141.846,-121.98 144.024,-107.018 145.509,-97.7853"/>
<polygon fill="midnightblue" stroke="midnightblue" points="145.428,-259.044 150.473,-268.361 152.339,-257.932 145.428,-259.044"/>
</g>
<!-- Node3&#45;&gt;Node7 -->
<g id="edge12" class="edge"><title>Node3&#45;&gt;Node7</title>
<path fill="none" stroke="midnightblue" d="M157.233,-258.472C165.322,-229.833 180.551,-175.916 186.515,-154.799"/>
<polygon fill="midnightblue" stroke="midnightblue" points="153.778,-257.83 154.428,-268.405 160.514,-259.733 153.778,-257.83"/>
</g>
<!-- Node4 -->
<g id="node4" class="node"><title>Node4</title>
<g id="a_node4"><a xlink:href="../../d3/db6/interfaceIG_1_1Lib_1_1ILockable.html" target="_top" xlink:title="Lockable object, has a Lock property that returns object on which lock must be performed in order to ...">
<polygon fill="white" stroke="black" points="170,-368.5 170,-387.5 228,-387.5 228,-368.5 170,-368.5"/>
<text text-anchor="middle" x="199" y="-375.5" font-family="Helvetica,sans-Serif" font-size="10.00">ILockable</text>
</a>
</g>
</g>
<!-- Node4&#45;&gt;Node1 -->
<g id="edge8" class="edge"><title>Node4&#45;&gt;Node1</title>
<path fill="none" stroke="midnightblue" d="M159.334,-374.796C101.282,-369.191 0,-349.333 0,-279 0,-279 0,-279 0,-87 0,-61.6287 23.0977,-42.4935 43.3081,-30.6064"/>
<polygon fill="midnightblue" stroke="midnightblue" points="159.373,-378.313 169.637,-375.686 159.975,-371.339 159.373,-378.313"/>
</g>
<!-- Node4&#45;&gt;Node2 -->
<g id="edge4" class="edge"><title>Node4&#45;&gt;Node2</title>
<path fill="none" stroke="midnightblue" d="M202.74,-358.3C209.473,-324.636 223.385,-255.074 228.264,-230.681"/>
<polygon fill="midnightblue" stroke="midnightblue" points="199.285,-357.73 200.756,-368.222 206.149,-359.103 199.285,-357.73"/>
</g>
<!-- Node4&#45;&gt;Node3 -->
<g id="edge3" class="edge"><title>Node4&#45;&gt;Node3</title>
<path fill="none" stroke="midnightblue" d="M190.413,-359.095C180.242,-337.887 163.72,-303.436 156.094,-287.537"/>
<polygon fill="midnightblue" stroke="midnightblue" points="187.349,-360.8 194.829,-368.303 193.661,-357.773 187.349,-360.8"/>
</g>
<!-- Node4&#45;&gt;Node5 -->
<g id="edge7" class="edge"><title>Node4&#45;&gt;Node5</title>
<path fill="none" stroke="midnightblue" d="M177.501,-362.315C172.285,-358.482 166.824,-354.234 162,-350 111.134,-305.361 92.5088,-293.684 67,-231 61.7802,-218.173 59.1251,-202.219 57.9034,-192.587"/>
<polygon fill="midnightblue" stroke="midnightblue" points="175.718,-365.342 185.892,-368.296 179.781,-359.642 175.718,-365.342"/>
</g>
<!-- Node4&#45;&gt;Node7 -->
<g id="edge13" class="edge"><title>Node4&#45;&gt;Node7</title>
<path fill="none" stroke="midnightblue" d="M218.329,-361.743C252.926,-332.496 319.127,-266.515 289,-211 273.395,-182.245 238.961,-164.225 214.883,-154.642"/>
<polygon fill="midnightblue" stroke="midnightblue" points="215.788,-359.3 210.292,-368.358 220.237,-364.705 215.788,-359.3"/>
</g>
<!-- Node8 -->
<g id="node8" class="node"><title>Node8</title>
<g id="a_node8"><a xlink:href="../../de/de7/classIG_1_1Lib_1_1StopWatch1.html" target="_top" xlink:title="Timer for measuring execution times and other intervals of time elapsed between successive events....">
<polygon fill="white" stroke="black" points="336.5,-268.5 336.5,-287.5 435.5,-287.5 435.5,-268.5 336.5,-268.5"/>
<text text-anchor="middle" x="386" y="-275.5" font-family="Helvetica,sans-Serif" font-size="10.00">IG.Lib.StopWatch1</text>
</a>
</g>
</g>
<!-- Node4&#45;&gt;Node8 -->
<g id="edge15" class="edge"><title>Node4&#45;&gt;Node8</title>
<path fill="none" stroke="midnightblue" d="M238.162,-374.572C263.504,-371.567 296.418,-364.874 322,-350 349.258,-334.152 371.309,-302.718 380.867,-287.564"/>
<polygon fill="midnightblue" stroke="midnightblue" points="237.74,-371.097 228.157,-375.616 238.467,-378.06 237.74,-371.097"/>
</g>
<!-- Node5&#45;&gt;Node1 -->
<g id="edge5" class="edge"><title>Node5&#45;&gt;Node1</title>
<path fill="none" stroke="midnightblue" d="M55.5753,-163.263C54.3169,-142.37 53.2103,-107.618 57,-78 59.1003,-61.5851 64.2325,-43.292 68.1225,-30.9574"/>
<polygon fill="midnightblue" stroke="midnightblue" points="52.0889,-163.585 56.2598,-173.324 59.0728,-163.109 52.0889,-163.585"/>
</g>
<!-- Node5&#45;&gt;Node6 -->
<g id="edge18" class="edge"><title>Node5&#45;&gt;Node6</title>
<path fill="none" stroke="midnightblue" d="M65.6398,-164.114C73.209,-149.809 85.2869,-129.911 100,-116 107.932,-108.5 118.326,-102.254 127.322,-97.6641"/>
<polygon fill="midnightblue" stroke="midnightblue" points="62.3447,-162.874 60.9519,-173.377 68.5904,-166.035 62.3447,-162.874"/>
</g>
<!-- Node6&#45;&gt;Node1 -->
<g id="edge9" class="edge"><title>Node6&#45;&gt;Node1</title>
<path fill="none" stroke="#9a32cd" stroke-dasharray="5,2" d="M130.668,-71.4402C117.854,-59.2323 100.171,-42.3856 87.775,-30.5762"/>
<polygon fill="#9a32cd" stroke="#9a32cd" points="128.272,-73.9916 137.926,-78.3553 133.1,-68.9234 128.272,-73.9916"/>
<text text-anchor="middle" x="151.5" y="-52" font-family="Helvetica,sans-Serif" font-size="10.00"> _waiterLatence</text>
</g>
<!-- Node7&#45;&gt;Node6 -->
<g id="edge10" class="edge"><title>Node7&#45;&gt;Node6</title>
<path fill="none" stroke="midnightblue" d="M176.197,-127.234C168.758,-117.493 159.692,-105.62 153.655,-97.7149"/>
<polygon fill="midnightblue" stroke="midnightblue" points="173.587,-129.583 182.438,-135.406 179.15,-125.334 173.587,-129.583"/>
</g>
<!-- Node8&#45;&gt;Node7 -->
<g id="edge14" class="edge"><title>Node8&#45;&gt;Node7</title>
<path fill="none" stroke="#9a32cd" stroke-dasharray="5,2" d="M379.994,-258.804C371.191,-235.124 352.446,-194.266 322,-173 294.378,-153.707 256.116,-147.543 227.719,-145.86"/>
<polygon fill="#9a32cd" stroke="#9a32cd" points="376.728,-260.068 383.345,-268.343 383.333,-257.748 376.728,-260.068"/>
<text text-anchor="middle" x="382.5" y="-218.5" font-family="Helvetica,sans-Serif" font-size="10.00"> _timer</text>
</g>
<!-- Node9 -->
<g id="node9" class="node"><title>Node9</title>
<g id="a_node9"><a xlink:href="../../dc/d79/interfaceIG_1_1Lib_1_1IIdentifiable.html" target="_top" xlink:title="Classes whose instances have unique integer IDs.">
<polygon fill="white" stroke="black" points="423.5,-368.5 423.5,-387.5 488.5,-387.5 488.5,-368.5 423.5,-368.5"/>
<text text-anchor="middle" x="456" y="-375.5" font-family="Helvetica,sans-Serif" font-size="10.00">IIdentifiable</text>
</a>
</g>
</g>
<!-- Node9&#45;&gt;Node8 -->
<g id="edge16" class="edge"><title>Node9&#45;&gt;Node8</title>
<path fill="none" stroke="midnightblue" d="M456.701,-357.676C456.283,-342.206 453.39,-320.733 442,-306 435.531,-297.632 425.808,-291.714 416.271,-287.596"/>
<polygon fill="midnightblue" stroke="midnightblue" points="453.199,-358.103 456.638,-368.124 460.199,-358.146 453.199,-358.103"/>
</g>
<!-- Node10 -->
<g id="node10" class="node"><title>Node10</title>
<g id="a_node10"><a xlink:title=" ">
<polygon fill="white" stroke="#bfbfbf" points="360.5,-368.5 360.5,-387.5 401.5,-387.5 401.5,-368.5 360.5,-368.5"/>
<text text-anchor="middle" x="381" y="-375.5" font-family="Helvetica,sans-Serif" font-size="10.00">static</text>
</a>
</g>
</g>
<!-- Node10&#45;&gt;Node8 -->
<g id="edge17" class="edge"><title>Node10&#45;&gt;Node8</title>
<path fill="none" stroke="#9a32cd" stroke-dasharray="5,2" d="M380.585,-358.165C380.434,-343.837 380.575,-323.646 382,-306 382.488,-299.954 383.488,-293.204 384.366,-287.966"/>
<polygon fill="#9a32cd" stroke="#9a32cd" points="377.087,-358.297 380.75,-368.238 384.086,-358.182 377.087,-358.297"/>
<text text-anchor="middle" x="412" y="-342" font-family="Helvetica,sans-Serif" font-size="10.00"> lastId</text>
<text text-anchor="middle" x="412" y="-331" font-family="Helvetica,sans-Serif" font-size="10.00">_staticLock</text>
<text text-anchor="middle" x="412" y="-320" font-family="Helvetica,sans-Serif" font-size="10.00">numWarnCpu</text>
<text text-anchor="middle" x="412" y="-309" font-family="Helvetica,sans-Serif" font-size="10.00">MaxWarnCpu</text>
</g>
</g>
</svg>
