<?xml version="1.0" encoding="UTF-8" standalone="no"?>
<!DOCTYPE svg PUBLIC "-//W3C//DTD SVG 1.1//EN"
 "http://www.w3.org/Graphics/SVG/1.1/DTD/svg11.dtd">
<!-- Generated by graphviz version 2.38.0 (20140413.2041)
 -->
<!-- Title: IG.Lib.SerializerBase Pages: 1 -->
<svg width="136pt" height="196pt"
 viewBox="0.00 0.00 136.00 196.00" xmlns="http://www.w3.org/2000/svg" xmlns:xlink="http://www.w3.org/1999/xlink">
<g id="graph0" class="graph" transform="scale(1 1) rotate(0) translate(4 192)">
<title>IG.Lib.SerializerBase</title>
<polygon fill="white" stroke="none" points="-4,4 -4,-192 132,-192 132,4 -4,4"/>
<!-- Node1 -->
<g id="node1" class="node"><title>Node1</title>
<g id="a_node1"><a xlink:title="Base class for serialization helper classes.">
<polygon fill="#bfbfbf" stroke="black" points="10,-112.5 10,-131.5 118,-131.5 118,-112.5 10,-112.5"/>
<text text-anchor="middle" x="64" y="-119.5" font-family="Helvetica,sans-Serif" font-size="10.00">IG.Lib.SerializerBase</text>
</a>
</g>
</g>
<!-- Node3 -->
<g id="node3" class="node"><title>Node3</title>
<g id="a_node3"><a xlink:href="../../d0/d1a/classIG_1_1Lib_1_1SerializerJsonBase.html" target="_top" xlink:title="Helper class for JSON serialization and deserialization. This class does not enable formatting of the...">
<polygon fill="white" stroke="black" points="0,-56.5 0,-75.5 128,-75.5 128,-56.5 0,-56.5"/>
<text text-anchor="middle" x="64" y="-63.5" font-family="Helvetica,sans-Serif" font-size="10.00">IG.Lib.SerializerJsonBase</text>
</a>
</g>
</g>
<!-- Node1&#45;&gt;Node3 -->
<g id="edge2" class="edge"><title>Node1&#45;&gt;Node3</title>
<path fill="none" stroke="midnightblue" d="M64,-101.805C64,-92.9102 64,-82.7798 64,-75.7511"/>
<polygon fill="midnightblue" stroke="midnightblue" points="60.5001,-102.083 64,-112.083 67.5001,-102.083 60.5001,-102.083"/>
</g>
<!-- Node2 -->
<g id="node2" class="node"><title>Node2</title>
<g id="a_node2"><a xlink:href="../../d1/d02/interfaceIG_1_1Lib_1_1ISerializer.html" target="_top" xlink:title="Interface for helper classes that perform serialization/deserialization of objects.">
<polygon fill="white" stroke="black" points="34.5,-168.5 34.5,-187.5 93.5,-187.5 93.5,-168.5 34.5,-168.5"/>
<text text-anchor="middle" x="64" y="-175.5" font-family="Helvetica,sans-Serif" font-size="10.00">ISerializer</text>
</a>
</g>
</g>
<!-- Node2&#45;&gt;Node1 -->
<g id="edge1" class="edge"><title>Node2&#45;&gt;Node1</title>
<path fill="none" stroke="midnightblue" d="M64,-157.805C64,-148.91 64,-138.78 64,-131.751"/>
<polygon fill="midnightblue" stroke="midnightblue" points="60.5001,-158.083 64,-168.083 67.5001,-158.083 60.5001,-158.083"/>
</g>
<!-- Node4 -->
<g id="node4" class="node"><title>Node4</title>
<g id="a_node4"><a xlink:href="../../d4/d1f/classIG_1_1Lib_1_1SerializerJson.html" target="_top" xlink:title="Helper class for JSON serialization and deserialization. This class enables formatting of the generat...">
<polygon fill="white" stroke="black" points="11,-0.5 11,-19.5 117,-19.5 117,-0.5 11,-0.5"/>
<text text-anchor="middle" x="64" y="-7.5" font-family="Helvetica,sans-Serif" font-size="10.00">IG.Lib.SerializerJson</text>
</a>
</g>
</g>
<!-- Node3&#45;&gt;Node4 -->
<g id="edge3" class="edge"><title>Node3&#45;&gt;Node4</title>
<path fill="none" stroke="midnightblue" d="M64,-45.8045C64,-36.9102 64,-26.7798 64,-19.7511"/>
<polygon fill="midnightblue" stroke="midnightblue" points="60.5001,-46.083 64,-56.083 67.5001,-46.083 60.5001,-46.083"/>
</g>
</g>
</svg>
