<?xml version="1.0" encoding="UTF-8" standalone="no"?>
<!DOCTYPE svg PUBLIC "-//W3C//DTD SVG 1.1//EN"
 "http://www.w3.org/Graphics/SVG/1.1/DTD/svg11.dtd">
<!-- Generated by graphviz version 2.38.0 (20140413.2041)
 -->
<!-- Title: IG.Num.Func3d2dBase.ComponentFunction2 Pages: 1 -->
<svg width="346pt" height="263pt"
 viewBox="0.00 0.00 346.00 263.00" xmlns="http://www.w3.org/2000/svg" xmlns:xlink="http://www.w3.org/1999/xlink">
<g id="graph0" class="graph" transform="scale(1 1) rotate(0) translate(4 259)">
<title>IG.Num.Func3d2dBase.ComponentFunction2</title>
<polygon fill="white" stroke="none" points="-4,4 -4,-259 342,-259 342,4 -4,4"/>
<!-- Node1 -->
<g id="node1" class="node"><title>Node1</title>
<g id="a_node1"><a xlink:title="Class that represents a scalar function of 2 variables that is the first component of the specified 3...">
<polygon fill="#bfbfbf" stroke="black" points="100.5,-0.5 100.5,-30.5 270.5,-30.5 270.5,-0.5 100.5,-0.5"/>
<text text-anchor="start" x="108.5" y="-18.5" font-family="Helvetica,sans-Serif" font-size="10.00">IG.Num.Func3d2dBase.Component</text>
<text text-anchor="middle" x="185.5" y="-7.5" font-family="Helvetica,sans-Serif" font-size="10.00">Function2</text>
</a>
</g>
</g>
<!-- Node2 -->
<g id="node2" class="node"><title>Node2</title>
<g id="a_node2"><a xlink:href="../../df/d17/classIG_1_1Num_1_1Func3d2dBase_1_1ComponentFunctionBase.html" target="_top" xlink:title="Base function for component functions, provides internal variable for vector function.">
<polygon fill="white" stroke="black" points="122.5,-67.5 122.5,-86.5 248.5,-86.5 248.5,-67.5 122.5,-67.5"/>
<text text-anchor="middle" x="185.5" y="-74.5" font-family="Helvetica,sans-Serif" font-size="10.00">ComponentFunctionBase</text>
</a>
</g>
</g>
<!-- Node2&#45;&gt;Node1 -->
<g id="edge1" class="edge"><title>Node2&#45;&gt;Node1</title>
<path fill="none" stroke="midnightblue" d="M185.5,-57.2349C185.5,-48.5864 185.5,-38.4969 185.5,-30.523"/>
<polygon fill="midnightblue" stroke="midnightblue" points="182,-57.4751 185.5,-67.4751 189,-57.4751 182,-57.4751"/>
</g>
<!-- Node3 -->
<g id="node3" class="node"><title>Node3</title>
<g id="a_node3"><a xlink:href="../../da/d29/classIG_1_1Num_1_1Func2dBase.html" target="_top" xlink:title="Base class for scalar functions of 2 variables (base for implementation of IFunc2d interface).">
<polygon fill="white" stroke="black" points="150,-123.5 150,-142.5 221,-142.5 221,-123.5 150,-123.5"/>
<text text-anchor="middle" x="185.5" y="-130.5" font-family="Helvetica,sans-Serif" font-size="10.00">Func2dBase</text>
</a>
</g>
</g>
<!-- Node3&#45;&gt;Node2 -->
<g id="edge2" class="edge"><title>Node3&#45;&gt;Node2</title>
<path fill="none" stroke="midnightblue" d="M185.5,-112.805C185.5,-103.91 185.5,-93.7798 185.5,-86.7511"/>
<polygon fill="midnightblue" stroke="midnightblue" points="182,-113.083 185.5,-123.083 189,-113.083 182,-113.083"/>
</g>
<!-- Node4 -->
<g id="node4" class="node"><title>Node4</title>
<g id="a_node4"><a xlink:href="../../d2/d9e/classIG_1_1Num_1_1ScalarFunctionUntransformedBase.html" target="_top" xlink:title="Base class for defining scalar functions without possibility of affine transformation of parameters.">
<polygon fill="white" stroke="black" points="102,-179.5 102,-198.5 269,-198.5 269,-179.5 102,-179.5"/>
<text text-anchor="middle" x="185.5" y="-186.5" font-family="Helvetica,sans-Serif" font-size="10.00">ScalarFunctionUntransformedBase</text>
</a>
</g>
</g>
<!-- Node4&#45;&gt;Node3 -->
<g id="edge3" class="edge"><title>Node4&#45;&gt;Node3</title>
<path fill="none" stroke="midnightblue" d="M185.5,-168.805C185.5,-159.91 185.5,-149.78 185.5,-142.751"/>
<polygon fill="midnightblue" stroke="midnightblue" points="182,-169.083 185.5,-179.083 189,-169.083 182,-169.083"/>
</g>
<!-- Node5 -->
<g id="node5" class="node"><title>Node5</title>
<g id="a_node5"><a xlink:href="../../d8/d56/interfaceIG_1_1Num_1_1IScalarFunctionUntransformed.html" target="_top" xlink:title="Scalar functions of vector arguments.">
<polygon fill="white" stroke="black" points="0,-235.5 0,-254.5 147,-254.5 147,-235.5 0,-235.5"/>
<text text-anchor="middle" x="73.5" y="-242.5" font-family="Helvetica,sans-Serif" font-size="10.00">IScalarFunctionUntransformed</text>
</a>
</g>
</g>
<!-- Node5&#45;&gt;Node1 -->
<g id="edge8" class="edge"><title>Node5&#45;&gt;Node1</title>
<path fill="none" stroke="midnightblue" d="M73.0601,-225.159C73.1883,-190.487 77.9321,-115.679 113.5,-67 124.76,-51.59 142.19,-39.1887 157.08,-30.5319"/>
<polygon fill="midnightblue" stroke="midnightblue" points="69.5613,-225.316 73.1557,-235.282 76.561,-225.25 69.5613,-225.316"/>
</g>
<!-- Node5&#45;&gt;Node3 -->
<g id="edge6" class="edge"><title>Node5&#45;&gt;Node3</title>
<path fill="none" stroke="midnightblue" d="M74.9002,-225.331C76.8432,-211.188 81.474,-192.031 92.5,-179 107.909,-160.789 132.409,-149.354 152.395,-142.57"/>
<polygon fill="midnightblue" stroke="midnightblue" points="71.4079,-225.076 73.8474,-235.386 78.3699,-225.805 71.4079,-225.076"/>
</g>
<!-- Node5&#45;&gt;Node4 -->
<g id="edge4" class="edge"><title>Node5&#45;&gt;Node4</title>
<path fill="none" stroke="midnightblue" d="M100.749,-230.862C121.516,-220.849 149.523,-207.346 167.55,-198.655"/>
<polygon fill="midnightblue" stroke="midnightblue" points="98.9824,-227.828 91.4947,-235.324 102.023,-234.134 98.9824,-227.828"/>
</g>
<!-- Node6 -->
<g id="node6" class="node"><title>Node6</title>
<g id="a_node6"><a xlink:href="../../d8/d15/interfaceIG_1_1Num_1_1IFunc2d.html" target="_top" xlink:title="Represents scalar functions of 2 variables.">
<polygon fill="white" stroke="black" points="287,-179.5 287,-198.5 338,-198.5 338,-179.5 287,-179.5"/>
<text text-anchor="middle" x="312.5" y="-186.5" font-family="Helvetica,sans-Serif" font-size="10.00">IFunc2d</text>
</a>
</g>
</g>
<!-- Node6&#45;&gt;Node1 -->
<g id="edge7" class="edge"><title>Node6&#45;&gt;Node1</title>
<path fill="none" stroke="midnightblue" d="M307.451,-169.449C299.863,-144.151 283.564,-98.3953 257.5,-67 245.114,-52.0808 227.298,-39.5357 212.487,-30.6809"/>
<polygon fill="midnightblue" stroke="midnightblue" points="304.133,-170.574 310.251,-179.223 310.862,-168.646 304.133,-170.574"/>
</g>
<!-- Node6&#45;&gt;Node3 -->
<g id="edge5" class="edge"><title>Node6&#45;&gt;Node3</title>
<path fill="none" stroke="midnightblue" d="M283.109,-175.503C259.3,-165.38 226.394,-151.388 205.529,-142.516"/>
<polygon fill="midnightblue" stroke="midnightblue" points="281.804,-178.751 292.376,-179.444 284.543,-172.31 281.804,-178.751"/>
</g>
</g>
</svg>
