<?xml version="1.0" encoding="UTF-8" standalone="no"?>
<!DOCTYPE svg PUBLIC "-//W3C//DTD SVG 1.1//EN"
 "http://www.w3.org/Graphics/SVG/1.1/DTD/svg11.dtd">
<!-- Generated by graphviz version 2.38.0 (20140413.2041)
 -->
<!-- Title: IG.Num.SampledDataSetDto Pages: 1 -->
<svg width="397pt" height="263pt"
 viewBox="0.00 0.00 396.50 263.00" xmlns="http://www.w3.org/2000/svg" xmlns:xlink="http://www.w3.org/1999/xlink">
<g id="graph0" class="graph" transform="scale(1 1) rotate(0) translate(4 259)">
<title>IG.Num.SampledDataSetDto</title>
<polygon fill="white" stroke="none" points="-4,4 -4,-259 392.5,-259 392.5,4 -4,4"/>
<!-- Node1 -->
<g id="node1" class="node"><title>Node1</title>
<g id="a_node1"><a xlink:title="Data Transfer Object (DTO) for sampled data set.">
<polygon fill="#bfbfbf" stroke="black" points="44.5,-0.5 44.5,-19.5 185.5,-19.5 185.5,-0.5 44.5,-0.5"/>
<text text-anchor="middle" x="115" y="-7.5" font-family="Helvetica,sans-Serif" font-size="10.00">IG.Num.SampledDataSetDto</text>
</a>
</g>
</g>
<!-- Node2 -->
<g id="node2" class="node"><title>Node2</title>
<g id="a_node2"><a xlink:href="../../da/d46/classIG_1_1Lib_1_1SerializationDto.html" target="_top" xlink:title=" ">
<polygon fill="white" stroke="black" points="0,-67.5 0,-97.5 132,-97.5 132,-67.5 0,-67.5"/>
<text text-anchor="start" x="8" y="-85.5" font-family="Helvetica,sans-Serif" font-size="10.00">SerializationDto&lt; Sampled</text>
<text text-anchor="middle" x="66" y="-74.5" font-family="Helvetica,sans-Serif" font-size="10.00">DataSet &gt;</text>
</a>
</g>
</g>
<!-- Node2&#45;&gt;Node1 -->
<g id="edge1" class="edge"><title>Node2&#45;&gt;Node1</title>
<path fill="none" stroke="midnightblue" d="M81.6342,-59.006C90.8617,-45.7295 102.029,-29.6626 108.819,-19.8932"/>
<polygon fill="midnightblue" stroke="midnightblue" points="78.7492,-57.0243 75.9159,-67.2333 84.4972,-61.0194 78.7492,-57.0243"/>
</g>
<!-- Node3 -->
<g id="node3" class="node"><title>Node3</title>
<g id="a_node3"><a xlink:href="../../d5/d0e/classIG_1_1Num_1_1SampledDataElementDto.html" target="_top" xlink:title="DTO (data transfer object) for sampled data element (one point with vectors of input and output param...">
<polygon fill="white" stroke="black" points="150,-73 150,-92 312,-92 312,-73 150,-73"/>
<text text-anchor="middle" x="231" y="-80" font-family="Helvetica,sans-Serif" font-size="10.00">IG.Num.SampledDataElementDto</text>
</a>
</g>
</g>
<!-- Node3&#45;&gt;Node1 -->
<g id="edge2" class="edge"><title>Node3&#45;&gt;Node1</title>
<path fill="none" stroke="#9a32cd" stroke-dasharray="5,2" d="M208.168,-67.6234C184.754,-53.3937 149.058,-31.6989 129.34,-19.7154"/>
<polygon fill="#9a32cd" stroke="#9a32cd" points="206.413,-70.6526 216.776,-72.8553 210.048,-64.6707 206.413,-70.6526"/>
<text text-anchor="middle" x="200.5" y="-41" font-family="Helvetica,sans-Serif" font-size="10.00"> _elements</text>
</g>
<!-- Node4 -->
<g id="node4" class="node"><title>Node4</title>
<g id="a_node4"><a xlink:href="../../da/d46/classIG_1_1Lib_1_1SerializationDto.html" target="_top" xlink:title=" ">
<polygon fill="white" stroke="black" points="122,-156.5 122,-186.5 254,-186.5 254,-156.5 122,-156.5"/>
<text text-anchor="start" x="130" y="-174.5" font-family="Helvetica,sans-Serif" font-size="10.00">SerializationDto&lt; Sampled</text>
<text text-anchor="middle" x="188" y="-163.5" font-family="Helvetica,sans-Serif" font-size="10.00">DataElement &gt;</text>
</a>
</g>
</g>
<!-- Node4&#45;&gt;Node3 -->
<g id="edge3" class="edge"><title>Node4&#45;&gt;Node3</title>
<path fill="none" stroke="midnightblue" d="M199.705,-146.818C208.617,-128.786 220.385,-104.976 226.645,-92.3107"/>
<polygon fill="midnightblue" stroke="midnightblue" points="196.394,-145.618 195.101,-156.134 202.669,-148.72 196.394,-145.618"/>
</g>
<!-- Node5 -->
<g id="node5" class="node"><title>Node5</title>
<g id="a_node5"><a xlink:href="../../dc/dec/classIG_1_1Lib_1_1VectorDtoBase.html" target="_top" xlink:title="Base class for various vector DTO (Data Transfer Objects) for vectors. Used to store a state of a vec...">
<polygon fill="white" stroke="black" points="272.5,-156.5 272.5,-186.5 383.5,-186.5 383.5,-156.5 272.5,-156.5"/>
<text text-anchor="start" x="280.5" y="-174.5" font-family="Helvetica,sans-Serif" font-size="10.00">IG.Lib.VectorDtoBase</text>
<text text-anchor="middle" x="328" y="-163.5" font-family="Helvetica,sans-Serif" font-size="10.00">&lt; VectorType &gt;</text>
</a>
</g>
</g>
<!-- Node5&#45;&gt;Node3 -->
<g id="edge4" class="edge"><title>Node5&#45;&gt;Node3</title>
<path fill="none" stroke="#9a32cd" stroke-dasharray="5,2" d="M304.302,-149.245C283.813,-130.869 255.246,-105.246 240.558,-92.0725"/>
<polygon fill="#9a32cd" stroke="#9a32cd" points="302.201,-152.062 311.982,-156.134 306.875,-146.851 302.201,-152.062"/>
<text text-anchor="middle" x="329.5" y="-130" font-family="Helvetica,sans-Serif" font-size="10.00"> _outputValues</text>
<text text-anchor="middle" x="329.5" y="-119" font-family="Helvetica,sans-Serif" font-size="10.00">_inputParameters</text>
</g>
<!-- Node6 -->
<g id="node6" class="node"><title>Node6</title>
<g id="a_node6"><a xlink:href="../../d7/dd8/classIG_1_1Lib_1_1SerializationDtoBase.html" target="_top" xlink:title=" ">
<polygon fill="white" stroke="black" points="267.5,-224.5 267.5,-254.5 388.5,-254.5 388.5,-224.5 267.5,-224.5"/>
<text text-anchor="start" x="275.5" y="-242.5" font-family="Helvetica,sans-Serif" font-size="10.00">SerializationDtoBase</text>
<text text-anchor="middle" x="328" y="-231.5" font-family="Helvetica,sans-Serif" font-size="10.00">&lt; VectorType, IVector &gt;</text>
</a>
</g>
</g>
<!-- Node6&#45;&gt;Node5 -->
<g id="edge5" class="edge"><title>Node6&#45;&gt;Node5</title>
<path fill="none" stroke="midnightblue" d="M328,-214.032C328,-204.861 328,-194.745 328,-186.793"/>
<polygon fill="midnightblue" stroke="midnightblue" points="324.5,-214.179 328,-224.179 331.5,-214.179 324.5,-214.179"/>
</g>
</g>
</svg>
