<?xml version="1.0" encoding="UTF-8" standalone="no"?>
<!DOCTYPE svg PUBLIC "-//W3C//DTD SVG 1.1//EN"
 "http://www.w3.org/Graphics/SVG/1.1/DTD/svg11.dtd">
<!-- Generated by graphviz version 2.38.0 (20140413.2041)
 -->
<!-- Title: IG.Num.Func3d2dBaseNoHessian Pages: 1 -->
<svg width="323pt" height="288pt"
 viewBox="0.00 0.00 323.00 288.00" xmlns="http://www.w3.org/2000/svg" xmlns:xlink="http://www.w3.org/1999/xlink">
<g id="graph0" class="graph" transform="scale(1 1) rotate(0) translate(4 284)">
<title>IG.Num.Func3d2dBaseNoHessian</title>
<polygon fill="white" stroke="none" points="-4,4 -4,-284 319,-284 319,4 -4,4"/>
<!-- Node1 -->
<g id="node1" class="node"><title>Node1</title>
<g id="a_node1"><a xlink:title="Base class for 3D vector functions of 2 variables (implementations of the IFunc3d2d interface) that d...">
<polygon fill="#bfbfbf" stroke="black" points="0,-0.5 0,-19.5 165,-19.5 165,-0.5 0,-0.5"/>
<text text-anchor="middle" x="82.5" y="-7.5" font-family="Helvetica,sans-Serif" font-size="10.00">IG.Num.Func3d2dBaseNoHessian</text>
</a>
</g>
</g>
<!-- Node2 -->
<g id="node2" class="node"><title>Node2</title>
<g id="a_node2"><a xlink:href="../../df/d0e/classIG_1_1Num_1_1Func3d2dBase.html" target="_top" xlink:title="Base class for 3D vector functions of 2 variables (base for implementation of IFunc3d2d interface).">
<polygon fill="white" stroke="black" points="87.5,-57.5 87.5,-76.5 169.5,-76.5 169.5,-57.5 87.5,-57.5"/>
<text text-anchor="middle" x="128.5" y="-64.5" font-family="Helvetica,sans-Serif" font-size="10.00">Func3d2dBase</text>
</a>
</g>
</g>
<!-- Node2&#45;&gt;Node1 -->
<g id="edge1" class="edge"><title>Node2&#45;&gt;Node1</title>
<path fill="none" stroke="midnightblue" d="M114.727,-49.532C106.534,-39.7359 96.4682,-27.701 89.7888,-19.7149"/>
<polygon fill="midnightblue" stroke="midnightblue" points="112.212,-51.9809 121.313,-57.4063 117.582,-47.49 112.212,-51.9809"/>
</g>
<!-- Node3 -->
<g id="node3" class="node"><title>Node3</title>
<g id="a_node3"><a xlink:href="../../d3/d6f/interfaceIG_1_1Num_1_1IFunc3d2d.html" target="_top" xlink:title="Represents 3D vector functions of 2 variables.">
<polygon fill="white" stroke="black" points="28.5,-146.5 28.5,-165.5 90.5,-165.5 90.5,-146.5 28.5,-146.5"/>
<text text-anchor="middle" x="59.5" y="-153.5" font-family="Helvetica,sans-Serif" font-size="10.00">IFunc3d2d</text>
</a>
</g>
</g>
<!-- Node3&#45;&gt;Node1 -->
<g id="edge8" class="edge"><title>Node3&#45;&gt;Node1</title>
<path fill="none" stroke="midnightblue" d="M62.4741,-136.38C67.4915,-104.966 77.4482,-42.6284 81.1082,-19.7137"/>
<polygon fill="midnightblue" stroke="midnightblue" points="58.991,-135.996 60.8699,-146.423 65.9034,-137.101 58.991,-135.996"/>
</g>
<!-- Node3&#45;&gt;Node2 -->
<g id="edge2" class="edge"><title>Node3&#45;&gt;Node2</title>
<path fill="none" stroke="midnightblue" d="M72.7885,-138.245C87.4018,-119.819 110.312,-90.9322 121.66,-76.6249"/>
<polygon fill="midnightblue" stroke="midnightblue" points="69.84,-136.33 66.3682,-146.34 75.3245,-140.68 69.84,-136.33"/>
</g>
<!-- Node4 -->
<g id="node4" class="node"><title>Node4</title>
<g id="a_node4"><a xlink:href="../../da/d29/classIG_1_1Num_1_1Func2dBase.html" target="_top" xlink:title="Base class for scalar functions of 2 variables (base for implementation of IFunc2d interface).">
<polygon fill="white" stroke="black" points="109,-146.5 109,-165.5 216,-165.5 216,-146.5 109,-146.5"/>
<text text-anchor="middle" x="162.5" y="-153.5" font-family="Helvetica,sans-Serif" font-size="10.00">IG.Num.Func2dBase</text>
</a>
</g>
</g>
<!-- Node4&#45;&gt;Node2 -->
<g id="edge3" class="edge"><title>Node4&#45;&gt;Node2</title>
<path fill="none" stroke="#9a32cd" stroke-dasharray="5,2" d="M155.455,-136.973C148.241,-118.514 137.335,-90.6071 131.871,-76.6249"/>
<polygon fill="#9a32cd" stroke="#9a32cd" points="152.216,-138.3 159.116,-146.34 158.736,-135.752 152.216,-138.3"/>
<text text-anchor="middle" x="171.5" y="-120" font-family="Helvetica,sans-Serif" font-size="10.00"> _comp1</text>
<text text-anchor="middle" x="171.5" y="-109" font-family="Helvetica,sans-Serif" font-size="10.00">_comp2</text>
<text text-anchor="middle" x="171.5" y="-98" font-family="Helvetica,sans-Serif" font-size="10.00">_comp3</text>
</g>
<!-- Node5 -->
<g id="node5" class="node"><title>Node5</title>
<g id="a_node5"><a xlink:href="../../d2/d9e/classIG_1_1Num_1_1ScalarFunctionUntransformedBase.html" target="_top" xlink:title="Base class for defining scalar functions without possibility of affine transformation of parameters.">
<polygon fill="white" stroke="black" points="79,-203.5 79,-222.5 246,-222.5 246,-203.5 79,-203.5"/>
<text text-anchor="middle" x="162.5" y="-210.5" font-family="Helvetica,sans-Serif" font-size="10.00">ScalarFunctionUntransformedBase</text>
</a>
</g>
</g>
<!-- Node5&#45;&gt;Node4 -->
<g id="edge4" class="edge"><title>Node5&#45;&gt;Node4</title>
<path fill="none" stroke="midnightblue" d="M162.5,-193.117C162.5,-183.817 162.5,-173.056 162.5,-165.715"/>
<polygon fill="midnightblue" stroke="midnightblue" points="159,-193.406 162.5,-203.406 166,-193.406 159,-193.406"/>
</g>
<!-- Node6 -->
<g id="node6" class="node"><title>Node6</title>
<g id="a_node6"><a xlink:href="../../d8/d56/interfaceIG_1_1Num_1_1IScalarFunctionUntransformed.html" target="_top" xlink:title="Scalar functions of vector arguments.">
<polygon fill="white" stroke="black" points="11,-260.5 11,-279.5 158,-279.5 158,-260.5 11,-260.5"/>
<text text-anchor="middle" x="84.5" y="-267.5" font-family="Helvetica,sans-Serif" font-size="10.00">IScalarFunctionUntransformed</text>
</a>
</g>
</g>
<!-- Node6&#45;&gt;Node4 -->
<g id="edge7" class="edge"><title>Node6&#45;&gt;Node4</title>
<path fill="none" stroke="midnightblue" d="M73.6232,-251.118C66.6392,-237.112 60.4212,-217.619 69.5,-203 81.4737,-183.719 104.19,-172.274 124.173,-165.623"/>
<polygon fill="midnightblue" stroke="midnightblue" points="70.739,-253.135 78.6363,-260.198 76.8672,-249.752 70.739,-253.135"/>
</g>
<!-- Node6&#45;&gt;Node5 -->
<g id="edge5" class="edge"><title>Node6&#45;&gt;Node5</title>
<path fill="none" stroke="midnightblue" d="M105.011,-254.537C119.453,-244.354 138.295,-231.068 150.398,-222.533"/>
<polygon fill="midnightblue" stroke="midnightblue" points="102.843,-251.783 96.6875,-260.406 106.877,-257.504 102.843,-251.783"/>
</g>
<!-- Node7 -->
<g id="node7" class="node"><title>Node7</title>
<g id="a_node7"><a xlink:href="../../d8/d15/interfaceIG_1_1Num_1_1IFunc2d.html" target="_top" xlink:title="Represents scalar functions of 2 variables.">
<polygon fill="white" stroke="black" points="264,-203.5 264,-222.5 315,-222.5 315,-203.5 264,-203.5"/>
<text text-anchor="middle" x="289.5" y="-210.5" font-family="Helvetica,sans-Serif" font-size="10.00">IFunc2d</text>
</a>
</g>
</g>
<!-- Node7&#45;&gt;Node4 -->
<g id="edge6" class="edge"><title>Node7&#45;&gt;Node4</title>
<path fill="none" stroke="midnightblue" d="M260.344,-199.374C236.394,-189.001 203.12,-174.591 182.204,-165.533"/>
<polygon fill="midnightblue" stroke="midnightblue" points="259.089,-202.644 269.656,-203.406 261.871,-196.22 259.089,-202.644"/>
</g>
</g>
</svg>
