<?xml version="1.0" encoding="UTF-8" standalone="no"?>
<!DOCTYPE svg PUBLIC "-//W3C//DTD SVG 1.1//EN"
 "http://www.w3.org/Graphics/SVG/1.1/DTD/svg11.dtd">
<!-- Generated by graphviz version 2.38.0 (20140413.2041)
 -->
<!-- Title: IG.Gr.StructuredSurfaceMesh3D Pages: 1 -->
<svg width="207pt" height="209pt"
 viewBox="0.00 0.00 207.00 209.00" xmlns="http://www.w3.org/2000/svg" xmlns:xlink="http://www.w3.org/1999/xlink">
<g id="graph0" class="graph" transform="scale(1 1) rotate(0) translate(4 205)">
<title>IG.Gr.StructuredSurfaceMesh3D</title>
<polygon fill="white" stroke="none" points="-4,4 -4,-205 203,-205 203,4 -4,4"/>
<!-- Node1 -->
<g id="node1" class="node"><title>Node1</title>
<g id="a_node1"><a xlink:title=" ">
<polygon fill="#bfbfbf" stroke="black" points="31.5,-0.5 31.5,-19.5 188.5,-19.5 188.5,-0.5 31.5,-0.5"/>
<text text-anchor="middle" x="110" y="-7.5" font-family="Helvetica,sans-Serif" font-size="10.00">IG.Gr.StructuredSurfaceMesh3D</text>
</a>
</g>
</g>
<!-- Node2 -->
<g id="node2" class="node"><title>Node2</title>
<g id="a_node2"><a xlink:href="../../d9/d83/classIG_1_1Gr_1_1SurfceMesh3D.html" target="_top" xlink:title="Surface mesh in 3 dimensions.">
<polygon fill="white" stroke="black" points="0,-67.5 0,-86.5 80,-86.5 80,-67.5 0,-67.5"/>
<text text-anchor="middle" x="40" y="-74.5" font-family="Helvetica,sans-Serif" font-size="10.00">SurfceMesh3D</text>
</a>
</g>
</g>
<!-- Node2&#45;&gt;Node1 -->
<g id="edge1" class="edge"><title>Node2&#45;&gt;Node1</title>
<path fill="none" stroke="midnightblue" d="M56.847,-60.3564C70.6087,-47.5777 89.5476,-29.9915 100.709,-19.6273"/>
<polygon fill="midnightblue" stroke="midnightblue" points="54.3869,-57.8645 49.4405,-67.2338 59.1501,-62.9941 54.3869,-57.8645"/>
</g>
<!-- Node3 -->
<g id="node3" class="node"><title>Node3</title>
<g id="a_node3"><a xlink:href="../../d5/ddb/classIG_1_1Gr_1_1Mesh3D.html" target="_top" xlink:title=" ">
<polygon fill="white" stroke="black" points="13.5,-124.5 13.5,-143.5 66.5,-143.5 66.5,-124.5 13.5,-124.5"/>
<text text-anchor="middle" x="40" y="-131.5" font-family="Helvetica,sans-Serif" font-size="10.00">Mesh3D</text>
</a>
</g>
</g>
<!-- Node3&#45;&gt;Node2 -->
<g id="edge2" class="edge"><title>Node3&#45;&gt;Node2</title>
<path fill="none" stroke="midnightblue" d="M40,-114.117C40,-104.817 40,-94.0557 40,-86.7149"/>
<polygon fill="midnightblue" stroke="midnightblue" points="36.5001,-114.406 40,-124.406 43.5001,-114.406 36.5001,-114.406"/>
</g>
<!-- Node4 -->
<g id="node4" class="node"><title>Node4</title>
<g id="a_node4"><a xlink:href="../../dd/d6e/classIG_1_1Gr_1_1Mesh.html" target="_top" xlink:title="Base class for all mesh classes.">
<polygon fill="white" stroke="black" points="19.5,-181.5 19.5,-200.5 60.5,-200.5 60.5,-181.5 19.5,-181.5"/>
<text text-anchor="middle" x="40" y="-188.5" font-family="Helvetica,sans-Serif" font-size="10.00">Mesh</text>
</a>
</g>
</g>
<!-- Node4&#45;&gt;Node3 -->
<g id="edge3" class="edge"><title>Node4&#45;&gt;Node3</title>
<path fill="none" stroke="midnightblue" d="M40,-171.117C40,-161.817 40,-151.056 40,-143.715"/>
<polygon fill="midnightblue" stroke="midnightblue" points="36.5001,-171.406 40,-181.406 43.5001,-171.406 36.5001,-171.406"/>
</g>
<!-- Node5 -->
<g id="node5" class="node"><title>Node5</title>
<g id="a_node5"><a xlink:href="../../df/d16/structIG_1_1Num_1_1vec3.html" target="_top" xlink:title="3D vector, struct implementation.">
<polygon fill="white" stroke="black" points="98,-67.5 98,-86.5 170,-86.5 170,-67.5 98,-67.5"/>
<text text-anchor="middle" x="134" y="-74.5" font-family="Helvetica,sans-Serif" font-size="10.00">IG.Num.vec3</text>
</a>
</g>
</g>
<!-- Node5&#45;&gt;Node1 -->
<g id="edge4" class="edge"><title>Node5&#45;&gt;Node1</title>
<path fill="none" stroke="#9a32cd" stroke-dasharray="5,2" d="M127.276,-57.79C122.667,-45.3076 116.762,-29.3135 113.185,-19.6273"/>
<polygon fill="#9a32cd" stroke="#9a32cd" points="124.016,-59.0652 130.763,-67.2338 130.583,-56.6405 124.016,-59.0652"/>
<text text-anchor="middle" x="161" y="-41" font-family="Helvetica,sans-Serif" font-size="10.00"> _gridCoordinates</text>
</g>
</g>
</svg>
