<?xml version="1.0" encoding="UTF-8" standalone="no"?>
<!DOCTYPE svg PUBLIC "-//W3C//DTD SVG 1.1//EN"
 "http://www.w3.org/Graphics/SVG/1.1/DTD/svg11.dtd">
<!-- Generated by graphviz version 2.38.0 (20140413.2041)
 -->
<!-- Title: IG.Lib.Copy.ClientStreamBase Pages: 1 -->
<svg width="425pt" height="332pt"
 viewBox="0.00 0.00 424.50 332.00" xmlns="http://www.w3.org/2000/svg" xmlns:xlink="http://www.w3.org/1999/xlink">
<g id="graph0" class="graph" transform="scale(1 1) rotate(0) translate(4 328)">
<title>IG.Lib.Copy.ClientStreamBase</title>
<polygon fill="white" stroke="none" points="-4,4 -4,-328 420.5,-328 420.5,4 -4,4"/>
<!-- Node1 -->
<g id="node1" class="node"><title>Node1</title>
<g id="a_node1"><a xlink:title="Client to the pipe server (classes derived from ClientServerStreamBase2).">
<polygon fill="#bfbfbf" stroke="black" points="0,-0.5 0,-19.5 149,-19.5 149,-0.5 0,-0.5"/>
<text text-anchor="middle" x="74.5" y="-7.5" font-family="Helvetica,sans-Serif" font-size="10.00">IG.Lib.Copy.ClientStreamBase</text>
</a>
</g>
</g>
<!-- Node2 -->
<g id="node2" class="node"><title>Node2</title>
<g id="a_node2"><a xlink:href="../../db/d41/classIG_1_1Lib_1_1Copy_1_1ClientServerStreamBase2.html" target="_top" xlink:title="Base class for named pipe servers and clients, contains common stuff for both.">
<polygon fill="white" stroke="black" points="86.5,-57.5 86.5,-76.5 214.5,-76.5 214.5,-57.5 86.5,-57.5"/>
<text text-anchor="middle" x="150.5" y="-64.5" font-family="Helvetica,sans-Serif" font-size="10.00">ClientServerStreamBase2</text>
</a>
</g>
</g>
<!-- Node2&#45;&gt;Node1 -->
<g id="edge1" class="edge"><title>Node2&#45;&gt;Node1</title>
<path fill="none" stroke="midnightblue" d="M130.169,-51.287C116.244,-41.2095 98.2466,-28.1851 86.5424,-19.7149"/>
<polygon fill="midnightblue" stroke="midnightblue" points="128.472,-54.3789 138.625,-57.4063 132.576,-48.7081 128.472,-54.3789"/>
</g>
<!-- Node3 -->
<g id="node3" class="node"><title>Node3</title>
<g id="a_node3"><a xlink:href="../../d5/d2f/classIG_1_1Lib_1_1Copy_1_1ClienServerStreamBase.html" target="_top" xlink:title="Base class for client and server classes with stream&#45;based communication.">
<polygon fill="white" stroke="black" points="108,-154 108,-173 227,-173 227,-154 108,-154"/>
<text text-anchor="middle" x="167.5" y="-161" font-family="Helvetica,sans-Serif" font-size="10.00">ClienServerStreamBase</text>
</a>
</g>
</g>
<!-- Node3&#45;&gt;Node2 -->
<g id="edge2" class="edge"><title>Node3&#45;&gt;Node2</title>
<path fill="none" stroke="midnightblue" d="M164.141,-143.825C160.484,-123.499 154.795,-91.8744 152.065,-76.6999"/>
<polygon fill="midnightblue" stroke="midnightblue" points="160.716,-144.557 165.931,-153.779 167.605,-143.317 160.716,-144.557"/>
</g>
<!-- Node4 -->
<g id="node4" class="node"><title>Node4</title>
<g id="a_node4"><a xlink:href="../../d3/db6/interfaceIG_1_1Lib_1_1ILockable.html" target="_top" xlink:title="Lockable object, has a Lock property that returns object on which lock must be performed in order to ...">
<polygon fill="white" stroke="black" points="50.5,-304.5 50.5,-323.5 108.5,-323.5 108.5,-304.5 50.5,-304.5"/>
<text text-anchor="middle" x="79.5" y="-311.5" font-family="Helvetica,sans-Serif" font-size="10.00">ILockable</text>
</a>
</g>
</g>
<!-- Node4&#45;&gt;Node1 -->
<g id="edge7" class="edge"><title>Node4&#45;&gt;Node1</title>
<path fill="none" stroke="midnightblue" d="M72.5004,-294.606C71.6721,-291.762 70.9591,-288.829 70.5,-286 66.5844,-261.871 70.3955,-255.444 70.5,-231 70.7222,-178.999 70.5207,-165.993 71.5,-114 72.1603,-78.9427 73.5681,-37.1902 74.1917,-19.5445"/>
<polygon fill="midnightblue" stroke="midnightblue" points="69.2242,-295.843 75.7598,-304.182 75.8508,-293.588 69.2242,-295.843"/>
</g>
<!-- Node4&#45;&gt;Node2 -->
<g id="edge5" class="edge"><title>Node4&#45;&gt;Node2</title>
<path fill="none" stroke="midnightblue" d="M76.929,-294.197C72.7939,-257.349 67.9549,-174.003 98.5,-114 106.811,-97.673 123.585,-84.5175 135.842,-76.5233"/>
<polygon fill="midnightblue" stroke="midnightblue" points="73.4951,-294.947 78.2011,-304.439 80.4417,-294.084 73.4951,-294.947"/>
</g>
<!-- Node4&#45;&gt;Node3 -->
<g id="edge3" class="edge"><title>Node4&#45;&gt;Node3</title>
<path fill="none" stroke="midnightblue" d="M89.9142,-295.426C108.869,-263.44 148.343,-196.827 162.396,-173.112"/>
<polygon fill="midnightblue" stroke="midnightblue" points="86.8283,-293.768 84.7413,-304.155 92.8504,-297.337 86.8283,-293.768"/>
</g>
<!-- Node5 -->
<g id="node5" class="node"><title>Node5</title>
<g id="a_node5"><a xlink:title=" ">
<polygon fill="white" stroke="#bfbfbf" points="137,-304.5 137,-323.5 178,-323.5 178,-304.5 137,-304.5"/>
<text text-anchor="middle" x="157.5" y="-311.5" font-family="Helvetica,sans-Serif" font-size="10.00">static</text>
</a>
</g>
</g>
<!-- Node5&#45;&gt;Node2 -->
<g id="edge6" class="edge"><title>Node5&#45;&gt;Node2</title>
<path fill="none" stroke="#9a32cd" stroke-dasharray="5,2" d="M188.43,-311.187C223.874,-308.387 278.728,-301.602 291.5,-286 332.627,-235.76 247.273,-126.373 235.5,-114 218.728,-96.3745 193.686,-83.9578 175.124,-76.5039"/>
<polygon fill="#9a32cd" stroke="#9a32cd" points="187.842,-307.72 178.121,-311.933 188.348,-314.702 187.842,-307.72"/>
<text text-anchor="middle" x="356" y="-205" font-family="Helvetica,sans-Serif" font-size="10.00"> _defaultResponseEnd</text>
<text text-anchor="middle" x="356" y="-194" font-family="Helvetica,sans-Serif" font-size="10.00">_defaultStopRequest</text>
<text text-anchor="middle" x="356" y="-183" font-family="Helvetica,sans-Serif" font-size="10.00">_defaultPipeName</text>
<text text-anchor="middle" x="356" y="-172" font-family="Helvetica,sans-Serif" font-size="10.00">_defaultStoppedResponse</text>
<text text-anchor="middle" x="356" y="-161" font-family="Helvetica,sans-Serif" font-size="10.00">_defaultRequestEnd</text>
<text text-anchor="middle" x="356" y="-150" font-family="Helvetica,sans-Serif" font-size="10.00">_defaultIsMultilineResponse</text>
<text text-anchor="middle" x="356" y="-139" font-family="Helvetica,sans-Serif" font-size="10.00">_defaultIsMultilineRequest</text>
<text text-anchor="middle" x="356" y="-128" font-family="Helvetica,sans-Serif" font-size="10.00">_defaultErrorBegin</text>
<text text-anchor="middle" x="356" y="-117" font-family="Helvetica,sans-Serif" font-size="10.00">_defaultGenericResponse</text>
</g>
<!-- Node5&#45;&gt;Node3 -->
<g id="edge4" class="edge"><title>Node5&#45;&gt;Node3</title>
<path fill="none" stroke="#9a32cd" stroke-dasharray="5,2" d="M152.773,-294.205C152.246,-291.469 151.793,-288.673 151.5,-286 148.833,-261.702 148.621,-255.274 151.5,-231 153.99,-210.01 160.752,-186.059 164.642,-173.413"/>
<polygon fill="#9a32cd" stroke="#9a32cd" points="149.387,-295.099 155.003,-304.082 156.215,-293.557 149.387,-295.099"/>
<text text-anchor="middle" x="221.5" y="-278" font-family="Helvetica,sans-Serif" font-size="10.00"> _defaultMessagePrefix</text>
<text text-anchor="middle" x="221.5" y="-267" font-family="Helvetica,sans-Serif" font-size="10.00">_defaultMessageSeparator</text>
<text text-anchor="middle" x="221.5" y="-256" font-family="Helvetica,sans-Serif" font-size="10.00">_defaultMessageFalseSeparator</text>
<text text-anchor="middle" x="221.5" y="-245" font-family="Helvetica,sans-Serif" font-size="10.00">_defatultOutputLevel</text>
<text text-anchor="middle" x="221.5" y="-234" font-family="Helvetica,sans-Serif" font-size="10.00">_lockGlobal</text>
</g>
</g>
</svg>
