<?xml version="1.0" encoding="UTF-8" standalone="no"?>
<!DOCTYPE svg PUBLIC "-//W3C//DTD SVG 1.1//EN"
 "http://www.w3.org/Graphics/SVG/1.1/DTD/svg11.dtd">
<!-- Generated by graphviz version 2.38.0 (20140413.2041)
 -->
<!-- Title: IG.Num.IFunc3d Pages: 1 -->
<!--zoomable 232 -->
<svg id="main" version="1.1" xmlns="http://www.w3.org/2000/svg" xmlns:xlink="http://www.w3.org/1999/xlink" xml:space="preserve" onload="init(evt)">
<style type="text/css"><![CDATA[
.edge:hover path { stroke: red; }
.edge:hover polygon { stroke: red; fill: red; }
]]></style>
<script type="text/javascript"><![CDATA[
var edges = document.getElementsByTagName('g');
if (edges && edges.length) {
  for (var i=0;i<edges.length;i++) {
    if (edges[i].id.substr(0,4)=='edge') {
      edges[i].setAttribute('class','edge');
    }
  }
}
]]></script>
        <defs>
                <circle id="rim" cx="0" cy="0" r="7"/>
                <circle id="rim2" cx="0" cy="0" r="3.5"/>
                <g id="zoomPlus">
                        <use xlink:href="#rim" fill="#404040">
                                <set attributeName="fill" to="#808080" begin="zoomplus.mouseover" end="zoomplus.mouseout"/>
                        </use>
                        <path d="M-4,0h8M0,-4v8" fill="none" stroke="white" stroke-width="1.5" pointer-events="none"/>
                </g>
                <g id="zoomMin">
                        <use xlink:href="#rim" fill="#404040">
                                <set attributeName="fill" to="#808080" begin="zoomminus.mouseover" end="zoomminus.mouseout"/>
                        </use>
                        <path d="M-4,0h8" fill="none" stroke="white" stroke-width="1.5" pointer-events="none"/>
                </g>
                <g id="dirArrow">
                        <path fill="none" stroke="white" stroke-width="1.5" d="M0,-3.0v7 M-2.5,-0.5L0,-3.0L2.5,-0.5"/>
                </g>
               <g id="resetDef">
                       <use xlink:href="#rim2" fill="#404040">
                               <set attributeName="fill" to="#808080" begin="reset.mouseover" end="reset.mouseout"/>
                       </use>
               </g>
        </defs>

<script type="text/javascript">
var viewWidth = 649;
var viewHeight = 232;
var sectionId = 'dynsection-0';
</script>
<script xlink:href="../../svgpan.js"/>
<svg id="graph" class="graph">
<g id="viewport">
<title>IG.Num.IFunc3d</title>
<polygon fill="white" stroke="none" points="-4,4 -4,-227.876 645,-227.876 645,4 -4,4"/>
<!-- Node1 -->
<g id="node1" class="node"><title>Node1</title>
<g id="a_node1"><a xlink:title="Represents scalar functions of 2 variables.">
<polygon fill="#bfbfbf" stroke="black" points="0,-110.336 0,-129.336 87,-129.336 87,-110.336 0,-110.336"/>
<text text-anchor="middle" x="43.5" y="-117.336" font-family="Helvetica,sans-Serif" font-size="10.00">IG.Num.IFunc3d</text>
</a>
</g>
</g>
<!-- Node2 -->
<g id="node2" class="node"><title>Node2</title>
<g id="a_node2"><a xlink:href="../../d4/d29/classIG_1_1Num_1_1Func3dBase.html" target="_top" xlink:title="Base class for scalar functions of 3 variables (base for implementation of IFunc3d interface).">
<polygon fill="white" stroke="black" points="123,-110.336 123,-129.336 230,-129.336 230,-110.336 123,-110.336"/>
<text text-anchor="middle" x="176.5" y="-117.336" font-family="Helvetica,sans-Serif" font-size="10.00">IG.Num.Func3dBase</text>
</a>
</g>
</g>
<!-- Node1&#45;&gt;Node2 -->
<g id="edge1" class="edge"><title>Node1&#45;&gt;Node2</title>
<path fill="none" stroke="midnightblue" d="M97.1046,-119.836C105.515,-119.836 114.22,-119.836 122.636,-119.836"/>
<polygon fill="midnightblue" stroke="midnightblue" points="97.032,-116.336 87.0319,-119.836 97.0319,-123.336 97.032,-116.336"/>
</g>
<!-- Node3 -->
<g id="node3" class="node"><title>Node3</title>
<g id="a_node3"><a xlink:href="../../de/d93/classIG_1_1Num_1_1Func3dBaseNoGradient.html" target="_top" xlink:title="Base class for scalar functions of 3 variables (implementations of the IFunc3d interface)....">
<polygon fill="white" stroke="black" points="267,-186.336 267,-205.336 423,-205.336 423,-186.336 267,-186.336"/>
<text text-anchor="middle" x="345" y="-193.336" font-family="Helvetica,sans-Serif" font-size="10.00">IG.Num.Func3dBaseNoGradient</text>
</a>
</g>
</g>
<!-- Node1&#45;&gt;Node3 -->
<g id="edge8" class="edge"><title>Node1&#45;&gt;Node3</title>
<path fill="none" stroke="midnightblue" d="M68.8606,-134.283C83.9731,-142.644 104.059,-152.696 123,-158.836 169.628,-173.952 223.893,-183.151 266.983,-188.596"/>
<polygon fill="midnightblue" stroke="midnightblue" points="70.5742,-131.231 60.1484,-129.346 67.1229,-137.321 70.5742,-131.231"/>
</g>
<!-- Node4 -->
<g id="node4" class="node"><title>Node4</title>
<g id="a_node4"><a xlink:href="../../d0/d67/classIG_1_1Num_1_1Func3dBaseNoHessian.html" target="_top" xlink:title="Base class for scalar functions of 3 variables (implementations of the IFunc3d interface)....">
<polygon fill="white" stroke="black" points="267.5,-148.336 267.5,-167.336 422.5,-167.336 422.5,-148.336 267.5,-148.336"/>
<text text-anchor="middle" x="345" y="-155.336" font-family="Helvetica,sans-Serif" font-size="10.00">IG.Num.Func3dBaseNoHessian</text>
</a>
</g>
</g>
<!-- Node1&#45;&gt;Node4 -->
<g id="edge9" class="edge"><title>Node1&#45;&gt;Node4</title>
<path fill="none" stroke="midnightblue" d="M88.933,-131.831C99.9954,-134.474 111.875,-137.022 123,-138.836 170.7,-146.613 224.744,-151.331 267.449,-154.12"/>
<polygon fill="midnightblue" stroke="midnightblue" points="89.5953,-128.39 79.0483,-129.396 87.9208,-135.186 89.5953,-128.39"/>
</g>
<!-- Node5 -->
<g id="node5" class="node"><title>Node5</title>
<g id="a_node5"><a xlink:href="../../db/dd6/classIG_1_1Num_1_1Func3dExamples_1_1Func3dXYZ.html" target="_top" xlink:title="Function f(x, y, z) = x * y * z.">
<polygon fill="white" stroke="black" points="460,-186.336 460,-205.336 641,-205.336 641,-186.336 460,-186.336"/>
<text text-anchor="middle" x="550.5" y="-193.336" font-family="Helvetica,sans-Serif" font-size="10.00">IG.Num.Func3dExamples.Func3dXYZ</text>
</a>
</g>
</g>
<!-- Node1&#45;&gt;Node5 -->
<g id="edge10" class="edge"><title>Node1&#45;&gt;Node5</title>
<path fill="none" stroke="midnightblue" d="M60.9539,-137.236C75.7977,-151.886 98.9385,-172.25 123,-183.836 251.643,-245.777 428.352,-221.246 507.818,-205.344"/>
<polygon fill="midnightblue" stroke="midnightblue" points="63.1185,-134.447 53.6077,-129.778 58.1314,-139.359 63.1185,-134.447"/>
</g>
<!-- Node6 -->
<g id="node6" class="node"><title>Node6</title>
<g id="a_node6"><a xlink:href="../../d9/d2a/classIG_1_1Num_1_1Func3dVectorFormBase.html" target="_top" xlink:title="Base class for scalar functions of 3 variables (base for implementation of IFunc3d interface).">
<polygon fill="white" stroke="black" points="266,-34.3358 266,-53.3358 424,-53.3358 424,-34.3358 266,-34.3358"/>
<text text-anchor="middle" x="345" y="-41.3358" font-family="Helvetica,sans-Serif" font-size="10.00">IG.Num.Func3dVectorFormBase</text>
</a>
</g>
</g>
<!-- Node1&#45;&gt;Node6 -->
<g id="edge13" class="edge"><title>Node1&#45;&gt;Node6</title>
<path fill="none" stroke="midnightblue" d="M63.2614,-103.639C78.344,-91.5989 100.636,-75.9135 123,-67.8358 168.554,-51.3816 222.557,-45.2924 265.777,-43.3599"/>
<polygon fill="midnightblue" stroke="midnightblue" points="60.7623,-101.163 55.2682,-110.222 65.2124,-106.567 60.7623,-101.163"/>
</g>
<!-- Node7 -->
<g id="node7" class="node"><title>Node7</title>
<g id="a_node7"><a xlink:href="../../d4/d33/classIG_1_1Num_1_1Func3dLinear.html" target="_top" xlink:title="Linear (Affine) function of 3 variables.">
<polygon fill="white" stroke="black" points="495,-53.3358 495,-72.3358 606,-72.3358 606,-53.3358 495,-53.3358"/>
<text text-anchor="middle" x="550.5" y="-60.3358" font-family="Helvetica,sans-Serif" font-size="10.00">IG.Num.Func3dLinear</text>
</a>
</g>
</g>
<!-- Node1&#45;&gt;Node7 -->
<g id="edge11" class="edge"><title>Node1&#45;&gt;Node7</title>
<path fill="none" stroke="midnightblue" d="M88.937,-107.865C99.9993,-105.222 111.877,-102.667 123,-100.836 255.582,-79.0087 413.56,-69.0604 494.978,-65.0978"/>
<polygon fill="midnightblue" stroke="midnightblue" points="87.9252,-104.509 79.0522,-110.299 89.599,-111.306 87.9252,-104.509"/>
</g>
<!-- Node8 -->
<g id="node8" class="node"><title>Node8</title>
<g id="a_node8"><a xlink:href="../../dc/dd8/classIG_1_1Num_1_1Func3dQuadratic.html" target="_top" xlink:title="Quadratic function of 3 variables.">
<polygon fill="white" stroke="black" points="487,-15.3358 487,-34.3358 614,-34.3358 614,-15.3358 487,-15.3358"/>
<text text-anchor="middle" x="550.5" y="-22.3358" font-family="Helvetica,sans-Serif" font-size="10.00">IG.Num.Func3dQuadratic</text>
</a>
</g>
</g>
<!-- Node1&#45;&gt;Node8 -->
<g id="edge12" class="edge"><title>Node1&#45;&gt;Node8</title>
<path fill="none" stroke="midnightblue" d="M56.8184,-101.925C70.6067,-83.4564 94.7565,-55.4882 123,-41.8358 249.431,19.2785 422.384,-0.769896 503.707,-15.3096"/>
<polygon fill="midnightblue" stroke="midnightblue" points="53.9169,-99.9644 50.9093,-110.123 59.5957,-104.057 53.9169,-99.9644"/>
</g>
<!-- Node2&#45;&gt;Node3 -->
<g id="edge2" class="edge"><title>Node2&#45;&gt;Node3</title>
<path fill="none" stroke="midnightblue" d="M197.541,-135.53C214.799,-148.339 240.831,-166.029 266,-176.836 274.837,-180.63 284.577,-183.759 294.09,-186.306"/>
<polygon fill="midnightblue" stroke="midnightblue" points="199.452,-132.586 189.367,-129.338 195.225,-138.166 199.452,-132.586"/>
</g>
<!-- Node2&#45;&gt;Node4 -->
<g id="edge3" class="edge"><title>Node2&#45;&gt;Node4</title>
<path fill="none" stroke="midnightblue" d="M229.309,-131.66C252.783,-137.017 280.165,-143.267 302.287,-148.316"/>
<polygon fill="midnightblue" stroke="midnightblue" points="230.043,-128.238 219.515,-129.425 228.485,-135.062 230.043,-128.238"/>
</g>
<!-- Node2&#45;&gt;Node6 -->
<g id="edge5" class="edge"><title>Node2&#45;&gt;Node6</title>
<path fill="none" stroke="midnightblue" d="M207.869,-105.974C241.262,-90.731 294.027,-66.6462 323.084,-53.3831"/>
<polygon fill="midnightblue" stroke="midnightblue" points="206.231,-102.874 198.587,-110.21 209.138,-109.242 206.231,-102.874"/>
</g>
<!-- Node4&#45;&gt;Node5 -->
<g id="edge4" class="edge"><title>Node4&#45;&gt;Node5</title>
<path fill="none" stroke="midnightblue" d="M407.147,-169.254C436.264,-174.691 470.688,-181.119 498.39,-186.292"/>
<polygon fill="midnightblue" stroke="midnightblue" points="407.562,-165.771 397.089,-167.376 406.277,-172.652 407.562,-165.771"/>
</g>
<!-- Node6&#45;&gt;Node7 -->
<g id="edge6" class="edge"><title>Node6&#45;&gt;Node7</title>
<path fill="none" stroke="midnightblue" d="M434.166,-52.0675C454.833,-53.9971 476.261,-55.9978 494.957,-57.7434"/>
<polygon fill="midnightblue" stroke="midnightblue" points="434.379,-48.5722 424.096,-51.1274 433.728,-55.5419 434.379,-48.5722"/>
</g>
<!-- Node6&#45;&gt;Node8 -->
<g id="edge7" class="edge"><title>Node6&#45;&gt;Node8</title>
<path fill="none" stroke="midnightblue" d="M434.398,-35.5824C452.029,-33.9363 470.204,-32.2393 486.757,-30.6939"/>
<polygon fill="midnightblue" stroke="midnightblue" points="433.728,-32.1297 424.096,-36.5442 434.379,-39.0994 433.728,-32.1297"/>
</g>
</g>
</svg>
        <g id="navigator" transform="translate(0 0)" fill="#404254">
                <rect fill="#f2f5e9" fill-opacity="0.5" stroke="#606060" stroke-width=".5" x="0" y="0" width="60" height="60"/>
                <use id="zoomplus" xlink:href="#zoomPlus" x="17" y="9" onmousedown="handleZoom(evt,'in')"/>
                <use id="zoomminus" xlink:href="#zoomMin" x="42" y="9" onmousedown="handleZoom(evt,'out')"/>
                <use id="reset" xlink:href="#resetDef" x="30" y="36" onmousedown="handleReset()"/>
                <g id="arrowUp" xlink:href="#dirArrow" transform="translate(30 24)" onmousedown="handlePan(0,-1)">
                  <use xlink:href="#rim" fill="#404040">
                        <set attributeName="fill" to="#808080" begin="arrowUp.mouseover" end="arrowUp.mouseout"/>
                  </use>
                  <path fill="none" stroke="white" stroke-width="1.5" d="M0,-3.0v7 M-2.5,-0.5L0,-3.0L2.5,-0.5"/>
                </g>
                <g id="arrowRight" xlink:href="#dirArrow" transform="rotate(90) translate(36 -43)" onmousedown="handlePan(1,0)">
                  <use xlink:href="#rim" fill="#404040">
                        <set attributeName="fill" to="#808080" begin="arrowRight.mouseover" end="arrowRight.mouseout"/>
                  </use>
                  <path fill="none" stroke="white" stroke-width="1.5" d="M0,-3.0v7 M-2.5,-0.5L0,-3.0L2.5,-0.5"/>
                </g>
                <g id="arrowDown" xlink:href="#dirArrow" transform="rotate(180) translate(-30 -48)" onmousedown="handlePan(0,1)">
                  <use xlink:href="#rim" fill="#404040">
                        <set attributeName="fill" to="#808080" begin="arrowDown.mouseover" end="arrowDown.mouseout"/>
                  </use>
                  <path fill="none" stroke="white" stroke-width="1.5" d="M0,-3.0v7 M-2.5,-0.5L0,-3.0L2.5,-0.5"/>
                </g>
                <g id="arrowLeft" xlink:href="#dirArrow" transform="rotate(270) translate(-36 17)" onmousedown="handlePan(-1,0)">
                  <use xlink:href="#rim" fill="#404040">
                        <set attributeName="fill" to="#808080" begin="arrowLeft.mouseover" end="arrowLeft.mouseout"/>
                  </use>
                  <path fill="none" stroke="white" stroke-width="1.5" d="M0,-3.0v7 M-2.5,-0.5L0,-3.0L2.5,-0.5"/>
                </g>
        </g>
        <svg viewBox="0 0 15 15" width="100%" height="30px" preserveAspectRatio="xMaxYMin meet">
         <g id="arrow_out" transform="scale(0.3 0.3)">
          <a xlink:href="interfaceIG_1_1Num_1_1IFunc3d__inherit__graph_org.svg" target="_base">
           <rect id="button" ry="5" rx="5" y="6" x="6" height="38" width="38"
                fill="#f2f5e9" fill-opacity="0.5" stroke="#606060" stroke-width="1.0"/>
           <path id="arrow"
             d="M 11.500037,31.436501 C 11.940474,20.09759 22.043105,11.32322 32.158766,21.979434 L 37.068811,17.246167 C 37.068811,17.246167 37.088388,32 37.088388,32 L 22.160133,31.978069 C 22.160133,31.978069 26.997745,27.140456 26.997745,27.140456 C 18.528582,18.264221 13.291696,25.230495 11.500037,31.436501 z"
             style="fill:#404040;"/>
          </a>
         </g>
        </svg>
</svg>
