<?xml version="1.0" encoding="UTF-8" standalone="no"?>
<!DOCTYPE svg PUBLIC "-//W3C//DTD SVG 1.1//EN"
 "http://www.w3.org/Graphics/SVG/1.1/DTD/svg11.dtd">
<!-- Generated by graphviz version 2.38.0 (20140413.2041)
 -->
<!-- Title: IG.Num.OptFileAnalysisClient Pages: 1 -->
<!--zoomable 275 -->
<svg id="main" version="1.1" xmlns="http://www.w3.org/2000/svg" xmlns:xlink="http://www.w3.org/1999/xlink" xml:space="preserve" onload="init(evt)">
<style type="text/css"><![CDATA[
.edge:hover path { stroke: red; }
.edge:hover polygon { stroke: red; fill: red; }
]]></style>
<script type="text/javascript"><![CDATA[
var edges = document.getElementsByTagName('g');
if (edges && edges.length) {
  for (var i=0;i<edges.length;i++) {
    if (edges[i].id.substr(0,4)=='edge') {
      edges[i].setAttribute('class','edge');
    }
  }
}
]]></script>
        <defs>
                <circle id="rim" cx="0" cy="0" r="7"/>
                <circle id="rim2" cx="0" cy="0" r="3.5"/>
                <g id="zoomPlus">
                        <use xlink:href="#rim" fill="#404040">
                                <set attributeName="fill" to="#808080" begin="zoomplus.mouseover" end="zoomplus.mouseout"/>
                        </use>
                        <path d="M-4,0h8M0,-4v8" fill="none" stroke="white" stroke-width="1.5" pointer-events="none"/>
                </g>
                <g id="zoomMin">
                        <use xlink:href="#rim" fill="#404040">
                                <set attributeName="fill" to="#808080" begin="zoomminus.mouseover" end="zoomminus.mouseout"/>
                        </use>
                        <path d="M-4,0h8" fill="none" stroke="white" stroke-width="1.5" pointer-events="none"/>
                </g>
                <g id="dirArrow">
                        <path fill="none" stroke="white" stroke-width="1.5" d="M0,-3.0v7 M-2.5,-0.5L0,-3.0L2.5,-0.5"/>
                </g>
               <g id="resetDef">
                       <use xlink:href="#rim2" fill="#404040">
                               <set attributeName="fill" to="#808080" begin="reset.mouseover" end="reset.mouseout"/>
                       </use>
               </g>
        </defs>

<script type="text/javascript">
var viewWidth = 856;
var viewHeight = 275;
var sectionId = 'dynsection-1';
</script>
<script xlink:href="../../svgpan.js"/>
<svg id="graph" class="graph">
<g id="viewport">
<title>IG.Num.OptFileAnalysisClient</title>
<polygon fill="white" stroke="none" points="-4,4 -4,-271 852,-271 852,4 -4,4"/>
<!-- Node1 -->
<g id="node1" class="node"><title>Node1</title>
<g id="a_node1"><a xlink:title="File analysis client. Passes direct analysis request to the server and gets analysis results from it.">
<polygon fill="#bfbfbf" stroke="black" points="702,-184.5 702,-203.5 848,-203.5 848,-184.5 702,-184.5"/>
<text text-anchor="middle" x="775" y="-191.5" font-family="Helvetica,sans-Serif" font-size="10.00">IG.Num.OptFileAnalysisClient</text>
</a>
</g>
</g>
<!-- Node2 -->
<g id="node2" class="node"><title>Node2</title>
<g id="a_node2"><a xlink:href="../../dd/d1e/classIG_1_1Num_1_1AnalysisBase.html" target="_top" xlink:title="Base class for direct analysis classes that define optimization problems. Represent the complete defi...">
<polygon fill="white" stroke="black" points="508.5,-222.5 508.5,-241.5 585.5,-241.5 585.5,-222.5 508.5,-222.5"/>
<text text-anchor="middle" x="547" y="-229.5" font-family="Helvetica,sans-Serif" font-size="10.00">AnalysisBase</text>
</a>
</g>
</g>
<!-- Node2&#45;&gt;Node1 -->
<g id="edge1" class="edge"><title>Node2&#45;&gt;Node1</title>
<path fill="none" stroke="midnightblue" d="M595.678,-223.983C631.171,-218.015 679.759,-209.846 717.254,-203.541"/>
<polygon fill="midnightblue" stroke="midnightblue" points="594.854,-220.573 585.573,-225.682 596.015,-227.476 594.854,-220.573"/>
</g>
<!-- Node3 -->
<g id="node3" class="node"><title>Node3</title>
<g id="a_node3"><a xlink:href="../../d5/d59/interfaceIG_1_1Num_1_1IAnalysis.html" target="_top" xlink:title="Interface for direct analysis classes used in optimization problems.">
<polygon fill="white" stroke="black" points="292.5,-247.5 292.5,-266.5 348.5,-266.5 348.5,-247.5 292.5,-247.5"/>
<text text-anchor="middle" x="320.5" y="-254.5" font-family="Helvetica,sans-Serif" font-size="10.00">IAnalysis</text>
</a>
</g>
</g>
<!-- Node3&#45;&gt;Node1 -->
<g id="edge4" class="edge"><title>Node3&#45;&gt;Node1</title>
<path fill="none" stroke="midnightblue" d="M358.799,-257.042C388.408,-257.004 430.858,-256.79 468,-256 530.248,-254.676 546.521,-260.842 608,-251 642.722,-245.442 650.691,-240.273 684,-229 707.026,-221.207 732.842,-211.014 750.899,-203.639"/>
<polygon fill="midnightblue" stroke="midnightblue" points="358.502,-253.542 348.504,-257.049 358.507,-260.542 358.502,-253.542"/>
</g>
<!-- Node3&#45;&gt;Node2 -->
<g id="edge2" class="edge"><title>Node3&#45;&gt;Node2</title>
<path fill="none" stroke="midnightblue" d="M358.534,-252.876C399.954,-248.263 466.682,-240.833 508.351,-236.193"/>
<polygon fill="midnightblue" stroke="midnightblue" points="358.131,-249.399 348.58,-253.984 358.906,-256.356 358.131,-249.399"/>
</g>
<!-- Node4 -->
<g id="node4" class="node"><title>Node4</title>
<g id="a_node4"><a xlink:href="../../d3/db6/interfaceIG_1_1Lib_1_1ILockable.html" target="_top" xlink:title="Lockable object, has a Lock property that returns object on which lock must be performed in order to ...">
<polygon fill="white" stroke="black" points="291.5,-184.5 291.5,-203.5 349.5,-203.5 349.5,-184.5 291.5,-184.5"/>
<text text-anchor="middle" x="320.5" y="-191.5" font-family="Helvetica,sans-Serif" font-size="10.00">ILockable</text>
</a>
</g>
</g>
<!-- Node4&#45;&gt;Node1 -->
<g id="edge5" class="edge"><title>Node4&#45;&gt;Node1</title>
<path fill="none" stroke="midnightblue" d="M359.822,-194C435.333,-194 604.441,-194 701.608,-194"/>
<polygon fill="midnightblue" stroke="midnightblue" points="359.806,-190.5 349.806,-194 359.806,-197.5 359.806,-190.5"/>
</g>
<!-- Node4&#45;&gt;Node2 -->
<g id="edge3" class="edge"><title>Node4&#45;&gt;Node2</title>
<path fill="none" stroke="midnightblue" d="M359.944,-200.507C401.492,-207.54 467.27,-218.674 508.461,-225.646"/>
<polygon fill="midnightblue" stroke="midnightblue" points="360.377,-197.031 349.933,-198.813 359.209,-203.933 360.377,-197.031"/>
</g>
<!-- Node9 -->
<g id="node9" class="node"><title>Node9</title>
<g id="a_node9"><a xlink:href="../../d2/d92/classIG_1_1Num_1_1OptFileManager.html" target="_top" xlink:title="Performs elementary operations for optimization and analysis servers and clients that exchange data a...">
<polygon fill="white" stroke="black" points="486,-133.5 486,-152.5 608,-152.5 608,-133.5 486,-133.5"/>
<text text-anchor="middle" x="547" y="-140.5" font-family="Helvetica,sans-Serif" font-size="10.00">IG.Num.OptFileManager</text>
</a>
</g>
</g>
<!-- Node4&#45;&gt;Node9 -->
<g id="edge11" class="edge"><title>Node4&#45;&gt;Node9</title>
<path fill="none" stroke="midnightblue" d="M359.859,-185.286C399.95,-176.178 462.667,-161.931 504.049,-152.53"/>
<polygon fill="midnightblue" stroke="midnightblue" points="358.909,-181.912 349.933,-187.541 360.46,-188.739 358.909,-181.912"/>
</g>
<!-- Node5 -->
<g id="node5" class="node"><title>Node5</title>
<g id="a_node5"><a xlink:href="../../d5/d4e/classIG_1_1Num_1_1AnalysisResults.html" target="_top" xlink:title="Single objective optimization analysis results. Used to transfer parameters input (e....">
<polygon fill="white" stroke="black" points="259,-45.5 259,-64.5 382,-64.5 382,-45.5 259,-45.5"/>
<text text-anchor="middle" x="320.5" y="-52.5" font-family="Helvetica,sans-Serif" font-size="10.00">IG.Num.AnalysisResults</text>
</a>
</g>
</g>
<!-- Node5&#45;&gt;Node1 -->
<g id="edge6" class="edge"><title>Node5&#45;&gt;Node1</title>
<path fill="none" stroke="#9a32cd" stroke-dasharray="5,2" d="M392.481,-63.4862C416.558,-66.8121 443.544,-71.0329 468,-76 531.071,-88.8098 547.681,-90.559 608,-113 664.503,-134.021 727.542,-167.851 757.045,-184.34"/>
<polygon fill="#9a32cd" stroke="#9a32cd" points="392.736,-59.9888 382.357,-62.116 391.797,-66.9256 392.736,-59.9888"/>
<text text-anchor="middle" x="547" y="-116" font-family="Helvetica,sans-Serif" font-size="10.00"> _analysisPoint</text>
</g>
<!-- Node5&#45;&gt;Node9 -->
<g id="edge12" class="edge"><title>Node5&#45;&gt;Node9</title>
<path fill="none" stroke="#9a32cd" stroke-dasharray="5,2" d="M363.876,-67.4367C393.446,-76.5345 433.614,-89.7362 468,-104 489.396,-112.876 513.079,-125.073 528.671,-133.451"/>
<polygon fill="#9a32cd" stroke="#9a32cd" points="364.864,-64.0789 354.278,-64.5131 362.824,-70.7751 364.864,-64.0789"/>
<text text-anchor="middle" x="434" y="-107" font-family="Helvetica,sans-Serif" font-size="10.00"> _anResults</text>
</g>
<!-- Node6 -->
<g id="node6" class="node"><title>Node6</title>
<g id="a_node6"><a xlink:href="../../d4/d34/interfaceIG_1_1Num_1_1IAnalysisResults.html" target="_top" xlink:title="Single objective optimization analysis results. Used to transfer parameters input (e....">
<polygon fill="white" stroke="black" points="25.5,-89.5 25.5,-108.5 114.5,-108.5 114.5,-89.5 25.5,-89.5"/>
<text text-anchor="middle" x="70" y="-96.5" font-family="Helvetica,sans-Serif" font-size="10.00">IAnalysisResults</text>
</a>
</g>
</g>
<!-- Node6&#45;&gt;Node5 -->
<g id="edge7" class="edge"><title>Node6&#45;&gt;Node5</title>
<path fill="none" stroke="midnightblue" d="M124.751,-90.1111C158.221,-84.5066 202.151,-77.0246 241,-70 250.558,-68.2718 260.758,-66.3672 270.534,-64.5119"/>
<polygon fill="midnightblue" stroke="midnightblue" points="124.003,-86.6874 114.716,-91.7876 125.156,-93.5917 124.003,-86.6874"/>
</g>
<!-- Node7 -->
<g id="node7" class="node"><title>Node7</title>
<g id="a_node7"><a xlink:href="../../d8/d86/interfaceIG_1_1Num_1_1IMatrix.html" target="_top" xlink:title="Generic Matrix interface.">
<polygon fill="white" stroke="black" points="0,-40 0,-70 140,-70 140,-40 0,-40"/>
<text text-anchor="start" x="8" y="-58" font-family="Helvetica,sans-Serif" font-size="10.00">IG.Num.IMatrix&lt; Component</text>
<text text-anchor="middle" x="70" y="-47" font-family="Helvetica,sans-Serif" font-size="10.00">Type &gt;</text>
</a>
</g>
</g>
<!-- Node7&#45;&gt;Node5 -->
<g id="edge8" class="edge"><title>Node7&#45;&gt;Node5</title>
<path fill="none" stroke="#9a32cd" stroke-dasharray="5,2" d="M150.433,-55C185.504,-55 226.076,-55 258.683,-55"/>
<polygon fill="#9a32cd" stroke="#9a32cd" points="150.221,-51.5001 140.221,-55 150.221,-58.5001 150.221,-51.5001"/>
<text text-anchor="middle" x="199.5" y="-58" font-family="Helvetica,sans-Serif" font-size="10.00"> _objectiveHessian</text>
</g>
<!-- Node8 -->
<g id="node8" class="node"><title>Node8</title>
<g id="a_node8"><a xlink:href="../../d3/d24/interfaceIG_1_1Num_1_1IVector.html" target="_top" xlink:title="Generic Vector interface">
<polygon fill="white" stroke="black" points="16.5,-0.5 16.5,-19.5 123.5,-19.5 123.5,-0.5 16.5,-0.5"/>
<text text-anchor="middle" x="70" y="-7.5" font-family="Helvetica,sans-Serif" font-size="10.00">IG.Num.IVector&lt; T &gt;</text>
</a>
</g>
</g>
<!-- Node8&#45;&gt;Node5 -->
<g id="edge9" class="edge"><title>Node8&#45;&gt;Node5</title>
<path fill="none" stroke="#9a32cd" stroke-dasharray="5,2" d="M133.75,-13.8718C166.056,-16.6551 205.922,-21.319 241,-29 259.512,-33.0536 279.804,-39.8396 295.119,-45.4624"/>
<polygon fill="#9a32cd" stroke="#9a32cd" points="133.795,-10.3638 123.542,-13.0328 133.221,-17.3403 133.795,-10.3638"/>
<text text-anchor="middle" x="199.5" y="-43" font-family="Helvetica,sans-Serif" font-size="10.00"> _objectiveGradient</text>
<text text-anchor="middle" x="199.5" y="-32" font-family="Helvetica,sans-Serif" font-size="10.00">_parameters</text>
</g>
<!-- Node9&#45;&gt;Node1 -->
<g id="edge10" class="edge"><title>Node9&#45;&gt;Node1</title>
<path fill="none" stroke="#9a32cd" stroke-dasharray="5,2" d="M613.56,-154.408C635.984,-158.608 661.165,-163.655 684,-169 703.422,-173.546 724.957,-179.495 742.091,-184.449"/>
<polygon fill="#9a32cd" stroke="#9a32cd" points="613.94,-150.919 603.47,-152.54 612.665,-157.802 613.94,-150.919"/>
<text text-anchor="middle" x="655" y="-172" font-family="Helvetica,sans-Serif" font-size="10.00"> _fileManager</text>
</g>
<!-- Node10 -->
<g id="node10" class="node"><title>Node10</title>
<g id="a_node10"><a xlink:href="../../d5/d59/interfaceIG_1_1Num_1_1IAnalysis.html" target="_top" xlink:title="Interface for direct analysis classes used in optimization problems.">
<polygon fill="white" stroke="black" points="274.5,-135.5 274.5,-154.5 366.5,-154.5 366.5,-135.5 274.5,-135.5"/>
<text text-anchor="middle" x="320.5" y="-142.5" font-family="Helvetica,sans-Serif" font-size="10.00">IG.Num.IAnalysis</text>
</a>
</g>
</g>
<!-- Node10&#45;&gt;Node9 -->
<g id="edge13" class="edge"><title>Node10&#45;&gt;Node9</title>
<path fill="none" stroke="#9a32cd" stroke-dasharray="5,2" d="M376.854,-144.254C384.626,-144.161 392.514,-144.073 400,-144 428.261,-143.723 459.601,-143.498 485.976,-143.332"/>
<polygon fill="#9a32cd" stroke="#9a32cd" points="376.702,-140.756 366.746,-144.378 376.788,-147.755 376.702,-140.756"/>
<text text-anchor="middle" x="434" y="-147" font-family="Helvetica,sans-Serif" font-size="10.00"> _analysis</text>
</g>
<!-- Node11 -->
<g id="node11" class="node"><title>Node11</title>
<g id="a_node11"><a xlink:href="../../d1/d02/interfaceIG_1_1Lib_1_1ISerializer.html" target="_top" xlink:title="Interface for helper classes that perform serialization/deserialization of objects.">
<polygon fill="white" stroke="black" points="276.5,-97.5 276.5,-116.5 364.5,-116.5 364.5,-97.5 276.5,-97.5"/>
<text text-anchor="middle" x="320.5" y="-104.5" font-family="Helvetica,sans-Serif" font-size="10.00">IG.Lib.ISerializer</text>
</a>
</g>
</g>
<!-- Node11&#45;&gt;Node9 -->
<g id="edge14" class="edge"><title>Node11&#45;&gt;Node9</title>
<path fill="none" stroke="#9a32cd" stroke-dasharray="5,2" d="M374.438,-114.578C402.308,-118.661 437.036,-123.897 468,-129 476.416,-130.387 485.331,-131.923 494.009,-133.455"/>
<polygon fill="#9a32cd" stroke="#9a32cd" points="374.901,-111.108 364.5,-113.128 373.89,-118.035 374.901,-111.108"/>
<text text-anchor="middle" x="434" y="-132" font-family="Helvetica,sans-Serif" font-size="10.00"> _serializerJson</text>
</g>
</g>
</svg>
        <g id="navigator" transform="translate(0 0)" fill="#404254">
                <rect fill="#f2f5e9" fill-opacity="0.5" stroke="#606060" stroke-width=".5" x="0" y="0" width="60" height="60"/>
                <use id="zoomplus" xlink:href="#zoomPlus" x="17" y="9" onmousedown="handleZoom(evt,'in')"/>
                <use id="zoomminus" xlink:href="#zoomMin" x="42" y="9" onmousedown="handleZoom(evt,'out')"/>
                <use id="reset" xlink:href="#resetDef" x="30" y="36" onmousedown="handleReset()"/>
                <g id="arrowUp" xlink:href="#dirArrow" transform="translate(30 24)" onmousedown="handlePan(0,-1)">
                  <use xlink:href="#rim" fill="#404040">
                        <set attributeName="fill" to="#808080" begin="arrowUp.mouseover" end="arrowUp.mouseout"/>
                  </use>
                  <path fill="none" stroke="white" stroke-width="1.5" d="M0,-3.0v7 M-2.5,-0.5L0,-3.0L2.5,-0.5"/>
                </g>
                <g id="arrowRight" xlink:href="#dirArrow" transform="rotate(90) translate(36 -43)" onmousedown="handlePan(1,0)">
                  <use xlink:href="#rim" fill="#404040">
                        <set attributeName="fill" to="#808080" begin="arrowRight.mouseover" end="arrowRight.mouseout"/>
                  </use>
                  <path fill="none" stroke="white" stroke-width="1.5" d="M0,-3.0v7 M-2.5,-0.5L0,-3.0L2.5,-0.5"/>
                </g>
                <g id="arrowDown" xlink:href="#dirArrow" transform="rotate(180) translate(-30 -48)" onmousedown="handlePan(0,1)">
                  <use xlink:href="#rim" fill="#404040">
                        <set attributeName="fill" to="#808080" begin="arrowDown.mouseover" end="arrowDown.mouseout"/>
                  </use>
                  <path fill="none" stroke="white" stroke-width="1.5" d="M0,-3.0v7 M-2.5,-0.5L0,-3.0L2.5,-0.5"/>
                </g>
                <g id="arrowLeft" xlink:href="#dirArrow" transform="rotate(270) translate(-36 17)" onmousedown="handlePan(-1,0)">
                  <use xlink:href="#rim" fill="#404040">
                        <set attributeName="fill" to="#808080" begin="arrowLeft.mouseover" end="arrowLeft.mouseout"/>
                  </use>
                  <path fill="none" stroke="white" stroke-width="1.5" d="M0,-3.0v7 M-2.5,-0.5L0,-3.0L2.5,-0.5"/>
                </g>
        </g>
        <svg viewBox="0 0 15 15" width="100%" height="30px" preserveAspectRatio="xMaxYMin meet">
         <g id="arrow_out" transform="scale(0.3 0.3)">
          <a xlink:href="classIG_1_1Num_1_1OptFileAnalysisClient__coll__graph_org.svg" target="_base">
           <rect id="button" ry="5" rx="5" y="6" x="6" height="38" width="38"
                fill="#f2f5e9" fill-opacity="0.5" stroke="#606060" stroke-width="1.0"/>
           <path id="arrow"
             d="M 11.500037,31.436501 C 11.940474,20.09759 22.043105,11.32322 32.158766,21.979434 L 37.068811,17.246167 C 37.068811,17.246167 37.088388,32 37.088388,32 L 22.160133,31.978069 C 22.160133,31.978069 26.997745,27.140456 26.997745,27.140456 C 18.528582,18.264221 13.291696,25.230495 11.500037,31.436501 z"
             style="fill:#404040;"/>
          </a>
         </g>
        </svg>
</svg>
