<?xml version="1.0" encoding="UTF-8" standalone="no"?>
<!DOCTYPE svg PUBLIC "-//W3C//DTD SVG 1.1//EN"
 "http://www.w3.org/Graphics/SVG/1.1/DTD/svg11.dtd">
<!-- Generated by graphviz version 2.38.0 (20140413.2041)
 -->
<!-- Title: IG.Lib.ScriptLoaderBase Pages: 1 -->
<svg width="416pt" height="128pt"
 viewBox="0.00 0.00 416.00 128.00" xmlns="http://www.w3.org/2000/svg" xmlns:xlink="http://www.w3.org/1999/xlink">
<g id="graph0" class="graph" transform="scale(1 1) rotate(0) translate(4 124)">
<title>IG.Lib.ScriptLoaderBase</title>
<polygon fill="white" stroke="none" points="-4,4 -4,-124 412,-124 412,4 -4,4"/>
<!-- Node1 -->
<g id="node1" class="node"><title>Node1</title>
<g id="a_node1"><a xlink:title="Dynamically compiles, loads and instantiates classes of type ILoadableScript from files or from strin...">
<polygon fill="#bfbfbf" stroke="black" points="126,-0.5 126,-19.5 248,-19.5 248,-0.5 126,-0.5"/>
<text text-anchor="middle" x="187" y="-7.5" font-family="Helvetica,sans-Serif" font-size="10.00">IG.Lib.ScriptLoaderBase</text>
</a>
</g>
</g>
<!-- Node2 -->
<g id="node2" class="node"><title>Node2</title>
<g id="a_node2"><a xlink:href="../../d3/db6/interfaceIG_1_1Lib_1_1ILockable.html" target="_top" xlink:title="Lockable object, has a Lock property that returns object on which lock must be performed in order to ...">
<polygon fill="white" stroke="black" points="0,-100.5 0,-119.5 58,-119.5 58,-100.5 0,-100.5"/>
<text text-anchor="middle" x="29" y="-107.5" font-family="Helvetica,sans-Serif" font-size="10.00">ILockable</text>
</a>
</g>
</g>
<!-- Node2&#45;&gt;Node1 -->
<g id="edge1" class="edge"><title>Node2&#45;&gt;Node1</title>
<path fill="none" stroke="midnightblue" d="M47.7402,-94.1254C67.3339,-78.9553 99.3086,-55.2592 129,-38 140.907,-31.0785 154.887,-24.5275 166.138,-19.612"/>
<polygon fill="midnightblue" stroke="midnightblue" points="45.3838,-91.525 39.6616,-100.442 49.6954,-97.0395 45.3838,-91.525"/>
</g>
<!-- Node3 -->
<g id="node3" class="node"><title>Node3</title>
<g id="a_node3"><a xlink:href="../../d7/d66/interfaceIG_1_1Lib_1_1ILoadableScript.html" target="_top" xlink:title="Interface for classes that can be dynamically loadeded from scripts and run, which provides functiona...">
<polygon fill="white" stroke="black" points="76,-100.5 76,-119.5 188,-119.5 188,-100.5 76,-100.5"/>
<text text-anchor="middle" x="132" y="-107.5" font-family="Helvetica,sans-Serif" font-size="10.00">IG.Lib.ILoadableScript</text>
</a>
</g>
</g>
<!-- Node3&#45;&gt;Node1 -->
<g id="edge2" class="edge"><title>Node3&#45;&gt;Node1</title>
<path fill="none" stroke="#9a32cd" stroke-dasharray="5,2" d="M132.191,-90.0781C133.189,-74.8429 136.57,-53.4891 147,-38 152.241,-30.2163 160.553,-24.0754 168.245,-19.6297"/>
<polygon fill="#9a32cd" stroke="#9a32cd" points="128.684,-90.2159 131.815,-100.337 135.679,-90.4723 128.684,-90.2159"/>
<text text-anchor="middle" x="184" y="-57.5" font-family="Helvetica,sans-Serif" font-size="10.00"> _runnableObject</text>
</g>
<!-- Node4 -->
<g id="node4" class="node"><title>Node4</title>
<g id="a_node4"><a xlink:href="../../d7/df0/classIG_1_1Lib_1_1Logger.html" target="_top" xlink:title="Temporary logging of errors, warnings and infos for later processing. It is used to log multiple even...">
<polygon fill="white" stroke="black" points="206,-100.5 206,-119.5 280,-119.5 280,-100.5 206,-100.5"/>
<text text-anchor="middle" x="243" y="-107.5" font-family="Helvetica,sans-Serif" font-size="10.00">IG.Lib.Logger</text>
</a>
</g>
</g>
<!-- Node4&#45;&gt;Node1 -->
<g id="edge3" class="edge"><title>Node4&#45;&gt;Node1</title>
<path fill="none" stroke="#9a32cd" stroke-dasharray="5,2" d="M240.328,-90.2357C237.47,-75.0925 231.801,-53.7855 221,-38 215.977,-30.6595 208.361,-24.3495 201.61,-19.6796"/>
<polygon fill="#9a32cd" stroke="#9a32cd" points="236.927,-91.1222 242.005,-100.421 243.834,-89.985 236.927,-91.1222"/>
<text text-anchor="middle" x="256.5" y="-57.5" font-family="Helvetica,sans-Serif" font-size="10.00"> _logger</text>
</g>
<!-- Node5 -->
<g id="node5" class="node"><title>Node5</title>
<g id="a_node5"><a xlink:title=" ">
<polygon fill="white" stroke="#bfbfbf" points="298.5,-100.5 298.5,-119.5 339.5,-119.5 339.5,-100.5 298.5,-100.5"/>
<text text-anchor="middle" x="319" y="-107.5" font-family="Helvetica,sans-Serif" font-size="10.00">static</text>
</a>
</g>
</g>
<!-- Node5&#45;&gt;Node1 -->
<g id="edge4" class="edge"><title>Node5&#45;&gt;Node1</title>
<path fill="none" stroke="#9a32cd" stroke-dasharray="5,2" d="M312.884,-90.701C306.585,-74.5752 295.236,-51.5932 278,-38 267.131,-29.4281 253.597,-23.5746 240.317,-19.5783"/>
<polygon fill="#9a32cd" stroke="#9a32cd" points="309.608,-91.9316 316.306,-100.14 316.189,-89.5461 309.608,-91.9316"/>
<text text-anchor="middle" x="359" y="-74" font-family="Helvetica,sans-Serif" font-size="10.00"> _isScriptingInitialized</text>
<text text-anchor="middle" x="359" y="-63" font-family="Helvetica,sans-Serif" font-size="10.00">_usedClassFullNames</text>
<text text-anchor="middle" x="359" y="-52" font-family="Helvetica,sans-Serif" font-size="10.00">_global</text>
<text text-anchor="middle" x="359" y="-41" font-family="Helvetica,sans-Serif" font-size="10.00">_defaultAssemblies</text>
</g>
</g>
</svg>
