<?xml version="1.0" encoding="UTF-8" standalone="no"?>
<!DOCTYPE svg PUBLIC "-//W3C//DTD SVG 1.1//EN"
 "http://www.w3.org/Graphics/SVG/1.1/DTD/svg11.dtd">
<!-- Generated by graphviz version 2.38.0 (20140413.2041)
 -->
<!-- Title: IG.Lib.WaitFileEventBase Pages: 1 -->
<svg width="364pt" height="209pt"
 viewBox="0.00 0.00 363.78 209.00" xmlns="http://www.w3.org/2000/svg" xmlns:xlink="http://www.w3.org/1999/xlink">
<g id="graph0" class="graph" transform="scale(1 1) rotate(0) translate(4 205)">
<title>IG.Lib.WaitFileEventBase</title>
<polygon fill="white" stroke="none" points="-4,4 -4,-205 359.782,-205 359.782,4 -4,4"/>
<!-- Node1 -->
<g id="node1" class="node"><title>Node1</title>
<g id="a_node1"><a xlink:title="Base class for classes that provide blocking until a file or directory is created/removed.">
<polygon fill="#bfbfbf" stroke="black" points="111.282,-0.5 111.282,-19.5 239.282,-19.5 239.282,-0.5 111.282,-0.5"/>
<text text-anchor="middle" x="175.282" y="-7.5" font-family="Helvetica,sans-Serif" font-size="10.00">IG.Lib.WaitFileEventBase</text>
</a>
</g>
</g>
<!-- Node2 -->
<g id="node2" class="node"><title>Node2</title>
<g id="a_node2"><a xlink:href="../../df/dea/classIG_1_1Lib_1_1WaitConditionBase.html" target="_top" xlink:title="Base class for objects that perform waiting until a condition is fulfilled.">
<polygon fill="white" stroke="black" points="17.282,-67.5 17.282,-86.5 117.282,-86.5 117.282,-67.5 17.282,-67.5"/>
<text text-anchor="middle" x="67.282" y="-74.5" font-family="Helvetica,sans-Serif" font-size="10.00">WaitConditionBase</text>
</a>
</g>
</g>
<!-- Node2&#45;&gt;Node1 -->
<g id="edge1" class="edge"><title>Node2&#45;&gt;Node1</title>
<path fill="none" stroke="midnightblue" d="M90.6395,-61.9422C112.028,-49.0696 143.003,-30.4274 160.947,-19.6273"/>
<polygon fill="midnightblue" stroke="midnightblue" points="88.6104,-59.0784 81.8473,-67.2338 92.2201,-65.0759 88.6104,-59.0784"/>
</g>
<!-- Node3 -->
<g id="node3" class="node"><title>Node3</title>
<g id="a_node3"><a xlink:href="../../de/d1e/interfaceIG_1_1Lib_1_1IWaitCondition.html" target="_top" xlink:title="Interface for classes that implement blocking until a specified condition is met.">
<polygon fill="white" stroke="black" points="67.282,-124.5 67.282,-143.5 147.282,-143.5 147.282,-124.5 67.282,-124.5"/>
<text text-anchor="middle" x="107.282" y="-131.5" font-family="Helvetica,sans-Serif" font-size="10.00">IWaitCondition</text>
</a>
</g>
</g>
<!-- Node3&#45;&gt;Node2 -->
<g id="edge2" class="edge"><title>Node3&#45;&gt;Node2</title>
<path fill="none" stroke="midnightblue" d="M95.0888,-116.234C88.0043,-106.493 79.3695,-94.6204 73.6201,-86.7149"/>
<polygon fill="midnightblue" stroke="midnightblue" points="92.3196,-118.377 101.032,-124.406 97.9808,-114.26 92.3196,-118.377"/>
</g>
<!-- Node5 -->
<g id="node5" class="node"><title>Node5</title>
<g id="a_node5"><a xlink:href="../../d2/d48/interfaceIG_1_1Lib_1_1IWaitFileEvent.html" target="_top" xlink:title="Interface for classes that provide waiting for specific file events (such as ceration or deletion of ...">
<polygon fill="white" stroke="black" points="135.782,-67.5 135.782,-86.5 214.782,-86.5 214.782,-67.5 135.782,-67.5"/>
<text text-anchor="middle" x="175.282" y="-74.5" font-family="Helvetica,sans-Serif" font-size="10.00">IWaitFileEvent</text>
</a>
</g>
</g>
<!-- Node3&#45;&gt;Node5 -->
<g id="edge6" class="edge"><title>Node3&#45;&gt;Node5</title>
<path fill="none" stroke="midnightblue" d="M125.83,-117.998C138.238,-107.962 154.135,-95.1044 164.507,-86.7149"/>
<polygon fill="midnightblue" stroke="midnightblue" points="123.481,-115.396 117.907,-124.406 127.883,-120.839 123.481,-115.396"/>
</g>
<!-- Node4 -->
<g id="node4" class="node"><title>Node4</title>
<g id="a_node4"><a xlink:href="../../d3/db6/interfaceIG_1_1Lib_1_1ILockable.html" target="_top" xlink:title="Lockable object, has a Lock property that returns object on which lock must be performed in order to ...">
<polygon fill="white" stroke="black" points="33.282,-181.5 33.282,-200.5 91.282,-200.5 91.282,-181.5 33.282,-181.5"/>
<text text-anchor="middle" x="62.282" y="-188.5" font-family="Helvetica,sans-Serif" font-size="10.00">ILockable</text>
</a>
</g>
</g>
<!-- Node4&#45;&gt;Node1 -->
<g id="edge8" class="edge"><title>Node4&#45;&gt;Node1</title>
<path fill="none" stroke="midnightblue" d="M45.6022,-174.221C21.7356,-149.704 -16.6653,-101.678 8.28199,-67 31.5867,-34.6052 74.5283,-20.6857 111.03,-14.8235"/>
<polygon fill="midnightblue" stroke="midnightblue" points="43.179,-176.747 52.7417,-181.309 48.1106,-171.779 43.179,-176.747"/>
</g>
<!-- Node4&#45;&gt;Node2 -->
<g id="edge4" class="edge"><title>Node4&#45;&gt;Node2</title>
<path fill="none" stroke="midnightblue" d="M59.5819,-171.258C58.0586,-158.032 56.7405,-139.907 58.282,-124 59.5535,-110.879 62.8198,-95.9432 65.0471,-86.7442"/>
<polygon fill="midnightblue" stroke="midnightblue" points="56.1458,-171.976 60.9067,-181.441 63.0873,-171.073 56.1458,-171.976"/>
</g>
<!-- Node4&#45;&gt;Node3 -->
<g id="edge3" class="edge"><title>Node4&#45;&gt;Node3</title>
<path fill="none" stroke="midnightblue" d="M75.7558,-173.532C83.7708,-163.736 93.6175,-151.701 100.152,-143.715"/>
<polygon fill="midnightblue" stroke="midnightblue" points="72.9368,-171.45 69.3132,-181.406 78.3545,-175.883 72.9368,-171.45"/>
</g>
<!-- Node4&#45;&gt;Node5 -->
<g id="edge7" class="edge"><title>Node4&#45;&gt;Node5</title>
<path fill="none" stroke="midnightblue" d="M100.982,-179.303C120.102,-172.183 142.063,-160.95 156.282,-144 170.382,-127.191 174.029,-100.449 174.965,-86.7367"/>
<polygon fill="midnightblue" stroke="midnightblue" points="99.6001,-176.077 91.2979,-182.659 101.893,-182.691 99.6001,-176.077"/>
</g>
<!-- Node5&#45;&gt;Node1 -->
<g id="edge5" class="edge"><title>Node5&#45;&gt;Node1</title>
<path fill="none" stroke="midnightblue" d="M175.282,-57.037C175.282,-44.6703 175.282,-29.1198 175.282,-19.6273"/>
<polygon fill="midnightblue" stroke="midnightblue" points="171.782,-57.2338 175.282,-67.2338 178.782,-57.2338 171.782,-57.2338"/>
</g>
<!-- Node6 -->
<g id="node6" class="node"><title>Node6</title>
<g id="a_node6"><a xlink:title=" ">
<polygon fill="white" stroke="#bfbfbf" points="233.282,-67.5 233.282,-86.5 283.282,-86.5 283.282,-67.5 233.282,-67.5"/>
<text text-anchor="middle" x="258.282" y="-74.5" font-family="Helvetica,sans-Serif" font-size="10.00">System</text>
</a>
</g>
</g>
<!-- Node6&#45;&gt;Node1 -->
<g id="edge9" class="edge"><title>Node6&#45;&gt;Node1</title>
<path fill="none" stroke="#9a32cd" stroke-dasharray="5,2" d="M239.215,-61.0678C222.832,-48.2376 199.78,-30.1853 186.298,-19.6273"/>
<polygon fill="#9a32cd" stroke="#9a32cd" points="237.057,-63.8237 247.088,-67.2338 241.373,-58.3126 237.057,-63.8237"/>
<text text-anchor="middle" x="255.782" y="-41" font-family="Helvetica,sans-Serif" font-size="10.00"> NotifyFiltersAll</text>
</g>
<!-- Node7 -->
<g id="node7" class="node"><title>Node7</title>
<g id="a_node7"><a xlink:title=" ">
<polygon fill="white" stroke="#bfbfbf" points="314.782,-67.5 314.782,-86.5 355.782,-86.5 355.782,-67.5 314.782,-67.5"/>
<text text-anchor="middle" x="335.282" y="-74.5" font-family="Helvetica,sans-Serif" font-size="10.00">static</text>
</a>
</g>
</g>
<!-- Node7&#45;&gt;Node1 -->
<g id="edge10" class="edge"><title>Node7&#45;&gt;Node1</title>
<path fill="none" stroke="#9a32cd" stroke-dasharray="5,2" d="M320.982,-59.6376C313.46,-51.9921 303.657,-43.4041 293.282,-38 276.787,-29.4083 257.594,-23.5302 239.54,-19.5163"/>
<polygon fill="#9a32cd" stroke="#9a32cd" points="318.795,-62.4266 328.167,-67.3687 323.923,-57.6611 318.795,-62.4266"/>
<text text-anchor="middle" x="326.782" y="-41" font-family="Helvetica,sans-Serif" font-size="10.00"> _pulser</text>
</g>
</g>
</svg>
