<?xml version="1.0" encoding="UTF-8" standalone="no"?>
<!DOCTYPE svg PUBLIC "-//W3C//DTD SVG 1.1//EN"
 "http://www.w3.org/Graphics/SVG/1.1/DTD/svg11.dtd">
<!-- Generated by graphviz version 2.38.0 (20140413.2041)
 -->
<!-- Title: IG.Lib.Copy.NamedPipeClientBase Pages: 1 -->
<svg width="546pt" height="389pt"
 viewBox="0.00 0.00 546.00 389.00" xmlns="http://www.w3.org/2000/svg" xmlns:xlink="http://www.w3.org/1999/xlink">
<g id="graph0" class="graph" transform="scale(1 1) rotate(0) translate(4 385)">
<title>IG.Lib.Copy.NamedPipeClientBase</title>
<polygon fill="white" stroke="none" points="-4,4 -4,-385 542,-385 542,4 -4,4"/>
<!-- Node1 -->
<g id="node1" class="node"><title>Node1</title>
<g id="a_node1"><a xlink:title="Client to the pipe server (classes derived from ClientServerStreamBase2).">
<polygon fill="#bfbfbf" stroke="black" points="10,-0.5 10,-19.5 178,-19.5 178,-0.5 10,-0.5"/>
<text text-anchor="middle" x="94" y="-7.5" font-family="Helvetica,sans-Serif" font-size="10.00">IG.Lib.Copy.NamedPipeClientBase</text>
</a>
</g>
</g>
<!-- Node2 -->
<g id="node2" class="node"><title>Node2</title>
<g id="a_node2"><a xlink:href="../../d2/d6f/classIG_1_1Lib_1_1Copy_1_1ClientStreamBase.html" target="_top" xlink:title="Client to the pipe server (classes derived from ClientServerStreamBase2).">
<polygon fill="white" stroke="black" points="46.5,-57.5 46.5,-76.5 141.5,-76.5 141.5,-57.5 46.5,-57.5"/>
<text text-anchor="middle" x="94" y="-64.5" font-family="Helvetica,sans-Serif" font-size="10.00">ClientStreamBase</text>
</a>
</g>
</g>
<!-- Node2&#45;&gt;Node1 -->
<g id="edge1" class="edge"><title>Node2&#45;&gt;Node1</title>
<path fill="none" stroke="midnightblue" d="M94,-47.1166C94,-37.8173 94,-27.0557 94,-19.7149"/>
<polygon fill="midnightblue" stroke="midnightblue" points="90.5001,-47.4062 94,-57.4063 97.5001,-47.4063 90.5001,-47.4062"/>
</g>
<!-- Node3 -->
<g id="node3" class="node"><title>Node3</title>
<g id="a_node3"><a xlink:href="../../db/d41/classIG_1_1Lib_1_1Copy_1_1ClientServerStreamBase2.html" target="_top" xlink:title="Base class for named pipe servers and clients, contains common stuff for both.">
<polygon fill="white" stroke="black" points="75,-114.5 75,-133.5 203,-133.5 203,-114.5 75,-114.5"/>
<text text-anchor="middle" x="139" y="-121.5" font-family="Helvetica,sans-Serif" font-size="10.00">ClientServerStreamBase2</text>
</a>
</g>
</g>
<!-- Node3&#45;&gt;Node2 -->
<g id="edge2" class="edge"><title>Node3&#45;&gt;Node2</title>
<path fill="none" stroke="midnightblue" d="M125.526,-106.532C117.511,-96.7359 107.664,-84.701 101.13,-76.7149"/>
<polygon fill="midnightblue" stroke="midnightblue" points="122.927,-108.883 131.969,-114.406 128.345,-104.45 122.927,-108.883"/>
</g>
<!-- Node4 -->
<g id="node4" class="node"><title>Node4</title>
<g id="a_node4"><a xlink:href="../../d5/d2f/classIG_1_1Lib_1_1Copy_1_1ClienServerStreamBase.html" target="_top" xlink:title="Base class for client and server classes with stream&#45;based communication.">
<polygon fill="white" stroke="black" points="104.5,-211 104.5,-230 223.5,-230 223.5,-211 104.5,-211"/>
<text text-anchor="middle" x="164" y="-218" font-family="Helvetica,sans-Serif" font-size="10.00">ClienServerStreamBase</text>
</a>
</g>
</g>
<!-- Node4&#45;&gt;Node3 -->
<g id="edge3" class="edge"><title>Node4&#45;&gt;Node3</title>
<path fill="none" stroke="midnightblue" d="M159.134,-201.107C153.76,-180.793 145.335,-148.945 141.302,-133.7"/>
<polygon fill="midnightblue" stroke="midnightblue" points="155.752,-202.007 161.693,-210.779 162.519,-200.216 155.752,-202.007"/>
</g>
<!-- Node5 -->
<g id="node5" class="node"><title>Node5</title>
<g id="a_node5"><a xlink:href="../../d3/db6/interfaceIG_1_1Lib_1_1ILockable.html" target="_top" xlink:title="Lockable object, has a Lock property that returns object on which lock must be performed in order to ...">
<polygon fill="white" stroke="black" points="28,-361.5 28,-380.5 86,-380.5 86,-361.5 28,-361.5"/>
<text text-anchor="middle" x="57" y="-368.5" font-family="Helvetica,sans-Serif" font-size="10.00">ILockable</text>
</a>
</g>
</g>
<!-- Node5&#45;&gt;Node1 -->
<g id="edge9" class="edge"><title>Node5&#45;&gt;Node1</title>
<path fill="none" stroke="midnightblue" d="M45.6236,-352.803C28.993,-325.955 0,-271.919 0,-221.5 0,-221.5 0,-221.5 0,-66 0,-40.9473 25.1814,-27.0943 49.4775,-19.5588"/>
<polygon fill="midnightblue" stroke="midnightblue" points="42.7846,-354.861 51.1147,-361.408 48.6853,-351.095 42.7846,-354.861"/>
</g>
<!-- Node5&#45;&gt;Node2 -->
<g id="edge8" class="edge"><title>Node5&#45;&gt;Node2</title>
<path fill="none" stroke="midnightblue" d="M54.174,-351.136C48.4335,-307.883 38.1784,-198.765 66,-114 70.6649,-99.7872 80.4362,-85.3716 87.1086,-76.5587"/>
<polygon fill="midnightblue" stroke="midnightblue" points="50.7454,-351.888 55.6063,-361.302 57.6769,-350.911 50.7454,-351.888"/>
</g>
<!-- Node5&#45;&gt;Node3 -->
<g id="edge6" class="edge"><title>Node5&#45;&gt;Node3</title>
<path fill="none" stroke="midnightblue" d="M57.1058,-351.312C58.034,-314.663 63.7362,-231.653 95,-171 102.899,-155.676 117.51,-141.947 127.719,-133.559"/>
<polygon fill="midnightblue" stroke="midnightblue" points="53.6034,-351.441 56.9458,-361.494 60.6025,-351.551 53.6034,-351.441"/>
</g>
<!-- Node5&#45;&gt;Node4 -->
<g id="edge4" class="edge"><title>Node5&#45;&gt;Node4</title>
<path fill="none" stroke="midnightblue" d="M76.2018,-354.647C80.0443,-351.065 83.8597,-347.093 87,-343 103.697,-321.237 100.594,-311.342 115,-288 128.407,-266.278 146.859,-242.613 156.859,-230.209"/>
<polygon fill="midnightblue" stroke="midnightblue" points="73.7285,-352.16 68.4844,-361.366 78.3248,-357.439 73.7285,-352.16"/>
</g>
<!-- Node6 -->
<g id="node6" class="node"><title>Node6</title>
<g id="a_node6"><a xlink:title=" ">
<polygon fill="white" stroke="#bfbfbf" points="268.5,-361.5 268.5,-380.5 309.5,-380.5 309.5,-361.5 268.5,-361.5"/>
<text text-anchor="middle" x="289" y="-368.5" font-family="Helvetica,sans-Serif" font-size="10.00">static</text>
</a>
</g>
</g>
<!-- Node6&#45;&gt;Node1 -->
<g id="edge10" class="edge"><title>Node6&#45;&gt;Node1</title>
<path fill="none" stroke="#9a32cd" stroke-dasharray="5,2" d="M318.332,-357.017C361.737,-335.577 438,-288.389 438,-221.5 438,-221.5 438,-221.5 438,-66 438,-39.7665 279.993,-23.8289 178.152,-16.2811"/>
<polygon fill="#9a32cd" stroke="#9a32cd" points="316.604,-353.964 309.095,-361.437 319.626,-360.278 316.604,-353.964"/>
<text text-anchor="middle" x="488" y="-121.5" font-family="Helvetica,sans-Serif" font-size="10.00"> _defaultServerAddress</text>
</g>
<!-- Node6&#45;&gt;Node3 -->
<g id="edge7" class="edge"><title>Node6&#45;&gt;Node3</title>
<path fill="none" stroke="#9a32cd" stroke-dasharray="5,2" d="M288.826,-350.817C287.454,-311.987 279.009,-223.336 232,-171 215.389,-152.507 189.662,-140.585 169.474,-133.523"/>
<polygon fill="#9a32cd" stroke="#9a32cd" points="285.335,-351.254 289.059,-361.173 292.333,-351.096 285.335,-351.254"/>
<text text-anchor="middle" x="338.5" y="-262" font-family="Helvetica,sans-Serif" font-size="10.00"> _defaultResponseEnd</text>
<text text-anchor="middle" x="338.5" y="-251" font-family="Helvetica,sans-Serif" font-size="10.00">_defaultStopRequest</text>
<text text-anchor="middle" x="338.5" y="-240" font-family="Helvetica,sans-Serif" font-size="10.00">_defaultPipeName</text>
<text text-anchor="middle" x="338.5" y="-229" font-family="Helvetica,sans-Serif" font-size="10.00">_defaultStoppedResponse</text>
<text text-anchor="middle" x="338.5" y="-218" font-family="Helvetica,sans-Serif" font-size="10.00">_defaultRequestEnd</text>
<text text-anchor="middle" x="338.5" y="-207" font-family="Helvetica,sans-Serif" font-size="10.00">_defaultIsMultilineResponse</text>
<text text-anchor="middle" x="338.5" y="-196" font-family="Helvetica,sans-Serif" font-size="10.00">_defaultIsMultilineRequest</text>
<text text-anchor="middle" x="338.5" y="-185" font-family="Helvetica,sans-Serif" font-size="10.00">_defaultErrorBegin</text>
<text text-anchor="middle" x="338.5" y="-174" font-family="Helvetica,sans-Serif" font-size="10.00">_defaultGenericResponse</text>
</g>
<!-- Node6&#45;&gt;Node4 -->
<g id="edge5" class="edge"><title>Node6&#45;&gt;Node4</title>
<path fill="none" stroke="#9a32cd" stroke-dasharray="5,2" d="M258.27,-369.119C217.932,-367.241 150.425,-361.364 135,-343 106.547,-309.124 141.856,-252.084 157.375,-230.309"/>
<polygon fill="#9a32cd" stroke="#9a32cd" points="258.242,-372.621 268.377,-369.533 258.528,-365.627 258.242,-372.621"/>
<text text-anchor="middle" x="205" y="-335" font-family="Helvetica,sans-Serif" font-size="10.00"> _defaultMessagePrefix</text>
<text text-anchor="middle" x="205" y="-324" font-family="Helvetica,sans-Serif" font-size="10.00">_defaultMessageSeparator</text>
<text text-anchor="middle" x="205" y="-313" font-family="Helvetica,sans-Serif" font-size="10.00">_defaultMessageFalseSeparator</text>
<text text-anchor="middle" x="205" y="-302" font-family="Helvetica,sans-Serif" font-size="10.00">_defatultOutputLevel</text>
<text text-anchor="middle" x="205" y="-291" font-family="Helvetica,sans-Serif" font-size="10.00">_lockGlobal</text>
</g>
</g>
</svg>
