<?xml version="1.0" encoding="UTF-8" standalone="no"?>
<!DOCTYPE svg PUBLIC "-//W3C//DTD SVG 1.1//EN"
 "http://www.w3.org/Graphics/SVG/1.1/DTD/svg11.dtd">
<!-- Generated by graphviz version 2.38.0 (20140413.2041)
 -->
<!-- Title: IG.Neural.DataMapperSimple Pages: 1 -->
<svg width="170pt" height="140pt"
 viewBox="0.00 0.00 170.00 140.00" xmlns="http://www.w3.org/2000/svg" xmlns:xlink="http://www.w3.org/1999/xlink">
<g id="graph0" class="graph" transform="scale(1 1) rotate(0) translate(4 136)">
<title>IG.Neural.DataMapperSimple</title>
<polygon fill="white" stroke="none" points="-4,4 -4,-136 166,-136 166,4 -4,4"/>
<!-- Node1 -->
<g id="node1" class="node"><title>Node1</title>
<g id="a_node1"><a xlink:title=" ">
<polygon fill="#bfbfbf" stroke="black" points="0,-0.5 0,-19.5 143,-19.5 143,-0.5 0,-0.5"/>
<text text-anchor="middle" x="71.5" y="-7.5" font-family="Helvetica,sans-Serif" font-size="10.00">IG.Neural.DataMapperSimple</text>
</a>
</g>
</g>
<!-- Node2 -->
<g id="node2" class="node"><title>Node2</title>
<g id="a_node2"><a xlink:href="../../df/dec/classIG_1_1Neural_1_1DataMapperIdentity.html" target="_top" xlink:title=" ">
<polygon fill="white" stroke="black" points="61,-56.5 61,-75.5 162,-75.5 162,-56.5 61,-56.5"/>
<text text-anchor="middle" x="111.5" y="-63.5" font-family="Helvetica,sans-Serif" font-size="10.00">DataMapperIdentity</text>
</a>
</g>
</g>
<!-- Node2&#45;&gt;Node1 -->
<g id="edge1" class="edge"><title>Node2&#45;&gt;Node1</title>
<path fill="none" stroke="midnightblue" d="M98.8003,-47.8554C91.874,-38.5048 83.5937,-27.3265 77.9823,-19.7511"/>
<polygon fill="midnightblue" stroke="midnightblue" points="96.13,-50.1307 104.895,-56.083 101.755,-45.9641 96.13,-50.1307"/>
</g>
<!-- Node3 -->
<g id="node3" class="node"><title>Node3</title>
<g id="a_node3"><a xlink:href="../../d0/d0b/interfaceIG_1_1Neural_1_1IDataMapper.html" target="_top" xlink:title=" ">
<polygon fill="white" stroke="black" points="36,-112.5 36,-131.5 107,-131.5 107,-112.5 36,-112.5"/>
<text text-anchor="middle" x="71.5" y="-119.5" font-family="Helvetica,sans-Serif" font-size="10.00">IDataMapper</text>
</a>
</g>
</g>
<!-- Node3&#45;&gt;Node1 -->
<g id="edge3" class="edge"><title>Node3&#45;&gt;Node1</title>
<path fill="none" stroke="midnightblue" d="M62.0674,-103.247C58.2916,-95.1733 54.3931,-85.3507 52.5,-76 48.3473,-55.4888 59.1552,-32.0761 66.1268,-19.7132"/>
<polygon fill="midnightblue" stroke="midnightblue" points="59.0251,-104.989 66.6241,-112.372 65.2876,-101.862 59.0251,-104.989"/>
</g>
<!-- Node3&#45;&gt;Node2 -->
<g id="edge2" class="edge"><title>Node3&#45;&gt;Node2</title>
<path fill="none" stroke="midnightblue" d="M84.1997,-103.855C91.126,-94.5048 99.4063,-83.3265 105.018,-75.7511"/>
<polygon fill="midnightblue" stroke="midnightblue" points="81.245,-101.964 78.1052,-112.083 86.87,-106.131 81.245,-101.964"/>
</g>
</g>
</svg>
