<?xml version="1.0" encoding="UTF-8" standalone="no"?>
<!DOCTYPE svg PUBLIC "-//W3C//DTD SVG 1.1//EN"
 "http://www.w3.org/Graphics/SVG/1.1/DTD/svg11.dtd">
<!-- Generated by graphviz version 2.38.0 (20140413.2041)
 -->
<!-- Title: IG.Lib.CommandLineApplicationScriptInterpreter Pages: 1 -->
<!--zoomable 722 -->
<svg id="main" version="1.1" xmlns="http://www.w3.org/2000/svg" xmlns:xlink="http://www.w3.org/1999/xlink" xml:space="preserve" onload="init(evt)">
<style type="text/css"><![CDATA[
.edge:hover path { stroke: red; }
.edge:hover polygon { stroke: red; fill: red; }
]]></style>
<script type="text/javascript"><![CDATA[
var edges = document.getElementsByTagName('g');
if (edges && edges.length) {
  for (var i=0;i<edges.length;i++) {
    if (edges[i].id.substr(0,4)=='edge') {
      edges[i].setAttribute('class','edge');
    }
  }
}
]]></script>
        <defs>
                <circle id="rim" cx="0" cy="0" r="7"/>
                <circle id="rim2" cx="0" cy="0" r="3.5"/>
                <g id="zoomPlus">
                        <use xlink:href="#rim" fill="#404040">
                                <set attributeName="fill" to="#808080" begin="zoomplus.mouseover" end="zoomplus.mouseout"/>
                        </use>
                        <path d="M-4,0h8M0,-4v8" fill="none" stroke="white" stroke-width="1.5" pointer-events="none"/>
                </g>
                <g id="zoomMin">
                        <use xlink:href="#rim" fill="#404040">
                                <set attributeName="fill" to="#808080" begin="zoomminus.mouseover" end="zoomminus.mouseout"/>
                        </use>
                        <path d="M-4,0h8" fill="none" stroke="white" stroke-width="1.5" pointer-events="none"/>
                </g>
                <g id="dirArrow">
                        <path fill="none" stroke="white" stroke-width="1.5" d="M0,-3.0v7 M-2.5,-0.5L0,-3.0L2.5,-0.5"/>
                </g>
               <g id="resetDef">
                       <use xlink:href="#rim2" fill="#404040">
                               <set attributeName="fill" to="#808080" begin="reset.mouseover" end="reset.mouseout"/>
                       </use>
               </g>
        </defs>

<script type="text/javascript">
var viewWidth = 1448;
var viewHeight = 722;
var sectionId = 'dynsection-1';
</script>
<script xlink:href="../../svgpan.js"/>
<svg id="graph" class="graph">
<g id="viewport">
<title>IG.Lib.CommandLineApplicationScriptInterpreter</title>
<polygon fill="white" stroke="none" points="-4,4 -4,-717.951 1444,-717.951 1444,4 -4,4"/>
<!-- Node1 -->
<g id="node1" class="node"><title>Node1</title>
<g id="a_node1"><a xlink:title="Command&#45;line interpreters adapted for executing script commands.">
<polygon fill="#bfbfbf" stroke="black" points="1285,-660.951 1285,-690.951 1440,-690.951 1440,-660.951 1285,-660.951"/>
<text text-anchor="start" x="1293" y="-678.951" font-family="Helvetica,sans-Serif" font-size="10.00">IG.Lib.CommandLineApplication</text>
<text text-anchor="middle" x="1362.5" y="-667.951" font-family="Helvetica,sans-Serif" font-size="10.00">ScriptInterpreter</text>
</a>
</g>
</g>
<!-- Node2 -->
<g id="node2" class="node"><title>Node2</title>
<g id="a_node2"><a xlink:href="../../de/dcf/classIG_1_1Lib_1_1CommandLineApplicationInterpreter.html" target="_top" xlink:title="Simple command&#45;line application interpreters, holds a set of commands that can be executed by name....">
<polygon fill="white" stroke="black" points="1078,-506.451 1078,-525.451 1248,-525.451 1248,-506.451 1078,-506.451"/>
<text text-anchor="middle" x="1163" y="-513.451" font-family="Helvetica,sans-Serif" font-size="10.00">CommandLineApplicationInterpreter</text>
</a>
</g>
</g>
<!-- Node2&#45;&gt;Node1 -->
<g id="edge1" class="edge"><title>Node2&#45;&gt;Node1</title>
<path fill="none" stroke="midnightblue" d="M1183.6,-531.827C1221.75,-562.739 1305.54,-630.616 1342.89,-660.876"/>
<polygon fill="midnightblue" stroke="midnightblue" points="1185.74,-529.056 1175.76,-525.481 1181.33,-534.495 1185.74,-529.056"/>
</g>
<!-- Node3 -->
<g id="node3" class="node"><title>Node3</title>
<g id="a_node3"><a xlink:href="../../de/dfd/interfaceIG_1_1Lib_1_1ICommandLineApplicationInterpreter.html" target="_top" xlink:title="Interface for simple command&#45;line applicatino interpreters.">
<polygon fill="white" stroke="black" points="758.5,-666.451 758.5,-685.451 931.5,-685.451 931.5,-666.451 758.5,-666.451"/>
<text text-anchor="middle" x="845" y="-673.451" font-family="Helvetica,sans-Serif" font-size="10.00">ICommandLineApplicationInterpreter</text>
</a>
</g>
</g>
<!-- Node3&#45;&gt;Node1 -->
<g id="edge36" class="edge"><title>Node3&#45;&gt;Node1</title>
<path fill="none" stroke="midnightblue" d="M941.713,-675.951C1040.75,-675.951 1193.49,-675.951 1284.86,-675.951"/>
<polygon fill="midnightblue" stroke="midnightblue" points="941.703,-672.451 931.703,-675.951 941.703,-679.451 941.703,-672.451"/>
</g>
<!-- Node3&#45;&gt;Node2 -->
<g id="edge2" class="edge"><title>Node3&#45;&gt;Node2</title>
<path fill="none" stroke="midnightblue" d="M940.869,-665.043C988.188,-658.343 1039.6,-648.775 1060,-636.951 1108.25,-608.98 1144.12,-549.285 1156.9,-525.766"/>
<polygon fill="midnightblue" stroke="midnightblue" points="940.273,-661.592 930.847,-666.429 941.232,-668.526 940.273,-661.592"/>
</g>
<!-- Node4 -->
<g id="node4" class="node"><title>Node4</title>
<g id="a_node4"><a xlink:href="../../d3/db6/interfaceIG_1_1Lib_1_1ILockable.html" target="_top" xlink:title="Lockable object, has a Lock property that returns object on which lock must be performed in order to ...">
<polygon fill="white" stroke="black" points="27,-488.451 27,-507.451 85,-507.451 85,-488.451 27,-488.451"/>
<text text-anchor="middle" x="56" y="-495.451" font-family="Helvetica,sans-Serif" font-size="10.00">ILockable</text>
</a>
</g>
</g>
<!-- Node4&#45;&gt;Node1 -->
<g id="edge37" class="edge"><title>Node4&#45;&gt;Node1</title>
<path fill="none" stroke="midnightblue" d="M72.2717,-515.567C84.5274,-530.496 101.383,-552.932 112,-574.951 124.647,-601.182 110.527,-616.299 130,-637.951 190.267,-704.961 227.875,-713.951 318,-713.951 318,-713.951 318,-713.951 1164,-713.951 1214.98,-713.951 1272.05,-701.591 1311.68,-690.97"/>
<polygon fill="midnightblue" stroke="midnightblue" points="74.7802,-513.112 65.6693,-507.704 69.4194,-517.613 74.7802,-513.112"/>
</g>
<!-- Node4&#45;&gt;Node2 -->
<g id="edge3" class="edge"><title>Node4&#45;&gt;Node2</title>
<path fill="none" stroke="midnightblue" d="M95.305,-498.575C253.027,-501.144 854.406,-510.94 1077.8,-514.579"/>
<polygon fill="midnightblue" stroke="midnightblue" points="95.2014,-495.073 85.1457,-498.409 95.0873,-502.072 95.2014,-495.073"/>
</g>
<!-- Node6 -->
<g id="node6" class="node"><title>Node6</title>
<g id="a_node6"><a xlink:href="../../d0/d06/classIG_1_1Lib_1_1ExpressionEvaluatorJint.html" target="_top" xlink:title="JavaScript Evaluator with command&#45;line interpreter, based on Jint.">
<polygon fill="white" stroke="black" points="770.5,-314.451 770.5,-333.451 919.5,-333.451 919.5,-314.451 770.5,-314.451"/>
<text text-anchor="middle" x="845" y="-321.451" font-family="Helvetica,sans-Serif" font-size="10.00">IG.Lib.ExpressionEvaluatorJint</text>
</a>
</g>
</g>
<!-- Node4&#45;&gt;Node6 -->
<g id="edge15" class="edge"><title>Node4&#45;&gt;Node6</title>
<path fill="none" stroke="midnightblue" d="M65.7327,-479.273C77.0719,-457.511 99.1298,-422.66 130,-407.951 169.32,-389.216 186.313,-395.329 228,-407.951 237.202,-410.737 236.798,-417.165 246,-419.951 326.744,-444.398 650.313,-396.69 666,-392.951 725.805,-378.695 792.4,-348.87 824.544,-333.524"/>
<polygon fill="midnightblue" stroke="midnightblue" points="62.5969,-477.719 61.284,-488.232 68.8665,-480.832 62.5969,-477.719"/>
</g>
<!-- Node7 -->
<g id="node7" class="node"><title>Node7</title>
<g id="a_node7"><a xlink:href="../../da/d42/classIG_1_1Lib_1_1ExpressionEvaluatorJs.html" target="_top" xlink:title="JavaScript Evaluator with command&#45;line interpreter.">
<polygon fill="white" stroke="black" points="520.5,-201.451 520.5,-220.451 635.5,-220.451 635.5,-201.451 520.5,-201.451"/>
<text text-anchor="middle" x="578" y="-208.451" font-family="Helvetica,sans-Serif" font-size="10.00">ExpressionEvaluatorJs</text>
</a>
</g>
</g>
<!-- Node4&#45;&gt;Node7 -->
<g id="edge11" class="edge"><title>Node4&#45;&gt;Node7</title>
<path fill="none" stroke="midnightblue" d="M66.2154,-479.085C78.5487,-455.036 102.13,-412.982 130,-382.951 166.945,-343.141 195.787,-353.678 228,-309.951 242.257,-290.598 227.427,-274.21 246,-258.951 286.828,-225.408 436.902,-215.298 520.252,-212.256"/>
<polygon fill="midnightblue" stroke="midnightblue" points="62.9972,-477.695 61.6387,-488.202 69.2532,-480.835 62.9972,-477.695"/>
</g>
<!-- Node8 -->
<g id="node8" class="node"><title>Node8</title>
<g id="a_node8"><a xlink:href="../../dd/dec/classIG_1_1Lib_1_1ExpressionEvaluatorCompiled.html" target="_top" xlink:title="Base class for expression evaluators that utilize the functionality of CodeDomProvider class.">
<polygon fill="white" stroke="black" points="246,-192.451 246,-211.451 392,-211.451 392,-192.451 246,-192.451"/>
<text text-anchor="middle" x="319" y="-199.451" font-family="Helvetica,sans-Serif" font-size="10.00">ExpressionEvaluatorCompiled</text>
</a>
</g>
</g>
<!-- Node4&#45;&gt;Node8 -->
<g id="edge8" class="edge"><title>Node4&#45;&gt;Node8</title>
<path fill="none" stroke="midnightblue" d="M64.2821,-478.951C84.5836,-428.706 146.914,-291.692 246,-225.951 255.332,-219.759 266.405,-215.033 277.034,-211.482"/>
<polygon fill="midnightblue" stroke="midnightblue" points="61.0083,-477.713 60.5898,-488.299 67.5188,-480.284 61.0083,-477.713"/>
</g>
<!-- Node14 -->
<g id="node14" class="node"><title>Node14</title>
<g id="a_node14"><a xlink:href="../../da/d42/classIG_1_1Lib_1_1ExpressionEvaluatorJs.html" target="_top" xlink:title="JavaScript Evaluator with command&#45;line interpreter.">
<polygon fill="white" stroke="black" points="506.5,-364.451 506.5,-383.451 649.5,-383.451 649.5,-364.451 506.5,-364.451"/>
<text text-anchor="middle" x="578" y="-371.451" font-family="Helvetica,sans-Serif" font-size="10.00">IG.Lib.ExpressionEvaluatorJs</text>
</a>
</g>
</g>
<!-- Node4&#45;&gt;Node14 -->
<g id="edge22" class="edge"><title>Node4&#45;&gt;Node14</title>
<path fill="none" stroke="midnightblue" d="M95.2355,-493.504C130.053,-489.131 182.776,-481.7 228,-471.951 347.965,-446.09 487.666,-402.766 547.431,-383.587"/>
<polygon fill="midnightblue" stroke="midnightblue" points="94.5297,-490.064 85.0332,-494.762 95.3863,-497.012 94.5297,-490.064"/>
</g>
<!-- Node16 -->
<g id="node16" class="node"><title>Node16</title>
<g id="a_node16"><a xlink:href="../../d8/dff/interfaceIG_1_1Lib_1_1ILoadableScriptInterpreter.html" target="_top" xlink:title="Interface for interpreters that can install commands from loadable scripts and run them.">
<polygon fill="white" stroke="black" points="255.5,-539.451 255.5,-558.451 382.5,-558.451 382.5,-539.451 255.5,-539.451"/>
<text text-anchor="middle" x="319" y="-546.451" font-family="Helvetica,sans-Serif" font-size="10.00">ILoadableScriptInterpreter</text>
</a>
</g>
</g>
<!-- Node4&#45;&gt;Node16 -->
<g id="edge29" class="edge"><title>Node4&#45;&gt;Node16</title>
<path fill="none" stroke="midnightblue" d="M91.9656,-510.825C103.903,-514.849 117.417,-519.003 130,-521.951 171.254,-531.616 218.461,-538.381 255.25,-542.723"/>
<polygon fill="midnightblue" stroke="midnightblue" points="92.9584,-507.464 82.3636,-507.503 90.6702,-514.08 92.9584,-507.464"/>
</g>
<!-- Node17 -->
<g id="node17" class="node"><title>Node17</title>
<g id="a_node17"><a xlink:href="../../d3/d40/classIG_1_1Lib_1_1ScriptLoaderBase.html" target="_top" xlink:title="Dynamically compiles, loads and instantiates classes of type ILoadableScript from files or from strin...">
<polygon fill="white" stroke="black" points="258,-577.451 258,-596.451 380,-596.451 380,-577.451 258,-577.451"/>
<text text-anchor="middle" x="319" y="-584.451" font-family="Helvetica,sans-Serif" font-size="10.00">IG.Lib.ScriptLoaderBase</text>
</a>
</g>
</g>
<!-- Node4&#45;&gt;Node17 -->
<g id="edge31" class="edge"><title>Node4&#45;&gt;Node17</title>
<path fill="none" stroke="midnightblue" d="M77.3083,-513.816C91.3824,-524.088 110.948,-536.988 130,-544.951 171.039,-562.105 220.18,-572.771 257.927,-579.061"/>
<polygon fill="midnightblue" stroke="midnightblue" points="79.0142,-510.72 68.9133,-507.523 74.8157,-516.322 79.0142,-510.72"/>
</g>
<!-- Node5 -->
<g id="node5" class="node"><title>Node5</title>
<g id="a_node5"><a xlink:href="../../d0/d0c/classIG_1_1Lib_1_1CommandStackFrame.html" target="_top" xlink:title="Stack frame for a block of command&#45;line interpreter commands.">
<polygon fill="white" stroke="black" points="773.5,-9.45099 773.5,-28.451 916.5,-28.451 916.5,-9.45099 773.5,-9.45099"/>
<text text-anchor="middle" x="845" y="-16.451" font-family="Helvetica,sans-Serif" font-size="10.00">IG.Lib.CommandStackFrame</text>
</a>
</g>
</g>
<!-- Node5&#45;&gt;Node2 -->
<g id="edge4" class="edge"><title>Node5&#45;&gt;Node2</title>
<path fill="none" stroke="#9a32cd" stroke-dasharray="5,2" d="M891.17,-7.3254C938.984,2.04796 1013.79,7.91829 1060,-31.951 1135.58,-97.1646 1158.01,-443.143 1161.49,-506.113"/>
<polygon fill="#9a32cd" stroke="#9a32cd" points="890.176,-3.95748 881.103,-9.42862 891.607,-10.8095 890.176,-3.95748"/>
<text text-anchor="middle" x="1010" y="-34.951" font-family="Helvetica,sans-Serif" font-size="10.00"> _globalAuxiliaryFrame</text>
</g>
<!-- Node6&#45;&gt;Node2 -->
<g id="edge5" class="edge"><title>Node6&#45;&gt;Node2</title>
<path fill="none" stroke="#9a32cd" stroke-dasharray="5,2" d="M929.917,-322.608C971.936,-325.589 1021.84,-334.995 1060,-359.951 1116.87,-397.145 1149.07,-478.292 1158.81,-506.253"/>
<polygon fill="#9a32cd" stroke="#9a32cd" points="929.887,-319.1 919.696,-321.996 929.469,-326.087 929.887,-319.1"/>
<text text-anchor="middle" x="1010" y="-362.951" font-family="Helvetica,sans-Serif" font-size="10.00"> _evaluatorJint</text>
</g>
<!-- Node7&#45;&gt;Node6 -->
<g id="edge6" class="edge"><title>Node7&#45;&gt;Node6</title>
<path fill="none" stroke="midnightblue" d="M611.084,-224.632C665.458,-247.818 774.381,-294.264 821.463,-314.341"/>
<polygon fill="midnightblue" stroke="midnightblue" points="612.165,-221.288 601.594,-220.585 609.42,-227.727 612.165,-221.288"/>
</g>
<!-- Node8&#45;&gt;Node7 -->
<g id="edge7" class="edge"><title>Node8&#45;&gt;Node7</title>
<path fill="none" stroke="midnightblue" d="M402.423,-204.837C440.897,-206.185 485.723,-207.755 520.318,-208.966"/>
<polygon fill="midnightblue" stroke="midnightblue" points="402.389,-201.334 392.273,-204.482 402.144,-208.33 402.389,-201.334"/>
</g>
<!-- Node8&#45;&gt;Node14 -->
<g id="edge21" class="edge"><title>Node8&#45;&gt;Node14</title>
<path fill="none" stroke="midnightblue" d="M349.559,-216.009C383.41,-233.47 438.499,-266.247 472,-308.951 485.55,-326.224 473.3,-340.701 490,-354.951 494.822,-359.065 500.331,-362.349 506.183,-364.963"/>
<polygon fill="midnightblue" stroke="midnightblue" points="351.115,-212.874 340.61,-211.495 347.962,-219.124 351.115,-212.874"/>
</g>
<!-- Node9 -->
<g id="node9" class="node"><title>Node9</title>
<g id="a_node9"><a xlink:href="../../dc/d79/interfaceIG_1_1Lib_1_1IIdentifiable.html" target="_top" xlink:title="Classes whose instances have unique integer IDs.">
<polygon fill="white" stroke="black" points="23.5,-68.451 23.5,-87.451 88.5,-87.451 88.5,-68.451 23.5,-68.451"/>
<text text-anchor="middle" x="56" y="-75.451" font-family="Helvetica,sans-Serif" font-size="10.00">IIdentifiable</text>
</a>
</g>
</g>
<!-- Node9&#45;&gt;Node6 -->
<g id="edge16" class="edge"><title>Node9&#45;&gt;Node6</title>
<path fill="none" stroke="midnightblue" d="M98.749,-77.6545C133.385,-77.597 183.919,-77.9484 228,-79.951 428.723,-89.0699 488.94,-96.9625 666,-191.951 735.161,-229.054 807.128,-290.845 833.512,-314.417"/>
<polygon fill="midnightblue" stroke="midnightblue" points="98.5247,-74.155 88.5349,-77.6841 98.545,-81.155 98.5247,-74.155"/>
</g>
<!-- Node9&#45;&gt;Node7 -->
<g id="edge12" class="edge"><title>Node9&#45;&gt;Node7</title>
<path fill="none" stroke="midnightblue" d="M98.8464,-80.3197C175.144,-85.6959 341.071,-102.3 472,-149.951 507.66,-162.929 545.083,-187.814 564.161,-201.446"/>
<polygon fill="midnightblue" stroke="midnightblue" points="98.9016,-76.8156 88.6884,-79.6336 98.4297,-83.7997 98.9016,-76.8156"/>
</g>
<!-- Node9&#45;&gt;Node8 -->
<g id="edge9" class="edge"><title>Node9&#45;&gt;Node8</title>
<path fill="none" stroke="midnightblue" d="M81.9738,-92.8764C117.54,-113.732 185.218,-151.951 246,-177.951 258.72,-183.392 273.118,-188.407 285.678,-192.431"/>
<polygon fill="midnightblue" stroke="midnightblue" points="83.6278,-89.7885 73.2363,-87.7224 80.0713,-95.8178 83.6278,-89.7885"/>
</g>
<!-- Node9&#45;&gt;Node14 -->
<g id="edge23" class="edge"><title>Node9&#45;&gt;Node14</title>
<path fill="none" stroke="midnightblue" d="M67.7728,-96.1696C79.6503,-116.753 98.8193,-151.492 112,-182.951 122.102,-207.063 113.712,-218.502 130,-238.951 167.373,-285.873 190.002,-286.443 246,-307.951 332.29,-341.094 437.92,-358.452 506.29,-366.894"/>
<polygon fill="midnightblue" stroke="midnightblue" points="70.7922,-94.3995 62.731,-87.5244 64.7454,-97.926 70.7922,-94.3995"/>
</g>
<!-- Node10 -->
<g id="node10" class="node"><title>Node10</title>
<g id="a_node10"><a xlink:title=" ">
<polygon fill="white" stroke="#bfbfbf" points="35.5,-192.451 35.5,-211.451 76.5,-211.451 76.5,-192.451 35.5,-192.451"/>
<text text-anchor="middle" x="56" y="-199.451" font-family="Helvetica,sans-Serif" font-size="10.00">static</text>
</a>
</g>
</g>
<!-- Node10&#45;&gt;Node2 -->
<g id="edge26" class="edge"><title>Node10&#45;&gt;Node2</title>
<path fill="none" stroke="#9a32cd" stroke-dasharray="5,2" d="M76.0946,-185.685C90.2128,-174.346 110.325,-159.582 130,-149.951 259.197,-86.7104 296.156,-56.951 440,-56.951 440,-56.951 440,-56.951 846,-56.951 1072.39,-56.951 1148.93,-440.45 1160.42,-506.364"/>
<polygon fill="#9a32cd" stroke="#9a32cd" points="73.6393,-183.172 68.1361,-192.226 78.084,-188.58 73.6393,-183.172"/>
<text text-anchor="middle" x="578" y="-92.951" font-family="Helvetica,sans-Serif" font-size="10.00"> DefaultWarnCommandReplacement</text>
<text text-anchor="middle" x="578" y="-81.951" font-family="Helvetica,sans-Serif" font-size="10.00">DefaultOutputLevel</text>
<text text-anchor="middle" x="578" y="-70.951" font-family="Helvetica,sans-Serif" font-size="10.00">DefaultNumEquations</text>
<text text-anchor="middle" x="578" y="-59.951" font-family="Helvetica,sans-Serif" font-size="10.00">_interpreters</text>
</g>
<!-- Node10&#45;&gt;Node7 -->
<g id="edge14" class="edge"><title>Node10&#45;&gt;Node7</title>
<path fill="none" stroke="#9a32cd" stroke-dasharray="5,2" d="M86.0562,-191.325C122.733,-178.528 188.045,-157.778 246,-149.951 310.305,-141.266 327.932,-139.661 392,-149.951 453.273,-159.792 521.758,-186.867 555.634,-201.413"/>
<polygon fill="#9a32cd" stroke="#9a32cd" points="84.7603,-188.071 76.5006,-194.706 87.0953,-194.67 84.7603,-188.071"/>
<text text-anchor="middle" x="319" y="-174.951" font-family="Helvetica,sans-Serif" font-size="10.00"> _globalLock</text>
<text text-anchor="middle" x="319" y="-163.951" font-family="Helvetica,sans-Serif" font-size="10.00">_evaluatorGlobal</text>
<text text-anchor="middle" x="319" y="-152.951" font-family="Helvetica,sans-Serif" font-size="10.00">_register</text>
</g>
<!-- Node10&#45;&gt;Node8 -->
<g id="edge10" class="edge"><title>Node10&#45;&gt;Node8</title>
<path fill="none" stroke="#9a32cd" stroke-dasharray="5,2" d="M86.6247,-201.951C125.05,-201.951 193.364,-201.951 245.836,-201.951"/>
<polygon fill="#9a32cd" stroke="#9a32cd" points="86.6175,-198.451 76.6174,-201.951 86.6174,-205.451 86.6175,-198.451"/>
<text text-anchor="middle" x="179" y="-226.951" font-family="Helvetica,sans-Serif" font-size="10.00"> _lastId</text>
<text text-anchor="middle" x="179" y="-215.951" font-family="Helvetica,sans-Serif" font-size="10.00">DefaultOutputLevel</text>
<text text-anchor="middle" x="179" y="-204.951" font-family="Helvetica,sans-Serif" font-size="10.00">_idLock</text>
</g>
<!-- Node10&#45;&gt;Node14 -->
<g id="edge25" class="edge"><title>Node10&#45;&gt;Node14</title>
<path fill="none" stroke="#9a32cd" stroke-dasharray="5,2" d="M65.4976,-220.562C76.9536,-243.635 99.4876,-282.634 130,-304.951 241.707,-386.654 411.476,-388.562 506.41,-381.822"/>
<polygon fill="#9a32cd" stroke="#9a32cd" points="68.6217,-218.982 61.1495,-211.471 62.3069,-222.003 68.6217,-218.982"/>
<text text-anchor="middle" x="319" y="-407.951" font-family="Helvetica,sans-Serif" font-size="10.00"> _globalLock</text>
<text text-anchor="middle" x="319" y="-396.951" font-family="Helvetica,sans-Serif" font-size="10.00">_evaluatorGlobal</text>
<text text-anchor="middle" x="319" y="-385.951" font-family="Helvetica,sans-Serif" font-size="10.00">_register</text>
</g>
<!-- Node10&#45;&gt;Node17 -->
<g id="edge34" class="edge"><title>Node10&#45;&gt;Node17</title>
<path fill="none" stroke="#9a32cd" stroke-dasharray="5,2" d="M67.0864,-220.463C81.0129,-245.929 107.019,-293.138 130,-332.951 172.449,-406.49 195.447,-418.528 228,-496.951 240.481,-527.017 223.093,-544.82 246,-567.951 249.821,-571.809 254.326,-574.913 259.188,-577.405"/>
<polygon fill="#9a32cd" stroke="#9a32cd" points="70.0784,-218.64 62.2142,-211.54 63.9346,-221.994 70.0784,-218.64"/>
<text text-anchor="middle" x="179" y="-532.951" font-family="Helvetica,sans-Serif" font-size="10.00"> _isScriptingInitialized</text>
<text text-anchor="middle" x="179" y="-521.951" font-family="Helvetica,sans-Serif" font-size="10.00">_usedClassFullNames</text>
<text text-anchor="middle" x="179" y="-510.951" font-family="Helvetica,sans-Serif" font-size="10.00">_global</text>
<text text-anchor="middle" x="179" y="-499.951" font-family="Helvetica,sans-Serif" font-size="10.00">_defaultAssemblies</text>
</g>
<!-- Node11 -->
<g id="node11" class="node"><title>Node11</title>
<g id="a_node11"><a xlink:href="../../d5/d7a/interfaceIG_1_1Lib_1_1IRegisterable.html" target="_top" xlink:title=" ">
<polygon fill="white" stroke="black" points="253.5,-268.951 253.5,-298.951 384.5,-298.951 384.5,-268.951 253.5,-268.951"/>
<text text-anchor="start" x="261.5" y="-286.951" font-family="Helvetica,sans-Serif" font-size="10.00">IRegisterable&lt; Expression</text>
<text text-anchor="middle" x="319" y="-275.951" font-family="Helvetica,sans-Serif" font-size="10.00">EvaluatorJs &gt;</text>
</a>
</g>
</g>
<!-- Node11&#45;&gt;Node6 -->
<g id="edge17" class="edge"><title>Node11&#45;&gt;Node6</title>
<path fill="none" stroke="midnightblue" d="M394.54,-289.641C494.522,-297.273 670.971,-310.743 770.447,-318.336"/>
<polygon fill="midnightblue" stroke="midnightblue" points="394.753,-286.147 384.515,-288.876 394.22,-293.127 394.753,-286.147"/>
</g>
<!-- Node11&#45;&gt;Node7 -->
<g id="edge13" class="edge"><title>Node11&#45;&gt;Node7</title>
<path fill="none" stroke="midnightblue" d="M382.803,-266.112C433.434,-251.73 502.679,-232.062 543.342,-220.511"/>
<polygon fill="midnightblue" stroke="midnightblue" points="381.602,-262.815 372.939,-268.914 383.515,-269.548 381.602,-262.815"/>
</g>
<!-- Node11&#45;&gt;Node14 -->
<g id="edge24" class="edge"><title>Node11&#45;&gt;Node14</title>
<path fill="none" stroke="midnightblue" d="M380.65,-302.058C415.849,-313.153 456.259,-327.072 472,-336.951 481.583,-342.965 480.072,-349.525 490,-354.951 497.054,-358.807 504.832,-361.88 512.749,-364.33"/>
<polygon fill="midnightblue" stroke="midnightblue" points="381.474,-298.649 370.886,-299.009 379.388,-305.331 381.474,-298.649"/>
</g>
<!-- Node12 -->
<g id="node12" class="node"><title>Node12</title>
<g id="a_node12"><a xlink:title=" ">
<polygon fill="white" stroke="#bfbfbf" points="562,-326.451 562,-345.451 594,-345.451 594,-326.451 562,-326.451"/>
<text text-anchor="middle" x="578" y="-333.451" font-family="Helvetica,sans-Serif" font-size="10.00">Jint</text>
</a>
</g>
</g>
<!-- Node12&#45;&gt;Node6 -->
<g id="edge18" class="edge"><title>Node12&#45;&gt;Node6</title>
<path fill="none" stroke="#9a32cd" stroke-dasharray="5,2" d="M604.105,-334.814C641.838,-333.105 714.668,-329.808 770.227,-327.292"/>
<polygon fill="#9a32cd" stroke="#9a32cd" points="603.838,-331.323 594.007,-335.271 604.155,-338.315 603.838,-331.323"/>
<text text-anchor="middle" x="707" y="-334.951" font-family="Helvetica,sans-Serif" font-size="10.00"> _jsEngine</text>
</g>
<!-- Node13 -->
<g id="node13" class="node"><title>Node13</title>
<g id="a_node13"><a xlink:href="../../d8/d2b/classIG_1_1Lib_1_1CommandThread.html" target="_top" xlink:title="Contains stack frames and other command thread data for a single command thread of a command&#45;line int...">
<polygon fill="white" stroke="black" points="785.5,-628.451 785.5,-647.451 904.5,-647.451 904.5,-628.451 785.5,-628.451"/>
<text text-anchor="middle" x="845" y="-635.451" font-family="Helvetica,sans-Serif" font-size="10.00">IG.Lib.CommandThread</text>
</a>
</g>
</g>
<!-- Node13&#45;&gt;Node2 -->
<g id="edge19" class="edge"><title>Node13&#45;&gt;Node2</title>
<path fill="none" stroke="#9a32cd" stroke-dasharray="5,2" d="M907.013,-626.386C918.653,-624.035 930.72,-621.499 942,-618.951 955.196,-615.97 1047.73,-594.653 1060,-588.951 1096.73,-571.88 1133.93,-541.079 1151.53,-525.511"/>
<polygon fill="#9a32cd" stroke="#9a32cd" points="906.047,-623.01 896.926,-628.399 907.417,-629.874 906.047,-623.01"/>
<text text-anchor="middle" x="1010" y="-628.951" font-family="Helvetica,sans-Serif" font-size="10.00"> _globalThread</text>
<text text-anchor="middle" x="1010" y="-617.951" font-family="Helvetica,sans-Serif" font-size="10.00">_mainThread</text>
</g>
<!-- Node14&#45;&gt;Node2 -->
<g id="edge20" class="edge"><title>Node14&#45;&gt;Node2</title>
<path fill="none" stroke="#9a32cd" stroke-dasharray="5,2" d="M644.171,-385.326C737.295,-402.223 913.387,-436.561 1060,-478.951 1087.33,-486.852 1117.9,-498.305 1138.39,-506.371"/>
<polygon fill="#9a32cd" stroke="#9a32cd" points="644.517,-381.832 634.054,-383.5 643.274,-388.721 644.517,-381.832"/>
<text text-anchor="middle" x="845" y="-449.951" font-family="Helvetica,sans-Serif" font-size="10.00"> _evalutorJs</text>
</g>
<!-- Node15 -->
<g id="node15" class="node"><title>Node15</title>
<g id="a_node15"><a xlink:href="../../d6/d7c/classIG_1_1Lib_1_1LoadableScriptInterpreterBase.html" target="_top" xlink:title="Interpreter that can install commands from dynamically loaded (compiled) scripts and run them....">
<polygon fill="white" stroke="black" points="490,-539.451 490,-558.451 666,-558.451 666,-539.451 490,-539.451"/>
<text text-anchor="middle" x="578" y="-546.451" font-family="Helvetica,sans-Serif" font-size="10.00">IG.Lib.LoadableScriptInterpreterBase</text>
</a>
</g>
</g>
<!-- Node15&#45;&gt;Node2 -->
<g id="edge27" class="edge"><title>Node15&#45;&gt;Node2</title>
<path fill="none" stroke="#9a32cd" stroke-dasharray="5,2" d="M676.593,-543.427C788.938,-537.068 971.604,-526.728 1077.91,-520.711"/>
<polygon fill="#9a32cd" stroke="#9a32cd" points="676.067,-539.951 666.281,-544.011 676.463,-546.94 676.067,-539.951"/>
<text text-anchor="middle" x="845" y="-541.951" font-family="Helvetica,sans-Serif" font-size="10.00"> _loadableScriptInterpreter</text>
</g>
<!-- Node16&#45;&gt;Node15 -->
<g id="edge28" class="edge"><title>Node16&#45;&gt;Node15</title>
<path fill="none" stroke="midnightblue" d="M392.587,-548.951C422.828,-548.951 458.201,-548.951 489.834,-548.951"/>
<polygon fill="midnightblue" stroke="midnightblue" points="392.541,-545.451 382.541,-548.951 392.541,-552.451 392.541,-545.451"/>
</g>
<!-- Node17&#45;&gt;Node15 -->
<g id="edge30" class="edge"><title>Node17&#45;&gt;Node15</title>
<path fill="none" stroke="#9a32cd" stroke-dasharray="5,2" d="M390.275,-576.56C428.477,-570.912 475.386,-563.976 512.63,-558.469"/>
<polygon fill="#9a32cd" stroke="#9a32cd" points="389.636,-573.117 380.255,-578.042 390.66,-580.041 389.636,-573.117"/>
<text text-anchor="middle" x="441" y="-576.951" font-family="Helvetica,sans-Serif" font-size="10.00"> _scriptLoader</text>
</g>
<!-- Node18 -->
<g id="node18" class="node"><title>Node18</title>
<g id="a_node18"><a xlink:href="../../d7/d66/interfaceIG_1_1Lib_1_1ILoadableScript.html" target="_top" xlink:title="Interface for classes that can be dynamically loadeded from scripts and run, which provides functiona...">
<polygon fill="white" stroke="black" points="0,-622.451 0,-641.451 112,-641.451 112,-622.451 0,-622.451"/>
<text text-anchor="middle" x="56" y="-629.451" font-family="Helvetica,sans-Serif" font-size="10.00">IG.Lib.ILoadableScript</text>
</a>
</g>
</g>
<!-- Node18&#45;&gt;Node17 -->
<g id="edge32" class="edge"><title>Node18&#45;&gt;Node17</title>
<path fill="none" stroke="#9a32cd" stroke-dasharray="5,2" d="M122.343,-623.546C154.291,-619.144 193.253,-613.343 228,-606.951 244.372,-603.939 262.295,-600.074 277.807,-596.545"/>
<polygon fill="#9a32cd" stroke="#9a32cd" points="121.667,-620.105 112.232,-624.924 122.613,-627.041 121.667,-620.105"/>
<text text-anchor="middle" x="179" y="-625.951" font-family="Helvetica,sans-Serif" font-size="10.00"> _runnableObject</text>
</g>
<!-- Node19 -->
<g id="node19" class="node"><title>Node19</title>
<g id="a_node19"><a xlink:href="../../d7/df0/classIG_1_1Lib_1_1Logger.html" target="_top" xlink:title="Temporary logging of errors, warnings and infos for later processing. It is used to log multiple even...">
<polygon fill="white" stroke="black" points="19,-584.451 19,-603.451 93,-603.451 93,-584.451 19,-584.451"/>
<text text-anchor="middle" x="56" y="-591.451" font-family="Helvetica,sans-Serif" font-size="10.00">IG.Lib.Logger</text>
</a>
</g>
</g>
<!-- Node19&#45;&gt;Node17 -->
<g id="edge33" class="edge"><title>Node19&#45;&gt;Node17</title>
<path fill="none" stroke="#9a32cd" stroke-dasharray="5,2" d="M103.212,-592.712C146.279,-591.557 210.754,-589.827 257.824,-588.565"/>
<polygon fill="#9a32cd" stroke="#9a32cd" points="102.919,-589.218 93.0169,-592.985 103.107,-596.216 102.919,-589.218"/>
<text text-anchor="middle" x="179" y="-594.951" font-family="Helvetica,sans-Serif" font-size="10.00"> _logger</text>
</g>
<!-- Node20 -->
<g id="node20" class="node"><title>Node20</title>
<g id="a_node20"><a xlink:href="../../dc/da7/classIG_1_1Num_1_1ParallelJobDispatcherGen.html" target="_top" xlink:title=" ">
<polygon fill="white" stroke="black" points="748,-568.451 748,-609.451 942,-609.451 942,-568.451 748,-568.451"/>
<text text-anchor="start" x="756" y="-597.451" font-family="Helvetica,sans-Serif" font-size="10.00">IG.Num.ParallelJobDispatcher</text>
<text text-anchor="start" x="756" y="-586.451" font-family="Helvetica,sans-Serif" font-size="10.00">Gen&lt; IG.Lib.CommandLineJobContainer,</text>
<text text-anchor="middle" x="845" y="-575.451" font-family="Helvetica,sans-Serif" font-size="10.00"> IG.Lib.CommandLineJobContainer &gt;</text>
</a>
</g>
</g>
<!-- Node20&#45;&gt;Node2 -->
<g id="edge35" class="edge"><title>Node20&#45;&gt;Node2</title>
<path fill="none" stroke="#9a32cd" stroke-dasharray="5,2" d="M952.27,-574.972C986.904,-569.383 1025.35,-562.07 1060,-552.951 1087.87,-545.616 1118.86,-533.833 1139.29,-525.538"/>
<polygon fill="#9a32cd" stroke="#9a32cd" points="951.462,-571.556 942.133,-576.577 952.557,-578.47 951.462,-571.556"/>
<text text-anchor="middle" x="1010" y="-576.951" font-family="Helvetica,sans-Serif" font-size="10.00"> _parallelDispatcher</text>
</g>
</g>
</svg>
        <g id="navigator" transform="translate(0 0)" fill="#404254">
                <rect fill="#f2f5e9" fill-opacity="0.5" stroke="#606060" stroke-width=".5" x="0" y="0" width="60" height="60"/>
                <use id="zoomplus" xlink:href="#zoomPlus" x="17" y="9" onmousedown="handleZoom(evt,'in')"/>
                <use id="zoomminus" xlink:href="#zoomMin" x="42" y="9" onmousedown="handleZoom(evt,'out')"/>
                <use id="reset" xlink:href="#resetDef" x="30" y="36" onmousedown="handleReset()"/>
                <g id="arrowUp" xlink:href="#dirArrow" transform="translate(30 24)" onmousedown="handlePan(0,-1)">
                  <use xlink:href="#rim" fill="#404040">
                        <set attributeName="fill" to="#808080" begin="arrowUp.mouseover" end="arrowUp.mouseout"/>
                  </use>
                  <path fill="none" stroke="white" stroke-width="1.5" d="M0,-3.0v7 M-2.5,-0.5L0,-3.0L2.5,-0.5"/>
                </g>
                <g id="arrowRight" xlink:href="#dirArrow" transform="rotate(90) translate(36 -43)" onmousedown="handlePan(1,0)">
                  <use xlink:href="#rim" fill="#404040">
                        <set attributeName="fill" to="#808080" begin="arrowRight.mouseover" end="arrowRight.mouseout"/>
                  </use>
                  <path fill="none" stroke="white" stroke-width="1.5" d="M0,-3.0v7 M-2.5,-0.5L0,-3.0L2.5,-0.5"/>
                </g>
                <g id="arrowDown" xlink:href="#dirArrow" transform="rotate(180) translate(-30 -48)" onmousedown="handlePan(0,1)">
                  <use xlink:href="#rim" fill="#404040">
                        <set attributeName="fill" to="#808080" begin="arrowDown.mouseover" end="arrowDown.mouseout"/>
                  </use>
                  <path fill="none" stroke="white" stroke-width="1.5" d="M0,-3.0v7 M-2.5,-0.5L0,-3.0L2.5,-0.5"/>
                </g>
                <g id="arrowLeft" xlink:href="#dirArrow" transform="rotate(270) translate(-36 17)" onmousedown="handlePan(-1,0)">
                  <use xlink:href="#rim" fill="#404040">
                        <set attributeName="fill" to="#808080" begin="arrowLeft.mouseover" end="arrowLeft.mouseout"/>
                  </use>
                  <path fill="none" stroke="white" stroke-width="1.5" d="M0,-3.0v7 M-2.5,-0.5L0,-3.0L2.5,-0.5"/>
                </g>
        </g>
        <svg viewBox="0 0 15 15" width="100%" height="30px" preserveAspectRatio="xMaxYMin meet">
         <g id="arrow_out" transform="scale(0.3 0.3)">
          <a xlink:href="classIG_1_1Lib_1_1CommandLineApplicationScriptInterpreter__coll__graph_org.svg" target="_base">
           <rect id="button" ry="5" rx="5" y="6" x="6" height="38" width="38"
                fill="#f2f5e9" fill-opacity="0.5" stroke="#606060" stroke-width="1.0"/>
           <path id="arrow"
             d="M 11.500037,31.436501 C 11.940474,20.09759 22.043105,11.32322 32.158766,21.979434 L 37.068811,17.246167 C 37.068811,17.246167 37.088388,32 37.088388,32 L 22.160133,31.978069 C 22.160133,31.978069 26.997745,27.140456 26.997745,27.140456 C 18.528582,18.264221 13.291696,25.230495 11.500037,31.436501 z"
             style="fill:#404040;"/>
          </a>
         </g>
        </svg>
</svg>
