<?xml version="1.0" encoding="UTF-8" standalone="no"?>
<!DOCTYPE svg PUBLIC "-//W3C//DTD SVG 1.1//EN"
 "http://www.w3.org/Graphics/SVG/1.1/DTD/svg11.dtd">
<!-- Generated by graphviz version 2.38.0 (20140413.2041)
 -->
<!-- Title: IG.Num.IDistanceComparer&lt; PointContainerType, PointType &gt; Pages: 1 -->
<svg width="177pt" height="173pt"
 viewBox="0.00 0.00 177.00 173.00" xmlns="http://www.w3.org/2000/svg" xmlns:xlink="http://www.w3.org/1999/xlink">
<g id="graph0" class="graph" transform="scale(1 1) rotate(0) translate(4 169)">
<title>IG.Num.IDistanceComparer&lt; PointContainerType, PointType &gt;</title>
<polygon fill="white" stroke="none" points="-4,4 -4,-169 173,-169 173,4 -4,4"/>
<!-- Node1 -->
<g id="node1" class="node"><title>Node1</title>
<g id="a_node1"><a xlink:title="Interface used for distance comparers in point clouds.">
<polygon fill="#bfbfbf" stroke="black" points="0,-67.5 0,-97.5 169,-97.5 169,-67.5 0,-67.5"/>
<text text-anchor="start" x="8" y="-85.5" font-family="Helvetica,sans-Serif" font-size="10.00">IG.Num.IDistanceComparer</text>
<text text-anchor="middle" x="84.5" y="-74.5" font-family="Helvetica,sans-Serif" font-size="10.00">&lt; PointContainerType, PointType &gt;</text>
</a>
</g>
</g>
<!-- Node3 -->
<g id="node3" class="node"><title>Node3</title>
<g id="a_node3"><a xlink:href="../../d0/dab/classIG_1_1Num_1_1DistanceComparer.html" target="_top" xlink:title="Class that is used to calculate and compare distances between point containers.">
<polygon fill="white" stroke="black" points="0,-0.5 0,-30.5 169,-30.5 169,-0.5 0,-0.5"/>
<text text-anchor="start" x="8" y="-18.5" font-family="Helvetica,sans-Serif" font-size="10.00">IG::Num::DistanceComparer</text>
<text text-anchor="middle" x="84.5" y="-7.5" font-family="Helvetica,sans-Serif" font-size="10.00">&lt; PointContainerType, PointType &gt;</text>
</a>
</g>
</g>
<!-- Node1&#45;&gt;Node3 -->
<g id="edge2" class="edge"><title>Node1&#45;&gt;Node3</title>
<path fill="none" stroke="midnightblue" d="M84.5,-57.1081C84.5,-48.1539 84.5,-38.3227 84.5,-30.5765"/>
<polygon fill="midnightblue" stroke="midnightblue" points="81.0001,-57.3959 84.5,-67.396 88.0001,-57.396 81.0001,-57.3959"/>
</g>
<!-- Node2 -->
<g id="node2" class="node"><title>Node2</title>
<g id="a_node2"><a xlink:title=" ">
<polygon fill="white" stroke="#bfbfbf" points="17.5,-134.5 17.5,-164.5 151.5,-164.5 151.5,-134.5 17.5,-134.5"/>
<text text-anchor="start" x="25.5" y="-152.5" font-family="Helvetica,sans-Serif" font-size="10.00">IComparer&lt; PointContainer</text>
<text text-anchor="middle" x="84.5" y="-141.5" font-family="Helvetica,sans-Serif" font-size="10.00">Type &gt;</text>
</a>
</g>
</g>
<!-- Node2&#45;&gt;Node1 -->
<g id="edge1" class="edge"><title>Node2&#45;&gt;Node1</title>
<path fill="none" stroke="midnightblue" d="M84.5,-124.108C84.5,-115.154 84.5,-105.323 84.5,-97.5765"/>
<polygon fill="midnightblue" stroke="midnightblue" points="81.0001,-124.396 84.5,-134.396 88.0001,-124.396 81.0001,-124.396"/>
</g>
</g>
</svg>
