<?xml version="1.0" encoding="UTF-8" standalone="no"?>
<!DOCTYPE svg PUBLIC "-//W3C//DTD SVG 1.1//EN"
 "http://www.w3.org/Graphics/SVG/1.1/DTD/svg11.dtd">
<!-- Generated by graphviz version 2.38.0 (20140413.2041)
 -->
<!-- Title: IG.Lib.IObjectStore&lt; T &gt; Pages: 1 -->
<svg width="292pt" height="140pt"
 viewBox="0.00 0.00 292.00 140.00" xmlns="http://www.w3.org/2000/svg" xmlns:xlink="http://www.w3.org/1999/xlink">
<g id="graph0" class="graph" transform="scale(1 1) rotate(0) translate(4 136)">
<title>IG.Lib.IObjectStore&lt; T &gt;</title>
<polygon fill="white" stroke="none" points="-4,4 -4,-136 288,-136 288,4 -4,4"/>
<!-- Node1 -->
<g id="node1" class="node"><title>Node1</title>
<g id="a_node1"><a xlink:title="Object store. Objects of the specified type can be stored here for later reuse (efficiency improvemen...">
<polygon fill="#bfbfbf" stroke="black" points="80,-112.5 80,-131.5 202,-131.5 202,-112.5 80,-112.5"/>
<text text-anchor="middle" x="141" y="-119.5" font-family="Helvetica,sans-Serif" font-size="10.00">IG.Lib.IObjectStore&lt; T &gt;</text>
</a>
</g>
</g>
<!-- Node2 -->
<g id="node2" class="node"><title>Node2</title>
<g id="a_node2"><a xlink:href="../../d7/d24/classIG_1_1Lib_1_1ObjectStore.html" target="_top" xlink:title="Object store. Objects of the specified type can be stored here for later reuse (efficiency improvemen...">
<polygon fill="white" stroke="black" points="78,-56.5 78,-75.5 204,-75.5 204,-56.5 78,-56.5"/>
<text text-anchor="middle" x="141" y="-63.5" font-family="Helvetica,sans-Serif" font-size="10.00">IG::Lib::ObjectStore&lt; T &gt;</text>
</a>
</g>
</g>
<!-- Node1&#45;&gt;Node2 -->
<g id="edge1" class="edge"><title>Node1&#45;&gt;Node2</title>
<path fill="none" stroke="midnightblue" d="M141,-101.805C141,-92.9102 141,-82.7798 141,-75.7511"/>
<polygon fill="midnightblue" stroke="midnightblue" points="137.5,-102.083 141,-112.083 144.5,-102.083 137.5,-102.083"/>
</g>
<!-- Node3 -->
<g id="node3" class="node"><title>Node3</title>
<g id="a_node3"><a xlink:href="../../d9/dd3/classIG_1_1Num_1_1MatrixStore.html" target="_top" xlink:title="Matrix store.">
<polygon fill="white" stroke="black" points="0,-0.5 0,-19.5 132,-19.5 132,-0.5 0,-0.5"/>
<text text-anchor="middle" x="66" y="-7.5" font-family="Helvetica,sans-Serif" font-size="10.00">IG::Num::MatrixStore&lt; T &gt;</text>
</a>
</g>
</g>
<!-- Node2&#45;&gt;Node3 -->
<g id="edge2" class="edge"><title>Node2&#45;&gt;Node3</title>
<path fill="none" stroke="midnightblue" d="M120.695,-50.3804C107.139,-40.6204 89.7579,-28.1057 78.2693,-19.8339"/>
<polygon fill="midnightblue" stroke="midnightblue" points="118.79,-53.3213 128.95,-56.324 122.88,-47.6405 118.79,-53.3213"/>
</g>
<!-- Node4 -->
<g id="node4" class="node"><title>Node4</title>
<g id="a_node4"><a xlink:href="../../d8/d28/classIG_1_1Num_1_1VectorStore.html" target="_top" xlink:title="Vector store.">
<polygon fill="white" stroke="black" points="150,-0.5 150,-19.5 284,-19.5 284,-0.5 150,-0.5"/>
<text text-anchor="middle" x="217" y="-7.5" font-family="Helvetica,sans-Serif" font-size="10.00">IG::Num::VectorStore&lt; T &gt;</text>
</a>
</g>
</g>
<!-- Node2&#45;&gt;Node4 -->
<g id="edge3" class="edge"><title>Node2&#45;&gt;Node4</title>
<path fill="none" stroke="midnightblue" d="M161.576,-50.3804C175.312,-40.6204 192.925,-28.1057 204.567,-19.8339"/>
<polygon fill="midnightblue" stroke="midnightblue" points="159.335,-47.6787 153.211,-56.324 163.39,-53.385 159.335,-47.6787"/>
</g>
</g>
</svg>
