<?xml version="1.0" encoding="UTF-8" standalone="no"?>
<!DOCTYPE svg PUBLIC "-//W3C//DTD SVG 1.1//EN"
 "http://www.w3.org/Graphics/SVG/1.1/DTD/svg11.dtd">
<!-- Generated by graphviz version 2.38.0 (20140413.2041)
 -->
<!-- Title: IGLib.Core.Extended.TypeConversionHelper Pages: 1 -->
<svg width="207pt" height="128pt"
 viewBox="0.00 0.00 206.50 128.00" xmlns="http://www.w3.org/2000/svg" xmlns:xlink="http://www.w3.org/1999/xlink">
<g id="graph0" class="graph" transform="scale(1 1) rotate(0) translate(4 124)">
<title>IGLib.Core.Extended.TypeConversionHelper</title>
<polygon fill="white" stroke="none" points="-4,4 -4,-124 202.5,-124 202.5,4 -4,4"/>
<!-- Node1 -->
<g id="node1" class="node"><title>Node1</title>
<g id="a_node1"><a xlink:title=" ">
<polygon fill="#bfbfbf" stroke="black" points="0,-0.5 0,-30.5 131,-30.5 131,-0.5 0,-0.5"/>
<text text-anchor="start" x="8" y="-18.5" font-family="Helvetica,sans-Serif" font-size="10.00">IGLib.Core.Extended.Type</text>
<text text-anchor="middle" x="65.5" y="-7.5" font-family="Helvetica,sans-Serif" font-size="10.00">ConversionHelper</text>
</a>
</g>
</g>
<!-- Node2 -->
<g id="node2" class="node"><title>Node2</title>
<g id="a_node2"><a xlink:title=" ">
<polygon fill="white" stroke="#bfbfbf" points="45,-100.5 45,-119.5 86,-119.5 86,-100.5 45,-100.5"/>
<text text-anchor="middle" x="65.5" y="-107.5" font-family="Helvetica,sans-Serif" font-size="10.00">static</text>
</a>
</g>
</g>
<!-- Node2&#45;&gt;Node1 -->
<g id="edge1" class="edge"><title>Node2&#45;&gt;Node1</title>
<path fill="none" stroke="#9a32cd" stroke-dasharray="5,2" d="M65.5,-90.2869C65.5,-72.6698 65.5,-46.6699 65.5,-30.6999"/>
<polygon fill="#9a32cd" stroke="#9a32cd" points="62.0001,-90.4636 65.5,-100.464 69.0001,-90.4637 62.0001,-90.4636"/>
<text text-anchor="middle" x="132" y="-74" font-family="Helvetica,sans-Serif" font-size="10.00"> _instance</text>
<text text-anchor="middle" x="132" y="-63" font-family="Helvetica,sans-Serif" font-size="10.00">TypeConversionHelperInstance</text>
<text text-anchor="middle" x="132" y="-52" font-family="Helvetica,sans-Serif" font-size="10.00">Instance</text>
</g>
</g>
</svg>
