<?xml version="1.0" encoding="UTF-8" standalone="no"?>
<!DOCTYPE svg PUBLIC "-//W3C//DTD SVG 1.1//EN"
 "http://www.w3.org/Graphics/SVG/1.1/DTD/svg11.dtd">
<!-- Generated by graphviz version 2.38.0 (20140413.2041)
 -->
<!-- Title: IGLib.Core.ArrayAccessor&lt; ElementType &gt; Pages: 1 -->
<svg width="306pt" height="173pt"
 viewBox="0.00 0.00 306.00 173.00" xmlns="http://www.w3.org/2000/svg" xmlns:xlink="http://www.w3.org/1999/xlink">
<g id="graph0" class="graph" transform="scale(1 1) rotate(0) translate(4 169)">
<title>IGLib.Core.ArrayAccessor&lt; ElementType &gt;</title>
<polygon fill="white" stroke="none" points="-4,4 -4,-169 302,-169 302,4 -4,4"/>
<!-- Node1 -->
<g id="node1" class="node"><title>Node1</title>
<g id="a_node1"><a xlink:title="Provides read/write access to elements of a fixed array. This is typically used to access array&#45;like ...">
<polygon fill="#bfbfbf" stroke="black" points="75,-0.5 75,-30.5 205,-30.5 205,-0.5 75,-0.5"/>
<text text-anchor="start" x="83" y="-18.5" font-family="Helvetica,sans-Serif" font-size="10.00">IGLib.Core.ArrayAccessor</text>
<text text-anchor="middle" x="140" y="-7.5" font-family="Helvetica,sans-Serif" font-size="10.00">&lt; ElementType &gt;</text>
</a>
</g>
</g>
<!-- Node2 -->
<g id="node2" class="node"><title>Node2</title>
<g id="a_node2"><a xlink:href="../../db/df7/classIGLib_1_1Core_1_1ReadonlyArrayAccessor.html" target="_top" xlink:title="Provides readonly access to elements of a fixed array. This is typically used to access array&#45;like in...">
<polygon fill="white" stroke="black" points="0,-67.5 0,-97.5 122,-97.5 122,-67.5 0,-67.5"/>
<text text-anchor="start" x="8" y="-85.5" font-family="Helvetica,sans-Serif" font-size="10.00">ReadonlyArrayAccessor</text>
<text text-anchor="middle" x="61" y="-74.5" font-family="Helvetica,sans-Serif" font-size="10.00">&lt; ElementType &gt;</text>
</a>
</g>
</g>
<!-- Node2&#45;&gt;Node1 -->
<g id="edge1" class="edge"><title>Node2&#45;&gt;Node1</title>
<path fill="none" stroke="midnightblue" d="M86.0573,-60.8832C98.0626,-51.0054 112.132,-39.4293 122.892,-30.5765"/>
<polygon fill="midnightblue" stroke="midnightblue" points="83.6402,-58.3395 78.1418,-67.396 88.0878,-63.745 83.6402,-58.3395"/>
</g>
<!-- Node3 -->
<g id="node3" class="node"><title>Node3</title>
<g id="a_node3"><a xlink:href="../../d4/d68/interfaceIGLib_1_1Core_1_1IReadonlyArrayAccessor.html" target="_top" xlink:title="Provides read only access to elements of an underlying onedimensional array&#45;like structure.">
<polygon fill="white" stroke="black" points="78,-134.5 78,-164.5 202,-164.5 202,-134.5 78,-134.5"/>
<text text-anchor="start" x="86" y="-152.5" font-family="Helvetica,sans-Serif" font-size="10.00">IReadonlyArrayAccessor</text>
<text text-anchor="middle" x="140" y="-141.5" font-family="Helvetica,sans-Serif" font-size="10.00">&lt; ElementType &gt;</text>
</a>
</g>
</g>
<!-- Node3&#45;&gt;Node2 -->
<g id="edge2" class="edge"><title>Node3&#45;&gt;Node2</title>
<path fill="none" stroke="midnightblue" d="M114.943,-127.883C102.937,-118.005 88.8679,-106.429 78.1084,-97.5765"/>
<polygon fill="midnightblue" stroke="midnightblue" points="112.912,-130.745 122.858,-134.396 117.36,-125.34 112.912,-130.745"/>
</g>
<!-- Node4 -->
<g id="node4" class="node"><title>Node4</title>
<g id="a_node4"><a xlink:href="../../d7/df3/interfaceIGLib_1_1Core_1_1IArrayAccessor.html" target="_top" xlink:title=" ">
<polygon fill="white" stroke="black" points="140,-73 140,-92 298,-92 298,-73 140,-73"/>
<text text-anchor="middle" x="219" y="-80" font-family="Helvetica,sans-Serif" font-size="10.00">IArrayAccessor&lt; ElementType &gt;</text>
</a>
</g>
</g>
<!-- Node3&#45;&gt;Node4 -->
<g id="edge4" class="edge"><title>Node3&#45;&gt;Node4</title>
<path fill="none" stroke="midnightblue" d="M164.906,-128.008C179.571,-115.941 197.361,-101.305 208.433,-92.1945"/>
<polygon fill="midnightblue" stroke="midnightblue" points="162.64,-125.34 157.142,-134.396 167.088,-130.745 162.64,-125.34"/>
</g>
<!-- Node4&#45;&gt;Node1 -->
<g id="edge3" class="edge"><title>Node4&#45;&gt;Node1</title>
<path fill="none" stroke="midnightblue" d="M200.45,-66.2371C187.341,-55.4518 169.901,-41.1025 157.124,-30.589"/>
<polygon fill="midnightblue" stroke="midnightblue" points="198.4,-69.0829 208.346,-72.7338 202.847,-63.6774 198.4,-69.0829"/>
</g>
</g>
</svg>
