<?xml version="1.0" encoding="UTF-8" standalone="no"?>
<!DOCTYPE svg PUBLIC "-//W3C//DTD SVG 1.1//EN"
 "http://www.w3.org/Graphics/SVG/1.1/DTD/svg11.dtd">
<!-- Generated by graphviz version 2.38.0 (20140413.2041)
 -->
<!-- Title: IG.Num.AnalysisResults Pages: 1 -->
<svg width="382pt" height="117pt"
 viewBox="0.00 0.00 381.50 117.00" xmlns="http://www.w3.org/2000/svg" xmlns:xlink="http://www.w3.org/1999/xlink">
<g id="graph0" class="graph" transform="scale(1 1) rotate(0) translate(4 113)">
<title>IG.Num.AnalysisResults</title>
<polygon fill="white" stroke="none" points="-4,4 -4,-113 377.5,-113 377.5,4 -4,4"/>
<!-- Node1 -->
<g id="node1" class="node"><title>Node1</title>
<g id="a_node1"><a xlink:title="Single objective optimization analysis results. Used to transfer parameters input (e....">
<polygon fill="#bfbfbf" stroke="black" points="116,-0.5 116,-19.5 239,-19.5 239,-0.5 116,-0.5"/>
<text text-anchor="middle" x="177.5" y="-7.5" font-family="Helvetica,sans-Serif" font-size="10.00">IG.Num.AnalysisResults</text>
</a>
</g>
</g>
<!-- Node2 -->
<g id="node2" class="node"><title>Node2</title>
<g id="a_node2"><a xlink:href="../../d4/d34/interfaceIG_1_1Num_1_1IAnalysisResults.html" target="_top" xlink:title="Single objective optimization analysis results. Used to transfer parameters input (e....">
<polygon fill="white" stroke="black" points="0,-84 0,-103 89,-103 89,-84 0,-84"/>
<text text-anchor="middle" x="44.5" y="-91" font-family="Helvetica,sans-Serif" font-size="10.00">IAnalysisResults</text>
</a>
</g>
</g>
<!-- Node2&#45;&gt;Node1 -->
<g id="edge1" class="edge"><title>Node2&#45;&gt;Node1</title>
<path fill="none" stroke="midnightblue" d="M67.3382,-78.5052C94.9132,-61.6077 140.437,-33.7114 163.369,-19.6592"/>
<polygon fill="midnightblue" stroke="midnightblue" points="65.4311,-75.5689 58.7333,-83.7781 69.0885,-81.5374 65.4311,-75.5689"/>
</g>
<!-- Node3 -->
<g id="node3" class="node"><title>Node3</title>
<g id="a_node3"><a xlink:href="../../d8/d86/interfaceIG_1_1Num_1_1IMatrix.html" target="_top" xlink:title="Generic Matrix interface.">
<polygon fill="white" stroke="black" points="107.5,-78.5 107.5,-108.5 247.5,-108.5 247.5,-78.5 107.5,-78.5"/>
<text text-anchor="start" x="115.5" y="-96.5" font-family="Helvetica,sans-Serif" font-size="10.00">IG.Num.IMatrix&lt; Component</text>
<text text-anchor="middle" x="177.5" y="-85.5" font-family="Helvetica,sans-Serif" font-size="10.00">Type &gt;</text>
</a>
</g>
</g>
<!-- Node3&#45;&gt;Node1 -->
<g id="edge2" class="edge"><title>Node3&#45;&gt;Node1</title>
<path fill="none" stroke="#9a32cd" stroke-dasharray="5,2" d="M177.5,-68.2485C177.5,-51.781 177.5,-30.9886 177.5,-19.5391"/>
<polygon fill="#9a32cd" stroke="#9a32cd" points="174,-68.3037 177.5,-78.3038 181,-68.3038 174,-68.3037"/>
<text text-anchor="middle" x="218.5" y="-46.5" font-family="Helvetica,sans-Serif" font-size="10.00"> _objectiveHessian</text>
</g>
<!-- Node4 -->
<g id="node4" class="node"><title>Node4</title>
<g id="a_node4"><a xlink:href="../../d3/d24/interfaceIG_1_1Num_1_1IVector.html" target="_top" xlink:title="Generic Vector interface">
<polygon fill="white" stroke="black" points="266,-84 266,-103 373,-103 373,-84 266,-84"/>
<text text-anchor="middle" x="319.5" y="-91" font-family="Helvetica,sans-Serif" font-size="10.00">IG.Num.IVector&lt; T &gt;</text>
</a>
</g>
</g>
<!-- Node4&#45;&gt;Node1 -->
<g id="edge3" class="edge"><title>Node4&#45;&gt;Node1</title>
<path fill="none" stroke="#9a32cd" stroke-dasharray="5,2" d="M306.188,-75.8881C295.731,-63.8336 280.187,-47.9575 263.5,-38 249.659,-29.7403 233.033,-23.7563 218.105,-19.5539"/>
<polygon fill="#9a32cd" stroke="#9a32cd" points="303.747,-78.4249 312.847,-83.851 309.117,-73.9344 303.747,-78.4249"/>
<text text-anchor="middle" x="332" y="-52" font-family="Helvetica,sans-Serif" font-size="10.00"> _objectiveGradient</text>
<text text-anchor="middle" x="332" y="-41" font-family="Helvetica,sans-Serif" font-size="10.00">_parameters</text>
</g>
</g>
</svg>
