<?xml version="1.0" encoding="UTF-8" standalone="no"?>
<!DOCTYPE svg PUBLIC "-//W3C//DTD SVG 1.1//EN"
 "http://www.w3.org/Graphics/SVG/1.1/DTD/svg11.dtd">
<!-- Generated by graphviz version 2.38.0 (20140413.2041)
 -->
<!-- Title: IG.Lib.IIdentifiable Pages: 1 -->
<svg width="674pt" height="667pt"
 viewBox="0.00 0.00 674.00 666.50" xmlns="http://www.w3.org/2000/svg" xmlns:xlink="http://www.w3.org/1999/xlink">
<g id="graph0" class="graph" transform="scale(1 1) rotate(0) translate(4 662.5)">
<title>IG.Lib.IIdentifiable</title>
<polygon fill="white" stroke="none" points="-4,4 -4,-662.5 670,-662.5 670,4 -4,4"/>
<!-- Node1 -->
<g id="node1" class="node"><title>Node1</title>
<g id="a_node1"><a xlink:title="Classes whose instances have unique integer IDs.">
<polygon fill="#bfbfbf" stroke="black" points="0,-295 0,-314 93,-314 93,-295 0,-295"/>
<text text-anchor="middle" x="46.5" y="-302" font-family="Helvetica,sans-Serif" font-size="10.00">IG.Lib.IIdentifiable</text>
</a>
</g>
</g>
<!-- Node2 -->
<g id="node2" class="node"><title>Node2</title>
<g id="a_node2"><a xlink:href="../../d1/d25/classIG_1_1Lib_1_1CommandLineJobContainer.html" target="_top" xlink:title="Carries command execution data, results, and other data such as identification number,...">
<polygon fill="white" stroke="black" points="129,-639 129,-658 293,-658 293,-639 129,-639"/>
<text text-anchor="middle" x="211" y="-646" font-family="Helvetica,sans-Serif" font-size="10.00">IG.Lib.CommandLineJobContainer</text>
</a>
</g>
</g>
<!-- Node1&#45;&gt;Node2 -->
<g id="edge1" class="edge"><title>Node1&#45;&gt;Node2</title>
<path fill="none" stroke="midnightblue" d="M49.9617,-324.208C58.1736,-386.926 86.5311,-580.356 129,-624.5 135.101,-630.842 142.792,-635.529 150.992,-638.989"/>
<polygon fill="midnightblue" stroke="midnightblue" points="53.407,-323.558 48.6639,-314.084 46.4638,-324.448 53.407,-323.558"/>
</g>
<!-- Node3 -->
<g id="node3" class="node"><title>Node3</title>
<g id="a_node3"><a xlink:href="../../d8/d2b/classIG_1_1Lib_1_1CommandThread.html" target="_top" xlink:title="Contains stack frames and other command thread data for a single command thread of a command&#45;line int...">
<polygon fill="white" stroke="black" points="331,-571 331,-612 479,-612 479,-571 331,-571"/>
<text text-anchor="start" x="339" y="-600" font-family="Helvetica,sans-Serif" font-size="10.00">IG.Lib.CommandThread</text>
<text text-anchor="start" x="339" y="-589" font-family="Helvetica,sans-Serif" font-size="10.00">&lt; InterpreterType, FrameType,</text>
<text text-anchor="middle" x="405" y="-578" font-family="Helvetica,sans-Serif" font-size="10.00"> ThreadType &gt;</text>
</a>
</g>
</g>
<!-- Node1&#45;&gt;Node3 -->
<g id="edge2" class="edge"><title>Node1&#45;&gt;Node3</title>
<path fill="none" stroke="midnightblue" d="M50.0304,-324.216C58.089,-383.554 85.2256,-558.426 129,-591.5 188.424,-636.399 277.543,-626.577 338.1,-612.053"/>
<polygon fill="midnightblue" stroke="midnightblue" points="53.4935,-323.705 48.7107,-314.252 46.5541,-324.625 53.4935,-323.705"/>
</g>
<!-- Node4 -->
<g id="node4" class="node"><title>Node4</title>
<g id="a_node4"><a xlink:href="../../dd/dd7/classIG_1_1Lib_1_1CommandThreadBase.html" target="_top" xlink:title="Base class for classes of type CommandThread&lt;InterpreterType, FrameType, ThreadType&gt;....">
<polygon fill="white" stroke="black" points="140.5,-563 140.5,-582 281.5,-582 281.5,-563 140.5,-563"/>
<text text-anchor="middle" x="211" y="-570" font-family="Helvetica,sans-Serif" font-size="10.00">IG.Lib.CommandThreadBase</text>
</a>
</g>
</g>
<!-- Node1&#45;&gt;Node4 -->
<g id="edge3" class="edge"><title>Node1&#45;&gt;Node4</title>
<path fill="none" stroke="midnightblue" d="M47.7908,-324.224C49.6067,-371.34 61.0383,-491.14 129,-553.5 133.151,-557.309 137.917,-560.398 143.014,-562.898"/>
<polygon fill="midnightblue" stroke="midnightblue" points="51.2867,-324.025 47.5115,-314.125 44.2894,-324.218 51.2867,-324.025"/>
</g>
<!-- Node5 -->
<g id="node5" class="node"><title>Node5</title>
<g id="a_node5"><a xlink:href="../../dd/dec/classIG_1_1Lib_1_1ExpressionEvaluatorCompiled.html" target="_top" xlink:title="Base class for expression evaluators that utilize the functionality of CodeDomProvider class.">
<polygon fill="white" stroke="black" points="144,-513.5 144,-543.5 278,-543.5 278,-513.5 144,-513.5"/>
<text text-anchor="start" x="152" y="-531.5" font-family="Helvetica,sans-Serif" font-size="10.00">IG.Lib.ExpressionEvaluator</text>
<text text-anchor="middle" x="211" y="-520.5" font-family="Helvetica,sans-Serif" font-size="10.00">Compiled</text>
</a>
</g>
</g>
<!-- Node1&#45;&gt;Node5 -->
<g id="edge5" class="edge"><title>Node1&#45;&gt;Node5</title>
<path fill="none" stroke="midnightblue" d="M50.438,-324.036C57.2436,-362.656 77.6159,-449.28 129,-498.5 135.389,-504.62 143.136,-509.513 151.275,-513.419"/>
<polygon fill="midnightblue" stroke="midnightblue" points="53.878,-323.385 48.8025,-314.085 46.9707,-324.52 53.878,-323.385"/>
</g>
<!-- Node6 -->
<g id="node6" class="node"><title>Node6</title>
<g id="a_node6"><a xlink:href="../../da/d42/classIG_1_1Lib_1_1ExpressionEvaluatorJs.html" target="_top" xlink:title="JavaScript Evaluator with command&#45;line interpreter.">
<polygon fill="white" stroke="black" points="333.5,-475 333.5,-494 476.5,-494 476.5,-475 333.5,-475"/>
<text text-anchor="middle" x="405" y="-482" font-family="Helvetica,sans-Serif" font-size="10.00">IG.Lib.ExpressionEvaluatorJs</text>
</a>
</g>
</g>
<!-- Node1&#45;&gt;Node6 -->
<g id="edge9" class="edge"><title>Node1&#45;&gt;Node6</title>
<path fill="none" stroke="midnightblue" d="M51.494,-324.557C59.5034,-358.939 81.0373,-428.511 129,-460.5 195.284,-504.709 291.455,-501.62 350.74,-494.02"/>
<polygon fill="midnightblue" stroke="midnightblue" points="54.8202,-323.381 49.2777,-314.352 47.9797,-324.867 54.8202,-323.381"/>
</g>
<!-- Node7 -->
<g id="node7" class="node"><title>Node7</title>
<g id="a_node7"><a xlink:href="../../d0/d06/classIG_1_1Lib_1_1ExpressionEvaluatorJint.html" target="_top" xlink:title="JavaScript Evaluator with command&#45;line interpreter, based on Jint.">
<polygon fill="white" stroke="black" points="517,-456 517,-475 666,-475 666,-456 517,-456"/>
<text text-anchor="middle" x="591.5" y="-463" font-family="Helvetica,sans-Serif" font-size="10.00">IG.Lib.ExpressionEvaluatorJint</text>
</a>
</g>
</g>
<!-- Node1&#45;&gt;Node7 -->
<g id="edge8" class="edge"><title>Node1&#45;&gt;Node7</title>
<path fill="none" stroke="midnightblue" d="M53.9715,-323.547C64.6642,-351.743 88.9152,-403.804 129,-427.5 161.526,-446.728 395.17,-458.208 516.998,-462.951"/>
<polygon fill="midnightblue" stroke="midnightblue" points="57.2194,-322.236 50.5326,-314.018 50.6351,-324.612 57.2194,-322.236"/>
</g>
<!-- Node8 -->
<g id="node8" class="node"><title>Node8</title>
<g id="a_node8"><a xlink:href="../../d4/d93/classIG_1_1Lib_1_1IdProxy.html" target="_top" xlink:title="Proxy class that stores the object&#39;s unique ID (generated by a static instance of the IdGenerator cla...">
<polygon fill="white" stroke="black" points="172,-399 172,-418 250,-418 250,-399 172,-399"/>
<text text-anchor="middle" x="211" y="-406" font-family="Helvetica,sans-Serif" font-size="10.00">IG.Lib.IdProxy</text>
</a>
</g>
</g>
<!-- Node1&#45;&gt;Node8 -->
<g id="edge10" class="edge"><title>Node1&#45;&gt;Node8</title>
<path fill="none" stroke="midnightblue" d="M59.771,-322.483C74.0814,-342.029 99.5659,-372.709 129,-389.5 141.923,-396.872 157.559,-401.387 171.633,-404.152"/>
<polygon fill="midnightblue" stroke="midnightblue" points="62.4854,-320.261 53.8415,-314.134 56.7783,-324.314 62.4854,-320.261"/>
</g>
<!-- Node9 -->
<g id="node9" class="node"><title>Node9</title>
<g id="a_node9"><a xlink:href="../../d5/d7a/interfaceIG_1_1Lib_1_1IRegisterable.html" target="_top" xlink:title="Objects of this type have a unique ID (unique for all objects of a given type) and can be registered ...">
<polygon fill="white" stroke="black" points="148.5,-361 148.5,-380 273.5,-380 273.5,-361 148.5,-361"/>
<text text-anchor="middle" x="211" y="-368" font-family="Helvetica,sans-Serif" font-size="10.00">IG.Lib.IRegisterable&lt; T &gt;</text>
</a>
</g>
</g>
<!-- Node1&#45;&gt;Node9 -->
<g id="edge11" class="edge"><title>Node1&#45;&gt;Node9</title>
<path fill="none" stroke="midnightblue" d="M69.8614,-319.796C85.7505,-330.053 107.924,-343.161 129,-351.5 138.536,-355.273 149.013,-358.415 159.176,-360.985"/>
<polygon fill="midnightblue" stroke="midnightblue" points="71.5637,-316.726 61.2883,-314.144 67.7107,-322.57 71.5637,-316.726"/>
</g>
<!-- Node10 -->
<g id="node10" class="node"><title>Node10</title>
<g id="a_node10"><a xlink:href="../../dd/dda/classIG_1_1Lib_1_1RegisterableExamples_1_1ExampleIIdentifiable.html" target="_top" xlink:title="Example implementation of IIdentifiable interface.">
<polygon fill="white" stroke="black" points="138,-311.5 138,-341.5 284,-341.5 284,-311.5 138,-311.5"/>
<text text-anchor="start" x="146" y="-329.5" font-family="Helvetica,sans-Serif" font-size="10.00">IG.Lib.RegisterableExamples.</text>
<text text-anchor="middle" x="211" y="-318.5" font-family="Helvetica,sans-Serif" font-size="10.00">ExampleIIdentifiable</text>
</a>
</g>
</g>
<!-- Node1&#45;&gt;Node10 -->
<g id="edge12" class="edge"><title>Node1&#45;&gt;Node10</title>
<path fill="none" stroke="midnightblue" d="M103.223,-312.044C114.39,-313.556 126.272,-315.165 137.901,-316.739"/>
<polygon fill="midnightblue" stroke="midnightblue" points="103.577,-308.56 93.1978,-310.687 102.638,-315.497 103.577,-308.56"/>
</g>
<!-- Node11 -->
<g id="node11" class="node"><title>Node11</title>
<g id="a_node11"><a xlink:href="../../de/de7/classIG_1_1Lib_1_1StopWatch1.html" target="_top" xlink:title="Timer for measuring execution times and other intervals of time elapsed between successive events....">
<polygon fill="white" stroke="black" points="161.5,-273 161.5,-292 260.5,-292 260.5,-273 161.5,-273"/>
<text text-anchor="middle" x="211" y="-280" font-family="Helvetica,sans-Serif" font-size="10.00">IG.Lib.StopWatch1</text>
</a>
</g>
</g>
<!-- Node1&#45;&gt;Node11 -->
<g id="edge13" class="edge"><title>Node1&#45;&gt;Node11</title>
<path fill="none" stroke="midnightblue" d="M103.147,-296.966C122.02,-294.411 142.945,-291.578 161.239,-289.101"/>
<polygon fill="midnightblue" stroke="midnightblue" points="102.638,-293.503 93.1978,-298.313 103.577,-300.44 102.638,-293.503"/>
</g>
<!-- Node12 -->
<g id="node12" class="node"><title>Node12</title>
<g id="a_node12"><a xlink:href="../../d3/dbb/classIG_1_1Num_1_1ParallelJobContainerBase.html" target="_top" xlink:title="Contains input data and results of a parallel job to be executed, oropertied indicating the state of ...">
<polygon fill="white" stroke="black" points="129,-235 129,-254 293,-254 293,-235 129,-235"/>
<text text-anchor="middle" x="211" y="-242" font-family="Helvetica,sans-Serif" font-size="10.00">IG.Num.ParallelJobContainerBase</text>
</a>
</g>
</g>
<!-- Node1&#45;&gt;Node12 -->
<g id="edge14" class="edge"><title>Node1&#45;&gt;Node12</title>
<path fill="none" stroke="midnightblue" d="M72.9241,-289.754C88.6623,-281.126 109.52,-270.572 129,-263.5 139.183,-259.803 150.351,-256.642 161.054,-254.019"/>
<polygon fill="midnightblue" stroke="midnightblue" points="70.8655,-286.895 63.8445,-294.83 74.2811,-293.005 70.8655,-286.895"/>
</g>
<!-- Node13 -->
<g id="node13" class="node"><title>Node13</title>
<g id="a_node13"><a xlink:href="../../d3/d64/classIG_1_1Num_1_1ParallelJobContainerGen.html" target="_top" xlink:title="General purpose parallel job container that contains methods for running the job in on the same machi...">
<polygon fill="white" stroke="black" points="330.5,-213.5 330.5,-243.5 479.5,-243.5 479.5,-213.5 330.5,-213.5"/>
<text text-anchor="start" x="338.5" y="-231.5" font-family="Helvetica,sans-Serif" font-size="10.00">IG.Num.ParallelJobContainer</text>
<text text-anchor="middle" x="405" y="-220.5" font-family="Helvetica,sans-Serif" font-size="10.00">Gen&lt; InputType, ResultType &gt;</text>
</a>
</g>
</g>
<!-- Node1&#45;&gt;Node13 -->
<g id="edge16" class="edge"><title>Node1&#45;&gt;Node13</title>
<path fill="none" stroke="midnightblue" d="M59.4585,-286.54C73.4904,-267.264 98.7278,-237.764 129,-225.5 195.157,-198.698 277.83,-204.223 335.167,-213.459"/>
<polygon fill="midnightblue" stroke="midnightblue" points="56.5294,-284.621 53.6594,-294.82 62.263,-288.637 56.5294,-284.621"/>
</g>
<!-- Node14 -->
<g id="node14" class="node"><title>Node14</title>
<g id="a_node14"><a xlink:href="../../d1/d6b/classIG_1_1Num_1_1ParallelJobDispatcherBase.html" target="_top" xlink:title="Parallel job dispatcher. Accepts job requests and dispatches jobs to parallel job servers when availa...">
<polygon fill="white" stroke="black" points="138,-147.5 138,-177.5 284,-177.5 284,-147.5 138,-147.5"/>
<text text-anchor="start" x="146" y="-165.5" font-family="Helvetica,sans-Serif" font-size="10.00">IG.Num.ParallelJobDispatcher</text>
<text text-anchor="middle" x="211" y="-154.5" font-family="Helvetica,sans-Serif" font-size="10.00">Base&lt; JobContainerType &gt;</text>
</a>
</g>
</g>
<!-- Node1&#45;&gt;Node14 -->
<g id="edge17" class="edge"><title>Node1&#45;&gt;Node14</title>
<path fill="none" stroke="midnightblue" d="M56.5662,-285.918C69.456,-261.301 95.3031,-218.022 129,-192.5 136.89,-186.524 146.095,-181.636 155.414,-177.671"/>
<polygon fill="midnightblue" stroke="midnightblue" points="53.3945,-284.434 51.9897,-294.935 59.6366,-287.602 53.3945,-284.434"/>
</g>
<!-- Node16 -->
<g id="node16" class="node"><title>Node16</title>
<g id="a_node16"><a xlink:href="../../dc/da7/classIG_1_1Num_1_1ParallelJobDispatcherGen.html" target="_top" xlink:title="Parallel job jerver for job containers that inherit from ParallelJobContainerGen&lt;InputType,...">
<polygon fill="white" stroke="black" points="136.5,-98.5 136.5,-128.5 285.5,-128.5 285.5,-98.5 136.5,-98.5"/>
<text text-anchor="start" x="144.5" y="-116.5" font-family="Helvetica,sans-Serif" font-size="10.00">IG.Num.ParallelJobDispatcher</text>
<text text-anchor="middle" x="211" y="-105.5" font-family="Helvetica,sans-Serif" font-size="10.00">Gen&lt; InputType, ResultType &gt;</text>
</a>
</g>
</g>
<!-- Node1&#45;&gt;Node16 -->
<g id="edge19" class="edge"><title>Node1&#45;&gt;Node16</title>
<path fill="none" stroke="midnightblue" d="M50.4923,-284.954C57.8478,-248.176 79.9046,-170.056 129,-128.5 131.351,-126.51 133.861,-124.685 136.489,-123.017"/>
<polygon fill="midnightblue" stroke="midnightblue" points="47.0195,-284.488 48.6678,-294.954 53.9059,-285.744 47.0195,-284.488"/>
</g>
<!-- Node1&#45;&gt;Node16 -->
<g id="edge20" class="edge"><title>Node1&#45;&gt;Node16</title>
<path fill="none" stroke="midnightblue" d="M53.1132,-284.7C62.4675,-251.104 84.7526,-183.952 129,-146.5 139.075,-137.972 152.078,-132.474 164.704,-128.538"/>
<polygon fill="midnightblue" stroke="midnightblue" points="49.637,-284.15 50.4235,-294.715 56.3975,-285.965 49.637,-284.15"/>
</g>
<!-- Node17 -->
<g id="node17" class="node"><title>Node17</title>
<g id="a_node17"><a xlink:href="../../d9/d79/classIG_1_1Num_1_1ParallelJobServerBase.html" target="_top" xlink:title="Parallel job server. Waits for job requests and executes them in a parallel thread.">
<polygon fill="white" stroke="black" points="144,-49.5 144,-79.5 278,-79.5 278,-49.5 144,-49.5"/>
<text text-anchor="start" x="152" y="-67.5" font-family="Helvetica,sans-Serif" font-size="10.00">IG.Num.ParallelJobServer</text>
<text text-anchor="middle" x="211" y="-56.5" font-family="Helvetica,sans-Serif" font-size="10.00">Base&lt; JobContainerType &gt;</text>
</a>
</g>
</g>
<!-- Node1&#45;&gt;Node17 -->
<g id="edge21" class="edge"><title>Node1&#45;&gt;Node17</title>
<path fill="none" stroke="midnightblue" d="M49.2149,-284.493C53.9351,-242.057 70.9222,-142.5 129,-88.5 133.404,-84.4053 138.475,-81.0066 143.886,-78.186"/>
<polygon fill="midnightblue" stroke="midnightblue" points="45.7121,-284.348 48.2037,-294.645 52.6776,-285.041 45.7121,-284.348"/>
</g>
<!-- Node19 -->
<g id="node19" class="node"><title>Node19</title>
<g id="a_node19"><a xlink:href="../../d5/d32/classIG_1_1Num_1_1ParallelJobServerGen.html" target="_top" xlink:title="Parallel job server for job containers that inherit from ParallelJobContainerGen&lt;InputType,...">
<polygon fill="white" stroke="black" points="136.5,-0.5 136.5,-30.5 285.5,-30.5 285.5,-0.5 136.5,-0.5"/>
<text text-anchor="start" x="144.5" y="-18.5" font-family="Helvetica,sans-Serif" font-size="10.00">IG.Num.ParallelJobServer</text>
<text text-anchor="middle" x="211" y="-7.5" font-family="Helvetica,sans-Serif" font-size="10.00">Gen&lt; InputType, ResultType &gt;</text>
</a>
</g>
</g>
<!-- Node1&#45;&gt;Node19 -->
<g id="edge23" class="edge"><title>Node1&#45;&gt;Node19</title>
<path fill="none" stroke="midnightblue" d="M47.4939,-284.522C48.3674,-233.956 57.2713,-101.493 129,-30.5 131.293,-28.2302 133.791,-26.1732 136.44,-24.3151"/>
<polygon fill="midnightblue" stroke="midnightblue" points="43.992,-284.752 47.4101,-294.78 50.9918,-284.809 43.992,-284.752"/>
</g>
<!-- Node1&#45;&gt;Node19 -->
<g id="edge24" class="edge"><title>Node1&#45;&gt;Node19</title>
<path fill="none" stroke="midnightblue" d="M47.7334,-284.766C49.594,-236.978 61.3813,-115.425 129,-48.5 137.652,-39.9366 149.209,-34.4032 160.876,-30.5284"/>
<polygon fill="midnightblue" stroke="midnightblue" points="44.2347,-284.677 47.4537,-294.771 51.2319,-284.872 44.2347,-284.677"/>
</g>
<!-- Node4&#45;&gt;Node3 -->
<g id="edge4" class="edge"><title>Node4&#45;&gt;Node3</title>
<path fill="none" stroke="midnightblue" d="M291.83,-580.4C304.731,-581.677 318.033,-582.993 330.768,-584.253"/>
<polygon fill="midnightblue" stroke="midnightblue" points="291.884,-576.888 281.588,-579.386 291.195,-583.854 291.884,-576.888"/>
</g>
<!-- Node5&#45;&gt;Node6 -->
<g id="edge6" class="edge"><title>Node5&#45;&gt;Node6</title>
<path fill="none" stroke="midnightblue" d="M287.573,-511.181C313.083,-505.335 340.61,-499.027 362.491,-494.012"/>
<polygon fill="midnightblue" stroke="midnightblue" points="286.504,-507.835 277.539,-513.481 288.068,-514.658 286.504,-507.835"/>
</g>
<!-- Node6&#45;&gt;Node7 -->
<g id="edge7" class="edge"><title>Node6&#45;&gt;Node7</title>
<path fill="none" stroke="midnightblue" d="M486.56,-476.204C496.66,-475.164 506.95,-474.104 516.936,-473.076"/>
<polygon fill="midnightblue" stroke="midnightblue" points="486.13,-472.73 476.541,-477.236 486.847,-479.693 486.13,-472.73"/>
</g>
<!-- Node12&#45;&gt;Node13 -->
<g id="edge15" class="edge"><title>Node12&#45;&gt;Node13</title>
<path fill="none" stroke="midnightblue" d="M303.364,-236.886C312.45,-236.129 321.591,-235.367 330.461,-234.628"/>
<polygon fill="midnightblue" stroke="midnightblue" points="302.822,-233.419 293.147,-237.738 303.403,-240.395 302.822,-233.419"/>
</g>
<!-- Node15 -->
<g id="node15" class="node"><title>Node15</title>
<g id="a_node15"><a xlink:href="../../dc/da7/classIG_1_1Num_1_1ParallelJobDispatcherGen.html" target="_top" xlink:title="Parallel job jerver for job containers that inherit from ParallelJobContainerGen&lt;InputType,...">
<polygon fill="white" stroke="black" points="329,-147.5 329,-177.5 481,-177.5 481,-147.5 329,-147.5"/>
<text text-anchor="start" x="337" y="-165.5" font-family="Helvetica,sans-Serif" font-size="10.00">IG::Num::ParallelJobDispatcher</text>
<text text-anchor="middle" x="405" y="-154.5" font-family="Helvetica,sans-Serif" font-size="10.00">Gen&lt; JobContainerType &gt;</text>
</a>
</g>
</g>
<!-- Node14&#45;&gt;Node15 -->
<g id="edge18" class="edge"><title>Node14&#45;&gt;Node15</title>
<path fill="none" stroke="midnightblue" d="M294.126,-162.5C305.704,-162.5 317.557,-162.5 328.992,-162.5"/>
<polygon fill="midnightblue" stroke="midnightblue" points="294.04,-159 284.04,-162.5 294.04,-166 294.04,-159"/>
</g>
<!-- Node18 -->
<g id="node18" class="node"><title>Node18</title>
<g id="a_node18"><a xlink:href="../../d5/d32/classIG_1_1Num_1_1ParallelJobServerGen.html" target="_top" xlink:title="Parallel job server for job containers that inherit from ParallelJobContainerGen&lt;InputType,...">
<polygon fill="white" stroke="black" points="338.5,-49.5 338.5,-79.5 471.5,-79.5 471.5,-49.5 338.5,-49.5"/>
<text text-anchor="start" x="346.5" y="-67.5" font-family="Helvetica,sans-Serif" font-size="10.00">IG::Num::ParallelJobServer</text>
<text text-anchor="middle" x="405" y="-56.5" font-family="Helvetica,sans-Serif" font-size="10.00">Gen&lt; JobContainerType &gt;</text>
</a>
</g>
</g>
<!-- Node17&#45;&gt;Node18 -->
<g id="edge22" class="edge"><title>Node17&#45;&gt;Node18</title>
<path fill="none" stroke="midnightblue" d="M288.287,-64.5C304.888,-64.5 322.311,-64.5 338.453,-64.5"/>
<polygon fill="midnightblue" stroke="midnightblue" points="288.076,-61.0001 278.076,-64.5 288.075,-68.0001 288.076,-61.0001"/>
</g>
</g>
</svg>
