<?xml version="1.0" encoding="UTF-8" standalone="no"?>
<!DOCTYPE svg PUBLIC "-//W3C//DTD SVG 1.1//EN"
 "http://www.w3.org/Graphics/SVG/1.1/DTD/svg11.dtd">
<!-- Generated by graphviz version 2.38.0 (20140413.2041)
 -->
<!-- Title: IG.Lib.KeyValueSortable&lt; Tkey, Tvalue &gt; Pages: 1 -->
<svg width="175pt" height="172pt"
 viewBox="0.00 0.00 174.50 172.00" xmlns="http://www.w3.org/2000/svg" xmlns:xlink="http://www.w3.org/1999/xlink">
<g id="graph0" class="graph" transform="scale(1 1) rotate(0) translate(4 168)">
<title>IG.Lib.KeyValueSortable&lt; Tkey, Tvalue &gt;</title>
<polygon fill="white" stroke="none" points="-4,4 -4,-168 170.5,-168 170.5,4 -4,4"/>
<!-- Node1 -->
<g id="node1" class="node"><title>Node1</title>
<g id="a_node1"><a xlink:title="Class representing a key&#45;value pair where sorting can be performed both with respect to key and with ...">
<polygon fill="#bfbfbf" stroke="black" points="0,-0.5 0,-30.5 123,-30.5 123,-0.5 0,-0.5"/>
<text text-anchor="start" x="8" y="-18.5" font-family="Helvetica,sans-Serif" font-size="10.00">IG.Lib.KeyValueSortable</text>
<text text-anchor="middle" x="61.5" y="-7.5" font-family="Helvetica,sans-Serif" font-size="10.00">&lt; Tkey, Tvalue &gt;</text>
</a>
</g>
</g>
<!-- Node2 -->
<g id="node2" class="node"><title>Node2</title>
<g id="a_node2"><a xlink:title=" ">
<polygon fill="white" stroke="#bfbfbf" points="41,-144.5 41,-163.5 82,-163.5 82,-144.5 41,-144.5"/>
<text text-anchor="middle" x="61.5" y="-151.5" font-family="Helvetica,sans-Serif" font-size="10.00">static</text>
</a>
</g>
</g>
<!-- Node2&#45;&gt;Node1 -->
<g id="edge1" class="edge"><title>Node2&#45;&gt;Node1</title>
<path fill="none" stroke="#9a32cd" stroke-dasharray="5,2" d="M61.5,-134.154C61.5,-106.41 61.5,-55.2023 61.5,-30.5221"/>
<polygon fill="#9a32cd" stroke="#9a32cd" points="58.0001,-134.461 61.5,-144.461 65.0001,-134.461 58.0001,-134.461"/>
<text text-anchor="middle" x="114" y="-118" font-family="Helvetica,sans-Serif" font-size="10.00"> CompareValueKey</text>
<text text-anchor="middle" x="114" y="-107" font-family="Helvetica,sans-Serif" font-size="10.00">CompareKeyValueStrict</text>
<text text-anchor="middle" x="114" y="-96" font-family="Helvetica,sans-Serif" font-size="10.00">CompareValue</text>
<text text-anchor="middle" x="114" y="-85" font-family="Helvetica,sans-Serif" font-size="10.00">CompareKeyValue</text>
<text text-anchor="middle" x="114" y="-74" font-family="Helvetica,sans-Serif" font-size="10.00">CompareValueKeyStrict</text>
<text text-anchor="middle" x="114" y="-63" font-family="Helvetica,sans-Serif" font-size="10.00">CompareKey</text>
<text text-anchor="middle" x="114" y="-52" font-family="Helvetica,sans-Serif" font-size="10.00">_counter</text>
</g>
</g>
</svg>
