<?xml version="1.0" encoding="UTF-8" standalone="no"?>
<!DOCTYPE svg PUBLIC "-//W3C//DTD SVG 1.1//EN"
 "http://www.w3.org/Graphics/SVG/1.1/DTD/svg11.dtd">
<!-- Generated by graphviz version 2.38.0 (20140413.2041)
 -->
<!-- Title: IG.Num.Func3d2dBaseNoHessian Pages: 1 -->
<svg width="173pt" height="140pt"
 viewBox="0.00 0.00 173.00 140.00" xmlns="http://www.w3.org/2000/svg" xmlns:xlink="http://www.w3.org/1999/xlink">
<g id="graph0" class="graph" transform="scale(1 1) rotate(0) translate(4 136)">
<title>IG.Num.Func3d2dBaseNoHessian</title>
<polygon fill="white" stroke="none" points="-4,4 -4,-136 169,-136 169,4 -4,4"/>
<!-- Node1 -->
<g id="node1" class="node"><title>Node1</title>
<g id="a_node1"><a xlink:title="Base class for 3D vector functions of 2 variables (implementations of the IFunc3d2d interface) that d...">
<polygon fill="#bfbfbf" stroke="black" points="0,-0.5 0,-19.5 165,-19.5 165,-0.5 0,-0.5"/>
<text text-anchor="middle" x="82.5" y="-7.5" font-family="Helvetica,sans-Serif" font-size="10.00">IG.Num.Func3d2dBaseNoHessian</text>
</a>
</g>
</g>
<!-- Node2 -->
<g id="node2" class="node"><title>Node2</title>
<g id="a_node2"><a xlink:href="../../df/d0e/classIG_1_1Num_1_1Func3d2dBase.html" target="_top" xlink:title="Base class for 3D vector functions of 2 variables (base for implementation of IFunc3d2d interface).">
<polygon fill="white" stroke="black" points="76.5,-56.5 76.5,-75.5 158.5,-75.5 158.5,-56.5 76.5,-56.5"/>
<text text-anchor="middle" x="117.5" y="-63.5" font-family="Helvetica,sans-Serif" font-size="10.00">Func3d2dBase</text>
</a>
</g>
</g>
<!-- Node2&#45;&gt;Node1 -->
<g id="edge1" class="edge"><title>Node2&#45;&gt;Node1</title>
<path fill="none" stroke="midnightblue" d="M106.2,-47.5656C100.178,-38.2747 93.0314,-27.2484 88.172,-19.7511"/>
<polygon fill="midnightblue" stroke="midnightblue" points="103.344,-49.5951 111.72,-56.083 109.219,-45.7878 103.344,-49.5951"/>
</g>
<!-- Node3 -->
<g id="node3" class="node"><title>Node3</title>
<g id="a_node3"><a xlink:href="../../d3/d6f/interfaceIG_1_1Num_1_1IFunc3d2d.html" target="_top" xlink:title="Represents 3D vector functions of 2 variables.">
<polygon fill="white" stroke="black" points="51.5,-112.5 51.5,-131.5 113.5,-131.5 113.5,-112.5 51.5,-112.5"/>
<text text-anchor="middle" x="82.5" y="-119.5" font-family="Helvetica,sans-Serif" font-size="10.00">IFunc3d2d</text>
</a>
</g>
</g>
<!-- Node3&#45;&gt;Node1 -->
<g id="edge3" class="edge"><title>Node3&#45;&gt;Node1</title>
<path fill="none" stroke="midnightblue" d="M74.9438,-102.782C71.9923,-94.725 68.9675,-85.0432 67.5,-76 64.1979,-55.6515 72.7397,-32.1752 78.2514,-19.7585"/>
<polygon fill="midnightblue" stroke="midnightblue" points="71.7436,-104.209 78.6443,-112.249 78.2632,-101.661 71.7436,-104.209"/>
</g>
<!-- Node3&#45;&gt;Node2 -->
<g id="edge2" class="edge"><title>Node3&#45;&gt;Node2</title>
<path fill="none" stroke="midnightblue" d="M93.8001,-103.566C99.8219,-94.2747 106.969,-83.2484 111.828,-75.7511"/>
<polygon fill="midnightblue" stroke="midnightblue" points="90.7815,-101.788 88.2795,-112.083 96.6556,-105.595 90.7815,-101.788"/>
</g>
</g>
</svg>
