<?xml version="1.0" encoding="UTF-8" standalone="no"?>
<!DOCTYPE svg PUBLIC "-//W3C//DTD SVG 1.1//EN"
 "http://www.w3.org/Graphics/SVG/1.1/DTD/svg11.dtd">
<!-- Generated by graphviz version 2.38.0 (20140413.2041)
 -->
<!-- Title: IG.Num.LinearBasis Pages: 1 -->
<!--zoomable 286 -->
<svg id="main" version="1.1" xmlns="http://www.w3.org/2000/svg" xmlns:xlink="http://www.w3.org/1999/xlink" xml:space="preserve" onload="init(evt)">
<style type="text/css"><![CDATA[
.edge:hover path { stroke: red; }
.edge:hover polygon { stroke: red; fill: red; }
]]></style>
<script type="text/javascript"><![CDATA[
var edges = document.getElementsByTagName('g');
if (edges && edges.length) {
  for (var i=0;i<edges.length;i++) {
    if (edges[i].id.substr(0,4)=='edge') {
      edges[i].setAttribute('class','edge');
    }
  }
}
]]></script>
        <defs>
                <circle id="rim" cx="0" cy="0" r="7"/>
                <circle id="rim2" cx="0" cy="0" r="3.5"/>
                <g id="zoomPlus">
                        <use xlink:href="#rim" fill="#404040">
                                <set attributeName="fill" to="#808080" begin="zoomplus.mouseover" end="zoomplus.mouseout"/>
                        </use>
                        <path d="M-4,0h8M0,-4v8" fill="none" stroke="white" stroke-width="1.5" pointer-events="none"/>
                </g>
                <g id="zoomMin">
                        <use xlink:href="#rim" fill="#404040">
                                <set attributeName="fill" to="#808080" begin="zoomminus.mouseover" end="zoomminus.mouseout"/>
                        </use>
                        <path d="M-4,0h8" fill="none" stroke="white" stroke-width="1.5" pointer-events="none"/>
                </g>
                <g id="dirArrow">
                        <path fill="none" stroke="white" stroke-width="1.5" d="M0,-3.0v7 M-2.5,-0.5L0,-3.0L2.5,-0.5"/>
                </g>
               <g id="resetDef">
                       <use xlink:href="#rim2" fill="#404040">
                               <set attributeName="fill" to="#808080" begin="reset.mouseover" end="reset.mouseout"/>
                       </use>
               </g>
        </defs>

<script type="text/javascript">
var viewWidth = 708;
var viewHeight = 286;
var sectionId = 'dynsection-1';
</script>
<script xlink:href="../../svgpan.js"/>
<svg id="graph" class="graph">
<g id="viewport">
<title>IG.Num.LinearBasis</title>
<polygon fill="white" stroke="none" points="-4,4 -4,-282 703.5,-282 703.5,4 -4,4"/>
<!-- Node1 -->
<g id="node1" class="node"><title>Node1</title>
<g id="a_node1"><a xlink:title="Vector function containing lineer basis in a n&#45;dimensional vector space. Composed of n+1 functions: 1...">
<polygon fill="#bfbfbf" stroke="black" points="530.5,-0.5 530.5,-19.5 634.5,-19.5 634.5,-0.5 530.5,-0.5"/>
<text text-anchor="middle" x="582.5" y="-7.5" font-family="Helvetica,sans-Serif" font-size="10.00">IG.Num.LinearBasis</text>
</a>
</g>
</g>
<!-- Node2 -->
<g id="node2" class="node"><title>Node2</title>
<g id="a_node2"><a xlink:href="../../dc/df8/classIG_1_1Num_1_1VectorFunctionBaseComponentWise.html" target="_top" xlink:title="Base class for defining Vector functions whose component&#45;wise evaluation is defined directly.">
<polygon fill="white" stroke="black" points="494,-57.5 494,-76.5 671,-76.5 671,-57.5 494,-57.5"/>
<text text-anchor="middle" x="582.5" y="-64.5" font-family="Helvetica,sans-Serif" font-size="10.00">VectorFunctionBaseComponentWise</text>
</a>
</g>
</g>
<!-- Node2&#45;&gt;Node1 -->
<g id="edge1" class="edge"><title>Node2&#45;&gt;Node1</title>
<path fill="none" stroke="midnightblue" d="M582.5,-47.1166C582.5,-37.8173 582.5,-27.0557 582.5,-19.7149"/>
<polygon fill="midnightblue" stroke="midnightblue" points="579,-47.4062 582.5,-57.4063 586,-47.4063 579,-47.4062"/>
</g>
<!-- Node3 -->
<g id="node3" class="node"><title>Node3</title>
<g id="a_node3"><a xlink:href="../../dc/d23/classIG_1_1Num_1_1VectorFunctionBaseGeneral.html" target="_top" xlink:title="Base class for VectorFunctionBase and VectorFunctionBaseComponentwise. In general,...">
<polygon fill="white" stroke="black" points="277,-124.5 277,-143.5 416,-143.5 416,-124.5 277,-124.5"/>
<text text-anchor="middle" x="346.5" y="-131.5" font-family="Helvetica,sans-Serif" font-size="10.00">VectorFunctionBaseGeneral</text>
</a>
</g>
</g>
<!-- Node3&#45;&gt;Node2 -->
<g id="edge2" class="edge"><title>Node3&#45;&gt;Node2</title>
<path fill="none" stroke="midnightblue" d="M387.629,-121.672C434.297,-108.819 509.366,-88.1427 551.407,-76.5637"/>
<polygon fill="midnightblue" stroke="midnightblue" points="386.551,-118.339 377.839,-124.369 388.409,-125.087 386.551,-118.339"/>
</g>
<!-- Node9 -->
<g id="node9" class="node"><title>Node9</title>
<g id="a_node9"><a xlink:href="../../da/de7/classIG_1_1Num_1_1VectorFunctionBase.html" target="_top" xlink:title="Base class for defining Vector functions whose evaluation is defined in bulk, and evaluation of indiv...">
<polygon fill="white" stroke="black" points="273,-57.5 273,-76.5 414,-76.5 414,-57.5 273,-57.5"/>
<text text-anchor="middle" x="343.5" y="-64.5" font-family="Helvetica,sans-Serif" font-size="10.00">IG.Num.VectorFunctionBase</text>
</a>
</g>
</g>
<!-- Node3&#45;&gt;Node9 -->
<g id="edge10" class="edge"><title>Node3&#45;&gt;Node9</title>
<path fill="none" stroke="midnightblue" d="M357.171,-115.309C359.77,-108.958 361.338,-101.708 359.5,-95 357.714,-88.4838 353.905,-81.9455 350.451,-76.9353"/>
<polygon fill="midnightblue" stroke="midnightblue" points="353.991,-113.841 352.58,-124.342 360.231,-117.013 353.991,-113.841"/>
</g>
<!-- Node4 -->
<g id="node4" class="node"><title>Node4</title>
<g id="a_node4"><a xlink:href="../../da/d06/interfaceIG_1_1Num_1_1IVectorFunction.html" target="_top" xlink:title="Vector function of a vector argument.">
<polygon fill="white" stroke="black" points="421,-191.5 421,-210.5 506,-210.5 506,-191.5 421,-191.5"/>
<text text-anchor="middle" x="463.5" y="-198.5" font-family="Helvetica,sans-Serif" font-size="10.00">IVectorFunction</text>
</a>
</g>
</g>
<!-- Node4&#45;&gt;Node1 -->
<g id="edge15" class="edge"><title>Node4&#45;&gt;Node1</title>
<path fill="none" stroke="midnightblue" d="M465.411,-181.131C469.257,-144.576 478.188,-66.8148 485.5,-57 499.753,-37.8692 524.003,-26.3692 544.69,-19.6519"/>
<polygon fill="midnightblue" stroke="midnightblue" points="461.895,-181.107 464.35,-191.414 468.858,-181.826 461.895,-181.107"/>
</g>
<!-- Node4&#45;&gt;Node2 -->
<g id="edge13" class="edge"><title>Node4&#45;&gt;Node2</title>
<path fill="none" stroke="midnightblue" d="M483.341,-185.23C487.877,-181.464 492.528,-177.267 496.5,-173 525.402,-141.952 523.08,-126.49 551.5,-95 557.525,-88.3241 565.129,-81.6791 571.298,-76.6518"/>
<polygon fill="midnightblue" stroke="midnightblue" points="481.135,-182.512 475.47,-191.465 485.482,-187.998 481.135,-182.512"/>
</g>
<!-- Node4&#45;&gt;Node3 -->
<g id="edge3" class="edge"><title>Node4&#45;&gt;Node3</title>
<path fill="none" stroke="midnightblue" d="M438.817,-186.287C415.628,-173.405 381.644,-154.524 362.029,-143.627"/>
<polygon fill="midnightblue" stroke="midnightblue" points="437.28,-189.437 447.721,-191.234 440.679,-183.318 437.28,-189.437"/>
</g>
<!-- Node4&#45;&gt;Node9 -->
<g id="edge11" class="edge"><title>Node4&#45;&gt;Node9</title>
<path fill="none" stroke="midnightblue" d="M457.351,-181.64C451.187,-165.209 440.461,-141.139 425.5,-124 407.135,-102.96 379.176,-86.1238 361.12,-76.5961"/>
<polygon fill="midnightblue" stroke="midnightblue" points="454.096,-182.933 460.741,-191.184 460.692,-180.59 454.096,-182.933"/>
</g>
<!-- Node5 -->
<g id="node5" class="node"><title>Node5</title>
<g id="a_node5"><a xlink:href="../../d3/db6/interfaceIG_1_1Lib_1_1ILockable.html" target="_top" xlink:title="Lockable object, has a Lock property that returns object on which lock must be performed in order to ...">
<polygon fill="white" stroke="black" points="434.5,-258.5 434.5,-277.5 492.5,-277.5 492.5,-258.5 434.5,-258.5"/>
<text text-anchor="middle" x="463.5" y="-265.5" font-family="Helvetica,sans-Serif" font-size="10.00">ILockable</text>
</a>
</g>
</g>
<!-- Node5&#45;&gt;Node1 -->
<g id="edge16" class="edge"><title>Node5&#45;&gt;Node1</title>
<path fill="none" stroke="midnightblue" d="M503.14,-264.26C570.363,-258.514 699.5,-242.239 699.5,-202 699.5,-202 699.5,-202 699.5,-66 699.5,-35.2505 665.992,-21.661 634.84,-15.6713"/>
<polygon fill="midnightblue" stroke="midnightblue" points="502.595,-260.793 492.912,-265.094 503.164,-267.77 502.595,-260.793"/>
</g>
<!-- Node5&#45;&gt;Node2 -->
<g id="edge14" class="edge"><title>Node5&#45;&gt;Node2</title>
<path fill="none" stroke="midnightblue" d="M480.613,-251.292C491.535,-240.652 505.473,-225.871 515.5,-211 547.228,-163.946 571.452,-99.4904 579.563,-76.5398"/>
<polygon fill="midnightblue" stroke="midnightblue" points="478.13,-248.823 473.292,-258.249 482.952,-253.897 478.13,-248.823"/>
</g>
<!-- Node5&#45;&gt;Node3 -->
<g id="edge5" class="edge"><title>Node5&#45;&gt;Node3</title>
<path fill="none" stroke="midnightblue" d="M448.46,-250.69C438.249,-239.567 424.478,-224.468 412.5,-211 391.132,-186.973 366.385,-158.223 354.155,-143.952"/>
<polygon fill="midnightblue" stroke="midnightblue" points="446.139,-253.337 455.485,-258.328 451.291,-248.598 446.139,-253.337"/>
</g>
<!-- Node5&#45;&gt;Node4 -->
<g id="edge4" class="edge"><title>Node5&#45;&gt;Node4</title>
<path fill="none" stroke="midnightblue" d="M463.5,-248.037C463.5,-235.67 463.5,-220.12 463.5,-210.627"/>
<polygon fill="midnightblue" stroke="midnightblue" points="460,-248.234 463.5,-258.234 467,-248.234 460,-248.234"/>
</g>
<!-- Node5&#45;&gt;Node9 -->
<g id="edge12" class="edge"><title>Node5&#45;&gt;Node9</title>
<path fill="none" stroke="midnightblue" d="M424.175,-261.318C376.475,-252.089 298.047,-228.866 262.5,-173 256.897,-164.194 255.281,-148.26 267.5,-124 279.001,-101.165 304.707,-85.3655 323.035,-76.5062"/>
<polygon fill="midnightblue" stroke="midnightblue" points="423.685,-264.786 434.149,-263.131 424.937,-257.899 423.685,-264.786"/>
</g>
<!-- Node6 -->
<g id="node6" class="node"><title>Node6</title>
<g id="a_node6"><a xlink:href="../../d5/dc3/classIG_1_1Num_1_1VectorFunctionResults.html" target="_top" xlink:title="Vector function results. Used to transfer parameters input (e.g. vector of parameters,...">
<polygon fill="white" stroke="black" points="68.5,-191.5 68.5,-210.5 220.5,-210.5 220.5,-191.5 68.5,-191.5"/>
<text text-anchor="middle" x="144.5" y="-198.5" font-family="Helvetica,sans-Serif" font-size="10.00">IG.Num.VectorFunctionResults</text>
</a>
</g>
</g>
<!-- Node6&#45;&gt;Node3 -->
<g id="edge6" class="edge"><title>Node6&#45;&gt;Node3</title>
<path fill="none" stroke="#9a32cd" stroke-dasharray="5,2" d="M180.968,-188.265C220.992,-175.386 284.28,-155.021 319.887,-143.564"/>
<polygon fill="#9a32cd" stroke="#9a32cd" points="179.771,-184.974 171.324,-191.369 181.915,-191.637 179.771,-184.974"/>
<text text-anchor="middle" x="287.5" y="-165" font-family="Helvetica,sans-Serif" font-size="10.00"> _auxResults</text>
</g>
<!-- Node7 -->
<g id="node7" class="node"><title>Node7</title>
<g id="a_node7"><a xlink:href="../../d6/dbe/interfaceIG_1_1Num_1_1IVectorFunctionResults.html" target="_top" xlink:title="Vector function results. Used to transfer parameters input (e.g. vector of parameters,...">
<polygon fill="white" stroke="black" points="125.5,-258.5 125.5,-277.5 243.5,-277.5 243.5,-258.5 125.5,-258.5"/>
<text text-anchor="middle" x="184.5" y="-265.5" font-family="Helvetica,sans-Serif" font-size="10.00">IVectorFunctionResults</text>
</a>
</g>
</g>
<!-- Node7&#45;&gt;Node6 -->
<g id="edge7" class="edge"><title>Node7&#45;&gt;Node6</title>
<path fill="none" stroke="midnightblue" d="M173.752,-249.535C166.008,-236.95 155.889,-220.507 149.809,-210.627"/>
<polygon fill="midnightblue" stroke="midnightblue" points="170.884,-251.552 179.105,-258.234 176.845,-247.883 170.884,-251.552"/>
</g>
<!-- Node8 -->
<g id="node8" class="node"><title>Node8</title>
<g id="a_node8"><a xlink:href="../../d3/d24/interfaceIG_1_1Num_1_1IVector.html" target="_top" xlink:title="Generic Vector interface">
<polygon fill="white" stroke="black" points="0,-258.5 0,-277.5 107,-277.5 107,-258.5 0,-258.5"/>
<text text-anchor="middle" x="53.5" y="-265.5" font-family="Helvetica,sans-Serif" font-size="10.00">IG.Num.IVector&lt; T &gt;</text>
</a>
</g>
</g>
<!-- Node8&#45;&gt;Node6 -->
<g id="edge8" class="edge"><title>Node8&#45;&gt;Node6</title>
<path fill="none" stroke="#9a32cd" stroke-dasharray="5,2" d="M71.154,-251.823C79.7947,-244.631 90.4736,-236.085 100.5,-229 109.869,-222.38 120.869,-215.63 129.527,-210.535"/>
<polygon fill="#9a32cd" stroke="#9a32cd" points="68.6763,-249.334 63.2924,-258.459 73.1916,-254.683 68.6763,-249.334"/>
<text text-anchor="middle" x="129.5" y="-232" font-family="Helvetica,sans-Serif" font-size="10.00"> _parameters</text>
</g>
<!-- Node9&#45;&gt;Node3 -->
<g id="edge9" class="edge"><title>Node9&#45;&gt;Node3</title>
<path fill="none" stroke="#9a32cd" stroke-dasharray="5,2" d="M314.683,-81.7417C305.239,-88.2587 298.338,-96.6638 303.5,-106 308.021,-114.177 316.17,-120.212 324.168,-124.476"/>
<polygon fill="#9a32cd" stroke="#9a32cd" points="316.616,-84.664 323.398,-76.5247 313.02,-78.6579 316.616,-84.664"/>
<text text-anchor="middle" x="331.5" y="-98" font-family="Helvetica,sans-Serif" font-size="10.00"> _resultStore</text>
</g>
</g>
</svg>
        <g id="navigator" transform="translate(0 0)" fill="#404254">
                <rect fill="#f2f5e9" fill-opacity="0.5" stroke="#606060" stroke-width=".5" x="0" y="0" width="60" height="60"/>
                <use id="zoomplus" xlink:href="#zoomPlus" x="17" y="9" onmousedown="handleZoom(evt,'in')"/>
                <use id="zoomminus" xlink:href="#zoomMin" x="42" y="9" onmousedown="handleZoom(evt,'out')"/>
                <use id="reset" xlink:href="#resetDef" x="30" y="36" onmousedown="handleReset()"/>
                <g id="arrowUp" xlink:href="#dirArrow" transform="translate(30 24)" onmousedown="handlePan(0,-1)">
                  <use xlink:href="#rim" fill="#404040">
                        <set attributeName="fill" to="#808080" begin="arrowUp.mouseover" end="arrowUp.mouseout"/>
                  </use>
                  <path fill="none" stroke="white" stroke-width="1.5" d="M0,-3.0v7 M-2.5,-0.5L0,-3.0L2.5,-0.5"/>
                </g>
                <g id="arrowRight" xlink:href="#dirArrow" transform="rotate(90) translate(36 -43)" onmousedown="handlePan(1,0)">
                  <use xlink:href="#rim" fill="#404040">
                        <set attributeName="fill" to="#808080" begin="arrowRight.mouseover" end="arrowRight.mouseout"/>
                  </use>
                  <path fill="none" stroke="white" stroke-width="1.5" d="M0,-3.0v7 M-2.5,-0.5L0,-3.0L2.5,-0.5"/>
                </g>
                <g id="arrowDown" xlink:href="#dirArrow" transform="rotate(180) translate(-30 -48)" onmousedown="handlePan(0,1)">
                  <use xlink:href="#rim" fill="#404040">
                        <set attributeName="fill" to="#808080" begin="arrowDown.mouseover" end="arrowDown.mouseout"/>
                  </use>
                  <path fill="none" stroke="white" stroke-width="1.5" d="M0,-3.0v7 M-2.5,-0.5L0,-3.0L2.5,-0.5"/>
                </g>
                <g id="arrowLeft" xlink:href="#dirArrow" transform="rotate(270) translate(-36 17)" onmousedown="handlePan(-1,0)">
                  <use xlink:href="#rim" fill="#404040">
                        <set attributeName="fill" to="#808080" begin="arrowLeft.mouseover" end="arrowLeft.mouseout"/>
                  </use>
                  <path fill="none" stroke="white" stroke-width="1.5" d="M0,-3.0v7 M-2.5,-0.5L0,-3.0L2.5,-0.5"/>
                </g>
        </g>
        <svg viewBox="0 0 15 15" width="100%" height="30px" preserveAspectRatio="xMaxYMin meet">
         <g id="arrow_out" transform="scale(0.3 0.3)">
          <a xlink:href="classIG_1_1Num_1_1LinearBasis__coll__graph_org.svg" target="_base">
           <rect id="button" ry="5" rx="5" y="6" x="6" height="38" width="38"
                fill="#f2f5e9" fill-opacity="0.5" stroke="#606060" stroke-width="1.0"/>
           <path id="arrow"
             d="M 11.500037,31.436501 C 11.940474,20.09759 22.043105,11.32322 32.158766,21.979434 L 37.068811,17.246167 C 37.068811,17.246167 37.088388,32 37.088388,32 L 22.160133,31.978069 C 22.160133,31.978069 26.997745,27.140456 26.997745,27.140456 C 18.528582,18.264221 13.291696,25.230495 11.500037,31.436501 z"
             style="fill:#404040;"/>
          </a>
         </g>
        </svg>
</svg>
