<?xml version="1.0" encoding="UTF-8" standalone="no"?>
<!DOCTYPE svg PUBLIC "-//W3C//DTD SVG 1.1//EN"
 "http://www.w3.org/Graphics/SVG/1.1/DTD/svg11.dtd">
<!-- Generated by graphviz version 2.38.0 (20140413.2041)
 -->
<!-- Title: IG.Num.QuadraticBasisSafer Pages: 1 -->
<!--zoomable 343 -->
<svg id="main" version="1.1" xmlns="http://www.w3.org/2000/svg" xmlns:xlink="http://www.w3.org/1999/xlink" xml:space="preserve" onload="init(evt)">
<style type="text/css"><![CDATA[
.edge:hover path { stroke: red; }
.edge:hover polygon { stroke: red; fill: red; }
]]></style>
<script type="text/javascript"><![CDATA[
var edges = document.getElementsByTagName('g');
if (edges && edges.length) {
  for (var i=0;i<edges.length;i++) {
    if (edges[i].id.substr(0,4)=='edge') {
      edges[i].setAttribute('class','edge');
    }
  }
}
]]></script>
        <defs>
                <circle id="rim" cx="0" cy="0" r="7"/>
                <circle id="rim2" cx="0" cy="0" r="3.5"/>
                <g id="zoomPlus">
                        <use xlink:href="#rim" fill="#404040">
                                <set attributeName="fill" to="#808080" begin="zoomplus.mouseover" end="zoomplus.mouseout"/>
                        </use>
                        <path d="M-4,0h8M0,-4v8" fill="none" stroke="white" stroke-width="1.5" pointer-events="none"/>
                </g>
                <g id="zoomMin">
                        <use xlink:href="#rim" fill="#404040">
                                <set attributeName="fill" to="#808080" begin="zoomminus.mouseover" end="zoomminus.mouseout"/>
                        </use>
                        <path d="M-4,0h8" fill="none" stroke="white" stroke-width="1.5" pointer-events="none"/>
                </g>
                <g id="dirArrow">
                        <path fill="none" stroke="white" stroke-width="1.5" d="M0,-3.0v7 M-2.5,-0.5L0,-3.0L2.5,-0.5"/>
                </g>
               <g id="resetDef">
                       <use xlink:href="#rim2" fill="#404040">
                               <set attributeName="fill" to="#808080" begin="reset.mouseover" end="reset.mouseout"/>
                       </use>
               </g>
        </defs>

<script type="text/javascript">
var viewWidth = 708;
var viewHeight = 343;
var sectionId = 'dynsection-1';
</script>
<script xlink:href="../../svgpan.js"/>
<svg id="graph" class="graph">
<g id="viewport">
<title>IG.Num.QuadraticBasisSafer</title>
<polygon fill="white" stroke="none" points="-4,4 -4,-339 703.5,-339 703.5,4 -4,4"/>
<!-- Node1 -->
<g id="node1" class="node"><title>Node1</title>
<g id="a_node1"><a xlink:title="The same as QuadraticBasis, just that it has more meaningful exceptions.">
<polygon fill="#bfbfbf" stroke="black" points="511.5,-0.5 511.5,-19.5 653.5,-19.5 653.5,-0.5 511.5,-0.5"/>
<text text-anchor="middle" x="582.5" y="-7.5" font-family="Helvetica,sans-Serif" font-size="10.00">IG.Num.QuadraticBasisSafer</text>
</a>
</g>
</g>
<!-- Node2 -->
<g id="node2" class="node"><title>Node2</title>
<g id="a_node2"><a xlink:href="../../d2/de4/classIG_1_1Num_1_1QuadraticBasis.html" target="_top" xlink:title="Vector function containing quadratic basis in a n&#45;dimensional vector space. Composed of (n+1)*(n+2)/2...">
<polygon fill="white" stroke="black" points="541,-57.5 541,-76.5 624,-76.5 624,-57.5 541,-57.5"/>
<text text-anchor="middle" x="582.5" y="-64.5" font-family="Helvetica,sans-Serif" font-size="10.00">QuadraticBasis</text>
</a>
</g>
</g>
<!-- Node2&#45;&gt;Node1 -->
<g id="edge1" class="edge"><title>Node2&#45;&gt;Node1</title>
<path fill="none" stroke="midnightblue" d="M582.5,-47.1166C582.5,-37.8173 582.5,-27.0557 582.5,-19.7149"/>
<polygon fill="midnightblue" stroke="midnightblue" points="579,-47.4062 582.5,-57.4063 586,-47.4063 579,-47.4062"/>
</g>
<!-- Node3 -->
<g id="node3" class="node"><title>Node3</title>
<g id="a_node3"><a xlink:href="../../dc/df8/classIG_1_1Num_1_1VectorFunctionBaseComponentWise.html" target="_top" xlink:title="Base class for defining Vector functions whose component&#45;wise evaluation is defined directly.">
<polygon fill="white" stroke="black" points="494,-114.5 494,-133.5 671,-133.5 671,-114.5 494,-114.5"/>
<text text-anchor="middle" x="582.5" y="-121.5" font-family="Helvetica,sans-Serif" font-size="10.00">VectorFunctionBaseComponentWise</text>
</a>
</g>
</g>
<!-- Node3&#45;&gt;Node2 -->
<g id="edge2" class="edge"><title>Node3&#45;&gt;Node2</title>
<path fill="none" stroke="midnightblue" d="M582.5,-104.117C582.5,-94.8173 582.5,-84.0557 582.5,-76.7149"/>
<polygon fill="midnightblue" stroke="midnightblue" points="579,-104.406 582.5,-114.406 586,-104.406 579,-104.406"/>
</g>
<!-- Node4 -->
<g id="node4" class="node"><title>Node4</title>
<g id="a_node4"><a xlink:href="../../dc/d23/classIG_1_1Num_1_1VectorFunctionBaseGeneral.html" target="_top" xlink:title="Base class for VectorFunctionBase and VectorFunctionBaseComponentwise. In general,...">
<polygon fill="white" stroke="black" points="277,-181.5 277,-200.5 416,-200.5 416,-181.5 277,-181.5"/>
<text text-anchor="middle" x="346.5" y="-188.5" font-family="Helvetica,sans-Serif" font-size="10.00">VectorFunctionBaseGeneral</text>
</a>
</g>
</g>
<!-- Node4&#45;&gt;Node3 -->
<g id="edge3" class="edge"><title>Node4&#45;&gt;Node3</title>
<path fill="none" stroke="midnightblue" d="M387.629,-178.672C434.297,-165.819 509.366,-145.143 551.407,-133.564"/>
<polygon fill="midnightblue" stroke="midnightblue" points="386.551,-175.339 377.839,-181.369 388.409,-182.087 386.551,-175.339"/>
</g>
<!-- Node10 -->
<g id="node10" class="node"><title>Node10</title>
<g id="a_node10"><a xlink:href="../../da/de7/classIG_1_1Num_1_1VectorFunctionBase.html" target="_top" xlink:title="Base class for defining Vector functions whose evaluation is defined in bulk, and evaluation of indiv...">
<polygon fill="white" stroke="black" points="273,-114.5 273,-133.5 414,-133.5 414,-114.5 273,-114.5"/>
<text text-anchor="middle" x="343.5" y="-121.5" font-family="Helvetica,sans-Serif" font-size="10.00">IG.Num.VectorFunctionBase</text>
</a>
</g>
</g>
<!-- Node4&#45;&gt;Node10 -->
<g id="edge11" class="edge"><title>Node4&#45;&gt;Node10</title>
<path fill="none" stroke="midnightblue" d="M357.171,-172.309C359.77,-165.958 361.338,-158.708 359.5,-152 357.714,-145.484 353.905,-138.945 350.451,-133.935"/>
<polygon fill="midnightblue" stroke="midnightblue" points="353.991,-170.841 352.58,-181.342 360.231,-174.013 353.991,-170.841"/>
</g>
<!-- Node5 -->
<g id="node5" class="node"><title>Node5</title>
<g id="a_node5"><a xlink:href="../../da/d06/interfaceIG_1_1Num_1_1IVectorFunction.html" target="_top" xlink:title="Vector function of a vector argument.">
<polygon fill="white" stroke="black" points="421,-248.5 421,-267.5 506,-267.5 506,-248.5 421,-248.5"/>
<text text-anchor="middle" x="463.5" y="-255.5" font-family="Helvetica,sans-Serif" font-size="10.00">IVectorFunction</text>
</a>
</g>
</g>
<!-- Node5&#45;&gt;Node2 -->
<g id="edge16" class="edge"><title>Node5&#45;&gt;Node2</title>
<path fill="none" stroke="midnightblue" d="M465.411,-238.131C469.257,-201.576 478.188,-123.815 485.5,-114 499.753,-94.8692 524.003,-83.3692 544.69,-76.6519"/>
<polygon fill="midnightblue" stroke="midnightblue" points="461.895,-238.107 464.35,-248.414 468.858,-238.826 461.895,-238.107"/>
</g>
<!-- Node5&#45;&gt;Node3 -->
<g id="edge14" class="edge"><title>Node5&#45;&gt;Node3</title>
<path fill="none" stroke="midnightblue" d="M483.341,-242.23C487.877,-238.464 492.528,-234.267 496.5,-230 525.402,-198.952 523.08,-183.49 551.5,-152 557.525,-145.324 565.129,-138.679 571.298,-133.652"/>
<polygon fill="midnightblue" stroke="midnightblue" points="481.135,-239.512 475.47,-248.465 485.482,-244.998 481.135,-239.512"/>
</g>
<!-- Node5&#45;&gt;Node4 -->
<g id="edge4" class="edge"><title>Node5&#45;&gt;Node4</title>
<path fill="none" stroke="midnightblue" d="M438.817,-243.287C415.628,-230.405 381.644,-211.524 362.029,-200.627"/>
<polygon fill="midnightblue" stroke="midnightblue" points="437.28,-246.437 447.721,-248.234 440.679,-240.318 437.28,-246.437"/>
</g>
<!-- Node5&#45;&gt;Node10 -->
<g id="edge12" class="edge"><title>Node5&#45;&gt;Node10</title>
<path fill="none" stroke="midnightblue" d="M457.351,-238.64C451.187,-222.209 440.461,-198.139 425.5,-181 407.135,-159.96 379.176,-143.124 361.12,-133.596"/>
<polygon fill="midnightblue" stroke="midnightblue" points="454.096,-239.933 460.741,-248.184 460.692,-237.59 454.096,-239.933"/>
</g>
<!-- Node6 -->
<g id="node6" class="node"><title>Node6</title>
<g id="a_node6"><a xlink:href="../../d3/db6/interfaceIG_1_1Lib_1_1ILockable.html" target="_top" xlink:title="Lockable object, has a Lock property that returns object on which lock must be performed in order to ...">
<polygon fill="white" stroke="black" points="434.5,-315.5 434.5,-334.5 492.5,-334.5 492.5,-315.5 434.5,-315.5"/>
<text text-anchor="middle" x="463.5" y="-322.5" font-family="Helvetica,sans-Serif" font-size="10.00">ILockable</text>
</a>
</g>
</g>
<!-- Node6&#45;&gt;Node2 -->
<g id="edge17" class="edge"><title>Node6&#45;&gt;Node2</title>
<path fill="none" stroke="midnightblue" d="M503.14,-321.26C570.363,-315.514 699.5,-299.239 699.5,-259 699.5,-259 699.5,-259 699.5,-123 699.5,-88.6593 657.708,-75.7209 624.079,-70.8685"/>
<polygon fill="midnightblue" stroke="midnightblue" points="502.595,-317.793 492.912,-322.094 503.164,-324.77 502.595,-317.793"/>
</g>
<!-- Node6&#45;&gt;Node3 -->
<g id="edge15" class="edge"><title>Node6&#45;&gt;Node3</title>
<path fill="none" stroke="midnightblue" d="M480.613,-308.292C491.535,-297.652 505.473,-282.871 515.5,-268 547.228,-220.946 571.452,-156.49 579.563,-133.54"/>
<polygon fill="midnightblue" stroke="midnightblue" points="478.13,-305.823 473.292,-315.249 482.952,-310.897 478.13,-305.823"/>
</g>
<!-- Node6&#45;&gt;Node4 -->
<g id="edge6" class="edge"><title>Node6&#45;&gt;Node4</title>
<path fill="none" stroke="midnightblue" d="M448.46,-307.69C438.249,-296.567 424.478,-281.468 412.5,-268 391.132,-243.973 366.385,-215.223 354.155,-200.952"/>
<polygon fill="midnightblue" stroke="midnightblue" points="446.139,-310.337 455.485,-315.328 451.291,-305.598 446.139,-310.337"/>
</g>
<!-- Node6&#45;&gt;Node5 -->
<g id="edge5" class="edge"><title>Node6&#45;&gt;Node5</title>
<path fill="none" stroke="midnightblue" d="M463.5,-305.037C463.5,-292.67 463.5,-277.12 463.5,-267.627"/>
<polygon fill="midnightblue" stroke="midnightblue" points="460,-305.234 463.5,-315.234 467,-305.234 460,-305.234"/>
</g>
<!-- Node6&#45;&gt;Node10 -->
<g id="edge13" class="edge"><title>Node6&#45;&gt;Node10</title>
<path fill="none" stroke="midnightblue" d="M424.175,-318.318C376.475,-309.089 298.047,-285.866 262.5,-230 256.897,-221.194 255.281,-205.26 267.5,-181 279.001,-158.165 304.707,-142.366 323.035,-133.506"/>
<polygon fill="midnightblue" stroke="midnightblue" points="423.685,-321.786 434.149,-320.131 424.937,-314.899 423.685,-321.786"/>
</g>
<!-- Node7 -->
<g id="node7" class="node"><title>Node7</title>
<g id="a_node7"><a xlink:href="../../d5/dc3/classIG_1_1Num_1_1VectorFunctionResults.html" target="_top" xlink:title="Vector function results. Used to transfer parameters input (e.g. vector of parameters,...">
<polygon fill="white" stroke="black" points="68.5,-248.5 68.5,-267.5 220.5,-267.5 220.5,-248.5 68.5,-248.5"/>
<text text-anchor="middle" x="144.5" y="-255.5" font-family="Helvetica,sans-Serif" font-size="10.00">IG.Num.VectorFunctionResults</text>
</a>
</g>
</g>
<!-- Node7&#45;&gt;Node4 -->
<g id="edge7" class="edge"><title>Node7&#45;&gt;Node4</title>
<path fill="none" stroke="#9a32cd" stroke-dasharray="5,2" d="M180.968,-245.265C220.992,-232.386 284.28,-212.021 319.887,-200.564"/>
<polygon fill="#9a32cd" stroke="#9a32cd" points="179.771,-241.974 171.324,-248.369 181.915,-248.637 179.771,-241.974"/>
<text text-anchor="middle" x="287.5" y="-222" font-family="Helvetica,sans-Serif" font-size="10.00"> _auxResults</text>
</g>
<!-- Node8 -->
<g id="node8" class="node"><title>Node8</title>
<g id="a_node8"><a xlink:href="../../d6/dbe/interfaceIG_1_1Num_1_1IVectorFunctionResults.html" target="_top" xlink:title="Vector function results. Used to transfer parameters input (e.g. vector of parameters,...">
<polygon fill="white" stroke="black" points="125.5,-315.5 125.5,-334.5 243.5,-334.5 243.5,-315.5 125.5,-315.5"/>
<text text-anchor="middle" x="184.5" y="-322.5" font-family="Helvetica,sans-Serif" font-size="10.00">IVectorFunctionResults</text>
</a>
</g>
</g>
<!-- Node8&#45;&gt;Node7 -->
<g id="edge8" class="edge"><title>Node8&#45;&gt;Node7</title>
<path fill="none" stroke="midnightblue" d="M173.752,-306.535C166.008,-293.95 155.889,-277.507 149.809,-267.627"/>
<polygon fill="midnightblue" stroke="midnightblue" points="170.884,-308.552 179.105,-315.234 176.845,-304.883 170.884,-308.552"/>
</g>
<!-- Node9 -->
<g id="node9" class="node"><title>Node9</title>
<g id="a_node9"><a xlink:href="../../d3/d24/interfaceIG_1_1Num_1_1IVector.html" target="_top" xlink:title="Generic Vector interface">
<polygon fill="white" stroke="black" points="0,-315.5 0,-334.5 107,-334.5 107,-315.5 0,-315.5"/>
<text text-anchor="middle" x="53.5" y="-322.5" font-family="Helvetica,sans-Serif" font-size="10.00">IG.Num.IVector&lt; T &gt;</text>
</a>
</g>
</g>
<!-- Node9&#45;&gt;Node7 -->
<g id="edge9" class="edge"><title>Node9&#45;&gt;Node7</title>
<path fill="none" stroke="#9a32cd" stroke-dasharray="5,2" d="M71.154,-308.823C79.7947,-301.631 90.4736,-293.085 100.5,-286 109.869,-279.38 120.869,-272.63 129.527,-267.535"/>
<polygon fill="#9a32cd" stroke="#9a32cd" points="68.6763,-306.334 63.2924,-315.459 73.1916,-311.683 68.6763,-306.334"/>
<text text-anchor="middle" x="129.5" y="-289" font-family="Helvetica,sans-Serif" font-size="10.00"> _parameters</text>
</g>
<!-- Node10&#45;&gt;Node4 -->
<g id="edge10" class="edge"><title>Node10&#45;&gt;Node4</title>
<path fill="none" stroke="#9a32cd" stroke-dasharray="5,2" d="M314.683,-138.742C305.239,-145.259 298.338,-153.664 303.5,-163 308.021,-171.177 316.17,-177.212 324.168,-181.476"/>
<polygon fill="#9a32cd" stroke="#9a32cd" points="316.616,-141.664 323.398,-133.525 313.02,-135.658 316.616,-141.664"/>
<text text-anchor="middle" x="331.5" y="-155" font-family="Helvetica,sans-Serif" font-size="10.00"> _resultStore</text>
</g>
</g>
</svg>
        <g id="navigator" transform="translate(0 0)" fill="#404254">
                <rect fill="#f2f5e9" fill-opacity="0.5" stroke="#606060" stroke-width=".5" x="0" y="0" width="60" height="60"/>
                <use id="zoomplus" xlink:href="#zoomPlus" x="17" y="9" onmousedown="handleZoom(evt,'in')"/>
                <use id="zoomminus" xlink:href="#zoomMin" x="42" y="9" onmousedown="handleZoom(evt,'out')"/>
                <use id="reset" xlink:href="#resetDef" x="30" y="36" onmousedown="handleReset()"/>
                <g id="arrowUp" xlink:href="#dirArrow" transform="translate(30 24)" onmousedown="handlePan(0,-1)">
                  <use xlink:href="#rim" fill="#404040">
                        <set attributeName="fill" to="#808080" begin="arrowUp.mouseover" end="arrowUp.mouseout"/>
                  </use>
                  <path fill="none" stroke="white" stroke-width="1.5" d="M0,-3.0v7 M-2.5,-0.5L0,-3.0L2.5,-0.5"/>
                </g>
                <g id="arrowRight" xlink:href="#dirArrow" transform="rotate(90) translate(36 -43)" onmousedown="handlePan(1,0)">
                  <use xlink:href="#rim" fill="#404040">
                        <set attributeName="fill" to="#808080" begin="arrowRight.mouseover" end="arrowRight.mouseout"/>
                  </use>
                  <path fill="none" stroke="white" stroke-width="1.5" d="M0,-3.0v7 M-2.5,-0.5L0,-3.0L2.5,-0.5"/>
                </g>
                <g id="arrowDown" xlink:href="#dirArrow" transform="rotate(180) translate(-30 -48)" onmousedown="handlePan(0,1)">
                  <use xlink:href="#rim" fill="#404040">
                        <set attributeName="fill" to="#808080" begin="arrowDown.mouseover" end="arrowDown.mouseout"/>
                  </use>
                  <path fill="none" stroke="white" stroke-width="1.5" d="M0,-3.0v7 M-2.5,-0.5L0,-3.0L2.5,-0.5"/>
                </g>
                <g id="arrowLeft" xlink:href="#dirArrow" transform="rotate(270) translate(-36 17)" onmousedown="handlePan(-1,0)">
                  <use xlink:href="#rim" fill="#404040">
                        <set attributeName="fill" to="#808080" begin="arrowLeft.mouseover" end="arrowLeft.mouseout"/>
                  </use>
                  <path fill="none" stroke="white" stroke-width="1.5" d="M0,-3.0v7 M-2.5,-0.5L0,-3.0L2.5,-0.5"/>
                </g>
        </g>
        <svg viewBox="0 0 15 15" width="100%" height="30px" preserveAspectRatio="xMaxYMin meet">
         <g id="arrow_out" transform="scale(0.3 0.3)">
          <a xlink:href="classIG_1_1Num_1_1QuadraticBasisSafer__coll__graph_org.svg" target="_base">
           <rect id="button" ry="5" rx="5" y="6" x="6" height="38" width="38"
                fill="#f2f5e9" fill-opacity="0.5" stroke="#606060" stroke-width="1.0"/>
           <path id="arrow"
             d="M 11.500037,31.436501 C 11.940474,20.09759 22.043105,11.32322 32.158766,21.979434 L 37.068811,17.246167 C 37.068811,17.246167 37.088388,32 37.088388,32 L 22.160133,31.978069 C 22.160133,31.978069 26.997745,27.140456 26.997745,27.140456 C 18.528582,18.264221 13.291696,25.230495 11.500037,31.436501 z"
             style="fill:#404040;"/>
          </a>
         </g>
        </svg>
</svg>
