<?xml version="1.0" encoding="UTF-8" standalone="no"?>
<!DOCTYPE svg PUBLIC "-//W3C//DTD SVG 1.1//EN"
 "http://www.w3.org/Graphics/SVG/1.1/DTD/svg11.dtd">
<!-- Generated by graphviz version 2.38.0 (20140413.2041)
 -->
<!-- Title: IGLib.Core.ToStringTypeConverterViaJson Pages: 1 -->
<svg width="171pt" height="106pt"
 viewBox="0.00 0.00 171.00 106.00" xmlns="http://www.w3.org/2000/svg" xmlns:xlink="http://www.w3.org/1999/xlink">
<g id="graph0" class="graph" transform="scale(1 1) rotate(0) translate(4 102)">
<title>IGLib.Core.ToStringTypeConverterViaJson</title>
<polygon fill="white" stroke="none" points="-4,4 -4,-102 167,-102 167,4 -4,4"/>
<!-- Node1 -->
<g id="node1" class="node"><title>Node1</title>
<g id="a_node1"><a xlink:title="Converts an object of any type to its JSON string representation using System.Text....">
<polygon fill="#bfbfbf" stroke="black" points="0,-0.5 0,-30.5 163,-30.5 163,-0.5 0,-0.5"/>
<text text-anchor="start" x="8" y="-18.5" font-family="Helvetica,sans-Serif" font-size="10.00">IGLib.Core.ToStringTypeConverter</text>
<text text-anchor="middle" x="81.5" y="-7.5" font-family="Helvetica,sans-Serif" font-size="10.00">ViaJson</text>
</a>
</g>
</g>
<!-- Node2 -->
<g id="node2" class="node"><title>Node2</title>
<g id="a_node2"><a xlink:href="../../d0/d65/interfaceIGLib_1_1Core_1_1ISingleTargetTypeConverter.html" target="_top" xlink:title=" ">
<polygon fill="white" stroke="black" points="14.5,-67.5 14.5,-97.5 148.5,-97.5 148.5,-67.5 14.5,-67.5"/>
<text text-anchor="start" x="22.5" y="-85.5" font-family="Helvetica,sans-Serif" font-size="10.00">ISingleTargetTypeConverter</text>
<text text-anchor="middle" x="81.5" y="-74.5" font-family="Helvetica,sans-Serif" font-size="10.00">&lt; string &gt;</text>
</a>
</g>
</g>
<!-- Node2&#45;&gt;Node1 -->
<g id="edge1" class="edge"><title>Node2&#45;&gt;Node1</title>
<path fill="none" stroke="midnightblue" d="M81.5,-57.1081C81.5,-48.1539 81.5,-38.3227 81.5,-30.5765"/>
<polygon fill="midnightblue" stroke="midnightblue" points="78.0001,-57.3959 81.5,-67.396 85.0001,-57.396 78.0001,-57.3959"/>
</g>
</g>
</svg>
