<?xml version="1.0" encoding="UTF-8" standalone="no"?>
<!DOCTYPE svg PUBLIC "-//W3C//DTD SVG 1.1//EN"
 "http://www.w3.org/Graphics/SVG/1.1/DTD/svg11.dtd">
<!-- Generated by graphviz version 2.38.0 (20140413.2041)
 -->
<!-- Title: IG.Lib.StringParser Pages: 1 -->
<svg width="273pt" height="152pt"
 viewBox="0.00 0.00 273.00 152.00" xmlns="http://www.w3.org/2000/svg" xmlns:xlink="http://www.w3.org/1999/xlink">
<g id="graph0" class="graph" transform="scale(1 1) rotate(0) translate(4 148)">
<title>IG.Lib.StringParser</title>
<polygon fill="white" stroke="none" points="-4,4 -4,-148 269,-148 269,4 -4,4"/>
<!-- Node1 -->
<g id="node1" class="node"><title>Node1</title>
<g id="a_node1"><a xlink:title="Parsig data from character arrays. Provides various parsing and writing utilities on character buffer...">
<polygon fill="#bfbfbf" stroke="black" points="99,-0.5 99,-19.5 198,-19.5 198,-0.5 99,-0.5"/>
<text text-anchor="middle" x="148.5" y="-7.5" font-family="Helvetica,sans-Serif" font-size="10.00">IG.Lib.StringParser</text>
</a>
</g>
</g>
<!-- Node2 -->
<g id="node2" class="node"><title>Node2</title>
<g id="a_node2"><a xlink:href="../../dc/dc9/interfaceIG_1_1Lib_1_1IStringParser.html" target="_top" xlink:title="String Parsers and Formatted Writers.">
<polygon fill="white" stroke="black" points="0,-67.5 0,-86.5 73,-86.5 73,-67.5 0,-67.5"/>
<text text-anchor="middle" x="36.5" y="-74.5" font-family="Helvetica,sans-Serif" font-size="10.00">IStringParser</text>
</a>
</g>
</g>
<!-- Node2&#45;&gt;Node1 -->
<g id="edge1" class="edge"><title>Node2&#45;&gt;Node1</title>
<path fill="none" stroke="midnightblue" d="M60.4248,-62.1151C82.6147,-49.237 114.942,-30.4758 133.634,-19.6273"/>
<polygon fill="midnightblue" stroke="midnightblue" points="58.497,-59.1871 51.6048,-67.2338 62.0106,-65.2414 58.497,-59.1871"/>
</g>
<!-- Node3 -->
<g id="node3" class="node"><title>Node3</title>
<g id="a_node3"><a xlink:href="../../dc/d03/interfaceIG_1_1Lib_1_1ICharacterBuffer.html" target="_top" xlink:title="Interface for all implementations of read&#45;write character buffer. Classes that implement this interfa...">
<polygon fill="white" stroke="black" points="91.5,-67.5 91.5,-86.5 205.5,-86.5 205.5,-67.5 91.5,-67.5"/>
<text text-anchor="middle" x="148.5" y="-74.5" font-family="Helvetica,sans-Serif" font-size="10.00">IG.Lib.ICharacterBuffer</text>
</a>
</g>
</g>
<!-- Node3&#45;&gt;Node1 -->
<g id="edge2" class="edge"><title>Node3&#45;&gt;Node1</title>
<path fill="none" stroke="#9a32cd" stroke-dasharray="5,2" d="M148.5,-57.037C148.5,-44.6703 148.5,-29.1198 148.5,-19.6273"/>
<polygon fill="#9a32cd" stroke="#9a32cd" points="145,-57.2338 148.5,-67.2338 152,-57.2338 145,-57.2338"/>
<text text-anchor="middle" x="164.5" y="-41" font-family="Helvetica,sans-Serif" font-size="10.00"> _buffer</text>
</g>
<!-- Node4 -->
<g id="node4" class="node"><title>Node4</title>
<g id="a_node4"><a xlink:href="../../d0/d9c/interfaceIG_1_1Lib_1_1ICharacterBufferReadOnly.html" target="_top" xlink:title="Interface for all implementations of read&#45;only character buffer. Classes that implement this interfac...">
<polygon fill="white" stroke="black" points="84.5,-124.5 84.5,-143.5 212.5,-143.5 212.5,-124.5 84.5,-124.5"/>
<text text-anchor="middle" x="148.5" y="-131.5" font-family="Helvetica,sans-Serif" font-size="10.00">ICharacterBufferReadOnly</text>
</a>
</g>
</g>
<!-- Node4&#45;&gt;Node3 -->
<g id="edge3" class="edge"><title>Node4&#45;&gt;Node3</title>
<path fill="none" stroke="midnightblue" d="M148.5,-114.117C148.5,-104.817 148.5,-94.0557 148.5,-86.7149"/>
<polygon fill="midnightblue" stroke="midnightblue" points="145,-114.406 148.5,-124.406 152,-114.406 145,-114.406"/>
</g>
<!-- Node5 -->
<g id="node5" class="node"><title>Node5</title>
<g id="a_node5"><a xlink:title=" ">
<polygon fill="white" stroke="#bfbfbf" points="224,-67.5 224,-86.5 265,-86.5 265,-67.5 224,-67.5"/>
<text text-anchor="middle" x="244.5" y="-74.5" font-family="Helvetica,sans-Serif" font-size="10.00">static</text>
</a>
</g>
</g>
<!-- Node5&#45;&gt;Node1 -->
<g id="edge4" class="edge"><title>Node5&#45;&gt;Node1</title>
<path fill="none" stroke="#9a32cd" stroke-dasharray="5,2" d="M223.224,-61.5945C204.233,-48.7359 177.05,-30.3306 161.242,-19.6273"/>
<polygon fill="#9a32cd" stroke="#9a32cd" points="221.31,-64.5254 231.553,-67.2338 225.235,-58.729 221.31,-64.5254"/>
<text text-anchor="middle" x="219.5" y="-41" font-family="Helvetica,sans-Serif" font-size="10.00"> _global</text>
</g>
</g>
</svg>
