<?xml version="1.0" encoding="UTF-8" standalone="no"?>
<!DOCTYPE svg PUBLIC "-//W3C//DTD SVG 1.1//EN"
 "http://www.w3.org/Graphics/SVG/1.1/DTD/svg11.dtd">
<!-- Generated by graphviz version 2.38.0 (20140413.2041)
 -->
<!-- Title: IG.Neural.MappingApproximationFileManager Pages: 1 -->
<svg width="367pt" height="163pt"
 viewBox="0.00 0.00 366.50 163.00" xmlns="http://www.w3.org/2000/svg" xmlns:xlink="http://www.w3.org/1999/xlink">
<g id="graph0" class="graph" transform="scale(1 1) rotate(0) translate(4 159)">
<title>IG.Neural.MappingApproximationFileManager</title>
<polygon fill="white" stroke="none" points="-4,4 -4,-159 362.5,-159 362.5,4 -4,4"/>
<!-- Node1 -->
<g id="node1" class="node"><title>Node1</title>
<g id="a_node1"><a xlink:title="File manager for mapping file client and server.">
<polygon fill="#bfbfbf" stroke="black" points="154.5,-0.5 154.5,-30.5 313.5,-30.5 313.5,-0.5 154.5,-0.5"/>
<text text-anchor="start" x="162.5" y="-18.5" font-family="Helvetica,sans-Serif" font-size="10.00">IG.Neural.MappingApproximation</text>
<text text-anchor="middle" x="234" y="-7.5" font-family="Helvetica,sans-Serif" font-size="10.00">FileManager</text>
</a>
</g>
</g>
<!-- Node2 -->
<g id="node2" class="node"><title>Node2</title>
<g id="a_node2"><a xlink:href="../../d5/de7/classIG_1_1Neural_1_1NeuraApproximationFileManager.html" target="_top" xlink:title="File manager for neural network approximation file client and server.">
<polygon fill="white" stroke="black" points="0,-78.5 0,-97.5 158,-97.5 158,-78.5 0,-78.5"/>
<text text-anchor="middle" x="79" y="-85.5" font-family="Helvetica,sans-Serif" font-size="10.00">NeuraApproximationFileManager</text>
</a>
</g>
</g>
<!-- Node2&#45;&gt;Node1 -->
<g id="edge1" class="edge"><title>Node2&#45;&gt;Node1</title>
<path fill="none" stroke="midnightblue" d="M107.012,-74.259C134.14,-61.9203 175.175,-43.256 203.207,-30.5059"/>
<polygon fill="midnightblue" stroke="midnightblue" points="105.35,-71.1698 97.6966,-78.4961 108.248,-77.5417 105.35,-71.1698"/>
</g>
<!-- Node3 -->
<g id="node3" class="node"><title>Node3</title>
<g id="a_node3"><a xlink:href="../../d3/db6/interfaceIG_1_1Lib_1_1ILockable.html" target="_top" xlink:title="Lockable object, has a Lock property that returns object on which lock must be performed in order to ...">
<polygon fill="white" stroke="black" points="50,-135.5 50,-154.5 108,-154.5 108,-135.5 50,-135.5"/>
<text text-anchor="middle" x="79" y="-142.5" font-family="Helvetica,sans-Serif" font-size="10.00">ILockable</text>
</a>
</g>
</g>
<!-- Node3&#45;&gt;Node2 -->
<g id="edge2" class="edge"><title>Node3&#45;&gt;Node2</title>
<path fill="none" stroke="midnightblue" d="M79,-125.117C79,-115.817 79,-105.056 79,-97.7149"/>
<polygon fill="midnightblue" stroke="midnightblue" points="75.5001,-125.406 79,-135.406 82.5001,-125.406 75.5001,-125.406"/>
</g>
<!-- Node4 -->
<g id="node4" class="node"><title>Node4</title>
<g id="a_node4"><a xlink:href="../../d0/d0b/interfaceIG_1_1Neural_1_1IDataMapper.html" target="_top" xlink:title=" ">
<polygon fill="white" stroke="black" points="176.5,-78.5 176.5,-97.5 291.5,-97.5 291.5,-78.5 176.5,-78.5"/>
<text text-anchor="middle" x="234" y="-85.5" font-family="Helvetica,sans-Serif" font-size="10.00">IG.Neural.IDataMapper</text>
</a>
</g>
</g>
<!-- Node4&#45;&gt;Node1 -->
<g id="edge3" class="edge"><title>Node4&#45;&gt;Node1</title>
<path fill="none" stroke="#9a32cd" stroke-dasharray="5,2" d="M234,-68.2362C234,-56.4079 234,-41.3829 234,-30.5762"/>
<polygon fill="#9a32cd" stroke="#9a32cd" points="230.5,-68.3553 234,-78.3553 237.5,-68.3554 230.5,-68.3553"/>
<text text-anchor="middle" x="274.5" y="-52" font-family="Helvetica,sans-Serif" font-size="10.00"> _mapperDefinition</text>
</g>
<!-- Node5 -->
<g id="node5" class="node"><title>Node5</title>
<g id="a_node5"><a xlink:title=" ">
<polygon fill="white" stroke="#bfbfbf" points="317.5,-78.5 317.5,-97.5 358.5,-97.5 358.5,-78.5 317.5,-78.5"/>
<text text-anchor="middle" x="338" y="-85.5" font-family="Helvetica,sans-Serif" font-size="10.00">static</text>
</a>
</g>
</g>
<!-- Node5&#45;&gt;Node1 -->
<g id="edge4" class="edge"><title>Node5&#45;&gt;Node1</title>
<path fill="none" stroke="#9a32cd" stroke-dasharray="5,2" d="M330.644,-68.8773C327.079,-61.9099 322.206,-54.3521 316,-49 307.071,-41.299 296.095,-35.2904 285.11,-30.6528"/>
<polygon fill="#9a32cd" stroke="#9a32cd" points="327.617,-70.6762 334.936,-78.3372 333.992,-67.7844 327.617,-70.6762"/>
<text text-anchor="middle" x="338.5" y="-52" font-family="Helvetica,sans-Serif" font-size="10.00"> _aux</text>
</g>
</g>
</svg>
