<?xml version="1.0" encoding="UTF-8" standalone="no"?>
<!DOCTYPE svg PUBLIC "-//W3C//DTD SVG 1.1//EN"
 "http://www.w3.org/Graphics/SVG/1.1/DTD/svg11.dtd">
<!-- Generated by graphviz version 2.38.0 (20140413.2041)
 -->
<!-- Title: IGLib.Gr3D.ICurve3DParameterizationWithBounds Pages: 1 -->
<!--zoomable 888 -->
<svg id="main" version="1.1" xmlns="http://www.w3.org/2000/svg" xmlns:xlink="http://www.w3.org/1999/xlink" xml:space="preserve" onload="init(evt)">
<style type="text/css"><![CDATA[
.edge:hover path { stroke: red; }
.edge:hover polygon { stroke: red; fill: red; }
]]></style>
<script type="text/javascript"><![CDATA[
var edges = document.getElementsByTagName('g');
if (edges && edges.length) {
  for (var i=0;i<edges.length;i++) {
    if (edges[i].id.substr(0,4)=='edge') {
      edges[i].setAttribute('class','edge');
    }
  }
}
]]></script>
        <defs>
                <circle id="rim" cx="0" cy="0" r="7"/>
                <circle id="rim2" cx="0" cy="0" r="3.5"/>
                <g id="zoomPlus">
                        <use xlink:href="#rim" fill="#404040">
                                <set attributeName="fill" to="#808080" begin="zoomplus.mouseover" end="zoomplus.mouseout"/>
                        </use>
                        <path d="M-4,0h8M0,-4v8" fill="none" stroke="white" stroke-width="1.5" pointer-events="none"/>
                </g>
                <g id="zoomMin">
                        <use xlink:href="#rim" fill="#404040">
                                <set attributeName="fill" to="#808080" begin="zoomminus.mouseover" end="zoomminus.mouseout"/>
                        </use>
                        <path d="M-4,0h8" fill="none" stroke="white" stroke-width="1.5" pointer-events="none"/>
                </g>
                <g id="dirArrow">
                        <path fill="none" stroke="white" stroke-width="1.5" d="M0,-3.0v7 M-2.5,-0.5L0,-3.0L2.5,-0.5"/>
                </g>
               <g id="resetDef">
                       <use xlink:href="#rim2" fill="#404040">
                               <set attributeName="fill" to="#808080" begin="reset.mouseover" end="reset.mouseout"/>
                       </use>
               </g>
        </defs>

<script type="text/javascript">
var viewWidth = 598;
var viewHeight = 888;
var sectionId = 'dynsection-0';
</script>
<script xlink:href="../../svgpan.js"/>
<svg id="graph" class="graph">
<g id="viewport">
<title>IGLib.Gr3D.ICurve3DParameterizationWithBounds</title>
<polygon fill="white" stroke="none" points="-4,4 -4,-883.741 594,-883.741 594,4 -4,4"/>
<!-- Node1 -->
<g id="node1" class="node"><title>Node1</title>
<g id="a_node1"><a xlink:title="Cartesion parameterization of a curve in 3D. Beside the Curve and (optional) CurveDerivative,...">
<polygon fill="#bfbfbf" stroke="black" points="0,-415.5 0,-445.5 179,-445.5 179,-415.5 0,-415.5"/>
<text text-anchor="start" x="8" y="-433.5" font-family="Helvetica,sans-Serif" font-size="10.00">IGLib.Gr3D.ICurve3DParameterization</text>
<text text-anchor="middle" x="89.5" y="-422.5" font-family="Helvetica,sans-Serif" font-size="10.00">WithBounds</text>
</a>
</g>
</g>
<!-- Node2 -->
<g id="node2" class="node"><title>Node2</title>
<g id="a_node2"><a xlink:href="../../d5/d39/classIGLib_1_1Gr3D_1_1ConicalCurve3DParameterizationFromPolarWithBounds.html" target="_top" xlink:title="Cartesion parameterization of a curve in 3D. Beside the Curve and (optional) CurveDerivative,...">
<polygon fill="white" stroke="black" points="222.5,-754 222.5,-795 384.5,-795 384.5,-754 222.5,-754"/>
<text text-anchor="start" x="230.5" y="-783" font-family="Helvetica,sans-Serif" font-size="10.00">IGLib.Gr3D.ConicalCurve3</text>
<text text-anchor="start" x="230.5" y="-772" font-family="Helvetica,sans-Serif" font-size="10.00">DParameterizationFromPolarWith</text>
<text text-anchor="middle" x="303.5" y="-761" font-family="Helvetica,sans-Serif" font-size="10.00">Bounds</text>
</a>
</g>
</g>
<!-- Node1&#45;&gt;Node2 -->
<g id="edge1" class="edge"><title>Node1&#45;&gt;Node2</title>
<path fill="none" stroke="midnightblue" d="M93.8678,-455.754C102.871,-513.672 132.677,-657.383 215,-739.5 220.676,-745.162 227.385,-749.938 234.523,-753.961"/>
<polygon fill="midnightblue" stroke="midnightblue" points="97.3012,-455.046 92.3778,-445.664 90.3763,-456.068 97.3012,-455.046"/>
</g>
<!-- Node3 -->
<g id="node3" class="node"><title>Node3</title>
<g id="a_node3"><a xlink:href="../../d5/d08/classIGLib_1_1Gr3D_1_1ConicalSpiralArchimedean3D.html" target="_top" xlink:title="A 3D parametric curve with bounds &#45; the conical archimedean spiral.">
<polygon fill="white" stroke="black" points="446.5,-844.5 446.5,-874.5 571.5,-874.5 571.5,-844.5 446.5,-844.5"/>
<text text-anchor="start" x="454.5" y="-862.5" font-family="Helvetica,sans-Serif" font-size="10.00">IGLib.Gr3D.ConicalSpiral</text>
<text text-anchor="middle" x="509" y="-851.5" font-family="Helvetica,sans-Serif" font-size="10.00">Archimedean3D</text>
</a>
</g>
</g>
<!-- Node1&#45;&gt;Node3 -->
<g id="edge6" class="edge"><title>Node1&#45;&gt;Node3</title>
<path fill="none" stroke="midnightblue" d="M94.6022,-456.258C108.103,-537.567 153.812,-786.308 215,-835.5 280.036,-887.786 381.514,-883.074 446.357,-872.843"/>
<polygon fill="midnightblue" stroke="midnightblue" points="97.9818,-455.238 92.9126,-445.935 91.0737,-456.369 97.9818,-455.238"/>
</g>
<!-- Node4 -->
<g id="node4" class="node"><title>Node4</title>
<g id="a_node4"><a xlink:href="../../de/dc6/classIGLib_1_1Gr3D_1_1ConicalSpiralFermats3D.html" target="_top" xlink:title="A 3D parametric curve with bounds &#45; the conical Fermat&#39;s spiral.">
<polygon fill="white" stroke="black" points="446.5,-792.5 446.5,-822.5 571.5,-822.5 571.5,-792.5 446.5,-792.5"/>
<text text-anchor="start" x="454.5" y="-810.5" font-family="Helvetica,sans-Serif" font-size="10.00">IGLib.Gr3D.ConicalSpiral</text>
<text text-anchor="middle" x="509" y="-799.5" font-family="Helvetica,sans-Serif" font-size="10.00">Fermats3D</text>
</a>
</g>
</g>
<!-- Node1&#45;&gt;Node4 -->
<g id="edge7" class="edge"><title>Node1&#45;&gt;Node4</title>
<path fill="none" stroke="midnightblue" d="M89.8585,-455.816C89.6398,-525.499 99.775,-720.516 215,-804.5 286.942,-856.937 397.445,-839.084 460.17,-822.538"/>
<polygon fill="midnightblue" stroke="midnightblue" points="93.359,-455.782 89.968,-445.745 86.3594,-455.706 93.359,-455.782"/>
</g>
<!-- Node5 -->
<g id="node5" class="node"><title>Node5</title>
<g id="a_node5"><a xlink:href="../../d8/d32/classIGLib_1_1Gr3D_1_1ConicalSpiralHyperbolic3D.html" target="_top" xlink:title="A 3D parametric curve with bounds &#45; the conical hyperbolic spiral.">
<polygon fill="white" stroke="black" points="446.5,-736.5 446.5,-766.5 571.5,-766.5 571.5,-736.5 446.5,-736.5"/>
<text text-anchor="start" x="454.5" y="-754.5" font-family="Helvetica,sans-Serif" font-size="10.00">IGLib.Gr3D.ConicalSpiral</text>
<text text-anchor="middle" x="509" y="-743.5" font-family="Helvetica,sans-Serif" font-size="10.00">Hyperbolic3D</text>
</a>
</g>
</g>
<!-- Node1&#45;&gt;Node5 -->
<g id="edge8" class="edge"><title>Node1&#45;&gt;Node5</title>
<path fill="none" stroke="midnightblue" d="M94.6941,-455.407C104.953,-508.127 136.46,-631.173 215,-692.5 250.326,-720.084 371.396,-737.307 446.404,-745.591"/>
<polygon fill="midnightblue" stroke="midnightblue" points="98.132,-454.75 92.8679,-445.555 91.2493,-456.026 98.132,-454.75"/>
</g>
<!-- Node6 -->
<g id="node6" class="node"><title>Node6</title>
<g id="a_node6"><a xlink:href="../../da/d9b/classIGLib_1_1Gr3D_1_1ConicalSpiralLogarithmic3D.html" target="_top" xlink:title="A 3D parametric curve with bounds &#45; the conical logarithmic spiral.">
<polygon fill="white" stroke="black" points="446.5,-674.5 446.5,-704.5 571.5,-704.5 571.5,-674.5 446.5,-674.5"/>
<text text-anchor="start" x="454.5" y="-692.5" font-family="Helvetica,sans-Serif" font-size="10.00">IGLib.Gr3D.ConicalSpiral</text>
<text text-anchor="middle" x="509" y="-681.5" font-family="Helvetica,sans-Serif" font-size="10.00">Logarithmic3D</text>
</a>
</g>
</g>
<!-- Node1&#45;&gt;Node6 -->
<g id="edge9" class="edge"><title>Node1&#45;&gt;Node6</title>
<path fill="none" stroke="midnightblue" d="M96.1421,-455.591C108.438,-503.85 142.552,-609.101 215,-657.5 283.93,-703.549 382.953,-704.131 446.379,-698.351"/>
<polygon fill="midnightblue" stroke="midnightblue" points="99.4916,-454.553 93.7196,-445.668 92.6913,-456.213 99.4916,-454.553"/>
</g>
<!-- Node7 -->
<g id="node7" class="node"><title>Node7</title>
<g id="a_node7"><a xlink:href="../../d7/dac/classIGLib_1_1Gr3D_1_1Curve3DParameterizationFromCylindricalWithBounds.html" target="_top" xlink:title="Cartesion parameterization of a curve in 3D. Beside the Curve and (optional) CurveDerivative,...">
<polygon fill="white" stroke="black" points="215,-590.5 215,-620.5 392,-620.5 392,-590.5 215,-590.5"/>
<text text-anchor="start" x="223" y="-608.5" font-family="Helvetica,sans-Serif" font-size="10.00">IGLib.Gr3D.Curve3DParameterization</text>
<text text-anchor="middle" x="303.5" y="-597.5" font-family="Helvetica,sans-Serif" font-size="10.00">FromCylindricalWithBounds</text>
</a>
</g>
</g>
<!-- Node1&#45;&gt;Node7 -->
<g id="edge10" class="edge"><title>Node1&#45;&gt;Node7</title>
<path fill="none" stroke="midnightblue" d="M105.014,-454.22C125.681,-486.118 166.509,-542.623 215,-575.5 223.906,-581.538 234.143,-586.47 244.405,-590.462"/>
<polygon fill="midnightblue" stroke="midnightblue" points="107.814,-452.1 99.4954,-445.539 101.907,-455.856 107.814,-452.1"/>
</g>
<!-- Node8 -->
<g id="node8" class="node"><title>Node8</title>
<g id="a_node8"><a xlink:href="../../df/d6e/classIGLib_1_1Gr3D_1_1CylindricalBilliardKnot.html" target="_top" xlink:title="Cartesian and cylindrical parameterization of a cylindrical billiard knot in 3D.">
<polygon fill="white" stroke="black" points="428,-616 428,-635 590,-635 590,-616 428,-616"/>
<text text-anchor="middle" x="509" y="-623" font-family="Helvetica,sans-Serif" font-size="10.00">IGLib.Gr3D.CylindricalBilliardKnot</text>
</a>
</g>
</g>
<!-- Node1&#45;&gt;Node8 -->
<g id="edge13" class="edge"><title>Node1&#45;&gt;Node8</title>
<path fill="none" stroke="midnightblue" d="M97.3574,-455.5C111.125,-500.187 146.811,-592.626 215,-630.5 300.616,-678.053 423.145,-651.264 478.664,-635.048"/>
<polygon fill="midnightblue" stroke="midnightblue" points="100.659,-454.321 94.4635,-445.726 93.9466,-456.308 100.659,-454.321"/>
</g>
<!-- Node9 -->
<g id="node9" class="node"><title>Node9</title>
<g id="a_node9"><a xlink:href="../../da/da0/classIGLib_1_1Gr3D_1_1CylindricalBilliardKnot__WrongParameterization.html" target="_top" xlink:title="Cartesian and cylindrical parameterization of a cylindrical billiard knot in 3D.">
<polygon fill="white" stroke="black" points="437,-566.5 437,-596.5 581,-596.5 581,-566.5 437,-566.5"/>
<text text-anchor="start" x="445" y="-584.5" font-family="Helvetica,sans-Serif" font-size="10.00">IGLib.Gr3D.CylindricalBilliard</text>
<text text-anchor="middle" x="509" y="-573.5" font-family="Helvetica,sans-Serif" font-size="10.00">Knot_WrongParameterization</text>
</a>
</g>
</g>
<!-- Node1&#45;&gt;Node9 -->
<g id="edge14" class="edge"><title>Node1&#45;&gt;Node9</title>
<path fill="none" stroke="midnightblue" d="M108.509,-453.501C130.544,-479.824 170.458,-521.939 215,-542.5 253.264,-560.163 363.042,-571.215 436.815,-576.869"/>
<polygon fill="midnightblue" stroke="midnightblue" points="111.045,-451.074 102,-445.557 105.631,-455.511 111.045,-451.074"/>
</g>
<!-- Node10 -->
<g id="node10" class="node"><title>Node10</title>
<g id="a_node10"><a xlink:href="../../d4/dc1/classIGLib_1_1Gr3D_1_1FigureEightKnot3D.html" target="_top" xlink:title="Figure&#45;eight knot is the only knot with 4 crossings. It is achiral, it is equal to is image by reflec...">
<polygon fill="white" stroke="black" points="229,-514 229,-533 378,-533 378,-514 229,-514"/>
<text text-anchor="middle" x="303.5" y="-521" font-family="Helvetica,sans-Serif" font-size="10.00">IGLib.Gr3D.FigureEightKnot3D</text>
</a>
</g>
</g>
<!-- Node1&#45;&gt;Node10 -->
<g id="edge15" class="edge"><title>Node1&#45;&gt;Node10</title>
<path fill="none" stroke="midnightblue" d="M119.428,-451.373C143.813,-468.04 180.201,-490.8 215,-504.5 224.691,-508.315 235.303,-511.435 245.69,-513.962"/>
<polygon fill="midnightblue" stroke="midnightblue" points="121.224,-448.359 111.013,-445.536 117.235,-454.111 121.224,-448.359"/>
</g>
<!-- Node11 -->
<g id="node11" class="node"><title>Node11</title>
<g id="a_node11"><a xlink:href="../../d1/d31/classIGLib_1_1Gr3D_1_1FigureEightKnot3D__MathCurve1.html" target="_top" xlink:title="Figure&#45;eight knot, alternative parameterization ( the second one from MathCurve). Derivative is not a...">
<polygon fill="white" stroke="black" points="232,-464.5 232,-494.5 375,-494.5 375,-464.5 232,-464.5"/>
<text text-anchor="start" x="240" y="-482.5" font-family="Helvetica,sans-Serif" font-size="10.00">IGLib.Gr3D.FigureEightKnot3</text>
<text text-anchor="middle" x="303.5" y="-471.5" font-family="Helvetica,sans-Serif" font-size="10.00">D_MathCurve1</text>
</a>
</g>
</g>
<!-- Node1&#45;&gt;Node11 -->
<g id="edge16" class="edge"><title>Node1&#45;&gt;Node11</title>
<path fill="none" stroke="midnightblue" d="M165.483,-447.831C189.02,-453.271 214.795,-459.229 237.575,-464.494"/>
<polygon fill="midnightblue" stroke="midnightblue" points="166.079,-444.377 155.548,-445.535 164.503,-451.197 166.079,-444.377"/>
</g>
<!-- Node12 -->
<g id="node12" class="node"><title>Node12</title>
<g id="a_node12"><a xlink:href="../../d0/d27/classIGLib_1_1Gr3D_1_1FigureEightKnot3D__MathCurve2.html" target="_top" xlink:title="Figure&#45;eight knot is with alternative parameterization (the second one from MathCurve)....">
<polygon fill="white" stroke="black" points="232,-415.5 232,-445.5 375,-445.5 375,-415.5 232,-415.5"/>
<text text-anchor="start" x="240" y="-433.5" font-family="Helvetica,sans-Serif" font-size="10.00">IGLib.Gr3D.FigureEightKnot3</text>
<text text-anchor="middle" x="303.5" y="-422.5" font-family="Helvetica,sans-Serif" font-size="10.00">D_MathCurve2</text>
</a>
</g>
</g>
<!-- Node1&#45;&gt;Node12 -->
<g id="edge17" class="edge"><title>Node1&#45;&gt;Node12</title>
<path fill="none" stroke="midnightblue" d="M189.543,-430.5C203.839,-430.5 218.305,-430.5 231.893,-430.5"/>
<polygon fill="midnightblue" stroke="midnightblue" points="189.179,-427 179.179,-430.5 189.179,-434 189.179,-427"/>
</g>
<!-- Node13 -->
<g id="node13" class="node"><title>Node13</title>
<g id="a_node13"><a xlink:href="../../dc/d1f/classIGLib_1_1Gr3D_1_1FigureEightKnot3D__VirtualMath.html" target="_top" xlink:title="Figure&#45;eight knot with alternative parameterization, obtained from Virtual Math Museum....">
<polygon fill="white" stroke="black" points="232,-366.5 232,-396.5 375,-396.5 375,-366.5 232,-366.5"/>
<text text-anchor="start" x="240" y="-384.5" font-family="Helvetica,sans-Serif" font-size="10.00">IGLib.Gr3D.FigureEightKnot3</text>
<text text-anchor="middle" x="303.5" y="-373.5" font-family="Helvetica,sans-Serif" font-size="10.00">D_VirtualMath</text>
</a>
</g>
</g>
<!-- Node1&#45;&gt;Node13 -->
<g id="edge18" class="edge"><title>Node1&#45;&gt;Node13</title>
<path fill="none" stroke="midnightblue" d="M165.483,-413.169C189.02,-407.729 214.795,-401.771 237.575,-396.506"/>
<polygon fill="midnightblue" stroke="midnightblue" points="164.503,-409.803 155.548,-415.465 166.079,-416.623 164.503,-409.803"/>
</g>
<!-- Node14 -->
<g id="node14" class="node"><title>Node14</title>
<g id="a_node14"><a xlink:href="../../d9/db7/classIGLib_1_1Gr3D_1_1GrannyKnot3D.html" target="_top" xlink:title="The granny knot is a composite knot obtained by taking the connected sum of two identical trefoil kno...">
<polygon fill="white" stroke="black" points="238,-328 238,-347 369,-347 369,-328 238,-328"/>
<text text-anchor="middle" x="303.5" y="-335" font-family="Helvetica,sans-Serif" font-size="10.00">IGLib.Gr3D.GrannyKnot3D</text>
</a>
</g>
</g>
<!-- Node1&#45;&gt;Node14 -->
<g id="edge19" class="edge"><title>Node1&#45;&gt;Node14</title>
<path fill="none" stroke="midnightblue" d="M119.951,-409.732C144.379,-393.385 180.565,-371.155 215,-357.5 225.719,-353.249 237.553,-349.785 248.96,-347.008"/>
<polygon fill="midnightblue" stroke="midnightblue" points="117.817,-406.95 111.507,-415.461 121.747,-412.742 117.817,-406.95"/>
</g>
<!-- Node15 -->
<g id="node15" class="node"><title>Node15</title>
<g id="a_node15"><a xlink:href="../../d7/d8c/classIGLib_1_1Gr3D_1_1HelixCurve3D.html" target="_top" xlink:title="A 3D parametric curve with bounds &#45; a cylindrical helix.">
<polygon fill="white" stroke="black" points="241,-290 241,-309 366,-309 366,-290 241,-290"/>
<text text-anchor="middle" x="303.5" y="-297" font-family="Helvetica,sans-Serif" font-size="10.00">IGLib.Gr3D.HelixCurve3D</text>
</a>
</g>
</g>
<!-- Node1&#45;&gt;Node15 -->
<g id="edge20" class="edge"><title>Node1&#45;&gt;Node15</title>
<path fill="none" stroke="midnightblue" d="M109.174,-407.711C131.571,-381.958 171.566,-340.739 215,-318.5 223.025,-314.391 231.906,-311.169 240.841,-308.642"/>
<polygon fill="midnightblue" stroke="midnightblue" points="106.368,-405.607 102.538,-415.486 111.693,-410.151 106.368,-405.607"/>
</g>
<!-- Node16 -->
<g id="node16" class="node"><title>Node16</title>
<g id="a_node16"><a xlink:href="../../d7/dcb/classIGLib_1_1Gr3D_1_1LissajousCurve3D.html" target="_top" xlink:title="Lissajous curves in 3D are trajectories of a point in space whose rectangular components have a sinus...">
<polygon fill="white" stroke="black" points="231,-252 231,-271 376,-271 376,-252 231,-252"/>
<text text-anchor="middle" x="303.5" y="-259" font-family="Helvetica,sans-Serif" font-size="10.00">IGLib.Gr3D.LissajousCurve3D</text>
</a>
</g>
</g>
<!-- Node1&#45;&gt;Node16 -->
<g id="edge21" class="edge"><title>Node1&#45;&gt;Node16</title>
<path fill="none" stroke="midnightblue" d="M103.412,-406.577C122.916,-372.863 163.181,-311.981 215,-280.5 221.377,-276.626 228.439,-273.537 235.704,-271.074"/>
<polygon fill="midnightblue" stroke="midnightblue" points="100.344,-404.891 98.4688,-415.319 106.438,-408.337 100.344,-404.891"/>
</g>
<!-- Node17 -->
<g id="node17" class="node"><title>Node17</title>
<g id="a_node17"><a xlink:href="../../d7/ddc/classIGLib_1_1Gr3D_1_1LissajousKnot3D.html" target="_top" xlink:title="A Lisajous knot is a knot whose projection on any of the three coordinate planes is a Lissajous curve...">
<polygon fill="white" stroke="black" points="233,-214 233,-233 374,-233 374,-214 233,-214"/>
<text text-anchor="middle" x="303.5" y="-221" font-family="Helvetica,sans-Serif" font-size="10.00">IGLib.Gr3D.LissajousKnot3D</text>
</a>
</g>
</g>
<!-- Node1&#45;&gt;Node17 -->
<g id="edge22" class="edge"><title>Node1&#45;&gt;Node17</title>
<path fill="none" stroke="midnightblue" d="M99.552,-405.988C115.938,-365.213 154.53,-283.856 215,-242.5 220.646,-238.639 226.936,-235.544 233.481,-233.065"/>
<polygon fill="midnightblue" stroke="midnightblue" points="96.2418,-404.843 95.8648,-415.431 102.762,-407.389 96.2418,-404.843"/>
</g>
<!-- Node18 -->
<g id="node18" class="node"><title>Node18</title>
<g id="a_node18"><a xlink:href="../../d7/de4/classIGLib_1_1Gr3D_1_1ParabolicBasinCurve3D.html" target="_top" xlink:title="A curve wrapped around the paraboloid, which becomes a &#160;rosewhen projected to the XY plane.">
<polygon fill="white" stroke="black" points="237,-164.5 237,-194.5 370,-194.5 370,-164.5 237,-164.5"/>
<text text-anchor="start" x="245" y="-182.5" font-family="Helvetica,sans-Serif" font-size="10.00">IGLib.Gr3D.ParabolicBasin</text>
<text text-anchor="middle" x="303.5" y="-171.5" font-family="Helvetica,sans-Serif" font-size="10.00">Curve3D</text>
</a>
</g>
</g>
<!-- Node1&#45;&gt;Node18 -->
<g id="edge23" class="edge"><title>Node1&#45;&gt;Node18</title>
<path fill="none" stroke="midnightblue" d="M97.2309,-405.605C111.145,-358.952 147.557,-258.238 215,-204.5 221.425,-199.38 228.85,-195.309 236.604,-192.072"/>
<polygon fill="midnightblue" stroke="midnightblue" points="93.7924,-404.897 94.3849,-415.476 100.518,-406.837 93.7924,-404.897"/>
</g>
<!-- Node19 -->
<g id="node19" class="node"><title>Node19</title>
<g id="a_node19"><a xlink:href="../../d1/dae/classIGLib_1_1Gr3D_1_1SquareKnot3D.html" target="_top" xlink:title="The square (or reef) knot is a composite knot obtained by taking the connected sum of a trefoil knot ...">
<polygon fill="white" stroke="black" points="238,-126 238,-145 369,-145 369,-126 238,-126"/>
<text text-anchor="middle" x="303.5" y="-133" font-family="Helvetica,sans-Serif" font-size="10.00">IGLib.Gr3D.SquareKnot3D</text>
</a>
</g>
</g>
<!-- Node1&#45;&gt;Node19 -->
<g id="edge24" class="edge"><title>Node1&#45;&gt;Node19</title>
<path fill="none" stroke="midnightblue" d="M94.2862,-405.326C103.869,-350.807 134.327,-221.433 215,-155.5 221.636,-150.076 229.46,-146.06 237.654,-143.097"/>
<polygon fill="midnightblue" stroke="midnightblue" points="90.7851,-405.043 92.5932,-415.482 97.6898,-406.194 90.7851,-405.043"/>
</g>
<!-- Node20 -->
<g id="node20" class="node"><title>Node20</title>
<g id="a_node20"><a xlink:href="../../d0/d14/classIGLib_1_1Gr3D_1_1TorusKnot3D.html" target="_top" xlink:title="A torus knot is a special kind of knot that lies on the surface of a torus.">
<polygon fill="white" stroke="black" points="241.5,-88 241.5,-107 365.5,-107 365.5,-88 241.5,-88"/>
<text text-anchor="middle" x="303.5" y="-95" font-family="Helvetica,sans-Serif" font-size="10.00">IGLib.Gr3D.TorusKnot3D</text>
</a>
</g>
</g>
<!-- Node1&#45;&gt;Node20 -->
<g id="edge25" class="edge"><title>Node1&#45;&gt;Node20</title>
<path fill="none" stroke="midnightblue" d="M92.6848,-405.07C99.2759,-344.936 124.491,-193.288 215,-116.5 222.586,-110.064 231.848,-105.658 241.474,-102.67"/>
<polygon fill="midnightblue" stroke="midnightblue" points="89.1849,-404.892 91.6593,-415.194 96.1493,-405.598 89.1849,-404.892"/>
</g>
<!-- Node21 -->
<g id="node21" class="node"><title>Node21</title>
<g id="a_node21"><a xlink:href="../../dc/dcf/classIGLib_1_1Gr3D_1_1TrefoilKnot3D.html" target="_top" xlink:title="The trefoil knot is the simplest example of a nontrivial knot. It is chiral. The (2,...">
<polygon fill="white" stroke="black" points="241,-50 241,-69 366,-69 366,-50 241,-50"/>
<text text-anchor="middle" x="303.5" y="-57" font-family="Helvetica,sans-Serif" font-size="10.00">IGLib.Gr3D.TrefoilKnot3D</text>
</a>
</g>
</g>
<!-- Node1&#45;&gt;Node21 -->
<g id="edge26" class="edge"><title>Node1&#45;&gt;Node21</title>
<path fill="none" stroke="midnightblue" d="M91.4497,-405.192C95.3243,-340.246 115.008,-166.613 215,-78.5 222.348,-72.0253 231.378,-67.5867 240.818,-64.5741"/>
<polygon fill="midnightblue" stroke="midnightblue" points="87.9464,-405.167 90.9234,-415.335 94.937,-405.53 87.9464,-405.167"/>
</g>
<!-- Node22 -->
<g id="node22" class="node"><title>Node22</title>
<g id="a_node22"><a xlink:href="../../db/d82/classIGLib_1_1Gr3D_1_1TrefoilKnot3D__MathCurve3.html" target="_top" xlink:title="Alternative parameterization of the trefoil knot &#45; third parameterization from MathCurve (see the lin...">
<polygon fill="white" stroke="black" points="241,-0.5 241,-30.5 366,-30.5 366,-0.5 241,-0.5"/>
<text text-anchor="start" x="249" y="-18.5" font-family="Helvetica,sans-Serif" font-size="10.00">IGLib.Gr3D.TrefoilKnot3D</text>
<text text-anchor="middle" x="303.5" y="-7.5" font-family="Helvetica,sans-Serif" font-size="10.00">_MathCurve3</text>
</a>
</g>
</g>
<!-- Node1&#45;&gt;Node22 -->
<g id="edge27" class="edge"><title>Node1&#45;&gt;Node22</title>
<path fill="none" stroke="midnightblue" d="M90.8142,-404.816C93.0969,-335.537 109.152,-143.147 215,-40.5 222.259,-33.4609 231.357,-28.3788 240.921,-24.7152"/>
<polygon fill="midnightblue" stroke="midnightblue" points="87.3053,-405.119 90.5478,-415.205 94.303,-405.298 87.3053,-405.119"/>
</g>
<!-- Node2&#45;&gt;Node3 -->
<g id="edge2" class="edge"><title>Node2&#45;&gt;Node3</title>
<path fill="none" stroke="midnightblue" d="M354.403,-799.515C376.669,-810.265 403.385,-822.603 428,-832.5 438.336,-836.656 449.586,-840.724 460.296,-844.39"/>
<polygon fill="midnightblue" stroke="midnightblue" points="355.675,-796.242 345.151,-795.017 352.614,-802.537 355.675,-796.242"/>
</g>
<!-- Node2&#45;&gt;Node4 -->
<g id="edge3" class="edge"><title>Node2&#45;&gt;Node4</title>
<path fill="none" stroke="midnightblue" d="M394.848,-789.151C412.307,-791.982 430.22,-794.887 446.495,-797.526"/>
<polygon fill="midnightblue" stroke="midnightblue" points="395.068,-785.641 384.636,-787.495 393.947,-792.551 395.068,-785.641"/>
</g>
<!-- Node2&#45;&gt;Node5 -->
<g id="edge4" class="edge"><title>Node2&#45;&gt;Node5</title>
<path fill="none" stroke="midnightblue" d="M394.848,-764.289C412.307,-762.315 430.22,-760.291 446.495,-758.451"/>
<polygon fill="midnightblue" stroke="midnightblue" points="394.18,-760.842 384.636,-765.443 394.966,-767.798 394.18,-760.842"/>
</g>
<!-- Node2&#45;&gt;Node6 -->
<g id="edge5" class="edge"><title>Node2&#45;&gt;Node6</title>
<path fill="none" stroke="midnightblue" d="M363.419,-749.89C398.505,-735.235 441.902,-717.108 471.948,-704.559"/>
<polygon fill="midnightblue" stroke="midnightblue" points="361.64,-746.84 353.762,-753.924 364.338,-753.299 361.64,-746.84"/>
</g>
<!-- Node7&#45;&gt;Node8 -->
<g id="edge11" class="edge"><title>Node7&#45;&gt;Node8</title>
<path fill="none" stroke="midnightblue" d="M402.309,-615.113C410.881,-615.955 419.49,-616.801 427.892,-617.627"/>
<polygon fill="midnightblue" stroke="midnightblue" points="402.573,-611.622 392.279,-614.127 401.889,-618.588 402.573,-611.622"/>
</g>
<!-- Node7&#45;&gt;Node9 -->
<g id="edge12" class="edge"><title>Node7&#45;&gt;Node9</title>
<path fill="none" stroke="midnightblue" d="M402.416,-593.952C413.988,-592.587 425.626,-591.215 436.731,-589.905"/>
<polygon fill="midnightblue" stroke="midnightblue" points="401.8,-590.5 392.279,-595.148 402.62,-597.452 401.8,-590.5"/>
</g>
</g>
</svg>
        <g id="navigator" transform="translate(0 0)" fill="#404254">
                <rect fill="#f2f5e9" fill-opacity="0.5" stroke="#606060" stroke-width=".5" x="0" y="0" width="60" height="60"/>
                <use id="zoomplus" xlink:href="#zoomPlus" x="17" y="9" onmousedown="handleZoom(evt,'in')"/>
                <use id="zoomminus" xlink:href="#zoomMin" x="42" y="9" onmousedown="handleZoom(evt,'out')"/>
                <use id="reset" xlink:href="#resetDef" x="30" y="36" onmousedown="handleReset()"/>
                <g id="arrowUp" xlink:href="#dirArrow" transform="translate(30 24)" onmousedown="handlePan(0,-1)">
                  <use xlink:href="#rim" fill="#404040">
                        <set attributeName="fill" to="#808080" begin="arrowUp.mouseover" end="arrowUp.mouseout"/>
                  </use>
                  <path fill="none" stroke="white" stroke-width="1.5" d="M0,-3.0v7 M-2.5,-0.5L0,-3.0L2.5,-0.5"/>
                </g>
                <g id="arrowRight" xlink:href="#dirArrow" transform="rotate(90) translate(36 -43)" onmousedown="handlePan(1,0)">
                  <use xlink:href="#rim" fill="#404040">
                        <set attributeName="fill" to="#808080" begin="arrowRight.mouseover" end="arrowRight.mouseout"/>
                  </use>
                  <path fill="none" stroke="white" stroke-width="1.5" d="M0,-3.0v7 M-2.5,-0.5L0,-3.0L2.5,-0.5"/>
                </g>
                <g id="arrowDown" xlink:href="#dirArrow" transform="rotate(180) translate(-30 -48)" onmousedown="handlePan(0,1)">
                  <use xlink:href="#rim" fill="#404040">
                        <set attributeName="fill" to="#808080" begin="arrowDown.mouseover" end="arrowDown.mouseout"/>
                  </use>
                  <path fill="none" stroke="white" stroke-width="1.5" d="M0,-3.0v7 M-2.5,-0.5L0,-3.0L2.5,-0.5"/>
                </g>
                <g id="arrowLeft" xlink:href="#dirArrow" transform="rotate(270) translate(-36 17)" onmousedown="handlePan(-1,0)">
                  <use xlink:href="#rim" fill="#404040">
                        <set attributeName="fill" to="#808080" begin="arrowLeft.mouseover" end="arrowLeft.mouseout"/>
                  </use>
                  <path fill="none" stroke="white" stroke-width="1.5" d="M0,-3.0v7 M-2.5,-0.5L0,-3.0L2.5,-0.5"/>
                </g>
        </g>
        <svg viewBox="0 0 15 15" width="100%" height="30px" preserveAspectRatio="xMaxYMin meet">
         <g id="arrow_out" transform="scale(0.3 0.3)">
          <a xlink:href="interfaceIGLib_1_1Gr3D_1_1ICurve3DParameterizationWithBounds__inherit__graph_org.svg" target="_base">
           <rect id="button" ry="5" rx="5" y="6" x="6" height="38" width="38"
                fill="#f2f5e9" fill-opacity="0.5" stroke="#606060" stroke-width="1.0"/>
           <path id="arrow"
             d="M 11.500037,31.436501 C 11.940474,20.09759 22.043105,11.32322 32.158766,21.979434 L 37.068811,17.246167 C 37.068811,17.246167 37.088388,32 37.088388,32 L 22.160133,31.978069 C 22.160133,31.978069 26.997745,27.140456 26.997745,27.140456 C 18.528582,18.264221 13.291696,25.230495 11.500037,31.436501 z"
             style="fill:#404040;"/>
          </a>
         </g>
        </svg>
</svg>
