<?xml version="1.0" encoding="UTF-8" standalone="no"?>
<!DOCTYPE svg PUBLIC "-//W3C//DTD SVG 1.1//EN"
 "http://www.w3.org/Graphics/SVG/1.1/DTD/svg11.dtd">
<!-- Generated by graphviz version 2.38.0 (20140413.2041)
 -->
<!-- Title: IG.Num.LUDecomposition Pages: 1 -->
<svg width="228pt" height="140pt"
 viewBox="0.00 0.00 227.50 140.00" xmlns="http://www.w3.org/2000/svg" xmlns:xlink="http://www.w3.org/1999/xlink">
<g id="graph0" class="graph" transform="scale(1 1) rotate(0) translate(4 136)">
<title>IG.Num.LUDecomposition</title>
<polygon fill="white" stroke="none" points="-4,4 -4,-136 223.5,-136 223.5,4 -4,4"/>
<!-- Node1 -->
<g id="node1" class="node"><title>Node1</title>
<g id="a_node1"><a xlink:title="LU decomposition of a matrix.">
<polygon fill="#bfbfbf" stroke="black" points="55.5,-0.5 55.5,-19.5 184.5,-19.5 184.5,-0.5 55.5,-0.5"/>
<text text-anchor="middle" x="120" y="-7.5" font-family="Helvetica,sans-Serif" font-size="10.00">IG.Num.LUDecomposition</text>
</a>
</g>
</g>
<!-- Node2 -->
<g id="node2" class="node"><title>Node2</title>
<g id="a_node2"><a xlink:href="../../d1/d9a/classIG_1_1Num_1_1LinearSolverBase.html" target="_top" xlink:title=" ">
<polygon fill="white" stroke="black" points="0,-56.5 0,-75.5 92,-75.5 92,-56.5 0,-56.5"/>
<text text-anchor="middle" x="46" y="-63.5" font-family="Helvetica,sans-Serif" font-size="10.00">LinearSolverBase</text>
</a>
</g>
</g>
<!-- Node2&#45;&gt;Node1 -->
<g id="edge1" class="edge"><title>Node2&#45;&gt;Node1</title>
<path fill="none" stroke="midnightblue" d="M66.0343,-50.3804C79.4091,-40.6204 96.5588,-28.1057 107.894,-19.8339"/>
<polygon fill="midnightblue" stroke="midnightblue" points="63.9042,-47.602 57.8894,-56.324 68.0305,-53.2565 63.9042,-47.602"/>
</g>
<!-- Node3 -->
<g id="node3" class="node"><title>Node3</title>
<g id="a_node3"><a xlink:href="../../da/d85/interfaceIG_1_1Num_1_1ILinearSolver.html" target="_top" xlink:title="Classes that can be used for solution of linear systems of equations.">
<polygon fill="white" stroke="black" points="148.5,-56.5 148.5,-75.5 219.5,-75.5 219.5,-56.5 148.5,-56.5"/>
<text text-anchor="middle" x="184" y="-63.5" font-family="Helvetica,sans-Serif" font-size="10.00">ILinearSolver</text>
</a>
</g>
</g>
<!-- Node3&#45;&gt;Node1 -->
<g id="edge2" class="edge"><title>Node3&#45;&gt;Node1</title>
<path fill="none" stroke="midnightblue" d="M166.009,-49.8197C154.542,-40.1452 140.087,-27.9481 130.47,-19.8339"/>
<polygon fill="midnightblue" stroke="midnightblue" points="163.817,-52.5502 173.717,-56.324 168.331,-47.2002 163.817,-52.5502"/>
</g>
<!-- Node4 -->
<g id="node4" class="node"><title>Node4</title>
<g id="a_node4"><a xlink:href="../../d3/db6/interfaceIG_1_1Lib_1_1ILockable.html" target="_top" xlink:title="Lockable object, has a Lock property that returns object on which lock must be performed in order to ...">
<polygon fill="white" stroke="black" points="123,-112.5 123,-131.5 181,-131.5 181,-112.5 123,-112.5"/>
<text text-anchor="middle" x="152" y="-119.5" font-family="Helvetica,sans-Serif" font-size="10.00">ILockable</text>
</a>
</g>
</g>
<!-- Node4&#45;&gt;Node1 -->
<g id="edge4" class="edge"><title>Node4&#45;&gt;Node1</title>
<path fill="none" stroke="midnightblue" d="M146.669,-102.674C139.673,-78.6248 127.677,-37.3881 122.499,-19.5914"/>
<polygon fill="midnightblue" stroke="midnightblue" points="143.335,-103.744 149.489,-112.368 150.056,-101.789 143.335,-103.744"/>
</g>
<!-- Node4&#45;&gt;Node3 -->
<g id="edge3" class="edge"><title>Node4&#45;&gt;Node3</title>
<path fill="none" stroke="midnightblue" d="M162.504,-103.275C167.973,-94.0454 174.418,-83.1703 178.814,-75.7511"/>
<polygon fill="midnightblue" stroke="midnightblue" points="159.371,-101.696 157.284,-112.083 165.393,-105.264 159.371,-101.696"/>
</g>
</g>
</svg>
