<?xml version="1.0" encoding="UTF-8" standalone="no"?>
<!DOCTYPE svg PUBLIC "-//W3C//DTD SVG 1.1//EN"
 "http://www.w3.org/Graphics/SVG/1.1/DTD/svg11.dtd">
<!-- Generated by graphviz version 2.38.0 (20140413.2041)
 -->
<!-- Title: IG.Lib.CommandLineApplicationInterpreter Pages: 1 -->
<!--zoomable 672 -->
<svg id="main" version="1.1" xmlns="http://www.w3.org/2000/svg" xmlns:xlink="http://www.w3.org/1999/xlink" xml:space="preserve" onload="init(evt)">
<style type="text/css"><![CDATA[
.edge:hover path { stroke: red; }
.edge:hover polygon { stroke: red; fill: red; }
]]></style>
<script type="text/javascript"><![CDATA[
var edges = document.getElementsByTagName('g');
if (edges && edges.length) {
  for (var i=0;i<edges.length;i++) {
    if (edges[i].id.substr(0,4)=='edge') {
      edges[i].setAttribute('class','edge');
    }
  }
}
]]></script>
        <defs>
                <circle id="rim" cx="0" cy="0" r="7"/>
                <circle id="rim2" cx="0" cy="0" r="3.5"/>
                <g id="zoomPlus">
                        <use xlink:href="#rim" fill="#404040">
                                <set attributeName="fill" to="#808080" begin="zoomplus.mouseover" end="zoomplus.mouseout"/>
                        </use>
                        <path d="M-4,0h8M0,-4v8" fill="none" stroke="white" stroke-width="1.5" pointer-events="none"/>
                </g>
                <g id="zoomMin">
                        <use xlink:href="#rim" fill="#404040">
                                <set attributeName="fill" to="#808080" begin="zoomminus.mouseover" end="zoomminus.mouseout"/>
                        </use>
                        <path d="M-4,0h8" fill="none" stroke="white" stroke-width="1.5" pointer-events="none"/>
                </g>
                <g id="dirArrow">
                        <path fill="none" stroke="white" stroke-width="1.5" d="M0,-3.0v7 M-2.5,-0.5L0,-3.0L2.5,-0.5"/>
                </g>
               <g id="resetDef">
                       <use xlink:href="#rim2" fill="#404040">
                               <set attributeName="fill" to="#808080" begin="reset.mouseover" end="reset.mouseout"/>
                       </use>
               </g>
        </defs>

<script type="text/javascript">
var viewWidth = 1241;
var viewHeight = 672;
var sectionId = 'dynsection-1';
</script>
<script xlink:href="../../svgpan.js"/>
<svg id="graph" class="graph">
<g id="viewport">
<title>IG.Lib.CommandLineApplicationInterpreter</title>
<polygon fill="white" stroke="none" points="-4,4 -4,-668.382 1237,-668.382 1237,4 -4,4"/>
<!-- Node1 -->
<g id="node1" class="node"><title>Node1</title>
<g id="a_node1"><a xlink:title="Simple command&#45;line application interpreters, holds a set of commands that can be executed by name....">
<polygon fill="#bfbfbf" stroke="black" points="1078,-202 1078,-232 1233,-232 1233,-202 1078,-202"/>
<text text-anchor="start" x="1086" y="-220" font-family="Helvetica,sans-Serif" font-size="10.00">IG.Lib.CommandLineApplication</text>
<text text-anchor="middle" x="1155.5" y="-209" font-family="Helvetica,sans-Serif" font-size="10.00">Interpreter</text>
</a>
</g>
</g>
<!-- Node2 -->
<g id="node2" class="node"><title>Node2</title>
<g id="a_node2"><a xlink:href="../../de/dfd/interfaceIG_1_1Lib_1_1ICommandLineApplicationInterpreter.html" target="_top" xlink:title="Interface for simple command&#45;line applicatino interpreters.">
<polygon fill="white" stroke="black" points="758.5,-642.5 758.5,-661.5 931.5,-661.5 931.5,-642.5 758.5,-642.5"/>
<text text-anchor="middle" x="845" y="-649.5" font-family="Helvetica,sans-Serif" font-size="10.00">ICommandLineApplicationInterpreter</text>
</a>
</g>
</g>
<!-- Node2&#45;&gt;Node1 -->
<g id="edge1" class="edge"><title>Node2&#45;&gt;Node1</title>
<path fill="none" stroke="midnightblue" d="M907.754,-662.612C955.152,-667.035 1019.19,-664.395 1060,-628 1121.2,-573.423 1147.65,-299.684 1153.31,-232.102"/>
<polygon fill="midnightblue" stroke="midnightblue" points="907.918,-659.11 897.605,-661.535 907.179,-666.071 907.918,-659.11"/>
</g>
<!-- Node3 -->
<g id="node3" class="node"><title>Node3</title>
<g id="a_node3"><a xlink:href="../../d3/db6/interfaceIG_1_1Lib_1_1ILockable.html" target="_top" xlink:title="Lockable object, has a Lock property that returns object on which lock must be performed in order to ...">
<polygon fill="white" stroke="black" points="27,-461.5 27,-480.5 85,-480.5 85,-461.5 27,-461.5"/>
<text text-anchor="middle" x="56" y="-468.5" font-family="Helvetica,sans-Serif" font-size="10.00">ILockable</text>
</a>
</g>
</g>
<!-- Node3&#45;&gt;Node1 -->
<g id="edge2" class="edge"><title>Node3&#45;&gt;Node1</title>
<path fill="none" stroke="midnightblue" d="M75.7631,-487.697C87.7403,-499.309 102.709,-515.75 112,-533 126.621,-560.147 106.246,-580.342 130,-600 194.549,-653.42 234.213,-614 318,-614 318,-614 318,-614 846,-614 1043.27,-614 1132.67,-304.595 1150.91,-232.078"/>
<polygon fill="midnightblue" stroke="midnightblue" points="78.1021,-485.092 68.414,-480.803 73.3132,-490.198 78.1021,-485.092"/>
</g>
<!-- Node5 -->
<g id="node5" class="node"><title>Node5</title>
<g id="a_node5"><a xlink:href="../../d0/d06/classIG_1_1Lib_1_1ExpressionEvaluatorJint.html" target="_top" xlink:title="JavaScript Evaluator with command&#45;line interpreter, based on Jint.">
<polygon fill="white" stroke="black" points="770.5,-207.5 770.5,-226.5 919.5,-226.5 919.5,-207.5 770.5,-207.5"/>
<text text-anchor="middle" x="845" y="-214.5" font-family="Helvetica,sans-Serif" font-size="10.00">IG.Lib.ExpressionEvaluatorJint</text>
</a>
</g>
</g>
<!-- Node3&#45;&gt;Node5 -->
<g id="edge14" class="edge"><title>Node3&#45;&gt;Node5</title>
<path fill="none" stroke="midnightblue" d="M95.2776,-473.855C197.582,-479.533 482.057,-482.332 666,-357 712.652,-325.213 702.892,-293.941 748,-260 767.846,-245.067 793.699,-233.865 813.576,-226.644"/>
<polygon fill="midnightblue" stroke="midnightblue" points="95.3044,-470.351 85.1132,-473.247 94.8863,-477.338 95.3044,-470.351"/>
</g>
<!-- Node6 -->
<g id="node6" class="node"><title>Node6</title>
<g id="a_node6"><a xlink:href="../../da/d42/classIG_1_1Lib_1_1ExpressionEvaluatorJs.html" target="_top" xlink:title="JavaScript Evaluator with command&#45;line interpreter.">
<polygon fill="white" stroke="black" points="520.5,-207.5 520.5,-226.5 635.5,-226.5 635.5,-207.5 520.5,-207.5"/>
<text text-anchor="middle" x="578" y="-214.5" font-family="Helvetica,sans-Serif" font-size="10.00">ExpressionEvaluatorJs</text>
</a>
</g>
</g>
<!-- Node3&#45;&gt;Node6 -->
<g id="edge10" class="edge"><title>Node3&#45;&gt;Node6</title>
<path fill="none" stroke="midnightblue" d="M93.0651,-458.025C142.578,-440.139 225.787,-409.784 228,-407 266.216,-358.927 203.19,-314.032 246,-270 264.839,-250.623 430.603,-231.462 520.16,-222.405"/>
<polygon fill="midnightblue" stroke="midnightblue" points="91.8641,-454.738 83.6458,-461.425 94.2402,-461.322 91.8641,-454.738"/>
</g>
<!-- Node7 -->
<g id="node7" class="node"><title>Node7</title>
<g id="a_node7"><a xlink:href="../../dd/dec/classIG_1_1Lib_1_1ExpressionEvaluatorCompiled.html" target="_top" xlink:title="Base class for expression evaluators that utilize the functionality of CodeDomProvider class.">
<polygon fill="white" stroke="black" points="246,-203.5 246,-222.5 392,-222.5 392,-203.5 246,-203.5"/>
<text text-anchor="middle" x="319" y="-210.5" font-family="Helvetica,sans-Serif" font-size="10.00">ExpressionEvaluatorCompiled</text>
</a>
</g>
</g>
<!-- Node3&#45;&gt;Node7 -->
<g id="edge7" class="edge"><title>Node3&#45;&gt;Node7</title>
<path fill="none" stroke="midnightblue" d="M65.3959,-452.256C77.5321,-426.259 101.656,-378.458 130,-343 140.902,-329.362 230.945,-245.843 246,-237 256.225,-230.994 268.16,-226.245 279.338,-222.611"/>
<polygon fill="midnightblue" stroke="midnightblue" points="62.2006,-450.827 61.2148,-461.376 68.5638,-453.744 62.2006,-450.827"/>
</g>
<!-- Node13 -->
<g id="node13" class="node"><title>Node13</title>
<g id="a_node13"><a xlink:href="../../da/d42/classIG_1_1Lib_1_1ExpressionEvaluatorJs.html" target="_top" xlink:title="JavaScript Evaluator with command&#45;line interpreter.">
<polygon fill="white" stroke="black" points="506.5,-328.5 506.5,-347.5 649.5,-347.5 649.5,-328.5 506.5,-328.5"/>
<text text-anchor="middle" x="578" y="-335.5" font-family="Helvetica,sans-Serif" font-size="10.00">IG.Lib.ExpressionEvaluatorJs</text>
</a>
</g>
</g>
<!-- Node3&#45;&gt;Node13 -->
<g id="edge21" class="edge"><title>Node3&#45;&gt;Node13</title>
<path fill="none" stroke="midnightblue" d="M95.0414,-465.227C106.295,-463.53 118.643,-461.679 130,-460 283.309,-437.332 330.298,-454.753 472,-392 503.676,-377.973 539.289,-358.932 559.837,-347.611"/>
<polygon fill="midnightblue" stroke="midnightblue" points="94.4385,-461.778 85.0734,-466.733 95.484,-468.7 94.4385,-461.778"/>
</g>
<!-- Node15 -->
<g id="node15" class="node"><title>Node15</title>
<g id="a_node15"><a xlink:href="../../d8/dff/interfaceIG_1_1Lib_1_1ILoadableScriptInterpreter.html" target="_top" xlink:title="Interface for interpreters that can install commands from loadable scripts and run them.">
<polygon fill="white" stroke="black" points="255.5,-550.5 255.5,-569.5 382.5,-569.5 382.5,-550.5 255.5,-550.5"/>
<text text-anchor="middle" x="319" y="-557.5" font-family="Helvetica,sans-Serif" font-size="10.00">ILoadableScriptInterpreter</text>
</a>
</g>
</g>
<!-- Node3&#45;&gt;Node15 -->
<g id="edge28" class="edge"><title>Node3&#45;&gt;Node15</title>
<path fill="none" stroke="midnightblue" d="M83.1614,-485.329C96.8491,-492.457 114.04,-500.842 130,-507 172.262,-523.306 184.725,-521.612 228,-535 236.056,-537.492 237.919,-538.59 246,-541 257.026,-544.289 269.087,-547.587 280.132,-550.491"/>
<polygon fill="midnightblue" stroke="midnightblue" points="84.7783,-482.225 74.303,-480.638 81.5022,-488.411 84.7783,-482.225"/>
</g>
<!-- Node16 -->
<g id="node16" class="node"><title>Node16</title>
<g id="a_node16"><a xlink:href="../../d3/d40/classIG_1_1Lib_1_1ScriptLoaderBase.html" target="_top" xlink:title="Dynamically compiles, loads and instantiates classes of type ILoadableScript from files or from strin...">
<polygon fill="white" stroke="black" points="258,-512.5 258,-531.5 380,-531.5 380,-512.5 258,-512.5"/>
<text text-anchor="middle" x="319" y="-519.5" font-family="Helvetica,sans-Serif" font-size="10.00">IG.Lib.ScriptLoaderBase</text>
</a>
</g>
</g>
<!-- Node3&#45;&gt;Node16 -->
<g id="edge30" class="edge"><title>Node3&#45;&gt;Node16</title>
<path fill="none" stroke="midnightblue" d="M95.0584,-478.437C141.097,-487.433 218.682,-502.593 269.11,-512.447"/>
<polygon fill="midnightblue" stroke="midnightblue" points="95.6652,-474.989 85.1796,-476.506 94.3227,-481.859 95.6652,-474.989"/>
</g>
<!-- Node4 -->
<g id="node4" class="node"><title>Node4</title>
<g id="a_node4"><a xlink:href="../../d0/d0c/classIG_1_1Lib_1_1CommandStackFrame.html" target="_top" xlink:title="Stack frame for a block of command&#45;line interpreter commands.">
<polygon fill="white" stroke="black" points="773.5,-98.5 773.5,-117.5 916.5,-117.5 916.5,-98.5 773.5,-98.5"/>
<text text-anchor="middle" x="845" y="-105.5" font-family="Helvetica,sans-Serif" font-size="10.00">IG.Lib.CommandStackFrame</text>
</a>
</g>
</g>
<!-- Node4&#45;&gt;Node1 -->
<g id="edge3" class="edge"><title>Node4&#45;&gt;Node1</title>
<path fill="none" stroke="#9a32cd" stroke-dasharray="5,2" d="M926.6,-99.4982C968.173,-98.3645 1018.69,-102.203 1060,-121 1098.74,-138.626 1130.16,-179.712 1145.09,-201.991"/>
<polygon fill="#9a32cd" stroke="#9a32cd" points="926.371,-96.0042 916.509,-99.8744 926.632,-102.999 926.371,-96.0042"/>
<text text-anchor="middle" x="1010" y="-124" font-family="Helvetica,sans-Serif" font-size="10.00"> _globalAuxiliaryFrame</text>
</g>
<!-- Node5&#45;&gt;Node1 -->
<g id="edge4" class="edge"><title>Node5&#45;&gt;Node1</title>
<path fill="none" stroke="#9a32cd" stroke-dasharray="5,2" d="M929.78,-217C975.936,-217 1032.81,-217 1077.8,-217"/>
<polygon fill="#9a32cd" stroke="#9a32cd" points="929.502,-213.5 919.501,-217 929.501,-220.5 929.502,-213.5"/>
<text text-anchor="middle" x="1010" y="-220" font-family="Helvetica,sans-Serif" font-size="10.00"> _evaluatorJint</text>
</g>
<!-- Node6&#45;&gt;Node5 -->
<g id="edge5" class="edge"><title>Node6&#45;&gt;Node5</title>
<path fill="none" stroke="midnightblue" d="M645.959,-217C683.908,-217 731.446,-217 770.434,-217"/>
<polygon fill="midnightblue" stroke="midnightblue" points="645.524,-213.5 635.524,-217 645.524,-220.5 645.524,-213.5"/>
</g>
<!-- Node7&#45;&gt;Node6 -->
<g id="edge6" class="edge"><title>Node7&#45;&gt;Node6</title>
<path fill="none" stroke="midnightblue" d="M402.3,-208.242C404.896,-208.152 407.468,-208.07 410,-208 437.545,-207.235 444.47,-206.822 472,-208 487.72,-208.672 504.728,-209.909 520.384,-211.254"/>
<polygon fill="midnightblue" stroke="midnightblue" points="402.052,-204.749 392.196,-208.636 402.325,-211.744 402.052,-204.749"/>
</g>
<!-- Node7&#45;&gt;Node13 -->
<g id="edge20" class="edge"><title>Node7&#45;&gt;Node13</title>
<path fill="none" stroke="midnightblue" d="M348.88,-227.047C401.587,-252.682 512.093,-306.43 557.193,-328.366"/>
<polygon fill="midnightblue" stroke="midnightblue" points="350.263,-223.827 339.74,-222.601 347.201,-230.122 350.263,-223.827"/>
</g>
<!-- Node8 -->
<g id="node8" class="node"><title>Node8</title>
<g id="a_node8"><a xlink:href="../../dc/d79/interfaceIG_1_1Lib_1_1IIdentifiable.html" target="_top" xlink:title="Classes whose instances have unique integer IDs.">
<polygon fill="white" stroke="black" points="23.5,-80.5 23.5,-99.5 88.5,-99.5 88.5,-80.5 23.5,-80.5"/>
<text text-anchor="middle" x="56" y="-87.5" font-family="Helvetica,sans-Serif" font-size="10.00">IIdentifiable</text>
</a>
</g>
</g>
<!-- Node8&#45;&gt;Node5 -->
<g id="edge15" class="edge"><title>Node8&#45;&gt;Node5</title>
<path fill="none" stroke="midnightblue" d="M98.4956,-83.3192C108.764,-81.9414 119.758,-80.6982 130,-80 173.455,-77.0375 184.448,-79.469 228,-80 300.905,-80.889 320.14,-71.6648 392,-84 437.158,-91.7517 445.969,-103.325 490,-116 567.483,-138.305 588.454,-137.916 666,-160 719.521,-175.242 781.218,-195.644 816.116,-207.451"/>
<polygon fill="midnightblue" stroke="midnightblue" points="97.9364,-79.8633 88.5238,-84.7267 98.9148,-86.7946 97.9364,-79.8633"/>
</g>
<!-- Node8&#45;&gt;Node6 -->
<g id="edge11" class="edge"><title>Node8&#45;&gt;Node6</title>
<path fill="none" stroke="midnightblue" d="M98.7529,-85.6856C179.352,-79.6352 358.426,-77.5334 472,-162 486.354,-172.675 475.88,-187.017 490,-198 498.786,-204.834 509.512,-209.327 520.391,-212.255"/>
<polygon fill="midnightblue" stroke="midnightblue" points="98.1913,-82.2195 88.5071,-86.5169 98.7574,-89.1966 98.1913,-82.2195"/>
</g>
<!-- Node8&#45;&gt;Node7 -->
<g id="edge8" class="edge"><title>Node8&#45;&gt;Node7</title>
<path fill="none" stroke="midnightblue" d="M81.9957,-104.755C117.587,-125.376 185.297,-163.182 246,-189 258.731,-194.415 273.131,-199.425 285.69,-203.452"/>
<polygon fill="midnightblue" stroke="midnightblue" points="83.6537,-101.67 73.2514,-99.6588 80.1291,-107.718 83.6537,-101.67"/>
</g>
<!-- Node8&#45;&gt;Node13 -->
<g id="edge22" class="edge"><title>Node8&#45;&gt;Node13</title>
<path fill="none" stroke="midnightblue" d="M68.1349,-108.628C80.0481,-129.073 98.9838,-163.104 112,-194 122.15,-218.092 112.485,-230.592 130,-250 161.866,-285.311 191.297,-262.747 228,-293 238.845,-301.939 233.776,-312.064 246,-319 288.866,-343.323 422.5,-343.606 506.283,-341.129"/>
<polygon fill="midnightblue" stroke="midnightblue" points="70.9994,-106.595 62.9074,-99.7562 64.9685,-110.149 70.9994,-106.595"/>
</g>
<!-- Node9 -->
<g id="node9" class="node"><title>Node9</title>
<g id="a_node9"><a xlink:title=" ">
<polygon fill="white" stroke="#bfbfbf" points="35.5,-203.5 35.5,-222.5 76.5,-222.5 76.5,-203.5 35.5,-203.5"/>
<text text-anchor="middle" x="56" y="-210.5" font-family="Helvetica,sans-Serif" font-size="10.00">static</text>
</a>
</g>
</g>
<!-- Node9&#45;&gt;Node1 -->
<g id="edge25" class="edge"><title>Node9&#45;&gt;Node1</title>
<path fill="none" stroke="#9a32cd" stroke-dasharray="5,2" d="M74.6767,-196.545C88.6083,-184.593 109.109,-169.142 130,-161 280.237,-102.443 329.066,-126.019 490,-116 568.071,-111.139 588.184,-108.04 666,-116 747.846,-124.372 977.288,-175.952 1090.15,-201.991"/>
<polygon fill="#9a32cd" stroke="#9a32cd" points="72.0645,-194.184 66.9066,-203.439 76.7099,-199.421 72.0645,-194.184"/>
<text text-anchor="middle" x="578" y="-152" font-family="Helvetica,sans-Serif" font-size="10.00"> DefaultWarnCommandReplacement</text>
<text text-anchor="middle" x="578" y="-141" font-family="Helvetica,sans-Serif" font-size="10.00">DefaultOutputLevel</text>
<text text-anchor="middle" x="578" y="-130" font-family="Helvetica,sans-Serif" font-size="10.00">DefaultNumEquations</text>
<text text-anchor="middle" x="578" y="-119" font-family="Helvetica,sans-Serif" font-size="10.00">_interpreters</text>
</g>
<!-- Node9&#45;&gt;Node6 -->
<g id="edge13" class="edge"><title>Node9&#45;&gt;Node6</title>
<path fill="none" stroke="#9a32cd" stroke-dasharray="5,2" d="M86.0562,-202.374C122.733,-189.577 188.045,-168.827 246,-161 310.305,-152.315 328.165,-149.351 392,-161 437.8,-169.358 445.361,-184.776 490,-198 502.007,-201.557 515.126,-204.765 527.45,-207.489"/>
<polygon fill="#9a32cd" stroke="#9a32cd" points="84.7603,-199.12 76.5006,-205.755 87.0953,-205.719 84.7603,-199.12"/>
<text text-anchor="middle" x="319" y="-186" font-family="Helvetica,sans-Serif" font-size="10.00"> _globalLock</text>
<text text-anchor="middle" x="319" y="-175" font-family="Helvetica,sans-Serif" font-size="10.00">_evaluatorGlobal</text>
<text text-anchor="middle" x="319" y="-164" font-family="Helvetica,sans-Serif" font-size="10.00">_register</text>
</g>
<!-- Node9&#45;&gt;Node7 -->
<g id="edge9" class="edge"><title>Node9&#45;&gt;Node7</title>
<path fill="none" stroke="#9a32cd" stroke-dasharray="5,2" d="M86.6247,-213C125.05,-213 193.364,-213 245.836,-213"/>
<polygon fill="#9a32cd" stroke="#9a32cd" points="86.6175,-209.5 76.6174,-213 86.6174,-216.5 86.6175,-209.5"/>
<text text-anchor="middle" x="179" y="-238" font-family="Helvetica,sans-Serif" font-size="10.00"> _lastId</text>
<text text-anchor="middle" x="179" y="-227" font-family="Helvetica,sans-Serif" font-size="10.00">DefaultOutputLevel</text>
<text text-anchor="middle" x="179" y="-216" font-family="Helvetica,sans-Serif" font-size="10.00">_idLock</text>
</g>
<!-- Node9&#45;&gt;Node13 -->
<g id="edge24" class="edge"><title>Node9&#45;&gt;Node13</title>
<path fill="none" stroke="#9a32cd" stroke-dasharray="5,2" d="M69.4431,-230.885C82.5579,-248.428 104.785,-274.707 130,-290 168.732,-313.49 192.979,-289.269 228,-318 241.524,-329.094 231.209,-343.662 246,-353 344.986,-415.492 495.759,-369.153 553.436,-347.518"/>
<polygon fill="#9a32cd" stroke="#9a32cd" points="72.1498,-228.655 63.4479,-222.611 66.4815,-232.762 72.1498,-228.655"/>
<text text-anchor="middle" x="319" y="-410" font-family="Helvetica,sans-Serif" font-size="10.00"> _globalLock</text>
<text text-anchor="middle" x="319" y="-399" font-family="Helvetica,sans-Serif" font-size="10.00">_evaluatorGlobal</text>
<text text-anchor="middle" x="319" y="-388" font-family="Helvetica,sans-Serif" font-size="10.00">_register</text>
</g>
<!-- Node9&#45;&gt;Node16 -->
<g id="edge33" class="edge"><title>Node9&#45;&gt;Node16</title>
<path fill="none" stroke="#9a32cd" stroke-dasharray="5,2" d="M68.4299,-231C82.2307,-252.351 106.523,-288.733 130,-318 193.287,-396.895 279.251,-483.627 308.101,-512.249"/>
<polygon fill="#9a32cd" stroke="#9a32cd" points="71.3745,-229.108 63.029,-222.581 65.4826,-232.888 71.3745,-229.108"/>
<text text-anchor="middle" x="179" y="-463" font-family="Helvetica,sans-Serif" font-size="10.00"> _isScriptingInitialized</text>
<text text-anchor="middle" x="179" y="-452" font-family="Helvetica,sans-Serif" font-size="10.00">_usedClassFullNames</text>
<text text-anchor="middle" x="179" y="-441" font-family="Helvetica,sans-Serif" font-size="10.00">_global</text>
<text text-anchor="middle" x="179" y="-430" font-family="Helvetica,sans-Serif" font-size="10.00">_defaultAssemblies</text>
</g>
<!-- Node10 -->
<g id="node10" class="node"><title>Node10</title>
<g id="a_node10"><a xlink:href="../../d5/d7a/interfaceIG_1_1Lib_1_1IRegisterable.html" target="_top" xlink:title=" ">
<polygon fill="white" stroke="black" points="253.5,-280 253.5,-310 384.5,-310 384.5,-280 253.5,-280"/>
<text text-anchor="start" x="261.5" y="-298" font-family="Helvetica,sans-Serif" font-size="10.00">IRegisterable&lt; Expression</text>
<text text-anchor="middle" x="319" y="-287" font-family="Helvetica,sans-Serif" font-size="10.00">EvaluatorJs &gt;</text>
</a>
</g>
</g>
<!-- Node10&#45;&gt;Node5 -->
<g id="edge16" class="edge"><title>Node10&#45;&gt;Node5</title>
<path fill="none" stroke="midnightblue" d="M394.725,-284.271C419.34,-280.713 446.846,-276.714 472,-273 580.869,-256.927 707.584,-237.752 781.487,-226.521"/>
<polygon fill="midnightblue" stroke="midnightblue" points="394.127,-280.821 384.729,-285.714 395.127,-287.749 394.127,-280.821"/>
</g>
<!-- Node10&#45;&gt;Node6 -->
<g id="edge12" class="edge"><title>Node10&#45;&gt;Node6</title>
<path fill="none" stroke="midnightblue" d="M379.279,-277.009C431.035,-261.301 504.148,-239.111 545.422,-226.584"/>
<polygon fill="midnightblue" stroke="midnightblue" points="378.105,-273.707 369.552,-279.961 380.138,-280.406 378.105,-273.707"/>
</g>
<!-- Node10&#45;&gt;Node13 -->
<g id="edge23" class="edge"><title>Node10&#45;&gt;Node13</title>
<path fill="none" stroke="midnightblue" d="M394.486,-307.463C434.455,-314.15 482.947,-322.263 519.899,-328.446"/>
<polygon fill="midnightblue" stroke="midnightblue" points="394.961,-303.993 384.52,-305.795 393.806,-310.898 394.961,-303.993"/>
</g>
<!-- Node11 -->
<g id="node11" class="node"><title>Node11</title>
<g id="a_node11"><a xlink:title=" ">
<polygon fill="white" stroke="#bfbfbf" points="562,-169.5 562,-188.5 594,-188.5 594,-169.5 562,-169.5"/>
<text text-anchor="middle" x="578" y="-176.5" font-family="Helvetica,sans-Serif" font-size="10.00">Jint</text>
</a>
</g>
</g>
<!-- Node11&#45;&gt;Node5 -->
<g id="edge17" class="edge"><title>Node11&#45;&gt;Node5</title>
<path fill="none" stroke="#9a32cd" stroke-dasharray="5,2" d="M604.059,-182.593C643.482,-188.247 721.298,-199.405 777.646,-207.485"/>
<polygon fill="#9a32cd" stroke="#9a32cd" points="604.402,-179.107 594.007,-181.152 603.409,-186.036 604.402,-179.107"/>
<text text-anchor="middle" x="707" y="-204" font-family="Helvetica,sans-Serif" font-size="10.00"> _jsEngine</text>
</g>
<!-- Node12 -->
<g id="node12" class="node"><title>Node12</title>
<g id="a_node12"><a xlink:href="../../d8/d2b/classIG_1_1Lib_1_1CommandThread.html" target="_top" xlink:title="Contains stack frames and other command thread data for a single command thread of a command&#45;line int...">
<polygon fill="white" stroke="black" points="785.5,-60.5 785.5,-79.5 904.5,-79.5 904.5,-60.5 785.5,-60.5"/>
<text text-anchor="middle" x="845" y="-67.5" font-family="Helvetica,sans-Serif" font-size="10.00">IG.Lib.CommandThread</text>
</a>
</g>
</g>
<!-- Node12&#45;&gt;Node1 -->
<g id="edge18" class="edge"><title>Node12&#45;&gt;Node1</title>
<path fill="none" stroke="#9a32cd" stroke-dasharray="5,2" d="M895.034,-58.5963C940.686,-50.7039 1009.14,-46.0344 1060,-74 1111.11,-102.104 1139.35,-170.998 1149.78,-201.748"/>
<polygon fill="#9a32cd" stroke="#9a32cd" points="894.285,-55.1753 885.085,-60.4296 895.554,-62.0594 894.285,-55.1753"/>
<text text-anchor="middle" x="1010" y="-88" font-family="Helvetica,sans-Serif" font-size="10.00"> _globalThread</text>
<text text-anchor="middle" x="1010" y="-77" font-family="Helvetica,sans-Serif" font-size="10.00">_mainThread</text>
</g>
<!-- Node13&#45;&gt;Node1 -->
<g id="edge19" class="edge"><title>Node13&#45;&gt;Node1</title>
<path fill="none" stroke="#9a32cd" stroke-dasharray="5,2" d="M634.714,-326.286C739.711,-304.21 966.734,-256.478 1082.89,-232.057"/>
<polygon fill="#9a32cd" stroke="#9a32cd" points="633.705,-322.921 624.64,-328.404 635.146,-329.772 633.705,-322.921"/>
<text text-anchor="middle" x="845" y="-305" font-family="Helvetica,sans-Serif" font-size="10.00"> _evalutorJs</text>
</g>
<!-- Node14 -->
<g id="node14" class="node"><title>Node14</title>
<g id="a_node14"><a xlink:href="../../d6/d7c/classIG_1_1Lib_1_1LoadableScriptInterpreterBase.html" target="_top" xlink:title="Interpreter that can install commands from dynamically loaded (compiled) scripts and run them....">
<polygon fill="white" stroke="black" points="490,-512.5 490,-531.5 666,-531.5 666,-512.5 490,-512.5"/>
<text text-anchor="middle" x="578" y="-519.5" font-family="Helvetica,sans-Serif" font-size="10.00">IG.Lib.LoadableScriptInterpreterBase</text>
</a>
</g>
</g>
<!-- Node14&#45;&gt;Node1 -->
<g id="edge26" class="edge"><title>Node14&#45;&gt;Node1</title>
<path fill="none" stroke="#9a32cd" stroke-dasharray="5,2" d="M676.208,-512.825C694.453,-509.357 713.094,-504.58 730,-498 905.845,-429.558 1083.64,-279.831 1137.82,-232.004"/>
<polygon fill="#9a32cd" stroke="#9a32cd" points="675.357,-509.422 666.126,-514.621 676.584,-516.313 675.357,-509.422"/>
<text text-anchor="middle" x="845" y="-493" font-family="Helvetica,sans-Serif" font-size="10.00"> _loadableScriptInterpreter</text>
</g>
<!-- Node15&#45;&gt;Node14 -->
<g id="edge27" class="edge"><title>Node15&#45;&gt;Node14</title>
<path fill="none" stroke="midnightblue" d="M392.447,-549.288C430.16,-543.712 475.885,-536.951 512.386,-531.554"/>
<polygon fill="midnightblue" stroke="midnightblue" points="391.921,-545.828 382.541,-550.753 392.945,-552.752 391.921,-545.828"/>
</g>
<!-- Node16&#45;&gt;Node14 -->
<g id="edge29" class="edge"><title>Node16&#45;&gt;Node14</title>
<path fill="none" stroke="#9a32cd" stroke-dasharray="5,2" d="M390.442,-522C421.156,-522 457.472,-522 489.863,-522"/>
<polygon fill="#9a32cd" stroke="#9a32cd" points="390.255,-518.5 380.255,-522 390.255,-525.5 390.255,-518.5"/>
<text text-anchor="middle" x="441" y="-525" font-family="Helvetica,sans-Serif" font-size="10.00"> _scriptLoader</text>
</g>
<!-- Node17 -->
<g id="node17" class="node"><title>Node17</title>
<g id="a_node17"><a xlink:href="../../d7/d66/interfaceIG_1_1Lib_1_1ILoadableScript.html" target="_top" xlink:title="Interface for classes that can be dynamically loadeded from scripts and run, which provides functiona...">
<polygon fill="white" stroke="black" points="0,-580.5 0,-599.5 112,-599.5 112,-580.5 0,-580.5"/>
<text text-anchor="middle" x="56" y="-587.5" font-family="Helvetica,sans-Serif" font-size="10.00">IG.Lib.ILoadableScript</text>
</a>
</g>
</g>
<!-- Node17&#45;&gt;Node16 -->
<g id="edge31" class="edge"><title>Node17&#45;&gt;Node16</title>
<path fill="none" stroke="#9a32cd" stroke-dasharray="5,2" d="M122.165,-587.397C155.398,-583.843 195.541,-575.996 228,-559 238.023,-553.752 236.191,-546.638 246,-541 252.725,-537.134 260.253,-534.037 267.837,-531.56"/>
<polygon fill="#9a32cd" stroke="#9a32cd" points="121.708,-583.925 112.09,-588.367 122.379,-590.892 121.708,-583.925"/>
<text text-anchor="middle" x="179" y="-589" font-family="Helvetica,sans-Serif" font-size="10.00"> _runnableObject</text>
</g>
<!-- Node18 -->
<g id="node18" class="node"><title>Node18</title>
<g id="a_node18"><a xlink:href="../../d7/df0/classIG_1_1Lib_1_1Logger.html" target="_top" xlink:title="Temporary logging of errors, warnings and infos for later processing. It is used to log multiple even...">
<polygon fill="white" stroke="black" points="19,-542.5 19,-561.5 93,-561.5 93,-542.5 19,-542.5"/>
<text text-anchor="middle" x="56" y="-549.5" font-family="Helvetica,sans-Serif" font-size="10.00">IG.Lib.Logger</text>
</a>
</g>
</g>
<!-- Node18&#45;&gt;Node16 -->
<g id="edge32" class="edge"><title>Node18&#45;&gt;Node16</title>
<path fill="none" stroke="#9a32cd" stroke-dasharray="5,2" d="M103.212,-546.688C146.279,-541.738 210.754,-534.327 257.824,-528.917"/>
<polygon fill="#9a32cd" stroke="#9a32cd" points="102.552,-543.241 93.0169,-547.86 103.351,-550.195 102.552,-543.241"/>
<text text-anchor="middle" x="179" y="-547" font-family="Helvetica,sans-Serif" font-size="10.00"> _logger</text>
</g>
<!-- Node19 -->
<g id="node19" class="node"><title>Node19</title>
<g id="a_node19"><a xlink:href="../../dc/da7/classIG_1_1Num_1_1ParallelJobDispatcherGen.html" target="_top" xlink:title=" ">
<polygon fill="white" stroke="black" points="748,-0.5 748,-41.5 942,-41.5 942,-0.5 748,-0.5"/>
<text text-anchor="start" x="756" y="-29.5" font-family="Helvetica,sans-Serif" font-size="10.00">IG.Num.ParallelJobDispatcher</text>
<text text-anchor="start" x="756" y="-18.5" font-family="Helvetica,sans-Serif" font-size="10.00">Gen&lt; IG.Lib.CommandLineJobContainer,</text>
<text text-anchor="middle" x="845" y="-7.5" font-family="Helvetica,sans-Serif" font-size="10.00"> IG.Lib.CommandLineJobContainer &gt;</text>
</a>
</g>
</g>
<!-- Node19&#45;&gt;Node1 -->
<g id="edge34" class="edge"><title>Node19&#45;&gt;Node1</title>
<path fill="none" stroke="#9a32cd" stroke-dasharray="5,2" d="M952.27,-9.39995C988.974,-10.3542 1028.7,-17.3958 1060,-38 1119.44,-77.1266 1143.97,-166.355 1151.63,-201.941"/>
<polygon fill="#9a32cd" stroke="#9a32cd" points="952.046,-5.89734 942.008,-9.286 951.968,-12.8969 952.046,-5.89734"/>
<text text-anchor="middle" x="1010" y="-41" font-family="Helvetica,sans-Serif" font-size="10.00"> _parallelDispatcher</text>
</g>
</g>
</svg>
        <g id="navigator" transform="translate(0 0)" fill="#404254">
                <rect fill="#f2f5e9" fill-opacity="0.5" stroke="#606060" stroke-width=".5" x="0" y="0" width="60" height="60"/>
                <use id="zoomplus" xlink:href="#zoomPlus" x="17" y="9" onmousedown="handleZoom(evt,'in')"/>
                <use id="zoomminus" xlink:href="#zoomMin" x="42" y="9" onmousedown="handleZoom(evt,'out')"/>
                <use id="reset" xlink:href="#resetDef" x="30" y="36" onmousedown="handleReset()"/>
                <g id="arrowUp" xlink:href="#dirArrow" transform="translate(30 24)" onmousedown="handlePan(0,-1)">
                  <use xlink:href="#rim" fill="#404040">
                        <set attributeName="fill" to="#808080" begin="arrowUp.mouseover" end="arrowUp.mouseout"/>
                  </use>
                  <path fill="none" stroke="white" stroke-width="1.5" d="M0,-3.0v7 M-2.5,-0.5L0,-3.0L2.5,-0.5"/>
                </g>
                <g id="arrowRight" xlink:href="#dirArrow" transform="rotate(90) translate(36 -43)" onmousedown="handlePan(1,0)">
                  <use xlink:href="#rim" fill="#404040">
                        <set attributeName="fill" to="#808080" begin="arrowRight.mouseover" end="arrowRight.mouseout"/>
                  </use>
                  <path fill="none" stroke="white" stroke-width="1.5" d="M0,-3.0v7 M-2.5,-0.5L0,-3.0L2.5,-0.5"/>
                </g>
                <g id="arrowDown" xlink:href="#dirArrow" transform="rotate(180) translate(-30 -48)" onmousedown="handlePan(0,1)">
                  <use xlink:href="#rim" fill="#404040">
                        <set attributeName="fill" to="#808080" begin="arrowDown.mouseover" end="arrowDown.mouseout"/>
                  </use>
                  <path fill="none" stroke="white" stroke-width="1.5" d="M0,-3.0v7 M-2.5,-0.5L0,-3.0L2.5,-0.5"/>
                </g>
                <g id="arrowLeft" xlink:href="#dirArrow" transform="rotate(270) translate(-36 17)" onmousedown="handlePan(-1,0)">
                  <use xlink:href="#rim" fill="#404040">
                        <set attributeName="fill" to="#808080" begin="arrowLeft.mouseover" end="arrowLeft.mouseout"/>
                  </use>
                  <path fill="none" stroke="white" stroke-width="1.5" d="M0,-3.0v7 M-2.5,-0.5L0,-3.0L2.5,-0.5"/>
                </g>
        </g>
        <svg viewBox="0 0 15 15" width="100%" height="30px" preserveAspectRatio="xMaxYMin meet">
         <g id="arrow_out" transform="scale(0.3 0.3)">
          <a xlink:href="classIG_1_1Lib_1_1CommandLineApplicationInterpreter__coll__graph_org.svg" target="_base">
           <rect id="button" ry="5" rx="5" y="6" x="6" height="38" width="38"
                fill="#f2f5e9" fill-opacity="0.5" stroke="#606060" stroke-width="1.0"/>
           <path id="arrow"
             d="M 11.500037,31.436501 C 11.940474,20.09759 22.043105,11.32322 32.158766,21.979434 L 37.068811,17.246167 C 37.068811,17.246167 37.088388,32 37.088388,32 L 22.160133,31.978069 C 22.160133,31.978069 26.997745,27.140456 26.997745,27.140456 C 18.528582,18.264221 13.291696,25.230495 11.500037,31.436501 z"
             style="fill:#404040;"/>
          </a>
         </g>
        </svg>
</svg>
