<?xml version="1.0" encoding="UTF-8" standalone="no"?>
<!DOCTYPE svg PUBLIC "-//W3C//DTD SVG 1.1//EN"
 "http://www.w3.org/Graphics/SVG/1.1/DTD/svg11.dtd">
<!-- Generated by graphviz version 2.38.0 (20140413.2041)
 -->
<!-- Title: IG.Lib.Copy.NamedPipeClientBase Pages: 1 -->
<svg width="278pt" height="252pt"
 viewBox="0.00 0.00 277.50 252.00" xmlns="http://www.w3.org/2000/svg" xmlns:xlink="http://www.w3.org/1999/xlink">
<g id="graph0" class="graph" transform="scale(1 1) rotate(0) translate(4 248)">
<title>IG.Lib.Copy.NamedPipeClientBase</title>
<polygon fill="white" stroke="none" points="-4,4 -4,-248 273.5,-248 273.5,4 -4,4"/>
<!-- Node1 -->
<g id="node1" class="node"><title>Node1</title>
<g id="a_node1"><a xlink:title="Client to the pipe server (classes derived from ClientServerStreamBase2).">
<polygon fill="#bfbfbf" stroke="black" points="0,-0.5 0,-19.5 168,-19.5 168,-0.5 0,-0.5"/>
<text text-anchor="middle" x="84" y="-7.5" font-family="Helvetica,sans-Serif" font-size="10.00">IG.Lib.Copy.NamedPipeClientBase</text>
</a>
</g>
</g>
<!-- Node2 -->
<g id="node2" class="node"><title>Node2</title>
<g id="a_node2"><a xlink:href="../../d2/d6f/classIG_1_1Lib_1_1Copy_1_1ClientStreamBase.html" target="_top" xlink:title="Client to the pipe server (classes derived from ClientServerStreamBase2).">
<polygon fill="white" stroke="black" points="74.5,-56.5 74.5,-75.5 169.5,-75.5 169.5,-56.5 74.5,-56.5"/>
<text text-anchor="middle" x="122" y="-63.5" font-family="Helvetica,sans-Serif" font-size="10.00">ClientStreamBase</text>
</a>
</g>
</g>
<!-- Node2&#45;&gt;Node1 -->
<g id="edge1" class="edge"><title>Node2&#45;&gt;Node1</title>
<path fill="none" stroke="midnightblue" d="M109.935,-47.8554C103.355,-38.5048 95.489,-27.3265 90.1582,-19.7511"/>
<polygon fill="midnightblue" stroke="midnightblue" points="107.108,-49.9192 115.725,-56.083 112.832,-45.8907 107.108,-49.9192"/>
</g>
<!-- Node3 -->
<g id="node3" class="node"><title>Node3</title>
<g id="a_node3"><a xlink:href="../../db/d41/classIG_1_1Lib_1_1Copy_1_1ClientServerStreamBase2.html" target="_top" xlink:title="Base class for named pipe servers and clients, contains common stuff for both.">
<polygon fill="white" stroke="black" points="112,-112.5 112,-131.5 240,-131.5 240,-112.5 112,-112.5"/>
<text text-anchor="middle" x="176" y="-119.5" font-family="Helvetica,sans-Serif" font-size="10.00">ClientServerStreamBase2</text>
</a>
</g>
</g>
<!-- Node3&#45;&gt;Node2 -->
<g id="edge2" class="edge"><title>Node3&#45;&gt;Node2</title>
<path fill="none" stroke="midnightblue" d="M160.002,-105.002C150.433,-95.4329 138.639,-83.6389 130.751,-75.7511"/>
<polygon fill="midnightblue" stroke="midnightblue" points="157.537,-107.487 167.083,-112.083 162.487,-102.537 157.537,-107.487"/>
</g>
<!-- Node4 -->
<g id="node4" class="node"><title>Node4</title>
<g id="a_node4"><a xlink:href="../../d5/d2f/classIG_1_1Lib_1_1Copy_1_1ClienServerStreamBase.html" target="_top" xlink:title="Base class for client and server classes with stream&#45;based communication.">
<polygon fill="white" stroke="black" points="150.5,-168.5 150.5,-187.5 269.5,-187.5 269.5,-168.5 150.5,-168.5"/>
<text text-anchor="middle" x="210" y="-175.5" font-family="Helvetica,sans-Serif" font-size="10.00">ClienServerStreamBase</text>
</a>
</g>
</g>
<!-- Node4&#45;&gt;Node3 -->
<g id="edge3" class="edge"><title>Node4&#45;&gt;Node3</title>
<path fill="none" stroke="midnightblue" d="M199.023,-159.566C193.173,-150.275 186.23,-139.248 181.51,-131.751"/>
<polygon fill="midnightblue" stroke="midnightblue" points="196.096,-161.486 204.386,-168.083 202.019,-157.756 196.096,-161.486"/>
</g>
<!-- Node5 -->
<g id="node5" class="node"><title>Node5</title>
<g id="a_node5"><a xlink:href="../../d3/db6/interfaceIG_1_1Lib_1_1ILockable.html" target="_top" xlink:title="Lockable object, has a Lock property that returns object on which lock must be performed in order to ...">
<polygon fill="white" stroke="black" points="74,-224.5 74,-243.5 132,-243.5 132,-224.5 74,-224.5"/>
<text text-anchor="middle" x="103" y="-231.5" font-family="Helvetica,sans-Serif" font-size="10.00">ILockable</text>
</a>
</g>
</g>
<!-- Node5&#45;&gt;Node1 -->
<g id="edge7" class="edge"><title>Node5&#45;&gt;Node1</title>
<path fill="none" stroke="midnightblue" d="M97.0573,-214.675C87.9864,-185.641 71.0976,-127.113 65,-76 63.9471,-67.1737 63.2362,-64.7121 65,-56 67.6924,-42.7013 74.4412,-28.4478 79.1241,-19.6279"/>
<polygon fill="midnightblue" stroke="midnightblue" points="93.7462,-215.813 100.112,-224.282 100.417,-213.691 93.7462,-215.813"/>
</g>
<!-- Node5&#45;&gt;Node2 -->
<g id="edge6" class="edge"><title>Node5&#45;&gt;Node2</title>
<path fill="none" stroke="midnightblue" d="M100.715,-214.212C98.3161,-190.224 95.7997,-147.565 103,-112 105.692,-98.7013 112.441,-84.4478 117.124,-75.6279"/>
<polygon fill="midnightblue" stroke="midnightblue" points="97.2607,-214.821 101.84,-224.375 104.218,-214.051 97.2607,-214.821"/>
</g>
<!-- Node5&#45;&gt;Node3 -->
<g id="edge5" class="edge"><title>Node5&#45;&gt;Node3</title>
<path fill="none" stroke="midnightblue" d="M112.484,-215.357C119.828,-202.061 130.49,-183.527 141,-168 149.877,-154.886 161.329,-140.586 168.671,-131.706"/>
<polygon fill="midnightblue" stroke="midnightblue" points="109.285,-213.912 107.572,-224.367 115.431,-217.262 109.285,-213.912"/>
</g>
<!-- Node5&#45;&gt;Node4 -->
<g id="edge4" class="edge"><title>Node5&#45;&gt;Node4</title>
<path fill="none" stroke="midnightblue" d="M129.302,-219.726C149.115,-209.727 175.707,-196.307 192.851,-187.655"/>
<polygon fill="midnightblue" stroke="midnightblue" points="127.542,-216.694 120.191,-224.324 130.696,-222.943 127.542,-216.694"/>
</g>
</g>
</svg>
