<?xml version="1.0" encoding="UTF-8" standalone="no"?>
<!DOCTYPE svg PUBLIC "-//W3C//DTD SVG 1.1//EN"
 "http://www.w3.org/Graphics/SVG/1.1/DTD/svg11.dtd">
<!-- Generated by graphviz version 2.38.0 (20140413.2041)
 -->
<!-- Title: IG.Lib.KeyValueSortable&lt; Tkey, Tvalue &gt;.ComparerKeyBase Pages: 1 -->
<svg width="181pt" height="162pt"
 viewBox="0.00 0.00 181.00 162.00" xmlns="http://www.w3.org/2000/svg" xmlns:xlink="http://www.w3.org/1999/xlink">
<g id="graph0" class="graph" transform="scale(1 1) rotate(0) translate(4 158)">
<title>IG.Lib.KeyValueSortable&lt; Tkey, Tvalue &gt;.ComparerKeyBase</title>
<polygon fill="white" stroke="none" points="-4,4 -4,-158 177,-158 177,4 -4,4"/>
<!-- Node1 -->
<g id="node1" class="node"><title>Node1</title>
<g id="a_node1"><a xlink:title="IComparer that compares the key first and then eventually the value and finally the additional orderi...">
<polygon fill="#bfbfbf" stroke="black" points="0,-0.5 0,-30.5 173,-30.5 173,-0.5 0,-0.5"/>
<text text-anchor="start" x="8" y="-18.5" font-family="Helvetica,sans-Serif" font-size="10.00">IG.Lib.KeyValueSortable</text>
<text text-anchor="middle" x="86.5" y="-7.5" font-family="Helvetica,sans-Serif" font-size="10.00">&lt; Tkey, Tvalue &gt;.ComparerKeyBase</text>
</a>
</g>
</g>
<!-- Node2 -->
<g id="node2" class="node"><title>Node2</title>
<g id="a_node2"><a xlink:href="../../d5/d86/classIG_1_1Lib_1_1KeyValueSortable_1_1ComparerBase.html" target="_top" xlink:title="Base class for different IComparer classes.">
<polygon fill="white" stroke="black" points="46,-67.5 46,-86.5 127,-86.5 127,-67.5 46,-67.5"/>
<text text-anchor="middle" x="86.5" y="-74.5" font-family="Helvetica,sans-Serif" font-size="10.00">ComparerBase</text>
</a>
</g>
</g>
<!-- Node2&#45;&gt;Node1 -->
<g id="edge1" class="edge"><title>Node2&#45;&gt;Node1</title>
<path fill="none" stroke="midnightblue" d="M86.5,-57.2349C86.5,-48.5864 86.5,-38.4969 86.5,-30.523"/>
<polygon fill="midnightblue" stroke="midnightblue" points="83.0001,-57.4751 86.5,-67.4751 90.0001,-57.4751 83.0001,-57.4751"/>
</g>
<!-- Node3 -->
<g id="node3" class="node"><title>Node3</title>
<g id="a_node3"><a xlink:title=" ">
<polygon fill="white" stroke="#bfbfbf" points="12.5,-123.5 12.5,-153.5 160.5,-153.5 160.5,-123.5 12.5,-123.5"/>
<text text-anchor="start" x="20.5" y="-141.5" font-family="Helvetica,sans-Serif" font-size="10.00">IComparer&lt; KeyValueSortable</text>
<text text-anchor="middle" x="86.5" y="-130.5" font-family="Helvetica,sans-Serif" font-size="10.00">&lt; Tkey, Tvalue &gt;&gt;</text>
</a>
</g>
</g>
<!-- Node3&#45;&gt;Node2 -->
<g id="edge2" class="edge"><title>Node3&#45;&gt;Node2</title>
<path fill="none" stroke="midnightblue" d="M86.5,-113.289C86.5,-103.857 86.5,-93.6548 86.5,-86.6578"/>
<polygon fill="midnightblue" stroke="midnightblue" points="83.0001,-113.399 86.5,-123.399 90.0001,-113.399 83.0001,-113.399"/>
</g>
</g>
</svg>
