<?xml version="1.0" encoding="UTF-8" standalone="no"?>
<!DOCTYPE svg PUBLIC "-//W3C//DTD SVG 1.1//EN"
 "http://www.w3.org/Graphics/SVG/1.1/DTD/svg11.dtd">
<!-- Generated by graphviz version 2.38.0 (20140413.2041)
 -->
<!-- Title: IG.Lib.RegisterableExamples.ExampleIRegistrable Pages: 1 -->
<svg width="344pt" height="163pt"
 viewBox="0.00 0.00 344.00 163.00" xmlns="http://www.w3.org/2000/svg" xmlns:xlink="http://www.w3.org/1999/xlink">
<g id="graph0" class="graph" transform="scale(1 1) rotate(0) translate(4 159)">
<title>IG.Lib.RegisterableExamples.ExampleIRegistrable</title>
<polygon fill="white" stroke="none" points="-4,4 -4,-159 340,-159 340,4 -4,4"/>
<!-- Node1 -->
<g id="node1" class="node"><title>Node1</title>
<g id="a_node1"><a xlink:title="Example implementation of IIdentifiable interface.">
<polygon fill="#bfbfbf" stroke="black" points="146,-0.5 146,-30.5 292,-30.5 292,-0.5 146,-0.5"/>
<text text-anchor="start" x="154" y="-18.5" font-family="Helvetica,sans-Serif" font-size="10.00">IG.Lib.RegisterableExamples.</text>
<text text-anchor="middle" x="219" y="-7.5" font-family="Helvetica,sans-Serif" font-size="10.00">ExampleIRegistrable</text>
</a>
</g>
</g>
<!-- Node2 -->
<g id="node2" class="node"><title>Node2</title>
<g id="a_node2"><a xlink:href="../../d5/d7a/interfaceIG_1_1Lib_1_1IRegisterable.html" target="_top" xlink:title=" ">
<polygon fill="white" stroke="black" points="0,-78.5 0,-97.5 180,-97.5 180,-78.5 0,-78.5"/>
<text text-anchor="middle" x="90" y="-85.5" font-family="Helvetica,sans-Serif" font-size="10.00">IRegisterable&lt; ExampleIRegistrable &gt;</text>
</a>
</g>
</g>
<!-- Node2&#45;&gt;Node1 -->
<g id="edge1" class="edge"><title>Node2&#45;&gt;Node1</title>
<path fill="none" stroke="midnightblue" d="M114.482,-73.6201C136.977,-61.3266 170.207,-43.166 193.13,-30.6383"/>
<polygon fill="midnightblue" stroke="midnightblue" points="112.657,-70.6291 105.56,-78.4961 116.014,-76.7716 112.657,-70.6291"/>
</g>
<!-- Node3 -->
<g id="node3" class="node"><title>Node3</title>
<g id="a_node3"><a xlink:title=" ">
<polygon fill="white" stroke="#bfbfbf" points="198.5,-78.5 198.5,-97.5 239.5,-97.5 239.5,-78.5 198.5,-78.5"/>
<text text-anchor="middle" x="219" y="-85.5" font-family="Helvetica,sans-Serif" font-size="10.00">static</text>
</a>
</g>
</g>
<!-- Node3&#45;&gt;Node1 -->
<g id="edge2" class="edge"><title>Node3&#45;&gt;Node1</title>
<path fill="none" stroke="#9a32cd" stroke-dasharray="5,2" d="M219,-68.2362C219,-56.4079 219,-41.3829 219,-30.5762"/>
<polygon fill="#9a32cd" stroke="#9a32cd" points="215.5,-68.3553 219,-78.3553 222.5,-68.3554 215.5,-68.3553"/>
<text text-anchor="middle" x="239.5" y="-52" font-family="Helvetica,sans-Serif" font-size="10.00"> _register</text>
</g>
<!-- Node4 -->
<g id="node4" class="node"><title>Node4</title>
<g id="a_node4"><a xlink:href="../../d4/d93/classIG_1_1Lib_1_1IdProxy.html" target="_top" xlink:title="Proxy class that stores the object&#39;s unique ID (generated by a static instance of the IdGenerator cla...">
<polygon fill="white" stroke="black" points="258,-78.5 258,-97.5 336,-97.5 336,-78.5 258,-78.5"/>
<text text-anchor="middle" x="297" y="-85.5" font-family="Helvetica,sans-Serif" font-size="10.00">IG.Lib.IdProxy</text>
</a>
</g>
</g>
<!-- Node4&#45;&gt;Node1 -->
<g id="edge3" class="edge"><title>Node4&#45;&gt;Node1</title>
<path fill="none" stroke="#9a32cd" stroke-dasharray="5,2" d="M283.915,-70.2874C278.144,-63.368 271.074,-55.4667 264,-49 256.887,-42.4977 248.465,-36.1162 240.841,-30.7533"/>
<polygon fill="#9a32cd" stroke="#9a32cd" points="281.423,-72.7714 290.433,-78.345 286.865,-68.369 281.423,-72.7714"/>
<text text-anchor="middle" x="297.5" y="-52" font-family="Helvetica,sans-Serif" font-size="10.00"> _idPproxy</text>
</g>
<!-- Node5 -->
<g id="node5" class="node"><title>Node5</title>
<g id="a_node5"><a xlink:href="../../dc/d79/interfaceIG_1_1Lib_1_1IIdentifiable.html" target="_top" xlink:title="Classes whose instances have unique integer IDs.">
<polygon fill="white" stroke="black" points="264.5,-135.5 264.5,-154.5 329.5,-154.5 329.5,-135.5 264.5,-135.5"/>
<text text-anchor="middle" x="297" y="-142.5" font-family="Helvetica,sans-Serif" font-size="10.00">IIdentifiable</text>
</a>
</g>
</g>
<!-- Node5&#45;&gt;Node4 -->
<g id="edge4" class="edge"><title>Node5&#45;&gt;Node4</title>
<path fill="none" stroke="midnightblue" d="M297,-125.117C297,-115.817 297,-105.056 297,-97.7149"/>
<polygon fill="midnightblue" stroke="midnightblue" points="293.5,-125.406 297,-135.406 300.5,-125.406 293.5,-125.406"/>
</g>
</g>
</svg>
