<?xml version="1.0" encoding="UTF-8" standalone="no"?>
<!DOCTYPE svg PUBLIC "-//W3C//DTD SVG 1.1//EN"
 "http://www.w3.org/Graphics/SVG/1.1/DTD/svg11.dtd">
<!-- Generated by graphviz version 2.38.0 (20140413.2041)
 -->
<!-- Title: IG.Num.NeuralApproximatorAforgeFake Pages: 1 -->
<svg width="282pt" height="207pt"
 viewBox="0.00 0.00 282.45 207.00" xmlns="http://www.w3.org/2000/svg" xmlns:xlink="http://www.w3.org/1999/xlink">
<g id="graph0" class="graph" transform="scale(1 1) rotate(0) translate(4 203)">
<title>IG.Num.NeuralApproximatorAforgeFake</title>
<polygon fill="white" stroke="none" points="-4,4 -4,-203 278.45,-203 278.45,4 -4,4"/>
<!-- Node1 -->
<g id="node1" class="node"><title>Node1</title>
<g id="a_node1"><a xlink:title=" ">
<polygon fill="#bfbfbf" stroke="black" points="73.3465,-0.5 73.3465,-30.5 211.346,-30.5 211.346,-0.5 73.3465,-0.5"/>
<text text-anchor="start" x="81.3465" y="-18.5" font-family="Helvetica,sans-Serif" font-size="10.00">IG.Num.NeuralApproximator</text>
<text text-anchor="middle" x="142.346" y="-7.5" font-family="Helvetica,sans-Serif" font-size="10.00">AforgeFake</text>
</a>
</g>
</g>
<!-- Node2 -->
<g id="node2" class="node"><title>Node2</title>
<g id="a_node2"><a xlink:href="../../dc/db5/classIG_1_1Num_1_1NeuralApproximatorBase.html" target="_top" xlink:title="Base class for neural network approximators.">
<polygon fill="white" stroke="black" points="79.8465,-67.5 79.8465,-86.5 204.846,-86.5 204.846,-67.5 79.8465,-67.5"/>
<text text-anchor="middle" x="142.346" y="-74.5" font-family="Helvetica,sans-Serif" font-size="10.00">NeuralApproximatorBase</text>
</a>
</g>
</g>
<!-- Node2&#45;&gt;Node1 -->
<g id="edge1" class="edge"><title>Node2&#45;&gt;Node1</title>
<path fill="none" stroke="midnightblue" d="M142.346,-57.2349C142.346,-48.5864 142.346,-38.4969 142.346,-30.523"/>
<polygon fill="midnightblue" stroke="midnightblue" points="138.847,-57.4751 142.346,-67.4751 145.847,-57.4751 138.847,-57.4751"/>
</g>
<!-- Node3 -->
<g id="node3" class="node"><title>Node3</title>
<g id="a_node3"><a xlink:href="../../db/d03/classIG_1_1Num_1_1VectorApproximatorBase.html" target="_top" xlink:title="Base class for vector function approximators.">
<polygon fill="white" stroke="black" points="13.8465,-123.5 13.8465,-142.5 138.846,-142.5 138.846,-123.5 13.8465,-123.5"/>
<text text-anchor="middle" x="76.3465" y="-130.5" font-family="Helvetica,sans-Serif" font-size="10.00">VectorApproximatorBase</text>
</a>
</g>
</g>
<!-- Node3&#45;&gt;Node2 -->
<g id="edge2" class="edge"><title>Node3&#45;&gt;Node2</title>
<path fill="none" stroke="midnightblue" d="M94.9002,-116.82C106.725,-107.145 121.632,-94.9481 131.55,-86.8339"/>
<polygon fill="midnightblue" stroke="midnightblue" points="92.4738,-114.283 86.9505,-123.324 96.9065,-119.7 92.4738,-114.283"/>
</g>
<!-- Node4 -->
<g id="node4" class="node"><title>Node4</title>
<g id="a_node4"><a xlink:href="../../dc/d13/interfaceIG_1_1Num_1_1IVectorApproximator.html" target="_top" xlink:title="Interface for vector function approximators.">
<polygon fill="white" stroke="black" points="23.8465,-179.5 23.8465,-198.5 128.846,-198.5 128.846,-179.5 23.8465,-179.5"/>
<text text-anchor="middle" x="76.3465" y="-186.5" font-family="Helvetica,sans-Serif" font-size="10.00">IVectorApproximator</text>
</a>
</g>
</g>
<!-- Node4&#45;&gt;Node2 -->
<g id="edge8" class="edge"><title>Node4&#45;&gt;Node2</title>
<path fill="none" stroke="midnightblue" d="M43.9488,-175.281C18.2928,-163.267 -10.8938,-144 4.34649,-123 21.6641,-99.1379 51.9775,-87.6877 79.7903,-82.2885"/>
<polygon fill="midnightblue" stroke="midnightblue" points="42.5926,-178.508 53.1524,-179.368 45.4339,-172.11 42.5926,-178.508"/>
</g>
<!-- Node4&#45;&gt;Node3 -->
<g id="edge3" class="edge"><title>Node4&#45;&gt;Node3</title>
<path fill="none" stroke="midnightblue" d="M76.3465,-168.805C76.3465,-159.91 76.3465,-149.78 76.3465,-142.751"/>
<polygon fill="midnightblue" stroke="midnightblue" points="72.8466,-169.083 76.3465,-179.083 79.8466,-169.083 72.8466,-169.083"/>
</g>
<!-- Node6 -->
<g id="node6" class="node"><title>Node6</title>
<g id="a_node6"><a xlink:href="../../d7/db4/interfaceIG_1_1Num_1_1INeuralApproximator.html" target="_top" xlink:title="Approximator of response by using neural networks. $A Igor Mar11;">
<polygon fill="white" stroke="black" points="157.346,-123.5 157.346,-142.5 261.346,-142.5 261.346,-123.5 157.346,-123.5"/>
<text text-anchor="middle" x="209.346" y="-130.5" font-family="Helvetica,sans-Serif" font-size="10.00">INeuralApproximator</text>
</a>
</g>
</g>
<!-- Node4&#45;&gt;Node6 -->
<g id="edge6" class="edge"><title>Node4&#45;&gt;Node6</title>
<path fill="none" stroke="midnightblue" d="M106.794,-175.638C131.753,-165.504 166.423,-151.427 188.371,-142.516"/>
<polygon fill="midnightblue" stroke="midnightblue" points="105.369,-172.439 97.4207,-179.444 108.003,-178.924 105.369,-172.439"/>
</g>
<!-- Node5 -->
<g id="node5" class="node"><title>Node5</title>
<g id="a_node5"><a xlink:href="../../d3/db6/interfaceIG_1_1Lib_1_1ILockable.html" target="_top" xlink:title="Lockable object, has a Lock property that returns object on which lock must be performed in order to ...">
<polygon fill="white" stroke="black" points="180.346,-179.5 180.346,-198.5 238.346,-198.5 238.346,-179.5 180.346,-179.5"/>
<text text-anchor="middle" x="209.346" y="-186.5" font-family="Helvetica,sans-Serif" font-size="10.00">ILockable</text>
</a>
</g>
</g>
<!-- Node5&#45;&gt;Node2 -->
<g id="edge9" class="edge"><title>Node5&#45;&gt;Node2</title>
<path fill="none" stroke="midnightblue" d="M236.948,-174.695C259.028,-162.194 284.185,-142.534 270.346,-123 255.368,-101.857 229.629,-90.5753 205.142,-84.5841"/>
<polygon fill="midnightblue" stroke="midnightblue" points="235.266,-171.625 228.107,-179.436 238.574,-177.795 235.266,-171.625"/>
</g>
<!-- Node5&#45;&gt;Node3 -->
<g id="edge4" class="edge"><title>Node5&#45;&gt;Node3</title>
<path fill="none" stroke="midnightblue" d="M178.899,-175.638C153.94,-165.504 119.27,-151.427 97.3221,-142.516"/>
<polygon fill="midnightblue" stroke="midnightblue" points="177.69,-178.924 188.272,-179.444 180.323,-172.439 177.69,-178.924"/>
</g>
<!-- Node5&#45;&gt;Node6 -->
<g id="edge7" class="edge"><title>Node5&#45;&gt;Node6</title>
<path fill="none" stroke="midnightblue" d="M209.346,-168.805C209.346,-159.91 209.346,-149.78 209.346,-142.751"/>
<polygon fill="midnightblue" stroke="midnightblue" points="205.847,-169.083 209.346,-179.083 212.847,-169.083 205.847,-169.083"/>
</g>
<!-- Node6&#45;&gt;Node2 -->
<g id="edge5" class="edge"><title>Node6&#45;&gt;Node2</title>
<path fill="none" stroke="midnightblue" d="M190.512,-116.82C178.508,-107.145 163.375,-94.9481 153.307,-86.8339"/>
<polygon fill="midnightblue" stroke="midnightblue" points="188.599,-119.774 198.582,-123.324 192.992,-114.324 188.599,-119.774"/>
</g>
</g>
</svg>
