<?xml version="1.0" encoding="UTF-8" standalone="no"?>
<!DOCTYPE svg PUBLIC "-//W3C//DTD SVG 1.1//EN"
 "http://www.w3.org/Graphics/SVG/1.1/DTD/svg11.dtd">
<!-- Generated by graphviz version 2.38.0 (20140413.2041)
 -->
<!-- Title: IG.Num.Func2dLinear Pages: 1 -->
<svg width="426pt" height="266pt"
 viewBox="0.00 0.00 426.00 266.00" xmlns="http://www.w3.org/2000/svg" xmlns:xlink="http://www.w3.org/1999/xlink">
<g id="graph0" class="graph" transform="scale(1 1) rotate(0) translate(4 262)">
<title>IG.Num.Func2dLinear</title>
<polygon fill="white" stroke="none" points="-4,4 -4,-262 421.996,-262 421.996,4 -4,4"/>
<!-- Node1 -->
<g id="node1" class="node"><title>Node1</title>
<g id="a_node1"><a xlink:title="Linear (Affine) function of 2 variables.">
<polygon fill="#bfbfbf" stroke="black" points="224.496,-0.5 224.496,-19.5 335.496,-19.5 335.496,-0.5 224.496,-0.5"/>
<text text-anchor="middle" x="279.996" y="-7.5" font-family="Helvetica,sans-Serif" font-size="10.00">IG.Num.Func2dLinear</text>
</a>
</g>
</g>
<!-- Node2 -->
<g id="node2" class="node"><title>Node2</title>
<g id="a_node2"><a xlink:href="../../d0/d88/classIG_1_1Num_1_1Func2dVectorFormBase.html" target="_top" xlink:title="Base class for scalar functions of 2 variables (base for implementation of IFunc2d interface).">
<polygon fill="white" stroke="black" points="91.9959,-67.5 91.9959,-86.5 213.996,-86.5 213.996,-67.5 91.9959,-67.5"/>
<text text-anchor="middle" x="152.996" y="-74.5" font-family="Helvetica,sans-Serif" font-size="10.00">Func2dVectorFormBase</text>
</a>
</g>
</g>
<!-- Node2&#45;&gt;Node1 -->
<g id="edge1" class="edge"><title>Node2&#45;&gt;Node1</title>
<path fill="none" stroke="midnightblue" d="M178.838,-62.7739C203.992,-49.8999 241.488,-30.7086 263.062,-19.6672"/>
<polygon fill="midnightblue" stroke="midnightblue" points="177.168,-59.6968 169.86,-67.3685 180.357,-65.928 177.168,-59.6968"/>
</g>
<!-- Node3 -->
<g id="node3" class="node"><title>Node3</title>
<g id="a_node3"><a xlink:href="../../da/d29/classIG_1_1Num_1_1Func2dBase.html" target="_top" xlink:title="Base class for scalar functions of 2 variables (base for implementation of IFunc2d interface).">
<polygon fill="white" stroke="black" points="78.4959,-124.5 78.4959,-143.5 149.496,-143.5 149.496,-124.5 78.4959,-124.5"/>
<text text-anchor="middle" x="113.996" y="-131.5" font-family="Helvetica,sans-Serif" font-size="10.00">Func2dBase</text>
</a>
</g>
</g>
<!-- Node3&#45;&gt;Node2 -->
<g id="edge2" class="edge"><title>Node3&#45;&gt;Node2</title>
<path fill="none" stroke="midnightblue" d="M125.884,-116.234C132.792,-106.493 141.211,-94.6204 146.816,-86.7149"/>
<polygon fill="midnightblue" stroke="midnightblue" points="123.019,-114.224 120.09,-124.406 128.729,-118.273 123.019,-114.224"/>
</g>
<!-- Node4 -->
<g id="node4" class="node"><title>Node4</title>
<g id="a_node4"><a xlink:href="../../d2/d9e/classIG_1_1Num_1_1ScalarFunctionUntransformedBase.html" target="_top" xlink:title="Base class for defining scalar functions without possibility of affine transformation of parameters.">
<polygon fill="white" stroke="black" points="15.4959,-181.5 15.4959,-200.5 182.496,-200.5 182.496,-181.5 15.4959,-181.5"/>
<text text-anchor="middle" x="98.9959" y="-188.5" font-family="Helvetica,sans-Serif" font-size="10.00">ScalarFunctionUntransformedBase</text>
</a>
</g>
</g>
<!-- Node4&#45;&gt;Node3 -->
<g id="edge3" class="edge"><title>Node4&#45;&gt;Node3</title>
<path fill="none" stroke="midnightblue" d="M103.979,-171.728C106.553,-162.292 109.573,-151.217 111.619,-143.715"/>
<polygon fill="midnightblue" stroke="midnightblue" points="100.594,-170.838 101.34,-181.406 107.348,-172.68 100.594,-170.838"/>
</g>
<!-- Node5 -->
<g id="node5" class="node"><title>Node5</title>
<g id="a_node5"><a xlink:href="../../d8/d56/interfaceIG_1_1Num_1_1IScalarFunctionUntransformed.html" target="_top" xlink:title="Scalar functions of vector arguments.">
<polygon fill="white" stroke="black" points="154.496,-238.5 154.496,-257.5 301.496,-257.5 301.496,-238.5 154.496,-238.5"/>
<text text-anchor="middle" x="227.996" y="-245.5" font-family="Helvetica,sans-Serif" font-size="10.00">IScalarFunctionUntransformed</text>
</a>
</g>
</g>
<!-- Node5&#45;&gt;Node1 -->
<g id="edge10" class="edge"><title>Node5&#45;&gt;Node1</title>
<path fill="none" stroke="midnightblue" d="M278.291,-235.108C298.894,-226.967 317.996,-213.596 317.996,-192 317.996,-192 317.996,-192 317.996,-76 317.996,-53.2553 300.441,-31.4008 289.195,-19.7339"/>
<polygon fill="midnightblue" stroke="midnightblue" points="277.031,-231.841 268.783,-238.491 279.377,-238.436 277.031,-231.841"/>
</g>
<!-- Node5&#45;&gt;Node2 -->
<g id="edge8" class="edge"><title>Node5&#45;&gt;Node2</title>
<path fill="none" stroke="midnightblue" d="M242.996,-230.704C249.581,-222.45 256.582,-211.885 259.996,-201 262.656,-192.518 262.302,-189.585 259.996,-181 247.555,-134.682 196.708,-101.297 169.831,-86.5025"/>
<polygon fill="midnightblue" stroke="midnightblue" points="240.273,-228.504 236.452,-238.386 245.601,-233.044 240.273,-228.504"/>
</g>
<!-- Node5&#45;&gt;Node3 -->
<g id="edge6" class="edge"><title>Node5&#45;&gt;Node3</title>
<path fill="none" stroke="midnightblue" d="M144.147,-240.486C88.8394,-234.246 23.4818,-222.481 5.99588,-201 -17.7259,-171.859 38.4308,-152.201 78.3376,-142.359"/>
<polygon fill="midnightblue" stroke="midnightblue" points="144.025,-243.993 154.344,-241.587 144.778,-237.033 144.025,-243.993"/>
</g>
<!-- Node5&#45;&gt;Node4 -->
<g id="edge4" class="edge"><title>Node5&#45;&gt;Node4</title>
<path fill="none" stroke="midnightblue" d="M198.381,-234.374C174.053,-224.001 140.255,-209.591 119.011,-200.533"/>
<polygon fill="midnightblue" stroke="midnightblue" points="197.268,-237.704 207.84,-238.406 200.014,-231.265 197.268,-237.704"/>
</g>
<!-- Node6 -->
<g id="node6" class="node"><title>Node6</title>
<g id="a_node6"><a xlink:href="../../d8/d15/interfaceIG_1_1Num_1_1IFunc2d.html" target="_top" xlink:title="Represents scalar functions of 2 variables.">
<polygon fill="white" stroke="black" points="200.496,-181.5 200.496,-200.5 251.496,-200.5 251.496,-181.5 200.496,-181.5"/>
<text text-anchor="middle" x="225.996" y="-188.5" font-family="Helvetica,sans-Serif" font-size="10.00">IFunc2d</text>
</a>
</g>
</g>
<!-- Node6&#45;&gt;Node1 -->
<g id="edge9" class="edge"><title>Node6&#45;&gt;Node1</title>
<path fill="none" stroke="midnightblue" d="M231.553,-171.58C243.064,-133.423 269.133,-47.009 277.417,-19.5469"/>
<polygon fill="midnightblue" stroke="midnightblue" points="228.138,-170.782 228.6,-181.366 234.84,-172.804 228.138,-170.782"/>
</g>
<!-- Node6&#45;&gt;Node2 -->
<g id="edge7" class="edge"><title>Node6&#45;&gt;Node2</title>
<path fill="none" stroke="midnightblue" d="M214.686,-172.647C198.865,-148.375 170.721,-105.194 158.697,-86.7476"/>
<polygon fill="midnightblue" stroke="midnightblue" points="211.875,-174.745 220.268,-181.212 217.739,-170.923 211.875,-174.745"/>
</g>
<!-- Node6&#45;&gt;Node3 -->
<g id="edge5" class="edge"><title>Node6&#45;&gt;Node3</title>
<path fill="none" stroke="midnightblue" d="M198.963,-177.063C189.758,-172.632 179.415,-167.625 169.996,-163 156.922,-156.58 142.191,-149.209 131.121,-143.642"/>
<polygon fill="midnightblue" stroke="midnightblue" points="197.528,-180.257 208.058,-181.432 200.56,-173.947 197.528,-180.257"/>
</g>
<!-- Node7 -->
<g id="node7" class="node"><title>Node7</title>
<g id="a_node7"><a xlink:href="../../dc/daf/structIG_1_1Num_1_1vec2.html" target="_top" xlink:title="Struct representing a 3D vector.">
<polygon fill="white" stroke="black" points="345.996,-67.5 345.996,-86.5 417.996,-86.5 417.996,-67.5 345.996,-67.5"/>
<text text-anchor="middle" x="381.996" y="-74.5" font-family="Helvetica,sans-Serif" font-size="10.00">IG.Num.vec2</text>
</a>
</g>
</g>
<!-- Node7&#45;&gt;Node1 -->
<g id="edge11" class="edge"><title>Node7&#45;&gt;Node1</title>
<path fill="none" stroke="#9a32cd" stroke-dasharray="5,2" d="M363.6,-60.8178C354.381,-53.525 342.886,-44.8946 331.996,-38 321.167,-31.1442 308.401,-24.4963 298.227,-19.5126"/>
<polygon fill="#9a32cd" stroke="#9a32cd" points="361.663,-63.7523 371.647,-67.2997 366.054,-58.3008 361.663,-63.7523"/>
<text text-anchor="middle" x="354.996" y="-41" font-family="Helvetica,sans-Serif" font-size="10.00"> _b</text>
</g>
</g>
</svg>
