<?xml version="1.0" encoding="UTF-8" standalone="no"?>
<!DOCTYPE svg PUBLIC "-//W3C//DTD SVG 1.1//EN"
 "http://www.w3.org/Graphics/SVG/1.1/DTD/svg11.dtd">
<!-- Generated by graphviz version 2.38.0 (20140413.2041)
 -->
<!-- Title: IG.Num.ScalarFunctionExamples.ParaboloidSymmetric2D Pages: 1 -->
<svg width="278pt" height="207pt"
 viewBox="0.00 0.00 277.50 207.00" xmlns="http://www.w3.org/2000/svg" xmlns:xlink="http://www.w3.org/1999/xlink">
<g id="graph0" class="graph" transform="scale(1 1) rotate(0) translate(4 203)">
<title>IG.Num.ScalarFunctionExamples.ParaboloidSymmetric2D</title>
<polygon fill="white" stroke="none" points="-4,4 -4,-203 273.5,-203 273.5,4 -4,4"/>
<!-- Node1 -->
<g id="node1" class="node"><title>Node1</title>
<g id="a_node1"><a xlink:title="Symmetric paraboloid centered at coordinate origin. f(x,y) = x^2 + y^2 &#45; R2. If R2 is positive then 0...">
<polygon fill="#bfbfbf" stroke="black" points="105.5,-0.5 105.5,-30.5 269.5,-30.5 269.5,-0.5 105.5,-0.5"/>
<text text-anchor="start" x="113.5" y="-18.5" font-family="Helvetica,sans-Serif" font-size="10.00">IG.Num.ScalarFunctionExamples.</text>
<text text-anchor="middle" x="187.5" y="-7.5" font-family="Helvetica,sans-Serif" font-size="10.00">ParaboloidSymmetric2D</text>
</a>
</g>
</g>
<!-- Node2 -->
<g id="node2" class="node"><title>Node2</title>
<g id="a_node2"><a xlink:href="../../d2/d85/classIG_1_1Num_1_1ScalarFunctionBase.html" target="_top" xlink:title="Base class for scalar functions with affine transformation of co&#45;ordinates. The reference function is...">
<polygon fill="white" stroke="black" points="95.5,-67.5 95.5,-86.5 199.5,-86.5 199.5,-67.5 95.5,-67.5"/>
<text text-anchor="middle" x="147.5" y="-74.5" font-family="Helvetica,sans-Serif" font-size="10.00">ScalarFunctionBase</text>
</a>
</g>
</g>
<!-- Node2&#45;&gt;Node1 -->
<g id="edge1" class="edge"><title>Node2&#45;&gt;Node1</title>
<path fill="none" stroke="midnightblue" d="M158.953,-58.9634C165.008,-49.9564 172.351,-39.0344 178.073,-30.523"/>
<polygon fill="midnightblue" stroke="midnightblue" points="155.906,-57.2234 153.231,-67.4751 161.715,-61.1288 155.906,-57.2234"/>
</g>
<!-- Node3 -->
<g id="node3" class="node"><title>Node3</title>
<g id="a_node3"><a xlink:href="../../d2/d9e/classIG_1_1Num_1_1ScalarFunctionUntransformedBase.html" target="_top" xlink:title="Base class for defining scalar functions without possibility of affine transformation of parameters.">
<polygon fill="white" stroke="black" points="0,-123.5 0,-142.5 167,-142.5 167,-123.5 0,-123.5"/>
<text text-anchor="middle" x="83.5" y="-130.5" font-family="Helvetica,sans-Serif" font-size="10.00">ScalarFunctionUntransformedBase</text>
</a>
</g>
</g>
<!-- Node3&#45;&gt;Node2 -->
<g id="edge2" class="edge"><title>Node3&#45;&gt;Node2</title>
<path fill="none" stroke="midnightblue" d="M101.491,-116.82C112.958,-107.145 127.413,-94.9481 137.03,-86.8339"/>
<polygon fill="midnightblue" stroke="midnightblue" points="99.1686,-114.2 93.7827,-123.324 103.683,-119.55 99.1686,-114.2"/>
</g>
<!-- Node4 -->
<g id="node4" class="node"><title>Node4</title>
<g id="a_node4"><a xlink:href="../../d8/d56/interfaceIG_1_1Num_1_1IScalarFunctionUntransformed.html" target="_top" xlink:title="Scalar functions of vector arguments.">
<polygon fill="white" stroke="black" points="82,-179.5 82,-198.5 229,-198.5 229,-179.5 82,-179.5"/>
<text text-anchor="middle" x="155.5" y="-186.5" font-family="Helvetica,sans-Serif" font-size="10.00">IScalarFunctionUntransformed</text>
</a>
</g>
</g>
<!-- Node4&#45;&gt;Node3 -->
<g id="edge3" class="edge"><title>Node4&#45;&gt;Node3</title>
<path fill="none" stroke="midnightblue" d="M135.634,-173.101C122.677,-163.382 106.203,-151.027 95.2785,-142.834"/>
<polygon fill="midnightblue" stroke="midnightblue" points="133.832,-176.124 143.932,-179.324 138.032,-170.524 133.832,-176.124"/>
</g>
<!-- Node5 -->
<g id="node5" class="node"><title>Node5</title>
<g id="a_node5"><a xlink:href="../../dd/d1e/interfaceIG_1_1Num_1_1IScalarFunction.html" target="_top" xlink:title="Scalar functions of vector arguments, with eventual affine transformation of parameters....">
<polygon fill="white" stroke="black" points="185.5,-123.5 185.5,-142.5 269.5,-142.5 269.5,-123.5 185.5,-123.5"/>
<text text-anchor="middle" x="227.5" y="-130.5" font-family="Helvetica,sans-Serif" font-size="10.00">IScalarFunction</text>
</a>
</g>
</g>
<!-- Node4&#45;&gt;Node5 -->
<g id="edge5" class="edge"><title>Node4&#45;&gt;Node5</title>
<path fill="none" stroke="midnightblue" d="M175.366,-173.101C188.323,-163.382 204.797,-151.027 215.721,-142.834"/>
<polygon fill="midnightblue" stroke="midnightblue" points="172.968,-170.524 167.068,-179.324 177.168,-176.124 172.968,-170.524"/>
</g>
<!-- Node5&#45;&gt;Node1 -->
<g id="edge6" class="edge"><title>Node5&#45;&gt;Node1</title>
<path fill="none" stroke="midnightblue" d="M222.753,-113.793C219.192,-100.667 214.002,-82.591 208.5,-67 204.14,-54.6434 198.378,-40.9341 193.993,-30.9211"/>
<polygon fill="midnightblue" stroke="midnightblue" points="219.38,-114.727 225.333,-123.492 226.145,-112.928 219.38,-114.727"/>
</g>
<!-- Node5&#45;&gt;Node2 -->
<g id="edge4" class="edge"><title>Node5&#45;&gt;Node2</title>
<path fill="none" stroke="midnightblue" d="M206.199,-117.622C191.585,-107.757 172.673,-94.9919 160.321,-86.6545"/>
<polygon fill="midnightblue" stroke="midnightblue" points="204.4,-120.63 214.647,-123.324 208.316,-114.828 204.4,-120.63"/>
</g>
</g>
</svg>
