<?xml version="1.0" encoding="UTF-8" standalone="no"?>
<!DOCTYPE svg PUBLIC "-//W3C//DTD SVG 1.1//EN"
 "http://www.w3.org/Graphics/SVG/1.1/DTD/svg11.dtd">
<!-- Generated by graphviz version 2.38.0 (20140413.2041)
 -->
<!-- Title: IG.Num.ParallelJobContainerGen&lt; InputType, ResultType &gt; Pages: 1 -->
<svg width="444pt" height="276pt"
 viewBox="0.00 0.00 443.50 276.00" xmlns="http://www.w3.org/2000/svg" xmlns:xlink="http://www.w3.org/1999/xlink">
<g id="graph0" class="graph" transform="scale(1 1) rotate(0) translate(4 272)">
<title>IG.Num.ParallelJobContainerGen&lt; InputType, ResultType &gt;</title>
<polygon fill="white" stroke="none" points="-4,4 -4,-272 439.5,-272 439.5,4 -4,4"/>
<!-- Node1 -->
<g id="node1" class="node"><title>Node1</title>
<g id="a_node1"><a xlink:title="General purpose parallel job container that contains methods for running the job in on the same machi...">
<polygon fill="#bfbfbf" stroke="black" points="167.5,-0.5 167.5,-30.5 316.5,-30.5 316.5,-0.5 167.5,-0.5"/>
<text text-anchor="start" x="175.5" y="-18.5" font-family="Helvetica,sans-Serif" font-size="10.00">IG.Num.ParallelJobContainer</text>
<text text-anchor="middle" x="242" y="-7.5" font-family="Helvetica,sans-Serif" font-size="10.00">Gen&lt; InputType, ResultType &gt;</text>
</a>
</g>
</g>
<!-- Node2 -->
<g id="node2" class="node"><title>Node2</title>
<g id="a_node2"><a xlink:href="../../d3/dbb/classIG_1_1Num_1_1ParallelJobContainerBase.html" target="_top" xlink:title="Contains input data and results of a parallel job to be executed, oropertied indicating the state of ...">
<polygon fill="white" stroke="black" points="178,-68.5 178,-87.5 306,-87.5 306,-68.5 178,-68.5"/>
<text text-anchor="middle" x="242" y="-75.5" font-family="Helvetica,sans-Serif" font-size="10.00">ParallelJobContainerBase</text>
</a>
</g>
</g>
<!-- Node2&#45;&gt;Node1 -->
<g id="edge1" class="edge"><title>Node2&#45;&gt;Node1</title>
<path fill="none" stroke="midnightblue" d="M242,-58.2154C242,-49.3565 242,-38.9577 242,-30.7587"/>
<polygon fill="midnightblue" stroke="midnightblue" points="238.5,-58.3318 242,-68.3318 245.5,-58.3319 238.5,-58.3318"/>
</g>
<!-- Node3 -->
<g id="node3" class="node"><title>Node3</title>
<g id="a_node3"><a xlink:href="../../d3/db6/interfaceIG_1_1Lib_1_1ILockable.html" target="_top" xlink:title="Lockable object, has a Lock property that returns object on which lock must be performed in order to ...">
<polygon fill="white" stroke="black" points="0,-248.5 0,-267.5 58,-267.5 58,-248.5 0,-248.5"/>
<text text-anchor="middle" x="29" y="-255.5" font-family="Helvetica,sans-Serif" font-size="10.00">ILockable</text>
</a>
</g>
</g>
<!-- Node3&#45;&gt;Node1 -->
<g id="edge10" class="edge"><title>Node3&#45;&gt;Node1</title>
<path fill="none" stroke="midnightblue" d="M28.2598,-238.269C28.1665,-212.701 31.3586,-166.464 53,-135 89.3237,-82.1903 157.673,-48.1357 201.459,-30.6579"/>
<polygon fill="midnightblue" stroke="midnightblue" points="24.7641,-238.513 28.4794,-248.435 31.7625,-238.362 24.7641,-238.513"/>
</g>
<!-- Node3&#45;&gt;Node2 -->
<g id="edge2" class="edge"><title>Node3&#45;&gt;Node2</title>
<path fill="none" stroke="midnightblue" d="M38.4724,-239.058C40.0131,-236.048 41.5711,-232.945 43,-230 63.2297,-188.302 51.938,-166.428 86,-135 113.916,-109.243 154.519,-95.1588 187.304,-87.5583"/>
<polygon fill="midnightblue" stroke="midnightblue" points="35.2992,-237.574 33.7874,-248.061 41.5087,-240.806 35.2992,-237.574"/>
</g>
<!-- Node5 -->
<g id="node5" class="node"><title>Node5</title>
<g id="a_node5"><a xlink:href="../../d1/d6b/classIG_1_1Num_1_1ParallelJobDispatcherBase.html" target="_top" xlink:title="Parallel job dispatcher. Accepts job requests and dispatches jobs to parallel job servers when availa...">
<polygon fill="white" stroke="black" points="95,-147.5 95,-177.5 241,-177.5 241,-147.5 95,-147.5"/>
<text text-anchor="start" x="103" y="-165.5" font-family="Helvetica,sans-Serif" font-size="10.00">IG.Num.ParallelJobDispatcher</text>
<text text-anchor="middle" x="168" y="-154.5" font-family="Helvetica,sans-Serif" font-size="10.00">Base&lt; JobContainerType &gt;</text>
</a>
</g>
</g>
<!-- Node3&#45;&gt;Node5 -->
<g id="edge6" class="edge"><title>Node3&#45;&gt;Node5</title>
<path fill="none" stroke="midnightblue" d="M56.3382,-243.933C64.4412,-239.762 73.2233,-234.938 81,-230 106.678,-213.694 134.243,-191.794 151.306,-177.662"/>
<polygon fill="midnightblue" stroke="midnightblue" points="54.6073,-240.886 47.2389,-248.499 57.7466,-247.143 54.6073,-240.886"/>
</g>
<!-- Node4 -->
<g id="node4" class="node"><title>Node4</title>
<g id="a_node4"><a xlink:href="../../dc/d79/interfaceIG_1_1Lib_1_1IIdentifiable.html" target="_top" xlink:title="Classes whose instances have unique integer IDs.">
<polygon fill="white" stroke="black" points="370.5,-248.5 370.5,-267.5 435.5,-267.5 435.5,-248.5 370.5,-248.5"/>
<text text-anchor="middle" x="403" y="-255.5" font-family="Helvetica,sans-Serif" font-size="10.00">IIdentifiable</text>
</a>
</g>
</g>
<!-- Node4&#45;&gt;Node1 -->
<g id="edge11" class="edge"><title>Node4&#45;&gt;Node1</title>
<path fill="none" stroke="midnightblue" d="M413.598,-239.463C415.003,-236.404 416.224,-233.181 417,-230 424.389,-199.698 402.673,-137.654 401,-135 369.611,-85.1955 309.213,-49.0541 272.565,-30.5446"/>
<polygon fill="midnightblue" stroke="midnightblue" points="410.435,-237.957 408.799,-248.425 416.606,-241.262 410.435,-237.957"/>
</g>
<!-- Node4&#45;&gt;Node2 -->
<g id="edge3" class="edge"><title>Node4&#45;&gt;Node2</title>
<path fill="none" stroke="midnightblue" d="M403.717,-238.424C403.727,-212.333 399.968,-164.707 375,-135 353.4,-109.3 317.972,-95.1613 289.111,-87.5223"/>
<polygon fill="midnightblue" stroke="midnightblue" points="400.217,-238.398 403.522,-248.464 407.216,-238.534 400.217,-238.398"/>
</g>
<!-- Node4&#45;&gt;Node5 -->
<g id="edge7" class="edge"><title>Node4&#45;&gt;Node5</title>
<path fill="none" stroke="midnightblue" d="M371.784,-244.58C328.107,-227.202 248.989,-195.723 203.245,-177.523"/>
<polygon fill="midnightblue" stroke="midnightblue" points="370.727,-247.926 381.313,-248.371 373.315,-241.422 370.727,-247.926"/>
</g>
<!-- Node5&#45;&gt;Node2 -->
<g id="edge4" class="edge"><title>Node5&#45;&gt;Node2</title>
<path fill="none" stroke="#9a32cd" stroke-dasharray="5,2" d="M183.364,-138.883C190.889,-128.44 200.386,-116.138 210,-106 216.302,-99.3543 224.153,-92.7097 230.501,-87.6751"/>
<polygon fill="#9a32cd" stroke="#9a32cd" points="180.451,-136.94 177.548,-147.13 186.171,-140.975 180.451,-136.94"/>
<text text-anchor="middle" x="237" y="-109" font-family="Helvetica,sans-Serif" font-size="10.00"> _dispatcher</text>
</g>
<!-- Node6 -->
<g id="node6" class="node"><title>Node6</title>
<g id="a_node6"><a xlink:title=" ">
<polygon fill="white" stroke="#bfbfbf" points="76.5,-248.5 76.5,-267.5 209.5,-267.5 209.5,-248.5 76.5,-248.5"/>
<text text-anchor="middle" x="143" y="-255.5" font-family="Helvetica,sans-Serif" font-size="10.00">ParallelJobDispatcherBase</text>
</a>
</g>
</g>
<!-- Node6&#45;&gt;Node5 -->
<g id="edge5" class="edge"><title>Node6&#45;&gt;Node5</title>
<path fill="none" stroke="midnightblue" d="M143.513,-238.135C144.119,-228.921 145.386,-217.747 148,-208 150.809,-197.528 155.809,-186.403 160.106,-177.896"/>
<polygon fill="midnightblue" stroke="midnightblue" points="140.015,-238.024 143.056,-248.173 147.008,-238.343 140.015,-238.024"/>
</g>
<!-- Node7 -->
<g id="node7" class="node"><title>Node7</title>
<g id="a_node7"><a xlink:title=" ">
<polygon fill="white" stroke="#bfbfbf" points="242.5,-248.5 242.5,-267.5 283.5,-267.5 283.5,-248.5 242.5,-248.5"/>
<text text-anchor="middle" x="263" y="-255.5" font-family="Helvetica,sans-Serif" font-size="10.00">static</text>
</a>
</g>
</g>
<!-- Node7&#45;&gt;Node2 -->
<g id="edge9" class="edge"><title>Node7&#45;&gt;Node2</title>
<path fill="none" stroke="#9a32cd" stroke-dasharray="5,2" d="M267.117,-238.473C272.736,-209.288 280.36,-151.274 264,-106 261.452,-98.9485 256.211,-92.3935 251.483,-87.5083"/>
<polygon fill="#9a32cd" stroke="#9a32cd" points="263.647,-237.972 265.047,-248.474 270.502,-239.391 263.647,-237.972"/>
<text text-anchor="middle" x="322.5" y="-182" font-family="Helvetica,sans-Serif" font-size="10.00"> _defaultSleepTimeMs</text>
<text text-anchor="middle" x="322.5" y="-171" font-family="Helvetica,sans-Serif" font-size="10.00">_nextId</text>
<text text-anchor="middle" x="322.5" y="-160" font-family="Helvetica,sans-Serif" font-size="10.00">DefaultIsTestMode</text>
<text text-anchor="middle" x="322.5" y="-149" font-family="Helvetica,sans-Serif" font-size="10.00">_lockId</text>
<text text-anchor="middle" x="322.5" y="-138" font-family="Helvetica,sans-Serif" font-size="10.00">DefaultOutputLevel</text>
</g>
<!-- Node7&#45;&gt;Node5 -->
<g id="edge8" class="edge"><title>Node7&#45;&gt;Node5</title>
<path fill="none" stroke="#9a32cd" stroke-dasharray="5,2" d="M232.366,-250.228C206.151,-244.124 172.014,-235.314 168,-230 156.657,-214.984 159.759,-192.13 163.509,-177.507"/>
<polygon fill="#9a32cd" stroke="#9a32cd" points="231.77,-253.682 242.299,-252.501 233.332,-246.858 231.77,-253.682"/>
<text text-anchor="middle" x="216.5" y="-222" font-family="Helvetica,sans-Serif" font-size="10.00"> _defaultSleepTimeMs</text>
<text text-anchor="middle" x="216.5" y="-211" font-family="Helvetica,sans-Serif" font-size="10.00">_nextId</text>
</g>
</g>
</svg>
