<?xml version="1.0" encoding="UTF-8" standalone="no"?>
<!DOCTYPE svg PUBLIC "-//W3C//DTD SVG 1.1//EN"
 "http://www.w3.org/Graphics/SVG/1.1/DTD/svg11.dtd">
<!-- Generated by graphviz version 2.38.0 (20140413.2041)
 -->
<!-- Title: IG.Crypto.CryptoManager Pages: 1 -->
<svg width="443pt" height="106pt"
 viewBox="0.00 0.00 442.50 106.00" xmlns="http://www.w3.org/2000/svg" xmlns:xlink="http://www.w3.org/1999/xlink">
<g id="graph0" class="graph" transform="scale(1 1) rotate(0) translate(4 102)">
<title>IG.Crypto.CryptoManager</title>
<polygon fill="white" stroke="none" points="-4,4 -4,-102 438.5,-102 438.5,4 -4,4"/>
<!-- Node1 -->
<g id="node1" class="node"><title>Node1</title>
<g id="a_node1"><a xlink:title="Performs high level cryptographic opereratins, such ass reading command&#45;line parameters and performin...">
<polygon fill="#bfbfbf" stroke="black" points="133,-0.5 133,-19.5 260,-19.5 260,-0.5 133,-0.5"/>
<text text-anchor="middle" x="196.5" y="-7.5" font-family="Helvetica,sans-Serif" font-size="10.00">IG.Crypto.CryptoManager</text>
</a>
</g>
</g>
<!-- Node2 -->
<g id="node2" class="node"><title>Node2</title>
<g id="a_node2"><a xlink:href="../../d3/d54/classIG_1_1Crypto_1_1CryptoParameters.html" target="_top" xlink:title="This class contains key parameters of the cryptographic operations performed on some item.">
<polygon fill="white" stroke="black" points="0,-78.5 0,-97.5 95,-97.5 95,-78.5 0,-78.5"/>
<text text-anchor="middle" x="47.5" y="-85.5" font-family="Helvetica,sans-Serif" font-size="10.00">CryptoParameters</text>
</a>
</g>
</g>
<!-- Node2&#45;&gt;Node1 -->
<g id="edge1" class="edge"><title>Node2&#45;&gt;Node1</title>
<path fill="none" stroke="midnightblue" d="M73.4692,-73.754C103.946,-58.2087 153.606,-32.8789 179.53,-19.6557"/>
<polygon fill="midnightblue" stroke="midnightblue" points="71.6204,-70.7679 64.3026,-78.4296 74.801,-77.0036 71.6204,-70.7679"/>
</g>
<!-- Node3 -->
<g id="node3" class="node"><title>Node3</title>
<g id="a_node3"><a xlink:href="../../d7/d39/classIG_1_1Crypto_1_1PasswordAlgorithmBase.html" target="_top" xlink:title="Base class for algorithms that generate passwords, encryption initialization vectors,...">
<polygon fill="white" stroke="black" points="113,-78.5 113,-97.5 280,-97.5 280,-78.5 113,-78.5"/>
<text text-anchor="middle" x="196.5" y="-85.5" font-family="Helvetica,sans-Serif" font-size="10.00">IG.Crypto.PasswordAlgorithmBase</text>
</a>
</g>
</g>
<!-- Node3&#45;&gt;Node1 -->
<g id="edge2" class="edge"><title>Node3&#45;&gt;Node1</title>
<path fill="none" stroke="#9a32cd" stroke-dasharray="5,2" d="M196.5,-68.2239C196.5,-52.6974 196.5,-31.3582 196.5,-19.6165"/>
<polygon fill="#9a32cd" stroke="#9a32cd" points="193,-68.2818 196.5,-78.2818 200,-68.2819 193,-68.2818"/>
<text text-anchor="middle" x="242" y="-46.5" font-family="Helvetica,sans-Serif" font-size="10.00"> _passwordAlgorithm</text>
</g>
<!-- Node4 -->
<g id="node4" class="node"><title>Node4</title>
<g id="a_node4"><a xlink:title=" ">
<polygon fill="white" stroke="#bfbfbf" points="298,-78.5 298,-97.5 339,-97.5 339,-78.5 298,-78.5"/>
<text text-anchor="middle" x="318.5" y="-85.5" font-family="Helvetica,sans-Serif" font-size="10.00">static</text>
</a>
</g>
</g>
<!-- Node4&#45;&gt;Node1 -->
<g id="edge3" class="edge"><title>Node4&#45;&gt;Node1</title>
<path fill="none" stroke="#9a32cd" stroke-dasharray="5,2" d="M312.547,-68.9073C308.242,-58.4705 301.419,-45.8915 291.5,-38 280.766,-29.46 267.463,-23.6208 254.245,-19.6284"/>
<polygon fill="#9a32cd" stroke="#9a32cd" points="309.294,-70.203 316.035,-78.3771 315.863,-67.7837 309.294,-70.203"/>
<text text-anchor="middle" x="371" y="-52" font-family="Helvetica,sans-Serif" font-size="10.00"> _numNotifyExportPrivateKey</text>
<text text-anchor="middle" x="371" y="-41" font-family="Helvetica,sans-Serif" font-size="10.00">_numNotifyPlainEncryption</text>
</g>
</g>
</svg>
