<?xml version="1.0" encoding="UTF-8" standalone="no"?>
<!DOCTYPE svg PUBLIC "-//W3C//DTD SVG 1.1//EN"
 "http://www.w3.org/Graphics/SVG/1.1/DTD/svg11.dtd">
<!-- Generated by graphviz version 2.38.0 (20140413.2041)
 -->
<!-- Title: IG.Num.IRealFunctionParametric Pages: 1 -->
<svg width="705pt" height="123pt"
 viewBox="0.00 0.00 705.00 123.00" xmlns="http://www.w3.org/2000/svg" xmlns:xlink="http://www.w3.org/1999/xlink">
<g id="graph0" class="graph" transform="scale(1 1) rotate(0) translate(4 119)">
<title>IG.Num.IRealFunctionParametric</title>
<polygon fill="white" stroke="none" points="-4,4 -4,-119 701,-119 701,4 -4,4"/>
<!-- Node1 -->
<g id="node1" class="node"><title>Node1</title>
<g id="a_node1"><a xlink:title="Parameterized real&#45;valued functions of single variable.">
<polygon fill="#bfbfbf" stroke="black" points="112,-38.5 112,-57.5 271,-57.5 271,-38.5 112,-38.5"/>
<text text-anchor="middle" x="191.5" y="-45.5" font-family="Helvetica,sans-Serif" font-size="10.00">IG.Num.IRealFunctionParametric</text>
</a>
</g>
</g>
<!-- Node3 -->
<g id="node3" class="node"><title>Node3</title>
<g id="a_node3"><a xlink:href="../../da/d11/interfaceIG_1_1Num_1_1IRealFunctionOneParametric.html" target="_top" xlink:title="Parameterized real&#45;valued functions of single variable.">
<polygon fill="white" stroke="black" points="308,-95.5 308,-114.5 485,-114.5 485,-95.5 308,-95.5"/>
<text text-anchor="middle" x="396.5" y="-102.5" font-family="Helvetica,sans-Serif" font-size="10.00">IG.Num.IRealFunctionOneParametric</text>
</a>
</g>
</g>
<!-- Node1&#45;&gt;Node3 -->
<g id="edge2" class="edge"><title>Node1&#45;&gt;Node3</title>
<path fill="none" stroke="midnightblue" d="M234.87,-60.3842C256.441,-66.6451 283.093,-74.3137 307,-81 324.324,-85.8452 343.598,-91.0892 359.724,-95.4358"/>
<polygon fill="midnightblue" stroke="midnightblue" points="235.614,-56.9557 225.035,-57.5249 233.66,-63.6774 235.614,-56.9557"/>
</g>
<!-- Node4 -->
<g id="node4" class="node"><title>Node4</title>
<g id="a_node4"><a xlink:href="../../d0/d78/classIG_1_1Num_1_1RealFunctionOneParametric.html" target="_top" xlink:title="Base class for one parametric families of real&#45;valued functions of single variable....">
<polygon fill="white" stroke="black" points="522,-57.5 522,-76.5 697,-76.5 697,-57.5 522,-57.5"/>
<text text-anchor="middle" x="609.5" y="-64.5" font-family="Helvetica,sans-Serif" font-size="10.00">IG.Num.RealFunctionOneParametric</text>
</a>
</g>
</g>
<!-- Node1&#45;&gt;Node4 -->
<g id="edge4" class="edge"><title>Node1&#45;&gt;Node4</title>
<path fill="none" stroke="midnightblue" d="M281.505,-52.0651C352.523,-55.3088 451.431,-59.8262 521.829,-63.0415"/>
<polygon fill="midnightblue" stroke="midnightblue" points="281.385,-48.5561 271.235,-51.5961 281.065,-55.5488 281.385,-48.5561"/>
</g>
<!-- Node5 -->
<g id="node5" class="node"><title>Node5</title>
<g id="a_node5"><a xlink:href="../../d2/d3f/classIG_1_1Num_1_1RealFunctionParametric.html" target="_top" xlink:title="Base class for parameterized real&#45;valued functions of single variable. Parameters that completely def...">
<polygon fill="white" stroke="black" points="531,-0.5 531,-19.5 688,-19.5 688,-0.5 531,-0.5"/>
<text text-anchor="middle" x="609.5" y="-7.5" font-family="Helvetica,sans-Serif" font-size="10.00">IG.Num.RealFunctionParametric</text>
</a>
</g>
</g>
<!-- Node1&#45;&gt;Node5 -->
<g id="edge5" class="edge"><title>Node1&#45;&gt;Node5</title>
<path fill="none" stroke="midnightblue" d="M223.773,-34.5927C246.412,-25.6426 278.002,-14.6862 307,-10 382.314,2.17111 469.599,0.483324 530.812,-3.22781"/>
<polygon fill="midnightblue" stroke="midnightblue" points="222.305,-31.4112 214.348,-38.4074 224.931,-37.8999 222.305,-31.4112"/>
</g>
<!-- Node6 -->
<g id="node6" class="node"><title>Node6</title>
<g id="a_node6"><a xlink:href="../../d1/d20/classIG_1_1Num_1_1RealFunctionParametricBase.html" target="_top" xlink:title="Base class for parameterized real&#45;valued functions of single variable. Parameters that completely def...">
<polygon fill="white" stroke="black" points="307,-19.5 307,-38.5 486,-38.5 486,-19.5 307,-19.5"/>
<text text-anchor="middle" x="396.5" y="-26.5" font-family="Helvetica,sans-Serif" font-size="10.00">IG.Num.RealFunctionParametricBase</text>
</a>
</g>
</g>
<!-- Node1&#45;&gt;Node6 -->
<g id="edge6" class="edge"><title>Node1&#45;&gt;Node6</title>
<path fill="none" stroke="midnightblue" d="M281.235,-39.6947C289.78,-38.895 298.447,-38.0837 306.99,-37.2842"/>
<polygon fill="midnightblue" stroke="midnightblue" points="280.906,-36.2102 271.276,-40.6269 281.558,-43.1797 280.906,-36.2102"/>
</g>
<!-- Node2 -->
<g id="node2" class="node"><title>Node2</title>
<g id="a_node2"><a xlink:href="../../db/d0e/interfaceIG_1_1Num_1_1IRealFunction.html" target="_top" xlink:title="Interface for real functions.">
<polygon fill="white" stroke="black" points="0,-38.5 0,-57.5 76,-57.5 76,-38.5 0,-38.5"/>
<text text-anchor="middle" x="38" y="-45.5" font-family="Helvetica,sans-Serif" font-size="10.00">IRealFunction</text>
</a>
</g>
</g>
<!-- Node2&#45;&gt;Node1 -->
<g id="edge1" class="edge"><title>Node2&#45;&gt;Node1</title>
<path fill="none" stroke="midnightblue" d="M86.1674,-48C94.3971,-48 103.154,-48 111.962,-48"/>
<polygon fill="midnightblue" stroke="midnightblue" points="86.0611,-44.5001 76.0611,-48 86.061,-51.5001 86.0611,-44.5001"/>
</g>
<!-- Node3&#45;&gt;Node4 -->
<g id="edge3" class="edge"><title>Node3&#45;&gt;Node4</title>
<path fill="none" stroke="midnightblue" d="M460.505,-93.653C490.779,-88.2009 526.658,-81.7393 555.506,-76.5439"/>
<polygon fill="midnightblue" stroke="midnightblue" points="459.693,-90.2429 450.472,-95.46 460.934,-97.1321 459.693,-90.2429"/>
</g>
<!-- Node6&#45;&gt;Node4 -->
<g id="edge7" class="edge"><title>Node6&#45;&gt;Node4</title>
<path fill="none" stroke="midnightblue" d="M460.505,-40.347C490.779,-45.7991 526.658,-52.2607 555.506,-57.4561"/>
<polygon fill="midnightblue" stroke="midnightblue" points="460.934,-36.8679 450.472,-38.54 459.693,-43.7571 460.934,-36.8679"/>
</g>
<!-- Node6&#45;&gt;Node5 -->
<g id="edge8" class="edge"><title>Node6&#45;&gt;Node5</title>
<path fill="none" stroke="midnightblue" d="M496.241,-20.1086C507.868,-19.0616 519.605,-18.0048 530.884,-16.9891"/>
<polygon fill="midnightblue" stroke="midnightblue" points="495.712,-16.642 486.066,-21.0249 496.34,-23.6138 495.712,-16.642"/>
</g>
</g>
</svg>
