<?xml version="1.0" encoding="UTF-8" standalone="no"?>
<!DOCTYPE svg PUBLIC "-//W3C//DTD SVG 1.1//EN"
 "http://www.w3.org/Graphics/SVG/1.1/DTD/svg11.dtd">
<!-- Generated by graphviz version 2.38.0 (20140413.2041)
 -->
<!-- Title: IG.Num.Func3d2dExamples.ParametricSurface Pages: 1 -->
<svg width="335pt" height="356pt"
 viewBox="0.00 0.00 334.50 356.00" xmlns="http://www.w3.org/2000/svg" xmlns:xlink="http://www.w3.org/1999/xlink">
<g id="graph0" class="graph" transform="scale(1 1) rotate(0) translate(4 352)">
<title>IG.Num.Func3d2dExamples.ParametricSurface</title>
<polygon fill="white" stroke="none" points="-4,4 -4,-352 330.5,-352 330.5,4 -4,4"/>
<!-- Node1 -->
<g id="node1" class="node"><title>Node1</title>
<g id="a_node1"><a xlink:title="Base class for easy definition of parametric surfaces intended for plotting.">
<polygon fill="#bfbfbf" stroke="black" points="0,-0.5 0,-30.5 142,-30.5 142,-0.5 0,-0.5"/>
<text text-anchor="start" x="8" y="-18.5" font-family="Helvetica,sans-Serif" font-size="10.00">IG.Num.Func3d2dExamples.</text>
<text text-anchor="middle" x="71" y="-7.5" font-family="Helvetica,sans-Serif" font-size="10.00">ParametricSurface</text>
</a>
</g>
</g>
<!-- Node2 -->
<g id="node2" class="node"><title>Node2</title>
<g id="a_node2"><a xlink:href="../../d3/dc0/classIG_1_1Num_1_1Func3d2dBaseNoGradient.html" target="_top" xlink:title="Base class for 3D vector functions of 2 variables (implementations of the IFunc3d2d interface) that d...">
<polygon fill="white" stroke="black" points="70.5,-68.5 70.5,-87.5 201.5,-87.5 201.5,-68.5 70.5,-68.5"/>
<text text-anchor="middle" x="136" y="-75.5" font-family="Helvetica,sans-Serif" font-size="10.00">Func3d2dBaseNoGradient</text>
</a>
</g>
</g>
<!-- Node2&#45;&gt;Node1 -->
<g id="edge1" class="edge"><title>Node2&#45;&gt;Node1</title>
<path fill="none" stroke="midnightblue" d="M119.172,-61.3373C108.935,-51.8086 95.9697,-39.741 86.0693,-30.526"/>
<polygon fill="midnightblue" stroke="midnightblue" points="116.983,-64.0806 126.687,-68.3318 121.752,-58.9567 116.983,-64.0806"/>
</g>
<!-- Node3 -->
<g id="node3" class="node"><title>Node3</title>
<g id="a_node3"><a xlink:href="../../df/d0e/classIG_1_1Num_1_1Func3d2dBase.html" target="_top" xlink:title="Base class for 3D vector functions of 2 variables (base for implementation of IFunc3d2d interface).">
<polygon fill="white" stroke="black" points="108,-125.5 108,-144.5 190,-144.5 190,-125.5 108,-125.5"/>
<text text-anchor="middle" x="149" y="-132.5" font-family="Helvetica,sans-Serif" font-size="10.00">Func3d2dBase</text>
</a>
</g>
</g>
<!-- Node3&#45;&gt;Node2 -->
<g id="edge2" class="edge"><title>Node3&#45;&gt;Node2</title>
<path fill="none" stroke="midnightblue" d="M144.609,-115.423C142.395,-106.054 139.814,-95.1364 138.06,-87.7149"/>
<polygon fill="midnightblue" stroke="midnightblue" points="141.262,-116.48 146.969,-125.406 148.075,-114.869 141.262,-116.48"/>
</g>
<!-- Node4 -->
<g id="node4" class="node"><title>Node4</title>
<g id="a_node4"><a xlink:href="../../d3/d6f/interfaceIG_1_1Num_1_1IFunc3d2d.html" target="_top" xlink:title="Represents 3D vector functions of 2 variables.">
<polygon fill="white" stroke="black" points="40,-214.5 40,-233.5 102,-233.5 102,-214.5 40,-214.5"/>
<text text-anchor="middle" x="71" y="-221.5" font-family="Helvetica,sans-Serif" font-size="10.00">IFunc3d2d</text>
</a>
</g>
</g>
<!-- Node4&#45;&gt;Node1 -->
<g id="edge10" class="edge"><title>Node4&#45;&gt;Node1</title>
<path fill="none" stroke="midnightblue" d="M67.8529,-204.236C63.3953,-175.056 56.2818,-117.051 61,-68 62.2209,-55.3074 65.0972,-41.0951 67.4531,-30.8213"/>
<polygon fill="midnightblue" stroke="midnightblue" points="64.4182,-204.923 69.4537,-214.245 71.3303,-203.817 64.4182,-204.923"/>
</g>
<!-- Node4&#45;&gt;Node2 -->
<g id="edge9" class="edge"><title>Node4&#45;&gt;Node2</title>
<path fill="none" stroke="midnightblue" d="M74.0363,-204.338C77.8597,-183.986 85.6054,-150.865 99,-125 106.447,-110.621 118.795,-96.4684 127.159,-87.7404"/>
<polygon fill="midnightblue" stroke="midnightblue" points="70.5432,-203.995 72.265,-214.449 77.4382,-205.203 70.5432,-203.995"/>
</g>
<!-- Node4&#45;&gt;Node3 -->
<g id="edge3" class="edge"><title>Node4&#45;&gt;Node3</title>
<path fill="none" stroke="midnightblue" d="M85.5736,-206.745C102.069,-188.346 128.323,-159.062 141.267,-144.625"/>
<polygon fill="midnightblue" stroke="midnightblue" points="82.8336,-204.558 78.7641,-214.34 88.0456,-209.231 82.8336,-204.558"/>
</g>
<!-- Node5 -->
<g id="node5" class="node"><title>Node5</title>
<g id="a_node5"><a xlink:href="../../da/d29/classIG_1_1Num_1_1Func2dBase.html" target="_top" xlink:title="Base class for scalar functions of 2 variables (base for implementation of IFunc2d interface).">
<polygon fill="white" stroke="black" points="120.5,-214.5 120.5,-233.5 227.5,-233.5 227.5,-214.5 120.5,-214.5"/>
<text text-anchor="middle" x="174" y="-221.5" font-family="Helvetica,sans-Serif" font-size="10.00">IG.Num.Func2dBase</text>
</a>
</g>
</g>
<!-- Node5&#45;&gt;Node3 -->
<g id="edge4" class="edge"><title>Node5&#45;&gt;Node3</title>
<path fill="none" stroke="#9a32cd" stroke-dasharray="5,2" d="M168.746,-204.715C163.441,-186.255 155.478,-158.542 151.478,-144.625"/>
<polygon fill="#9a32cd" stroke="#9a32cd" points="165.386,-205.696 171.512,-214.34 172.114,-203.762 165.386,-205.696"/>
<text text-anchor="middle" x="185" y="-188" font-family="Helvetica,sans-Serif" font-size="10.00"> _comp1</text>
<text text-anchor="middle" x="185" y="-177" font-family="Helvetica,sans-Serif" font-size="10.00">_comp2</text>
<text text-anchor="middle" x="185" y="-166" font-family="Helvetica,sans-Serif" font-size="10.00">_comp3</text>
</g>
<!-- Node6 -->
<g id="node6" class="node"><title>Node6</title>
<g id="a_node6"><a xlink:href="../../d2/d9e/classIG_1_1Num_1_1ScalarFunctionUntransformedBase.html" target="_top" xlink:title="Base class for defining scalar functions without possibility of affine transformation of parameters.">
<polygon fill="white" stroke="black" points="90.5,-271.5 90.5,-290.5 257.5,-290.5 257.5,-271.5 90.5,-271.5"/>
<text text-anchor="middle" x="174" y="-278.5" font-family="Helvetica,sans-Serif" font-size="10.00">ScalarFunctionUntransformedBase</text>
</a>
</g>
</g>
<!-- Node6&#45;&gt;Node5 -->
<g id="edge5" class="edge"><title>Node6&#45;&gt;Node5</title>
<path fill="none" stroke="midnightblue" d="M174,-261.117C174,-251.817 174,-241.056 174,-233.715"/>
<polygon fill="midnightblue" stroke="midnightblue" points="170.5,-261.406 174,-271.406 177.5,-261.406 170.5,-261.406"/>
</g>
<!-- Node7 -->
<g id="node7" class="node"><title>Node7</title>
<g id="a_node7"><a xlink:href="../../d8/d56/interfaceIG_1_1Num_1_1IScalarFunctionUntransformed.html" target="_top" xlink:title="Scalar functions of vector arguments.">
<polygon fill="white" stroke="black" points="22.5,-328.5 22.5,-347.5 169.5,-347.5 169.5,-328.5 22.5,-328.5"/>
<text text-anchor="middle" x="96" y="-335.5" font-family="Helvetica,sans-Serif" font-size="10.00">IScalarFunctionUntransformed</text>
</a>
</g>
</g>
<!-- Node7&#45;&gt;Node5 -->
<g id="edge8" class="edge"><title>Node7&#45;&gt;Node5</title>
<path fill="none" stroke="midnightblue" d="M85.1232,-319.118C78.1392,-305.112 71.9212,-285.619 81,-271 92.9737,-251.719 115.69,-240.274 135.673,-233.623"/>
<polygon fill="midnightblue" stroke="midnightblue" points="82.239,-321.135 90.1363,-328.198 88.3672,-317.752 82.239,-321.135"/>
</g>
<!-- Node7&#45;&gt;Node6 -->
<g id="edge6" class="edge"><title>Node7&#45;&gt;Node6</title>
<path fill="none" stroke="midnightblue" d="M116.511,-322.537C130.953,-312.354 149.795,-299.068 161.898,-290.533"/>
<polygon fill="midnightblue" stroke="midnightblue" points="114.343,-319.783 108.188,-328.406 118.377,-325.504 114.343,-319.783"/>
</g>
<!-- Node8 -->
<g id="node8" class="node"><title>Node8</title>
<g id="a_node8"><a xlink:href="../../d8/d15/interfaceIG_1_1Num_1_1IFunc2d.html" target="_top" xlink:title="Represents scalar functions of 2 variables.">
<polygon fill="white" stroke="black" points="275.5,-271.5 275.5,-290.5 326.5,-290.5 326.5,-271.5 275.5,-271.5"/>
<text text-anchor="middle" x="301" y="-278.5" font-family="Helvetica,sans-Serif" font-size="10.00">IFunc2d</text>
</a>
</g>
</g>
<!-- Node8&#45;&gt;Node5 -->
<g id="edge7" class="edge"><title>Node8&#45;&gt;Node5</title>
<path fill="none" stroke="midnightblue" d="M271.844,-267.374C247.894,-257.001 214.62,-242.591 193.704,-233.533"/>
<polygon fill="midnightblue" stroke="midnightblue" points="270.589,-270.644 281.156,-271.406 273.371,-264.22 270.589,-270.644"/>
</g>
</g>
</svg>
