<?xml version="1.0" encoding="UTF-8" standalone="no"?>
<!DOCTYPE svg PUBLIC "-//W3C//DTD SVG 1.1//EN"
 "http://www.w3.org/Graphics/SVG/1.1/DTD/svg11.dtd">
<!-- Generated by graphviz version 2.38.0 (20140413.2041)
 -->
<!-- Title: IGLib.Core.ModelParameterSetBase&lt; ModelParameterType &gt; Pages: 1 -->
<!--zoomable 88 -->
<svg id="main" version="1.1" xmlns="http://www.w3.org/2000/svg" xmlns:xlink="http://www.w3.org/1999/xlink" xml:space="preserve" onload="init(evt)">
<style type="text/css"><![CDATA[
.edge:hover path { stroke: red; }
.edge:hover polygon { stroke: red; fill: red; }
]]></style>
<script type="text/javascript"><![CDATA[
var edges = document.getElementsByTagName('g');
if (edges && edges.length) {
  for (var i=0;i<edges.length;i++) {
    if (edges[i].id.substr(0,4)=='edge') {
      edges[i].setAttribute('class','edge');
    }
  }
}
]]></script>
        <defs>
                <circle id="rim" cx="0" cy="0" r="7"/>
                <circle id="rim2" cx="0" cy="0" r="3.5"/>
                <g id="zoomPlus">
                        <use xlink:href="#rim" fill="#404040">
                                <set attributeName="fill" to="#808080" begin="zoomplus.mouseover" end="zoomplus.mouseout"/>
                        </use>
                        <path d="M-4,0h8M0,-4v8" fill="none" stroke="white" stroke-width="1.5" pointer-events="none"/>
                </g>
                <g id="zoomMin">
                        <use xlink:href="#rim" fill="#404040">
                                <set attributeName="fill" to="#808080" begin="zoomminus.mouseover" end="zoomminus.mouseout"/>
                        </use>
                        <path d="M-4,0h8" fill="none" stroke="white" stroke-width="1.5" pointer-events="none"/>
                </g>
                <g id="dirArrow">
                        <path fill="none" stroke="white" stroke-width="1.5" d="M0,-3.0v7 M-2.5,-0.5L0,-3.0L2.5,-0.5"/>
                </g>
               <g id="resetDef">
                       <use xlink:href="#rim2" fill="#404040">
                               <set attributeName="fill" to="#808080" begin="reset.mouseover" end="reset.mouseout"/>
                       </use>
               </g>
        </defs>

<script type="text/javascript">
var viewWidth = 545;
var viewHeight = 88;
var sectionId = 'dynsection-0';
</script>
<script xlink:href="../../svgpan.js"/>
<svg id="graph" class="graph">
<g id="viewport">
<title>IGLib.Core.ModelParameterSetBase&lt; ModelParameterType &gt;</title>
<polygon fill="white" stroke="none" points="-4,4 -4,-84 541,-84 541,4 -4,4"/>
<!-- Node1 -->
<g id="node1" class="node"><title>Node1</title>
<g id="a_node1"><a xlink:title="Similar as ModelParameterSetFixedBase&lt;ModelParameterType&gt;, except that parameter objects can be added...">
<polygon fill="#bfbfbf" stroke="black" points="373,-24.5 373,-54.5 537,-54.5 537,-24.5 373,-24.5"/>
<text text-anchor="start" x="381" y="-42.5" font-family="Helvetica,sans-Serif" font-size="10.00">IGLib.Core.ModelParameter</text>
<text text-anchor="middle" x="455" y="-31.5" font-family="Helvetica,sans-Serif" font-size="10.00">SetBase&lt; ModelParameterType &gt;</text>
</a>
</g>
</g>
<!-- Node2 -->
<g id="node2" class="node"><title>Node2</title>
<g id="a_node2"><a xlink:href="../../d4/d40/classIGLib_1_1Core_1_1ModelParameterSetFixedBase.html" target="_top" xlink:title="Contains a set of model parameters as ModelParameterType &#160;objects, accessible by string keys,...">
<polygon fill="white" stroke="black" points="188,-49.5 188,-79.5 337,-79.5 337,-49.5 188,-49.5"/>
<text text-anchor="start" x="196" y="-67.5" font-family="Helvetica,sans-Serif" font-size="10.00">ModelParameterSetFixedBase</text>
<text text-anchor="middle" x="262.5" y="-56.5" font-family="Helvetica,sans-Serif" font-size="10.00">&lt; ModelParameterType &gt;</text>
</a>
</g>
</g>
<!-- Node2&#45;&gt;Node1 -->
<g id="edge1" class="edge"><title>Node2&#45;&gt;Node1</title>
<path fill="none" stroke="midnightblue" d="M347.139,-53.5238C355.71,-52.3989 364.409,-51.2573 372.952,-50.1362"/>
<polygon fill="midnightblue" stroke="midnightblue" points="346.612,-50.0628 337.152,-54.8343 347.523,-57.0033 346.612,-50.0628"/>
</g>
<!-- Node3 -->
<g id="node3" class="node"><title>Node3</title>
<g id="a_node3"><a xlink:href="../../df/d1f/interfaceIGLib_1_1Core_1_1IModelParameterSetBaseFixed.html" target="_top" xlink:title="A fixed set of model parameters of the specified type, where parameters cannot be added,...">
<polygon fill="white" stroke="black" points="0,-24.5 0,-54.5 152,-54.5 152,-24.5 0,-24.5"/>
<text text-anchor="start" x="8" y="-42.5" font-family="Helvetica,sans-Serif" font-size="10.00">IModelParameterSetBaseFixed</text>
<text text-anchor="middle" x="76" y="-31.5" font-family="Helvetica,sans-Serif" font-size="10.00">&lt; ModelParameterType &gt;</text>
</a>
</g>
</g>
<!-- Node3&#45;&gt;Node2 -->
<g id="edge2" class="edge"><title>Node3&#45;&gt;Node2</title>
<path fill="none" stroke="midnightblue" d="M162.05,-51.0244C170.623,-52.186 179.278,-53.3588 187.719,-54.5026"/>
<polygon fill="midnightblue" stroke="midnightblue" points="162.423,-47.543 152.043,-49.6685 161.483,-54.4796 162.423,-47.543"/>
</g>
<!-- Node4 -->
<g id="node4" class="node"><title>Node4</title>
<g id="a_node4"><a xlink:href="../../d3/d14/interfaceIGLib_1_1Core_1_1IModelParameterSetBase.html" target="_top" xlink:title="A set of model parameters of the specified type, where parameters can be added, removed or changed af...">
<polygon fill="white" stroke="black" points="198.5,-0.5 198.5,-30.5 326.5,-30.5 326.5,-0.5 198.5,-0.5"/>
<text text-anchor="start" x="206.5" y="-18.5" font-family="Helvetica,sans-Serif" font-size="10.00">IModelParameterSetBase</text>
<text text-anchor="middle" x="262.5" y="-7.5" font-family="Helvetica,sans-Serif" font-size="10.00">&lt; ModelParameterType &gt;</text>
</a>
</g>
</g>
<!-- Node3&#45;&gt;Node4 -->
<g id="edge4" class="edge"><title>Node3&#45;&gt;Node4</title>
<path fill="none" stroke="midnightblue" d="M162.202,-28.4168C174.364,-26.8348 186.69,-25.2314 198.328,-23.7175"/>
<polygon fill="midnightblue" stroke="midnightblue" points="161.508,-24.9775 152.043,-29.7383 162.411,-31.919 161.508,-24.9775"/>
</g>
<!-- Node4&#45;&gt;Node1 -->
<g id="edge3" class="edge"><title>Node4&#45;&gt;Node1</title>
<path fill="none" stroke="midnightblue" d="M336.84,-24.7397C348.573,-26.2178 360.775,-27.7551 372.68,-29.2549"/>
<polygon fill="midnightblue" stroke="midnightblue" points="337.028,-21.2358 326.669,-23.4583 336.153,-28.1809 337.028,-21.2358"/>
</g>
</g>
</svg>
        <g id="navigator" transform="translate(0 0)" fill="#404254">
                <rect fill="#f2f5e9" fill-opacity="0.5" stroke="#606060" stroke-width=".5" x="0" y="0" width="60" height="60"/>
                <use id="zoomplus" xlink:href="#zoomPlus" x="17" y="9" onmousedown="handleZoom(evt,'in')"/>
                <use id="zoomminus" xlink:href="#zoomMin" x="42" y="9" onmousedown="handleZoom(evt,'out')"/>
                <use id="reset" xlink:href="#resetDef" x="30" y="36" onmousedown="handleReset()"/>
                <g id="arrowUp" xlink:href="#dirArrow" transform="translate(30 24)" onmousedown="handlePan(0,-1)">
                  <use xlink:href="#rim" fill="#404040">
                        <set attributeName="fill" to="#808080" begin="arrowUp.mouseover" end="arrowUp.mouseout"/>
                  </use>
                  <path fill="none" stroke="white" stroke-width="1.5" d="M0,-3.0v7 M-2.5,-0.5L0,-3.0L2.5,-0.5"/>
                </g>
                <g id="arrowRight" xlink:href="#dirArrow" transform="rotate(90) translate(36 -43)" onmousedown="handlePan(1,0)">
                  <use xlink:href="#rim" fill="#404040">
                        <set attributeName="fill" to="#808080" begin="arrowRight.mouseover" end="arrowRight.mouseout"/>
                  </use>
                  <path fill="none" stroke="white" stroke-width="1.5" d="M0,-3.0v7 M-2.5,-0.5L0,-3.0L2.5,-0.5"/>
                </g>
                <g id="arrowDown" xlink:href="#dirArrow" transform="rotate(180) translate(-30 -48)" onmousedown="handlePan(0,1)">
                  <use xlink:href="#rim" fill="#404040">
                        <set attributeName="fill" to="#808080" begin="arrowDown.mouseover" end="arrowDown.mouseout"/>
                  </use>
                  <path fill="none" stroke="white" stroke-width="1.5" d="M0,-3.0v7 M-2.5,-0.5L0,-3.0L2.5,-0.5"/>
                </g>
                <g id="arrowLeft" xlink:href="#dirArrow" transform="rotate(270) translate(-36 17)" onmousedown="handlePan(-1,0)">
                  <use xlink:href="#rim" fill="#404040">
                        <set attributeName="fill" to="#808080" begin="arrowLeft.mouseover" end="arrowLeft.mouseout"/>
                  </use>
                  <path fill="none" stroke="white" stroke-width="1.5" d="M0,-3.0v7 M-2.5,-0.5L0,-3.0L2.5,-0.5"/>
                </g>
        </g>
        <svg viewBox="0 0 15 15" width="100%" height="30px" preserveAspectRatio="xMaxYMin meet">
         <g id="arrow_out" transform="scale(0.3 0.3)">
          <a xlink:href="classIGLib_1_1Core_1_1ModelParameterSetBase__inherit__graph_org.svg" target="_base">
           <rect id="button" ry="5" rx="5" y="6" x="6" height="38" width="38"
                fill="#f2f5e9" fill-opacity="0.5" stroke="#606060" stroke-width="1.0"/>
           <path id="arrow"
             d="M 11.500037,31.436501 C 11.940474,20.09759 22.043105,11.32322 32.158766,21.979434 L 37.068811,17.246167 C 37.068811,17.246167 37.088388,32 37.088388,32 L 22.160133,31.978069 C 22.160133,31.978069 26.997745,27.140456 26.997745,27.140456 C 18.528582,18.264221 13.291696,25.230495 11.500037,31.436501 z"
             style="fill:#404040;"/>
          </a>
         </g>
        </svg>
</svg>
