<?xml version="1.0" encoding="UTF-8" standalone="no"?>
<!DOCTYPE svg PUBLIC "-//W3C//DTD SVG 1.1//EN"
 "http://www.w3.org/Graphics/SVG/1.1/DTD/svg11.dtd">
<!-- Generated by graphviz version 2.38.0 (20140413.2041)
 -->
<!-- Title: IG.Lib.IWaitFileEvent Pages: 1 -->
<svg width="136pt" height="140pt"
 viewBox="0.00 0.00 135.50 140.00" xmlns="http://www.w3.org/2000/svg" xmlns:xlink="http://www.w3.org/1999/xlink">
<g id="graph0" class="graph" transform="scale(1 1) rotate(0) translate(4 136)">
<title>IG.Lib.IWaitFileEvent</title>
<polygon fill="white" stroke="none" points="-4,4 -4,-136 131.5,-136 131.5,4 -4,4"/>
<!-- Node1 -->
<g id="node1" class="node"><title>Node1</title>
<g id="a_node1"><a xlink:title="Interface for classes that provide waiting for specific file events (such as ceration or deletion of ...">
<polygon fill="#bfbfbf" stroke="black" points="0,-0.5 0,-19.5 107,-19.5 107,-0.5 0,-0.5"/>
<text text-anchor="middle" x="53.5" y="-7.5" font-family="Helvetica,sans-Serif" font-size="10.00">IG.Lib.IWaitFileEvent</text>
</a>
</g>
</g>
<!-- Node2 -->
<g id="node2" class="node"><title>Node2</title>
<g id="a_node2"><a xlink:href="../../de/d1e/interfaceIG_1_1Lib_1_1IWaitCondition.html" target="_top" xlink:title="Interface for classes that implement blocking until a specified condition is met.">
<polygon fill="white" stroke="black" points="47.5,-56.5 47.5,-75.5 127.5,-75.5 127.5,-56.5 47.5,-56.5"/>
<text text-anchor="middle" x="87.5" y="-63.5" font-family="Helvetica,sans-Serif" font-size="10.00">IWaitCondition</text>
</a>
</g>
</g>
<!-- Node2&#45;&gt;Node1 -->
<g id="edge1" class="edge"><title>Node2&#45;&gt;Node1</title>
<path fill="none" stroke="midnightblue" d="M76.5228,-47.5656C70.673,-38.2747 63.7305,-27.2484 59.0099,-19.7511"/>
<polygon fill="midnightblue" stroke="midnightblue" points="73.5956,-49.4855 81.8856,-56.083 79.5192,-45.7558 73.5956,-49.4855"/>
</g>
<!-- Node3 -->
<g id="node3" class="node"><title>Node3</title>
<g id="a_node3"><a xlink:href="../../d3/db6/interfaceIG_1_1Lib_1_1ILockable.html" target="_top" xlink:title="Lockable object, has a Lock property that returns object on which lock must be performed in order to ...">
<polygon fill="white" stroke="black" points="24.5,-112.5 24.5,-131.5 82.5,-131.5 82.5,-112.5 24.5,-112.5"/>
<text text-anchor="middle" x="53.5" y="-119.5" font-family="Helvetica,sans-Serif" font-size="10.00">ILockable</text>
</a>
</g>
</g>
<!-- Node3&#45;&gt;Node1 -->
<g id="edge3" class="edge"><title>Node3&#45;&gt;Node1</title>
<path fill="none" stroke="midnightblue" d="M45.9438,-102.782C42.9923,-94.725 39.9675,-85.0432 38.5,-76 35.1979,-55.6515 43.7397,-32.1752 49.2514,-19.7585"/>
<polygon fill="midnightblue" stroke="midnightblue" points="42.7436,-104.209 49.6443,-112.249 49.2632,-101.661 42.7436,-104.209"/>
</g>
<!-- Node3&#45;&gt;Node2 -->
<g id="edge2" class="edge"><title>Node3&#45;&gt;Node2</title>
<path fill="none" stroke="midnightblue" d="M64.4772,-103.566C70.327,-94.2747 77.2695,-83.2484 81.9901,-75.7511"/>
<polygon fill="midnightblue" stroke="midnightblue" points="61.4808,-101.756 59.1144,-112.083 67.4044,-105.486 61.4808,-101.756"/>
</g>
</g>
</svg>
