<?xml version="1.0" encoding="UTF-8" standalone="no"?>
<!DOCTYPE svg PUBLIC "-//W3C//DTD SVG 1.1//EN"
 "http://www.w3.org/Graphics/SVG/1.1/DTD/svg11.dtd">
<!-- Generated by graphviz version 2.38.0 (20140413.2041)
 -->
<!-- Title: IG.Lib.WaitConditionBase Pages: 1 -->
<!--zoomable 513 -->
<svg id="main" version="1.1" xmlns="http://www.w3.org/2000/svg" xmlns:xlink="http://www.w3.org/1999/xlink" xml:space="preserve" onload="init(evt)">
<style type="text/css"><![CDATA[
.edge:hover path { stroke: red; }
.edge:hover polygon { stroke: red; fill: red; }
]]></style>
<script type="text/javascript"><![CDATA[
var edges = document.getElementsByTagName('g');
if (edges && edges.length) {
  for (var i=0;i<edges.length;i++) {
    if (edges[i].id.substr(0,4)=='edge') {
      edges[i].setAttribute('class','edge');
    }
  }
}
]]></script>
        <defs>
                <circle id="rim" cx="0" cy="0" r="7"/>
                <circle id="rim2" cx="0" cy="0" r="3.5"/>
                <g id="zoomPlus">
                        <use xlink:href="#rim" fill="#404040">
                                <set attributeName="fill" to="#808080" begin="zoomplus.mouseover" end="zoomplus.mouseout"/>
                        </use>
                        <path d="M-4,0h8M0,-4v8" fill="none" stroke="white" stroke-width="1.5" pointer-events="none"/>
                </g>
                <g id="zoomMin">
                        <use xlink:href="#rim" fill="#404040">
                                <set attributeName="fill" to="#808080" begin="zoomminus.mouseover" end="zoomminus.mouseout"/>
                        </use>
                        <path d="M-4,0h8" fill="none" stroke="white" stroke-width="1.5" pointer-events="none"/>
                </g>
                <g id="dirArrow">
                        <path fill="none" stroke="white" stroke-width="1.5" d="M0,-3.0v7 M-2.5,-0.5L0,-3.0L2.5,-0.5"/>
                </g>
               <g id="resetDef">
                       <use xlink:href="#rim2" fill="#404040">
                               <set attributeName="fill" to="#808080" begin="reset.mouseover" end="reset.mouseout"/>
                       </use>
               </g>
        </defs>

<script type="text/javascript">
var viewWidth = 896;
var viewHeight = 513;
var sectionId = 'dynsection-0';
</script>
<script xlink:href="../../svgpan.js"/>
<svg id="graph" class="graph">
<g id="viewport">
<title>IG.Lib.WaitConditionBase</title>
<polygon fill="white" stroke="none" points="-4,4 -4,-509 892,-509 892,4 -4,4"/>
<!-- Node1 -->
<g id="node1" class="node"><title>Node1</title>
<g id="a_node1"><a xlink:title="Base class for objects that perform waiting until a condition is fulfilled.">
<polygon fill="#bfbfbf" stroke="black" points="210,-254 210,-273 338,-273 338,-254 210,-254"/>
<text text-anchor="middle" x="274" y="-261" font-family="Helvetica,sans-Serif" font-size="10.00">IG.Lib.WaitConditionBase</text>
</a>
</g>
</g>
<!-- Node4 -->
<g id="node4" class="node"><title>Node4</title>
<g id="a_node4"><a xlink:href="../../da/d67/classIG_1_1Lib_1_1WaitCondition.html" target="_top" xlink:title="Provides a framework for blocking execution until the specified condition becomes satisfied....">
<polygon fill="white" stroke="black" points="385,-349 385,-368 491,-368 491,-349 385,-349"/>
<text text-anchor="middle" x="438" y="-356" font-family="Helvetica,sans-Serif" font-size="10.00">IG.Lib.WaitCondition</text>
</a>
</g>
</g>
<!-- Node1&#45;&gt;Node4 -->
<g id="edge4" class="edge"><title>Node1&#45;&gt;Node4</title>
<path fill="none" stroke="midnightblue" d="M300.18,-278.266C333.721,-297.935 392.12,-332.181 420.532,-348.843"/>
<polygon fill="midnightblue" stroke="midnightblue" points="301.822,-275.171 291.425,-273.132 298.281,-281.21 301.822,-275.171"/>
</g>
<!-- Node10 -->
<g id="node10" class="node"><title>Node10</title>
<g id="a_node10"><a xlink:href="../../d5/d42/classIG_1_1Lib_1_1WaitFileEventBase.html" target="_top" xlink:title="Base class for classes that provide blocking until a file or directory is created/removed.">
<polygon fill="white" stroke="black" points="374,-254 374,-273 502,-273 502,-254 374,-254"/>
<text text-anchor="middle" x="438" y="-261" font-family="Helvetica,sans-Serif" font-size="10.00">IG.Lib.WaitFileEventBase</text>
</a>
</g>
</g>
<!-- Node1&#45;&gt;Node10 -->
<g id="edge10" class="edge"><title>Node1&#45;&gt;Node10</title>
<path fill="none" stroke="midnightblue" d="M348.374,-263.5C356.865,-263.5 365.469,-263.5 373.808,-263.5"/>
<polygon fill="midnightblue" stroke="midnightblue" points="348.097,-260 338.097,-263.5 348.097,-267 348.097,-260"/>
</g>
<!-- Node16 -->
<g id="node16" class="node"><title>Node16</title>
<g id="a_node16"><a xlink:href="../../df/d44/classIG_1_1Lib_1_1WaitFileEventBaseByProxyLatence.html" target="_top" xlink:title="Base class for classes that provide blocking until a file or directory is created/removed....">
<polygon fill="white" stroke="black" points="374,-142.5 374,-172.5 502,-172.5 502,-142.5 374,-142.5"/>
<text text-anchor="start" x="382" y="-160.5" font-family="Helvetica,sans-Serif" font-size="10.00">IG.Lib.WaitFileEventBase</text>
<text text-anchor="middle" x="438" y="-149.5" font-family="Helvetica,sans-Serif" font-size="10.00">ByProxyLatence</text>
</a>
</g>
</g>
<!-- Node1&#45;&gt;Node16 -->
<g id="edge16" class="edge"><title>Node1&#45;&gt;Node16</title>
<path fill="none" stroke="midnightblue" d="M298.06,-248.411C328.89,-228.239 383.218,-192.691 414.012,-172.542"/>
<polygon fill="midnightblue" stroke="midnightblue" points="296.114,-245.502 289.662,-253.906 299.946,-251.36 296.114,-245.502"/>
</g>
<!-- Node2 -->
<g id="node2" class="node"><title>Node2</title>
<g id="a_node2"><a xlink:href="../../de/d1e/interfaceIG_1_1Lib_1_1IWaitCondition.html" target="_top" xlink:title="Interface for classes that implement blocking until a specified condition is met.">
<polygon fill="white" stroke="black" points="94,-235 94,-254 174,-254 174,-235 94,-235"/>
<text text-anchor="middle" x="134" y="-242" font-family="Helvetica,sans-Serif" font-size="10.00">IWaitCondition</text>
</a>
</g>
</g>
<!-- Node2&#45;&gt;Node1 -->
<g id="edge1" class="edge"><title>Node2&#45;&gt;Node1</title>
<path fill="none" stroke="midnightblue" d="M184.136,-251.265C192.505,-252.417 201.301,-253.628 209.969,-254.822"/>
<polygon fill="midnightblue" stroke="midnightblue" points="184.56,-247.791 174.176,-249.894 183.605,-254.725 184.56,-247.791"/>
</g>
<!-- Node3 -->
<g id="node3" class="node"><title>Node3</title>
<g id="a_node3"><a xlink:href="../../d3/db6/interfaceIG_1_1Lib_1_1ILockable.html" target="_top" xlink:title="Lockable object, has a Lock property that returns object on which lock must be performed in order to ...">
<polygon fill="white" stroke="black" points="0,-254 0,-273 58,-273 58,-254 0,-254"/>
<text text-anchor="middle" x="29" y="-261" font-family="Helvetica,sans-Serif" font-size="10.00">ILockable</text>
</a>
</g>
</g>
<!-- Node3&#45;&gt;Node1 -->
<g id="edge3" class="edge"><title>Node3&#45;&gt;Node1</title>
<path fill="none" stroke="midnightblue" d="M68.4796,-263.5C106.441,-263.5 165.126,-263.5 209.914,-263.5"/>
<polygon fill="midnightblue" stroke="midnightblue" points="68.3508,-260 58.3508,-263.5 68.3507,-267 68.3508,-260"/>
</g>
<!-- Node3&#45;&gt;Node2 -->
<g id="edge2" class="edge"><title>Node3&#45;&gt;Node2</title>
<path fill="none" stroke="midnightblue" d="M68.0328,-256.484C76.3997,-254.941 85.2767,-253.303 93.6928,-251.751"/>
<polygon fill="midnightblue" stroke="midnightblue" points="67.3443,-253.052 58.1452,-258.308 68.6142,-259.936 67.3443,-253.052"/>
</g>
<!-- Node5 -->
<g id="node5" class="node"><title>Node5</title>
<g id="a_node5"><a xlink:href="../../d4/d27/classIG_1_1Lib_1_1WaitFileEventLatenceBase.html" target="_top" xlink:title="Base class for classes that impelement methods that block until a file or directory is created or del...">
<polygon fill="white" stroke="black" points="538,-387 538,-406 700,-406 700,-387 538,-387"/>
<text text-anchor="middle" x="619" y="-394" font-family="Helvetica,sans-Serif" font-size="10.00">IG.Lib.WaitFileEventLatenceBase</text>
</a>
</g>
</g>
<!-- Node4&#45;&gt;Node5 -->
<g id="edge5" class="edge"><title>Node4&#45;&gt;Node5</title>
<path fill="none" stroke="midnightblue" d="M494.024,-370.181C519.408,-375.57 549.161,-381.886 573.156,-386.98"/>
<polygon fill="midnightblue" stroke="midnightblue" points="494.678,-366.742 484.169,-368.089 493.224,-373.589 494.678,-366.742"/>
</g>
<!-- Node6 -->
<g id="node6" class="node"><title>Node6</title>
<g id="a_node6"><a xlink:href="../../d9/d6b/classIG_1_1Lib_1_1WaitDirectoryCreationLatence.html" target="_top" xlink:title="Implements blocking until the specified directory is created (becomes existent). Directory is specifi...">
<polygon fill="white" stroke="black" points="742,-474.5 742,-504.5 882,-504.5 882,-474.5 742,-474.5"/>
<text text-anchor="start" x="750" y="-492.5" font-family="Helvetica,sans-Serif" font-size="10.00">IG.Lib.WaitDirectoryCreation</text>
<text text-anchor="middle" x="812" y="-481.5" font-family="Helvetica,sans-Serif" font-size="10.00">Latence</text>
</a>
</g>
</g>
<!-- Node5&#45;&gt;Node6 -->
<g id="edge6" class="edge"><title>Node5&#45;&gt;Node6</title>
<path fill="none" stroke="midnightblue" d="M642.298,-411.848C665.067,-427.011 701.823,-450.108 736,-465.5 743.23,-468.756 751.034,-471.769 758.78,-474.481"/>
<polygon fill="midnightblue" stroke="midnightblue" points="643.976,-408.758 633.727,-406.073 640.065,-414.564 643.976,-408.758"/>
</g>
<!-- Node7 -->
<g id="node7" class="node"><title>Node7</title>
<g id="a_node7"><a xlink:href="../../d2/dcb/classIG_1_1Lib_1_1WaitDirectoryRemovalLatence.html" target="_top" xlink:title="Implements blocking until the specified directory is deleted (becomes nonexistent)....">
<polygon fill="white" stroke="black" points="741.5,-425.5 741.5,-455.5 882.5,-455.5 882.5,-425.5 741.5,-425.5"/>
<text text-anchor="start" x="749.5" y="-443.5" font-family="Helvetica,sans-Serif" font-size="10.00">IG.Lib.WaitDirectoryRemoval</text>
<text text-anchor="middle" x="812" y="-432.5" font-family="Helvetica,sans-Serif" font-size="10.00">Latence</text>
</a>
</g>
</g>
<!-- Node5&#45;&gt;Node7 -->
<g id="edge7" class="edge"><title>Node5&#45;&gt;Node7</title>
<path fill="none" stroke="midnightblue" d="M671.28,-408.313C694.129,-413.577 721.313,-419.839 745.603,-425.435"/>
<polygon fill="midnightblue" stroke="midnightblue" points="671.975,-404.882 661.444,-406.047 670.403,-411.703 671.975,-404.882"/>
</g>
<!-- Node8 -->
<g id="node8" class="node"><title>Node8</title>
<g id="a_node8"><a xlink:href="../../d1/de2/classIG_1_1Lib_1_1WaitFileCreationLatence.html" target="_top" xlink:title="Implements blocking until the specified file is created (becomes existent). File is specified in cons...">
<polygon fill="white" stroke="black" points="736,-387 736,-406 888,-406 888,-387 736,-387"/>
<text text-anchor="middle" x="812" y="-394" font-family="Helvetica,sans-Serif" font-size="10.00">IG.Lib.WaitFileCreationLatence</text>
</a>
</g>
</g>
<!-- Node5&#45;&gt;Node8 -->
<g id="edge8" class="edge"><title>Node5&#45;&gt;Node8</title>
<path fill="none" stroke="midnightblue" d="M710.223,-396.5C718.822,-396.5 727.479,-396.5 735.912,-396.5"/>
<polygon fill="midnightblue" stroke="midnightblue" points="710.171,-393 700.171,-396.5 710.171,-400 710.171,-393"/>
</g>
<!-- Node9 -->
<g id="node9" class="node"><title>Node9</title>
<g id="a_node9"><a xlink:href="../../d2/d57/classIG_1_1Lib_1_1WaitFileRemovalLatence.html" target="_top" xlink:title="Implements blocking until the specified file is deleted (becomes nonexistent). File is specified in c...">
<polygon fill="white" stroke="black" points="736,-349 736,-368 888,-368 888,-349 736,-349"/>
<text text-anchor="middle" x="812" y="-356" font-family="Helvetica,sans-Serif" font-size="10.00">IG.Lib.WaitFileRemovalLatence</text>
</a>
</g>
</g>
<!-- Node5&#45;&gt;Node9 -->
<g id="edge9" class="edge"><title>Node5&#45;&gt;Node9</title>
<path fill="none" stroke="midnightblue" d="M678.353,-384.89C705.518,-379.486 737.432,-373.136 763.149,-368.02"/>
<polygon fill="midnightblue" stroke="midnightblue" points="677.322,-381.527 668.197,-386.911 678.688,-388.392 677.322,-381.527"/>
</g>
<!-- Node11 -->
<g id="node11" class="node"><title>Node11</title>
<g id="a_node11"><a xlink:href="../../d2/ddf/classIG_1_1Lib_1_1WaitFileEvent.html" target="_top" xlink:title="Concrete class derived from WaitFileEventBase. It does not have a meaningful unblocking condition (it...">
<polygon fill="white" stroke="black" points="566.5,-254 566.5,-273 671.5,-273 671.5,-254 566.5,-254"/>
<text text-anchor="middle" x="619" y="-261" font-family="Helvetica,sans-Serif" font-size="10.00">IG.Lib.WaitFileEvent</text>
</a>
</g>
</g>
<!-- Node10&#45;&gt;Node11 -->
<g id="edge11" class="edge"><title>Node10&#45;&gt;Node11</title>
<path fill="none" stroke="midnightblue" d="M512.359,-263.5C530.488,-263.5 549.531,-263.5 566.379,-263.5"/>
<polygon fill="midnightblue" stroke="midnightblue" points="512.109,-260 502.109,-263.5 512.109,-267 512.109,-260"/>
</g>
<!-- Node12 -->
<g id="node12" class="node"><title>Node12</title>
<g id="a_node12"><a xlink:href="../../d9/d46/classIG_1_1Lib_1_1WaitDirectoryCreation.html" target="_top" xlink:title="Blocking execution of the current thread until the specified directory begins to exist.">
<polygon fill="white" stroke="black" points="742,-311 742,-330 882,-330 882,-311 742,-311"/>
<text text-anchor="middle" x="812" y="-318" font-family="Helvetica,sans-Serif" font-size="10.00">IG.Lib.WaitDirectoryCreation</text>
</a>
</g>
</g>
<!-- Node11&#45;&gt;Node12 -->
<g id="edge12" class="edge"><title>Node11&#45;&gt;Node12</title>
<path fill="none" stroke="midnightblue" d="M657.066,-276.359C679.74,-284.046 709.406,-293.785 736,-301.5 747.352,-304.793 759.762,-308.067 771.161,-310.947"/>
<polygon fill="midnightblue" stroke="midnightblue" points="658.086,-273.009 647.492,-273.095 655.827,-279.635 658.086,-273.009"/>
</g>
<!-- Node13 -->
<g id="node13" class="node"><title>Node13</title>
<g id="a_node13"><a xlink:href="../../d3/da5/classIG_1_1Lib_1_1WaitDirectoryRemoval.html" target="_top" xlink:title="Blocking execution of the current thread until the specified directory ceases to exist.">
<polygon fill="white" stroke="black" points="741.5,-273 741.5,-292 882.5,-292 882.5,-273 741.5,-273"/>
<text text-anchor="middle" x="812" y="-280" font-family="Helvetica,sans-Serif" font-size="10.00">IG.Lib.WaitDirectoryRemoval</text>
</a>
</g>
</g>
<!-- Node11&#45;&gt;Node13 -->
<g id="edge13" class="edge"><title>Node11&#45;&gt;Node13</title>
<path fill="none" stroke="midnightblue" d="M681.724,-269.64C700.746,-271.532 721.82,-273.629 741.337,-275.57"/>
<polygon fill="midnightblue" stroke="midnightblue" points="681.985,-266.149 671.687,-268.642 681.292,-273.114 681.985,-266.149"/>
</g>
<!-- Node14 -->
<g id="node14" class="node"><title>Node14</title>
<g id="a_node14"><a xlink:href="../../d1/d1e/classIG_1_1Lib_1_1WaitFileCreation.html" target="_top" xlink:title="Blocking execution of the current thread until the specified file begins to exist.">
<polygon fill="white" stroke="black" points="753.5,-235 753.5,-254 870.5,-254 870.5,-235 753.5,-235"/>
<text text-anchor="middle" x="812" y="-242" font-family="Helvetica,sans-Serif" font-size="10.00">IG.Lib.WaitFileCreation</text>
</a>
</g>
</g>
<!-- Node11&#45;&gt;Node14 -->
<g id="edge14" class="edge"><title>Node11&#45;&gt;Node14</title>
<path fill="none" stroke="midnightblue" d="M681.667,-257.366C704.636,-255.081 730.604,-252.498 753.212,-250.249"/>
<polygon fill="midnightblue" stroke="midnightblue" points="681.292,-253.886 671.687,-258.358 681.985,-260.851 681.292,-253.886"/>
</g>
<!-- Node15 -->
<g id="node15" class="node"><title>Node15</title>
<g id="a_node15"><a xlink:href="../../d6/de8/classIG_1_1Lib_1_1WaitFileRemoval.html" target="_top" xlink:title="Blocking execution of the current thread until the specified file ceases to exist.">
<polygon fill="white" stroke="black" points="753,-197 753,-216 871,-216 871,-197 753,-197"/>
<text text-anchor="middle" x="812" y="-204" font-family="Helvetica,sans-Serif" font-size="10.00">IG.Lib.WaitFileRemoval</text>
</a>
</g>
</g>
<!-- Node11&#45;&gt;Node15 -->
<g id="edge15" class="edge"><title>Node11&#45;&gt;Node15</title>
<path fill="none" stroke="midnightblue" d="M657.066,-250.641C679.74,-242.954 709.406,-233.215 736,-225.5 747.352,-222.207 759.762,-218.933 771.161,-216.053"/>
<polygon fill="midnightblue" stroke="midnightblue" points="655.827,-247.365 647.492,-253.905 658.086,-253.991 655.827,-247.365"/>
</g>
<!-- Node17 -->
<g id="node17" class="node"><title>Node17</title>
<g id="a_node17"><a xlink:href="../../dd/d05/classIG_1_1Lib_1_1WaitFileEventBaseByProxy.html" target="_top" xlink:title="Base class for classes that provide blocking until a file or directory is created/removed....">
<polygon fill="white" stroke="black" points="555,-98.5 555,-128.5 683,-128.5 683,-98.5 555,-98.5"/>
<text text-anchor="start" x="563" y="-116.5" font-family="Helvetica,sans-Serif" font-size="10.00">IG.Lib.WaitFileEventBase</text>
<text text-anchor="middle" x="619" y="-105.5" font-family="Helvetica,sans-Serif" font-size="10.00">ByProxy</text>
</a>
</g>
</g>
<!-- Node16&#45;&gt;Node17 -->
<g id="edge17" class="edge"><title>Node16&#45;&gt;Node17</title>
<path fill="none" stroke="midnightblue" d="M510.134,-140.015C525.6,-136.213 541.832,-132.223 556.871,-128.526"/>
<polygon fill="midnightblue" stroke="midnightblue" points="508.976,-136.695 500.101,-142.481 510.647,-143.492 508.976,-136.695"/>
</g>
<!-- Node18 -->
<g id="node18" class="node"><title>Node18</title>
<g id="a_node18"><a xlink:href="../../d5/d05/classIG_1_1Lib_1_1WaitDirectoryCreationByProxy.html" target="_top" xlink:title="Implements blocking until the specified directory is created (becomes existent). Directory is specifi...">
<polygon fill="white" stroke="black" points="742,-147.5 742,-177.5 882,-177.5 882,-147.5 742,-147.5"/>
<text text-anchor="start" x="750" y="-165.5" font-family="Helvetica,sans-Serif" font-size="10.00">IG.Lib.WaitDirectoryCreation</text>
<text text-anchor="middle" x="812" y="-154.5" font-family="Helvetica,sans-Serif" font-size="10.00">ByProxy</text>
</a>
</g>
</g>
<!-- Node17&#45;&gt;Node18 -->
<g id="edge18" class="edge"><title>Node17&#45;&gt;Node18</title>
<path fill="none" stroke="midnightblue" d="M688.408,-131.05C709.383,-136.431 732.257,-142.299 752.506,-147.494"/>
<polygon fill="midnightblue" stroke="midnightblue" points="689.16,-127.629 678.604,-128.535 687.421,-134.41 689.16,-127.629"/>
</g>
<!-- Node19 -->
<g id="node19" class="node"><title>Node19</title>
<g id="a_node19"><a xlink:href="../../d4/d92/classIG_1_1Lib_1_1WaitDirectoryRemovalByProxy.html" target="_top" xlink:title="Implements blocking until the specified directory is deleted (becomes nonexistent)....">
<polygon fill="white" stroke="black" points="741.5,-98.5 741.5,-128.5 882.5,-128.5 882.5,-98.5 741.5,-98.5"/>
<text text-anchor="start" x="749.5" y="-116.5" font-family="Helvetica,sans-Serif" font-size="10.00">IG.Lib.WaitDirectoryRemoval</text>
<text text-anchor="middle" x="812" y="-105.5" font-family="Helvetica,sans-Serif" font-size="10.00">ByProxy</text>
</a>
</g>
</g>
<!-- Node17&#45;&gt;Node19 -->
<g id="edge19" class="edge"><title>Node17&#45;&gt;Node19</title>
<path fill="none" stroke="midnightblue" d="M693.307,-113.5C709.104,-113.5 725.757,-113.5 741.407,-113.5"/>
<polygon fill="midnightblue" stroke="midnightblue" points="693.07,-110 683.07,-113.5 693.07,-117 693.07,-110"/>
</g>
<!-- Node20 -->
<g id="node20" class="node"><title>Node20</title>
<g id="a_node20"><a xlink:href="../../db/dbb/classIG_1_1Lib_1_1WaitFileCreationByProxy.html" target="_top" xlink:title="Implements blocking until the specified file is created (becomes existent). File is specified in cons...">
<polygon fill="white" stroke="black" points="747.5,-49.5 747.5,-79.5 876.5,-79.5 876.5,-49.5 747.5,-49.5"/>
<text text-anchor="start" x="755.5" y="-67.5" font-family="Helvetica,sans-Serif" font-size="10.00">IG.Lib.WaitFileCreationBy</text>
<text text-anchor="middle" x="812" y="-56.5" font-family="Helvetica,sans-Serif" font-size="10.00">Proxy</text>
</a>
</g>
</g>
<!-- Node17&#45;&gt;Node20 -->
<g id="edge20" class="edge"><title>Node17&#45;&gt;Node20</title>
<path fill="none" stroke="midnightblue" d="M688.408,-95.9502C709.383,-90.5694 732.257,-84.701 752.506,-79.5062"/>
<polygon fill="midnightblue" stroke="midnightblue" points="687.421,-92.5901 678.604,-98.4654 689.16,-99.3706 687.421,-92.5901"/>
</g>
<!-- Node21 -->
<g id="node21" class="node"><title>Node21</title>
<g id="a_node21"><a xlink:href="../../d2/d43/classIG_1_1Lib_1_1WaitFileRemovalByProxy.html" target="_top" xlink:title="Implements blocking until the specified file is deleted (becomes nonexistent). File is specified in c...">
<polygon fill="white" stroke="black" points="747,-0.5 747,-30.5 877,-30.5 877,-0.5 747,-0.5"/>
<text text-anchor="start" x="755" y="-18.5" font-family="Helvetica,sans-Serif" font-size="10.00">IG.Lib.WaitFileRemovalBy</text>
<text text-anchor="middle" x="812" y="-7.5" font-family="Helvetica,sans-Serif" font-size="10.00">Proxy</text>
</a>
</g>
</g>
<!-- Node17&#45;&gt;Node21 -->
<g id="edge21" class="edge"><title>Node17&#45;&gt;Node21</title>
<path fill="none" stroke="midnightblue" d="M648.214,-92.5623C670.997,-76.3948 704.361,-54.3477 736,-39.5 742.931,-36.2475 750.418,-33.2696 757.887,-30.6017"/>
<polygon fill="midnightblue" stroke="midnightblue" points="646.106,-89.767 640.026,-98.4436 650.19,-95.4524 646.106,-89.767"/>
</g>
</g>
</svg>
        <g id="navigator" transform="translate(0 0)" fill="#404254">
                <rect fill="#f2f5e9" fill-opacity="0.5" stroke="#606060" stroke-width=".5" x="0" y="0" width="60" height="60"/>
                <use id="zoomplus" xlink:href="#zoomPlus" x="17" y="9" onmousedown="handleZoom(evt,'in')"/>
                <use id="zoomminus" xlink:href="#zoomMin" x="42" y="9" onmousedown="handleZoom(evt,'out')"/>
                <use id="reset" xlink:href="#resetDef" x="30" y="36" onmousedown="handleReset()"/>
                <g id="arrowUp" xlink:href="#dirArrow" transform="translate(30 24)" onmousedown="handlePan(0,-1)">
                  <use xlink:href="#rim" fill="#404040">
                        <set attributeName="fill" to="#808080" begin="arrowUp.mouseover" end="arrowUp.mouseout"/>
                  </use>
                  <path fill="none" stroke="white" stroke-width="1.5" d="M0,-3.0v7 M-2.5,-0.5L0,-3.0L2.5,-0.5"/>
                </g>
                <g id="arrowRight" xlink:href="#dirArrow" transform="rotate(90) translate(36 -43)" onmousedown="handlePan(1,0)">
                  <use xlink:href="#rim" fill="#404040">
                        <set attributeName="fill" to="#808080" begin="arrowRight.mouseover" end="arrowRight.mouseout"/>
                  </use>
                  <path fill="none" stroke="white" stroke-width="1.5" d="M0,-3.0v7 M-2.5,-0.5L0,-3.0L2.5,-0.5"/>
                </g>
                <g id="arrowDown" xlink:href="#dirArrow" transform="rotate(180) translate(-30 -48)" onmousedown="handlePan(0,1)">
                  <use xlink:href="#rim" fill="#404040">
                        <set attributeName="fill" to="#808080" begin="arrowDown.mouseover" end="arrowDown.mouseout"/>
                  </use>
                  <path fill="none" stroke="white" stroke-width="1.5" d="M0,-3.0v7 M-2.5,-0.5L0,-3.0L2.5,-0.5"/>
                </g>
                <g id="arrowLeft" xlink:href="#dirArrow" transform="rotate(270) translate(-36 17)" onmousedown="handlePan(-1,0)">
                  <use xlink:href="#rim" fill="#404040">
                        <set attributeName="fill" to="#808080" begin="arrowLeft.mouseover" end="arrowLeft.mouseout"/>
                  </use>
                  <path fill="none" stroke="white" stroke-width="1.5" d="M0,-3.0v7 M-2.5,-0.5L0,-3.0L2.5,-0.5"/>
                </g>
        </g>
        <svg viewBox="0 0 15 15" width="100%" height="30px" preserveAspectRatio="xMaxYMin meet">
         <g id="arrow_out" transform="scale(0.3 0.3)">
          <a xlink:href="classIG_1_1Lib_1_1WaitConditionBase__inherit__graph_org.svg" target="_base">
           <rect id="button" ry="5" rx="5" y="6" x="6" height="38" width="38"
                fill="#f2f5e9" fill-opacity="0.5" stroke="#606060" stroke-width="1.0"/>
           <path id="arrow"
             d="M 11.500037,31.436501 C 11.940474,20.09759 22.043105,11.32322 32.158766,21.979434 L 37.068811,17.246167 C 37.068811,17.246167 37.088388,32 37.088388,32 L 22.160133,31.978069 C 22.160133,31.978069 26.997745,27.140456 26.997745,27.140456 C 18.528582,18.264221 13.291696,25.230495 11.500037,31.436501 z"
             style="fill:#404040;"/>
          </a>
         </g>
        </svg>
</svg>
