<?xml version="1.0" encoding="UTF-8" standalone="no"?>
<!DOCTYPE svg PUBLIC "-//W3C//DTD SVG 1.1//EN"
 "http://www.w3.org/Graphics/SVG/1.1/DTD/svg11.dtd">
<!-- Generated by graphviz version 2.38.0 (20140413.2041)
 -->
<!-- Title: IG.Lib.ApplicationBase Pages: 1 -->
<svg width="256pt" height="196pt"
 viewBox="0.00 0.00 256.00 196.00" xmlns="http://www.w3.org/2000/svg" xmlns:xlink="http://www.w3.org/1999/xlink">
<g id="graph0" class="graph" transform="scale(1 1) rotate(0) translate(4 192)">
<title>IG.Lib.ApplicationBase</title>
<polygon fill="white" stroke="none" points="-4,4 -4,-192 252,-192 252,4 -4,4"/>
<!-- Node1 -->
<g id="node1" class="node"><title>Node1</title>
<g id="a_node1"><a xlink:title="Base class for all application classes. Provides some basic functionality such as keeping information...">
<polygon fill="#bfbfbf" stroke="black" points="82.5,-56.5 82.5,-75.5 198.5,-75.5 198.5,-56.5 82.5,-56.5"/>
<text text-anchor="middle" x="140.5" y="-63.5" font-family="Helvetica,sans-Serif" font-size="10.00">IG.Lib.ApplicationBase</text>
</a>
</g>
</g>
<!-- Node4 -->
<g id="node4" class="node"><title>Node4</title>
<g id="a_node4"><a xlink:href="../../d0/da7/classIG_1_1App_1_1ApplicationIgShellBase.html" target="_top" xlink:title="Application class for the IGLib&#39;s shell application.">
<polygon fill="white" stroke="black" points="0,-0.5 0,-19.5 149,-19.5 149,-0.5 0,-0.5"/>
<text text-anchor="middle" x="74.5" y="-7.5" font-family="Helvetica,sans-Serif" font-size="10.00">IG.App.ApplicationIgShellBase</text>
</a>
</g>
</g>
<!-- Node1&#45;&gt;Node4 -->
<g id="edge4" class="edge"><title>Node1&#45;&gt;Node4</title>
<path fill="none" stroke="midnightblue" d="M121.946,-49.8197C110.122,-40.1452 95.2144,-27.9481 85.297,-19.8339"/>
<polygon fill="midnightblue" stroke="midnightblue" points="119.94,-52.7004 129.896,-56.324 124.373,-47.2827 119.94,-52.7004"/>
</g>
<!-- Node5 -->
<g id="node5" class="node"><title>Node5</title>
<g id="a_node5"><a xlink:href="../../d1/ddf/classIG_1_1Lib_1_1AppTest.html" target="_top" xlink:title=" ">
<polygon fill="white" stroke="black" points="167,-0.5 167,-19.5 248,-19.5 248,-0.5 167,-0.5"/>
<text text-anchor="middle" x="207.5" y="-7.5" font-family="Helvetica,sans-Serif" font-size="10.00">IG.Lib.AppTest</text>
</a>
</g>
</g>
<!-- Node1&#45;&gt;Node5 -->
<g id="edge5" class="edge"><title>Node1&#45;&gt;Node5</title>
<path fill="none" stroke="midnightblue" d="M159.335,-49.8197C171.338,-40.1452 186.472,-27.9481 196.539,-19.8339"/>
<polygon fill="midnightblue" stroke="midnightblue" points="156.854,-47.3236 151.265,-56.324 161.247,-52.7738 156.854,-47.3236"/>
</g>
<!-- Node2 -->
<g id="node2" class="node"><title>Node2</title>
<g id="a_node2"><a xlink:href="../../db/dc7/classIG_1_1Lib_1_1Module.html" target="_top" xlink:title="General module (or library) management class, a base class for specific module classes....">
<polygon fill="white" stroke="black" points="142.5,-112.5 142.5,-131.5 190.5,-131.5 190.5,-112.5 142.5,-112.5"/>
<text text-anchor="middle" x="166.5" y="-119.5" font-family="Helvetica,sans-Serif" font-size="10.00">Module</text>
</a>
</g>
</g>
<!-- Node2&#45;&gt;Node1 -->
<g id="edge1" class="edge"><title>Node2&#45;&gt;Node1</title>
<path fill="none" stroke="midnightblue" d="M157.825,-102.983C153.412,-93.8168 148.248,-83.0922 144.713,-75.7511"/>
<polygon fill="midnightblue" stroke="midnightblue" points="154.715,-104.591 162.207,-112.083 161.022,-101.555 154.715,-104.591"/>
</g>
<!-- Node3 -->
<g id="node3" class="node"><title>Node3</title>
<g id="a_node3"><a xlink:href="../../d3/db6/interfaceIG_1_1Lib_1_1ILockable.html" target="_top" xlink:title="Lockable object, has a Lock property that returns object on which lock must be performed in order to ...">
<polygon fill="white" stroke="black" points="111.5,-168.5 111.5,-187.5 169.5,-187.5 169.5,-168.5 111.5,-168.5"/>
<text text-anchor="middle" x="140.5" y="-175.5" font-family="Helvetica,sans-Serif" font-size="10.00">ILockable</text>
</a>
</g>
</g>
<!-- Node3&#45;&gt;Node1 -->
<g id="edge3" class="edge"><title>Node3&#45;&gt;Node1</title>
<path fill="none" stroke="midnightblue" d="M136.972,-158.547C135.592,-150.437 134.179,-140.78 133.5,-132 131.943,-111.857 135.935,-88.3006 138.513,-75.8158"/>
<polygon fill="midnightblue" stroke="midnightblue" points="133.534,-159.204 138.761,-168.419 140.422,-157.955 133.534,-159.204"/>
</g>
<!-- Node3&#45;&gt;Node2 -->
<g id="edge2" class="edge"><title>Node3&#45;&gt;Node2</title>
<path fill="none" stroke="midnightblue" d="M149.175,-158.983C153.588,-149.817 158.752,-139.092 162.287,-131.751"/>
<polygon fill="midnightblue" stroke="midnightblue" points="145.978,-157.555 144.793,-168.083 152.285,-160.591 145.978,-157.555"/>
</g>
</g>
</svg>
