<?xml version="1.0" encoding="UTF-8" standalone="no"?>
<!DOCTYPE svg PUBLIC "-//W3C//DTD SVG 1.1//EN"
 "http://www.w3.org/Graphics/SVG/1.1/DTD/svg11.dtd">
<!-- Generated by graphviz version 2.38.0 (20140413.2041)
 -->
<!-- Title: IG.Lib.NamedPipeClientBase Pages: 1 -->
<svg width="494pt" height="378pt"
 viewBox="0.00 0.00 494.00 378.00" xmlns="http://www.w3.org/2000/svg" xmlns:xlink="http://www.w3.org/1999/xlink">
<g id="graph0" class="graph" transform="scale(1 1) rotate(0) translate(4 374)">
<title>IG.Lib.NamedPipeClientBase</title>
<polygon fill="white" stroke="none" points="-4,4 -4,-374 490,-374 490,4 -4,4"/>
<!-- Node1 -->
<g id="node1" class="node"><title>Node1</title>
<g id="a_node1"><a xlink:title="Client to the pipe server (classes derived from IpcStreamClientServerBase2).">
<polygon fill="#bfbfbf" stroke="black" points="28.5,-0.5 28.5,-19.5 171.5,-19.5 171.5,-0.5 28.5,-0.5"/>
<text text-anchor="middle" x="100" y="-7.5" font-family="Helvetica,sans-Serif" font-size="10.00">IG.Lib.NamedPipeClientBase</text>
</a>
</g>
</g>
<!-- Node2 -->
<g id="node2" class="node"><title>Node2</title>
<g id="a_node2"><a xlink:href="../../da/d66/classIG_1_1Lib_1_1IpcStreamClientBase.html" target="_top" xlink:title="Client to the pipe server (classes derived from IpcStreamClientServerBase2).">
<polygon fill="white" stroke="black" points="46,-57.5 46,-76.5 154,-76.5 154,-57.5 46,-57.5"/>
<text text-anchor="middle" x="100" y="-64.5" font-family="Helvetica,sans-Serif" font-size="10.00">IpcStreamClientBase</text>
</a>
</g>
</g>
<!-- Node2&#45;&gt;Node1 -->
<g id="edge1" class="edge"><title>Node2&#45;&gt;Node1</title>
<path fill="none" stroke="midnightblue" d="M100,-47.1166C100,-37.8173 100,-27.0557 100,-19.7149"/>
<polygon fill="midnightblue" stroke="midnightblue" points="96.5001,-47.4062 100,-57.4063 103.5,-47.4063 96.5001,-47.4062"/>
</g>
<!-- Node3 -->
<g id="node3" class="node"><title>Node3</title>
<g id="a_node3"><a xlink:href="../../da/d2c/classIG_1_1Lib_1_1IpcStreamClientServerBase2.html" target="_top" xlink:title="Base class for named pipe servers and clients, contains common stuff for both.">
<polygon fill="white" stroke="black" points="75,-114.5 75,-133.5 215,-133.5 215,-114.5 75,-114.5"/>
<text text-anchor="middle" x="145" y="-121.5" font-family="Helvetica,sans-Serif" font-size="10.00">IpcStreamClientServerBase2</text>
</a>
</g>
</g>
<!-- Node3&#45;&gt;Node2 -->
<g id="edge2" class="edge"><title>Node3&#45;&gt;Node2</title>
<path fill="none" stroke="midnightblue" d="M131.526,-106.532C123.511,-96.7359 113.664,-84.701 107.13,-76.7149"/>
<polygon fill="midnightblue" stroke="midnightblue" points="128.927,-108.883 137.969,-114.406 134.345,-104.45 128.927,-108.883"/>
</g>
<!-- Node4 -->
<g id="node4" class="node"><title>Node4</title>
<g id="a_node4"><a xlink:href="../../d5/dd9/classIG_1_1Lib_1_1IpcStreamClientServerBase.html" target="_top" xlink:title="Base class for client and server classes with stream&#45;based communication.">
<polygon fill="white" stroke="black" points="104.5,-172.5 104.5,-191.5 239.5,-191.5 239.5,-172.5 104.5,-172.5"/>
<text text-anchor="middle" x="172" y="-179.5" font-family="Helvetica,sans-Serif" font-size="10.00">IpcStreamClientServerBase</text>
</a>
</g>
</g>
<!-- Node4&#45;&gt;Node3 -->
<g id="edge3" class="edge"><title>Node4&#45;&gt;Node3</title>
<path fill="none" stroke="midnightblue" d="M163.42,-163.204C158.632,-153.273 152.887,-141.358 149.101,-133.505"/>
<polygon fill="midnightblue" stroke="midnightblue" points="160.286,-164.762 167.781,-172.25 166.591,-161.722 160.286,-164.762"/>
</g>
<!-- Node5 -->
<g id="node5" class="node"><title>Node5</title>
<g id="a_node5"><a xlink:href="../../d3/db6/interfaceIG_1_1Lib_1_1ILockable.html" target="_top" xlink:title="Lockable object, has a Lock property that returns object on which lock must be performed in order to ...">
<polygon fill="white" stroke="black" points="28,-350.5 28,-369.5 86,-369.5 86,-350.5 28,-350.5"/>
<text text-anchor="middle" x="57" y="-357.5" font-family="Helvetica,sans-Serif" font-size="10.00">ILockable</text>
</a>
</g>
</g>
<!-- Node5&#45;&gt;Node1 -->
<g id="edge9" class="edge"><title>Node5&#45;&gt;Node1</title>
<path fill="none" stroke="midnightblue" d="M46.3958,-341.28C44.7999,-338.242 43.2668,-335.074 42,-332 15.7831,-268.388 0,-251.803 0,-183 0,-183 0,-183 0,-66 0,-40.7375 24.8051,-26.996 49.707,-19.5659"/>
<polygon fill="midnightblue" stroke="midnightblue" points="43.4998,-343.269 51.4615,-350.259 49.5966,-339.83 43.4998,-343.269"/>
</g>
<!-- Node5&#45;&gt;Node2 -->
<g id="edge8" class="edge"><title>Node5&#45;&gt;Node2</title>
<path fill="none" stroke="midnightblue" d="M53.5412,-340.112C46.6619,-297.801 34.4895,-192.939 66,-114 71.817,-99.4275 83.405,-85.3206 91.4245,-76.6555"/>
<polygon fill="midnightblue" stroke="midnightblue" points="50.1156,-340.843 55.2622,-350.104 57.014,-339.655 50.1156,-340.843"/>
</g>
<!-- Node5&#45;&gt;Node3 -->
<g id="edge6" class="edge"><title>Node5&#45;&gt;Node3</title>
<path fill="none" stroke="midnightblue" d="M57.0479,-340.215C57.9134,-304.814 63.5648,-226.774 95,-171 103.919,-155.176 120.201,-141.744 131.76,-133.552"/>
<polygon fill="midnightblue" stroke="midnightblue" points="53.5445,-340.445 56.9075,-350.492 60.5439,-340.541 53.5445,-340.445"/>
</g>
<!-- Node5&#45;&gt;Node4 -->
<g id="edge4" class="edge"><title>Node5&#45;&gt;Node4</title>
<path fill="none" stroke="midnightblue" d="M79.2919,-344.207C83.3544,-340.632 87.1896,-336.52 90,-332 119.145,-285.122 84.16,-254.609 118,-211 124.798,-202.24 135.104,-195.955 144.896,-191.589"/>
<polygon fill="midnightblue" stroke="midnightblue" points="77.1186,-341.463 71.4091,-350.388 81.438,-346.972 77.1186,-341.463"/>
</g>
<!-- Node6 -->
<g id="node6" class="node"><title>Node6</title>
<g id="a_node6"><a xlink:title=" ">
<polygon fill="white" stroke="#bfbfbf" points="255.5,-350.5 255.5,-369.5 296.5,-369.5 296.5,-350.5 255.5,-350.5"/>
<text text-anchor="middle" x="276" y="-357.5" font-family="Helvetica,sans-Serif" font-size="10.00">static</text>
</a>
</g>
</g>
<!-- Node6&#45;&gt;Node1 -->
<g id="edge10" class="edge"><title>Node6&#45;&gt;Node1</title>
<path fill="none" stroke="#9a32cd" stroke-dasharray="5,2" d="M294.155,-343.597C325.395,-315.262 386,-251.469 386,-183 386,-183 386,-183 386,-66 386,-22.453 256.519,-12.6072 171.801,-10.8258"/>
<polygon fill="#9a32cd" stroke="#9a32cd" points="291.721,-341.077 286.547,-350.322 296.358,-346.321 291.721,-341.077"/>
<text text-anchor="middle" x="436" y="-121.5" font-family="Helvetica,sans-Serif" font-size="10.00"> _defaultServerAddress</text>
</g>
<!-- Node6&#45;&gt;Node3 -->
<g id="edge7" class="edge"><title>Node6&#45;&gt;Node3</title>
<path fill="none" stroke="#9a32cd" stroke-dasharray="5,2" d="M279.422,-340.04C285.018,-302.514 291.531,-218.319 248,-171 230.498,-151.975 203.66,-140.339 181.768,-133.531"/>
<polygon fill="#9a32cd" stroke="#9a32cd" points="275.938,-339.661 277.772,-350.096 282.846,-340.795 275.938,-339.661"/>
<text text-anchor="middle" x="304" y="-185" font-family="Helvetica,sans-Serif" font-size="10.00"> _defaultPipeName</text>
<text text-anchor="middle" x="304" y="-174" font-family="Helvetica,sans-Serif" font-size="10.00">_defaultErrorBegin</text>
</g>
<!-- Node6&#45;&gt;Node4 -->
<g id="edge5" class="edge"><title>Node6&#45;&gt;Node4</title>
<path fill="none" stroke="#9a32cd" stroke-dasharray="5,2" d="M245.127,-357.244C209.43,-354.492 153.909,-347.746 141,-332 106.905,-290.411 119.165,-260.145 141,-211 144.534,-203.047 151.566,-196.397 158.041,-191.577"/>
<polygon fill="#9a32cd" stroke="#9a32cd" points="245.278,-360.763 255.5,-357.975 245.771,-353.78 245.278,-360.763"/>
<text text-anchor="middle" x="201.5" y="-324" font-family="Helvetica,sans-Serif" font-size="10.00"> _defaultMsgTestSpeed</text>
<text text-anchor="middle" x="201.5" y="-313" font-family="Helvetica,sans-Serif" font-size="10.00">_defaultStopRequest</text>
<text text-anchor="middle" x="201.5" y="-302" font-family="Helvetica,sans-Serif" font-size="10.00">_defaultMessagePrefix</text>
<text text-anchor="middle" x="201.5" y="-291" font-family="Helvetica,sans-Serif" font-size="10.00">_defaultMsgRequestBegin</text>
<text text-anchor="middle" x="201.5" y="-280" font-family="Helvetica,sans-Serif" font-size="10.00">_defaultMsgRequestEnd</text>
<text text-anchor="middle" x="201.5" y="-269" font-family="Helvetica,sans-Serif" font-size="10.00">_defaultMessageSeparator</text>
<text text-anchor="middle" x="201.5" y="-258" font-family="Helvetica,sans-Serif" font-size="10.00">_defaultStoppedResponse</text>
<text text-anchor="middle" x="201.5" y="-247" font-family="Helvetica,sans-Serif" font-size="10.00">_defaultMsgResponseEnd</text>
<text text-anchor="middle" x="201.5" y="-236" font-family="Helvetica,sans-Serif" font-size="10.00">_defaultIsMultilineResponse</text>
<text text-anchor="middle" x="201.5" y="-225" font-family="Helvetica,sans-Serif" font-size="10.00">_defaultMsgResponseBegin</text>
<text text-anchor="middle" x="201.5" y="-214" font-family="Helvetica,sans-Serif" font-size="10.00">...</text>
</g>
</g>
</svg>
