<?xml version="1.0" encoding="UTF-8" standalone="no"?>
<!DOCTYPE svg PUBLIC "-//W3C//DTD SVG 1.1//EN"
 "http://www.w3.org/Graphics/SVG/1.1/DTD/svg11.dtd">
<!-- Generated by graphviz version 2.38.0 (20140413.2041)
 -->
<!-- Title: IG.Lib.WaitFileCreationByProxy Pages: 1 -->
<svg width="583pt" height="502pt"
 viewBox="0.00 0.00 583.00 502.00" xmlns="http://www.w3.org/2000/svg" xmlns:xlink="http://www.w3.org/1999/xlink">
<g id="graph0" class="graph" transform="scale(1 1) rotate(0) translate(4 498)">
<title>IG.Lib.WaitFileCreationByProxy</title>
<polygon fill="white" stroke="none" points="-4,4 -4,-498 579,-498 579,4 -4,4"/>
<!-- Node1 -->
<g id="node1" class="node"><title>Node1</title>
<g id="a_node1"><a xlink:title="Implements blocking until the specified file is created (becomes existent). File is specified in cons...">
<polygon fill="#bfbfbf" stroke="black" points="442,-0.5 442,-30.5 571,-30.5 571,-0.5 442,-0.5"/>
<text text-anchor="start" x="450" y="-18.5" font-family="Helvetica,sans-Serif" font-size="10.00">IG.Lib.WaitFileCreationBy</text>
<text text-anchor="middle" x="506.5" y="-7.5" font-family="Helvetica,sans-Serif" font-size="10.00">Proxy</text>
</a>
</g>
</g>
<!-- Node2 -->
<g id="node2" class="node"><title>Node2</title>
<g id="a_node2"><a xlink:href="../../dd/d05/classIG_1_1Lib_1_1WaitFileEventBaseByProxy.html" target="_top" xlink:title="Base class for classes that provide blocking until a file or directory is created/removed....">
<polygon fill="white" stroke="black" points="438,-68.5 438,-87.5 575,-87.5 575,-68.5 438,-68.5"/>
<text text-anchor="middle" x="506.5" y="-75.5" font-family="Helvetica,sans-Serif" font-size="10.00">WaitFileEventBaseByProxy</text>
</a>
</g>
</g>
<!-- Node2&#45;&gt;Node1 -->
<g id="edge1" class="edge"><title>Node2&#45;&gt;Node1</title>
<path fill="none" stroke="midnightblue" d="M506.5,-58.2154C506.5,-49.3565 506.5,-38.9577 506.5,-30.7587"/>
<polygon fill="midnightblue" stroke="midnightblue" points="503,-58.3318 506.5,-68.3318 510,-58.3319 503,-58.3318"/>
</g>
<!-- Node3 -->
<g id="node3" class="node"><title>Node3</title>
<g id="a_node3"><a xlink:href="../../df/d44/classIG_1_1Lib_1_1WaitFileEventBaseByProxyLatence.html" target="_top" xlink:title="Base class for classes that provide blocking until a file or directory is created/removed....">
<polygon fill="white" stroke="black" points="341,-125.5 341,-155.5 478,-155.5 478,-125.5 341,-125.5"/>
<text text-anchor="start" x="349" y="-143.5" font-family="Helvetica,sans-Serif" font-size="10.00">WaitFileEventBaseByProxy</text>
<text text-anchor="middle" x="409.5" y="-132.5" font-family="Helvetica,sans-Serif" font-size="10.00">Latence</text>
</a>
</g>
</g>
<!-- Node3&#45;&gt;Node2 -->
<g id="edge2" class="edge"><title>Node3&#45;&gt;Node2</title>
<path fill="none" stroke="midnightblue" d="M440.803,-119.976C458.354,-109.029 479.356,-95.9299 492.808,-87.5399"/>
<polygon fill="midnightblue" stroke="midnightblue" points="438.63,-117.206 431.998,-125.468 442.335,-123.146 438.63,-117.206"/>
</g>
<!-- Node4 -->
<g id="node4" class="node"><title>Node4</title>
<g id="a_node4"><a xlink:href="../../df/dea/classIG_1_1Lib_1_1WaitConditionBase.html" target="_top" xlink:title="Base class for objects that perform waiting until a condition is fulfilled.">
<polygon fill="white" stroke="black" points="231.5,-317.5 231.5,-336.5 331.5,-336.5 331.5,-317.5 231.5,-317.5"/>
<text text-anchor="middle" x="281.5" y="-324.5" font-family="Helvetica,sans-Serif" font-size="10.00">WaitConditionBase</text>
</a>
</g>
</g>
<!-- Node4&#45;&gt;Node3 -->
<g id="edge3" class="edge"><title>Node4&#45;&gt;Node3</title>
<path fill="none" stroke="midnightblue" d="M259.542,-311.382C249.597,-303.415 238.88,-292.607 233.5,-280 225.008,-260.101 236.203,-212.804 244.5,-203 268.495,-174.647 306.88,-159.354 340.591,-151.111"/>
<polygon fill="midnightblue" stroke="midnightblue" points="257.473,-314.205 267.58,-317.382 261.66,-308.596 257.473,-314.205"/>
</g>
<!-- Node9 -->
<g id="node9" class="node"><title>Node9</title>
<g id="a_node9"><a xlink:href="../../da/d67/classIG_1_1Lib_1_1WaitCondition.html" target="_top" xlink:title="Provides a framework for blocking execution until the specified condition becomes satisfied....">
<polygon fill="white" stroke="black" points="243,-260.5 243,-279.5 320,-279.5 320,-260.5 243,-260.5"/>
<text text-anchor="middle" x="281.5" y="-267.5" font-family="Helvetica,sans-Serif" font-size="10.00">WaitCondition</text>
</a>
</g>
</g>
<!-- Node4&#45;&gt;Node9 -->
<g id="edge13" class="edge"><title>Node4&#45;&gt;Node9</title>
<path fill="none" stroke="midnightblue" d="M281.5,-307.117C281.5,-297.817 281.5,-287.056 281.5,-279.715"/>
<polygon fill="midnightblue" stroke="midnightblue" points="278,-307.406 281.5,-317.406 285,-307.406 278,-307.406"/>
</g>
<!-- Node5 -->
<g id="node5" class="node"><title>Node5</title>
<g id="a_node5"><a xlink:href="../../de/d1e/interfaceIG_1_1Lib_1_1IWaitCondition.html" target="_top" xlink:title="Interface for classes that implement blocking until a specified condition is met.">
<polygon fill="white" stroke="black" points="326.5,-374.5 326.5,-393.5 406.5,-393.5 406.5,-374.5 326.5,-374.5"/>
<text text-anchor="middle" x="366.5" y="-381.5" font-family="Helvetica,sans-Serif" font-size="10.00">IWaitCondition</text>
</a>
</g>
</g>
<!-- Node5&#45;&gt;Node4 -->
<g id="edge4" class="edge"><title>Node5&#45;&gt;Node4</title>
<path fill="none" stroke="midnightblue" d="M344.592,-368.824C328.799,-358.605 308.002,-345.148 294.688,-336.533"/>
<polygon fill="midnightblue" stroke="midnightblue" points="342.922,-371.912 353.219,-374.406 346.724,-366.035 342.922,-371.912"/>
</g>
<!-- Node7 -->
<g id="node7" class="node"><title>Node7</title>
<g id="a_node7"><a xlink:href="../../d2/d48/interfaceIG_1_1Lib_1_1IWaitFileEvent.html" target="_top" xlink:title="Interface for classes that provide waiting for specific file events (such as ceration or deletion of ...">
<polygon fill="white" stroke="black" points="412,-260.5 412,-279.5 491,-279.5 491,-260.5 412,-260.5"/>
<text text-anchor="middle" x="451.5" y="-267.5" font-family="Helvetica,sans-Serif" font-size="10.00">IWaitFileEvent</text>
</a>
</g>
</g>
<!-- Node5&#45;&gt;Node7 -->
<g id="edge8" class="edge"><title>Node5&#45;&gt;Node7</title>
<path fill="none" stroke="midnightblue" d="M394.93,-369.431C400.912,-365.672 406.82,-361.176 411.5,-356 432.611,-332.652 444.625,-296.196 449.26,-279.668"/>
<polygon fill="midnightblue" stroke="midnightblue" points="393.184,-366.398 386.247,-374.405 396.664,-372.472 393.184,-366.398"/>
</g>
<!-- Node8 -->
<g id="node8" class="node"><title>Node8</title>
<g id="a_node8"><a xlink:href="../../d4/d27/classIG_1_1Lib_1_1WaitFileEventLatenceBase.html" target="_top" xlink:title="Base class for classes that impelement methods that block until a file or directory is created or del...">
<polygon fill="white" stroke="black" points="253.5,-203.5 253.5,-222.5 415.5,-222.5 415.5,-203.5 253.5,-203.5"/>
<text text-anchor="middle" x="334.5" y="-210.5" font-family="Helvetica,sans-Serif" font-size="10.00">IG.Lib.WaitFileEventLatenceBase</text>
</a>
</g>
</g>
<!-- Node5&#45;&gt;Node8 -->
<g id="edge21" class="edge"><title>Node5&#45;&gt;Node8</title>
<path fill="none" stroke="midnightblue" d="M373.19,-364.416C373.724,-361.295 373.917,-358.072 373.5,-355 366.53,-303.658 345.903,-244.606 337.811,-222.734"/>
<polygon fill="midnightblue" stroke="midnightblue" points="369.758,-363.698 370.462,-374.269 376.504,-365.566 369.758,-363.698"/>
</g>
<!-- Node5&#45;&gt;Node9 -->
<g id="edge14" class="edge"><title>Node5&#45;&gt;Node9</title>
<path fill="none" stroke="midnightblue" d="M361.989,-364.197C357.98,-350.208 351.089,-331.166 340.5,-317 328.602,-301.083 309.851,-287.761 296.689,-279.618"/>
<polygon fill="midnightblue" stroke="midnightblue" points="358.676,-365.362 364.603,-374.144 365.447,-363.583 358.676,-365.362"/>
</g>
<!-- Node6 -->
<g id="node6" class="node"><title>Node6</title>
<g id="a_node6"><a xlink:href="../../d3/db6/interfaceIG_1_1Lib_1_1ILockable.html" target="_top" xlink:title="Lockable object, has a Lock property that returns object on which lock must be performed in order to ...">
<polygon fill="white" stroke="black" points="337.5,-474.5 337.5,-493.5 395.5,-493.5 395.5,-474.5 337.5,-474.5"/>
<text text-anchor="middle" x="366.5" y="-481.5" font-family="Helvetica,sans-Serif" font-size="10.00">ILockable</text>
</a>
</g>
</g>
<!-- Node6&#45;&gt;Node2 -->
<g id="edge23" class="edge"><title>Node6&#45;&gt;Node2</title>
<path fill="none" stroke="midnightblue" d="M405.725,-482.265C434.167,-480.117 472.557,-473.752 501.5,-456 535.759,-434.987 557.5,-425.19 557.5,-385 557.5,-385 557.5,-385 557.5,-139.5 557.5,-116.558 535.797,-97.8025 520.706,-87.5341"/>
<polygon fill="midnightblue" stroke="midnightblue" points="405.499,-478.773 395.733,-482.88 405.929,-485.759 405.499,-478.773"/>
</g>
<!-- Node6&#45;&gt;Node3 -->
<g id="edge10" class="edge"><title>Node6&#45;&gt;Node3</title>
<path fill="none" stroke="midnightblue" d="M405.483,-475.704C450.812,-464.703 519.5,-439.107 519.5,-385 519.5,-385 519.5,-385 519.5,-241 519.5,-199.799 476.531,-171.232 444.305,-155.601"/>
<polygon fill="midnightblue" stroke="midnightblue" points="404.606,-472.314 395.638,-477.956 406.167,-479.138 404.606,-472.314"/>
</g>
<!-- Node6&#45;&gt;Node4 -->
<g id="edge6" class="edge"><title>Node6&#45;&gt;Node4</title>
<path fill="none" stroke="midnightblue" d="M356.794,-465.419C346.893,-447.474 331.097,-418.812 317.5,-394 306.21,-373.397 292.998,-349.138 286.149,-336.549"/>
<polygon fill="midnightblue" stroke="midnightblue" points="353.862,-467.351 361.759,-474.415 359.991,-463.968 353.862,-467.351"/>
</g>
<!-- Node6&#45;&gt;Node5 -->
<g id="edge5" class="edge"><title>Node6&#45;&gt;Node5</title>
<path fill="none" stroke="midnightblue" d="M366.5,-464.22C366.5,-442.951 366.5,-409.22 366.5,-393.537"/>
<polygon fill="midnightblue" stroke="midnightblue" points="363,-464.303 366.5,-474.303 370,-464.303 363,-464.303"/>
</g>
<!-- Node6&#45;&gt;Node7 -->
<g id="edge9" class="edge"><title>Node6&#45;&gt;Node7</title>
<path fill="none" stroke="midnightblue" d="M377.269,-465.844C393.697,-439.119 425.243,-385.564 445.5,-337 452.482,-320.262 459.479,-316.027 457.5,-298 456.829,-291.89 455.329,-285.14 453.997,-279.918"/>
<polygon fill="midnightblue" stroke="midnightblue" points="374.247,-464.075 371.949,-474.418 380.195,-467.766 374.247,-464.075"/>
</g>
<!-- Node6&#45;&gt;Node9 -->
<g id="edge15" class="edge"><title>Node6&#45;&gt;Node9</title>
<path fill="none" stroke="midnightblue" d="M342.382,-469.194C336.294,-465.26 329.945,-460.744 324.5,-456 271.981,-410.238 246.668,-402.332 222.5,-337 219.416,-328.663 218.599,-324.987 222.5,-317 230.878,-299.844 249.089,-287.223 263.077,-279.586"/>
<polygon fill="midnightblue" stroke="midnightblue" points="340.632,-472.226 350.98,-474.5 344.308,-466.269 340.632,-472.226"/>
</g>
<!-- Node10 -->
<g id="node10" class="node"><title>Node10</title>
<g id="a_node10"><a xlink:href="../../de/de7/classIG_1_1Lib_1_1StopWatch1.html" target="_top" xlink:title="Timer for measuring execution times and other intervals of time elapsed between successive events....">
<polygon fill="white" stroke="black" points="64,-374.5 64,-393.5 163,-393.5 163,-374.5 64,-374.5"/>
<text text-anchor="middle" x="113.5" y="-381.5" font-family="Helvetica,sans-Serif" font-size="10.00">IG.Lib.StopWatch1</text>
</a>
</g>
</g>
<!-- Node6&#45;&gt;Node10 -->
<g id="edge17" class="edge"><title>Node6&#45;&gt;Node10</title>
<path fill="none" stroke="midnightblue" d="M327.327,-480.659C282.989,-477.37 214.115,-470.131 192.5,-456 173.099,-443.316 181.531,-427.723 164.5,-412 156.108,-404.253 145.077,-398.051 135.421,-393.555"/>
<polygon fill="midnightblue" stroke="midnightblue" points="327.259,-484.163 337.481,-481.376 327.752,-477.18 327.259,-484.163"/>
</g>
<!-- Node7&#45;&gt;Node2 -->
<g id="edge22" class="edge"><title>Node7&#45;&gt;Node2</title>
<path fill="none" stroke="midnightblue" d="M458.536,-250.462C459.558,-247.637 460.577,-244.748 461.5,-242 474.218,-204.149 476.936,-194.508 487.5,-156 494.276,-131.302 501.235,-101.846 504.535,-87.5832"/>
<polygon fill="midnightblue" stroke="midnightblue" points="455.175,-249.456 454.972,-260.049 461.737,-251.895 455.175,-249.456"/>
</g>
<!-- Node7&#45;&gt;Node3 -->
<g id="edge7" class="edge"><title>Node7&#45;&gt;Node3</title>
<path fill="none" stroke="midnightblue" d="M449.003,-250.305C445.973,-230.741 439.928,-199.397 429.5,-174 426.883,-167.626 423.091,-161.067 419.512,-155.526"/>
<polygon fill="midnightblue" stroke="midnightblue" points="445.557,-250.931 450.449,-260.329 452.485,-249.931 445.557,-250.931"/>
</g>
<!-- Node7&#45;&gt;Node8 -->
<g id="edge20" class="edge"><title>Node7&#45;&gt;Node8</title>
<path fill="none" stroke="midnightblue" d="M426.672,-255.641C417.569,-250.872 407.137,-245.556 397.5,-241 383.73,-234.49 367.98,-227.74 355.672,-222.617"/>
<polygon fill="midnightblue" stroke="midnightblue" points="425.111,-258.775 435.587,-260.357 428.384,-252.587 425.111,-258.775"/>
</g>
<!-- Node8&#45;&gt;Node3 -->
<g id="edge11" class="edge"><title>Node8&#45;&gt;Node3</title>
<path fill="none" stroke="#9a32cd" stroke-dasharray="5,2" d="M344.281,-194.779C348.699,-187.86 354.316,-180.096 360.5,-174 367.479,-167.121 376.115,-160.83 384.183,-155.655"/>
<polygon fill="#9a32cd" stroke="#9a32cd" points="341.217,-193.083 339.059,-203.455 347.215,-196.692 341.217,-193.083"/>
<text text-anchor="middle" x="395" y="-177" font-family="Helvetica,sans-Serif" font-size="10.00"> _waiterLatence</text>
</g>
<!-- Node9&#45;&gt;Node8 -->
<g id="edge12" class="edge"><title>Node9&#45;&gt;Node8</title>
<path fill="none" stroke="midnightblue" d="M296.8,-253.123C306.339,-243.224 318.251,-230.862 326.102,-222.715"/>
<polygon fill="midnightblue" stroke="midnightblue" points="294.2,-250.777 289.781,-260.406 299.24,-255.634 294.2,-250.777"/>
</g>
<!-- Node10&#45;&gt;Node9 -->
<g id="edge16" class="edge"><title>Node10&#45;&gt;Node9</title>
<path fill="none" stroke="#9a32cd" stroke-dasharray="5,2" d="M122.59,-365.661C130.663,-351.407 143.488,-331.3 158.5,-317 181.611,-294.985 216.23,-283.292 242.859,-277.215"/>
<polygon fill="#9a32cd" stroke="#9a32cd" points="119.511,-363.997 117.792,-374.451 125.655,-367.351 119.511,-363.997"/>
<text text-anchor="middle" x="174" y="-324.5" font-family="Helvetica,sans-Serif" font-size="10.00"> _timer</text>
</g>
<!-- Node11 -->
<g id="node11" class="node"><title>Node11</title>
<g id="a_node11"><a xlink:href="../../dc/d79/interfaceIG_1_1Lib_1_1IIdentifiable.html" target="_top" xlink:title="Classes whose instances have unique integer IDs.">
<polygon fill="white" stroke="black" points="0,-474.5 0,-493.5 65,-493.5 65,-474.5 0,-474.5"/>
<text text-anchor="middle" x="32.5" y="-481.5" font-family="Helvetica,sans-Serif" font-size="10.00">IIdentifiable</text>
</a>
</g>
</g>
<!-- Node11&#45;&gt;Node10 -->
<g id="edge18" class="edge"><title>Node11&#45;&gt;Node10</title>
<path fill="none" stroke="midnightblue" d="M46.121,-466.52C63.5255,-445.463 93.0039,-409.798 106.444,-393.537"/>
<polygon fill="midnightblue" stroke="midnightblue" points="43.3613,-464.365 39.6882,-474.303 48.7569,-468.825 43.3613,-464.365"/>
</g>
<!-- Node12 -->
<g id="node12" class="node"><title>Node12</title>
<g id="a_node12"><a xlink:title=" ">
<polygon fill="white" stroke="#bfbfbf" points="83,-474.5 83,-493.5 124,-493.5 124,-474.5 83,-474.5"/>
<text text-anchor="middle" x="103.5" y="-481.5" font-family="Helvetica,sans-Serif" font-size="10.00">static</text>
</a>
</g>
</g>
<!-- Node12&#45;&gt;Node10 -->
<g id="edge19" class="edge"><title>Node12&#45;&gt;Node10</title>
<path fill="none" stroke="#9a32cd" stroke-dasharray="5,2" d="M102.198,-464.054C101.587,-449.669 101.541,-429.455 104.5,-412 105.557,-405.764 107.807,-399.014 109.793,-393.823"/>
<polygon fill="#9a32cd" stroke="#9a32cd" points="98.7112,-464.387 102.762,-474.177 105.7,-463.998 98.7112,-464.387"/>
<text text-anchor="middle" x="134.5" y="-448" font-family="Helvetica,sans-Serif" font-size="10.00"> lastId</text>
<text text-anchor="middle" x="134.5" y="-437" font-family="Helvetica,sans-Serif" font-size="10.00">_staticLock</text>
<text text-anchor="middle" x="134.5" y="-426" font-family="Helvetica,sans-Serif" font-size="10.00">numWarnCpu</text>
<text text-anchor="middle" x="134.5" y="-415" font-family="Helvetica,sans-Serif" font-size="10.00">MaxWarnCpu</text>
</g>
</g>
</svg>
