<?xml version="1.0" encoding="UTF-8" standalone="no"?>
<!DOCTYPE svg PUBLIC "-//W3C//DTD SVG 1.1//EN"
 "http://www.w3.org/Graphics/SVG/1.1/DTD/svg11.dtd">
<!-- Generated by graphviz version 2.38.0 (20140413.2041)
 -->
<!-- Title: IG.Lib.Copy.ClientServerStreamBase2 Pages: 1 -->
<svg width="364pt" height="263pt"
 viewBox="0.00 0.00 364.00 263.00" xmlns="http://www.w3.org/2000/svg" xmlns:xlink="http://www.w3.org/1999/xlink">
<g id="graph0" class="graph" transform="scale(1 1) rotate(0) translate(4 259)">
<title>IG.Lib.Copy.ClientServerStreamBase2</title>
<polygon fill="white" stroke="none" points="-4,4 -4,-259 360,-259 360,4 -4,4"/>
<!-- Node1 -->
<g id="node1" class="node"><title>Node1</title>
<g id="a_node1"><a xlink:title="Base class for named pipe servers and clients, contains common stuff for both.">
<polygon fill="#bfbfbf" stroke="black" points="111,-112.5 111,-142.5 233,-142.5 233,-112.5 111,-112.5"/>
<text text-anchor="start" x="119" y="-130.5" font-family="Helvetica,sans-Serif" font-size="10.00">IG.Lib.Copy.ClientServer</text>
<text text-anchor="middle" x="172" y="-119.5" font-family="Helvetica,sans-Serif" font-size="10.00">StreamBase2</text>
</a>
</g>
</g>
<!-- Node4 -->
<g id="node4" class="node"><title>Node4</title>
<g id="a_node4"><a xlink:href="../../d2/d6f/classIG_1_1Lib_1_1Copy_1_1ClientStreamBase.html" target="_top" xlink:title="Client to the pipe server (classes derived from ClientServerStreamBase2).">
<polygon fill="white" stroke="black" points="13.5,-56.5 13.5,-75.5 162.5,-75.5 162.5,-56.5 13.5,-56.5"/>
<text text-anchor="middle" x="88" y="-63.5" font-family="Helvetica,sans-Serif" font-size="10.00">IG.Lib.Copy.ClientStreamBase</text>
</a>
</g>
</g>
<!-- Node1&#45;&gt;Node4 -->
<g id="edge4" class="edge"><title>Node1&#45;&gt;Node4</title>
<path fill="none" stroke="midnightblue" d="M143.741,-106.483C128.943,-96.0013 111.588,-83.7081 100.223,-75.6578"/>
<polygon fill="midnightblue" stroke="midnightblue" points="141.91,-109.475 152.093,-112.399 145.956,-103.763 141.91,-109.475"/>
</g>
<!-- Node6 -->
<g id="node6" class="node"><title>Node6</title>
<g id="a_node6"><a xlink:href="../../de/dc2/classIG_1_1Lib_1_1Copy_1_1ServerStreamBase.html" target="_top" xlink:title="Server that creates a named pipe, listens on its input stream, and sends responses to the client.">
<polygon fill="white" stroke="black" points="190,-56.5 190,-75.5 342,-75.5 342,-56.5 190,-56.5"/>
<text text-anchor="middle" x="266" y="-63.5" font-family="Helvetica,sans-Serif" font-size="10.00">IG.Lib.Copy.ServerStreamBase</text>
</a>
</g>
</g>
<!-- Node1&#45;&gt;Node6 -->
<g id="edge6" class="edge"><title>Node1&#45;&gt;Node6</title>
<path fill="none" stroke="midnightblue" d="M203.16,-106.776C219.819,-96.2315 239.485,-83.7834 252.322,-75.6578"/>
<polygon fill="midnightblue" stroke="midnightblue" points="200.854,-104.094 194.277,-112.399 204.598,-110.008 200.854,-104.094"/>
</g>
<!-- Node2 -->
<g id="node2" class="node"><title>Node2</title>
<g id="a_node2"><a xlink:href="../../d5/d2f/classIG_1_1Lib_1_1Copy_1_1ClienServerStreamBase.html" target="_top" xlink:title="Base class for client and server classes with stream&#45;based communication.">
<polygon fill="white" stroke="black" points="156.5,-179.5 156.5,-198.5 275.5,-198.5 275.5,-179.5 156.5,-179.5"/>
<text text-anchor="middle" x="216" y="-186.5" font-family="Helvetica,sans-Serif" font-size="10.00">ClienServerStreamBase</text>
</a>
</g>
</g>
<!-- Node2&#45;&gt;Node1 -->
<g id="edge1" class="edge"><title>Node2&#45;&gt;Node1</title>
<path fill="none" stroke="midnightblue" d="M203.611,-171.247C196.911,-162.187 188.73,-151.124 182.37,-142.523"/>
<polygon fill="midnightblue" stroke="midnightblue" points="200.936,-173.516 209.696,-179.475 206.564,-169.354 200.936,-173.516"/>
</g>
<!-- Node3 -->
<g id="node3" class="node"><title>Node3</title>
<g id="a_node3"><a xlink:href="../../d3/db6/interfaceIG_1_1Lib_1_1ILockable.html" target="_top" xlink:title="Lockable object, has a Lock property that returns object on which lock must be performed in order to ...">
<polygon fill="white" stroke="black" points="143,-235.5 143,-254.5 201,-254.5 201,-235.5 143,-235.5"/>
<text text-anchor="middle" x="172" y="-242.5" font-family="Helvetica,sans-Serif" font-size="10.00">ILockable</text>
</a>
</g>
</g>
<!-- Node3&#45;&gt;Node1 -->
<g id="edge3" class="edge"><title>Node3&#45;&gt;Node1</title>
<path fill="none" stroke="midnightblue" d="M159.759,-226.834C154.753,-218.788 149.546,-208.825 147,-199 141.821,-179.012 152.719,-156.657 161.721,-142.586"/>
<polygon fill="midnightblue" stroke="midnightblue" points="156.92,-228.886 165.371,-235.275 162.749,-225.01 156.92,-228.886"/>
</g>
<!-- Node3&#45;&gt;Node2 -->
<g id="edge2" class="edge"><title>Node3&#45;&gt;Node2</title>
<path fill="none" stroke="midnightblue" d="M185.735,-227.144C193.401,-217.736 202.633,-206.405 208.869,-198.751"/>
<polygon fill="midnightblue" stroke="midnightblue" points="182.869,-225.12 179.266,-235.083 188.296,-229.541 182.869,-225.12"/>
</g>
<!-- Node5 -->
<g id="node5" class="node"><title>Node5</title>
<g id="a_node5"><a xlink:href="../../d7/d21/classIG_1_1Lib_1_1Copy_1_1NamedPipeClientBase.html" target="_top" xlink:title="Client to the pipe server (classes derived from ClientServerStreamBase2).">
<polygon fill="white" stroke="black" points="0,-0.5 0,-19.5 168,-19.5 168,-0.5 0,-0.5"/>
<text text-anchor="middle" x="84" y="-7.5" font-family="Helvetica,sans-Serif" font-size="10.00">IG.Lib.Copy.NamedPipeClientBase</text>
</a>
</g>
</g>
<!-- Node4&#45;&gt;Node5 -->
<g id="edge5" class="edge"><title>Node4&#45;&gt;Node5</title>
<path fill="none" stroke="midnightblue" d="M86.6,-46.1005C85.936,-37.1357 85.1747,-26.8579 84.6482,-19.7511"/>
<polygon fill="midnightblue" stroke="midnightblue" points="83.1102,-46.3689 87.3395,-56.083 90.0911,-45.8517 83.1102,-46.3689"/>
</g>
<!-- Node7 -->
<g id="node7" class="node"><title>Node7</title>
<g id="a_node7"><a xlink:href="../../dc/dc6/classIG_1_1Lib_1_1Copy_1_1NamedPipeServerBase.html" target="_top" xlink:title="Server that creates a named pipe, listens on its input stream, and sends responses to the client.">
<polygon fill="white" stroke="black" points="186,-0.5 186,-19.5 356,-19.5 356,-0.5 186,-0.5"/>
<text text-anchor="middle" x="271" y="-7.5" font-family="Helvetica,sans-Serif" font-size="10.00">IG.Lib.Copy.NamedPipeServerBase</text>
</a>
</g>
</g>
<!-- Node6&#45;&gt;Node7 -->
<g id="edge7" class="edge"><title>Node6&#45;&gt;Node7</title>
<path fill="none" stroke="midnightblue" d="M267.75,-46.1005C268.58,-37.1357 269.532,-26.8579 270.19,-19.7511"/>
<polygon fill="midnightblue" stroke="midnightblue" points="264.263,-45.8029 266.826,-56.083 271.233,-46.4483 264.263,-45.8029"/>
</g>
</g>
</svg>
