<?xml version="1.0" encoding="UTF-8" standalone="no"?>
<!DOCTYPE svg PUBLIC "-//W3C//DTD SVG 1.1//EN"
 "http://www.w3.org/Graphics/SVG/1.1/DTD/svg11.dtd">
<!-- Generated by graphviz version 2.38.0 (20140413.2041)
 -->
<!-- Title: IG.Num.RandomGeneratorSystem Pages: 1 -->
<svg width="216pt" height="84pt"
 viewBox="0.00 0.00 216.00 84.00" xmlns="http://www.w3.org/2000/svg" xmlns:xlink="http://www.w3.org/1999/xlink">
<g id="graph0" class="graph" transform="scale(1 1) rotate(0) translate(4 80)">
<title>IG.Num.RandomGeneratorSystem</title>
<polygon fill="white" stroke="none" points="-4,4 -4,-80 212,-80 212,4 -4,4"/>
<!-- Node1 -->
<g id="node1" class="node"><title>Node1</title>
<g id="a_node1"><a xlink:title="Generator of uniformly distributed random numbers. Based on system random generator....">
<polygon fill="#bfbfbf" stroke="black" points="19.5,-0.5 19.5,-19.5 184.5,-19.5 184.5,-0.5 19.5,-0.5"/>
<text text-anchor="middle" x="102" y="-7.5" font-family="Helvetica,sans-Serif" font-size="10.00">IG.Num.RandomGeneratorSystem</text>
</a>
</g>
</g>
<!-- Node2 -->
<g id="node2" class="node"><title>Node2</title>
<g id="a_node2"><a xlink:title=" ">
<polygon fill="white" stroke="#bfbfbf" points="0,-56.5 0,-75.5 92,-75.5 92,-56.5 0,-56.5"/>
<text text-anchor="middle" x="46" y="-63.5" font-family="Helvetica,sans-Serif" font-size="10.00">System::Random</text>
</a>
</g>
</g>
<!-- Node2&#45;&gt;Node1 -->
<g id="edge1" class="edge"><title>Node2&#45;&gt;Node1</title>
<path fill="none" stroke="midnightblue" d="M62.3299,-49.2533C72.265,-39.6731 84.5875,-27.7906 92.8389,-19.8339"/>
<polygon fill="midnightblue" stroke="midnightblue" points="59.7664,-46.8631 54.9974,-56.324 64.6253,-51.902 59.7664,-46.8631"/>
</g>
<!-- Node3 -->
<g id="node3" class="node"><title>Node3</title>
<g id="a_node3"><a xlink:href="../../d4/d43/interfaceIG_1_1Num_1_1IRandomGenerator.html" target="_top" xlink:title="Uniform random number generator.">
<polygon fill="white" stroke="black" points="110,-56.5 110,-75.5 208,-75.5 208,-56.5 110,-56.5"/>
<text text-anchor="middle" x="159" y="-63.5" font-family="Helvetica,sans-Serif" font-size="10.00">IRandomGenerator</text>
</a>
</g>
</g>
<!-- Node3&#45;&gt;Node1 -->
<g id="edge2" class="edge"><title>Node3&#45;&gt;Node1</title>
<path fill="none" stroke="midnightblue" d="M142.379,-49.2533C132.266,-39.6731 119.723,-27.7906 111.325,-19.8339"/>
<polygon fill="midnightblue" stroke="midnightblue" points="140.175,-51.9873 149.842,-56.324 144.99,-46.9056 140.175,-51.9873"/>
</g>
</g>
</svg>
