<?xml version="1.0" encoding="UTF-8" standalone="no"?>
<!DOCTYPE svg PUBLIC "-//W3C//DTD SVG 1.1//EN"
 "http://www.w3.org/Graphics/SVG/1.1/DTD/svg11.dtd">
<!-- Generated by graphviz version 2.38.0 (20140413.2041)
 -->
<!-- Title: IG.Num.AffineTransformationSquare Pages: 1 -->
<svg width="192pt" height="162pt"
 viewBox="0.00 0.00 191.50 162.00" xmlns="http://www.w3.org/2000/svg" xmlns:xlink="http://www.w3.org/1999/xlink">
<g id="graph0" class="graph" transform="scale(1 1) rotate(0) translate(4 158)">
<title>IG.Num.AffineTransformationSquare</title>
<polygon fill="white" stroke="none" points="-4,4 -4,-158 187.5,-158 187.5,4 -4,4"/>
<!-- Node1 -->
<g id="node1" class="node"><title>Node1</title>
<g id="a_node1"><a xlink:title="Invertible Affine transformation with square transformation matrix.">
<polygon fill="#bfbfbf" stroke="black" points="33.5,-67.5 33.5,-97.5 173.5,-97.5 173.5,-67.5 33.5,-67.5"/>
<text text-anchor="start" x="41.5" y="-85.5" font-family="Helvetica,sans-Serif" font-size="10.00">IG.Num.AffineTransformation</text>
<text text-anchor="middle" x="103.5" y="-74.5" font-family="Helvetica,sans-Serif" font-size="10.00">Square</text>
</a>
</g>
</g>
<!-- Node4 -->
<g id="node4" class="node"><title>Node4</title>
<g id="a_node4"><a xlink:href="../../d6/d8b/classIG_1_1Num_1_1AffineTransformationDiagonal.html" target="_top" xlink:title="Affine transformation with diagonal tansformation matrix.">
<polygon fill="white" stroke="black" points="33.5,-0.5 33.5,-30.5 173.5,-30.5 173.5,-0.5 33.5,-0.5"/>
<text text-anchor="start" x="41.5" y="-18.5" font-family="Helvetica,sans-Serif" font-size="10.00">IG.Num.AffineTransformation</text>
<text text-anchor="middle" x="103.5" y="-7.5" font-family="Helvetica,sans-Serif" font-size="10.00">Diagonal</text>
</a>
</g>
</g>
<!-- Node1&#45;&gt;Node4 -->
<g id="edge3" class="edge"><title>Node1&#45;&gt;Node4</title>
<path fill="none" stroke="midnightblue" d="M103.5,-57.1081C103.5,-48.1539 103.5,-38.3227 103.5,-30.5765"/>
<polygon fill="midnightblue" stroke="midnightblue" points="100,-57.3959 103.5,-67.396 107,-57.396 100,-57.3959"/>
</g>
<!-- Node2 -->
<g id="node2" class="node"><title>Node2</title>
<g id="a_node2"><a xlink:href="../../d5/d50/interfaceIG_1_1Num_1_1IAffineTransformation.html" target="_top" xlink:title="Affine Transformation.">
<polygon fill="white" stroke="black" points="0,-134.5 0,-153.5 107,-153.5 107,-134.5 0,-134.5"/>
<text text-anchor="middle" x="53.5" y="-141.5" font-family="Helvetica,sans-Serif" font-size="10.00">IAffineTransformation</text>
</a>
</g>
</g>
<!-- Node2&#45;&gt;Node1 -->
<g id="edge1" class="edge"><title>Node2&#45;&gt;Node1</title>
<path fill="none" stroke="midnightblue" d="M67.1044,-126.811C74.8037,-117.649 84.3376,-106.303 91.716,-97.523"/>
<polygon fill="midnightblue" stroke="midnightblue" points="64.4177,-124.568 60.6638,-134.475 69.7768,-129.071 64.4177,-124.568"/>
</g>
<!-- Node3 -->
<g id="node3" class="node"><title>Node3</title>
<g id="a_node3"><a xlink:href="../../d3/db6/interfaceIG_1_1Lib_1_1ILockable.html" target="_top" xlink:title="Lockable object, has a Lock property that returns object on which lock must be performed in order to ...">
<polygon fill="white" stroke="black" points="125.5,-134.5 125.5,-153.5 183.5,-153.5 183.5,-134.5 125.5,-134.5"/>
<text text-anchor="middle" x="154.5" y="-141.5" font-family="Helvetica,sans-Serif" font-size="10.00">ILockable</text>
</a>
</g>
</g>
<!-- Node3&#45;&gt;Node1 -->
<g id="edge2" class="edge"><title>Node3&#45;&gt;Node1</title>
<path fill="none" stroke="midnightblue" d="M140.624,-126.811C132.77,-117.649 123.046,-106.303 115.52,-97.523"/>
<polygon fill="midnightblue" stroke="midnightblue" points="138.028,-129.16 147.193,-134.475 143.342,-124.605 138.028,-129.16"/>
</g>
</g>
</svg>
