<?xml version="1.0" encoding="UTF-8" standalone="no"?>
<!DOCTYPE svg PUBLIC "-//W3C//DTD SVG 1.1//EN"
 "http://www.w3.org/Graphics/SVG/1.1/DTD/svg11.dtd">
<!-- Generated by graphviz version 2.38.0 (20140413.2041)
 -->
<!-- Title: IG.Num.ScalarFunctionLinear Pages: 1 -->
<svg width="221pt" height="140pt"
 viewBox="0.00 0.00 221.00 140.00" xmlns="http://www.w3.org/2000/svg" xmlns:xlink="http://www.w3.org/1999/xlink">
<g id="graph0" class="graph" transform="scale(1 1) rotate(0) translate(4 136)">
<title>IG.Num.ScalarFunctionLinear</title>
<polygon fill="white" stroke="none" points="-4,4 -4,-136 217,-136 217,4 -4,4"/>
<!-- Node1 -->
<g id="node1" class="node"><title>Node1</title>
<g id="a_node1"><a xlink:title="Linear scalar function of vector variable. Function is evaluated according to q(x) = b^T*x + c where ...">
<polygon fill="#bfbfbf" stroke="black" points="1.5,-0.5 1.5,-19.5 145.5,-19.5 145.5,-0.5 1.5,-0.5"/>
<text text-anchor="middle" x="73.5" y="-7.5" font-family="Helvetica,sans-Serif" font-size="10.00">IG.Num.ScalarFunctionLinear</text>
</a>
</g>
</g>
<!-- Node2 -->
<g id="node2" class="node"><title>Node2</title>
<g id="a_node2"><a xlink:href="../../d2/d9e/classIG_1_1Num_1_1ScalarFunctionUntransformedBase.html" target="_top" xlink:title="Base class for defining scalar functions without possibility of affine transformation of parameters.">
<polygon fill="white" stroke="black" points="46,-56.5 46,-75.5 213,-75.5 213,-56.5 46,-56.5"/>
<text text-anchor="middle" x="129.5" y="-63.5" font-family="Helvetica,sans-Serif" font-size="10.00">ScalarFunctionUntransformedBase</text>
</a>
</g>
</g>
<!-- Node2&#45;&gt;Node1 -->
<g id="edge1" class="edge"><title>Node2&#45;&gt;Node1</title>
<path fill="none" stroke="midnightblue" d="M113.17,-49.2533C103.235,-39.6731 90.9125,-27.7906 82.6611,-19.8339"/>
<polygon fill="midnightblue" stroke="midnightblue" points="110.875,-51.902 120.503,-56.324 115.734,-46.8631 110.875,-51.902"/>
</g>
<!-- Node3 -->
<g id="node3" class="node"><title>Node3</title>
<g id="a_node3"><a xlink:href="../../d8/d56/interfaceIG_1_1Num_1_1IScalarFunctionUntransformed.html" target="_top" xlink:title="Scalar functions of vector arguments.">
<polygon fill="white" stroke="black" points="0,-112.5 0,-131.5 147,-131.5 147,-112.5 0,-112.5"/>
<text text-anchor="middle" x="73.5" y="-119.5" font-family="Helvetica,sans-Serif" font-size="10.00">IScalarFunctionUntransformed</text>
</a>
</g>
</g>
<!-- Node3&#45;&gt;Node1 -->
<g id="edge3" class="edge"><title>Node3&#45;&gt;Node1</title>
<path fill="none" stroke="midnightblue" d="M56.0998,-104.819C48.8665,-96.916 41.2852,-86.7906 37.5,-76 29.9849,-54.576 49.8187,-31.8874 62.9487,-19.7991"/>
<polygon fill="midnightblue" stroke="midnightblue" points="53.8326,-107.506 63.3379,-112.185 58.8256,-102.6 53.8326,-107.506"/>
</g>
<!-- Node3&#45;&gt;Node2 -->
<g id="edge2" class="edge"><title>Node3&#45;&gt;Node2</title>
<path fill="none" stroke="midnightblue" d="M89.8299,-105.253C99.765,-95.6731 112.088,-83.7906 120.339,-75.8339"/>
<polygon fill="midnightblue" stroke="midnightblue" points="87.2664,-102.863 82.4974,-112.324 92.1253,-107.902 87.2664,-102.863"/>
</g>
</g>
</svg>
