<?xml version="1.0" encoding="UTF-8" standalone="no"?>
<!DOCTYPE svg PUBLIC "-//W3C//DTD SVG 1.1//EN"
 "http://www.w3.org/Graphics/SVG/1.1/DTD/svg11.dtd">
<!-- Generated by graphviz version 2.38.0 (20140413.2041)
 -->
<!-- Title: IG.Num.Func2dExamples.Func2dXY Pages: 1 -->
<svg width="365pt" height="252pt"
 viewBox="0.00 0.00 365.00 252.00" xmlns="http://www.w3.org/2000/svg" xmlns:xlink="http://www.w3.org/1999/xlink">
<g id="graph0" class="graph" transform="scale(1 1) rotate(0) translate(4 248)">
<title>IG.Num.Func2dExamples.Func2dXY</title>
<polygon fill="white" stroke="none" points="-4,4 -4,-248 361,-248 361,4 -4,4"/>
<!-- Node1 -->
<g id="node1" class="node"><title>Node1</title>
<g id="a_node1"><a xlink:title="Function f(x, y) = x * y.">
<polygon fill="#bfbfbf" stroke="black" points="116.5,-0.5 116.5,-19.5 292.5,-19.5 292.5,-0.5 116.5,-0.5"/>
<text text-anchor="middle" x="204.5" y="-7.5" font-family="Helvetica,sans-Serif" font-size="10.00">IG.Num.Func2dExamples.Func2dXY</text>
</a>
</g>
</g>
<!-- Node2 -->
<g id="node2" class="node"><title>Node2</title>
<g id="a_node2"><a xlink:href="../../da/dee/classIG_1_1Num_1_1Func2dBaseNoHessian.html" target="_top" xlink:title="Base class for scalar functions of 2 variables (implementations of the IFunc2d interface)....">
<polygon fill="white" stroke="black" points="145,-56.5 145,-75.5 264,-75.5 264,-56.5 145,-56.5"/>
<text text-anchor="middle" x="204.5" y="-63.5" font-family="Helvetica,sans-Serif" font-size="10.00">Func2dBaseNoHessian</text>
</a>
</g>
</g>
<!-- Node2&#45;&gt;Node1 -->
<g id="edge1" class="edge"><title>Node2&#45;&gt;Node1</title>
<path fill="none" stroke="midnightblue" d="M204.5,-45.8045C204.5,-36.9102 204.5,-26.7798 204.5,-19.7511"/>
<polygon fill="midnightblue" stroke="midnightblue" points="201,-46.083 204.5,-56.083 208,-46.083 201,-46.083"/>
</g>
<!-- Node3 -->
<g id="node3" class="node"><title>Node3</title>
<g id="a_node3"><a xlink:href="../../da/d29/classIG_1_1Num_1_1Func2dBase.html" target="_top" xlink:title="Base class for scalar functions of 2 variables (base for implementation of IFunc2d interface).">
<polygon fill="white" stroke="black" points="169,-112.5 169,-131.5 240,-131.5 240,-112.5 169,-112.5"/>
<text text-anchor="middle" x="204.5" y="-119.5" font-family="Helvetica,sans-Serif" font-size="10.00">Func2dBase</text>
</a>
</g>
</g>
<!-- Node3&#45;&gt;Node2 -->
<g id="edge2" class="edge"><title>Node3&#45;&gt;Node2</title>
<path fill="none" stroke="midnightblue" d="M204.5,-101.805C204.5,-92.9102 204.5,-82.7798 204.5,-75.7511"/>
<polygon fill="midnightblue" stroke="midnightblue" points="201,-102.083 204.5,-112.083 208,-102.083 201,-102.083"/>
</g>
<!-- Node4 -->
<g id="node4" class="node"><title>Node4</title>
<g id="a_node4"><a xlink:href="../../d2/d9e/classIG_1_1Num_1_1ScalarFunctionUntransformedBase.html" target="_top" xlink:title="Base class for defining scalar functions without possibility of affine transformation of parameters.">
<polygon fill="white" stroke="black" points="121,-168.5 121,-187.5 288,-187.5 288,-168.5 121,-168.5"/>
<text text-anchor="middle" x="204.5" y="-175.5" font-family="Helvetica,sans-Serif" font-size="10.00">ScalarFunctionUntransformedBase</text>
</a>
</g>
</g>
<!-- Node4&#45;&gt;Node3 -->
<g id="edge3" class="edge"><title>Node4&#45;&gt;Node3</title>
<path fill="none" stroke="midnightblue" d="M204.5,-157.805C204.5,-148.91 204.5,-138.78 204.5,-131.751"/>
<polygon fill="midnightblue" stroke="midnightblue" points="201,-158.083 204.5,-168.083 208,-158.083 201,-158.083"/>
</g>
<!-- Node5 -->
<g id="node5" class="node"><title>Node5</title>
<g id="a_node5"><a xlink:href="../../d8/d56/interfaceIG_1_1Num_1_1IScalarFunctionUntransformed.html" target="_top" xlink:title="Scalar functions of vector arguments.">
<polygon fill="white" stroke="black" points="0,-224.5 0,-243.5 147,-243.5 147,-224.5 0,-224.5"/>
<text text-anchor="middle" x="73.5" y="-231.5" font-family="Helvetica,sans-Serif" font-size="10.00">IScalarFunctionUntransformed</text>
</a>
</g>
</g>
<!-- Node5&#45;&gt;Node1 -->
<g id="edge10" class="edge"><title>Node5&#45;&gt;Node1</title>
<path fill="none" stroke="midnightblue" d="M73.405,-214.234C73.7773,-201.066 75.1725,-183.172 79.5,-168 94.7649,-114.481 98.4583,-97.5355 135.5,-56 149.778,-39.9895 171.013,-27.2918 186.151,-19.5215"/>
<polygon fill="midnightblue" stroke="midnightblue" points="69.9034,-214.364 73.2931,-224.402 76.903,-214.441 69.9034,-214.364"/>
</g>
<!-- Node5&#45;&gt;Node2 -->
<g id="edge8" class="edge"><title>Node5&#45;&gt;Node2</title>
<path fill="none" stroke="midnightblue" d="M76.1559,-214.276C78.7344,-200.64 83.6104,-182.157 92.5,-168 118.815,-126.091 167.321,-91.0122 190.908,-75.5214"/>
<polygon fill="midnightblue" stroke="midnightblue" points="72.662,-213.953 74.4926,-224.389 79.5692,-215.089 72.662,-213.953"/>
</g>
<!-- Node5&#45;&gt;Node3 -->
<g id="edge6" class="edge"><title>Node5&#45;&gt;Node3</title>
<path fill="none" stroke="midnightblue" d="M80.4905,-215.086C86.8049,-200.823 97.2889,-181.139 111.5,-168 130.202,-150.709 156.77,-138.755 176.724,-131.537"/>
<polygon fill="midnightblue" stroke="midnightblue" points="77.2492,-213.765 76.6359,-224.342 83.7112,-216.456 77.2492,-213.765"/>
</g>
<!-- Node5&#45;&gt;Node4 -->
<g id="edge4" class="edge"><title>Node5&#45;&gt;Node4</title>
<path fill="none" stroke="midnightblue" d="M103.817,-220.503C128.376,-210.38 162.318,-196.388 183.84,-187.516"/>
<polygon fill="midnightblue" stroke="midnightblue" points="102.169,-217.397 94.2573,-224.444 104.837,-223.868 102.169,-217.397"/>
</g>
<!-- Node6 -->
<g id="node6" class="node"><title>Node6</title>
<g id="a_node6"><a xlink:href="../../d8/d15/interfaceIG_1_1Num_1_1IFunc2d.html" target="_top" xlink:title="Represents scalar functions of 2 variables.">
<polygon fill="white" stroke="black" points="306,-168.5 306,-187.5 357,-187.5 357,-168.5 306,-168.5"/>
<text text-anchor="middle" x="331.5" y="-175.5" font-family="Helvetica,sans-Serif" font-size="10.00">IFunc2d</text>
</a>
</g>
</g>
<!-- Node6&#45;&gt;Node1 -->
<g id="edge9" class="edge"><title>Node6&#45;&gt;Node1</title>
<path fill="none" stroke="midnightblue" d="M326.003,-158.73C317.679,-133.404 299.883,-87.2252 272.5,-56 258.499,-40.0347 237.56,-27.3292 222.619,-19.5447"/>
<polygon fill="midnightblue" stroke="midnightblue" points="322.734,-160.001 329.077,-168.488 329.411,-157.898 322.734,-160.001"/>
</g>
<!-- Node6&#45;&gt;Node2 -->
<g id="edge7" class="edge"><title>Node6&#45;&gt;Node2</title>
<path fill="none" stroke="midnightblue" d="M313.969,-161.816C286.92,-138.387 235.892,-94.1898 214.419,-75.5914"/>
<polygon fill="midnightblue" stroke="midnightblue" points="311.684,-164.467 321.535,-168.368 316.267,-159.176 311.684,-164.467"/>
</g>
<!-- Node6&#45;&gt;Node3 -->
<g id="edge5" class="edge"><title>Node6&#45;&gt;Node3</title>
<path fill="none" stroke="midnightblue" d="M302.109,-164.503C278.3,-154.38 245.394,-140.388 224.529,-131.516"/>
<polygon fill="midnightblue" stroke="midnightblue" points="300.804,-167.751 311.376,-168.444 303.543,-161.31 300.804,-167.751"/>
</g>
</g>
</svg>
