<?xml version="1.0" encoding="UTF-8" standalone="no"?>
<!DOCTYPE svg PUBLIC "-//W3C//DTD SVG 1.1//EN"
 "http://www.w3.org/Graphics/SVG/1.1/DTD/svg11.dtd">
<!-- Generated by graphviz version 2.38.0 (20140413.2041)
 -->
<!-- Title: IGLib.Gr3D.ConicalCurve3DParameterizationFromPolarWithBounds Pages: 1 -->
<svg width="306pt" height="117pt"
 viewBox="0.00 0.00 305.50 117.00" xmlns="http://www.w3.org/2000/svg" xmlns:xlink="http://www.w3.org/1999/xlink">
<g id="graph0" class="graph" transform="scale(1 1) rotate(0) translate(4 113)">
<title>IGLib.Gr3D.ConicalCurve3DParameterizationFromPolarWithBounds</title>
<polygon fill="white" stroke="none" points="-4,4 -4,-113 301.5,-113 301.5,4 -4,4"/>
<!-- Node1 -->
<g id="node1" class="node"><title>Node1</title>
<g id="a_node1"><a xlink:title="Cartesion parameterization of a curve in 3D. Beside the Curve and (optional) CurveDerivative,...">
<polygon fill="#bfbfbf" stroke="black" points="73.5,-0.5 73.5,-41.5 235.5,-41.5 235.5,-0.5 73.5,-0.5"/>
<text text-anchor="start" x="81.5" y="-29.5" font-family="Helvetica,sans-Serif" font-size="10.00">IGLib.Gr3D.ConicalCurve3</text>
<text text-anchor="start" x="81.5" y="-18.5" font-family="Helvetica,sans-Serif" font-size="10.00">DParameterizationFromPolarWith</text>
<text text-anchor="middle" x="154.5" y="-7.5" font-family="Helvetica,sans-Serif" font-size="10.00">Bounds</text>
</a>
</g>
</g>
<!-- Node2 -->
<g id="node2" class="node"><title>Node2</title>
<g id="a_node2"><a xlink:href="../../df/d02/interfaceIGLib_1_1Gr3D_1_1ICurve2DPolarParameterization.html" target="_top" xlink:title="Cylindrical parameterization of a curve in 3D. Beside the CurveCylindrical and (optional) CurveDeriva...">
<polygon fill="white" stroke="black" points="0,-84 0,-103 151,-103 151,-84 0,-84"/>
<text text-anchor="middle" x="75.5" y="-91" font-family="Helvetica,sans-Serif" font-size="10.00">ICurve2DPolarParameterization</text>
</a>
</g>
</g>
<!-- Node2&#45;&gt;Node1 -->
<g id="edge1" class="edge"><title>Node2&#45;&gt;Node1</title>
<path fill="none" stroke="midnightblue" d="M92.9024,-76.97C104.547,-66.5786 119.968,-52.8162 132.468,-41.6616"/>
<polygon fill="midnightblue" stroke="midnightblue" points="90.3176,-74.5856 85.187,-83.8553 94.9784,-79.8084 90.3176,-74.5856"/>
</g>
<!-- Node3 -->
<g id="node3" class="node"><title>Node3</title>
<g id="a_node3"><a xlink:href="../../d3/d54/interfaceIGLib_1_1Gr3D_1_1ICurve3DParameterizationWithBounds.html" target="_top" xlink:title="Cartesion parameterization of a curve in 3D. Beside the Curve and (optional) CurveDerivative,...">
<polygon fill="white" stroke="black" points="169.5,-78.5 169.5,-108.5 297.5,-108.5 297.5,-78.5 169.5,-78.5"/>
<text text-anchor="start" x="177.5" y="-96.5" font-family="Helvetica,sans-Serif" font-size="10.00">ICurve3DParameterization</text>
<text text-anchor="middle" x="233.5" y="-85.5" font-family="Helvetica,sans-Serif" font-size="10.00">WithBounds</text>
</a>
</g>
</g>
<!-- Node3&#45;&gt;Node1 -->
<g id="edge2" class="edge"><title>Node3&#45;&gt;Node1</title>
<path fill="none" stroke="midnightblue" d="M209.833,-71.3792C199.242,-61.9277 186.831,-50.8524 176.45,-41.5884"/>
<polygon fill="midnightblue" stroke="midnightblue" points="207.722,-74.1863 217.513,-78.2333 212.383,-68.9636 207.722,-74.1863"/>
</g>
</g>
</svg>
