<?xml version="1.0" encoding="UTF-8" standalone="no"?>
<!DOCTYPE svg PUBLIC "-//W3C//DTD SVG 1.1//EN"
 "http://www.w3.org/Graphics/SVG/1.1/DTD/svg11.dtd">
<!-- Generated by graphviz version 2.38.0 (20140413.2041)
 -->
<!-- Title: IGLib.Core.IResizableArrayAccessor&lt; ElementType &gt; Pages: 1 -->
<svg width="166pt" height="162pt"
 viewBox="0.00 0.00 166.00 162.00" xmlns="http://www.w3.org/2000/svg" xmlns:xlink="http://www.w3.org/1999/xlink">
<g id="graph0" class="graph" transform="scale(1 1) rotate(0) translate(4 158)">
<title>IGLib.Core.IResizableArrayAccessor&lt; ElementType &gt;</title>
<polygon fill="white" stroke="none" points="-4,4 -4,-158 162,-158 162,4 -4,4"/>
<!-- Node1 -->
<g id="node1" class="node"><title>Node1</title>
<g id="a_node1"><a xlink:title=" ">
<polygon fill="#bfbfbf" stroke="black" points="12,-0.5 12,-30.5 146,-30.5 146,-0.5 12,-0.5"/>
<text text-anchor="start" x="20" y="-18.5" font-family="Helvetica,sans-Serif" font-size="10.00">IGLib.Core.IResizableArray</text>
<text text-anchor="middle" x="79" y="-7.5" font-family="Helvetica,sans-Serif" font-size="10.00">Accessor&lt; ElementType &gt;</text>
</a>
</g>
</g>
<!-- Node2 -->
<g id="node2" class="node"><title>Node2</title>
<g id="a_node2"><a xlink:href="../../d7/df3/interfaceIGLib_1_1Core_1_1IArrayAccessor.html" target="_top" xlink:title=" ">
<polygon fill="white" stroke="black" points="0,-67.5 0,-86.5 158,-86.5 158,-67.5 0,-67.5"/>
<text text-anchor="middle" x="79" y="-74.5" font-family="Helvetica,sans-Serif" font-size="10.00">IArrayAccessor&lt; ElementType &gt;</text>
</a>
</g>
</g>
<!-- Node2&#45;&gt;Node1 -->
<g id="edge1" class="edge"><title>Node2&#45;&gt;Node1</title>
<path fill="none" stroke="midnightblue" d="M79,-57.2349C79,-48.5864 79,-38.4969 79,-30.523"/>
<polygon fill="midnightblue" stroke="midnightblue" points="75.5001,-57.4751 79,-67.4751 82.5001,-57.4751 75.5001,-57.4751"/>
</g>
<!-- Node3 -->
<g id="node3" class="node"><title>Node3</title>
<g id="a_node3"><a xlink:href="../../d4/d68/interfaceIGLib_1_1Core_1_1IReadonlyArrayAccessor.html" target="_top" xlink:title="Provides read only access to elements of an underlying onedimensional array&#45;like structure.">
<polygon fill="white" stroke="black" points="17,-123.5 17,-153.5 141,-153.5 141,-123.5 17,-123.5"/>
<text text-anchor="start" x="25" y="-141.5" font-family="Helvetica,sans-Serif" font-size="10.00">IReadonlyArrayAccessor</text>
<text text-anchor="middle" x="79" y="-130.5" font-family="Helvetica,sans-Serif" font-size="10.00">&lt; ElementType &gt;</text>
</a>
</g>
</g>
<!-- Node3&#45;&gt;Node2 -->
<g id="edge2" class="edge"><title>Node3&#45;&gt;Node2</title>
<path fill="none" stroke="midnightblue" d="M79,-113.289C79,-103.857 79,-93.6548 79,-86.6578"/>
<polygon fill="midnightblue" stroke="midnightblue" points="75.5001,-113.399 79,-123.399 82.5001,-113.399 75.5001,-113.399"/>
</g>
</g>
</svg>
