<?xml version="1.0" encoding="UTF-8" standalone="no"?>
<!DOCTYPE svg PUBLIC "-//W3C//DTD SVG 1.1//EN"
 "http://www.w3.org/Graphics/SVG/1.1/DTD/svg11.dtd">
<!-- Generated by graphviz version 2.38.0 (20140413.2041)
 -->
<!-- Title: IG.Lib.WaitFileEventBase.Example Pages: 1 -->
<svg width="160pt" height="299pt"
 viewBox="0.00 0.00 160.00 299.00" xmlns="http://www.w3.org/2000/svg" xmlns:xlink="http://www.w3.org/1999/xlink">
<g id="graph0" class="graph" transform="scale(1 1) rotate(0) translate(4 295)">
<title>IG.Lib.WaitFileEventBase.Example</title>
<polygon fill="white" stroke="none" points="-4,4 -4,-295 156,-295 156,4 -4,4"/>
<!-- Node1 -->
<g id="node1" class="node"><title>Node1</title>
<g id="a_node1"><a xlink:title="Class containing examples for waiting creation or removal of files and directories.">
<polygon fill="#bfbfbf" stroke="black" points="1.5,-0.5 1.5,-30.5 132.5,-30.5 132.5,-0.5 1.5,-0.5"/>
<text text-anchor="start" x="9.5" y="-18.5" font-family="Helvetica,sans-Serif" font-size="10.00">IG.Lib.WaitFileEventBase.</text>
<text text-anchor="middle" x="67" y="-7.5" font-family="Helvetica,sans-Serif" font-size="10.00">Example</text>
</a>
</g>
</g>
<!-- Node2 -->
<g id="node2" class="node"><title>Node2</title>
<g id="a_node2"><a xlink:href="../../d4/dbc/classIG_1_1Lib_1_1WaitFileEventLatenceBase_1_1ExampleLatence.html" target="_top" xlink:title="Class containing examples for">
<polygon fill="white" stroke="black" points="0,-68.5 0,-98.5 134,-98.5 134,-68.5 0,-68.5"/>
<text text-anchor="start" x="8" y="-86.5" font-family="Helvetica,sans-Serif" font-size="10.00">WaitFileEventLatenceBase</text>
<text text-anchor="middle" x="67" y="-75.5" font-family="Helvetica,sans-Serif" font-size="10.00">::ExampleLatence</text>
</a>
</g>
</g>
<!-- Node2&#45;&gt;Node1 -->
<g id="edge1" class="edge"><title>Node2&#45;&gt;Node1</title>
<path fill="none" stroke="midnightblue" d="M67,-58.0322C67,-48.8606 67,-38.7449 67,-30.7931"/>
<polygon fill="midnightblue" stroke="midnightblue" points="63.5001,-58.1789 67,-68.179 70.5001,-58.179 63.5001,-58.1789"/>
</g>
<!-- Node3 -->
<g id="node3" class="node"><title>Node3</title>
<g id="a_node3"><a xlink:href="../../d2/d48/interfaceIG_1_1Lib_1_1IWaitFileEvent.html" target="_top" xlink:title="Interface for classes that provide waiting for specific file events (such as ceration or deletion of ...">
<polygon fill="white" stroke="black" points="13.5,-157.5 13.5,-176.5 120.5,-176.5 120.5,-157.5 13.5,-157.5"/>
<text text-anchor="middle" x="67" y="-164.5" font-family="Helvetica,sans-Serif" font-size="10.00">IG.Lib.IWaitFileEvent</text>
</a>
</g>
</g>
<!-- Node3&#45;&gt;Node2 -->
<g id="edge2" class="edge"><title>Node3&#45;&gt;Node2</title>
<path fill="none" stroke="#9a32cd" stroke-dasharray="5,2" d="M67,-147.229C67,-132.408 67,-112.051 67,-98.5974"/>
<polygon fill="#9a32cd" stroke="#9a32cd" points="63.5001,-147.278 67,-157.278 70.5001,-147.278 63.5001,-147.278"/>
<text text-anchor="middle" x="88.5" y="-131" font-family="Helvetica,sans-Serif" font-size="10.00"> _creation</text>
<text text-anchor="middle" x="88.5" y="-120" font-family="Helvetica,sans-Serif" font-size="10.00">_removal</text>
</g>
<!-- Node4 -->
<g id="node4" class="node"><title>Node4</title>
<g id="a_node4"><a xlink:href="../../de/d1e/interfaceIG_1_1Lib_1_1IWaitCondition.html" target="_top" xlink:title="Interface for classes that implement blocking until a specified condition is met.">
<polygon fill="white" stroke="black" points="72,-214.5 72,-233.5 152,-233.5 152,-214.5 72,-214.5"/>
<text text-anchor="middle" x="112" y="-221.5" font-family="Helvetica,sans-Serif" font-size="10.00">IWaitCondition</text>
</a>
</g>
</g>
<!-- Node4&#45;&gt;Node3 -->
<g id="edge3" class="edge"><title>Node4&#45;&gt;Node3</title>
<path fill="none" stroke="midnightblue" d="M98.5261,-206.532C90.5112,-196.736 80.6645,-184.701 74.1304,-176.715"/>
<polygon fill="midnightblue" stroke="midnightblue" points="95.9275,-208.883 104.969,-214.406 101.345,-204.45 95.9275,-208.883"/>
</g>
<!-- Node5 -->
<g id="node5" class="node"><title>Node5</title>
<g id="a_node5"><a xlink:href="../../d3/db6/interfaceIG_1_1Lib_1_1ILockable.html" target="_top" xlink:title="Lockable object, has a Lock property that returns object on which lock must be performed in order to ...">
<polygon fill="white" stroke="black" points="38,-271.5 38,-290.5 96,-290.5 96,-271.5 38,-271.5"/>
<text text-anchor="middle" x="67" y="-278.5" font-family="Helvetica,sans-Serif" font-size="10.00">ILockable</text>
</a>
</g>
</g>
<!-- Node5&#45;&gt;Node3 -->
<g id="edge5" class="edge"><title>Node5&#45;&gt;Node3</title>
<path fill="none" stroke="midnightblue" d="M64.9832,-261.085C64.1945,-252.785 63.3871,-242.92 63,-234 62.1042,-213.357 64.4456,-189.114 65.9148,-176.539"/>
<polygon fill="midnightblue" stroke="midnightblue" points="61.5173,-261.599 66.0059,-271.196 68.4817,-260.895 61.5173,-261.599"/>
</g>
<!-- Node5&#45;&gt;Node4 -->
<g id="edge4" class="edge"><title>Node5&#45;&gt;Node4</title>
<path fill="none" stroke="midnightblue" d="M80.4739,-263.532C88.4888,-253.736 98.3355,-241.701 104.87,-233.715"/>
<polygon fill="midnightblue" stroke="midnightblue" points="77.6548,-261.45 74.0313,-271.406 83.0725,-265.883 77.6548,-261.45"/>
</g>
</g>
</svg>
