<?xml version="1.0" encoding="UTF-8" standalone="no"?>
<!DOCTYPE svg PUBLIC "-//W3C//DTD SVG 1.1//EN"
 "http://www.w3.org/Graphics/SVG/1.1/DTD/svg11.dtd">
<!-- Generated by graphviz version 2.38.0 (20140413.2041)
 -->
<!-- Title: IG.Lib.CommandLineInterpreter Pages: 1 -->
<svg width="488pt" height="291pt"
 viewBox="0.00 0.00 488.00 290.50" xmlns="http://www.w3.org/2000/svg" xmlns:xlink="http://www.w3.org/1999/xlink">
<g id="graph0" class="graph" transform="scale(1 1) rotate(0) translate(4 286.5)">
<title>IG.Lib.CommandLineInterpreter</title>
<polygon fill="white" stroke="none" points="-4,4 -4,-286.5 484,-286.5 484,4 -4,4"/>
<!-- Node1 -->
<g id="node1" class="node"><title>Node1</title>
<g id="a_node1"><a xlink:title="Base class for all command line interpreters.">
<polygon fill="#bfbfbf" stroke="black" points="329,-126.5 329,-145.5 480,-145.5 480,-126.5 329,-126.5"/>
<text text-anchor="middle" x="404.5" y="-133.5" font-family="Helvetica,sans-Serif" font-size="10.00">IG.Lib.CommandLineInterpreter</text>
</a>
</g>
</g>
<!-- Node2 -->
<g id="node2" class="node"><title>Node2</title>
<g id="a_node2"><a xlink:href="../../d9/d4e/classIG_1_1Lib_1_1InterpreterBase.html" target="_top" xlink:title=" ">
<polygon fill="white" stroke="black" points="106,-252 106,-282 242,-282 242,-252 106,-252"/>
<text text-anchor="start" x="114" y="-270" font-family="Helvetica,sans-Serif" font-size="10.00">InterpreterBase&lt; Command</text>
<text text-anchor="middle" x="174" y="-259" font-family="Helvetica,sans-Serif" font-size="10.00">Line, CommandLineData &gt;</text>
</a>
</g>
</g>
<!-- Node2&#45;&gt;Node1 -->
<g id="edge1" class="edge"><title>Node2&#45;&gt;Node1</title>
<path fill="none" stroke="midnightblue" d="M234.898,-248.073C238.701,-246.467 242.432,-244.774 246,-243 304.61,-213.863 366.775,-165.789 391.935,-145.502"/>
<polygon fill="midnightblue" stroke="midnightblue" points="233.339,-244.927 225.347,-251.882 235.932,-251.429 233.339,-244.927"/>
</g>
<!-- Node3 -->
<g id="node3" class="node"><title>Node3</title>
<g id="a_node3"><a xlink:href="../../d4/d11/interfaceIG_1_1Lib_1_1IInterpreter.html" target="_top" xlink:title=" ">
<polygon fill="white" stroke="black" points="105.5,-203 105.5,-233 242.5,-233 242.5,-203 105.5,-203"/>
<text text-anchor="start" x="113.5" y="-221" font-family="Helvetica,sans-Serif" font-size="10.00">IInterpreter&lt; CommandLine,</text>
<text text-anchor="middle" x="174" y="-210" font-family="Helvetica,sans-Serif" font-size="10.00"> CommandLineData &gt;</text>
</a>
</g>
</g>
<!-- Node3&#45;&gt;Node1 -->
<g id="edge2" class="edge"><title>Node3&#45;&gt;Node1</title>
<path fill="none" stroke="midnightblue" d="M227.532,-199.561C233.759,-197.358 240.023,-195.134 246,-193 292.283,-176.477 346.098,-156.928 377.329,-145.55"/>
<polygon fill="midnightblue" stroke="midnightblue" points="226.086,-196.359 217.822,-202.989 228.417,-202.96 226.086,-196.359"/>
</g>
<!-- Node4 -->
<g id="node4" class="node"><title>Node4</title>
<g id="a_node4"><a xlink:href="../../d3/db6/interfaceIG_1_1Lib_1_1ILockable.html" target="_top" xlink:title="Lockable object, has a Lock property that returns object on which lock must be performed in order to ...">
<polygon fill="white" stroke="black" points="145,-164.5 145,-183.5 203,-183.5 203,-164.5 145,-164.5"/>
<text text-anchor="middle" x="174" y="-171.5" font-family="Helvetica,sans-Serif" font-size="10.00">ILockable</text>
</a>
</g>
</g>
<!-- Node4&#45;&gt;Node1 -->
<g id="edge3" class="edge"><title>Node4&#45;&gt;Node1</title>
<path fill="none" stroke="midnightblue" d="M213.203,-167.647C249.556,-161.601 304.726,-152.426 346.319,-145.509"/>
<polygon fill="midnightblue" stroke="midnightblue" points="212.309,-164.247 203.019,-169.34 213.457,-171.152 212.309,-164.247"/>
</g>
<!-- Node5 -->
<g id="node5" class="node"><title>Node5</title>
<g id="a_node5"><a xlink:title=" ">
<polygon fill="white" stroke="#bfbfbf" points="140.5,-126.5 140.5,-145.5 207.5,-145.5 207.5,-126.5 140.5,-126.5"/>
<text text-anchor="middle" x="174" y="-133.5" font-family="Helvetica,sans-Serif" font-size="10.00">IDisposable</text>
</a>
</g>
</g>
<!-- Node5&#45;&gt;Node1 -->
<g id="edge4" class="edge"><title>Node5&#45;&gt;Node1</title>
<path fill="none" stroke="midnightblue" d="M217.833,-136C249.015,-136 292.046,-136 328.831,-136"/>
<polygon fill="midnightblue" stroke="midnightblue" points="217.739,-132.5 207.738,-136 217.738,-139.5 217.739,-132.5"/>
</g>
<!-- Node6 -->
<g id="node6" class="node"><title>Node6</title>
<g id="a_node6"><a xlink:href="../../d5/d7a/interfaceIG_1_1Lib_1_1IRegisterable.html" target="_top" xlink:title=" ">
<polygon fill="white" stroke="black" points="102,-77 102,-107 246,-107 246,-77 102,-77"/>
<text text-anchor="start" x="110" y="-95" font-family="Helvetica,sans-Serif" font-size="10.00">IRegisterable&lt; CommandLine</text>
<text text-anchor="middle" x="174" y="-84" font-family="Helvetica,sans-Serif" font-size="10.00">Interpreter &gt;</text>
</a>
</g>
</g>
<!-- Node6&#45;&gt;Node1 -->
<g id="edge5" class="edge"><title>Node6&#45;&gt;Node1</title>
<path fill="none" stroke="midnightblue" d="M256.038,-107.605C288.686,-113.891 325.298,-120.941 353.873,-126.444"/>
<polygon fill="midnightblue" stroke="midnightblue" points="256.528,-104.135 246.046,-105.681 255.204,-111.008 256.528,-104.135"/>
</g>
<!-- Node7 -->
<g id="node7" class="node"><title>Node7</title>
<g id="a_node7"><a xlink:title=" ">
<polygon fill="white" stroke="#bfbfbf" points="153.5,-38.5 153.5,-57.5 194.5,-57.5 194.5,-38.5 153.5,-38.5"/>
<text text-anchor="middle" x="174" y="-45.5" font-family="Helvetica,sans-Serif" font-size="10.00">static</text>
</a>
</g>
</g>
<!-- Node7&#45;&gt;Node1 -->
<g id="edge6" class="edge"><title>Node7&#45;&gt;Node1</title>
<path fill="none" stroke="#9a32cd" stroke-dasharray="5,2" d="M204.304,-54.7798C217.225,-58.0406 232.508,-62.2699 246,-67 296.991,-84.8764 354.61,-111.967 383.996,-126.306"/>
<polygon fill="#9a32cd" stroke="#9a32cd" points="205.073,-51.3647 194.527,-52.3814 203.405,-58.1632 205.073,-51.3647"/>
<text text-anchor="middle" x="287.5" y="-95" font-family="Helvetica,sans-Serif" font-size="10.00"> _register</text>
</g>
<!-- Node8 -->
<g id="node8" class="node"><title>Node8</title>
<g id="a_node8"><a xlink:href="../../d4/d93/classIG_1_1Lib_1_1IdProxy.html" target="_top" xlink:title="Proxy class that stores the object&#39;s unique ID (generated by a static instance of the IdGenerator cla...">
<polygon fill="white" stroke="black" points="135,-0.5 135,-19.5 213,-19.5 213,-0.5 135,-0.5"/>
<text text-anchor="middle" x="174" y="-7.5" font-family="Helvetica,sans-Serif" font-size="10.00">IG.Lib.IdProxy</text>
</a>
</g>
</g>
<!-- Node8&#45;&gt;Node1 -->
<g id="edge7" class="edge"><title>Node8&#45;&gt;Node1</title>
<path fill="none" stroke="#9a32cd" stroke-dasharray="5,2" d="M222.813,-21.4154C230.644,-23.6778 238.609,-26.2225 246,-29 276.142,-40.3275 283.88,-43.6405 311,-61 343.039,-81.5085 376.808,-111.281 393.268,-126.406"/>
<polygon fill="#9a32cd" stroke="#9a32cd" points="223.59,-17.9991 213.019,-18.7046 221.723,-24.7454 223.59,-17.9991"/>
<text text-anchor="middle" x="287.5" y="-64" font-family="Helvetica,sans-Serif" font-size="10.00"> _idPproxy</text>
</g>
<!-- Node9 -->
<g id="node9" class="node"><title>Node9</title>
<g id="a_node9"><a xlink:href="../../dc/d79/interfaceIG_1_1Lib_1_1IIdentifiable.html" target="_top" xlink:title="Classes whose instances have unique integer IDs.">
<polygon fill="white" stroke="black" points="0,-0.5 0,-19.5 65,-19.5 65,-0.5 0,-0.5"/>
<text text-anchor="middle" x="32.5" y="-7.5" font-family="Helvetica,sans-Serif" font-size="10.00">IIdentifiable</text>
</a>
</g>
</g>
<!-- Node9&#45;&gt;Node8 -->
<g id="edge8" class="edge"><title>Node9&#45;&gt;Node8</title>
<path fill="none" stroke="midnightblue" d="M75.2655,-10C94.1527,-10 116.322,-10 134.767,-10"/>
<polygon fill="midnightblue" stroke="midnightblue" points="75.1547,-6.5001 65.1547,-10 75.1547,-13.5001 75.1547,-6.5001"/>
</g>
</g>
</svg>
