<?xml version="1.0" encoding="UTF-8" standalone="no"?>
<!DOCTYPE svg PUBLIC "-//W3C//DTD SVG 1.1//EN"
 "http://www.w3.org/Graphics/SVG/1.1/DTD/svg11.dtd">
<!-- Generated by graphviz version 2.38.0 (20140413.2041)
 -->
<!-- Title: IG.Num.ScalarFunctionBase Pages: 1 -->
<!--zoomable 443 -->
<svg id="main" version="1.1" xmlns="http://www.w3.org/2000/svg" xmlns:xlink="http://www.w3.org/1999/xlink" xml:space="preserve" onload="init(evt)">
<style type="text/css"><![CDATA[
.edge:hover path { stroke: red; }
.edge:hover polygon { stroke: red; fill: red; }
]]></style>
<script type="text/javascript"><![CDATA[
var edges = document.getElementsByTagName('g');
if (edges && edges.length) {
  for (var i=0;i<edges.length;i++) {
    if (edges[i].id.substr(0,4)=='edge') {
      edges[i].setAttribute('class','edge');
    }
  }
}
]]></script>
        <defs>
                <circle id="rim" cx="0" cy="0" r="7"/>
                <circle id="rim2" cx="0" cy="0" r="3.5"/>
                <g id="zoomPlus">
                        <use xlink:href="#rim" fill="#404040">
                                <set attributeName="fill" to="#808080" begin="zoomplus.mouseover" end="zoomplus.mouseout"/>
                        </use>
                        <path d="M-4,0h8M0,-4v8" fill="none" stroke="white" stroke-width="1.5" pointer-events="none"/>
                </g>
                <g id="zoomMin">
                        <use xlink:href="#rim" fill="#404040">
                                <set attributeName="fill" to="#808080" begin="zoomminus.mouseover" end="zoomminus.mouseout"/>
                        </use>
                        <path d="M-4,0h8" fill="none" stroke="white" stroke-width="1.5" pointer-events="none"/>
                </g>
                <g id="dirArrow">
                        <path fill="none" stroke="white" stroke-width="1.5" d="M0,-3.0v7 M-2.5,-0.5L0,-3.0L2.5,-0.5"/>
                </g>
               <g id="resetDef">
                       <use xlink:href="#rim2" fill="#404040">
                               <set attributeName="fill" to="#808080" begin="reset.mouseover" end="reset.mouseout"/>
                       </use>
               </g>
        </defs>

<script type="text/javascript">
var viewWidth = 1140;
var viewHeight = 443;
var sectionId = 'dynsection-0';
</script>
<script xlink:href="../../svgpan.js"/>
<svg id="graph" class="graph">
<g id="viewport">
<title>IG.Num.ScalarFunctionBase</title>
<polygon fill="white" stroke="none" points="-4,4 -4,-438.5 1136,-438.5 1136,4 -4,4"/>
<!-- Node1 -->
<g id="node1" class="node"><title>Node1</title>
<g id="a_node1"><a xlink:title="Base class for scalar functions with affine transformation of co&#45;ordinates. The reference function is...">
<polygon fill="#bfbfbf" stroke="black" points="386,-193.5 386,-212.5 526,-212.5 526,-193.5 386,-193.5"/>
<text text-anchor="middle" x="456" y="-200.5" font-family="Helvetica,sans-Serif" font-size="10.00">IG.Num.ScalarFunctionBase</text>
</a>
</g>
</g>
<!-- Node5 -->
<g id="node5" class="node"><title>Node5</title>
<g id="a_node5"><a xlink:href="../../d5/d06/classIG_1_1Lib_1_1LoadableScalarFunctionBase.html" target="_top" xlink:title="A ScalarFunction class used as base class for dynamically loaded scalar functions....">
<polygon fill="white" stroke="black" points="570,-409.5 570,-428.5 742,-428.5 742,-409.5 570,-409.5"/>
<text text-anchor="middle" x="656" y="-416.5" font-family="Helvetica,sans-Serif" font-size="10.00">IG.Lib.LoadableScalarFunctionBase</text>
</a>
</g>
</g>
<!-- Node1&#45;&gt;Node5 -->
<g id="edge5" class="edge"><title>Node1&#45;&gt;Node5</title>
<path fill="none" stroke="midnightblue" d="M461.486,-222.581C471.763,-262.732 500.968,-354.434 562,-400 567.15,-403.845 572.889,-406.959 578.919,-409.476"/>
<polygon fill="midnightblue" stroke="midnightblue" points="464.848,-221.591 459.079,-212.705 458.047,-223.249 464.848,-221.591"/>
</g>
<!-- Node7 -->
<g id="node7" class="node"><title>Node7</title>
<g id="a_node7"><a xlink:href="../../da/d3e/classIG_1_1Num_1_1ScalarFunctionExamples_1_1ParaboloidSymmetric2D.html" target="_top" xlink:title="Symmetric paraboloid centered at coordinate origin. f(x,y) = x^2 + y^2 &#45; R2. If R2 is positive then 0...">
<polygon fill="white" stroke="black" points="574,-360 574,-390 738,-390 738,-360 574,-360"/>
<text text-anchor="start" x="582" y="-378" font-family="Helvetica,sans-Serif" font-size="10.00">IG.Num.ScalarFunctionExamples.</text>
<text text-anchor="middle" x="656" y="-367" font-family="Helvetica,sans-Serif" font-size="10.00">ParaboloidSymmetric2D</text>
</a>
</g>
</g>
<!-- Node1&#45;&gt;Node7 -->
<g id="edge7" class="edge"><title>Node1&#45;&gt;Node7</title>
<path fill="none" stroke="midnightblue" d="M465.3,-222.058C480.044,-253.625 513.847,-316.589 562,-350 567.632,-353.908 573.845,-357.205 580.31,-359.987"/>
<polygon fill="midnightblue" stroke="midnightblue" points="468.351,-220.31 461.037,-212.644 461.974,-223.197 468.351,-220.31"/>
</g>
<!-- Node8 -->
<g id="node8" class="node"><title>Node8</title>
<g id="a_node8"><a xlink:href="../../d6/d0c/classIG_1_1Num_1_1ScalarFunctionExamples_1_1Quadratic2d.html" target="_top" xlink:title="Example quadratic polynomial in 2D. f(x,y) = 2*x^2 + y^2 + x*y + x + y + 10.">
<polygon fill="white" stroke="black" points="574,-311 574,-341 738,-341 738,-311 574,-311"/>
<text text-anchor="start" x="582" y="-329" font-family="Helvetica,sans-Serif" font-size="10.00">IG.Num.ScalarFunctionExamples.</text>
<text text-anchor="middle" x="656" y="-318" font-family="Helvetica,sans-Serif" font-size="10.00">Quadratic2d</text>
</a>
</g>
</g>
<!-- Node1&#45;&gt;Node8 -->
<g id="edge8" class="edge"><title>Node1&#45;&gt;Node8</title>
<path fill="none" stroke="midnightblue" d="M471.051,-220.61C489.579,-242.655 524.277,-280.059 562,-301 568.87,-304.814 576.353,-308.07 583.991,-310.845"/>
<polygon fill="midnightblue" stroke="midnightblue" points="473.614,-218.216 464.558,-212.717 468.208,-222.664 473.614,-218.216"/>
</g>
<!-- Node9 -->
<g id="node9" class="node"><title>Node9</title>
<g id="a_node9"><a xlink:href="../../d2/dcc/classIG_1_1Num_1_1ScalarFunctionExamples_1_1Quadratic3d.html" target="_top" xlink:title="Example quadratic polynomial in 3D. f(x,y,z) = x*x + 2*y*y + 4*z*z + x*y + 2*y*z + 4*z*x + x + y + z ...">
<polygon fill="white" stroke="black" points="574,-262 574,-292 738,-292 738,-262 574,-262"/>
<text text-anchor="start" x="582" y="-280" font-family="Helvetica,sans-Serif" font-size="10.00">IG.Num.ScalarFunctionExamples.</text>
<text text-anchor="middle" x="656" y="-269" font-family="Helvetica,sans-Serif" font-size="10.00">Quadratic3d</text>
</a>
</g>
</g>
<!-- Node1&#45;&gt;Node9 -->
<g id="edge9" class="edge"><title>Node1&#45;&gt;Node9</title>
<path fill="none" stroke="midnightblue" d="M484.1,-217.243C504.983,-227.823 534.794,-242.081 562,-252 571.896,-255.608 582.553,-258.954 592.998,-261.949"/>
<polygon fill="midnightblue" stroke="midnightblue" points="485.671,-214.115 475.175,-212.669 482.478,-220.344 485.671,-214.115"/>
</g>
<!-- Node10 -->
<g id="node10" class="node"><title>Node10</title>
<g id="a_node10"><a xlink:href="../../dd/dd0/classIG_1_1Num_1_1ScalarFunctionExamples_1_1Rosenbrock.html" target="_top" xlink:title="RosenBrock function. f(x,y) = (1&#45;x)^2 + 100 * (y&#45;x^2)^2">
<polygon fill="white" stroke="black" points="574,-213 574,-243 738,-243 738,-213 574,-213"/>
<text text-anchor="start" x="582" y="-231" font-family="Helvetica,sans-Serif" font-size="10.00">IG.Num.ScalarFunctionExamples.</text>
<text text-anchor="middle" x="656" y="-220" font-family="Helvetica,sans-Serif" font-size="10.00">Rosenbrock</text>
</a>
</g>
</g>
<!-- Node1&#45;&gt;Node10 -->
<g id="edge10" class="edge"><title>Node1&#45;&gt;Node10</title>
<path fill="none" stroke="midnightblue" d="M536.484,-213.036C548.806,-214.592 561.547,-216.2 573.903,-217.761"/>
<polygon fill="midnightblue" stroke="midnightblue" points="536.61,-209.524 526.251,-211.744 535.734,-216.469 536.61,-209.524"/>
</g>
<!-- Node11 -->
<g id="node11" class="node"><title>Node11</title>
<g id="a_node11"><a xlink:href="../../dd/d66/classIG_1_1Num_1_1ScalarFunctionExamples_1_1RosenbrockGeneralizedAdjacent.html" target="_top" xlink:title="Generalzed multivariate RosenBrock function for Dim &gt;= 2.">
<polygon fill="white" stroke="black" points="574,-164 574,-194 738,-194 738,-164 574,-164"/>
<text text-anchor="start" x="582" y="-182" font-family="Helvetica,sans-Serif" font-size="10.00">IG.Num.ScalarFunctionExamples.</text>
<text text-anchor="middle" x="656" y="-171" font-family="Helvetica,sans-Serif" font-size="10.00">RosenbrockGeneralizedAdjacent</text>
</a>
</g>
</g>
<!-- Node1&#45;&gt;Node11 -->
<g id="edge11" class="edge"><title>Node1&#45;&gt;Node11</title>
<path fill="none" stroke="midnightblue" d="M536.484,-193.366C548.806,-191.872 561.547,-190.328 573.903,-188.83"/>
<polygon fill="midnightblue" stroke="midnightblue" points="535.757,-189.928 526.251,-194.606 536.599,-196.877 535.757,-189.928"/>
</g>
<!-- Node12 -->
<g id="node12" class="node"><title>Node12</title>
<g id="a_node12"><a xlink:href="../../d5/dad/classIG_1_1Num_1_1ScalarFunctionExamples_1_1RosenbrockGeneralizedExhaustive.html" target="_top" xlink:title="Generalzed multivariate RosenBrock function for Dim &gt;= 2.">
<polygon fill="white" stroke="black" points="572.5,-115 572.5,-145 739.5,-145 739.5,-115 572.5,-115"/>
<text text-anchor="start" x="580.5" y="-133" font-family="Helvetica,sans-Serif" font-size="10.00">IG.Num.ScalarFunctionExamples.</text>
<text text-anchor="middle" x="656" y="-122" font-family="Helvetica,sans-Serif" font-size="10.00">RosenbrockGeneralizedExhaustive</text>
</a>
</g>
</g>
<!-- Node1&#45;&gt;Node12 -->
<g id="edge12" class="edge"><title>Node1&#45;&gt;Node12</title>
<path fill="none" stroke="midnightblue" d="M483.696,-188.87C504.581,-178.229 534.58,-163.841 562,-154 570.946,-150.789 580.519,-147.818 589.996,-145.14"/>
<polygon fill="midnightblue" stroke="midnightblue" points="482.067,-185.772 474.783,-193.466 485.275,-191.993 482.067,-185.772"/>
</g>
<!-- Node13 -->
<g id="node13" class="node"><title>Node13</title>
<g id="a_node13"><a xlink:href="../../d3/dbb/classIG_1_1Num_1_1ScalarFunctionParametricBase.html" target="_top" xlink:title="Base class for parameterized scalar functions with affine transformation of co&#45;ordinates....">
<polygon fill="white" stroke="black" points="562,-76.5 562,-95.5 750,-95.5 750,-76.5 562,-76.5"/>
<text text-anchor="middle" x="656" y="-83.5" font-family="Helvetica,sans-Serif" font-size="10.00">IG.Num.ScalarFunctionParametricBase</text>
</a>
</g>
</g>
<!-- Node1&#45;&gt;Node13 -->
<g id="edge13" class="edge"><title>Node1&#45;&gt;Node13</title>
<path fill="none" stroke="midnightblue" d="M470.576,-185.366C488.824,-162.978 523.459,-124.88 562,-105 569.469,-101.147 577.654,-98.0753 585.971,-95.6263"/>
<polygon fill="midnightblue" stroke="midnightblue" points="467.693,-183.368 464.204,-193.372 473.17,-187.727 467.693,-183.368"/>
</g>
<!-- Node16 -->
<g id="node16" class="node"><title>Node16</title>
<g id="a_node16"><a xlink:href="../../df/dd1/classIG_1_1Num_1_1ScalarFunctionRadial.html" target="_top" xlink:title="Radial scalar functions.">
<polygon fill="white" stroke="black" points="583.5,-38.5 583.5,-57.5 728.5,-57.5 728.5,-38.5 583.5,-38.5"/>
<text text-anchor="middle" x="656" y="-45.5" font-family="Helvetica,sans-Serif" font-size="10.00">IG.Num.ScalarFunctionRadial</text>
</a>
</g>
</g>
<!-- Node1&#45;&gt;Node16 -->
<g id="edge16" class="edge"><title>Node1&#45;&gt;Node16</title>
<path fill="none" stroke="midnightblue" d="M465.924,-184.194C481.161,-154.265 515.15,-96.205 562,-67 568.573,-62.9027 575.867,-59.6695 583.396,-57.1211"/>
<polygon fill="midnightblue" stroke="midnightblue" points="462.775,-182.667 461.484,-193.183 469.051,-185.767 462.775,-182.667"/>
</g>
<!-- Node19 -->
<g id="node19" class="node"><title>Node19</title>
<g id="a_node19"><a xlink:href="../../de/d0d/classIG_1_1Num_1_1ScalarFunctionTransformed.html" target="_top" xlink:title="Scalar function that is defined as some reference function evaluated at inverse affine&#45;trasformed par...">
<polygon fill="white" stroke="black" points="570.5,-0.5 570.5,-19.5 741.5,-19.5 741.5,-0.5 570.5,-0.5"/>
<text text-anchor="middle" x="656" y="-7.5" font-family="Helvetica,sans-Serif" font-size="10.00">IG.Num.ScalarFunctionTransformed</text>
</a>
</g>
</g>
<!-- Node1&#45;&gt;Node19 -->
<g id="edge19" class="edge"><title>Node1&#45;&gt;Node19</title>
<path fill="none" stroke="midnightblue" d="M463.006,-183.209C475.226,-146.511 506.622,-68.0925 562,-29 567.385,-25.1985 573.358,-22.1212 579.603,-19.6344"/>
<polygon fill="midnightblue" stroke="midnightblue" points="459.533,-182.579 459.824,-193.169 466.201,-184.709 459.533,-182.579"/>
</g>
<!-- Node2 -->
<g id="node2" class="node"><title>Node2</title>
<g id="a_node2"><a xlink:href="../../d2/d9e/classIG_1_1Num_1_1ScalarFunctionUntransformedBase.html" target="_top" xlink:title="Base class for defining scalar functions without possibility of affine transformation of parameters.">
<polygon fill="white" stroke="black" points="183,-212.5 183,-231.5 350,-231.5 350,-212.5 183,-212.5"/>
<text text-anchor="middle" x="266.5" y="-219.5" font-family="Helvetica,sans-Serif" font-size="10.00">ScalarFunctionUntransformedBase</text>
</a>
</g>
</g>
<!-- Node2&#45;&gt;Node1 -->
<g id="edge1" class="edge"><title>Node2&#45;&gt;Node1</title>
<path fill="none" stroke="midnightblue" d="M360.168,-212.61C368.838,-211.731 377.521,-210.851 385.919,-210"/>
<polygon fill="midnightblue" stroke="midnightblue" points="359.609,-209.148 350.013,-213.639 360.315,-216.113 359.609,-209.148"/>
</g>
<!-- Node3 -->
<g id="node3" class="node"><title>Node3</title>
<g id="a_node3"><a xlink:href="../../d8/d56/interfaceIG_1_1Num_1_1IScalarFunctionUntransformed.html" target="_top" xlink:title="Scalar functions of vector arguments.">
<polygon fill="white" stroke="black" points="0,-193.5 0,-212.5 147,-212.5 147,-193.5 0,-193.5"/>
<text text-anchor="middle" x="73.5" y="-200.5" font-family="Helvetica,sans-Serif" font-size="10.00">IScalarFunctionUntransformed</text>
</a>
</g>
</g>
<!-- Node3&#45;&gt;Node2 -->
<g id="edge2" class="edge"><title>Node3&#45;&gt;Node2</title>
<path fill="none" stroke="midnightblue" d="M157.411,-211.248C165.807,-212.083 174.335,-212.931 182.729,-213.766"/>
<polygon fill="midnightblue" stroke="midnightblue" points="157.551,-207.744 147.254,-210.237 156.858,-214.71 157.551,-207.744"/>
</g>
<!-- Node4 -->
<g id="node4" class="node"><title>Node4</title>
<g id="a_node4"><a xlink:href="../../dd/d1e/interfaceIG_1_1Num_1_1IScalarFunction.html" target="_top" xlink:title="Scalar functions of vector arguments, with eventual affine transformation of parameters....">
<polygon fill="white" stroke="black" points="224.5,-174.5 224.5,-193.5 308.5,-193.5 308.5,-174.5 224.5,-174.5"/>
<text text-anchor="middle" x="266.5" y="-181.5" font-family="Helvetica,sans-Serif" font-size="10.00">IScalarFunction</text>
</a>
</g>
</g>
<!-- Node3&#45;&gt;Node4 -->
<g id="edge4" class="edge"><title>Node3&#45;&gt;Node4</title>
<path fill="none" stroke="midnightblue" d="M157.467,-194.747C180.661,-192.439 204.859,-190.032 224.46,-188.083"/>
<polygon fill="midnightblue" stroke="midnightblue" points="156.858,-191.29 147.254,-195.763 157.551,-198.256 156.858,-191.29"/>
</g>
<!-- Node4&#45;&gt;Node1 -->
<g id="edge3" class="edge"><title>Node4&#45;&gt;Node1</title>
<path fill="none" stroke="midnightblue" d="M318.816,-189.2C339.522,-191.298 363.727,-193.751 385.941,-196.002"/>
<polygon fill="midnightblue" stroke="midnightblue" points="318.95,-185.696 308.648,-188.17 318.244,-192.66 318.95,-185.696"/>
</g>
<!-- Node6 -->
<g id="node6" class="node"><title>Node6</title>
<g id="a_node6"><a xlink:href="../../db/d3b/classIG_1_1Script_1_1ScritpScalarFunctionExample_1_1Container_1_1Function.html" target="_top" xlink:title=" ">
<polygon fill="white" stroke="black" points="794,-404 794,-434 943,-434 943,-404 794,-404"/>
<text text-anchor="start" x="802" y="-422" font-family="Helvetica,sans-Serif" font-size="10.00">IG.Script.ScritpScalarFunction</text>
<text text-anchor="middle" x="868.5" y="-411" font-family="Helvetica,sans-Serif" font-size="10.00">Example.Container.Function</text>
</a>
</g>
</g>
<!-- Node5&#45;&gt;Node6 -->
<g id="edge6" class="edge"><title>Node5&#45;&gt;Node6</title>
<path fill="none" stroke="midnightblue" d="M752.111,-419C766.059,-419 780.246,-419 793.681,-419"/>
<polygon fill="midnightblue" stroke="midnightblue" points="752.012,-415.5 742.012,-419 752.012,-422.5 752.012,-415.5"/>
</g>
<!-- Node14 -->
<g id="node14" class="node"><title>Node14</title>
<g id="a_node14"><a xlink:href="../../d5/dd5/classIG_1_1Num_1_1ScalarFunctionOneParametric.html" target="_top" xlink:title="Base class for one parametric families of scalar functions with affine transformation of co&#45;ordinates...">
<polygon fill="white" stroke="black" points="800.5,-115 800.5,-145 936.5,-145 936.5,-115 800.5,-115"/>
<text text-anchor="start" x="808.5" y="-133" font-family="Helvetica,sans-Serif" font-size="10.00">IG.Num.ScalarFunctionOne</text>
<text text-anchor="middle" x="868.5" y="-122" font-family="Helvetica,sans-Serif" font-size="10.00">Parametric</text>
</a>
</g>
</g>
<!-- Node13&#45;&gt;Node14 -->
<g id="edge14" class="edge"><title>Node13&#45;&gt;Node14</title>
<path fill="none" stroke="midnightblue" d="M714.129,-97.5954C725.99,-100.024 738.405,-102.582 750,-105 766.333,-108.406 783.933,-112.125 800.412,-115.628"/>
<polygon fill="midnightblue" stroke="midnightblue" points="714.825,-94.1654 704.327,-95.5916 713.423,-101.024 714.825,-94.1654"/>
</g>
<!-- Node15 -->
<g id="node15" class="node"><title>Node15</title>
<g id="a_node15"><a xlink:href="../../d8/d5b/classIG_1_1Num_1_1ScalarFunctionParametric.html" target="_top" xlink:title="Base class for parameterized scalar functions with affine transformation of co&#45;ordinates....">
<polygon fill="white" stroke="black" points="786,-76.5 786,-95.5 951,-95.5 951,-76.5 786,-76.5"/>
<text text-anchor="middle" x="868.5" y="-83.5" font-family="Helvetica,sans-Serif" font-size="10.00">IG.Num.ScalarFunctionParametric</text>
</a>
</g>
</g>
<!-- Node13&#45;&gt;Node15 -->
<g id="edge15" class="edge"><title>Node13&#45;&gt;Node15</title>
<path fill="none" stroke="midnightblue" d="M760.304,-86C768.889,-86 777.491,-86 785.882,-86"/>
<polygon fill="midnightblue" stroke="midnightblue" points="760.248,-82.5001 750.248,-86 760.248,-89.5001 760.248,-82.5001"/>
</g>
<!-- Node17 -->
<g id="node17" class="node"><title>Node17</title>
<g id="a_node17"><a xlink:href="../../d4/d52/classIG_1_1Num_1_1ScalarFunctionRadialParametric.html" target="_top" xlink:title="Parametric scalar function.">
<polygon fill="white" stroke="black" points="796,-27 796,-57 941,-57 941,-27 796,-27"/>
<text text-anchor="start" x="804" y="-45" font-family="Helvetica,sans-Serif" font-size="10.00">IG.Num.ScalarFunctionRadial</text>
<text text-anchor="middle" x="868.5" y="-34" font-family="Helvetica,sans-Serif" font-size="10.00">Parametric</text>
</a>
</g>
</g>
<!-- Node16&#45;&gt;Node17 -->
<g id="edge17" class="edge"><title>Node16&#45;&gt;Node17</title>
<path fill="none" stroke="midnightblue" d="M738.607,-45.6739C757.462,-45.1365 777.385,-44.5686 795.781,-44.0442"/>
<polygon fill="midnightblue" stroke="midnightblue" points="738.456,-42.1767 728.559,-45.9603 738.655,-49.1739 738.456,-42.1767"/>
</g>
<!-- Node18 -->
<g id="node18" class="node"><title>Node18</title>
<g id="a_node18"><a xlink:href="../../d1/dd8/classIG_1_1Num_1_1ScalarFunctionRadialOneParametric.html" target="_top" xlink:title="Base class for one parametric families of radial scalar functions with affine transformation of co&#45;or...">
<polygon fill="white" stroke="black" points="987,-27 987,-57 1132,-57 1132,-27 987,-27"/>
<text text-anchor="start" x="995" y="-45" font-family="Helvetica,sans-Serif" font-size="10.00">IG.Num.ScalarFunctionRadial</text>
<text text-anchor="middle" x="1059.5" y="-34" font-family="Helvetica,sans-Serif" font-size="10.00">OneParametric</text>
</a>
</g>
</g>
<!-- Node17&#45;&gt;Node18 -->
<g id="edge18" class="edge"><title>Node17&#45;&gt;Node18</title>
<path fill="none" stroke="midnightblue" d="M951.478,-42C963.246,-42 975.278,-42 986.827,-42"/>
<polygon fill="midnightblue" stroke="midnightblue" points="951.222,-38.5001 941.222,-42 951.222,-45.5001 951.222,-38.5001"/>
</g>
</g>
</svg>
        <g id="navigator" transform="translate(0 0)" fill="#404254">
                <rect fill="#f2f5e9" fill-opacity="0.5" stroke="#606060" stroke-width=".5" x="0" y="0" width="60" height="60"/>
                <use id="zoomplus" xlink:href="#zoomPlus" x="17" y="9" onmousedown="handleZoom(evt,'in')"/>
                <use id="zoomminus" xlink:href="#zoomMin" x="42" y="9" onmousedown="handleZoom(evt,'out')"/>
                <use id="reset" xlink:href="#resetDef" x="30" y="36" onmousedown="handleReset()"/>
                <g id="arrowUp" xlink:href="#dirArrow" transform="translate(30 24)" onmousedown="handlePan(0,-1)">
                  <use xlink:href="#rim" fill="#404040">
                        <set attributeName="fill" to="#808080" begin="arrowUp.mouseover" end="arrowUp.mouseout"/>
                  </use>
                  <path fill="none" stroke="white" stroke-width="1.5" d="M0,-3.0v7 M-2.5,-0.5L0,-3.0L2.5,-0.5"/>
                </g>
                <g id="arrowRight" xlink:href="#dirArrow" transform="rotate(90) translate(36 -43)" onmousedown="handlePan(1,0)">
                  <use xlink:href="#rim" fill="#404040">
                        <set attributeName="fill" to="#808080" begin="arrowRight.mouseover" end="arrowRight.mouseout"/>
                  </use>
                  <path fill="none" stroke="white" stroke-width="1.5" d="M0,-3.0v7 M-2.5,-0.5L0,-3.0L2.5,-0.5"/>
                </g>
                <g id="arrowDown" xlink:href="#dirArrow" transform="rotate(180) translate(-30 -48)" onmousedown="handlePan(0,1)">
                  <use xlink:href="#rim" fill="#404040">
                        <set attributeName="fill" to="#808080" begin="arrowDown.mouseover" end="arrowDown.mouseout"/>
                  </use>
                  <path fill="none" stroke="white" stroke-width="1.5" d="M0,-3.0v7 M-2.5,-0.5L0,-3.0L2.5,-0.5"/>
                </g>
                <g id="arrowLeft" xlink:href="#dirArrow" transform="rotate(270) translate(-36 17)" onmousedown="handlePan(-1,0)">
                  <use xlink:href="#rim" fill="#404040">
                        <set attributeName="fill" to="#808080" begin="arrowLeft.mouseover" end="arrowLeft.mouseout"/>
                  </use>
                  <path fill="none" stroke="white" stroke-width="1.5" d="M0,-3.0v7 M-2.5,-0.5L0,-3.0L2.5,-0.5"/>
                </g>
        </g>
        <svg viewBox="0 0 15 15" width="100%" height="30px" preserveAspectRatio="xMaxYMin meet">
         <g id="arrow_out" transform="scale(0.3 0.3)">
          <a xlink:href="classIG_1_1Num_1_1ScalarFunctionBase__inherit__graph_org.svg" target="_base">
           <rect id="button" ry="5" rx="5" y="6" x="6" height="38" width="38"
                fill="#f2f5e9" fill-opacity="0.5" stroke="#606060" stroke-width="1.0"/>
           <path id="arrow"
             d="M 11.500037,31.436501 C 11.940474,20.09759 22.043105,11.32322 32.158766,21.979434 L 37.068811,17.246167 C 37.068811,17.246167 37.088388,32 37.088388,32 L 22.160133,31.978069 C 22.160133,31.978069 26.997745,27.140456 26.997745,27.140456 C 18.528582,18.264221 13.291696,25.230495 11.500037,31.436501 z"
             style="fill:#404040;"/>
          </a>
         </g>
        </svg>
</svg>
