<?xml version="1.0" encoding="UTF-8" standalone="no"?>
<!DOCTYPE svg PUBLIC "-//W3C//DTD SVG 1.1//EN"
 "http://www.w3.org/Graphics/SVG/1.1/DTD/svg11.dtd">
<!-- Generated by graphviz version 2.38.0 (20140413.2041)
 -->
<!-- Title: IG.Lib.UtilSystem Pages: 1 -->
<svg width="197pt" height="205pt"
 viewBox="0.00 0.00 196.50 205.00" xmlns="http://www.w3.org/2000/svg" xmlns:xlink="http://www.w3.org/1999/xlink">
<g id="graph0" class="graph" transform="scale(1 1) rotate(0) translate(4 201)">
<title>IG.Lib.UtilSystem</title>
<polygon fill="white" stroke="none" points="-4,4 -4,-201 192.5,-201 192.5,4 -4,4"/>
<!-- Node1 -->
<g id="node1" class="node"><title>Node1</title>
<g id="a_node1"><a xlink:title="General utilities.">
<polygon fill="#bfbfbf" stroke="black" points="0,-0.5 0,-19.5 93,-19.5 93,-0.5 0,-0.5"/>
<text text-anchor="middle" x="46.5" y="-7.5" font-family="Helvetica,sans-Serif" font-size="10.00">IG.Lib.UtilSystem</text>
</a>
</g>
</g>
<!-- Node2 -->
<g id="node2" class="node"><title>Node2</title>
<g id="a_node2"><a xlink:title=" ">
<polygon fill="white" stroke="#bfbfbf" points="26,-177.5 26,-196.5 67,-196.5 67,-177.5 26,-177.5"/>
<text text-anchor="middle" x="46.5" y="-184.5" font-family="Helvetica,sans-Serif" font-size="10.00">static</text>
</a>
</g>
</g>
<!-- Node2&#45;&gt;Node1 -->
<g id="edge1" class="edge"><title>Node2&#45;&gt;Node1</title>
<path fill="none" stroke="#9a32cd" stroke-dasharray="5,2" d="M46.5,-166.951C46.5,-129.297 46.5,-46.6537 46.5,-19.6932"/>
<polygon fill="#9a32cd" stroke="#9a32cd" points="43.0001,-167.081 46.5,-177.081 50.0001,-167.081 43.0001,-167.081"/>
<text text-anchor="middle" x="117.5" y="-151" font-family="Helvetica,sans-Serif" font-size="10.00"> _searcPatternsNone</text>
<text text-anchor="middle" x="117.5" y="-140" font-family="Helvetica,sans-Serif" font-size="10.00">_resourceSeparatorString</text>
<text text-anchor="middle" x="117.5" y="-129" font-family="Helvetica,sans-Serif" font-size="10.00">_failedResolves</text>
<text text-anchor="middle" x="117.5" y="-118" font-family="Helvetica,sans-Serif" font-size="10.00">_referencedAssembliesDirect</text>
<text text-anchor="middle" x="117.5" y="-107" font-family="Helvetica,sans-Serif" font-size="10.00">_iglibAssembly</text>
<text text-anchor="middle" x="117.5" y="-96" font-family="Helvetica,sans-Serif" font-size="10.00">_soundExtensionsDotNetDefault</text>
<text text-anchor="middle" x="117.5" y="-85" font-family="Helvetica,sans-Serif" font-size="10.00">_resourceSeparator</text>
<text text-anchor="middle" x="117.5" y="-74" font-family="Helvetica,sans-Serif" font-size="10.00">_assemblyResolveHandlerAdded</text>
<text text-anchor="middle" x="117.5" y="-63" font-family="Helvetica,sans-Serif" font-size="10.00">_executingAssembly</text>
<text text-anchor="middle" x="117.5" y="-52" font-family="Helvetica,sans-Serif" font-size="10.00">_isOsDetected</text>
<text text-anchor="middle" x="117.5" y="-41" font-family="Helvetica,sans-Serif" font-size="10.00">...</text>
</g>
</g>
</svg>
