<?xml version="1.0" encoding="UTF-8" standalone="no"?>
<!DOCTYPE svg PUBLIC "-//W3C//DTD SVG 1.1//EN"
 "http://www.w3.org/Graphics/SVG/1.1/DTD/svg11.dtd">
<!-- Generated by graphviz version 2.38.0 (20140413.2041)
 -->
<!-- Title: IG.Lib.VectorDtoBase&lt; VectorType &gt; Pages: 1 -->
<svg width="129pt" height="106pt"
 viewBox="0.00 0.00 129.00 106.00" xmlns="http://www.w3.org/2000/svg" xmlns:xlink="http://www.w3.org/1999/xlink">
<g id="graph0" class="graph" transform="scale(1 1) rotate(0) translate(4 102)">
<title>IG.Lib.VectorDtoBase&lt; VectorType &gt;</title>
<polygon fill="white" stroke="none" points="-4,4 -4,-102 125,-102 125,4 -4,4"/>
<!-- Node1 -->
<g id="node1" class="node"><title>Node1</title>
<g id="a_node1"><a xlink:title="Base class for various vector DTO (Data Transfer Objects) for vectors. Used to store a state of a vec...">
<polygon fill="#bfbfbf" stroke="black" points="5,-0.5 5,-30.5 116,-30.5 116,-0.5 5,-0.5"/>
<text text-anchor="start" x="13" y="-18.5" font-family="Helvetica,sans-Serif" font-size="10.00">IG.Lib.VectorDtoBase</text>
<text text-anchor="middle" x="60.5" y="-7.5" font-family="Helvetica,sans-Serif" font-size="10.00">&lt; VectorType &gt;</text>
</a>
</g>
</g>
<!-- Node2 -->
<g id="node2" class="node"><title>Node2</title>
<g id="a_node2"><a xlink:href="../../d7/dd8/classIG_1_1Lib_1_1SerializationDtoBase.html" target="_top" xlink:title=" ">
<polygon fill="white" stroke="black" points="0,-67.5 0,-97.5 121,-97.5 121,-67.5 0,-67.5"/>
<text text-anchor="start" x="8" y="-85.5" font-family="Helvetica,sans-Serif" font-size="10.00">SerializationDtoBase</text>
<text text-anchor="middle" x="60.5" y="-74.5" font-family="Helvetica,sans-Serif" font-size="10.00">&lt; VectorType, IVector &gt;</text>
</a>
</g>
</g>
<!-- Node2&#45;&gt;Node1 -->
<g id="edge1" class="edge"><title>Node2&#45;&gt;Node1</title>
<path fill="none" stroke="midnightblue" d="M60.5,-57.1081C60.5,-48.1539 60.5,-38.3227 60.5,-30.5765"/>
<polygon fill="midnightblue" stroke="midnightblue" points="57.0001,-57.3959 60.5,-67.396 64.0001,-57.396 57.0001,-57.3959"/>
</g>
</g>
</svg>
