<?xml version="1.0" encoding="UTF-8" standalone="no"?>
<!DOCTYPE svg PUBLIC "-//W3C//DTD SVG 1.1//EN"
 "http://www.w3.org/Graphics/SVG/1.1/DTD/svg11.dtd">
<!-- Generated by graphviz version 2.38.0 (20140413.2041)
 -->
<!-- Title: IG.Gr.QuadriLateralFacePrimitive Pages: 1 -->
<svg width="167pt" height="140pt"
 viewBox="0.00 0.00 167.00 140.00" xmlns="http://www.w3.org/2000/svg" xmlns:xlink="http://www.w3.org/1999/xlink">
<g id="graph0" class="graph" transform="scale(1 1) rotate(0) translate(4 136)">
<title>IG.Gr.QuadriLateralFacePrimitive</title>
<polygon fill="white" stroke="none" points="-4,4 -4,-136 163,-136 163,4 -4,4"/>
<!-- Node1 -->
<g id="node1" class="node"><title>Node1</title>
<g id="a_node1"><a xlink:title=" ">
<polygon fill="#bfbfbf" stroke="black" points="0,-0.5 0,-19.5 159,-19.5 159,-0.5 0,-0.5"/>
<text text-anchor="middle" x="79.5" y="-7.5" font-family="Helvetica,sans-Serif" font-size="10.00">IG.Gr.QuadriLateralFacePrimitive</text>
</a>
</g>
</g>
<!-- Node2 -->
<g id="node2" class="node"><title>Node2</title>
<g id="a_node2"><a xlink:href="../../df/db0/classIG_1_1Gr_1_1GraphicPrimitiveSimple.html" target="_top" xlink:title="GraphicPrimitive that has a protected Coordinates[] array.">
<polygon fill="white" stroke="black" points="21,-56.5 21,-75.5 138,-75.5 138,-56.5 21,-56.5"/>
<text text-anchor="middle" x="79.5" y="-63.5" font-family="Helvetica,sans-Serif" font-size="10.00">GraphicPrimitiveSimple</text>
</a>
</g>
</g>
<!-- Node2&#45;&gt;Node1 -->
<g id="edge1" class="edge"><title>Node2&#45;&gt;Node1</title>
<path fill="none" stroke="midnightblue" d="M79.5,-45.8045C79.5,-36.9102 79.5,-26.7798 79.5,-19.7511"/>
<polygon fill="midnightblue" stroke="midnightblue" points="76.0001,-46.083 79.5,-56.083 83.0001,-46.083 76.0001,-46.083"/>
</g>
<!-- Node3 -->
<g id="node3" class="node"><title>Node3</title>
<g id="a_node3"><a xlink:href="../../d3/d1a/classIG_1_1Gr_1_1GraphicPrimitive.html" target="_top" xlink:title="Abstract base class for all graphic primitives such as lines, facets, etc.">
<polygon fill="white" stroke="black" points="36,-112.5 36,-131.5 123,-131.5 123,-112.5 36,-112.5"/>
<text text-anchor="middle" x="79.5" y="-119.5" font-family="Helvetica,sans-Serif" font-size="10.00">GraphicPrimitive</text>
</a>
</g>
</g>
<!-- Node3&#45;&gt;Node2 -->
<g id="edge2" class="edge"><title>Node3&#45;&gt;Node2</title>
<path fill="none" stroke="midnightblue" d="M79.5,-101.805C79.5,-92.9102 79.5,-82.7798 79.5,-75.7511"/>
<polygon fill="midnightblue" stroke="midnightblue" points="76.0001,-102.083 79.5,-112.083 83.0001,-102.083 76.0001,-102.083"/>
</g>
</g>
</svg>
