<?xml version="1.0" encoding="UTF-8" standalone="no"?>
<!DOCTYPE svg PUBLIC "-//W3C//DTD SVG 1.1//EN"
 "http://www.w3.org/Graphics/SVG/1.1/DTD/svg11.dtd">
<!-- Generated by graphviz version 2.38.0 (20140413.2041)
 -->
<!-- Title: IG.Num.RealFunctionParametricBase Pages: 1 -->
<svg width="287pt" height="140pt"
 viewBox="0.00 0.00 287.00 140.00" xmlns="http://www.w3.org/2000/svg" xmlns:xlink="http://www.w3.org/1999/xlink">
<g id="graph0" class="graph" transform="scale(1 1) rotate(0) translate(4 136)">
<title>IG.Num.RealFunctionParametricBase</title>
<polygon fill="white" stroke="none" points="-4,4 -4,-136 283,-136 283,4 -4,4"/>
<!-- Node1 -->
<g id="node1" class="node"><title>Node1</title>
<g id="a_node1"><a xlink:title="Base class for parameterized real&#45;valued functions of single variable. Parameters that completely def...">
<polygon fill="#bfbfbf" stroke="black" points="0,-0.5 0,-19.5 179,-19.5 179,-0.5 0,-0.5"/>
<text text-anchor="middle" x="89.5" y="-7.5" font-family="Helvetica,sans-Serif" font-size="10.00">IG.Num.RealFunctionParametricBase</text>
</a>
</g>
</g>
<!-- Node2 -->
<g id="node2" class="node"><title>Node2</title>
<g id="a_node2"><a xlink:href="../../d6/d30/classIG_1_1Num_1_1RealFunctionBase.html" target="_top" xlink:title="Base class for real functions of real variable.">
<polygon fill="white" stroke="black" points="41.5,-56.5 41.5,-75.5 137.5,-75.5 137.5,-56.5 41.5,-56.5"/>
<text text-anchor="middle" x="89.5" y="-63.5" font-family="Helvetica,sans-Serif" font-size="10.00">RealFunctionBase</text>
</a>
</g>
</g>
<!-- Node2&#45;&gt;Node1 -->
<g id="edge1" class="edge"><title>Node2&#45;&gt;Node1</title>
<path fill="none" stroke="midnightblue" d="M89.5,-45.8045C89.5,-36.9102 89.5,-26.7798 89.5,-19.7511"/>
<polygon fill="midnightblue" stroke="midnightblue" points="86.0001,-46.083 89.5,-56.083 93.0001,-46.083 86.0001,-46.083"/>
</g>
<!-- Node3 -->
<g id="node3" class="node"><title>Node3</title>
<g id="a_node3"><a xlink:href="../../db/d0e/interfaceIG_1_1Num_1_1IRealFunction.html" target="_top" xlink:title="Interface for real functions.">
<polygon fill="white" stroke="black" points="51.5,-112.5 51.5,-131.5 127.5,-131.5 127.5,-112.5 51.5,-112.5"/>
<text text-anchor="middle" x="89.5" y="-119.5" font-family="Helvetica,sans-Serif" font-size="10.00">IRealFunction</text>
</a>
</g>
</g>
<!-- Node3&#45;&gt;Node1 -->
<g id="edge3" class="edge"><title>Node3&#45;&gt;Node1</title>
<path fill="none" stroke="midnightblue" d="M62.829,-107.221C51.2523,-99.6968 38.8969,-89.2004 32.5,-76 21.1111,-52.4984 51.5365,-30.9159 72.1964,-19.5009"/>
<polygon fill="midnightblue" stroke="midnightblue" points="61.0457,-110.232 71.4185,-112.39 64.6554,-104.235 61.0457,-110.232"/>
</g>
<!-- Node3&#45;&gt;Node2 -->
<g id="edge2" class="edge"><title>Node3&#45;&gt;Node2</title>
<path fill="none" stroke="midnightblue" d="M89.5,-101.805C89.5,-92.9102 89.5,-82.7798 89.5,-75.7511"/>
<polygon fill="midnightblue" stroke="midnightblue" points="86.0001,-102.083 89.5,-112.083 93.0001,-102.083 86.0001,-102.083"/>
</g>
<!-- Node4 -->
<g id="node4" class="node"><title>Node4</title>
<g id="a_node4"><a xlink:href="../../d1/dfb/interfaceIG_1_1Num_1_1IRealFunctionParametric.html" target="_top" xlink:title="Parameterized real&#45;valued functions of single variable.">
<polygon fill="white" stroke="black" points="156,-56.5 156,-75.5 279,-75.5 279,-56.5 156,-56.5"/>
<text text-anchor="middle" x="217.5" y="-63.5" font-family="Helvetica,sans-Serif" font-size="10.00">IRealFunctionParametric</text>
</a>
</g>
</g>
<!-- Node3&#45;&gt;Node4 -->
<g id="edge5" class="edge"><title>Node3&#45;&gt;Node4</title>
<path fill="none" stroke="midnightblue" d="M119.123,-108.503C143.119,-98.3795 176.284,-84.388 197.313,-75.5164"/>
<polygon fill="midnightblue" stroke="midnightblue" points="117.635,-105.332 109.782,-112.444 120.356,-111.781 117.635,-105.332"/>
</g>
<!-- Node4&#45;&gt;Node1 -->
<g id="edge4" class="edge"><title>Node4&#45;&gt;Node1</title>
<path fill="none" stroke="midnightblue" d="M187.877,-52.503C163.881,-42.3795 130.716,-28.388 109.687,-19.5164"/>
<polygon fill="midnightblue" stroke="midnightblue" points="186.644,-55.7813 197.218,-56.4435 189.365,-49.3317 186.644,-55.7813"/>
</g>
</g>
</svg>
