<?xml version="1.0" encoding="UTF-8" standalone="no"?>
<!DOCTYPE svg PUBLIC "-//W3C//DTD SVG 1.1//EN"
 "http://www.w3.org/Graphics/SVG/1.1/DTD/svg11.dtd">
<!-- Generated by graphviz version 2.38.0 (20140413.2041)
 -->
<!-- Title: IG.Num.OptFileAnalysisClient Pages: 1 -->
<svg width="162pt" height="140pt"
 viewBox="0.00 0.00 162.00 140.00" xmlns="http://www.w3.org/2000/svg" xmlns:xlink="http://www.w3.org/1999/xlink">
<g id="graph0" class="graph" transform="scale(1 1) rotate(0) translate(4 136)">
<title>IG.Num.OptFileAnalysisClient</title>
<polygon fill="white" stroke="none" points="-4,4 -4,-136 158,-136 158,4 -4,4"/>
<!-- Node1 -->
<g id="node1" class="node"><title>Node1</title>
<g id="a_node1"><a xlink:title="File analysis client. Passes direct analysis request to the server and gets analysis results from it.">
<polygon fill="#bfbfbf" stroke="black" points="0,-0.5 0,-19.5 146,-19.5 146,-0.5 0,-0.5"/>
<text text-anchor="middle" x="73" y="-7.5" font-family="Helvetica,sans-Serif" font-size="10.00">IG.Num.OptFileAnalysisClient</text>
</a>
</g>
</g>
<!-- Node2 -->
<g id="node2" class="node"><title>Node2</title>
<g id="a_node2"><a xlink:href="../../dd/d1e/classIG_1_1Num_1_1AnalysisBase.html" target="_top" xlink:title="Base class for direct analysis classes that define optimization problems. Represent the complete defi...">
<polygon fill="white" stroke="black" points="34.5,-56.5 34.5,-75.5 111.5,-75.5 111.5,-56.5 34.5,-56.5"/>
<text text-anchor="middle" x="73" y="-63.5" font-family="Helvetica,sans-Serif" font-size="10.00">AnalysisBase</text>
</a>
</g>
</g>
<!-- Node2&#45;&gt;Node1 -->
<g id="edge1" class="edge"><title>Node2&#45;&gt;Node1</title>
<path fill="none" stroke="midnightblue" d="M73,-45.8045C73,-36.9102 73,-26.7798 73,-19.7511"/>
<polygon fill="midnightblue" stroke="midnightblue" points="69.5001,-46.083 73,-56.083 76.5001,-46.083 69.5001,-46.083"/>
</g>
<!-- Node3 -->
<g id="node3" class="node"><title>Node3</title>
<g id="a_node3"><a xlink:href="../../d5/d59/interfaceIG_1_1Num_1_1IAnalysis.html" target="_top" xlink:title="Interface for direct analysis classes used in optimization problems.">
<polygon fill="white" stroke="black" points="7,-112.5 7,-131.5 63,-131.5 63,-112.5 7,-112.5"/>
<text text-anchor="middle" x="35" y="-119.5" font-family="Helvetica,sans-Serif" font-size="10.00">IAnalysis</text>
</a>
</g>
</g>
<!-- Node3&#45;&gt;Node1 -->
<g id="edge4" class="edge"><title>Node3&#45;&gt;Node1</title>
<path fill="none" stroke="midnightblue" d="M26.9859,-102.67C22.3383,-89.2568 18.5535,-70.88 25,-56 31.8113,-40.2779 47.1201,-27.5306 58.6299,-19.6698"/>
<polygon fill="midnightblue" stroke="midnightblue" points="23.8131,-104.167 30.7191,-112.201 30.331,-101.614 23.8131,-104.167"/>
</g>
<!-- Node3&#45;&gt;Node2 -->
<g id="edge2" class="edge"><title>Node3&#45;&gt;Node2</title>
<path fill="none" stroke="midnightblue" d="M47.0647,-103.855C53.6447,-94.5048 61.511,-83.3265 66.8418,-75.7511"/>
<polygon fill="midnightblue" stroke="midnightblue" points="44.1676,-101.891 41.2749,-112.083 49.8922,-105.919 44.1676,-101.891"/>
</g>
<!-- Node4 -->
<g id="node4" class="node"><title>Node4</title>
<g id="a_node4"><a xlink:href="../../d3/db6/interfaceIG_1_1Lib_1_1ILockable.html" target="_top" xlink:title="Lockable object, has a Lock property that returns object on which lock must be performed in order to ...">
<polygon fill="white" stroke="black" points="96,-112.5 96,-131.5 154,-131.5 154,-112.5 96,-112.5"/>
<text text-anchor="middle" x="125" y="-119.5" font-family="Helvetica,sans-Serif" font-size="10.00">ILockable</text>
</a>
</g>
</g>
<!-- Node4&#45;&gt;Node1 -->
<g id="edge5" class="edge"><title>Node4&#45;&gt;Node1</title>
<path fill="none" stroke="midnightblue" d="M127.017,-102.059C127.645,-88.5814 126.807,-70.3868 120,-56 112.656,-40.4788 97.4635,-27.5248 86.3319,-19.5612"/>
<polygon fill="midnightblue" stroke="midnightblue" points="123.523,-101.845 126.243,-112.084 130.502,-102.383 123.523,-101.845"/>
</g>
<!-- Node4&#45;&gt;Node2 -->
<g id="edge3" class="edge"><title>Node4&#45;&gt;Node2</title>
<path fill="none" stroke="midnightblue" d="M109.321,-104.718C100.155,-95.1997 88.9474,-83.5608 81.427,-75.7511"/>
<polygon fill="midnightblue" stroke="midnightblue" points="106.956,-107.308 116.413,-112.083 111.998,-102.452 106.956,-107.308"/>
</g>
</g>
</svg>
