<?xml version="1.0" encoding="UTF-8" standalone="no"?>
<!DOCTYPE svg PUBLIC "-//W3C//DTD SVG 1.1//EN"
 "http://www.w3.org/Graphics/SVG/1.1/DTD/svg11.dtd">
<!-- Generated by graphviz version 2.38.0 (20140413.2041)
 -->
<!-- Title: IG.Lib.PipeClientBase Pages: 1 -->
<svg width="263pt" height="252pt"
 viewBox="0.00 0.00 262.50 252.00" xmlns="http://www.w3.org/2000/svg" xmlns:xlink="http://www.w3.org/1999/xlink">
<g id="graph0" class="graph" transform="scale(1 1) rotate(0) translate(4 248)">
<title>IG.Lib.PipeClientBase</title>
<polygon fill="white" stroke="none" points="-4,4 -4,-248 258.5,-248 258.5,4 -4,4"/>
<!-- Node1 -->
<g id="node1" class="node"><title>Node1</title>
<g id="a_node1"><a xlink:title="Client to the pipe server (classes derived from IpcStreamClientServerBase2).">
<polygon fill="#bfbfbf" stroke="black" points="0,-0.5 0,-19.5 112,-19.5 112,-0.5 0,-0.5"/>
<text text-anchor="middle" x="56" y="-7.5" font-family="Helvetica,sans-Serif" font-size="10.00">IG.Lib.PipeClientBase</text>
</a>
</g>
</g>
<!-- Node2 -->
<g id="node2" class="node"><title>Node2</title>
<g id="a_node2"><a xlink:href="../../da/d66/classIG_1_1Lib_1_1IpcStreamClientBase.html" target="_top" xlink:title="Client to the pipe server (classes derived from IpcStreamClientServerBase2).">
<polygon fill="white" stroke="black" points="43,-56.5 43,-75.5 151,-75.5 151,-56.5 43,-56.5"/>
<text text-anchor="middle" x="97" y="-63.5" font-family="Helvetica,sans-Serif" font-size="10.00">IpcStreamClientBase</text>
</a>
</g>
</g>
<!-- Node2&#45;&gt;Node1 -->
<g id="edge1" class="edge"><title>Node2&#45;&gt;Node1</title>
<path fill="none" stroke="midnightblue" d="M83.9828,-47.8554C76.8833,-38.5048 68.396,-27.3265 62.6443,-19.7511"/>
<polygon fill="midnightblue" stroke="midnightblue" points="81.395,-50.235 90.2297,-56.083 86.9701,-46.002 81.395,-50.235"/>
</g>
<!-- Node3 -->
<g id="node3" class="node"><title>Node3</title>
<g id="a_node3"><a xlink:href="../../da/d2c/classIG_1_1Lib_1_1IpcStreamClientServerBase2.html" target="_top" xlink:title="Base class for named pipe servers and clients, contains common stuff for both.">
<polygon fill="white" stroke="black" points="81,-112.5 81,-131.5 221,-131.5 221,-112.5 81,-112.5"/>
<text text-anchor="middle" x="151" y="-119.5" font-family="Helvetica,sans-Serif" font-size="10.00">IpcStreamClientServerBase2</text>
</a>
</g>
</g>
<!-- Node3&#45;&gt;Node2 -->
<g id="edge2" class="edge"><title>Node3&#45;&gt;Node2</title>
<path fill="none" stroke="midnightblue" d="M135.002,-105.002C125.433,-95.4329 113.639,-83.6389 105.751,-75.7511"/>
<polygon fill="midnightblue" stroke="midnightblue" points="132.537,-107.487 142.083,-112.083 137.487,-102.537 132.537,-107.487"/>
</g>
<!-- Node4 -->
<g id="node4" class="node"><title>Node4</title>
<g id="a_node4"><a xlink:href="../../d5/dd9/classIG_1_1Lib_1_1IpcStreamClientServerBase.html" target="_top" xlink:title="Base class for client and server classes with stream&#45;based communication.">
<polygon fill="white" stroke="black" points="119.5,-168.5 119.5,-187.5 254.5,-187.5 254.5,-168.5 119.5,-168.5"/>
<text text-anchor="middle" x="187" y="-175.5" font-family="Helvetica,sans-Serif" font-size="10.00">IpcStreamClientServerBase</text>
</a>
</g>
</g>
<!-- Node4&#45;&gt;Node3 -->
<g id="edge3" class="edge"><title>Node4&#45;&gt;Node3</title>
<path fill="none" stroke="midnightblue" d="M175.377,-159.566C169.183,-150.275 161.832,-139.248 156.834,-131.751"/>
<polygon fill="midnightblue" stroke="midnightblue" points="172.596,-161.704 181.055,-168.083 178.42,-157.821 172.596,-161.704"/>
</g>
<!-- Node5 -->
<g id="node5" class="node"><title>Node5</title>
<g id="a_node5"><a xlink:href="../../d3/db6/interfaceIG_1_1Lib_1_1ILockable.html" target="_top" xlink:title="Lockable object, has a Lock property that returns object on which lock must be performed in order to ...">
<polygon fill="white" stroke="black" points="43,-224.5 43,-243.5 101,-243.5 101,-224.5 43,-224.5"/>
<text text-anchor="middle" x="72" y="-231.5" font-family="Helvetica,sans-Serif" font-size="10.00">ILockable</text>
</a>
</g>
</g>
<!-- Node5&#45;&gt;Node1 -->
<g id="edge7" class="edge"><title>Node5&#45;&gt;Node1</title>
<path fill="none" stroke="midnightblue" d="M66.0573,-214.675C56.9864,-185.641 40.0976,-127.113 34,-76 32.9471,-67.1737 31.9964,-64.6601 34,-56 37.1363,-42.4442 44.946,-28.255 50.3622,-19.5194"/>
<polygon fill="midnightblue" stroke="midnightblue" points="62.7462,-215.813 69.1122,-224.282 69.417,-213.691 62.7462,-215.813"/>
</g>
<!-- Node5&#45;&gt;Node2 -->
<g id="edge6" class="edge"><title>Node5&#45;&gt;Node2</title>
<path fill="none" stroke="midnightblue" d="M69.1112,-214.073C66.079,-189.939 62.8979,-147.126 72,-112 75.5421,-98.3307 84.2349,-84.393 90.3713,-75.7252"/>
<polygon fill="midnightblue" stroke="midnightblue" points="65.6899,-214.882 70.5334,-224.305 72.6233,-213.918 65.6899,-214.882"/>
</g>
<!-- Node5&#45;&gt;Node3 -->
<g id="edge5" class="edge"><title>Node5&#45;&gt;Node3</title>
<path fill="none" stroke="midnightblue" d="M81.1377,-215.113C88.3034,-201.69 98.8936,-183.106 110,-168 119.892,-154.546 133.191,-140.558 141.924,-131.82"/>
<polygon fill="midnightblue" stroke="midnightblue" points="77.904,-213.744 76.3737,-224.227 84.1077,-216.986 77.904,-213.744"/>
</g>
<!-- Node5&#45;&gt;Node4 -->
<g id="edge4" class="edge"><title>Node5&#45;&gt;Node4</title>
<path fill="none" stroke="midnightblue" d="M99.4808,-220.096C120.966,-210.007 150.222,-196.27 168.863,-187.516"/>
<polygon fill="midnightblue" stroke="midnightblue" points="97.7862,-217.025 90.2221,-224.444 100.762,-223.361 97.7862,-217.025"/>
</g>
</g>
</svg>
