<?xml version="1.0" encoding="UTF-8" standalone="no"?>
<!DOCTYPE svg PUBLIC "-//W3C//DTD SVG 1.1//EN"
 "http://www.w3.org/Graphics/SVG/1.1/DTD/svg11.dtd">
<!-- Generated by graphviz version 2.38.0 (20140413.2041)
 -->
<!-- Title: IG.Num.NeuralApproximatorDtoBase&lt; Type &gt; Pages: 1 -->
<svg width="1161pt" height="376pt"
 viewBox="0.00 0.00 1161.00 375.50" xmlns="http://www.w3.org/2000/svg" xmlns:xlink="http://www.w3.org/1999/xlink">
<g id="graph0" class="graph" transform="scale(1 1) rotate(0) translate(4 371.5)">
<title>IG.Num.NeuralApproximatorDtoBase&lt; Type &gt;</title>
<polygon fill="white" stroke="none" points="-4,4 -4,-371.5 1157,-371.5 1157,4 -4,4"/>
<!-- Node1 -->
<g id="node1" class="node"><title>Node1</title>
<g id="a_node1"><a xlink:title="A data transfer object (DTO) for neural approximation classes that implement the INeuralApproximator ...">
<polygon fill="#bfbfbf" stroke="black" points="1015,-244 1015,-274 1153,-274 1153,-244 1015,-244"/>
<text text-anchor="start" x="1023" y="-262" font-family="Helvetica,sans-Serif" font-size="10.00">IG.Num.NeuralApproximator</text>
<text text-anchor="middle" x="1084" y="-251" font-family="Helvetica,sans-Serif" font-size="10.00">DtoBase&lt; Type &gt;</text>
</a>
</g>
</g>
<!-- Node2 -->
<g id="node2" class="node"><title>Node2</title>
<g id="a_node2"><a xlink:href="../../d7/dd8/classIG_1_1Lib_1_1SerializationDtoBase.html" target="_top" xlink:title=" ">
<polygon fill="white" stroke="black" points="736,-337 736,-367 885,-367 885,-337 736,-337"/>
<text text-anchor="start" x="744" y="-355" font-family="Helvetica,sans-Serif" font-size="10.00">SerializationDtoBase</text>
<text text-anchor="middle" x="810.5" y="-344" font-family="Helvetica,sans-Serif" font-size="10.00">&lt; Type, INeuralApproximator &gt;</text>
</a>
</g>
</g>
<!-- Node2&#45;&gt;Node1 -->
<g id="edge1" class="edge"><title>Node2&#45;&gt;Node1</title>
<path fill="none" stroke="midnightblue" d="M895.062,-355.346C927.975,-353.886 965.384,-348.65 997,-335 1028.28,-321.495 1056.14,-292.122 1071.2,-274.106"/>
<polygon fill="midnightblue" stroke="midnightblue" points="894.88,-351.85 885.003,-355.683 895.115,-358.846 894.88,-351.85"/>
</g>
<!-- Node3 -->
<g id="node3" class="node"><title>Node3</title>
<g id="a_node3"><a xlink:href="../../db/dcd/classIG_1_1Lib_1_1BoundingBoxDtoBase.html" target="_top" xlink:title="Base class for various DTO (Data Transfer Objects) for bounding boxes. Used to store a state of a bou...">
<polygon fill="white" stroke="black" points="740.5,-288 740.5,-318 880.5,-318 880.5,-288 740.5,-288"/>
<text text-anchor="start" x="748.5" y="-306" font-family="Helvetica,sans-Serif" font-size="10.00">IG.Lib.BoundingBoxDtoBase</text>
<text text-anchor="middle" x="810.5" y="-295" font-family="Helvetica,sans-Serif" font-size="10.00">&lt; BoxType &gt;</text>
</a>
</g>
</g>
<!-- Node3&#45;&gt;Node1 -->
<g id="edge2" class="edge"><title>Node3&#45;&gt;Node1</title>
<path fill="none" stroke="#9a32cd" stroke-dasharray="5,2" d="M890.799,-290.149C930.134,-283.774 977.162,-276.153 1014.85,-270.044"/>
<polygon fill="#9a32cd" stroke="#9a32cd" points="890.025,-286.729 880.713,-291.783 891.145,-293.639 890.025,-286.729"/>
<text text-anchor="middle" x="950" y="-323" font-family="Helvetica,sans-Serif" font-size="10.00"> InputDataBounds</text>
<text text-anchor="middle" x="950" y="-312" font-family="Helvetica,sans-Serif" font-size="10.00">OutputDataBounds</text>
<text text-anchor="middle" x="950" y="-301" font-family="Helvetica,sans-Serif" font-size="10.00">OutputNeuronsRange</text>
<text text-anchor="middle" x="950" y="-290" font-family="Helvetica,sans-Serif" font-size="10.00">InputNeuronsRange</text>
</g>
<!-- Node4 -->
<g id="node4" class="node"><title>Node4</title>
<g id="a_node4"><a xlink:href="../../d7/dd8/classIG_1_1Lib_1_1SerializationDtoBase.html" target="_top" xlink:title=" ">
<polygon fill="white" stroke="black" points="414.5,-289 414.5,-319 553.5,-319 553.5,-289 414.5,-289"/>
<text text-anchor="start" x="422.5" y="-307" font-family="Helvetica,sans-Serif" font-size="10.00">SerializationDtoBase</text>
<text text-anchor="middle" x="484" y="-296" font-family="Helvetica,sans-Serif" font-size="10.00">&lt; BoxType, IBoundingBox &gt;</text>
</a>
</g>
</g>
<!-- Node4&#45;&gt;Node3 -->
<g id="edge3" class="edge"><title>Node4&#45;&gt;Node3</title>
<path fill="none" stroke="midnightblue" d="M564.015,-303.757C617.888,-303.591 688.55,-303.373 740.222,-303.214"/>
<polygon fill="midnightblue" stroke="midnightblue" points="563.807,-300.257 553.818,-303.788 563.829,-307.257 563.807,-300.257"/>
</g>
<!-- Node5 -->
<g id="node5" class="node"><title>Node5</title>
<g id="a_node5"><a xlink:href="../../d2/d6e/classIG_1_1Lib_1_1IndexListDto.html" target="_top" xlink:title="Data Transfer Object (DTO) for index lists of type IndexList. Used to store, transfer,...">
<polygon fill="white" stroke="black" points="761,-249.5 761,-268.5 860,-268.5 860,-249.5 761,-249.5"/>
<text text-anchor="middle" x="810.5" y="-256.5" font-family="Helvetica,sans-Serif" font-size="10.00">IG.Lib.IndexListDto</text>
</a>
</g>
</g>
<!-- Node5&#45;&gt;Node1 -->
<g id="edge4" class="edge"><title>Node5&#45;&gt;Node1</title>
<path fill="none" stroke="#9a32cd" stroke-dasharray="5,2" d="M870.242,-259C912.798,-259 970.442,-259 1015,-259"/>
<polygon fill="#9a32cd" stroke="#9a32cd" points="870.039,-255.5 860.039,-259 870.039,-262.5 870.039,-255.5"/>
<text text-anchor="middle" x="950" y="-262" font-family="Helvetica,sans-Serif" font-size="10.00"> VerificationIndices</text>
</g>
<!-- Node6 -->
<g id="node6" class="node"><title>Node6</title>
<g id="a_node6"><a xlink:href="../../da/d46/classIG_1_1Lib_1_1SerializationDto.html" target="_top" xlink:title=" ">
<polygon fill="white" stroke="black" points="413,-250.5 413,-269.5 555,-269.5 555,-250.5 413,-250.5"/>
<text text-anchor="middle" x="484" y="-257.5" font-family="Helvetica,sans-Serif" font-size="10.00">SerializationDto&lt; IndexList &gt;</text>
</a>
</g>
</g>
<!-- Node6&#45;&gt;Node5 -->
<g id="edge5" class="edge"><title>Node6&#45;&gt;Node5</title>
<path fill="none" stroke="midnightblue" d="M565.043,-259.754C626.346,-259.565 708.926,-259.31 760.684,-259.151"/>
<polygon fill="midnightblue" stroke="midnightblue" points="565.001,-256.254 555.012,-259.785 565.023,-263.254 565.001,-256.254"/>
</g>
<!-- Node7 -->
<g id="node7" class="node"><title>Node7</title>
<g id="a_node7"><a xlink:href="../../dc/dec/classIG_1_1Lib_1_1VectorDtoBase.html" target="_top" xlink:title="Base class for various vector DTO (Data Transfer Objects) for vectors. Used to store a state of a vec...">
<polygon fill="white" stroke="black" points="168.5,-21.0003 168.5,-51.0003 279.5,-51.0003 279.5,-21.0003 168.5,-21.0003"/>
<text text-anchor="start" x="176.5" y="-39.0003" font-family="Helvetica,sans-Serif" font-size="10.00">IG.Lib.VectorDtoBase</text>
<text text-anchor="middle" x="224" y="-28.0003" font-family="Helvetica,sans-Serif" font-size="10.00">&lt; VectorType &gt;</text>
</a>
</g>
</g>
<!-- Node7&#45;&gt;Node1 -->
<g id="edge6" class="edge"><title>Node7&#45;&gt;Node1</title>
<path fill="none" stroke="#9a32cd" stroke-dasharray="5,2" d="M289.772,-22.3341C385.594,-4.81882 569.767,18.4354 718,-25.0003 870.416,-69.6618 1019.54,-199.666 1067.26,-243.991"/>
<polygon fill="#9a32cd" stroke="#9a32cd" points="288.843,-18.9469 279.655,-24.2224 290.128,-25.8281 288.843,-18.9469"/>
<text text-anchor="middle" x="650.5" y="-160" font-family="Helvetica,sans-Serif" font-size="10.00"> ConvergenceListRms</text>
<text text-anchor="start" x="583" y="-149" font-family="Helvetica,sans-Serif" font-size="10.00">ConvergenceErrorsVerification</text>
<text text-anchor="middle" x="650.5" y="-138" font-family="Helvetica,sans-Serif" font-size="10.00">RmsTable</text>
<text text-anchor="start" x="583" y="-127" font-family="Helvetica,sans-Serif" font-size="10.00">ConvergenceErrorsVerification</text>
<text text-anchor="middle" x="650.5" y="-116" font-family="Helvetica,sans-Serif" font-size="10.00">MaxTable</text>
<text text-anchor="start" x="583" y="-105" font-family="Helvetica,sans-Serif" font-size="10.00">ConvergenceErrorsTrainingMax</text>
<text text-anchor="middle" x="650.5" y="-94.0003" font-family="Helvetica,sans-Serif" font-size="10.00">Table</text>
<text text-anchor="middle" x="650.5" y="-83.0003" font-family="Helvetica,sans-Serif" font-size="10.00">ToleranceRms</text>
<text text-anchor="start" x="583" y="-72.0003" font-family="Helvetica,sans-Serif" font-size="10.00">ConvergenceErrorsTraining</text>
<text text-anchor="middle" x="650.5" y="-61.0003" font-family="Helvetica,sans-Serif" font-size="10.00">RmsTable</text>
<text text-anchor="middle" x="650.5" y="-50.0003" font-family="Helvetica,sans-Serif" font-size="10.00">ToleranceRmsRelativeToRange</text>
<text text-anchor="middle" x="650.5" y="-39.0003" font-family="Helvetica,sans-Serif" font-size="10.00">ToleranceMaxRelativeToRange</text>
<text text-anchor="middle" x="650.5" y="-28.0003" font-family="Helvetica,sans-Serif" font-size="10.00">ToleranceMax</text>
</g>
<!-- Node11 -->
<g id="node11" class="node"><title>Node11</title>
<g id="a_node11"><a xlink:href="../../d5/d0e/classIG_1_1Num_1_1SampledDataElementDto.html" target="_top" xlink:title="DTO (data transfer object) for sampled data element (one point with vectors of input and output param...">
<polygon fill="white" stroke="black" points="403,-140.5 403,-159.5 565,-159.5 565,-140.5 403,-140.5"/>
<text text-anchor="middle" x="484" y="-147.5" font-family="Helvetica,sans-Serif" font-size="10.00">IG.Num.SampledDataElementDto</text>
</a>
</g>
</g>
<!-- Node7&#45;&gt;Node11 -->
<g id="edge12" class="edge"><title>Node7&#45;&gt;Node11</title>
<path fill="none" stroke="#9a32cd" stroke-dasharray="5,2" d="M268.267,-55.1184C324.061,-79.7714 418.95,-121.699 461.38,-140.447"/>
<polygon fill="#9a32cd" stroke="#9a32cd" points="269.556,-51.8614 258.994,-51.0211 266.727,-58.2642 269.556,-51.8614"/>
<text text-anchor="middle" x="346.5" y="-121" font-family="Helvetica,sans-Serif" font-size="10.00"> _outputValues</text>
<text text-anchor="middle" x="346.5" y="-110" font-family="Helvetica,sans-Serif" font-size="10.00">_inputParameters</text>
</g>
<!-- Node8 -->
<g id="node8" class="node"><title>Node8</title>
<g id="a_node8"><a xlink:href="../../d7/dd8/classIG_1_1Lib_1_1SerializationDtoBase.html" target="_top" xlink:title=" ">
<polygon fill="white" stroke="black" points="0,-21.0003 0,-51.0003 121,-51.0003 121,-21.0003 0,-21.0003"/>
<text text-anchor="start" x="8" y="-39.0003" font-family="Helvetica,sans-Serif" font-size="10.00">SerializationDtoBase</text>
<text text-anchor="middle" x="60.5" y="-28.0003" font-family="Helvetica,sans-Serif" font-size="10.00">&lt; VectorType, IVector &gt;</text>
</a>
</g>
</g>
<!-- Node8&#45;&gt;Node7 -->
<g id="edge7" class="edge"><title>Node8&#45;&gt;Node7</title>
<path fill="none" stroke="midnightblue" d="M131.453,-36.0003C143.813,-36.0003 156.516,-36.0003 168.376,-36.0003"/>
<polygon fill="midnightblue" stroke="midnightblue" points="131.178,-32.5004 121.178,-36.0003 131.178,-39.5004 131.178,-32.5004"/>
</g>
<!-- Node9 -->
<g id="node9" class="node"><title>Node9</title>
<g id="a_node9"><a xlink:href="../../df/d6b/classIG_1_1Num_1_1SampledDataSetDto.html" target="_top" xlink:title="Data Transfer Object (DTO) for sampled data set.">
<polygon fill="white" stroke="black" points="740,-208.5 740,-227.5 881,-227.5 881,-208.5 740,-208.5"/>
<text text-anchor="middle" x="810.5" y="-215.5" font-family="Helvetica,sans-Serif" font-size="10.00">IG.Num.SampledDataSetDto</text>
</a>
</g>
</g>
<!-- Node9&#45;&gt;Node1 -->
<g id="edge8" class="edge"><title>Node9&#45;&gt;Node1</title>
<path fill="none" stroke="#9a32cd" stroke-dasharray="5,2" d="M891.166,-228.572C923.98,-233.081 962.355,-238.553 997,-244 1002.84,-244.919 1008.9,-245.905 1014.97,-246.918"/>
<polygon fill="#9a32cd" stroke="#9a32cd" points="891.553,-225.092 881.171,-227.204 890.604,-232.028 891.553,-225.092"/>
<text text-anchor="middle" x="950" y="-247" font-family="Helvetica,sans-Serif" font-size="10.00"> TrainingData</text>
</g>
<!-- Node10 -->
<g id="node10" class="node"><title>Node10</title>
<g id="a_node10"><a xlink:href="../../da/d46/classIG_1_1Lib_1_1SerializationDto.html" target="_top" xlink:title=" ">
<polygon fill="white" stroke="black" points="418,-201 418,-231 550,-231 550,-201 418,-201"/>
<text text-anchor="start" x="426" y="-219" font-family="Helvetica,sans-Serif" font-size="10.00">SerializationDto&lt; Sampled</text>
<text text-anchor="middle" x="484" y="-208" font-family="Helvetica,sans-Serif" font-size="10.00">DataSet &gt;</text>
</a>
</g>
</g>
<!-- Node10&#45;&gt;Node9 -->
<g id="edge9" class="edge"><title>Node10&#45;&gt;Node9</title>
<path fill="none" stroke="midnightblue" d="M560.509,-216.466C614.66,-216.799 687.068,-217.246 739.838,-217.571"/>
<polygon fill="midnightblue" stroke="midnightblue" points="560.298,-212.964 550.277,-216.403 560.255,-219.964 560.298,-212.964"/>
</g>
<!-- Node11&#45;&gt;Node9 -->
<g id="edge10" class="edge"><title>Node11&#45;&gt;Node9</title>
<path fill="none" stroke="#9a32cd" stroke-dasharray="5,2" d="M540.632,-161.658C603.762,-174.887 705.533,-196.214 764.084,-208.483"/>
<polygon fill="#9a32cd" stroke="#9a32cd" points="540.967,-158.153 530.462,-159.527 539.532,-165.004 540.967,-158.153"/>
<text text-anchor="middle" x="650.5" y="-201" font-family="Helvetica,sans-Serif" font-size="10.00"> _elements</text>
</g>
<!-- Node12 -->
<g id="node12" class="node"><title>Node12</title>
<g id="a_node12"><a xlink:href="../../da/d46/classIG_1_1Lib_1_1SerializationDto.html" target="_top" xlink:title=" ">
<polygon fill="white" stroke="black" points="158,-135 158,-165 290,-165 290,-135 158,-135"/>
<text text-anchor="start" x="166" y="-153" font-family="Helvetica,sans-Serif" font-size="10.00">SerializationDto&lt; Sampled</text>
<text text-anchor="middle" x="224" y="-142" font-family="Helvetica,sans-Serif" font-size="10.00">DataElement &gt;</text>
</a>
</g>
</g>
<!-- Node12&#45;&gt;Node11 -->
<g id="edge11" class="edge"><title>Node12&#45;&gt;Node11</title>
<path fill="none" stroke="midnightblue" d="M300.335,-150C332.473,-150 370.018,-150 402.682,-150"/>
<polygon fill="midnightblue" stroke="midnightblue" points="300.104,-146.5 290.104,-150 300.104,-153.5 300.104,-146.5"/>
</g>
</g>
</svg>
