<?xml version="1.0" encoding="UTF-8" standalone="no"?>
<!DOCTYPE svg PUBLIC "-//W3C//DTD SVG 1.1//EN"
 "http://www.w3.org/Graphics/SVG/1.1/DTD/svg11.dtd">
<!-- Generated by graphviz version 2.38.0 (20140413.2041)
 -->
<!-- Title: IG.Lib.IpcStreamClientServerBase2 Pages: 1 -->
<!--zoomable 148 -->
<svg id="main" version="1.1" xmlns="http://www.w3.org/2000/svg" xmlns:xlink="http://www.w3.org/1999/xlink" xml:space="preserve" onload="init(evt)">
<style type="text/css"><![CDATA[
.edge:hover path { stroke: red; }
.edge:hover polygon { stroke: red; fill: red; }
]]></style>
<script type="text/javascript"><![CDATA[
var edges = document.getElementsByTagName('g');
if (edges && edges.length) {
  for (var i=0;i<edges.length;i++) {
    if (edges[i].id.substr(0,4)=='edge') {
      edges[i].setAttribute('class','edge');
    }
  }
}
]]></script>
        <defs>
                <circle id="rim" cx="0" cy="0" r="7"/>
                <circle id="rim2" cx="0" cy="0" r="3.5"/>
                <g id="zoomPlus">
                        <use xlink:href="#rim" fill="#404040">
                                <set attributeName="fill" to="#808080" begin="zoomplus.mouseover" end="zoomplus.mouseout"/>
                        </use>
                        <path d="M-4,0h8M0,-4v8" fill="none" stroke="white" stroke-width="1.5" pointer-events="none"/>
                </g>
                <g id="zoomMin">
                        <use xlink:href="#rim" fill="#404040">
                                <set attributeName="fill" to="#808080" begin="zoomminus.mouseover" end="zoomminus.mouseout"/>
                        </use>
                        <path d="M-4,0h8" fill="none" stroke="white" stroke-width="1.5" pointer-events="none"/>
                </g>
                <g id="dirArrow">
                        <path fill="none" stroke="white" stroke-width="1.5" d="M0,-3.0v7 M-2.5,-0.5L0,-3.0L2.5,-0.5"/>
                </g>
               <g id="resetDef">
                       <use xlink:href="#rim2" fill="#404040">
                               <set attributeName="fill" to="#808080" begin="reset.mouseover" end="reset.mouseout"/>
                       </use>
               </g>
        </defs>

<script type="text/javascript">
var viewWidth = 961;
var viewHeight = 148;
var sectionId = 'dynsection-0';
</script>
<script xlink:href="../../svgpan.js"/>
<svg id="graph" class="graph">
<g id="viewport">
<title>IG.Lib.IpcStreamClientServerBase2</title>
<polygon fill="white" stroke="none" points="-4,4 -4,-143.5 957,-143.5 957,4 -4,4"/>
<!-- Node1 -->
<g id="node1" class="node"><title>Node1</title>
<g id="a_node1"><a xlink:title="Base class for named pipe servers and clients, contains common stuff for both.">
<polygon fill="#bfbfbf" stroke="black" points="265,-52 265,-82 406,-82 406,-52 265,-52"/>
<text text-anchor="start" x="273" y="-70" font-family="Helvetica,sans-Serif" font-size="10.00">IG.Lib.IpcStreamClientServer</text>
<text text-anchor="middle" x="335.5" y="-59" font-family="Helvetica,sans-Serif" font-size="10.00">Base2</text>
</a>
</g>
</g>
<!-- Node4 -->
<g id="node4" class="node"><title>Node4</title>
<g id="a_node4"><a xlink:href="../../da/d66/classIG_1_1Lib_1_1IpcStreamClientBase.html" target="_top" xlink:title="Client to the pipe server (classes derived from IpcStreamClientServerBase2).">
<polygon fill="white" stroke="black" points="443,-76.5 443,-95.5 580,-95.5 580,-76.5 443,-76.5"/>
<text text-anchor="middle" x="511.5" y="-83.5" font-family="Helvetica,sans-Serif" font-size="10.00">IG.Lib.IpcStreamClientBase</text>
</a>
</g>
</g>
<!-- Node1&#45;&gt;Node4 -->
<g id="edge4" class="edge"><title>Node1&#45;&gt;Node4</title>
<path fill="none" stroke="midnightblue" d="M416.044,-75.6859C424.981,-76.6617 434.024,-77.6491 442.791,-78.6065"/>
<polygon fill="midnightblue" stroke="midnightblue" points="416.34,-72.1975 406.02,-74.5912 415.581,-79.1561 416.34,-72.1975"/>
</g>
<!-- Node8 -->
<g id="node8" class="node"><title>Node8</title>
<g id="a_node8"><a xlink:href="../../d1/d4d/classIG_1_1Lib_1_1IpcStreamServerBase.html" target="_top" xlink:title="Server that creates a named pipe, listens on its input stream, and sends responses to the client.">
<polygon fill="white" stroke="black" points="442,-38.5 442,-57.5 581,-57.5 581,-38.5 442,-38.5"/>
<text text-anchor="middle" x="511.5" y="-45.5" font-family="Helvetica,sans-Serif" font-size="10.00">IG.Lib.IpcStreamServerBase</text>
</a>
</g>
</g>
<!-- Node1&#45;&gt;Node8 -->
<g id="edge8" class="edge"><title>Node1&#45;&gt;Node8</title>
<path fill="none" stroke="midnightblue" d="M416.089,-58.3092C424.723,-57.3664 433.455,-56.4129 441.942,-55.4862"/>
<polygon fill="midnightblue" stroke="midnightblue" points="415.581,-54.8439 406.02,-59.4088 416.34,-61.8025 415.581,-54.8439"/>
</g>
<!-- Node2 -->
<g id="node2" class="node"><title>Node2</title>
<g id="a_node2"><a xlink:href="../../d5/dd9/classIG_1_1Lib_1_1IpcStreamClientServerBase.html" target="_top" xlink:title="Base class for client and server classes with stream&#45;based communication.">
<polygon fill="white" stroke="black" points="94,-38.5 94,-57.5 229,-57.5 229,-38.5 94,-38.5"/>
<text text-anchor="middle" x="161.5" y="-45.5" font-family="Helvetica,sans-Serif" font-size="10.00">IpcStreamClientServerBase</text>
</a>
</g>
</g>
<!-- Node2&#45;&gt;Node1 -->
<g id="edge1" class="edge"><title>Node2&#45;&gt;Node1</title>
<path fill="none" stroke="midnightblue" d="M239.653,-56.5228C248.048,-57.45 256.556,-58.3899 264.853,-59.3064"/>
<polygon fill="midnightblue" stroke="midnightblue" points="239.816,-53.0195 229.492,-55.4003 239.047,-59.9772 239.816,-53.0195"/>
</g>
<!-- Node3 -->
<g id="node3" class="node"><title>Node3</title>
<g id="a_node3"><a xlink:href="../../d3/db6/interfaceIG_1_1Lib_1_1ILockable.html" target="_top" xlink:title="Lockable object, has a Lock property that returns object on which lock must be performed in order to ...">
<polygon fill="white" stroke="black" points="0,-57.5 0,-76.5 58,-76.5 58,-57.5 0,-57.5"/>
<text text-anchor="middle" x="29" y="-64.5" font-family="Helvetica,sans-Serif" font-size="10.00">ILockable</text>
</a>
</g>
</g>
<!-- Node3&#45;&gt;Node1 -->
<g id="edge3" class="edge"><title>Node3&#45;&gt;Node1</title>
<path fill="none" stroke="midnightblue" d="M68.3055,-67C117.497,-67 203.781,-67 264.761,-67"/>
<polygon fill="midnightblue" stroke="midnightblue" points="68.1009,-63.5001 58.1008,-67 68.1008,-70.5001 68.1009,-63.5001"/>
</g>
<!-- Node3&#45;&gt;Node2 -->
<g id="edge2" class="edge"><title>Node3&#45;&gt;Node2</title>
<path fill="none" stroke="midnightblue" d="M68.4834,-61.3971C76.8517,-60.1787 85.9306,-58.8568 95.0155,-57.5341"/>
<polygon fill="midnightblue" stroke="midnightblue" points="67.7079,-57.973 58.3166,-62.8773 68.7165,-64.8999 67.7079,-57.973"/>
</g>
<!-- Node5 -->
<g id="node5" class="node"><title>Node5</title>
<g id="a_node5"><a xlink:href="../../d3/d53/classIG_1_1Lib_1_1NamedPipeClientBase.html" target="_top" xlink:title="Client to the pipe server (classes derived from IpcStreamClientServerBase2).">
<polygon fill="white" stroke="black" points="618,-114.5 618,-133.5 761,-133.5 761,-114.5 618,-114.5"/>
<text text-anchor="middle" x="689.5" y="-121.5" font-family="Helvetica,sans-Serif" font-size="10.00">IG.Lib.NamedPipeClientBase</text>
</a>
</g>
</g>
<!-- Node4&#45;&gt;Node5 -->
<g id="edge5" class="edge"><title>Node4&#45;&gt;Node5</title>
<path fill="none" stroke="midnightblue" d="M566.933,-97.7526C591.819,-103.126 620.919,-109.409 644.407,-114.48"/>
<polygon fill="midnightblue" stroke="midnightblue" points="567.426,-94.2784 556.912,-95.589 565.948,-101.121 567.426,-94.2784"/>
</g>
<!-- Node7 -->
<g id="node7" class="node"><title>Node7</title>
<g id="a_node7"><a xlink:href="../../df/d28/classIG_1_1Lib_1_1PipeClientBase.html" target="_top" xlink:title="Client to the pipe server (classes derived from IpcStreamClientServerBase2).">
<polygon fill="white" stroke="black" points="633.5,-76.5 633.5,-95.5 745.5,-95.5 745.5,-76.5 633.5,-76.5"/>
<text text-anchor="middle" x="689.5" y="-83.5" font-family="Helvetica,sans-Serif" font-size="10.00">IG.Lib.PipeClientBase</text>
</a>
</g>
</g>
<!-- Node4&#45;&gt;Node7 -->
<g id="edge7" class="edge"><title>Node4&#45;&gt;Node7</title>
<path fill="none" stroke="midnightblue" d="M590.069,-86C604.671,-86 619.661,-86 633.401,-86"/>
<polygon fill="midnightblue" stroke="midnightblue" points="590.043,-82.5001 580.043,-86 590.043,-89.5001 590.043,-82.5001"/>
</g>
<!-- Node6 -->
<g id="node6" class="node"><title>Node6</title>
<g id="a_node6"><a xlink:href="../../df/d39/classIG_1_1Lib_1_1CommandLineApplicationInterpreter_1_1InterpreterPipeClient.html" target="_top" xlink:title="Client to the interpreter pipe server (classes derived from InterpreterPipeServer).">
<polygon fill="white" stroke="black" points="798,-109 798,-139 953,-139 953,-109 798,-109"/>
<text text-anchor="start" x="806" y="-127" font-family="Helvetica,sans-Serif" font-size="10.00">IG.Lib.CommandLineApplication</text>
<text text-anchor="middle" x="875.5" y="-116" font-family="Helvetica,sans-Serif" font-size="10.00">Interpreter.InterpreterPipeClient</text>
</a>
</g>
</g>
<!-- Node5&#45;&gt;Node6 -->
<g id="edge6" class="edge"><title>Node5&#45;&gt;Node6</title>
<path fill="none" stroke="midnightblue" d="M771.392,-124C780.219,-124 789.185,-124 797.958,-124"/>
<polygon fill="midnightblue" stroke="midnightblue" points="771.113,-120.5 761.113,-124 771.113,-127.5 771.113,-120.5"/>
</g>
<!-- Node9 -->
<g id="node9" class="node"><title>Node9</title>
<g id="a_node9"><a xlink:href="../../d3/d6a/classIG_1_1Lib_1_1NamedPipeServerBase.html" target="_top" xlink:title="Server that creates a named pipe, listens on its input stream, and sends responses to the client.">
<polygon fill="white" stroke="black" points="617,-38.5 617,-57.5 762,-57.5 762,-38.5 617,-38.5"/>
<text text-anchor="middle" x="689.5" y="-45.5" font-family="Helvetica,sans-Serif" font-size="10.00">IG.Lib.NamedPipeServerBase</text>
</a>
</g>
</g>
<!-- Node8&#45;&gt;Node9 -->
<g id="edge9" class="edge"><title>Node8&#45;&gt;Node9</title>
<path fill="none" stroke="midnightblue" d="M591.082,-48C599.692,-48 608.423,-48 616.942,-48"/>
<polygon fill="midnightblue" stroke="midnightblue" points="591.05,-44.5001 581.05,-48 591.05,-51.5001 591.05,-44.5001"/>
</g>
<!-- Node11 -->
<g id="node11" class="node"><title>Node11</title>
<g id="a_node11"><a xlink:href="../../d9/db5/classIG_1_1Lib_1_1PipeServerBase.html" target="_top" xlink:title="Server that creates a named pipe, listens on its input stream, and sends responses to the client.">
<polygon fill="white" stroke="black" points="632.5,-0.5 632.5,-19.5 746.5,-19.5 746.5,-0.5 632.5,-0.5"/>
<text text-anchor="middle" x="689.5" y="-7.5" font-family="Helvetica,sans-Serif" font-size="10.00">IG.Lib.PipeServerBase</text>
</a>
</g>
</g>
<!-- Node8&#45;&gt;Node11 -->
<g id="edge11" class="edge"><title>Node8&#45;&gt;Node11</title>
<path fill="none" stroke="midnightblue" d="M566.933,-36.2474C591.819,-30.8742 620.919,-24.5914 644.407,-19.5201"/>
<polygon fill="midnightblue" stroke="midnightblue" points="565.948,-32.8793 556.912,-38.411 567.426,-39.7216 565.948,-32.8793"/>
</g>
<!-- Node10 -->
<g id="node10" class="node"><title>Node10</title>
<g id="a_node10"><a xlink:href="../../da/d87/classIG_1_1Lib_1_1CommandLineApplicationInterpreter_1_1InterpreterPipeServer.html" target="_top" xlink:title="Command&#45;line interpreter&#39;s server that creates a named pipe, listens on its input stream for client r...">
<polygon fill="white" stroke="black" points="798,-33 798,-63 953,-63 953,-33 798,-33"/>
<text text-anchor="start" x="806" y="-51" font-family="Helvetica,sans-Serif" font-size="10.00">IG.Lib.CommandLineApplication</text>
<text text-anchor="middle" x="875.5" y="-40" font-family="Helvetica,sans-Serif" font-size="10.00">Interpreter.InterpreterPipeServer</text>
</a>
</g>
</g>
<!-- Node9&#45;&gt;Node10 -->
<g id="edge10" class="edge"><title>Node9&#45;&gt;Node10</title>
<path fill="none" stroke="midnightblue" d="M772.413,-48C780.876,-48 789.455,-48 797.858,-48"/>
<polygon fill="midnightblue" stroke="midnightblue" points="772.166,-44.5001 762.166,-48 772.166,-51.5001 772.166,-44.5001"/>
</g>
</g>
</svg>
        <g id="navigator" transform="translate(0 0)" fill="#404254">
                <rect fill="#f2f5e9" fill-opacity="0.5" stroke="#606060" stroke-width=".5" x="0" y="0" width="60" height="60"/>
                <use id="zoomplus" xlink:href="#zoomPlus" x="17" y="9" onmousedown="handleZoom(evt,'in')"/>
                <use id="zoomminus" xlink:href="#zoomMin" x="42" y="9" onmousedown="handleZoom(evt,'out')"/>
                <use id="reset" xlink:href="#resetDef" x="30" y="36" onmousedown="handleReset()"/>
                <g id="arrowUp" xlink:href="#dirArrow" transform="translate(30 24)" onmousedown="handlePan(0,-1)">
                  <use xlink:href="#rim" fill="#404040">
                        <set attributeName="fill" to="#808080" begin="arrowUp.mouseover" end="arrowUp.mouseout"/>
                  </use>
                  <path fill="none" stroke="white" stroke-width="1.5" d="M0,-3.0v7 M-2.5,-0.5L0,-3.0L2.5,-0.5"/>
                </g>
                <g id="arrowRight" xlink:href="#dirArrow" transform="rotate(90) translate(36 -43)" onmousedown="handlePan(1,0)">
                  <use xlink:href="#rim" fill="#404040">
                        <set attributeName="fill" to="#808080" begin="arrowRight.mouseover" end="arrowRight.mouseout"/>
                  </use>
                  <path fill="none" stroke="white" stroke-width="1.5" d="M0,-3.0v7 M-2.5,-0.5L0,-3.0L2.5,-0.5"/>
                </g>
                <g id="arrowDown" xlink:href="#dirArrow" transform="rotate(180) translate(-30 -48)" onmousedown="handlePan(0,1)">
                  <use xlink:href="#rim" fill="#404040">
                        <set attributeName="fill" to="#808080" begin="arrowDown.mouseover" end="arrowDown.mouseout"/>
                  </use>
                  <path fill="none" stroke="white" stroke-width="1.5" d="M0,-3.0v7 M-2.5,-0.5L0,-3.0L2.5,-0.5"/>
                </g>
                <g id="arrowLeft" xlink:href="#dirArrow" transform="rotate(270) translate(-36 17)" onmousedown="handlePan(-1,0)">
                  <use xlink:href="#rim" fill="#404040">
                        <set attributeName="fill" to="#808080" begin="arrowLeft.mouseover" end="arrowLeft.mouseout"/>
                  </use>
                  <path fill="none" stroke="white" stroke-width="1.5" d="M0,-3.0v7 M-2.5,-0.5L0,-3.0L2.5,-0.5"/>
                </g>
        </g>
        <svg viewBox="0 0 15 15" width="100%" height="30px" preserveAspectRatio="xMaxYMin meet">
         <g id="arrow_out" transform="scale(0.3 0.3)">
          <a xlink:href="classIG_1_1Lib_1_1IpcStreamClientServerBase2__inherit__graph_org.svg" target="_base">
           <rect id="button" ry="5" rx="5" y="6" x="6" height="38" width="38"
                fill="#f2f5e9" fill-opacity="0.5" stroke="#606060" stroke-width="1.0"/>
           <path id="arrow"
             d="M 11.500037,31.436501 C 11.940474,20.09759 22.043105,11.32322 32.158766,21.979434 L 37.068811,17.246167 C 37.068811,17.246167 37.088388,32 37.088388,32 L 22.160133,31.978069 C 22.160133,31.978069 26.997745,27.140456 26.997745,27.140456 C 18.528582,18.264221 13.291696,25.230495 11.500037,31.436501 z"
             style="fill:#404040;"/>
          </a>
         </g>
        </svg>
</svg>
