<?xml version="1.0" encoding="UTF-8" standalone="no"?>
<!DOCTYPE svg PUBLIC "-//W3C//DTD SVG 1.1//EN"
 "http://www.w3.org/Graphics/SVG/1.1/DTD/svg11.dtd">
<!-- Generated by graphviz version 2.38.0 (20140413.2041)
 -->
<!-- Title: IG.Lib.Copy.ClientServerStreamBase2 Pages: 1 -->
<svg width="346pt" height="286pt"
 viewBox="0.00 0.00 346.00 286.00" xmlns="http://www.w3.org/2000/svg" xmlns:xlink="http://www.w3.org/1999/xlink">
<g id="graph0" class="graph" transform="scale(1 1) rotate(0) translate(4 282)">
<title>IG.Lib.Copy.ClientServerStreamBase2</title>
<polygon fill="white" stroke="none" points="-4,4 -4,-282 342,-282 342,4 -4,4"/>
<!-- Node1 -->
<g id="node1" class="node"><title>Node1</title>
<g id="a_node1"><a xlink:title="Base class for named pipe servers and clients, contains common stuff for both.">
<polygon fill="#bfbfbf" stroke="black" points="41,-0.5 41,-30.5 163,-30.5 163,-0.5 41,-0.5"/>
<text text-anchor="start" x="49" y="-18.5" font-family="Helvetica,sans-Serif" font-size="10.00">IG.Lib.Copy.ClientServer</text>
<text text-anchor="middle" x="102" y="-7.5" font-family="Helvetica,sans-Serif" font-size="10.00">StreamBase2</text>
</a>
</g>
</g>
<!-- Node2 -->
<g id="node2" class="node"><title>Node2</title>
<g id="a_node2"><a xlink:href="../../d5/d2f/classIG_1_1Lib_1_1Copy_1_1ClienServerStreamBase.html" target="_top" xlink:title="Base class for client and server classes with stream&#45;based communication.">
<polygon fill="white" stroke="black" points="42.5,-108 42.5,-127 161.5,-127 161.5,-108 42.5,-108"/>
<text text-anchor="middle" x="102" y="-115" font-family="Helvetica,sans-Serif" font-size="10.00">ClienServerStreamBase</text>
</a>
</g>
</g>
<!-- Node2&#45;&gt;Node1 -->
<g id="edge1" class="edge"><title>Node2&#45;&gt;Node1</title>
<path fill="none" stroke="midnightblue" d="M102,-97.9279C102,-78.4723 102,-48.3391 102,-30.7015"/>
<polygon fill="midnightblue" stroke="midnightblue" points="98.5001,-97.974 102,-107.974 105.5,-97.9741 98.5001,-97.974"/>
</g>
<!-- Node3 -->
<g id="node3" class="node"><title>Node3</title>
<g id="a_node3"><a xlink:href="../../d3/db6/interfaceIG_1_1Lib_1_1ILockable.html" target="_top" xlink:title="Lockable object, has a Lock property that returns object on which lock must be performed in order to ...">
<polygon fill="white" stroke="black" points="0,-258.5 0,-277.5 58,-277.5 58,-258.5 0,-258.5"/>
<text text-anchor="middle" x="29" y="-265.5" font-family="Helvetica,sans-Serif" font-size="10.00">ILockable</text>
</a>
</g>
</g>
<!-- Node3&#45;&gt;Node1 -->
<g id="edge4" class="edge"><title>Node3&#45;&gt;Node1</title>
<path fill="none" stroke="midnightblue" d="M24.3053,-248.608C15.9749,-211.888 2.21618,-127.88 33,-68 41.4063,-51.6483 57.6633,-39.1208 72.2864,-30.5174"/>
<polygon fill="midnightblue" stroke="midnightblue" points="20.9204,-249.502 26.6611,-258.406 27.7265,-247.865 20.9204,-249.502"/>
</g>
<!-- Node3&#45;&gt;Node2 -->
<g id="edge2" class="edge"><title>Node3&#45;&gt;Node2</title>
<path fill="none" stroke="midnightblue" d="M36.8243,-248.656C44.0693,-231.92 55.3064,-206.582 66,-185 76.4914,-163.826 90.0271,-139.551 97.1393,-127.004"/>
<polygon fill="midnightblue" stroke="midnightblue" points="33.4186,-247.716 32.6856,-258.286 39.8498,-250.48 33.4186,-247.716"/>
</g>
<!-- Node4 -->
<g id="node4" class="node"><title>Node4</title>
<g id="a_node4"><a xlink:title=" ">
<polygon fill="white" stroke="#bfbfbf" points="144.5,-258.5 144.5,-277.5 185.5,-277.5 185.5,-258.5 144.5,-258.5"/>
<text text-anchor="middle" x="165" y="-265.5" font-family="Helvetica,sans-Serif" font-size="10.00">static</text>
</a>
</g>
</g>
<!-- Node4&#45;&gt;Node1 -->
<g id="edge5" class="edge"><title>Node4&#45;&gt;Node1</title>
<path fill="none" stroke="#9a32cd" stroke-dasharray="5,2" d="M195.185,-259.168C204.8,-255.092 214.389,-249.005 220,-240 232.927,-219.253 224.903,-208.948 220,-185 208.658,-129.6 204.816,-112.561 170,-68 158.147,-52.8293 140.797,-39.7859 126.589,-30.6213"/>
<polygon fill="#9a32cd" stroke="#9a32cd" points="193.915,-255.905 185.708,-262.606 196.302,-262.486 193.915,-255.905"/>
<text text-anchor="middle" x="277.5" y="-159" font-family="Helvetica,sans-Serif" font-size="10.00"> _defaultResponseEnd</text>
<text text-anchor="middle" x="277.5" y="-148" font-family="Helvetica,sans-Serif" font-size="10.00">_defaultStopRequest</text>
<text text-anchor="middle" x="277.5" y="-137" font-family="Helvetica,sans-Serif" font-size="10.00">_defaultPipeName</text>
<text text-anchor="middle" x="277.5" y="-126" font-family="Helvetica,sans-Serif" font-size="10.00">_defaultStoppedResponse</text>
<text text-anchor="middle" x="277.5" y="-115" font-family="Helvetica,sans-Serif" font-size="10.00">_defaultRequestEnd</text>
<text text-anchor="middle" x="277.5" y="-104" font-family="Helvetica,sans-Serif" font-size="10.00">_defaultIsMultilineResponse</text>
<text text-anchor="middle" x="277.5" y="-93" font-family="Helvetica,sans-Serif" font-size="10.00">_defaultIsMultilineRequest</text>
<text text-anchor="middle" x="277.5" y="-82" font-family="Helvetica,sans-Serif" font-size="10.00">_defaultErrorBegin</text>
<text text-anchor="middle" x="277.5" y="-71" font-family="Helvetica,sans-Serif" font-size="10.00">_defaultGenericResponse</text>
</g>
<!-- Node4&#45;&gt;Node2 -->
<g id="edge3" class="edge"><title>Node4&#45;&gt;Node2</title>
<path fill="none" stroke="#9a32cd" stroke-dasharray="5,2" d="M134.255,-265.913C115.305,-263.456 92.342,-256.87 80,-240 54.1791,-204.706 83.4805,-148.508 96.4495,-127.134"/>
<polygon fill="#9a32cd" stroke="#9a32cd" points="133.983,-269.403 144.276,-266.892 134.664,-262.436 133.983,-269.403"/>
<text text-anchor="middle" x="150" y="-232" font-family="Helvetica,sans-Serif" font-size="10.00"> _defaultMessagePrefix</text>
<text text-anchor="middle" x="150" y="-221" font-family="Helvetica,sans-Serif" font-size="10.00">_defaultMessageSeparator</text>
<text text-anchor="middle" x="150" y="-210" font-family="Helvetica,sans-Serif" font-size="10.00">_defaultMessageFalseSeparator</text>
<text text-anchor="middle" x="150" y="-199" font-family="Helvetica,sans-Serif" font-size="10.00">_defatultOutputLevel</text>
<text text-anchor="middle" x="150" y="-188" font-family="Helvetica,sans-Serif" font-size="10.00">_lockGlobal</text>
</g>
</g>
</svg>
