<?xml version="1.0" encoding="UTF-8" standalone="no"?>
<!DOCTYPE svg PUBLIC "-//W3C//DTD SVG 1.1//EN"
 "http://www.w3.org/Graphics/SVG/1.1/DTD/svg11.dtd">
<!-- Generated by graphviz version 2.38.0 (20140413.2041)
 -->
<!-- Title: IGLib.Gr3D.ConicalSpiralFermats3D Pages: 1 -->
<svg width="514pt" height="83pt"
 viewBox="0.00 0.00 514.00 83.00" xmlns="http://www.w3.org/2000/svg" xmlns:xlink="http://www.w3.org/1999/xlink">
<g id="graph0" class="graph" transform="scale(1 1) rotate(0) translate(4 79)">
<title>IGLib.Gr3D.ConicalSpiralFermats3D</title>
<polygon fill="white" stroke="none" points="-4,4 -4,-79 510,-79 510,4 -4,4"/>
<!-- Node1 -->
<g id="node1" class="node"><title>Node1</title>
<g id="a_node1"><a xlink:title="A 3D parametric curve with bounds &#45; the conical Fermat&#39;s spiral.">
<polygon fill="#bfbfbf" stroke="black" points="381,-22.5 381,-52.5 506,-52.5 506,-22.5 381,-22.5"/>
<text text-anchor="start" x="389" y="-40.5" font-family="Helvetica,sans-Serif" font-size="10.00">IGLib.Gr3D.ConicalSpiral</text>
<text text-anchor="middle" x="443.5" y="-29.5" font-family="Helvetica,sans-Serif" font-size="10.00">Fermats3D</text>
</a>
</g>
</g>
<!-- Node2 -->
<g id="node2" class="node"><title>Node2</title>
<g id="a_node2"><a xlink:href="../../d5/d39/classIGLib_1_1Gr3D_1_1ConicalCurve3DParameterizationFromPolarWithBounds.html" target="_top" xlink:title="Cartesion parameterization of a curve in 3D. Beside the Curve and (optional) CurveDerivative,...">
<polygon fill="white" stroke="black" points="187,-44.5 187,-74.5 345,-74.5 345,-44.5 187,-44.5"/>
<text text-anchor="start" x="195" y="-62.5" font-family="Helvetica,sans-Serif" font-size="10.00">ConicalCurve3DParameterization</text>
<text text-anchor="middle" x="266" y="-51.5" font-family="Helvetica,sans-Serif" font-size="10.00">FromPolarWithBounds</text>
</a>
</g>
</g>
<!-- Node2&#45;&gt;Node1 -->
<g id="edge1" class="edge"><title>Node2&#45;&gt;Node1</title>
<path fill="none" stroke="midnightblue" d="M355.394,-48.4192C364.046,-47.3347 372.689,-46.2513 380.987,-45.211"/>
<polygon fill="midnightblue" stroke="midnightblue" points="354.742,-44.9736 345.255,-49.6903 355.612,-51.9192 354.742,-44.9736"/>
</g>
<!-- Node3 -->
<g id="node3" class="node"><title>Node3</title>
<g id="a_node3"><a xlink:href="../../df/d02/interfaceIGLib_1_1Gr3D_1_1ICurve2DPolarParameterization.html" target="_top" xlink:title="Cylindrical parameterization of a curve in 3D. Beside the CurveCylindrical and (optional) CurveDeriva...">
<polygon fill="white" stroke="black" points="0,-50 0,-69 151,-69 151,-50 0,-50"/>
<text text-anchor="middle" x="75.5" y="-57" font-family="Helvetica,sans-Serif" font-size="10.00">ICurve2DPolarParameterization</text>
</a>
</g>
</g>
<!-- Node3&#45;&gt;Node2 -->
<g id="edge2" class="edge"><title>Node3&#45;&gt;Node2</title>
<path fill="none" stroke="midnightblue" d="M161.262,-59.5C169.732,-59.5 178.306,-59.5 186.705,-59.5"/>
<polygon fill="midnightblue" stroke="midnightblue" points="161,-56.0001 151,-59.5 161,-63.0001 161,-56.0001"/>
</g>
<!-- Node4 -->
<g id="node4" class="node"><title>Node4</title>
<g id="a_node4"><a xlink:href="../../d3/d54/interfaceIGLib_1_1Gr3D_1_1ICurve3DParameterizationWithBounds.html" target="_top" xlink:title="Cartesion parameterization of a curve in 3D. Beside the Curve and (optional) CurveDerivative,...">
<polygon fill="white" stroke="black" points="11.5,-0.5 11.5,-30.5 139.5,-30.5 139.5,-0.5 11.5,-0.5"/>
<text text-anchor="start" x="19.5" y="-18.5" font-family="Helvetica,sans-Serif" font-size="10.00">ICurve3DParameterization</text>
<text text-anchor="middle" x="75.5" y="-7.5" font-family="Helvetica,sans-Serif" font-size="10.00">WithBounds</text>
</a>
</g>
</g>
<!-- Node4&#45;&gt;Node1 -->
<g id="edge4" class="edge"><title>Node4&#45;&gt;Node1</title>
<path fill="none" stroke="midnightblue" d="M150.008,-19.9185C217.754,-23.9907 317.16,-29.9659 380.855,-33.7946"/>
<polygon fill="midnightblue" stroke="midnightblue" points="150.027,-16.4134 139.834,-19.307 149.606,-23.4008 150.027,-16.4134"/>
</g>
<!-- Node4&#45;&gt;Node2 -->
<g id="edge3" class="edge"><title>Node4&#45;&gt;Node2</title>
<path fill="none" stroke="midnightblue" d="M149.316,-32.4969C166.156,-36.4277 183.96,-40.5836 200.42,-44.4256"/>
<polygon fill="midnightblue" stroke="midnightblue" points="150.064,-29.0773 139.53,-30.2125 148.472,-35.8941 150.064,-29.0773"/>
</g>
</g>
</svg>
