<?xml version="1.0" encoding="UTF-8" standalone="no"?>
<!DOCTYPE svg PUBLIC "-//W3C//DTD SVG 1.1//EN"
 "http://www.w3.org/Graphics/SVG/1.1/DTD/svg11.dtd">
<!-- Generated by graphviz version 2.38.0 (20140413.2041)
 -->
<!-- Title: IG.Lib.Copy.ClientStreamBase Pages: 1 -->
<svg width="232pt" height="252pt"
 viewBox="0.00 0.00 231.50 252.00" xmlns="http://www.w3.org/2000/svg" xmlns:xlink="http://www.w3.org/1999/xlink">
<g id="graph0" class="graph" transform="scale(1 1) rotate(0) translate(4 248)">
<title>IG.Lib.Copy.ClientStreamBase</title>
<polygon fill="white" stroke="none" points="-4,4 -4,-248 227.5,-248 227.5,4 -4,4"/>
<!-- Node1 -->
<g id="node1" class="node"><title>Node1</title>
<g id="a_node1"><a xlink:title="Client to the pipe server (classes derived from ClientServerStreamBase2).">
<polygon fill="#bfbfbf" stroke="black" points="9.5,-56.5 9.5,-75.5 158.5,-75.5 158.5,-56.5 9.5,-56.5"/>
<text text-anchor="middle" x="84" y="-63.5" font-family="Helvetica,sans-Serif" font-size="10.00">IG.Lib.Copy.ClientStreamBase</text>
</a>
</g>
</g>
<!-- Node5 -->
<g id="node5" class="node"><title>Node5</title>
<g id="a_node5"><a xlink:href="../../d7/d21/classIG_1_1Lib_1_1Copy_1_1NamedPipeClientBase.html" target="_top" xlink:title="Client to the pipe server (classes derived from ClientServerStreamBase2).">
<polygon fill="white" stroke="black" points="0,-0.5 0,-19.5 168,-19.5 168,-0.5 0,-0.5"/>
<text text-anchor="middle" x="84" y="-7.5" font-family="Helvetica,sans-Serif" font-size="10.00">IG.Lib.Copy.NamedPipeClientBase</text>
</a>
</g>
</g>
<!-- Node1&#45;&gt;Node5 -->
<g id="edge6" class="edge"><title>Node1&#45;&gt;Node5</title>
<path fill="none" stroke="midnightblue" d="M84,-45.8045C84,-36.9102 84,-26.7798 84,-19.7511"/>
<polygon fill="midnightblue" stroke="midnightblue" points="80.5001,-46.083 84,-56.083 87.5001,-46.083 80.5001,-46.083"/>
</g>
<!-- Node2 -->
<g id="node2" class="node"><title>Node2</title>
<g id="a_node2"><a xlink:href="../../db/d41/classIG_1_1Lib_1_1Copy_1_1ClientServerStreamBase2.html" target="_top" xlink:title="Base class for named pipe servers and clients, contains common stuff for both.">
<polygon fill="white" stroke="black" points="66,-112.5 66,-131.5 194,-131.5 194,-112.5 66,-112.5"/>
<text text-anchor="middle" x="130" y="-119.5" font-family="Helvetica,sans-Serif" font-size="10.00">ClientServerStreamBase2</text>
</a>
</g>
</g>
<!-- Node2&#45;&gt;Node1 -->
<g id="edge1" class="edge"><title>Node2&#45;&gt;Node1</title>
<path fill="none" stroke="midnightblue" d="M115.886,-104.431C107.824,-94.9673 98.0408,-83.4827 91.4546,-75.7511"/>
<polygon fill="midnightblue" stroke="midnightblue" points="113.255,-106.74 122.404,-112.083 118.584,-102.201 113.255,-106.74"/>
</g>
<!-- Node3 -->
<g id="node3" class="node"><title>Node3</title>
<g id="a_node3"><a xlink:href="../../d5/d2f/classIG_1_1Lib_1_1Copy_1_1ClienServerStreamBase.html" target="_top" xlink:title="Base class for client and server classes with stream&#45;based communication.">
<polygon fill="white" stroke="black" points="104.5,-168.5 104.5,-187.5 223.5,-187.5 223.5,-168.5 104.5,-168.5"/>
<text text-anchor="middle" x="164" y="-175.5" font-family="Helvetica,sans-Serif" font-size="10.00">ClienServerStreamBase</text>
</a>
</g>
</g>
<!-- Node3&#45;&gt;Node2 -->
<g id="edge2" class="edge"><title>Node3&#45;&gt;Node2</title>
<path fill="none" stroke="midnightblue" d="M153.023,-159.566C147.173,-150.275 140.23,-139.248 135.51,-131.751"/>
<polygon fill="midnightblue" stroke="midnightblue" points="150.096,-161.486 158.386,-168.083 156.019,-157.756 150.096,-161.486"/>
</g>
<!-- Node4 -->
<g id="node4" class="node"><title>Node4</title>
<g id="a_node4"><a xlink:href="../../d3/db6/interfaceIG_1_1Lib_1_1ILockable.html" target="_top" xlink:title="Lockable object, has a Lock property that returns object on which lock must be performed in order to ...">
<polygon fill="white" stroke="black" points="47,-224.5 47,-243.5 105,-243.5 105,-224.5 47,-224.5"/>
<text text-anchor="middle" x="76" y="-231.5" font-family="Helvetica,sans-Serif" font-size="10.00">ILockable</text>
</a>
</g>
</g>
<!-- Node4&#45;&gt;Node1 -->
<g id="edge5" class="edge"><title>Node4&#45;&gt;Node1</title>
<path fill="none" stroke="midnightblue" d="M68.4074,-214.81C59.4936,-190.893 47.1062,-147.72 57,-112 60.8426,-98.1272 70.2268,-84.2372 76.8485,-75.6357"/>
<polygon fill="midnightblue" stroke="midnightblue" points="65.2434,-216.328 72.166,-224.348 71.756,-213.761 65.2434,-216.328"/>
</g>
<!-- Node4&#45;&gt;Node2 -->
<g id="edge4" class="edge"><title>Node4&#45;&gt;Node2</title>
<path fill="none" stroke="midnightblue" d="M79.5121,-214.262C82.4816,-200.882 87.4724,-182.72 95,-168 102.12,-154.077 113.783,-140.199 121.67,-131.614"/>
<polygon fill="midnightblue" stroke="midnightblue" points="76.055,-213.699 77.4818,-224.197 82.9133,-215.1 76.055,-213.699"/>
</g>
<!-- Node4&#45;&gt;Node3 -->
<g id="edge3" class="edge"><title>Node4&#45;&gt;Node3</title>
<path fill="none" stroke="midnightblue" d="M98.9769,-218.901C115.113,-208.999 136.181,-196.071 149.896,-187.655"/>
<polygon fill="midnightblue" stroke="midnightblue" points="96.8314,-216.111 90.1387,-224.324 100.493,-222.077 96.8314,-216.111"/>
</g>
</g>
</svg>
