<?xml version="1.0" encoding="UTF-8" standalone="no"?>
<!DOCTYPE svg PUBLIC "-//W3C//DTD SVG 1.1//EN"
 "http://www.w3.org/Graphics/SVG/1.1/DTD/svg11.dtd">
<!-- Generated by graphviz version 2.38.0 (20140413.2041)
 -->
<!-- Title: IG.Num.LUDecomposition Pages: 1 -->
<svg width="463pt" height="185pt"
 viewBox="0.00 0.00 463.00 185.00" xmlns="http://www.w3.org/2000/svg" xmlns:xlink="http://www.w3.org/1999/xlink">
<g id="graph0" class="graph" transform="scale(1 1) rotate(0) translate(4 181)">
<title>IG.Num.LUDecomposition</title>
<polygon fill="white" stroke="none" points="-4,4 -4,-181 459,-181 459,4 -4,4"/>
<!-- Node1 -->
<g id="node1" class="node"><title>Node1</title>
<g id="a_node1"><a xlink:title="LU decomposition of a matrix.">
<polygon fill="#bfbfbf" stroke="black" points="264,-0.5 264,-19.5 393,-19.5 393,-0.5 264,-0.5"/>
<text text-anchor="middle" x="328.5" y="-7.5" font-family="Helvetica,sans-Serif" font-size="10.00">IG.Num.LUDecomposition</text>
</a>
</g>
</g>
<!-- Node2 -->
<g id="node2" class="node"><title>Node2</title>
<g id="a_node2"><a xlink:href="../../d1/d9a/classIG_1_1Num_1_1LinearSolverBase.html" target="_top" xlink:title=" ">
<polygon fill="white" stroke="black" points="56.5,-57.5 56.5,-76.5 148.5,-76.5 148.5,-57.5 56.5,-57.5"/>
<text text-anchor="middle" x="102.5" y="-64.5" font-family="Helvetica,sans-Serif" font-size="10.00">LinearSolverBase</text>
</a>
</g>
</g>
<!-- Node2&#45;&gt;Node1 -->
<g id="edge1" class="edge"><title>Node2&#45;&gt;Node1</title>
<path fill="none" stroke="midnightblue" d="M147.711,-54.9972C190.626,-44.5535 254.231,-29.0742 293.435,-19.5334"/>
<polygon fill="midnightblue" stroke="midnightblue" points="146.701,-51.6408 137.813,-57.4063 148.357,-58.4423 146.701,-51.6408"/>
</g>
<!-- Node3 -->
<g id="node3" class="node"><title>Node3</title>
<g id="a_node3"><a xlink:href="../../d3/d24/interfaceIG_1_1Num_1_1IVector.html" target="_top" xlink:title="Generic Vector interface">
<polygon fill="white" stroke="black" points="0,-157.5 0,-176.5 107,-176.5 107,-157.5 0,-157.5"/>
<text text-anchor="middle" x="53.5" y="-164.5" font-family="Helvetica,sans-Serif" font-size="10.00">IG.Num.IVector&lt; T &gt;</text>
</a>
</g>
</g>
<!-- Node3&#45;&gt;Node2 -->
<g id="edge2" class="edge"><title>Node3&#45;&gt;Node2</title>
<path fill="none" stroke="#9a32cd" stroke-dasharray="5,2" d="M48.9182,-147.194C46.3041,-132.026 45.1647,-110.707 54.5,-95 59.4338,-86.6987 67.946,-80.7449 76.445,-76.5785"/>
<polygon fill="#9a32cd" stroke="#9a32cd" points="45.5799,-148.329 51.0557,-157.399 52.4312,-146.894 45.5799,-148.329"/>
<text text-anchor="middle" x="67.5" y="-120" font-family="Helvetica,sans-Serif" font-size="10.00"> auxB</text>
<text text-anchor="middle" x="67.5" y="-109" font-family="Helvetica,sans-Serif" font-size="10.00">auxX</text>
</g>
<!-- Node4 -->
<g id="node4" class="node"><title>Node4</title>
<g id="a_node4"><a xlink:title=" ">
<polygon fill="white" stroke="#bfbfbf" points="210.5,-157.5 210.5,-176.5 268.5,-176.5 268.5,-157.5 210.5,-157.5"/>
<text text-anchor="middle" x="239.5" y="-164.5" font-family="Helvetica,sans-Serif" font-size="10.00">Numerics</text>
</a>
</g>
</g>
<!-- Node4&#45;&gt;Node1 -->
<g id="edge7" class="edge"><title>Node4&#45;&gt;Node1</title>
<path fill="none" stroke="#9a32cd" stroke-dasharray="5,2" d="M271.375,-152.569C277.371,-148.883 283.123,-144.383 287.5,-139 311.621,-109.337 301.796,-93.3969 313.5,-57 317.666,-44.0454 322.566,-29.0657 325.603,-19.8116"/>
<polygon fill="#9a32cd" stroke="#9a32cd" points="269.643,-149.527 262.547,-157.395 273,-155.669 269.643,-149.527"/>
<text text-anchor="middle" x="326.5" y="-64.5" font-family="Helvetica,sans-Serif" font-size="10.00"> Base</text>
</g>
<!-- Node4&#45;&gt;Node2 -->
<g id="edge3" class="edge"><title>Node4&#45;&gt;Node2</title>
<path fill="none" stroke="#9a32cd" stroke-dasharray="5,2" d="M200.259,-163.578C164.568,-160.465 115.663,-153.605 103.5,-139 88.6683,-121.191 95.0813,-91.2485 99.5348,-76.5977"/>
<polygon fill="#9a32cd" stroke="#9a32cd" points="200.146,-167.08 210.394,-164.394 200.708,-160.103 200.146,-167.08"/>
<text text-anchor="middle" x="195.5" y="-131" font-family="Helvetica,sans-Serif" font-size="10.00"> _vectorSolution_MathNetNumerics</text>
<text text-anchor="middle" x="195.5" y="-120" font-family="Helvetica,sans-Serif" font-size="10.00">_matrixSolution_MathNetNumerics</text>
<text text-anchor="middle" x="195.5" y="-109" font-family="Helvetica,sans-Serif" font-size="10.00">_matrixRighthandSides_MathNetNumerics</text>
<text text-anchor="middle" x="195.5" y="-98" font-family="Helvetica,sans-Serif" font-size="10.00">_vectorRighthandSides_MathNetNumerics</text>
</g>
<!-- Node5 -->
<g id="node5" class="node"><title>Node5</title>
<g id="a_node5"><a xlink:href="../../da/d85/interfaceIG_1_1Num_1_1ILinearSolver.html" target="_top" xlink:title="Classes that can be used for solution of linear systems of equations.">
<polygon fill="white" stroke="black" points="384,-57.5 384,-76.5 455,-76.5 455,-57.5 384,-57.5"/>
<text text-anchor="middle" x="419.5" y="-64.5" font-family="Helvetica,sans-Serif" font-size="10.00">ILinearSolver</text>
</a>
</g>
</g>
<!-- Node5&#45;&gt;Node1 -->
<g id="edge4" class="edge"><title>Node5&#45;&gt;Node1</title>
<path fill="none" stroke="midnightblue" d="M396.518,-52.1101C379.554,-41.857 357.006,-28.2288 342.619,-19.5334"/>
<polygon fill="midnightblue" stroke="midnightblue" points="394.913,-55.229 405.281,-57.4063 398.533,-49.2382 394.913,-55.229"/>
</g>
<!-- Node6 -->
<g id="node6" class="node"><title>Node6</title>
<g id="a_node6"><a xlink:href="../../d3/db6/interfaceIG_1_1Lib_1_1ILockable.html" target="_top" xlink:title="Lockable object, has a Lock property that returns object on which lock must be performed in order to ...">
<polygon fill="white" stroke="black" points="348.5,-157.5 348.5,-176.5 406.5,-176.5 406.5,-157.5 348.5,-157.5"/>
<text text-anchor="middle" x="377.5" y="-164.5" font-family="Helvetica,sans-Serif" font-size="10.00">ILockable</text>
</a>
</g>
</g>
<!-- Node6&#45;&gt;Node1 -->
<g id="edge6" class="edge"><title>Node6&#45;&gt;Node1</title>
<path fill="none" stroke="midnightblue" d="M371.588,-147.3C360.946,-113.636 338.956,-44.0738 331.244,-19.6813"/>
<polygon fill="midnightblue" stroke="midnightblue" points="368.374,-148.743 374.725,-157.222 375.048,-146.633 368.374,-148.743"/>
</g>
<!-- Node6&#45;&gt;Node5 -->
<g id="edge5" class="edge"><title>Node6&#45;&gt;Node5</title>
<path fill="none" stroke="midnightblue" d="M385.173,-148.095C394.263,-126.887 409.027,-92.4365 415.841,-76.5374"/>
<polygon fill="midnightblue" stroke="midnightblue" points="381.949,-146.733 381.227,-157.303 388.383,-149.49 381.949,-146.733"/>
</g>
</g>
</svg>
