<?xml version="1.0" encoding="UTF-8" standalone="no"?>
<!DOCTYPE svg PUBLIC "-//W3C//DTD SVG 1.1//EN"
 "http://www.w3.org/Graphics/SVG/1.1/DTD/svg11.dtd">
<!-- Generated by graphviz version 2.38.0 (20140413.2041)
 -->
<!-- Title: IG.Reflection.SerializationBinderCascaded Pages: 1 -->
<svg width="224pt" height="218pt"
 viewBox="0.00 0.00 224.00 218.00" xmlns="http://www.w3.org/2000/svg" xmlns:xlink="http://www.w3.org/1999/xlink">
<g id="graph0" class="graph" transform="scale(1 1) rotate(0) translate(4 214)">
<title>IG.Reflection.SerializationBinderCascaded</title>
<polygon fill="white" stroke="none" points="-4,4 -4,-214 220,-214 220,4 -4,4"/>
<!-- Node1 -->
<g id="node1" class="node"><title>Node1</title>
<g id="a_node1"><a xlink:title="A cascaded SerializationBinder class that maps the assembly and type information of the serialized ob...">
<polygon fill="#bfbfbf" stroke="black" points="75,-0.5 75,-30.5 203,-30.5 203,-0.5 75,-0.5"/>
<text text-anchor="start" x="83" y="-18.5" font-family="Helvetica,sans-Serif" font-size="10.00">IG.Reflection.Serialization</text>
<text text-anchor="middle" x="139" y="-7.5" font-family="Helvetica,sans-Serif" font-size="10.00">BinderCascaded</text>
</a>
</g>
</g>
<!-- Node2 -->
<g id="node2" class="node"><title>Node2</title>
<g id="a_node2"><a xlink:href="../../d3/dae/classIG_1_1Reflection_1_1SerializationBinderCascadedImmutable.html" target="_top" xlink:title="A cascaded SerializationBinder class that maps the assembly and type information of the serialized ob...">
<polygon fill="white" stroke="black" points="19.5,-67.5 19.5,-97.5 160.5,-97.5 160.5,-67.5 19.5,-67.5"/>
<text text-anchor="start" x="27.5" y="-85.5" font-family="Helvetica,sans-Serif" font-size="10.00">SerializationBinderCascaded</text>
<text text-anchor="middle" x="90" y="-74.5" font-family="Helvetica,sans-Serif" font-size="10.00">Immutable</text>
</a>
</g>
</g>
<!-- Node2&#45;&gt;Node1 -->
<g id="edge1" class="edge"><title>Node2&#45;&gt;Node1</title>
<path fill="none" stroke="midnightblue" d="M106.843,-59.1575C113.988,-49.6788 122.1,-38.9186 128.388,-30.5765"/>
<polygon fill="midnightblue" stroke="midnightblue" points="103.857,-57.3038 100.632,-67.396 109.447,-61.5176 103.857,-57.3038"/>
</g>
<!-- Node3 -->
<g id="node3" class="node"><title>Node3</title>
<g id="a_node3"><a xlink:href="../../db/dfd/classIG_1_1Reflection_1_1SerializationBinderBase.html" target="_top" xlink:title="Enables to reference classes that both inherit from the framework&#39;s SerializationBinder (necessary fo...">
<polygon fill="white" stroke="black" points="3,-134.5 3,-153.5 123,-153.5 123,-134.5 3,-134.5"/>
<text text-anchor="middle" x="63" y="-141.5" font-family="Helvetica,sans-Serif" font-size="10.00">SerializationBinderBase</text>
</a>
</g>
</g>
<!-- Node3&#45;&gt;Node2 -->
<g id="edge2" class="edge"><title>Node3&#45;&gt;Node2</title>
<path fill="none" stroke="midnightblue" d="M71.1207,-125.104C75.13,-116.269 79.8963,-105.766 83.6366,-97.523"/>
<polygon fill="midnightblue" stroke="midnightblue" points="67.8136,-123.922 66.8684,-134.475 74.188,-126.815 67.8136,-123.922"/>
</g>
<!-- Node4 -->
<g id="node4" class="node"><title>Node4</title>
<g id="a_node4"><a xlink:title=" ">
<polygon fill="white" stroke="#bfbfbf" points="0,-190.5 0,-209.5 98,-209.5 98,-190.5 0,-190.5"/>
<text text-anchor="middle" x="49" y="-197.5" font-family="Helvetica,sans-Serif" font-size="10.00">SerializationBinder</text>
</a>
</g>
</g>
<!-- Node4&#45;&gt;Node3 -->
<g id="edge3" class="edge"><title>Node4&#45;&gt;Node3</title>
<path fill="none" stroke="midnightblue" d="M53.8234,-180.396C56.1654,-171.362 58.8684,-160.936 60.7312,-153.751"/>
<polygon fill="midnightblue" stroke="midnightblue" points="50.4335,-179.525 51.3118,-190.083 57.2095,-181.281 50.4335,-179.525"/>
</g>
<!-- Node5 -->
<g id="node5" class="node"><title>Node5</title>
<g id="a_node5"><a xlink:href="../../d6/dde/interfaceIG_1_1Reflection_1_1ISerializationBinder.html" target="_top" xlink:title="Interface implemented by IGLib&#39;s classes based on the framework&#39;s SerializationBinder class.">
<polygon fill="white" stroke="black" points="116,-190.5 116,-209.5 216,-209.5 216,-190.5 116,-190.5"/>
<text text-anchor="middle" x="166" y="-197.5" font-family="Helvetica,sans-Serif" font-size="10.00">ISerializationBinder</text>
</a>
</g>
</g>
<!-- Node5&#45;&gt;Node1 -->
<g id="edge6" class="edge"><title>Node5&#45;&gt;Node1</title>
<path fill="none" stroke="midnightblue" d="M169.697,-180.533C174.153,-154.631 179.787,-106.28 169,-67 165.327,-53.6263 157.09,-40.2097 150.175,-30.5702"/>
<polygon fill="midnightblue" stroke="midnightblue" points="166.24,-179.984 167.854,-190.455 173.122,-181.263 166.24,-179.984"/>
</g>
<!-- Node5&#45;&gt;Node2 -->
<g id="edge5" class="edge"><title>Node5&#45;&gt;Node2</title>
<path fill="none" stroke="midnightblue" d="M157.936,-181.167C151.583,-167.774 142.131,-149.201 132,-134 123.399,-121.095 112.083,-107.649 103.364,-97.8791"/>
<polygon fill="midnightblue" stroke="midnightblue" points="154.77,-182.658 162.151,-190.259 161.12,-179.714 154.77,-182.658"/>
</g>
<!-- Node5&#45;&gt;Node3 -->
<g id="edge4" class="edge"><title>Node5&#45;&gt;Node3</title>
<path fill="none" stroke="midnightblue" d="M140.421,-185.59C121.377,-175.605 95.9356,-162.267 79.5077,-153.655"/>
<polygon fill="midnightblue" stroke="midnightblue" points="138.969,-188.78 149.451,-190.324 142.22,-182.581 138.969,-188.78"/>
</g>
</g>
</svg>
