<?xml version="1.0" encoding="UTF-8" standalone="no"?>
<!DOCTYPE svg PUBLIC "-//W3C//DTD SVG 1.1//EN"
 "http://www.w3.org/Graphics/SVG/1.1/DTD/svg11.dtd">
<!-- Generated by graphviz version 2.38.0 (20140413.2041)
 -->
<!-- Title: IG.Lib.UtilStr Pages: 1 -->
<svg width="158pt" height="152pt"
 viewBox="0.00 0.00 158.00 152.00" xmlns="http://www.w3.org/2000/svg" xmlns:xlink="http://www.w3.org/1999/xlink">
<g id="graph0" class="graph" transform="scale(1 1) rotate(0) translate(4 148)">
<title>IG.Lib.UtilStr</title>
<polygon fill="white" stroke="none" points="-4,4 -4,-148 154,-148 154,4 -4,4"/>
<!-- Node1 -->
<g id="node1" class="node"><title>Node1</title>
<g id="a_node1"><a xlink:title="Various string operations, random strings, random characters, etc.">
<polygon fill="#bfbfbf" stroke="black" points="0,-0.5 0,-19.5 72,-19.5 72,-0.5 0,-0.5"/>
<text text-anchor="middle" x="36" y="-7.5" font-family="Helvetica,sans-Serif" font-size="10.00">IG.Lib.UtilStr</text>
</a>
</g>
</g>
<!-- Node2 -->
<g id="node2" class="node"><title>Node2</title>
<g id="a_node2"><a xlink:href="../../d9/dcb/classIG_1_1Lib_1_1UtilCsv.html" target="_top" xlink:title="Auxiliary utilities for dealing with files in CSV and other delimited formats.">
<polygon fill="white" stroke="black" points="99.5,-57.5 99.5,-76.5 146.5,-76.5 146.5,-57.5 99.5,-57.5"/>
<text text-anchor="middle" x="123" y="-64.5" font-family="Helvetica,sans-Serif" font-size="10.00">UtilCsv</text>
</a>
</g>
</g>
<!-- Node2&#45;&gt;Node1 -->
<g id="edge1" class="edge"><title>Node2&#45;&gt;Node1</title>
<path fill="none" stroke="midnightblue" d="M100.577,-51.8244C84.4116,-41.605 63.1255,-28.1483 49.4983,-19.5334"/>
<polygon fill="midnightblue" stroke="midnightblue" points="99.0834,-55.021 109.406,-57.4063 102.824,-49.1042 99.0834,-55.021"/>
</g>
<!-- Node3 -->
<g id="node3" class="node"><title>Node3</title>
<g id="a_node3"><a xlink:title=" ">
<polygon fill="white" stroke="#bfbfbf" points="17.5,-124.5 17.5,-143.5 58.5,-143.5 58.5,-124.5 17.5,-124.5"/>
<text text-anchor="middle" x="38" y="-131.5" font-family="Helvetica,sans-Serif" font-size="10.00">static</text>
</a>
</g>
</g>
<!-- Node3&#45;&gt;Node1 -->
<g id="edge3" class="edge"><title>Node3&#45;&gt;Node1</title>
<path fill="none" stroke="#9a32cd" stroke-dasharray="5,2" d="M26.3111,-115.745C19.8118,-105.088 12.3723,-90.8454 9,-77 6.89645,-68.3636 6.6686,-65.5777 9,-57 12.886,-42.7024 22.4614,-28.3081 29.0965,-19.5229"/>
<polygon fill="#9a32cd" stroke="#9a32cd" points="23.525,-117.884 31.8718,-124.409 29.4162,-114.103 23.525,-117.884"/>
<text text-anchor="middle" x="50" y="-64.5" font-family="Helvetica,sans-Serif" font-size="10.00"> _maxStringLength</text>
</g>
<!-- Node3&#45;&gt;Node2 -->
<g id="edge2" class="edge"><title>Node3&#45;&gt;Node2</title>
<path fill="none" stroke="#9a32cd" stroke-dasharray="5,2" d="M57.5267,-118.068C74.3047,-105.238 97.9116,-87.1853 111.718,-76.6273"/>
<polygon fill="#9a32cd" stroke="#9a32cd" points="55.281,-115.379 49.4635,-124.234 59.5332,-120.94 55.281,-115.379"/>
<text text-anchor="middle" x="117.5" y="-98" font-family="Helvetica,sans-Serif" font-size="10.00"> _csvSeparator</text>
</g>
</g>
</svg>
