<?xml version="1.0" encoding="UTF-8" standalone="no"?>
<!DOCTYPE svg PUBLIC "-//W3C//DTD SVG 1.1//EN"
 "http://www.w3.org/Graphics/SVG/1.1/DTD/svg11.dtd">
<!-- Generated by graphviz version 2.38.0 (20140413.2041)
 -->
<!-- Title: IG.Num.Func3d2dExamples.HyperboloidParametricMinus Pages: 1 -->
<svg width="272pt" height="319pt"
 viewBox="0.00 0.00 271.50 319.00" xmlns="http://www.w3.org/2000/svg" xmlns:xlink="http://www.w3.org/1999/xlink">
<g id="graph0" class="graph" transform="scale(1 1) rotate(0) translate(4 315)">
<title>IG.Num.Func3d2dExamples.HyperboloidParametricMinus</title>
<polygon fill="white" stroke="none" points="-4,4 -4,-315 267.5,-315 267.5,4 -4,4"/>
<!-- Node1 -->
<g id="node1" class="node"><title>Node1</title>
<g id="a_node1"><a xlink:title="Alternative parameterization of an origin&#45;centered hyperboloid surface (x^2/a^2+y^2/b^2&#45;z^2/c^2=1) in...">
<polygon fill="#bfbfbf" stroke="black" points="0,-0.5 0,-30.5 142,-30.5 142,-0.5 0,-0.5"/>
<text text-anchor="start" x="8" y="-18.5" font-family="Helvetica,sans-Serif" font-size="10.00">IG.Num.Func3d2dExamples.</text>
<text text-anchor="middle" x="71" y="-7.5" font-family="Helvetica,sans-Serif" font-size="10.00">HyperboloidParametricMinus</text>
</a>
</g>
</g>
<!-- Node2 -->
<g id="node2" class="node"><title>Node2</title>
<g id="a_node2"><a xlink:href="../../d5/dc2/classIG_1_1Num_1_1Func3d2dExamples_1_1HyperboloidParametric.html" target="_top" xlink:title="Parametric definition of an origin&#45;centered hyperboloid surface (x^2/a^2+y^2/b^2&#45;z^2/c^2=1) in form o...">
<polygon fill="white" stroke="black" points="56.5,-67.5 56.5,-86.5 171.5,-86.5 171.5,-67.5 56.5,-67.5"/>
<text text-anchor="middle" x="114" y="-74.5" font-family="Helvetica,sans-Serif" font-size="10.00">HyperboloidParametric</text>
</a>
</g>
</g>
<!-- Node2&#45;&gt;Node1 -->
<g id="edge1" class="edge"><title>Node2&#45;&gt;Node1</title>
<path fill="none" stroke="midnightblue" d="M101.893,-59.2472C95.3449,-50.1866 87.3501,-39.124 81.1342,-30.523"/>
<polygon fill="midnightblue" stroke="midnightblue" points="99.145,-61.4202 107.839,-67.4751 104.818,-57.32 99.145,-61.4202"/>
</g>
<!-- Node3 -->
<g id="node3" class="node"><title>Node3</title>
<g id="a_node3"><a xlink:href="../../d0/d54/classIG_1_1Num_1_1Func3d2dExamples_1_1ParametricSurface.html" target="_top" xlink:title="Base class for easy definition of parametric surfaces intended for plotting.">
<polygon fill="white" stroke="black" points="94.5,-123.5 94.5,-142.5 191.5,-142.5 191.5,-123.5 94.5,-123.5"/>
<text text-anchor="middle" x="143" y="-130.5" font-family="Helvetica,sans-Serif" font-size="10.00">ParametricSurface</text>
</a>
</g>
</g>
<!-- Node3&#45;&gt;Node2 -->
<g id="edge2" class="edge"><title>Node3&#45;&gt;Node2</title>
<path fill="none" stroke="midnightblue" d="M133.324,-113.983C128.402,-104.817 122.642,-94.0922 118.7,-86.7511"/>
<polygon fill="midnightblue" stroke="midnightblue" points="130.396,-115.929 138.211,-123.083 136.563,-112.617 130.396,-115.929"/>
</g>
<!-- Node4 -->
<g id="node4" class="node"><title>Node4</title>
<g id="a_node4"><a xlink:href="../../d3/dc0/classIG_1_1Num_1_1Func3d2dBaseNoGradient.html" target="_top" xlink:title="Base class for 3D vector functions of 2 variables (implementations of the IFunc3d2d interface) that d...">
<polygon fill="white" stroke="black" points="132.5,-179.5 132.5,-198.5 263.5,-198.5 263.5,-179.5 132.5,-179.5"/>
<text text-anchor="middle" x="198" y="-186.5" font-family="Helvetica,sans-Serif" font-size="10.00">Func3d2dBaseNoGradient</text>
</a>
</g>
</g>
<!-- Node4&#45;&gt;Node3 -->
<g id="edge3" class="edge"><title>Node4&#45;&gt;Node3</title>
<path fill="none" stroke="midnightblue" d="M181.706,-172.002C171.959,-162.433 159.947,-150.639 151.913,-142.751"/>
<polygon fill="midnightblue" stroke="midnightblue" points="179.33,-174.575 188.918,-179.083 184.234,-169.58 179.33,-174.575"/>
</g>
<!-- Node5 -->
<g id="node5" class="node"><title>Node5</title>
<g id="a_node5"><a xlink:href="../../df/d0e/classIG_1_1Num_1_1Func3d2dBase.html" target="_top" xlink:title="Base class for 3D vector functions of 2 variables (base for implementation of IFunc3d2d interface).">
<polygon fill="white" stroke="black" points="170,-235.5 170,-254.5 252,-254.5 252,-235.5 170,-235.5"/>
<text text-anchor="middle" x="211" y="-242.5" font-family="Helvetica,sans-Serif" font-size="10.00">Func3d2dBase</text>
</a>
</g>
</g>
<!-- Node5&#45;&gt;Node4 -->
<g id="edge4" class="edge"><title>Node5&#45;&gt;Node4</title>
<path fill="none" stroke="midnightblue" d="M206.45,-225.101C204.292,-216.136 201.818,-205.858 200.107,-198.751"/>
<polygon fill="midnightblue" stroke="midnightblue" points="203.11,-226.18 208.853,-235.083 209.915,-224.542 203.11,-226.18"/>
</g>
<!-- Node6 -->
<g id="node6" class="node"><title>Node6</title>
<g id="a_node6"><a xlink:href="../../d3/d6f/interfaceIG_1_1Num_1_1IFunc3d2d.html" target="_top" xlink:title="Represents 3D vector functions of 2 variables.">
<polygon fill="white" stroke="black" points="73,-291.5 73,-310.5 135,-310.5 135,-291.5 73,-291.5"/>
<text text-anchor="middle" x="104" y="-298.5" font-family="Helvetica,sans-Serif" font-size="10.00">IFunc3d2d</text>
</a>
</g>
</g>
<!-- Node6&#45;&gt;Node1 -->
<g id="edge9" class="edge"><title>Node6&#45;&gt;Node1</title>
<path fill="none" stroke="midnightblue" d="M84.4821,-284.846C61.9641,-265.496 28,-229.724 28,-190 28,-190 28,-190 28,-132 28,-93.486 49.2585,-52.0309 61.8808,-30.8113"/>
<polygon fill="midnightblue" stroke="midnightblue" points="82.518,-287.764 92.4572,-291.433 86.9755,-282.366 82.518,-287.764"/>
</g>
<!-- Node6&#45;&gt;Node2 -->
<g id="edge8" class="edge"><title>Node6&#45;&gt;Node2</title>
<path fill="none" stroke="midnightblue" d="M97.4843,-281.784C86.8339,-249.228 68.4584,-179.204 85,-123 89.1461,-108.912 99.2211,-95.0728 106.327,-86.5413"/>
<polygon fill="midnightblue" stroke="midnightblue" points="94.1948,-282.982 100.738,-291.314 100.819,-280.72 94.1948,-282.982"/>
</g>
<!-- Node6&#45;&gt;Node3 -->
<g id="edge7" class="edge"><title>Node6&#45;&gt;Node3</title>
<path fill="none" stroke="midnightblue" d="M105.423,-281.105C107.586,-257.005 112.603,-214.229 123,-179 126.872,-165.88 133.717,-151.582 138.305,-142.703"/>
<polygon fill="midnightblue" stroke="midnightblue" points="101.914,-281.067 104.579,-291.321 108.89,-281.643 101.914,-281.067"/>
</g>
<!-- Node6&#45;&gt;Node4 -->
<g id="edge6" class="edge"><title>Node6&#45;&gt;Node4</title>
<path fill="none" stroke="midnightblue" d="M118.027,-283.586C138.292,-259.871 175.039,-216.869 190.658,-198.591"/>
<polygon fill="midnightblue" stroke="midnightblue" points="115.212,-281.492 111.376,-291.368 120.533,-286.04 115.212,-281.492"/>
</g>
<!-- Node6&#45;&gt;Node5 -->
<g id="edge5" class="edge"><title>Node6&#45;&gt;Node5</title>
<path fill="none" stroke="midnightblue" d="M130.302,-286.726C150.115,-276.727 176.707,-263.307 193.851,-254.655"/>
<polygon fill="midnightblue" stroke="midnightblue" points="128.542,-283.694 121.191,-291.324 131.696,-289.943 128.542,-283.694"/>
</g>
</g>
</svg>
