<?xml version="1.0" encoding="UTF-8" standalone="no"?>
<!DOCTYPE svg PUBLIC "-//W3C//DTD SVG 1.1//EN"
 "http://www.w3.org/Graphics/SVG/1.1/DTD/svg11.dtd">
<!-- Generated by graphviz version 2.38.0 (20140413.2041)
 -->
<!-- Title: IG.Gr.StructuredSurfaceGridPrimitive Pages: 1 -->
<svg width="436pt" height="374pt"
 viewBox="0.00 0.00 436.00 374.00" xmlns="http://www.w3.org/2000/svg" xmlns:xlink="http://www.w3.org/1999/xlink">
<g id="graph0" class="graph" transform="scale(1 1) rotate(0) translate(4 370)">
<title>IG.Gr.StructuredSurfaceGridPrimitive</title>
<polygon fill="white" stroke="none" points="-4,4 -4,-370 432,-370 432,4 -4,4"/>
<!-- Node1 -->
<g id="node1" class="node"><title>Node1</title>
<g id="a_node1"><a xlink:title=" ">
<polygon fill="#bfbfbf" stroke="black" points="168.5,-0.5 168.5,-30.5 307.5,-30.5 307.5,-0.5 168.5,-0.5"/>
<text text-anchor="start" x="176.5" y="-18.5" font-family="Helvetica,sans-Serif" font-size="10.00">IG.Gr.StructuredSurfaceGrid</text>
<text text-anchor="middle" x="238" y="-7.5" font-family="Helvetica,sans-Serif" font-size="10.00">Primitive</text>
</a>
</g>
</g>
<!-- Node2 -->
<g id="node2" class="node"><title>Node2</title>
<g id="a_node2"><a xlink:href="../../d2/da6/classIG_1_1Gr_1_1SurfaceGridPrimitive.html" target="_top" xlink:title=" ">
<polygon fill="white" stroke="black" points="97,-78.5 97,-97.5 201,-97.5 201,-78.5 97,-78.5"/>
<text text-anchor="middle" x="149" y="-85.5" font-family="Helvetica,sans-Serif" font-size="10.00">SurfaceGridPrimitive</text>
</a>
</g>
</g>
<!-- Node2&#45;&gt;Node1 -->
<g id="edge1" class="edge"><title>Node2&#45;&gt;Node1</title>
<path fill="none" stroke="midnightblue" d="M167.777,-72.1262C183.249,-59.8698 205.04,-42.6084 220.23,-30.5762"/>
<polygon fill="midnightblue" stroke="midnightblue" points="165.579,-69.4025 159.913,-78.3553 169.925,-74.8895 165.579,-69.4025"/>
</g>
<!-- Node3 -->
<g id="node3" class="node"><title>Node3</title>
<g id="a_node3"><a xlink:href="../../d3/d1a/classIG_1_1Gr_1_1GraphicPrimitive.html" target="_top" xlink:title="Abstract base class for all graphic primitives such as lines, facets, etc.">
<polygon fill="white" stroke="black" points="104.5,-145.5 104.5,-164.5 191.5,-164.5 191.5,-145.5 104.5,-145.5"/>
<text text-anchor="middle" x="148" y="-152.5" font-family="Helvetica,sans-Serif" font-size="10.00">GraphicPrimitive</text>
</a>
</g>
</g>
<!-- Node3&#45;&gt;Node2 -->
<g id="edge2" class="edge"><title>Node3&#45;&gt;Node2</title>
<path fill="none" stroke="midnightblue" d="M148.292,-135.037C148.482,-122.67 148.721,-107.12 148.867,-97.6273"/>
<polygon fill="midnightblue" stroke="midnightblue" points="144.789,-135.181 148.135,-145.234 151.788,-135.289 144.789,-135.181"/>
</g>
<!-- Node4 -->
<g id="node4" class="node"><title>Node4</title>
<g id="a_node4"><a xlink:href="../../d0/da2/classIG_1_1Gr_1_1GraphicObject.html" target="_top" xlink:title="Graphic object, a tree &#45; like collection of graphic primitives.">
<polygon fill="white" stroke="black" points="95.5,-212.5 95.5,-231.5 200.5,-231.5 200.5,-212.5 95.5,-212.5"/>
<text text-anchor="middle" x="148" y="-219.5" font-family="Helvetica,sans-Serif" font-size="10.00">IG.Gr.GraphicObject</text>
</a>
</g>
</g>
<!-- Node4&#45;&gt;Node3 -->
<g id="edge3" class="edge"><title>Node4&#45;&gt;Node3</title>
<path fill="none" stroke="#9a32cd" stroke-dasharray="5,2" d="M148,-202.037C148,-189.67 148,-174.12 148,-164.627"/>
<polygon fill="#9a32cd" stroke="#9a32cd" points="144.5,-202.234 148,-212.234 151.5,-202.234 144.5,-202.234"/>
<text text-anchor="middle" x="166" y="-186" font-family="Helvetica,sans-Serif" font-size="10.00"> _parent</text>
</g>
<!-- Node4&#45;&gt;Node4 -->
<g id="edge4" class="edge"><title>Node4&#45;&gt;Node4</title>
<path fill="none" stroke="#9a32cd" stroke-dasharray="5,2" d="M210.845,-226.488C215.585,-225.488 218.5,-223.992 218.5,-222 218.5,-218.813 211.039,-216.895 200.575,-216.248"/>
<polygon fill="#9a32cd" stroke="#9a32cd" points="210.073,-223.057 200.575,-227.752 210.928,-230.004 210.073,-223.057"/>
<text text-anchor="middle" x="236.5" y="-219.5" font-family="Helvetica,sans-Serif" font-size="10.00"> _parent</text>
</g>
<!-- Node5 -->
<g id="node5" class="node"><title>Node5</title>
<g id="a_node5"><a xlink:href="../../dc/d46/classIG_1_1Gr_1_1GrPrimitiveSettings.html" target="_top" xlink:title="Settings for graphic primitive.">
<polygon fill="white" stroke="black" points="0,-279.5 0,-298.5 126,-298.5 126,-279.5 0,-279.5"/>
<text text-anchor="middle" x="63" y="-286.5" font-family="Helvetica,sans-Serif" font-size="10.00">IG.Gr.GrPrimitiveSettings</text>
</a>
</g>
</g>
<!-- Node5&#45;&gt;Node3 -->
<g id="edge7" class="edge"><title>Node5&#45;&gt;Node3</title>
<path fill="none" stroke="#9a32cd" stroke-dasharray="5,2" d="M51.16,-270.527C41.8323,-254.383 32.0713,-230.214 43,-212 58.0405,-186.932 88.5333,-172.467 112.801,-164.543"/>
<polygon fill="#9a32cd" stroke="#9a32cd" points="48.4513,-272.797 56.7229,-279.417 54.3853,-269.084 48.4513,-272.797"/>
<text text-anchor="middle" x="64.5" y="-219.5" font-family="Helvetica,sans-Serif" font-size="10.00"> _settings</text>
</g>
<!-- Node5&#45;&gt;Node4 -->
<g id="edge5" class="edge"><title>Node5&#45;&gt;Node4</title>
<path fill="none" stroke="#9a32cd" stroke-dasharray="5,2" d="M82.5267,-273.068C99.3047,-260.238 122.912,-242.185 136.718,-231.627"/>
<polygon fill="#9a32cd" stroke="#9a32cd" points="80.281,-270.379 74.4635,-279.234 84.5332,-275.94 80.281,-270.379"/>
<text text-anchor="middle" x="132.5" y="-253" font-family="Helvetica,sans-Serif" font-size="10.00"> _settings</text>
</g>
<!-- Node6 -->
<g id="node6" class="node"><title>Node6</title>
<g id="a_node6"><a xlink:href="../../dd/d52/structIG_1_1Lib_1_1color.html" target="_top" xlink:title="Extended color representation. Stores RGB components and opacity as double numbers ranging fom 0 to 1...">
<polygon fill="white" stroke="black" points="30,-346.5 30,-365.5 96,-365.5 96,-346.5 30,-346.5"/>
<text text-anchor="middle" x="63" y="-353.5" font-family="Helvetica,sans-Serif" font-size="10.00">IG.Lib.color</text>
</a>
</g>
</g>
<!-- Node6&#45;&gt;Node5 -->
<g id="edge6" class="edge"><title>Node6&#45;&gt;Node5</title>
<path fill="none" stroke="#9a32cd" stroke-dasharray="5,2" d="M63,-336.037C63,-323.67 63,-308.12 63,-298.627"/>
<polygon fill="#9a32cd" stroke="#9a32cd" points="59.5001,-336.234 63,-346.234 66.5001,-336.234 59.5001,-336.234"/>
<text text-anchor="middle" x="78" y="-320" font-family="Helvetica,sans-Serif" font-size="10.00"> _color</text>
</g>
<!-- Node7 -->
<g id="node7" class="node"><title>Node7</title>
<g id="a_node7"><a xlink:href="../../d5/da1/classIG_1_1Gr_1_1StructuredSurfaceMesh3D.html" target="_top" xlink:title=" ">
<polygon fill="white" stroke="black" points="219.5,-78.5 219.5,-97.5 376.5,-97.5 376.5,-78.5 219.5,-78.5"/>
<text text-anchor="middle" x="298" y="-85.5" font-family="Helvetica,sans-Serif" font-size="10.00">IG.Gr.StructuredSurfaceMesh3D</text>
</a>
</g>
</g>
<!-- Node7&#45;&gt;Node1 -->
<g id="edge8" class="edge"><title>Node7&#45;&gt;Node1</title>
<path fill="none" stroke="#9a32cd" stroke-dasharray="5,2" d="M283.866,-70.3927C273.56,-58.2828 259.746,-42.0514 249.98,-30.5762"/>
<polygon fill="#9a32cd" stroke="#9a32cd" points="281.496,-73.0083 290.643,-78.3553 286.827,-68.4715 281.496,-73.0083"/>
<text text-anchor="middle" x="290.5" y="-52" font-family="Helvetica,sans-Serif" font-size="10.00"> _mesh</text>
</g>
<!-- Node8 -->
<g id="node8" class="node"><title>Node8</title>
<g id="a_node8"><a xlink:href="../../d9/d83/classIG_1_1Gr_1_1SurfceMesh3D.html" target="_top" xlink:title="Surface mesh in 3 dimensions.">
<polygon fill="white" stroke="black" points="258,-145.5 258,-164.5 338,-164.5 338,-145.5 258,-145.5"/>
<text text-anchor="middle" x="298" y="-152.5" font-family="Helvetica,sans-Serif" font-size="10.00">SurfceMesh3D</text>
</a>
</g>
</g>
<!-- Node8&#45;&gt;Node7 -->
<g id="edge9" class="edge"><title>Node8&#45;&gt;Node7</title>
<path fill="none" stroke="midnightblue" d="M298,-135.037C298,-122.67 298,-107.12 298,-97.6273"/>
<polygon fill="midnightblue" stroke="midnightblue" points="294.5,-135.234 298,-145.234 301.5,-135.234 294.5,-135.234"/>
</g>
<!-- Node9 -->
<g id="node9" class="node"><title>Node9</title>
<g id="a_node9"><a xlink:href="../../d5/ddb/classIG_1_1Gr_1_1Mesh3D.html" target="_top" xlink:title=" ">
<polygon fill="white" stroke="black" points="272.5,-212.5 272.5,-231.5 325.5,-231.5 325.5,-212.5 272.5,-212.5"/>
<text text-anchor="middle" x="299" y="-219.5" font-family="Helvetica,sans-Serif" font-size="10.00">Mesh3D</text>
</a>
</g>
</g>
<!-- Node9&#45;&gt;Node8 -->
<g id="edge10" class="edge"><title>Node9&#45;&gt;Node8</title>
<path fill="none" stroke="midnightblue" d="M298.708,-202.037C298.518,-189.67 298.279,-174.12 298.133,-164.627"/>
<polygon fill="midnightblue" stroke="midnightblue" points="295.212,-202.289 298.865,-212.234 302.211,-202.181 295.212,-202.289"/>
</g>
<!-- Node10 -->
<g id="node10" class="node"><title>Node10</title>
<g id="a_node10"><a xlink:href="../../dd/d6e/classIG_1_1Gr_1_1Mesh.html" target="_top" xlink:title="Base class for all mesh classes.">
<polygon fill="white" stroke="black" points="278.5,-279.5 278.5,-298.5 319.5,-298.5 319.5,-279.5 278.5,-279.5"/>
<text text-anchor="middle" x="299" y="-286.5" font-family="Helvetica,sans-Serif" font-size="10.00">Mesh</text>
</a>
</g>
</g>
<!-- Node10&#45;&gt;Node9 -->
<g id="edge11" class="edge"><title>Node10&#45;&gt;Node9</title>
<path fill="none" stroke="midnightblue" d="M299,-269.037C299,-256.67 299,-241.12 299,-231.627"/>
<polygon fill="midnightblue" stroke="midnightblue" points="295.5,-269.234 299,-279.234 302.5,-269.234 295.5,-269.234"/>
</g>
<!-- Node11 -->
<g id="node11" class="node"><title>Node11</title>
<g id="a_node11"><a xlink:href="../../df/d16/structIG_1_1Num_1_1vec3.html" target="_top" xlink:title="3D vector, struct implementation.">
<polygon fill="white" stroke="black" points="356,-145.5 356,-164.5 428,-164.5 428,-145.5 356,-145.5"/>
<text text-anchor="middle" x="392" y="-152.5" font-family="Helvetica,sans-Serif" font-size="10.00">IG.Num.vec3</text>
</a>
</g>
</g>
<!-- Node11&#45;&gt;Node7 -->
<g id="edge12" class="edge"><title>Node11&#45;&gt;Node7</title>
<path fill="none" stroke="#9a32cd" stroke-dasharray="5,2" d="M370.915,-139.42C352.331,-126.569 325.885,-108.282 310.476,-97.6273"/>
<polygon fill="#9a32cd" stroke="#9a32cd" points="369.107,-142.425 379.323,-145.234 373.088,-136.667 369.107,-142.425"/>
<text text-anchor="middle" x="389" y="-119" font-family="Helvetica,sans-Serif" font-size="10.00"> _gridCoordinates</text>
</g>
</g>
</svg>
