<?xml version="1.0" encoding="UTF-8" standalone="no"?>
<!DOCTYPE svg PUBLIC "-//W3C//DTD SVG 1.1//EN"
 "http://www.w3.org/Graphics/SVG/1.1/DTD/svg11.dtd">
<!-- Generated by graphviz version 2.38.0 (20140413.2041)
 -->
<!-- Title: IG.Num.Func3d2dExamples.SphereParametric Pages: 1 -->
<svg width="276pt" height="319pt"
 viewBox="0.00 0.00 275.50 319.00" xmlns="http://www.w3.org/2000/svg" xmlns:xlink="http://www.w3.org/1999/xlink">
<g id="graph0" class="graph" transform="scale(1 1) rotate(0) translate(4 315)">
<title>IG.Num.Func3d2dExamples.SphereParametric</title>
<polygon fill="white" stroke="none" points="-4,4 -4,-315 271.5,-315 271.5,4 -4,4"/>
<!-- Node1 -->
<g id="node1" class="node"><title>Node1</title>
<g id="a_node1"><a xlink:title="Parametric equation of an origin&#45;centered sphere.">
<polygon fill="#bfbfbf" stroke="black" points="0,-0.5 0,-30.5 142,-30.5 142,-0.5 0,-0.5"/>
<text text-anchor="start" x="8" y="-18.5" font-family="Helvetica,sans-Serif" font-size="10.00">IG.Num.Func3d2dExamples.</text>
<text text-anchor="middle" x="71" y="-7.5" font-family="Helvetica,sans-Serif" font-size="10.00">SphereParametric</text>
</a>
</g>
</g>
<!-- Node2 -->
<g id="node2" class="node"><title>Node2</title>
<g id="a_node2"><a xlink:href="../../de/d46/classIG_1_1Num_1_1Func3d2dExamples_1_1EllipsoidParametric.html" target="_top" xlink:title="Parametric equation of an origin&#45;centered ellipsoid surface in form of 3D vector function of 2 variab...">
<polygon fill="white" stroke="black" points="60.5,-67.5 60.5,-86.5 161.5,-86.5 161.5,-67.5 60.5,-67.5"/>
<text text-anchor="middle" x="111" y="-74.5" font-family="Helvetica,sans-Serif" font-size="10.00">EllipsoidParametric</text>
</a>
</g>
</g>
<!-- Node2&#45;&gt;Node1 -->
<g id="edge1" class="edge"><title>Node2&#45;&gt;Node1</title>
<path fill="none" stroke="midnightblue" d="M99.5468,-58.9634C93.4917,-49.9564 86.1492,-39.0344 80.4272,-30.523"/>
<polygon fill="midnightblue" stroke="midnightblue" points="96.7851,-61.1288 105.269,-67.4751 102.594,-57.2234 96.7851,-61.1288"/>
</g>
<!-- Node3 -->
<g id="node3" class="node"><title>Node3</title>
<g id="a_node3"><a xlink:href="../../d0/d54/classIG_1_1Num_1_1Func3d2dExamples_1_1ParametricSurface.html" target="_top" xlink:title="Base class for easy definition of parametric surfaces intended for plotting.">
<polygon fill="white" stroke="black" points="98.5,-123.5 98.5,-142.5 195.5,-142.5 195.5,-123.5 98.5,-123.5"/>
<text text-anchor="middle" x="147" y="-130.5" font-family="Helvetica,sans-Serif" font-size="10.00">ParametricSurface</text>
</a>
</g>
</g>
<!-- Node3&#45;&gt;Node2 -->
<g id="edge2" class="edge"><title>Node3&#45;&gt;Node2</title>
<path fill="none" stroke="midnightblue" d="M135.377,-114.566C129.183,-105.275 121.832,-94.2484 116.834,-86.7511"/>
<polygon fill="midnightblue" stroke="midnightblue" points="132.596,-116.704 141.055,-123.083 138.42,-112.821 132.596,-116.704"/>
</g>
<!-- Node4 -->
<g id="node4" class="node"><title>Node4</title>
<g id="a_node4"><a xlink:href="../../d3/dc0/classIG_1_1Num_1_1Func3d2dBaseNoGradient.html" target="_top" xlink:title="Base class for 3D vector functions of 2 variables (implementations of the IFunc3d2d interface) that d...">
<polygon fill="white" stroke="black" points="136.5,-179.5 136.5,-198.5 267.5,-198.5 267.5,-179.5 136.5,-179.5"/>
<text text-anchor="middle" x="202" y="-186.5" font-family="Helvetica,sans-Serif" font-size="10.00">Func3d2dBaseNoGradient</text>
</a>
</g>
</g>
<!-- Node4&#45;&gt;Node3 -->
<g id="edge3" class="edge"><title>Node4&#45;&gt;Node3</title>
<path fill="none" stroke="midnightblue" d="M185.706,-172.002C175.959,-162.433 163.947,-150.639 155.913,-142.751"/>
<polygon fill="midnightblue" stroke="midnightblue" points="183.33,-174.575 192.918,-179.083 188.234,-169.58 183.33,-174.575"/>
</g>
<!-- Node5 -->
<g id="node5" class="node"><title>Node5</title>
<g id="a_node5"><a xlink:href="../../df/d0e/classIG_1_1Num_1_1Func3d2dBase.html" target="_top" xlink:title="Base class for 3D vector functions of 2 variables (base for implementation of IFunc3d2d interface).">
<polygon fill="white" stroke="black" points="174,-235.5 174,-254.5 256,-254.5 256,-235.5 174,-235.5"/>
<text text-anchor="middle" x="215" y="-242.5" font-family="Helvetica,sans-Serif" font-size="10.00">Func3d2dBase</text>
</a>
</g>
</g>
<!-- Node5&#45;&gt;Node4 -->
<g id="edge4" class="edge"><title>Node5&#45;&gt;Node4</title>
<path fill="none" stroke="midnightblue" d="M210.45,-225.101C208.292,-216.136 205.818,-205.858 204.107,-198.751"/>
<polygon fill="midnightblue" stroke="midnightblue" points="207.11,-226.18 212.853,-235.083 213.915,-224.542 207.11,-226.18"/>
</g>
<!-- Node6 -->
<g id="node6" class="node"><title>Node6</title>
<g id="a_node6"><a xlink:href="../../d3/d6f/interfaceIG_1_1Num_1_1IFunc3d2d.html" target="_top" xlink:title="Represents 3D vector functions of 2 variables.">
<polygon fill="white" stroke="black" points="77,-291.5 77,-310.5 139,-310.5 139,-291.5 77,-291.5"/>
<text text-anchor="middle" x="108" y="-298.5" font-family="Helvetica,sans-Serif" font-size="10.00">IFunc3d2d</text>
</a>
</g>
</g>
<!-- Node6&#45;&gt;Node1 -->
<g id="edge9" class="edge"><title>Node6&#45;&gt;Node1</title>
<path fill="none" stroke="midnightblue" d="M88.4821,-284.846C65.9641,-265.496 32,-229.724 32,-190 32,-190 32,-190 32,-132 32,-93.6925 51.4958,-51.8165 62.9192,-30.5678"/>
<polygon fill="midnightblue" stroke="midnightblue" points="86.518,-287.764 96.4572,-291.433 90.9755,-282.366 86.518,-287.764"/>
</g>
<!-- Node6&#45;&gt;Node2 -->
<g id="edge8" class="edge"><title>Node6&#45;&gt;Node2</title>
<path fill="none" stroke="midnightblue" d="M102.033,-281.538C92.4197,-249.077 75.8513,-179.832 89,-123 92.1363,-109.444 99.946,-95.255 105.362,-86.5194"/>
<polygon fill="midnightblue" stroke="midnightblue" points="98.7854,-282.884 105.083,-291.405 105.473,-280.817 98.7854,-282.884"/>
</g>
<!-- Node6&#45;&gt;Node3 -->
<g id="edge7" class="edge"><title>Node6&#45;&gt;Node3</title>
<path fill="none" stroke="midnightblue" d="M109.423,-281.105C111.586,-257.005 116.603,-214.229 127,-179 130.872,-165.88 137.717,-151.582 142.305,-142.703"/>
<polygon fill="midnightblue" stroke="midnightblue" points="105.914,-281.067 108.579,-291.321 112.89,-281.643 105.914,-281.067"/>
</g>
<!-- Node6&#45;&gt;Node4 -->
<g id="edge6" class="edge"><title>Node6&#45;&gt;Node4</title>
<path fill="none" stroke="midnightblue" d="M122.027,-283.586C142.292,-259.871 179.039,-216.869 194.658,-198.591"/>
<polygon fill="midnightblue" stroke="midnightblue" points="119.212,-281.492 115.376,-291.368 124.533,-286.04 119.212,-281.492"/>
</g>
<!-- Node6&#45;&gt;Node5 -->
<g id="edge5" class="edge"><title>Node6&#45;&gt;Node5</title>
<path fill="none" stroke="midnightblue" d="M134.302,-286.726C154.115,-276.727 180.707,-263.307 197.851,-254.655"/>
<polygon fill="midnightblue" stroke="midnightblue" points="132.542,-283.694 125.191,-291.324 135.696,-289.943 132.542,-283.694"/>
</g>
</g>
</svg>
