<?xml version="1.0" encoding="UTF-8" standalone="no"?>
<!DOCTYPE svg PUBLIC "-//W3C//DTD SVG 1.1//EN"
 "http://www.w3.org/Graphics/SVG/1.1/DTD/svg11.dtd">
<!-- Generated by graphviz version 2.38.0 (20140413.2041)
 -->
<!-- Title: IG.Num.IScalarFunction Pages: 1 -->
<svg width="1120pt" height="750pt"
 viewBox="0.00 0.00 1120.00 750.31" xmlns="http://www.w3.org/2000/svg" xmlns:xlink="http://www.w3.org/1999/xlink">
<g id="graph0" class="graph" transform="scale(1 1) rotate(0) translate(4 746.308)">
<title>IG.Num.IScalarFunction</title>
<polygon fill="white" stroke="none" points="-4,4 -4,-746.308 1116,-746.308 1116,4 -4,4"/>
<!-- Node1 -->
<g id="node1" class="node"><title>Node1</title>
<g id="a_node1"><a xlink:title="Scalar functions of vector arguments, with eventual affine transformation of parameters....">
<polygon fill="#bfbfbf" stroke="black" points="183,-335.678 183,-354.678 303,-354.678 303,-335.678 183,-335.678"/>
<text text-anchor="middle" x="243" y="-342.678" font-family="Helvetica,sans-Serif" font-size="10.00">IG.Num.IScalarFunction</text>
</a>
</g>
</g>
<!-- Node3 -->
<g id="node3" class="node"><title>Node3</title>
<g id="a_node3"><a xlink:href="../../d4/d4e/interfaceIG_1_1Num_1_1IScalarFunctionParametric.html" target="_top" xlink:title="Parameterized scalar functions with affine transformation of coordinates.">
<polygon fill="white" stroke="black" points="339,-606.678 339,-625.678 506,-625.678 506,-606.678 339,-606.678"/>
<text text-anchor="middle" x="422.5" y="-613.678" font-family="Helvetica,sans-Serif" font-size="10.00">IG.Num.IScalarFunctionParametric</text>
</a>
</g>
</g>
<!-- Node1&#45;&gt;Node3 -->
<g id="edge2" class="edge"><title>Node1&#45;&gt;Node3</title>
<path fill="none" stroke="midnightblue" d="M249.29,-364.684C260.633,-403.855 290.295,-493.513 339,-554.178 357.283,-576.951 385.73,-595.86 403.986,-606.592"/>
<polygon fill="midnightblue" stroke="midnightblue" points="252.597,-363.517 246.52,-354.838 245.859,-365.412 252.597,-363.517"/>
</g>
<!-- Node5 -->
<g id="node5" class="node"><title>Node5</title>
<g id="a_node5"><a xlink:href="../../d1/dd8/classIG_1_1Num_1_1ScalarFunctionRadialOneParametric.html" target="_top" xlink:title="Base class for one parametric families of radial scalar functions with affine transformation of co&#45;or...">
<polygon fill="white" stroke="black" points="967,-532.178 967,-562.178 1112,-562.178 1112,-532.178 967,-532.178"/>
<text text-anchor="start" x="975" y="-550.178" font-family="Helvetica,sans-Serif" font-size="10.00">IG.Num.ScalarFunctionRadial</text>
<text text-anchor="middle" x="1039.5" y="-539.178" font-family="Helvetica,sans-Serif" font-size="10.00">OneParametric</text>
</a>
</g>
</g>
<!-- Node1&#45;&gt;Node5 -->
<g id="edge36" class="edge"><title>Node1&#45;&gt;Node5</title>
<path fill="none" stroke="midnightblue" d="M273.597,-358.862C292.038,-366.841 316.465,-376.435 339,-382.178 371.132,-390.367 900.584,-444.973 931,-458.178 970.338,-475.257 1006.67,-511.265 1025.35,-531.862"/>
<polygon fill="midnightblue" stroke="midnightblue" points="274.841,-355.585 264.279,-354.748 272.014,-361.989 274.841,-355.585"/>
</g>
<!-- Node6 -->
<g id="node6" class="node"><title>Node6</title>
<g id="a_node6"><a xlink:href="../../d5/dd5/classIG_1_1Num_1_1ScalarFunctionOneParametric.html" target="_top" xlink:title="Base class for one parametric families of scalar functions with affine transformation of co&#45;ordinates...">
<polygon fill="white" stroke="black" points="780.5,-671.178 780.5,-701.178 916.5,-701.178 916.5,-671.178 780.5,-671.178"/>
<text text-anchor="start" x="788.5" y="-689.178" font-family="Helvetica,sans-Serif" font-size="10.00">IG.Num.ScalarFunctionOne</text>
<text text-anchor="middle" x="848.5" y="-678.178" font-family="Helvetica,sans-Serif" font-size="10.00">Parametric</text>
</a>
</g>
</g>
<!-- Node1&#45;&gt;Node6 -->
<g id="edge32" class="edge"><title>Node1&#45;&gt;Node6</title>
<path fill="none" stroke="midnightblue" d="M244.076,-364.776C245.414,-417.343 256.754,-562.402 339,-635.178 462.922,-744.832 676.164,-721.784 782.815,-701.188"/>
<polygon fill="midnightblue" stroke="midnightblue" points="247.576,-364.707 243.919,-354.764 240.577,-364.817 247.576,-364.707"/>
</g>
<!-- Node7 -->
<g id="node7" class="node"><title>Node7</title>
<g id="a_node7"><a xlink:href="../../d8/d5b/classIG_1_1Num_1_1ScalarFunctionParametric.html" target="_top" xlink:title="Base class for parameterized scalar functions with affine transformation of co&#45;ordinates....">
<polygon fill="white" stroke="black" points="766,-530.678 766,-549.678 931,-549.678 931,-530.678 766,-530.678"/>
<text text-anchor="middle" x="848.5" y="-537.678" font-family="Helvetica,sans-Serif" font-size="10.00">IG.Num.ScalarFunctionParametric</text>
</a>
</g>
</g>
<!-- Node1&#45;&gt;Node7 -->
<g id="edge33" class="edge"><title>Node1&#45;&gt;Node7</title>
<path fill="none" stroke="midnightblue" d="M252.336,-363.968C265.981,-392.282 295.944,-445.221 339,-470.178 414.81,-514.121 643.295,-508.516 730,-521.178 749.834,-524.075 771.507,-527.504 790.778,-530.647"/>
<polygon fill="midnightblue" stroke="midnightblue" points="255.44,-362.343 248.053,-354.748 249.092,-365.292 255.44,-362.343"/>
</g>
<!-- Node8 -->
<g id="node8" class="node"><title>Node8</title>
<g id="a_node8"><a xlink:href="../../d3/dbb/classIG_1_1Num_1_1ScalarFunctionParametricBase.html" target="_top" xlink:title="Base class for parameterized scalar functions with affine transformation of co&#45;ordinates....">
<polygon fill="white" stroke="black" points="542,-530.678 542,-549.678 730,-549.678 730,-530.678 542,-530.678"/>
<text text-anchor="middle" x="636" y="-537.678" font-family="Helvetica,sans-Serif" font-size="10.00">IG.Num.ScalarFunctionParametricBase</text>
</a>
</g>
</g>
<!-- Node1&#45;&gt;Node8 -->
<g id="edge34" class="edge"><title>Node1&#45;&gt;Node8</title>
<path fill="none" stroke="midnightblue" d="M248.413,-364.682C257.876,-401.489 283.89,-480.675 339,-516.178 413.332,-564.064 520.914,-558.562 583.837,-549.712"/>
<polygon fill="midnightblue" stroke="midnightblue" points="251.754,-363.607 245.993,-354.715 244.951,-365.259 251.754,-363.607"/>
</g>
<!-- Node9 -->
<g id="node9" class="node"><title>Node9</title>
<g id="a_node9"><a xlink:href="../../d4/d52/classIG_1_1Num_1_1ScalarFunctionRadialParametric.html" target="_top" xlink:title="Parametric scalar function.">
<polygon fill="white" stroke="black" points="776,-468.178 776,-498.178 921,-498.178 921,-468.178 776,-468.178"/>
<text text-anchor="start" x="784" y="-486.178" font-family="Helvetica,sans-Serif" font-size="10.00">IG.Num.ScalarFunctionRadial</text>
<text text-anchor="middle" x="848.5" y="-475.178" font-family="Helvetica,sans-Serif" font-size="10.00">Parametric</text>
</a>
</g>
</g>
<!-- Node1&#45;&gt;Node9 -->
<g id="edge37" class="edge"><title>Node1&#45;&gt;Node9</title>
<path fill="none" stroke="midnightblue" d="M255.903,-363.244C271.834,-385.708 302.374,-423.164 339,-440.178 414.73,-475.358 654.634,-482.044 775.881,-483.124"/>
<polygon fill="midnightblue" stroke="midnightblue" points="258.72,-361.164 250.172,-354.906 252.951,-365.129 258.72,-361.164"/>
</g>
<!-- Node10 -->
<g id="node10" class="node"><title>Node10</title>
<g id="a_node10"><a xlink:href="../../d2/d85/classIG_1_1Num_1_1ScalarFunctionBase.html" target="_top" xlink:title="Base class for scalar functions with affine transformation of co&#45;ordinates. The reference function is...">
<polygon fill="white" stroke="black" points="352.5,-221.678 352.5,-240.678 492.5,-240.678 492.5,-221.678 352.5,-221.678"/>
<text text-anchor="middle" x="422.5" y="-228.678" font-family="Helvetica,sans-Serif" font-size="10.00">IG.Num.ScalarFunctionBase</text>
</a>
</g>
</g>
<!-- Node1&#45;&gt;Node10 -->
<g id="edge13" class="edge"><title>Node1&#45;&gt;Node10</title>
<path fill="none" stroke="midnightblue" d="M257.956,-327.634C275.006,-307.336 305.718,-274.267 339,-255.178 349.869,-248.944 362.488,-244.217 374.538,-240.68"/>
<polygon fill="midnightblue" stroke="midnightblue" points="255.16,-325.524 251.518,-335.473 260.569,-329.966 255.16,-325.524"/>
</g>
<!-- Node13 -->
<g id="node13" class="node"><title>Node13</title>
<g id="a_node13"><a xlink:href="../../da/d3e/classIG_1_1Num_1_1ScalarFunctionExamples_1_1ParaboloidSymmetric2D.html" target="_top" xlink:title="Symmetric paraboloid centered at coordinate origin. f(x,y) = x^2 + y^2 &#45; R2. If R2 is positive then 0...">
<polygon fill="white" stroke="black" points="554,-329.178 554,-359.178 718,-359.178 718,-329.178 554,-329.178"/>
<text text-anchor="start" x="562" y="-347.178" font-family="Helvetica,sans-Serif" font-size="10.00">IG.Num.ScalarFunctionExamples.</text>
<text text-anchor="middle" x="636" y="-336.178" font-family="Helvetica,sans-Serif" font-size="10.00">ParaboloidSymmetric2D</text>
</a>
</g>
</g>
<!-- Node1&#45;&gt;Node13 -->
<g id="edge26" class="edge"><title>Node1&#45;&gt;Node13</title>
<path fill="none" stroke="midnightblue" d="M313.472,-345.001C380.819,-344.828 482.941,-344.567 553.959,-344.386"/>
<polygon fill="midnightblue" stroke="midnightblue" points="313.375,-341.501 303.384,-345.026 313.393,-348.501 313.375,-341.501"/>
</g>
<!-- Node14 -->
<g id="node14" class="node"><title>Node14</title>
<g id="a_node14"><a xlink:href="../../d6/d0c/classIG_1_1Num_1_1ScalarFunctionExamples_1_1Quadratic2d.html" target="_top" xlink:title="Example quadratic polynomial in 2D. f(x,y) = 2*x^2 + y^2 + x*y + x + y + 10.">
<polygon fill="white" stroke="black" points="554,-280.178 554,-310.178 718,-310.178 718,-280.178 554,-280.178"/>
<text text-anchor="start" x="562" y="-298.178" font-family="Helvetica,sans-Serif" font-size="10.00">IG.Num.ScalarFunctionExamples.</text>
<text text-anchor="middle" x="636" y="-287.178" font-family="Helvetica,sans-Serif" font-size="10.00">Quadratic2d</text>
</a>
</g>
</g>
<!-- Node1&#45;&gt;Node14 -->
<g id="edge27" class="edge"><title>Node1&#45;&gt;Node14</title>
<path fill="none" stroke="midnightblue" d="M313.472,-336.294C380.819,-327.682 482.941,-314.623 553.959,-305.542"/>
<polygon fill="midnightblue" stroke="midnightblue" points="312.86,-332.844 303.384,-337.584 313.748,-339.788 312.86,-332.844"/>
</g>
<!-- Node15 -->
<g id="node15" class="node"><title>Node15</title>
<g id="a_node15"><a xlink:href="../../d2/dcc/classIG_1_1Num_1_1ScalarFunctionExamples_1_1Quadratic3d.html" target="_top" xlink:title="Example quadratic polynomial in 3D. f(x,y,z) = x*x + 2*y*y + 4*z*z + x*y + 2*y*z + 4*z*x + x + y + z ...">
<polygon fill="white" stroke="black" points="554,-231.178 554,-261.178 718,-261.178 718,-231.178 554,-231.178"/>
<text text-anchor="start" x="562" y="-249.178" font-family="Helvetica,sans-Serif" font-size="10.00">IG.Num.ScalarFunctionExamples.</text>
<text text-anchor="middle" x="636" y="-238.178" font-family="Helvetica,sans-Serif" font-size="10.00">Quadratic3d</text>
</a>
</g>
</g>
<!-- Node1&#45;&gt;Node15 -->
<g id="edge28" class="edge"><title>Node1&#45;&gt;Node15</title>
<path fill="none" stroke="midnightblue" d="M275.622,-331.806C293.907,-324.427 317.485,-315.504 339,-309.178 410.577,-288.133 493.821,-271.051 553.766,-260.011"/>
<polygon fill="midnightblue" stroke="midnightblue" points="274.25,-328.586 266.319,-335.612 276.9,-335.065 274.25,-328.586"/>
</g>
<!-- Node16 -->
<g id="node16" class="node"><title>Node16</title>
<g id="a_node16"><a xlink:href="../../dd/dd0/classIG_1_1Num_1_1ScalarFunctionExamples_1_1Rosenbrock.html" target="_top" xlink:title="RosenBrock function. f(x,y) = (1&#45;x)^2 + 100 * (y&#45;x^2)^2">
<polygon fill="white" stroke="black" points="554,-143.178 554,-173.178 718,-173.178 718,-143.178 554,-143.178"/>
<text text-anchor="start" x="562" y="-161.178" font-family="Helvetica,sans-Serif" font-size="10.00">IG.Num.ScalarFunctionExamples.</text>
<text text-anchor="middle" x="636" y="-150.178" font-family="Helvetica,sans-Serif" font-size="10.00">Rosenbrock</text>
</a>
</g>
</g>
<!-- Node1&#45;&gt;Node16 -->
<g id="edge29" class="edge"><title>Node1&#45;&gt;Node16</title>
<path fill="none" stroke="midnightblue" d="M251.797,-326.305C265.038,-296.791 294.851,-240.197 339,-212.178 403.393,-171.312 490.614,-159.495 553.68,-156.885"/>
<polygon fill="midnightblue" stroke="midnightblue" points="248.567,-324.956 247.808,-335.524 254.991,-327.736 248.567,-324.956"/>
</g>
<!-- Node17 -->
<g id="node17" class="node"><title>Node17</title>
<g id="a_node17"><a xlink:href="../../dd/d66/classIG_1_1Num_1_1ScalarFunctionExamples_1_1RosenbrockGeneralizedAdjacent.html" target="_top" xlink:title="Generalzed multivariate RosenBrock function for Dim &gt;= 2.">
<polygon fill="white" stroke="black" points="554,-94.1783 554,-124.178 718,-124.178 718,-94.1783 554,-94.1783"/>
<text text-anchor="start" x="562" y="-112.178" font-family="Helvetica,sans-Serif" font-size="10.00">IG.Num.ScalarFunctionExamples.</text>
<text text-anchor="middle" x="636" y="-101.178" font-family="Helvetica,sans-Serif" font-size="10.00">RosenbrockGeneralizedAdjacent</text>
</a>
</g>
</g>
<!-- Node1&#45;&gt;Node17 -->
<g id="edge30" class="edge"><title>Node1&#45;&gt;Node17</title>
<path fill="none" stroke="midnightblue" d="M247.886,-325.399C256.642,-286.48 281.791,-200.101 339,-158.178 400.972,-112.765 489.795,-103.417 553.955,-103.65"/>
<polygon fill="midnightblue" stroke="midnightblue" points="244.405,-324.941 245.757,-335.449 251.253,-326.392 244.405,-324.941"/>
</g>
<!-- Node18 -->
<g id="node18" class="node"><title>Node18</title>
<g id="a_node18"><a xlink:href="../../d5/dad/classIG_1_1Num_1_1ScalarFunctionExamples_1_1RosenbrockGeneralizedExhaustive.html" target="_top" xlink:title="Generalzed multivariate RosenBrock function for Dim &gt;= 2.">
<polygon fill="white" stroke="black" points="552.5,-45.1783 552.5,-75.1783 719.5,-75.1783 719.5,-45.1783 552.5,-45.1783"/>
<text text-anchor="start" x="560.5" y="-63.1783" font-family="Helvetica,sans-Serif" font-size="10.00">IG.Num.ScalarFunctionExamples.</text>
<text text-anchor="middle" x="636" y="-52.1783" font-family="Helvetica,sans-Serif" font-size="10.00">RosenbrockGeneralizedExhaustive</text>
</a>
</g>
</g>
<!-- Node1&#45;&gt;Node18 -->
<g id="edge31" class="edge"><title>Node1&#45;&gt;Node18</title>
<path fill="none" stroke="midnightblue" d="M245.353,-325.618C249.706,-278.98 267.599,-160.913 339,-104.178 398.794,-56.6665 487.517,-49.211 552.231,-51.4756"/>
<polygon fill="midnightblue" stroke="midnightblue" points="241.861,-325.37 244.529,-335.623 248.838,-325.944 241.861,-325.37"/>
</g>
<!-- Node19 -->
<g id="node19" class="node"><title>Node19</title>
<g id="a_node19"><a xlink:href="../../df/dd1/classIG_1_1Num_1_1ScalarFunctionRadial.html" target="_top" xlink:title="Radial scalar functions.">
<polygon fill="white" stroke="black" points="563.5,-378.678 563.5,-397.678 708.5,-397.678 708.5,-378.678 563.5,-378.678"/>
<text text-anchor="middle" x="636" y="-385.678" font-family="Helvetica,sans-Serif" font-size="10.00">IG.Num.ScalarFunctionRadial</text>
</a>
</g>
</g>
<!-- Node1&#45;&gt;Node19 -->
<g id="edge35" class="edge"><title>Node1&#45;&gt;Node19</title>
<path fill="none" stroke="midnightblue" d="M313.311,-355.792C321.952,-356.997 330.675,-358.158 339,-359.178 415.492,-368.556 503.403,-376.856 563.419,-382.148"/>
<polygon fill="midnightblue" stroke="midnightblue" points="313.624,-352.301 303.232,-354.362 312.641,-359.232 313.624,-352.301"/>
</g>
<!-- Node20 -->
<g id="node20" class="node"><title>Node20</title>
<g id="a_node20"><a xlink:href="../../de/d0d/classIG_1_1Num_1_1ScalarFunctionTransformed.html" target="_top" xlink:title="Scalar function that is defined as some reference function evaluated at inverse affine&#45;trasformed par...">
<polygon fill="white" stroke="black" points="550.5,-6.67826 550.5,-25.6783 721.5,-25.6783 721.5,-6.67826 550.5,-6.67826"/>
<text text-anchor="middle" x="636" y="-13.6783" font-family="Helvetica,sans-Serif" font-size="10.00">IG.Num.ScalarFunctionTransformed</text>
</a>
</g>
</g>
<!-- Node1&#45;&gt;Node20 -->
<g id="edge38" class="edge"><title>Node1&#45;&gt;Node20</title>
<path fill="none" stroke="midnightblue" d="M243.566,-325.428C243.555,-271.221 251.679,-119.437 339,-48.1783 409.281,9.17495 522.313,2.93071 586.45,-6.66745"/>
<polygon fill="midnightblue" stroke="midnightblue" points="240.066,-325.486 243.666,-335.45 247.066,-325.415 240.066,-325.486"/>
</g>
<!-- Node2 -->
<g id="node2" class="node"><title>Node2</title>
<g id="a_node2"><a xlink:href="../../d8/d56/interfaceIG_1_1Num_1_1IScalarFunctionUntransformed.html" target="_top" xlink:title="Scalar functions of vector arguments.">
<polygon fill="white" stroke="black" points="0,-335.678 0,-354.678 147,-354.678 147,-335.678 0,-335.678"/>
<text text-anchor="middle" x="73.5" y="-342.678" font-family="Helvetica,sans-Serif" font-size="10.00">IScalarFunctionUntransformed</text>
</a>
</g>
</g>
<!-- Node2&#45;&gt;Node1 -->
<g id="edge1" class="edge"><title>Node2&#45;&gt;Node1</title>
<path fill="none" stroke="midnightblue" d="M157.496,-345.178C166.05,-345.178 174.614,-345.178 182.832,-345.178"/>
<polygon fill="midnightblue" stroke="midnightblue" points="157.481,-341.678 147.481,-345.178 157.481,-348.678 157.481,-341.678"/>
</g>
<!-- Node4 -->
<g id="node4" class="node"><title>Node4</title>
<g id="a_node4"><a xlink:href="../../d1/d49/interfaceIG_1_1Num_1_1IScalarFunctionOneParametric.html" target="_top" xlink:title=" ">
<polygon fill="white" stroke="black" points="779.5,-596.178 779.5,-626.178 917.5,-626.178 917.5,-596.178 779.5,-596.178"/>
<text text-anchor="start" x="787.5" y="-614.178" font-family="Helvetica,sans-Serif" font-size="10.00">IG.Num.IScalarFunctionOne</text>
<text text-anchor="middle" x="848.5" y="-603.178" font-family="Helvetica,sans-Serif" font-size="10.00">Parametric</text>
</a>
</g>
</g>
<!-- Node3&#45;&gt;Node4 -->
<g id="edge3" class="edge"><title>Node3&#45;&gt;Node4</title>
<path fill="none" stroke="midnightblue" d="M502.325,-626.802C515.548,-628.207 529.146,-629.422 542,-630.178 625.411,-635.088 646.713,-636.869 730,-630.178 746.066,-628.888 763.25,-626.62 779.379,-624.09"/>
<polygon fill="midnightblue" stroke="midnightblue" points="502.63,-623.314 492.306,-625.694 501.86,-630.272 502.63,-623.314"/>
</g>
<!-- Node3&#45;&gt;Node5 -->
<g id="edge10" class="edge"><title>Node3&#45;&gt;Node5</title>
<path fill="none" stroke="midnightblue" d="M447.534,-630.968C523.452,-675.623 763.03,-800.611 931,-710.178 990.845,-677.959 1022.89,-596.223 1033.97,-562.297"/>
<polygon fill="midnightblue" stroke="midnightblue" points="449.09,-627.821 438.709,-625.702 445.503,-633.832 449.09,-627.821"/>
</g>
<!-- Node3&#45;&gt;Node6 -->
<g id="edge5" class="edge"><title>Node3&#45;&gt;Node6</title>
<path fill="none" stroke="midnightblue" d="M465.35,-628.535C487.898,-634.834 516.292,-642.196 542,-647.178 623.363,-662.946 718.194,-673.917 780.358,-680.12"/>
<polygon fill="midnightblue" stroke="midnightblue" points="466.007,-625.084 455.432,-625.728 464.101,-631.819 466.007,-625.084"/>
</g>
<!-- Node3&#45;&gt;Node7 -->
<g id="edge6" class="edge"><title>Node3&#45;&gt;Node7</title>
<path fill="none" stroke="midnightblue" d="M516.1,-617.017C577.598,-615.611 659.655,-609.945 730,-592.178 767.634,-582.673 808.391,-562.066 830.64,-549.84"/>
<polygon fill="midnightblue" stroke="midnightblue" points="515.956,-613.519 506.026,-617.214 516.093,-620.518 515.956,-613.519"/>
</g>
<!-- Node3&#45;&gt;Node8 -->
<g id="edge7" class="edge"><title>Node3&#45;&gt;Node8</title>
<path fill="none" stroke="midnightblue" d="M451.942,-602.149C475.629,-590.843 510.463,-575.088 542,-564.178 558.074,-558.618 576.103,-553.679 591.977,-549.748"/>
<polygon fill="midnightblue" stroke="midnightblue" points="450.312,-599.049 442.823,-606.544 453.351,-605.355 450.312,-599.049"/>
</g>
<!-- Node3&#45;&gt;Node9 -->
<g id="edge11" class="edge"><title>Node3&#45;&gt;Node9</title>
<path fill="none" stroke="midnightblue" d="M478.851,-604.657C498.74,-600.599 521.356,-596.08 542,-592.178 625.357,-576.424 655.273,-599.334 730,-559.178 750.493,-548.166 747.125,-534.778 766,-521.178 778.54,-512.143 793.569,-504.413 807.287,-498.33"/>
<polygon fill="midnightblue" stroke="midnightblue" points="478.12,-601.234 469.026,-606.669 479.525,-608.092 478.12,-601.234"/>
</g>
<!-- Node4&#45;&gt;Node5 -->
<g id="edge4" class="edge"><title>Node4&#45;&gt;Node5</title>
<path fill="none" stroke="midnightblue" d="M903.299,-592.961C932.034,-583.23 966.976,-571.398 994.138,-562.2"/>
<polygon fill="midnightblue" stroke="midnightblue" points="902.161,-589.651 893.812,-596.173 904.406,-596.281 902.161,-589.651"/>
</g>
<!-- Node8&#45;&gt;Node6 -->
<g id="edge8" class="edge"><title>Node8&#45;&gt;Node6</title>
<path fill="none" stroke="midnightblue" d="M657.671,-556.153C682.86,-575.443 726.904,-608.605 766,-635.178 784.498,-647.751 805.961,-661.135 822.217,-671.036"/>
<polygon fill="midnightblue" stroke="midnightblue" points="659.649,-553.259 649.587,-549.942 655.384,-558.81 659.649,-553.259"/>
</g>
<!-- Node8&#45;&gt;Node7 -->
<g id="edge9" class="edge"><title>Node8&#45;&gt;Node7</title>
<path fill="none" stroke="midnightblue" d="M740.304,-540.178C748.889,-540.178 757.491,-540.178 765.882,-540.178"/>
<polygon fill="midnightblue" stroke="midnightblue" points="740.248,-536.678 730.248,-540.178 740.248,-543.678 740.248,-536.678"/>
</g>
<!-- Node9&#45;&gt;Node5 -->
<g id="edge12" class="edge"><title>Node9&#45;&gt;Node5</title>
<path fill="none" stroke="midnightblue" d="M903.299,-501.396C932.034,-511.126 966.976,-522.958 994.138,-532.156"/>
<polygon fill="midnightblue" stroke="midnightblue" points="904.406,-498.076 893.812,-498.183 902.161,-504.706 904.406,-498.076"/>
</g>
<!-- Node10&#45;&gt;Node8 -->
<g id="edge22" class="edge"><title>Node10&#45;&gt;Node8</title>
<path fill="none" stroke="midnightblue" d="M435.677,-249.493C457.034,-281.563 502.713,-349.925 542,-407.178 573.883,-453.642 612.712,-508.683 628.173,-530.54"/>
<polygon fill="midnightblue" stroke="midnightblue" points="438.318,-247.143 429.864,-240.757 432.49,-251.022 438.318,-247.143"/>
</g>
<!-- Node11 -->
<g id="node11" class="node"><title>Node11</title>
<g id="a_node11"><a xlink:href="../../d5/d06/classIG_1_1Lib_1_1LoadableScalarFunctionBase.html" target="_top" xlink:title="A ScalarFunction class used as base class for dynamically loaded scalar functions....">
<polygon fill="white" stroke="black" points="550,-192.678 550,-211.678 722,-211.678 722,-192.678 550,-192.678"/>
<text text-anchor="middle" x="636" y="-199.678" font-family="Helvetica,sans-Serif" font-size="10.00">IG.Lib.LoadableScalarFunctionBase</text>
</a>
</g>
</g>
<!-- Node10&#45;&gt;Node11 -->
<g id="edge14" class="edge"><title>Node10&#45;&gt;Node11</title>
<path fill="none" stroke="midnightblue" d="M502.759,-220.311C523.407,-217.479 545.496,-214.451 565.591,-211.695"/>
<polygon fill="midnightblue" stroke="midnightblue" points="502.185,-216.856 492.753,-221.683 503.136,-223.792 502.185,-216.856"/>
</g>
<!-- Node10&#45;&gt;Node13 -->
<g id="edge16" class="edge"><title>Node10&#45;&gt;Node13</title>
<path fill="none" stroke="midnightblue" d="M441.261,-247.788C463.282,-267.527 502.729,-300.175 542,-319.178 549.826,-322.965 558.31,-326.245 566.861,-329.068"/>
<polygon fill="midnightblue" stroke="midnightblue" points="443.461,-245.057 433.712,-240.91 438.747,-250.232 443.461,-245.057"/>
</g>
<!-- Node10&#45;&gt;Node14 -->
<g id="edge17" class="edge"><title>Node10&#45;&gt;Node14</title>
<path fill="none" stroke="midnightblue" d="M460.627,-243.983C483.899,-251.863 514.581,-261.988 542,-270.178 553.214,-273.528 565.248,-276.915 576.817,-280.069"/>
<polygon fill="midnightblue" stroke="midnightblue" points="461.732,-240.662 451.137,-240.755 459.477,-247.289 461.732,-240.662"/>
</g>
<!-- Node10&#45;&gt;Node15 -->
<g id="edge18" class="edge"><title>Node10&#45;&gt;Node15</title>
<path fill="none" stroke="midnightblue" d="M502.968,-236.814C519.591,-237.993 537.14,-239.238 553.824,-240.421"/>
<polygon fill="midnightblue" stroke="midnightblue" points="502.976,-233.306 492.753,-236.09 502.48,-240.289 502.976,-233.306"/>
</g>
<!-- Node10&#45;&gt;Node16 -->
<g id="edge19" class="edge"><title>Node10&#45;&gt;Node16</title>
<path fill="none" stroke="midnightblue" d="M465.844,-218.431C478.91,-214.067 493.217,-208.843 506,-203.178 522.734,-195.763 525.035,-190.05 542,-183.178 551.143,-179.475 561.011,-176.151 570.785,-173.228"/>
<polygon fill="midnightblue" stroke="midnightblue" points="464.565,-215.167 456.142,-221.593 466.734,-221.822 464.565,-215.167"/>
</g>
<!-- Node10&#45;&gt;Node17 -->
<g id="edge20" class="edge"><title>Node10&#45;&gt;Node17</title>
<path fill="none" stroke="midnightblue" d="M441.576,-214.55C469.002,-189.619 520.233,-144.284 542,-133.178 548.684,-129.768 555.892,-126.815 563.233,-124.264"/>
<polygon fill="midnightblue" stroke="midnightblue" points="438.911,-212.244 433.887,-221.572 443.632,-217.413 438.911,-212.244"/>
</g>
<!-- Node10&#45;&gt;Node18 -->
<g id="edge21" class="edge"><title>Node10&#45;&gt;Node18</title>
<path fill="none" stroke="midnightblue" d="M433.263,-212.482C450.704,-180.979 490.283,-117.506 542,-84.1783 547.326,-80.7459 553.12,-77.8037 559.126,-75.2818"/>
<polygon fill="midnightblue" stroke="midnightblue" points="430.061,-211.045 428.391,-221.508 436.221,-214.37 430.061,-211.045"/>
</g>
<!-- Node10&#45;&gt;Node19 -->
<g id="edge23" class="edge"><title>Node10&#45;&gt;Node19</title>
<path fill="none" stroke="midnightblue" d="M433.98,-249.676C451.972,-279.629 491.705,-338.387 542,-368.178 549.389,-372.555 557.613,-375.979 566.029,-378.656"/>
<polygon fill="midnightblue" stroke="midnightblue" points="436.993,-247.895 428.917,-241.037 430.954,-251.434 436.993,-247.895"/>
</g>
<!-- Node10&#45;&gt;Node20 -->
<g id="edge25" class="edge"><title>Node10&#45;&gt;Node20</title>
<path fill="none" stroke="midnightblue" d="M429.292,-211.905C442.341,-172.003 478.004,-80.3139 542,-35.1783 547.387,-31.379 553.361,-28.3032 559.607,-25.8175"/>
<polygon fill="midnightblue" stroke="midnightblue" points="425.937,-210.908 426.269,-221.498 432.613,-213.012 425.937,-210.908"/>
</g>
<!-- Node12 -->
<g id="node12" class="node"><title>Node12</title>
<g id="a_node12"><a xlink:href="../../db/d3b/classIG_1_1Script_1_1ScritpScalarFunctionExample_1_1Container_1_1Function.html" target="_top" xlink:title=" ">
<polygon fill="white" stroke="black" points="774,-187.178 774,-217.178 923,-217.178 923,-187.178 774,-187.178"/>
<text text-anchor="start" x="782" y="-205.178" font-family="Helvetica,sans-Serif" font-size="10.00">IG.Script.ScritpScalarFunction</text>
<text text-anchor="middle" x="848.5" y="-194.178" font-family="Helvetica,sans-Serif" font-size="10.00">Example.Container.Function</text>
</a>
</g>
</g>
<!-- Node11&#45;&gt;Node12 -->
<g id="edge15" class="edge"><title>Node11&#45;&gt;Node12</title>
<path fill="none" stroke="midnightblue" d="M732.111,-202.178C746.059,-202.178 760.246,-202.178 773.681,-202.178"/>
<polygon fill="midnightblue" stroke="midnightblue" points="732.012,-198.678 722.012,-202.178 732.012,-205.678 732.012,-198.678"/>
</g>
<!-- Node19&#45;&gt;Node9 -->
<g id="edge24" class="edge"><title>Node19&#45;&gt;Node9</title>
<path fill="none" stroke="midnightblue" d="M667.614,-401.995C706.6,-419.589 773.73,-449.885 814.034,-468.075"/>
<polygon fill="midnightblue" stroke="midnightblue" points="668.897,-398.734 658.342,-397.81 666.017,-405.114 668.897,-398.734"/>
</g>
</g>
</svg>
