<?xml version="1.0" encoding="UTF-8" standalone="no"?>
<!DOCTYPE svg PUBLIC "-//W3C//DTD SVG 1.1//EN"
 "http://www.w3.org/Graphics/SVG/1.1/DTD/svg11.dtd">
<!-- Generated by graphviz version 2.38.0 (20140413.2041)
 -->
<!-- Title: IG.Num.IRandomGenerator Pages: 1 -->
<svg width="351pt" height="140pt"
 viewBox="0.00 0.00 351.00 140.00" xmlns="http://www.w3.org/2000/svg" xmlns:xlink="http://www.w3.org/1999/xlink">
<g id="graph0" class="graph" transform="scale(1 1) rotate(0) translate(4 136)">
<title>IG.Num.IRandomGenerator</title>
<polygon fill="white" stroke="none" points="-4,4 -4,-136 347,-136 347,4 -4,4"/>
<!-- Node1 -->
<g id="node1" class="node"><title>Node1</title>
<g id="a_node1"><a xlink:title="Uniform random number generator.">
<polygon fill="#bfbfbf" stroke="black" points="113.5,-112.5 113.5,-131.5 247.5,-131.5 247.5,-112.5 113.5,-112.5"/>
<text text-anchor="middle" x="180.5" y="-119.5" font-family="Helvetica,sans-Serif" font-size="10.00">IG.Num.IRandomGenerator</text>
</a>
</g>
</g>
<!-- Node2 -->
<g id="node2" class="node"><title>Node2</title>
<g id="a_node2"><a xlink:href="../../d4/d9b/classIG_1_1Num_1_1RandGeneratorThreadSafe.html" target="_top" xlink:title="Generator of uniformly distributed random numbers. Based on the default random generator....">
<polygon fill="white" stroke="black" points="0,-0.5 0,-19.5 167,-19.5 167,-0.5 0,-0.5"/>
<text text-anchor="middle" x="83.5" y="-7.5" font-family="Helvetica,sans-Serif" font-size="10.00">IG.Num.RandGeneratorThreadSafe</text>
</a>
</g>
</g>
<!-- Node1&#45;&gt;Node2 -->
<g id="edge1" class="edge"><title>Node1&#45;&gt;Node2</title>
<path fill="none" stroke="midnightblue" d="M134.215,-109.04C117.062,-102.216 99.2003,-91.7645 88.5,-76 76.9315,-58.9564 79.2848,-33.2936 81.6119,-19.8814"/>
<polygon fill="midnightblue" stroke="midnightblue" points="133.028,-112.333 143.621,-112.469 135.425,-105.756 133.028,-112.333"/>
</g>
<!-- Node3 -->
<g id="node3" class="node"><title>Node3</title>
<g id="a_node3"><a xlink:href="../../d2/dae/classIG_1_1Num_1_1RandomGenerator.html" target="_top" xlink:title="Default generator of uniformly distributed random numbers. Provides a global generator and a static f...">
<polygon fill="white" stroke="black" points="212,-0.5 212,-19.5 343,-19.5 343,-0.5 212,-0.5"/>
<text text-anchor="middle" x="277.5" y="-7.5" font-family="Helvetica,sans-Serif" font-size="10.00">IG.Num.RandomGenerator</text>
</a>
</g>
</g>
<!-- Node1&#45;&gt;Node3 -->
<g id="edge2" class="edge"><title>Node1&#45;&gt;Node3</title>
<path fill="none" stroke="midnightblue" d="M226.247,-108.811C243.175,-101.957 260.824,-91.5454 271.5,-76 283.177,-58.998 281.283,-33.3176 279.213,-19.8918"/>
<polygon fill="midnightblue" stroke="midnightblue" points="224.585,-105.694 216.421,-112.447 227.014,-112.259 224.585,-105.694"/>
</g>
<!-- Node4 -->
<g id="node4" class="node"><title>Node4</title>
<g id="a_node4"><a xlink:href="../../dd/d56/classIG_1_1Num_1_1RandomGeneratorSystem.html" target="_top" xlink:title="Generator of uniformly distributed random numbers. Based on system random generator....">
<polygon fill="white" stroke="black" points="98,-56.5 98,-75.5 263,-75.5 263,-56.5 98,-56.5"/>
<text text-anchor="middle" x="180.5" y="-63.5" font-family="Helvetica,sans-Serif" font-size="10.00">IG.Num.RandomGeneratorSystem</text>
</a>
</g>
</g>
<!-- Node1&#45;&gt;Node4 -->
<g id="edge3" class="edge"><title>Node1&#45;&gt;Node4</title>
<path fill="none" stroke="midnightblue" d="M180.5,-101.805C180.5,-92.9102 180.5,-82.7798 180.5,-75.7511"/>
<polygon fill="midnightblue" stroke="midnightblue" points="177,-102.083 180.5,-112.083 184,-102.083 177,-102.083"/>
</g>
<!-- Node4&#45;&gt;Node2 -->
<g id="edge4" class="edge"><title>Node4&#45;&gt;Node2</title>
<path fill="none" stroke="midnightblue" d="M156.165,-51.4526C138.257,-41.4835 114.446,-28.2279 99.0461,-19.6545"/>
<polygon fill="midnightblue" stroke="midnightblue" points="154.475,-54.5179 164.915,-56.324 157.88,-48.4018 154.475,-54.5179"/>
</g>
<!-- Node4&#45;&gt;Node3 -->
<g id="edge5" class="edge"><title>Node4&#45;&gt;Node3</title>
<path fill="none" stroke="midnightblue" d="M204.835,-51.4526C222.743,-41.4835 246.554,-28.2279 261.954,-19.6545"/>
<polygon fill="midnightblue" stroke="midnightblue" points="203.12,-48.4018 196.085,-56.324 206.525,-54.5179 203.12,-48.4018"/>
</g>
</g>
</svg>
