<?xml version="1.0" encoding="UTF-8" standalone="no"?>
<!DOCTYPE svg PUBLIC "-//W3C//DTD SVG 1.1//EN"
 "http://www.w3.org/Graphics/SVG/1.1/DTD/svg11.dtd">
<!-- Generated by graphviz version 2.38.0 (20140413.2041)
 -->
<!-- Title: IGLib.Parsing.ParsableFromString Pages: 1 -->
<svg width="234pt" height="95pt"
 viewBox="0.00 0.00 234.00 95.00" xmlns="http://www.w3.org/2000/svg" xmlns:xlink="http://www.w3.org/1999/xlink">
<g id="graph0" class="graph" transform="scale(1 1) rotate(0) translate(4 91)">
<title>IGLib.Parsing.ParsableFromString</title>
<polygon fill="white" stroke="none" points="-4,4 -4,-91 230,-91 230,4 -4,4"/>
<!-- Node1 -->
<g id="node1" class="node"><title>Node1</title>
<g id="a_node1"><a xlink:title=" ">
<polygon fill="#bfbfbf" stroke="black" points="48.5,-0.5 48.5,-30.5 187.5,-30.5 187.5,-0.5 48.5,-0.5"/>
<text text-anchor="start" x="56.5" y="-18.5" font-family="Helvetica,sans-Serif" font-size="10.00">IGLib.Parsing.ParsableFrom</text>
<text text-anchor="middle" x="118" y="-7.5" font-family="Helvetica,sans-Serif" font-size="10.00">String</text>
</a>
</g>
</g>
<!-- Node2 -->
<g id="node2" class="node"><title>Node2</title>
<g id="a_node2"><a xlink:href="../../d5/dfd/classIGLib_1_1Parsing_1_1ParsableBase.html" target="_top" xlink:title=" ">
<polygon fill="white" stroke="black" points="0,-67.5 0,-86.5 114,-86.5 114,-67.5 0,-67.5"/>
<text text-anchor="middle" x="57" y="-74.5" font-family="Helvetica,sans-Serif" font-size="10.00">ParsableBase&lt; char &gt;</text>
</a>
</g>
</g>
<!-- Node2&#45;&gt;Node1 -->
<g id="edge1" class="edge"><title>Node2&#45;&gt;Node1</title>
<path fill="none" stroke="midnightblue" d="M73.0251,-60.369C82.5147,-51.1127 94.4382,-39.4824 103.624,-30.523"/>
<polygon fill="midnightblue" stroke="midnightblue" points="70.4545,-57.9871 65.7398,-67.4751 75.3423,-62.9981 70.4545,-57.9871"/>
</g>
<!-- Node3 -->
<g id="node3" class="node"><title>Node3</title>
<g id="a_node3"><a xlink:href="../../de/d29/interfaceIGLib_1_1Parsing_1_1IParsable.html" target="_top" xlink:title=" ">
<polygon fill="white" stroke="black" points="132,-67.5 132,-86.5 226,-86.5 226,-67.5 132,-67.5"/>
<text text-anchor="middle" x="179" y="-74.5" font-family="Helvetica,sans-Serif" font-size="10.00">IParsable&lt; char &gt;</text>
</a>
</g>
</g>
<!-- Node3&#45;&gt;Node1 -->
<g id="edge2" class="edge"><title>Node3&#45;&gt;Node1</title>
<path fill="none" stroke="midnightblue" d="M162.975,-60.369C153.485,-51.1127 141.562,-39.4824 132.376,-30.523"/>
<polygon fill="midnightblue" stroke="midnightblue" points="160.658,-62.9981 170.26,-67.4751 165.546,-57.9871 160.658,-62.9981"/>
</g>
</g>
</svg>
