<?xml version="1.0" encoding="UTF-8" standalone="no"?>
<!DOCTYPE svg PUBLIC "-//W3C//DTD SVG 1.1//EN"
 "http://www.w3.org/Graphics/SVG/1.1/DTD/svg11.dtd">
<!-- Generated by graphviz version 2.38.0 (20140413.2041)
 -->
<!-- Title: IG.Lib.ReporterBase Pages: 1 -->
<svg width="454pt" height="319pt"
 viewBox="0.00 0.00 453.50 319.00" xmlns="http://www.w3.org/2000/svg" xmlns:xlink="http://www.w3.org/1999/xlink">
<g id="graph0" class="graph" transform="scale(1 1) rotate(0) translate(4 315)">
<title>IG.Lib.ReporterBase</title>
<polygon fill="white" stroke="none" points="-4,4 -4,-315 449.5,-315 449.5,4 -4,4"/>
<!-- Node1 -->
<g id="node1" class="node"><title>Node1</title>
<g id="a_node1"><a xlink:title="Base IGlib class for reporting, tracing and logging; provides a global reporter and a basis for creat...">
<polygon fill="#bfbfbf" stroke="black" points="172.5,-0.5 172.5,-19.5 276.5,-19.5 276.5,-0.5 172.5,-0.5"/>
<text text-anchor="middle" x="224.5" y="-7.5" font-family="Helvetica,sans-Serif" font-size="10.00">IG.Lib.ReporterBase</text>
</a>
</g>
</g>
<!-- Node2 -->
<g id="node2" class="node"><title>Node2</title>
<g id="a_node2"><a xlink:href="../../db/db1/interfaceIG_1_1Lib_1_1IReporter.html" target="_top" xlink:title="Interface from which majority of reporters inherit. Includes generic reporting functionality plus tra...">
<polygon fill="white" stroke="black" points="146.5,-177.5 146.5,-196.5 202.5,-196.5 202.5,-177.5 146.5,-177.5"/>
<text text-anchor="middle" x="174.5" y="-184.5" font-family="Helvetica,sans-Serif" font-size="10.00">IReporter</text>
</a>
</g>
</g>
<!-- Node2&#45;&gt;Node1 -->
<g id="edge1" class="edge"><title>Node2&#45;&gt;Node1</title>
<path fill="none" stroke="midnightblue" d="M179.804,-167.436C190.497,-130.011 214.28,-46.7699 222.016,-19.6932"/>
<polygon fill="midnightblue" stroke="midnightblue" points="176.43,-166.504 177.048,-177.081 183.161,-168.427 176.43,-166.504"/>
</g>
<!-- Node3 -->
<g id="node3" class="node"><title>Node3</title>
<g id="a_node3"><a xlink:title=" ">
<polygon fill="white" stroke="#bfbfbf" points="0,-234.5 0,-253.5 67,-253.5 67,-234.5 0,-234.5"/>
<text text-anchor="middle" x="33.5" y="-241.5" font-family="Helvetica,sans-Serif" font-size="10.00">IDisposable</text>
</a>
</g>
</g>
<!-- Node3&#45;&gt;Node2 -->
<g id="edge2" class="edge"><title>Node3&#45;&gt;Node2</title>
<path fill="none" stroke="midnightblue" d="M55.2229,-228.807C63.2547,-223.973 72.5787,-218.828 81.5,-215 102.512,-205.984 127.446,-198.928 146.205,-194.293"/>
<polygon fill="midnightblue" stroke="midnightblue" points="53.1296,-225.988 46.4894,-234.243 56.8287,-231.931 53.1296,-225.988"/>
</g>
<!-- Node4 -->
<g id="node4" class="node"><title>Node4</title>
<g id="a_node4"><a xlink:href="../../de/d0d/interfaceIG_1_1Lib_1_1IReporterBase.html" target="_top" xlink:title="Interface from which all reporters inherit.">
<polygon fill="white" stroke="black" points="195.5,-291.5 195.5,-310.5 273.5,-310.5 273.5,-291.5 195.5,-291.5"/>
<text text-anchor="middle" x="234.5" y="-298.5" font-family="Helvetica,sans-Serif" font-size="10.00">IReporterBase</text>
</a>
</g>
</g>
<!-- Node4&#45;&gt;Node2 -->
<g id="edge3" class="edge"><title>Node4&#45;&gt;Node2</title>
<path fill="none" stroke="midnightblue" d="M185.295,-294.354C159.655,-288.634 130.403,-277.128 114.5,-254 98.97,-231.415 133.598,-208.51 156.448,-196.524"/>
<polygon fill="midnightblue" stroke="midnightblue" points="184.784,-297.821 195.275,-296.341 186.15,-290.956 184.784,-297.821"/>
</g>
<!-- Node5 -->
<g id="node5" class="node"><title>Node5</title>
<g id="a_node5"><a xlink:href="../../d2/d8e/interfaceIG_1_1Lib_1_1IReporterTextWriter.html" target="_top" xlink:title="Reporters that utilize writing messages to files. Messages are typically formatted as multi&#45;line mess...">
<polygon fill="white" stroke="black" points="124,-234.5 124,-253.5 225,-253.5 225,-234.5 124,-234.5"/>
<text text-anchor="middle" x="174.5" y="-241.5" font-family="Helvetica,sans-Serif" font-size="10.00">IReporterTextWriter</text>
</a>
</g>
</g>
<!-- Node4&#45;&gt;Node5 -->
<g id="edge5" class="edge"><title>Node4&#45;&gt;Node5</title>
<path fill="none" stroke="midnightblue" d="M217.499,-284.416C206.648,-274.469 192.983,-261.943 184.007,-253.715"/>
<polygon fill="midnightblue" stroke="midnightblue" points="215.388,-287.229 225.125,-291.406 220.118,-282.069 215.388,-287.229"/>
</g>
<!-- Node6 -->
<g id="node6" class="node"><title>Node6</title>
<g id="a_node6"><a xlink:href="../../d1/ddb/interfaceIG_1_1Lib_1_1IReporterTextLogger.html" target="_top" xlink:title="Reporters that utilize logging messages to files. IReporterTextLogger typically outputs (to a file) m...">
<polygon fill="white" stroke="black" points="243.5,-234.5 243.5,-253.5 347.5,-253.5 347.5,-234.5 243.5,-234.5"/>
<text text-anchor="middle" x="295.5" y="-241.5" font-family="Helvetica,sans-Serif" font-size="10.00">IReporterTextLogger</text>
</a>
</g>
</g>
<!-- Node4&#45;&gt;Node6 -->
<g id="edge7" class="edge"><title>Node4&#45;&gt;Node6</title>
<path fill="none" stroke="midnightblue" d="M251.46,-284.708C262.543,-274.715 276.619,-262.024 285.834,-253.715"/>
<polygon fill="midnightblue" stroke="midnightblue" points="249.114,-282.11 244.031,-291.406 253.802,-287.309 249.114,-282.11"/>
</g>
<!-- Node7 -->
<g id="node7" class="node"><title>Node7</title>
<g id="a_node7"><a xlink:href="../../d0/d0e/interfaceIG_1_1Lib_1_1IReporterTrace.html" target="_top" xlink:title="Reporters that utilize system&#39;s trace utility.">
<polygon fill="white" stroke="black" points="365.5,-234.5 365.5,-253.5 445.5,-253.5 445.5,-234.5 365.5,-234.5"/>
<text text-anchor="middle" x="405.5" y="-241.5" font-family="Helvetica,sans-Serif" font-size="10.00">IReporterTrace</text>
</a>
</g>
</g>
<!-- Node4&#45;&gt;Node7 -->
<g id="edge9" class="edge"><title>Node4&#45;&gt;Node7</title>
<path fill="none" stroke="midnightblue" d="M270.784,-288.33C303.201,-277.903 349.931,-262.873 378.969,-253.533"/>
<polygon fill="midnightblue" stroke="midnightblue" points="269.667,-285.012 261.219,-291.406 271.81,-291.676 269.667,-285.012"/>
</g>
<!-- Node5&#45;&gt;Node2 -->
<g id="edge4" class="edge"><title>Node5&#45;&gt;Node2</title>
<path fill="none" stroke="midnightblue" d="M174.5,-224.117C174.5,-214.817 174.5,-204.056 174.5,-196.715"/>
<polygon fill="midnightblue" stroke="midnightblue" points="171,-224.406 174.5,-234.406 178,-224.406 171,-224.406"/>
</g>
<!-- Node6&#45;&gt;Node2 -->
<g id="edge6" class="edge"><title>Node6&#45;&gt;Node2</title>
<path fill="none" stroke="midnightblue" d="M267.417,-230.235C244.621,-219.873 213.112,-205.551 193.273,-196.533"/>
<polygon fill="midnightblue" stroke="midnightblue" points="266.042,-233.454 276.594,-234.406 268.938,-227.082 266.042,-233.454"/>
</g>
<!-- Node7&#45;&gt;Node2 -->
<g id="edge8" class="edge"><title>Node7&#45;&gt;Node2</title>
<path fill="none" stroke="midnightblue" d="M359.548,-232.183C320.228,-222.909 262.123,-209.158 211.5,-197 208.672,-196.321 205.722,-195.609 202.778,-194.896"/>
<polygon fill="midnightblue" stroke="midnightblue" points="358.836,-235.611 369.373,-234.5 360.443,-228.798 358.836,-235.611"/>
</g>
<!-- Node8 -->
<g id="node8" class="node"><title>Node8</title>
<g id="a_node8"><a xlink:title=" ">
<polygon fill="white" stroke="#bfbfbf" points="221,-177.5 221,-196.5 262,-196.5 262,-177.5 221,-177.5"/>
<text text-anchor="middle" x="241.5" y="-184.5" font-family="Helvetica,sans-Serif" font-size="10.00">static</text>
</a>
</g>
</g>
<!-- Node8&#45;&gt;Node1 -->
<g id="edge10" class="edge"><title>Node8&#45;&gt;Node1</title>
<path fill="none" stroke="#9a32cd" stroke-dasharray="5,2" d="M239.65,-166.951C235.992,-129.297 227.963,-46.6537 225.344,-19.6932"/>
<polygon fill="#9a32cd" stroke="#9a32cd" points="236.183,-167.466 240.634,-177.081 243.15,-166.79 236.183,-167.466"/>
<text text-anchor="middle" x="290" y="-151" font-family="Helvetica,sans-Serif" font-size="10.00"> _newLineReplacement</text>
<text text-anchor="middle" x="290" y="-140" font-family="Helvetica,sans-Serif" font-size="10.00">_GlobalInitialized</text>
<text text-anchor="middle" x="290" y="-129" font-family="Helvetica,sans-Serif" font-size="10.00">maxErrIndentLevel</text>
<text text-anchor="middle" x="290" y="-118" font-family="Helvetica,sans-Serif" font-size="10.00">maxErrInitialIndent</text>
<text text-anchor="middle" x="290" y="-107" font-family="Helvetica,sans-Serif" font-size="10.00">numErrIndentLevel</text>
<text text-anchor="middle" x="290" y="-96" font-family="Helvetica,sans-Serif" font-size="10.00">_Global</text>
<text text-anchor="middle" x="290" y="-85" font-family="Helvetica,sans-Serif" font-size="10.00">maxErrIndentSpacing</text>
<text text-anchor="middle" x="290" y="-74" font-family="Helvetica,sans-Serif" font-size="10.00">numErrInitialIndent</text>
<text text-anchor="middle" x="290" y="-63" font-family="Helvetica,sans-Serif" font-size="10.00">numErrIndentSpacing</text>
<text text-anchor="middle" x="290" y="-52" font-family="Helvetica,sans-Serif" font-size="10.00">GlobalLock</text>
<text text-anchor="middle" x="290" y="-41" font-family="Helvetica,sans-Serif" font-size="10.00">...</text>
</g>
</g>
</svg>
