<?xml version="1.0" encoding="UTF-8" standalone="no"?>
<!DOCTYPE svg PUBLIC "-//W3C//DTD SVG 1.1//EN"
 "http://www.w3.org/Graphics/SVG/1.1/DTD/svg11.dtd">
<!-- Generated by graphviz version 2.38.0 (20140413.2041)
 -->
<!-- Title: IG.Num.VectorFunctionBase Pages: 1 -->
<svg width="177pt" height="263pt"
 viewBox="0.00 0.00 177.19 263.00" xmlns="http://www.w3.org/2000/svg" xmlns:xlink="http://www.w3.org/1999/xlink">
<g id="graph0" class="graph" transform="scale(1 1) rotate(0) translate(4 259)">
<title>IG.Num.VectorFunctionBase</title>
<polygon fill="white" stroke="none" points="-4,4 -4,-259 173.189,-259 173.189,4 -4,4"/>
<!-- Node1 -->
<g id="node1" class="node"><title>Node1</title>
<g id="a_node1"><a xlink:title="Base class for defining Vector functions whose evaluation is defined in bulk, and evaluation of indiv...">
<polygon fill="#bfbfbf" stroke="black" points="15.1887,-67.5 15.1887,-86.5 156.189,-86.5 156.189,-67.5 15.1887,-67.5"/>
<text text-anchor="middle" x="85.6887" y="-74.5" font-family="Helvetica,sans-Serif" font-size="10.00">IG.Num.VectorFunctionBase</text>
</a>
</g>
</g>
<!-- Node5 -->
<g id="node5" class="node"><title>Node5</title>
<g id="a_node5"><a xlink:href="../../dc/d48/classIG_1_1Num_1_1VectorFunctionExamples_1_1RosenrockAndCircle.html" target="_top" xlink:title="Example &#45; 2 component vector function of 2 variables. The first component is the Rosenbrock function ...">
<polygon fill="white" stroke="black" points="3.18873,-0.5 3.18873,-30.5 168.189,-30.5 168.189,-0.5 3.18873,-0.5"/>
<text text-anchor="start" x="11.1887" y="-18.5" font-family="Helvetica,sans-Serif" font-size="10.00">IG.Num.VectorFunctionExamples.</text>
<text text-anchor="middle" x="85.6887" y="-7.5" font-family="Helvetica,sans-Serif" font-size="10.00">RosenrockAndCircle</text>
</a>
</g>
</g>
<!-- Node1&#45;&gt;Node5 -->
<g id="edge7" class="edge"><title>Node1&#45;&gt;Node5</title>
<path fill="none" stroke="midnightblue" d="M85.6887,-57.2349C85.6887,-48.5864 85.6887,-38.4969 85.6887,-30.523"/>
<polygon fill="midnightblue" stroke="midnightblue" points="82.1888,-57.4751 85.6887,-67.4751 89.1888,-57.4751 82.1888,-57.4751"/>
</g>
<!-- Node2 -->
<g id="node2" class="node"><title>Node2</title>
<g id="a_node2"><a xlink:href="../../dc/d23/classIG_1_1Num_1_1VectorFunctionBaseGeneral.html" target="_top" xlink:title="Base class for VectorFunctionBase and VectorFunctionBaseComponentwise. In general,...">
<polygon fill="white" stroke="black" points="16.1887,-123.5 16.1887,-142.5 155.189,-142.5 155.189,-123.5 16.1887,-123.5"/>
<text text-anchor="middle" x="85.6887" y="-130.5" font-family="Helvetica,sans-Serif" font-size="10.00">VectorFunctionBaseGeneral</text>
</a>
</g>
</g>
<!-- Node2&#45;&gt;Node1 -->
<g id="edge1" class="edge"><title>Node2&#45;&gt;Node1</title>
<path fill="none" stroke="midnightblue" d="M85.6887,-112.805C85.6887,-103.91 85.6887,-93.7798 85.6887,-86.7511"/>
<polygon fill="midnightblue" stroke="midnightblue" points="82.1888,-113.083 85.6887,-123.083 89.1888,-113.083 82.1888,-113.083"/>
</g>
<!-- Node3 -->
<g id="node3" class="node"><title>Node3</title>
<g id="a_node3"><a xlink:href="../../da/d06/interfaceIG_1_1Num_1_1IVectorFunction.html" target="_top" xlink:title="Vector function of a vector argument.">
<polygon fill="white" stroke="black" points="84.1887,-179.5 84.1887,-198.5 169.189,-198.5 169.189,-179.5 84.1887,-179.5"/>
<text text-anchor="middle" x="126.689" y="-186.5" font-family="Helvetica,sans-Serif" font-size="10.00">IVectorFunction</text>
</a>
</g>
</g>
<!-- Node3&#45;&gt;Node1 -->
<g id="edge5" class="edge"><title>Node3&#45;&gt;Node1</title>
<path fill="none" stroke="midnightblue" d="M146.008,-172.419C159.874,-159.259 174.518,-139.911 164.689,-123 154.139,-104.85 133.228,-93.4129 115.569,-86.6125"/>
<polygon fill="midnightblue" stroke="midnightblue" points="143.3,-170.141 138.125,-179.386 147.936,-175.386 143.3,-170.141"/>
</g>
<!-- Node3&#45;&gt;Node2 -->
<g id="edge2" class="edge"><title>Node3&#45;&gt;Node2</title>
<path fill="none" stroke="midnightblue" d="M113.672,-170.855C106.572,-161.505 98.0848,-150.327 92.3331,-142.751"/>
<polygon fill="midnightblue" stroke="midnightblue" points="111.084,-173.235 119.918,-179.083 116.659,-169.002 111.084,-173.235"/>
</g>
<!-- Node4 -->
<g id="node4" class="node"><title>Node4</title>
<g id="a_node4"><a xlink:href="../../d3/db6/interfaceIG_1_1Lib_1_1ILockable.html" target="_top" xlink:title="Lockable object, has a Lock property that returns object on which lock must be performed in order to ...">
<polygon fill="white" stroke="black" points="26.6887,-235.5 26.6887,-254.5 84.6887,-254.5 84.6887,-235.5 26.6887,-235.5"/>
<text text-anchor="middle" x="55.6887" y="-242.5" font-family="Helvetica,sans-Serif" font-size="10.00">ILockable</text>
</a>
</g>
</g>
<!-- Node4&#45;&gt;Node1 -->
<g id="edge6" class="edge"><title>Node4&#45;&gt;Node1</title>
<path fill="none" stroke="midnightblue" d="M40.1211,-227.941C18.9938,-204.114 -13.8908,-158.407 6.68873,-123 17.2381,-104.85 38.1491,-93.4129 55.808,-86.6125"/>
<polygon fill="midnightblue" stroke="midnightblue" points="37.6468,-230.421 46.9969,-235.403 42.7948,-225.677 37.6468,-230.421"/>
</g>
<!-- Node4&#45;&gt;Node2 -->
<g id="edge4" class="edge"><title>Node4&#45;&gt;Node2</title>
<path fill="none" stroke="midnightblue" d="M60.6867,-225.674C67.2456,-201.625 78.492,-160.388 83.3456,-142.591"/>
<polygon fill="midnightblue" stroke="midnightblue" points="57.2973,-224.8 58.0428,-235.368 64.0507,-226.642 57.2973,-224.8"/>
</g>
<!-- Node4&#45;&gt;Node3 -->
<g id="edge3" class="edge"><title>Node4&#45;&gt;Node3</title>
<path fill="none" stroke="midnightblue" d="M75.2785,-229.101C88.0563,-219.382 104.301,-207.027 115.074,-198.834"/>
<polygon fill="midnightblue" stroke="midnightblue" points="72.9368,-226.484 67.0961,-235.324 77.1744,-232.056 72.9368,-226.484"/>
</g>
</g>
</svg>
