<?xml version="1.0" encoding="UTF-8" standalone="no"?>
<!DOCTYPE svg PUBLIC "-//W3C//DTD SVG 1.1//EN"
 "http://www.w3.org/Graphics/SVG/1.1/DTD/svg11.dtd">
<!-- Generated by graphviz version 2.38.0 (20140413.2041)
 -->
<!-- Title: JsonPrettyPrinterPlus.JsonPrettyPrinterInternals.JsonPPStrategies.SkipWhileNotInStringStrategy Pages: 1 -->
<svg width="200pt" height="106pt"
 viewBox="0.00 0.00 200.00 106.00" xmlns="http://www.w3.org/2000/svg" xmlns:xlink="http://www.w3.org/1999/xlink">
<g id="graph0" class="graph" transform="scale(1 1) rotate(0) translate(4 102)">
<title>JsonPrettyPrinterPlus.JsonPrettyPrinterInternals.JsonPPStrategies.SkipWhileNotInStringStrategy</title>
<polygon fill="white" stroke="none" points="-4,4 -4,-102 196,-102 196,4 -4,4"/>
<!-- Node1 -->
<g id="node1" class="node"><title>Node1</title>
<g id="a_node1"><a xlink:title=" ">
<polygon fill="#bfbfbf" stroke="black" points="0,-0.5 0,-41.5 192,-41.5 192,-0.5 0,-0.5"/>
<text text-anchor="start" x="8" y="-29.5" font-family="Helvetica,sans-Serif" font-size="10.00">JsonPrettyPrinterPlus.Json</text>
<text text-anchor="start" x="8" y="-18.5" font-family="Helvetica,sans-Serif" font-size="10.00">PrettyPrinterInternals.JsonPPStrategies.</text>
<text text-anchor="middle" x="96" y="-7.5" font-family="Helvetica,sans-Serif" font-size="10.00">SkipWhileNotInStringStrategy</text>
</a>
</g>
</g>
<!-- Node2 -->
<g id="node2" class="node"><title>Node2</title>
<g id="a_node2"><a xlink:href="../../d1/dff/interfaceJsonPrettyPrinterPlus_1_1JsonPrettyPrinterInternals_1_1ICharacterStrategy.html" target="_top" xlink:title=" ">
<polygon fill="white" stroke="black" points="47,-78.5 47,-97.5 145,-97.5 145,-78.5 47,-78.5"/>
<text text-anchor="middle" x="96" y="-85.5" font-family="Helvetica,sans-Serif" font-size="10.00">ICharacterStrategy</text>
</a>
</g>
</g>
<!-- Node2&#45;&gt;Node1 -->
<g id="edge1" class="edge"><title>Node2&#45;&gt;Node1</title>
<path fill="none" stroke="midnightblue" d="M96,-68.037C96,-59.7084 96,-49.9358 96,-41.5421"/>
<polygon fill="midnightblue" stroke="midnightblue" points="92.5001,-68.2338 96,-78.2338 99.5001,-68.2338 92.5001,-68.2338"/>
</g>
</g>
</svg>
