<?xml version="1.0" encoding="UTF-8" standalone="no"?>
<!DOCTYPE svg PUBLIC "-//W3C//DTD SVG 1.1//EN"
 "http://www.w3.org/Graphics/SVG/1.1/DTD/svg11.dtd">
<!-- Generated by graphviz version 2.38.0 (20140413.2041)
 -->
<!-- Title: IG.Lib.ReporterBase.TWClass Pages: 1 -->
<svg width="454pt" height="386pt"
 viewBox="0.00 0.00 453.50 386.00" xmlns="http://www.w3.org/2000/svg" xmlns:xlink="http://www.w3.org/1999/xlink">
<g id="graph0" class="graph" transform="scale(1 1) rotate(0) translate(4 382)">
<title>IG.Lib.ReporterBase.TWClass</title>
<polygon fill="white" stroke="none" points="-4,4 -4,-382 449.5,-382 449.5,4 -4,4"/>
<!-- Node1 -->
<g id="node1" class="node"><title>Node1</title>
<g id="a_node1"><a xlink:title="A class for storing TextWriters and some data associated with them (such as the name of the file from...">
<polygon fill="#bfbfbf" stroke="black" points="151,-0.5 151,-19.5 298,-19.5 298,-0.5 151,-0.5"/>
<text text-anchor="middle" x="224.5" y="-7.5" font-family="Helvetica,sans-Serif" font-size="10.00">IG.Lib.ReporterBase.TWClass</text>
</a>
</g>
</g>
<!-- Node2 -->
<g id="node2" class="node"><title>Node2</title>
<g id="a_node2"><a xlink:href="../../d4/de2/classIG_1_1Lib_1_1ReporterBase.html" target="_top" xlink:title="Base IGlib class for reporting, tracing and logging; provides a global reporter and a basis for creat...">
<polygon fill="white" stroke="black" points="172.5,-67.5 172.5,-86.5 276.5,-86.5 276.5,-67.5 172.5,-67.5"/>
<text text-anchor="middle" x="224.5" y="-74.5" font-family="Helvetica,sans-Serif" font-size="10.00">IG.Lib.ReporterBase</text>
</a>
</g>
</g>
<!-- Node2&#45;&gt;Node1 -->
<g id="edge1" class="edge"><title>Node2&#45;&gt;Node1</title>
<path fill="none" stroke="#9a32cd" stroke-dasharray="5,2" d="M224.5,-57.037C224.5,-44.6703 224.5,-29.1198 224.5,-19.6273"/>
<polygon fill="#9a32cd" stroke="#9a32cd" points="221,-57.2338 224.5,-67.2338 228,-57.2338 221,-57.2338"/>
<text text-anchor="middle" x="233" y="-41" font-family="Helvetica,sans-Serif" font-size="10.00"> rep</text>
</g>
<!-- Node3 -->
<g id="node3" class="node"><title>Node3</title>
<g id="a_node3"><a xlink:href="../../db/db1/interfaceIG_1_1Lib_1_1IReporter.html" target="_top" xlink:title="Interface from which majority of reporters inherit. Includes generic reporting functionality plus tra...">
<polygon fill="white" stroke="black" points="146.5,-244.5 146.5,-263.5 202.5,-263.5 202.5,-244.5 146.5,-244.5"/>
<text text-anchor="middle" x="174.5" y="-251.5" font-family="Helvetica,sans-Serif" font-size="10.00">IReporter</text>
</a>
</g>
</g>
<!-- Node3&#45;&gt;Node2 -->
<g id="edge2" class="edge"><title>Node3&#45;&gt;Node2</title>
<path fill="none" stroke="midnightblue" d="M179.804,-234.436C190.497,-197.011 214.28,-113.77 222.016,-86.6932"/>
<polygon fill="midnightblue" stroke="midnightblue" points="176.43,-233.504 177.048,-244.081 183.161,-235.427 176.43,-233.504"/>
</g>
<!-- Node4 -->
<g id="node4" class="node"><title>Node4</title>
<g id="a_node4"><a xlink:title=" ">
<polygon fill="white" stroke="#bfbfbf" points="0,-301.5 0,-320.5 67,-320.5 67,-301.5 0,-301.5"/>
<text text-anchor="middle" x="33.5" y="-308.5" font-family="Helvetica,sans-Serif" font-size="10.00">IDisposable</text>
</a>
</g>
</g>
<!-- Node4&#45;&gt;Node3 -->
<g id="edge3" class="edge"><title>Node4&#45;&gt;Node3</title>
<path fill="none" stroke="midnightblue" d="M55.2229,-295.807C63.2547,-290.973 72.5787,-285.828 81.5,-282 102.512,-272.984 127.446,-265.928 146.205,-261.293"/>
<polygon fill="midnightblue" stroke="midnightblue" points="53.1296,-292.988 46.4894,-301.243 56.8287,-298.931 53.1296,-292.988"/>
</g>
<!-- Node5 -->
<g id="node5" class="node"><title>Node5</title>
<g id="a_node5"><a xlink:href="../../de/d0d/interfaceIG_1_1Lib_1_1IReporterBase.html" target="_top" xlink:title="Interface from which all reporters inherit.">
<polygon fill="white" stroke="black" points="195.5,-358.5 195.5,-377.5 273.5,-377.5 273.5,-358.5 195.5,-358.5"/>
<text text-anchor="middle" x="234.5" y="-365.5" font-family="Helvetica,sans-Serif" font-size="10.00">IReporterBase</text>
</a>
</g>
</g>
<!-- Node5&#45;&gt;Node3 -->
<g id="edge4" class="edge"><title>Node5&#45;&gt;Node3</title>
<path fill="none" stroke="midnightblue" d="M185.295,-361.354C159.655,-355.634 130.403,-344.128 114.5,-321 98.97,-298.415 133.598,-275.51 156.448,-263.524"/>
<polygon fill="midnightblue" stroke="midnightblue" points="184.784,-364.821 195.275,-363.341 186.15,-357.956 184.784,-364.821"/>
</g>
<!-- Node6 -->
<g id="node6" class="node"><title>Node6</title>
<g id="a_node6"><a xlink:href="../../d2/d8e/interfaceIG_1_1Lib_1_1IReporterTextWriter.html" target="_top" xlink:title="Reporters that utilize writing messages to files. Messages are typically formatted as multi&#45;line mess...">
<polygon fill="white" stroke="black" points="124,-301.5 124,-320.5 225,-320.5 225,-301.5 124,-301.5"/>
<text text-anchor="middle" x="174.5" y="-308.5" font-family="Helvetica,sans-Serif" font-size="10.00">IReporterTextWriter</text>
</a>
</g>
</g>
<!-- Node5&#45;&gt;Node6 -->
<g id="edge6" class="edge"><title>Node5&#45;&gt;Node6</title>
<path fill="none" stroke="midnightblue" d="M217.499,-351.416C206.648,-341.469 192.983,-328.943 184.007,-320.715"/>
<polygon fill="midnightblue" stroke="midnightblue" points="215.388,-354.229 225.125,-358.406 220.118,-349.069 215.388,-354.229"/>
</g>
<!-- Node7 -->
<g id="node7" class="node"><title>Node7</title>
<g id="a_node7"><a xlink:href="../../d1/ddb/interfaceIG_1_1Lib_1_1IReporterTextLogger.html" target="_top" xlink:title="Reporters that utilize logging messages to files. IReporterTextLogger typically outputs (to a file) m...">
<polygon fill="white" stroke="black" points="243.5,-301.5 243.5,-320.5 347.5,-320.5 347.5,-301.5 243.5,-301.5"/>
<text text-anchor="middle" x="295.5" y="-308.5" font-family="Helvetica,sans-Serif" font-size="10.00">IReporterTextLogger</text>
</a>
</g>
</g>
<!-- Node5&#45;&gt;Node7 -->
<g id="edge8" class="edge"><title>Node5&#45;&gt;Node7</title>
<path fill="none" stroke="midnightblue" d="M251.46,-351.708C262.543,-341.715 276.619,-329.024 285.834,-320.715"/>
<polygon fill="midnightblue" stroke="midnightblue" points="249.114,-349.11 244.031,-358.406 253.802,-354.309 249.114,-349.11"/>
</g>
<!-- Node8 -->
<g id="node8" class="node"><title>Node8</title>
<g id="a_node8"><a xlink:href="../../d0/d0e/interfaceIG_1_1Lib_1_1IReporterTrace.html" target="_top" xlink:title="Reporters that utilize system&#39;s trace utility.">
<polygon fill="white" stroke="black" points="365.5,-301.5 365.5,-320.5 445.5,-320.5 445.5,-301.5 365.5,-301.5"/>
<text text-anchor="middle" x="405.5" y="-308.5" font-family="Helvetica,sans-Serif" font-size="10.00">IReporterTrace</text>
</a>
</g>
</g>
<!-- Node5&#45;&gt;Node8 -->
<g id="edge10" class="edge"><title>Node5&#45;&gt;Node8</title>
<path fill="none" stroke="midnightblue" d="M270.784,-355.33C303.201,-344.903 349.931,-329.873 378.969,-320.533"/>
<polygon fill="midnightblue" stroke="midnightblue" points="269.667,-352.012 261.219,-358.406 271.81,-358.676 269.667,-352.012"/>
</g>
<!-- Node6&#45;&gt;Node3 -->
<g id="edge5" class="edge"><title>Node6&#45;&gt;Node3</title>
<path fill="none" stroke="midnightblue" d="M174.5,-291.117C174.5,-281.817 174.5,-271.056 174.5,-263.715"/>
<polygon fill="midnightblue" stroke="midnightblue" points="171,-291.406 174.5,-301.406 178,-291.406 171,-291.406"/>
</g>
<!-- Node7&#45;&gt;Node3 -->
<g id="edge7" class="edge"><title>Node7&#45;&gt;Node3</title>
<path fill="none" stroke="midnightblue" d="M267.417,-297.235C244.621,-286.873 213.112,-272.551 193.273,-263.533"/>
<polygon fill="midnightblue" stroke="midnightblue" points="266.042,-300.454 276.594,-301.406 268.938,-294.082 266.042,-300.454"/>
</g>
<!-- Node8&#45;&gt;Node3 -->
<g id="edge9" class="edge"><title>Node8&#45;&gt;Node3</title>
<path fill="none" stroke="midnightblue" d="M359.548,-299.183C320.228,-289.909 262.123,-276.158 211.5,-264 208.672,-263.321 205.722,-262.609 202.778,-261.896"/>
<polygon fill="midnightblue" stroke="midnightblue" points="358.836,-302.611 369.373,-301.5 360.443,-295.798 358.836,-302.611"/>
</g>
<!-- Node9 -->
<g id="node9" class="node"><title>Node9</title>
<g id="a_node9"><a xlink:title=" ">
<polygon fill="white" stroke="#bfbfbf" points="221,-244.5 221,-263.5 262,-263.5 262,-244.5 221,-244.5"/>
<text text-anchor="middle" x="241.5" y="-251.5" font-family="Helvetica,sans-Serif" font-size="10.00">static</text>
</a>
</g>
</g>
<!-- Node9&#45;&gt;Node2 -->
<g id="edge11" class="edge"><title>Node9&#45;&gt;Node2</title>
<path fill="none" stroke="#9a32cd" stroke-dasharray="5,2" d="M239.65,-233.951C235.992,-196.297 227.963,-113.654 225.344,-86.6932"/>
<polygon fill="#9a32cd" stroke="#9a32cd" points="236.183,-234.466 240.634,-244.081 243.15,-233.79 236.183,-234.466"/>
<text text-anchor="middle" x="290" y="-218" font-family="Helvetica,sans-Serif" font-size="10.00"> _newLineReplacement</text>
<text text-anchor="middle" x="290" y="-207" font-family="Helvetica,sans-Serif" font-size="10.00">_GlobalInitialized</text>
<text text-anchor="middle" x="290" y="-196" font-family="Helvetica,sans-Serif" font-size="10.00">maxErrIndentLevel</text>
<text text-anchor="middle" x="290" y="-185" font-family="Helvetica,sans-Serif" font-size="10.00">maxErrInitialIndent</text>
<text text-anchor="middle" x="290" y="-174" font-family="Helvetica,sans-Serif" font-size="10.00">numErrIndentLevel</text>
<text text-anchor="middle" x="290" y="-163" font-family="Helvetica,sans-Serif" font-size="10.00">_Global</text>
<text text-anchor="middle" x="290" y="-152" font-family="Helvetica,sans-Serif" font-size="10.00">maxErrIndentSpacing</text>
<text text-anchor="middle" x="290" y="-141" font-family="Helvetica,sans-Serif" font-size="10.00">numErrInitialIndent</text>
<text text-anchor="middle" x="290" y="-130" font-family="Helvetica,sans-Serif" font-size="10.00">numErrIndentSpacing</text>
<text text-anchor="middle" x="290" y="-119" font-family="Helvetica,sans-Serif" font-size="10.00">GlobalLock</text>
<text text-anchor="middle" x="290" y="-108" font-family="Helvetica,sans-Serif" font-size="10.00">...</text>
</g>
</g>
</svg>
