<?xml version="1.0" encoding="UTF-8" standalone="no"?>
<!DOCTYPE svg PUBLIC "-//W3C//DTD SVG 1.1//EN"
 "http://www.w3.org/Graphics/SVG/1.1/DTD/svg11.dtd">
<!-- Generated by graphviz version 2.38.0 (20140413.2041)
 -->
<!-- Title: IG.Lib.LoadableRealFunctionBase Pages: 1 -->
<svg width="218pt" height="263pt"
 viewBox="0.00 0.00 218.00 263.00" xmlns="http://www.w3.org/2000/svg" xmlns:xlink="http://www.w3.org/1999/xlink">
<g id="graph0" class="graph" transform="scale(1 1) rotate(0) translate(4 259)">
<title>IG.Lib.LoadableRealFunctionBase</title>
<polygon fill="white" stroke="none" points="-4,4 -4,-259 214,-259 214,4 -4,4"/>
<!-- Node1 -->
<g id="node1" class="node"><title>Node1</title>
<g id="a_node1"><a xlink:title="A RealFunction class used as base class for dynamically loaded functions. Bunctions loaded from scrip...">
<polygon fill="#bfbfbf" stroke="black" points="0,-67.5 0,-86.5 164,-86.5 164,-67.5 0,-67.5"/>
<text text-anchor="middle" x="82" y="-74.5" font-family="Helvetica,sans-Serif" font-size="10.00">IG.Lib.LoadableRealFunctionBase</text>
</a>
</g>
</g>
<!-- Node6 -->
<g id="node6" class="node"><title>Node6</title>
<g id="a_node6"><a xlink:href="../../d5/d44/classIG_1_1Script_1_1ScritpRealFunctionExample_1_1Container_1_1Function.html" target="_top" xlink:title=" ">
<polygon fill="white" stroke="black" points="12,-0.5 12,-30.5 152,-30.5 152,-0.5 12,-0.5"/>
<text text-anchor="start" x="20" y="-18.5" font-family="Helvetica,sans-Serif" font-size="10.00">IG.Script.ScritpRealFunction</text>
<text text-anchor="middle" x="82" y="-7.5" font-family="Helvetica,sans-Serif" font-size="10.00">Example.Container.Function</text>
</a>
</g>
</g>
<!-- Node1&#45;&gt;Node6 -->
<g id="edge6" class="edge"><title>Node1&#45;&gt;Node6</title>
<path fill="none" stroke="midnightblue" d="M82,-57.2349C82,-48.5864 82,-38.4969 82,-30.523"/>
<polygon fill="midnightblue" stroke="midnightblue" points="78.5001,-57.4751 82,-67.4751 85.5001,-57.4751 78.5001,-57.4751"/>
</g>
<!-- Node2 -->
<g id="node2" class="node"><title>Node2</title>
<g id="a_node2"><a xlink:href="../../d5/d83/classIG_1_1Num_1_1RealFunction.html" target="_top" xlink:title="Represents a real function of a real variabe.">
<polygon fill="white" stroke="black" points="45,-123.5 45,-142.5 119,-142.5 119,-123.5 45,-123.5"/>
<text text-anchor="middle" x="82" y="-130.5" font-family="Helvetica,sans-Serif" font-size="10.00">RealFunction</text>
</a>
</g>
</g>
<!-- Node2&#45;&gt;Node1 -->
<g id="edge1" class="edge"><title>Node2&#45;&gt;Node1</title>
<path fill="none" stroke="midnightblue" d="M82,-112.805C82,-103.91 82,-93.7798 82,-86.7511"/>
<polygon fill="midnightblue" stroke="midnightblue" points="78.5001,-113.083 82,-123.083 85.5001,-113.083 78.5001,-113.083"/>
</g>
<!-- Node3 -->
<g id="node3" class="node"><title>Node3</title>
<g id="a_node3"><a xlink:href="../../d6/d30/classIG_1_1Num_1_1RealFunctionBase.html" target="_top" xlink:title="Base class for real functions of real variable.">
<polygon fill="white" stroke="black" points="34,-179.5 34,-198.5 130,-198.5 130,-179.5 34,-179.5"/>
<text text-anchor="middle" x="82" y="-186.5" font-family="Helvetica,sans-Serif" font-size="10.00">RealFunctionBase</text>
</a>
</g>
</g>
<!-- Node3&#45;&gt;Node2 -->
<g id="edge2" class="edge"><title>Node3&#45;&gt;Node2</title>
<path fill="none" stroke="midnightblue" d="M82,-168.805C82,-159.91 82,-149.78 82,-142.751"/>
<polygon fill="midnightblue" stroke="midnightblue" points="78.5001,-169.083 82,-179.083 85.5001,-169.083 78.5001,-169.083"/>
</g>
<!-- Node4 -->
<g id="node4" class="node"><title>Node4</title>
<g id="a_node4"><a xlink:href="../../db/d0e/interfaceIG_1_1Num_1_1IRealFunction.html" target="_top" xlink:title="Interface for real functions.">
<polygon fill="white" stroke="black" points="6,-235.5 6,-254.5 82,-254.5 82,-235.5 6,-235.5"/>
<text text-anchor="middle" x="44" y="-242.5" font-family="Helvetica,sans-Serif" font-size="10.00">IRealFunction</text>
</a>
</g>
</g>
<!-- Node4&#45;&gt;Node2 -->
<g id="edge4" class="edge"><title>Node4&#45;&gt;Node2</title>
<path fill="none" stroke="midnightblue" d="M32.164,-226.546C24.6333,-213.116 17.5737,-194.325 25,-179 33.0275,-162.435 50.4382,-150.128 63.9185,-142.61"/>
<polygon fill="midnightblue" stroke="midnightblue" points="29.3033,-228.575 37.5304,-235.251 35.262,-224.901 29.3033,-228.575"/>
</g>
<!-- Node4&#45;&gt;Node3 -->
<g id="edge3" class="edge"><title>Node4&#45;&gt;Node3</title>
<path fill="none" stroke="midnightblue" d="M56.0647,-226.855C62.6447,-217.505 70.511,-206.327 75.8418,-198.751"/>
<polygon fill="midnightblue" stroke="midnightblue" points="53.1676,-224.891 50.2749,-235.083 58.8922,-228.919 53.1676,-224.891"/>
</g>
<!-- Node5 -->
<g id="node5" class="node"><title>Node5</title>
<g id="a_node5"><a xlink:title=" ">
<polygon fill="white" stroke="#bfbfbf" points="148,-179.5 148,-198.5 210,-198.5 210,-179.5 148,-179.5"/>
<text text-anchor="middle" x="179" y="-186.5" font-family="Helvetica,sans-Serif" font-size="10.00">ICloneable</text>
</a>
</g>
</g>
<!-- Node5&#45;&gt;Node2 -->
<g id="edge5" class="edge"><title>Node5&#45;&gt;Node2</title>
<path fill="none" stroke="midnightblue" d="M154.665,-174.453C136.757,-164.483 112.946,-151.228 97.5461,-142.655"/>
<polygon fill="midnightblue" stroke="midnightblue" points="152.975,-177.518 163.415,-179.324 156.38,-171.402 152.975,-177.518"/>
</g>
</g>
</svg>
