<?xml version="1.0" encoding="UTF-8" standalone="no"?>
<!DOCTYPE svg PUBLIC "-//W3C//DTD SVG 1.1//EN"
 "http://www.w3.org/Graphics/SVG/1.1/DTD/svg11.dtd">
<!-- Generated by graphviz version 2.38.0 (20140413.2041)
 -->
<!-- Title: IGLib.Core.IModelParameter&lt; ValueType &gt; Pages: 1 -->
<svg width="306pt" height="106pt"
 viewBox="0.00 0.00 306.00 106.00" xmlns="http://www.w3.org/2000/svg" xmlns:xlink="http://www.w3.org/1999/xlink">
<g id="graph0" class="graph" transform="scale(1 1) rotate(0) translate(4 102)">
<title>IGLib.Core.IModelParameter&lt; ValueType &gt;</title>
<polygon fill="white" stroke="none" points="-4,4 -4,-102 302,-102 302,4 -4,4"/>
<!-- Node1 -->
<g id="node1" class="node"><title>Node1</title>
<g id="a_node1"><a xlink:title="Contains data for a single model parameter, similar as IModelParameter, but with additional typed pro...">
<polygon fill="#bfbfbf" stroke="black" points="78,-67.5 78,-97.5 217,-97.5 217,-67.5 78,-67.5"/>
<text text-anchor="start" x="86" y="-85.5" font-family="Helvetica,sans-Serif" font-size="10.00">IGLib.Core.IModelParameter</text>
<text text-anchor="middle" x="147.5" y="-74.5" font-family="Helvetica,sans-Serif" font-size="10.00">&lt; ValueType &gt;</text>
</a>
</g>
</g>
<!-- Node2 -->
<g id="node2" class="node"><title>Node2</title>
<g id="a_node2"><a xlink:href="../../d7/dd3/classIGLib_1_1Core_1_1ModelParameter.html" target="_top" xlink:title=" ">
<polygon fill="white" stroke="black" points="0,-0.5 0,-30.5 137,-30.5 137,-0.5 0,-0.5"/>
<text text-anchor="start" x="8" y="-18.5" font-family="Helvetica,sans-Serif" font-size="10.00">IGLib.Core.ModelParameter</text>
<text text-anchor="middle" x="68.5" y="-7.5" font-family="Helvetica,sans-Serif" font-size="10.00">&lt; ValueType &gt;</text>
</a>
</g>
</g>
<!-- Node1&#45;&gt;Node2 -->
<g id="edge1" class="edge"><title>Node1&#45;&gt;Node2</title>
<path fill="none" stroke="midnightblue" d="M122.443,-60.8832C110.437,-51.0054 96.3679,-39.4293 85.6084,-30.5765"/>
<polygon fill="midnightblue" stroke="midnightblue" points="120.412,-63.745 130.358,-67.396 124.86,-58.3395 120.412,-63.745"/>
</g>
<!-- Node3 -->
<g id="node3" class="node"><title>Node3</title>
<g id="a_node3"><a xlink:href="../../d7/dd3/classIGLib_1_1Core_1_1ModelParameter.html" target="_top" xlink:title=" ">
<polygon fill="white" stroke="black" points="155,-0.5 155,-30.5 298,-30.5 298,-0.5 155,-0.5"/>
<text text-anchor="start" x="163" y="-18.5" font-family="Helvetica,sans-Serif" font-size="10.00">IGLib::Core::ModelParameter</text>
<text text-anchor="middle" x="226.5" y="-7.5" font-family="Helvetica,sans-Serif" font-size="10.00">&lt; ValueType &gt;</text>
</a>
</g>
</g>
<!-- Node1&#45;&gt;Node3 -->
<g id="edge2" class="edge"><title>Node1&#45;&gt;Node3</title>
<path fill="none" stroke="midnightblue" d="M172.557,-60.8832C184.563,-51.0054 198.632,-39.4293 209.392,-30.5765"/>
<polygon fill="midnightblue" stroke="midnightblue" points="170.14,-58.3395 164.642,-67.396 174.588,-63.745 170.14,-58.3395"/>
</g>
</g>
</svg>
