<?xml version="1.0" encoding="UTF-8" standalone="no"?>
<!DOCTYPE svg PUBLIC "-//W3C//DTD SVG 1.1//EN"
 "http://www.w3.org/Graphics/SVG/1.1/DTD/svg11.dtd">
<!-- Generated by graphviz version 2.38.0 (20140413.2041)
 -->
<!-- Title: IG.Num.Func.PenaltyPower Pages: 1 -->
<svg width="272pt" height="196pt"
 viewBox="0.00 0.00 271.50 196.00" xmlns="http://www.w3.org/2000/svg" xmlns:xlink="http://www.w3.org/1999/xlink">
<g id="graph0" class="graph" transform="scale(1 1) rotate(0) translate(4 192)">
<title>IG.Num.Func.PenaltyPower</title>
<polygon fill="white" stroke="none" points="-4,4 -4,-192 267.5,-192 267.5,4 -4,4"/>
<!-- Node1 -->
<g id="node1" class="node"><title>Node1</title>
<g id="a_node1"><a xlink:title="Penalty function consisting of sticked together constant zero&#45;valued function and a power function wi...">
<polygon fill="#bfbfbf" stroke="black" points="7.5,-0.5 7.5,-19.5 144.5,-19.5 144.5,-0.5 7.5,-0.5"/>
<text text-anchor="middle" x="76" y="-7.5" font-family="Helvetica,sans-Serif" font-size="10.00">IG.Num.Func.PenaltyPower</text>
</a>
</g>
</g>
<!-- Node2 -->
<g id="node2" class="node"><title>Node2</title>
<g id="a_node2"><a xlink:href="../../d5/d83/classIG_1_1Num_1_1RealFunction.html" target="_top" xlink:title="Represents a real function of a real variabe.">
<polygon fill="white" stroke="black" points="39,-56.5 39,-75.5 113,-75.5 113,-56.5 39,-56.5"/>
<text text-anchor="middle" x="76" y="-63.5" font-family="Helvetica,sans-Serif" font-size="10.00">RealFunction</text>
</a>
</g>
</g>
<!-- Node2&#45;&gt;Node1 -->
<g id="edge1" class="edge"><title>Node2&#45;&gt;Node1</title>
<path fill="none" stroke="midnightblue" d="M76,-45.8045C76,-36.9102 76,-26.7798 76,-19.7511"/>
<polygon fill="midnightblue" stroke="midnightblue" points="72.5001,-46.083 76,-56.083 79.5001,-46.083 72.5001,-46.083"/>
</g>
<!-- Node3 -->
<g id="node3" class="node"><title>Node3</title>
<g id="a_node3"><a xlink:href="../../d6/d30/classIG_1_1Num_1_1RealFunctionBase.html" target="_top" xlink:title="Base class for real functions of real variable.">
<polygon fill="white" stroke="black" points="28,-112.5 28,-131.5 124,-131.5 124,-112.5 28,-112.5"/>
<text text-anchor="middle" x="76" y="-119.5" font-family="Helvetica,sans-Serif" font-size="10.00">RealFunctionBase</text>
</a>
</g>
</g>
<!-- Node3&#45;&gt;Node2 -->
<g id="edge2" class="edge"><title>Node3&#45;&gt;Node2</title>
<path fill="none" stroke="midnightblue" d="M76,-101.805C76,-92.9102 76,-82.7798 76,-75.7511"/>
<polygon fill="midnightblue" stroke="midnightblue" points="72.5001,-102.083 76,-112.083 79.5001,-102.083 72.5001,-102.083"/>
</g>
<!-- Node4 -->
<g id="node4" class="node"><title>Node4</title>
<g id="a_node4"><a xlink:href="../../db/d0e/interfaceIG_1_1Num_1_1IRealFunction.html" target="_top" xlink:title="Interface for real functions.">
<polygon fill="white" stroke="black" points="0,-168.5 0,-187.5 76,-187.5 76,-168.5 0,-168.5"/>
<text text-anchor="middle" x="38" y="-175.5" font-family="Helvetica,sans-Serif" font-size="10.00">IRealFunction</text>
</a>
</g>
</g>
<!-- Node4&#45;&gt;Node1 -->
<g id="edge8" class="edge"><title>Node4&#45;&gt;Node1</title>
<path fill="none" stroke="midnightblue" d="M25.2743,-159.901C20.0693,-151.869 14.6536,-141.897 12,-132 9.69801,-123.414 10.6233,-120.782 12,-112 16.0489,-86.1724 16.2532,-78.2369 30,-56 39.0469,-41.3658 53.8556,-28.0538 64.2201,-19.7691"/>
<polygon fill="midnightblue" stroke="midnightblue" points="22.5361,-162.094 31.1097,-168.319 28.2891,-158.106 22.5361,-162.094"/>
</g>
<!-- Node4&#45;&gt;Node2 -->
<g id="edge4" class="edge"><title>Node4&#45;&gt;Node2</title>
<path fill="none" stroke="midnightblue" d="M26.164,-159.546C18.6333,-146.116 11.5737,-127.325 19,-112 27.0275,-95.4349 44.4382,-83.1278 57.9185,-75.6099"/>
<polygon fill="midnightblue" stroke="midnightblue" points="23.3033,-161.575 31.5304,-168.251 29.262,-157.901 23.3033,-161.575"/>
</g>
<!-- Node4&#45;&gt;Node3 -->
<g id="edge3" class="edge"><title>Node4&#45;&gt;Node3</title>
<path fill="none" stroke="midnightblue" d="M50.0647,-159.855C56.6447,-150.505 64.511,-139.327 69.8418,-131.751"/>
<polygon fill="midnightblue" stroke="midnightblue" points="47.1676,-157.891 44.2749,-168.083 52.8922,-161.919 47.1676,-157.891"/>
</g>
<!-- Node6 -->
<g id="node6" class="node"><title>Node6</title>
<g id="a_node6"><a xlink:href="../../d7/d8a/interfaceIG_1_1Num_1_1IRealFunctionPenalty.html" target="_top" xlink:title="Interface that must be satisfied by penalty functions. Penalty functions have small values where argu...">
<polygon fill="white" stroke="black" points="154.5,-56.5 154.5,-75.5 263.5,-75.5 263.5,-56.5 154.5,-56.5"/>
<text text-anchor="middle" x="209" y="-63.5" font-family="Helvetica,sans-Serif" font-size="10.00">IRealFunctionPenalty</text>
</a>
</g>
</g>
<!-- Node4&#45;&gt;Node6 -->
<g id="edge7" class="edge"><title>Node4&#45;&gt;Node6</title>
<path fill="none" stroke="midnightblue" d="M86.1605,-171.233C132.432,-164.584 197.542,-151.936 213,-132 225.747,-115.56 218.104,-89.1734 212.796,-75.6314"/>
<polygon fill="midnightblue" stroke="midnightblue" points="85.4397,-167.799 76.0149,-172.639 86.4007,-174.733 85.4397,-167.799"/>
</g>
<!-- Node5 -->
<g id="node5" class="node"><title>Node5</title>
<g id="a_node5"><a xlink:title=" ">
<polygon fill="white" stroke="#bfbfbf" points="142,-112.5 142,-131.5 204,-131.5 204,-112.5 142,-112.5"/>
<text text-anchor="middle" x="173" y="-119.5" font-family="Helvetica,sans-Serif" font-size="10.00">ICloneable</text>
</a>
</g>
</g>
<!-- Node5&#45;&gt;Node2 -->
<g id="edge5" class="edge"><title>Node5&#45;&gt;Node2</title>
<path fill="none" stroke="midnightblue" d="M148.665,-107.453C130.757,-97.4835 106.946,-84.2279 91.5461,-75.6545"/>
<polygon fill="midnightblue" stroke="midnightblue" points="146.975,-110.518 157.415,-112.324 150.38,-104.402 146.975,-110.518"/>
</g>
<!-- Node6&#45;&gt;Node1 -->
<g id="edge6" class="edge"><title>Node6&#45;&gt;Node1</title>
<path fill="none" stroke="midnightblue" d="M178.552,-52.6377C153.593,-42.504 118.923,-28.4274 96.9756,-19.5164"/>
<polygon fill="midnightblue" stroke="midnightblue" points="177.344,-55.9245 187.926,-56.4435 179.977,-49.4387 177.344,-55.9245"/>
</g>
</g>
</svg>
