<?xml version="1.0" encoding="UTF-8" standalone="no"?>
<!DOCTYPE svg PUBLIC "-//W3C//DTD SVG 1.1//EN"
 "http://www.w3.org/Graphics/SVG/1.1/DTD/svg11.dtd">
<!-- Generated by graphviz version 2.38.0 (20140413.2041)
 -->
<!-- Title: IG.Lib.Module Pages: 1 -->
<svg width="320pt" height="196pt"
 viewBox="0.00 0.00 320.00 196.00" xmlns="http://www.w3.org/2000/svg" xmlns:xlink="http://www.w3.org/1999/xlink">
<g id="graph0" class="graph" transform="scale(1 1) rotate(0) translate(4 192)">
<title>IG.Lib.Module</title>
<polygon fill="white" stroke="none" points="-4,4 -4,-192 316,-192 316,4 -4,4"/>
<!-- Node1 -->
<g id="node1" class="node"><title>Node1</title>
<g id="a_node1"><a xlink:title="General module (or library) management class, a base class for specific module classes....">
<polygon fill="#bfbfbf" stroke="black" points="164,-112.5 164,-131.5 241,-131.5 241,-112.5 164,-112.5"/>
<text text-anchor="middle" x="202.5" y="-119.5" font-family="Helvetica,sans-Serif" font-size="10.00">IG.Lib.Module</text>
</a>
</g>
</g>
<!-- Node3 -->
<g id="node3" class="node"><title>Node3</title>
<g id="a_node3"><a xlink:href="../../d1/d77/classIG_1_1Lib_1_1ApplicationBase.html" target="_top" xlink:title="Base class for all application classes. Provides some basic functionality such as keeping information...">
<polygon fill="white" stroke="black" points="82.5,-56.5 82.5,-75.5 198.5,-75.5 198.5,-56.5 82.5,-56.5"/>
<text text-anchor="middle" x="140.5" y="-63.5" font-family="Helvetica,sans-Serif" font-size="10.00">IG.Lib.ApplicationBase</text>
</a>
</g>
</g>
<!-- Node1&#45;&gt;Node3 -->
<g id="edge2" class="edge"><title>Node1&#45;&gt;Node3</title>
<path fill="none" stroke="midnightblue" d="M184.746,-105.537C173.692,-95.9087 159.869,-83.8694 150.643,-75.8339"/>
<polygon fill="midnightblue" stroke="midnightblue" points="182.699,-108.395 192.539,-112.324 187.297,-103.117 182.699,-108.395"/>
</g>
<!-- Node6 -->
<g id="node6" class="node"><title>Node6</title>
<g id="a_node6"><a xlink:href="../../d6/d4c/classIG_1_1Lib_1_1ModuleTest.html" target="_top" xlink:title=" ">
<polygon fill="white" stroke="black" points="217,-56.5 217,-75.5 312,-75.5 312,-56.5 217,-56.5"/>
<text text-anchor="middle" x="264.5" y="-63.5" font-family="Helvetica,sans-Serif" font-size="10.00">IG.Lib.ModuleTest</text>
</a>
</g>
</g>
<!-- Node1&#45;&gt;Node6 -->
<g id="edge5" class="edge"><title>Node1&#45;&gt;Node6</title>
<path fill="none" stroke="midnightblue" d="M220.254,-105.537C231.308,-95.9087 245.131,-83.8694 254.357,-75.8339"/>
<polygon fill="midnightblue" stroke="midnightblue" points="217.703,-103.117 212.461,-112.324 222.301,-108.395 217.703,-103.117"/>
</g>
<!-- Node2 -->
<g id="node2" class="node"><title>Node2</title>
<g id="a_node2"><a xlink:href="../../d3/db6/interfaceIG_1_1Lib_1_1ILockable.html" target="_top" xlink:title="Lockable object, has a Lock property that returns object on which lock must be performed in order to ...">
<polygon fill="white" stroke="black" points="173.5,-168.5 173.5,-187.5 231.5,-187.5 231.5,-168.5 173.5,-168.5"/>
<text text-anchor="middle" x="202.5" y="-175.5" font-family="Helvetica,sans-Serif" font-size="10.00">ILockable</text>
</a>
</g>
</g>
<!-- Node2&#45;&gt;Node1 -->
<g id="edge1" class="edge"><title>Node2&#45;&gt;Node1</title>
<path fill="none" stroke="midnightblue" d="M202.5,-157.805C202.5,-148.91 202.5,-138.78 202.5,-131.751"/>
<polygon fill="midnightblue" stroke="midnightblue" points="199,-158.083 202.5,-168.083 206,-158.083 199,-158.083"/>
</g>
<!-- Node4 -->
<g id="node4" class="node"><title>Node4</title>
<g id="a_node4"><a xlink:href="../../d0/da7/classIG_1_1App_1_1ApplicationIgShellBase.html" target="_top" xlink:title="Application class for the IGLib&#39;s shell application.">
<polygon fill="white" stroke="black" points="0,-0.5 0,-19.5 149,-19.5 149,-0.5 0,-0.5"/>
<text text-anchor="middle" x="74.5" y="-7.5" font-family="Helvetica,sans-Serif" font-size="10.00">IG.App.ApplicationIgShellBase</text>
</a>
</g>
</g>
<!-- Node3&#45;&gt;Node4 -->
<g id="edge3" class="edge"><title>Node3&#45;&gt;Node4</title>
<path fill="none" stroke="midnightblue" d="M121.946,-49.8197C110.122,-40.1452 95.2144,-27.9481 85.297,-19.8339"/>
<polygon fill="midnightblue" stroke="midnightblue" points="119.94,-52.7004 129.896,-56.324 124.373,-47.2827 119.94,-52.7004"/>
</g>
<!-- Node5 -->
<g id="node5" class="node"><title>Node5</title>
<g id="a_node5"><a xlink:href="../../d1/ddf/classIG_1_1Lib_1_1AppTest.html" target="_top" xlink:title=" ">
<polygon fill="white" stroke="black" points="167,-0.5 167,-19.5 248,-19.5 248,-0.5 167,-0.5"/>
<text text-anchor="middle" x="207.5" y="-7.5" font-family="Helvetica,sans-Serif" font-size="10.00">IG.Lib.AppTest</text>
</a>
</g>
</g>
<!-- Node3&#45;&gt;Node5 -->
<g id="edge4" class="edge"><title>Node3&#45;&gt;Node5</title>
<path fill="none" stroke="midnightblue" d="M159.335,-49.8197C171.338,-40.1452 186.472,-27.9481 196.539,-19.8339"/>
<polygon fill="midnightblue" stroke="midnightblue" points="156.854,-47.3236 151.265,-56.324 161.247,-52.7738 156.854,-47.3236"/>
</g>
</g>
</svg>
