<?xml version="1.0" encoding="UTF-8" standalone="no"?>
<!DOCTYPE svg PUBLIC "-//W3C//DTD SVG 1.1//EN"
 "http://www.w3.org/Graphics/SVG/1.1/DTD/svg11.dtd">
<!-- Generated by graphviz version 2.38.0 (20140413.2041)
 -->
<!-- Title: IG.Lib.CommandThreadBase Pages: 1 -->
<svg width="301pt" height="197pt"
 viewBox="0.00 0.00 300.50 197.00" xmlns="http://www.w3.org/2000/svg" xmlns:xlink="http://www.w3.org/1999/xlink">
<g id="graph0" class="graph" transform="scale(1 1) rotate(0) translate(4 193)">
<title>IG.Lib.CommandThreadBase</title>
<polygon fill="white" stroke="none" points="-4,4 -4,-193 296.5,-193 296.5,4 -4,4"/>
<!-- Node1 -->
<g id="node1" class="node"><title>Node1</title>
<g id="a_node1"><a xlink:title="Base class for classes of type CommandThread&lt;InterpreterType, FrameType, ThreadType&gt;....">
<polygon fill="#bfbfbf" stroke="black" points="35,-0.5 35,-19.5 176,-19.5 176,-0.5 35,-0.5"/>
<text text-anchor="middle" x="105.5" y="-7.5" font-family="Helvetica,sans-Serif" font-size="10.00">IG.Lib.CommandThreadBase</text>
</a>
</g>
</g>
<!-- Node2 -->
<g id="node2" class="node"><title>Node2</title>
<g id="a_node2"><a xlink:href="../../dc/d79/interfaceIG_1_1Lib_1_1IIdentifiable.html" target="_top" xlink:title="Classes whose instances have unique integer IDs.">
<polygon fill="white" stroke="black" points="0,-169.5 0,-188.5 65,-188.5 65,-169.5 0,-169.5"/>
<text text-anchor="middle" x="32.5" y="-176.5" font-family="Helvetica,sans-Serif" font-size="10.00">IIdentifiable</text>
</a>
</g>
</g>
<!-- Node2&#45;&gt;Node1 -->
<g id="edge1" class="edge"><title>Node2&#45;&gt;Node1</title>
<path fill="none" stroke="midnightblue" d="M39.7964,-159.532C45.538,-145.15 53.8244,-124.72 61.5,-107 75.5645,-74.5309 93.4308,-36.4551 101.373,-19.6811"/>
<polygon fill="midnightblue" stroke="midnightblue" points="36.3926,-158.62 35.9541,-169.206 42.8982,-161.204 36.3926,-158.62"/>
</g>
<!-- Node4 -->
<g id="node4" class="node"><title>Node4</title>
<g id="a_node4"><a xlink:href="../../de/de7/classIG_1_1Lib_1_1StopWatch1.html" target="_top" xlink:title="Timer for measuring execution times and other intervals of time elapsed between successive events....">
<polygon fill="white" stroke="black" points="106,-68.5 106,-87.5 205,-87.5 205,-68.5 106,-68.5"/>
<text text-anchor="middle" x="155.5" y="-75.5" font-family="Helvetica,sans-Serif" font-size="10.00">IG.Lib.StopWatch1</text>
</a>
</g>
</g>
<!-- Node2&#45;&gt;Node4 -->
<g id="edge5" class="edge"><title>Node2&#45;&gt;Node4</title>
<path fill="none" stroke="midnightblue" d="M50.8242,-162.492C68.1107,-147.952 94.8315,-125.712 118.5,-107 126.841,-100.405 136.418,-93.1671 143.738,-87.7022"/>
<polygon fill="midnightblue" stroke="midnightblue" points="48.0994,-160.211 42.7106,-169.333 52.6118,-165.562 48.0994,-160.211"/>
</g>
<!-- Node3 -->
<g id="node3" class="node"><title>Node3</title>
<g id="a_node3"><a xlink:href="../../d3/db6/interfaceIG_1_1Lib_1_1ILockable.html" target="_top" xlink:title="Lockable object, has a Lock property that returns object on which lock must be performed in order to ...">
<polygon fill="white" stroke="black" points="85.5,-169.5 85.5,-188.5 143.5,-188.5 143.5,-169.5 85.5,-169.5"/>
<text text-anchor="middle" x="114.5" y="-176.5" font-family="Helvetica,sans-Serif" font-size="10.00">ILockable</text>
</a>
</g>
</g>
<!-- Node3&#45;&gt;Node1 -->
<g id="edge2" class="edge"><title>Node3&#45;&gt;Node1</title>
<path fill="none" stroke="midnightblue" d="M108.809,-159.798C102.599,-137.9 93.8681,-99.963 96.5,-67 97.848,-50.1169 101.447,-30.6412 103.664,-19.678"/>
<polygon fill="midnightblue" stroke="midnightblue" points="105.466,-160.836 111.673,-169.422 112.175,-158.839 105.466,-160.836"/>
</g>
<!-- Node3&#45;&gt;Node4 -->
<g id="edge4" class="edge"><title>Node3&#45;&gt;Node4</title>
<path fill="none" stroke="midnightblue" d="M119.489,-159.665C123.745,-145.07 130.446,-124.295 138.5,-107 141.669,-100.195 146.09,-92.9633 149.629,-87.5542"/>
<polygon fill="midnightblue" stroke="midnightblue" points="116.072,-158.886 116.729,-169.461 122.81,-160.785 116.072,-158.886"/>
</g>
<!-- Node4&#45;&gt;Node1 -->
<g id="edge3" class="edge"><title>Node4&#45;&gt;Node1</title>
<path fill="none" stroke="#9a32cd" stroke-dasharray="5,2" d="M142.856,-60.3101C133.109,-47.4437 120.014,-30.1583 112.198,-19.8411"/>
<polygon fill="#9a32cd" stroke="#9a32cd" points="140.135,-62.5142 148.963,-68.3717 145.715,-58.2872 140.135,-62.5142"/>
<text text-anchor="middle" x="149" y="-41" font-family="Helvetica,sans-Serif" font-size="10.00"> _timer</text>
</g>
<!-- Node5 -->
<g id="node5" class="node"><title>Node5</title>
<g id="a_node5"><a xlink:title=" ">
<polygon fill="white" stroke="#bfbfbf" points="191,-169.5 191,-188.5 232,-188.5 232,-169.5 191,-169.5"/>
<text text-anchor="middle" x="211.5" y="-176.5" font-family="Helvetica,sans-Serif" font-size="10.00">static</text>
</a>
</g>
</g>
<!-- Node5&#45;&gt;Node1 -->
<g id="edge7" class="edge"><title>Node5&#45;&gt;Node1</title>
<path fill="none" stroke="#9a32cd" stroke-dasharray="5,2" d="M223.751,-160.308C225.295,-157.318 226.635,-154.156 227.5,-151 237.503,-114.498 236.929,-96.7249 213.5,-67 194.281,-42.6163 161.523,-27.7711 137.112,-19.5499"/>
<polygon fill="#9a32cd" stroke="#9a32cd" points="220.635,-158.697 218.451,-169.065 226.623,-162.322 220.635,-158.697"/>
<text text-anchor="middle" x="260.5" y="-81" font-family="Helvetica,sans-Serif" font-size="10.00"> _nextIdThread</text>
<text text-anchor="middle" x="260.5" y="-70" font-family="Helvetica,sans-Serif" font-size="10.00">_lockIdThread</text>
</g>
<!-- Node5&#45;&gt;Node4 -->
<g id="edge6" class="edge"><title>Node5&#45;&gt;Node4</title>
<path fill="none" stroke="#9a32cd" stroke-dasharray="5,2" d="M181.909,-164.729C176.374,-161.015 171.18,-156.464 167.5,-151 154.332,-131.451 153.964,-102.301 154.747,-87.8209"/>
<polygon fill="#9a32cd" stroke="#9a32cd" points="180.321,-167.855 190.72,-169.885 183.856,-161.813 180.321,-167.855"/>
<text text-anchor="middle" x="197.5" y="-143" font-family="Helvetica,sans-Serif" font-size="10.00"> lastId</text>
<text text-anchor="middle" x="197.5" y="-132" font-family="Helvetica,sans-Serif" font-size="10.00">_staticLock</text>
<text text-anchor="middle" x="197.5" y="-121" font-family="Helvetica,sans-Serif" font-size="10.00">numWarnCpu</text>
<text text-anchor="middle" x="197.5" y="-110" font-family="Helvetica,sans-Serif" font-size="10.00">MaxWarnCpu</text>
</g>
</g>
</svg>
