<?xml version="1.0" encoding="UTF-8" standalone="no"?>
<!DOCTYPE svg PUBLIC "-//W3C//DTD SVG 1.1//EN"
 "http://www.w3.org/Graphics/SVG/1.1/DTD/svg11.dtd">
<!-- Generated by graphviz version 2.38.0 (20140413.2041)
 -->
<!-- Title: IG.Lib.CommandThreadBase Pages: 1 -->
<svg width="156pt" height="162pt"
 viewBox="0.00 0.00 156.00 162.00" xmlns="http://www.w3.org/2000/svg" xmlns:xlink="http://www.w3.org/1999/xlink">
<g id="graph0" class="graph" transform="scale(1 1) rotate(0) translate(4 158)">
<title>IG.Lib.CommandThreadBase</title>
<polygon fill="white" stroke="none" points="-4,4 -4,-158 152,-158 152,4 -4,4"/>
<!-- Node1 -->
<g id="node1" class="node"><title>Node1</title>
<g id="a_node1"><a xlink:title="Base class for classes of type CommandThread&lt;InterpreterType, FrameType, ThreadType&gt;....">
<polygon fill="#bfbfbf" stroke="black" points="3.5,-78.5 3.5,-97.5 144.5,-97.5 144.5,-78.5 3.5,-78.5"/>
<text text-anchor="middle" x="74" y="-85.5" font-family="Helvetica,sans-Serif" font-size="10.00">IG.Lib.CommandThreadBase</text>
</a>
</g>
</g>
<!-- Node4 -->
<g id="node4" class="node"><title>Node4</title>
<g id="a_node4"><a xlink:href="../../d8/d2b/classIG_1_1Lib_1_1CommandThread.html" target="_top" xlink:title="Contains stack frames and other command thread data for a single command thread of a command&#45;line int...">
<polygon fill="white" stroke="black" points="0,-0.5 0,-41.5 148,-41.5 148,-0.5 0,-0.5"/>
<text text-anchor="start" x="8" y="-29.5" font-family="Helvetica,sans-Serif" font-size="10.00">IG.Lib.CommandThread</text>
<text text-anchor="start" x="8" y="-18.5" font-family="Helvetica,sans-Serif" font-size="10.00">&lt; InterpreterType, FrameType,</text>
<text text-anchor="middle" x="74" y="-7.5" font-family="Helvetica,sans-Serif" font-size="10.00"> ThreadType &gt;</text>
</a>
</g>
</g>
<!-- Node1&#45;&gt;Node4 -->
<g id="edge3" class="edge"><title>Node1&#45;&gt;Node4</title>
<path fill="none" stroke="midnightblue" d="M74,-68.037C74,-59.7084 74,-49.9358 74,-41.5421"/>
<polygon fill="midnightblue" stroke="midnightblue" points="70.5001,-68.2338 74,-78.2338 77.5001,-68.2338 70.5001,-68.2338"/>
</g>
<!-- Node2 -->
<g id="node2" class="node"><title>Node2</title>
<g id="a_node2"><a xlink:href="../../dc/d79/interfaceIG_1_1Lib_1_1IIdentifiable.html" target="_top" xlink:title="Classes whose instances have unique integer IDs.">
<polygon fill="white" stroke="black" points="1.5,-134.5 1.5,-153.5 66.5,-153.5 66.5,-134.5 1.5,-134.5"/>
<text text-anchor="middle" x="34" y="-141.5" font-family="Helvetica,sans-Serif" font-size="10.00">IIdentifiable</text>
</a>
</g>
</g>
<!-- Node2&#45;&gt;Node1 -->
<g id="edge1" class="edge"><title>Node2&#45;&gt;Node1</title>
<path fill="none" stroke="midnightblue" d="M46.6997,-125.855C53.626,-116.505 61.9063,-105.327 67.5177,-97.7511"/>
<polygon fill="midnightblue" stroke="midnightblue" points="43.745,-123.964 40.6052,-134.083 49.37,-128.131 43.745,-123.964"/>
</g>
<!-- Node3 -->
<g id="node3" class="node"><title>Node3</title>
<g id="a_node3"><a xlink:href="../../d3/db6/interfaceIG_1_1Lib_1_1ILockable.html" target="_top" xlink:title="Lockable object, has a Lock property that returns object on which lock must be performed in order to ...">
<polygon fill="white" stroke="black" points="85,-134.5 85,-153.5 143,-153.5 143,-134.5 85,-134.5"/>
<text text-anchor="middle" x="114" y="-141.5" font-family="Helvetica,sans-Serif" font-size="10.00">ILockable</text>
</a>
</g>
</g>
<!-- Node3&#45;&gt;Node1 -->
<g id="edge2" class="edge"><title>Node3&#45;&gt;Node1</title>
<path fill="none" stroke="midnightblue" d="M101.3,-125.855C94.374,-116.505 86.0937,-105.327 80.4823,-97.7511"/>
<polygon fill="midnightblue" stroke="midnightblue" points="98.63,-128.131 107.395,-134.083 104.255,-123.964 98.63,-128.131"/>
</g>
</g>
</svg>
