<?xml version="1.0" encoding="UTF-8" standalone="no"?>
<!DOCTYPE svg PUBLIC "-//W3C//DTD SVG 1.1//EN"
 "http://www.w3.org/Graphics/SVG/1.1/DTD/svg11.dtd">
<!-- Generated by graphviz version 2.38.0 (20140413.2041)
 -->
<!-- Title: IG.Num.PointCloudSampledDataElement Pages: 1 -->
<svg width="260pt" height="117pt"
 viewBox="0.00 0.00 260.00 117.00" xmlns="http://www.w3.org/2000/svg" xmlns:xlink="http://www.w3.org/1999/xlink">
<g id="graph0" class="graph" transform="scale(1 1) rotate(0) translate(4 113)">
<title>IG.Num.PointCloudSampledDataElement</title>
<polygon fill="white" stroke="none" points="-4,4 -4,-113 256,-113 256,4 -4,4"/>
<!-- Node1 -->
<g id="node1" class="node"><title>Node1</title>
<g id="a_node1"><a xlink:title="Cloud of points where each point is represented by the IVector object, contains a list of containers ...">
<polygon fill="#bfbfbf" stroke="black" points="86,-0.5 86,-30.5 224,-30.5 224,-0.5 86,-0.5"/>
<text text-anchor="start" x="94" y="-18.5" font-family="Helvetica,sans-Serif" font-size="10.00">IG.Num.PointCloudSampled</text>
<text text-anchor="middle" x="155" y="-7.5" font-family="Helvetica,sans-Serif" font-size="10.00">DataElement</text>
</a>
</g>
</g>
<!-- Node2 -->
<g id="node2" class="node"><title>Node2</title>
<g id="a_node2"><a xlink:href="../../db/d30/classIG_1_1Num_1_1PointCloud.html" target="_top" xlink:title=" ">
<polygon fill="white" stroke="black" points="0,-67.5 0,-108.5 176,-108.5 176,-67.5 0,-67.5"/>
<text text-anchor="start" x="8" y="-96.5" font-family="Helvetica,sans-Serif" font-size="10.00">PointCloud&lt; PointContainer</text>
<text text-anchor="start" x="8" y="-85.5" font-family="Helvetica,sans-Serif" font-size="10.00">SampledDataElement, SampledData</text>
<text text-anchor="middle" x="88" y="-74.5" font-family="Helvetica,sans-Serif" font-size="10.00">Element &gt;</text>
</a>
</g>
</g>
<!-- Node2&#45;&gt;Node1 -->
<g id="edge1" class="edge"><title>Node2&#45;&gt;Node1</title>
<path fill="none" stroke="midnightblue" d="M113.642,-60.0186C123.061,-50.1071 133.359,-39.2713 141.323,-30.8916"/>
<polygon fill="midnightblue" stroke="midnightblue" points="111.015,-57.702 106.663,-67.3618 116.089,-62.5242 111.015,-57.702"/>
</g>
<!-- Node3 -->
<g id="node3" class="node"><title>Node3</title>
<g id="a_node3"><a xlink:href="../../d3/db6/interfaceIG_1_1Lib_1_1ILockable.html" target="_top" xlink:title="Lockable object, has a Lock property that returns object on which lock must be performed in order to ...">
<polygon fill="white" stroke="black" points="194,-78.5 194,-97.5 252,-97.5 252,-78.5 194,-78.5"/>
<text text-anchor="middle" x="223" y="-85.5" font-family="Helvetica,sans-Serif" font-size="10.00">ILockable</text>
</a>
</g>
</g>
<!-- Node3&#45;&gt;Node1 -->
<g id="edge2" class="edge"><title>Node3&#45;&gt;Node1</title>
<path fill="none" stroke="midnightblue" d="M207.658,-71.0934C195.911,-58.9149 179.86,-42.2742 168.577,-30.5762"/>
<polygon fill="midnightblue" stroke="midnightblue" points="205.2,-73.5876 214.662,-78.3553 210.239,-68.7279 205.2,-73.5876"/>
</g>
</g>
</svg>
