<?xml version="1.0" encoding="UTF-8" standalone="no"?>
<!DOCTYPE svg PUBLIC "-//W3C//DTD SVG 1.1//EN"
 "http://www.w3.org/Graphics/SVG/1.1/DTD/svg11.dtd">
<!-- Generated by graphviz version 2.38.0 (20140413.2041)
 -->
<!-- Title: IG.Lib.ExpressionEvaluatorJs Pages: 1 -->
<svg width="619pt" height="144pt"
 viewBox="0.00 0.00 619.00 143.50" xmlns="http://www.w3.org/2000/svg" xmlns:xlink="http://www.w3.org/1999/xlink">
<g id="graph0" class="graph" transform="scale(1 1) rotate(0) translate(4 139.5)">
<title>IG.Lib.ExpressionEvaluatorJs</title>
<polygon fill="white" stroke="none" points="-4,4 -4,-139.5 615,-139.5 615,4 -4,4"/>
<!-- Node1 -->
<g id="node1" class="node"><title>Node1</title>
<g id="a_node1"><a xlink:title="JavaScript Evaluator with command&#45;line interpreter.">
<polygon fill="#bfbfbf" stroke="black" points="283,-69 283,-88 426,-88 426,-69 283,-69"/>
<text text-anchor="middle" x="354.5" y="-76" font-family="Helvetica,sans-Serif" font-size="10.00">IG.Lib.ExpressionEvaluatorJs</text>
</a>
</g>
</g>
<!-- Node6 -->
<g id="node6" class="node"><title>Node6</title>
<g id="a_node6"><a xlink:href="../../d0/d06/classIG_1_1Lib_1_1ExpressionEvaluatorJint.html" target="_top" xlink:title="JavaScript Evaluator with command&#45;line interpreter, based on Jint.">
<polygon fill="white" stroke="black" points="462,-69 462,-88 611,-88 611,-69 462,-69"/>
<text text-anchor="middle" x="536.5" y="-76" font-family="Helvetica,sans-Serif" font-size="10.00">IG.Lib.ExpressionEvaluatorJint</text>
</a>
</g>
</g>
<!-- Node1&#45;&gt;Node6 -->
<g id="edge7" class="edge"><title>Node1&#45;&gt;Node6</title>
<path fill="none" stroke="midnightblue" d="M436.383,-78.5C444.854,-78.5 453.435,-78.5 461.82,-78.5"/>
<polygon fill="midnightblue" stroke="midnightblue" points="436.124,-75.0001 426.124,-78.5 436.124,-82.0001 436.124,-75.0001"/>
</g>
<!-- Node2 -->
<g id="node2" class="node"><title>Node2</title>
<g id="a_node2"><a xlink:href="../../dd/dec/classIG_1_1Lib_1_1ExpressionEvaluatorCompiled.html" target="_top" xlink:title="Base class for expression evaluators that utilize the functionality of CodeDomProvider class.">
<polygon fill="white" stroke="black" points="101,-88 101,-107 247,-107 247,-88 101,-88"/>
<text text-anchor="middle" x="174" y="-95" font-family="Helvetica,sans-Serif" font-size="10.00">ExpressionEvaluatorCompiled</text>
</a>
</g>
</g>
<!-- Node2&#45;&gt;Node1 -->
<g id="edge1" class="edge"><title>Node2&#45;&gt;Node1</title>
<path fill="none" stroke="midnightblue" d="M257.128,-88.7581C265.731,-87.8423 274.423,-86.9171 282.882,-86.0168"/>
<polygon fill="midnightblue" stroke="midnightblue" points="256.662,-85.2879 247.088,-89.8267 257.403,-92.2485 256.662,-85.2879"/>
</g>
<!-- Node3 -->
<g id="node3" class="node"><title>Node3</title>
<g id="a_node3"><a xlink:href="../../d3/db6/interfaceIG_1_1Lib_1_1ILockable.html" target="_top" xlink:title="Lockable object, has a Lock property that returns object on which lock must be performed in order to ...">
<polygon fill="white" stroke="black" points="3.5,-116 3.5,-135 61.5,-135 61.5,-116 3.5,-116"/>
<text text-anchor="middle" x="32.5" y="-123" font-family="Helvetica,sans-Serif" font-size="10.00">ILockable</text>
</a>
</g>
</g>
<!-- Node3&#45;&gt;Node1 -->
<g id="edge4" class="edge"><title>Node3&#45;&gt;Node1</title>
<path fill="none" stroke="midnightblue" d="M71.8307,-127.316C114.877,-128.565 186.615,-128.265 247,-116.5 277.638,-110.531 311.301,-97.3175 332.412,-88.1615"/>
<polygon fill="midnightblue" stroke="midnightblue" points="71.9018,-123.816 61.7906,-126.981 71.6683,-130.813 71.9018,-123.816"/>
</g>
<!-- Node3&#45;&gt;Node2 -->
<g id="edge2" class="edge"><title>Node3&#45;&gt;Node2</title>
<path fill="none" stroke="midnightblue" d="M71.6574,-117.841C88.3078,-114.499 108.003,-110.546 125.583,-107.017"/>
<polygon fill="midnightblue" stroke="midnightblue" points="70.8456,-114.434 61.7299,-119.834 72.2232,-121.297 70.8456,-114.434"/>
</g>
<!-- Node4 -->
<g id="node4" class="node"><title>Node4</title>
<g id="a_node4"><a xlink:href="../../dc/d79/interfaceIG_1_1Lib_1_1IIdentifiable.html" target="_top" xlink:title="Classes whose instances have unique integer IDs.">
<polygon fill="white" stroke="black" points="0,-59 0,-78 65,-78 65,-59 0,-59"/>
<text text-anchor="middle" x="32.5" y="-66" font-family="Helvetica,sans-Serif" font-size="10.00">IIdentifiable</text>
</a>
</g>
</g>
<!-- Node4&#45;&gt;Node1 -->
<g id="edge5" class="edge"><title>Node4&#45;&gt;Node1</title>
<path fill="none" stroke="midnightblue" d="M75.3771,-69.8087C128.064,-71.4551 219.327,-74.3071 282.884,-76.2932"/>
<polygon fill="midnightblue" stroke="midnightblue" points="75.1631,-66.3004 65.0586,-69.4862 74.9444,-73.2969 75.1631,-66.3004"/>
</g>
<!-- Node4&#45;&gt;Node2 -->
<g id="edge3" class="edge"><title>Node4&#45;&gt;Node2</title>
<path fill="none" stroke="midnightblue" d="M75.0126,-77.1298C91.4326,-80.5433 110.365,-84.479 127.184,-87.9754"/>
<polygon fill="midnightblue" stroke="midnightblue" points="75.6578,-73.6892 65.1547,-75.0805 74.233,-80.5427 75.6578,-73.6892"/>
</g>
<!-- Node5 -->
<g id="node5" class="node"><title>Node5</title>
<g id="a_node5"><a xlink:href="../../d5/d7a/interfaceIG_1_1Lib_1_1IRegisterable.html" target="_top" xlink:title=" ">
<polygon fill="white" stroke="black" points="108.5,-0.5 108.5,-30.5 239.5,-30.5 239.5,-0.5 108.5,-0.5"/>
<text text-anchor="start" x="116.5" y="-18.5" font-family="Helvetica,sans-Serif" font-size="10.00">IRegisterable&lt; Expression</text>
<text text-anchor="middle" x="174" y="-7.5" font-family="Helvetica,sans-Serif" font-size="10.00">EvaluatorJs &gt;</text>
</a>
</g>
</g>
<!-- Node5&#45;&gt;Node1 -->
<g id="edge6" class="edge"><title>Node5&#45;&gt;Node1</title>
<path fill="none" stroke="midnightblue" d="M227.541,-34.0438C259.959,-45.4856 300.203,-59.6894 326.35,-68.9175"/>
<polygon fill="midnightblue" stroke="midnightblue" points="228.35,-30.6179 217.755,-30.5901 226.02,-37.2188 228.35,-30.6179"/>
</g>
</g>
</svg>
