<?xml version="1.0" encoding="UTF-8" standalone="no"?>
<!DOCTYPE svg PUBLIC "-//W3C//DTD SVG 1.1//EN"
 "http://www.w3.org/Graphics/SVG/1.1/DTD/svg11.dtd">
<!-- Generated by graphviz version 2.38.0 (20140413.2041)
 -->
<!-- Title: IG.Num.SampledDataElementDto Pages: 1 -->
<svg width="275pt" height="185pt"
 viewBox="0.00 0.00 274.50 185.00" xmlns="http://www.w3.org/2000/svg" xmlns:xlink="http://www.w3.org/1999/xlink">
<g id="graph0" class="graph" transform="scale(1 1) rotate(0) translate(4 181)">
<title>IG.Num.SampledDataElementDto</title>
<polygon fill="white" stroke="none" points="-4,4 -4,-181 270.5,-181 270.5,4 -4,4"/>
<!-- Node1 -->
<g id="node1" class="node"><title>Node1</title>
<g id="a_node1"><a xlink:title="DTO (data transfer object) for sampled data element (one point with vectors of input and output param...">
<polygon fill="#bfbfbf" stroke="black" points="28,-0.5 28,-19.5 190,-19.5 190,-0.5 28,-0.5"/>
<text text-anchor="middle" x="109" y="-7.5" font-family="Helvetica,sans-Serif" font-size="10.00">IG.Num.SampledDataElementDto</text>
</a>
</g>
</g>
<!-- Node2 -->
<g id="node2" class="node"><title>Node2</title>
<g id="a_node2"><a xlink:href="../../da/d46/classIG_1_1Lib_1_1SerializationDto.html" target="_top" xlink:title=" ">
<polygon fill="white" stroke="black" points="0,-78.5 0,-108.5 132,-108.5 132,-78.5 0,-78.5"/>
<text text-anchor="start" x="8" y="-96.5" font-family="Helvetica,sans-Serif" font-size="10.00">SerializationDto&lt; Sampled</text>
<text text-anchor="middle" x="66" y="-85.5" font-family="Helvetica,sans-Serif" font-size="10.00">DataElement &gt;</text>
</a>
</g>
</g>
<!-- Node2&#45;&gt;Node1 -->
<g id="edge1" class="edge"><title>Node2&#45;&gt;Node1</title>
<path fill="none" stroke="midnightblue" d="M78.3013,-69.1847C87.0639,-52.5765 98.3388,-31.2067 104.495,-19.5391"/>
<polygon fill="midnightblue" stroke="midnightblue" points="75.0609,-67.826 73.49,-78.3038 81.2521,-71.0926 75.0609,-67.826"/>
</g>
<!-- Node3 -->
<g id="node3" class="node"><title>Node3</title>
<g id="a_node3"><a xlink:href="../../dc/dec/classIG_1_1Lib_1_1VectorDtoBase.html" target="_top" xlink:title="Base class for various vector DTO (Data Transfer Objects) for vectors. Used to store a state of a vec...">
<polygon fill="white" stroke="black" points="150.5,-78.5 150.5,-108.5 261.5,-108.5 261.5,-78.5 150.5,-78.5"/>
<text text-anchor="start" x="158.5" y="-96.5" font-family="Helvetica,sans-Serif" font-size="10.00">IG.Lib.VectorDtoBase</text>
<text text-anchor="middle" x="206" y="-85.5" font-family="Helvetica,sans-Serif" font-size="10.00">&lt; VectorType &gt;</text>
</a>
</g>
</g>
<!-- Node3&#45;&gt;Node1 -->
<g id="edge2" class="edge"><title>Node3&#45;&gt;Node1</title>
<path fill="none" stroke="#9a32cd" stroke-dasharray="5,2" d="M181.251,-71.7061C161.129,-54.799 133.763,-31.8064 119.163,-19.5391"/>
<polygon fill="#9a32cd" stroke="#9a32cd" points="179.196,-74.5506 189.104,-78.3038 183.699,-69.1912 179.196,-74.5506"/>
<text text-anchor="middle" x="204.5" y="-52" font-family="Helvetica,sans-Serif" font-size="10.00"> _outputValues</text>
<text text-anchor="middle" x="204.5" y="-41" font-family="Helvetica,sans-Serif" font-size="10.00">_inputParameters</text>
</g>
<!-- Node4 -->
<g id="node4" class="node"><title>Node4</title>
<g id="a_node4"><a xlink:href="../../d7/dd8/classIG_1_1Lib_1_1SerializationDtoBase.html" target="_top" xlink:title=" ">
<polygon fill="white" stroke="black" points="145.5,-146.5 145.5,-176.5 266.5,-176.5 266.5,-146.5 145.5,-146.5"/>
<text text-anchor="start" x="153.5" y="-164.5" font-family="Helvetica,sans-Serif" font-size="10.00">SerializationDtoBase</text>
<text text-anchor="middle" x="206" y="-153.5" font-family="Helvetica,sans-Serif" font-size="10.00">&lt; VectorType, IVector &gt;</text>
</a>
</g>
</g>
<!-- Node4&#45;&gt;Node3 -->
<g id="edge3" class="edge"><title>Node4&#45;&gt;Node3</title>
<path fill="none" stroke="midnightblue" d="M206,-136.032C206,-126.861 206,-116.745 206,-108.793"/>
<polygon fill="midnightblue" stroke="midnightblue" points="202.5,-136.179 206,-146.179 209.5,-136.179 202.5,-136.179"/>
</g>
</g>
</svg>
