<?xml version="1.0" encoding="UTF-8" standalone="no"?>
<!DOCTYPE svg PUBLIC "-//W3C//DTD SVG 1.1//EN"
 "http://www.w3.org/Graphics/SVG/1.1/DTD/svg11.dtd">
<!-- Generated by graphviz version 2.38.0 (20140413.2041)
 -->
<!-- Title: IG.Lib.LoadableScriptBase Pages: 1 -->
<!--zoomable 284 -->
<svg id="main" version="1.1" xmlns="http://www.w3.org/2000/svg" xmlns:xlink="http://www.w3.org/1999/xlink" xml:space="preserve" onload="init(evt)">
<style type="text/css"><![CDATA[
.edge:hover path { stroke: red; }
.edge:hover polygon { stroke: red; fill: red; }
]]></style>
<script type="text/javascript"><![CDATA[
var edges = document.getElementsByTagName('g');
if (edges && edges.length) {
  for (var i=0;i<edges.length;i++) {
    if (edges[i].id.substr(0,4)=='edge') {
      edges[i].setAttribute('class','edge');
    }
  }
}
]]></script>
        <defs>
                <circle id="rim" cx="0" cy="0" r="7"/>
                <circle id="rim2" cx="0" cy="0" r="3.5"/>
                <g id="zoomPlus">
                        <use xlink:href="#rim" fill="#404040">
                                <set attributeName="fill" to="#808080" begin="zoomplus.mouseover" end="zoomplus.mouseout"/>
                        </use>
                        <path d="M-4,0h8M0,-4v8" fill="none" stroke="white" stroke-width="1.5" pointer-events="none"/>
                </g>
                <g id="zoomMin">
                        <use xlink:href="#rim" fill="#404040">
                                <set attributeName="fill" to="#808080" begin="zoomminus.mouseover" end="zoomminus.mouseout"/>
                        </use>
                        <path d="M-4,0h8" fill="none" stroke="white" stroke-width="1.5" pointer-events="none"/>
                </g>
                <g id="dirArrow">
                        <path fill="none" stroke="white" stroke-width="1.5" d="M0,-3.0v7 M-2.5,-0.5L0,-3.0L2.5,-0.5"/>
                </g>
               <g id="resetDef">
                       <use xlink:href="#rim2" fill="#404040">
                               <set attributeName="fill" to="#808080" begin="reset.mouseover" end="reset.mouseout"/>
                       </use>
               </g>
        </defs>

<script type="text/javascript">
var viewWidth = 629;
var viewHeight = 284;
var sectionId = 'dynsection-0';
</script>
<script xlink:href="../../svgpan.js"/>
<svg id="graph" class="graph">
<g id="viewport">
<title>IG.Lib.LoadableScriptBase</title>
<polygon fill="white" stroke="none" points="-4,4 -4,-280 625,-280 625,4 -4,4"/>
<!-- Node1 -->
<g id="node1" class="node"><title>Node1</title>
<g id="a_node1"><a xlink:title="Base class for classes that can be dynamically loadeded from scripts and run, which provides function...">
<polygon fill="#bfbfbf" stroke="black" points="119,-104 119,-123 251,-123 251,-104 119,-104"/>
<text text-anchor="middle" x="185" y="-111" font-family="Helvetica,sans-Serif" font-size="10.00">IG.Lib.LoadableScriptBase</text>
</a>
</g>
</g>
<!-- Node4 -->
<g id="node4" class="node"><title>Node4</title>
<g id="a_node4"><a xlink:href="../../d5/d05/classIG_1_1Lib_1_1LoadableScriptOptBase.html" target="_top" xlink:title="Base class for loadable scripts for optimization problems. AGREEMENTS: The first argument to initiali...">
<polygon fill="white" stroke="black" points="287,-202 287,-221 435,-221 435,-202 287,-202"/>
<text text-anchor="middle" x="361" y="-209" font-family="Helvetica,sans-Serif" font-size="10.00">IG.Lib.LoadableScriptOptBase</text>
</a>
</g>
</g>
<!-- Node1&#45;&gt;Node4 -->
<g id="edge3" class="edge"><title>Node1&#45;&gt;Node4</title>
<path fill="none" stroke="midnightblue" d="M204.887,-129.796C224.382,-145.958 256.208,-170.551 287,-186.5 299.014,-192.723 312.911,-197.927 325.336,-201.947"/>
<polygon fill="midnightblue" stroke="midnightblue" points="206.99,-126.992 197.085,-123.23 202.483,-132.347 206.99,-126.992"/>
</g>
<!-- Node7 -->
<g id="node7" class="node"><title>Node7</title>
<g id="a_node7"><a xlink:href="../../d0/d74/classIG_1_1Lib_1_1LoadableScriptRealFunctionBase.html" target="_top" xlink:title="Base class for loadable scripts that define real functions of one variable.">
<polygon fill="white" stroke="black" points="296.5,-147.5 296.5,-177.5 425.5,-177.5 425.5,-147.5 296.5,-147.5"/>
<text text-anchor="start" x="304.5" y="-165.5" font-family="Helvetica,sans-Serif" font-size="10.00">IG.Lib.LoadableScriptReal</text>
<text text-anchor="middle" x="361" y="-154.5" font-family="Helvetica,sans-Serif" font-size="10.00">FunctionBase</text>
</a>
</g>
</g>
<!-- Node1&#45;&gt;Node7 -->
<g id="edge6" class="edge"><title>Node1&#45;&gt;Node7</title>
<path fill="none" stroke="midnightblue" d="M229.598,-125.778C252.95,-132.354 281.91,-140.509 306.603,-147.463"/>
<polygon fill="midnightblue" stroke="midnightblue" points="230.536,-122.406 219.962,-123.064 228.639,-129.144 230.536,-122.406"/>
</g>
<!-- Node9 -->
<g id="node9" class="node"><title>Node9</title>
<g id="a_node9"><a xlink:href="../../d7/dba/classIG_1_1Lib_1_1LoadableScriptScalarFunctionBase.html" target="_top" xlink:title="Base class for loadable scripts that define scalar functions of several variables.">
<polygon fill="white" stroke="black" points="292.5,-98.5 292.5,-128.5 429.5,-128.5 429.5,-98.5 292.5,-98.5"/>
<text text-anchor="start" x="300.5" y="-116.5" font-family="Helvetica,sans-Serif" font-size="10.00">IG.Lib.LoadableScriptScalar</text>
<text text-anchor="middle" x="361" y="-105.5" font-family="Helvetica,sans-Serif" font-size="10.00">FunctionBase</text>
</a>
</g>
</g>
<!-- Node1&#45;&gt;Node9 -->
<g id="edge8" class="edge"><title>Node1&#45;&gt;Node9</title>
<path fill="none" stroke="midnightblue" d="M261.455,-113.5C271.719,-113.5 282.201,-113.5 292.315,-113.5"/>
<polygon fill="midnightblue" stroke="midnightblue" points="261.286,-110 251.286,-113.5 261.286,-117 261.286,-110"/>
</g>
<!-- Node11 -->
<g id="node11" class="node"><title>Node11</title>
<g id="a_node11"><a xlink:href="../../d4/d2e/classIG_1_1Script_1_1LoadableScriptExample.html" target="_top" xlink:title="Example cls. for testing function of loadable scripts.">
<polygon fill="white" stroke="black" points="300,-49.5 300,-79.5 422,-79.5 422,-49.5 300,-49.5"/>
<text text-anchor="start" x="308" y="-67.5" font-family="Helvetica,sans-Serif" font-size="10.00">IG.Script.LoadableScript</text>
<text text-anchor="middle" x="361" y="-56.5" font-family="Helvetica,sans-Serif" font-size="10.00">Example</text>
</a>
</g>
</g>
<!-- Node1&#45;&gt;Node11 -->
<g id="edge10" class="edge"><title>Node1&#45;&gt;Node11</title>
<path fill="none" stroke="midnightblue" d="M229.598,-101.222C252.95,-94.6463 281.91,-86.4908 306.603,-79.537"/>
<polygon fill="midnightblue" stroke="midnightblue" points="228.639,-97.8563 219.962,-103.936 230.536,-104.594 228.639,-97.8563"/>
</g>
<!-- Node12 -->
<g id="node12" class="node"><title>Node12</title>
<g id="a_node12"><a xlink:href="../../da/d52/classIG_1_1Script_1_1LoadableScriptSpecialFunctionBase.html" target="_top" xlink:title="Base cls. for various special function loadable scripts.">
<polygon fill="white" stroke="black" points="300,-0.5 300,-30.5 422,-30.5 422,-0.5 300,-0.5"/>
<text text-anchor="start" x="308" y="-18.5" font-family="Helvetica,sans-Serif" font-size="10.00">IG.Script.LoadableScript</text>
<text text-anchor="middle" x="361" y="-7.5" font-family="Helvetica,sans-Serif" font-size="10.00">SpecialFunctionBase</text>
</a>
</g>
</g>
<!-- Node1&#45;&gt;Node12 -->
<g id="edge11" class="edge"><title>Node1&#45;&gt;Node12</title>
<path fill="none" stroke="midnightblue" d="M204.49,-97.1504C223.892,-80.6949 255.847,-55.5201 287,-39.5 293.407,-36.2054 300.359,-33.2329 307.341,-30.5931"/>
<polygon fill="midnightblue" stroke="midnightblue" points="202.035,-94.6456 196.745,-103.825 206.605,-99.9484 202.035,-94.6456"/>
</g>
<!-- Node2 -->
<g id="node2" class="node"><title>Node2</title>
<g id="a_node2"><a xlink:href="../../d7/d66/interfaceIG_1_1Lib_1_1ILoadableScript.html" target="_top" xlink:title="Interface for classes that can be dynamically loadeded from scripts and run, which provides functiona...">
<polygon fill="white" stroke="black" points="0,-123 0,-142 83,-142 83,-123 0,-123"/>
<text text-anchor="middle" x="41.5" y="-130" font-family="Helvetica,sans-Serif" font-size="10.00">ILoadableScript</text>
</a>
</g>
</g>
<!-- Node2&#45;&gt;Node1 -->
<g id="edge1" class="edge"><title>Node2&#45;&gt;Node1</title>
<path fill="none" stroke="midnightblue" d="M93.0261,-125.716C101.403,-124.591 110.193,-123.41 118.87,-122.245"/>
<polygon fill="midnightblue" stroke="midnightblue" points="92.4935,-122.256 83.0482,-127.055 93.4251,-129.193 92.4935,-122.256"/>
</g>
<!-- Node3 -->
<g id="node3" class="node"><title>Node3</title>
<g id="a_node3"><a xlink:href="../../d3/db6/interfaceIG_1_1Lib_1_1ILockable.html" target="_top" xlink:title="Lockable object, has a Lock property that returns object on which lock must be performed in order to ...">
<polygon fill="white" stroke="black" points="12.5,-85 12.5,-104 70.5,-104 70.5,-85 12.5,-85"/>
<text text-anchor="middle" x="41.5" y="-92" font-family="Helvetica,sans-Serif" font-size="10.00">ILockable</text>
</a>
</g>
</g>
<!-- Node3&#45;&gt;Node1 -->
<g id="edge2" class="edge"><title>Node3&#45;&gt;Node1</title>
<path fill="none" stroke="midnightblue" d="M80.7101,-99.6307C92.4959,-101.213 105.822,-103.003 118.89,-104.757"/>
<polygon fill="midnightblue" stroke="midnightblue" points="81.1714,-96.1613 70.7946,-98.2993 80.2398,-103.099 81.1714,-96.1613"/>
</g>
<!-- Node5 -->
<g id="node5" class="node"><title>Node5</title>
<g id="a_node5"><a xlink:href="../../d7/d31/classIG_1_1Lib_1_1LoadableScriptOptShellBaseControllable.html" target="_top" xlink:title="Controllable version of LoadableScriptOptBase, implements the ILoadableScriptC interface.">
<polygon fill="white" stroke="black" points="483.5,-245.5 483.5,-275.5 608.5,-275.5 608.5,-245.5 483.5,-245.5"/>
<text text-anchor="start" x="491.5" y="-263.5" font-family="Helvetica,sans-Serif" font-size="10.00">IG.Lib.LoadableScriptOpt</text>
<text text-anchor="middle" x="546" y="-252.5" font-family="Helvetica,sans-Serif" font-size="10.00">ShellBaseControllable</text>
</a>
</g>
</g>
<!-- Node4&#45;&gt;Node5 -->
<g id="edge4" class="edge"><title>Node4&#45;&gt;Node5</title>
<path fill="none" stroke="midnightblue" d="M407.524,-223.69C432.141,-230.281 462.755,-238.478 488.842,-245.463"/>
<polygon fill="midnightblue" stroke="midnightblue" points="408.284,-220.27 397.719,-221.064 406.473,-227.031 408.284,-220.27"/>
</g>
<!-- Node6 -->
<g id="node6" class="node"><title>Node6</title>
<g id="a_node6"><a xlink:href="../../d2/dae/classIG_1_1Lib_1_1LoadableScriptOptTest_1_1LoadableScriptOptDerived.html" target="_top" xlink:title=" ">
<polygon fill="white" stroke="black" points="471,-196.5 471,-226.5 621,-226.5 621,-196.5 471,-196.5"/>
<text text-anchor="start" x="479" y="-214.5" font-family="Helvetica,sans-Serif" font-size="10.00">IG.Lib.LoadableScriptOpt</text>
<text text-anchor="middle" x="546" y="-203.5" font-family="Helvetica,sans-Serif" font-size="10.00">Test.LoadableScriptOptDerived</text>
</a>
</g>
</g>
<!-- Node4&#45;&gt;Node6 -->
<g id="edge5" class="edge"><title>Node4&#45;&gt;Node6</title>
<path fill="none" stroke="midnightblue" d="M445.389,-211.5C453.865,-211.5 462.435,-211.5 470.805,-211.5"/>
<polygon fill="midnightblue" stroke="midnightblue" points="445.115,-208 435.115,-211.5 445.115,-215 445.115,-208"/>
</g>
<!-- Node8 -->
<g id="node8" class="node"><title>Node8</title>
<g id="a_node8"><a xlink:href="../../dc/d6c/classIG_1_1Script_1_1ScritpRealFunctionExample.html" target="_top" xlink:title="Example script for definition of a new real function class.">
<polygon fill="white" stroke="black" points="476,-147.5 476,-177.5 616,-177.5 616,-147.5 476,-147.5"/>
<text text-anchor="start" x="484" y="-165.5" font-family="Helvetica,sans-Serif" font-size="10.00">IG.Script.ScritpRealFunction</text>
<text text-anchor="middle" x="546" y="-154.5" font-family="Helvetica,sans-Serif" font-size="10.00">Example</text>
</a>
</g>
</g>
<!-- Node7&#45;&gt;Node8 -->
<g id="edge7" class="edge"><title>Node7&#45;&gt;Node8</title>
<path fill="none" stroke="midnightblue" d="M435.756,-162.5C449,-162.5 462.76,-162.5 475.867,-162.5"/>
<polygon fill="midnightblue" stroke="midnightblue" points="435.748,-159 425.748,-162.5 435.748,-166 435.748,-159"/>
</g>
<!-- Node10 -->
<g id="node10" class="node"><title>Node10</title>
<g id="a_node10"><a xlink:href="../../d5/de0/classIG_1_1Script_1_1ScritpScalarFunctionExample.html" target="_top" xlink:title="Example script for definition of a new real function class.">
<polygon fill="white" stroke="black" points="471.5,-98.5 471.5,-128.5 620.5,-128.5 620.5,-98.5 471.5,-98.5"/>
<text text-anchor="start" x="479.5" y="-116.5" font-family="Helvetica,sans-Serif" font-size="10.00">IG.Script.ScritpScalarFunction</text>
<text text-anchor="middle" x="546" y="-105.5" font-family="Helvetica,sans-Serif" font-size="10.00">Example</text>
</a>
</g>
</g>
<!-- Node9&#45;&gt;Node10 -->
<g id="edge9" class="edge"><title>Node9&#45;&gt;Node10</title>
<path fill="none" stroke="midnightblue" d="M439.899,-113.5C450.275,-113.5 460.89,-113.5 471.194,-113.5"/>
<polygon fill="midnightblue" stroke="midnightblue" points="439.623,-110 429.623,-113.5 439.622,-117 439.623,-110"/>
</g>
</g>
</svg>
        <g id="navigator" transform="translate(0 0)" fill="#404254">
                <rect fill="#f2f5e9" fill-opacity="0.5" stroke="#606060" stroke-width=".5" x="0" y="0" width="60" height="60"/>
                <use id="zoomplus" xlink:href="#zoomPlus" x="17" y="9" onmousedown="handleZoom(evt,'in')"/>
                <use id="zoomminus" xlink:href="#zoomMin" x="42" y="9" onmousedown="handleZoom(evt,'out')"/>
                <use id="reset" xlink:href="#resetDef" x="30" y="36" onmousedown="handleReset()"/>
                <g id="arrowUp" xlink:href="#dirArrow" transform="translate(30 24)" onmousedown="handlePan(0,-1)">
                  <use xlink:href="#rim" fill="#404040">
                        <set attributeName="fill" to="#808080" begin="arrowUp.mouseover" end="arrowUp.mouseout"/>
                  </use>
                  <path fill="none" stroke="white" stroke-width="1.5" d="M0,-3.0v7 M-2.5,-0.5L0,-3.0L2.5,-0.5"/>
                </g>
                <g id="arrowRight" xlink:href="#dirArrow" transform="rotate(90) translate(36 -43)" onmousedown="handlePan(1,0)">
                  <use xlink:href="#rim" fill="#404040">
                        <set attributeName="fill" to="#808080" begin="arrowRight.mouseover" end="arrowRight.mouseout"/>
                  </use>
                  <path fill="none" stroke="white" stroke-width="1.5" d="M0,-3.0v7 M-2.5,-0.5L0,-3.0L2.5,-0.5"/>
                </g>
                <g id="arrowDown" xlink:href="#dirArrow" transform="rotate(180) translate(-30 -48)" onmousedown="handlePan(0,1)">
                  <use xlink:href="#rim" fill="#404040">
                        <set attributeName="fill" to="#808080" begin="arrowDown.mouseover" end="arrowDown.mouseout"/>
                  </use>
                  <path fill="none" stroke="white" stroke-width="1.5" d="M0,-3.0v7 M-2.5,-0.5L0,-3.0L2.5,-0.5"/>
                </g>
                <g id="arrowLeft" xlink:href="#dirArrow" transform="rotate(270) translate(-36 17)" onmousedown="handlePan(-1,0)">
                  <use xlink:href="#rim" fill="#404040">
                        <set attributeName="fill" to="#808080" begin="arrowLeft.mouseover" end="arrowLeft.mouseout"/>
                  </use>
                  <path fill="none" stroke="white" stroke-width="1.5" d="M0,-3.0v7 M-2.5,-0.5L0,-3.0L2.5,-0.5"/>
                </g>
        </g>
        <svg viewBox="0 0 15 15" width="100%" height="30px" preserveAspectRatio="xMaxYMin meet">
         <g id="arrow_out" transform="scale(0.3 0.3)">
          <a xlink:href="classIG_1_1Lib_1_1LoadableScriptBase__inherit__graph_org.svg" target="_base">
           <rect id="button" ry="5" rx="5" y="6" x="6" height="38" width="38"
                fill="#f2f5e9" fill-opacity="0.5" stroke="#606060" stroke-width="1.0"/>
           <path id="arrow"
             d="M 11.500037,31.436501 C 11.940474,20.09759 22.043105,11.32322 32.158766,21.979434 L 37.068811,17.246167 C 37.068811,17.246167 37.088388,32 37.088388,32 L 22.160133,31.978069 C 22.160133,31.978069 26.997745,27.140456 26.997745,27.140456 C 18.528582,18.264221 13.291696,25.230495 11.500037,31.436501 z"
             style="fill:#404040;"/>
          </a>
         </g>
        </svg>
</svg>
