<?xml version="1.0" encoding="UTF-8" standalone="no"?>
<!DOCTYPE svg PUBLIC "-//W3C//DTD SVG 1.1//EN"
 "http://www.w3.org/Graphics/SVG/1.1/DTD/svg11.dtd">
<!-- Generated by graphviz version 2.38.0 (20140413.2041)
 -->
<!-- Title: IG.Num.NeuralTrainingParameters.ComparerBase Pages: 1 -->
<svg width="175pt" height="106pt"
 viewBox="0.00 0.00 175.00 106.00" xmlns="http://www.w3.org/2000/svg" xmlns:xlink="http://www.w3.org/1999/xlink">
<g id="graph0" class="graph" transform="scale(1 1) rotate(0) translate(4 102)">
<title>IG.Num.NeuralTrainingParameters.ComparerBase</title>
<polygon fill="white" stroke="none" points="-4,4 -4,-102 171,-102 171,4 -4,4"/>
<!-- Node1 -->
<g id="node1" class="node"><title>Node1</title>
<g id="a_node1"><a xlink:title="Base comparer class (implementation of the IComparer&lt;NeuralTrainingParameters&gt; interface) for conmpar...">
<polygon fill="#bfbfbf" stroke="black" points="0,-0.5 0,-30.5 167,-30.5 167,-0.5 0,-0.5"/>
<text text-anchor="start" x="8" y="-18.5" font-family="Helvetica,sans-Serif" font-size="10.00">IG.Num.NeuralTrainingParameters.</text>
<text text-anchor="middle" x="83.5" y="-7.5" font-family="Helvetica,sans-Serif" font-size="10.00">ComparerBase</text>
</a>
</g>
</g>
<!-- Node2 -->
<g id="node2" class="node"><title>Node2</title>
<g id="a_node2"><a xlink:title=" ">
<polygon fill="white" stroke="#bfbfbf" points="18,-67.5 18,-97.5 149,-97.5 149,-67.5 18,-67.5"/>
<text text-anchor="start" x="26" y="-85.5" font-family="Helvetica,sans-Serif" font-size="10.00">IComparer&lt; NeuralTraining</text>
<text text-anchor="middle" x="83.5" y="-74.5" font-family="Helvetica,sans-Serif" font-size="10.00">Parameters &gt;</text>
</a>
</g>
</g>
<!-- Node2&#45;&gt;Node1 -->
<g id="edge1" class="edge"><title>Node2&#45;&gt;Node1</title>
<path fill="none" stroke="midnightblue" d="M83.5,-57.1081C83.5,-48.1539 83.5,-38.3227 83.5,-30.5765"/>
<polygon fill="midnightblue" stroke="midnightblue" points="80.0001,-57.3959 83.5,-67.396 87.0001,-57.396 80.0001,-57.3959"/>
</g>
</g>
</svg>
