<?xml version="1.0" encoding="UTF-8" standalone="no"?>
<!DOCTYPE svg PUBLIC "-//W3C//DTD SVG 1.1//EN"
 "http://www.w3.org/Graphics/SVG/1.1/DTD/svg11.dtd">
<!-- Generated by graphviz version 2.38.0 (20140413.2041)
 -->
<!-- Title: IG.Lib.ScriptLoaderIGLib Pages: 1 -->
<svg width="415pt" height="185pt"
 viewBox="0.00 0.00 415.00 185.00" xmlns="http://www.w3.org/2000/svg" xmlns:xlink="http://www.w3.org/1999/xlink">
<g id="graph0" class="graph" transform="scale(1 1) rotate(0) translate(4 181)">
<title>IG.Lib.ScriptLoaderIGLib</title>
<polygon fill="white" stroke="none" points="-4,4 -4,-181 411,-181 411,4 -4,4"/>
<!-- Node1 -->
<g id="node1" class="node"><title>Node1</title>
<g id="a_node1"><a xlink:title="Base script loader class for IGLib.">
<polygon fill="#bfbfbf" stroke="black" points="10,-0.5 10,-19.5 132,-19.5 132,-0.5 10,-0.5"/>
<text text-anchor="middle" x="71" y="-7.5" font-family="Helvetica,sans-Serif" font-size="10.00">IG.Lib.ScriptLoaderIGLib</text>
</a>
</g>
</g>
<!-- Node2 -->
<g id="node2" class="node"><title>Node2</title>
<g id="a_node2"><a xlink:href="../../d3/d40/classIG_1_1Lib_1_1ScriptLoaderBase.html" target="_top" xlink:title="Dynamically compiles, loads and instantiates classes of type ILoadableScript from files or from strin...">
<polygon fill="white" stroke="black" points="85,-57.5 85,-76.5 179,-76.5 179,-57.5 85,-57.5"/>
<text text-anchor="middle" x="132" y="-64.5" font-family="Helvetica,sans-Serif" font-size="10.00">ScriptLoaderBase</text>
</a>
</g>
</g>
<!-- Node2&#45;&gt;Node1 -->
<g id="edge1" class="edge"><title>Node2&#45;&gt;Node1</title>
<path fill="none" stroke="midnightblue" d="M115.04,-50.708C103.957,-40.715 89.8809,-28.0237 80.6656,-19.7149"/>
<polygon fill="midnightblue" stroke="midnightblue" points="112.698,-53.3093 122.469,-57.4063 117.386,-48.1104 112.698,-53.3093"/>
</g>
<!-- Node3 -->
<g id="node3" class="node"><title>Node3</title>
<g id="a_node3"><a xlink:href="../../d3/db6/interfaceIG_1_1Lib_1_1ILockable.html" target="_top" xlink:title="Lockable object, has a Lock property that returns object on which lock must be performed in order to ...">
<polygon fill="white" stroke="black" points="0,-157.5 0,-176.5 58,-176.5 58,-157.5 0,-157.5"/>
<text text-anchor="middle" x="29" y="-164.5" font-family="Helvetica,sans-Serif" font-size="10.00">ILockable</text>
</a>
</g>
</g>
<!-- Node3&#45;&gt;Node1 -->
<g id="edge6" class="edge"><title>Node3&#45;&gt;Node1</title>
<path fill="none" stroke="midnightblue" d="M34.0672,-147.3C43.1889,-113.636 62.0381,-44.0738 68.6476,-19.6813"/>
<polygon fill="midnightblue" stroke="midnightblue" points="30.6157,-146.655 31.3784,-157.222 37.3721,-148.486 30.6157,-146.655"/>
</g>
<!-- Node3&#45;&gt;Node2 -->
<g id="edge2" class="edge"><title>Node3&#45;&gt;Node2</title>
<path fill="none" stroke="midnightblue" d="M45.4435,-150.355C67.4489,-129.418 105.709,-93.0146 123.027,-76.5374"/>
<polygon fill="midnightblue" stroke="midnightblue" points="42.9727,-147.874 38.1406,-157.303 47.7979,-152.946 42.9727,-147.874"/>
</g>
<!-- Node4 -->
<g id="node4" class="node"><title>Node4</title>
<g id="a_node4"><a xlink:href="../../d7/d66/interfaceIG_1_1Lib_1_1ILoadableScript.html" target="_top" xlink:title="Interface for classes that can be dynamically loadeded from scripts and run, which provides functiona...">
<polygon fill="white" stroke="black" points="76,-157.5 76,-176.5 188,-176.5 188,-157.5 76,-157.5"/>
<text text-anchor="middle" x="132" y="-164.5" font-family="Helvetica,sans-Serif" font-size="10.00">IG.Lib.ILoadableScript</text>
</a>
</g>
</g>
<!-- Node4&#45;&gt;Node2 -->
<g id="edge3" class="edge"><title>Node4&#45;&gt;Node2</title>
<path fill="none" stroke="#9a32cd" stroke-dasharray="5,2" d="M132,-147.22C132,-125.951 132,-92.2197 132,-76.5374"/>
<polygon fill="#9a32cd" stroke="#9a32cd" points="128.5,-147.303 132,-157.303 135.5,-147.303 128.5,-147.303"/>
<text text-anchor="middle" x="169" y="-114.5" font-family="Helvetica,sans-Serif" font-size="10.00"> _runnableObject</text>
</g>
<!-- Node5 -->
<g id="node5" class="node"><title>Node5</title>
<g id="a_node5"><a xlink:href="../../d7/df0/classIG_1_1Lib_1_1Logger.html" target="_top" xlink:title="Temporary logging of errors, warnings and infos for later processing. It is used to log multiple even...">
<polygon fill="white" stroke="black" points="206,-157.5 206,-176.5 280,-176.5 280,-157.5 206,-157.5"/>
<text text-anchor="middle" x="243" y="-164.5" font-family="Helvetica,sans-Serif" font-size="10.00">IG.Lib.Logger</text>
</a>
</g>
</g>
<!-- Node5&#45;&gt;Node2 -->
<g id="edge4" class="edge"><title>Node5&#45;&gt;Node2</title>
<path fill="none" stroke="#9a32cd" stroke-dasharray="5,2" d="M238.746,-147.459C234.179,-131.503 225.41,-108.915 210,-95 200.534,-86.4525 188.223,-80.5848 176.188,-76.5667"/>
<polygon fill="#9a32cd" stroke="#9a32cd" points="235.386,-148.445 241.266,-157.258 242.165,-146.701 235.386,-148.445"/>
<text text-anchor="middle" x="253.5" y="-114.5" font-family="Helvetica,sans-Serif" font-size="10.00"> _logger</text>
</g>
<!-- Node6 -->
<g id="node6" class="node"><title>Node6</title>
<g id="a_node6"><a xlink:title=" ">
<polygon fill="white" stroke="#bfbfbf" points="298.5,-157.5 298.5,-176.5 339.5,-176.5 339.5,-157.5 298.5,-157.5"/>
<text text-anchor="middle" x="319" y="-164.5" font-family="Helvetica,sans-Serif" font-size="10.00">static</text>
</a>
</g>
</g>
<!-- Node6&#45;&gt;Node2 -->
<g id="edge5" class="edge"><title>Node6&#45;&gt;Node2</title>
<path fill="none" stroke="#9a32cd" stroke-dasharray="5,2" d="M312.625,-147.777C305.89,-131.321 293.637,-107.786 275,-95 259.635,-84.4589 214.504,-77.1015 179.008,-72.7584"/>
<polygon fill="#9a32cd" stroke="#9a32cd" points="309.449,-149.273 316.265,-157.384 315.995,-146.793 309.449,-149.273"/>
<text text-anchor="middle" x="358" y="-131" font-family="Helvetica,sans-Serif" font-size="10.00"> _isScriptingInitialized</text>
<text text-anchor="middle" x="358" y="-120" font-family="Helvetica,sans-Serif" font-size="10.00">_usedClassFullNames</text>
<text text-anchor="middle" x="358" y="-109" font-family="Helvetica,sans-Serif" font-size="10.00">_global</text>
<text text-anchor="middle" x="358" y="-98" font-family="Helvetica,sans-Serif" font-size="10.00">_defaultAssemblies</text>
</g>
</g>
</svg>
