<?xml version="1.0" encoding="UTF-8" standalone="no"?>
<!DOCTYPE svg PUBLIC "-//W3C//DTD SVG 1.1//EN"
 "http://www.w3.org/Graphics/SVG/1.1/DTD/svg11.dtd">
<!-- Generated by graphviz version 2.38.0 (20140413.2041)
 -->
<!-- Title: IG.Num.Func.Cubic Pages: 1 -->
<svg width="323pt" height="368pt"
 viewBox="0.00 0.00 323.00 368.00" xmlns="http://www.w3.org/2000/svg" xmlns:xlink="http://www.w3.org/1999/xlink">
<g id="graph0" class="graph" transform="scale(1 1) rotate(0) translate(4 364)">
<title>IG.Num.Func.Cubic</title>
<polygon fill="white" stroke="none" points="-4,4 -4,-364 319,-364 319,4 -4,4"/>
<!-- Node1 -->
<g id="node1" class="node"><title>Node1</title>
<g id="a_node1"><a xlink:title="Cubic function, f(x) = a3*x*x*x + a2*x*x + a1*x + a0. Specific properties: Zero &#45; returns a zero....">
<polygon fill="#bfbfbf" stroke="black" points="17,-0.5 17,-19.5 119,-19.5 119,-0.5 17,-0.5"/>
<text text-anchor="middle" x="68" y="-7.5" font-family="Helvetica,sans-Serif" font-size="10.00">IG.Num.Func.Cubic</text>
</a>
</g>
</g>
<!-- Node1&#45;&gt;Node1 -->
<g id="edge13" class="edge"><title>Node1&#45;&gt;Node1</title>
<path fill="none" stroke="#9a32cd" stroke-dasharray="5,2" d="M129.371,-14.5175C134.091,-13.5176 137,-12.0117 137,-10 137,-6.78125 129.553,-4.85754 119.155,-4.22888"/>
<polygon fill="#9a32cd" stroke="#9a32cd" points="128.654,-11.0792 119.155,-15.7711 129.506,-18.0271 128.654,-11.0792"/>
<text text-anchor="middle" x="152.5" y="-7.5" font-family="Helvetica,sans-Serif" font-size="10.00"> _refinv</text>
</g>
<!-- Node2 -->
<g id="node2" class="node"><title>Node2</title>
<g id="a_node2"><a xlink:href="../../d5/d83/classIG_1_1Num_1_1RealFunction.html" target="_top" xlink:title="Represents a real function of a real variabe.">
<polygon fill="white" stroke="black" points="57,-124.5 57,-143.5 131,-143.5 131,-124.5 57,-124.5"/>
<text text-anchor="middle" x="94" y="-131.5" font-family="Helvetica,sans-Serif" font-size="10.00">RealFunction</text>
</a>
</g>
</g>
<!-- Node2&#45;&gt;Node1 -->
<g id="edge1" class="edge"><title>Node2&#45;&gt;Node1</title>
<path fill="none" stroke="midnightblue" d="M76.6449,-117.046C69.055,-108.89 60.9842,-98.31 57,-87 48.7609,-63.6114 58.3011,-34.0895 64.1344,-19.6934"/>
<polygon fill="midnightblue" stroke="midnightblue" points="74.3667,-119.718 83.9052,-124.33 79.3246,-114.776 74.3667,-119.718"/>
</g>
<!-- Node8 -->
<g id="node8" class="node"><title>Node8</title>
<g id="a_node8"><a xlink:href="../../d7/d61/classIG_1_1Num_1_1Func_1_1Quadratic.html" target="_top" xlink:title="Quadratic function, f(x) = a2*x*x + a1*x + a0. Specific properties: Zero &#45; returns a zero....">
<polygon fill="white" stroke="black" points="66.5,-67.5 66.5,-86.5 185.5,-86.5 185.5,-67.5 66.5,-67.5"/>
<text text-anchor="middle" x="126" y="-74.5" font-family="Helvetica,sans-Serif" font-size="10.00">IG.Num.Func.Quadratic</text>
</a>
</g>
</g>
<!-- Node2&#45;&gt;Node8 -->
<g id="edge15" class="edge"><title>Node2&#45;&gt;Node8</title>
<path fill="none" stroke="midnightblue" d="M104.103,-115.635C109.703,-106.01 116.424,-94.459 120.93,-86.7149"/>
<polygon fill="midnightblue" stroke="midnightblue" points="101.004,-114.003 99,-124.406 107.054,-117.523 101.004,-114.003"/>
</g>
<!-- Node3 -->
<g id="node3" class="node"><title>Node3</title>
<g id="a_node3"><a xlink:href="../../d6/d30/classIG_1_1Num_1_1RealFunctionBase.html" target="_top" xlink:title="Base class for real functions of real variable.">
<polygon fill="white" stroke="black" points="66,-283.5 66,-302.5 162,-302.5 162,-283.5 66,-283.5"/>
<text text-anchor="middle" x="114" y="-290.5" font-family="Helvetica,sans-Serif" font-size="10.00">RealFunctionBase</text>
</a>
</g>
</g>
<!-- Node3&#45;&gt;Node2 -->
<g id="edge2" class="edge"><title>Node3&#45;&gt;Node2</title>
<path fill="none" stroke="midnightblue" d="M107.817,-273.549C105.28,-265.226 102.574,-255.214 101,-246 94.5619,-208.314 93.8953,-162.523 93.9237,-143.708"/>
<polygon fill="midnightblue" stroke="midnightblue" points="104.56,-274.854 110.945,-283.309 111.226,-272.718 104.56,-274.854"/>
</g>
<!-- Node6 -->
<g id="node6" class="node"><title>Node6</title>
<g id="a_node6"><a xlink:href="../../d5/d83/classIG_1_1Num_1_1RealFunction.html" target="_top" xlink:title="Represents a real function of a real variabe.">
<polygon fill="white" stroke="black" points="110,-220 110,-239 220,-239 220,-220 110,-220"/>
<text text-anchor="middle" x="165" y="-227" font-family="Helvetica,sans-Serif" font-size="10.00">IG.Num.RealFunction</text>
</a>
</g>
</g>
<!-- Node3&#45;&gt;Node6 -->
<g id="edge7" class="edge"><title>Node3&#45;&gt;Node6</title>
<path fill="none" stroke="midnightblue" d="M127.485,-275.739C137.14,-264.096 149.775,-248.859 157.639,-239.377"/>
<polygon fill="midnightblue" stroke="midnightblue" points="124.781,-273.517 121.091,-283.449 130.169,-277.985 124.781,-273.517"/>
</g>
<!-- Node4 -->
<g id="node4" class="node"><title>Node4</title>
<g id="a_node4"><a xlink:href="../../db/d0e/interfaceIG_1_1Num_1_1IRealFunction.html" target="_top" xlink:title="Interface for real functions.">
<polygon fill="white" stroke="black" points="25,-340.5 25,-359.5 101,-359.5 101,-340.5 25,-340.5"/>
<text text-anchor="middle" x="63" y="-347.5" font-family="Helvetica,sans-Serif" font-size="10.00">IRealFunction</text>
</a>
</g>
</g>
<!-- Node4&#45;&gt;Node1 -->
<g id="edge11" class="edge"><title>Node4&#45;&gt;Node1</title>
<path fill="none" stroke="midnightblue" d="M31.7711,-335.595C15.9312,-326.492 0,-312.691 0,-294 0,-294 0,-294 0,-76 0,-49.0531 28.2486,-29.8401 48.3316,-19.5858"/>
<polygon fill="midnightblue" stroke="midnightblue" points="30.4835,-338.871 40.9657,-340.413 33.7325,-332.671 30.4835,-338.871"/>
</g>
<!-- Node4&#45;&gt;Node2 -->
<g id="edge4" class="edge"><title>Node4&#45;&gt;Node2</title>
<path fill="none" stroke="midnightblue" d="M59.9754,-330.115C58.7925,-321.82 57.5813,-311.951 57,-303 52.9549,-240.712 80.1759,-168.153 90.3075,-143.61"/>
<polygon fill="midnightblue" stroke="midnightblue" points="56.5474,-330.854 61.5092,-340.215 63.4681,-329.803 56.5474,-330.854"/>
</g>
<!-- Node4&#45;&gt;Node3 -->
<g id="edge3" class="edge"><title>Node4&#45;&gt;Node3</title>
<path fill="none" stroke="midnightblue" d="M77.9957,-332.828C87.1282,-322.979 98.4388,-310.782 105.919,-302.715"/>
<polygon fill="midnightblue" stroke="midnightblue" points="75.2017,-330.694 70.9688,-340.406 80.3346,-335.453 75.2017,-330.694"/>
</g>
<!-- Node4&#45;&gt;Node6 -->
<g id="edge8" class="edge"><title>Node4&#45;&gt;Node6</title>
<path fill="none" stroke="midnightblue" d="M110.763,-341.085C133.033,-334.742 157.54,-323.364 171,-303 183.954,-283.403 174.917,-254.011 169.006,-239.402"/>
<polygon fill="midnightblue" stroke="midnightblue" points="109.877,-337.699 101.067,-343.583 111.624,-344.477 109.877,-337.699"/>
</g>
<!-- Node5 -->
<g id="node5" class="node"><title>Node5</title>
<g id="a_node5"><a xlink:title=" ">
<polygon fill="white" stroke="#bfbfbf" points="253,-283.5 253,-302.5 315,-302.5 315,-283.5 253,-283.5"/>
<text text-anchor="middle" x="284" y="-290.5" font-family="Helvetica,sans-Serif" font-size="10.00">ICloneable</text>
</a>
</g>
</g>
<!-- Node5&#45;&gt;Node2 -->
<g id="edge5" class="edge"><title>Node5&#45;&gt;Node2</title>
<path fill="none" stroke="midnightblue" d="M297.355,-274.801C308.613,-258.045 321.108,-232.342 309,-213 271.497,-153.092 182.203,-138.784 131.271,-135.626"/>
<polygon fill="midnightblue" stroke="midnightblue" points="294.39,-272.93 291.392,-283.092 300.073,-277.017 294.39,-272.93"/>
</g>
<!-- Node5&#45;&gt;Node6 -->
<g id="edge9" class="edge"><title>Node5&#45;&gt;Node6</title>
<path fill="none" stroke="midnightblue" d="M258.524,-278.834C235.338,-266.851 201.77,-249.503 181.79,-239.177"/>
<polygon fill="midnightblue" stroke="midnightblue" points="256.963,-281.967 267.454,-283.449 260.177,-275.748 256.963,-281.967"/>
</g>
<!-- Node6&#45;&gt;Node2 -->
<g id="edge6" class="edge"><title>Node6&#45;&gt;Node2</title>
<path fill="none" stroke="#9a32cd" stroke-dasharray="5,2" d="M152.222,-211.672C137.027,-191.663 112.254,-159.039 100.536,-143.608"/>
<polygon fill="#9a32cd" stroke="#9a32cd" points="149.613,-214.024 158.448,-219.871 155.188,-209.791 149.613,-214.024"/>
<text text-anchor="middle" x="169" y="-187" font-family="Helvetica,sans-Serif" font-size="10.00"> funcDerivative</text>
<text text-anchor="middle" x="169" y="-176" font-family="Helvetica,sans-Serif" font-size="10.00">funcInverse</text>
<text text-anchor="middle" x="169" y="-165" font-family="Helvetica,sans-Serif" font-size="10.00">funcIntegral</text>
</g>
<!-- Node6&#45;&gt;Node6 -->
<g id="edge10" class="edge"><title>Node6&#45;&gt;Node6</title>
<path fill="none" stroke="#9a32cd" stroke-dasharray="5,2" d="M230.001,-234.284C234.952,-233.222 238,-231.627 238,-229.5 238,-226.18 230.574,-224.156 220.073,-223.43"/>
<polygon fill="#9a32cd" stroke="#9a32cd" points="229.541,-230.815 220.073,-235.57 230.44,-237.757 229.541,-230.815"/>
<text text-anchor="middle" x="269" y="-238" font-family="Helvetica,sans-Serif" font-size="10.00"> funcDerivative</text>
<text text-anchor="middle" x="269" y="-227" font-family="Helvetica,sans-Serif" font-size="10.00">funcInverse</text>
<text text-anchor="middle" x="269" y="-216" font-family="Helvetica,sans-Serif" font-size="10.00">funcIntegral</text>
</g>
<!-- Node7 -->
<g id="node7" class="node"><title>Node7</title>
<g id="a_node7"><a xlink:href="../../d3/db6/interfaceIG_1_1Lib_1_1ILockable.html" target="_top" xlink:title="Lockable object, has a Lock property that returns object on which lock must be performed in order to ...">
<polygon fill="white" stroke="black" points="204,-67.5 204,-86.5 262,-86.5 262,-67.5 204,-67.5"/>
<text text-anchor="middle" x="233" y="-74.5" font-family="Helvetica,sans-Serif" font-size="10.00">ILockable</text>
</a>
</g>
</g>
<!-- Node7&#45;&gt;Node1 -->
<g id="edge12" class="edge"><title>Node7&#45;&gt;Node1</title>
<path fill="none" stroke="midnightblue" d="M204.836,-63.2378C187.668,-55.609 165.214,-45.8969 145,-38 128.111,-31.4017 108.861,-24.6517 93.8329,-19.5513"/>
<polygon fill="midnightblue" stroke="midnightblue" points="203.719,-66.5721 214.276,-67.4593 206.576,-60.1819 203.719,-66.5721"/>
</g>
<!-- Node8&#45;&gt;Node1 -->
<g id="edge14" class="edge"><title>Node8&#45;&gt;Node1</title>
<path fill="none" stroke="#9a32cd" stroke-dasharray="5,2" d="M111.397,-59.6348C100.054,-46.9228 84.7734,-29.7978 75.6982,-19.6273"/>
<polygon fill="#9a32cd" stroke="#9a32cd" points="108.908,-62.1026 118.178,-67.2338 114.131,-57.4421 108.908,-62.1026"/>
<text text-anchor="middle" x="121" y="-41" font-family="Helvetica,sans-Serif" font-size="10.00"> _refquad</text>
</g>
</g>
</svg>
