<?xml version="1.0" encoding="UTF-8" standalone="no"?>
<!DOCTYPE svg PUBLIC "-//W3C//DTD SVG 1.1//EN"
 "http://www.w3.org/Graphics/SVG/1.1/DTD/svg11.dtd">
<!-- Generated by graphviz version 2.38.0 (20140413.2041)
 -->
<!-- Title: IG.Num.BoundingBox3d Pages: 1 -->
<svg width="156pt" height="140pt"
 viewBox="0.00 0.00 156.00 140.00" xmlns="http://www.w3.org/2000/svg" xmlns:xlink="http://www.w3.org/1999/xlink">
<g id="graph0" class="graph" transform="scale(1 1) rotate(0) translate(4 136)">
<title>IG.Num.BoundingBox3d</title>
<polygon fill="white" stroke="none" points="-4,4 -4,-136 152,-136 152,4 -4,4"/>
<!-- Node1 -->
<g id="node1" class="node"><title>Node1</title>
<g id="a_node1"><a xlink:title="A 3D bounding box.">
<polygon fill="#bfbfbf" stroke="black" points="0,-0.5 0,-19.5 121,-19.5 121,-0.5 0,-0.5"/>
<text text-anchor="middle" x="60.5" y="-7.5" font-family="Helvetica,sans-Serif" font-size="10.00">IG.Num.BoundingBox3d</text>
</a>
</g>
</g>
<!-- Node2 -->
<g id="node2" class="node"><title>Node2</title>
<g id="a_node2"><a xlink:href="../../df/d61/classIG_1_1Num_1_1BoundingBoxBase.html" target="_top" xlink:title="Base class for bounding boxes that define minimal and maximal co&#45;ordinates of objects,...">
<polygon fill="white" stroke="black" points="51,-56.5 51,-75.5 148,-75.5 148,-56.5 51,-56.5"/>
<text text-anchor="middle" x="99.5" y="-63.5" font-family="Helvetica,sans-Serif" font-size="10.00">BoundingBoxBase</text>
</a>
</g>
</g>
<!-- Node2&#45;&gt;Node1 -->
<g id="edge1" class="edge"><title>Node2&#45;&gt;Node1</title>
<path fill="none" stroke="midnightblue" d="M87.1178,-47.8554C80.3646,-38.5048 72.2914,-27.3265 66.8202,-19.7511"/>
<polygon fill="midnightblue" stroke="midnightblue" points="84.3676,-50.0254 93.0599,-56.083 90.0424,-45.927 84.3676,-50.0254"/>
</g>
<!-- Node3 -->
<g id="node3" class="node"><title>Node3</title>
<g id="a_node3"><a xlink:href="../../db/d5e/interfaceIG_1_1Num_1_1IBoundingBox.html" target="_top" xlink:title="Bounding box, defines minimum and maximum co&#45;ordinates of domains, geometric objects and their groups...">
<polygon fill="white" stroke="black" points="22,-112.5 22,-131.5 99,-131.5 99,-112.5 22,-112.5"/>
<text text-anchor="middle" x="60.5" y="-119.5" font-family="Helvetica,sans-Serif" font-size="10.00">IBoundingBox</text>
</a>
</g>
</g>
<!-- Node3&#45;&gt;Node1 -->
<g id="edge3" class="edge"><title>Node3&#45;&gt;Node1</title>
<path fill="none" stroke="midnightblue" d="M51.5607,-103.195C47.983,-95.1113 44.2901,-85.2953 42.5,-76 38.5585,-55.5333 48.8004,-32.1032 55.4075,-19.7256"/>
<polygon fill="midnightblue" stroke="midnightblue" points="48.4436,-104.791 55.8788,-112.339 54.7733,-101.802 48.4436,-104.791"/>
</g>
<!-- Node3&#45;&gt;Node2 -->
<g id="edge2" class="edge"><title>Node3&#45;&gt;Node2</title>
<path fill="none" stroke="midnightblue" d="M72.8822,-103.855C79.6354,-94.5048 87.7086,-83.3265 93.1798,-75.7511"/>
<polygon fill="midnightblue" stroke="midnightblue" points="69.9576,-101.927 66.9401,-112.083 75.6324,-106.025 69.9576,-101.927"/>
</g>
</g>
</svg>
