<?xml version="1.0" encoding="UTF-8" standalone="no"?>
<!DOCTYPE svg PUBLIC "-//W3C//DTD SVG 1.1//EN"
 "http://www.w3.org/Graphics/SVG/1.1/DTD/svg11.dtd">
<!-- Generated by graphviz version 2.38.0 (20140413.2041)
 -->
<!-- Title: IG.Num.ParallelJobContainerBase Pages: 1 -->
<svg width="469pt" height="208pt"
 viewBox="0.00 0.00 469.00 208.00" xmlns="http://www.w3.org/2000/svg" xmlns:xlink="http://www.w3.org/1999/xlink">
<g id="graph0" class="graph" transform="scale(1 1) rotate(0) translate(4 204)">
<title>IG.Num.ParallelJobContainerBase</title>
<polygon fill="white" stroke="none" points="-4,4 -4,-204 465,-204 465,4 -4,4"/>
<!-- Node1 -->
<g id="node1" class="node"><title>Node1</title>
<g id="a_node1"><a xlink:title="Contains input data and results of a parallel job to be executed, oropertied indicating the state of ...">
<polygon fill="#bfbfbf" stroke="black" points="119,-0.5 119,-19.5 283,-19.5 283,-0.5 119,-0.5"/>
<text text-anchor="middle" x="201" y="-7.5" font-family="Helvetica,sans-Serif" font-size="10.00">IG.Num.ParallelJobContainerBase</text>
</a>
</g>
</g>
<!-- Node2 -->
<g id="node2" class="node"><title>Node2</title>
<g id="a_node2"><a xlink:href="../../d3/db6/interfaceIG_1_1Lib_1_1ILockable.html" target="_top" xlink:title="Lockable object, has a Lock property that returns object on which lock must be performed in order to ...">
<polygon fill="white" stroke="black" points="0,-180.5 0,-199.5 58,-199.5 58,-180.5 0,-180.5"/>
<text text-anchor="middle" x="29" y="-187.5" font-family="Helvetica,sans-Serif" font-size="10.00">ILockable</text>
</a>
</g>
</g>
<!-- Node2&#45;&gt;Node1 -->
<g id="edge1" class="edge"><title>Node2&#45;&gt;Node1</title>
<path fill="none" stroke="midnightblue" d="M28.9079,-170.314C29.7727,-144.092 35.1165,-96.3095 61,-67 83.7865,-41.1973 120.104,-27.1268 150.038,-19.5437"/>
<polygon fill="midnightblue" stroke="midnightblue" points="25.407,-170.361 28.7662,-180.41 32.4063,-170.46 25.407,-170.361"/>
</g>
<!-- Node4 -->
<g id="node4" class="node"><title>Node4</title>
<g id="a_node4"><a xlink:href="../../d1/d6b/classIG_1_1Num_1_1ParallelJobDispatcherBase.html" target="_top" xlink:title="Parallel job dispatcher. Accepts job requests and dispatches jobs to parallel job servers when availa...">
<polygon fill="white" stroke="black" points="70,-79.5 70,-109.5 216,-109.5 216,-79.5 70,-79.5"/>
<text text-anchor="start" x="78" y="-97.5" font-family="Helvetica,sans-Serif" font-size="10.00">IG.Num.ParallelJobDispatcher</text>
<text text-anchor="middle" x="143" y="-86.5" font-family="Helvetica,sans-Serif" font-size="10.00">Base&lt; JobContainerType &gt;</text>
</a>
</g>
</g>
<!-- Node2&#45;&gt;Node4 -->
<g id="edge5" class="edge"><title>Node2&#45;&gt;Node4</title>
<path fill="none" stroke="midnightblue" d="M47.3381,-173.96C69.01,-156.185 104.786,-126.842 125.902,-109.523"/>
<polygon fill="midnightblue" stroke="midnightblue" points="45.033,-171.323 39.5205,-180.371 49.4721,-176.736 45.033,-171.323"/>
</g>
<!-- Node3 -->
<g id="node3" class="node"><title>Node3</title>
<g id="a_node3"><a xlink:href="../../dc/d79/interfaceIG_1_1Lib_1_1IIdentifiable.html" target="_top" xlink:title="Classes whose instances have unique integer IDs.">
<polygon fill="white" stroke="black" points="227.5,-180.5 227.5,-199.5 292.5,-199.5 292.5,-180.5 227.5,-180.5"/>
<text text-anchor="middle" x="260" y="-187.5" font-family="Helvetica,sans-Serif" font-size="10.00">IIdentifiable</text>
</a>
</g>
</g>
<!-- Node3&#45;&gt;Node1 -->
<g id="edge2" class="edge"><title>Node3&#45;&gt;Node1</title>
<path fill="none" stroke="midnightblue" d="M257.733,-170.215C253.244,-134.991 242.566,-60.5393 230,-38 225.98,-30.79 219.357,-24.4068 213.454,-19.6594"/>
<polygon fill="midnightblue" stroke="midnightblue" points="254.262,-170.665 258.967,-180.157 261.208,-169.802 254.262,-170.665"/>
</g>
<!-- Node3&#45;&gt;Node4 -->
<g id="edge6" class="edge"><title>Node3&#45;&gt;Node4</title>
<path fill="none" stroke="midnightblue" d="M241.179,-173.96C218.937,-156.185 182.22,-126.842 160.548,-109.523"/>
<polygon fill="midnightblue" stroke="midnightblue" points="239.206,-176.863 249.203,-180.371 243.576,-171.394 239.206,-176.863"/>
</g>
<!-- Node4&#45;&gt;Node1 -->
<g id="edge3" class="edge"><title>Node4&#45;&gt;Node1</title>
<path fill="none" stroke="#9a32cd" stroke-dasharray="5,2" d="M155.242,-70.4783C161.059,-60.2167 168.397,-48.1756 176,-38 180.894,-31.4495 187.144,-24.6995 192.171,-19.5871"/>
<polygon fill="#9a32cd" stroke="#9a32cd" points="152.141,-68.8529 150.362,-79.2973 158.266,-72.2418 152.141,-68.8529"/>
<text text-anchor="middle" x="203" y="-41" font-family="Helvetica,sans-Serif" font-size="10.00"> _dispatcher</text>
</g>
<!-- Node5 -->
<g id="node5" class="node"><title>Node5</title>
<g id="a_node5"><a xlink:title=" ">
<polygon fill="white" stroke="#bfbfbf" points="76.5,-180.5 76.5,-199.5 209.5,-199.5 209.5,-180.5 76.5,-180.5"/>
<text text-anchor="middle" x="143" y="-187.5" font-family="Helvetica,sans-Serif" font-size="10.00">ParallelJobDispatcherBase</text>
</a>
</g>
</g>
<!-- Node5&#45;&gt;Node4 -->
<g id="edge4" class="edge"><title>Node5&#45;&gt;Node4</title>
<path fill="none" stroke="midnightblue" d="M143,-170.274C143,-152.343 143,-125.693 143,-109.523"/>
<polygon fill="midnightblue" stroke="midnightblue" points="139.5,-170.371 143,-180.371 146.5,-170.371 139.5,-170.371"/>
</g>
<!-- Node6 -->
<g id="node6" class="node"><title>Node6</title>
<g id="a_node6"><a xlink:title=" ">
<polygon fill="white" stroke="#bfbfbf" points="339.5,-180.5 339.5,-199.5 380.5,-199.5 380.5,-180.5 339.5,-180.5"/>
<text text-anchor="middle" x="360" y="-187.5" font-family="Helvetica,sans-Serif" font-size="10.00">static</text>
</a>
</g>
</g>
<!-- Node6&#45;&gt;Node1 -->
<g id="edge8" class="edge"><title>Node6&#45;&gt;Node1</title>
<path fill="none" stroke="#9a32cd" stroke-dasharray="5,2" d="M371.44,-171.738C376.308,-162.127 379.866,-150.099 375,-140 344.069,-75.8017 263.588,-35.9618 223.862,-19.5958"/>
<polygon fill="#9a32cd" stroke="#9a32cd" points="368.412,-169.982 366.399,-180.384 374.459,-173.508 368.412,-169.982"/>
<text text-anchor="middle" x="412.5" y="-114" font-family="Helvetica,sans-Serif" font-size="10.00"> _defaultSleepTimeMs</text>
<text text-anchor="middle" x="412.5" y="-103" font-family="Helvetica,sans-Serif" font-size="10.00">_nextId</text>
<text text-anchor="middle" x="412.5" y="-92" font-family="Helvetica,sans-Serif" font-size="10.00">DefaultIsTestMode</text>
<text text-anchor="middle" x="412.5" y="-81" font-family="Helvetica,sans-Serif" font-size="10.00">_lockId</text>
<text text-anchor="middle" x="412.5" y="-70" font-family="Helvetica,sans-Serif" font-size="10.00">DefaultOutputLevel</text>
</g>
<!-- Node6&#45;&gt;Node4 -->
<g id="edge7" class="edge"><title>Node6&#45;&gt;Node4</title>
<path fill="none" stroke="#9a32cd" stroke-dasharray="5,2" d="M329.803,-180.165C314.155,-175.31 294.844,-168.883 278,-162 239.061,-146.09 195.704,-123.889 168.888,-109.603"/>
<polygon fill="#9a32cd" stroke="#9a32cd" points="328.909,-183.552 339.495,-183.118 330.949,-176.856 328.909,-183.552"/>
<text text-anchor="middle" x="326.5" y="-154" font-family="Helvetica,sans-Serif" font-size="10.00"> _defaultSleepTimeMs</text>
<text text-anchor="middle" x="326.5" y="-143" font-family="Helvetica,sans-Serif" font-size="10.00">_nextId</text>
</g>
</g>
</svg>
