<?xml version="1.0" encoding="UTF-8" standalone="no"?>
<!DOCTYPE svg PUBLIC "-//W3C//DTD SVG 1.1//EN"
 "http://www.w3.org/Graphics/SVG/1.1/DTD/svg11.dtd">
<!-- Generated by graphviz version 2.38.0 (20140413.2041)
 -->
<!-- Title: IG.Num.Func3d2dExamples Pages: 1 -->
<svg width="179pt" height="163pt"
 viewBox="0.00 0.00 178.50 163.00" xmlns="http://www.w3.org/2000/svg" xmlns:xlink="http://www.w3.org/1999/xlink">
<g id="graph0" class="graph" transform="scale(1 1) rotate(0) translate(4 159)">
<title>IG.Num.Func3d2dExamples</title>
<polygon fill="white" stroke="none" points="-4,4 -4,-159 174.5,-159 174.5,4 -4,4"/>
<!-- Node1 -->
<g id="node1" class="node"><title>Node1</title>
<g id="a_node1"><a xlink:title="Contains a number of example 3D vector functions of 2 variables.">
<polygon fill="#bfbfbf" stroke="black" points="0,-0.5 0,-19.5 139,-19.5 139,-0.5 0,-0.5"/>
<text text-anchor="middle" x="69.5" y="-7.5" font-family="Helvetica,sans-Serif" font-size="10.00">IG.Num.Func3d2dExamples</text>
</a>
</g>
</g>
<!-- Node2 -->
<g id="node2" class="node"><title>Node2</title>
<g id="a_node2"><a xlink:href="../../d5/db7/classIG_1_1Num_1_1M.html" target="_top" xlink:title="Defines some mathematical functions to be used in derived and other classes.">
<polygon fill="white" stroke="black" points="55,-57.5 55,-76.5 84,-76.5 84,-57.5 55,-57.5"/>
<text text-anchor="middle" x="69.5" y="-64.5" font-family="Helvetica,sans-Serif" font-size="10.00">M</text>
</a>
</g>
</g>
<!-- Node2&#45;&gt;Node1 -->
<g id="edge1" class="edge"><title>Node2&#45;&gt;Node1</title>
<path fill="none" stroke="midnightblue" d="M69.5,-47.1166C69.5,-37.8173 69.5,-27.0557 69.5,-19.7149"/>
<polygon fill="midnightblue" stroke="midnightblue" points="66.0001,-47.4062 69.5,-57.4063 73.0001,-47.4063 66.0001,-47.4062"/>
</g>
<!-- Node3 -->
<g id="node3" class="node"><title>Node3</title>
<g id="a_node3"><a xlink:title=" ">
<polygon fill="white" stroke="#bfbfbf" points="49,-135.5 49,-154.5 90,-154.5 90,-135.5 49,-135.5"/>
<text text-anchor="middle" x="69.5" y="-142.5" font-family="Helvetica,sans-Serif" font-size="10.00">static</text>
</a>
</g>
</g>
<!-- Node3&#45;&gt;Node2 -->
<g id="edge2" class="edge"><title>Node3&#45;&gt;Node2</title>
<path fill="none" stroke="#9a32cd" stroke-dasharray="5,2" d="M69.5,-125.224C69.5,-109.697 69.5,-88.3582 69.5,-76.6165"/>
<polygon fill="#9a32cd" stroke="#9a32cd" points="66.0001,-125.282 69.5,-135.282 73.0001,-125.282 66.0001,-125.282"/>
<text text-anchor="middle" x="120" y="-109" font-family="Helvetica,sans-Serif" font-size="10.00"> factorials64</text>
<text text-anchor="middle" x="120" y="-98" font-family="Helvetica,sans-Serif" font-size="10.00">factorialsArrayChecked</text>
</g>
</g>
</svg>
