<?xml version="1.0" encoding="UTF-8" standalone="no"?>
<!DOCTYPE svg PUBLIC "-//W3C//DTD SVG 1.1//EN"
 "http://www.w3.org/Graphics/SVG/1.1/DTD/svg11.dtd">
<!-- Generated by graphviz version 2.38.0 (20140413.2041)
 -->
<!-- Title: IG.Lib.CommandLineApplicationInterpreter.InterpreterPipeServer Pages: 1 -->
<svg width="284pt" height="319pt"
 viewBox="0.00 0.00 284.00 319.00" xmlns="http://www.w3.org/2000/svg" xmlns:xlink="http://www.w3.org/1999/xlink">
<g id="graph0" class="graph" transform="scale(1 1) rotate(0) translate(4 315)">
<title>IG.Lib.CommandLineApplicationInterpreter.InterpreterPipeServer</title>
<polygon fill="white" stroke="none" points="-4,4 -4,-315 280,-315 280,4 -4,4"/>
<!-- Node1 -->
<g id="node1" class="node"><title>Node1</title>
<g id="a_node1"><a xlink:title="Command&#45;line interpreter&#39;s server that creates a named pipe, listens on its input stream for client r...">
<polygon fill="#bfbfbf" stroke="black" points="0,-0.5 0,-30.5 155,-30.5 155,-0.5 0,-0.5"/>
<text text-anchor="start" x="8" y="-18.5" font-family="Helvetica,sans-Serif" font-size="10.00">IG.Lib.CommandLineApplication</text>
<text text-anchor="middle" x="77.5" y="-7.5" font-family="Helvetica,sans-Serif" font-size="10.00">Interpreter.InterpreterPipeServer</text>
</a>
</g>
</g>
<!-- Node2 -->
<g id="node2" class="node"><title>Node2</title>
<g id="a_node2"><a xlink:href="../../d3/d6a/classIG_1_1Lib_1_1NamedPipeServerBase.html" target="_top" xlink:title="Server that creates a named pipe, listens on its input stream, and sends responses to the client.">
<polygon fill="white" stroke="black" points="19.5,-67.5 19.5,-86.5 135.5,-86.5 135.5,-67.5 19.5,-67.5"/>
<text text-anchor="middle" x="77.5" y="-74.5" font-family="Helvetica,sans-Serif" font-size="10.00">NamedPipeServerBase</text>
</a>
</g>
</g>
<!-- Node2&#45;&gt;Node1 -->
<g id="edge1" class="edge"><title>Node2&#45;&gt;Node1</title>
<path fill="none" stroke="midnightblue" d="M77.5,-57.2349C77.5,-48.5864 77.5,-38.4969 77.5,-30.523"/>
<polygon fill="midnightblue" stroke="midnightblue" points="74.0001,-57.4751 77.5,-67.4751 81.0001,-57.4751 74.0001,-57.4751"/>
</g>
<!-- Node3 -->
<g id="node3" class="node"><title>Node3</title>
<g id="a_node3"><a xlink:href="../../d1/d4d/classIG_1_1Lib_1_1IpcStreamServerBase.html" target="_top" xlink:title="Server that creates a named pipe, listens on its input stream, and sends responses to the client.">
<polygon fill="white" stroke="black" points="64.5,-123.5 64.5,-142.5 174.5,-142.5 174.5,-123.5 64.5,-123.5"/>
<text text-anchor="middle" x="119.5" y="-130.5" font-family="Helvetica,sans-Serif" font-size="10.00">IpcStreamServerBase</text>
</a>
</g>
</g>
<!-- Node3&#45;&gt;Node2 -->
<g id="edge2" class="edge"><title>Node3&#45;&gt;Node2</title>
<path fill="none" stroke="midnightblue" d="M106.39,-115.144C99.0722,-105.736 90.2591,-94.4046 84.3064,-86.7511"/>
<polygon fill="midnightblue" stroke="midnightblue" points="103.662,-117.338 112.565,-123.083 109.188,-113.041 103.662,-117.338"/>
</g>
<!-- Node4 -->
<g id="node4" class="node"><title>Node4</title>
<g id="a_node4"><a xlink:href="../../da/d2c/classIG_1_1Lib_1_1IpcStreamClientServerBase2.html" target="_top" xlink:title="Base class for named pipe servers and clients, contains common stuff for both.">
<polygon fill="white" stroke="black" points="102.5,-179.5 102.5,-198.5 242.5,-198.5 242.5,-179.5 102.5,-179.5"/>
<text text-anchor="middle" x="172.5" y="-186.5" font-family="Helvetica,sans-Serif" font-size="10.00">IpcStreamClientServerBase2</text>
</a>
</g>
</g>
<!-- Node4&#45;&gt;Node3 -->
<g id="edge3" class="edge"><title>Node4&#45;&gt;Node3</title>
<path fill="none" stroke="midnightblue" d="M156.519,-171.718C147.178,-162.2 135.754,-150.561 128.089,-142.751"/>
<polygon fill="midnightblue" stroke="midnightblue" points="154.246,-174.398 163.748,-179.083 159.241,-169.494 154.246,-174.398"/>
</g>
<!-- Node5 -->
<g id="node5" class="node"><title>Node5</title>
<g id="a_node5"><a xlink:href="../../d5/dd9/classIG_1_1Lib_1_1IpcStreamClientServerBase.html" target="_top" xlink:title="Base class for client and server classes with stream&#45;based communication.">
<polygon fill="white" stroke="black" points="141,-235.5 141,-254.5 276,-254.5 276,-235.5 141,-235.5"/>
<text text-anchor="middle" x="208.5" y="-242.5" font-family="Helvetica,sans-Serif" font-size="10.00">IpcStreamClientServerBase</text>
</a>
</g>
</g>
<!-- Node5&#45;&gt;Node4 -->
<g id="edge4" class="edge"><title>Node5&#45;&gt;Node4</title>
<path fill="none" stroke="midnightblue" d="M196.877,-226.566C190.683,-217.275 183.332,-206.248 178.334,-198.751"/>
<polygon fill="midnightblue" stroke="midnightblue" points="194.096,-228.704 202.555,-235.083 199.92,-224.821 194.096,-228.704"/>
</g>
<!-- Node6 -->
<g id="node6" class="node"><title>Node6</title>
<g id="a_node6"><a xlink:href="../../d3/db6/interfaceIG_1_1Lib_1_1ILockable.html" target="_top" xlink:title="Lockable object, has a Lock property that returns object on which lock must be performed in order to ...">
<polygon fill="white" stroke="black" points="64.5,-291.5 64.5,-310.5 122.5,-310.5 122.5,-291.5 64.5,-291.5"/>
<text text-anchor="middle" x="93.5" y="-298.5" font-family="Helvetica,sans-Serif" font-size="10.00">ILockable</text>
</a>
</g>
</g>
<!-- Node6&#45;&gt;Node2 -->
<g id="edge8" class="edge"><title>Node6&#45;&gt;Node2</title>
<path fill="none" stroke="midnightblue" d="M87.5573,-281.675C78.4864,-252.641 61.5976,-194.113 55.5,-143 54.4471,-134.174 53.4964,-131.66 55.5,-123 58.6363,-109.444 66.446,-95.255 71.8622,-86.5194"/>
<polygon fill="midnightblue" stroke="midnightblue" points="84.2462,-282.813 90.6122,-291.282 90.917,-280.691 84.2462,-282.813"/>
</g>
<!-- Node6&#45;&gt;Node3 -->
<g id="edge7" class="edge"><title>Node6&#45;&gt;Node3</title>
<path fill="none" stroke="midnightblue" d="M90.5602,-281.376C87.4171,-257.278 84.0601,-214.208 93.5,-179 97.1919,-165.23 106.231,-151.316 112.61,-142.681"/>
<polygon fill="midnightblue" stroke="midnightblue" points="87.0983,-281.892 91.9858,-291.292 94.027,-280.896 87.0983,-281.892"/>
</g>
<!-- Node6&#45;&gt;Node4 -->
<g id="edge6" class="edge"><title>Node6&#45;&gt;Node4</title>
<path fill="none" stroke="midnightblue" d="M102.638,-282.113C109.803,-268.69 120.394,-250.106 131.5,-235 141.392,-221.546 154.691,-207.558 163.424,-198.82"/>
<polygon fill="midnightblue" stroke="midnightblue" points="99.404,-280.744 97.8737,-291.227 105.608,-283.986 99.404,-280.744"/>
</g>
<!-- Node6&#45;&gt;Node5 -->
<g id="edge5" class="edge"><title>Node6&#45;&gt;Node5</title>
<path fill="none" stroke="midnightblue" d="M120.981,-287.096C142.466,-277.007 171.722,-263.27 190.363,-254.516"/>
<polygon fill="midnightblue" stroke="midnightblue" points="119.286,-284.025 111.722,-291.444 122.262,-290.361 119.286,-284.025"/>
</g>
</g>
</svg>
