<?xml version="1.0" encoding="UTF-8" standalone="no"?>
<!DOCTYPE svg PUBLIC "-//W3C//DTD SVG 1.1//EN"
 "http://www.w3.org/Graphics/SVG/1.1/DTD/svg11.dtd">
<!-- Generated by graphviz version 2.38.0 (20140413.2041)
 -->
<!-- Title: IG.Num.OptimizationDataBase Pages: 1 -->
<svg width="228pt" height="106pt"
 viewBox="0.00 0.00 227.50 106.00" xmlns="http://www.w3.org/2000/svg" xmlns:xlink="http://www.w3.org/1999/xlink">
<g id="graph0" class="graph" transform="scale(1 1) rotate(0) translate(4 102)">
<title>IG.Num.OptimizationDataBase</title>
<polygon fill="white" stroke="none" points="-4,4 -4,-102 223.5,-102 223.5,4 -4,4"/>
<!-- Node1 -->
<g id="node1" class="node"><title>Node1</title>
<g id="a_node1"><a xlink:title="Base class for holding information about optimization data and algorithm parameters.">
<polygon fill="#bfbfbf" stroke="black" points="31,-0.5 31,-19.5 181,-19.5 181,-0.5 31,-0.5"/>
<text text-anchor="middle" x="106" y="-7.5" font-family="Helvetica,sans-Serif" font-size="10.00">IG.Num.OptimizationDataBase</text>
</a>
</g>
</g>
<!-- Node2 -->
<g id="node2" class="node"><title>Node2</title>
<g id="a_node2"><a xlink:href="../../dd/d7b/interfaceIG_1_1Num_1_1IOptimizationData.html" target="_top" xlink:title="Information about optimization data and algorithm parameters.">
<polygon fill="white" stroke="black" points="0,-78.5 0,-97.5 94,-97.5 94,-78.5 0,-78.5"/>
<text text-anchor="middle" x="47" y="-85.5" font-family="Helvetica,sans-Serif" font-size="10.00">IOptimizationData</text>
</a>
</g>
</g>
<!-- Node2&#45;&gt;Node1 -->
<g id="edge1" class="edge"><title>Node2&#45;&gt;Node1</title>
<path fill="none" stroke="midnightblue" d="M60.193,-70.0056C72.3317,-54.3693 89.8416,-31.8142 99.3109,-19.6165"/>
<polygon fill="midnightblue" stroke="midnightblue" points="57.1356,-68.2364 53.7681,-78.2818 62.665,-72.529 57.1356,-68.2364"/>
</g>
<!-- Node3 -->
<g id="node3" class="node"><title>Node3</title>
<g id="a_node3"><a xlink:href="../../d3/d24/interfaceIG_1_1Num_1_1IVector.html" target="_top" xlink:title="Generic Vector interface">
<polygon fill="white" stroke="black" points="112.5,-78.5 112.5,-97.5 219.5,-97.5 219.5,-78.5 112.5,-78.5"/>
<text text-anchor="middle" x="166" y="-85.5" font-family="Helvetica,sans-Serif" font-size="10.00">IG.Num.IVector&lt; T &gt;</text>
</a>
</g>
</g>
<!-- Node3&#45;&gt;Node1 -->
<g id="edge2" class="edge"><title>Node3&#45;&gt;Node1</title>
<path fill="none" stroke="#9a32cd" stroke-dasharray="5,2" d="M152.583,-70.0056C140.239,-54.3693 122.432,-31.8142 112.802,-19.6165"/>
<polygon fill="#9a32cd" stroke="#9a32cd" points="150.174,-72.6018 159.117,-78.2818 155.668,-68.2642 150.174,-72.6018"/>
<text text-anchor="middle" x="174" y="-52" font-family="Helvetica,sans-Serif" font-size="10.00"> _initialGuess</text>
<text text-anchor="middle" x="174" y="-41" font-family="Helvetica,sans-Serif" font-size="10.00">_initialStep</text>
</g>
</g>
</svg>
