<?xml version="1.0" encoding="UTF-8" standalone="no"?>
<!DOCTYPE svg PUBLIC "-//W3C//DTD SVG 1.1//EN"
 "http://www.w3.org/Graphics/SVG/1.1/DTD/svg11.dtd">
<!-- Generated by graphviz version 2.38.0 (20140413.2041)
 -->
<!-- Title: IG.Num.ScalarFunctionRadialParametric Pages: 1 -->
<svg width="395pt" height="330pt"
 viewBox="0.00 0.00 395.00 330.00" xmlns="http://www.w3.org/2000/svg" xmlns:xlink="http://www.w3.org/1999/xlink">
<g id="graph0" class="graph" transform="scale(1 1) rotate(0) translate(4 326)">
<title>IG.Num.ScalarFunctionRadialParametric</title>
<polygon fill="white" stroke="none" points="-4,4 -4,-326 391,-326 391,4 -4,4"/>
<!-- Node1 -->
<g id="node1" class="node"><title>Node1</title>
<g id="a_node1"><a xlink:title="Parametric scalar function.">
<polygon fill="#bfbfbf" stroke="black" points="155,-67.5 155,-97.5 300,-97.5 300,-67.5 155,-67.5"/>
<text text-anchor="start" x="163" y="-85.5" font-family="Helvetica,sans-Serif" font-size="10.00">IG.Num.ScalarFunctionRadial</text>
<text text-anchor="middle" x="227.5" y="-74.5" font-family="Helvetica,sans-Serif" font-size="10.00">Parametric</text>
</a>
</g>
</g>
<!-- Node8 -->
<g id="node8" class="node"><title>Node8</title>
<g id="a_node8"><a xlink:href="../../d1/dd8/classIG_1_1Num_1_1ScalarFunctionRadialOneParametric.html" target="_top" xlink:title="Base class for one parametric families of radial scalar functions with affine transformation of co&#45;or...">
<polygon fill="white" stroke="black" points="155,-0.5 155,-30.5 300,-30.5 300,-0.5 155,-0.5"/>
<text text-anchor="start" x="163" y="-18.5" font-family="Helvetica,sans-Serif" font-size="10.00">IG.Num.ScalarFunctionRadial</text>
<text text-anchor="middle" x="227.5" y="-7.5" font-family="Helvetica,sans-Serif" font-size="10.00">OneParametric</text>
</a>
</g>
</g>
<!-- Node1&#45;&gt;Node8 -->
<g id="edge11" class="edge"><title>Node1&#45;&gt;Node8</title>
<path fill="none" stroke="midnightblue" d="M227.5,-57.1081C227.5,-48.1539 227.5,-38.3227 227.5,-30.5765"/>
<polygon fill="midnightblue" stroke="midnightblue" points="224,-57.3959 227.5,-67.396 231,-57.396 224,-57.3959"/>
</g>
<!-- Node2 -->
<g id="node2" class="node"><title>Node2</title>
<g id="a_node2"><a xlink:href="../../df/dd1/classIG_1_1Num_1_1ScalarFunctionRadial.html" target="_top" xlink:title="Radial scalar functions.">
<polygon fill="white" stroke="black" points="90,-134.5 90,-153.5 199,-153.5 199,-134.5 90,-134.5"/>
<text text-anchor="middle" x="144.5" y="-141.5" font-family="Helvetica,sans-Serif" font-size="10.00">ScalarFunctionRadial</text>
</a>
</g>
</g>
<!-- Node2&#45;&gt;Node1 -->
<g id="edge1" class="edge"><title>Node2&#45;&gt;Node1</title>
<path fill="none" stroke="midnightblue" d="M164.772,-128.468C177.913,-119.047 194.941,-106.841 207.939,-97.523"/>
<polygon fill="midnightblue" stroke="midnightblue" points="162.48,-125.804 156.392,-134.475 166.559,-131.493 162.48,-125.804"/>
</g>
<!-- Node3 -->
<g id="node3" class="node"><title>Node3</title>
<g id="a_node3"><a xlink:href="../../d2/d85/classIG_1_1Num_1_1ScalarFunctionBase.html" target="_top" xlink:title="Base class for scalar functions with affine transformation of co&#45;ordinates. The reference function is...">
<polygon fill="white" stroke="black" points="57.5,-190.5 57.5,-209.5 161.5,-209.5 161.5,-190.5 57.5,-190.5"/>
<text text-anchor="middle" x="109.5" y="-197.5" font-family="Helvetica,sans-Serif" font-size="10.00">ScalarFunctionBase</text>
</a>
</g>
</g>
<!-- Node3&#45;&gt;Node2 -->
<g id="edge2" class="edge"><title>Node3&#45;&gt;Node2</title>
<path fill="none" stroke="midnightblue" d="M120.8,-181.566C126.822,-172.275 133.969,-161.248 138.828,-153.751"/>
<polygon fill="midnightblue" stroke="midnightblue" points="117.781,-179.788 115.28,-190.083 123.656,-183.595 117.781,-179.788"/>
</g>
<!-- Node4 -->
<g id="node4" class="node"><title>Node4</title>
<g id="a_node4"><a xlink:href="../../d2/d9e/classIG_1_1Num_1_1ScalarFunctionUntransformedBase.html" target="_top" xlink:title="Base class for defining scalar functions without possibility of affine transformation of parameters.">
<polygon fill="white" stroke="black" points="0,-246.5 0,-265.5 167,-265.5 167,-246.5 0,-246.5"/>
<text text-anchor="middle" x="83.5" y="-253.5" font-family="Helvetica,sans-Serif" font-size="10.00">ScalarFunctionUntransformedBase</text>
</a>
</g>
</g>
<!-- Node4&#45;&gt;Node3 -->
<g id="edge3" class="edge"><title>Node4&#45;&gt;Node3</title>
<path fill="none" stroke="midnightblue" d="M92.175,-236.983C96.5882,-227.817 101.752,-217.092 105.287,-209.751"/>
<polygon fill="midnightblue" stroke="midnightblue" points="88.9781,-235.555 87.7934,-246.083 95.2851,-238.591 88.9781,-235.555"/>
</g>
<!-- Node5 -->
<g id="node5" class="node"><title>Node5</title>
<g id="a_node5"><a xlink:href="../../d8/d56/interfaceIG_1_1Num_1_1IScalarFunctionUntransformed.html" target="_top" xlink:title="Scalar functions of vector arguments.">
<polygon fill="white" stroke="black" points="82,-302.5 82,-321.5 229,-321.5 229,-302.5 82,-302.5"/>
<text text-anchor="middle" x="155.5" y="-309.5" font-family="Helvetica,sans-Serif" font-size="10.00">IScalarFunctionUntransformed</text>
</a>
</g>
</g>
<!-- Node5&#45;&gt;Node4 -->
<g id="edge4" class="edge"><title>Node5&#45;&gt;Node4</title>
<path fill="none" stroke="midnightblue" d="M135.634,-296.101C122.677,-286.382 106.203,-274.027 95.2785,-265.834"/>
<polygon fill="midnightblue" stroke="midnightblue" points="133.832,-299.124 143.932,-302.324 138.032,-293.524 133.832,-299.124"/>
</g>
<!-- Node6 -->
<g id="node6" class="node"><title>Node6</title>
<g id="a_node6"><a xlink:href="../../dd/d1e/interfaceIG_1_1Num_1_1IScalarFunction.html" target="_top" xlink:title="Scalar functions of vector arguments, with eventual affine transformation of parameters....">
<polygon fill="white" stroke="black" points="185.5,-246.5 185.5,-265.5 269.5,-265.5 269.5,-246.5 185.5,-246.5"/>
<text text-anchor="middle" x="227.5" y="-253.5" font-family="Helvetica,sans-Serif" font-size="10.00">IScalarFunction</text>
</a>
</g>
</g>
<!-- Node5&#45;&gt;Node6 -->
<g id="edge6" class="edge"><title>Node5&#45;&gt;Node6</title>
<path fill="none" stroke="midnightblue" d="M175.366,-296.101C188.323,-286.382 204.797,-274.027 215.721,-265.834"/>
<polygon fill="midnightblue" stroke="midnightblue" points="172.968,-293.524 167.068,-302.324 177.168,-299.124 172.968,-293.524"/>
</g>
<!-- Node6&#45;&gt;Node1 -->
<g id="edge8" class="edge"><title>Node6&#45;&gt;Node1</title>
<path fill="none" stroke="midnightblue" d="M227.5,-236.095C227.5,-201.454 227.5,-128.534 227.5,-97.7228"/>
<polygon fill="midnightblue" stroke="midnightblue" points="224,-236.259 227.5,-246.26 231,-236.26 224,-236.259"/>
</g>
<!-- Node6&#45;&gt;Node2 -->
<g id="edge7" class="edge"><title>Node6&#45;&gt;Node2</title>
<path fill="none" stroke="midnightblue" d="M214.878,-238.272C196.937,-214.494 164.713,-171.789 150.983,-153.591"/>
<polygon fill="midnightblue" stroke="midnightblue" points="212.17,-240.494 220.987,-246.368 217.758,-236.278 212.17,-240.494"/>
</g>
<!-- Node6&#45;&gt;Node3 -->
<g id="edge5" class="edge"><title>Node6&#45;&gt;Node3</title>
<path fill="none" stroke="midnightblue" d="M199.6,-242.232C177.527,-232.131 147.324,-218.309 128.11,-209.516"/>
<polygon fill="midnightblue" stroke="midnightblue" points="198.253,-245.465 208.803,-246.444 201.166,-239.1 198.253,-245.465"/>
</g>
<!-- Node7 -->
<g id="node7" class="node"><title>Node7</title>
<g id="a_node7"><a xlink:href="../../d4/d4e/interfaceIG_1_1Num_1_1IScalarFunctionParametric.html" target="_top" xlink:title="Parameterized scalar functions with affine transformation of coordinates.">
<polygon fill="white" stroke="black" points="256,-134.5 256,-153.5 387,-153.5 387,-134.5 256,-134.5"/>
<text text-anchor="middle" x="321.5" y="-141.5" font-family="Helvetica,sans-Serif" font-size="10.00">IScalarFunctionParametric</text>
</a>
</g>
</g>
<!-- Node6&#45;&gt;Node7 -->
<g id="edge10" class="edge"><title>Node6&#45;&gt;Node7</title>
<path fill="none" stroke="midnightblue" d="M241.527,-238.586C261.792,-214.871 298.539,-171.869 314.158,-153.591"/>
<polygon fill="midnightblue" stroke="midnightblue" points="238.712,-236.492 234.876,-246.368 244.033,-241.04 238.712,-236.492"/>
</g>
<!-- Node7&#45;&gt;Node1 -->
<g id="edge9" class="edge"><title>Node7&#45;&gt;Node1</title>
<path fill="none" stroke="midnightblue" d="M299.396,-129.008C284.402,-119.518 264.658,-107.02 249.654,-97.523"/>
<polygon fill="midnightblue" stroke="midnightblue" points="297.711,-132.084 308.032,-134.475 301.454,-126.169 297.711,-132.084"/>
</g>
</g>
</svg>
