<?xml version="1.0" encoding="UTF-8" standalone="no"?>
<!DOCTYPE svg PUBLIC "-//W3C//DTD SVG 1.1//EN"
 "http://www.w3.org/Graphics/SVG/1.1/DTD/svg11.dtd">
<!-- Generated by graphviz version 2.38.0 (20140413.2041)
 -->
<!-- Title: IG.Lib.DataStore Pages: 1 -->
<svg width="97pt" height="152pt"
 viewBox="0.00 0.00 97.00 152.00" xmlns="http://www.w3.org/2000/svg" xmlns:xlink="http://www.w3.org/1999/xlink">
<g id="graph0" class="graph" transform="scale(1 1) rotate(0) translate(4 148)">
<title>IG.Lib.DataStore</title>
<polygon fill="white" stroke="none" points="-4,4 -4,-148 93,-148 93,4 -4,4"/>
<!-- Node1 -->
<g id="node1" class="node"><title>Node1</title>
<g id="a_node1"><a xlink:title="XML&#45;based data class. Doc container is accessed through the Doc property, which is of class XmlData,...">
<polygon fill="#bfbfbf" stroke="black" points="0,-0.5 0,-19.5 89,-19.5 89,-0.5 0,-0.5"/>
<text text-anchor="middle" x="44.5" y="-7.5" font-family="Helvetica,sans-Serif" font-size="10.00">IG.Lib.DataStore</text>
</a>
</g>
</g>
<!-- Node2 -->
<g id="node2" class="node"><title>Node2</title>
<g id="a_node2"><a xlink:href="../../d8/dd1/classIG_1_1Lib_1_1XmlData.html" target="_top" xlink:title="XmlDocument extended by additional functionality for managing complex data units. In applications,...">
<polygon fill="white" stroke="black" points="4,-67.5 4,-86.5 85,-86.5 85,-67.5 4,-67.5"/>
<text text-anchor="middle" x="44.5" y="-74.5" font-family="Helvetica,sans-Serif" font-size="10.00">IG.Lib.XmlData</text>
</a>
</g>
</g>
<!-- Node2&#45;&gt;Node1 -->
<g id="edge1" class="edge"><title>Node2&#45;&gt;Node1</title>
<path fill="none" stroke="#9a32cd" stroke-dasharray="5,2" d="M44.5,-57.037C44.5,-44.6703 44.5,-29.1198 44.5,-19.6273"/>
<polygon fill="#9a32cd" stroke="#9a32cd" points="41.0001,-57.2338 44.5,-67.2338 48.0001,-57.2338 41.0001,-57.2338"/>
<text text-anchor="middle" x="59" y="-41" font-family="Helvetica,sans-Serif" font-size="10.00"> _Data</text>
</g>
<!-- Node3 -->
<g id="node3" class="node"><title>Node3</title>
<g id="a_node3"><a xlink:title=" ">
<polygon fill="white" stroke="#bfbfbf" points="6,-124.5 6,-143.5 83,-143.5 83,-124.5 6,-124.5"/>
<text text-anchor="middle" x="44.5" y="-131.5" font-family="Helvetica,sans-Serif" font-size="10.00">XmlDocument</text>
</a>
</g>
</g>
<!-- Node3&#45;&gt;Node2 -->
<g id="edge2" class="edge"><title>Node3&#45;&gt;Node2</title>
<path fill="none" stroke="midnightblue" d="M44.5,-114.117C44.5,-104.817 44.5,-94.0557 44.5,-86.7149"/>
<polygon fill="midnightblue" stroke="midnightblue" points="41.0001,-114.406 44.5,-124.406 48.0001,-114.406 41.0001,-114.406"/>
</g>
</g>
</svg>
