<?xml version="1.0" encoding="UTF-8" standalone="no"?>
<!DOCTYPE svg PUBLIC "-//W3C//DTD SVG 1.1//EN"
 "http://www.w3.org/Graphics/SVG/1.1/DTD/svg11.dtd">
<!-- Generated by graphviz version 2.38.0 (20140413.2041)
 -->
<!-- Title: IG.Num.ParallelJobDispatcherBase&lt; JobContainerType &gt; Pages: 1 -->
<svg width="398pt" height="117pt"
 viewBox="0.00 0.00 397.50 117.00" xmlns="http://www.w3.org/2000/svg" xmlns:xlink="http://www.w3.org/1999/xlink">
<g id="graph0" class="graph" transform="scale(1 1) rotate(0) translate(4 113)">
<title>IG.Num.ParallelJobDispatcherBase&lt; JobContainerType &gt;</title>
<polygon fill="white" stroke="none" points="-4,4 -4,-113 393.5,-113 393.5,4 -4,4"/>
<!-- Node1 -->
<g id="node1" class="node"><title>Node1</title>
<g id="a_node1"><a xlink:title="Parallel job dispatcher. Accepts job requests and dispatches jobs to parallel job servers when availa...">
<polygon fill="#bfbfbf" stroke="black" points="147.5,-0.5 147.5,-30.5 293.5,-30.5 293.5,-0.5 147.5,-0.5"/>
<text text-anchor="start" x="155.5" y="-18.5" font-family="Helvetica,sans-Serif" font-size="10.00">IG.Num.ParallelJobDispatcher</text>
<text text-anchor="middle" x="220.5" y="-7.5" font-family="Helvetica,sans-Serif" font-size="10.00">Base&lt; JobContainerType &gt;</text>
</a>
</g>
</g>
<!-- Node2 -->
<g id="node2" class="node"><title>Node2</title>
<g id="a_node2"><a xlink:title=" ">
<polygon fill="white" stroke="#bfbfbf" points="0,-89.5 0,-108.5 133,-108.5 133,-89.5 0,-89.5"/>
<text text-anchor="middle" x="66.5" y="-96.5" font-family="Helvetica,sans-Serif" font-size="10.00">ParallelJobDispatcherBase</text>
</a>
</g>
</g>
<!-- Node2&#45;&gt;Node1 -->
<g id="edge1" class="edge"><title>Node2&#45;&gt;Node1</title>
<path fill="none" stroke="midnightblue" d="M91.8948,-84.5605C120.093,-69.6374 165.4,-45.6603 194.026,-30.5107"/>
<polygon fill="midnightblue" stroke="midnightblue" points="89.8911,-81.661 82.6896,-89.4321 93.1654,-87.848 89.8911,-81.661"/>
</g>
<!-- Node3 -->
<g id="node3" class="node"><title>Node3</title>
<g id="a_node3"><a xlink:href="../../d3/db6/interfaceIG_1_1Lib_1_1ILockable.html" target="_top" xlink:title="Lockable object, has a Lock property that returns object on which lock must be performed in order to ...">
<polygon fill="white" stroke="black" points="151.5,-89.5 151.5,-108.5 209.5,-108.5 209.5,-89.5 151.5,-89.5"/>
<text text-anchor="middle" x="180.5" y="-96.5" font-family="Helvetica,sans-Serif" font-size="10.00">ILockable</text>
</a>
</g>
</g>
<!-- Node3&#45;&gt;Node1 -->
<g id="edge2" class="edge"><title>Node3&#45;&gt;Node1</title>
<path fill="none" stroke="midnightblue" d="M189.288,-80.0944C196.594,-65.2085 206.849,-44.3143 213.581,-30.5974"/>
<polygon fill="midnightblue" stroke="midnightblue" points="186.045,-78.7589 184.781,-89.2781 192.329,-81.8431 186.045,-78.7589"/>
</g>
<!-- Node4 -->
<g id="node4" class="node"><title>Node4</title>
<g id="a_node4"><a xlink:href="../../dc/d79/interfaceIG_1_1Lib_1_1IIdentifiable.html" target="_top" xlink:title="Classes whose instances have unique integer IDs.">
<polygon fill="white" stroke="black" points="228,-89.5 228,-108.5 293,-108.5 293,-89.5 228,-89.5"/>
<text text-anchor="middle" x="260.5" y="-96.5" font-family="Helvetica,sans-Serif" font-size="10.00">IIdentifiable</text>
</a>
</g>
</g>
<!-- Node4&#45;&gt;Node1 -->
<g id="edge3" class="edge"><title>Node4&#45;&gt;Node1</title>
<path fill="none" stroke="midnightblue" d="M251.712,-80.0944C244.406,-65.2085 234.151,-44.3143 227.419,-30.5974"/>
<polygon fill="midnightblue" stroke="midnightblue" points="248.671,-81.8431 256.219,-89.2781 254.955,-78.7589 248.671,-81.8431"/>
</g>
<!-- Node5 -->
<g id="node5" class="node"><title>Node5</title>
<g id="a_node5"><a xlink:title=" ">
<polygon fill="white" stroke="#bfbfbf" points="311,-89.5 311,-108.5 352,-108.5 352,-89.5 311,-89.5"/>
<text text-anchor="middle" x="331.5" y="-96.5" font-family="Helvetica,sans-Serif" font-size="10.00">static</text>
</a>
</g>
</g>
<!-- Node5&#45;&gt;Node1 -->
<g id="edge4" class="edge"><title>Node5&#45;&gt;Node1</title>
<path fill="none" stroke="#9a32cd" stroke-dasharray="5,2" d="M311.365,-83.2162C290.994,-68.2594 259.729,-45.3035 239.7,-30.5974"/>
<polygon fill="#9a32cd" stroke="#9a32cd" points="309.489,-86.1809 319.621,-89.2781 313.632,-80.5385 309.489,-86.1809"/>
<text text-anchor="middle" x="341" y="-63" font-family="Helvetica,sans-Serif" font-size="10.00"> _defaultSleepTimeMs</text>
<text text-anchor="middle" x="341" y="-52" font-family="Helvetica,sans-Serif" font-size="10.00">_nextId</text>
</g>
</g>
</svg>
