<?xml version="1.0" encoding="UTF-8" standalone="no"?>
<!DOCTYPE svg PUBLIC "-//W3C//DTD SVG 1.1//EN"
 "http://www.w3.org/Graphics/SVG/1.1/DTD/svg11.dtd">
<!-- Generated by graphviz version 2.38.0 (20140413.2041)
 -->
<!-- Title: IG.Num.OptimizerBase Pages: 1 -->
<svg width="490pt" height="152pt"
 viewBox="0.00 0.00 489.50 152.00" xmlns="http://www.w3.org/2000/svg" xmlns:xlink="http://www.w3.org/1999/xlink">
<g id="graph0" class="graph" transform="scale(1 1) rotate(0) translate(4 148)">
<title>IG.Num.OptimizerBase</title>
<polygon fill="white" stroke="none" points="-4,4 -4,-148 485.5,-148 485.5,4 -4,4"/>
<!-- Node1 -->
<g id="node1" class="node"><title>Node1</title>
<g id="a_node1"><a xlink:title=" ">
<polygon fill="#bfbfbf" stroke="black" points="135,-0.5 135,-19.5 252,-19.5 252,-0.5 135,-0.5"/>
<text text-anchor="middle" x="193.5" y="-7.5" font-family="Helvetica,sans-Serif" font-size="10.00">IG.Num.OptimizerBase</text>
</a>
</g>
</g>
<!-- Node2 -->
<g id="node2" class="node"><title>Node2</title>
<g id="a_node2"><a xlink:href="../../dd/d98/interfaceIG_1_1Num_1_1IOptimizer.html" target="_top" xlink:title="Interface for optimization algorithms. $A Igor Feb10;">
<polygon fill="white" stroke="black" points="0,-67.5 0,-86.5 61,-86.5 61,-67.5 0,-67.5"/>
<text text-anchor="middle" x="30.5" y="-74.5" font-family="Helvetica,sans-Serif" font-size="10.00">IOptimizer</text>
</a>
</g>
</g>
<!-- Node2&#45;&gt;Node1 -->
<g id="edge1" class="edge"><title>Node2&#45;&gt;Node1</title>
<path fill="none" stroke="midnightblue" d="M61.585,-63.6041C93.9486,-50.6984 143.78,-30.8272 172.025,-19.5637"/>
<polygon fill="midnightblue" stroke="midnightblue" points="60.1374,-60.4133 52.1451,-67.3685 62.7303,-66.9154 60.1374,-60.4133"/>
</g>
<!-- Node3 -->
<g id="node3" class="node"><title>Node3</title>
<g id="a_node3"><a xlink:href="../../d3/db6/interfaceIG_1_1Lib_1_1ILockable.html" target="_top" xlink:title="Lockable object, has a Lock property that returns object on which lock must be performed in order to ...">
<polygon fill="white" stroke="black" points="1.5,-124.5 1.5,-143.5 59.5,-143.5 59.5,-124.5 1.5,-124.5"/>
<text text-anchor="middle" x="30.5" y="-131.5" font-family="Helvetica,sans-Serif" font-size="10.00">ILockable</text>
</a>
</g>
</g>
<!-- Node3&#45;&gt;Node2 -->
<g id="edge2" class="edge"><title>Node3&#45;&gt;Node2</title>
<path fill="none" stroke="midnightblue" d="M30.5,-114.117C30.5,-104.817 30.5,-94.0557 30.5,-86.7149"/>
<polygon fill="midnightblue" stroke="midnightblue" points="27.0001,-114.406 30.5,-124.406 34.0001,-114.406 27.0001,-114.406"/>
</g>
<!-- Node4 -->
<g id="node4" class="node"><title>Node4</title>
<g id="a_node4"><a xlink:href="../../d5/d59/interfaceIG_1_1Num_1_1IAnalysis.html" target="_top" xlink:title="Interface for direct analysis classes used in optimization problems.">
<polygon fill="white" stroke="black" points="79.5,-67.5 79.5,-86.5 171.5,-86.5 171.5,-67.5 79.5,-67.5"/>
<text text-anchor="middle" x="125.5" y="-74.5" font-family="Helvetica,sans-Serif" font-size="10.00">IG.Num.IAnalysis</text>
</a>
</g>
</g>
<!-- Node4&#45;&gt;Node1 -->
<g id="edge3" class="edge"><title>Node4&#45;&gt;Node1</title>
<path fill="none" stroke="#9a32cd" stroke-dasharray="5,2" d="M142.242,-59.9968C155.577,-47.2496 173.733,-29.8947 184.475,-19.6273"/>
<polygon fill="#9a32cd" stroke="#9a32cd" points="139.481,-57.7939 134.671,-67.2338 144.318,-62.854 139.481,-57.7939"/>
<text text-anchor="middle" x="187" y="-41" font-family="Helvetica,sans-Serif" font-size="10.00"> _analysis</text>
</g>
<!-- Node5 -->
<g id="node5" class="node"><title>Node5</title>
<g id="a_node5"><a xlink:href="../../dd/ded/interfaceIG_1_1Num_1_1IOptimizationResults.html" target="_top" xlink:title="Storage of optimization results. Stores optimal results, best current guess, etc.">
<polygon fill="white" stroke="black" points="190,-67.5 190,-86.5 333,-86.5 333,-67.5 190,-67.5"/>
<text text-anchor="middle" x="261.5" y="-74.5" font-family="Helvetica,sans-Serif" font-size="10.00">IG.Num.IOptimizationResults</text>
</a>
</g>
</g>
<!-- Node5&#45;&gt;Node1 -->
<g id="edge4" class="edge"><title>Node5&#45;&gt;Node1</title>
<path fill="none" stroke="#9a32cd" stroke-dasharray="5,2" d="M244.758,-59.9968C231.423,-47.2496 213.267,-29.8947 202.525,-19.6273"/>
<polygon fill="#9a32cd" stroke="#9a32cd" points="242.682,-62.854 252.329,-67.2338 247.519,-57.7939 242.682,-62.854"/>
<text text-anchor="middle" x="279.5" y="-41" font-family="Helvetica,sans-Serif" font-size="10.00"> _optimizationResults</text>
</g>
<!-- Node6 -->
<g id="node6" class="node"><title>Node6</title>
<g id="a_node6"><a xlink:href="../../dd/d7b/interfaceIG_1_1Num_1_1IOptimizationData.html" target="_top" xlink:title="Information about optimization data and algorithm parameters.">
<polygon fill="white" stroke="black" points="351.5,-67.5 351.5,-86.5 481.5,-86.5 481.5,-67.5 351.5,-67.5"/>
<text text-anchor="middle" x="416.5" y="-74.5" font-family="Helvetica,sans-Serif" font-size="10.00">IG.Num.IOptimizationData</text>
</a>
</g>
</g>
<!-- Node6&#45;&gt;Node1 -->
<g id="edge5" class="edge"><title>Node6&#45;&gt;Node1</title>
<path fill="none" stroke="#9a32cd" stroke-dasharray="5,2" d="M390.955,-62.9214C374.144,-54.7668 351.453,-44.6039 330.5,-38 305.067,-29.984 276.196,-23.8717 251.537,-19.5071"/>
<polygon fill="#9a32cd" stroke="#9a32cd" points="389.6,-66.1559 400.116,-67.4486 392.701,-59.8804 389.6,-66.1559"/>
<text text-anchor="middle" x="401.5" y="-41" font-family="Helvetica,sans-Serif" font-size="10.00"> _optimizationData</text>
</g>
</g>
</svg>
