<?xml version="1.0" encoding="UTF-8" standalone="no"?>
<!DOCTYPE svg PUBLIC "-//W3C//DTD SVG 1.1//EN"
 "http://www.w3.org/Graphics/SVG/1.1/DTD/svg11.dtd">
<!-- Generated by graphviz version 2.38.0 (20140413.2041)
 -->
<!-- Title: IGLib.CoreExtended.ReflectionTypeConverter Pages: 1 -->
<svg width="157pt" height="207pt"
 viewBox="0.00 0.00 157.00 207.00" xmlns="http://www.w3.org/2000/svg" xmlns:xlink="http://www.w3.org/1999/xlink">
<g id="graph0" class="graph" transform="scale(1 1) rotate(0) translate(4 203)">
<title>IGLib.CoreExtended.ReflectionTypeConverter</title>
<polygon fill="white" stroke="none" points="-4,4 -4,-203 153,-203 153,4 -4,4"/>
<!-- Node1 -->
<g id="node1" class="node"><title>Node1</title>
<g id="a_node1"><a xlink:title="A type converter that supports implicit/explicit conversion operators via reflection,...">
<polygon fill="#bfbfbf" stroke="black" points="0,-0.5 0,-30.5 149,-30.5 149,-0.5 0,-0.5"/>
<text text-anchor="start" x="8" y="-18.5" font-family="Helvetica,sans-Serif" font-size="10.00">IGLib.CoreExtended.Reflection</text>
<text text-anchor="middle" x="74.5" y="-7.5" font-family="Helvetica,sans-Serif" font-size="10.00">TypeConverter</text>
</a>
</g>
</g>
<!-- Node2 -->
<g id="node2" class="node"><title>Node2</title>
<g id="a_node2"><a xlink:href="../../d3/d3d/classIGLib_1_1Core_1_1CollectionTypeConverter.html" target="_top" xlink:title="A type converter that supports conversion between basic types and a wide range of collection types,...">
<polygon fill="white" stroke="black" points="14,-67.5 14,-86.5 135,-86.5 135,-67.5 14,-67.5"/>
<text text-anchor="middle" x="74.5" y="-74.5" font-family="Helvetica,sans-Serif" font-size="10.00">CollectionTypeConverter</text>
</a>
</g>
</g>
<!-- Node2&#45;&gt;Node1 -->
<g id="edge1" class="edge"><title>Node2&#45;&gt;Node1</title>
<path fill="none" stroke="midnightblue" d="M74.5,-57.2349C74.5,-48.5864 74.5,-38.4969 74.5,-30.523"/>
<polygon fill="midnightblue" stroke="midnightblue" points="71.0001,-57.4751 74.5,-67.4751 78.0001,-57.4751 71.0001,-57.4751"/>
</g>
<!-- Node3 -->
<g id="node3" class="node"><title>Node3</title>
<g id="a_node3"><a xlink:href="../../d9/d23/classIGLib_1_1Core_1_1BasicTypeConverter.html" target="_top" xlink:title="Provides basic type conversion functionality using IConvertible and nullable handling.">
<polygon fill="white" stroke="black" points="23,-123.5 23,-142.5 126,-142.5 126,-123.5 23,-123.5"/>
<text text-anchor="middle" x="74.5" y="-130.5" font-family="Helvetica,sans-Serif" font-size="10.00">BasicTypeConverter</text>
</a>
</g>
</g>
<!-- Node3&#45;&gt;Node2 -->
<g id="edge2" class="edge"><title>Node3&#45;&gt;Node2</title>
<path fill="none" stroke="midnightblue" d="M74.5,-112.805C74.5,-103.91 74.5,-93.7798 74.5,-86.7511"/>
<polygon fill="midnightblue" stroke="midnightblue" points="71.0001,-113.083 74.5,-123.083 78.0001,-113.083 71.0001,-113.083"/>
</g>
<!-- Node4 -->
<g id="node4" class="node"><title>Node4</title>
<g id="a_node4"><a xlink:href="../../de/d63/interfaceIGLib_1_1Core_1_1ITypeConverter.html" target="_top" xlink:title="Defines methods for converting objects to a specified type.">
<polygon fill="white" stroke="black" points="34.5,-179.5 34.5,-198.5 114.5,-198.5 114.5,-179.5 34.5,-179.5"/>
<text text-anchor="middle" x="74.5" y="-186.5" font-family="Helvetica,sans-Serif" font-size="10.00">ITypeConverter</text>
</a>
</g>
</g>
<!-- Node4&#45;&gt;Node3 -->
<g id="edge3" class="edge"><title>Node4&#45;&gt;Node3</title>
<path fill="none" stroke="midnightblue" d="M74.5,-168.805C74.5,-159.91 74.5,-149.78 74.5,-142.751"/>
<polygon fill="midnightblue" stroke="midnightblue" points="71.0001,-169.083 74.5,-179.083 78.0001,-169.083 71.0001,-169.083"/>
</g>
</g>
</svg>
