<?xml version="1.0" encoding="UTF-8" standalone="no"?>
<!DOCTYPE svg PUBLIC "-//W3C//DTD SVG 1.1//EN"
 "http://www.w3.org/Graphics/SVG/1.1/DTD/svg11.dtd">
<!-- Generated by graphviz version 2.38.0 (20140413.2041)
 -->
<!-- Title: IGLib.Gr3D.CylindricalBilliardKnot_WrongParameterization Pages: 1 -->
<svg width="546pt" height="100pt"
 viewBox="0.00 0.00 546.00 99.50" xmlns="http://www.w3.org/2000/svg" xmlns:xlink="http://www.w3.org/1999/xlink">
<g id="graph0" class="graph" transform="scale(1 1) rotate(0) translate(4 95.5)">
<title>IGLib.Gr3D.CylindricalBilliardKnot_WrongParameterization</title>
<polygon fill="white" stroke="none" points="-4,4 -4,-95.5 542,-95.5 542,4 -4,4"/>
<!-- Node1 -->
<g id="node1" class="node"><title>Node1</title>
<g id="a_node1"><a xlink:title="Cartesian and cylindrical parameterization of a cylindrical billiard knot in 3D.">
<polygon fill="#bfbfbf" stroke="black" points="394,-33.5 394,-63.5 538,-63.5 538,-33.5 394,-33.5"/>
<text text-anchor="start" x="402" y="-51.5" font-family="Helvetica,sans-Serif" font-size="10.00">IGLib.Gr3D.CylindricalBilliard</text>
<text text-anchor="middle" x="466" y="-40.5" font-family="Helvetica,sans-Serif" font-size="10.00">Knot_WrongParameterization</text>
</a>
</g>
</g>
<!-- Node2 -->
<g id="node2" class="node"><title>Node2</title>
<g id="a_node2"><a xlink:href="../../d7/dac/classIGLib_1_1Gr3D_1_1Curve3DParameterizationFromCylindricalWithBounds.html" target="_top" xlink:title="Cartesion parameterization of a curve in 3D. Beside the Curve and (optional) CurveDerivative,...">
<polygon fill="white" stroke="black" points="209,-33.5 209,-63.5 358,-63.5 358,-33.5 209,-33.5"/>
<text text-anchor="start" x="217" y="-51.5" font-family="Helvetica,sans-Serif" font-size="10.00">Curve3DParameterizationFrom</text>
<text text-anchor="middle" x="283.5" y="-40.5" font-family="Helvetica,sans-Serif" font-size="10.00">CylindricalWithBounds</text>
</a>
</g>
</g>
<!-- Node2&#45;&gt;Node1 -->
<g id="edge1" class="edge"><title>Node2&#45;&gt;Node1</title>
<path fill="none" stroke="midnightblue" d="M368.203,-48.5C376.791,-48.5 385.458,-48.5 393.892,-48.5"/>
<polygon fill="midnightblue" stroke="midnightblue" points="368.177,-45.0001 358.177,-48.5 368.177,-52.0001 368.177,-45.0001"/>
</g>
<!-- Node3 -->
<g id="node3" class="node"><title>Node3</title>
<g id="a_node3"><a xlink:href="../../dc/d9b/interfaceIGLib_1_1Gr3D_1_1ICurve3DCylindricalParameterization.html" target="_top" xlink:title="Cylindrical parameterization of a curve in 3D. Beside the CurveCylindrical and (optional) CurveDeriva...">
<polygon fill="white" stroke="black" points="0,-72 0,-91 173,-91 173,-72 0,-72"/>
<text text-anchor="middle" x="86.5" y="-79" font-family="Helvetica,sans-Serif" font-size="10.00">ICurve3DCylindricalParameterization</text>
</a>
</g>
</g>
<!-- Node3&#45;&gt;Node1 -->
<g id="edge4" class="edge"><title>Node3&#45;&gt;Node1</title>
<path fill="none" stroke="midnightblue" d="M183.324,-83.3143C235.223,-83.1297 300.347,-81.0109 358,-73.5 375.12,-71.2697 393.507,-67.492 410.127,-63.5396"/>
<polygon fill="midnightblue" stroke="midnightblue" points="183.123,-79.8144 173.127,-83.3265 183.131,-86.8144 183.123,-79.8144"/>
</g>
<!-- Node3&#45;&gt;Node2 -->
<g id="edge2" class="edge"><title>Node3&#45;&gt;Node2</title>
<path fill="none" stroke="midnightblue" d="M153.882,-70.2661C171.612,-67.2656 190.876,-64.0056 208.966,-60.9442"/>
<polygon fill="midnightblue" stroke="midnightblue" points="152.916,-66.8797 143.64,-71.9993 154.084,-73.7816 152.916,-66.8797"/>
</g>
<!-- Node4 -->
<g id="node4" class="node"><title>Node4</title>
<g id="a_node4"><a xlink:href="../../d3/d54/interfaceIGLib_1_1Gr3D_1_1ICurve3DParameterizationWithBounds.html" target="_top" xlink:title="Cartesion parameterization of a curve in 3D. Beside the Curve and (optional) CurveDerivative,...">
<polygon fill="white" stroke="black" points="22.5,-0.5 22.5,-30.5 150.5,-30.5 150.5,-0.5 22.5,-0.5"/>
<text text-anchor="start" x="30.5" y="-18.5" font-family="Helvetica,sans-Serif" font-size="10.00">ICurve3DParameterization</text>
<text text-anchor="middle" x="86.5" y="-7.5" font-family="Helvetica,sans-Serif" font-size="10.00">WithBounds</text>
</a>
</g>
</g>
<!-- Node4&#45;&gt;Node1 -->
<g id="edge5" class="edge"><title>Node4&#45;&gt;Node1</title>
<path fill="none" stroke="midnightblue" d="M160.915,-13.7216C215.503,-13.3557 291.692,-14.8616 358,-23.5 375.12,-25.7303 393.507,-29.508 410.127,-33.4604"/>
<polygon fill="midnightblue" stroke="midnightblue" points="160.607,-10.2241 150.639,-13.8143 160.67,-17.2239 160.607,-10.2241"/>
</g>
<!-- Node4&#45;&gt;Node2 -->
<g id="edge3" class="edge"><title>Node4&#45;&gt;Node2</title>
<path fill="none" stroke="midnightblue" d="M160.726,-27.8921C176.449,-30.5529 193.071,-33.3659 208.812,-36.0297"/>
<polygon fill="midnightblue" stroke="midnightblue" points="160.985,-24.3863 150.542,-26.1686 159.817,-31.2882 160.985,-24.3863"/>
</g>
</g>
</svg>
