<?xml version="1.0" encoding="UTF-8" standalone="no"?>
<!DOCTYPE svg PUBLIC "-//W3C//DTD SVG 1.1//EN"
 "http://www.w3.org/Graphics/SVG/1.1/DTD/svg11.dtd">
<!-- Generated by graphviz version 2.38.0 (20140413.2041)
 -->
<!-- Title: IG.Lib.LoadableScriptOptBase Pages: 1 -->
<svg width="654pt" height="341pt"
 viewBox="0.00 0.00 654.00 341.00" xmlns="http://www.w3.org/2000/svg" xmlns:xlink="http://www.w3.org/1999/xlink">
<g id="graph0" class="graph" transform="scale(1 1) rotate(0) translate(4 337)">
<title>IG.Lib.LoadableScriptOptBase</title>
<polygon fill="white" stroke="none" points="-4,4 -4,-337 650,-337 650,4 -4,4"/>
<!-- Node1 -->
<g id="node1" class="node"><title>Node1</title>
<g id="a_node1"><a xlink:title="Base class for loadable scripts for optimization problems. AGREEMENTS: The first argument to initiali...">
<polygon fill="#bfbfbf" stroke="black" points="498,-95.5 498,-114.5 646,-114.5 646,-95.5 498,-95.5"/>
<text text-anchor="middle" x="572" y="-102.5" font-family="Helvetica,sans-Serif" font-size="10.00">IG.Lib.LoadableScriptOptBase</text>
</a>
</g>
</g>
<!-- Node2 -->
<g id="node2" class="node"><title>Node2</title>
<g id="a_node2"><a xlink:href="../../d7/d15/classIG_1_1Lib_1_1LoadableScriptBase.html" target="_top" xlink:title="Base class for classes that can be dynamically loadeded from scripts and run, which provides function...">
<polygon fill="white" stroke="black" points="297,-232.5 297,-251.5 401,-251.5 401,-232.5 297,-232.5"/>
<text text-anchor="middle" x="349" y="-239.5" font-family="Helvetica,sans-Serif" font-size="10.00">LoadableScriptBase</text>
</a>
</g>
</g>
<!-- Node2&#45;&gt;Node1 -->
<g id="edge1" class="edge"><title>Node2&#45;&gt;Node1</title>
<path fill="none" stroke="midnightblue" d="M374.2,-226.998C419.859,-198.693 517.533,-138.145 555.477,-114.623"/>
<polygon fill="midnightblue" stroke="midnightblue" points="372.196,-224.123 365.54,-232.366 375.884,-230.072 372.196,-224.123"/>
</g>
<!-- Node3 -->
<g id="node3" class="node"><title>Node3</title>
<g id="a_node3"><a xlink:href="../../d7/d66/interfaceIG_1_1Lib_1_1ILoadableScript.html" target="_top" xlink:title="Interface for classes that can be dynamically loadeded from scripts and run, which provides functiona...">
<polygon fill="white" stroke="black" points="37.5,-313.5 37.5,-332.5 120.5,-332.5 120.5,-313.5 37.5,-313.5"/>
<text text-anchor="middle" x="79" y="-320.5" font-family="Helvetica,sans-Serif" font-size="10.00">ILoadableScript</text>
</a>
</g>
</g>
<!-- Node3&#45;&gt;Node1 -->
<g id="edge6" class="edge"><title>Node3&#45;&gt;Node1</title>
<path fill="none" stroke="midnightblue" d="M130.771,-324.147C199.993,-323.484 325.689,-314.176 416,-261 484.76,-220.513 544.558,-142.157 564.198,-114.75"/>
<polygon fill="midnightblue" stroke="midnightblue" points="130.556,-320.648 120.57,-324.186 130.583,-327.648 130.556,-320.648"/>
</g>
<!-- Node3&#45;&gt;Node2 -->
<g id="edge2" class="edge"><title>Node3&#45;&gt;Node2</title>
<path fill="none" stroke="midnightblue" d="M130.924,-313.398C168.254,-305.74 219.898,-293.851 264,-279 286.955,-271.27 312.264,-259.675 329.04,-251.531"/>
<polygon fill="midnightblue" stroke="midnightblue" points="129.901,-310.034 120.792,-315.444 131.287,-316.895 129.901,-310.034"/>
</g>
<!-- Node4 -->
<g id="node4" class="node"><title>Node4</title>
<g id="a_node4"><a xlink:href="../../d3/db6/interfaceIG_1_1Lib_1_1ILockable.html" target="_top" xlink:title="Lockable object, has a Lock property that returns object on which lock must be performed in order to ...">
<polygon fill="white" stroke="black" points="50,-107.5 50,-126.5 108,-126.5 108,-107.5 50,-107.5"/>
<text text-anchor="middle" x="79" y="-114.5" font-family="Helvetica,sans-Serif" font-size="10.00">ILockable</text>
</a>
</g>
</g>
<!-- Node4&#45;&gt;Node1 -->
<g id="edge7" class="edge"><title>Node4&#45;&gt;Node1</title>
<path fill="none" stroke="midnightblue" d="M118.419,-116.805C189.71,-116.337 347.299,-114.805 480,-110 485.85,-109.788 491.911,-109.533 497.998,-109.252"/>
<polygon fill="midnightblue" stroke="midnightblue" points="118.115,-113.307 108.137,-116.869 118.159,-120.307 118.115,-113.307"/>
</g>
<!-- Node4&#45;&gt;Node2 -->
<g id="edge3" class="edge"><title>Node4&#45;&gt;Node2</title>
<path fill="none" stroke="midnightblue" d="M118.115,-122.413C164.396,-129.442 239.331,-142.426 264,-156 299.291,-175.418 329.113,-214.438 341.654,-232.466"/>
<polygon fill="midnightblue" stroke="midnightblue" points="118.548,-118.939 108.14,-120.922 117.513,-125.862 118.548,-118.939"/>
</g>
<!-- Node8 -->
<g id="node8" class="node"><title>Node8</title>
<g id="a_node8"><a xlink:href="../../de/de7/classIG_1_1Lib_1_1StopWatch1.html" target="_top" xlink:title="Timer for measuring execution times and other intervals of time elapsed between successive events....">
<polygon fill="white" stroke="black" points="299.5,-38.5 299.5,-57.5 398.5,-57.5 398.5,-38.5 299.5,-38.5"/>
<text text-anchor="middle" x="349" y="-45.5" font-family="Helvetica,sans-Serif" font-size="10.00">IG.Lib.StopWatch1</text>
</a>
</g>
</g>
<!-- Node4&#45;&gt;Node8 -->
<g id="edge10" class="edge"><title>Node4&#45;&gt;Node8</title>
<path fill="none" stroke="midnightblue" d="M117.871,-107.25C169.114,-94.0565 259.959,-70.6673 310.835,-57.5687"/>
<polygon fill="midnightblue" stroke="midnightblue" points="116.986,-103.863 108.174,-109.746 118.731,-110.642 116.986,-103.863"/>
</g>
<!-- Node5 -->
<g id="node5" class="node"><title>Node5</title>
<g id="a_node5"><a xlink:href="../../de/dfd/interfaceIG_1_1Lib_1_1ICommandLineApplicationInterpreter.html" target="_top" xlink:title="Interface for simple command&#45;line applicatino interpreters.">
<polygon fill="white" stroke="black" points="0,-261 0,-291 158,-291 158,-261 0,-261"/>
<text text-anchor="start" x="8" y="-279" font-family="Helvetica,sans-Serif" font-size="10.00">IG.Lib.ICommandLineApplication</text>
<text text-anchor="middle" x="79" y="-268" font-family="Helvetica,sans-Serif" font-size="10.00">Interpreter</text>
</a>
</g>
</g>
<!-- Node5&#45;&gt;Node2 -->
<g id="edge4" class="edge"><title>Node5&#45;&gt;Node2</title>
<path fill="none" stroke="#9a32cd" stroke-dasharray="5,2" d="M168.512,-265.833C198.812,-262.242 232.905,-258.079 264,-254 274.663,-252.601 286.074,-251.024 296.941,-249.485"/>
<polygon fill="#9a32cd" stroke="#9a32cd" points="167.913,-262.379 158.392,-267.028 168.733,-269.331 167.913,-262.379"/>
<text text-anchor="middle" x="220" y="-267" font-family="Helvetica,sans-Serif" font-size="10.00"> _script_interpreter</text>
</g>
<!-- Node6 -->
<g id="node6" class="node"><title>Node6</title>
<g id="a_node6"><a xlink:title=" ">
<polygon fill="white" stroke="#bfbfbf" points="58.5,-193.5 58.5,-212.5 99.5,-212.5 99.5,-193.5 58.5,-193.5"/>
<text text-anchor="middle" x="79" y="-200.5" font-family="Helvetica,sans-Serif" font-size="10.00">static</text>
</a>
</g>
</g>
<!-- Node6&#45;&gt;Node2 -->
<g id="edge5" class="edge"><title>Node6&#45;&gt;Node2</title>
<path fill="none" stroke="#9a32cd" stroke-dasharray="5,2" d="M109.643,-208.629C128.585,-212.131 153.693,-216.6 176,-220 216.475,-226.169 262.488,-231.992 296.732,-236.096"/>
<polygon fill="#9a32cd" stroke="#9a32cd" points="110.283,-205.188 99.811,-206.795 109,-212.069 110.283,-205.188"/>
<text text-anchor="middle" x="220" y="-234" font-family="Helvetica,sans-Serif" font-size="10.00"> _defaultOutputLevel</text>
</g>
<!-- Node6&#45;&gt;Node8 -->
<g id="edge12" class="edge"><title>Node6&#45;&gt;Node8</title>
<path fill="none" stroke="#9a32cd" stroke-dasharray="5,2" d="M109.342,-190.986C148.168,-174.008 217.156,-139.982 264,-95 274.671,-84.7533 270.133,-75.8335 282,-67 287.261,-63.0842 293.307,-59.974 299.559,-57.5039"/>
<polygon fill="#9a32cd" stroke="#9a32cd" points="107.504,-187.966 99.6932,-195.125 110.263,-194.4 107.504,-187.966"/>
<text text-anchor="middle" x="220" y="-192" font-family="Helvetica,sans-Serif" font-size="10.00"> lastId</text>
<text text-anchor="middle" x="220" y="-181" font-family="Helvetica,sans-Serif" font-size="10.00">_staticLock</text>
<text text-anchor="middle" x="220" y="-170" font-family="Helvetica,sans-Serif" font-size="10.00">numWarnCpu</text>
<text text-anchor="middle" x="220" y="-159" font-family="Helvetica,sans-Serif" font-size="10.00">MaxWarnCpu</text>
</g>
<!-- Node7 -->
<g id="node7" class="node"><title>Node7</title>
<g id="a_node7"><a xlink:href="../../d5/d59/interfaceIG_1_1Num_1_1IAnalysis.html" target="_top" xlink:title="Interface for direct analysis classes used in optimization problems.">
<polygon fill="white" stroke="black" points="303,-76.5 303,-95.5 395,-95.5 395,-76.5 303,-76.5"/>
<text text-anchor="middle" x="349" y="-83.5" font-family="Helvetica,sans-Serif" font-size="10.00">IG.Num.IAnalysis</text>
</a>
</g>
</g>
<!-- Node7&#45;&gt;Node1 -->
<g id="edge8" class="edge"><title>Node7&#45;&gt;Node1</title>
<path fill="none" stroke="#9a32cd" stroke-dasharray="5,2" d="M405.28,-90.7526C433.328,-93.1639 467.763,-96.1244 497.964,-98.7209"/>
<polygon fill="#9a32cd" stroke="#9a32cd" points="405.519,-87.2603 395.256,-89.8908 404.919,-94.2346 405.519,-87.2603"/>
<text text-anchor="middle" x="457" y="-100" font-family="Helvetica,sans-Serif" font-size="10.00"> _analysis</text>
</g>
<!-- Node8&#45;&gt;Node1 -->
<g id="edge9" class="edge"><title>Node8&#45;&gt;Node1</title>
<path fill="none" stroke="#9a32cd" stroke-dasharray="5,2" d="M401.886,-59.8186C425.741,-65.3943 454.371,-72.2864 480,-79 499.55,-84.1212 521.321,-90.3234 538.666,-95.3855"/>
<polygon fill="#9a32cd" stroke="#9a32cd" points="402.511,-56.3705 391.978,-57.514 400.925,-63.1885 402.511,-56.3705"/>
<text text-anchor="middle" x="457" y="-82" font-family="Helvetica,sans-Serif" font-size="10.00"> _timer</text>
</g>
<!-- Node9 -->
<g id="node9" class="node"><title>Node9</title>
<g id="a_node9"><a xlink:href="../../dc/d79/interfaceIG_1_1Lib_1_1IIdentifiable.html" target="_top" xlink:title="Classes whose instances have unique integer IDs.">
<polygon fill="white" stroke="black" points="46.5,-38.5 46.5,-57.5 111.5,-57.5 111.5,-38.5 46.5,-38.5"/>
<text text-anchor="middle" x="79" y="-45.5" font-family="Helvetica,sans-Serif" font-size="10.00">IIdentifiable</text>
</a>
</g>
</g>
<!-- Node9&#45;&gt;Node8 -->
<g id="edge11" class="edge"><title>Node9&#45;&gt;Node8</title>
<path fill="none" stroke="midnightblue" d="M121.583,-48C169.617,-48 248.543,-48 299.377,-48"/>
<polygon fill="midnightblue" stroke="midnightblue" points="121.531,-44.5001 111.531,-48 121.531,-51.5001 121.531,-44.5001"/>
</g>
<!-- Node10 -->
<g id="node10" class="node"><title>Node10</title>
<g id="a_node10"><a xlink:href="../../d4/d43/interfaceIG_1_1Num_1_1IRandomGenerator.html" target="_top" xlink:title="Uniform random number generator.">
<polygon fill="white" stroke="black" points="282,-0.5 282,-19.5 416,-19.5 416,-0.5 282,-0.5"/>
<text text-anchor="middle" x="349" y="-7.5" font-family="Helvetica,sans-Serif" font-size="10.00">IG.Num.IRandomGenerator</text>
</a>
</g>
</g>
<!-- Node10&#45;&gt;Node1 -->
<g id="edge13" class="edge"><title>Node10&#45;&gt;Node1</title>
<path fill="none" stroke="#9a32cd" stroke-dasharray="5,2" d="M395.455,-22.489C402.37,-24.561 409.398,-26.7656 416,-29 444.926,-38.7899 452.392,-40.9484 480,-54 507.343,-66.9264 537.737,-84.6911 555.566,-95.4807"/>
<polygon fill="#9a32cd" stroke="#9a32cd" points="396.047,-19.0155 385.466,-19.5603 394.078,-25.7327 396.047,-19.0155"/>
<text text-anchor="middle" x="457" y="-57" font-family="Helvetica,sans-Serif" font-size="10.00"> _randGen</text>
</g>
</g>
</svg>
