<?xml version="1.0" encoding="UTF-8" standalone="no"?>
<!DOCTYPE svg PUBLIC "-//W3C//DTD SVG 1.1//EN"
 "http://www.w3.org/Graphics/SVG/1.1/DTD/svg11.dtd">
<!-- Generated by graphviz version 2.38.0 (20140413.2041)
 -->
<!-- Title: IG.Gr.GraphicQuadriLateralBase Pages: 1 -->
<svg width="384pt" height="163pt"
 viewBox="0.00 0.00 383.50 163.00" xmlns="http://www.w3.org/2000/svg" xmlns:xlink="http://www.w3.org/1999/xlink">
<g id="graph0" class="graph" transform="scale(1 1) rotate(0) translate(4 159)">
<title>IG.Gr.GraphicQuadriLateralBase</title>
<polygon fill="white" stroke="none" points="-4,4 -4,-159 379.5,-159 379.5,4 -4,4"/>
<!-- Node1 -->
<g id="node1" class="node"><title>Node1</title>
<g id="a_node1"><a xlink:title="Base class for graphic line primitive.">
<polygon fill="#bfbfbf" stroke="black" points="126,-0.5 126,-19.5 283,-19.5 283,-0.5 126,-0.5"/>
<text text-anchor="middle" x="204.5" y="-7.5" font-family="Helvetica,sans-Serif" font-size="10.00">IG.Gr.GraphicQuadriLateralBase</text>
</a>
</g>
</g>
<!-- Node2 -->
<g id="node2" class="node"><title>Node2</title>
<g id="a_node2"><a xlink:href="../../d4/d1f/classIG_1_1Gr_1_1GraphicPrimitiveBase.html" target="_top" xlink:title="Base class for graphic primitives.">
<polygon fill="white" stroke="black" points="149.5,-57.5 149.5,-76.5 259.5,-76.5 259.5,-57.5 149.5,-57.5"/>
<text text-anchor="middle" x="204.5" y="-64.5" font-family="Helvetica,sans-Serif" font-size="10.00">GraphicPrimitiveBase</text>
</a>
</g>
</g>
<!-- Node2&#45;&gt;Node1 -->
<g id="edge1" class="edge"><title>Node2&#45;&gt;Node1</title>
<path fill="none" stroke="midnightblue" d="M204.5,-47.1166C204.5,-37.8173 204.5,-27.0557 204.5,-19.7149"/>
<polygon fill="midnightblue" stroke="midnightblue" points="201,-47.4062 204.5,-57.4063 208,-47.4063 201,-47.4062"/>
</g>
<!-- Node3 -->
<g id="node3" class="node"><title>Node3</title>
<g id="a_node3"><a xlink:href="../../dd/d5f/interfaceIG_1_1Gr_1_1IGraphicPrimitive.html" target="_top" xlink:title=" ">
<polygon fill="white" stroke="black" points="0,-135.5 0,-154.5 89,-154.5 89,-135.5 0,-135.5"/>
<text text-anchor="middle" x="44.5" y="-142.5" font-family="Helvetica,sans-Serif" font-size="10.00">IGraphicPrimitive</text>
</a>
</g>
</g>
<!-- Node3&#45;&gt;Node2 -->
<g id="edge2" class="edge"><title>Node3&#45;&gt;Node2</title>
<path fill="none" stroke="midnightblue" d="M71.9625,-130.955C104.651,-115.428 158.319,-89.9362 186.277,-76.6557"/>
<polygon fill="midnightblue" stroke="midnightblue" points="70.0741,-127.977 62.543,-135.43 73.0775,-134.3 70.0741,-127.977"/>
</g>
<!-- Node4 -->
<g id="node4" class="node"><title>Node4</title>
<g id="a_node4"><a xlink:href="../../d2/d42/interfaceIG_1_1Gr_1_1IGraphicSet.html" target="_top" xlink:title="Graphic set that contain graphic primitives and other graphic sets.">
<polygon fill="white" stroke="black" points="107.5,-135.5 107.5,-154.5 201.5,-154.5 201.5,-135.5 107.5,-135.5"/>
<text text-anchor="middle" x="154.5" y="-142.5" font-family="Helvetica,sans-Serif" font-size="10.00">IG.Gr.IGraphicSet</text>
</a>
</g>
</g>
<!-- Node4&#45;&gt;Node2 -->
<g id="edge3" class="edge"><title>Node4&#45;&gt;Node2</title>
<path fill="none" stroke="#9a32cd" stroke-dasharray="5,2" d="M165.97,-126.565C176.244,-110.949 190.881,-88.7002 198.831,-76.6165"/>
<polygon fill="#9a32cd" stroke="#9a32cd" points="162.808,-125.004 160.236,-135.282 168.656,-128.851 162.808,-125.004"/>
<text text-anchor="middle" x="203.5" y="-103.5" font-family="Helvetica,sans-Serif" font-size="10.00"> _parent</text>
</g>
<!-- Node5 -->
<g id="node5" class="node"><title>Node5</title>
<g id="a_node5"><a xlink:href="../../df/d16/structIG_1_1Num_1_1vec3.html" target="_top" xlink:title="3D vector, struct implementation.">
<polygon fill="white" stroke="black" points="219.5,-135.5 219.5,-154.5 291.5,-154.5 291.5,-135.5 219.5,-135.5"/>
<text text-anchor="middle" x="255.5" y="-142.5" font-family="Helvetica,sans-Serif" font-size="10.00">IG.Num.vec3</text>
</a>
</g>
</g>
<!-- Node5&#45;&gt;Node2 -->
<g id="edge4" class="edge"><title>Node5&#45;&gt;Node2</title>
<path fill="none" stroke="#9a32cd" stroke-dasharray="5,2" d="M245.503,-126.622C239.876,-117.117 232.576,-105.228 225.5,-95 221.175,-88.7489 215.925,-81.9989 211.757,-76.8117"/>
<polygon fill="#9a32cd" stroke="#9a32cd" points="242.618,-128.624 250.682,-135.496 248.664,-125.095 242.618,-128.624"/>
<text text-anchor="middle" x="256" y="-103.5" font-family="Helvetica,sans-Serif" font-size="10.00"> _coord</text>
</g>
<!-- Node6 -->
<g id="node6" class="node"><title>Node6</title>
<g id="a_node6"><a xlink:href="../../dd/d52/structIG_1_1Lib_1_1color.html" target="_top" xlink:title="Extended color representation. Stores RGB components and opacity as double numbers ranging fom 0 to 1...">
<polygon fill="white" stroke="black" points="309.5,-135.5 309.5,-154.5 375.5,-154.5 375.5,-135.5 309.5,-135.5"/>
<text text-anchor="middle" x="342.5" y="-142.5" font-family="Helvetica,sans-Serif" font-size="10.00">IG.Lib.color</text>
</a>
</g>
</g>
<!-- Node6&#45;&gt;Node2 -->
<g id="edge5" class="edge"><title>Node6&#45;&gt;Node2</title>
<path fill="none" stroke="#9a32cd" stroke-dasharray="5,2" d="M324.866,-128.765C312.075,-118.265 294.015,-104.539 276.5,-95 262.666,-87.4655 246.287,-81.1404 232.65,-76.5105"/>
<polygon fill="#9a32cd" stroke="#9a32cd" points="322.897,-131.682 332.808,-135.427 327.396,-126.319 322.897,-131.682"/>
<text text-anchor="middle" x="333" y="-109" font-family="Helvetica,sans-Serif" font-size="10.00"> _fillColors</text>
<text text-anchor="middle" x="333" y="-98" font-family="Helvetica,sans-Serif" font-size="10.00">_lineColors</text>
</g>
</g>
</svg>
