<?xml version="1.0" encoding="UTF-8" standalone="no"?>
<!DOCTYPE svg PUBLIC "-//W3C//DTD SVG 1.1//EN"
 "http://www.w3.org/Graphics/SVG/1.1/DTD/svg11.dtd">
<!-- Generated by graphviz version 2.38.0 (20140413.2041)
 -->
<!-- Title: IG.Num.Experimental.MX Pages: 1 -->
<svg width="159pt" height="207pt"
 viewBox="0.00 0.00 159.00 207.00" xmlns="http://www.w3.org/2000/svg" xmlns:xlink="http://www.w3.org/1999/xlink">
<g id="graph0" class="graph" transform="scale(1 1) rotate(0) translate(4 203)">
<title>IG.Num.Experimental.MX</title>
<polygon fill="white" stroke="none" points="-4,4 -4,-203 155,-203 155,4 -4,4"/>
<!-- Node1 -->
<g id="node1" class="node"><title>Node1</title>
<g id="a_node1"><a xlink:title="Defines some mathematical functions to be used in derived classes. Beside the auxiliary functions alr...">
<polygon fill="#bfbfbf" stroke="black" points="12.5,-67.5 12.5,-86.5 138.5,-86.5 138.5,-67.5 12.5,-67.5"/>
<text text-anchor="middle" x="75.5" y="-74.5" font-family="Helvetica,sans-Serif" font-size="10.00">IG.Num.Experimental.MX</text>
</a>
</g>
</g>
<!-- Node4 -->
<g id="node4" class="node"><title>Node4</title>
<g id="a_node4"><a xlink:href="../../d4/d5a/classIG_1_1Num_1_1Experimental_1_1ExampleMathClassExperimental.html" target="_top" xlink:title="Example class that derives from the M class. Implements a method that uses basic mathematical functio...">
<polygon fill="white" stroke="black" points="0,-0.5 0,-30.5 151,-30.5 151,-0.5 0,-0.5"/>
<text text-anchor="start" x="8" y="-18.5" font-family="Helvetica,sans-Serif" font-size="10.00">IG.Num.Experimental.Example</text>
<text text-anchor="middle" x="75.5" y="-7.5" font-family="Helvetica,sans-Serif" font-size="10.00">MathClassExperimental</text>
</a>
</g>
</g>
<!-- Node1&#45;&gt;Node4 -->
<g id="edge3" class="edge"><title>Node1&#45;&gt;Node4</title>
<path fill="none" stroke="midnightblue" d="M75.5,-57.2349C75.5,-48.5864 75.5,-38.4969 75.5,-30.523"/>
<polygon fill="midnightblue" stroke="midnightblue" points="72.0001,-57.4751 75.5,-67.4751 79.0001,-57.4751 72.0001,-57.4751"/>
</g>
<!-- Node2 -->
<g id="node2" class="node"><title>Node2</title>
<g id="a_node2"><a xlink:href="../../d7/d48/classIG_1_1Num_1_1MExt.html" target="_top" xlink:title="Defines some mathematical functions to be used in derived classes. In addition to functions defined i...">
<polygon fill="white" stroke="black" points="55.5,-123.5 55.5,-142.5 95.5,-142.5 95.5,-123.5 55.5,-123.5"/>
<text text-anchor="middle" x="75.5" y="-130.5" font-family="Helvetica,sans-Serif" font-size="10.00">MExt</text>
</a>
</g>
</g>
<!-- Node2&#45;&gt;Node1 -->
<g id="edge1" class="edge"><title>Node2&#45;&gt;Node1</title>
<path fill="none" stroke="midnightblue" d="M75.5,-112.805C75.5,-103.91 75.5,-93.7798 75.5,-86.7511"/>
<polygon fill="midnightblue" stroke="midnightblue" points="72.0001,-113.083 75.5,-123.083 79.0001,-113.083 72.0001,-113.083"/>
</g>
<!-- Node3 -->
<g id="node3" class="node"><title>Node3</title>
<g id="a_node3"><a xlink:href="../../d5/db7/classIG_1_1Num_1_1M.html" target="_top" xlink:title="Defines some mathematical functions to be used in derived and other classes.">
<polygon fill="white" stroke="black" points="61,-179.5 61,-198.5 90,-198.5 90,-179.5 61,-179.5"/>
<text text-anchor="middle" x="75.5" y="-186.5" font-family="Helvetica,sans-Serif" font-size="10.00">M</text>
</a>
</g>
</g>
<!-- Node3&#45;&gt;Node2 -->
<g id="edge2" class="edge"><title>Node3&#45;&gt;Node2</title>
<path fill="none" stroke="midnightblue" d="M75.5,-168.805C75.5,-159.91 75.5,-149.78 75.5,-142.751"/>
<polygon fill="midnightblue" stroke="midnightblue" points="72.0001,-169.083 75.5,-179.083 79.0001,-169.083 72.0001,-169.083"/>
</g>
</g>
</svg>
