<?xml version="1.0" encoding="UTF-8" standalone="no"?>
<!DOCTYPE svg PUBLIC "-//W3C//DTD SVG 1.1//EN"
 "http://www.w3.org/Graphics/SVG/1.1/DTD/svg11.dtd">
<!-- Generated by graphviz version 2.38.0 (20140413.2041)
 -->
<!-- Title: IG.Num.SimKosecFileManagerConv3 Pages: 1 -->
<svg width="407pt" height="231pt"
 viewBox="0.00 0.00 407.00 231.00" xmlns="http://www.w3.org/2000/svg" xmlns:xlink="http://www.w3.org/1999/xlink">
<g id="graph0" class="graph" transform="scale(1 1) rotate(0) translate(4 227)">
<title>IG.Num.SimKosecFileManagerConv3</title>
<polygon fill="white" stroke="none" points="-4,4 -4,-227 403,-227 403,4 -4,4"/>
<!-- Node1 -->
<g id="node1" class="node"><title>Node1</title>
<g id="a_node1"><a xlink:title="Interface with simulator of G. Kosec for convection problems in a cave with 3 obstacles.">
<polygon fill="#bfbfbf" stroke="black" points="59,-0.5 59,-30.5 210,-30.5 210,-0.5 59,-0.5"/>
<text text-anchor="start" x="67" y="-18.5" font-family="Helvetica,sans-Serif" font-size="10.00">IG.Num.SimKosecFileManager</text>
<text text-anchor="middle" x="134.5" y="-7.5" font-family="Helvetica,sans-Serif" font-size="10.00">Conv3</text>
</a>
</g>
</g>
<!-- Node2 -->
<g id="node2" class="node"><title>Node2</title>
<g id="a_node2"><a xlink:href="../../df/dee/classIG_1_1Num_1_1SimKosecFileManagerConvBase.html" target="_top" xlink:title="Base class for interface with simulator of G. Kosec for convection problems in a cave with obstacles.">
<polygon fill="white" stroke="black" points="55.5,-68.5 55.5,-87.5 213.5,-87.5 213.5,-68.5 55.5,-68.5"/>
<text text-anchor="middle" x="134.5" y="-75.5" font-family="Helvetica,sans-Serif" font-size="10.00">SimKosecFileManagerConvBase</text>
</a>
</g>
</g>
<!-- Node2&#45;&gt;Node1 -->
<g id="edge1" class="edge"><title>Node2&#45;&gt;Node1</title>
<path fill="none" stroke="midnightblue" d="M134.5,-58.2154C134.5,-49.3565 134.5,-38.9577 134.5,-30.7587"/>
<polygon fill="midnightblue" stroke="midnightblue" points="131,-58.3318 134.5,-68.3318 138,-58.3319 131,-58.3318"/>
</g>
<!-- Node3 -->
<g id="node3" class="node"><title>Node3</title>
<g id="a_node3"><a xlink:href="../../d9/dfc/classIG_1_1Num_1_1SimKosecFileManagerBase.html" target="_top" xlink:title="File manager for interfacing (for optimization purposes) the simulation code of Gregor Kosec.">
<polygon fill="white" stroke="black" points="144,-125.5 144,-144.5 281,-144.5 281,-125.5 144,-125.5"/>
<text text-anchor="middle" x="212.5" y="-132.5" font-family="Helvetica,sans-Serif" font-size="10.00">SimKosecFileManagerBase</text>
</a>
</g>
</g>
<!-- Node3&#45;&gt;Node2 -->
<g id="edge2" class="edge"><title>Node3&#45;&gt;Node2</title>
<path fill="none" stroke="midnightblue" d="M191.989,-119.537C177.547,-109.354 158.705,-96.0678 146.602,-87.5334"/>
<polygon fill="midnightblue" stroke="midnightblue" points="190.123,-122.504 200.313,-125.406 194.157,-116.783 190.123,-122.504"/>
</g>
<!-- Node4 -->
<g id="node4" class="node"><title>Node4</title>
<g id="a_node4"><a xlink:href="../../d6/d7c/interfaceIG_1_1Num_1_1IResponseEvaluatorVectorSimple.html" target="_top" xlink:title="Interface for simulators and other systems (used e.g. for optimization) that can calculate vector res...">
<polygon fill="white" stroke="black" points="0,-192.5 0,-222.5 131,-222.5 131,-192.5 0,-192.5"/>
<text text-anchor="start" x="8" y="-210.5" font-family="Helvetica,sans-Serif" font-size="10.00">IResponseEvaluatorVector</text>
<text text-anchor="middle" x="65.5" y="-199.5" font-family="Helvetica,sans-Serif" font-size="10.00">Simple</text>
</a>
</g>
</g>
<!-- Node4&#45;&gt;Node1 -->
<g id="edge8" class="edge"><title>Node4&#45;&gt;Node1</title>
<path fill="none" stroke="midnightblue" d="M53.9434,-183.121C41.4036,-154.141 25.7642,-104.161 46.5,-68 56.4504,-50.6476 74.7624,-38.5798 92.1154,-30.5124"/>
<polygon fill="midnightblue" stroke="midnightblue" points="50.8564,-184.788 58.1849,-192.439 57.2274,-181.887 50.8564,-184.788"/>
</g>
<!-- Node4&#45;&gt;Node2 -->
<g id="edge6" class="edge"><title>Node4&#45;&gt;Node2</title>
<path fill="none" stroke="midnightblue" d="M70.2553,-182.45C75.3609,-160.945 85.0456,-129.318 101.5,-106 106.622,-98.7422 114.193,-92.356 120.791,-87.6189"/>
<polygon fill="midnightblue" stroke="midnightblue" points="66.7983,-181.873 68.049,-192.393 73.6321,-183.389 66.7983,-181.873"/>
</g>
<!-- Node4&#45;&gt;Node3 -->
<g id="edge3" class="edge"><title>Node4&#45;&gt;Node3</title>
<path fill="none" stroke="midnightblue" d="M104.04,-188.017C133.357,-173.957 172.348,-155.257 194.707,-144.534"/>
<polygon fill="midnightblue" stroke="midnightblue" points="102.397,-184.923 94.8943,-192.403 105.425,-191.234 102.397,-184.923"/>
</g>
<!-- Node5 -->
<g id="node5" class="node"><title>Node5</title>
<g id="a_node5"><a xlink:href="../../d3/db6/interfaceIG_1_1Lib_1_1ILockable.html" target="_top" xlink:title="Lockable object, has a Lock property that returns object on which lock must be performed in order to ...">
<polygon fill="white" stroke="black" points="183.5,-198 183.5,-217 241.5,-217 241.5,-198 183.5,-198"/>
<text text-anchor="middle" x="212.5" y="-205" font-family="Helvetica,sans-Serif" font-size="10.00">ILockable</text>
</a>
</g>
</g>
<!-- Node5&#45;&gt;Node1 -->
<g id="edge9" class="edge"><title>Node5&#45;&gt;Node1</title>
<path fill="none" stroke="midnightblue" d="M241.417,-193.158C268.419,-178.63 302.722,-153.609 289.5,-125 267.382,-77.1438 212.072,-46.6467 173.884,-30.5528"/>
<polygon fill="midnightblue" stroke="midnightblue" points="239.565,-190.174 232.261,-197.848 242.757,-196.405 239.565,-190.174"/>
</g>
<!-- Node5&#45;&gt;Node2 -->
<g id="edge7" class="edge"><title>Node5&#45;&gt;Node2</title>
<path fill="none" stroke="midnightblue" d="M184.662,-192.984C166.724,-182.6 144.881,-166.405 134.5,-145 125.4,-126.236 129.239,-100.794 132.219,-87.6525"/>
<polygon fill="midnightblue" stroke="midnightblue" points="183.152,-196.147 193.604,-197.881 186.515,-190.008 183.152,-196.147"/>
</g>
<!-- Node5&#45;&gt;Node3 -->
<g id="edge4" class="edge"><title>Node5&#45;&gt;Node3</title>
<path fill="none" stroke="midnightblue" d="M212.5,-187.442C212.5,-173.53 212.5,-155.32 212.5,-144.715"/>
<polygon fill="midnightblue" stroke="midnightblue" points="209,-187.855 212.5,-197.855 216,-187.855 209,-187.855"/>
</g>
<!-- Node6 -->
<g id="node6" class="node"><title>Node6</title>
<g id="a_node6"><a xlink:href="../../db/d5e/interfaceIG_1_1Num_1_1IBoundingBox.html" target="_top" xlink:title="Bounding box, defines minimum and maximum co&#45;ordinates of domains, geometric objects and their groups...">
<polygon fill="white" stroke="black" points="286,-198 286,-217 399,-217 399,-198 286,-198"/>
<text text-anchor="middle" x="342.5" y="-205" font-family="Helvetica,sans-Serif" font-size="10.00">IG.Num.IBoundingBox</text>
</a>
</g>
</g>
<!-- Node6&#45;&gt;Node3 -->
<g id="edge5" class="edge"><title>Node6&#45;&gt;Node3</title>
<path fill="none" stroke="#9a32cd" stroke-dasharray="5,2" d="M317.835,-193.124C291.489,-178.836 250.521,-156.619 228.237,-144.534"/>
<polygon fill="#9a32cd" stroke="#9a32cd" points="316.36,-196.306 326.819,-197.996 319.697,-190.152 316.36,-196.306"/>
<text text-anchor="middle" x="335.5" y="-166" font-family="Helvetica,sans-Serif" font-size="10.00"> _inputParameterBounds</text>
</g>
</g>
</svg>
