<?xml version="1.0" encoding="UTF-8" standalone="no"?>
<!DOCTYPE svg PUBLIC "-//W3C//DTD SVG 1.1//EN"
 "http://www.w3.org/Graphics/SVG/1.1/DTD/svg11.dtd">
<!-- Generated by graphviz version 2.38.0 (20140413.2041)
 -->
<!-- Title: IG.Num.Vector2d Pages: 1 -->
<svg width="298pt" height="162pt"
 viewBox="0.00 0.00 297.50 162.00" xmlns="http://www.w3.org/2000/svg" xmlns:xlink="http://www.w3.org/1999/xlink">
<g id="graph0" class="graph" transform="scale(1 1) rotate(0) translate(4 158)">
<title>IG.Num.Vector2d</title>
<polygon fill="white" stroke="none" points="-4,4 -4,-158 293.5,-158 293.5,4 -4,4"/>
<!-- Node1 -->
<g id="node1" class="node"><title>Node1</title>
<g id="a_node1"><a xlink:title="Vector or point in a 2 dimensional space.">
<polygon fill="#bfbfbf" stroke="black" points="101.5,-0.5 101.5,-19.5 193.5,-19.5 193.5,-0.5 101.5,-0.5"/>
<text text-anchor="middle" x="147.5" y="-7.5" font-family="Helvetica,sans-Serif" font-size="10.00">IG.Num.Vector2d</text>
</a>
</g>
</g>
<!-- Node2 -->
<g id="node2" class="node"><title>Node2</title>
<g id="a_node2"><a xlink:href="../../d0/d5a/classIG_1_1Num_1_1VectorBase.html" target="_top" xlink:title="Base class for real vectors.">
<polygon fill="white" stroke="black" points="51.5,-67.5 51.5,-86.5 119.5,-86.5 119.5,-67.5 51.5,-67.5"/>
<text text-anchor="middle" x="85.5" y="-74.5" font-family="Helvetica,sans-Serif" font-size="10.00">VectorBase</text>
</a>
</g>
</g>
<!-- Node2&#45;&gt;Node1 -->
<g id="edge1" class="edge"><title>Node2&#45;&gt;Node1</title>
<path fill="none" stroke="midnightblue" d="M100.765,-59.9968C112.923,-47.2496 129.477,-29.8947 139.271,-19.6273"/>
<polygon fill="midnightblue" stroke="midnightblue" points="98.2311,-57.582 93.8616,-67.2338 103.296,-62.4134 98.2311,-57.582"/>
</g>
<!-- Node3 -->
<g id="node3" class="node"><title>Node3</title>
<g id="a_node3"><a xlink:href="../../d3/d24/interfaceIG_1_1Num_1_1IVector.html" target="_top" xlink:title="Generic Vector interface">
<polygon fill="white" stroke="black" points="0,-134.5 0,-153.5 47,-153.5 47,-134.5 0,-134.5"/>
<text text-anchor="middle" x="23.5" y="-141.5" font-family="Helvetica,sans-Serif" font-size="10.00">IVector</text>
</a>
</g>
</g>
<!-- Node3&#45;&gt;Node1 -->
<g id="edge4" class="edge"><title>Node3&#45;&gt;Node1</title>
<path fill="none" stroke="midnightblue" d="M24.0398,-123.875C25.4225,-107.267 29.7149,-83.3748 42.5,-67 61.3171,-42.8995 93.4709,-27.9484 117.252,-19.6228"/>
<polygon fill="midnightblue" stroke="midnightblue" points="20.536,-123.85 23.4788,-134.028 27.5253,-124.236 20.536,-123.85"/>
</g>
<!-- Node3&#45;&gt;Node2 -->
<g id="edge2" class="edge"><title>Node3&#45;&gt;Node2</title>
<path fill="none" stroke="midnightblue" d="M38.7646,-126.997C50.9235,-114.25 67.4774,-96.8947 77.2709,-86.6273"/>
<polygon fill="midnightblue" stroke="midnightblue" points="36.2311,-124.582 31.8616,-134.234 41.2964,-129.413 36.2311,-124.582"/>
</g>
<!-- Node4 -->
<g id="node4" class="node"><title>Node4</title>
<g id="a_node4"><a xlink:title=" ">
<polygon fill="white" stroke="#bfbfbf" points="65,-134.5 65,-153.5 106,-153.5 106,-134.5 65,-134.5"/>
<text text-anchor="middle" x="85.5" y="-141.5" font-family="Helvetica,sans-Serif" font-size="10.00">static</text>
</a>
</g>
</g>
<!-- Node4&#45;&gt;Node2 -->
<g id="edge3" class="edge"><title>Node4&#45;&gt;Node2</title>
<path fill="none" stroke="#9a32cd" stroke-dasharray="5,2" d="M85.5,-124.037C85.5,-111.67 85.5,-96.1198 85.5,-86.6273"/>
<polygon fill="#9a32cd" stroke="#9a32cd" points="82.0001,-124.234 85.5,-134.234 89.0001,-124.234 82.0001,-124.234"/>
<text text-anchor="middle" x="115" y="-108" font-family="Helvetica,sans-Serif" font-size="10.00"> _matrixStore</text>
</g>
<!-- Node5 -->
<g id="node5" class="node"><title>Node5</title>
<g id="a_node5"><a xlink:title=" ">
<polygon fill="white" stroke="#bfbfbf" points="137.5,-67.5 137.5,-86.5 199.5,-86.5 199.5,-67.5 137.5,-67.5"/>
<text text-anchor="middle" x="168.5" y="-74.5" font-family="Helvetica,sans-Serif" font-size="10.00">ICloneable</text>
</a>
</g>
</g>
<!-- Node5&#45;&gt;Node1 -->
<g id="edge5" class="edge"><title>Node5&#45;&gt;Node1</title>
<path fill="none" stroke="midnightblue" d="M162.495,-57.4145C158.481,-44.9883 153.385,-29.2166 150.287,-19.6273"/>
<polygon fill="midnightblue" stroke="midnightblue" points="159.263,-58.7941 165.668,-67.2338 165.924,-56.6421 159.263,-58.7941"/>
</g>
<!-- Node6 -->
<g id="node6" class="node"><title>Node6</title>
<g id="a_node6"><a xlink:href="../../dc/daf/structIG_1_1Num_1_1vec2.html" target="_top" xlink:title="Struct representing a 3D vector.">
<polygon fill="white" stroke="black" points="217.5,-67.5 217.5,-86.5 289.5,-86.5 289.5,-67.5 217.5,-67.5"/>
<text text-anchor="middle" x="253.5" y="-74.5" font-family="Helvetica,sans-Serif" font-size="10.00">IG.Num.vec2</text>
</a>
</g>
</g>
<!-- Node6&#45;&gt;Node1 -->
<g id="edge6" class="edge"><title>Node6&#45;&gt;Node1</title>
<path fill="none" stroke="#9a32cd" stroke-dasharray="5,2" d="M230.575,-61.9422C209.583,-49.0696 179.182,-30.4274 161.569,-19.6273"/>
<polygon fill="#9a32cd" stroke="#9a32cd" points="228.85,-64.99 239.204,-67.2338 232.509,-59.0226 228.85,-64.99"/>
<text text-anchor="middle" x="213" y="-41" font-family="Helvetica,sans-Serif" font-size="10.00"> _v</text>
</g>
</g>
</svg>
