<?xml version="1.0" encoding="UTF-8" standalone="no"?>
<!DOCTYPE svg PUBLIC "-//W3C//DTD SVG 1.1//EN"
 "http://www.w3.org/Graphics/SVG/1.1/DTD/svg11.dtd">
<!-- Generated by graphviz version 2.38.0 (20140413.2041)
 -->
<!-- Title: IG.Script.ScritpScalarFunctionExample Pages: 1 -->
<svg width="417pt" height="231pt"
 viewBox="0.00 0.00 416.50 231.00" xmlns="http://www.w3.org/2000/svg" xmlns:xlink="http://www.w3.org/1999/xlink">
<g id="graph0" class="graph" transform="scale(1 1) rotate(0) translate(4 227)">
<title>IG.Script.ScritpScalarFunctionExample</title>
<polygon fill="white" stroke="none" points="-4,4 -4,-227 412.5,-227 412.5,4 -4,4"/>
<!-- Node1 -->
<g id="node1" class="node"><title>Node1</title>
<g id="a_node1"><a xlink:title="Example script for definition of a new real function class.">
<polygon fill="#bfbfbf" stroke="black" points="1,-0.5 1,-30.5 150,-30.5 150,-0.5 1,-0.5"/>
<text text-anchor="start" x="9" y="-18.5" font-family="Helvetica,sans-Serif" font-size="10.00">IG.Script.ScritpScalarFunction</text>
<text text-anchor="middle" x="75.5" y="-7.5" font-family="Helvetica,sans-Serif" font-size="10.00">Example</text>
</a>
</g>
</g>
<!-- Node2 -->
<g id="node2" class="node"><title>Node2</title>
<g id="a_node2"><a xlink:href="../../d7/dba/classIG_1_1Lib_1_1LoadableScriptScalarFunctionBase.html" target="_top" xlink:title="Base class for loadable scripts that define scalar functions of several variables.">
<polygon fill="white" stroke="black" points="70,-68.5 70,-87.5 239,-87.5 239,-68.5 70,-68.5"/>
<text text-anchor="middle" x="154.5" y="-75.5" font-family="Helvetica,sans-Serif" font-size="10.00">LoadableScriptScalarFunctionBase</text>
</a>
</g>
</g>
<!-- Node2&#45;&gt;Node1 -->
<g id="edge1" class="edge"><title>Node2&#45;&gt;Node1</title>
<path fill="none" stroke="midnightblue" d="M135.148,-62.1795C122.545,-52.528 106.205,-40.0147 93.815,-30.526"/>
<polygon fill="midnightblue" stroke="midnightblue" points="133.114,-65.0305 143.181,-68.3318 137.37,-59.4729 133.114,-65.0305"/>
</g>
<!-- Node3 -->
<g id="node3" class="node"><title>Node3</title>
<g id="a_node3"><a xlink:href="../../d7/d15/classIG_1_1Lib_1_1LoadableScriptBase.html" target="_top" xlink:title="Base class for classes that can be dynamically loadeded from scripts and run, which provides function...">
<polygon fill="white" stroke="black" points="102.5,-125.5 102.5,-144.5 206.5,-144.5 206.5,-125.5 102.5,-125.5"/>
<text text-anchor="middle" x="154.5" y="-132.5" font-family="Helvetica,sans-Serif" font-size="10.00">LoadableScriptBase</text>
</a>
</g>
</g>
<!-- Node3&#45;&gt;Node2 -->
<g id="edge2" class="edge"><title>Node3&#45;&gt;Node2</title>
<path fill="none" stroke="midnightblue" d="M154.5,-115.117C154.5,-105.817 154.5,-95.0557 154.5,-87.7149"/>
<polygon fill="midnightblue" stroke="midnightblue" points="151,-115.406 154.5,-125.406 158,-115.406 151,-115.406"/>
</g>
<!-- Node4 -->
<g id="node4" class="node"><title>Node4</title>
<g id="a_node4"><a xlink:href="../../d7/d66/interfaceIG_1_1Lib_1_1ILoadableScript.html" target="_top" xlink:title="Interface for classes that can be dynamically loadeded from scripts and run, which provides functiona...">
<polygon fill="white" stroke="black" points="0,-198 0,-217 83,-217 83,-198 0,-198"/>
<text text-anchor="middle" x="41.5" y="-205" font-family="Helvetica,sans-Serif" font-size="10.00">ILoadableScript</text>
</a>
</g>
</g>
<!-- Node4&#45;&gt;Node1 -->
<g id="edge7" class="edge"><title>Node4&#45;&gt;Node1</title>
<path fill="none" stroke="midnightblue" d="M43.1848,-187.789C45.793,-161.033 51.4704,-110.39 60.5,-68 63.2162,-55.2486 67.4477,-41.0418 70.7247,-30.7851"/>
<polygon fill="midnightblue" stroke="midnightblue" points="39.6769,-187.71 42.2276,-197.994 46.6463,-188.364 39.6769,-187.71"/>
</g>
<!-- Node4&#45;&gt;Node3 -->
<g id="edge3" class="edge"><title>Node4&#45;&gt;Node3</title>
<path fill="none" stroke="midnightblue" d="M64.0454,-192.434C86.8573,-178.202 121.408,-156.646 140.531,-144.715"/>
<polygon fill="midnightblue" stroke="midnightblue" points="61.9876,-189.593 55.356,-197.855 65.6929,-195.532 61.9876,-189.593"/>
</g>
<!-- Node5 -->
<g id="node5" class="node"><title>Node5</title>
<g id="a_node5"><a xlink:href="../../d3/db6/interfaceIG_1_1Lib_1_1ILockable.html" target="_top" xlink:title="Lockable object, has a Lock property that returns object on which lock must be performed in order to ...">
<polygon fill="white" stroke="black" points="101.5,-198 101.5,-217 159.5,-217 159.5,-198 101.5,-198"/>
<text text-anchor="middle" x="130.5" y="-205" font-family="Helvetica,sans-Serif" font-size="10.00">ILockable</text>
</a>
</g>
</g>
<!-- Node5&#45;&gt;Node3 -->
<g id="edge4" class="edge"><title>Node5&#45;&gt;Node3</title>
<path fill="none" stroke="midnightblue" d="M136.705,-188.271C141.475,-174.262 147.851,-155.532 151.533,-144.715"/>
<polygon fill="midnightblue" stroke="midnightblue" points="133.352,-187.261 133.443,-197.855 139.979,-189.517 133.352,-187.261"/>
</g>
<!-- Node6 -->
<g id="node6" class="node"><title>Node6</title>
<g id="a_node6"><a xlink:href="../../de/dfd/interfaceIG_1_1Lib_1_1ICommandLineApplicationInterpreter.html" target="_top" xlink:title="Interface for simple command&#45;line applicatino interpreters.">
<polygon fill="white" stroke="black" points="177.5,-192.5 177.5,-222.5 335.5,-222.5 335.5,-192.5 177.5,-192.5"/>
<text text-anchor="start" x="185.5" y="-210.5" font-family="Helvetica,sans-Serif" font-size="10.00">IG.Lib.ICommandLineApplication</text>
<text text-anchor="middle" x="256.5" y="-199.5" font-family="Helvetica,sans-Serif" font-size="10.00">Interpreter</text>
</a>
</g>
</g>
<!-- Node6&#45;&gt;Node3 -->
<g id="edge5" class="edge"><title>Node6&#45;&gt;Node3</title>
<path fill="none" stroke="#9a32cd" stroke-dasharray="5,2" d="M227.423,-186.403C207.488,-172.624 182.034,-155.031 167.074,-144.691"/>
<polygon fill="#9a32cd" stroke="#9a32cd" points="225.642,-189.427 235.859,-192.233 229.623,-183.668 225.642,-189.427"/>
<text text-anchor="middle" x="250.5" y="-166" font-family="Helvetica,sans-Serif" font-size="10.00"> _script_interpreter</text>
</g>
<!-- Node7 -->
<g id="node7" class="node"><title>Node7</title>
<g id="a_node7"><a xlink:title=" ">
<polygon fill="white" stroke="#bfbfbf" points="354,-198 354,-217 395,-217 395,-198 354,-198"/>
<text text-anchor="middle" x="374.5" y="-205" font-family="Helvetica,sans-Serif" font-size="10.00">static</text>
</a>
</g>
</g>
<!-- Node7&#45;&gt;Node3 -->
<g id="edge6" class="edge"><title>Node7&#45;&gt;Node3</title>
<path fill="none" stroke="#9a32cd" stroke-dasharray="5,2" d="M353.223,-192.372C337.798,-182.743 316.112,-170.437 295.5,-163 267.015,-152.723 233.807,-146.119 206.777,-142.017"/>
<polygon fill="#9a32cd" stroke="#9a32cd" points="351.643,-195.516 361.953,-197.954 355.414,-189.618 351.643,-195.516"/>
<text text-anchor="middle" x="364.5" y="-166" font-family="Helvetica,sans-Serif" font-size="10.00"> _defaultOutputLevel</text>
</g>
</g>
</svg>
