<?xml version="1.0" encoding="UTF-8" standalone="no"?>
<!DOCTYPE svg PUBLIC "-//W3C//DTD SVG 1.1//EN"
 "http://www.w3.org/Graphics/SVG/1.1/DTD/svg11.dtd">
<!-- Generated by graphviz version 2.38.0 (20140413.2041)
 -->
<!-- Title: IG.Num.ScalarFunctionRadial Pages: 1 -->
<svg width="779pt" height="193pt"
 viewBox="0.00 0.00 779.00 193.00" xmlns="http://www.w3.org/2000/svg" xmlns:xlink="http://www.w3.org/1999/xlink">
<g id="graph0" class="graph" transform="scale(1 1) rotate(0) translate(4 189)">
<title>IG.Num.ScalarFunctionRadial</title>
<polygon fill="white" stroke="none" points="-4,4 -4,-189 775,-189 775,4 -4,4"/>
<!-- Node1 -->
<g id="node1" class="node"><title>Node1</title>
<g id="a_node1"><a xlink:title="Radial scalar functions.">
<polygon fill="#bfbfbf" stroke="black" points="626,-90.5 626,-109.5 771,-109.5 771,-90.5 626,-90.5"/>
<text text-anchor="middle" x="698.5" y="-97.5" font-family="Helvetica,sans-Serif" font-size="10.00">IG.Num.ScalarFunctionRadial</text>
</a>
</g>
</g>
<!-- Node2 -->
<g id="node2" class="node"><title>Node2</title>
<g id="a_node2"><a xlink:href="../../d2/d85/classIG_1_1Num_1_1ScalarFunctionBase.html" target="_top" xlink:title="Base class for scalar functions with affine transformation of co&#45;ordinates. The reference function is...">
<polygon fill="white" stroke="black" points="439,-90.5 439,-109.5 543,-109.5 543,-90.5 439,-90.5"/>
<text text-anchor="middle" x="491" y="-97.5" font-family="Helvetica,sans-Serif" font-size="10.00">ScalarFunctionBase</text>
</a>
</g>
</g>
<!-- Node2&#45;&gt;Node1 -->
<g id="edge1" class="edge"><title>Node2&#45;&gt;Node1</title>
<path fill="none" stroke="midnightblue" d="M553.279,-100C576.06,-100 602.111,-100 625.747,-100"/>
<polygon fill="midnightblue" stroke="midnightblue" points="553.062,-96.5001 543.062,-100 553.062,-103.5 553.062,-96.5001"/>
</g>
<!-- Node3 -->
<g id="node3" class="node"><title>Node3</title>
<g id="a_node3"><a xlink:href="../../d2/d9e/classIG_1_1Num_1_1ScalarFunctionUntransformedBase.html" target="_top" xlink:title="Base class for defining scalar functions without possibility of affine transformation of parameters.">
<polygon fill="white" stroke="black" points="184,-165.5 184,-184.5 351,-184.5 351,-165.5 184,-165.5"/>
<text text-anchor="middle" x="267.5" y="-172.5" font-family="Helvetica,sans-Serif" font-size="10.00">ScalarFunctionUntransformedBase</text>
</a>
</g>
</g>
<!-- Node3&#45;&gt;Node2 -->
<g id="edge2" class="edge"><title>Node3&#45;&gt;Node2</title>
<path fill="none" stroke="midnightblue" d="M324.874,-163.093C333.672,-160.926 342.62,-158.539 351,-156 381.019,-146.904 387.892,-142.688 417,-131 434.25,-124.074 453.607,-115.832 468.052,-109.588"/>
<polygon fill="midnightblue" stroke="midnightblue" points="323.955,-159.714 315.043,-165.443 325.583,-166.522 323.955,-159.714"/>
</g>
<!-- Node4 -->
<g id="node4" class="node"><title>Node4</title>
<g id="a_node4"><a xlink:href="../../d8/d56/interfaceIG_1_1Num_1_1IScalarFunctionUntransformed.html" target="_top" xlink:title="Scalar functions of vector arguments.">
<polygon fill="white" stroke="black" points="0,-147.5 0,-166.5 147,-166.5 147,-147.5 0,-147.5"/>
<text text-anchor="middle" x="73.5" y="-154.5" font-family="Helvetica,sans-Serif" font-size="10.00">IScalarFunctionUntransformed</text>
</a>
</g>
</g>
<!-- Node4&#45;&gt;Node3 -->
<g id="edge3" class="edge"><title>Node4&#45;&gt;Node3</title>
<path fill="none" stroke="midnightblue" d="M157.317,-164.764C166.106,-165.588 175.045,-166.426 183.832,-167.25"/>
<polygon fill="midnightblue" stroke="midnightblue" points="157.37,-161.254 147.087,-163.805 156.717,-168.223 157.37,-161.254"/>
</g>
<!-- Node5 -->
<g id="node5" class="node"><title>Node5</title>
<g id="a_node5"><a xlink:href="../../dd/d1e/interfaceIG_1_1Num_1_1IScalarFunction.html" target="_top" xlink:title="Scalar functions of vector arguments, with eventual affine transformation of parameters....">
<polygon fill="white" stroke="black" points="225.5,-127.5 225.5,-146.5 309.5,-146.5 309.5,-127.5 225.5,-127.5"/>
<text text-anchor="middle" x="267.5" y="-134.5" font-family="Helvetica,sans-Serif" font-size="10.00">IScalarFunction</text>
</a>
</g>
</g>
<!-- Node4&#45;&gt;Node5 -->
<g id="edge5" class="edge"><title>Node4&#45;&gt;Node5</title>
<path fill="none" stroke="midnightblue" d="M157.104,-148.395C180.674,-145.94 205.343,-143.371 225.276,-141.294"/>
<polygon fill="midnightblue" stroke="midnightblue" points="156.67,-144.922 147.087,-149.439 157.396,-151.884 156.67,-144.922"/>
</g>
<!-- Node5&#45;&gt;Node1 -->
<g id="edge9" class="edge"><title>Node5&#45;&gt;Node1</title>
<path fill="none" stroke="midnightblue" d="M319.879,-135.175C386.509,-132.429 506.25,-126.204 608,-114 618.618,-112.726 629.911,-111.142 640.769,-109.501"/>
<polygon fill="midnightblue" stroke="midnightblue" points="319.503,-131.687 309.652,-135.586 319.784,-138.682 319.503,-131.687"/>
</g>
<!-- Node5&#45;&gt;Node2 -->
<g id="edge4" class="edge"><title>Node5&#45;&gt;Node2</title>
<path fill="none" stroke="midnightblue" d="M319.879,-128.418C355.678,-122.438 403.227,-114.495 438.953,-108.527"/>
<polygon fill="midnightblue" stroke="midnightblue" points="318.93,-125.027 309.643,-130.127 320.083,-131.932 318.93,-125.027"/>
</g>
<!-- Node6 -->
<g id="node6" class="node"><title>Node6</title>
<g id="a_node6"><a xlink:href="../../d8/d86/interfaceIG_1_1Num_1_1IMatrix.html" target="_top" xlink:title="Generic Matrix interface.">
<polygon fill="white" stroke="black" points="197.5,-78 197.5,-108 337.5,-108 337.5,-78 197.5,-78"/>
<text text-anchor="start" x="205.5" y="-96" font-family="Helvetica,sans-Serif" font-size="10.00">IG.Num.IMatrix&lt; Component</text>
<text text-anchor="middle" x="267.5" y="-85" font-family="Helvetica,sans-Serif" font-size="10.00">Type &gt;</text>
</a>
</g>
</g>
<!-- Node6&#45;&gt;Node2 -->
<g id="edge6" class="edge"><title>Node6&#45;&gt;Node2</title>
<path fill="none" stroke="#9a32cd" stroke-dasharray="5,2" d="M347.791,-92.4305C370.178,-92.5694 394.553,-93.0033 417,-94 424.114,-94.3159 431.609,-94.7807 438.978,-95.3141"/>
<polygon fill="#9a32cd" stroke="#9a32cd" points="347.673,-88.9301 337.658,-92.3865 347.643,-95.93 347.673,-88.9301"/>
<text text-anchor="middle" x="393" y="-97" font-family="Helvetica,sans-Serif" font-size="10.00"> _refHess</text>
</g>
<!-- Node7 -->
<g id="node7" class="node"><title>Node7</title>
<g id="a_node7"><a xlink:href="../../d3/d24/interfaceIG_1_1Num_1_1IVector.html" target="_top" xlink:title="Generic Vector interface">
<polygon fill="white" stroke="black" points="214,-38.5 214,-57.5 321,-57.5 321,-38.5 214,-38.5"/>
<text text-anchor="middle" x="267.5" y="-45.5" font-family="Helvetica,sans-Serif" font-size="10.00">IG.Num.IVector&lt; T &gt;</text>
</a>
</g>
</g>
<!-- Node7&#45;&gt;Node2 -->
<g id="edge7" class="edge"><title>Node7&#45;&gt;Node2</title>
<path fill="none" stroke="#9a32cd" stroke-dasharray="5,2" d="M331.286,-48.6762C358.493,-50.8115 390.187,-55.8482 417,-67 426.358,-70.892 426.09,-76.1693 435,-81 441.749,-84.6595 449.339,-87.8208 456.675,-90.4571"/>
<polygon fill="#9a32cd" stroke="#9a32cd" points="331.309,-45.17 321.097,-47.9933 330.841,-52.1544 331.309,-45.17"/>
<text text-anchor="middle" x="393" y="-81" font-family="Helvetica,sans-Serif" font-size="10.00"> _refParam</text>
<text text-anchor="middle" x="393" y="-70" font-family="Helvetica,sans-Serif" font-size="10.00">_refGrad</text>
</g>
<!-- Node8 -->
<g id="node8" class="node"><title>Node8</title>
<g id="a_node8"><a xlink:href="../../d5/d50/interfaceIG_1_1Num_1_1IAffineTransformation.html" target="_top" xlink:title="Affine Transformation.">
<polygon fill="white" stroke="black" points="196,-0.5 196,-19.5 339,-19.5 339,-0.5 196,-0.5"/>
<text text-anchor="middle" x="267.5" y="-7.5" font-family="Helvetica,sans-Serif" font-size="10.00">IG.Num.IAffineTransformation</text>
</a>
</g>
</g>
<!-- Node8&#45;&gt;Node2 -->
<g id="edge8" class="edge"><title>Node8&#45;&gt;Node2</title>
<path fill="none" stroke="#9a32cd" stroke-dasharray="5,2" d="M349.186,-11.6066C373.1,-15.594 397.956,-23.6197 417,-39 432.799,-51.7602 420.13,-67.1678 435,-81 439.142,-84.8532 444.104,-87.9298 449.329,-90.3852"/>
<polygon fill="#9a32cd" stroke="#9a32cd" points="349.413,-8.103 339.015,-10.1352 348.41,-15.0309 349.413,-8.103"/>
<text text-anchor="middle" x="393" y="-42" font-family="Helvetica,sans-Serif" font-size="10.00"> _transf</text>
</g>
<!-- Node9 -->
<g id="node9" class="node"><title>Node9</title>
<g id="a_node9"><a xlink:href="../../db/d0e/interfaceIG_1_1Num_1_1IRealFunction.html" target="_top" xlink:title="Interface for real functions.">
<polygon fill="white" stroke="black" points="435,-52.5 435,-71.5 547,-71.5 547,-52.5 435,-52.5"/>
<text text-anchor="middle" x="491" y="-59.5" font-family="Helvetica,sans-Serif" font-size="10.00">IG.Num.IRealFunction</text>
</a>
</g>
</g>
<!-- Node9&#45;&gt;Node1 -->
<g id="edge10" class="edge"><title>Node9&#45;&gt;Node1</title>
<path fill="none" stroke="#9a32cd" stroke-dasharray="5,2" d="M553.748,-73.4181C583.151,-78.8552 617.913,-85.2832 645.888,-90.4561"/>
<polygon fill="#9a32cd" stroke="#9a32cd" points="554.061,-69.9167 543.591,-71.54 552.788,-76.8 554.061,-69.9167"/>
<text text-anchor="middle" x="586.5" y="-87" font-family="Helvetica,sans-Serif" font-size="10.00"> _function</text>
</g>
</g>
</svg>
