<?xml version="1.0" encoding="UTF-8" standalone="no"?>
<!DOCTYPE svg PUBLIC "-//W3C//DTD SVG 1.1//EN"
 "http://www.w3.org/Graphics/SVG/1.1/DTD/svg11.dtd">
<!-- Generated by graphviz version 2.38.0 (20140413.2041)
 -->
<!-- Title: IG.Num.AnalysisBase Pages: 1 -->
<svg width="298pt" height="151pt"
 viewBox="0.00 0.00 297.50 151.00" xmlns="http://www.w3.org/2000/svg" xmlns:xlink="http://www.w3.org/1999/xlink">
<g id="graph0" class="graph" transform="scale(1 1) rotate(0) translate(4 147)">
<title>IG.Num.AnalysisBase</title>
<polygon fill="white" stroke="none" points="-4,4 -4,-147 293.5,-147 293.5,4 -4,4"/>
<!-- Node1 -->
<g id="node1" class="node"><title>Node1</title>
<g id="a_node1"><a xlink:title="Base class for direct analysis classes that define optimization problems. Represent the complete defi...">
<polygon fill="#bfbfbf" stroke="black" points="83,-67.5 83,-86.5 196,-86.5 196,-67.5 83,-67.5"/>
<text text-anchor="middle" x="139.5" y="-74.5" font-family="Helvetica,sans-Serif" font-size="10.00">IG.Num.AnalysisBase</text>
</a>
</g>
</g>
<!-- Node4 -->
<g id="node4" class="node"><title>Node4</title>
<g id="a_node4"><a xlink:href="../../da/dba/classIG_1_1Lib_1_1LoadableScriptOptBase_1_1AnalysisScript.html" target="_top" xlink:title=" ">
<polygon fill="white" stroke="black" points="0,-0.5 0,-30.5 125,-30.5 125,-0.5 0,-0.5"/>
<text text-anchor="start" x="8" y="-18.5" font-family="Helvetica,sans-Serif" font-size="10.00">IG.Lib.LoadableScriptOpt</text>
<text text-anchor="middle" x="62.5" y="-7.5" font-family="Helvetica,sans-Serif" font-size="10.00">Base.AnalysisScript</text>
</a>
</g>
</g>
<!-- Node1&#45;&gt;Node4 -->
<g id="edge3" class="edge"><title>Node1&#45;&gt;Node4</title>
<path fill="none" stroke="midnightblue" d="M120.341,-61.1955C108.199,-51.8129 92.5898,-39.7512 80.6474,-30.523"/>
<polygon fill="midnightblue" stroke="midnightblue" points="118.415,-64.1301 128.468,-67.4751 122.695,-58.5911 118.415,-64.1301"/>
</g>
<!-- Node5 -->
<g id="node5" class="node"><title>Node5</title>
<g id="a_node5"><a xlink:href="../../dc/d51/classIG_1_1Num_1_1OptFileAnalysisClient.html" target="_top" xlink:title="File analysis client. Passes direct analysis request to the server and gets analysis results from it.">
<polygon fill="white" stroke="black" points="143.5,-6 143.5,-25 289.5,-25 289.5,-6 143.5,-6"/>
<text text-anchor="middle" x="216.5" y="-13" font-family="Helvetica,sans-Serif" font-size="10.00">IG.Num.OptFileAnalysisClient</text>
</a>
</g>
</g>
<!-- Node1&#45;&gt;Node5 -->
<g id="edge4" class="edge"><title>Node1&#45;&gt;Node5</title>
<path fill="none" stroke="midnightblue" d="M158.532,-61.2938C173.302,-49.8803 193.261,-34.4577 205.488,-25.0091"/>
<polygon fill="midnightblue" stroke="midnightblue" points="156.305,-58.5911 150.532,-67.4751 160.585,-64.1301 156.305,-58.5911"/>
</g>
<!-- Node2 -->
<g id="node2" class="node"><title>Node2</title>
<g id="a_node2"><a xlink:href="../../d5/d59/interfaceIG_1_1Num_1_1IAnalysis.html" target="_top" xlink:title="Interface for direct analysis classes used in optimization problems.">
<polygon fill="white" stroke="black" points="74.5,-123.5 74.5,-142.5 130.5,-142.5 130.5,-123.5 74.5,-123.5"/>
<text text-anchor="middle" x="102.5" y="-130.5" font-family="Helvetica,sans-Serif" font-size="10.00">IAnalysis</text>
</a>
</g>
</g>
<!-- Node2&#45;&gt;Node1 -->
<g id="edge1" class="edge"><title>Node2&#45;&gt;Node1</title>
<path fill="none" stroke="midnightblue" d="M114.446,-114.566C120.812,-105.275 128.367,-94.2484 133.504,-86.7511"/>
<polygon fill="midnightblue" stroke="midnightblue" points="111.375,-112.855 108.61,-123.083 117.149,-116.812 111.375,-112.855"/>
</g>
<!-- Node3 -->
<g id="node3" class="node"><title>Node3</title>
<g id="a_node3"><a xlink:href="../../d3/db6/interfaceIG_1_1Lib_1_1ILockable.html" target="_top" xlink:title="Lockable object, has a Lock property that returns object on which lock must be performed in order to ...">
<polygon fill="white" stroke="black" points="148.5,-123.5 148.5,-142.5 206.5,-142.5 206.5,-123.5 148.5,-123.5"/>
<text text-anchor="middle" x="177.5" y="-130.5" font-family="Helvetica,sans-Serif" font-size="10.00">ILockable</text>
</a>
</g>
</g>
<!-- Node3&#45;&gt;Node1 -->
<g id="edge2" class="edge"><title>Node3&#45;&gt;Node1</title>
<path fill="none" stroke="midnightblue" d="M165.435,-114.855C158.855,-105.505 150.989,-94.3265 145.658,-86.7511"/>
<polygon fill="midnightblue" stroke="midnightblue" points="162.608,-116.919 171.225,-123.083 168.332,-112.891 162.608,-116.919"/>
</g>
</g>
</svg>
