<?xml version="1.0" encoding="UTF-8" standalone="no"?>
<!DOCTYPE svg PUBLIC "-//W3C//DTD SVG 1.1//EN"
 "http://www.w3.org/Graphics/SVG/1.1/DTD/svg11.dtd">
<!-- Generated by graphviz version 2.38.0 (20140413.2041)
 -->
<!-- Title: IG.Num.NeuralTrainingLimits Pages: 1 -->
<svg width="309pt" height="238pt"
 viewBox="0.00 0.00 308.50 238.00" xmlns="http://www.w3.org/2000/svg" xmlns:xlink="http://www.w3.org/1999/xlink">
<g id="graph0" class="graph" transform="scale(1 1) rotate(0) translate(4 234)">
<title>IG.Num.NeuralTrainingLimits</title>
<polygon fill="white" stroke="none" points="-4,4 -4,-234 304.5,-234 304.5,4 -4,4"/>
<!-- Node1 -->
<g id="node1" class="node"><title>Node1</title>
<g id="a_node1"><a xlink:title="Contains Parameters that define neural network architecture limits and trainig parameter limits.">
<polygon fill="#bfbfbf" stroke="black" points="30.5,-0.5 30.5,-19.5 170.5,-19.5 170.5,-0.5 30.5,-0.5"/>
<text text-anchor="middle" x="100.5" y="-7.5" font-family="Helvetica,sans-Serif" font-size="10.00">IG.Num.NeuralTrainingLimits</text>
</a>
</g>
</g>
<!-- Node2 -->
<g id="node2" class="node"><title>Node2</title>
<g id="a_node2"><a xlink:href="../../d3/d24/interfaceIG_1_1Num_1_1IVector.html" target="_top" xlink:title="Generic Vector interface">
<polygon fill="white" stroke="black" points="0,-210.5 0,-229.5 107,-229.5 107,-210.5 0,-210.5"/>
<text text-anchor="middle" x="53.5" y="-217.5" font-family="Helvetica,sans-Serif" font-size="10.00">IG.Num.IVector&lt; T &gt;</text>
</a>
</g>
</g>
<!-- Node2&#45;&gt;Node1 -->
<g id="edge1" class="edge"><title>Node2&#45;&gt;Node1</title>
<path fill="none" stroke="#9a32cd" stroke-dasharray="5,2" d="M48.0364,-200.628C38.9056,-166.107 24.3447,-90.3301 54.5,-38 59.2159,-29.8162 67.4765,-23.8675 75.7083,-19.6721"/>
<polygon fill="#9a32cd" stroke="#9a32cd" points="44.6791,-201.619 50.7466,-210.304 51.4197,-199.731 44.6791,-201.619"/>
<text text-anchor="middle" x="90.5" y="-129" font-family="Helvetica,sans-Serif" font-size="10.00"> _tolMaxRelative</text>
<text text-anchor="middle" x="90.5" y="-118" font-family="Helvetica,sans-Serif" font-size="10.00">_tolRmsRelative</text>
<text text-anchor="middle" x="90.5" y="-107" font-family="Helvetica,sans-Serif" font-size="10.00">_toleranceMax</text>
<text text-anchor="middle" x="90.5" y="-96" font-family="Helvetica,sans-Serif" font-size="10.00">_toleranceRms</text>
</g>
<!-- Node3 -->
<g id="node3" class="node"><title>Node3</title>
<g id="a_node3"><a xlink:title=" ">
<polygon fill="white" stroke="#bfbfbf" points="128,-210.5 128,-229.5 169,-229.5 169,-210.5 128,-210.5"/>
<text text-anchor="middle" x="148.5" y="-217.5" font-family="Helvetica,sans-Serif" font-size="10.00">static</text>
</a>
</g>
</g>
<!-- Node3&#45;&gt;Node1 -->
<g id="edge2" class="edge"><title>Node3&#45;&gt;Node1</title>
<path fill="none" stroke="#9a32cd" stroke-dasharray="5,2" d="M150.027,-199.748C151.934,-165.433 152.272,-92.2166 126.5,-38 123.092,-30.8297 117.027,-24.3616 111.612,-19.5548"/>
<polygon fill="#9a32cd" stroke="#9a32cd" points="146.505,-199.957 149.327,-210.169 153.489,-200.426 146.505,-199.957"/>
<text text-anchor="start" x="150.5" y="-184" font-family="Helvetica,sans-Serif" font-size="10.00"> DefaultNumHiddenNeuronsFirst</text>
<text text-anchor="middle" x="225.5" y="-173" font-family="Helvetica,sans-Serif" font-size="10.00">Min</text>
<text text-anchor="middle" x="225.5" y="-162" font-family="Helvetica,sans-Serif" font-size="10.00">DefaultMomentumMin</text>
<text text-anchor="middle" x="225.5" y="-151" font-family="Helvetica,sans-Serif" font-size="10.00">DefaultMomentumMax</text>
<text text-anchor="middle" x="225.5" y="-140" font-family="Helvetica,sans-Serif" font-size="10.00">DefaultLearningRateMax</text>
<text text-anchor="start" x="150.5" y="-129" font-family="Helvetica,sans-Serif" font-size="10.00">DefaultNumHiddenNeuronsSecond</text>
<text text-anchor="middle" x="225.5" y="-118" font-family="Helvetica,sans-Serif" font-size="10.00">Num</text>
<text text-anchor="start" x="150.5" y="-107" font-family="Helvetica,sans-Serif" font-size="10.00">DefaultNumHiddenNeuronsSecond</text>
<text text-anchor="middle" x="225.5" y="-96" font-family="Helvetica,sans-Serif" font-size="10.00">Max</text>
<text text-anchor="middle" x="225.5" y="-85" font-family="Helvetica,sans-Serif" font-size="10.00">DefaultInputSafetyFactorMin</text>
<text text-anchor="middle" x="225.5" y="-74" font-family="Helvetica,sans-Serif" font-size="10.00">DefaultLearningRateNum</text>
<text text-anchor="middle" x="225.5" y="-63" font-family="Helvetica,sans-Serif" font-size="10.00">DefaultEpochBundle</text>
<text text-anchor="middle" x="225.5" y="-52" font-family="Helvetica,sans-Serif" font-size="10.00">DefaultAlphaMax</text>
<text text-anchor="middle" x="225.5" y="-41" font-family="Helvetica,sans-Serif" font-size="10.00">...</text>
</g>
</g>
</svg>
