<?xml version="1.0" encoding="UTF-8" standalone="no"?>
<!DOCTYPE svg PUBLIC "-//W3C//DTD SVG 1.1//EN"
 "http://www.w3.org/Graphics/SVG/1.1/DTD/svg11.dtd">
<!-- Generated by graphviz version 2.38.0 (20140413.2041)
 -->
<!-- Title: IG.Num.ScalarFunctionParametricBase Pages: 1 -->
<svg width="371pt" height="263pt"
 viewBox="0.00 0.00 371.00 263.00" xmlns="http://www.w3.org/2000/svg" xmlns:xlink="http://www.w3.org/1999/xlink">
<g id="graph0" class="graph" transform="scale(1 1) rotate(0) translate(4 259)">
<title>IG.Num.ScalarFunctionParametricBase</title>
<polygon fill="white" stroke="none" points="-4,4 -4,-259 367,-259 367,4 -4,4"/>
<!-- Node1 -->
<g id="node1" class="node"><title>Node1</title>
<g id="a_node1"><a xlink:title="Base class for parameterized scalar functions with affine transformation of co&#45;ordinates....">
<polygon fill="#bfbfbf" stroke="black" points="101.5,-67.5 101.5,-86.5 289.5,-86.5 289.5,-67.5 101.5,-67.5"/>
<text text-anchor="middle" x="195.5" y="-74.5" font-family="Helvetica,sans-Serif" font-size="10.00">IG.Num.ScalarFunctionParametricBase</text>
</a>
</g>
</g>
<!-- Node7 -->
<g id="node7" class="node"><title>Node7</title>
<g id="a_node7"><a xlink:href="../../d5/dd5/classIG_1_1Num_1_1ScalarFunctionOneParametric.html" target="_top" xlink:title="Base class for one parametric families of scalar functions with affine transformation of co&#45;ordinates...">
<polygon fill="white" stroke="black" points="43.5,-0.5 43.5,-30.5 179.5,-30.5 179.5,-0.5 43.5,-0.5"/>
<text text-anchor="start" x="51.5" y="-18.5" font-family="Helvetica,sans-Serif" font-size="10.00">IG.Num.ScalarFunctionOne</text>
<text text-anchor="middle" x="111.5" y="-7.5" font-family="Helvetica,sans-Serif" font-size="10.00">Parametric</text>
</a>
</g>
</g>
<!-- Node1&#45;&gt;Node7 -->
<g id="edge9" class="edge"><title>Node1&#45;&gt;Node7</title>
<path fill="none" stroke="midnightblue" d="M174.984,-61.468C161.685,-52.0474 144.452,-39.8408 131.297,-30.523"/>
<polygon fill="midnightblue" stroke="midnightblue" points="173.282,-64.551 183.465,-67.4751 177.328,-58.8388 173.282,-64.551"/>
</g>
<!-- Node8 -->
<g id="node8" class="node"><title>Node8</title>
<g id="a_node8"><a xlink:href="../../d8/d5b/classIG_1_1Num_1_1ScalarFunctionParametric.html" target="_top" xlink:title="Base class for parameterized scalar functions with affine transformation of co&#45;ordinates....">
<polygon fill="white" stroke="black" points="198,-6 198,-25 363,-25 363,-6 198,-6"/>
<text text-anchor="middle" x="280.5" y="-13" font-family="Helvetica,sans-Serif" font-size="10.00">IG.Num.ScalarFunctionParametric</text>
</a>
</g>
</g>
<!-- Node1&#45;&gt;Node8 -->
<g id="edge10" class="edge"><title>Node1&#45;&gt;Node8</title>
<path fill="none" stroke="midnightblue" d="M216.053,-61.6127C232.401,-50.1691 254.72,-34.546 268.344,-25.0091"/>
<polygon fill="midnightblue" stroke="midnightblue" points="213.864,-58.8731 207.678,-67.4751 217.878,-64.6078 213.864,-58.8731"/>
</g>
<!-- Node2 -->
<g id="node2" class="node"><title>Node2</title>
<g id="a_node2"><a xlink:href="../../d2/d85/classIG_1_1Num_1_1ScalarFunctionBase.html" target="_top" xlink:title="Base class for scalar functions with affine transformation of co&#45;ordinates. The reference function is...">
<polygon fill="white" stroke="black" points="63.5,-123.5 63.5,-142.5 167.5,-142.5 167.5,-123.5 63.5,-123.5"/>
<text text-anchor="middle" x="115.5" y="-130.5" font-family="Helvetica,sans-Serif" font-size="10.00">ScalarFunctionBase</text>
</a>
</g>
</g>
<!-- Node2&#45;&gt;Node1 -->
<g id="edge1" class="edge"><title>Node2&#45;&gt;Node1</title>
<path fill="none" stroke="midnightblue" d="M136.801,-117.622C151.415,-107.757 170.327,-94.9919 182.679,-86.6545"/>
<polygon fill="midnightblue" stroke="midnightblue" points="134.684,-114.828 128.353,-123.324 138.6,-120.63 134.684,-114.828"/>
</g>
<!-- Node3 -->
<g id="node3" class="node"><title>Node3</title>
<g id="a_node3"><a xlink:href="../../d2/d9e/classIG_1_1Num_1_1ScalarFunctionUntransformedBase.html" target="_top" xlink:title="Base class for defining scalar functions without possibility of affine transformation of parameters.">
<polygon fill="white" stroke="black" points="0,-179.5 0,-198.5 167,-198.5 167,-179.5 0,-179.5"/>
<text text-anchor="middle" x="83.5" y="-186.5" font-family="Helvetica,sans-Serif" font-size="10.00">ScalarFunctionUntransformedBase</text>
</a>
</g>
</g>
<!-- Node3&#45;&gt;Node2 -->
<g id="edge2" class="edge"><title>Node3&#45;&gt;Node2</title>
<path fill="none" stroke="midnightblue" d="M94.0039,-170.275C99.4731,-161.045 105.918,-150.17 110.314,-142.751"/>
<polygon fill="midnightblue" stroke="midnightblue" points="90.8712,-168.696 88.7841,-179.083 96.8932,-172.264 90.8712,-168.696"/>
</g>
<!-- Node4 -->
<g id="node4" class="node"><title>Node4</title>
<g id="a_node4"><a xlink:href="../../d8/d56/interfaceIG_1_1Num_1_1IScalarFunctionUntransformed.html" target="_top" xlink:title="Scalar functions of vector arguments.">
<polygon fill="white" stroke="black" points="82,-235.5 82,-254.5 229,-254.5 229,-235.5 82,-235.5"/>
<text text-anchor="middle" x="155.5" y="-242.5" font-family="Helvetica,sans-Serif" font-size="10.00">IScalarFunctionUntransformed</text>
</a>
</g>
</g>
<!-- Node4&#45;&gt;Node3 -->
<g id="edge3" class="edge"><title>Node4&#45;&gt;Node3</title>
<path fill="none" stroke="midnightblue" d="M135.634,-229.101C122.677,-219.382 106.203,-207.027 95.2785,-198.834"/>
<polygon fill="midnightblue" stroke="midnightblue" points="133.832,-232.124 143.932,-235.324 138.032,-226.524 133.832,-232.124"/>
</g>
<!-- Node5 -->
<g id="node5" class="node"><title>Node5</title>
<g id="a_node5"><a xlink:href="../../dd/d1e/interfaceIG_1_1Num_1_1IScalarFunction.html" target="_top" xlink:title="Scalar functions of vector arguments, with eventual affine transformation of parameters....">
<polygon fill="white" stroke="black" points="185.5,-179.5 185.5,-198.5 269.5,-198.5 269.5,-179.5 185.5,-179.5"/>
<text text-anchor="middle" x="227.5" y="-186.5" font-family="Helvetica,sans-Serif" font-size="10.00">IScalarFunction</text>
</a>
</g>
</g>
<!-- Node4&#45;&gt;Node5 -->
<g id="edge5" class="edge"><title>Node4&#45;&gt;Node5</title>
<path fill="none" stroke="midnightblue" d="M175.366,-229.101C188.323,-219.382 204.797,-207.027 215.721,-198.834"/>
<polygon fill="midnightblue" stroke="midnightblue" points="172.968,-226.524 167.068,-235.324 177.168,-232.124 172.968,-226.524"/>
</g>
<!-- Node5&#45;&gt;Node1 -->
<g id="edge6" class="edge"><title>Node5&#45;&gt;Node1</title>
<path fill="none" stroke="midnightblue" d="M222.169,-169.674C215.173,-145.625 203.177,-104.388 197.999,-86.5914"/>
<polygon fill="midnightblue" stroke="midnightblue" points="218.835,-170.744 224.989,-179.368 225.556,-168.789 218.835,-170.744"/>
</g>
<!-- Node5&#45;&gt;Node2 -->
<g id="edge4" class="edge"><title>Node5&#45;&gt;Node2</title>
<path fill="none" stroke="midnightblue" d="M200.251,-174.862C179.484,-164.849 151.477,-151.346 133.45,-142.655"/>
<polygon fill="midnightblue" stroke="midnightblue" points="198.977,-178.134 209.505,-179.324 202.018,-171.828 198.977,-178.134"/>
</g>
<!-- Node6 -->
<g id="node6" class="node"><title>Node6</title>
<g id="a_node6"><a xlink:href="../../d4/d4e/interfaceIG_1_1Num_1_1IScalarFunctionParametric.html" target="_top" xlink:title="Parameterized scalar functions with affine transformation of coordinates.">
<polygon fill="white" stroke="black" points="224,-123.5 224,-142.5 355,-142.5 355,-123.5 224,-123.5"/>
<text text-anchor="middle" x="289.5" y="-130.5" font-family="Helvetica,sans-Serif" font-size="10.00">IScalarFunctionParametric</text>
</a>
</g>
</g>
<!-- Node5&#45;&gt;Node6 -->
<g id="edge8" class="edge"><title>Node5&#45;&gt;Node6</title>
<path fill="none" stroke="midnightblue" d="M245.254,-172.537C256.308,-162.909 270.131,-150.869 279.357,-142.834"/>
<polygon fill="midnightblue" stroke="midnightblue" points="242.703,-170.117 237.461,-179.324 247.301,-175.395 242.703,-170.117"/>
</g>
<!-- Node6&#45;&gt;Node1 -->
<g id="edge7" class="edge"><title>Node6&#45;&gt;Node1</title>
<path fill="none" stroke="midnightblue" d="M265.438,-118.177C248.141,-108.241 225.352,-95.1492 210.565,-86.6545"/>
<polygon fill="midnightblue" stroke="midnightblue" points="263.983,-121.378 274.397,-123.324 267.47,-115.308 263.983,-121.378"/>
</g>
</g>
</svg>
