<?xml version="1.0" encoding="UTF-8" standalone="no"?>
<!DOCTYPE svg PUBLIC "-//W3C//DTD SVG 1.1//EN"
 "http://www.w3.org/Graphics/SVG/1.1/DTD/svg11.dtd">
<!-- Generated by graphviz version 2.38.0 (20140413.2041)
 -->
<!-- Title: IG.Num.PhysicalUnit Pages: 1 -->
<svg width="115pt" height="205pt"
 viewBox="0.00 0.00 115.00 205.00" xmlns="http://www.w3.org/2000/svg" xmlns:xlink="http://www.w3.org/1999/xlink">
<g id="graph0" class="graph" transform="scale(1 1) rotate(0) translate(4 201)">
<title>IG.Num.PhysicalUnit</title>
<polygon fill="white" stroke="none" points="-4,4 -4,-201 111,-201 111,4 -4,4"/>
<!-- Node1 -->
<g id="node1" class="node"><title>Node1</title>
<g id="a_node1"><a xlink:title="SI units (basic and derived)">
<polygon fill="#bfbfbf" stroke="black" points="0,-0.5 0,-19.5 107,-19.5 107,-0.5 0,-0.5"/>
<text text-anchor="middle" x="53.5" y="-7.5" font-family="Helvetica,sans-Serif" font-size="10.00">IG.Num.PhysicalUnit</text>
</a>
</g>
</g>
<!-- Node2 -->
<g id="node2" class="node"><title>Node2</title>
<g id="a_node2"><a xlink:title=" ">
<polygon fill="white" stroke="#bfbfbf" points="33,-177.5 33,-196.5 74,-196.5 74,-177.5 33,-177.5"/>
<text text-anchor="middle" x="53.5" y="-184.5" font-family="Helvetica,sans-Serif" font-size="10.00">static</text>
</a>
</g>
</g>
<!-- Node2&#45;&gt;Node1 -->
<g id="edge1" class="edge"><title>Node2&#45;&gt;Node1</title>
<path fill="none" stroke="#9a32cd" stroke-dasharray="5,2" d="M53.5,-166.951C53.5,-129.297 53.5,-46.6537 53.5,-19.6932"/>
<polygon fill="#9a32cd" stroke="#9a32cd" points="50.0001,-167.081 53.5,-177.081 57.0001,-167.081 50.0001,-167.081"/>
<text text-anchor="middle" x="68.5" y="-151" font-family="Helvetica,sans-Serif" font-size="10.00"> Pa</text>
<text text-anchor="middle" x="68.5" y="-140" font-family="Helvetica,sans-Serif" font-size="10.00">Sv</text>
<text text-anchor="middle" x="68.5" y="-129" font-family="Helvetica,sans-Serif" font-size="10.00">lm</text>
<text text-anchor="middle" x="68.5" y="-118" font-family="Helvetica,sans-Serif" font-size="10.00">V</text>
<text text-anchor="middle" x="68.5" y="-107" font-family="Helvetica,sans-Serif" font-size="10.00">cd</text>
<text text-anchor="middle" x="68.5" y="-96" font-family="Helvetica,sans-Serif" font-size="10.00">eV</text>
<text text-anchor="middle" x="68.5" y="-85" font-family="Helvetica,sans-Serif" font-size="10.00">minarc</text>
<text text-anchor="middle" x="68.5" y="-74" font-family="Helvetica,sans-Serif" font-size="10.00">h</text>
<text text-anchor="middle" x="68.5" y="-63" font-family="Helvetica,sans-Serif" font-size="10.00">F</text>
<text text-anchor="middle" x="68.5" y="-52" font-family="Helvetica,sans-Serif" font-size="10.00">W</text>
<text text-anchor="middle" x="68.5" y="-41" font-family="Helvetica,sans-Serif" font-size="10.00">...</text>
</g>
</g>
</svg>
