<?xml version="1.0" encoding="UTF-8" standalone="no"?>
<!DOCTYPE svg PUBLIC "-//W3C//DTD SVG 1.1//EN"
 "http://www.w3.org/Graphics/SVG/1.1/DTD/svg11.dtd">
<!-- Generated by graphviz version 2.38.0 (20140413.2041)
 -->
<!-- Title: IG.Num.VectorFunctionBaseComponentWise Pages: 1 -->
<svg width="567pt" height="240pt"
 viewBox="0.00 0.00 567.00 240.00" xmlns="http://www.w3.org/2000/svg" xmlns:xlink="http://www.w3.org/1999/xlink">
<g id="graph0" class="graph" transform="scale(1 1) rotate(0) translate(4 236)">
<title>IG.Num.VectorFunctionBaseComponentWise</title>
<polygon fill="white" stroke="none" points="-4,4 -4,-236 563,-236 563,4 -4,4"/>
<!-- Node1 -->
<g id="node1" class="node"><title>Node1</title>
<g id="a_node1"><a xlink:title="Base class for defining Vector functions whose component&#45;wise evaluation is defined directly.">
<polygon fill="#bfbfbf" stroke="black" points="418,-0.5 418,-30.5 559,-30.5 559,-0.5 418,-0.5"/>
<text text-anchor="start" x="426" y="-18.5" font-family="Helvetica,sans-Serif" font-size="10.00">IG.Num.VectorFunctionBase</text>
<text text-anchor="middle" x="488.5" y="-7.5" font-family="Helvetica,sans-Serif" font-size="10.00">ComponentWise</text>
</a>
</g>
</g>
<!-- Node2 -->
<g id="node2" class="node"><title>Node2</title>
<g id="a_node2"><a xlink:href="../../dc/d23/classIG_1_1Num_1_1VectorFunctionBaseGeneral.html" target="_top" xlink:title="Base class for VectorFunctionBase and VectorFunctionBaseComponentwise. In general,...">
<polygon fill="white" stroke="black" points="277,-78.5 277,-97.5 416,-97.5 416,-78.5 277,-78.5"/>
<text text-anchor="middle" x="346.5" y="-85.5" font-family="Helvetica,sans-Serif" font-size="10.00">VectorFunctionBaseGeneral</text>
</a>
</g>
</g>
<!-- Node2&#45;&gt;Node1 -->
<g id="edge1" class="edge"><title>Node2&#45;&gt;Node1</title>
<path fill="none" stroke="midnightblue" d="M372.82,-73.9329C397.674,-61.5933 434.834,-43.1442 460.29,-30.5059"/>
<polygon fill="midnightblue" stroke="midnightblue" points="371.029,-70.9142 363.629,-78.4961 374.142,-77.184 371.029,-70.9142"/>
</g>
<!-- Node8 -->
<g id="node8" class="node"><title>Node8</title>
<g id="a_node8"><a xlink:href="../../da/de7/classIG_1_1Num_1_1VectorFunctionBase.html" target="_top" xlink:title="Base class for defining Vector functions whose evaluation is defined in bulk, and evaluation of indiv...">
<polygon fill="white" stroke="black" points="251,-6 251,-25 392,-25 392,-6 251,-6"/>
<text text-anchor="middle" x="321.5" y="-13" font-family="Helvetica,sans-Serif" font-size="10.00">IG.Num.VectorFunctionBase</text>
</a>
</g>
</g>
<!-- Node2&#45;&gt;Node8 -->
<g id="edge9" class="edge"><title>Node2&#45;&gt;Node8</title>
<path fill="none" stroke="midnightblue" d="M335.766,-69.3313C334.186,-66.2879 332.691,-63.1038 331.5,-60 327.001,-48.2804 324.192,-33.9737 322.735,-25.0474"/>
<polygon fill="midnightblue" stroke="midnightblue" points="332.874,-71.3267 340.845,-78.3059 338.966,-67.879 332.874,-71.3267"/>
</g>
<!-- Node3 -->
<g id="node3" class="node"><title>Node3</title>
<g id="a_node3"><a xlink:href="../../da/d06/interfaceIG_1_1Num_1_1IVectorFunction.html" target="_top" xlink:title="Vector function of a vector argument.">
<polygon fill="white" stroke="black" points="397,-145.5 397,-164.5 482,-164.5 482,-145.5 397,-145.5"/>
<text text-anchor="middle" x="439.5" y="-152.5" font-family="Helvetica,sans-Serif" font-size="10.00">IVectorFunction</text>
</a>
</g>
</g>
<!-- Node3&#45;&gt;Node1 -->
<g id="edge12" class="edge"><title>Node3&#45;&gt;Node1</title>
<path fill="none" stroke="midnightblue" d="M452.705,-137.117C454.85,-133.877 456.892,-130.424 458.5,-127 473.882,-94.2541 482.556,-52.2186 486.285,-30.6529"/>
<polygon fill="midnightblue" stroke="midnightblue" points="449.681,-135.325 446.66,-145.48 455.355,-139.425 449.681,-135.325"/>
</g>
<!-- Node3&#45;&gt;Node2 -->
<g id="edge2" class="edge"><title>Node3&#45;&gt;Node2</title>
<path fill="none" stroke="midnightblue" d="M418.639,-139.42C400.253,-126.569 374.088,-108.282 358.844,-97.6273"/>
<polygon fill="midnightblue" stroke="midnightblue" points="416.756,-142.374 426.958,-145.234 420.766,-136.636 416.756,-142.374"/>
</g>
<!-- Node3&#45;&gt;Node8 -->
<g id="edge10" class="edge"><title>Node3&#45;&gt;Node8</title>
<path fill="none" stroke="midnightblue" d="M439.204,-135.232C438.237,-119.174 435.092,-95.8867 425.5,-78 410.629,-50.2714 377.48,-33.9229 352.577,-25.1383"/>
<polygon fill="midnightblue" stroke="midnightblue" points="435.715,-135.604 439.585,-145.467 442.71,-135.344 435.715,-135.604"/>
</g>
<!-- Node4 -->
<g id="node4" class="node"><title>Node4</title>
<g id="a_node4"><a xlink:href="../../d3/db6/interfaceIG_1_1Lib_1_1ILockable.html" target="_top" xlink:title="Lockable object, has a Lock property that returns object on which lock must be performed in order to ...">
<polygon fill="white" stroke="black" points="363.5,-212.5 363.5,-231.5 421.5,-231.5 421.5,-212.5 363.5,-212.5"/>
<text text-anchor="middle" x="392.5" y="-219.5" font-family="Helvetica,sans-Serif" font-size="10.00">ILockable</text>
</a>
</g>
</g>
<!-- Node4&#45;&gt;Node1 -->
<g id="edge13" class="edge"><title>Node4&#45;&gt;Node1</title>
<path fill="none" stroke="midnightblue" d="M431.531,-209.433C453.133,-200.851 478.228,-186.791 491.5,-165 517.522,-122.275 502.381,-59.0244 493.522,-30.8935"/>
<polygon fill="midnightblue" stroke="midnightblue" points="430.068,-206.243 421.907,-212.999 432.5,-212.807 430.068,-206.243"/>
</g>
<!-- Node4&#45;&gt;Node2 -->
<g id="edge4" class="edge"><title>Node4&#45;&gt;Node2</title>
<path fill="none" stroke="midnightblue" d="M386.108,-202.659C376.027,-173.731 356.826,-118.631 349.47,-97.5212"/>
<polygon fill="midnightblue" stroke="midnightblue" points="382.886,-204.048 389.482,-212.339 389.496,-201.744 382.886,-204.048"/>
</g>
<!-- Node4&#45;&gt;Node3 -->
<g id="edge3" class="edge"><title>Node4&#45;&gt;Node3</title>
<path fill="none" stroke="midnightblue" d="M404.862,-203.904C413.995,-191.273 426.048,-174.604 433.262,-164.627"/>
<polygon fill="midnightblue" stroke="midnightblue" points="401.862,-202.079 398.839,-212.234 407.534,-206.181 401.862,-202.079"/>
</g>
<!-- Node4&#45;&gt;Node8 -->
<g id="edge11" class="edge"><title>Node4&#45;&gt;Node8</title>
<path fill="none" stroke="midnightblue" d="M360.692,-208.354C329.24,-193.919 282.942,-167.008 262.5,-127 242.908,-88.6557 288.916,-43.5235 310.77,-25.0412"/>
<polygon fill="midnightblue" stroke="midnightblue" points="359.369,-211.596 369.931,-212.433 362.197,-205.192 359.369,-211.596"/>
</g>
<!-- Node5 -->
<g id="node5" class="node"><title>Node5</title>
<g id="a_node5"><a xlink:href="../../d5/dc3/classIG_1_1Num_1_1VectorFunctionResults.html" target="_top" xlink:title="Vector function results. Used to transfer parameters input (e.g. vector of parameters,...">
<polygon fill="white" stroke="black" points="68.5,-145.5 68.5,-164.5 220.5,-164.5 220.5,-145.5 68.5,-145.5"/>
<text text-anchor="middle" x="144.5" y="-152.5" font-family="Helvetica,sans-Serif" font-size="10.00">IG.Num.VectorFunctionResults</text>
</a>
</g>
</g>
<!-- Node5&#45;&gt;Node2 -->
<g id="edge5" class="edge"><title>Node5&#45;&gt;Node2</title>
<path fill="none" stroke="#9a32cd" stroke-dasharray="5,2" d="M180.968,-142.265C220.992,-129.386 284.28,-109.021 319.887,-97.5637"/>
<polygon fill="#9a32cd" stroke="#9a32cd" points="179.771,-138.974 171.324,-145.369 181.915,-145.637 179.771,-138.974"/>
<text text-anchor="middle" x="286.5" y="-119" font-family="Helvetica,sans-Serif" font-size="10.00"> _auxResults</text>
</g>
<!-- Node6 -->
<g id="node6" class="node"><title>Node6</title>
<g id="a_node6"><a xlink:href="../../d6/dbe/interfaceIG_1_1Num_1_1IVectorFunctionResults.html" target="_top" xlink:title="Vector function results. Used to transfer parameters input (e.g. vector of parameters,...">
<polygon fill="white" stroke="black" points="125.5,-212.5 125.5,-231.5 243.5,-231.5 243.5,-212.5 125.5,-212.5"/>
<text text-anchor="middle" x="184.5" y="-219.5" font-family="Helvetica,sans-Serif" font-size="10.00">IVectorFunctionResults</text>
</a>
</g>
</g>
<!-- Node6&#45;&gt;Node5 -->
<g id="edge6" class="edge"><title>Node6&#45;&gt;Node5</title>
<path fill="none" stroke="midnightblue" d="M173.752,-203.535C166.008,-190.95 155.889,-174.507 149.809,-164.627"/>
<polygon fill="midnightblue" stroke="midnightblue" points="170.884,-205.552 179.105,-212.234 176.845,-201.883 170.884,-205.552"/>
</g>
<!-- Node7 -->
<g id="node7" class="node"><title>Node7</title>
<g id="a_node7"><a xlink:href="../../d3/d24/interfaceIG_1_1Num_1_1IVector.html" target="_top" xlink:title="Generic Vector interface">
<polygon fill="white" stroke="black" points="0,-212.5 0,-231.5 107,-231.5 107,-212.5 0,-212.5"/>
<text text-anchor="middle" x="53.5" y="-219.5" font-family="Helvetica,sans-Serif" font-size="10.00">IG.Num.IVector&lt; T &gt;</text>
</a>
</g>
</g>
<!-- Node7&#45;&gt;Node5 -->
<g id="edge7" class="edge"><title>Node7&#45;&gt;Node5</title>
<path fill="none" stroke="#9a32cd" stroke-dasharray="5,2" d="M71.154,-205.823C79.7947,-198.631 90.4736,-190.085 100.5,-183 109.869,-176.38 120.869,-169.63 129.527,-164.535"/>
<polygon fill="#9a32cd" stroke="#9a32cd" points="68.6763,-203.334 63.2924,-212.459 73.1916,-208.683 68.6763,-203.334"/>
<text text-anchor="middle" x="129.5" y="-186" font-family="Helvetica,sans-Serif" font-size="10.00"> _parameters</text>
</g>
<!-- Node8&#45;&gt;Node2 -->
<g id="edge8" class="edge"><title>Node8&#45;&gt;Node2</title>
<path fill="none" stroke="#9a32cd" stroke-dasharray="5,2" d="M327.997,-34.8203C332.972,-48.8504 339.611,-67.5729 343.435,-78.3553"/>
<polygon fill="#9a32cd" stroke="#9a32cd" points="331.232,-33.4706 324.591,-25.2154 324.634,-35.8101 331.232,-33.4706"/>
<text text-anchor="middle" x="363.5" y="-52" font-family="Helvetica,sans-Serif" font-size="10.00"> _resultStore</text>
</g>
</g>
</svg>
