<?xml version="1.0" encoding="UTF-8" standalone="no"?>
<!DOCTYPE svg PUBLIC "-//W3C//DTD SVG 1.1//EN"
 "http://www.w3.org/Graphics/SVG/1.1/DTD/svg11.dtd">
<!-- Generated by graphviz version 2.38.0 (20140413.2041)
 -->
<!-- Title: IG.Lib.AppTest Pages: 1 -->
<svg width="454pt" height="413pt"
 viewBox="0.00 0.00 453.50 413.00" xmlns="http://www.w3.org/2000/svg" xmlns:xlink="http://www.w3.org/1999/xlink">
<g id="graph0" class="graph" transform="scale(1 1) rotate(0) translate(4 409)">
<title>IG.Lib.AppTest</title>
<polygon fill="white" stroke="none" points="-4,4 -4,-409 449.5,-409 449.5,4 -4,4"/>
<!-- Node1 -->
<g id="node1" class="node"><title>Node1</title>
<g id="a_node1"><a xlink:title=" ">
<polygon fill="#bfbfbf" stroke="black" points="103,-0.5 103,-19.5 184,-19.5 184,-0.5 103,-0.5"/>
<text text-anchor="middle" x="143.5" y="-7.5" font-family="Helvetica,sans-Serif" font-size="10.00">IG.Lib.AppTest</text>
</a>
</g>
</g>
<!-- Node2 -->
<g id="node2" class="node"><title>Node2</title>
<g id="a_node2"><a xlink:href="../../d1/d77/classIG_1_1Lib_1_1ApplicationBase.html" target="_top" xlink:title="Base class for all application classes. Provides some basic functionality such as keeping information...">
<polygon fill="white" stroke="black" points="100,-57.5 100,-76.5 187,-76.5 187,-57.5 100,-57.5"/>
<text text-anchor="middle" x="143.5" y="-64.5" font-family="Helvetica,sans-Serif" font-size="10.00">ApplicationBase</text>
</a>
</g>
</g>
<!-- Node2&#45;&gt;Node1 -->
<g id="edge1" class="edge"><title>Node2&#45;&gt;Node1</title>
<path fill="none" stroke="midnightblue" d="M143.5,-47.1166C143.5,-37.8173 143.5,-27.0557 143.5,-19.7149"/>
<polygon fill="midnightblue" stroke="midnightblue" points="140,-47.4062 143.5,-57.4063 147,-47.4063 140,-47.4062"/>
</g>
<!-- Node3 -->
<g id="node3" class="node"><title>Node3</title>
<g id="a_node3"><a xlink:href="../../db/dc7/classIG_1_1Lib_1_1Module.html" target="_top" xlink:title="General module (or library) management class, a base class for specific module classes....">
<polygon fill="white" stroke="black" points="119.5,-121 119.5,-140 167.5,-140 167.5,-121 119.5,-121"/>
<text text-anchor="middle" x="143.5" y="-128" font-family="Helvetica,sans-Serif" font-size="10.00">Module</text>
</a>
</g>
</g>
<!-- Node3&#45;&gt;Node2 -->
<g id="edge2" class="edge"><title>Node3&#45;&gt;Node2</title>
<path fill="none" stroke="midnightblue" d="M143.5,-110.818C143.5,-99.5514 143.5,-85.715 143.5,-76.8769"/>
<polygon fill="midnightblue" stroke="midnightblue" points="140,-110.949 143.5,-120.949 147,-110.949 140,-110.949"/>
</g>
<!-- Node4 -->
<g id="node4" class="node"><title>Node4</title>
<g id="a_node4"><a xlink:href="../../d3/db6/interfaceIG_1_1Lib_1_1ILockable.html" target="_top" xlink:title="Lockable object, has a Lock property that returns object on which lock must be performed in order to ...">
<polygon fill="white" stroke="black" points="56.5,-271.5 56.5,-290.5 114.5,-290.5 114.5,-271.5 56.5,-271.5"/>
<text text-anchor="middle" x="85.5" y="-278.5" font-family="Helvetica,sans-Serif" font-size="10.00">ILockable</text>
</a>
</g>
</g>
<!-- Node4&#45;&gt;Node2 -->
<g id="edge14" class="edge"><title>Node4&#45;&gt;Node2</title>
<path fill="none" stroke="midnightblue" d="M85.1547,-261.197C85.2504,-229.454 88.4044,-163.83 110.5,-114 116.795,-99.8039 127.89,-85.6087 135.462,-76.821"/>
<polygon fill="midnightblue" stroke="midnightblue" points="81.6552,-261.292 85.2284,-271.266 88.655,-261.241 81.6552,-261.292"/>
</g>
<!-- Node4&#45;&gt;Node3 -->
<g id="edge3" class="edge"><title>Node4&#45;&gt;Node3</title>
<path fill="none" stroke="midnightblue" d="M93.0005,-261.718C94.1804,-258.806 95.3798,-255.823 96.5,-253 111.966,-214.028 115.36,-204.1 130.5,-165 133.789,-156.506 137.555,-146.805 140.184,-140.035"/>
<polygon fill="midnightblue" stroke="midnightblue" points="89.744,-260.435 89.2076,-271.016 96.2255,-263.079 89.744,-260.435"/>
</g>
<!-- Node5 -->
<g id="node5" class="node"><title>Node5</title>
<g id="a_node5"><a xlink:href="../../db/db1/interfaceIG_1_1Lib_1_1IReporter.html" target="_top" xlink:title="Interface from which majority of reporters inherit. Includes generic reporting functionality plus tra...">
<polygon fill="white" stroke="black" points="132.5,-271.5 132.5,-290.5 216.5,-290.5 216.5,-271.5 132.5,-271.5"/>
<text text-anchor="middle" x="174.5" y="-278.5" font-family="Helvetica,sans-Serif" font-size="10.00">IG.Lib.IReporter</text>
</a>
</g>
</g>
<!-- Node5&#45;&gt;Node3 -->
<g id="edge4" class="edge"><title>Node5&#45;&gt;Node3</title>
<path fill="none" stroke="#9a32cd" stroke-dasharray="5,2" d="M152.924,-264.766C149.51,-261.312 146.463,-257.359 144.5,-253 127.004,-214.147 136.496,-160.96 141.279,-140.251"/>
<polygon fill="#9a32cd" stroke="#9a32cd" points="150.852,-267.601 160.705,-271.494 155.43,-262.306 150.852,-267.601"/>
<text text-anchor="middle" x="165.5" y="-206.5" font-family="Helvetica,sans-Serif" font-size="10.00"> _reporter</text>
</g>
<!-- Node6 -->
<g id="node6" class="node"><title>Node6</title>
<g id="a_node6"><a xlink:title=" ">
<polygon fill="white" stroke="#bfbfbf" points="0,-328.5 0,-347.5 67,-347.5 67,-328.5 0,-328.5"/>
<text text-anchor="middle" x="33.5" y="-335.5" font-family="Helvetica,sans-Serif" font-size="10.00">IDisposable</text>
</a>
</g>
</g>
<!-- Node6&#45;&gt;Node5 -->
<g id="edge5" class="edge"><title>Node6&#45;&gt;Node5</title>
<path fill="none" stroke="midnightblue" d="M55.2229,-322.807C63.2547,-317.973 72.5787,-312.828 81.5,-309 99.2679,-301.376 119.84,-295.153 137.111,-290.611"/>
<polygon fill="midnightblue" stroke="midnightblue" points="53.1296,-319.988 46.4894,-328.243 56.8287,-325.931 53.1296,-319.988"/>
</g>
<!-- Node7 -->
<g id="node7" class="node"><title>Node7</title>
<g id="a_node7"><a xlink:href="../../de/d0d/interfaceIG_1_1Lib_1_1IReporterBase.html" target="_top" xlink:title="Interface from which all reporters inherit.">
<polygon fill="white" stroke="black" points="195.5,-385.5 195.5,-404.5 273.5,-404.5 273.5,-385.5 195.5,-385.5"/>
<text text-anchor="middle" x="234.5" y="-392.5" font-family="Helvetica,sans-Serif" font-size="10.00">IReporterBase</text>
</a>
</g>
</g>
<!-- Node7&#45;&gt;Node5 -->
<g id="edge6" class="edge"><title>Node7&#45;&gt;Node5</title>
<path fill="none" stroke="midnightblue" d="M185.295,-388.354C159.655,-382.634 130.403,-371.128 114.5,-348 98.97,-325.415 133.598,-302.51 156.448,-290.524"/>
<polygon fill="midnightblue" stroke="midnightblue" points="184.784,-391.821 195.275,-390.341 186.15,-384.956 184.784,-391.821"/>
</g>
<!-- Node8 -->
<g id="node8" class="node"><title>Node8</title>
<g id="a_node8"><a xlink:href="../../d2/d8e/interfaceIG_1_1Lib_1_1IReporterTextWriter.html" target="_top" xlink:title="Reporters that utilize writing messages to files. Messages are typically formatted as multi&#45;line mess...">
<polygon fill="white" stroke="black" points="124,-328.5 124,-347.5 225,-347.5 225,-328.5 124,-328.5"/>
<text text-anchor="middle" x="174.5" y="-335.5" font-family="Helvetica,sans-Serif" font-size="10.00">IReporterTextWriter</text>
</a>
</g>
</g>
<!-- Node7&#45;&gt;Node8 -->
<g id="edge8" class="edge"><title>Node7&#45;&gt;Node8</title>
<path fill="none" stroke="midnightblue" d="M217.499,-378.416C206.648,-368.469 192.983,-355.943 184.007,-347.715"/>
<polygon fill="midnightblue" stroke="midnightblue" points="215.388,-381.229 225.125,-385.406 220.118,-376.069 215.388,-381.229"/>
</g>
<!-- Node9 -->
<g id="node9" class="node"><title>Node9</title>
<g id="a_node9"><a xlink:href="../../d1/ddb/interfaceIG_1_1Lib_1_1IReporterTextLogger.html" target="_top" xlink:title="Reporters that utilize logging messages to files. IReporterTextLogger typically outputs (to a file) m...">
<polygon fill="white" stroke="black" points="243.5,-328.5 243.5,-347.5 347.5,-347.5 347.5,-328.5 243.5,-328.5"/>
<text text-anchor="middle" x="295.5" y="-335.5" font-family="Helvetica,sans-Serif" font-size="10.00">IReporterTextLogger</text>
</a>
</g>
</g>
<!-- Node7&#45;&gt;Node9 -->
<g id="edge10" class="edge"><title>Node7&#45;&gt;Node9</title>
<path fill="none" stroke="midnightblue" d="M251.46,-378.708C262.543,-368.715 276.619,-356.024 285.834,-347.715"/>
<polygon fill="midnightblue" stroke="midnightblue" points="249.114,-376.11 244.031,-385.406 253.802,-381.309 249.114,-376.11"/>
</g>
<!-- Node10 -->
<g id="node10" class="node"><title>Node10</title>
<g id="a_node10"><a xlink:href="../../d0/d0e/interfaceIG_1_1Lib_1_1IReporterTrace.html" target="_top" xlink:title="Reporters that utilize system&#39;s trace utility.">
<polygon fill="white" stroke="black" points="365.5,-328.5 365.5,-347.5 445.5,-347.5 445.5,-328.5 365.5,-328.5"/>
<text text-anchor="middle" x="405.5" y="-335.5" font-family="Helvetica,sans-Serif" font-size="10.00">IReporterTrace</text>
</a>
</g>
</g>
<!-- Node7&#45;&gt;Node10 -->
<g id="edge12" class="edge"><title>Node7&#45;&gt;Node10</title>
<path fill="none" stroke="midnightblue" d="M270.784,-382.33C303.201,-371.903 349.931,-356.873 378.969,-347.533"/>
<polygon fill="midnightblue" stroke="midnightblue" points="269.667,-379.012 261.219,-385.406 271.81,-385.676 269.667,-379.012"/>
</g>
<!-- Node8&#45;&gt;Node5 -->
<g id="edge7" class="edge"><title>Node8&#45;&gt;Node5</title>
<path fill="none" stroke="midnightblue" d="M174.5,-318.117C174.5,-308.817 174.5,-298.056 174.5,-290.715"/>
<polygon fill="midnightblue" stroke="midnightblue" points="171,-318.406 174.5,-328.406 178,-318.406 171,-318.406"/>
</g>
<!-- Node9&#45;&gt;Node5 -->
<g id="edge9" class="edge"><title>Node9&#45;&gt;Node5</title>
<path fill="none" stroke="midnightblue" d="M267.417,-324.235C244.621,-313.873 213.112,-299.551 193.273,-290.533"/>
<polygon fill="midnightblue" stroke="midnightblue" points="266.042,-327.454 276.594,-328.406 268.938,-321.082 266.042,-327.454"/>
</g>
<!-- Node10&#45;&gt;Node5 -->
<g id="edge11" class="edge"><title>Node10&#45;&gt;Node5</title>
<path fill="none" stroke="midnightblue" d="M359.829,-326.126C315.991,-315.688 250.668,-300.135 210.424,-290.553"/>
<polygon fill="midnightblue" stroke="midnightblue" points="359.121,-329.555 369.66,-328.467 360.742,-322.745 359.121,-329.555"/>
</g>
<!-- Node11 -->
<g id="node11" class="node"><title>Node11</title>
<g id="a_node11"><a xlink:title=" ">
<polygon fill="white" stroke="#bfbfbf" points="284,-271.5 284,-290.5 325,-290.5 325,-271.5 284,-271.5"/>
<text text-anchor="middle" x="304.5" y="-278.5" font-family="Helvetica,sans-Serif" font-size="10.00">static</text>
</a>
</g>
</g>
<!-- Node11&#45;&gt;Node2 -->
<g id="edge15" class="edge"><title>Node11&#45;&gt;Node2</title>
<path fill="none" stroke="#9a32cd" stroke-dasharray="5,2" d="M329.941,-265.048C333.805,-261.602 337.249,-257.58 339.5,-253 356.753,-217.9 360.13,-198.228 339.5,-165 306.356,-111.617 234.15,-86.7161 187.24,-75.7819"/>
<polygon fill="#9a32cd" stroke="#9a32cd" points="327.532,-262.482 321.665,-271.304 331.753,-268.066 327.532,-262.482"/>
<text text-anchor="middle" x="363.5" y="-139" font-family="Helvetica,sans-Serif" font-size="10.00"> _global</text>
<text text-anchor="middle" x="363.5" y="-128" font-family="Helvetica,sans-Serif" font-size="10.00">lockGlobal</text>
<text text-anchor="middle" x="363.5" y="-117" font-family="Helvetica,sans-Serif" font-size="10.00">_initializedGlobal</text>
</g>
<!-- Node11&#45;&gt;Node3 -->
<g id="edge13" class="edge"><title>Node11&#45;&gt;Node3</title>
<path fill="none" stroke="#9a32cd" stroke-dasharray="5,2" d="M273.754,-278.931C252.916,-276.568 226.225,-270.085 209.5,-253 181.221,-224.113 208.731,-198.763 186.5,-165 179.63,-154.567 168.413,-145.986 159.157,-140.122"/>
<polygon fill="#9a32cd" stroke="#9a32cd" points="273.47,-282.419 283.738,-279.806 274.082,-275.446 273.47,-282.419"/>
<text text-anchor="middle" x="274.5" y="-245" font-family="Helvetica,sans-Serif" font-size="10.00"> _isAnnDllTestMode</text>
<text text-anchor="middle" x="274.5" y="-234" font-family="Helvetica,sans-Serif" font-size="10.00">_numLoadableScriptWarnings</text>
<text text-anchor="middle" x="274.5" y="-223" font-family="Helvetica,sans-Serif" font-size="10.00">_defaultReporter</text>
<text text-anchor="middle" x="274.5" y="-212" font-family="Helvetica,sans-Serif" font-size="10.00">_SoftwareRoot</text>
<text text-anchor="middle" x="274.5" y="-201" font-family="Helvetica,sans-Serif" font-size="10.00">_annDllLimit</text>
<text text-anchor="middle" x="274.5" y="-190" font-family="Helvetica,sans-Serif" font-size="10.00">AnnYY</text>
<text text-anchor="middle" x="274.5" y="-179" font-family="Helvetica,sans-Serif" font-size="10.00">AnnMM</text>
<text text-anchor="middle" x="274.5" y="-168" font-family="Helvetica,sans-Serif" font-size="10.00">AnnDD</text>
</g>
</g>
</svg>
