<?xml version="1.0" encoding="UTF-8" standalone="no"?>
<!DOCTYPE svg PUBLIC "-//W3C//DTD SVG 1.1//EN"
 "http://www.w3.org/Graphics/SVG/1.1/DTD/svg11.dtd">
<!-- Generated by graphviz version 2.38.0 (20140413.2041)
 -->
<!-- Title: IG.Num.Func2dQuadratic Pages: 1 -->
<!--zoomable 266 -->
<svg id="main" version="1.1" xmlns="http://www.w3.org/2000/svg" xmlns:xlink="http://www.w3.org/1999/xlink" xml:space="preserve" onload="init(evt)">
<style type="text/css"><![CDATA[
.edge:hover path { stroke: red; }
.edge:hover polygon { stroke: red; fill: red; }
]]></style>
<script type="text/javascript"><![CDATA[
var edges = document.getElementsByTagName('g');
if (edges && edges.length) {
  for (var i=0;i<edges.length;i++) {
    if (edges[i].id.substr(0,4)=='edge') {
      edges[i].setAttribute('class','edge');
    }
  }
}
]]></script>
        <defs>
                <circle id="rim" cx="0" cy="0" r="7"/>
                <circle id="rim2" cx="0" cy="0" r="3.5"/>
                <g id="zoomPlus">
                        <use xlink:href="#rim" fill="#404040">
                                <set attributeName="fill" to="#808080" begin="zoomplus.mouseover" end="zoomplus.mouseout"/>
                        </use>
                        <path d="M-4,0h8M0,-4v8" fill="none" stroke="white" stroke-width="1.5" pointer-events="none"/>
                </g>
                <g id="zoomMin">
                        <use xlink:href="#rim" fill="#404040">
                                <set attributeName="fill" to="#808080" begin="zoomminus.mouseover" end="zoomminus.mouseout"/>
                        </use>
                        <path d="M-4,0h8" fill="none" stroke="white" stroke-width="1.5" pointer-events="none"/>
                </g>
                <g id="dirArrow">
                        <path fill="none" stroke="white" stroke-width="1.5" d="M0,-3.0v7 M-2.5,-0.5L0,-3.0L2.5,-0.5"/>
                </g>
               <g id="resetDef">
                       <use xlink:href="#rim2" fill="#404040">
                               <set attributeName="fill" to="#808080" begin="reset.mouseover" end="reset.mouseout"/>
                       </use>
               </g>
        </defs>

<script type="text/javascript">
var viewWidth = 518;
var viewHeight = 266;
var sectionId = 'dynsection-1';
</script>
<script xlink:href="../../svgpan.js"/>
<svg id="graph" class="graph">
<g id="viewport">
<title>IG.Num.Func2dQuadratic</title>
<polygon fill="white" stroke="none" points="-4,4 -4,-262 513.996,-262 513.996,4 -4,4"/>
<!-- Node1 -->
<g id="node1" class="node"><title>Node1</title>
<g id="a_node1"><a xlink:title="Quadratic function of 2 variables.">
<polygon fill="#bfbfbf" stroke="black" points="254.496,-0.5 254.496,-19.5 381.496,-19.5 381.496,-0.5 254.496,-0.5"/>
<text text-anchor="middle" x="317.996" y="-7.5" font-family="Helvetica,sans-Serif" font-size="10.00">IG.Num.Func2dQuadratic</text>
</a>
</g>
</g>
<!-- Node2 -->
<g id="node2" class="node"><title>Node2</title>
<g id="a_node2"><a xlink:href="../../d0/d88/classIG_1_1Num_1_1Func2dVectorFormBase.html" target="_top" xlink:title="Base class for scalar functions of 2 variables (base for implementation of IFunc2d interface).">
<polygon fill="white" stroke="black" points="91.9959,-67.5 91.9959,-86.5 213.996,-86.5 213.996,-67.5 91.9959,-67.5"/>
<text text-anchor="middle" x="152.996" y="-74.5" font-family="Helvetica,sans-Serif" font-size="10.00">Func2dVectorFormBase</text>
</a>
</g>
</g>
<!-- Node2&#45;&gt;Node1 -->
<g id="edge1" class="edge"><title>Node2&#45;&gt;Node1</title>
<path fill="none" stroke="midnightblue" d="M176.668,-62.6408C191.184,-54.7955 210.317,-45.0655 227.996,-38 246.173,-30.7352 267.085,-24.3485 284.173,-19.613"/>
<polygon fill="midnightblue" stroke="midnightblue" points="174.939,-59.5971 167.857,-67.4772 178.307,-65.7335 174.939,-59.5971"/>
</g>
<!-- Node3 -->
<g id="node3" class="node"><title>Node3</title>
<g id="a_node3"><a xlink:href="../../da/d29/classIG_1_1Num_1_1Func2dBase.html" target="_top" xlink:title="Base class for scalar functions of 2 variables (base for implementation of IFunc2d interface).">
<polygon fill="white" stroke="black" points="78.4959,-124.5 78.4959,-143.5 149.496,-143.5 149.496,-124.5 78.4959,-124.5"/>
<text text-anchor="middle" x="113.996" y="-131.5" font-family="Helvetica,sans-Serif" font-size="10.00">Func2dBase</text>
</a>
</g>
</g>
<!-- Node3&#45;&gt;Node2 -->
<g id="edge2" class="edge"><title>Node3&#45;&gt;Node2</title>
<path fill="none" stroke="midnightblue" d="M125.884,-116.234C132.792,-106.493 141.211,-94.6204 146.816,-86.7149"/>
<polygon fill="midnightblue" stroke="midnightblue" points="123.019,-114.224 120.09,-124.406 128.729,-118.273 123.019,-114.224"/>
</g>
<!-- Node4 -->
<g id="node4" class="node"><title>Node4</title>
<g id="a_node4"><a xlink:href="../../d2/d9e/classIG_1_1Num_1_1ScalarFunctionUntransformedBase.html" target="_top" xlink:title="Base class for defining scalar functions without possibility of affine transformation of parameters.">
<polygon fill="white" stroke="black" points="15.4959,-181.5 15.4959,-200.5 182.496,-200.5 182.496,-181.5 15.4959,-181.5"/>
<text text-anchor="middle" x="98.9959" y="-188.5" font-family="Helvetica,sans-Serif" font-size="10.00">ScalarFunctionUntransformedBase</text>
</a>
</g>
</g>
<!-- Node4&#45;&gt;Node3 -->
<g id="edge3" class="edge"><title>Node4&#45;&gt;Node3</title>
<path fill="none" stroke="midnightblue" d="M103.979,-171.728C106.553,-162.292 109.573,-151.217 111.619,-143.715"/>
<polygon fill="midnightblue" stroke="midnightblue" points="100.594,-170.838 101.34,-181.406 107.348,-172.68 100.594,-170.838"/>
</g>
<!-- Node5 -->
<g id="node5" class="node"><title>Node5</title>
<g id="a_node5"><a xlink:href="../../d8/d56/interfaceIG_1_1Num_1_1IScalarFunctionUntransformed.html" target="_top" xlink:title="Scalar functions of vector arguments.">
<polygon fill="white" stroke="black" points="154.496,-238.5 154.496,-257.5 301.496,-257.5 301.496,-238.5 154.496,-238.5"/>
<text text-anchor="middle" x="227.996" y="-245.5" font-family="Helvetica,sans-Serif" font-size="10.00">IScalarFunctionUntransformed</text>
</a>
</g>
</g>
<!-- Node5&#45;&gt;Node1 -->
<g id="edge10" class="edge"><title>Node5&#45;&gt;Node1</title>
<path fill="none" stroke="midnightblue" d="M278.291,-235.108C298.894,-226.967 317.996,-213.596 317.996,-192 317.996,-192 317.996,-192 317.996,-76 317.996,-55.9132 317.996,-32.3347 317.996,-19.8314"/>
<polygon fill="midnightblue" stroke="midnightblue" points="277.031,-231.841 268.783,-238.491 279.377,-238.436 277.031,-231.841"/>
</g>
<!-- Node5&#45;&gt;Node2 -->
<g id="edge8" class="edge"><title>Node5&#45;&gt;Node2</title>
<path fill="none" stroke="midnightblue" d="M242.996,-230.704C249.581,-222.45 256.582,-211.885 259.996,-201 265.21,-184.374 265.06,-176.881 255.996,-162 234.51,-126.725 192.713,-99.7115 169.514,-86.6528"/>
<polygon fill="midnightblue" stroke="midnightblue" points="240.273,-228.504 236.452,-238.386 245.601,-233.044 240.273,-228.504"/>
</g>
<!-- Node5&#45;&gt;Node3 -->
<g id="edge6" class="edge"><title>Node5&#45;&gt;Node3</title>
<path fill="none" stroke="midnightblue" d="M144.147,-240.486C88.8394,-234.246 23.4818,-222.481 5.99588,-201 -17.7259,-171.859 38.4308,-152.201 78.3376,-142.359"/>
<polygon fill="midnightblue" stroke="midnightblue" points="144.025,-243.993 154.344,-241.587 144.778,-237.033 144.025,-243.993"/>
</g>
<!-- Node5&#45;&gt;Node4 -->
<g id="edge4" class="edge"><title>Node5&#45;&gt;Node4</title>
<path fill="none" stroke="midnightblue" d="M198.381,-234.374C174.053,-224.001 140.255,-209.591 119.011,-200.533"/>
<polygon fill="midnightblue" stroke="midnightblue" points="197.268,-237.704 207.84,-238.406 200.014,-231.265 197.268,-237.704"/>
</g>
<!-- Node6 -->
<g id="node6" class="node"><title>Node6</title>
<g id="a_node6"><a xlink:href="../../d8/d15/interfaceIG_1_1Num_1_1IFunc2d.html" target="_top" xlink:title="Represents scalar functions of 2 variables.">
<polygon fill="white" stroke="black" points="200.496,-181.5 200.496,-200.5 251.496,-200.5 251.496,-181.5 200.496,-181.5"/>
<text text-anchor="middle" x="225.996" y="-188.5" font-family="Helvetica,sans-Serif" font-size="10.00">IFunc2d</text>
</a>
</g>
</g>
<!-- Node6&#45;&gt;Node1 -->
<g id="edge9" class="edge"><title>Node6&#45;&gt;Node1</title>
<path fill="none" stroke="midnightblue" d="M235.013,-172.369C249.513,-144.03 278.928,-86.5974 303.996,-38 307.191,-31.8057 310.813,-24.8208 313.573,-19.5075"/>
<polygon fill="midnightblue" stroke="midnightblue" points="231.82,-170.926 230.381,-181.423 238.052,-174.114 231.82,-170.926"/>
</g>
<!-- Node6&#45;&gt;Node2 -->
<g id="edge7" class="edge"><title>Node6&#45;&gt;Node2</title>
<path fill="none" stroke="midnightblue" d="M214.686,-172.647C198.865,-148.375 170.721,-105.194 158.697,-86.7476"/>
<polygon fill="midnightblue" stroke="midnightblue" points="211.875,-174.745 220.268,-181.212 217.739,-170.923 211.875,-174.745"/>
</g>
<!-- Node6&#45;&gt;Node3 -->
<g id="edge5" class="edge"><title>Node6&#45;&gt;Node3</title>
<path fill="none" stroke="midnightblue" d="M198.963,-177.063C189.758,-172.632 179.415,-167.625 169.996,-163 156.922,-156.58 142.191,-149.209 131.121,-143.642"/>
<polygon fill="midnightblue" stroke="midnightblue" points="197.528,-180.257 208.058,-181.432 200.56,-173.947 197.528,-180.257"/>
</g>
<!-- Node7 -->
<g id="node7" class="node"><title>Node7</title>
<g id="a_node7"><a xlink:href="../../dc/daf/structIG_1_1Num_1_1vec2.html" target="_top" xlink:title="Struct representing a 3D vector.">
<polygon fill="white" stroke="black" points="345.996,-67.5 345.996,-86.5 417.996,-86.5 417.996,-67.5 345.996,-67.5"/>
<text text-anchor="middle" x="381.996" y="-74.5" font-family="Helvetica,sans-Serif" font-size="10.00">IG.Num.vec2</text>
</a>
</g>
</g>
<!-- Node7&#45;&gt;Node1 -->
<g id="edge11" class="edge"><title>Node7&#45;&gt;Node1</title>
<path fill="none" stroke="#9a32cd" stroke-dasharray="5,2" d="M366.239,-59.9968C353.688,-47.2496 336.6,-29.8947 326.49,-19.6273"/>
<polygon fill="#9a32cd" stroke="#9a32cd" points="363.854,-62.5637 373.365,-67.2338 368.842,-57.6525 363.854,-62.5637"/>
<text text-anchor="middle" x="360.996" y="-41" font-family="Helvetica,sans-Serif" font-size="10.00"> _b</text>
</g>
<!-- Node8 -->
<g id="node8" class="node"><title>Node8</title>
<g id="a_node8"><a xlink:href="../../de/d1b/structIG_1_1Num_1_1mat2.html" target="_top" xlink:title="2D matrix, struct implementation.">
<polygon fill="white" stroke="black" points="435.996,-67.5 435.996,-86.5 509.996,-86.5 509.996,-67.5 435.996,-67.5"/>
<text text-anchor="middle" x="472.996" y="-74.5" font-family="Helvetica,sans-Serif" font-size="10.00">IG.Num.mat2</text>
</a>
</g>
</g>
<!-- Node8&#45;&gt;Node1 -->
<g id="edge12" class="edge"><title>Node8&#45;&gt;Node1</title>
<path fill="none" stroke="#9a32cd" stroke-dasharray="5,2" d="M443.065,-63.4485C412.376,-50.5787 365.457,-30.9032 338.664,-19.6672"/>
<polygon fill="#9a32cd" stroke="#9a32cd" points="441.838,-66.7289 452.413,-67.3685 444.545,-60.2735 441.838,-66.7289"/>
<text text-anchor="middle" x="412.996" y="-41" font-family="Helvetica,sans-Serif" font-size="10.00"> _G</text>
</g>
</g>
</svg>
        <g id="navigator" transform="translate(0 0)" fill="#404254">
                <rect fill="#f2f5e9" fill-opacity="0.5" stroke="#606060" stroke-width=".5" x="0" y="0" width="60" height="60"/>
                <use id="zoomplus" xlink:href="#zoomPlus" x="17" y="9" onmousedown="handleZoom(evt,'in')"/>
                <use id="zoomminus" xlink:href="#zoomMin" x="42" y="9" onmousedown="handleZoom(evt,'out')"/>
                <use id="reset" xlink:href="#resetDef" x="30" y="36" onmousedown="handleReset()"/>
                <g id="arrowUp" xlink:href="#dirArrow" transform="translate(30 24)" onmousedown="handlePan(0,-1)">
                  <use xlink:href="#rim" fill="#404040">
                        <set attributeName="fill" to="#808080" begin="arrowUp.mouseover" end="arrowUp.mouseout"/>
                  </use>
                  <path fill="none" stroke="white" stroke-width="1.5" d="M0,-3.0v7 M-2.5,-0.5L0,-3.0L2.5,-0.5"/>
                </g>
                <g id="arrowRight" xlink:href="#dirArrow" transform="rotate(90) translate(36 -43)" onmousedown="handlePan(1,0)">
                  <use xlink:href="#rim" fill="#404040">
                        <set attributeName="fill" to="#808080" begin="arrowRight.mouseover" end="arrowRight.mouseout"/>
                  </use>
                  <path fill="none" stroke="white" stroke-width="1.5" d="M0,-3.0v7 M-2.5,-0.5L0,-3.0L2.5,-0.5"/>
                </g>
                <g id="arrowDown" xlink:href="#dirArrow" transform="rotate(180) translate(-30 -48)" onmousedown="handlePan(0,1)">
                  <use xlink:href="#rim" fill="#404040">
                        <set attributeName="fill" to="#808080" begin="arrowDown.mouseover" end="arrowDown.mouseout"/>
                  </use>
                  <path fill="none" stroke="white" stroke-width="1.5" d="M0,-3.0v7 M-2.5,-0.5L0,-3.0L2.5,-0.5"/>
                </g>
                <g id="arrowLeft" xlink:href="#dirArrow" transform="rotate(270) translate(-36 17)" onmousedown="handlePan(-1,0)">
                  <use xlink:href="#rim" fill="#404040">
                        <set attributeName="fill" to="#808080" begin="arrowLeft.mouseover" end="arrowLeft.mouseout"/>
                  </use>
                  <path fill="none" stroke="white" stroke-width="1.5" d="M0,-3.0v7 M-2.5,-0.5L0,-3.0L2.5,-0.5"/>
                </g>
        </g>
        <svg viewBox="0 0 15 15" width="100%" height="30px" preserveAspectRatio="xMaxYMin meet">
         <g id="arrow_out" transform="scale(0.3 0.3)">
          <a xlink:href="classIG_1_1Num_1_1Func2dQuadratic__coll__graph_org.svg" target="_base">
           <rect id="button" ry="5" rx="5" y="6" x="6" height="38" width="38"
                fill="#f2f5e9" fill-opacity="0.5" stroke="#606060" stroke-width="1.0"/>
           <path id="arrow"
             d="M 11.500037,31.436501 C 11.940474,20.09759 22.043105,11.32322 32.158766,21.979434 L 37.068811,17.246167 C 37.068811,17.246167 37.088388,32 37.088388,32 L 22.160133,31.978069 C 22.160133,31.978069 26.997745,27.140456 26.997745,27.140456 C 18.528582,18.264221 13.291696,25.230495 11.500037,31.436501 z"
             style="fill:#404040;"/>
          </a>
         </g>
        </svg>
</svg>
