<?xml version="1.0" encoding="UTF-8" standalone="no"?>
<!DOCTYPE svg PUBLIC "-//W3C//DTD SVG 1.1//EN"
 "http://www.w3.org/Graphics/SVG/1.1/DTD/svg11.dtd">
<!-- Generated by graphviz version 2.38.0 (20140413.2041)
 -->
<!-- Title: IG.Lib.CommandLineApplicationInterpreter Pages: 1 -->
<svg width="258pt" height="162pt"
 viewBox="0.00 0.00 257.50 162.00" xmlns="http://www.w3.org/2000/svg" xmlns:xlink="http://www.w3.org/1999/xlink">
<g id="graph0" class="graph" transform="scale(1 1) rotate(0) translate(4 158)">
<title>IG.Lib.CommandLineApplicationInterpreter</title>
<polygon fill="white" stroke="none" points="-4,4 -4,-158 253.5,-158 253.5,4 -4,4"/>
<!-- Node1 -->
<g id="node1" class="node"><title>Node1</title>
<g id="a_node1"><a xlink:title="Simple command&#45;line application interpreters, holds a set of commands that can be executed by name....">
<polygon fill="#bfbfbf" stroke="black" points="76,-67.5 76,-97.5 231,-97.5 231,-67.5 76,-67.5"/>
<text text-anchor="start" x="84" y="-85.5" font-family="Helvetica,sans-Serif" font-size="10.00">IG.Lib.CommandLineApplication</text>
<text text-anchor="middle" x="153.5" y="-74.5" font-family="Helvetica,sans-Serif" font-size="10.00">Interpreter</text>
</a>
</g>
</g>
<!-- Node4 -->
<g id="node4" class="node"><title>Node4</title>
<g id="a_node4"><a xlink:href="../../d2/d86/classIG_1_1Lib_1_1CommandLineApplicationScriptInterpreter.html" target="_top" xlink:title="Command&#45;line interpreters adapted for executing script commands.">
<polygon fill="white" stroke="black" points="76,-0.5 76,-30.5 231,-30.5 231,-0.5 76,-0.5"/>
<text text-anchor="start" x="84" y="-18.5" font-family="Helvetica,sans-Serif" font-size="10.00">IG.Lib.CommandLineApplication</text>
<text text-anchor="middle" x="153.5" y="-7.5" font-family="Helvetica,sans-Serif" font-size="10.00">ScriptInterpreter</text>
</a>
</g>
</g>
<!-- Node1&#45;&gt;Node4 -->
<g id="edge3" class="edge"><title>Node1&#45;&gt;Node4</title>
<path fill="none" stroke="midnightblue" d="M153.5,-57.1081C153.5,-48.1539 153.5,-38.3227 153.5,-30.5765"/>
<polygon fill="midnightblue" stroke="midnightblue" points="150,-57.3959 153.5,-67.396 157,-57.396 150,-57.3959"/>
</g>
<!-- Node2 -->
<g id="node2" class="node"><title>Node2</title>
<g id="a_node2"><a xlink:href="../../de/dfd/interfaceIG_1_1Lib_1_1ICommandLineApplicationInterpreter.html" target="_top" xlink:title="Interface for simple command&#45;line applicatino interpreters.">
<polygon fill="white" stroke="black" points="0,-134.5 0,-153.5 173,-153.5 173,-134.5 0,-134.5"/>
<text text-anchor="middle" x="86.5" y="-141.5" font-family="Helvetica,sans-Serif" font-size="10.00">ICommandLineApplicationInterpreter</text>
</a>
</g>
</g>
<!-- Node2&#45;&gt;Node1 -->
<g id="edge1" class="edge"><title>Node2&#45;&gt;Node1</title>
<path fill="none" stroke="midnightblue" d="M103.789,-127.646C114.262,-118.346 127.52,-106.572 137.709,-97.523"/>
<polygon fill="midnightblue" stroke="midnightblue" points="101.253,-125.218 96.0995,-134.475 105.901,-130.452 101.253,-125.218"/>
</g>
<!-- Node3 -->
<g id="node3" class="node"><title>Node3</title>
<g id="a_node3"><a xlink:href="../../d3/db6/interfaceIG_1_1Lib_1_1ILockable.html" target="_top" xlink:title="Lockable object, has a Lock property that returns object on which lock must be performed in order to ...">
<polygon fill="white" stroke="black" points="191.5,-134.5 191.5,-153.5 249.5,-153.5 249.5,-134.5 191.5,-134.5"/>
<text text-anchor="middle" x="220.5" y="-141.5" font-family="Helvetica,sans-Serif" font-size="10.00">ILockable</text>
</a>
</g>
</g>
<!-- Node3&#45;&gt;Node1 -->
<g id="edge2" class="edge"><title>Node3&#45;&gt;Node1</title>
<path fill="none" stroke="midnightblue" d="M203.211,-127.646C192.738,-118.346 179.48,-106.572 169.291,-97.523"/>
<polygon fill="midnightblue" stroke="midnightblue" points="201.099,-130.452 210.901,-134.475 205.747,-125.218 201.099,-130.452"/>
</g>
</g>
</svg>
