<?xml version="1.0" encoding="UTF-8" standalone="no"?>
<!DOCTYPE svg PUBLIC "-//W3C//DTD SVG 1.1//EN"
 "http://www.w3.org/Graphics/SVG/1.1/DTD/svg11.dtd">
<!-- Generated by graphviz version 2.38.0 (20140413.2041)
 -->
<!-- Title: IG.Lib.SerializationDtoBase&lt; Type, BaseType &gt; Pages: 1 -->
<svg width="287pt" height="106pt"
 viewBox="0.00 0.00 287.00 106.00" xmlns="http://www.w3.org/2000/svg" xmlns:xlink="http://www.w3.org/1999/xlink">
<g id="graph0" class="graph" transform="scale(1 1) rotate(0) translate(4 102)">
<title>IG.Lib.SerializationDtoBase&lt; Type, BaseType &gt;</title>
<polygon fill="white" stroke="none" points="-4,4 -4,-102 283,-102 283,4 -4,4"/>
<!-- Node1 -->
<g id="node1" class="node"><title>Node1</title>
<g id="a_node1"><a xlink:title="Generic base class for Data Transfer Objects (DTO). This class is used as template for producing conc...">
<polygon fill="#bfbfbf" stroke="black" points="64.5,-0.5 64.5,-30.5 200.5,-30.5 200.5,-0.5 64.5,-0.5"/>
<text text-anchor="start" x="72.5" y="-18.5" font-family="Helvetica,sans-Serif" font-size="10.00">IG.Lib.SerializationDtoBase</text>
<text text-anchor="middle" x="132.5" y="-7.5" font-family="Helvetica,sans-Serif" font-size="10.00">&lt; Type, BaseType &gt;</text>
</a>
</g>
</g>
<!-- Node2 -->
<g id="node2" class="node"><title>Node2</title>
<g id="a_node2"><a xlink:href="../../da/d46/classIG_1_1Lib_1_1SerializationDto.html" target="_top" xlink:title="Auxiliary base class for DTOs, contains some static methods. Provided for simplicity,...">
<polygon fill="white" stroke="black" points="0,-73 0,-92 85,-92 85,-73 0,-73"/>
<text text-anchor="middle" x="42.5" y="-80" font-family="Helvetica,sans-Serif" font-size="10.00">SerializationDto</text>
</a>
</g>
</g>
<!-- Node2&#45;&gt;Node1 -->
<g id="edge1" class="edge"><title>Node2&#45;&gt;Node1</title>
<path fill="none" stroke="midnightblue" d="M62.7854,-66.8495C77.808,-55.9998 98.1577,-41.3028 112.992,-30.589"/>
<polygon fill="midnightblue" stroke="midnightblue" points="60.6954,-64.0415 54.6378,-72.7338 64.7938,-69.7162 60.6954,-64.0415"/>
</g>
<!-- Node3 -->
<g id="node3" class="node"><title>Node3</title>
<g id="a_node3"><a xlink:href="../../d3/db6/interfaceIG_1_1Lib_1_1ILockable.html" target="_top" xlink:title="Lockable object, has a Lock property that returns object on which lock must be performed in order to ...">
<polygon fill="white" stroke="black" points="103.5,-73 103.5,-92 161.5,-92 161.5,-73 103.5,-73"/>
<text text-anchor="middle" x="132.5" y="-80" font-family="Helvetica,sans-Serif" font-size="10.00">ILockable</text>
</a>
</g>
</g>
<!-- Node3&#45;&gt;Node1 -->
<g id="edge2" class="edge"><title>Node3&#45;&gt;Node1</title>
<path fill="none" stroke="midnightblue" d="M132.5,-62.4107C132.5,-52.222 132.5,-39.901 132.5,-30.589"/>
<polygon fill="midnightblue" stroke="midnightblue" points="129,-62.7338 132.5,-72.7338 136,-62.7338 129,-62.7338"/>
</g>
<!-- Node4 -->
<g id="node4" class="node"><title>Node4</title>
<g id="a_node4"><a xlink:href="../../d8/d1e/interfaceIG_1_1Lib_1_1ISerializationDto.html" target="_top" xlink:title=" ">
<polygon fill="white" stroke="black" points="180,-67.5 180,-97.5 279,-97.5 279,-67.5 180,-67.5"/>
<text text-anchor="start" x="188" y="-85.5" font-family="Helvetica,sans-Serif" font-size="10.00">ISerializationDto&lt;</text>
<text text-anchor="middle" x="229.5" y="-74.5" font-family="Helvetica,sans-Serif" font-size="10.00"> Type, BaseType &gt;</text>
</a>
</g>
</g>
<!-- Node4&#45;&gt;Node1 -->
<g id="edge3" class="edge"><title>Node4&#45;&gt;Node1</title>
<path fill="none" stroke="midnightblue" d="M200.003,-61.7337C184.993,-51.6755 167.099,-39.6847 153.506,-30.5765"/>
<polygon fill="midnightblue" stroke="midnightblue" points="198.197,-64.7367 208.452,-67.396 202.094,-58.9216 198.197,-64.7367"/>
</g>
</g>
</svg>
