<?xml version="1.0" encoding="UTF-8" standalone="no"?>
<!DOCTYPE svg PUBLIC "-//W3C//DTD SVG 1.1//EN"
 "http://www.w3.org/Graphics/SVG/1.1/DTD/svg11.dtd">
<!-- Generated by graphviz version 2.38.0 (20140413.2041)
 -->
<!-- Title: IG.Script.ScritpScalarFunctionExample.Container.Function Pages: 1 -->
<svg width="913pt" height="193pt"
 viewBox="0.00 0.00 913.00 193.00" xmlns="http://www.w3.org/2000/svg" xmlns:xlink="http://www.w3.org/1999/xlink">
<g id="graph0" class="graph" transform="scale(1 1) rotate(0) translate(4 189)">
<title>IG.Script.ScritpScalarFunctionExample.Container.Function</title>
<polygon fill="white" stroke="none" points="-4,4 -4,-189 909,-189 909,4 -4,4"/>
<!-- Node1 -->
<g id="node1" class="node"><title>Node1</title>
<g id="a_node1"><a xlink:title=" ">
<polygon fill="#bfbfbf" stroke="black" points="756,-78 756,-108 905,-108 905,-78 756,-78"/>
<text text-anchor="start" x="764" y="-96" font-family="Helvetica,sans-Serif" font-size="10.00">IG.Script.ScritpScalarFunction</text>
<text text-anchor="middle" x="830.5" y="-85" font-family="Helvetica,sans-Serif" font-size="10.00">Example.Container.Function</text>
</a>
</g>
</g>
<!-- Node2 -->
<g id="node2" class="node"><title>Node2</title>
<g id="a_node2"><a xlink:href="../../d5/d06/classIG_1_1Lib_1_1LoadableScalarFunctionBase.html" target="_top" xlink:title="A ScalarFunction class used as base class for dynamically loaded scalar functions....">
<polygon fill="white" stroke="black" points="576,-83.5 576,-102.5 719,-102.5 719,-83.5 576,-83.5"/>
<text text-anchor="middle" x="647.5" y="-90.5" font-family="Helvetica,sans-Serif" font-size="10.00">LoadableScalarFunctionBase</text>
</a>
</g>
</g>
<!-- Node2&#45;&gt;Node1 -->
<g id="edge1" class="edge"><title>Node2&#45;&gt;Node1</title>
<path fill="none" stroke="midnightblue" d="M729.475,-93C738.244,-93 747.133,-93 755.808,-93"/>
<polygon fill="midnightblue" stroke="midnightblue" points="729.257,-89.5001 719.257,-93 729.257,-96.5001 729.257,-89.5001"/>
</g>
<!-- Node3 -->
<g id="node3" class="node"><title>Node3</title>
<g id="a_node3"><a xlink:href="../../d2/d85/classIG_1_1Num_1_1ScalarFunctionBase.html" target="_top" xlink:title="Base class for scalar functions with affine transformation of co&#45;ordinates. The reference function is...">
<polygon fill="white" stroke="black" points="435,-83.5 435,-102.5 539,-102.5 539,-83.5 435,-83.5"/>
<text text-anchor="middle" x="487" y="-90.5" font-family="Helvetica,sans-Serif" font-size="10.00">ScalarFunctionBase</text>
</a>
</g>
</g>
<!-- Node3&#45;&gt;Node2 -->
<g id="edge2" class="edge"><title>Node3&#45;&gt;Node2</title>
<path fill="none" stroke="midnightblue" d="M549.148,-93C557.919,-93 567.003,-93 575.937,-93"/>
<polygon fill="midnightblue" stroke="midnightblue" points="549.023,-89.5001 539.023,-93 549.023,-96.5001 549.023,-89.5001"/>
</g>
<!-- Node4 -->
<g id="node4" class="node"><title>Node4</title>
<g id="a_node4"><a xlink:href="../../d2/d9e/classIG_1_1Num_1_1ScalarFunctionUntransformedBase.html" target="_top" xlink:title="Base class for defining scalar functions without possibility of affine transformation of parameters.">
<polygon fill="white" stroke="black" points="184,-165.5 184,-184.5 351,-184.5 351,-165.5 184,-165.5"/>
<text text-anchor="middle" x="267.5" y="-172.5" font-family="Helvetica,sans-Serif" font-size="10.00">ScalarFunctionUntransformedBase</text>
</a>
</g>
</g>
<!-- Node4&#45;&gt;Node3 -->
<g id="edge3" class="edge"><title>Node4&#45;&gt;Node3</title>
<path fill="none" stroke="midnightblue" d="M326.821,-163.011C335.008,-160.911 343.264,-158.565 351,-156 381.412,-145.916 387.956,-140.529 417,-127 434.069,-119.049 453.267,-109.543 467.071,-102.606"/>
<polygon fill="midnightblue" stroke="midnightblue" points="325.782,-159.662 316.908,-165.45 327.455,-166.459 325.782,-159.662"/>
</g>
<!-- Node5 -->
<g id="node5" class="node"><title>Node5</title>
<g id="a_node5"><a xlink:href="../../d8/d56/interfaceIG_1_1Num_1_1IScalarFunctionUntransformed.html" target="_top" xlink:title="Scalar functions of vector arguments.">
<polygon fill="white" stroke="black" points="0,-147.5 0,-166.5 147,-166.5 147,-147.5 0,-147.5"/>
<text text-anchor="middle" x="73.5" y="-154.5" font-family="Helvetica,sans-Serif" font-size="10.00">IScalarFunctionUntransformed</text>
</a>
</g>
</g>
<!-- Node5&#45;&gt;Node4 -->
<g id="edge4" class="edge"><title>Node5&#45;&gt;Node4</title>
<path fill="none" stroke="midnightblue" d="M157.317,-164.764C166.106,-165.588 175.045,-166.426 183.832,-167.25"/>
<polygon fill="midnightblue" stroke="midnightblue" points="157.37,-161.254 147.087,-163.805 156.717,-168.223 157.37,-161.254"/>
</g>
<!-- Node6 -->
<g id="node6" class="node"><title>Node6</title>
<g id="a_node6"><a xlink:href="../../dd/d1e/interfaceIG_1_1Num_1_1IScalarFunction.html" target="_top" xlink:title="Scalar functions of vector arguments, with eventual affine transformation of parameters....">
<polygon fill="white" stroke="black" points="225.5,-127.5 225.5,-146.5 309.5,-146.5 309.5,-127.5 225.5,-127.5"/>
<text text-anchor="middle" x="267.5" y="-134.5" font-family="Helvetica,sans-Serif" font-size="10.00">IScalarFunction</text>
</a>
</g>
</g>
<!-- Node5&#45;&gt;Node6 -->
<g id="edge6" class="edge"><title>Node5&#45;&gt;Node6</title>
<path fill="none" stroke="midnightblue" d="M157.104,-148.395C180.674,-145.94 205.343,-143.371 225.276,-141.294"/>
<polygon fill="midnightblue" stroke="midnightblue" points="156.67,-144.922 147.087,-149.439 157.396,-151.884 156.67,-144.922"/>
</g>
<!-- Node6&#45;&gt;Node3 -->
<g id="edge5" class="edge"><title>Node6&#45;&gt;Node3</title>
<path fill="none" stroke="midnightblue" d="M319.701,-127.278C348.349,-121.77 384.693,-114.665 417,-108 425.404,-106.266 434.371,-104.359 442.965,-102.503"/>
<polygon fill="midnightblue" stroke="midnightblue" points="318.679,-123.911 309.517,-129.232 319.998,-130.785 318.679,-123.911"/>
</g>
<!-- Node7 -->
<g id="node7" class="node"><title>Node7</title>
<g id="a_node7"><a xlink:href="../../d8/d86/interfaceIG_1_1Num_1_1IMatrix.html" target="_top" xlink:title="Generic Matrix interface.">
<polygon fill="white" stroke="black" points="197.5,-78 197.5,-108 337.5,-108 337.5,-78 197.5,-78"/>
<text text-anchor="start" x="205.5" y="-96" font-family="Helvetica,sans-Serif" font-size="10.00">IG.Num.IMatrix&lt; Component</text>
<text text-anchor="middle" x="267.5" y="-85" font-family="Helvetica,sans-Serif" font-size="10.00">Type &gt;</text>
</a>
</g>
</g>
<!-- Node7&#45;&gt;Node3 -->
<g id="edge7" class="edge"><title>Node7&#45;&gt;Node3</title>
<path fill="none" stroke="#9a32cd" stroke-dasharray="5,2" d="M347.731,-93C376.723,-93 408.744,-93 434.664,-93"/>
<polygon fill="#9a32cd" stroke="#9a32cd" points="347.617,-89.5001 337.617,-93 347.617,-96.5001 347.617,-89.5001"/>
<text text-anchor="middle" x="393" y="-96" font-family="Helvetica,sans-Serif" font-size="10.00"> _refHess</text>
</g>
<!-- Node8 -->
<g id="node8" class="node"><title>Node8</title>
<g id="a_node8"><a xlink:href="../../d3/d24/interfaceIG_1_1Num_1_1IVector.html" target="_top" xlink:title="Generic Vector interface">
<polygon fill="white" stroke="black" points="214,-38.5 214,-57.5 321,-57.5 321,-38.5 214,-38.5"/>
<text text-anchor="middle" x="267.5" y="-45.5" font-family="Helvetica,sans-Serif" font-size="10.00">IG.Num.IVector&lt; T &gt;</text>
</a>
</g>
</g>
<!-- Node8&#45;&gt;Node3 -->
<g id="edge8" class="edge"><title>Node8&#45;&gt;Node3</title>
<path fill="none" stroke="#9a32cd" stroke-dasharray="5,2" d="M331.27,-52.7599C357.962,-55.6236 389.267,-60.1012 417,-67 433.398,-71.0791 451.231,-77.8642 464.659,-83.4803"/>
<polygon fill="#9a32cd" stroke="#9a32cd" points="331.587,-49.2741 321.283,-51.7397 330.876,-56.2379 331.587,-49.2741"/>
<text text-anchor="middle" x="393" y="-81" font-family="Helvetica,sans-Serif" font-size="10.00"> _refParam</text>
<text text-anchor="middle" x="393" y="-70" font-family="Helvetica,sans-Serif" font-size="10.00">_refGrad</text>
</g>
<!-- Node9 -->
<g id="node9" class="node"><title>Node9</title>
<g id="a_node9"><a xlink:href="../../d5/d50/interfaceIG_1_1Num_1_1IAffineTransformation.html" target="_top" xlink:title="Affine Transformation.">
<polygon fill="white" stroke="black" points="196,-0.5 196,-19.5 339,-19.5 339,-0.5 196,-0.5"/>
<text text-anchor="middle" x="267.5" y="-7.5" font-family="Helvetica,sans-Serif" font-size="10.00">IG.Num.IAffineTransformation</text>
</a>
</g>
</g>
<!-- Node9&#45;&gt;Node3 -->
<g id="edge9" class="edge"><title>Node9&#45;&gt;Node3</title>
<path fill="none" stroke="#9a32cd" stroke-dasharray="5,2" d="M345.336,-21.6067C368.956,-26.7428 394.614,-33.9684 417,-44 439.525,-54.0939 462.202,-72.0421 475.13,-83.1888"/>
<polygon fill="#9a32cd" stroke="#9a32cd" points="345.857,-18.1402 335.353,-19.5314 344.432,-24.9936 345.857,-18.1402"/>
<text text-anchor="middle" x="393" y="-47" font-family="Helvetica,sans-Serif" font-size="10.00"> _transf</text>
</g>
</g>
</svg>
