<?xml version="1.0" encoding="UTF-8" standalone="no"?>
<!DOCTYPE svg PUBLIC "-//W3C//DTD SVG 1.1//EN"
 "http://www.w3.org/Graphics/SVG/1.1/DTD/svg11.dtd">
<!-- Generated by graphviz version 2.38.0 (20140413.2041)
 -->
<!-- Title: IG.Num.IBoundingBox Pages: 1 -->
<svg width="447pt" height="170pt"
 viewBox="0.00 0.00 447.00 170.00" xmlns="http://www.w3.org/2000/svg" xmlns:xlink="http://www.w3.org/1999/xlink">
<g id="graph0" class="graph" transform="scale(1 1) rotate(0) translate(4 166)">
<title>IG.Num.IBoundingBox</title>
<polygon fill="white" stroke="none" points="-4,4 -4,-166 443,-166 443,4 -4,4"/>
<!-- Node1 -->
<g id="node1" class="node"><title>Node1</title>
<g id="a_node1"><a xlink:title="Bounding box, defines minimum and maximum co&#45;ordinates of domains, geometric objects and their groups...">
<polygon fill="#bfbfbf" stroke="black" points="0,-71.5 0,-90.5 113,-90.5 113,-71.5 0,-71.5"/>
<text text-anchor="middle" x="56.5" y="-78.5" font-family="Helvetica,sans-Serif" font-size="10.00">IG.Num.IBoundingBox</text>
</a>
</g>
</g>
<!-- Node2 -->
<g id="node2" class="node"><title>Node2</title>
<g id="a_node2"><a xlink:href="../../d4/d6b/classIG_1_1Num_1_1BoundingBox.html" target="_top" xlink:title="Bounding box, defines lower and upper bounds on vector quantities such as coordinates of geometrix ob...">
<polygon fill="white" stroke="black" points="323.5,-142.5 323.5,-161.5 433.5,-161.5 433.5,-142.5 323.5,-142.5"/>
<text text-anchor="middle" x="378.5" y="-149.5" font-family="Helvetica,sans-Serif" font-size="10.00">IG.Num.BoundingBox</text>
</a>
</g>
</g>
<!-- Node1&#45;&gt;Node2 -->
<g id="edge1" class="edge"><title>Node1&#45;&gt;Node2</title>
<path fill="none" stroke="midnightblue" d="M89.3068,-94.5651C106.68,-101.528 128.729,-109.647 149,-115 207.671,-130.492 276.628,-140.581 323.323,-146.251"/>
<polygon fill="midnightblue" stroke="midnightblue" points="90.2478,-91.1689 79.6667,-90.6292 87.6018,-97.6495 90.2478,-91.1689"/>
</g>
<!-- Node3 -->
<g id="node3" class="node"><title>Node3</title>
<g id="a_node3"><a xlink:href="../../df/d6d/classIG_1_1Num_1_1BoundingBox1d.html" target="_top" xlink:title="An 1D bounding box.">
<polygon fill="white" stroke="black" points="318,-85.5 318,-104.5 439,-104.5 439,-85.5 318,-85.5"/>
<text text-anchor="middle" x="378.5" y="-92.5" font-family="Helvetica,sans-Serif" font-size="10.00">IG.Num.BoundingBox1d</text>
</a>
</g>
</g>
<!-- Node1&#45;&gt;Node3 -->
<g id="edge2" class="edge"><title>Node1&#45;&gt;Node3</title>
<path fill="none" stroke="midnightblue" d="M104.643,-92.7114C118.81,-95.7087 134.454,-98.5057 149,-100 206.037,-105.859 271.486,-103.511 317.679,-100.354"/>
<polygon fill="midnightblue" stroke="midnightblue" points="105.144,-89.238 94.6253,-90.5093 103.641,-96.0748 105.144,-89.238"/>
</g>
<!-- Node4 -->
<g id="node4" class="node"><title>Node4</title>
<g id="a_node4"><a xlink:href="../../dd/dcf/classIG_1_1Num_1_1BoundingBox2d.html" target="_top" xlink:title="A 2D bounding box.">
<polygon fill="white" stroke="black" points="318,-38.5 318,-57.5 439,-57.5 439,-38.5 318,-38.5"/>
<text text-anchor="middle" x="378.5" y="-45.5" font-family="Helvetica,sans-Serif" font-size="10.00">IG.Num.BoundingBox2d</text>
</a>
</g>
</g>
<!-- Node1&#45;&gt;Node4 -->
<g id="edge3" class="edge"><title>Node1&#45;&gt;Node4</title>
<path fill="none" stroke="midnightblue" d="M107.393,-69.2877C120.835,-66.5033 135.417,-63.8169 149,-62 205.924,-54.3861 271.388,-50.9071 317.615,-49.3209"/>
<polygon fill="midnightblue" stroke="midnightblue" points="106.423,-65.9158 97.372,-71.4232 107.882,-72.7621 106.423,-65.9158"/>
</g>
<!-- Node5 -->
<g id="node5" class="node"><title>Node5</title>
<g id="a_node5"><a xlink:href="../../d5/da6/classIG_1_1Num_1_1BoundingBox3d.html" target="_top" xlink:title="A 3D bounding box.">
<polygon fill="white" stroke="black" points="318,-0.5 318,-19.5 439,-19.5 439,-0.5 318,-0.5"/>
<text text-anchor="middle" x="378.5" y="-7.5" font-family="Helvetica,sans-Serif" font-size="10.00">IG.Num.BoundingBox3d</text>
</a>
</g>
</g>
<!-- Node1&#45;&gt;Node5 -->
<g id="edge4" class="edge"><title>Node1&#45;&gt;Node5</title>
<path fill="none" stroke="midnightblue" d="M88.5584,-67.2592C106.023,-60.0081 128.395,-51.4991 149,-46 205.262,-30.9847 271.096,-21.4295 317.609,-15.9664"/>
<polygon fill="midnightblue" stroke="midnightblue" points="86.7375,-64.2293 78.8931,-71.3508 89.4664,-70.6755 86.7375,-64.2293"/>
</g>
<!-- Node6 -->
<g id="node6" class="node"><title>Node6</title>
<g id="a_node6"><a xlink:href="../../df/d61/classIG_1_1Num_1_1BoundingBoxBase.html" target="_top" xlink:title="Base class for bounding boxes that define minimal and maximal co&#45;ordinates of objects,...">
<polygon fill="white" stroke="black" points="149,-71.5 149,-90.5 282,-90.5 282,-71.5 149,-71.5"/>
<text text-anchor="middle" x="215.5" y="-78.5" font-family="Helvetica,sans-Serif" font-size="10.00">IG.Num.BoundingBoxBase</text>
</a>
</g>
</g>
<!-- Node1&#45;&gt;Node6 -->
<g id="edge5" class="edge"><title>Node1&#45;&gt;Node6</title>
<path fill="none" stroke="midnightblue" d="M123.46,-81C131.896,-81 140.531,-81 148.961,-81"/>
<polygon fill="midnightblue" stroke="midnightblue" points="123.294,-77.5001 113.294,-81 123.294,-84.5001 123.294,-77.5001"/>
</g>
<!-- Node6&#45;&gt;Node2 -->
<g id="edge6" class="edge"><title>Node6&#45;&gt;Node2</title>
<path fill="none" stroke="midnightblue" d="M247.504,-94.6726C279.32,-108.703 327.993,-130.168 355.874,-142.463"/>
<polygon fill="midnightblue" stroke="midnightblue" points="248.775,-91.408 238.213,-90.5754 245.951,-97.8129 248.775,-91.408"/>
</g>
<!-- Node6&#45;&gt;Node3 -->
<g id="edge7" class="edge"><title>Node6&#45;&gt;Node3</title>
<path fill="none" stroke="midnightblue" d="M292.419,-87.6017C300.958,-88.3442 309.567,-89.0927 317.858,-89.8137"/>
<polygon fill="midnightblue" stroke="midnightblue" points="292.715,-84.1143 282.449,-86.7347 292.109,-91.088 292.715,-84.1143"/>
</g>
<!-- Node6&#45;&gt;Node4 -->
<g id="edge8" class="edge"><title>Node6&#45;&gt;Node4</title>
<path fill="none" stroke="midnightblue" d="M273.074,-69.4041C292.034,-65.5179 312.942,-61.2325 331.037,-57.5235"/>
<polygon fill="midnightblue" stroke="midnightblue" points="272.161,-66.0183 263.068,-71.455 273.567,-72.8757 272.161,-66.0183"/>
</g>
<!-- Node6&#45;&gt;Node5 -->
<g id="edge9" class="edge"><title>Node6&#45;&gt;Node5</title>
<path fill="none" stroke="midnightblue" d="M241.858,-66.5303C262.064,-55.3651 291.297,-40.0162 318,-29 326.42,-25.5262 335.721,-22.2865 344.418,-19.5012"/>
<polygon fill="midnightblue" stroke="midnightblue" points="240.007,-63.5549 232.983,-71.4864 243.42,-69.6666 240.007,-63.5549"/>
</g>
</g>
</svg>
