<?xml version="1.0" encoding="UTF-8" standalone="no"?>
<!DOCTYPE svg PUBLIC "-//W3C//DTD SVG 1.1//EN"
 "http://www.w3.org/Graphics/SVG/1.1/DTD/svg11.dtd">
<!-- Generated by graphviz version 2.38.0 (20140413.2041)
 -->
<!-- Title: Graphical Class Hierarchy Pages: 1 -->
<svg width="330pt" height="61pt"
 viewBox="0.00 0.00 330.00 61.00" xmlns="http://www.w3.org/2000/svg" xmlns:xlink="http://www.w3.org/1999/xlink">
<g id="graph0" class="graph" transform="scale(1 1) rotate(0) translate(4 57)">
<title>Graphical Class Hierarchy</title>
<polygon fill="white" stroke="none" points="-4,4 -4,-57 326,-57 326,4 -4,4"/>
<!-- Node245 -->
<g id="node1" class="node"><title>Node245</title>
<g id="a_node1"><a xlink:title=" ">
<polygon fill="white" stroke="#bfbfbf" points="0,-0.5 0,-52.5 137,-52.5 137,-0.5 0,-0.5"/>
<text text-anchor="start" x="8" y="-40.5" font-family="Helvetica,sans-Serif" font-size="10.00">ParallelJobDispatcherGen</text>
<text text-anchor="start" x="8" y="-29.5" font-family="Helvetica,sans-Serif" font-size="10.00">&lt; InputType, ResultType,</text>
<text text-anchor="start" x="8" y="-18.5" font-family="Helvetica,sans-Serif" font-size="10.00"> ParallelJobContainerGen</text>
<text text-anchor="middle" x="68.5" y="-7.5" font-family="Helvetica,sans-Serif" font-size="10.00">&lt; InputType, ResultType &gt;&gt;</text>
</a>
</g>
</g>
<!-- Node0 -->
<g id="node2" class="node"><title>Node0</title>
<g id="a_node2"><a xlink:href="dc/da7/classIG_1_1Num_1_1ParallelJobDispatcherGen.html" target="_top" xlink:title="Parallel job jerver for job containers that inherit from ParallelJobContainerGen&lt;InputType,...">
<polygon fill="white" stroke="black" points="173,-11.5 173,-41.5 322,-41.5 322,-11.5 173,-11.5"/>
<text text-anchor="start" x="181" y="-29.5" font-family="Helvetica,sans-Serif" font-size="10.00">IG.Num.ParallelJobDispatcher</text>
<text text-anchor="middle" x="247.5" y="-18.5" font-family="Helvetica,sans-Serif" font-size="10.00">Gen&lt; InputType, ResultType &gt;</text>
</a>
</g>
</g>
<!-- Node245&#45;&gt;Node0 -->
<g id="edge1" class="edge"><title>Node245&#45;&gt;Node0</title>
<path fill="none" stroke="midnightblue" d="M147.437,-26.5C155.923,-26.5 164.54,-26.5 172.97,-26.5"/>
<polygon fill="midnightblue" stroke="midnightblue" points="147.174,-23.0001 137.174,-26.5 147.174,-30.0001 147.174,-23.0001"/>
</g>
</g>
</svg>
