<?xml version="1.0" encoding="UTF-8" standalone="no"?>
<!DOCTYPE svg PUBLIC "-//W3C//DTD SVG 1.1//EN"
 "http://www.w3.org/Graphics/SVG/1.1/DTD/svg11.dtd">
<!-- Generated by graphviz version 2.38.0 (20140413.2041)
 -->
<!-- Title: Graphical Class Hierarchy Pages: 1 -->
<svg width="378pt" height="127pt"
 viewBox="0.00 0.00 378.00 127.00" xmlns="http://www.w3.org/2000/svg" xmlns:xlink="http://www.w3.org/1999/xlink">
<g id="graph0" class="graph" transform="scale(1 1) rotate(0) translate(4 123)">
<title>Graphical Class Hierarchy</title>
<polygon fill="white" stroke="none" points="-4,4 -4,-123 374,-123 374,4 -4,4"/>
<!-- Node0 -->
<g id="node1" class="node"><title>Node0</title>
<g id="a_node1"><a xlink:href="d7/d39/classIG_1_1Crypto_1_1PasswordAlgorithmBase.html" target="_top" xlink:title="Base class for algorithms that generate passwords, encryption initialization vectors,...">
<polygon fill="white" stroke="black" points="0,-50 0,-69 167,-69 167,-50 0,-50"/>
<text text-anchor="middle" x="83.5" y="-57" font-family="Helvetica,sans-Serif" font-size="10.00">IG.Crypto.PasswordAlgorithmBase</text>
</a>
</g>
</g>
<!-- Node1 -->
<g id="node2" class="node"><title>Node1</title>
<g id="a_node2"><a xlink:href="db/d6f/classIG_1_1Crypto_1_1PasswordAlgorithmDeriveBytes.html" target="_top" xlink:title="Key generation algorithm that uses a Rfc2898DeriveBytes object (PBKDF2 algorithm).">
<polygon fill="white" stroke="black" points="214,-88.5 214,-118.5 359,-118.5 359,-88.5 214,-88.5"/>
<text text-anchor="start" x="222" y="-106.5" font-family="Helvetica,sans-Serif" font-size="10.00">IG.Crypto.PasswordAlgorithm</text>
<text text-anchor="middle" x="286.5" y="-95.5" font-family="Helvetica,sans-Serif" font-size="10.00">DeriveBytes</text>
</a>
</g>
</g>
<!-- Node0&#45;&gt;Node1 -->
<g id="edge1" class="edge"><title>Node0&#45;&gt;Node1</title>
<path fill="none" stroke="midnightblue" d="M138.142,-71.2424C162.254,-76.5207 191.003,-82.814 216.679,-88.4346"/>
<polygon fill="midnightblue" stroke="midnightblue" points="138.631,-67.7668 128.114,-69.0473 137.134,-74.6049 138.631,-67.7668"/>
</g>
<!-- Node2 -->
<g id="node3" class="node"><title>Node2</title>
<g id="a_node3"><a xlink:href="de/d99/classIG_1_1Crypto_1_1PasswordAlgorithmNone.html" target="_top" xlink:title="Key generation &quot;algorithm&quot; that generates key as an (eventually padded and truncated) copy of its ori...">
<polygon fill="white" stroke="black" points="203,-50 203,-69 370,-69 370,-50 203,-50"/>
<text text-anchor="middle" x="286.5" y="-57" font-family="Helvetica,sans-Serif" font-size="10.00">IG.Crypto.PasswordAlgorithmNone</text>
</a>
</g>
</g>
<!-- Node0&#45;&gt;Node2 -->
<g id="edge2" class="edge"><title>Node0&#45;&gt;Node2</title>
<path fill="none" stroke="midnightblue" d="M177.148,-59.5C185.73,-59.5 194.389,-59.5 202.872,-59.5"/>
<polygon fill="midnightblue" stroke="midnightblue" points="177.125,-56.0001 167.125,-59.5 177.124,-63.0001 177.125,-56.0001"/>
</g>
<!-- Node3 -->
<g id="node4" class="node"><title>Node3</title>
<g id="a_node4"><a xlink:href="d4/dbc/classIG_1_1Crypto_1_1PasswordAlgorithmRfc2898.html" target="_top" xlink:title="Key generation algorithm that uses a Rfc2898DeriveBytes object (PBKDF2 algorithm).">
<polygon fill="white" stroke="black" points="214,-0.5 214,-30.5 359,-30.5 359,-0.5 214,-0.5"/>
<text text-anchor="start" x="222" y="-18.5" font-family="Helvetica,sans-Serif" font-size="10.00">IG.Crypto.PasswordAlgorithm</text>
<text text-anchor="middle" x="286.5" y="-7.5" font-family="Helvetica,sans-Serif" font-size="10.00">Rfc2898</text>
</a>
</g>
</g>
<!-- Node0&#45;&gt;Node3 -->
<g id="edge3" class="edge"><title>Node0&#45;&gt;Node3</title>
<path fill="none" stroke="midnightblue" d="M138.142,-47.7576C162.254,-42.4793 191.003,-36.186 216.679,-30.5654"/>
<polygon fill="midnightblue" stroke="midnightblue" points="137.134,-44.3951 128.114,-49.9527 138.631,-51.2332 137.134,-44.3951"/>
</g>
</g>
</svg>
