<?xml version="1.0" encoding="UTF-8" standalone="no"?>
<!DOCTYPE svg PUBLIC "-//W3C//DTD SVG 1.1//EN"
 "http://www.w3.org/Graphics/SVG/1.1/DTD/svg11.dtd">
<!-- Generated by graphviz version 2.38.0 (20140413.2041)
 -->
<!-- Title: Graphical Class Hierarchy Pages: 1 -->
<svg width="341pt" height="66pt"
 viewBox="0.00 0.00 341.00 66.00" xmlns="http://www.w3.org/2000/svg" xmlns:xlink="http://www.w3.org/1999/xlink">
<g id="graph0" class="graph" transform="scale(1 1) rotate(0) translate(4 62)">
<title>Graphical Class Hierarchy</title>
<polygon fill="white" stroke="none" points="-4,4 -4,-62 337,-62 337,4 -4,4"/>
<!-- Node0 -->
<g id="node1" class="node"><title>Node0</title>
<g id="a_node1"><a xlink:href="df/d9c/classIG_1_1Num_1_1InputOutputElementDefinition.html" target="_top" xlink:title="Base class for input or output data element definition for vector functions, approximations,...">
<polygon fill="white" stroke="black" points="0,-14 0,-44 139,-44 139,-14 0,-14"/>
<text text-anchor="start" x="8" y="-32" font-family="Helvetica,sans-Serif" font-size="10.00">IG.Num.InputOutputElement</text>
<text text-anchor="middle" x="69.5" y="-21" font-family="Helvetica,sans-Serif" font-size="10.00">Definition</text>
</a>
</g>
</g>
<!-- Node1 -->
<g id="node2" class="node"><title>Node1</title>
<g id="a_node2"><a xlink:href="d6/d7a/classIG_1_1Num_1_1InputElementDefinition.html" target="_top" xlink:title="Input data element definition for vector functions, approximations, etc.">
<polygon fill="white" stroke="black" points="179.5,-38.5 179.5,-57.5 328.5,-57.5 328.5,-38.5 179.5,-38.5"/>
<text text-anchor="middle" x="254" y="-45.5" font-family="Helvetica,sans-Serif" font-size="10.00">IG.Num.InputElementDefinition</text>
</a>
</g>
</g>
<!-- Node0&#45;&gt;Node1 -->
<g id="edge1" class="edge"><title>Node0&#45;&gt;Node1</title>
<path fill="none" stroke="midnightblue" d="M149.193,-37.1927C159.238,-38.2385 169.49,-39.3058 179.449,-40.3427"/>
<polygon fill="midnightblue" stroke="midnightblue" points="149.544,-33.7104 139.235,-36.156 148.819,-40.6728 149.544,-33.7104"/>
</g>
<!-- Node2 -->
<g id="node3" class="node"><title>Node2</title>
<g id="a_node3"><a xlink:href="d2/de1/classIG_1_1Num_1_1OutputElementDefinition.html" target="_top" xlink:title="Input data element definition for vector functions, approximations, etc.">
<polygon fill="white" stroke="black" points="175,-0.5 175,-19.5 333,-19.5 333,-0.5 175,-0.5"/>
<text text-anchor="middle" x="254" y="-7.5" font-family="Helvetica,sans-Serif" font-size="10.00">IG.Num.OutputElementDefinition</text>
</a>
</g>
</g>
<!-- Node0&#45;&gt;Node2 -->
<g id="edge2" class="edge"><title>Node0&#45;&gt;Node2</title>
<path fill="none" stroke="midnightblue" d="M149.422,-20.7834C157.848,-19.9062 166.417,-19.0141 174.834,-18.1379"/>
<polygon fill="midnightblue" stroke="midnightblue" points="148.819,-17.3272 139.235,-21.844 149.544,-24.2896 148.819,-17.3272"/>
</g>
</g>
</svg>
