<?xml version="1.0" encoding="UTF-8" standalone="no"?>
<!DOCTYPE svg PUBLIC "-//W3C//DTD SVG 1.1//EN"
 "http://www.w3.org/Graphics/SVG/1.1/DTD/svg11.dtd">
<!-- Generated by graphviz version 2.38.0 (20140413.2041)
 -->
<!-- Title: Graphical Class Hierarchy Pages: 1 -->
<svg width="1047pt" height="1129pt"
 viewBox="0.00 0.00 1047.00 1129.17" xmlns="http://www.w3.org/2000/svg" xmlns:xlink="http://www.w3.org/1999/xlink">
<g id="graph0" class="graph" transform="scale(1 1) rotate(0) translate(4 1125.17)">
<title>Graphical Class Hierarchy</title>
<polygon fill="white" stroke="none" points="-4,4 -4,-1125.17 1043,-1125.17 1043,4 -4,4"/>
<!-- Node0 -->
<g id="node1" class="node"><title>Node0</title>
<g id="a_node1"><a xlink:href="d3/d6f/interfaceIG_1_1Num_1_1IFunc3d2d.html" target="_top" xlink:title="Represents 3D vector functions of 2 variables.">
<polygon fill="white" stroke="black" points="0,-559.081 0,-578.081 98,-578.081 98,-559.081 0,-559.081"/>
<text text-anchor="middle" x="49" y="-566.081" font-family="Helvetica,sans-Serif" font-size="10.00">IG.Num.IFunc3d2d</text>
</a>
</g>
</g>
<!-- Node1 -->
<g id="node2" class="node"><title>Node1</title>
<g id="a_node2"><a xlink:href="df/d0e/classIG_1_1Num_1_1Func3d2dBase.html" target="_top" xlink:title="Base class for 3D vector functions of 2 variables (base for implementation of IFunc3d2d interface).">
<polygon fill="white" stroke="black" points="134,-597.081 134,-616.081 252,-616.081 252,-597.081 134,-597.081"/>
<text text-anchor="middle" x="193" y="-604.081" font-family="Helvetica,sans-Serif" font-size="10.00">IG.Num.Func3d2dBase</text>
</a>
</g>
</g>
<!-- Node0&#45;&gt;Node1 -->
<g id="edge1" class="edge"><title>Node0&#45;&gt;Node1</title>
<path fill="none" stroke="midnightblue" d="M95.4929,-580.755C115.128,-586.01 137.766,-592.068 156.179,-596.995"/>
<polygon fill="midnightblue" stroke="midnightblue" points="96.3975,-577.374 85.8326,-578.17 94.5879,-584.136 96.3975,-577.374"/>
</g>
<!-- Node2 -->
<g id="node3" class="node"><title>Node2</title>
<g id="a_node3"><a xlink:href="d3/dc0/classIG_1_1Num_1_1Func3d2dBaseNoGradient.html" target="_top" xlink:title="Base class for 3D vector functions of 2 variables (implementations of the IFunc3d2d interface) that d...">
<polygon fill="white" stroke="black" points="288,-618.081 288,-637.081 455,-637.081 455,-618.081 288,-618.081"/>
<text text-anchor="middle" x="371.5" y="-625.081" font-family="Helvetica,sans-Serif" font-size="10.00">IG.Num.Func3d2dBaseNoGradient</text>
</a>
</g>
</g>
<!-- Node0&#45;&gt;Node2 -->
<g id="edge30" class="edge"><title>Node0&#45;&gt;Node2</title>
<path fill="none" stroke="midnightblue" d="M67.2628,-584.862C83.19,-598.691 108.211,-617.538 134,-625.581 189.564,-642.911 256.105,-641.662 304.431,-637.096"/>
<polygon fill="midnightblue" stroke="midnightblue" points="69.5873,-582.246 59.807,-578.172 64.9121,-587.456 69.5873,-582.246"/>
</g>
<!-- Node3 -->
<g id="node4" class="node"><title>Node3</title>
<g id="a_node4"><a xlink:href="d0/d54/classIG_1_1Num_1_1Func3d2dExamples_1_1ParametricSurface.html" target="_top" xlink:title="Base class for easy definition of parametric surfaces intended for plotting.">
<polygon fill="white" stroke="black" points="491,-612.581 491,-642.581 633,-642.581 633,-612.581 491,-612.581"/>
<text text-anchor="start" x="499" y="-630.581" font-family="Helvetica,sans-Serif" font-size="10.00">IG.Num.Func3d2dExamples.</text>
<text text-anchor="middle" x="562" y="-619.581" font-family="Helvetica,sans-Serif" font-size="10.00">ParametricSurface</text>
</a>
</g>
</g>
<!-- Node0&#45;&gt;Node3 -->
<g id="edge47" class="edge"><title>Node0&#45;&gt;Node3</title>
<path fill="none" stroke="midnightblue" d="M62.457,-586.555C77.0367,-605.843 103.152,-635.354 134,-647.581 262.324,-698.444 429.588,-664.839 511.465,-642.658"/>
<polygon fill="midnightblue" stroke="midnightblue" points="65.1403,-584.294 56.4251,-578.269 59.4811,-588.414 65.1403,-584.294"/>
</g>
<!-- Node4 -->
<g id="node5" class="node"><title>Node4</title>
<g id="a_node5"><a xlink:href="d2/dff/classIG_1_1Num_1_1Func3d2dExamples_1_1CylinderParametric.html" target="_top" xlink:title="Parametric equation of an origin&#45;centered (ellipsoidal) cylindrical surface in form of 3D vector func...">
<polygon fill="white" stroke="black" points="669,-889.581 669,-919.581 811,-919.581 811,-889.581 669,-889.581"/>
<text text-anchor="start" x="677" y="-907.581" font-family="Helvetica,sans-Serif" font-size="10.00">IG.Num.Func3d2dExamples.</text>
<text text-anchor="middle" x="740" y="-896.581" font-family="Helvetica,sans-Serif" font-size="10.00">CylinderParametric</text>
</a>
</g>
</g>
<!-- Node0&#45;&gt;Node4 -->
<g id="edge32" class="edge"><title>Node0&#45;&gt;Node4</title>
<path fill="none" stroke="midnightblue" d="M49.5428,-588.339C49.513,-639.466 56.9704,-776.966 134,-846.581 210.963,-916.135 526.606,-913.061 668.882,-907.893"/>
<polygon fill="midnightblue" stroke="midnightblue" points="53.043,-588.324 49.6512,-578.287 46.0435,-588.249 53.043,-588.324"/>
</g>
<!-- Node5 -->
<g id="node6" class="node"><title>Node5</title>
<g id="a_node6"><a xlink:href="de/d46/classIG_1_1Num_1_1Func3d2dExamples_1_1EllipsoidParametric.html" target="_top" xlink:title="Parametric equation of an origin&#45;centered ellipsoid surface in form of 3D vector function of 2 variab...">
<polygon fill="white" stroke="black" points="669,-1053.58 669,-1083.58 811,-1083.58 811,-1053.58 669,-1053.58"/>
<text text-anchor="start" x="677" y="-1071.58" font-family="Helvetica,sans-Serif" font-size="10.00">IG.Num.Func3d2dExamples.</text>
<text text-anchor="middle" x="740" y="-1060.58" font-family="Helvetica,sans-Serif" font-size="10.00">EllipsoidParametric</text>
</a>
</g>
</g>
<!-- Node0&#45;&gt;Node5 -->
<g id="edge33" class="edge"><title>Node0&#45;&gt;Node5</title>
<path fill="none" stroke="midnightblue" d="M50.408,-588.471C52.5299,-670.095 65.0576,-977.901 134,-1038.58 211.61,-1106.89 526.906,-1087.96 668.986,-1075.51"/>
<polygon fill="midnightblue" stroke="midnightblue" points="53.899,-588.041 50.165,-578.126 46.9009,-588.205 53.899,-588.041"/>
</g>
<!-- Node6 -->
<g id="node7" class="node"><title>Node6</title>
<g id="a_node7"><a xlink:href="d9/d8e/classIG_1_1Num_1_1Func3d2dExamples_1_1MobiusStrip.html" target="_top" xlink:title="Defines the Möbius strip (a parametric surface), a surface with only one side and only one boundary c...">
<polygon fill="white" stroke="black" points="872,-1087.58 872,-1117.58 1014,-1117.58 1014,-1087.58 872,-1087.58"/>
<text text-anchor="start" x="880" y="-1105.58" font-family="Helvetica,sans-Serif" font-size="10.00">IG.Num.Func3d2dExamples.</text>
<text text-anchor="middle" x="943" y="-1094.58" font-family="Helvetica,sans-Serif" font-size="10.00">MobiusStrip</text>
</a>
</g>
</g>
<!-- Node0&#45;&gt;Node6 -->
<g id="edge45" class="edge"><title>Node0&#45;&gt;Node6</title>
<path fill="none" stroke="midnightblue" d="M50.3515,-588.327C52.2766,-672.8 64.2202,-1002.63 134,-1072.58 209.29,-1148.05 263.896,-1112.58 370.5,-1112.58 370.5,-1112.58 370.5,-1112.58 563,-1112.58 670.783,-1112.58 795.747,-1108.49 871.814,-1105.54"/>
<polygon fill="midnightblue" stroke="midnightblue" points="53.8499,-588.209 50.1448,-578.283 46.8513,-588.353 53.8499,-588.209"/>
</g>
<!-- Node7 -->
<g id="node8" class="node"><title>Node7</title>
<g id="a_node8"><a xlink:href="d3/dd4/classIG_1_1Num_1_1Func3d2dExamples_1_1SphereParametric.html" target="_top" xlink:title="Parametric equation of an origin&#45;centered sphere.">
<polygon fill="white" stroke="black" points="872,-1019.58 872,-1049.58 1014,-1049.58 1014,-1019.58 872,-1019.58"/>
<text text-anchor="start" x="880" y="-1037.58" font-family="Helvetica,sans-Serif" font-size="10.00">IG.Num.Func3d2dExamples.</text>
<text text-anchor="middle" x="943" y="-1026.58" font-family="Helvetica,sans-Serif" font-size="10.00">SphereParametric</text>
</a>
</g>
</g>
<!-- Node0&#45;&gt;Node7 -->
<g id="edge52" class="edge"><title>Node0&#45;&gt;Node7</title>
<path fill="none" stroke="midnightblue" d="M51.3504,-588.647C56.723,-662.385 79.0203,-916.969 134,-972.581 209.664,-1049.11 262.878,-1024.58 370.5,-1024.58 370.5,-1024.58 370.5,-1024.58 563,-1024.58 670.783,-1024.58 795.747,-1028.67 871.814,-1031.62"/>
<polygon fill="midnightblue" stroke="midnightblue" points="54.8244,-588.153 50.631,-578.423 47.8416,-588.644 54.8244,-588.153"/>
</g>
<!-- Node8 -->
<g id="node9" class="node"><title>Node8</title>
<g id="a_node9"><a xlink:href="de/d49/classIG_1_1Num_1_1Func3d2dExamples_1_1EnneperSurface.html" target="_top" xlink:title="Parametric equation of the Enneper surface, in form of 3D vector function of 2 variables.">
<polygon fill="white" stroke="black" points="669,-840.581 669,-870.581 811,-870.581 811,-840.581 669,-840.581"/>
<text text-anchor="start" x="677" y="-858.581" font-family="Helvetica,sans-Serif" font-size="10.00">IG.Num.Func3d2dExamples.</text>
<text text-anchor="middle" x="740" y="-847.581" font-family="Helvetica,sans-Serif" font-size="10.00">EnneperSurface</text>
</a>
</g>
</g>
<!-- Node0&#45;&gt;Node8 -->
<g id="edge34" class="edge"><title>Node0&#45;&gt;Node8</title>
<path fill="none" stroke="midnightblue" d="M50.4254,-588.137C52.5744,-634.793 64.9231,-753.089 134,-811.581 212.963,-878.444 527.157,-868.586 668.943,-860.391"/>
<polygon fill="midnightblue" stroke="midnightblue" points="53.923,-588.002 50.0758,-578.131 46.9272,-588.247 53.923,-588.002"/>
</g>
<!-- Node9 -->
<g id="node10" class="node"><title>Node9</title>
<g id="a_node10"><a xlink:href="d5/dc2/classIG_1_1Num_1_1Func3d2dExamples_1_1HyperboloidParametric.html" target="_top" xlink:title="Parametric definition of an origin&#45;centered hyperboloid surface (x^2/a^2+y^2/b^2&#45;z^2/c^2=1) in form o...">
<polygon fill="white" stroke="black" points="669,-586.581 669,-616.581 811,-616.581 811,-586.581 669,-586.581"/>
<text text-anchor="start" x="677" y="-604.581" font-family="Helvetica,sans-Serif" font-size="10.00">IG.Num.Func3d2dExamples.</text>
<text text-anchor="middle" x="740" y="-593.581" font-family="Helvetica,sans-Serif" font-size="10.00">HyperboloidParametric</text>
</a>
</g>
</g>
<!-- Node0&#45;&gt;Node9 -->
<g id="edge36" class="edge"><title>Node0&#45;&gt;Node9</title>
<path fill="none" stroke="midnightblue" d="M108.54,-565.75C156.705,-563.57 226.76,-560.738 288,-559.581 362.209,-558.178 380.978,-554.137 455,-559.581 528.443,-564.982 611.711,-578.139 669,-588.3"/>
<polygon fill="midnightblue" stroke="midnightblue" points="108.132,-562.265 98.3028,-566.219 108.452,-569.258 108.132,-562.265"/>
</g>
<!-- Node10 -->
<g id="node11" class="node"><title>Node10</title>
<g id="a_node11"><a xlink:href="d5/dde/classIG_1_1Num_1_1Func3d2dExamples_1_1HyperboloidParametricMinus.html" target="_top" xlink:title="Alternative parameterization of an origin&#45;centered hyperboloid surface (x^2/a^2+y^2/b^2&#45;z^2/c^2=1) in...">
<polygon fill="white" stroke="black" points="872,-808.581 872,-838.581 1014,-838.581 1014,-808.581 872,-808.581"/>
<text text-anchor="start" x="880" y="-826.581" font-family="Helvetica,sans-Serif" font-size="10.00">IG.Num.Func3d2dExamples.</text>
<text text-anchor="middle" x="943" y="-815.581" font-family="Helvetica,sans-Serif" font-size="10.00">HyperboloidParametricMinus</text>
</a>
</g>
</g>
<!-- Node0&#45;&gt;Node10 -->
<g id="edge38" class="edge"><title>Node0&#45;&gt;Node10</title>
<path fill="none" stroke="midnightblue" d="M51.9416,-588.588C58.9686,-656.882 85.2641,-879.293 134,-928.581 210.095,-1005.54 262.274,-986.581 370.5,-986.581 370.5,-986.581 370.5,-986.581 563,-986.581 673.781,-986.581 711.536,-1010.36 811,-961.581 868.539,-933.363 914.101,-868.662 932.795,-838.978"/>
<polygon fill="midnightblue" stroke="midnightblue" points="55.395,-587.947 50.9149,-578.346 48.4299,-588.645 55.395,-587.947"/>
</g>
<!-- Node11 -->
<g id="node12" class="node"><title>Node11</title>
<g id="a_node12"><a xlink:href="dd/d78/classIG_1_1Num_1_1Func3d2dExamples_1_1HyperboloidParametricPlus.html" target="_top" xlink:title="Alternative parameterization of an origin&#45;centered hyperboloid surface (x^2/a^2+y^2/b^2&#45;z^2/c^2=1) in...">
<polygon fill="white" stroke="black" points="872,-670.581 872,-700.581 1014,-700.581 1014,-670.581 872,-670.581"/>
<text text-anchor="start" x="880" y="-688.581" font-family="Helvetica,sans-Serif" font-size="10.00">IG.Num.Func3d2dExamples.</text>
<text text-anchor="middle" x="943" y="-677.581" font-family="Helvetica,sans-Serif" font-size="10.00">HyperboloidParametricPlus</text>
</a>
</g>
</g>
<!-- Node0&#45;&gt;Node11 -->
<g id="edge39" class="edge"><title>Node0&#45;&gt;Node11</title>
<path fill="none" stroke="midnightblue" d="M52.7075,-588.366C61.5851,-650.448 91.6874,-839.811 134,-882.581 210.749,-960.159 261.373,-948.581 370.5,-948.581 370.5,-948.581 370.5,-948.581 563,-948.581 673.58,-948.581 725.755,-999.017 811,-928.581 857.217,-890.393 819.07,-851.63 847,-798.581 867.776,-759.12 904.197,-721.098 925.398,-700.789"/>
<polygon fill="midnightblue" stroke="midnightblue" points="56.1535,-587.736 51.2987,-578.319 49.2214,-588.708 56.1535,-587.736"/>
</g>
<!-- Node12 -->
<g id="node13" class="node"><title>Node12</title>
<g id="a_node13"><a xlink:href="d8/d4c/classIG_1_1Num_1_1Func3d2dExamples_1_1HyperboloidTwosheetedLowerParametric.html" target="_top" xlink:title="Parametric definition of an origin&#45;centered upper two&#45;sheeted hyperboloid surface (x^2/a^2+y^2/b^2&#45;z^...">
<polygon fill="white" stroke="black" points="847,-502.581 847,-532.581 1039,-532.581 1039,-502.581 847,-502.581"/>
<text text-anchor="start" x="855" y="-520.581" font-family="Helvetica,sans-Serif" font-size="10.00">IG.Num.Func3d2dExamples.</text>
<text text-anchor="middle" x="943" y="-509.581" font-family="Helvetica,sans-Serif" font-size="10.00">HyperboloidTwosheetedLowerParametric</text>
</a>
</g>
</g>
<!-- Node0&#45;&gt;Node12 -->
<g id="edge40" class="edge"><title>Node0&#45;&gt;Node12</title>
<path fill="none" stroke="midnightblue" d="M51.4107,-548.742C55.617,-505.379 71.9768,-401.86 134,-349.581 215.941,-280.513 263.333,-302.581 370.5,-302.581 370.5,-302.581 370.5,-302.581 563,-302.581 673.737,-302.581 715.626,-270.309 811,-326.581 881.82,-368.366 923.089,-465.275 936.827,-502.575"/>
<polygon fill="midnightblue" stroke="midnightblue" points="47.9114,-548.586 50.5503,-558.847 54.8862,-549.18 47.9114,-548.586"/>
</g>
<!-- Node13 -->
<g id="node14" class="node"><title>Node13</title>
<g id="a_node14"><a xlink:href="da/d7a/classIG_1_1Num_1_1Func3d2dExamples_1_1HyperboloidTwosheetedUpperParametric.html" target="_top" xlink:title="Parametric definition of an origin&#45;centered upper two&#45;sheeted hyperboloid surface (x^2/a^2+y^2/b^2&#45;z^...">
<polygon fill="white" stroke="black" points="847,-256.581 847,-286.581 1039,-286.581 1039,-256.581 847,-256.581"/>
<text text-anchor="start" x="855" y="-274.581" font-family="Helvetica,sans-Serif" font-size="10.00">IG.Num.Func3d2dExamples.</text>
<text text-anchor="middle" x="943" y="-263.581" font-family="Helvetica,sans-Serif" font-size="10.00">HyperboloidTwosheetedUpperParametric</text>
</a>
</g>
</g>
<!-- Node0&#45;&gt;Node13 -->
<g id="edge41" class="edge"><title>Node0&#45;&gt;Node13</title>
<path fill="none" stroke="midnightblue" d="M49.4701,-548.663C49.2994,-497.746 56.5108,-362.231 134,-296.581 214.929,-228.016 264.431,-264.581 370.5,-264.581 370.5,-264.581 370.5,-264.581 563,-264.581 659.74,-264.581 770.347,-266.889 846.998,-268.855"/>
<polygon fill="midnightblue" stroke="midnightblue" points="45.9744,-548.998 49.6147,-558.948 52.9737,-548.9 45.9744,-548.998"/>
</g>
<!-- Node14 -->
<g id="node15" class="node"><title>Node14</title>
<g id="a_node15"><a xlink:href="df/d5f/classIG_1_1Num_1_1Func3d2dExamples_1_1HyperboloidParametric2.html" target="_top" xlink:title="Alternative parametric definition of an origin&#45;centered hyperboloid surface (x^2/a^2+y^2/b^2&#45;z^2/c^2=...">
<polygon fill="white" stroke="black" points="669,-791.581 669,-821.581 811,-821.581 811,-791.581 669,-791.581"/>
<text text-anchor="start" x="677" y="-809.581" font-family="Helvetica,sans-Serif" font-size="10.00">IG.Num.Func3d2dExamples.</text>
<text text-anchor="middle" x="740" y="-798.581" font-family="Helvetica,sans-Serif" font-size="10.00">HyperboloidParametric2</text>
</a>
</g>
</g>
<!-- Node0&#45;&gt;Node14 -->
<g id="edge37" class="edge"><title>Node0&#45;&gt;Node14</title>
<path fill="none" stroke="midnightblue" d="M51.4842,-588.23C55.8257,-630.696 72.4193,-731.102 134,-779.581 215.063,-843.397 527.385,-825.237 668.76,-813.284"/>
<polygon fill="midnightblue" stroke="midnightblue" points="54.9546,-587.742 50.5739,-578.095 47.9827,-588.368 54.9546,-587.742"/>
</g>
<!-- Node15 -->
<g id="node16" class="node"><title>Node15</title>
<g id="a_node16"><a xlink:href="db/de8/classIG_1_1Num_1_1Func3d2dExamples_1_1KleinBottle.html" target="_top" xlink:title="Defines the Klein&#39;s bottle (a parametric surface), a closed surface with no interior and exterior.">
<polygon fill="white" stroke="black" points="669,-742.581 669,-772.581 811,-772.581 811,-742.581 669,-742.581"/>
<text text-anchor="start" x="677" y="-760.581" font-family="Helvetica,sans-Serif" font-size="10.00">IG.Num.Func3d2dExamples.</text>
<text text-anchor="middle" x="740" y="-749.581" font-family="Helvetica,sans-Serif" font-size="10.00">KleinBottle</text>
</a>
</g>
</g>
<!-- Node0&#45;&gt;Node15 -->
<g id="edge42" class="edge"><title>Node0&#45;&gt;Node15</title>
<path fill="none" stroke="midnightblue" d="M53.3773,-588.201C60.8477,-625.369 82.3815,-706.031 134,-747.581 214.348,-812.258 527.426,-783.593 668.905,-766.732"/>
<polygon fill="midnightblue" stroke="midnightblue" points="56.7764,-587.338 51.4927,-578.154 49.8964,-588.628 56.7764,-587.338"/>
</g>
<!-- Node16 -->
<g id="node17" class="node"><title>Node16</title>
<g id="a_node17"><a xlink:href="d2/d37/classIG_1_1Num_1_1Func3d2dExamples_1_1KleinBottle1.html" target="_top" xlink:title="Defines the Klein&#39;s bottle (a parametric surface), a closed surface with no interior and exterior.">
<polygon fill="white" stroke="black" points="669,-693.581 669,-723.581 811,-723.581 811,-693.581 669,-693.581"/>
<text text-anchor="start" x="677" y="-711.581" font-family="Helvetica,sans-Serif" font-size="10.00">IG.Num.Func3d2dExamples.</text>
<text text-anchor="middle" x="740" y="-700.581" font-family="Helvetica,sans-Serif" font-size="10.00">KleinBottle1</text>
</a>
</g>
</g>
<!-- Node0&#45;&gt;Node16 -->
<g id="edge43" class="edge"><title>Node0&#45;&gt;Node16</title>
<path fill="none" stroke="midnightblue" d="M55.8823,-587.78C66.3167,-618.387 91.1066,-677.814 134,-707.581 310.035,-829.744 589.695,-757.845 696.044,-723.595"/>
<polygon fill="midnightblue" stroke="midnightblue" points="59.2048,-586.679 52.7841,-578.251 52.5479,-588.844 59.2048,-586.679"/>
</g>
<!-- Node17 -->
<g id="node18" class="node"><title>Node17</title>
<g id="a_node18"><a xlink:href="d6/d09/classIG_1_1Num_1_1Func3d2dExamples_1_1KleinBottle2.html" target="_top" xlink:title="Defines the Klein&#39;s bottle (a parametric surface), a closed surface with no interior and exterior.">
<polygon fill="white" stroke="black" points="669,-644.581 669,-674.581 811,-674.581 811,-644.581 669,-644.581"/>
<text text-anchor="start" x="677" y="-662.581" font-family="Helvetica,sans-Serif" font-size="10.00">IG.Num.Func3d2dExamples.</text>
<text text-anchor="middle" x="740" y="-651.581" font-family="Helvetica,sans-Serif" font-size="10.00">KleinBottle2</text>
</a>
</g>
</g>
<!-- Node0&#45;&gt;Node17 -->
<g id="edge44" class="edge"><title>Node0&#45;&gt;Node17</title>
<path fill="none" stroke="midnightblue" d="M58.546,-587.403C71.0726,-612.463 97.0135,-655.802 134,-674.581 322.304,-770.187 587.876,-706.415 693.298,-674.6"/>
<polygon fill="midnightblue" stroke="midnightblue" points="61.614,-585.706 54.1385,-578.198 55.3004,-588.729 61.614,-585.706"/>
</g>
<!-- Node18 -->
<g id="node19" class="node"><title>Node18</title>
<g id="a_node19"><a xlink:href="d0/d6c/classIG_1_1Num_1_1Func3d2dExamples_1_1SnailConicSpiral__ToCheck.html" target="_top" xlink:title="Defines a parametric definition of a snail shell &#45; like surface (a parametric surface) in form of 3D ...">
<polygon fill="white" stroke="black" points="669,-536.581 669,-566.581 811,-566.581 811,-536.581 669,-536.581"/>
<text text-anchor="start" x="677" y="-554.581" font-family="Helvetica,sans-Serif" font-size="10.00">IG.Num.Func3d2dExamples.</text>
<text text-anchor="middle" x="740" y="-543.581" font-family="Helvetica,sans-Serif" font-size="10.00">SnailConicSpiral_ToCheck</text>
</a>
</g>
</g>
<!-- Node0&#45;&gt;Node18 -->
<g id="edge49" class="edge"><title>Node0&#45;&gt;Node18</title>
<path fill="none" stroke="midnightblue" d="M69.0369,-552.46C85.1603,-539.931 109.502,-523.55 134,-516.581 347.314,-455.898 414.036,-481.366 633,-516.581 645.724,-518.627 673.838,-527.994 697.916,-536.523"/>
<polygon fill="midnightblue" stroke="midnightblue" points="66.5772,-549.947 60.9762,-558.94 70.963,-555.403 66.5772,-549.947"/>
</g>
<!-- Node19 -->
<g id="node20" class="node"><title>Node19</title>
<g id="a_node20"><a xlink:href="df/d3d/classIG_1_1Num_1_1Func3d2dExamples_1_1SnailShell1.html" target="_top" xlink:title="Definition of parametric surface that ressembles a snail&#39;s shell in form of 3D vector function of 2 v...">
<polygon fill="white" stroke="black" points="669,-487.581 669,-517.581 811,-517.581 811,-487.581 669,-487.581"/>
<text text-anchor="start" x="677" y="-505.581" font-family="Helvetica,sans-Serif" font-size="10.00">IG.Num.Func3d2dExamples.</text>
<text text-anchor="middle" x="740" y="-494.581" font-family="Helvetica,sans-Serif" font-size="10.00">SnailShell1</text>
</a>
</g>
</g>
<!-- Node0&#45;&gt;Node19 -->
<g id="edge50" class="edge"><title>Node0&#45;&gt;Node19</title>
<path fill="none" stroke="midnightblue" d="M62.227,-550.625C76.7588,-530.964 102.983,-500.399 134,-486.581 324.277,-401.815 582.676,-457.932 689.576,-487.565"/>
<polygon fill="midnightblue" stroke="midnightblue" points="59.1859,-548.861 56.2299,-559.035 64.8854,-552.925 59.1859,-548.861"/>
</g>
<!-- Node20 -->
<g id="node21" class="node"><title>Node20</title>
<g id="a_node21"><a xlink:href="d3/de2/classIG_1_1Num_1_1Func3d2dExamples_1_1SnailShell1Streched.html" target="_top" xlink:title="Definition of parametric surface that ressembles a snail&#39;s shell (a bit stretched along the axis) in ...">
<polygon fill="white" stroke="black" points="669,-437.581 669,-467.581 811,-467.581 811,-437.581 669,-437.581"/>
<text text-anchor="start" x="677" y="-455.581" font-family="Helvetica,sans-Serif" font-size="10.00">IG.Num.Func3d2dExamples.</text>
<text text-anchor="middle" x="740" y="-444.581" font-family="Helvetica,sans-Serif" font-size="10.00">SnailShell1Streched</text>
</a>
</g>
</g>
<!-- Node0&#45;&gt;Node20 -->
<g id="edge51" class="edge"><title>Node0&#45;&gt;Node20</title>
<path fill="none" stroke="midnightblue" d="M57.1612,-549.666C68.6821,-522.187 94.1604,-472.061 134,-449.581 223.477,-399.093 529.489,-427.519 668.851,-443.735"/>
<polygon fill="midnightblue" stroke="midnightblue" points="53.8982,-548.399 53.4282,-558.984 60.3961,-551.003 53.8982,-548.399"/>
</g>
<!-- Node21 -->
<g id="node22" class="node"><title>Node21</title>
<g id="a_node22"><a xlink:href="dc/d0f/classIG_1_1Num_1_1Func3d2dExamples_1_1Surface.html" target="_top" xlink:title="Base class for easy definition of surfaces defined through a function of 2 variables.">
<polygon fill="white" stroke="black" points="669,-167.581 669,-197.581 811,-197.581 811,-167.581 669,-167.581"/>
<text text-anchor="start" x="677" y="-185.581" font-family="Helvetica,sans-Serif" font-size="10.00">IG.Num.Func3d2dExamples.</text>
<text text-anchor="middle" x="740" y="-174.581" font-family="Helvetica,sans-Serif" font-size="10.00">Surface</text>
</a>
</g>
</g>
<!-- Node0&#45;&gt;Node21 -->
<g id="edge53" class="edge"><title>Node0&#45;&gt;Node21</title>
<path fill="none" stroke="midnightblue" d="M51.6509,-548.441C57.7279,-479.744 81.2935,-256.465 134,-212.581 213.353,-146.511 526.962,-164.151 668.743,-175.953"/>
<polygon fill="midnightblue" stroke="midnightblue" points="48.1344,-548.485 50.7695,-558.747 55.109,-549.081 48.1344,-548.485"/>
</g>
<!-- Node22 -->
<g id="node23" class="node"><title>Node22</title>
<g id="a_node23"><a xlink:href="d3/d38/classIG_1_1Num_1_1Func3d2dExamples_1_1HyperbolicParaboloid.html" target="_top" xlink:title="Surface that is a graph of the function z/c=x^2/a^2&#45;y^2/b^2.">
<polygon fill="white" stroke="black" points="872,-203.581 872,-233.581 1014,-233.581 1014,-203.581 872,-203.581"/>
<text text-anchor="start" x="880" y="-221.581" font-family="Helvetica,sans-Serif" font-size="10.00">IG.Num.Func3d2dExamples.</text>
<text text-anchor="middle" x="943" y="-210.581" font-family="Helvetica,sans-Serif" font-size="10.00">HyperbolicParaboloid</text>
</a>
</g>
</g>
<!-- Node0&#45;&gt;Node22 -->
<g id="edge35" class="edge"><title>Node0&#45;&gt;Node22</title>
<path fill="none" stroke="midnightblue" d="M52.3389,-548.718C60.2011,-485.558 87.8081,-291.167 134,-251.581 214.257,-182.801 264.803,-226.581 370.5,-226.581 370.5,-226.581 370.5,-226.581 563,-226.581 670.769,-226.581 795.738,-223.308 871.808,-220.949"/>
<polygon fill="midnightblue" stroke="midnightblue" points="48.8315,-548.569 51.1006,-558.918 55.7804,-549.412 48.8315,-548.569"/>
</g>
<!-- Node23 -->
<g id="node24" class="node"><title>Node23</title>
<g id="a_node24"><a xlink:href="df/dc7/classIG_1_1Num_1_1Func3d2dExamples_1_1Paraboloid.html" target="_top" xlink:title="Surface that is a graph of the function z/c=x^2/a^2+y^2/b^2.">
<polygon fill="white" stroke="black" points="872,-146.581 872,-176.581 1014,-176.581 1014,-146.581 872,-146.581"/>
<text text-anchor="start" x="880" y="-164.581" font-family="Helvetica,sans-Serif" font-size="10.00">IG.Num.Func3d2dExamples.</text>
<text text-anchor="middle" x="943" y="-153.581" font-family="Helvetica,sans-Serif" font-size="10.00">Paraboloid</text>
</a>
</g>
</g>
<!-- Node0&#45;&gt;Node23 -->
<g id="edge46" class="edge"><title>Node0&#45;&gt;Node23</title>
<path fill="none" stroke="midnightblue" d="M51.2682,-548.72C56.3506,-475.754 77.7553,-224.027 134,-171.581 211.62,-99.2032 264.371,-138.581 370.5,-138.581 370.5,-138.581 370.5,-138.581 563,-138.581 670.943,-138.581 795.863,-147.991 871.876,-154.774"/>
<polygon fill="midnightblue" stroke="midnightblue" points="47.7667,-548.626 50.5898,-558.837 54.751,-549.094 47.7667,-548.626"/>
</g>
<!-- Node24 -->
<g id="node25" class="node"><title>Node24</title>
<g id="a_node25"><a xlink:href="da/db2/classIG_1_1Num_1_1Func3d2dExamples_1_1SaddleXY.html" target="_top" xlink:title="Parametric surface that is a graph of the function f(x,y)=x*y.">
<polygon fill="white" stroke="black" points="872,-91.581 872,-121.581 1014,-121.581 1014,-91.581 872,-91.581"/>
<text text-anchor="start" x="880" y="-109.581" font-family="Helvetica,sans-Serif" font-size="10.00">IG.Num.Func3d2dExamples.</text>
<text text-anchor="middle" x="943" y="-98.581" font-family="Helvetica,sans-Serif" font-size="10.00">SaddleXY</text>
</a>
</g>
</g>
<!-- Node0&#45;&gt;Node24 -->
<g id="edge48" class="edge"><title>Node0&#45;&gt;Node24</title>
<path fill="none" stroke="midnightblue" d="M50.7352,-548.383C54.0522,-469.406 70.3608,-182.979 134,-124.581 211.843,-53.1489 264.849,-100.581 370.5,-100.581 370.5,-100.581 370.5,-100.581 563,-100.581 670.759,-100.581 795.73,-103.036 871.804,-104.805"/>
<polygon fill="midnightblue" stroke="midnightblue" points="47.2194,-548.716 50.3224,-558.846 54.214,-548.992 47.2194,-548.716"/>
</g>
<!-- Node25 -->
<g id="node26" class="node"><title>Node25</title>
<g id="a_node26"><a xlink:href="de/d95/classIG_1_1Num_1_1Func3d2dExamples_1_1Torus.html" target="_top" xlink:title="Parametric equation of a toroid surface in form of 3D vector function of 2 variables.">
<polygon fill="white" stroke="black" points="669,-387.581 669,-417.581 811,-417.581 811,-387.581 669,-387.581"/>
<text text-anchor="start" x="677" y="-405.581" font-family="Helvetica,sans-Serif" font-size="10.00">IG.Num.Func3d2dExamples.</text>
<text text-anchor="middle" x="740" y="-394.581" font-family="Helvetica,sans-Serif" font-size="10.00">Torus</text>
</a>
</g>
</g>
<!-- Node0&#45;&gt;Node25 -->
<g id="edge54" class="edge"><title>Node0&#45;&gt;Node25</title>
<path fill="none" stroke="midnightblue" d="M54.4662,-549.223C63.258,-516.099 86.2513,-449.343 134,-420.581 222.1,-367.513 529.205,-385.077 668.88,-396.284"/>
<polygon fill="midnightblue" stroke="midnightblue" points="51.036,-548.514 52.0139,-559.063 57.8282,-550.207 51.036,-548.514"/>
</g>
<!-- Node26 -->
<g id="node27" class="node"><title>Node26</title>
<g id="a_node27"><a xlink:href="de/de3/classIG_1_1Num_1_1Func3d2dExamples_1_1TorusHorizontal.html" target="_top" xlink:title="Parametric equation of a horizontal toroid surface in form of 3D vector function of 2 variables.">
<polygon fill="white" stroke="black" points="669,-41.581 669,-71.581 811,-71.581 811,-41.581 669,-41.581"/>
<text text-anchor="start" x="677" y="-59.581" font-family="Helvetica,sans-Serif" font-size="10.00">IG.Num.Func3d2dExamples.</text>
<text text-anchor="middle" x="740" y="-48.581" font-family="Helvetica,sans-Serif" font-size="10.00">TorusHorizontal</text>
</a>
</g>
</g>
<!-- Node0&#45;&gt;Node26 -->
<g id="edge55" class="edge"><title>Node0&#45;&gt;Node26</title>
<path fill="none" stroke="midnightblue" d="M50.312,-548.7C52.0611,-465.798 63.341,-149.043 134,-86.581 211.462,-18.1051 526.837,-37.1195 668.963,-49.6232"/>
<polygon fill="midnightblue" stroke="midnightblue" points="46.8109,-548.731 50.1233,-558.795 53.8097,-548.862 46.8109,-548.731"/>
</g>
<!-- Node27 -->
<g id="node28" class="node"><title>Node27</title>
<g id="a_node28"><a xlink:href="dc/db8/classIG_1_1Num_1_1Func3d2dExamples_1_1TorusVertical.html" target="_top" xlink:title="Parametric equation of a horizontal toroid surface in form of 3D vector function of 2 variables.">
<polygon fill="white" stroke="black" points="872,-23.581 872,-53.581 1014,-53.581 1014,-23.581 872,-23.581"/>
<text text-anchor="start" x="880" y="-41.581" font-family="Helvetica,sans-Serif" font-size="10.00">IG.Num.Func3d2dExamples.</text>
<text text-anchor="middle" x="943" y="-30.581" font-family="Helvetica,sans-Serif" font-size="10.00">TorusVertical</text>
</a>
</g>
</g>
<!-- Node0&#45;&gt;Node27 -->
<g id="edge56" class="edge"><title>Node0&#45;&gt;Node27</title>
<path fill="none" stroke="midnightblue" d="M50.142,-548.783C51.1969,-461.894 60.0468,-115.469 134,-43.581 210.014,30.3107 264.49,-12.581 370.5,-12.581 370.5,-12.581 370.5,-12.581 563,-12.581 670.998,-12.581 795.903,-23.2189 871.898,-30.8857"/>
<polygon fill="midnightblue" stroke="midnightblue" points="46.6414,-548.834 50.0418,-558.868 53.641,-548.903 46.6414,-548.834"/>
</g>
<!-- Node28 -->
<g id="node29" class="node"><title>Node28</title>
<g id="a_node29"><a xlink:href="df/d65/classIG_1_1Num_1_1Func3d2dExamples_1_1UmbilicTorus.html" target="_top" xlink:title="Parametric equation of the umbilic torus surface, a closed single&#45;edged surface in 3D,...">
<polygon fill="white" stroke="black" points="669,-336.581 669,-366.581 811,-366.581 811,-336.581 669,-336.581"/>
<text text-anchor="start" x="677" y="-354.581" font-family="Helvetica,sans-Serif" font-size="10.00">IG.Num.Func3d2dExamples.</text>
<text text-anchor="middle" x="740" y="-343.581" font-family="Helvetica,sans-Serif" font-size="10.00">UmbilicTorus</text>
</a>
</g>
</g>
<!-- Node0&#45;&gt;Node28 -->
<g id="edge57" class="edge"><title>Node0&#45;&gt;Node28</title>
<path fill="none" stroke="midnightblue" d="M52.5459,-548.991C58.6981,-510.523 78.2293,-425.561 134,-387.581 219.23,-329.539 528.591,-339.271 668.923,-347.022"/>
<polygon fill="midnightblue" stroke="midnightblue" points="49.0758,-548.533 51.0931,-558.934 56.0022,-549.545 49.0758,-548.533"/>
</g>
<!-- Node29 -->
<g id="node30" class="node"><title>Node29</title>
<g id="a_node30"><a xlink:href="df/ded/classIG_1_1Num_1_1Func3d2dBaseNoHessian.html" target="_top" xlink:title="Base class for 3D vector functions of 2 variables (implementations of the IFunc3d2d interface) that d...">
<polygon fill="white" stroke="black" points="289,-569.081 289,-588.081 454,-588.081 454,-569.081 289,-569.081"/>
<text text-anchor="middle" x="371.5" y="-576.081" font-family="Helvetica,sans-Serif" font-size="10.00">IG.Num.Func3d2dBaseNoHessian</text>
</a>
</g>
</g>
<!-- Node0&#45;&gt;Node29 -->
<g id="edge31" class="edge"><title>Node0&#45;&gt;Node29</title>
<path fill="none" stroke="midnightblue" d="M108.421,-570.404C158.9,-571.979 232.394,-574.272 288.717,-576.029"/>
<polygon fill="midnightblue" stroke="midnightblue" points="108.433,-566.903 98.3291,-570.089 108.215,-573.899 108.433,-566.903"/>
</g>
<!-- Node1&#45;&gt;Node2 -->
<g id="edge2" class="edge"><title>Node1&#45;&gt;Node2</title>
<path fill="none" stroke="midnightblue" d="M262.504,-614.732C271.692,-615.825 281.18,-616.954 290.543,-618.068"/>
<polygon fill="midnightblue" stroke="midnightblue" points="262.625,-611.221 252.282,-613.515 261.798,-618.172 262.625,-611.221"/>
</g>
<!-- Node1&#45;&gt;Node29 -->
<g id="edge29" class="edge"><title>Node1&#45;&gt;Node29</title>
<path fill="none" stroke="midnightblue" d="M262.524,-595.71C278.339,-593.201 295.045,-590.551 310.466,-588.105"/>
<polygon fill="midnightblue" stroke="midnightblue" points="261.61,-592.311 252.282,-597.335 262.707,-599.225 261.61,-592.311"/>
</g>
<!-- Node2&#45;&gt;Node3 -->
<g id="edge3" class="edge"><title>Node2&#45;&gt;Node3</title>
<path fill="none" stroke="midnightblue" d="M465.237,-627.581C473.825,-627.581 482.431,-627.581 490.768,-627.581"/>
<polygon fill="midnightblue" stroke="midnightblue" points="465.179,-624.081 455.179,-627.581 465.179,-631.081 465.179,-624.081"/>
</g>
<!-- Node3&#45;&gt;Node4 -->
<g id="edge4" class="edge"><title>Node3&#45;&gt;Node4</title>
<path fill="none" stroke="midnightblue" d="M566.713,-652.713C575.413,-702.843 601.714,-815.907 669,-879.581 673.124,-883.484 677.898,-886.783 682.978,-889.572"/>
<polygon fill="midnightblue" stroke="midnightblue" points="570.149,-652.038 565.073,-642.739 563.242,-653.174 570.149,-652.038"/>
</g>
<!-- Node3&#45;&gt;Node5 -->
<g id="edge5" class="edge"><title>Node3&#45;&gt;Node5</title>
<path fill="none" stroke="midnightblue" d="M570.637,-652.588C586.802,-704.694 626.501,-828.374 669,-928.581 688.735,-975.113 716.745,-1027.93 730.588,-1053.34"/>
<polygon fill="midnightblue" stroke="midnightblue" points="573.93,-651.392 567.637,-642.869 567.242,-653.457 573.93,-651.392"/>
</g>
<!-- Node3&#45;&gt;Node8 -->
<g id="edge8" class="edge"><title>Node3&#45;&gt;Node8</title>
<path fill="none" stroke="midnightblue" d="M569.518,-652.51C581.863,-694.972 612.605,-781.487 669,-830.581 673.477,-834.479 678.606,-837.783 684.007,-840.581"/>
<polygon fill="midnightblue" stroke="midnightblue" points="572.841,-651.398 566.772,-642.714 566.101,-653.287 572.841,-651.398"/>
</g>
<!-- Node3&#45;&gt;Node9 -->
<g id="edge9" class="edge"><title>Node3&#45;&gt;Node9</title>
<path fill="none" stroke="midnightblue" d="M643.101,-615.748C651.706,-614.477 660.412,-613.191 668.888,-611.938"/>
<polygon fill="midnightblue" stroke="midnightblue" points="642.447,-612.306 633.066,-617.23 643.47,-619.231 642.447,-612.306"/>
</g>
<!-- Node3&#45;&gt;Node14 -->
<g id="edge14" class="edge"><title>Node3&#45;&gt;Node14</title>
<path fill="none" stroke="midnightblue" d="M573.664,-651.729C589.697,-685.402 623.099,-746.288 669,-781.581 674.013,-785.435 679.671,-788.73 685.544,-791.538"/>
<polygon fill="midnightblue" stroke="midnightblue" points="576.813,-650.201 569.428,-642.604 570.464,-653.148 576.813,-650.201"/>
</g>
<!-- Node3&#45;&gt;Node15 -->
<g id="edge15" class="edge"><title>Node3&#45;&gt;Node15</title>
<path fill="none" stroke="midnightblue" d="M581.304,-650.96C600.798,-674.471 633.663,-710.335 669,-732.581 675.006,-736.362 681.663,-739.673 688.413,-742.54"/>
<polygon fill="midnightblue" stroke="midnightblue" points="583.774,-648.451 574.747,-642.906 578.345,-652.87 583.774,-648.451"/>
</g>
<!-- Node3&#45;&gt;Node16 -->
<g id="edge16" class="edge"><title>Node3&#45;&gt;Node16</title>
<path fill="none" stroke="midnightblue" d="M597.962,-647.673C618.332,-658.966 644.715,-672.895 669,-683.581 676.914,-687.063 685.48,-690.435 693.815,-693.516"/>
<polygon fill="midnightblue" stroke="midnightblue" points="599.491,-644.518 589.055,-642.691 596.074,-650.627 599.491,-644.518"/>
</g>
<!-- Node3&#45;&gt;Node17 -->
<g id="edge17" class="edge"><title>Node3&#45;&gt;Node17</title>
<path fill="none" stroke="midnightblue" d="M643.101,-642.145C651.706,-643.709 660.412,-645.292 668.888,-646.833"/>
<polygon fill="midnightblue" stroke="midnightblue" points="643.53,-638.666 633.066,-640.32 642.278,-645.553 643.53,-638.666"/>
</g>
<!-- Node3&#45;&gt;Node18 -->
<g id="edge18" class="edge"><title>Node3&#45;&gt;Node18</title>
<path fill="none" stroke="midnightblue" d="M601.391,-607.904C621.329,-597.993 646.226,-586.095 669,-576.581 677.216,-573.149 686.088,-569.75 694.666,-566.617"/>
<polygon fill="midnightblue" stroke="midnightblue" points="599.694,-604.839 592.319,-612.445 602.828,-611.098 599.694,-604.839"/>
</g>
<!-- Node3&#45;&gt;Node19 -->
<g id="edge19" class="edge"><title>Node3&#45;&gt;Node19</title>
<path fill="none" stroke="midnightblue" d="M581.759,-604.663C601.394,-582.001 634.17,-547.733 669,-526.581 674.49,-523.247 680.506,-520.299 686.633,-517.715"/>
<polygon fill="midnightblue" stroke="midnightblue" points="578.955,-602.557 575.14,-612.441 584.286,-607.094 578.955,-602.557"/>
</g>
<!-- Node3&#45;&gt;Node20 -->
<g id="edge20" class="edge"><title>Node3&#45;&gt;Node20</title>
<path fill="none" stroke="midnightblue" d="M574.288,-603.136C590.688,-570.164 624.116,-511.654 669,-477.581 674.036,-473.758 679.709,-470.482 685.591,-467.685"/>
<polygon fill="midnightblue" stroke="midnightblue" points="570.964,-601.969 569.751,-612.494 577.263,-605.022 570.964,-601.969"/>
</g>
<!-- Node3&#45;&gt;Node21 -->
<g id="edge21" class="edge"><title>Node3&#45;&gt;Node21</title>
<path fill="none" stroke="midnightblue" d="M570.728,-602.612C587.063,-550.577 627.061,-427.024 669,-326.581 689.028,-278.613 717.147,-223.887 730.85,-197.871"/>
<polygon fill="midnightblue" stroke="midnightblue" points="567.337,-601.729 567.695,-612.317 574.018,-603.816 567.337,-601.729"/>
</g>
<!-- Node3&#45;&gt;Node25 -->
<g id="edge25" class="edge"><title>Node3&#45;&gt;Node25</title>
<path fill="none" stroke="midnightblue" d="M569.717,-602.709C582.283,-560.761 613.247,-475.816 669,-427.581 673.489,-423.697 678.625,-420.402 684.031,-417.609"/>
<polygon fill="midnightblue" stroke="midnightblue" points="566.331,-601.82 566.915,-612.398 573.055,-603.764 566.331,-601.82"/>
</g>
<!-- Node3&#45;&gt;Node26 -->
<g id="edge26" class="edge"><title>Node3&#45;&gt;Node26</title>
<path fill="none" stroke="midnightblue" d="M565.27,-602.324C572.465,-530.139 598.597,-317.835 669,-157.581 683.588,-124.376 709.67,-90.7323 725.547,-71.8755"/>
<polygon fill="midnightblue" stroke="midnightblue" points="561.783,-602.017 564.308,-612.307 568.751,-602.689 561.783,-602.017"/>
</g>
<!-- Node3&#45;&gt;Node28 -->
<g id="edge28" class="edge"><title>Node3&#45;&gt;Node28</title>
<path fill="none" stroke="midnightblue" d="M566.906,-602.36C575.903,-552.573 602.636,-440.999 669,-377.581 673.499,-373.282 678.772,-369.681 684.37,-366.667"/>
<polygon fill="midnightblue" stroke="midnightblue" points="563.446,-601.831 565.204,-612.279 570.345,-603.015 563.446,-601.831"/>
</g>
<!-- Node5&#45;&gt;Node6 -->
<g id="edge6" class="edge"><title>Node5&#45;&gt;Node6</title>
<path fill="none" stroke="midnightblue" d="M821.318,-1082.17C838.052,-1085 855.563,-1087.96 871.893,-1090.72"/>
<polygon fill="midnightblue" stroke="midnightblue" points="821.462,-1078.64 811.018,-1080.42 820.294,-1085.54 821.462,-1078.64"/>
</g>
<!-- Node5&#45;&gt;Node7 -->
<g id="edge7" class="edge"><title>Node5&#45;&gt;Node7</title>
<path fill="none" stroke="midnightblue" d="M821.318,-1054.99C838.052,-1052.16 855.563,-1049.2 871.893,-1046.44"/>
<polygon fill="midnightblue" stroke="midnightblue" points="820.294,-1051.62 811.018,-1056.74 821.462,-1058.52 820.294,-1051.62"/>
</g>
<!-- Node9&#45;&gt;Node10 -->
<g id="edge10" class="edge"><title>Node9&#45;&gt;Node10</title>
<path fill="none" stroke="midnightblue" d="M794.159,-621.728C800.27,-625.417 806.068,-629.683 811,-634.581 837.236,-660.634 827.012,-678.475 847,-709.581 871.512,-747.728 907.222,-787.305 927.147,-808.316"/>
<polygon fill="midnightblue" stroke="midnightblue" points="795.495,-618.469 785.044,-616.729 792.129,-624.606 795.495,-618.469"/>
</g>
<!-- Node9&#45;&gt;Node11 -->
<g id="edge11" class="edge"><title>Node9&#45;&gt;Node11</title>
<path fill="none" stroke="midnightblue" d="M786.286,-620.506C822.487,-635.635 872.548,-656.556 906.038,-670.552"/>
<polygon fill="midnightblue" stroke="midnightblue" points="787.511,-617.225 776.935,-616.598 784.812,-623.684 787.511,-617.225"/>
</g>
<!-- Node9&#45;&gt;Node12 -->
<g id="edge12" class="edge"><title>Node9&#45;&gt;Node12</title>
<path fill="none" stroke="midnightblue" d="M792.663,-582.799C798.864,-580.425 805.089,-577.985 811,-575.581 844.869,-561.808 883.036,-544.728 909.397,-532.681"/>
<polygon fill="midnightblue" stroke="midnightblue" points="791.102,-579.648 782.989,-586.461 793.58,-586.194 791.102,-579.648"/>
</g>
<!-- Node9&#45;&gt;Node13 -->
<g id="edge13" class="edge"><title>Node9&#45;&gt;Node13</title>
<path fill="none" stroke="midnightblue" d="M804.195,-581.162C806.602,-579.447 808.885,-577.59 811,-575.581 811.721,-574.896 909.265,-347.813 935.543,-286.619"/>
<polygon fill="midnightblue" stroke="midnightblue" points="802.273,-578.235 795.605,-586.469 805.952,-584.191 802.273,-578.235"/>
</g>
<!-- Node21&#45;&gt;Node22 -->
<g id="edge22" class="edge"><title>Node21&#45;&gt;Node22</title>
<path fill="none" stroke="midnightblue" d="M821.318,-196.966C838.052,-199.963 855.563,-203.1 871.893,-206.024"/>
<polygon fill="midnightblue" stroke="midnightblue" points="821.478,-193.439 811.018,-195.121 820.244,-200.33 821.478,-193.439"/>
</g>
<!-- Node21&#45;&gt;Node23 -->
<g id="edge23" class="edge"><title>Node21&#45;&gt;Node23</title>
<path fill="none" stroke="midnightblue" d="M821.318,-174.189C838.052,-172.441 855.563,-170.612 871.893,-168.906"/>
<polygon fill="midnightblue" stroke="midnightblue" points="820.6,-170.745 811.018,-175.266 821.327,-177.708 820.6,-170.745"/>
</g>
<!-- Node21&#45;&gt;Node24 -->
<g id="edge24" class="edge"><title>Node21&#45;&gt;Node24</title>
<path fill="none" stroke="midnightblue" d="M782.736,-163.28C802.093,-154.637 825.522,-144.608 847,-136.581 861.095,-131.313 876.582,-126.161 890.887,-121.654"/>
<polygon fill="midnightblue" stroke="midnightblue" points="781.27,-160.101 773.587,-167.397 784.143,-166.485 781.27,-160.101"/>
</g>
<!-- Node26&#45;&gt;Node27 -->
<g id="edge27" class="edge"><title>Node26&#45;&gt;Node27</title>
<path fill="none" stroke="midnightblue" d="M821.318,-49.3883C838.052,-47.8898 855.563,-46.3216 871.893,-44.8592"/>
<polygon fill="midnightblue" stroke="midnightblue" points="820.666,-45.9326 811.018,-50.3107 821.29,-52.9047 820.666,-45.9326"/>
</g>
</g>
</svg>
