<?xml version="1.0" encoding="UTF-8" standalone="no"?>
<!DOCTYPE svg PUBLIC "-//W3C//DTD SVG 1.1//EN"
 "http://www.w3.org/Graphics/SVG/1.1/DTD/svg11.dtd">
<!-- Generated by graphviz version 2.38.0 (20140413.2041)
 -->
<!-- Title: Graphical Class Hierarchy Pages: 1 -->
<svg width="703pt" height="257pt"
 viewBox="0.00 0.00 703.00 257.00" xmlns="http://www.w3.org/2000/svg" xmlns:xlink="http://www.w3.org/1999/xlink">
<g id="graph0" class="graph" transform="scale(1 1) rotate(0) translate(4 253)">
<title>Graphical Class Hierarchy</title>
<polygon fill="white" stroke="none" points="-4,4 -4,-253 699,-253 699,4 -4,4"/>
<!-- Node384 -->
<g id="node1" class="node"><title>Node384</title>
<g id="a_node1"><a xlink:title=" ">
<polygon fill="white" stroke="#bfbfbf" points="0,-202 0,-221 107,-221 107,-202 0,-202"/>
<text text-anchor="middle" x="53.5" y="-209" font-family="Helvetica,sans-Serif" font-size="10.00">ISingleTypeConverter</text>
</a>
</g>
</g>
<!-- Node385 -->
<g id="node2" class="node"><title>Node385</title>
<g id="a_node2"><a xlink:href="d6/d04/interfaceIGLib_1_1Core_1_1ISingleTypeConverter.html" target="_top" xlink:title="Converts values from a single specific source type (SourceType ) to a single specific target type (Ta...">
<polygon fill="white" stroke="black" points="143,-196.5 143,-226.5 299,-226.5 299,-196.5 143,-196.5"/>
<text text-anchor="start" x="151" y="-214.5" font-family="Helvetica,sans-Serif" font-size="10.00">IGLib.Core.ISingleTypeConverter</text>
<text text-anchor="middle" x="221" y="-203.5" font-family="Helvetica,sans-Serif" font-size="10.00">&lt; TSource, TTarget &gt;</text>
</a>
</g>
</g>
<!-- Node384&#45;&gt;Node385 -->
<g id="edge1" class="edge"><title>Node384&#45;&gt;Node385</title>
<path fill="none" stroke="midnightblue" d="M117.357,-211.5C125.724,-211.5 134.378,-211.5 142.951,-211.5"/>
<polygon fill="midnightblue" stroke="midnightblue" points="117.32,-208 107.32,-211.5 117.32,-215 117.32,-208"/>
</g>
<!-- Node386 -->
<g id="node3" class="node"><title>Node386</title>
<g id="a_node3"><a xlink:href="df/d21/classIGLib_1_1Core_1_1SingleTypeConverterBase.html" target="_top" xlink:title="Abstract base implementation of ISingleTypeConverter&lt;TSource, TTarget&gt;. Sets SourceType and TargetTyp...">
<polygon fill="white" stroke="black" points="335,-196.5 335,-226.5 489,-226.5 489,-196.5 335,-196.5"/>
<text text-anchor="start" x="343" y="-214.5" font-family="Helvetica,sans-Serif" font-size="10.00">IGLib.Core.SingleTypeConverter</text>
<text text-anchor="middle" x="412" y="-203.5" font-family="Helvetica,sans-Serif" font-size="10.00">Base&lt; TSource, TTarget &gt;</text>
</a>
</g>
</g>
<!-- Node385&#45;&gt;Node386 -->
<g id="edge2" class="edge"><title>Node385&#45;&gt;Node386</title>
<path fill="none" stroke="midnightblue" d="M309.4,-211.5C317.852,-211.5 326.38,-211.5 334.712,-211.5"/>
<polygon fill="midnightblue" stroke="midnightblue" points="309.146,-208 299.146,-211.5 309.146,-215 309.146,-208"/>
</g>
<!-- Node387 -->
<g id="node4" class="node"><title>Node387</title>
<g id="a_node4"><a xlink:href="d0/d96/classIGLib_1_1Core_1_1SingleTypeConverterFromDelegate.html" target="_top" xlink:title=" ">
<polygon fill="white" stroke="black" points="525,-218.5 525,-248.5 695,-248.5 695,-218.5 525,-218.5"/>
<text text-anchor="start" x="533" y="-236.5" font-family="Helvetica,sans-Serif" font-size="10.00">IGLib.Core.SingleTypeConverter</text>
<text text-anchor="middle" x="610" y="-225.5" font-family="Helvetica,sans-Serif" font-size="10.00">FromDelegate&lt; TSource, TTarget &gt;</text>
</a>
</g>
</g>
<!-- Node385&#45;&gt;Node387 -->
<g id="edge4" class="edge"><title>Node385&#45;&gt;Node387</title>
<path fill="none" stroke="midnightblue" d="M291.257,-228.595C305.629,-231.469 320.739,-234.002 335,-235.5 398.396,-242.158 470.497,-241.298 524.82,-238.966"/>
<polygon fill="midnightblue" stroke="midnightblue" points="291.947,-225.164 281.445,-226.56 290.525,-232.018 291.947,-225.164"/>
</g>
<!-- Node127 -->
<g id="node5" class="node"><title>Node127</title>
<g id="a_node5"><a xlink:href="d0/dec/classIGLib_1_1Core_1_1Tests_1_1IntArrayToStringConverter__Testing.html" target="_top" xlink:title="Sample implementation of ISingleTypeConverter&lt;SourceType, TargetType&gt; for testing.">
<polygon fill="white" stroke="black" points="347,-147.5 347,-177.5 477,-177.5 477,-147.5 347,-147.5"/>
<text text-anchor="start" x="355" y="-165.5" font-family="Helvetica,sans-Serif" font-size="10.00">IGLib.Core.Tests.IntArray</text>
<text text-anchor="middle" x="412" y="-154.5" font-family="Helvetica,sans-Serif" font-size="10.00">ToStringConverter_Testing</text>
</a>
</g>
</g>
<!-- Node385&#45;&gt;Node127 -->
<g id="edge5" class="edge"><title>Node385&#45;&gt;Node127</title>
<path fill="none" stroke="midnightblue" d="M289.692,-193.95C310.447,-188.569 333.082,-182.701 353.119,-177.506"/>
<polygon fill="midnightblue" stroke="midnightblue" points="288.792,-190.568 279.991,-196.465 290.549,-197.344 288.792,-190.568"/>
</g>
<!-- Node1 -->
<g id="node6" class="node"><title>Node1</title>
<g id="a_node6"><a xlink:href="d3/d1d/classIGLib_1_1Core_1_1Tests_1_1StringToIntArrayConverter__Testing.html" target="_top" xlink:title="Sample implementation of ISingleTypeConverter&lt;SourceType, TargetType&gt; for testing.">
<polygon fill="white" stroke="black" points="348,-49.5 348,-79.5 476,-79.5 476,-49.5 348,-49.5"/>
<text text-anchor="start" x="356" y="-67.5" font-family="Helvetica,sans-Serif" font-size="10.00">IGLib.Core.Tests.StringTo</text>
<text text-anchor="middle" x="412" y="-56.5" font-family="Helvetica,sans-Serif" font-size="10.00">IntArrayConverter_Testing</text>
</a>
</g>
</g>
<!-- Node385&#45;&gt;Node1 -->
<g id="edge6" class="edge"><title>Node385&#45;&gt;Node1</title>
<path fill="none" stroke="midnightblue" d="M290.547,-191.879C293.488,-190.224 296.323,-188.434 299,-186.5 320.906,-170.677 317.19,-157.824 335,-137.5 353.69,-116.173 377.608,-93.9103 393.572,-79.6634"/>
<polygon fill="midnightblue" stroke="midnightblue" points="288.818,-188.831 281.459,-196.453 291.965,-195.084 288.818,-188.831"/>
</g>
<!-- Node386&#45;&gt;Node387 -->
<g id="edge3" class="edge"><title>Node386&#45;&gt;Node387</title>
<path fill="none" stroke="midnightblue" d="M499.045,-221.158C507.613,-222.12 516.304,-223.095 524.853,-224.055"/>
<polygon fill="midnightblue" stroke="midnightblue" points="499.387,-217.675 489.059,-220.037 498.606,-224.631 499.387,-217.675"/>
</g>
<!-- Node383 -->
<g id="node7" class="node"><title>Node383</title>
<g id="a_node7"><a xlink:href="d6/d04/interfaceIGLib_1_1Core_1_1ISingleTypeConverter.html" target="_top" xlink:title=" ">
<polygon fill="white" stroke="black" points="143,-98.5 143,-128.5 299,-128.5 299,-98.5 143,-98.5"/>
<text text-anchor="start" x="151" y="-116.5" font-family="Helvetica,sans-Serif" font-size="10.00">IGLib.Core.ISingleTypeConverter</text>
<text text-anchor="middle" x="221" y="-105.5" font-family="Helvetica,sans-Serif" font-size="10.00">&lt; int[], string &gt;</text>
</a>
</g>
</g>
<!-- Node383&#45;&gt;Node127 -->
<g id="edge7" class="edge"><title>Node383&#45;&gt;Node127</title>
<path fill="none" stroke="midnightblue" d="M289.692,-131.05C310.447,-136.431 333.082,-142.299 353.119,-147.494"/>
<polygon fill="midnightblue" stroke="midnightblue" points="290.549,-127.656 279.991,-128.535 288.792,-134.432 290.549,-127.656"/>
</g>
<!-- Node382 -->
<g id="node8" class="node"><title>Node382</title>
<g id="a_node8"><a xlink:href="d6/d04/interfaceIGLib_1_1Core_1_1ISingleTypeConverter.html" target="_top" xlink:title=" ">
<polygon fill="white" stroke="black" points="143,-0.5 143,-30.5 299,-30.5 299,-0.5 143,-0.5"/>
<text text-anchor="start" x="151" y="-18.5" font-family="Helvetica,sans-Serif" font-size="10.00">IGLib.Core.ISingleTypeConverter</text>
<text text-anchor="middle" x="221" y="-7.5" font-family="Helvetica,sans-Serif" font-size="10.00">&lt; string, int[]&gt;</text>
</a>
</g>
</g>
<!-- Node382&#45;&gt;Node1 -->
<g id="edge8" class="edge"><title>Node382&#45;&gt;Node1</title>
<path fill="none" stroke="midnightblue" d="M289.692,-33.0498C310.447,-38.4306 333.082,-44.299 353.119,-49.4938"/>
<polygon fill="midnightblue" stroke="midnightblue" points="290.549,-29.6563 279.991,-30.5346 288.792,-36.4323 290.549,-29.6563"/>
</g>
<!-- Node126 -->
<g id="node9" class="node"><title>Node126</title>
<g id="a_node9"><a xlink:href="df/d21/classIGLib_1_1Core_1_1SingleTypeConverterBase.html" target="_top" xlink:title=" ">
<polygon fill="white" stroke="black" points="144,-147.5 144,-177.5 298,-177.5 298,-147.5 144,-147.5"/>
<text text-anchor="start" x="152" y="-165.5" font-family="Helvetica,sans-Serif" font-size="10.00">IGLib.Core.SingleTypeConverter</text>
<text text-anchor="middle" x="221" y="-154.5" font-family="Helvetica,sans-Serif" font-size="10.00">Base&lt; int[], string &gt;</text>
</a>
</g>
</g>
<!-- Node126&#45;&gt;Node127 -->
<g id="edge9" class="edge"><title>Node126&#45;&gt;Node127</title>
<path fill="none" stroke="midnightblue" d="M308.394,-162.5C321.362,-162.5 334.536,-162.5 346.928,-162.5"/>
<polygon fill="midnightblue" stroke="midnightblue" points="308.057,-159 298.057,-162.5 308.057,-166 308.057,-159"/>
</g>
<!-- Node0 -->
<g id="node10" class="node"><title>Node0</title>
<g id="a_node10"><a xlink:href="df/d21/classIGLib_1_1Core_1_1SingleTypeConverterBase.html" target="_top" xlink:title=" ">
<polygon fill="white" stroke="black" points="144,-49.5 144,-79.5 298,-79.5 298,-49.5 144,-49.5"/>
<text text-anchor="start" x="152" y="-67.5" font-family="Helvetica,sans-Serif" font-size="10.00">IGLib.Core.SingleTypeConverter</text>
<text text-anchor="middle" x="221" y="-56.5" font-family="Helvetica,sans-Serif" font-size="10.00">Base&lt; string, int[]&gt;</text>
</a>
</g>
</g>
<!-- Node0&#45;&gt;Node1 -->
<g id="edge10" class="edge"><title>Node0&#45;&gt;Node1</title>
<path fill="none" stroke="midnightblue" d="M308.199,-64.5C321.542,-64.5 335.108,-64.5 347.821,-64.5"/>
<polygon fill="midnightblue" stroke="midnightblue" points="308.057,-61.0001 298.057,-64.5 308.057,-68.0001 308.057,-61.0001"/>
</g>
</g>
</svg>
