<?xml version="1.0" encoding="UTF-8" standalone="no"?>
<!DOCTYPE svg PUBLIC "-//W3C//DTD SVG 1.1//EN"
 "http://www.w3.org/Graphics/SVG/1.1/DTD/svg11.dtd">
<!-- Generated by graphviz version 2.38.0 (20140413.2041)
 -->
<!-- Title: Graphical Class Hierarchy Pages: 1 -->
<svg width="480pt" height="88pt"
 viewBox="0.00 0.00 480.00 88.00" xmlns="http://www.w3.org/2000/svg" xmlns:xlink="http://www.w3.org/1999/xlink">
<g id="graph0" class="graph" transform="scale(1 1) rotate(0) translate(4 84)">
<title>Graphical Class Hierarchy</title>
<polygon fill="white" stroke="none" points="-4,4 -4,-84 476,-84 476,4 -4,4"/>
<!-- Node0 -->
<g id="node1" class="node"><title>Node0</title>
<g id="a_node1"><a xlink:href="d4/d68/interfaceIGLib_1_1Core_1_1IReadonlyArrayAccessor.html" target="_top" xlink:title="Provides read only access to elements of an underlying onedimensional array&#45;like structure.">
<polygon fill="white" stroke="black" points="0,-24.5 0,-54.5 133,-54.5 133,-24.5 0,-24.5"/>
<text text-anchor="start" x="8" y="-42.5" font-family="Helvetica,sans-Serif" font-size="10.00">IGLib.Core.IReadonlyArray</text>
<text text-anchor="middle" x="66.5" y="-31.5" font-family="Helvetica,sans-Serif" font-size="10.00">Accessor&lt; ElementType &gt;</text>
</a>
</g>
</g>
<!-- Node1 -->
<g id="node2" class="node"><title>Node1</title>
<g id="a_node2"><a xlink:href="d7/df3/interfaceIGLib_1_1Core_1_1IArrayAccessor.html" target="_top" xlink:title=" ">
<polygon fill="white" stroke="black" points="169.5,-0.5 169.5,-30.5 301.5,-30.5 301.5,-0.5 169.5,-0.5"/>
<text text-anchor="start" x="177.5" y="-18.5" font-family="Helvetica,sans-Serif" font-size="10.00">IGLib.Core.IArrayAccessor</text>
<text text-anchor="middle" x="235.5" y="-7.5" font-family="Helvetica,sans-Serif" font-size="10.00">&lt; ElementType &gt;</text>
</a>
</g>
</g>
<!-- Node0&#45;&gt;Node1 -->
<g id="edge1" class="edge"><title>Node0&#45;&gt;Node1</title>
<path fill="none" stroke="midnightblue" d="M142.938,-28.6586C151.784,-27.3873 160.752,-26.0985 169.439,-24.85"/>
<polygon fill="midnightblue" stroke="midnightblue" points="142.424,-25.1964 133.024,-30.0834 143.42,-32.1253 142.424,-25.1964"/>
</g>
<!-- Node4 -->
<g id="node5" class="node"><title>Node4</title>
<g id="a_node5"><a xlink:href="db/df7/classIGLib_1_1Core_1_1ReadonlyArrayAccessor.html" target="_top" xlink:title="Provides readonly access to elements of a fixed array. This is typically used to access array&#45;like in...">
<polygon fill="white" stroke="black" points="169,-49.5 169,-79.5 302,-79.5 302,-49.5 169,-49.5"/>
<text text-anchor="start" x="177" y="-67.5" font-family="Helvetica,sans-Serif" font-size="10.00">IGLib.Core.ReadonlyArray</text>
<text text-anchor="middle" x="235.5" y="-56.5" font-family="Helvetica,sans-Serif" font-size="10.00">Accessor&lt; ElementType &gt;</text>
</a>
</g>
</g>
<!-- Node0&#45;&gt;Node4 -->
<g id="edge4" class="edge"><title>Node0&#45;&gt;Node4</title>
<path fill="none" stroke="midnightblue" d="M143.066,-50.8123C151.685,-52.1025 160.417,-53.4097 168.891,-54.6783"/>
<polygon fill="midnightblue" stroke="midnightblue" points="143.432,-47.3281 133.024,-49.3089 142.395,-54.2509 143.432,-47.3281"/>
</g>
<!-- Node2 -->
<g id="node3" class="node"><title>Node2</title>
<g id="a_node3"><a xlink:href="d3/daf/classIGLib_1_1Core_1_1ArrayAccessor.html" target="_top" xlink:title="Provides read/write access to elements of a fixed array. This is typically used to access array&#45;like ...">
<polygon fill="white" stroke="black" points="340,-49.5 340,-79.5 470,-79.5 470,-49.5 340,-49.5"/>
<text text-anchor="start" x="348" y="-67.5" font-family="Helvetica,sans-Serif" font-size="10.00">IGLib.Core.ArrayAccessor</text>
<text text-anchor="middle" x="405" y="-56.5" font-family="Helvetica,sans-Serif" font-size="10.00">&lt; ElementType &gt;</text>
</a>
</g>
</g>
<!-- Node1&#45;&gt;Node2 -->
<g id="edge2" class="edge"><title>Node1&#45;&gt;Node2</title>
<path fill="none" stroke="midnightblue" d="M297.918,-33.467C315.864,-38.717 335.287,-44.3989 352.548,-49.4484"/>
<polygon fill="midnightblue" stroke="midnightblue" points="298.703,-30.05 288.122,-30.6014 296.737,-36.7684 298.703,-30.05"/>
</g>
<!-- Node3 -->
<g id="node4" class="node"><title>Node3</title>
<g id="a_node4"><a xlink:href="d2/ded/interfaceIGLib_1_1Core_1_1IResizableArrayAccessor.html" target="_top" xlink:title=" ">
<polygon fill="white" stroke="black" points="338,-0.5 338,-30.5 472,-30.5 472,-0.5 338,-0.5"/>
<text text-anchor="start" x="346" y="-18.5" font-family="Helvetica,sans-Serif" font-size="10.00">IGLib.Core.IResizableArray</text>
<text text-anchor="middle" x="405" y="-7.5" font-family="Helvetica,sans-Serif" font-size="10.00">Accessor&lt; ElementType &gt;</text>
</a>
</g>
</g>
<!-- Node1&#45;&gt;Node3 -->
<g id="edge3" class="edge"><title>Node1&#45;&gt;Node3</title>
<path fill="none" stroke="midnightblue" d="M311.839,-15.5C320.508,-15.5 329.299,-15.5 337.835,-15.5"/>
<polygon fill="midnightblue" stroke="midnightblue" points="311.74,-12.0001 301.739,-15.5 311.739,-19.0001 311.74,-12.0001"/>
</g>
<!-- Node4&#45;&gt;Node2 -->
<g id="edge5" class="edge"><title>Node4&#45;&gt;Node2</title>
<path fill="none" stroke="midnightblue" d="M312.47,-64.5C321.616,-64.5 330.887,-64.5 339.842,-64.5"/>
<polygon fill="midnightblue" stroke="midnightblue" points="312.22,-61.0001 302.22,-64.5 312.22,-68.0001 312.22,-61.0001"/>
</g>
</g>
</svg>
