<?xml version="1.0" encoding="UTF-8" standalone="no"?>
<!DOCTYPE svg PUBLIC "-//W3C//DTD SVG 1.1//EN"
 "http://www.w3.org/Graphics/SVG/1.1/DTD/svg11.dtd">
<!-- Generated by graphviz version 2.38.0 (20140413.2041)
 -->
<!-- Title: Graphical Class Hierarchy Pages: 1 -->
<svg width="675pt" height="39pt"
 viewBox="0.00 0.00 675.00 39.00" xmlns="http://www.w3.org/2000/svg" xmlns:xlink="http://www.w3.org/1999/xlink">
<g id="graph0" class="graph" transform="scale(1 1) rotate(0) translate(4 35)">
<title>Graphical Class Hierarchy</title>
<polygon fill="white" stroke="none" points="-4,4 -4,-35 671,-35 671,4 -4,4"/>
<!-- Node0 -->
<g id="node1" class="node"><title>Node0</title>
<g id="a_node1"><a xlink:href="de/d63/interfaceIGLib_1_1Core_1_1ITypeConverter.html" target="_top" xlink:title="Defines methods for converting objects to a specified type.">
<polygon fill="white" stroke="black" points="0,-6 0,-25 129,-25 129,-6 0,-6"/>
<text text-anchor="middle" x="64.5" y="-13" font-family="Helvetica,sans-Serif" font-size="10.00">IGLib.Core.ITypeConverter</text>
</a>
</g>
</g>
<!-- Node1 -->
<g id="node2" class="node"><title>Node1</title>
<g id="a_node2"><a xlink:href="d9/d23/classIGLib_1_1Core_1_1BasicTypeConverter.html" target="_top" xlink:title="Provides basic type conversion functionality using IConvertible and nullable handling.">
<polygon fill="white" stroke="black" points="165,-6 165,-25 317,-25 317,-6 165,-6"/>
<text text-anchor="middle" x="241" y="-13" font-family="Helvetica,sans-Serif" font-size="10.00">IGLib.Core.BasicTypeConverter</text>
</a>
</g>
</g>
<!-- Node0&#45;&gt;Node1 -->
<g id="edge1" class="edge"><title>Node0&#45;&gt;Node1</title>
<path fill="none" stroke="midnightblue" d="M139.564,-15.5C147.91,-15.5 156.421,-15.5 164.782,-15.5"/>
<polygon fill="midnightblue" stroke="midnightblue" points="139.487,-12.0001 129.486,-15.5 139.486,-19.0001 139.487,-12.0001"/>
</g>
<!-- Node2 -->
<g id="node3" class="node"><title>Node2</title>
<g id="a_node3"><a xlink:href="d3/d3d/classIGLib_1_1Core_1_1CollectionTypeConverter.html" target="_top" xlink:title="A type converter that supports conversion between basic types and a wide range of collection types,...">
<polygon fill="white" stroke="black" points="353,-0.5 353,-30.5 482,-30.5 482,-0.5 353,-0.5"/>
<text text-anchor="start" x="361" y="-18.5" font-family="Helvetica,sans-Serif" font-size="10.00">IGLib.Core.CollectionType</text>
<text text-anchor="middle" x="417.5" y="-7.5" font-family="Helvetica,sans-Serif" font-size="10.00">Converter</text>
</a>
</g>
</g>
<!-- Node1&#45;&gt;Node2 -->
<g id="edge2" class="edge"><title>Node1&#45;&gt;Node2</title>
<path fill="none" stroke="midnightblue" d="M327.124,-15.5C335.763,-15.5 344.429,-15.5 352.784,-15.5"/>
<polygon fill="midnightblue" stroke="midnightblue" points="327.016,-12.0001 317.016,-15.5 327.016,-19.0001 327.016,-12.0001"/>
</g>
<!-- Node3 -->
<g id="node4" class="node"><title>Node3</title>
<g id="a_node4"><a xlink:href="d3/d28/classIGLib_1_1CoreExtended_1_1ReflectionTypeConverter.html" target="_top" xlink:title="A type converter that supports implicit/explicit conversion operators via reflection,...">
<polygon fill="white" stroke="black" points="518,-0.5 518,-30.5 667,-30.5 667,-0.5 518,-0.5"/>
<text text-anchor="start" x="526" y="-18.5" font-family="Helvetica,sans-Serif" font-size="10.00">IGLib.CoreExtended.Reflection</text>
<text text-anchor="middle" x="592.5" y="-7.5" font-family="Helvetica,sans-Serif" font-size="10.00">TypeConverter</text>
</a>
</g>
</g>
<!-- Node2&#45;&gt;Node3 -->
<g id="edge3" class="edge"><title>Node2&#45;&gt;Node3</title>
<path fill="none" stroke="midnightblue" d="M492.566,-15.5C500.961,-15.5 509.516,-15.5 517.905,-15.5"/>
<polygon fill="midnightblue" stroke="midnightblue" points="492.427,-12.0001 482.427,-15.5 492.427,-19.0001 492.427,-12.0001"/>
</g>
</g>
</svg>
