<?xml version="1.0" encoding="UTF-8" standalone="no"?>
<!DOCTYPE svg PUBLIC "-//W3C//DTD SVG 1.1//EN"
 "http://www.w3.org/Graphics/SVG/1.1/DTD/svg11.dtd">
<!-- Generated by graphviz version 2.38.0 (20140413.2041)
 -->
<!-- Title: Graphical Class Hierarchy Pages: 1 -->
<svg width="351pt" height="50pt"
 viewBox="0.00 0.00 351.00 50.00" xmlns="http://www.w3.org/2000/svg" xmlns:xlink="http://www.w3.org/1999/xlink">
<g id="graph0" class="graph" transform="scale(1 1) rotate(0) translate(4 46)">
<title>Graphical Class Hierarchy</title>
<polygon fill="white" stroke="none" points="-4,4 -4,-46 347,-46 347,4 -4,4"/>
<!-- Node0 -->
<g id="node1" class="node"><title>Node0</title>
<g id="a_node1"><a xlink:href="d9/d0f/classIGLib_1_1Core_1_1Tests_1_1TypeConverterTestsBase.html" target="_top" xlink:title=" ">
<polygon fill="white" stroke="black" points="0,-0.5 0,-41.5 170,-41.5 170,-0.5 0,-0.5"/>
<text text-anchor="start" x="8" y="-29.5" font-family="Helvetica,sans-Serif" font-size="10.00">IGLib.Core.Tests.TypeConverter</text>
<text text-anchor="start" x="8" y="-18.5" font-family="Helvetica,sans-Serif" font-size="10.00">TestsBase&lt; ToStringTypeConverter</text>
<text text-anchor="middle" x="85" y="-7.5" font-family="Helvetica,sans-Serif" font-size="10.00">ViaJsonTests &gt;</text>
</a>
</g>
</g>
<!-- Node1 -->
<g id="node2" class="node"><title>Node1</title>
<g id="a_node2"><a xlink:href="da/de7/classIGLib_1_1Core_1_1Tests_1_1ToStringTypeConverterViaJsonTests.html" target="_top" xlink:title=" ">
<polygon fill="white" stroke="black" points="206,-6 206,-36 343,-36 343,-6 206,-6"/>
<text text-anchor="start" x="214" y="-24" font-family="Helvetica,sans-Serif" font-size="10.00">IGLib.Core.Tests.ToString</text>
<text text-anchor="middle" x="274.5" y="-13" font-family="Helvetica,sans-Serif" font-size="10.00">TypeConverterViaJsonTests</text>
</a>
</g>
</g>
<!-- Node0&#45;&gt;Node1 -->
<g id="edge1" class="edge"><title>Node0&#45;&gt;Node1</title>
<path fill="none" stroke="midnightblue" d="M180.288,-21C188.935,-21 197.576,-21 205.916,-21"/>
<polygon fill="midnightblue" stroke="midnightblue" points="180.152,-17.5001 170.152,-21 180.152,-24.5001 180.152,-17.5001"/>
</g>
</g>
</svg>
