<?xml version="1.0" encoding="UTF-8" standalone="no"?>
<!DOCTYPE svg PUBLIC "-//W3C//DTD SVG 1.1//EN"
 "http://www.w3.org/Graphics/SVG/1.1/DTD/svg11.dtd">
<!-- Generated by graphviz version 2.38.0 (20140413.2041)
 -->
<!-- Title: Graphical Class Hierarchy Pages: 1 -->
<svg width="489pt" height="142pt"
 viewBox="0.00 0.00 489.00 142.00" xmlns="http://www.w3.org/2000/svg" xmlns:xlink="http://www.w3.org/1999/xlink">
<g id="graph0" class="graph" transform="scale(1 1) rotate(0) translate(4 138)">
<title>Graphical Class Hierarchy</title>
<polygon fill="white" stroke="none" points="-4,4 -4,-138 485,-138 485,4 -4,4"/>
<!-- Node0 -->
<g id="node1" class="node"><title>Node0</title>
<g id="a_node1"><a xlink:href="dd/d5f/interfaceIG_1_1Gr_1_1IGraphicPrimitive.html" target="_top" xlink:title=" ">
<polygon fill="white" stroke="black" points="0,-57.5 0,-76.5 116,-76.5 116,-57.5 0,-57.5"/>
<text text-anchor="middle" x="58" y="-64.5" font-family="Helvetica,sans-Serif" font-size="10.00">IG.Gr.IGraphicPrimitive</text>
</a>
</g>
</g>
<!-- Node1 -->
<g id="node2" class="node"><title>Node1</title>
<g id="a_node2"><a xlink:href="d4/d1f/classIG_1_1Gr_1_1GraphicPrimitiveBase.html" target="_top" xlink:title="Base class for graphic primitives.">
<polygon fill="white" stroke="black" points="152,-57.5 152,-76.5 288,-76.5 288,-57.5 152,-57.5"/>
<text text-anchor="middle" x="220" y="-64.5" font-family="Helvetica,sans-Serif" font-size="10.00">IG.Gr.GraphicPrimitiveBase</text>
</a>
</g>
</g>
<!-- Node0&#45;&gt;Node1 -->
<g id="edge1" class="edge"><title>Node0&#45;&gt;Node1</title>
<path fill="none" stroke="midnightblue" d="M126.41,-67C134.786,-67 143.351,-67 151.725,-67"/>
<polygon fill="midnightblue" stroke="midnightblue" points="126.312,-63.5001 116.312,-67 126.312,-70.5001 126.312,-63.5001"/>
</g>
<!-- Node2 -->
<g id="node3" class="node"><title>Node2</title>
<g id="a_node3"><a xlink:href="d1/daf/classIG_1_1Gr_1_1GraphicLineBase.html" target="_top" xlink:title="Base class for graphic line primitive.">
<polygon fill="white" stroke="black" points="344,-114.5 344,-133.5 461,-133.5 461,-114.5 344,-114.5"/>
<text text-anchor="middle" x="402.5" y="-121.5" font-family="Helvetica,sans-Serif" font-size="10.00">IG.Gr.GraphicLineBase</text>
</a>
</g>
</g>
<!-- Node1&#45;&gt;Node2 -->
<g id="edge2" class="edge"><title>Node1&#45;&gt;Node2</title>
<path fill="none" stroke="midnightblue" d="M253.785,-80.174C273.864,-87.9712 300.192,-97.7154 324,-105 335.128,-108.405 347.297,-111.621 358.626,-114.405"/>
<polygon fill="midnightblue" stroke="midnightblue" points="255.056,-76.9131 244.469,-76.522 252.502,-83.4303 255.056,-76.9131"/>
</g>
<!-- Node3 -->
<g id="node4" class="node"><title>Node3</title>
<g id="a_node4"><a xlink:href="d6/dab/classIG_1_1Gr_1_1GraphicPointBase.html" target="_top" xlink:title="Base class for graphic line primitive.">
<polygon fill="white" stroke="black" points="341.5,-76.5 341.5,-95.5 463.5,-95.5 463.5,-76.5 341.5,-76.5"/>
<text text-anchor="middle" x="402.5" y="-83.5" font-family="Helvetica,sans-Serif" font-size="10.00">IG.Gr.GraphicPointBase</text>
</a>
</g>
</g>
<!-- Node1&#45;&gt;Node3 -->
<g id="edge3" class="edge"><title>Node1&#45;&gt;Node3</title>
<path fill="none" stroke="midnightblue" d="M298.55,-75.1632C312.883,-76.6719 327.652,-78.2266 341.373,-79.6708"/>
<polygon fill="midnightblue" stroke="midnightblue" points="298.523,-71.6411 288.212,-74.0749 297.79,-78.6026 298.523,-71.6411"/>
</g>
<!-- Node4 -->
<g id="node5" class="node"><title>Node4</title>
<g id="a_node5"><a xlink:href="da/dd8/classIG_1_1Gr_1_1GraphicQuadriLateralBase.html" target="_top" xlink:title="Base class for graphic line primitive.">
<polygon fill="white" stroke="black" points="324,-38.5 324,-57.5 481,-57.5 481,-38.5 324,-38.5"/>
<text text-anchor="middle" x="402.5" y="-45.5" font-family="Helvetica,sans-Serif" font-size="10.00">IG.Gr.GraphicQuadriLateralBase</text>
</a>
</g>
</g>
<!-- Node1&#45;&gt;Node4 -->
<g id="edge4" class="edge"><title>Node1&#45;&gt;Node4</title>
<path fill="none" stroke="midnightblue" d="M298.411,-58.8515C306.851,-57.963 315.445,-57.0584 323.888,-56.1697"/>
<polygon fill="midnightblue" stroke="midnightblue" points="297.79,-55.3974 288.212,-59.9251 298.523,-62.3589 297.79,-55.3974"/>
</g>
<!-- Node5 -->
<g id="node6" class="node"><title>Node5</title>
<g id="a_node6"><a xlink:href="d3/db4/classIG_1_1Gr_1_1GraphicTriangleBase.html" target="_top" xlink:title="Base class for graphic line primitive.">
<polygon fill="white" stroke="black" points="336,-0.5 336,-19.5 469,-19.5 469,-0.5 336,-0.5"/>
<text text-anchor="middle" x="402.5" y="-7.5" font-family="Helvetica,sans-Serif" font-size="10.00">IG.Gr.GraphicTriangleBase</text>
</a>
</g>
</g>
<!-- Node1&#45;&gt;Node5 -->
<g id="edge5" class="edge"><title>Node1&#45;&gt;Node5</title>
<path fill="none" stroke="midnightblue" d="M253.785,-53.826C273.864,-46.0288 300.192,-36.2846 324,-29 335.128,-25.5952 347.297,-22.3792 358.626,-19.5946"/>
<polygon fill="midnightblue" stroke="midnightblue" points="252.502,-50.5697 244.469,-57.478 255.056,-57.0869 252.502,-50.5697"/>
</g>
</g>
</svg>
