<?xml version="1.0" encoding="UTF-8" standalone="no"?>
<!DOCTYPE svg PUBLIC "-//W3C//DTD SVG 1.1//EN"
 "http://www.w3.org/Graphics/SVG/1.1/DTD/svg11.dtd">
<!-- Generated by graphviz version 2.38.0 (20140413.2041)
 -->
<!-- Title: Graphical Class Hierarchy Pages: 1 -->
<svg width="340pt" height="72pt"
 viewBox="0.00 0.00 340.00 72.00" xmlns="http://www.w3.org/2000/svg" xmlns:xlink="http://www.w3.org/1999/xlink">
<g id="graph0" class="graph" transform="scale(1 1) rotate(0) translate(4 68)">
<title>Graphical Class Hierarchy</title>
<polygon fill="white" stroke="none" points="-4,4 -4,-68 336,-68 336,4 -4,4"/>
<!-- Node0 -->
<g id="node1" class="node"><title>Node0</title>
<g id="a_node1"><a xlink:href="d5/d27/classIG_1_1Num_1_1UnstructuredMesh1d.html" target="_top" xlink:title=" ">
<polygon fill="white" stroke="black" points="0,-0.5 0,-63.5 143,-63.5 143,-0.5 0,-0.5"/>
<text text-anchor="start" x="8" y="-51.5" font-family="Helvetica,sans-Serif" font-size="10.00">IG.Num.UnstructuredMesh1d</text>
<text text-anchor="start" x="8" y="-40.5" font-family="Helvetica,sans-Serif" font-size="10.00">&lt; vec3, Field&lt; int &gt;, int,</text>
<text text-anchor="start" x="8" y="-29.5" font-family="Helvetica,sans-Serif" font-size="10.00"> Field&lt; double &gt;, double,</text>
<text text-anchor="start" x="8" y="-18.5" font-family="Helvetica,sans-Serif" font-size="10.00"> Field&lt; vec3 &gt;, vec3, Field</text>
<text text-anchor="middle" x="71.5" y="-7.5" font-family="Helvetica,sans-Serif" font-size="10.00">&lt; mat3 &gt;, mat3 &gt;</text>
</a>
</g>
</g>
<!-- Node1 -->
<g id="node2" class="node"><title>Node1</title>
<g id="a_node2"><a xlink:href="de/d8d/classIG_1_1Num_1_1UnstructuredMesh1d3d.html" target="_top" xlink:title="Unstructured mesh in 1D embedded in 3D space.">
<polygon fill="white" stroke="black" points="179,-22.5 179,-41.5 332,-41.5 332,-22.5 179,-22.5"/>
<text text-anchor="middle" x="255.5" y="-29.5" font-family="Helvetica,sans-Serif" font-size="10.00">IG.Num.UnstructuredMesh1d3d</text>
</a>
</g>
</g>
<!-- Node0&#45;&gt;Node1 -->
<g id="edge1" class="edge"><title>Node0&#45;&gt;Node1</title>
<path fill="none" stroke="midnightblue" d="M153.363,-32C161.82,-32 170.394,-32 178.79,-32"/>
<polygon fill="midnightblue" stroke="midnightblue" points="153.126,-28.5001 143.126,-32 153.126,-35.5001 153.126,-28.5001"/>
</g>
</g>
</svg>
