<?xml version="1.0" encoding="UTF-8" standalone="no"?>
<!DOCTYPE svg PUBLIC "-//W3C//DTD SVG 1.1//EN"
 "http://www.w3.org/Graphics/SVG/1.1/DTD/svg11.dtd">
<!-- Generated by graphviz version 2.38.0 (20140413.2041)
 -->
<!-- Title: Graphical Class Hierarchy Pages: 1 -->
<svg width="598pt" height="935pt"
 viewBox="0.00 0.00 598.00 934.88" xmlns="http://www.w3.org/2000/svg" xmlns:xlink="http://www.w3.org/1999/xlink">
<g id="graph0" class="graph" transform="scale(1 1) rotate(0) translate(4 930.883)">
<title>Graphical Class Hierarchy</title>
<polygon fill="white" stroke="none" points="-4,4 -4,-930.883 594,-930.883 594,4 -4,4"/>
<!-- Node810 -->
<g id="node1" class="node"><title>Node810</title>
<g id="a_node1"><a xlink:href="df/d02/interfaceIGLib_1_1Gr3D_1_1ICurve2DPolarParameterization.html" target="_top" xlink:title="Cylindrical parameterization of a curve in 3D. Beside the CurveCylindrical and (optional) CurveDeriva...">
<polygon fill="white" stroke="black" points="25.5,-811.849 25.5,-841.849 153.5,-841.849 153.5,-811.849 25.5,-811.849"/>
<text text-anchor="start" x="33.5" y="-829.849" font-family="Helvetica,sans-Serif" font-size="10.00">IGLib.Gr3D.ICurve2DPolar</text>
<text text-anchor="middle" x="89.5" y="-818.849" font-family="Helvetica,sans-Serif" font-size="10.00">Parameterization</text>
</a>
</g>
</g>
<!-- Node1 -->
<g id="node2" class="node"><title>Node1</title>
<g id="a_node2"><a xlink:href="d5/d39/classIGLib_1_1Gr3D_1_1ConicalCurve3DParameterizationFromPolarWithBounds.html" target="_top" xlink:title="Cartesion parameterization of a curve in 3D. Beside the Curve and (optional) CurveDerivative,...">
<polygon fill="white" stroke="black" points="222.5,-806.349 222.5,-847.349 384.5,-847.349 384.5,-806.349 222.5,-806.349"/>
<text text-anchor="start" x="230.5" y="-835.349" font-family="Helvetica,sans-Serif" font-size="10.00">IGLib.Gr3D.ConicalCurve3</text>
<text text-anchor="start" x="230.5" y="-824.349" font-family="Helvetica,sans-Serif" font-size="10.00">DParameterizationFromPolarWith</text>
<text text-anchor="middle" x="303.5" y="-813.349" font-family="Helvetica,sans-Serif" font-size="10.00">Bounds</text>
</a>
</g>
</g>
<!-- Node810&#45;&gt;Node1 -->
<g id="edge1" class="edge"><title>Node810&#45;&gt;Node1</title>
<path fill="none" stroke="midnightblue" d="M163.59,-826.849C182.553,-826.849 203.076,-826.849 222.379,-826.849"/>
<polygon fill="midnightblue" stroke="midnightblue" points="163.533,-823.349 153.533,-826.849 163.533,-830.349 163.533,-823.349"/>
</g>
<!-- Node2 -->
<g id="node3" class="node"><title>Node2</title>
<g id="a_node3"><a xlink:href="d5/d08/classIGLib_1_1Gr3D_1_1ConicalSpiralArchimedean3D.html" target="_top" xlink:title="A 3D parametric curve with bounds &#45; the conical archimedean spiral.">
<polygon fill="white" stroke="black" points="446.5,-888.849 446.5,-918.849 571.5,-918.849 571.5,-888.849 446.5,-888.849"/>
<text text-anchor="start" x="454.5" y="-906.849" font-family="Helvetica,sans-Serif" font-size="10.00">IGLib.Gr3D.ConicalSpiral</text>
<text text-anchor="middle" x="509" y="-895.849" font-family="Helvetica,sans-Serif" font-size="10.00">Archimedean3D</text>
</a>
</g>
</g>
<!-- Node1&#45;&gt;Node2 -->
<g id="edge2" class="edge"><title>Node1&#45;&gt;Node2</title>
<path fill="none" stroke="midnightblue" d="M368.244,-850.968C400.9,-863.325 439.656,-877.989 468.062,-888.738"/>
<polygon fill="midnightblue" stroke="midnightblue" points="369.358,-847.648 358.767,-847.383 366.881,-854.195 369.358,-847.648"/>
</g>
<!-- Node3 -->
<g id="node4" class="node"><title>Node3</title>
<g id="a_node4"><a xlink:href="de/dc6/classIGLib_1_1Gr3D_1_1ConicalSpiralFermats3D.html" target="_top" xlink:title="A 3D parametric curve with bounds &#45; the conical Fermat&#39;s spiral.">
<polygon fill="white" stroke="black" points="446.5,-820.849 446.5,-850.849 571.5,-850.849 571.5,-820.849 446.5,-820.849"/>
<text text-anchor="start" x="454.5" y="-838.849" font-family="Helvetica,sans-Serif" font-size="10.00">IGLib.Gr3D.ConicalSpiral</text>
<text text-anchor="middle" x="509" y="-827.849" font-family="Helvetica,sans-Serif" font-size="10.00">Fermats3D</text>
</a>
</g>
</g>
<!-- Node1&#45;&gt;Node3 -->
<g id="edge3" class="edge"><title>Node1&#45;&gt;Node3</title>
<path fill="none" stroke="midnightblue" d="M394.848,-830.845C412.307,-831.617 430.22,-832.409 446.495,-833.129"/>
<polygon fill="midnightblue" stroke="midnightblue" points="394.781,-827.339 384.636,-830.393 394.472,-834.332 394.781,-827.339"/>
</g>
<!-- Node4 -->
<g id="node5" class="node"><title>Node4</title>
<g id="a_node5"><a xlink:href="d8/d32/classIGLib_1_1Gr3D_1_1ConicalSpiralHyperbolic3D.html" target="_top" xlink:title="A 3D parametric curve with bounds &#45; the conical hyperbolic spiral.">
<polygon fill="white" stroke="black" points="446.5,-703.849 446.5,-733.849 571.5,-733.849 571.5,-703.849 446.5,-703.849"/>
<text text-anchor="start" x="454.5" y="-721.849" font-family="Helvetica,sans-Serif" font-size="10.00">IGLib.Gr3D.ConicalSpiral</text>
<text text-anchor="middle" x="509" y="-710.849" font-family="Helvetica,sans-Serif" font-size="10.00">Hyperbolic3D</text>
</a>
</g>
</g>
<!-- Node1&#45;&gt;Node4 -->
<g id="edge4" class="edge"><title>Node1&#45;&gt;Node4</title>
<path fill="none" stroke="midnightblue" d="M380.221,-802.3C384.248,-800.557 388.198,-798.738 392,-796.849 428.295,-778.816 466.6,-751.117 488.848,-734.038"/>
<polygon fill="midnightblue" stroke="midnightblue" points="378.624,-799.173 370.719,-806.227 381.298,-805.642 378.624,-799.173"/>
</g>
<!-- Node5 -->
<g id="node6" class="node"><title>Node5</title>
<g id="a_node6"><a xlink:href="da/d9b/classIGLib_1_1Gr3D_1_1ConicalSpiralLogarithmic3D.html" target="_top" xlink:title="A 3D parametric curve with bounds &#45; the conical logarithmic spiral.">
<polygon fill="white" stroke="black" points="446.5,-563.849 446.5,-593.849 571.5,-593.849 571.5,-563.849 446.5,-563.849"/>
<text text-anchor="start" x="454.5" y="-581.849" font-family="Helvetica,sans-Serif" font-size="10.00">IGLib.Gr3D.ConicalSpiral</text>
<text text-anchor="middle" x="509" y="-570.849" font-family="Helvetica,sans-Serif" font-size="10.00">Logarithmic3D</text>
</a>
</g>
</g>
<!-- Node1&#45;&gt;Node5 -->
<g id="edge5" class="edge"><title>Node1&#45;&gt;Node5</title>
<path fill="none" stroke="midnightblue" d="M388.565,-800.016C389.748,-799 390.895,-797.944 392,-796.849 426.146,-763.009 406.163,-737.677 428,-694.849 447.669,-656.273 478.383,-615.588 495.466,-594.151"/>
<polygon fill="midnightblue" stroke="midnightblue" points="386.205,-797.409 380.267,-806.184 390.381,-803.027 386.205,-797.409"/>
</g>
<!-- Node809 -->
<g id="node7" class="node"><title>Node809</title>
<g id="a_node7"><a xlink:href="dc/d9b/interfaceIGLib_1_1Gr3D_1_1ICurve3DCylindricalParameterization.html" target="_top" xlink:title="Cylindrical parameterization of a curve in 3D. Beside the CurveCylindrical and (optional) CurveDeriva...">
<polygon fill="white" stroke="black" points="14,-8.8493 14,-38.8493 165,-38.8493 165,-8.8493 14,-8.8493"/>
<text text-anchor="start" x="22" y="-26.8493" font-family="Helvetica,sans-Serif" font-size="10.00">IGLib.Gr3D.ICurve3DCylindrical</text>
<text text-anchor="middle" x="89.5" y="-15.8493" font-family="Helvetica,sans-Serif" font-size="10.00">Parameterization</text>
</a>
</g>
</g>
<!-- Node6 -->
<g id="node8" class="node"><title>Node6</title>
<g id="a_node8"><a xlink:href="d7/dac/classIGLib_1_1Gr3D_1_1Curve3DParameterizationFromCylindricalWithBounds.html" target="_top" xlink:title="Cartesion parameterization of a curve in 3D. Beside the Curve and (optional) CurveDerivative,...">
<polygon fill="white" stroke="black" points="215,-90.8493 215,-120.849 392,-120.849 392,-90.8493 215,-90.8493"/>
<text text-anchor="start" x="223" y="-108.849" font-family="Helvetica,sans-Serif" font-size="10.00">IGLib.Gr3D.Curve3DParameterization</text>
<text text-anchor="middle" x="303.5" y="-97.8493" font-family="Helvetica,sans-Serif" font-size="10.00">FromCylindricalWithBounds</text>
</a>
</g>
</g>
<!-- Node809&#45;&gt;Node6 -->
<g id="edge6" class="edge"><title>Node809&#45;&gt;Node6</title>
<path fill="none" stroke="midnightblue" d="M139.144,-42.6644C176.87,-57.2564 228.465,-77.213 263.504,-90.766"/>
<polygon fill="midnightblue" stroke="midnightblue" points="139.973,-39.2326 129.384,-38.8894 137.448,-45.7612 139.973,-39.2326"/>
</g>
<!-- Node7 -->
<g id="node9" class="node"><title>Node7</title>
<g id="a_node9"><a xlink:href="df/d6e/classIGLib_1_1Gr3D_1_1CylindricalBilliardKnot.html" target="_top" xlink:title="Cartesian and cylindrical parameterization of a cylindrical billiard knot in 3D.">
<polygon fill="white" stroke="black" points="428,-96.3493 428,-115.349 590,-115.349 590,-96.3493 428,-96.3493"/>
<text text-anchor="middle" x="509" y="-103.349" font-family="Helvetica,sans-Serif" font-size="10.00">IGLib.Gr3D.CylindricalBilliardKnot</text>
</a>
</g>
</g>
<!-- Node809&#45;&gt;Node7 -->
<g id="edge9" class="edge"><title>Node809&#45;&gt;Node7</title>
<path fill="none" stroke="midnightblue" d="M175.14,-39.2564C235.633,-50.413 318.922,-66.0692 392,-80.8493 416.231,-85.75 443.234,-91.5495 465.085,-96.3283"/>
<polygon fill="midnightblue" stroke="midnightblue" points="175.723,-35.805 165.255,-37.4359 174.455,-42.6893 175.723,-35.805"/>
</g>
<!-- Node8 -->
<g id="node10" class="node"><title>Node8</title>
<g id="a_node10"><a xlink:href="da/da0/classIGLib_1_1Gr3D_1_1CylindricalBilliardKnot__WrongParameterization.html" target="_top" xlink:title="Cartesian and cylindrical parameterization of a cylindrical billiard knot in 3D.">
<polygon fill="white" stroke="black" points="437,-46.8493 437,-76.8493 581,-76.8493 581,-46.8493 437,-46.8493"/>
<text text-anchor="start" x="445" y="-64.8493" font-family="Helvetica,sans-Serif" font-size="10.00">IGLib.Gr3D.CylindricalBilliard</text>
<text text-anchor="middle" x="509" y="-53.8493" font-family="Helvetica,sans-Serif" font-size="10.00">Knot_WrongParameterization</text>
</a>
</g>
</g>
<!-- Node809&#45;&gt;Node8 -->
<g id="edge10" class="edge"><title>Node809&#45;&gt;Node8</title>
<path fill="none" stroke="midnightblue" d="M175.054,-8.49807C236.02,-0.185434 319.92,5.56759 392,-9.8493 425.02,-16.9117 460.005,-34.1064 482.812,-46.7994"/>
<polygon fill="midnightblue" stroke="midnightblue" points="174.502,-5.04113 165.091,-9.90696 175.482,-11.9722 174.502,-5.04113"/>
</g>
<!-- Node6&#45;&gt;Node7 -->
<g id="edge7" class="edge"><title>Node6&#45;&gt;Node7</title>
<path fill="none" stroke="midnightblue" d="M402.309,-105.849C410.881,-105.849 419.49,-105.849 427.892,-105.849"/>
<polygon fill="midnightblue" stroke="midnightblue" points="402.279,-102.349 392.279,-105.849 402.279,-109.349 402.279,-102.349"/>
</g>
<!-- Node6&#45;&gt;Node8 -->
<g id="edge8" class="edge"><title>Node6&#45;&gt;Node8</title>
<path fill="none" stroke="midnightblue" d="M383.865,-88.6892C401.898,-84.7903 420.918,-80.6779 438.504,-76.8755"/>
<polygon fill="midnightblue" stroke="midnightblue" points="382.998,-85.2957 373.964,-90.8301 384.478,-92.1376 382.998,-85.2957"/>
</g>
<!-- Node0 -->
<g id="node11" class="node"><title>Node0</title>
<g id="a_node11"><a xlink:href="d3/d54/interfaceIGLib_1_1Gr3D_1_1ICurve3DParameterizationWithBounds.html" target="_top" xlink:title="Cartesion parameterization of a curve in 3D. Beside the Curve and (optional) CurveDerivative,...">
<polygon fill="white" stroke="black" points="0,-472.849 0,-502.849 179,-502.849 179,-472.849 0,-472.849"/>
<text text-anchor="start" x="8" y="-490.849" font-family="Helvetica,sans-Serif" font-size="10.00">IGLib.Gr3D.ICurve3DParameterization</text>
<text text-anchor="middle" x="89.5" y="-479.849" font-family="Helvetica,sans-Serif" font-size="10.00">WithBounds</text>
</a>
</g>
</g>
<!-- Node0&#45;&gt;Node1 -->
<g id="edge11" class="edge"><title>Node0&#45;&gt;Node1</title>
<path fill="none" stroke="midnightblue" d="M93.5864,-513.393C101.997,-571.92 130.642,-716.825 215,-796.849 218.728,-800.386 222.892,-803.507 227.323,-806.262"/>
<polygon fill="midnightblue" stroke="midnightblue" points="97.0154,-512.632 92.2028,-503.193 90.0789,-513.573 97.0154,-512.632"/>
</g>
<!-- Node0&#45;&gt;Node2 -->
<g id="edge12" class="edge"><title>Node0&#45;&gt;Node2</title>
<path fill="none" stroke="midnightblue" d="M97.4619,-512.718C121.392,-597.817 199.645,-872.788 215,-884.849 280.442,-936.253 381.57,-929.824 446.258,-918.417"/>
<polygon fill="midnightblue" stroke="midnightblue" points="100.772,-511.558 94.6987,-502.877 94.0323,-513.45 100.772,-511.558"/>
</g>
<!-- Node0&#45;&gt;Node3 -->
<g id="edge13" class="edge"><title>Node0&#45;&gt;Node3</title>
<path fill="none" stroke="midnightblue" d="M97.112,-512.799C118.424,-592.309 185.632,-835.763 215,-856.849 293.296,-913.065 415.686,-874.828 474.386,-850.963"/>
<polygon fill="midnightblue" stroke="midnightblue" points="100.488,-511.874 94.5265,-503.116 93.7248,-513.68 100.488,-511.874"/>
</g>
<!-- Node0&#45;&gt;Node4 -->
<g id="edge14" class="edge"><title>Node0&#45;&gt;Node4</title>
<path fill="none" stroke="midnightblue" d="M104.167,-511.911C124.11,-544.695 164.383,-602.755 215,-632.849 284.159,-673.967 315.18,-646.925 392,-670.849 421.133,-679.922 453.094,-693.427 476.077,-703.803"/>
<polygon fill="midnightblue" stroke="midnightblue" points="106.984,-509.799 98.8649,-502.992 100.966,-513.377 106.984,-509.799"/>
</g>
<!-- Node0&#45;&gt;Node5 -->
<g id="edge15" class="edge"><title>Node0&#45;&gt;Node5</title>
<path fill="none" stroke="midnightblue" d="M189.534,-482.607C249.46,-482.307 326.663,-487.083 392,-507.849 429.804,-519.865 467.947,-546.687 489.704,-563.708"/>
<polygon fill="midnightblue" stroke="midnightblue" points="189.278,-479.109 179.313,-482.708 189.347,-486.109 189.278,-479.109"/>
</g>
<!-- Node0&#45;&gt;Node6 -->
<g id="edge16" class="edge"><title>Node0&#45;&gt;Node6</title>
<path fill="none" stroke="midnightblue" d="M91.5861,-462.436C95.7863,-397.158 116.181,-222.261 215,-129.849 218.682,-126.406 222.81,-123.449 227.216,-120.91"/>
<polygon fill="midnightblue" stroke="midnightblue" points="88.08,-462.444 91.0077,-472.627 95.0688,-462.841 88.08,-462.444"/>
</g>
<!-- Node0&#45;&gt;Node7 -->
<g id="edge17" class="edge"><title>Node0&#45;&gt;Node7</title>
<path fill="none" stroke="midnightblue" d="M100.146,-463.292C117.077,-423.568 156.041,-345.656 215,-305.849 281.762,-260.774 324.693,-311.106 392,-266.849 452.449,-227.101 491.782,-144.226 503.965,-115.726"/>
<polygon fill="midnightblue" stroke="midnightblue" points="96.8226,-462.17 96.2266,-472.748 103.289,-464.85 96.8226,-462.17"/>
</g>
<!-- Node0&#45;&gt;Node8 -->
<g id="edge18" class="edge"><title>Node0&#45;&gt;Node8</title>
<path fill="none" stroke="midnightblue" d="M94.4585,-462.469C107.682,-381.207 153.014,-129.892 215,-80.8493 279.561,-29.7691 379.273,-35.5761 444.092,-46.8237"/>
<polygon fill="midnightblue" stroke="midnightblue" points="90.9346,-462.34 92.8073,-472.768 97.8463,-463.448 90.9346,-462.34"/>
</g>
<!-- Node9 -->
<g id="node12" class="node"><title>Node9</title>
<g id="a_node12"><a xlink:href="d4/dc1/classIGLib_1_1Gr3D_1_1FigureEightKnot3D.html" target="_top" xlink:title="Figure&#45;eight knot is the only knot with 4 crossings. It is achiral, it is equal to is image by reflec...">
<polygon fill="white" stroke="black" points="229,-238.349 229,-257.349 378,-257.349 378,-238.349 229,-238.349"/>
<text text-anchor="middle" x="303.5" y="-245.349" font-family="Helvetica,sans-Serif" font-size="10.00">IGLib.Gr3D.FigureEightKnot3D</text>
</a>
</g>
</g>
<!-- Node0&#45;&gt;Node9 -->
<g id="edge19" class="edge"><title>Node0&#45;&gt;Node9</title>
<path fill="none" stroke="midnightblue" d="M97.8245,-463.001C112.431,-417.867 149.541,-322.423 215,-271.849 223.227,-265.493 233.028,-260.819 243.044,-257.382"/>
<polygon fill="midnightblue" stroke="midnightblue" points="94.4709,-461.998 94.818,-472.587 101.15,-464.093 94.4709,-461.998"/>
</g>
<!-- Node10 -->
<g id="node13" class="node"><title>Node10</title>
<g id="a_node13"><a xlink:href="d1/d31/classIGLib_1_1Gr3D_1_1FigureEightKnot3D__MathCurve1.html" target="_top" xlink:title="Figure&#45;eight knot, alternative parameterization ( the second one from MathCurve). Derivative is not a...">
<polygon fill="white" stroke="black" points="232,-188.849 232,-218.849 375,-218.849 375,-188.849 232,-188.849"/>
<text text-anchor="start" x="240" y="-206.849" font-family="Helvetica,sans-Serif" font-size="10.00">IGLib.Gr3D.FigureEightKnot3</text>
<text text-anchor="middle" x="303.5" y="-195.849" font-family="Helvetica,sans-Serif" font-size="10.00">D_MathCurve1</text>
</a>
</g>
</g>
<!-- Node0&#45;&gt;Node10 -->
<g id="edge20" class="edge"><title>Node0&#45;&gt;Node10</title>
<path fill="none" stroke="midnightblue" d="M95.4001,-462.638C106.801,-410.847 140.043,-292.05 215,-228.849 220.073,-224.572 225.837,-221.025 231.928,-218.085"/>
<polygon fill="midnightblue" stroke="midnightblue" points="91.9322,-462.121 93.2918,-472.628 98.7813,-463.566 91.9322,-462.121"/>
</g>
<!-- Node11 -->
<g id="node14" class="node"><title>Node11</title>
<g id="a_node14"><a xlink:href="d0/d27/classIGLib_1_1Gr3D_1_1FigureEightKnot3D__MathCurve2.html" target="_top" xlink:title="Figure&#45;eight knot is with alternative parameterization (the second one from MathCurve)....">
<polygon fill="white" stroke="black" points="232,-139.849 232,-169.849 375,-169.849 375,-139.849 232,-139.849"/>
<text text-anchor="start" x="240" y="-157.849" font-family="Helvetica,sans-Serif" font-size="10.00">IGLib.Gr3D.FigureEightKnot3</text>
<text text-anchor="middle" x="303.5" y="-146.849" font-family="Helvetica,sans-Serif" font-size="10.00">D_MathCurve2</text>
</a>
</g>
</g>
<!-- Node0&#45;&gt;Node11 -->
<g id="edge21" class="edge"><title>Node0&#45;&gt;Node11</title>
<path fill="none" stroke="midnightblue" d="M93.1923,-462.35C100.813,-403.313 127.976,-256.375 215,-178.849 219.94,-174.449 225.614,-170.846 231.649,-167.898"/>
<polygon fill="midnightblue" stroke="midnightblue" points="89.6755,-462.28 91.9516,-472.627 96.625,-463.119 89.6755,-462.28"/>
</g>
<!-- Node12 -->
<g id="node15" class="node"><title>Node12</title>
<g id="a_node15"><a xlink:href="dc/d1f/classIGLib_1_1Gr3D_1_1FigureEightKnot3D__VirtualMath.html" target="_top" xlink:title="Figure&#45;eight knot with alternative parameterization, obtained from Virtual Math Museum....">
<polygon fill="white" stroke="black" points="232,-756.849 232,-786.849 375,-786.849 375,-756.849 232,-756.849"/>
<text text-anchor="start" x="240" y="-774.849" font-family="Helvetica,sans-Serif" font-size="10.00">IGLib.Gr3D.FigureEightKnot3</text>
<text text-anchor="middle" x="303.5" y="-763.849" font-family="Helvetica,sans-Serif" font-size="10.00">D_VirtualMath</text>
</a>
</g>
</g>
<!-- Node0&#45;&gt;Node12 -->
<g id="edge22" class="edge"><title>Node0&#45;&gt;Node12</title>
<path fill="none" stroke="midnightblue" d="M95.4001,-513.061C106.801,-564.851 140.043,-683.649 215,-746.849 220.073,-751.127 225.837,-754.673 231.928,-757.614"/>
<polygon fill="midnightblue" stroke="midnightblue" points="98.7813,-512.132 93.2918,-503.071 91.9322,-513.578 98.7813,-512.132"/>
</g>
<!-- Node13 -->
<g id="node16" class="node"><title>Node13</title>
<g id="a_node16"><a xlink:href="d9/db7/classIGLib_1_1Gr3D_1_1GrannyKnot3D.html" target="_top" xlink:title="The granny knot is a composite knot obtained by taking the connected sum of two identical trefoil kno...">
<polygon fill="white" stroke="black" points="238,-718.349 238,-737.349 369,-737.349 369,-718.349 238,-718.349"/>
<text text-anchor="middle" x="303.5" y="-725.349" font-family="Helvetica,sans-Serif" font-size="10.00">IGLib.Gr3D.GrannyKnot3D</text>
</a>
</g>
</g>
<!-- Node0&#45;&gt;Node13 -->
<g id="edge23" class="edge"><title>Node0&#45;&gt;Node13</title>
<path fill="none" stroke="midnightblue" d="M97.1886,-512.937C110.938,-559.39 146.955,-658.63 215,-708.849 221.754,-713.834 229.552,-717.561 237.653,-720.339"/>
<polygon fill="midnightblue" stroke="midnightblue" points="100.488,-511.744 94.3763,-503.09 93.7573,-513.667 100.488,-511.744"/>
</g>
<!-- Node14 -->
<g id="node17" class="node"><title>Node14</title>
<g id="a_node17"><a xlink:href="d7/d8c/classIGLib_1_1Gr3D_1_1HelixCurve3D.html" target="_top" xlink:title="A 3D parametric curve with bounds &#45; a cylindrical helix.">
<polygon fill="white" stroke="black" points="241,-680.349 241,-699.349 366,-699.349 366,-680.349 241,-680.349"/>
<text text-anchor="middle" x="303.5" y="-687.349" font-family="Helvetica,sans-Serif" font-size="10.00">IGLib.Gr3D.HelixCurve3D</text>
</a>
</g>
</g>
<!-- Node0&#45;&gt;Node14 -->
<g id="edge24" class="edge"><title>Node0&#45;&gt;Node14</title>
<path fill="none" stroke="midnightblue" d="M100.899,-512.359C118.563,-550.99 158.13,-625.756 215,-665.849 224.012,-672.203 234.638,-676.876 245.321,-680.313"/>
<polygon fill="midnightblue" stroke="midnightblue" points="103.96,-510.628 96.6919,-502.919 97.566,-513.478 103.96,-510.628"/>
</g>
<!-- Node15 -->
<g id="node18" class="node"><title>Node15</title>
<g id="a_node18"><a xlink:href="d7/dcb/classIGLib_1_1Gr3D_1_1LissajousCurve3D.html" target="_top" xlink:title="Lissajous curves in 3D are trajectories of a point in space whose rectangular components have a sinus...">
<polygon fill="white" stroke="black" points="231,-604.349 231,-623.349 376,-623.349 376,-604.349 231,-604.349"/>
<text text-anchor="middle" x="303.5" y="-611.349" font-family="Helvetica,sans-Serif" font-size="10.00">IGLib.Gr3D.LissajousCurve3D</text>
</a>
</g>
</g>
<!-- Node0&#45;&gt;Node15 -->
<g id="edge25" class="edge"><title>Node0&#45;&gt;Node15</title>
<path fill="none" stroke="midnightblue" d="M110.127,-510.394C132.857,-535.02 172.639,-573.762 215,-594.849 222.793,-598.729 231.364,-601.82 239.999,-604.282"/>
<polygon fill="midnightblue" stroke="midnightblue" points="112.674,-507.992 103.364,-502.934 107.488,-512.694 112.674,-507.992"/>
</g>
<!-- Node16 -->
<g id="node19" class="node"><title>Node16</title>
<g id="a_node19"><a xlink:href="d7/ddc/classIGLib_1_1Gr3D_1_1LissajousKnot3D.html" target="_top" xlink:title="A Lisajous knot is a knot whose projection on any of the three coordinate planes is a Lissajous curve...">
<polygon fill="white" stroke="black" points="233,-566.349 233,-585.349 374,-585.349 374,-566.349 233,-566.349"/>
<text text-anchor="middle" x="303.5" y="-573.349" font-family="Helvetica,sans-Serif" font-size="10.00">IGLib.Gr3D.LissajousKnot3D</text>
</a>
</g>
</g>
<!-- Node0&#45;&gt;Node16 -->
<g id="edge26" class="edge"><title>Node0&#45;&gt;Node16</title>
<path fill="none" stroke="midnightblue" d="M121.42,-508.344C145.892,-523.72 181.424,-544.213 215,-556.849 225.039,-560.627 236.022,-563.749 246.713,-566.294"/>
<polygon fill="midnightblue" stroke="midnightblue" points="123.243,-505.355 112.928,-502.934 119.482,-511.259 123.243,-505.355"/>
</g>
<!-- Node17 -->
<g id="node20" class="node"><title>Node17</title>
<g id="a_node20"><a xlink:href="d7/de4/classIGLib_1_1Gr3D_1_1ParabolicBasinCurve3D.html" target="_top" xlink:title="A curve wrapped around the paraboloid, which becomes a &#160;rosewhen projected to the XY plane.">
<polygon fill="white" stroke="black" points="237,-516.849 237,-546.849 370,-546.849 370,-516.849 237,-516.849"/>
<text text-anchor="start" x="245" y="-534.849" font-family="Helvetica,sans-Serif" font-size="10.00">IGLib.Gr3D.ParabolicBasin</text>
<text text-anchor="middle" x="303.5" y="-523.849" font-family="Helvetica,sans-Serif" font-size="10.00">Curve3D</text>
</a>
</g>
</g>
<!-- Node0&#45;&gt;Node17 -->
<g id="edge27" class="edge"><title>Node0&#45;&gt;Node17</title>
<path fill="none" stroke="midnightblue" d="M172.834,-504.938C194.059,-509.343 216.617,-514.024 236.865,-518.227"/>
<polygon fill="midnightblue" stroke="midnightblue" points="173.368,-501.474 162.865,-502.869 171.945,-508.328 173.368,-501.474"/>
</g>
<!-- Node18 -->
<g id="node21" class="node"><title>Node18</title>
<g id="a_node21"><a xlink:href="d1/dae/classIGLib_1_1Gr3D_1_1SquareKnot3D.html" target="_top" xlink:title="The square (or reef) knot is a composite knot obtained by taking the connected sum of a trefoil knot ...">
<polygon fill="white" stroke="black" points="238,-440.349 238,-459.349 369,-459.349 369,-440.349 238,-440.349"/>
<text text-anchor="middle" x="303.5" y="-447.349" font-family="Helvetica,sans-Serif" font-size="10.00">IGLib.Gr3D.SquareKnot3D</text>
</a>
</g>
</g>
<!-- Node0&#45;&gt;Node18 -->
<g id="edge28" class="edge"><title>Node0&#45;&gt;Node18</title>
<path fill="none" stroke="midnightblue" d="M184.165,-471.06C206.554,-467.047 229.686,-462.901 249.495,-459.35"/>
<polygon fill="midnightblue" stroke="midnightblue" points="183.514,-467.621 174.288,-472.831 184.749,-474.511 183.514,-467.621"/>
</g>
<!-- Node19 -->
<g id="node22" class="node"><title>Node19</title>
<g id="a_node22"><a xlink:href="d0/d14/classIGLib_1_1Gr3D_1_1TorusKnot3D.html" target="_top" xlink:title="A torus knot is a special kind of knot that lies on the surface of a torus.">
<polygon fill="white" stroke="black" points="241.5,-402.349 241.5,-421.349 365.5,-421.349 365.5,-402.349 241.5,-402.349"/>
<text text-anchor="middle" x="303.5" y="-409.349" font-family="Helvetica,sans-Serif" font-size="10.00">IGLib.Gr3D.TorusKnot3D</text>
</a>
</g>
</g>
<!-- Node0&#45;&gt;Node19 -->
<g id="edge29" class="edge"><title>Node0&#45;&gt;Node19</title>
<path fill="none" stroke="midnightblue" d="M128.164,-468.022C152.423,-455.906 184.935,-440.865 215,-430.849 226.061,-427.164 238.151,-424.008 249.718,-421.386"/>
<polygon fill="midnightblue" stroke="midnightblue" points="126.309,-465.038 118.965,-472.674 129.468,-471.285 126.309,-465.038"/>
</g>
<!-- Node20 -->
<g id="node23" class="node"><title>Node20</title>
<g id="a_node23"><a xlink:href="dc/dcf/classIGLib_1_1Gr3D_1_1TrefoilKnot3D.html" target="_top" xlink:title="The trefoil knot is the simplest example of a nontrivial knot. It is chiral. The (2,...">
<polygon fill="white" stroke="black" points="241,-364.349 241,-383.349 366,-383.349 366,-364.349 241,-364.349"/>
<text text-anchor="middle" x="303.5" y="-371.349" font-family="Helvetica,sans-Serif" font-size="10.00">IGLib.Gr3D.TrefoilKnot3D</text>
</a>
</g>
</g>
<!-- Node0&#45;&gt;Node20 -->
<g id="edge30" class="edge"><title>Node0&#45;&gt;Node20</title>
<path fill="none" stroke="midnightblue" d="M112.872,-465.823C136.352,-443.977 175.307,-411.188 215,-392.849 223.326,-389.003 232.462,-385.92 241.592,-383.453"/>
<polygon fill="midnightblue" stroke="midnightblue" points="110.382,-463.361 105.524,-472.776 115.193,-468.445 110.382,-463.361"/>
</g>
<!-- Node21 -->
<g id="node24" class="node"><title>Node21</title>
<g id="a_node24"><a xlink:href="db/d82/classIGLib_1_1Gr3D_1_1TrefoilKnot3D__MathCurve3.html" target="_top" xlink:title="Alternative parameterization of the trefoil knot &#45; third parameterization from MathCurve (see the lin...">
<polygon fill="white" stroke="black" points="241,-314.849 241,-344.849 366,-344.849 366,-314.849 241,-314.849"/>
<text text-anchor="start" x="249" y="-332.849" font-family="Helvetica,sans-Serif" font-size="10.00">IGLib.Gr3D.TrefoilKnot3D</text>
<text text-anchor="middle" x="303.5" y="-321.849" font-family="Helvetica,sans-Serif" font-size="10.00">_MathCurve3</text>
</a>
</g>
</g>
<!-- Node0&#45;&gt;Node21 -->
<g id="edge31" class="edge"><title>Node0&#45;&gt;Node21</title>
<path fill="none" stroke="midnightblue" d="M106.515,-464.016C127.821,-434.138 168.28,-383.388 215,-354.849 222.955,-349.99 231.89,-346.043 240.932,-342.846"/>
<polygon fill="midnightblue" stroke="midnightblue" points="103.395,-462.37 100.532,-472.571 109.132,-466.382 103.395,-462.37"/>
</g>
</g>
</svg>
