<?xml version="1.0" encoding="UTF-8" standalone="no"?>
<!DOCTYPE svg PUBLIC "-//W3C//DTD SVG 1.1//EN"
 "http://www.w3.org/Graphics/SVG/1.1/DTD/svg11.dtd">
<!-- Generated by graphviz version 2.38.0 (20140413.2041)
 -->
<!-- Title: Graphical Class Hierarchy Pages: 1 -->
<svg width="352pt" height="88pt"
 viewBox="0.00 0.00 352.00 88.00" xmlns="http://www.w3.org/2000/svg" xmlns:xlink="http://www.w3.org/1999/xlink">
<g id="graph0" class="graph" transform="scale(1 1) rotate(0) translate(4 84)">
<title>Graphical Class Hierarchy</title>
<polygon fill="white" stroke="none" points="-4,4 -4,-84 348,-84 348,4 -4,4"/>
<!-- Node0 -->
<g id="node1" class="node"><title>Node0</title>
<g id="a_node1"><a xlink:href="d9/d0f/classIGLib_1_1Core_1_1Tests_1_1TypeConverterTestsBase.html" target="_top" xlink:title=" ">
<polygon fill="white" stroke="black" points="0,-19 0,-60 177,-60 177,-19 0,-19"/>
<text text-anchor="start" x="8" y="-48" font-family="Helvetica,sans-Serif" font-size="10.00">IGLib.Core.Tests.TypeConverter</text>
<text text-anchor="start" x="8" y="-37" font-family="Helvetica,sans-Serif" font-size="10.00">TestsBase&lt; SandboxTypeconversion</text>
<text text-anchor="middle" x="88.5" y="-26" font-family="Helvetica,sans-Serif" font-size="10.00">Tests &gt;</text>
</a>
</g>
</g>
<!-- Node1 -->
<g id="node2" class="node"><title>Node1</title>
<g id="a_node2"><a xlink:href="d0/d03/classIGLib_1_1Core_1_1Tests_1_1SandboxTypeconversionTests.html" target="_top" xlink:title="Sandbox for quick tests related to type conversion.">
<polygon fill="white" stroke="black" points="213,-49.5 213,-79.5 344,-79.5 344,-49.5 213,-49.5"/>
<text text-anchor="start" x="221" y="-67.5" font-family="Helvetica,sans-Serif" font-size="10.00">IGLib.Core.Tests.Sandbox</text>
<text text-anchor="middle" x="278.5" y="-56.5" font-family="Helvetica,sans-Serif" font-size="10.00">TypeconversionTests</text>
</a>
</g>
</g>
<!-- Node0&#45;&gt;Node1 -->
<g id="edge1" class="edge"><title>Node0&#45;&gt;Node1</title>
<path fill="none" stroke="midnightblue" d="M187.363,-52.5136C196.043,-53.6679 204.679,-54.8164 212.975,-55.9195"/>
<polygon fill="midnightblue" stroke="midnightblue" points="187.544,-49.0071 177.17,-51.1583 186.622,-55.946 187.544,-49.0071"/>
</g>
<!-- Node2 -->
<g id="node3" class="node"><title>Node2</title>
<g id="a_node3"><a xlink:href="d5/d49/classIGLib_1_1Core_1_1Tests_1_1SpecificTypeConvrterTests.html" target="_top" xlink:title="Sandbox for quick tests related to type conversion.">
<polygon fill="white" stroke="black" points="215,-0.5 215,-30.5 342,-30.5 342,-0.5 215,-0.5"/>
<text text-anchor="start" x="223" y="-18.5" font-family="Helvetica,sans-Serif" font-size="10.00">IGLib.Core.Tests.Specific</text>
<text text-anchor="middle" x="278.5" y="-7.5" font-family="Helvetica,sans-Serif" font-size="10.00">TypeConvrterTests</text>
</a>
</g>
</g>
<!-- Node0&#45;&gt;Node2 -->
<g id="edge2" class="edge"><title>Node0&#45;&gt;Node2</title>
<path fill="none" stroke="midnightblue" d="M187.331,-27.0109C196.693,-25.8158 206.004,-24.6271 214.892,-23.4925"/>
<polygon fill="midnightblue" stroke="midnightblue" points="186.647,-23.5698 177.17,-28.308 187.533,-30.5135 186.647,-23.5698"/>
</g>
</g>
</svg>
