<?xml version="1.0" encoding="UTF-8" standalone="no"?>
<!DOCTYPE svg PUBLIC "-//W3C//DTD SVG 1.1//EN"
 "http://www.w3.org/Graphics/SVG/1.1/DTD/svg11.dtd">
<!-- Generated by graphviz version 2.38.0 (20140413.2041)
 -->
<!-- Title: Graphical Class Hierarchy Pages: 1 -->
<svg width="311pt" height="39pt"
 viewBox="0.00 0.00 311.00 39.00" xmlns="http://www.w3.org/2000/svg" xmlns:xlink="http://www.w3.org/1999/xlink">
<g id="graph0" class="graph" transform="scale(1 1) rotate(0) translate(4 35)">
<title>Graphical Class Hierarchy</title>
<polygon fill="white" stroke="none" points="-4,4 -4,-35 307,-35 307,4 -4,4"/>
<!-- Node0 -->
<g id="node1" class="node"><title>Node0</title>
<g id="a_node1"><a xlink:href="dc/d6b/classIGLib_1_1Tests_1_1Base_1_1TestBase.html" target="_top" xlink:title=" ">
<polygon fill="white" stroke="black" points="0,-0.5 0,-30.5 136,-30.5 136,-0.5 0,-0.5"/>
<text text-anchor="start" x="8" y="-18.5" font-family="Helvetica,sans-Serif" font-size="10.00">IGLib.Tests.Base.TestBase</text>
<text text-anchor="middle" x="68" y="-7.5" font-family="Helvetica,sans-Serif" font-size="10.00">&lt; SpeedTests &gt;</text>
</a>
</g>
</g>
<!-- Node1 -->
<g id="node2" class="node"><title>Node1</title>
<g id="a_node2"><a xlink:href="d9/d80/classIGLib_1_1Testing_1_1Tests_1_1SpeedTests.html" target="_top" xlink:title=" ">
<polygon fill="white" stroke="black" points="172,-0.5 172,-30.5 303,-30.5 303,-0.5 172,-0.5"/>
<text text-anchor="start" x="180" y="-18.5" font-family="Helvetica,sans-Serif" font-size="10.00">IGLib.Testing.Tests.Speed</text>
<text text-anchor="middle" x="237.5" y="-7.5" font-family="Helvetica,sans-Serif" font-size="10.00">Tests</text>
</a>
</g>
</g>
<!-- Node0&#45;&gt;Node1 -->
<g id="edge1" class="edge"><title>Node0&#45;&gt;Node1</title>
<path fill="none" stroke="midnightblue" d="M146.435,-15.5C154.911,-15.5 163.473,-15.5 171.772,-15.5"/>
<polygon fill="midnightblue" stroke="midnightblue" points="146.164,-12.0001 136.164,-15.5 146.163,-19.0001 146.164,-12.0001"/>
</g>
</g>
</svg>
