<?xml version="1.0" encoding="UTF-8" standalone="no"?>
<!DOCTYPE svg PUBLIC "-//W3C//DTD SVG 1.1//EN"
 "http://www.w3.org/Graphics/SVG/1.1/DTD/svg11.dtd">
<!-- Generated by graphviz version 2.38.0 (20140413.2041)
 -->
<!-- Title: Graphical Class Hierarchy Pages: 1 -->
<svg width="336pt" height="100pt"
 viewBox="0.00 0.00 336.00 99.50" xmlns="http://www.w3.org/2000/svg" xmlns:xlink="http://www.w3.org/1999/xlink">
<g id="graph0" class="graph" transform="scale(1 1) rotate(0) translate(4 95.5)">
<title>Graphical Class Hierarchy</title>
<polygon fill="white" stroke="none" points="-4,4 -4,-95.5 332,-95.5 332,4 -4,4"/>
<!-- Node963 -->
<g id="node1" class="node"><title>Node963</title>
<g id="a_node1"><a xlink:href="d6/d3d/classIG_1_1Lib_1_1ArrayDto.html" target="_top" xlink:title=" ">
<polygon fill="white" stroke="black" points="3,-50 3,-91 161,-91 161,-50 3,-50"/>
<text text-anchor="start" x="11" y="-79" font-family="Helvetica,sans-Serif" font-size="10.00">IG.Lib.ArrayDto&lt; Element</text>
<text text-anchor="start" x="11" y="-68" font-family="Helvetica,sans-Serif" font-size="10.00">Type, ElementType, ElementDto</text>
<text text-anchor="middle" x="82" y="-57" font-family="Helvetica,sans-Serif" font-size="10.00">Type &gt;</text>
</a>
</g>
</g>
<!-- Node1 -->
<g id="node2" class="node"><title>Node1</title>
<g id="a_node2"><a xlink:href="d6/d3d/classIG_1_1Lib_1_1ArrayDto.html" target="_top" xlink:title="Data transfer object for holding arrays of objects of the same type.">
<polygon fill="white" stroke="black" points="200,-22 200,-63 328,-63 328,-22 200,-22"/>
<text text-anchor="start" x="208" y="-51" font-family="Helvetica,sans-Serif" font-size="10.00">IG.Lib.ArrayDto&lt; Element</text>
<text text-anchor="start" x="208" y="-40" font-family="Helvetica,sans-Serif" font-size="10.00">Type, ElementBaseType,</text>
<text text-anchor="middle" x="264" y="-29" font-family="Helvetica,sans-Serif" font-size="10.00"> ElementDtoType &gt;</text>
</a>
</g>
</g>
<!-- Node963&#45;&gt;Node1 -->
<g id="edge1" class="edge"><title>Node963&#45;&gt;Node1</title>
<path fill="none" stroke="midnightblue" d="M171.192,-56.7812C180.842,-55.2802 190.519,-53.7748 199.78,-52.3342"/>
<polygon fill="midnightblue" stroke="midnightblue" points="170.508,-53.3454 161.165,-58.341 171.584,-60.2622 170.508,-53.3454"/>
</g>
<!-- Node0 -->
<g id="node3" class="node"><title>Node0</title>
<g id="a_node3"><a xlink:href="d7/dd8/classIG_1_1Lib_1_1SerializationDtoBase.html" target="_top" xlink:title=" ">
<polygon fill="white" stroke="black" points="0,-0.5 0,-30.5 164,-30.5 164,-0.5 0,-0.5"/>
<text text-anchor="start" x="8" y="-18.5" font-family="Helvetica,sans-Serif" font-size="10.00">IG.Lib.SerializationDtoBase</text>
<text text-anchor="middle" x="82" y="-7.5" font-family="Helvetica,sans-Serif" font-size="10.00">&lt; ElementType[], ElementType[]&gt;</text>
</a>
</g>
</g>
<!-- Node0&#45;&gt;Node1 -->
<g id="edge2" class="edge"><title>Node0&#45;&gt;Node1</title>
<path fill="none" stroke="midnightblue" d="M173.953,-29.143C182.738,-30.4606 191.51,-31.7765 199.935,-33.0403"/>
<polygon fill="midnightblue" stroke="midnightblue" points="174.457,-25.6795 164.048,-27.6573 173.418,-32.602 174.457,-25.6795"/>
</g>
</g>
</svg>
