<?xml version="1.0" encoding="UTF-8" standalone="no"?>
<!DOCTYPE svg PUBLIC "-//W3C//DTD SVG 1.1//EN"
 "http://www.w3.org/Graphics/SVG/1.1/DTD/svg11.dtd">
<!-- Generated by graphviz version 2.38.0 (20140413.2041)
 -->
<!-- Title: Graphical Class Hierarchy Pages: 1 -->
<svg width="367pt" height="83pt"
 viewBox="0.00 0.00 367.00 83.00" xmlns="http://www.w3.org/2000/svg" xmlns:xlink="http://www.w3.org/1999/xlink">
<g id="graph0" class="graph" transform="scale(1 1) rotate(0) translate(4 79)">
<title>Graphical Class Hierarchy</title>
<polygon fill="white" stroke="none" points="-4,4 -4,-79 363,-79 363,4 -4,4"/>
<!-- Node0 -->
<g id="node1" class="node"><title>Node0</title>
<g id="a_node1"><a xlink:href="dc/d27/classIG_1_1Num_1_1StructuredMesh2d.html" target="_top" xlink:title=" ">
<polygon fill="white" stroke="black" points="0,-0.5 0,-74.5 180,-74.5 180,-0.5 0,-0.5"/>
<text text-anchor="start" x="8" y="-62.5" font-family="Helvetica,sans-Serif" font-size="10.00">IG.Num.StructuredMesh2d</text>
<text text-anchor="start" x="8" y="-51.5" font-family="Helvetica,sans-Serif" font-size="10.00">&lt; vec3, StructuredField2d</text>
<text text-anchor="start" x="8" y="-40.5" font-family="Helvetica,sans-Serif" font-size="10.00">&lt; int &gt;, int, StructuredField2d</text>
<text text-anchor="start" x="8" y="-29.5" font-family="Helvetica,sans-Serif" font-size="10.00">&lt; double &gt;, double, StructuredField2d</text>
<text text-anchor="start" x="8" y="-18.5" font-family="Helvetica,sans-Serif" font-size="10.00">&lt; vec3 &gt;, vec3, StructuredField2d</text>
<text text-anchor="middle" x="90" y="-7.5" font-family="Helvetica,sans-Serif" font-size="10.00">&lt; mat3 &gt;, mat3 &gt;</text>
</a>
</g>
</g>
<!-- Node1 -->
<g id="node2" class="node"><title>Node1</title>
<g id="a_node2"><a xlink:href="d6/d5e/classIG_1_1Num_1_1StructuredMesh2d3d.html" target="_top" xlink:title="2D structured mesh in 3D.">
<polygon fill="white" stroke="black" points="216,-28 216,-47 359,-47 359,-28 216,-28"/>
<text text-anchor="middle" x="287.5" y="-35" font-family="Helvetica,sans-Serif" font-size="10.00">IG.Num.StructuredMesh2d3d</text>
</a>
</g>
</g>
<!-- Node0&#45;&gt;Node1 -->
<g id="edge1" class="edge"><title>Node0&#45;&gt;Node1</title>
<path fill="none" stroke="midnightblue" d="M190.305,-37.5C198.947,-37.5 207.573,-37.5 215.912,-37.5"/>
<polygon fill="midnightblue" stroke="midnightblue" points="190.169,-34.0001 180.169,-37.5 190.168,-41.0001 190.169,-34.0001"/>
</g>
</g>
</svg>
