<?xml version="1.0" encoding="UTF-8" standalone="no"?>
<!DOCTYPE svg PUBLIC "-//W3C//DTD SVG 1.1//EN"
 "http://www.w3.org/Graphics/SVG/1.1/DTD/svg11.dtd">
<!-- Generated by graphviz version 2.38.0 (20140413.2041)
 -->
<!-- Title: Graphical Class Hierarchy Pages: 1 -->
<svg width="546pt" height="47pt"
 viewBox="0.00 0.00 546.00 47.00" xmlns="http://www.w3.org/2000/svg" xmlns:xlink="http://www.w3.org/1999/xlink">
<g id="graph0" class="graph" transform="scale(1 1) rotate(0) translate(4 43)">
<title>Graphical Class Hierarchy</title>
<polygon fill="white" stroke="none" points="-4,4 -4,-43 542,-43 542,4 -4,4"/>
<!-- Node0 -->
<g id="node1" class="node"><title>Node0</title>
<g id="a_node1"><a xlink:href="d1/d02/interfaceIG_1_1Lib_1_1ISerializer.html" target="_top" xlink:title="Interface for helper classes that perform serialization/deserialization of objects.">
<polygon fill="white" stroke="black" points="0,-0.5 0,-19.5 88,-19.5 88,-0.5 0,-0.5"/>
<text text-anchor="middle" x="44" y="-7.5" font-family="Helvetica,sans-Serif" font-size="10.00">IG.Lib.ISerializer</text>
</a>
</g>
</g>
<!-- Node1 -->
<g id="node2" class="node"><title>Node1</title>
<g id="a_node2"><a xlink:href="d0/d1b/classIG_1_1Lib_1_1SerializerBase.html" target="_top" xlink:title="Base class for serialization helper classes.">
<polygon fill="white" stroke="black" points="124,-19.5 124,-38.5 232,-38.5 232,-19.5 124,-19.5"/>
<text text-anchor="middle" x="178" y="-26.5" font-family="Helvetica,sans-Serif" font-size="10.00">IG.Lib.SerializerBase</text>
</a>
</g>
</g>
<!-- Node0&#45;&gt;Node1 -->
<g id="edge1" class="edge"><title>Node0&#45;&gt;Node1</title>
<path fill="none" stroke="midnightblue" d="M98.3537,-17.6797C106.809,-18.8968 115.552,-20.1553 124,-21.3712"/>
<polygon fill="midnightblue" stroke="midnightblue" points="98.6184,-14.1818 88.2217,-16.2213 97.621,-21.1104 98.6184,-14.1818"/>
</g>
<!-- Node2 -->
<g id="node3" class="node"><title>Node2</title>
<g id="a_node3"><a xlink:href="d0/d1a/classIG_1_1Lib_1_1SerializerJsonBase.html" target="_top" xlink:title="Helper class for JSON serialization and deserialization. This class does not enable formatting of the...">
<polygon fill="white" stroke="black" points="268,-0.5 268,-19.5 396,-19.5 396,-0.5 268,-0.5"/>
<text text-anchor="middle" x="332" y="-7.5" font-family="Helvetica,sans-Serif" font-size="10.00">IG.Lib.SerializerJsonBase</text>
</a>
</g>
</g>
<!-- Node0&#45;&gt;Node2 -->
<g id="edge4" class="edge"><title>Node0&#45;&gt;Node2</title>
<path fill="none" stroke="midnightblue" d="M98.3186,-10C146.356,-10 217.034,-10 267.878,-10"/>
<polygon fill="midnightblue" stroke="midnightblue" points="98.1268,-6.5001 88.1267,-10 98.1267,-13.5001 98.1268,-6.5001"/>
</g>
<!-- Node1&#45;&gt;Node2 -->
<g id="edge2" class="edge"><title>Node1&#45;&gt;Node2</title>
<path fill="none" stroke="midnightblue" d="M242.35,-21.0812C250.814,-20.0233 259.493,-18.9384 267.952,-17.8811"/>
<polygon fill="midnightblue" stroke="midnightblue" points="241.651,-17.6413 232.162,-22.3547 242.519,-24.5873 241.651,-17.6413"/>
</g>
<!-- Node3 -->
<g id="node4" class="node"><title>Node3</title>
<g id="a_node4"><a xlink:href="d4/d1f/classIG_1_1Lib_1_1SerializerJson.html" target="_top" xlink:title="Helper class for JSON serialization and deserialization. This class enables formatting of the generat...">
<polygon fill="white" stroke="black" points="432,-0.5 432,-19.5 538,-19.5 538,-0.5 432,-0.5"/>
<text text-anchor="middle" x="485" y="-7.5" font-family="Helvetica,sans-Serif" font-size="10.00">IG.Lib.SerializerJson</text>
</a>
</g>
</g>
<!-- Node2&#45;&gt;Node3 -->
<g id="edge3" class="edge"><title>Node2&#45;&gt;Node3</title>
<path fill="none" stroke="midnightblue" d="M406.19,-10C414.769,-10 423.389,-10 431.605,-10"/>
<polygon fill="midnightblue" stroke="midnightblue" points="406.163,-6.5001 396.163,-10 406.163,-13.5001 406.163,-6.5001"/>
</g>
</g>
</svg>
