<?xml version="1.0" encoding="UTF-8" standalone="no"?>
<!DOCTYPE svg PUBLIC "-//W3C//DTD SVG 1.1//EN"
 "http://www.w3.org/Graphics/SVG/1.1/DTD/svg11.dtd">
<!-- Generated by graphviz version 2.38.0 (20140413.2041)
 -->
<!-- Title: Graphical Class Hierarchy Pages: 1 -->
<svg width="354pt" height="88pt"
 viewBox="0.00 0.00 354.00 88.00" xmlns="http://www.w3.org/2000/svg" xmlns:xlink="http://www.w3.org/1999/xlink">
<g id="graph0" class="graph" transform="scale(1 1) rotate(0) translate(4 84)">
<title>Graphical Class Hierarchy</title>
<polygon fill="white" stroke="none" points="-4,4 -4,-84 350,-84 350,4 -4,4"/>
<!-- Node0 -->
<g id="node1" class="node"><title>Node0</title>
<g id="a_node1"><a xlink:href="db/d98/classIG_1_1Lib_1_1ApplicationCommandlineBase.html" target="_top" xlink:title="Base class for main application classes that have the main method of the application based on command...">
<polygon fill="white" stroke="black" points="0,-30 0,-49 175,-49 175,-30 0,-30"/>
<text text-anchor="middle" x="87.5" y="-37" font-family="Helvetica,sans-Serif" font-size="10.00">IG.Lib.ApplicationCommandlineBase</text>
</a>
</g>
</g>
<!-- Node1 -->
<g id="node2" class="node"><title>Node1</title>
<g id="a_node2"><a xlink:href="d7/d7b/classIG_1_1Lib_1_1LoadableScriptBase_1_1StoredScriptSettings.html" target="_top" xlink:title="In methods of this class you will find all the settings that apply to this script.">
<polygon fill="white" stroke="black" points="211,-49.5 211,-79.5 346,-79.5 346,-49.5 211,-49.5"/>
<text text-anchor="start" x="219" y="-67.5" font-family="Helvetica,sans-Serif" font-size="10.00">IG.Lib.LoadableScriptBase.</text>
<text text-anchor="middle" x="278.5" y="-56.5" font-family="Helvetica,sans-Serif" font-size="10.00">StoredScriptSettings</text>
</a>
</g>
</g>
<!-- Node0&#45;&gt;Node1 -->
<g id="edge1" class="edge"><title>Node0&#45;&gt;Node1</title>
<path fill="none" stroke="midnightblue" d="M170.703,-50.3734C184.165,-52.1542 197.967,-53.9798 210.989,-55.7023"/>
<polygon fill="midnightblue" stroke="midnightblue" points="170.865,-46.8644 160.492,-49.0227 169.947,-53.8039 170.865,-46.8644"/>
</g>
<!-- Node2 -->
<g id="node3" class="node"><title>Node2</title>
<g id="a_node3"><a xlink:href="d4/d93/classIG_1_1Lib_1_1ShellApplication.html" target="_top" xlink:title="Class encapsulating a command&#45;line shell. Used as embedded shell application that can be installed on...">
<polygon fill="white" stroke="black" points="221,-0.5 221,-30.5 336,-30.5 336,-0.5 221,-0.5"/>
<text text-anchor="start" x="229" y="-18.5" font-family="Helvetica,sans-Serif" font-size="10.00">IG.Lib.ShellApplication</text>
<text text-anchor="middle" x="278.5" y="-7.5" font-family="Helvetica,sans-Serif" font-size="10.00">&lt; InterpreterType &gt;</text>
</a>
</g>
</g>
<!-- Node0&#45;&gt;Node2 -->
<g id="edge2" class="edge"><title>Node0&#45;&gt;Node2</title>
<path fill="none" stroke="midnightblue" d="M173.436,-28.7145C189.548,-26.6685 206.035,-24.575 220.997,-22.675"/>
<polygon fill="midnightblue" stroke="midnightblue" points="172.949,-25.2482 163.469,-29.9801 173.831,-32.1924 172.949,-25.2482"/>
</g>
</g>
</svg>
