<?xml version="1.0" encoding="UTF-8" standalone="no"?>
<!DOCTYPE svg PUBLIC "-//W3C//DTD SVG 1.1//EN"
 "http://www.w3.org/Graphics/SVG/1.1/DTD/svg11.dtd">
<!-- Generated by graphviz version 2.38.0 (20140413.2041)
 -->
<!-- Title: Graphical Class Hierarchy Pages: 1 -->
<svg width="402pt" height="61pt"
 viewBox="0.00 0.00 402.00 61.00" xmlns="http://www.w3.org/2000/svg" xmlns:xlink="http://www.w3.org/1999/xlink">
<g id="graph0" class="graph" transform="scale(1 1) rotate(0) translate(4 57)">
<title>Graphical Class Hierarchy</title>
<polygon fill="white" stroke="none" points="-4,4 -4,-57 398,-57 398,4 -4,4"/>
<!-- Node0 -->
<g id="node1" class="node"><title>Node0</title>
<g id="a_node1"><a xlink:href="dc/deb/classIG_1_1Num_1_1VectorFunctionScriptDtoBase.html" target="_top" xlink:title=" ">
<polygon fill="white" stroke="black" points="0,-0.5 0,-52.5 199,-52.5 199,-0.5 0,-0.5"/>
<text text-anchor="start" x="8" y="-40.5" font-family="Helvetica,sans-Serif" font-size="10.00">IG.Num.VectorFunctionScript</text>
<text text-anchor="start" x="8" y="-29.5" font-family="Helvetica,sans-Serif" font-size="10.00">DtoBase&lt; VectorFunctionScriptController,</text>
<text text-anchor="start" x="8" y="-18.5" font-family="Helvetica,sans-Serif" font-size="10.00"> ScalarFunctionScriptController,</text>
<text text-anchor="middle" x="99.5" y="-7.5" font-family="Helvetica,sans-Serif" font-size="10.00"> ScalarFunctionScriptDto &gt;</text>
</a>
</g>
</g>
<!-- Node1 -->
<g id="node2" class="node"><title>Node1</title>
<g id="a_node2"><a xlink:href="d0/df4/classIG_1_1Num_1_1VectorFunctionScriptDto.html" target="_top" xlink:title="DTO (data transfer object) for vector interface (IVector).">
<polygon fill="white" stroke="black" points="235,-17 235,-36 394,-36 394,-17 235,-17"/>
<text text-anchor="middle" x="314.5" y="-24" font-family="Helvetica,sans-Serif" font-size="10.00">IG.Num.VectorFunctionScriptDto</text>
</a>
</g>
</g>
<!-- Node0&#45;&gt;Node1 -->
<g id="edge1" class="edge"><title>Node0&#45;&gt;Node1</title>
<path fill="none" stroke="midnightblue" d="M209.324,-26.5C217.946,-26.5 226.548,-26.5 234.904,-26.5"/>
<polygon fill="midnightblue" stroke="midnightblue" points="209.206,-23.0001 199.206,-26.5 209.206,-30.0001 209.206,-23.0001"/>
</g>
</g>
</svg>
