<?xml version="1.0" encoding="UTF-8" standalone="no"?>
<!DOCTYPE svg PUBLIC "-//W3C//DTD SVG 1.1//EN"
 "http://www.w3.org/Graphics/SVG/1.1/DTD/svg11.dtd">
<!-- Generated by graphviz version 2.38.0 (20140413.2041)
 -->
<!-- Title: Graphical Class Hierarchy Pages: 1 -->
<svg width="347pt" height="88pt"
 viewBox="0.00 0.00 347.00 88.00" xmlns="http://www.w3.org/2000/svg" xmlns:xlink="http://www.w3.org/1999/xlink">
<g id="graph0" class="graph" transform="scale(1 1) rotate(0) translate(4 84)">
<title>Graphical Class Hierarchy</title>
<polygon fill="white" stroke="none" points="-4,4 -4,-84 343,-84 343,4 -4,4"/>
<!-- Node0 -->
<g id="node1" class="node"><title>Node0</title>
<g id="a_node1"><a xlink:href="da/df7/classIG_1_1Neural_1_1MappingDefinitionElement.html" target="_top" xlink:title="Base class for input or output data element mapping definition.">
<polygon fill="white" stroke="black" points="0,-24.5 0,-54.5 137,-54.5 137,-24.5 0,-24.5"/>
<text text-anchor="start" x="8" y="-42.5" font-family="Helvetica,sans-Serif" font-size="10.00">IG.Neural.MappingDefinition</text>
<text text-anchor="middle" x="68.5" y="-31.5" font-family="Helvetica,sans-Serif" font-size="10.00">Element</text>
</a>
</g>
</g>
<!-- Node1 -->
<g id="node2" class="node"><title>Node1</title>
<g id="a_node2"><a xlink:href="da/d85/classIG_1_1Neural_1_1InputMappingDefinitionElement.html" target="_top" xlink:title="Input data element mapping definition for neural networks.">
<polygon fill="white" stroke="black" points="177,-49.5 177,-79.5 335,-79.5 335,-49.5 177,-49.5"/>
<text text-anchor="start" x="185" y="-67.5" font-family="Helvetica,sans-Serif" font-size="10.00">IG.Neural.InputMappingDefinition</text>
<text text-anchor="middle" x="256" y="-56.5" font-family="Helvetica,sans-Serif" font-size="10.00">Element</text>
</a>
</g>
</g>
<!-- Node0&#45;&gt;Node1 -->
<g id="edge1" class="edge"><title>Node0&#45;&gt;Node1</title>
<path fill="none" stroke="midnightblue" d="M147.302,-49.9855C157.038,-51.2975 166.999,-52.64 176.741,-53.9529"/>
<polygon fill="midnightblue" stroke="midnightblue" points="147.635,-46.4988 137.257,-48.6317 146.7,-53.4361 147.635,-46.4988"/>
</g>
<!-- Node2 -->
<g id="node3" class="node"><title>Node2</title>
<g id="a_node3"><a xlink:href="d6/d84/classIG_1_1Neural_1_1OutputMappingDefinitionElement.html" target="_top" xlink:title="Output data element mapping definition for neural networks.">
<polygon fill="white" stroke="black" points="173,-0.5 173,-30.5 339,-30.5 339,-0.5 173,-0.5"/>
<text text-anchor="start" x="181" y="-18.5" font-family="Helvetica,sans-Serif" font-size="10.00">IG.Neural.OutputMappingDefinition</text>
<text text-anchor="middle" x="256" y="-7.5" font-family="Helvetica,sans-Serif" font-size="10.00">Element</text>
</a>
</g>
</g>
<!-- Node0&#45;&gt;Node2 -->
<g id="edge2" class="edge"><title>Node0&#45;&gt;Node2</title>
<path fill="none" stroke="midnightblue" d="M147.431,-29.4173C155.856,-28.3273 164.448,-27.2156 172.92,-26.1195"/>
<polygon fill="midnightblue" stroke="midnightblue" points="146.725,-25.9793 137.257,-30.7336 147.624,-32.9215 146.725,-25.9793"/>
</g>
</g>
</svg>
