<?xml version="1.0" encoding="UTF-8" standalone="no"?>
<!DOCTYPE svg PUBLIC "-//W3C//DTD SVG 1.1//EN"
 "http://www.w3.org/Graphics/SVG/1.1/DTD/svg11.dtd">
<!-- Generated by graphviz version 2.38.0 (20140413.2041)
 -->
<!-- Title: Graphical Class Hierarchy Pages: 1 -->
<svg width="382pt" height="47pt"
 viewBox="0.00 0.00 382.00 47.00" xmlns="http://www.w3.org/2000/svg" xmlns:xlink="http://www.w3.org/1999/xlink">
<g id="graph0" class="graph" transform="scale(1 1) rotate(0) translate(4 43)">
<title>Graphical Class Hierarchy</title>
<polygon fill="white" stroke="none" points="-4,4 -4,-43 378,-43 378,4 -4,4"/>
<!-- Node0 -->
<g id="node1" class="node"><title>Node0</title>
<g id="a_node1"><a xlink:href="d0/d9a/interfaceIG_1_1Lib_1_1IColorScale.html" target="_top" xlink:title=" ">
<polygon fill="white" stroke="black" points="0,-19.5 0,-38.5 95,-38.5 95,-19.5 0,-19.5"/>
<text text-anchor="middle" x="47.5" y="-26.5" font-family="Helvetica,sans-Serif" font-size="10.00">IG.Lib.IColorScale</text>
</a>
</g>
</g>
<!-- Node1 -->
<g id="node2" class="node"><title>Node1</title>
<g id="a_node2"><a xlink:href="d5/d87/classIG_1_1Lib_1_1ColorScale.html" target="_top" xlink:title=" ">
<polygon fill="white" stroke="black" points="282,-19.5 282,-38.5 374,-38.5 374,-19.5 282,-19.5"/>
<text text-anchor="middle" x="328" y="-26.5" font-family="Helvetica,sans-Serif" font-size="10.00">IG.Lib.ColorScale</text>
</a>
</g>
</g>
<!-- Node0&#45;&gt;Node1 -->
<g id="edge1" class="edge"><title>Node0&#45;&gt;Node1</title>
<path fill="none" stroke="midnightblue" d="M105.193,-29C157.272,-29 233.462,-29 281.621,-29"/>
<polygon fill="midnightblue" stroke="midnightblue" points="105.115,-25.5001 95.1146,-29 105.115,-32.5001 105.115,-25.5001"/>
</g>
<!-- Node2 -->
<g id="node3" class="node"><title>Node2</title>
<g id="a_node3"><a xlink:href="d1/d6b/classIG_1_1Lib_1_1ColorScaleBase.html" target="_top" xlink:title=" ">
<polygon fill="white" stroke="black" points="131,-0.5 131,-19.5 246,-19.5 246,-0.5 131,-0.5"/>
<text text-anchor="middle" x="188.5" y="-7.5" font-family="Helvetica,sans-Serif" font-size="10.00">IG.Lib.ColorScaleBase</text>
</a>
</g>
</g>
<!-- Node0&#45;&gt;Node2 -->
<g id="edge2" class="edge"><title>Node0&#45;&gt;Node2</title>
<path fill="none" stroke="midnightblue" d="M105.216,-21.2475C113.582,-20.1039 122.204,-18.9253 130.575,-17.7811"/>
<polygon fill="midnightblue" stroke="midnightblue" points="104.605,-17.7983 95.1717,-22.6204 105.554,-24.7338 104.605,-17.7983"/>
</g>
<!-- Node2&#45;&gt;Node1 -->
<g id="edge3" class="edge"><title>Node2&#45;&gt;Node1</title>
<path fill="none" stroke="midnightblue" d="M256.291,-19.2293C264.914,-20.4208 273.578,-21.618 281.739,-22.7458"/>
<polygon fill="midnightblue" stroke="midnightblue" points="256.605,-15.7396 246.22,-17.8377 255.647,-22.6737 256.605,-15.7396"/>
</g>
</g>
</svg>
