<?xml version="1.0" encoding="UTF-8" standalone="no"?>
<!DOCTYPE svg PUBLIC "-//W3C//DTD SVG 1.1//EN"
 "http://www.w3.org/Graphics/SVG/1.1/DTD/svg11.dtd">
<!-- Generated by graphviz version 2.38.0 (20140413.2041)
 -->
<!-- Title: Graphical Class Hierarchy Pages: 1 -->
<svg width="276pt" height="88pt"
 viewBox="0.00 0.00 276.00 88.00" xmlns="http://www.w3.org/2000/svg" xmlns:xlink="http://www.w3.org/1999/xlink">
<g id="graph0" class="graph" transform="scale(1 1) rotate(0) translate(4 84)">
<title>Graphical Class Hierarchy</title>
<polygon fill="white" stroke="none" points="-4,4 -4,-84 272,-84 272,4 -4,4"/>
<!-- Node421 -->
<g id="node1" class="node"><title>Node421</title>
<g id="a_node1"><a xlink:href="d8/d1e/interfaceIG_1_1Lib_1_1ISerializationDto.html" target="_top" xlink:title=" ">
<polygon fill="white" stroke="black" points="0,-49.5 0,-79.5 116,-79.5 116,-49.5 0,-49.5"/>
<text text-anchor="start" x="8" y="-67.5" font-family="Helvetica,sans-Serif" font-size="10.00">IG.Lib.ISerializationDto</text>
<text text-anchor="middle" x="58" y="-56.5" font-family="Helvetica,sans-Serif" font-size="10.00">&lt; Type, Type &gt;</text>
</a>
</g>
</g>
<!-- Node1 -->
<g id="node2" class="node"><title>Node1</title>
<g id="a_node2"><a xlink:href="d8/d1e/interfaceIG_1_1Lib_1_1ISerializationDto.html" target="_top" xlink:title="Interface for Data Transfer Objects (DTO). This class is used as template for producing concrete DTO ...">
<polygon fill="white" stroke="black" points="152,-24.5 152,-54.5 268,-54.5 268,-24.5 152,-24.5"/>
<text text-anchor="start" x="160" y="-42.5" font-family="Helvetica,sans-Serif" font-size="10.00">IG.Lib.ISerializationDto</text>
<text text-anchor="middle" x="210" y="-31.5" font-family="Helvetica,sans-Serif" font-size="10.00">&lt; Type, BaseType &gt;</text>
</a>
</g>
</g>
<!-- Node421&#45;&gt;Node1 -->
<g id="edge1" class="edge"><title>Node421&#45;&gt;Node1</title>
<path fill="none" stroke="midnightblue" d="M126.033,-53.3278C134.54,-51.9099 143.186,-50.469 151.525,-49.0791"/>
<polygon fill="midnightblue" stroke="midnightblue" points="125.425,-49.8808 116.136,-54.9773 126.576,-56.7856 125.425,-49.8808"/>
</g>
<!-- Node0 -->
<g id="node3" class="node"><title>Node0</title>
<g id="a_node3"><a xlink:href="d2/dd5/interfaceIG_1_1Lib_1_1ISerializationDtoAux.html" target="_top" xlink:title="This interface facilitates use of static helper methods for copying on the SerializationDtoBase class...">
<polygon fill="white" stroke="black" points="0,-0.5 0,-30.5 116,-30.5 116,-0.5 0,-0.5"/>
<text text-anchor="start" x="8" y="-18.5" font-family="Helvetica,sans-Serif" font-size="10.00">IG.Lib.ISerializationDto</text>
<text text-anchor="middle" x="58" y="-7.5" font-family="Helvetica,sans-Serif" font-size="10.00">Aux&lt; Type &gt;</text>
</a>
</g>
</g>
<!-- Node0&#45;&gt;Node1 -->
<g id="edge2" class="edge"><title>Node0&#45;&gt;Node1</title>
<path fill="none" stroke="midnightblue" d="M126.033,-26.2253C134.54,-27.5865 143.186,-28.9698 151.525,-30.3041"/>
<polygon fill="midnightblue" stroke="midnightblue" points="126.564,-22.7658 116.136,-24.6418 125.458,-29.6779 126.564,-22.7658"/>
</g>
</g>
</svg>
