<?xml version="1.0" encoding="UTF-8" standalone="no"?>
<!DOCTYPE svg PUBLIC "-//W3C//DTD SVG 1.1//EN"
 "http://www.w3.org/Graphics/SVG/1.1/DTD/svg11.dtd">
<!-- Generated by graphviz version 2.38.0 (20140413.2041)
 -->
<!-- Title: Graphical Class Hierarchy Pages: 1 -->
<svg width="309pt" height="137pt"
 viewBox="0.00 0.00 309.00 137.00" xmlns="http://www.w3.org/2000/svg" xmlns:xlink="http://www.w3.org/1999/xlink">
<g id="graph0" class="graph" transform="scale(1 1) rotate(0) translate(4 133)">
<title>Graphical Class Hierarchy</title>
<polygon fill="white" stroke="none" points="-4,4 -4,-133 305,-133 305,4 -4,4"/>
<!-- Node0 -->
<g id="node1" class="node"><title>Node0</title>
<g id="a_node1"><a xlink:href="dd/d09/interfaceIGLib_1_1Core_1_1ISingleSourceTypeConverter.html" target="_top" xlink:title=" ">
<polygon fill="white" stroke="black" points="0,-49.5 0,-79.5 125,-79.5 125,-49.5 0,-49.5"/>
<text text-anchor="start" x="8" y="-67.5" font-family="Helvetica,sans-Serif" font-size="10.00">IGLib.Core.ISingleSource</text>
<text text-anchor="middle" x="62.5" y="-56.5" font-family="Helvetica,sans-Serif" font-size="10.00">TypeConverter&lt; string &gt;</text>
</a>
</g>
</g>
<!-- Node1 -->
<g id="node2" class="node"><title>Node1</title>
<g id="a_node2"><a xlink:href="d6/dee/classIGLib_1_1Core_1_1FromStringTypeConverterViaIConvertible.html" target="_top" xlink:title="Converts a string to a specific type using IConvertible and invariant culture. Only works with types ...">
<polygon fill="white" stroke="black" points="164,-98.5 164,-128.5 298,-128.5 298,-98.5 164,-98.5"/>
<text text-anchor="start" x="172" y="-116.5" font-family="Helvetica,sans-Serif" font-size="10.00">IGLib.Core.FromStringType</text>
<text text-anchor="middle" x="231" y="-105.5" font-family="Helvetica,sans-Serif" font-size="10.00">ConverterViaIConvertible</text>
</a>
</g>
</g>
<!-- Node0&#45;&gt;Node1 -->
<g id="edge1" class="edge"><title>Node0&#45;&gt;Node1</title>
<path fill="none" stroke="midnightblue" d="M124.551,-82.467C142.391,-87.717 161.697,-93.3989 178.855,-98.4484"/>
<polygon fill="midnightblue" stroke="midnightblue" points="125.395,-79.0671 114.814,-79.6014 123.419,-85.7824 125.395,-79.0671"/>
</g>
<!-- Node2 -->
<g id="node3" class="node"><title>Node2</title>
<g id="a_node3"><a xlink:href="d0/d04/classIGLib_1_1Core_1_1FromStringTypeConverterViaJson.html" target="_top" xlink:title="Converts a JSON string to a strongly typed object using System.Text.Json.">
<polygon fill="white" stroke="black" points="164,-49.5 164,-79.5 298,-79.5 298,-49.5 164,-49.5"/>
<text text-anchor="start" x="172" y="-67.5" font-family="Helvetica,sans-Serif" font-size="10.00">IGLib.Core.FromStringType</text>
<text text-anchor="middle" x="231" y="-56.5" font-family="Helvetica,sans-Serif" font-size="10.00">ConverterViaJson</text>
</a>
</g>
</g>
<!-- Node0&#45;&gt;Node2 -->
<g id="edge2" class="edge"><title>Node0&#45;&gt;Node2</title>
<path fill="none" stroke="midnightblue" d="M135.268,-64.5C144.803,-64.5 154.543,-64.5 163.975,-64.5"/>
<polygon fill="midnightblue" stroke="midnightblue" points="135.025,-61.0001 125.025,-64.5 135.025,-68.0001 135.025,-61.0001"/>
</g>
<!-- Node3 -->
<g id="node4" class="node"><title>Node3</title>
<g id="a_node4"><a xlink:href="d9/d5d/classIGLib_1_1Core_1_1FromStringTypeConverterViaParseReflection.html" target="_top" xlink:title="Converts from string to a specific type using TryParse or Parse methods via reflection....">
<polygon fill="white" stroke="black" points="161,-0.5 161,-30.5 301,-30.5 301,-0.5 161,-0.5"/>
<text text-anchor="start" x="169" y="-18.5" font-family="Helvetica,sans-Serif" font-size="10.00">IGLib.Core.FromStringType</text>
<text text-anchor="middle" x="231" y="-7.5" font-family="Helvetica,sans-Serif" font-size="10.00">ConverterViaParseReflection</text>
</a>
</g>
</g>
<!-- Node0&#45;&gt;Node3 -->
<g id="edge3" class="edge"><title>Node0&#45;&gt;Node3</title>
<path fill="none" stroke="midnightblue" d="M124.551,-46.533C142.391,-41.283 161.697,-35.6011 178.855,-30.5516"/>
<polygon fill="midnightblue" stroke="midnightblue" points="123.419,-43.2176 114.814,-49.3986 125.395,-49.9329 123.419,-43.2176"/>
</g>
</g>
</svg>
