<?xml version="1.0" encoding="UTF-8" standalone="no"?>
<!DOCTYPE svg PUBLIC "-//W3C//DTD SVG 1.1//EN"
 "http://www.w3.org/Graphics/SVG/1.1/DTD/svg11.dtd">
<!-- Generated by graphviz version 2.38.0 (20140413.2041)
 -->
<!-- Title: Graphical Class Hierarchy Pages: 1 -->
<svg width="394pt" height="39pt"
 viewBox="0.00 0.00 394.00 39.00" xmlns="http://www.w3.org/2000/svg" xmlns:xlink="http://www.w3.org/1999/xlink">
<g id="graph0" class="graph" transform="scale(1 1) rotate(0) translate(4 35)">
<title>Graphical Class Hierarchy</title>
<polygon fill="white" stroke="none" points="-4,4 -4,-35 390,-35 390,4 -4,4"/>
<!-- Node847 -->
<g id="node1" class="node"><title>Node847</title>
<g id="a_node1"><a xlink:title=" ">
<polygon fill="white" stroke="#bfbfbf" points="0,-6 0,-25 73,-25 73,-6 0,-6"/>
<text text-anchor="middle" x="36.5" y="-13" font-family="Helvetica,sans-Serif" font-size="10.00">ICapturedVar</text>
</a>
</g>
</g>
<!-- Node0 -->
<g id="node2" class="node"><title>Node0</title>
<g id="a_node2"><a xlink:href="d2/d00/interfaceIGLib_1_1Core_1_1ICapturedVar.html" target="_top" xlink:title="Interface for the CapturedVar&lt;DeclaredType&gt; and its derived types. See documetation for that type for...">
<polygon fill="white" stroke="black" points="109,-0.5 109,-30.5 231,-30.5 231,-0.5 109,-0.5"/>
<text text-anchor="start" x="117" y="-18.5" font-family="Helvetica,sans-Serif" font-size="10.00">IGLib.Core.ICapturedVar</text>
<text text-anchor="middle" x="170" y="-7.5" font-family="Helvetica,sans-Serif" font-size="10.00">&lt; DeclaredType &gt;</text>
</a>
</g>
</g>
<!-- Node847&#45;&gt;Node0 -->
<g id="edge1" class="edge"><title>Node847&#45;&gt;Node0</title>
<path fill="none" stroke="midnightblue" d="M83.2463,-15.5C91.4992,-15.5 100.217,-15.5 108.807,-15.5"/>
<polygon fill="midnightblue" stroke="midnightblue" points="83.0858,-12.0001 73.0858,-15.5 83.0858,-19.0001 83.0858,-12.0001"/>
</g>
<!-- Node1 -->
<g id="node3" class="node"><title>Node1</title>
<g id="a_node3"><a xlink:href="d6/d7e/classIGLib_1_1Core_1_1CapturedVar.html" target="_top" xlink:title="Captures the declared type of the specified entity, its value at the time of capture,...">
<polygon fill="white" stroke="black" points="267,-0.5 267,-30.5 386,-30.5 386,-0.5 267,-0.5"/>
<text text-anchor="start" x="275" y="-18.5" font-family="Helvetica,sans-Serif" font-size="10.00">IGLib.Core.CapturedVar</text>
<text text-anchor="middle" x="326.5" y="-7.5" font-family="Helvetica,sans-Serif" font-size="10.00">&lt; DeclaredType &gt;</text>
</a>
</g>
</g>
<!-- Node0&#45;&gt;Node1 -->
<g id="edge2" class="edge"><title>Node0&#45;&gt;Node1</title>
<path fill="none" stroke="midnightblue" d="M241.426,-15.5C249.896,-15.5 258.477,-15.5 266.756,-15.5"/>
<polygon fill="midnightblue" stroke="midnightblue" points="241.176,-12.0001 231.176,-15.5 241.176,-19.0001 241.176,-12.0001"/>
</g>
</g>
</svg>
