<?xml version="1.0" encoding="UTF-8" standalone="no"?>
<!DOCTYPE svg PUBLIC "-//W3C//DTD SVG 1.1//EN"
 "http://www.w3.org/Graphics/SVG/1.1/DTD/svg11.dtd">
<!-- Generated by graphviz version 2.38.0 (20140413.2041)
 -->
<!-- Title: Graphical Class Hierarchy Pages: 1 -->
<svg width="495pt" height="230pt"
 viewBox="0.00 0.00 495.00 229.50" xmlns="http://www.w3.org/2000/svg" xmlns:xlink="http://www.w3.org/1999/xlink">
<g id="graph0" class="graph" transform="scale(1 1) rotate(0) translate(4 225.5)">
<title>Graphical Class Hierarchy</title>
<polygon fill="white" stroke="none" points="-4,4 -4,-225.5 491,-225.5 491,4 -4,4"/>
<!-- Node0 -->
<g id="node1" class="node"><title>Node0</title>
<g id="a_node1"><a xlink:href="d3/d1a/classIG_1_1Gr_1_1GraphicPrimitive.html" target="_top" xlink:title="Abstract base class for all graphic primitives such as lines, facets, etc.">
<polygon fill="white" stroke="black" points="0,-77 0,-96 113,-96 113,-77 0,-77"/>
<text text-anchor="middle" x="56.5" y="-84" font-family="Helvetica,sans-Serif" font-size="10.00">IG.Gr.GraphicPrimitive</text>
</a>
</g>
</g>
<!-- Node1 -->
<g id="node2" class="node"><title>Node1</title>
<g id="a_node2"><a xlink:href="df/db0/classIG_1_1Gr_1_1GraphicPrimitiveSimple.html" target="_top" xlink:title="GraphicPrimitive that has a protected Coordinates[] array.">
<polygon fill="white" stroke="black" points="149,-107 149,-126 292,-126 292,-107 149,-107"/>
<text text-anchor="middle" x="220.5" y="-114" font-family="Helvetica,sans-Serif" font-size="10.00">IG.Gr.GraphicPrimitiveSimple</text>
</a>
</g>
</g>
<!-- Node0&#45;&gt;Node1 -->
<g id="edge1" class="edge"><title>Node0&#45;&gt;Node1</title>
<path fill="none" stroke="midnightblue" d="M119.086,-97.9049C135.226,-100.894 152.459,-104.085 168.01,-106.965"/>
<polygon fill="midnightblue" stroke="midnightblue" points="119.673,-94.4542 109.203,-96.0747 118.399,-101.337 119.673,-94.4542"/>
</g>
<!-- Node7 -->
<g id="node8" class="node"><title>Node7</title>
<g id="a_node8"><a xlink:href="d2/da6/classIG_1_1Gr_1_1SurfaceGridPrimitive.html" target="_top" xlink:title=" ">
<polygon fill="white" stroke="black" points="155,-47 155,-66 286,-66 286,-47 155,-47"/>
<text text-anchor="middle" x="220.5" y="-54" font-family="Helvetica,sans-Serif" font-size="10.00">IG.Gr.SurfaceGridPrimitive</text>
</a>
</g>
</g>
<!-- Node0&#45;&gt;Node7 -->
<g id="edge7" class="edge"><title>Node0&#45;&gt;Node7</title>
<path fill="none" stroke="midnightblue" d="M119.086,-75.0951C135.226,-72.1063 152.459,-68.9151 168.01,-66.0352"/>
<polygon fill="midnightblue" stroke="midnightblue" points="118.399,-71.6629 109.203,-76.9253 119.673,-78.5458 118.399,-71.6629"/>
</g>
<!-- Node2 -->
<g id="node3" class="node"><title>Node2</title>
<g id="a_node3"><a xlink:href="df/d95/classIG_1_1Gr_1_1LinePrimitive.html" target="_top" xlink:title=" ">
<polygon fill="white" stroke="black" points="358.5,-202 358.5,-221 456.5,-221 456.5,-202 358.5,-202"/>
<text text-anchor="middle" x="407.5" y="-209" font-family="Helvetica,sans-Serif" font-size="10.00">IG.Gr.LinePrimitive</text>
</a>
</g>
</g>
<!-- Node1&#45;&gt;Node2 -->
<g id="edge2" class="edge"><title>Node1&#45;&gt;Node2</title>
<path fill="none" stroke="midnightblue" d="M239.889,-133.011C260.096,-150.304 294.195,-177.052 328,-192.5 337.438,-196.813 347.978,-200.22 358.196,-202.884"/>
<polygon fill="midnightblue" stroke="midnightblue" points="241.958,-130.172 232.12,-126.24 237.359,-135.449 241.958,-130.172"/>
</g>
<!-- Node3 -->
<g id="node4" class="node"><title>Node3</title>
<g id="a_node4"><a xlink:href="d1/da1/classIG_1_1Gr_1_1PointPrimitive.html" target="_top" xlink:title=" ">
<polygon fill="white" stroke="black" points="356.5,-164 356.5,-183 458.5,-183 458.5,-164 356.5,-164"/>
<text text-anchor="middle" x="407.5" y="-171" font-family="Helvetica,sans-Serif" font-size="10.00">IG.Gr.PointPrimitive</text>
</a>
</g>
</g>
<!-- Node1&#45;&gt;Node3 -->
<g id="edge3" class="edge"><title>Node1&#45;&gt;Node3</title>
<path fill="none" stroke="midnightblue" d="M255.842,-129.791C276.562,-137.55 303.59,-147.213 328,-154.5 339.421,-157.909 351.912,-161.149 363.503,-163.956"/>
<polygon fill="midnightblue" stroke="midnightblue" points="256.808,-126.415 246.217,-126.155 254.334,-132.963 256.808,-126.415"/>
</g>
<!-- Node4 -->
<g id="node5" class="node"><title>Node4</title>
<g id="a_node5"><a xlink:href="d4/d10/classIG_1_1Gr_1_1QuadriLateralFacePrimitive.html" target="_top" xlink:title=" ">
<polygon fill="white" stroke="black" points="328,-126 328,-145 487,-145 487,-126 328,-126"/>
<text text-anchor="middle" x="407.5" y="-133" font-family="Helvetica,sans-Serif" font-size="10.00">IG.Gr.QuadriLateralFacePrimitive</text>
</a>
</g>
</g>
<!-- Node1&#45;&gt;Node4 -->
<g id="edge4" class="edge"><title>Node1&#45;&gt;Node4</title>
<path fill="none" stroke="midnightblue" d="M302.419,-124.811C310.839,-125.675 319.389,-126.554 327.785,-127.416"/>
<polygon fill="midnightblue" stroke="midnightblue" points="302.538,-121.304 292.232,-123.764 301.823,-128.268 302.538,-121.304"/>
</g>
<!-- Node5 -->
<g id="node6" class="node"><title>Node5</title>
<g id="a_node6"><a xlink:href="d5/d30/classIG_1_1Gr_1_1TextPrimitive.html" target="_top" xlink:title=" ">
<polygon fill="white" stroke="black" points="358.5,-88 358.5,-107 456.5,-107 456.5,-88 358.5,-88"/>
<text text-anchor="middle" x="407.5" y="-95" font-family="Helvetica,sans-Serif" font-size="10.00">IG.Gr.TextPrimitive</text>
</a>
</g>
</g>
<!-- Node1&#45;&gt;Node5 -->
<g id="edge5" class="edge"><title>Node1&#45;&gt;Node5</title>
<path fill="none" stroke="midnightblue" d="M302.188,-108.213C321.38,-106.242 341.262,-104.2 358.456,-102.434"/>
<polygon fill="midnightblue" stroke="midnightblue" points="301.823,-104.732 292.232,-109.236 302.538,-111.696 301.823,-104.732"/>
</g>
<!-- Node6 -->
<g id="node7" class="node"><title>Node6</title>
<g id="a_node7"><a xlink:href="d7/d61/classIG_1_1Gr_1_1TrilateralFacePrimitive.html" target="_top" xlink:title=" ">
<polygon fill="white" stroke="black" points="338.5,-50 338.5,-69 476.5,-69 476.5,-50 338.5,-50"/>
<text text-anchor="middle" x="407.5" y="-57" font-family="Helvetica,sans-Serif" font-size="10.00">IG.Gr.TrilateralFacePrimitive</text>
</a>
</g>
</g>
<!-- Node1&#45;&gt;Node6 -->
<g id="edge6" class="edge"><title>Node1&#45;&gt;Node6</title>
<path fill="none" stroke="midnightblue" d="M255.842,-103.209C276.562,-95.4503 303.59,-85.787 328,-78.5 339.421,-75.0907 351.912,-71.8507 363.503,-69.0435"/>
<polygon fill="midnightblue" stroke="midnightblue" points="254.334,-100.037 246.217,-106.845 256.808,-106.585 254.334,-100.037"/>
</g>
<!-- Node8 -->
<g id="node9" class="node"><title>Node8</title>
<g id="a_node9"><a xlink:href="d8/d07/classIG_1_1Gr_1_1StructuredSurfaceGridPrimitive.html" target="_top" xlink:title=" ">
<polygon fill="white" stroke="black" points="338,-0.5 338,-30.5 477,-30.5 477,-0.5 338,-0.5"/>
<text text-anchor="start" x="346" y="-18.5" font-family="Helvetica,sans-Serif" font-size="10.00">IG.Gr.StructuredSurfaceGrid</text>
<text text-anchor="middle" x="407.5" y="-7.5" font-family="Helvetica,sans-Serif" font-size="10.00">Primitive</text>
</a>
</g>
</g>
<!-- Node7&#45;&gt;Node8 -->
<g id="edge8" class="edge"><title>Node7&#45;&gt;Node8</title>
<path fill="none" stroke="midnightblue" d="M274.251,-44.8093C294.234,-40.3806 317.273,-35.2746 338.467,-30.5777"/>
<polygon fill="midnightblue" stroke="midnightblue" points="273.413,-41.4098 264.408,-46.9907 274.928,-48.244 273.413,-41.4098"/>
</g>
</g>
</svg>
