<?xml version="1.0" encoding="UTF-8" standalone="no"?>
<!DOCTYPE svg PUBLIC "-//W3C//DTD SVG 1.1//EN"
 "http://www.w3.org/Graphics/SVG/1.1/DTD/svg11.dtd">
<!-- Generated by graphviz version 2.38.0 (20140413.2041)
 -->
<!-- Title: Graphical Class Hierarchy Pages: 1 -->
<svg width="272pt" height="50pt"
 viewBox="0.00 0.00 272.00 50.00" xmlns="http://www.w3.org/2000/svg" xmlns:xlink="http://www.w3.org/1999/xlink">
<g id="graph0" class="graph" transform="scale(1 1) rotate(0) translate(4 46)">
<title>Graphical Class Hierarchy</title>
<polygon fill="white" stroke="none" points="-4,4 -4,-46 268,-46 268,4 -4,4"/>
<!-- Node772 -->
<g id="node1" class="node"><title>Node772</title>
<g id="a_node1"><a xlink:title=" ">
<polygon fill="white" stroke="#bfbfbf" points="0,-11.5 0,-30.5 69,-30.5 69,-11.5 0,-11.5"/>
<text text-anchor="middle" x="34.5" y="-18.5" font-family="Helvetica,sans-Serif" font-size="10.00">IEnumerator</text>
</a>
</g>
</g>
<!-- Node0 -->
<g id="node2" class="node"><title>Node0</title>
<g id="a_node2"><a xlink:href="da/d03/classLearnCs_1_1Lib_1_1VectorBase_1_1VectorElementEnumerator.html" target="_top" xlink:title=" ">
<polygon fill="white" stroke="black" points="105,-0.5 105,-41.5 264,-41.5 264,-0.5 105,-0.5"/>
<text text-anchor="start" x="113" y="-29.5" font-family="Helvetica,sans-Serif" font-size="10.00">LearnCs.Lib.VectorBase</text>
<text text-anchor="start" x="113" y="-18.5" font-family="Helvetica,sans-Serif" font-size="10.00">&lt; ElementType &gt;.VectorElement</text>
<text text-anchor="middle" x="184.5" y="-7.5" font-family="Helvetica,sans-Serif" font-size="10.00">Enumerator</text>
</a>
</g>
</g>
<!-- Node772&#45;&gt;Node0 -->
<g id="edge1" class="edge"><title>Node772&#45;&gt;Node0</title>
<path fill="none" stroke="midnightblue" d="M79.3216,-21C87.3943,-21 96.0452,-21 104.784,-21"/>
<polygon fill="midnightblue" stroke="midnightblue" points="79.0835,-17.5001 69.0835,-21 79.0835,-24.5001 79.0835,-17.5001"/>
</g>
</g>
</svg>
