<?xml version="1.0" encoding="UTF-8" standalone="no"?>
<!DOCTYPE svg PUBLIC "-//W3C//DTD SVG 1.1//EN"
 "http://www.w3.org/Graphics/SVG/1.1/DTD/svg11.dtd">
<!-- Generated by graphviz version 2.38.0 (20140413.2041)
 -->
<!-- Title: Graphical Class Hierarchy Pages: 1 -->
<svg width="548pt" height="72pt"
 viewBox="0.00 0.00 548.00 72.00" xmlns="http://www.w3.org/2000/svg" xmlns:xlink="http://www.w3.org/1999/xlink">
<g id="graph0" class="graph" transform="scale(1 1) rotate(0) translate(4 68)">
<title>Graphical Class Hierarchy</title>
<polygon fill="white" stroke="none" points="-4,4 -4,-68 544,-68 544,4 -4,4"/>
<!-- Node0 -->
<g id="node1" class="node"><title>Node0</title>
<g id="a_node1"><a xlink:href="dd/db2/classIG_1_1Num_1_1StructuredField2d.html" target="_top" xlink:title=" ">
<polygon fill="white" stroke="black" points="0,-17 0,-47 129,-47 129,-17 0,-17"/>
<text text-anchor="start" x="8" y="-35" font-family="Helvetica,sans-Serif" font-size="10.00">IG.Num.StructuredField2d</text>
<text text-anchor="middle" x="64.5" y="-24" font-family="Helvetica,sans-Serif" font-size="10.00">&lt; TCoord &gt;</text>
</a>
</g>
</g>
<!-- Node1 -->
<g id="node2" class="node"><title>Node1</title>
<g id="a_node2"><a xlink:href="da/d85/classIG_1_1Num_1_1StructuredMeshGeometry2d.html" target="_top" xlink:title="Structured mesh geometry in 2 dimensions.">
<polygon fill="white" stroke="black" points="165,-17 165,-47 340,-47 340,-17 165,-17"/>
<text text-anchor="start" x="173" y="-35" font-family="Helvetica,sans-Serif" font-size="10.00">IG.Num.StructuredMeshGeometry2d</text>
<text text-anchor="middle" x="252.5" y="-24" font-family="Helvetica,sans-Serif" font-size="10.00">&lt; TCoord &gt;</text>
</a>
</g>
</g>
<!-- Node0&#45;&gt;Node1 -->
<g id="edge1" class="edge"><title>Node0&#45;&gt;Node1</title>
<path fill="none" stroke="midnightblue" d="M139.337,-32C147.71,-32 156.3,-32 164.818,-32"/>
<polygon fill="midnightblue" stroke="midnightblue" points="139.25,-28.5001 129.25,-32 139.25,-35.5001 139.25,-28.5001"/>
</g>
<!-- Node2 -->
<g id="node3" class="node"><title>Node2</title>
<g id="a_node3"><a xlink:href="dc/d27/classIG_1_1Num_1_1StructuredMesh2d.html" target="_top" xlink:title="Generic 2D structured mesh with collections of named scalar, vector, tensor and index fields.">
<polygon fill="white" stroke="black" points="376,-0.5 376,-63.5 540,-63.5 540,-0.5 376,-0.5"/>
<text text-anchor="start" x="384" y="-51.5" font-family="Helvetica,sans-Serif" font-size="10.00">IG.Num.StructuredMesh2d</text>
<text text-anchor="start" x="384" y="-40.5" font-family="Helvetica,sans-Serif" font-size="10.00">&lt; TCoord, TIndexField,</text>
<text text-anchor="start" x="384" y="-29.5" font-family="Helvetica,sans-Serif" font-size="10.00"> TIndex, TScalarField,</text>
<text text-anchor="start" x="384" y="-18.5" font-family="Helvetica,sans-Serif" font-size="10.00"> TScalar, TVectorField,</text>
<text text-anchor="middle" x="458" y="-7.5" font-family="Helvetica,sans-Serif" font-size="10.00"> TVector, TTensorField, TTensor &gt;</text>
</a>
</g>
</g>
<!-- Node1&#45;&gt;Node2 -->
<g id="edge2" class="edge"><title>Node1&#45;&gt;Node2</title>
<path fill="none" stroke="midnightblue" d="M350.19,-32C358.819,-32 367.497,-32 375.974,-32"/>
<polygon fill="midnightblue" stroke="midnightblue" points="350.097,-28.5001 340.097,-32 350.097,-35.5001 350.097,-28.5001"/>
</g>
</g>
</svg>
