<?xml version="1.0" encoding="UTF-8" standalone="no"?>
<!DOCTYPE svg PUBLIC "-//W3C//DTD SVG 1.1//EN"
 "http://www.w3.org/Graphics/SVG/1.1/DTD/svg11.dtd">
<!-- Generated by graphviz version 2.38.0 (20140413.2041)
 -->
<!-- Title: Graphical Class Hierarchy Pages: 1 -->
<svg width="783pt" height="88pt"
 viewBox="0.00 0.00 783.00 88.00" xmlns="http://www.w3.org/2000/svg" xmlns:xlink="http://www.w3.org/1999/xlink">
<g id="graph0" class="graph" transform="scale(1 1) rotate(0) translate(4 84)">
<title>Graphical Class Hierarchy</title>
<polygon fill="white" stroke="none" points="-4,4 -4,-84 779,-84 779,4 -4,4"/>
<!-- Node0 -->
<g id="node1" class="node"><title>Node0</title>
<g id="a_node1"><a xlink:href="d9/d0f/classIGLib_1_1Core_1_1Tests_1_1TypeConverterTestsBase.html" target="_top" xlink:title=" ">
<polygon fill="white" stroke="black" points="0,-24.5 0,-54.5 191,-54.5 191,-24.5 0,-24.5"/>
<text text-anchor="start" x="8" y="-42.5" font-family="Helvetica,sans-Serif" font-size="10.00">IGLib.Core.Tests.TypeConverter</text>
<text text-anchor="middle" x="95.5" y="-31.5" font-family="Helvetica,sans-Serif" font-size="10.00">TestsBase&lt; BasicTypeConverterTests &gt;</text>
</a>
</g>
</g>
<!-- Node1 -->
<g id="node2" class="node"><title>Node1</title>
<g id="a_node2"><a xlink:href="d9/d24/classIGLib_1_1Core_1_1Tests_1_1BasicTypeConverterTests.html" target="_top" xlink:title="Tests of the basic type converter (BasicTypeConverter, implementation of the ITypeConverter interface...">
<polygon fill="white" stroke="black" points="227,-24.5 227,-54.5 365,-54.5 365,-24.5 227,-24.5"/>
<text text-anchor="start" x="235" y="-42.5" font-family="Helvetica,sans-Serif" font-size="10.00">IGLib.Core.Tests.BasicType</text>
<text text-anchor="middle" x="296" y="-31.5" font-family="Helvetica,sans-Serif" font-size="10.00">ConverterTests</text>
</a>
</g>
</g>
<!-- Node0&#45;&gt;Node1 -->
<g id="edge1" class="edge"><title>Node0&#45;&gt;Node1</title>
<path fill="none" stroke="midnightblue" d="M201.3,-39.5C209.98,-39.5 218.604,-39.5 226.905,-39.5"/>
<polygon fill="midnightblue" stroke="midnightblue" points="201.099,-36.0001 191.099,-39.5 201.099,-43.0001 201.099,-36.0001"/>
</g>
<!-- Node2 -->
<g id="node3" class="node"><title>Node2</title>
<g id="a_node3"><a xlink:href="d3/dd9/classIGLib_1_1Core_1_1Tests_1_1CollectionTypeConverterTests.html" target="_top" xlink:title="Tests of the basic type converter (BasicTypeConverter, implementation of the ITypeConverter interface...">
<polygon fill="white" stroke="black" points="435,-49.5 435,-79.5 570,-79.5 570,-49.5 435,-49.5"/>
<text text-anchor="start" x="443" y="-67.5" font-family="Helvetica,sans-Serif" font-size="10.00">IGLib.Core.Tests.Collection</text>
<text text-anchor="middle" x="502.5" y="-56.5" font-family="Helvetica,sans-Serif" font-size="10.00">TypeConverterTests</text>
</a>
</g>
</g>
<!-- Node1&#45;&gt;Node2 -->
<g id="edge2" class="edge"><title>Node1&#45;&gt;Node2</title>
<path fill="none" stroke="midnightblue" d="M375.229,-49.0634C394.856,-51.4628 415.735,-54.0152 434.745,-56.3392"/>
<polygon fill="midnightblue" stroke="midnightblue" points="375.446,-45.564 365.096,-47.8246 374.597,-52.5123 375.446,-45.564"/>
</g>
<!-- Node4 -->
<g id="node5" class="node"><title>Node4</title>
<g id="a_node5"><a xlink:href="dd/d47/classIGLib_1_1Core_1_1Tests_1_1CollectionTypeConverterTests__DifferentElementTests.html" target="_top" xlink:title="Tests of the basic type converter (BasicTypeConverter, implementation of the ITypeConverter interface...">
<polygon fill="white" stroke="black" points="401,-0.5 401,-30.5 604,-30.5 604,-0.5 401,-0.5"/>
<text text-anchor="start" x="409" y="-18.5" font-family="Helvetica,sans-Serif" font-size="10.00">IGLib.Core.Tests.Collection</text>
<text text-anchor="middle" x="502.5" y="-7.5" font-family="Helvetica,sans-Serif" font-size="10.00">TypeConverterTests_DifferentElementTests</text>
</a>
</g>
</g>
<!-- Node1&#45;&gt;Node4 -->
<g id="edge4" class="edge"><title>Node1&#45;&gt;Node4</title>
<path fill="none" stroke="midnightblue" d="M375.217,-30.3204C383.622,-29.334 392.257,-28.3207 400.876,-27.3091"/>
<polygon fill="midnightblue" stroke="midnightblue" points="374.619,-26.8665 365.096,-31.5083 375.435,-33.8188 374.619,-26.8665"/>
</g>
<!-- Node3 -->
<g id="node4" class="node"><title>Node3</title>
<g id="a_node4"><a xlink:href="d2/deb/classIGLib_1_1Core_1_1Tests_1_1ReflectionTypeConverterTests.html" target="_top" xlink:title="Tests of the basic type converter (BasicTypeConverter, implementation of the ITypeConverter interface...">
<polygon fill="white" stroke="black" points="640,-49.5 640,-79.5 775,-79.5 775,-49.5 640,-49.5"/>
<text text-anchor="start" x="648" y="-67.5" font-family="Helvetica,sans-Serif" font-size="10.00">IGLib.Core.Tests.Reflection</text>
<text text-anchor="middle" x="707.5" y="-56.5" font-family="Helvetica,sans-Serif" font-size="10.00">TypeConverterTests</text>
</a>
</g>
</g>
<!-- Node2&#45;&gt;Node3 -->
<g id="edge3" class="edge"><title>Node2&#45;&gt;Node3</title>
<path fill="none" stroke="midnightblue" d="M580.334,-64.5C599.875,-64.5 620.714,-64.5 639.709,-64.5"/>
<polygon fill="midnightblue" stroke="midnightblue" points="580.251,-61.0001 570.251,-64.5 580.251,-68.0001 580.251,-61.0001"/>
</g>
</g>
</svg>
