<?xml version="1.0" encoding="UTF-8" standalone="no"?>
<!DOCTYPE svg PUBLIC "-//W3C//DTD SVG 1.1//EN"
 "http://www.w3.org/Graphics/SVG/1.1/DTD/svg11.dtd">
<!-- Generated by graphviz version 2.38.0 (20140413.2041)
 -->
<!-- Title: Graphical Class Hierarchy Pages: 1 -->
<svg width="349pt" height="61pt"
 viewBox="0.00 0.00 349.00 61.00" xmlns="http://www.w3.org/2000/svg" xmlns:xlink="http://www.w3.org/1999/xlink">
<g id="graph0" class="graph" transform="scale(1 1) rotate(0) translate(4 57)">
<title>Graphical Class Hierarchy</title>
<polygon fill="white" stroke="none" points="-4,4 -4,-57 345,-57 345,4 -4,4"/>
<!-- Node0 -->
<g id="node1" class="node"><title>Node0</title>
<g id="a_node1"><a xlink:href="dc/d6a/classIG_1_1Num_1_1VectorFunctionScriptControllerBase.html" target="_top" xlink:title=" ">
<polygon fill="white" stroke="black" points="0,-0.5 0,-52.5 161,-52.5 161,-0.5 0,-0.5"/>
<text text-anchor="start" x="8" y="-40.5" font-family="Helvetica,sans-Serif" font-size="10.00">IG.Num.VectorFunctionScript</text>
<text text-anchor="start" x="8" y="-29.5" font-family="Helvetica,sans-Serif" font-size="10.00">ControllerBase&lt; IVectorFunction,</text>
<text text-anchor="start" x="8" y="-18.5" font-family="Helvetica,sans-Serif" font-size="10.00"> ScalarFunctionScriptController,</text>
<text text-anchor="middle" x="80.5" y="-7.5" font-family="Helvetica,sans-Serif" font-size="10.00"> IScalarFunction &gt;</text>
</a>
</g>
</g>
<!-- Node1 -->
<g id="node2" class="node"><title>Node1</title>
<g id="a_node2"><a xlink:href="de/d3f/classIG_1_1Num_1_1VectorFunctionScriptController.html" target="_top" xlink:title="Class for building vector functions from scripts, used by GUI elements.">
<polygon fill="white" stroke="black" points="197,-11.5 197,-41.5 341,-41.5 341,-11.5 197,-11.5"/>
<text text-anchor="start" x="205" y="-29.5" font-family="Helvetica,sans-Serif" font-size="10.00">IG.Num.VectorFunctionScript</text>
<text text-anchor="middle" x="269" y="-18.5" font-family="Helvetica,sans-Serif" font-size="10.00">Controller</text>
</a>
</g>
</g>
<!-- Node0&#45;&gt;Node1 -->
<g id="edge1" class="edge"><title>Node0&#45;&gt;Node1</title>
<path fill="none" stroke="midnightblue" d="M171.212,-26.5C179.828,-26.5 188.484,-26.5 196.885,-26.5"/>
<polygon fill="midnightblue" stroke="midnightblue" points="171.134,-23.0001 161.134,-26.5 171.134,-30.0001 171.134,-23.0001"/>
</g>
</g>
</svg>
