<?xml version="1.0" encoding="UTF-8" standalone="no"?>
<!DOCTYPE svg PUBLIC "-//W3C//DTD SVG 1.1//EN"
 "http://www.w3.org/Graphics/SVG/1.1/DTD/svg11.dtd">
<!-- Generated by graphviz version 2.38.0 (20140413.2041)
 -->
<!-- Title: Graphical Class Hierarchy Pages: 1 -->
<svg width="557pt" height="50pt"
 viewBox="0.00 0.00 557.00 50.00" xmlns="http://www.w3.org/2000/svg" xmlns:xlink="http://www.w3.org/1999/xlink">
<g id="graph0" class="graph" transform="scale(1 1) rotate(0) translate(4 46)">
<title>Graphical Class Hierarchy</title>
<polygon fill="white" stroke="none" points="-4,4 -4,-46 553,-46 553,4 -4,4"/>
<!-- Node0 -->
<g id="node1" class="node"><title>Node0</title>
<g id="a_node1"><a xlink:href="d7/dd8/classIG_1_1Lib_1_1SerializationDtoBase.html" target="_top" xlink:title=" ">
<polygon fill="white" stroke="black" points="0,-0.5 0,-41.5 136,-41.5 136,-0.5 0,-0.5"/>
<text text-anchor="start" x="8" y="-29.5" font-family="Helvetica,sans-Serif" font-size="10.00">IG.Lib.SerializationDtoBase</text>
<text text-anchor="start" x="8" y="-18.5" font-family="Helvetica,sans-Serif" font-size="10.00">&lt; VectorFunctionResults,</text>
<text text-anchor="middle" x="68" y="-7.5" font-family="Helvetica,sans-Serif" font-size="10.00"> VectorFunctionResults &gt;</text>
</a>
</g>
</g>
<!-- Node1 -->
<g id="node2" class="node"><title>Node1</title>
<g id="a_node2"><a xlink:href="d6/d7d/classIG_1_1Num_1_1VectorFunctionRequestDTO.html" target="_top" xlink:title="DTO (Data Transfer Objects) for storing contents of vector function evaluation request.">
<polygon fill="white" stroke="black" points="172,-11.5 172,-30.5 346,-30.5 346,-11.5 172,-11.5"/>
<text text-anchor="middle" x="259" y="-18.5" font-family="Helvetica,sans-Serif" font-size="10.00">IG.Num.VectorFunctionRequestDTO</text>
</a>
</g>
</g>
<!-- Node0&#45;&gt;Node1 -->
<g id="edge1" class="edge"><title>Node0&#45;&gt;Node1</title>
<path fill="none" stroke="midnightblue" d="M146.327,-21C154.748,-21 163.358,-21 171.876,-21"/>
<polygon fill="midnightblue" stroke="midnightblue" points="146.167,-17.5001 136.166,-21 146.166,-24.5001 146.167,-17.5001"/>
</g>
<!-- Node2 -->
<g id="node3" class="node"><title>Node2</title>
<g id="a_node3"><a xlink:href="d3/d0b/classIG_1_1Num_1_1VectorFunctionResultsDto.html" target="_top" xlink:title="DTO (Data Transfer Objects) for storing contents of vector function results.">
<polygon fill="white" stroke="black" points="382,-11.5 382,-30.5 549,-30.5 549,-11.5 382,-11.5"/>
<text text-anchor="middle" x="465.5" y="-18.5" font-family="Helvetica,sans-Serif" font-size="10.00">IG.Num.VectorFunctionResultsDto</text>
</a>
</g>
</g>
<!-- Node1&#45;&gt;Node2 -->
<g id="edge2" class="edge"><title>Node1&#45;&gt;Node2</title>
<path fill="none" stroke="midnightblue" d="M356.136,-21C364.691,-21 373.303,-21 381.732,-21"/>
<polygon fill="midnightblue" stroke="midnightblue" points="356.134,-17.5001 346.134,-21 356.134,-24.5001 356.134,-17.5001"/>
</g>
</g>
</svg>
