<?xml version="1.0" encoding="UTF-8" standalone="no"?>
<!DOCTYPE svg PUBLIC "-//W3C//DTD SVG 1.1//EN"
 "http://www.w3.org/Graphics/SVG/1.1/DTD/svg11.dtd">
<!-- Generated by graphviz version 2.38.0 (20140413.2041)
 -->
<!-- Title: Graphical Class Hierarchy Pages: 1 -->
<svg width="516pt" height="39pt"
 viewBox="0.00 0.00 516.00 39.00" xmlns="http://www.w3.org/2000/svg" xmlns:xlink="http://www.w3.org/1999/xlink">
<g id="graph0" class="graph" transform="scale(1 1) rotate(0) translate(4 35)">
<title>Graphical Class Hierarchy</title>
<polygon fill="white" stroke="none" points="-4,4 -4,-35 512,-35 512,4 -4,4"/>
<!-- Node112 -->
<g id="node1" class="node"><title>Node112</title>
<g id="a_node1"><a xlink:href="d5/d2f/classIG_1_1Num_1_1StructuredField3d.html" target="_top" xlink:title=" ">
<polygon fill="white" stroke="black" points="0,-0.5 0,-30.5 129,-30.5 129,-0.5 0,-0.5"/>
<text text-anchor="start" x="8" y="-18.5" font-family="Helvetica,sans-Serif" font-size="10.00">IG.Num.StructuredField3d</text>
<text text-anchor="middle" x="64.5" y="-7.5" font-family="Helvetica,sans-Serif" font-size="10.00">&lt; TCoord &gt;</text>
</a>
</g>
</g>
<!-- Node113 -->
<g id="node2" class="node"><title>Node113</title>
<g id="a_node2"><a xlink:href="dd/d6f/classIG_1_1Num_1_1StructuredMeshGeometry3d.html" target="_top" xlink:title="Structured mesh geometry in 3 dimensions.">
<polygon fill="white" stroke="black" points="165,-0.5 165,-30.5 340,-30.5 340,-0.5 165,-0.5"/>
<text text-anchor="start" x="173" y="-18.5" font-family="Helvetica,sans-Serif" font-size="10.00">IG.Num.StructuredMeshGeometry3d</text>
<text text-anchor="middle" x="252.5" y="-7.5" font-family="Helvetica,sans-Serif" font-size="10.00">&lt; TCoord &gt;</text>
</a>
</g>
</g>
<!-- Node112&#45;&gt;Node113 -->
<g id="edge1" class="edge"><title>Node112&#45;&gt;Node113</title>
<path fill="none" stroke="midnightblue" d="M139.337,-15.5C147.71,-15.5 156.3,-15.5 164.818,-15.5"/>
<polygon fill="midnightblue" stroke="midnightblue" points="139.25,-12.0001 129.25,-15.5 139.25,-19.0001 139.25,-12.0001"/>
</g>
<!-- Node0 -->
<g id="node3" class="node"><title>Node0</title>
<g id="a_node3"><a xlink:href="da/d6b/classIG_1_1Num_1_1StructuredMesh3d.html" target="_top" xlink:title="Structured mesh in 3D.">
<polygon fill="white" stroke="black" points="376,-6 376,-25 508,-25 508,-6 376,-6"/>
<text text-anchor="middle" x="442" y="-13" font-family="Helvetica,sans-Serif" font-size="10.00">IG.Num.StructuredMesh3d</text>
</a>
</g>
</g>
<!-- Node113&#45;&gt;Node0 -->
<g id="edge2" class="edge"><title>Node113&#45;&gt;Node0</title>
<path fill="none" stroke="midnightblue" d="M350.255,-15.5C358.894,-15.5 367.499,-15.5 375.776,-15.5"/>
<polygon fill="midnightblue" stroke="midnightblue" points="350.115,-12.0001 340.115,-15.5 350.115,-19.0001 350.115,-12.0001"/>
</g>
</g>
</svg>
