<?xml version="1.0" encoding="UTF-8" standalone="no"?>
<!DOCTYPE svg PUBLIC "-//W3C//DTD SVG 1.1//EN"
 "http://www.w3.org/Graphics/SVG/1.1/DTD/svg11.dtd">
<!-- Generated by graphviz version 2.38.0 (20140413.2041)
 -->
<!-- Title: Graphical Class Hierarchy Pages: 1 -->
<svg width="273pt" height="88pt"
 viewBox="0.00 0.00 273.00 88.00" xmlns="http://www.w3.org/2000/svg" xmlns:xlink="http://www.w3.org/1999/xlink">
<g id="graph0" class="graph" transform="scale(1 1) rotate(0) translate(4 84)">
<title>Graphical Class Hierarchy</title>
<polygon fill="white" stroke="none" points="-4,4 -4,-84 269,-84 269,4 -4,4"/>
<!-- Node593 -->
<g id="node1" class="node"><title>Node593</title>
<g id="a_node1"><a xlink:title=" ">
<polygon fill="white" stroke="#bfbfbf" points="0,-30 0,-49 83,-49 83,-30 0,-30"/>
<text text-anchor="middle" x="41.5" y="-37" font-family="Helvetica,sans-Serif" font-size="10.00">ILoggerProvider</text>
</a>
</g>
</g>
<!-- Node0 -->
<g id="node2" class="node"><title>Node0</title>
<g id="a_node2"><a xlink:href="dc/ded/classIG_1_1SandboxTests_1_1XUnitLoggerProvider.html" target="_top" xlink:title=" ">
<polygon fill="white" stroke="black" points="119,-49.5 119,-79.5 265,-79.5 265,-49.5 119,-49.5"/>
<text text-anchor="start" x="127" y="-67.5" font-family="Helvetica,sans-Serif" font-size="10.00">IG.SandboxTests.XUnitLogger</text>
<text text-anchor="middle" x="192" y="-56.5" font-family="Helvetica,sans-Serif" font-size="10.00">Provider</text>
</a>
</g>
</g>
<!-- Node593&#45;&gt;Node0 -->
<g id="edge1" class="edge"><title>Node593&#45;&gt;Node0</title>
<path fill="none" stroke="midnightblue" d="M92.9705,-47.9967C101.288,-49.3969 110.05,-50.8721 118.776,-52.341"/>
<polygon fill="midnightblue" stroke="midnightblue" points="93.5206,-44.5402 83.0783,-46.3314 92.3584,-51.443 93.5206,-44.5402"/>
</g>
<!-- Node595 -->
<g id="node3" class="node"><title>Node595</title>
<g id="a_node3"><a xlink:href="dc/d59/classIGLib_1_1Tests_1_1Base_1_1XUnitLoggerProvider.html" target="_top" xlink:title=" ">
<polygon fill="white" stroke="black" points="119,-0.5 119,-30.5 265,-30.5 265,-0.5 119,-0.5"/>
<text text-anchor="start" x="127" y="-18.5" font-family="Helvetica,sans-Serif" font-size="10.00">IGLib.Tests.Base.XUnitLogger</text>
<text text-anchor="middle" x="192" y="-7.5" font-family="Helvetica,sans-Serif" font-size="10.00">Provider</text>
</a>
</g>
</g>
<!-- Node593&#45;&gt;Node595 -->
<g id="edge2" class="edge"><title>Node593&#45;&gt;Node595</title>
<path fill="none" stroke="midnightblue" d="M92.9705,-31.3432C101.288,-29.9989 110.05,-28.5828 118.776,-27.1726"/>
<polygon fill="midnightblue" stroke="midnightblue" points="92.3917,-27.8912 83.0783,-32.9419 93.5086,-34.8015 92.3917,-27.8912"/>
</g>
</g>
</svg>
