<?xml version="1.0" encoding="UTF-8" standalone="no"?>
<!DOCTYPE svg PUBLIC "-//W3C//DTD SVG 1.1//EN"
 "http://www.w3.org/Graphics/SVG/1.1/DTD/svg11.dtd">
<!-- Generated by graphviz version 2.38.0 (20140413.2041)
 -->
<!-- Title: Graphical Class Hierarchy Pages: 1 -->
<svg width="463pt" height="47pt"
 viewBox="0.00 0.00 463.00 47.00" xmlns="http://www.w3.org/2000/svg" xmlns:xlink="http://www.w3.org/1999/xlink">
<g id="graph0" class="graph" transform="scale(1 1) rotate(0) translate(4 43)">
<title>Graphical Class Hierarchy</title>
<polygon fill="white" stroke="none" points="-4,4 -4,-43 459,-43 459,4 -4,4"/>
<!-- Node0 -->
<g id="node1" class="node"><title>Node0</title>
<g id="a_node1"><a xlink:href="d0/d9c/interfaceIG_1_1Lib_1_1ICharacterBufferReadOnly.html" target="_top" xlink:title="Interface for all implementations of read&#45;only character buffer. Classes that implement this interfac...">
<polygon fill="white" stroke="black" points="0,-19.5 0,-38.5 157,-38.5 157,-19.5 0,-19.5"/>
<text text-anchor="middle" x="78.5" y="-26.5" font-family="Helvetica,sans-Serif" font-size="10.00">IG.Lib.ICharacterBufferReadOnly</text>
</a>
</g>
</g>
<!-- Node1 -->
<g id="node2" class="node"><title>Node1</title>
<g id="a_node2"><a xlink:href="d8/def/classIG_1_1Lib_1_1CharacterBuffer.html" target="_top" xlink:title="CharacterBufferInterface wrapper for StringBilder.">
<polygon fill="white" stroke="black" points="343,-19.5 343,-38.5 455,-38.5 455,-19.5 343,-19.5"/>
<text text-anchor="middle" x="399" y="-26.5" font-family="Helvetica,sans-Serif" font-size="10.00">IG.Lib.CharacterBuffer</text>
</a>
</g>
</g>
<!-- Node0&#45;&gt;Node1 -->
<g id="edge1" class="edge"><title>Node0&#45;&gt;Node1</title>
<path fill="none" stroke="midnightblue" d="M167.297,-29C223.383,-29 294.387,-29 342.709,-29"/>
<polygon fill="midnightblue" stroke="midnightblue" points="167.007,-25.5001 157.007,-29 167.007,-32.5001 167.007,-25.5001"/>
</g>
<!-- Node2 -->
<g id="node3" class="node"><title>Node2</title>
<g id="a_node3"><a xlink:href="dc/d03/interfaceIG_1_1Lib_1_1ICharacterBuffer.html" target="_top" xlink:title="Interface for all implementations of read&#45;write character buffer. Classes that implement this interfa...">
<polygon fill="white" stroke="black" points="193,-0.5 193,-19.5 307,-19.5 307,-0.5 193,-0.5"/>
<text text-anchor="middle" x="250" y="-7.5" font-family="Helvetica,sans-Serif" font-size="10.00">IG.Lib.ICharacterBuffer</text>
</a>
</g>
</g>
<!-- Node0&#45;&gt;Node2 -->
<g id="edge2" class="edge"><title>Node0&#45;&gt;Node2</title>
<path fill="none" stroke="midnightblue" d="M167.461,-19.1401C176.114,-18.1702 184.721,-17.2053 192.923,-16.2859"/>
<polygon fill="midnightblue" stroke="midnightblue" points="166.853,-15.6862 157.305,-20.2785 167.632,-22.6427 166.853,-15.6862"/>
</g>
<!-- Node2&#45;&gt;Node1 -->
<g id="edge3" class="edge"><title>Node2&#45;&gt;Node1</title>
<path fill="none" stroke="midnightblue" d="M317.367,-18.5781C325.921,-19.6836 334.604,-20.806 342.949,-21.8846"/>
<polygon fill="midnightblue" stroke="midnightblue" points="317.78,-15.1024 307.414,-17.2916 316.882,-22.0446 317.78,-15.1024"/>
</g>
</g>
</svg>
