<?xml version="1.0" encoding="UTF-8" standalone="no"?>
<!DOCTYPE svg PUBLIC "-//W3C//DTD SVG 1.1//EN"
 "http://www.w3.org/Graphics/SVG/1.1/DTD/svg11.dtd">
<!-- Generated by graphviz version 2.38.0 (20140413.2041)
 -->
<!-- Title: Graphical Class Hierarchy Pages: 1 -->
<svg width="351pt" height="50pt"
 viewBox="0.00 0.00 351.00 50.00" xmlns="http://www.w3.org/2000/svg" xmlns:xlink="http://www.w3.org/1999/xlink">
<g id="graph0" class="graph" transform="scale(1 1) rotate(0) translate(4 46)">
<title>Graphical Class Hierarchy</title>
<polygon fill="white" stroke="none" points="-4,4 -4,-46 347,-46 347,4 -4,4"/>
<!-- Node0 -->
<g id="node1" class="node"><title>Node0</title>
<g id="a_node1"><a xlink:href="da/db9/classIG_1_1Neural_1_1MapNeuralImputOutputElementDefinitionDto.html" target="_top" xlink:title=" ">
<polygon fill="white" stroke="black" points="0,-0.5 0,-41.5 168,-41.5 168,-0.5 0,-0.5"/>
<text text-anchor="start" x="8" y="-29.5" font-family="Helvetica,sans-Serif" font-size="10.00">IG.Neural.MapNeuralImput</text>
<text text-anchor="start" x="8" y="-18.5" font-family="Helvetica,sans-Serif" font-size="10.00">OutputElementDefinitionDto</text>
<text text-anchor="middle" x="84" y="-7.5" font-family="Helvetica,sans-Serif" font-size="10.00">&lt; InputMappingDefinitionElement &gt;</text>
</a>
</g>
</g>
<!-- Node1 -->
<g id="node2" class="node"><title>Node1</title>
<g id="a_node2"><a xlink:href="da/d0a/classIG_1_1Neural_1_1MapImputElementDefinitionDto.html" target="_top" xlink:title="DTO (data transfer object) for neural data input element mapping definition.">
<polygon fill="white" stroke="black" points="204,-6 204,-36 343,-36 343,-6 204,-6"/>
<text text-anchor="start" x="212" y="-24" font-family="Helvetica,sans-Serif" font-size="10.00">IG.Neural.MapImputElement</text>
<text text-anchor="middle" x="273.5" y="-13" font-family="Helvetica,sans-Serif" font-size="10.00">DefinitionDto</text>
</a>
</g>
</g>
<!-- Node0&#45;&gt;Node1 -->
<g id="edge1" class="edge"><title>Node0&#45;&gt;Node1</title>
<path fill="none" stroke="midnightblue" d="M178.18,-21C186.82,-21 195.466,-21 203.824,-21"/>
<polygon fill="midnightblue" stroke="midnightblue" points="178.059,-17.5001 168.059,-21 178.059,-24.5001 178.059,-17.5001"/>
</g>
</g>
</svg>
