<?xml version="1.0" encoding="UTF-8" standalone="no"?>
<!DOCTYPE svg PUBLIC "-//W3C//DTD SVG 1.1//EN"
 "http://www.w3.org/Graphics/SVG/1.1/DTD/svg11.dtd">
<!-- Generated by graphviz version 2.38.0 (20140413.2041)
 -->
<!-- Title: Graphical Class Hierarchy Pages: 1 -->
<svg width="620pt" height="88pt"
 viewBox="0.00 0.00 620.00 88.00" xmlns="http://www.w3.org/2000/svg" xmlns:xlink="http://www.w3.org/1999/xlink">
<g id="graph0" class="graph" transform="scale(1 1) rotate(0) translate(4 84)">
<title>Graphical Class Hierarchy</title>
<polygon fill="white" stroke="none" points="-4,4 -4,-84 616,-84 616,4 -4,4"/>
<!-- Node0 -->
<g id="node1" class="node"><title>Node0</title>
<g id="a_node1"><a xlink:href="df/d1f/interfaceIGLib_1_1Core_1_1IModelParameterSetBaseFixed.html" target="_top" xlink:title="A fixed set of model parameters of the specified type, where parameters cannot be added,...">
<polygon fill="white" stroke="black" points="0,-24.5 0,-54.5 188,-54.5 188,-24.5 0,-24.5"/>
<text text-anchor="start" x="8" y="-42.5" font-family="Helvetica,sans-Serif" font-size="10.00">IGLib.Core.IModelParameter</text>
<text text-anchor="middle" x="94" y="-31.5" font-family="Helvetica,sans-Serif" font-size="10.00">SetBaseFixed&lt; ModelParameterType &gt;</text>
</a>
</g>
</g>
<!-- Node1 -->
<g id="node2" class="node"><title>Node1</title>
<g id="a_node2"><a xlink:href="d3/d14/interfaceIGLib_1_1Core_1_1IModelParameterSetBase.html" target="_top" xlink:title="A set of model parameters of the specified type, where parameters can be added, removed or changed af...">
<polygon fill="white" stroke="black" points="236,-49.5 236,-79.5 400,-79.5 400,-49.5 236,-49.5"/>
<text text-anchor="start" x="244" y="-67.5" font-family="Helvetica,sans-Serif" font-size="10.00">IGLib.Core.IModelParameter</text>
<text text-anchor="middle" x="318" y="-56.5" font-family="Helvetica,sans-Serif" font-size="10.00">SetBase&lt; ModelParameterType &gt;</text>
</a>
</g>
</g>
<!-- Node0&#45;&gt;Node1 -->
<g id="edge1" class="edge"><title>Node0&#45;&gt;Node1</title>
<path fill="none" stroke="midnightblue" d="M198.223,-51.1242C210.794,-52.5398 223.498,-53.9705 235.686,-55.3431"/>
<polygon fill="midnightblue" stroke="midnightblue" points="198.512,-47.6347 188.183,-49.9936 197.729,-54.5907 198.512,-47.6347"/>
</g>
<!-- Node3 -->
<g id="node4" class="node"><title>Node3</title>
<g id="a_node4"><a xlink:href="d4/d40/classIGLib_1_1Core_1_1ModelParameterSetFixedBase.html" target="_top" xlink:title="Contains a set of model parameters as ModelParameterType &#160;objects, accessible by string keys,...">
<polygon fill="white" stroke="black" points="224,-0.5 224,-30.5 412,-30.5 412,-0.5 224,-0.5"/>
<text text-anchor="start" x="232" y="-18.5" font-family="Helvetica,sans-Serif" font-size="10.00">IGLib.Core.ModelParameter</text>
<text text-anchor="middle" x="318" y="-7.5" font-family="Helvetica,sans-Serif" font-size="10.00">SetFixedBase&lt; ModelParameterType &gt;</text>
</a>
</g>
</g>
<!-- Node0&#45;&gt;Node3 -->
<g id="edge3" class="edge"><title>Node0&#45;&gt;Node3</title>
<path fill="none" stroke="midnightblue" d="M198.147,-28.3489C206.67,-27.4275 215.255,-26.4995 223.7,-25.5865"/>
<polygon fill="midnightblue" stroke="midnightblue" points="197.749,-24.8715 188.183,-29.4262 198.501,-31.831 197.749,-24.8715"/>
</g>
<!-- Node2 -->
<g id="node3" class="node"><title>Node2</title>
<g id="a_node3"><a xlink:href="da/d85/classIGLib_1_1Core_1_1ModelParameterSetBase.html" target="_top" xlink:title="Similar as ModelParameterSetFixedBase&lt;ModelParameterType&gt;, except that parameter objects can be added...">
<polygon fill="white" stroke="black" points="448,-24.5 448,-54.5 612,-54.5 612,-24.5 448,-24.5"/>
<text text-anchor="start" x="456" y="-42.5" font-family="Helvetica,sans-Serif" font-size="10.00">IGLib.Core.ModelParameter</text>
<text text-anchor="middle" x="530" y="-31.5" font-family="Helvetica,sans-Serif" font-size="10.00">SetBase&lt; ModelParameterType &gt;</text>
</a>
</g>
</g>
<!-- Node1&#45;&gt;Node2 -->
<g id="edge2" class="edge"><title>Node1&#45;&gt;Node2</title>
<path fill="none" stroke="midnightblue" d="M410.136,-53.6504C422.625,-52.1637 435.38,-50.6452 447.678,-49.1812"/>
<polygon fill="midnightblue" stroke="midnightblue" points="409.708,-50.1767 400.191,-54.8343 410.535,-57.1276 409.708,-50.1767"/>
</g>
<!-- Node3&#45;&gt;Node2 -->
<g id="edge4" class="edge"><title>Node3&#45;&gt;Node2</title>
<path fill="none" stroke="midnightblue" d="M422.152,-27.2888C430.796,-28.2767 439.456,-29.2665 447.899,-30.2314"/>
<polygon fill="midnightblue" stroke="midnightblue" points="422.359,-23.7897 412.026,-26.1316 421.564,-30.7445 422.359,-23.7897"/>
</g>
</g>
</svg>
