<?xml version="1.0" encoding="UTF-8" standalone="no"?>
<!DOCTYPE svg PUBLIC "-//W3C//DTD SVG 1.1//EN"
 "http://www.w3.org/Graphics/SVG/1.1/DTD/svg11.dtd">
<!-- Generated by graphviz version 2.38.0 (20140413.2041)
 -->
<!-- Title: Graphical Class Hierarchy Pages: 1 -->
<svg width="566pt" height="162pt"
 viewBox="0.00 0.00 566.00 161.50" xmlns="http://www.w3.org/2000/svg" xmlns:xlink="http://www.w3.org/1999/xlink">
<g id="graph0" class="graph" transform="scale(1 1) rotate(0) translate(4 157.5)">
<title>Graphical Class Hierarchy</title>
<polygon fill="white" stroke="none" points="-4,4 -4,-157.5 562,-157.5 562,4 -4,4"/>
<!-- Node902 -->
<g id="node1" class="node"><title>Node902</title>
<g id="a_node1"><a xlink:href="d3/df2/classIG_1_1Num_1_1Field.html" target="_top" xlink:title=" ">
<polygon fill="white" stroke="black" points="0,-55 0,-74 122,-74 122,-55 0,-55"/>
<text text-anchor="middle" x="61" y="-62" font-family="Helvetica,sans-Serif" font-size="10.00">IG.Num.Field&lt; TCoord &gt;</text>
</a>
</g>
</g>
<!-- Node903 -->
<g id="node2" class="node"><title>Node903</title>
<g id="a_node2"><a xlink:href="d3/d28/classIG_1_1Num_1_1UnstructuredMeshGeometry1d.html" target="_top" xlink:title="Geometry and topology of an unstructured 1D mesh. Presents both connected meshes and unconnected sets...">
<polygon fill="white" stroke="black" points="158,-103.5 158,-133.5 343,-133.5 343,-103.5 158,-103.5"/>
<text text-anchor="start" x="166" y="-121.5" font-family="Helvetica,sans-Serif" font-size="10.00">IG.Num.UnstructuredMeshGeometry1d</text>
<text text-anchor="middle" x="250.5" y="-110.5" font-family="Helvetica,sans-Serif" font-size="10.00">&lt; TCoord &gt;</text>
</a>
</g>
</g>
<!-- Node902&#45;&gt;Node903 -->
<g id="edge1" class="edge"><title>Node902&#45;&gt;Node903</title>
<path fill="none" stroke="midnightblue" d="M104.804,-76.8277C132.278,-84.7402 168.136,-95.0672 197.282,-103.461"/>
<polygon fill="midnightblue" stroke="midnightblue" points="105.668,-73.4341 95.0896,-74.0298 103.73,-80.1607 105.668,-73.4341"/>
</g>
<!-- Node905 -->
<g id="node4" class="node"><title>Node905</title>
<g id="a_node4"><a xlink:href="d4/d81/classIG_1_1Num_1_1UnstructuredMeshGeometry2d.html" target="_top" xlink:title="Geometry and topology of an unstructured 2D mesh. Presents both connected meshes and unconnected sets...">
<polygon fill="white" stroke="black" points="158,-49.5 158,-79.5 343,-79.5 343,-49.5 158,-49.5"/>
<text text-anchor="start" x="166" y="-67.5" font-family="Helvetica,sans-Serif" font-size="10.00">IG.Num.UnstructuredMeshGeometry2d</text>
<text text-anchor="middle" x="250.5" y="-56.5" font-family="Helvetica,sans-Serif" font-size="10.00">&lt; TCoord &gt;</text>
</a>
</g>
</g>
<!-- Node902&#45;&gt;Node905 -->
<g id="edge3" class="edge"><title>Node902&#45;&gt;Node905</title>
<path fill="none" stroke="midnightblue" d="M132.213,-64.5C140.63,-64.5 149.318,-64.5 157.981,-64.5"/>
<polygon fill="midnightblue" stroke="midnightblue" points="132.1,-61.0001 122.1,-64.5 132.1,-68.0001 132.1,-61.0001"/>
</g>
<!-- Node906 -->
<g id="node6" class="node"><title>Node906</title>
<g id="a_node6"><a xlink:href="d0/da4/classIG_1_1Num_1_1UnstructuredMeshGeometry3d.html" target="_top" xlink:title="Geometry and topology of an unstructured 2D mesh. Presents both connected meshes and unconnected sets...">
<polygon fill="white" stroke="black" points="158,-0.5 158,-30.5 343,-30.5 343,-0.5 158,-0.5"/>
<text text-anchor="start" x="166" y="-18.5" font-family="Helvetica,sans-Serif" font-size="10.00">IG.Num.UnstructuredMeshGeometry3d</text>
<text text-anchor="middle" x="250.5" y="-7.5" font-family="Helvetica,sans-Serif" font-size="10.00">&lt; TCoord &gt;</text>
</a>
</g>
</g>
<!-- Node902&#45;&gt;Node906 -->
<g id="edge5" class="edge"><title>Node902&#45;&gt;Node906</title>
<path fill="none" stroke="midnightblue" d="M108.308,-52.3982C133.587,-45.792 165.114,-37.5529 191.961,-30.537"/>
<polygon fill="midnightblue" stroke="midnightblue" points="107.387,-49.0212 98.597,-54.936 109.157,-55.7938 107.387,-49.0212"/>
</g>
<!-- Node904 -->
<g id="node3" class="node"><title>Node904</title>
<g id="a_node3"><a xlink:href="d5/d27/classIG_1_1Num_1_1UnstructuredMesh1d.html" target="_top" xlink:title="Generic 1D unstructured mesh with collections of named scalar, vector, tensor and index fields.">
<polygon fill="white" stroke="black" points="379,-90 379,-153 558,-153 558,-90 379,-90"/>
<text text-anchor="start" x="387" y="-141" font-family="Helvetica,sans-Serif" font-size="10.00">IG.Num.UnstructuredMesh1d</text>
<text text-anchor="start" x="387" y="-130" font-family="Helvetica,sans-Serif" font-size="10.00">&lt; TCoord, TIndexField,</text>
<text text-anchor="start" x="387" y="-119" font-family="Helvetica,sans-Serif" font-size="10.00"> TIndex, TScalarField, TScalar,</text>
<text text-anchor="start" x="387" y="-108" font-family="Helvetica,sans-Serif" font-size="10.00"> TVectorField, TVector, TTensorField,</text>
<text text-anchor="middle" x="468.5" y="-97" font-family="Helvetica,sans-Serif" font-size="10.00"> TTensor &gt;</text>
</a>
</g>
</g>
<!-- Node903&#45;&gt;Node904 -->
<g id="edge2" class="edge"><title>Node903&#45;&gt;Node904</title>
<path fill="none" stroke="midnightblue" d="M353.147,-119.912C361.735,-120.031 370.376,-120.151 378.853,-120.269"/>
<polygon fill="midnightblue" stroke="midnightblue" points="353.151,-116.412 343.103,-119.772 353.054,-123.411 353.151,-116.412"/>
</g>
<!-- Node41 -->
<g id="node5" class="node"><title>Node41</title>
<g id="a_node5"><a xlink:href="dc/d45/classIG_1_1Num_1_1UnstructuredMesh2d.html" target="_top" xlink:title="Unstructured mesh in 2D.">
<polygon fill="white" stroke="black" points="397,-52 397,-71 540,-71 540,-52 397,-52"/>
<text text-anchor="middle" x="468.5" y="-59" font-family="Helvetica,sans-Serif" font-size="10.00">IG.Num.UnstructuredMesh2d</text>
</a>
</g>
</g>
<!-- Node905&#45;&gt;Node41 -->
<g id="edge4" class="edge"><title>Node905&#45;&gt;Node41</title>
<path fill="none" stroke="midnightblue" d="M353.245,-63.0869C367.949,-62.8827 382.808,-62.6763 396.727,-62.483"/>
<polygon fill="midnightblue" stroke="midnightblue" points="353.054,-59.5891 343.103,-63.2277 353.151,-66.5884 353.054,-59.5891"/>
</g>
<!-- Node0 -->
<g id="node7" class="node"><title>Node0</title>
<g id="a_node7"><a xlink:href="d3/d7f/classIG_1_1Num_1_1UnstructuredMesh3d.html" target="_top" xlink:title="Unstructured mesh in 3D.">
<polygon fill="white" stroke="black" points="397,-6 397,-25 540,-25 540,-6 397,-6"/>
<text text-anchor="middle" x="468.5" y="-13" font-family="Helvetica,sans-Serif" font-size="10.00">IG.Num.UnstructuredMesh3d</text>
</a>
</g>
</g>
<!-- Node906&#45;&gt;Node0 -->
<g id="edge6" class="edge"><title>Node906&#45;&gt;Node0</title>
<path fill="none" stroke="midnightblue" d="M353.245,-15.5C367.949,-15.5 382.808,-15.5 396.727,-15.5"/>
<polygon fill="midnightblue" stroke="midnightblue" points="353.103,-12.0001 343.103,-15.5 353.103,-19.0001 353.103,-12.0001"/>
</g>
</g>
</svg>
