<?xml version="1.0" encoding="UTF-8" standalone="no"?>
<!DOCTYPE svg PUBLIC "-//W3C//DTD SVG 1.1//EN"
 "http://www.w3.org/Graphics/SVG/1.1/DTD/svg11.dtd">
<!-- Generated by graphviz version 2.38.0 (20140413.2041)
 -->
<!-- Title: Graphical Class Hierarchy Pages: 1 -->
<svg width="488pt" height="28pt"
 viewBox="0.00 0.00 488.00 28.00" xmlns="http://www.w3.org/2000/svg" xmlns:xlink="http://www.w3.org/1999/xlink">
<g id="graph0" class="graph" transform="scale(1 1) rotate(0) translate(4 24)">
<title>Graphical Class Hierarchy</title>
<polygon fill="white" stroke="none" points="-4,4 -4,-24 484,-24 484,4 -4,4"/>
<!-- Node0 -->
<g id="node1" class="node"><title>Node0</title>
<g id="a_node1"><a xlink:href="dd/d7b/interfaceIG_1_1Num_1_1IOptimizationData.html" target="_top" xlink:title="Information about optimization data and algorithm parameters.">
<polygon fill="white" stroke="black" points="0,-0.5 0,-19.5 130,-19.5 130,-0.5 0,-0.5"/>
<text text-anchor="middle" x="65" y="-7.5" font-family="Helvetica,sans-Serif" font-size="10.00">IG.Num.IOptimizationData</text>
</a>
</g>
</g>
<!-- Node1 -->
<g id="node2" class="node"><title>Node1</title>
<g id="a_node2"><a xlink:href="d9/df6/classIG_1_1Num_1_1OptimizationDataBase.html" target="_top" xlink:title="Base class for holding information about optimization data and algorithm parameters.">
<polygon fill="white" stroke="black" points="166,-0.5 166,-19.5 316,-19.5 316,-0.5 166,-0.5"/>
<text text-anchor="middle" x="241" y="-7.5" font-family="Helvetica,sans-Serif" font-size="10.00">IG.Num.OptimizationDataBase</text>
</a>
</g>
</g>
<!-- Node0&#45;&gt;Node1 -->
<g id="edge1" class="edge"><title>Node0&#45;&gt;Node1</title>
<path fill="none" stroke="midnightblue" d="M140.495,-10C148.938,-10 157.542,-10 165.98,-10"/>
<polygon fill="midnightblue" stroke="midnightblue" points="140.297,-6.5001 130.297,-10 140.297,-13.5001 140.297,-6.5001"/>
</g>
<!-- Node2 -->
<g id="node3" class="node"><title>Node2</title>
<g id="a_node3"><a xlink:href="d6/da2/classIG_1_1Num_1_1OptimizationData.html" target="_top" xlink:title="Information about optimization data and algorithm parameters.">
<polygon fill="white" stroke="black" points="352,-0.5 352,-19.5 480,-19.5 480,-0.5 352,-0.5"/>
<text text-anchor="middle" x="416" y="-7.5" font-family="Helvetica,sans-Serif" font-size="10.00">IG.Num.OptimizationData</text>
</a>
</g>
</g>
<!-- Node1&#45;&gt;Node2 -->
<g id="edge2" class="edge"><title>Node1&#45;&gt;Node2</title>
<path fill="none" stroke="midnightblue" d="M326.235,-10C334.881,-10 343.557,-10 351.917,-10"/>
<polygon fill="midnightblue" stroke="midnightblue" points="326.12,-6.5001 316.12,-10 326.12,-13.5001 326.12,-6.5001"/>
</g>
</g>
</svg>
