<?xml version="1.0" encoding="UTF-8" standalone="no"?>
<!DOCTYPE svg PUBLIC "-//W3C//DTD SVG 1.1//EN"
 "http://www.w3.org/Graphics/SVG/1.1/DTD/svg11.dtd">
<!-- Generated by graphviz version 2.38.0 (20140413.2041)
 -->
<!-- Title: Graphical Class Hierarchy Pages: 1 -->
<svg width="320pt" height="39pt"
 viewBox="0.00 0.00 320.00 39.00" xmlns="http://www.w3.org/2000/svg" xmlns:xlink="http://www.w3.org/1999/xlink">
<g id="graph0" class="graph" transform="scale(1 1) rotate(0) translate(4 35)">
<title>Graphical Class Hierarchy</title>
<polygon fill="white" stroke="none" points="-4,4 -4,-35 316,-35 316,4 -4,4"/>
<!-- Node339 -->
<g id="node1" class="node"><title>Node339</title>
<g id="a_node1"><a xlink:href="d3/d2d/interfaceLearnCs_1_1Lib_1_1IVectorFactoryRegistry.html" target="_top" xlink:title="Interface for the registry of vector factories. For method descriptions, see VectorFactoryRegistry&lt;Ba...">
<polygon fill="white" stroke="black" points="0,-0.5 0,-30.5 143,-30.5 143,-0.5 0,-0.5"/>
<text text-anchor="start" x="8" y="-18.5" font-family="Helvetica,sans-Serif" font-size="10.00">LearnCs.Lib.IVectorFactory</text>
<text text-anchor="middle" x="71.5" y="-7.5" font-family="Helvetica,sans-Serif" font-size="10.00">Registry&lt; BaseVectorType &gt;</text>
</a>
</g>
</g>
<!-- Node0 -->
<g id="node2" class="node"><title>Node0</title>
<g id="a_node2"><a xlink:href="d7/da2/classLearnCs_1_1Lib_1_1VectorFactoryRegistry.html" target="_top" xlink:title="Registry of vector factories where factory for any type of vector can be registered.">
<polygon fill="white" stroke="black" points="179,-0.5 179,-30.5 312,-30.5 312,-0.5 179,-0.5"/>
<text text-anchor="start" x="187" y="-18.5" font-family="Helvetica,sans-Serif" font-size="10.00">LearnCs.Lib.VectorFactory</text>
<text text-anchor="middle" x="245.5" y="-7.5" font-family="Helvetica,sans-Serif" font-size="10.00">Registry</text>
</a>
</g>
</g>
<!-- Node339&#45;&gt;Node0 -->
<g id="edge1" class="edge"><title>Node339&#45;&gt;Node0</title>
<path fill="none" stroke="midnightblue" d="M153.718,-15.5C162.178,-15.5 170.7,-15.5 178.955,-15.5"/>
<polygon fill="midnightblue" stroke="midnightblue" points="153.452,-12.0001 143.452,-15.5 153.452,-19.0001 153.452,-12.0001"/>
</g>
</g>
</svg>
