<?xml version="1.0" encoding="UTF-8" standalone="no"?>
<!DOCTYPE svg PUBLIC "-//W3C//DTD SVG 1.1//EN"
 "http://www.w3.org/Graphics/SVG/1.1/DTD/svg11.dtd">
<!-- Generated by graphviz version 2.38.0 (20140413.2041)
 -->
<!-- Title: Graphical Class Hierarchy Pages: 1 -->
<svg width="364pt" height="88pt"
 viewBox="0.00 0.00 364.00 88.00" xmlns="http://www.w3.org/2000/svg" xmlns:xlink="http://www.w3.org/1999/xlink">
<g id="graph0" class="graph" transform="scale(1 1) rotate(0) translate(4 84)">
<title>Graphical Class Hierarchy</title>
<polygon fill="white" stroke="none" points="-4,4 -4,-84 360,-84 360,4 -4,4"/>
<!-- Node941 -->
<g id="node1" class="node"><title>Node941</title>
<g id="a_node1"><a xlink:title=" ">
<polygon fill="white" stroke="#bfbfbf" points="0.5,-38.5 0.5,-79.5 164.5,-79.5 164.5,-38.5 0.5,-38.5"/>
<text text-anchor="start" x="8.5" y="-67.5" font-family="Helvetica,sans-Serif" font-size="10.00">CommandStackFrame&lt;</text>
<text text-anchor="start" x="8.5" y="-56.5" font-family="Helvetica,sans-Serif" font-size="10.00"> InterpreterType, CommandThread</text>
<text text-anchor="middle" x="82.5" y="-45.5" font-family="Helvetica,sans-Serif" font-size="10.00">&lt; InterpreterType &gt;&gt;</text>
</a>
</g>
</g>
<!-- Node1 -->
<g id="node2" class="node"><title>Node1</title>
<g id="a_node2"><a xlink:href="d0/d0c/classIG_1_1Lib_1_1CommandStackFrame.html" target="_top" xlink:title="Stack frame for a block of command&#45;line interpreter commands.">
<polygon fill="white" stroke="black" points="201,-19 201,-49 356,-49 356,-19 201,-19"/>
<text text-anchor="start" x="209" y="-37" font-family="Helvetica,sans-Serif" font-size="10.00">IG.Lib.CommandStackFrame</text>
<text text-anchor="middle" x="278.5" y="-26" font-family="Helvetica,sans-Serif" font-size="10.00">&lt; InterpreterType, ThreadType &gt;</text>
</a>
</g>
</g>
<!-- Node941&#45;&gt;Node1 -->
<g id="edge1" class="edge"><title>Node941&#45;&gt;Node1</title>
<path fill="none" stroke="midnightblue" d="M174.786,-47.2364C183.458,-46.1188 192.192,-44.9933 200.709,-43.8958"/>
<polygon fill="midnightblue" stroke="midnightblue" points="174.12,-43.7931 164.649,-48.5426 175.015,-50.7357 174.12,-43.7931"/>
</g>
<!-- Node0 -->
<g id="node3" class="node"><title>Node0</title>
<g id="a_node3"><a xlink:href="dd/d71/classIG_1_1Lib_1_1CommandStackFrameBase.html" target="_top" xlink:title="Base class for classes of type CommandStackFrame{InterpreterType, ThreadType}see cref=&quot;&quot;/&gt;....">
<polygon fill="white" stroke="black" points="0,-0.5 0,-19.5 165,-19.5 165,-0.5 0,-0.5"/>
<text text-anchor="middle" x="82.5" y="-7.5" font-family="Helvetica,sans-Serif" font-size="10.00">IG.Lib.CommandStackFrameBase</text>
</a>
</g>
</g>
<!-- Node0&#45;&gt;Node1 -->
<g id="edge2" class="edge"><title>Node0&#45;&gt;Node1</title>
<path fill="none" stroke="midnightblue" d="M170.532,-20.7668C180.677,-22.0219 190.969,-23.2951 200.958,-24.5309"/>
<polygon fill="midnightblue" stroke="midnightblue" points="170.807,-17.2742 160.453,-19.5199 169.947,-24.2213 170.807,-17.2742"/>
</g>
</g>
</svg>
