<?xml version="1.0" encoding="UTF-8" standalone="no"?>
<!DOCTYPE svg PUBLIC "-//W3C//DTD SVG 1.1//EN"
 "http://www.w3.org/Graphics/SVG/1.1/DTD/svg11.dtd">
<!-- Generated by graphviz version 2.38.0 (20140413.2041)
 -->
<!-- Title: Graphical Class Hierarchy Pages: 1 -->
<svg width="762pt" height="85pt"
 viewBox="0.00 0.00 762.00 85.00" xmlns="http://www.w3.org/2000/svg" xmlns:xlink="http://www.w3.org/1999/xlink">
<g id="graph0" class="graph" transform="scale(1 1) rotate(0) translate(4 81)">
<title>Graphical Class Hierarchy</title>
<polygon fill="white" stroke="none" points="-4,4 -4,-81 758,-81 758,4 -4,4"/>
<!-- Node374 -->
<g id="node1" class="node"><title>Node374</title>
<g id="a_node1"><a xlink:href="d2/d80/interfaceIG_1_1Lib_1_1IStringParsable.html" target="_top" xlink:title="Defines classes that can be converted to strings and whose values can be parsed from strings....">
<polygon fill="white" stroke="black" points="253,-57.5 253,-76.5 364,-76.5 364,-57.5 253,-57.5"/>
<text text-anchor="middle" x="308.5" y="-64.5" font-family="Helvetica,sans-Serif" font-size="10.00">IG.Lib.IStringParsable</text>
</a>
</g>
</g>
<!-- Node3 -->
<g id="node2" class="node"><title>Node3</title>
<g id="a_node2"><a xlink:href="d8/d2d/interfaceIG_1_1Lib_1_1IVarType.html" target="_top" xlink:title="Defines classes that can represent variables of different types. Used e.g. in interpreters and variab...">
<polygon fill="white" stroke="black" points="401,-38.5 401,-57.5 484,-57.5 484,-38.5 401,-38.5"/>
<text text-anchor="middle" x="442.5" y="-45.5" font-family="Helvetica,sans-Serif" font-size="10.00">IG.Lib.IVarType</text>
</a>
</g>
</g>
<!-- Node374&#45;&gt;Node3 -->
<g id="edge1" class="edge"><title>Node374&#45;&gt;Node3</title>
<path fill="none" stroke="midnightblue" d="M374.409,-57.657C383.375,-56.3664 392.368,-55.072 400.726,-53.869"/>
<polygon fill="midnightblue" stroke="midnightblue" points="373.732,-54.2183 364.333,-59.1074 374.73,-61.1469 373.732,-54.2183"/>
</g>
<!-- Node4 -->
<g id="node3" class="node"><title>Node4</title>
<g id="a_node3"><a xlink:href="d0/dc6/classIG_1_1Lib_1_1VarTypeBase.html" target="_top" xlink:title="DO NOT USE! The base class implementing the IVarType interface.">
<polygon fill="white" stroke="black" points="520,-38.5 520,-57.5 624,-57.5 624,-38.5 520,-38.5"/>
<text text-anchor="middle" x="572" y="-45.5" font-family="Helvetica,sans-Serif" font-size="10.00">IG.Lib.VarTypeBase</text>
</a>
</g>
</g>
<!-- Node3&#45;&gt;Node4 -->
<g id="edge2" class="edge"><title>Node3&#45;&gt;Node4</title>
<path fill="none" stroke="midnightblue" d="M494.293,-48C502.737,-48 511.497,-48 519.947,-48"/>
<polygon fill="midnightblue" stroke="midnightblue" points="494.192,-44.5001 484.192,-48 494.192,-51.5001 494.192,-44.5001"/>
</g>
<!-- Node5 -->
<g id="node4" class="node"><title>Node5</title>
<g id="a_node4"><a xlink:href="da/d4c/classIG_1_1Lib_1_1CounterVar.html" target="_top" xlink:title=" ">
<polygon fill="white" stroke="black" points="660,-57.5 660,-76.5 754,-76.5 754,-57.5 660,-57.5"/>
<text text-anchor="middle" x="707" y="-64.5" font-family="Helvetica,sans-Serif" font-size="10.00">IG.Lib.CounterVar</text>
</a>
</g>
</g>
<!-- Node4&#45;&gt;Node5 -->
<g id="edge3" class="edge"><title>Node4&#45;&gt;Node5</title>
<path fill="none" stroke="midnightblue" d="M634.056,-56.7223C642.666,-57.9523 651.398,-59.1997 659.67,-60.3814"/>
<polygon fill="midnightblue" stroke="midnightblue" points="634.435,-53.241 624.041,-55.2916 633.445,-60.1707 634.435,-53.241"/>
</g>
<!-- Node6 -->
<g id="node5" class="node"><title>Node6</title>
<g id="a_node5"><a xlink:href="d9/d24/classIG_1_1Lib_1_1ScalarVar.html" target="_top" xlink:title="Scalar variable.">
<polygon fill="white" stroke="black" points="663,-19.5 663,-38.5 751,-38.5 751,-19.5 663,-19.5"/>
<text text-anchor="middle" x="707" y="-26.5" font-family="Helvetica,sans-Serif" font-size="10.00">IG.Lib.ScalarVar</text>
</a>
</g>
</g>
<!-- Node4&#45;&gt;Node6 -->
<g id="edge4" class="edge"><title>Node4&#45;&gt;Node6</title>
<path fill="none" stroke="midnightblue" d="M634.025,-39.2822C643.693,-37.9011 653.516,-36.4978 662.669,-35.1901"/>
<polygon fill="midnightblue" stroke="midnightblue" points="633.445,-35.8293 624.041,-40.7084 634.435,-42.759 633.445,-35.8293"/>
</g>
<!-- Node0 -->
<g id="node6" class="node"><title>Node0</title>
<g id="a_node6"><a xlink:href="da/d7e/interfaceIG_1_1Lib_1_1ITypeName.html" target="_top" xlink:title="Classes that provide separate type names. Classes used e.g. in interpreter systems to represent types...">
<polygon fill="white" stroke="black" points="0,-19.5 0,-38.5 94,-38.5 94,-19.5 0,-19.5"/>
<text text-anchor="middle" x="47" y="-26.5" font-family="Helvetica,sans-Serif" font-size="10.00">IG.Lib.ITypeName</text>
</a>
</g>
</g>
<!-- Node1 -->
<g id="node7" class="node"><title>Node1</title>
<g id="a_node7"><a xlink:href="d6/d87/interfaceIG_1_1Lib_1_1IFromXml.html" target="_top" xlink:title="Defines classes whose instances can be converted to Xml elements. Conversion is different from that u...">
<polygon fill="white" stroke="black" points="130,-38.5 130,-57.5 216,-57.5 216,-38.5 130,-38.5"/>
<text text-anchor="middle" x="173" y="-45.5" font-family="Helvetica,sans-Serif" font-size="10.00">IG.Lib.IFromXml</text>
</a>
</g>
</g>
<!-- Node0&#45;&gt;Node1 -->
<g id="edge5" class="edge"><title>Node0&#45;&gt;Node1</title>
<path fill="none" stroke="midnightblue" d="M104.201,-37.6114C112.836,-38.9346 121.624,-40.281 129.884,-41.5468"/>
<polygon fill="midnightblue" stroke="midnightblue" points="104.588,-34.1299 94.173,-36.0749 103.528,-41.0492 104.588,-34.1299"/>
</g>
<!-- Node7 -->
<g id="node9" class="node"><title>Node7</title>
<g id="a_node9"><a xlink:href="d3/dd7/interfaceIG_1_1Lib_1_1IToXml.html" target="_top" xlink:title="Defines classes whose instances can be created from Xml elements. Conversion is different from that u...">
<polygon fill="white" stroke="black" points="136,-0.5 136,-19.5 210,-19.5 210,-0.5 136,-0.5"/>
<text text-anchor="middle" x="173" y="-7.5" font-family="Helvetica,sans-Serif" font-size="10.00">IG.Lib.IToXml</text>
</a>
</g>
</g>
<!-- Node0&#45;&gt;Node7 -->
<g id="edge8" class="edge"><title>Node0&#45;&gt;Node7</title>
<path fill="none" stroke="midnightblue" d="M104.333,-20.3683C115.047,-18.7267 125.988,-17.0502 135.863,-15.5371"/>
<polygon fill="midnightblue" stroke="midnightblue" points="103.528,-16.9508 94.173,-21.9251 104.588,-23.8701 103.528,-16.9508"/>
</g>
<!-- Node2 -->
<g id="node8" class="node"><title>Node2</title>
<g id="a_node8"><a xlink:href="dd/d2c/interfaceIG_1_1Lib_1_1IXmlConvertable.html" target="_top" xlink:title="Defines classes that can be converted to/from Xml elements.">
<polygon fill="white" stroke="black" points="252,-19.5 252,-38.5 365,-38.5 365,-19.5 252,-19.5"/>
<text text-anchor="middle" x="308.5" y="-26.5" font-family="Helvetica,sans-Serif" font-size="10.00">IG.Lib.IXmlConvertable</text>
</a>
</g>
</g>
<!-- Node1&#45;&gt;Node2 -->
<g id="edge6" class="edge"><title>Node1&#45;&gt;Node2</title>
<path fill="none" stroke="midnightblue" d="M226.279,-40.5595C234.671,-39.3652 243.384,-38.1252 251.851,-36.9201"/>
<polygon fill="midnightblue" stroke="midnightblue" points="225.647,-37.1141 216.24,-41.9883 226.634,-44.0443 225.647,-37.1141"/>
</g>
<!-- Node2&#45;&gt;Node3 -->
<g id="edge7" class="edge"><title>Node2&#45;&gt;Node3</title>
<path fill="none" stroke="midnightblue" d="M375.279,-38.4681C383.985,-39.7213 392.696,-40.9751 400.806,-42.1425"/>
<polygon fill="midnightblue" stroke="midnightblue" points="375.494,-34.9631 365.097,-37.0026 374.497,-41.8917 375.494,-34.9631"/>
</g>
<!-- Node7&#45;&gt;Node2 -->
<g id="edge9" class="edge"><title>Node7&#45;&gt;Node2</title>
<path fill="none" stroke="midnightblue" d="M220.061,-16.5555C230.275,-18.0091 241.205,-19.5648 251.759,-21.0668"/>
<polygon fill="midnightblue" stroke="midnightblue" points="220.52,-13.0857 210.127,-15.1417 219.534,-20.0159 220.52,-13.0857"/>
</g>
</g>
</svg>
