<?xml version="1.0" encoding="UTF-8" standalone="no"?>
<!DOCTYPE svg PUBLIC "-//W3C//DTD SVG 1.1//EN"
 "http://www.w3.org/Graphics/SVG/1.1/DTD/svg11.dtd">
<!-- Generated by graphviz version 2.38.0 (20140413.2041)
 -->
<!-- Title: Graphical Class Hierarchy Pages: 1 -->
<svg width="394pt" height="100pt"
 viewBox="0.00 0.00 394.00 99.50" xmlns="http://www.w3.org/2000/svg" xmlns:xlink="http://www.w3.org/1999/xlink">
<g id="graph0" class="graph" transform="scale(1 1) rotate(0) translate(4 95.5)">
<title>Graphical Class Hierarchy</title>
<polygon fill="white" stroke="none" points="-4,4 -4,-95.5 390,-95.5 390,4 -4,4"/>
<!-- Node319 -->
<g id="node1" class="node"><title>Node319</title>
<g id="a_node1"><a xlink:href="dd/d74/classIG_1_1Lib_1_1ListDto.html" target="_top" xlink:title=" ">
<polygon fill="white" stroke="black" points="0,-61 0,-91 164,-91 164,-61 0,-61"/>
<text text-anchor="start" x="8" y="-79" font-family="Helvetica,sans-Serif" font-size="10.00">IG.Lib.ListDto&lt; ElementType,</text>
<text text-anchor="middle" x="82" y="-68" font-family="Helvetica,sans-Serif" font-size="10.00"> ElementType, ElementDtoType &gt;</text>
</a>
</g>
</g>
<!-- Node0 -->
<g id="node2" class="node"><title>Node0</title>
<g id="a_node2"><a xlink:href="dd/d74/classIG_1_1Lib_1_1ListDto.html" target="_top" xlink:title="Data transfer object for holding lists of objects of the same type.">
<polygon fill="white" stroke="black" points="200,-33 200,-63 386,-63 386,-33 200,-33"/>
<text text-anchor="start" x="208" y="-51" font-family="Helvetica,sans-Serif" font-size="10.00">IG.Lib.ListDto&lt; ElementType,</text>
<text text-anchor="middle" x="293" y="-40" font-family="Helvetica,sans-Serif" font-size="10.00"> ElementBaseType, ElementDtoType &gt;</text>
</a>
</g>
</g>
<!-- Node319&#45;&gt;Node0 -->
<g id="edge1" class="edge"><title>Node319&#45;&gt;Node0</title>
<path fill="none" stroke="midnightblue" d="M174.063,-63.8002C182.606,-62.6556 191.271,-61.4948 199.825,-60.3489"/>
<polygon fill="midnightblue" stroke="midnightblue" points="173.551,-60.3374 164.104,-65.1344 174.48,-67.2755 173.551,-60.3374"/>
</g>
<!-- Node145 -->
<g id="node3" class="node"><title>Node145</title>
<g id="a_node3"><a xlink:title=" ">
<polygon fill="white" stroke="#bfbfbf" points="22.5,-0.5 22.5,-41.5 141.5,-41.5 141.5,-0.5 22.5,-0.5"/>
<text text-anchor="start" x="30.5" y="-29.5" font-family="Helvetica,sans-Serif" font-size="10.00">SerializationDtoBase</text>
<text text-anchor="start" x="30.5" y="-18.5" font-family="Helvetica,sans-Serif" font-size="10.00">&lt; List&lt; ElementType &gt;</text>
<text text-anchor="middle" x="82" y="-7.5" font-family="Helvetica,sans-Serif" font-size="10.00">, List&lt; ElementType &gt;&gt;</text>
</a>
</g>
</g>
<!-- Node145&#45;&gt;Node0 -->
<g id="edge2" class="edge"><title>Node145&#45;&gt;Node0</title>
<path fill="none" stroke="midnightblue" d="M152.112,-29.9284C167.334,-31.8949 183.692,-34.0081 199.665,-36.0716"/>
<polygon fill="midnightblue" stroke="midnightblue" points="152.14,-26.403 141.774,-28.5929 151.243,-33.3453 152.14,-26.403"/>
</g>
</g>
</svg>
