<?xml version="1.0" encoding="UTF-8" standalone="no"?>
<!DOCTYPE svg PUBLIC "-//W3C//DTD SVG 1.1//EN"
 "http://www.w3.org/Graphics/SVG/1.1/DTD/svg11.dtd">
<!-- Generated by graphviz version 2.38.0 (20140413.2041)
 -->
<!-- Title: Graphical Class Hierarchy Pages: 1 -->
<svg width="320pt" height="52pt"
 viewBox="0.00 0.00 320.00 51.50" xmlns="http://www.w3.org/2000/svg" xmlns:xlink="http://www.w3.org/1999/xlink">
<g id="graph0" class="graph" transform="scale(1 1) rotate(0) translate(4 47.5)">
<title>Graphical Class Hierarchy</title>
<polygon fill="white" stroke="none" points="-4,4 -4,-47.5 316,-47.5 316,4 -4,4"/>
<!-- Node585 -->
<g id="node1" class="node"><title>Node585</title>
<g id="a_node1"><a xlink:href="d8/dfc/interfaceIGLib_1_1Core_1_1IModelParameter.html" target="_top" xlink:title="Contains data for a single model parameter, similar as IModelParameter, but with additional typed pro...">
<polygon fill="white" stroke="black" points="0,-0.5 0,-30.5 139,-30.5 139,-0.5 0,-0.5"/>
<text text-anchor="start" x="8" y="-18.5" font-family="Helvetica,sans-Serif" font-size="10.00">IGLib.Core.IModelParameter</text>
<text text-anchor="middle" x="69.5" y="-7.5" font-family="Helvetica,sans-Serif" font-size="10.00">&lt; ValueType &gt;</text>
</a>
</g>
</g>
<!-- Node1 -->
<g id="node2" class="node"><title>Node1</title>
<g id="a_node2"><a xlink:href="d7/dd3/classIGLib_1_1Core_1_1ModelParameter.html" target="_top" xlink:title=" ">
<polygon fill="white" stroke="black" points="175,-6 175,-25 312,-25 312,-6 175,-6"/>
<text text-anchor="middle" x="243.5" y="-13" font-family="Helvetica,sans-Serif" font-size="10.00">IGLib.Core.ModelParameter</text>
</a>
</g>
</g>
<!-- Node585&#45;&gt;Node1 -->
<g id="edge1" class="edge"><title>Node585&#45;&gt;Node1</title>
<path fill="none" stroke="midnightblue" d="M149.686,-15.5C158.117,-15.5 166.636,-15.5 174.916,-15.5"/>
<polygon fill="midnightblue" stroke="midnightblue" points="149.468,-12.0001 139.468,-15.5 149.468,-19.0001 149.468,-12.0001"/>
</g>
<!-- Node1&#45;&gt;Node1 -->
<g id="edge2" class="edge"><title>Node1&#45;&gt;Node1</title>
<path fill="none" stroke="midnightblue" d="M210.94,-33.7746C211.868,-39.241 222.722,-43.5 243.5,-43.5 274.426,-43.5 283.365,-34.0653 270.318,-25.2571"/>
<polygon fill="midnightblue" stroke="midnightblue" points="213.994,-35.5054 216.682,-25.2571 208.19,-31.5928 213.994,-35.5054"/>
</g>
</g>
</svg>
