<?xml version="1.0" encoding="UTF-8" standalone="no"?>
<!DOCTYPE svg PUBLIC "-//W3C//DTD SVG 1.1//EN"
 "http://www.w3.org/Graphics/SVG/1.1/DTD/svg11.dtd">
<!-- Generated by graphviz version 2.38.0 (20140413.2041)
 -->
<!-- Title: Graphical Class Hierarchy Pages: 1 -->
<svg width="538pt" height="137pt"
 viewBox="0.00 0.00 538.00 137.00" xmlns="http://www.w3.org/2000/svg" xmlns:xlink="http://www.w3.org/1999/xlink">
<g id="graph0" class="graph" transform="scale(1 1) rotate(0) translate(4 133)">
<title>Graphical Class Hierarchy</title>
<polygon fill="white" stroke="none" points="-4,4 -4,-133 534,-133 534,4 -4,4"/>
<!-- Node562 -->
<g id="node1" class="node"><title>Node562</title>
<g id="a_node1"><a xlink:href="de/df6/interfaceLearnCs_1_1Lib_1_1INumberArrayLikeClass.html" target="_top" xlink:title="Interface for an array&#45;like structures (potentially multidimensional) of number elements (with elemen...">
<polygon fill="white" stroke="black" points="0,-98.5 0,-128.5 134,-128.5 134,-98.5 0,-98.5"/>
<text text-anchor="start" x="8" y="-116.5" font-family="Helvetica,sans-Serif" font-size="10.00">LearnCs.Lib.INumberArray</text>
<text text-anchor="middle" x="67" y="-105.5" font-family="Helvetica,sans-Serif" font-size="10.00">LikeClass&lt; ElementType &gt;</text>
</a>
</g>
</g>
<!-- Node563 -->
<g id="node2" class="node"><title>Node563</title>
<g id="a_node2"><a xlink:href="dd/dd6/classLearnCs_1_1Lib_1_1NumberArrayLikeClass.html" target="_top" xlink:title="Abstract base class for an array&#45;like structures (potentially multidimensional) of number elements (w...">
<polygon fill="white" stroke="black" points="178,-98.5 178,-128.5 324,-128.5 324,-98.5 178,-98.5"/>
<text text-anchor="start" x="186" y="-116.5" font-family="Helvetica,sans-Serif" font-size="10.00">LearnCs.Lib.NumberArrayLike</text>
<text text-anchor="middle" x="251" y="-105.5" font-family="Helvetica,sans-Serif" font-size="10.00">Class&lt; ElementType &gt;</text>
</a>
</g>
</g>
<!-- Node562&#45;&gt;Node563 -->
<g id="edge1" class="edge"><title>Node562&#45;&gt;Node563</title>
<path fill="none" stroke="midnightblue" d="M144.35,-113.5C155.494,-113.5 166.938,-113.5 177.991,-113.5"/>
<polygon fill="midnightblue" stroke="midnightblue" points="144.221,-110 134.221,-113.5 144.221,-117 144.221,-110"/>
</g>
<!-- Node1 -->
<g id="node3" class="node"><title>Node1</title>
<g id="a_node3"><a xlink:href="d1/df7/classLearnCs_1_1Lib_1_1VectorBase.html" target="_top" xlink:title="Abstract base class for vectors with the specific element type (ElementType ).">
<polygon fill="white" stroke="black" points="388,-49.5 388,-79.5 510,-79.5 510,-49.5 388,-49.5"/>
<text text-anchor="start" x="396" y="-67.5" font-family="Helvetica,sans-Serif" font-size="10.00">LearnCs.Lib.VectorBase</text>
<text text-anchor="middle" x="449" y="-56.5" font-family="Helvetica,sans-Serif" font-size="10.00">&lt; ElementType &gt;</text>
</a>
</g>
</g>
<!-- Node563&#45;&gt;Node1 -->
<g id="edge2" class="edge"><title>Node563&#45;&gt;Node1</title>
<path fill="none" stroke="midnightblue" d="M321.907,-96.0232C343.51,-90.6225 367.102,-84.7245 387.975,-79.5062"/>
<polygon fill="midnightblue" stroke="midnightblue" points="320.991,-92.6445 312.138,-98.4654 322.689,-99.4355 320.991,-92.6445"/>
</g>
<!-- Node1&#45;&gt;Node1 -->
<g id="edge3" class="edge"><title>Node1&#45;&gt;Node1</title>
<path fill="none" stroke="midnightblue" d="M413.818,-89.9579C418.184,-94.679 429.912,-98 449,-98 480.324,-98 491.826,-89.0566 483.506,-79.659"/>
<polygon fill="midnightblue" stroke="midnightblue" points="417.331,-89.867 414.494,-79.659 410.346,-89.408 417.331,-89.867"/>
</g>
<!-- Node348 -->
<g id="node4" class="node"><title>Node348</title>
<g id="a_node4"><a xlink:href="db/d96/interfaceLearnCs_1_1Lib_1_1IVector.html" target="_top" xlink:title=" ">
<polygon fill="white" stroke="black" points="200,-0.5 200,-30.5 302,-30.5 302,-0.5 200,-0.5"/>
<text text-anchor="start" x="208" y="-18.5" font-family="Helvetica,sans-Serif" font-size="10.00">LearnCs.Lib.IVector</text>
<text text-anchor="middle" x="251" y="-7.5" font-family="Helvetica,sans-Serif" font-size="10.00">&lt; ElementType &gt;</text>
</a>
</g>
</g>
<!-- Node348&#45;&gt;Node1 -->
<g id="edge5" class="edge"><title>Node348&#45;&gt;Node1</title>
<path fill="none" stroke="midnightblue" d="M311.941,-30.4854C336.005,-36.5014 363.694,-43.4235 387.785,-49.4463"/>
<polygon fill="midnightblue" stroke="midnightblue" points="312.771,-27.085 302.22,-28.0551 311.073,-33.876 312.771,-27.085"/>
</g>
<!-- Node349 -->
<g id="node5" class="node"><title>Node349</title>
<g id="a_node5"><a xlink:href="db/d96/interfaceLearnCs_1_1Lib_1_1IVector.html" target="_top" xlink:title="Generic vecor interface that various vector types should implement.">
<polygon fill="white" stroke="black" points="368,-0.5 368,-30.5 530,-30.5 530,-0.5 368,-0.5"/>
<text text-anchor="start" x="376" y="-18.5" font-family="Helvetica,sans-Serif" font-size="10.00">LearnCs.Lib.IVector</text>
<text text-anchor="middle" x="449" y="-7.5" font-family="Helvetica,sans-Serif" font-size="10.00">&lt; ElementType, VectorRetType &gt;</text>
</a>
</g>
</g>
<!-- Node348&#45;&gt;Node349 -->
<g id="edge4" class="edge"><title>Node348&#45;&gt;Node349</title>
<path fill="none" stroke="midnightblue" d="M312.307,-15.5C329.848,-15.5 349.289,-15.5 367.846,-15.5"/>
<polygon fill="midnightblue" stroke="midnightblue" points="312.22,-12.0001 302.22,-15.5 312.22,-19.0001 312.22,-12.0001"/>
</g>
<!-- Node347 -->
<g id="node6" class="node"><title>Node347</title>
<g id="a_node6"><a xlink:href="db/d96/interfaceLearnCs_1_1Lib_1_1IVector.html" target="_top" xlink:title=" ">
<polygon fill="white" stroke="black" points="170,-49.5 170,-79.5 332,-79.5 332,-49.5 170,-49.5"/>
<text text-anchor="start" x="178" y="-67.5" font-family="Helvetica,sans-Serif" font-size="10.00">LearnCs.Lib.IVector</text>
<text text-anchor="middle" x="251" y="-56.5" font-family="Helvetica,sans-Serif" font-size="10.00">&lt; ElementType, VectorRetType &gt;</text>
</a>
</g>
</g>
<!-- Node347&#45;&gt;Node1 -->
<g id="edge6" class="edge"><title>Node347&#45;&gt;Node1</title>
<path fill="none" stroke="midnightblue" d="M342.117,-64.5C357.589,-64.5 373.326,-64.5 387.77,-64.5"/>
<polygon fill="midnightblue" stroke="midnightblue" points="342.003,-61.0001 332.003,-64.5 342.003,-68.0001 342.003,-61.0001"/>
</g>
</g>
</svg>
