<?xml version="1.0" encoding="UTF-8" standalone="no"?>
<!DOCTYPE svg PUBLIC "-//W3C//DTD SVG 1.1//EN"
 "http://www.w3.org/Graphics/SVG/1.1/DTD/svg11.dtd">
<!-- Generated by graphviz version 2.38.0 (20140413.2041)
 -->
<!-- Title: Graphical Class Hierarchy Pages: 1 -->
<svg width="281pt" height="88pt"
 viewBox="0.00 0.00 281.00 88.00" xmlns="http://www.w3.org/2000/svg" xmlns:xlink="http://www.w3.org/1999/xlink">
<g id="graph0" class="graph" transform="scale(1 1) rotate(0) translate(4 84)">
<title>Graphical Class Hierarchy</title>
<polygon fill="white" stroke="none" points="-4,4 -4,-84 277,-84 277,4 -4,4"/>
<!-- Node774 -->
<g id="node1" class="node"><title>Node774</title>
<g id="a_node1"><a xlink:title=" ">
<polygon fill="white" stroke="#bfbfbf" points="0,-30 0,-49 71,-49 71,-30 0,-30"/>
<text text-anchor="middle" x="35.5" y="-37" font-family="Helvetica,sans-Serif" font-size="10.00">IEnumerable</text>
</a>
</g>
</g>
<!-- Node0 -->
<g id="node2" class="node"><title>Node0</title>
<g id="a_node2"><a xlink:href="d7/da1/classIGLib_1_1Core_1_1MultiDimensionalIndexGenerator.html" target="_top" xlink:title="Utility class for generating indices for multidimensional arrays.">
<polygon fill="white" stroke="black" points="120,-49.5 120,-79.5 260,-79.5 260,-49.5 120,-49.5"/>
<text text-anchor="start" x="128" y="-67.5" font-family="Helvetica,sans-Serif" font-size="10.00">IGLib.Core.MultiDimensional</text>
<text text-anchor="middle" x="190" y="-56.5" font-family="Helvetica,sans-Serif" font-size="10.00">IndexGenerator</text>
</a>
</g>
</g>
<!-- Node774&#45;&gt;Node0 -->
<g id="edge1" class="edge"><title>Node774&#45;&gt;Node0</title>
<path fill="none" stroke="midnightblue" d="M81.001,-46.7952C93.1936,-48.794 106.705,-51.009 119.926,-53.1763"/>
<polygon fill="midnightblue" stroke="midnightblue" points="81.5391,-43.3368 71.1046,-45.1729 80.4066,-50.2446 81.5391,-43.3368"/>
</g>
<!-- Node776 -->
<g id="node3" class="node"><title>Node776</title>
<g id="a_node3"><a xlink:href="d7/dfd/classIGLib_1_1Tests_1_1Base_1_1SampleClasses_1_1CustomEnumerable.html" target="_top" xlink:title=" ">
<polygon fill="white" stroke="black" points="107,-0.5 107,-30.5 273,-30.5 273,-0.5 107,-0.5"/>
<text text-anchor="start" x="115" y="-18.5" font-family="Helvetica,sans-Serif" font-size="10.00">IGLib.Tests.Base.SampleClasses.</text>
<text text-anchor="middle" x="190" y="-7.5" font-family="Helvetica,sans-Serif" font-size="10.00">CustomEnumerable&lt; T &gt;</text>
</a>
</g>
</g>
<!-- Node774&#45;&gt;Node776 -->
<g id="edge2" class="edge"><title>Node774&#45;&gt;Node776</title>
<path fill="none" stroke="midnightblue" d="M81.1207,-32.4777C89.3067,-31.1894 98.0837,-29.8081 106.966,-28.4103"/>
<polygon fill="midnightblue" stroke="midnightblue" points="80.4389,-29.0419 71.1046,-34.054 81.5272,-35.9568 80.4389,-29.0419"/>
</g>
</g>
</svg>
