<?xml version="1.0" encoding="UTF-8" standalone="no"?>
<!DOCTYPE svg PUBLIC "-//W3C//DTD SVG 1.1//EN"
 "http://www.w3.org/Graphics/SVG/1.1/DTD/svg11.dtd">
<!-- Generated by graphviz version 2.38.0 (20140413.2041)
 -->
<!-- Title: Graphical Class Hierarchy Pages: 1 -->
<svg width="482pt" height="47pt"
 viewBox="0.00 0.00 482.00 47.00" xmlns="http://www.w3.org/2000/svg" xmlns:xlink="http://www.w3.org/1999/xlink">
<g id="graph0" class="graph" transform="scale(1 1) rotate(0) translate(4 43)">
<title>Graphical Class Hierarchy</title>
<polygon fill="white" stroke="none" points="-4,4 -4,-43 478,-43 478,4 -4,4"/>
<!-- Node0 -->
<g id="node1" class="node"><title>Node0</title>
<g id="a_node1"><a xlink:href="d0/d0b/interfaceIG_1_1Neural_1_1IDataMapper.html" target="_top" xlink:title=" ">
<polygon fill="white" stroke="black" points="0,-0.5 0,-19.5 115,-19.5 115,-0.5 0,-0.5"/>
<text text-anchor="middle" x="57.5" y="-7.5" font-family="Helvetica,sans-Serif" font-size="10.00">IG.Neural.IDataMapper</text>
</a>
</g>
</g>
<!-- Node1 -->
<g id="node2" class="node"><title>Node1</title>
<g id="a_node2"><a xlink:href="df/dec/classIG_1_1Neural_1_1DataMapperIdentity.html" target="_top" xlink:title=" ">
<polygon fill="white" stroke="black" points="151,-19.5 151,-38.5 295,-38.5 295,-19.5 151,-19.5"/>
<text text-anchor="middle" x="223" y="-26.5" font-family="Helvetica,sans-Serif" font-size="10.00">IG.Neural.DataMapperIdentity</text>
</a>
</g>
</g>
<!-- Node0&#45;&gt;Node1 -->
<g id="edge1" class="edge"><title>Node0&#45;&gt;Node1</title>
<path fill="none" stroke="midnightblue" d="M125.382,-17.7722C133.819,-18.7526 142.473,-19.7584 150.971,-20.7459"/>
<polygon fill="midnightblue" stroke="midnightblue" points="125.563,-14.2697 115.226,-16.592 124.755,-21.223 125.563,-14.2697"/>
</g>
<!-- Node2 -->
<g id="node3" class="node"><title>Node2</title>
<g id="a_node3"><a xlink:href="d7/d70/classIG_1_1Neural_1_1DataMapperSimple.html" target="_top" xlink:title=" ">
<polygon fill="white" stroke="black" points="331,-0.5 331,-19.5 474,-19.5 474,-0.5 331,-0.5"/>
<text text-anchor="middle" x="402.5" y="-7.5" font-family="Helvetica,sans-Serif" font-size="10.00">IG.Neural.DataMapperSimple</text>
</a>
</g>
</g>
<!-- Node0&#45;&gt;Node2 -->
<g id="edge3" class="edge"><title>Node0&#45;&gt;Node2</title>
<path fill="none" stroke="midnightblue" d="M125.491,-10C184.633,-10 270.575,-10 330.804,-10"/>
<polygon fill="midnightblue" stroke="midnightblue" points="125.14,-6.5001 115.139,-10 125.139,-13.5001 125.14,-6.5001"/>
</g>
<!-- Node1&#45;&gt;Node2 -->
<g id="edge2" class="edge"><title>Node1&#45;&gt;Node2</title>
<path fill="none" stroke="midnightblue" d="M305.184,-20.3099C313.765,-19.3913 322.442,-18.4626 330.889,-17.5583"/>
<polygon fill="midnightblue" stroke="midnightblue" points="304.744,-16.8369 295.173,-21.3815 305.489,-23.7971 304.744,-16.8369"/>
</g>
</g>
</svg>
