<?xml version="1.0" encoding="UTF-8" standalone="no"?>
<!DOCTYPE svg PUBLIC "-//W3C//DTD SVG 1.1//EN"
 "http://www.w3.org/Graphics/SVG/1.1/DTD/svg11.dtd">
<!-- Generated by graphviz version 2.38.0 (20140413.2041)
 -->
<!-- Title: Graphical Class Hierarchy Pages: 1 -->
<svg width="238pt" height="66pt"
 viewBox="0.00 0.00 238.00 66.00" xmlns="http://www.w3.org/2000/svg" xmlns:xlink="http://www.w3.org/1999/xlink">
<g id="graph0" class="graph" transform="scale(1 1) rotate(0) translate(4 62)">
<title>Graphical Class Hierarchy</title>
<polygon fill="white" stroke="none" points="-4,4 -4,-62 234,-62 234,4 -4,4"/>
<!-- Node596 -->
<g id="node1" class="node"><title>Node596</title>
<g id="a_node1"><a xlink:title=" ">
<polygon fill="white" stroke="#bfbfbf" points="0,-19.5 0,-38.5 48,-38.5 48,-19.5 0,-19.5"/>
<text text-anchor="middle" x="24" y="-26.5" font-family="Helvetica,sans-Serif" font-size="10.00">ILogger</text>
</a>
</g>
</g>
<!-- Node0 -->
<g id="node2" class="node"><title>Node0</title>
<g id="a_node2"><a xlink:href="d7/d1a/classIG_1_1SandboxTests_1_1XUnitLogger.html" target="_top" xlink:title=" ">
<polygon fill="white" stroke="black" points="84,-38.5 84,-57.5 230,-57.5 230,-38.5 84,-38.5"/>
<text text-anchor="middle" x="157" y="-45.5" font-family="Helvetica,sans-Serif" font-size="10.00">IG.SandboxTests.XUnitLogger</text>
</a>
</g>
</g>
<!-- Node596&#45;&gt;Node0 -->
<g id="edge1" class="edge"><title>Node596&#45;&gt;Node0</title>
<path fill="none" stroke="midnightblue" d="M58.232,-33.8199C68.0774,-35.2479 79.2194,-36.8639 90.3666,-38.4806"/>
<polygon fill="midnightblue" stroke="midnightblue" points="58.5175,-30.3248 48.1186,-32.3531 57.5127,-37.2523 58.5175,-30.3248"/>
</g>
<!-- Node598 -->
<g id="node3" class="node"><title>Node598</title>
<g id="a_node3"><a xlink:href="da/d6b/classIGLib_1_1Tests_1_1Base_1_1XUnitLogger.html" target="_top" xlink:title=" ">
<polygon fill="white" stroke="black" points="84,-0.5 84,-19.5 230,-19.5 230,-0.5 84,-0.5"/>
<text text-anchor="middle" x="157" y="-7.5" font-family="Helvetica,sans-Serif" font-size="10.00">IGLib.Tests.Base.XUnitLogger</text>
</a>
</g>
</g>
<!-- Node596&#45;&gt;Node598 -->
<g id="edge2" class="edge"><title>Node596&#45;&gt;Node598</title>
<path fill="none" stroke="midnightblue" d="M58.232,-24.1801C68.0774,-22.7521 79.2194,-21.1361 90.3666,-19.5194"/>
<polygon fill="midnightblue" stroke="midnightblue" points="57.5127,-20.7477 48.1186,-25.6469 58.5175,-27.6752 57.5127,-20.7477"/>
</g>
</g>
</svg>
