<?xml version="1.0" encoding="UTF-8" standalone="no"?>
<!DOCTYPE svg PUBLIC "-//W3C//DTD SVG 1.1//EN"
 "http://www.w3.org/Graphics/SVG/1.1/DTD/svg11.dtd">
<!-- Generated by graphviz version 2.38.0 (20140413.2041)
 -->
<!-- Title: Graphical Class Hierarchy Pages: 1 -->
<svg width="541pt" height="39pt"
 viewBox="0.00 0.00 541.00 39.00" xmlns="http://www.w3.org/2000/svg" xmlns:xlink="http://www.w3.org/1999/xlink">
<g id="graph0" class="graph" transform="scale(1 1) rotate(0) translate(4 35)">
<title>Graphical Class Hierarchy</title>
<polygon fill="white" stroke="none" points="-4,4 -4,-35 537,-35 537,4 -4,4"/>
<!-- Node0 -->
<g id="node1" class="node"><title>Node0</title>
<g id="a_node1"><a xlink:href="d7/dd8/classIG_1_1Lib_1_1SerializationDtoBase.html" target="_top" xlink:title=" ">
<polygon fill="white" stroke="black" points="0,-0.5 0,-30.5 182,-30.5 182,-0.5 0,-0.5"/>
<text text-anchor="start" x="8" y="-18.5" font-family="Helvetica,sans-Serif" font-size="10.00">IG.Lib.SerializationDtoBase</text>
<text text-anchor="middle" x="91" y="-7.5" font-family="Helvetica,sans-Serif" font-size="10.00">&lt; AnalysisResults, AnalysisResults &gt;</text>
</a>
</g>
</g>
<!-- Node1 -->
<g id="node2" class="node"><title>Node1</title>
<g id="a_node2"><a xlink:href="dc/ddd/classIG_1_1Num_1_1AnalysisRequestDto.html" target="_top" xlink:title="DTO (Data Transfer Objects) for storing contents of direct analysis request (in optimization problems...">
<polygon fill="white" stroke="black" points="218,-6 218,-25 359,-25 359,-6 218,-6"/>
<text text-anchor="middle" x="288.5" y="-13" font-family="Helvetica,sans-Serif" font-size="10.00">IG.Num.AnalysisRequestDto</text>
</a>
</g>
</g>
<!-- Node0&#45;&gt;Node1 -->
<g id="edge1" class="edge"><title>Node0&#45;&gt;Node1</title>
<path fill="none" stroke="midnightblue" d="M192.193,-15.5C200.858,-15.5 209.497,-15.5 217.838,-15.5"/>
<polygon fill="midnightblue" stroke="midnightblue" points="192.025,-12.0001 182.025,-15.5 192.025,-19.0001 192.025,-12.0001"/>
</g>
<!-- Node2 -->
<g id="node3" class="node"><title>Node2</title>
<g id="a_node3"><a xlink:href="d1/d22/classIG_1_1Num_1_1AnalysisResultsDto.html" target="_top" xlink:title="DTO (Data Transfer Objects) for storing contents of direct analysis request (in optimization problems...">
<polygon fill="white" stroke="black" points="395,-6 395,-25 533,-25 533,-6 395,-6"/>
<text text-anchor="middle" x="464" y="-13" font-family="Helvetica,sans-Serif" font-size="10.00">IG.Num.AnalysisResultsDto</text>
</a>
</g>
</g>
<!-- Node1&#45;&gt;Node2 -->
<g id="edge2" class="edge"><title>Node1&#45;&gt;Node2</title>
<path fill="none" stroke="midnightblue" d="M369.097,-15.5C377.693,-15.5 386.383,-15.5 394.827,-15.5"/>
<polygon fill="midnightblue" stroke="midnightblue" points="369.069,-12.0001 359.069,-15.5 369.069,-19.0001 369.069,-12.0001"/>
</g>
</g>
</svg>
