<?xml version="1.0" encoding="UTF-8" standalone="no"?>
<!DOCTYPE svg PUBLIC "-//W3C//DTD SVG 1.1//EN"
 "http://www.w3.org/Graphics/SVG/1.1/DTD/svg11.dtd">
<!-- Generated by graphviz version 2.38.0 (20140413.2041)
 -->
<!-- Title: Graphical Class Hierarchy Pages: 1 -->
<svg width="321pt" height="88pt"
 viewBox="0.00 0.00 321.00 88.00" xmlns="http://www.w3.org/2000/svg" xmlns:xlink="http://www.w3.org/1999/xlink">
<g id="graph0" class="graph" transform="scale(1 1) rotate(0) translate(4 84)">
<title>Graphical Class Hierarchy</title>
<polygon fill="white" stroke="none" points="-4,4 -4,-84 317,-84 317,4 -4,4"/>
<!-- Node554 -->
<g id="node1" class="node"><title>Node554</title>
<g id="a_node1"><a xlink:href="d5/dd6/interfaceIG_1_1Lib_1_1IObjectStore.html" target="_top" xlink:title=" ">
<polygon fill="white" stroke="black" points="0,-49.5 0,-79.5 136,-79.5 136,-49.5 0,-49.5"/>
<text text-anchor="start" x="8" y="-67.5" font-family="Helvetica,sans-Serif" font-size="10.00">IG.Lib.IObjectStore</text>
<text text-anchor="middle" x="68" y="-56.5" font-family="Helvetica,sans-Serif" font-size="10.00">&lt; IVectorFunctionResults &gt;</text>
</a>
</g>
</g>
<!-- Node1 -->
<g id="node2" class="node"><title>Node1</title>
<g id="a_node2"><a xlink:href="d4/d36/classIG_1_1Num_1_1VectorFunctionBaseGeneral_1_1ObjectStoreResults.html" target="_top" xlink:title="Storage for IVectorFunctionResults objects.">
<polygon fill="white" stroke="black" points="172,-24.5 172,-54.5 313,-54.5 313,-24.5 172,-24.5"/>
<text text-anchor="start" x="180" y="-42.5" font-family="Helvetica,sans-Serif" font-size="10.00">IG.Num.VectorFunctionBase</text>
<text text-anchor="middle" x="242.5" y="-31.5" font-family="Helvetica,sans-Serif" font-size="10.00">General.ObjectStoreResults</text>
</a>
</g>
</g>
<!-- Node554&#45;&gt;Node1 -->
<g id="edge1" class="edge"><title>Node554&#45;&gt;Node1</title>
<path fill="none" stroke="midnightblue" d="M146.181,-53.3143C154.76,-52.071 163.46,-50.8102 171.936,-49.5818"/>
<polygon fill="midnightblue" stroke="midnightblue" points="145.582,-49.8646 136.187,-54.7628 146.586,-56.7922 145.582,-49.8646"/>
</g>
<!-- Node0 -->
<g id="node3" class="node"><title>Node0</title>
<g id="a_node3"><a xlink:href="d7/d24/classIG_1_1Lib_1_1ObjectStore.html" target="_top" xlink:title=" ">
<polygon fill="white" stroke="black" points="0,-0.5 0,-30.5 136,-30.5 136,-0.5 0,-0.5"/>
<text text-anchor="start" x="8" y="-18.5" font-family="Helvetica,sans-Serif" font-size="10.00">IG.Lib.ObjectStore</text>
<text text-anchor="middle" x="68" y="-7.5" font-family="Helvetica,sans-Serif" font-size="10.00">&lt; IVectorFunctionResults &gt;</text>
</a>
</g>
</g>
<!-- Node0&#45;&gt;Node1 -->
<g id="edge2" class="edge"><title>Node0&#45;&gt;Node1</title>
<path fill="none" stroke="midnightblue" d="M146.181,-26.2383C154.76,-27.4318 163.46,-28.6422 171.936,-29.8215"/>
<polygon fill="midnightblue" stroke="midnightblue" points="146.574,-22.7593 136.187,-24.8477 145.609,-29.6925 146.574,-22.7593"/>
</g>
</g>
</svg>
