<?xml version="1.0" encoding="UTF-8" standalone="no"?>
<!DOCTYPE svg PUBLIC "-//W3C//DTD SVG 1.1//EN"
 "http://www.w3.org/Graphics/SVG/1.1/DTD/svg11.dtd">
<!-- Generated by graphviz version 2.38.0 (20140413.2041)
 -->
<!-- Title: IG.Num.NeuralApproximatorAForgeFakeDto Pages: 1 -->
<svg width="1360pt" height="337pt"
 viewBox="0.00 0.00 1360.00 336.61" xmlns="http://www.w3.org/2000/svg" xmlns:xlink="http://www.w3.org/1999/xlink">
<g id="graph0" class="graph" transform="scale(1 1) rotate(0) translate(4 332.607)">
<title>IG.Num.NeuralApproximatorAForgeFakeDto</title>
<polygon fill="white" stroke="none" points="-4,4 -4,-332.607 1356,-332.607 1356,4 -4,4"/>
<!-- Node1 -->
<g id="node1" class="node"><title>Node1</title>
<g id="a_node1"><a xlink:title="A data transfer object (DTO) for the NeuralApproximatorAforge class. $A Igor Mar11;">
<polygon fill="#bfbfbf" stroke="black" points="1214,-220.607 1214,-250.607 1352,-250.607 1352,-220.607 1214,-220.607"/>
<text text-anchor="start" x="1222" y="-238.607" font-family="Helvetica,sans-Serif" font-size="10.00">IG.Num.NeuralApproximator</text>
<text text-anchor="middle" x="1283" y="-227.607" font-family="Helvetica,sans-Serif" font-size="10.00">AForgeFakeDto</text>
</a>
</g>
</g>
<!-- Node2 -->
<g id="node2" class="node"><title>Node2</title>
<g id="a_node2"><a xlink:href="../../d1/d52/classIG_1_1Num_1_1NeuralApproximatorDtoBase.html" target="_top" xlink:title=" ">
<polygon fill="white" stroke="black" points="1007,-220.607 1007,-250.607 1177,-250.607 1177,-220.607 1007,-220.607"/>
<text text-anchor="start" x="1015" y="-238.607" font-family="Helvetica,sans-Serif" font-size="10.00">NeuralApproximatorDtoBase</text>
<text text-anchor="middle" x="1092" y="-227.607" font-family="Helvetica,sans-Serif" font-size="10.00">&lt; NeuralApproximatorAforgeFake &gt;</text>
</a>
</g>
</g>
<!-- Node2&#45;&gt;Node1 -->
<g id="edge1" class="edge"><title>Node2&#45;&gt;Node1</title>
<path fill="none" stroke="midnightblue" d="M1187.32,-235.607C1196.24,-235.607 1205.15,-235.607 1213.76,-235.607"/>
<polygon fill="midnightblue" stroke="midnightblue" points="1187.27,-232.107 1177.27,-235.607 1187.27,-239.107 1187.27,-232.107"/>
</g>
<!-- Node3 -->
<g id="node3" class="node"><title>Node3</title>
<g id="a_node3"><a xlink:href="../../db/dcd/classIG_1_1Lib_1_1BoundingBoxDtoBase.html" target="_top" xlink:title="Base class for various DTO (Data Transfer Objects) for bounding boxes. Used to store a state of a bou...">
<polygon fill="white" stroke="black" points="736.5,-286.607 736.5,-316.607 876.5,-316.607 876.5,-286.607 736.5,-286.607"/>
<text text-anchor="start" x="744.5" y="-304.607" font-family="Helvetica,sans-Serif" font-size="10.00">IG.Lib.BoundingBoxDtoBase</text>
<text text-anchor="middle" x="806.5" y="-293.607" font-family="Helvetica,sans-Serif" font-size="10.00">&lt; BoxType &gt;</text>
</a>
</g>
</g>
<!-- Node3&#45;&gt;Node2 -->
<g id="edge2" class="edge"><title>Node3&#45;&gt;Node2</title>
<path fill="none" stroke="#9a32cd" stroke-dasharray="5,2" d="M886.877,-286.782C918.74,-280.478 955.732,-272.714 989,-264.607 1005.99,-260.465 1024.42,-255.404 1040.88,-250.676"/>
<polygon fill="#9a32cd" stroke="#9a32cd" points="885.861,-283.415 876.723,-288.776 887.21,-290.283 885.861,-283.415"/>
<text text-anchor="middle" x="942" y="-320.607" font-family="Helvetica,sans-Serif" font-size="10.00"> InputDataBounds</text>
<text text-anchor="middle" x="942" y="-309.607" font-family="Helvetica,sans-Serif" font-size="10.00">OutputDataBounds</text>
<text text-anchor="middle" x="942" y="-298.607" font-family="Helvetica,sans-Serif" font-size="10.00">OutputNeuronsRange</text>
<text text-anchor="middle" x="942" y="-287.607" font-family="Helvetica,sans-Serif" font-size="10.00">InputNeuronsRange</text>
</g>
<!-- Node4 -->
<g id="node4" class="node"><title>Node4</title>
<g id="a_node4"><a xlink:href="../../d7/dd8/classIG_1_1Lib_1_1SerializationDtoBase.html" target="_top" xlink:title=" ">
<polygon fill="white" stroke="black" points="414.5,-287.607 414.5,-317.607 553.5,-317.607 553.5,-287.607 414.5,-287.607"/>
<text text-anchor="start" x="422.5" y="-305.607" font-family="Helvetica,sans-Serif" font-size="10.00">SerializationDtoBase</text>
<text text-anchor="middle" x="484" y="-294.607" font-family="Helvetica,sans-Serif" font-size="10.00">&lt; BoxType, IBoundingBox &gt;</text>
</a>
</g>
</g>
<!-- Node4&#45;&gt;Node3 -->
<g id="edge3" class="edge"><title>Node4&#45;&gt;Node3</title>
<path fill="none" stroke="midnightblue" d="M563.763,-302.361C616.612,-302.196 685.572,-301.981 736.306,-301.823"/>
<polygon fill="midnightblue" stroke="midnightblue" points="563.744,-298.861 553.755,-302.392 563.766,-305.861 563.744,-298.861"/>
</g>
<!-- Node5 -->
<g id="node5" class="node"><title>Node5</title>
<g id="a_node5"><a xlink:href="../../d2/d6e/classIG_1_1Lib_1_1IndexListDto.html" target="_top" xlink:title="Data Transfer Object (DTO) for index lists of type IndexList. Used to store, transfer,...">
<polygon fill="white" stroke="black" points="757,-247.107 757,-266.107 856,-266.107 856,-247.107 757,-247.107"/>
<text text-anchor="middle" x="806.5" y="-254.107" font-family="Helvetica,sans-Serif" font-size="10.00">IG.Lib.IndexListDto</text>
</a>
</g>
</g>
<!-- Node5&#45;&gt;Node2 -->
<g id="edge4" class="edge"><title>Node5&#45;&gt;Node2</title>
<path fill="none" stroke="#9a32cd" stroke-dasharray="5,2" d="M866.251,-252.255C906.894,-249.244 961.59,-245.193 1006.85,-241.84"/>
<polygon fill="#9a32cd" stroke="#9a32cd" points="865.949,-248.767 856.235,-252.997 866.467,-255.748 865.949,-248.767"/>
<text text-anchor="middle" x="942" y="-252.607" font-family="Helvetica,sans-Serif" font-size="10.00"> VerificationIndices</text>
</g>
<!-- Node6 -->
<g id="node6" class="node"><title>Node6</title>
<g id="a_node6"><a xlink:href="../../da/d46/classIG_1_1Lib_1_1SerializationDto.html" target="_top" xlink:title=" ">
<polygon fill="white" stroke="black" points="413,-249.107 413,-268.107 555,-268.107 555,-249.107 413,-249.107"/>
<text text-anchor="middle" x="484" y="-256.107" font-family="Helvetica,sans-Serif" font-size="10.00">SerializationDto&lt; IndexList &gt;</text>
</a>
</g>
</g>
<!-- Node6&#45;&gt;Node5 -->
<g id="edge5" class="edge"><title>Node6&#45;&gt;Node5</title>
<path fill="none" stroke="midnightblue" d="M565.563,-258.104C625.71,-257.729 705.948,-257.228 756.68,-256.911"/>
<polygon fill="midnightblue" stroke="midnightblue" points="565.313,-254.605 555.335,-258.168 565.357,-261.605 565.313,-254.605"/>
</g>
<!-- Node7 -->
<g id="node7" class="node"><title>Node7</title>
<g id="a_node7"><a xlink:href="../../dc/dec/classIG_1_1Lib_1_1VectorDtoBase.html" target="_top" xlink:title="Base class for various vector DTO (Data Transfer Objects) for vectors. Used to store a state of a vec...">
<polygon fill="white" stroke="black" points="168.5,-18.6066 168.5,-48.6066 279.5,-48.6066 279.5,-18.6066 168.5,-18.6066"/>
<text text-anchor="start" x="176.5" y="-36.6066" font-family="Helvetica,sans-Serif" font-size="10.00">IG.Lib.VectorDtoBase</text>
<text text-anchor="middle" x="224" y="-25.6066" font-family="Helvetica,sans-Serif" font-size="10.00">&lt; VectorType &gt;</text>
</a>
</g>
</g>
<!-- Node7&#45;&gt;Node2 -->
<g id="edge6" class="edge"><title>Node7&#45;&gt;Node2</title>
<path fill="none" stroke="#9a32cd" stroke-dasharray="5,2" d="M289.877,-20.8715C385.457,-4.61732 568.903,16.9652 718,-22.6066 868.279,-62.4921 1021.19,-178.698 1072.76,-220.448"/>
<polygon fill="#9a32cd" stroke="#9a32cd" points="289.039,-17.4646 279.785,-22.6239 290.236,-24.3614 289.039,-17.4646"/>
<text text-anchor="middle" x="650.5" y="-157.607" font-family="Helvetica,sans-Serif" font-size="10.00"> ConvergenceListRms</text>
<text text-anchor="start" x="583" y="-146.607" font-family="Helvetica,sans-Serif" font-size="10.00">ConvergenceErrorsVerification</text>
<text text-anchor="middle" x="650.5" y="-135.607" font-family="Helvetica,sans-Serif" font-size="10.00">RmsTable</text>
<text text-anchor="start" x="583" y="-124.607" font-family="Helvetica,sans-Serif" font-size="10.00">ConvergenceErrorsVerification</text>
<text text-anchor="middle" x="650.5" y="-113.607" font-family="Helvetica,sans-Serif" font-size="10.00">MaxTable</text>
<text text-anchor="start" x="583" y="-102.607" font-family="Helvetica,sans-Serif" font-size="10.00">ConvergenceErrorsTrainingMax</text>
<text text-anchor="middle" x="650.5" y="-91.6066" font-family="Helvetica,sans-Serif" font-size="10.00">Table</text>
<text text-anchor="middle" x="650.5" y="-80.6066" font-family="Helvetica,sans-Serif" font-size="10.00">ToleranceRms</text>
<text text-anchor="start" x="583" y="-69.6066" font-family="Helvetica,sans-Serif" font-size="10.00">ConvergenceErrorsTraining</text>
<text text-anchor="middle" x="650.5" y="-58.6066" font-family="Helvetica,sans-Serif" font-size="10.00">RmsTable</text>
<text text-anchor="middle" x="650.5" y="-47.6066" font-family="Helvetica,sans-Serif" font-size="10.00">ToleranceRmsRelativeToRange</text>
<text text-anchor="middle" x="650.5" y="-36.6066" font-family="Helvetica,sans-Serif" font-size="10.00">ToleranceMaxRelativeToRange</text>
<text text-anchor="middle" x="650.5" y="-25.6066" font-family="Helvetica,sans-Serif" font-size="10.00">ToleranceMax</text>
</g>
<!-- Node11 -->
<g id="node11" class="node"><title>Node11</title>
<g id="a_node11"><a xlink:href="../../d5/d0e/classIG_1_1Num_1_1SampledDataElementDto.html" target="_top" xlink:title="DTO (data transfer object) for sampled data element (one point with vectors of input and output param...">
<polygon fill="white" stroke="black" points="403,-138.107 403,-157.107 565,-157.107 565,-138.107 403,-138.107"/>
<text text-anchor="middle" x="484" y="-145.107" font-family="Helvetica,sans-Serif" font-size="10.00">IG.Num.SampledDataElementDto</text>
</a>
</g>
</g>
<!-- Node7&#45;&gt;Node11 -->
<g id="edge12" class="edge"><title>Node7&#45;&gt;Node11</title>
<path fill="none" stroke="#9a32cd" stroke-dasharray="5,2" d="M268.267,-52.7247C324.061,-77.3776 418.95,-119.306 461.38,-138.054"/>
<polygon fill="#9a32cd" stroke="#9a32cd" points="269.556,-49.4676 258.994,-48.6273 266.727,-55.8704 269.556,-49.4676"/>
<text text-anchor="middle" x="346.5" y="-118.607" font-family="Helvetica,sans-Serif" font-size="10.00"> _outputValues</text>
<text text-anchor="middle" x="346.5" y="-107.607" font-family="Helvetica,sans-Serif" font-size="10.00">_inputParameters</text>
</g>
<!-- Node8 -->
<g id="node8" class="node"><title>Node8</title>
<g id="a_node8"><a xlink:href="../../d7/dd8/classIG_1_1Lib_1_1SerializationDtoBase.html" target="_top" xlink:title=" ">
<polygon fill="white" stroke="black" points="0,-18.6066 0,-48.6066 121,-48.6066 121,-18.6066 0,-18.6066"/>
<text text-anchor="start" x="8" y="-36.6066" font-family="Helvetica,sans-Serif" font-size="10.00">SerializationDtoBase</text>
<text text-anchor="middle" x="60.5" y="-25.6066" font-family="Helvetica,sans-Serif" font-size="10.00">&lt; VectorType, IVector &gt;</text>
</a>
</g>
</g>
<!-- Node8&#45;&gt;Node7 -->
<g id="edge7" class="edge"><title>Node8&#45;&gt;Node7</title>
<path fill="none" stroke="midnightblue" d="M131.453,-33.6066C143.813,-33.6066 156.516,-33.6066 168.376,-33.6066"/>
<polygon fill="midnightblue" stroke="midnightblue" points="131.178,-30.1067 121.178,-33.6066 131.178,-37.1067 131.178,-30.1067"/>
</g>
<!-- Node9 -->
<g id="node9" class="node"><title>Node9</title>
<g id="a_node9"><a xlink:href="../../df/d6b/classIG_1_1Num_1_1SampledDataSetDto.html" target="_top" xlink:title="Data Transfer Object (DTO) for sampled data set.">
<polygon fill="white" stroke="black" points="736,-206.107 736,-225.107 877,-225.107 877,-206.107 736,-206.107"/>
<text text-anchor="middle" x="806.5" y="-213.107" font-family="Helvetica,sans-Serif" font-size="10.00">IG.Num.SampledDataSetDto</text>
</a>
</g>
</g>
<!-- Node9&#45;&gt;Node2 -->
<g id="edge8" class="edge"><title>Node9&#45;&gt;Node2</title>
<path fill="none" stroke="#9a32cd" stroke-dasharray="5,2" d="M887.501,-216.469C919.155,-217.276 955.834,-218.79 989,-221.607 994.788,-222.098 1000.75,-222.691 1006.75,-223.35"/>
<polygon fill="#9a32cd" stroke="#9a32cd" points="887.491,-212.968 877.412,-216.232 887.326,-219.966 887.491,-212.968"/>
<text text-anchor="middle" x="942" y="-224.607" font-family="Helvetica,sans-Serif" font-size="10.00"> TrainingData</text>
</g>
<!-- Node10 -->
<g id="node10" class="node"><title>Node10</title>
<g id="a_node10"><a xlink:href="../../da/d46/classIG_1_1Lib_1_1SerializationDto.html" target="_top" xlink:title=" ">
<polygon fill="white" stroke="black" points="418,-199.607 418,-229.607 550,-229.607 550,-199.607 418,-199.607"/>
<text text-anchor="start" x="426" y="-217.607" font-family="Helvetica,sans-Serif" font-size="10.00">SerializationDto&lt; Sampled</text>
<text text-anchor="middle" x="484" y="-206.607" font-family="Helvetica,sans-Serif" font-size="10.00">DataSet &gt;</text>
</a>
</g>
</g>
<!-- Node10&#45;&gt;Node9 -->
<g id="edge9" class="edge"><title>Node10&#45;&gt;Node9</title>
<path fill="none" stroke="midnightblue" d="M560.289,-214.842C613.424,-215.007 684.089,-215.228 735.908,-215.389"/>
<polygon fill="midnightblue" stroke="midnightblue" points="560.255,-211.341 550.244,-214.81 560.233,-218.341 560.255,-211.341"/>
</g>
<!-- Node11&#45;&gt;Node9 -->
<g id="edge10" class="edge"><title>Node11&#45;&gt;Node9</title>
<path fill="none" stroke="#9a32cd" stroke-dasharray="5,2" d="M539.946,-159.264C602.298,-172.494 702.815,-193.82 760.644,-206.09"/>
<polygon fill="#9a32cd" stroke="#9a32cd" points="540.41,-155.785 529.902,-157.133 538.957,-162.633 540.41,-155.785"/>
<text text-anchor="middle" x="650.5" y="-198.607" font-family="Helvetica,sans-Serif" font-size="10.00"> _elements</text>
</g>
<!-- Node12 -->
<g id="node12" class="node"><title>Node12</title>
<g id="a_node12"><a xlink:href="../../da/d46/classIG_1_1Lib_1_1SerializationDto.html" target="_top" xlink:title=" ">
<polygon fill="white" stroke="black" points="158,-132.607 158,-162.607 290,-162.607 290,-132.607 158,-132.607"/>
<text text-anchor="start" x="166" y="-150.607" font-family="Helvetica,sans-Serif" font-size="10.00">SerializationDto&lt; Sampled</text>
<text text-anchor="middle" x="224" y="-139.607" font-family="Helvetica,sans-Serif" font-size="10.00">DataElement &gt;</text>
</a>
</g>
</g>
<!-- Node12&#45;&gt;Node11 -->
<g id="edge11" class="edge"><title>Node12&#45;&gt;Node11</title>
<path fill="none" stroke="midnightblue" d="M300.335,-147.607C332.473,-147.607 370.018,-147.607 402.682,-147.607"/>
<polygon fill="midnightblue" stroke="midnightblue" points="300.104,-144.107 290.104,-147.607 300.104,-151.107 300.104,-144.107"/>
</g>
</g>
</svg>
