<?xml version="1.0" encoding="UTF-8" standalone="no"?>
<!DOCTYPE svg PUBLIC "-//W3C//DTD SVG 1.1//EN"
 "http://www.w3.org/Graphics/SVG/1.1/DTD/svg11.dtd">
<!-- Generated by graphviz version 2.38.0 (20140413.2041)
 -->
<!-- Title: LearnCs.Lib.NumberArrayLikeClass&lt; ElementType &gt; Pages: 1 -->
<svg width="154pt" height="173pt"
 viewBox="0.00 0.00 154.00 173.00" xmlns="http://www.w3.org/2000/svg" xmlns:xlink="http://www.w3.org/1999/xlink">
<g id="graph0" class="graph" transform="scale(1 1) rotate(0) translate(4 169)">
<title>LearnCs.Lib.NumberArrayLikeClass&lt; ElementType &gt;</title>
<polygon fill="white" stroke="none" points="-4,4 -4,-169 150,-169 150,4 -4,4"/>
<!-- Node1 -->
<g id="node1" class="node"><title>Node1</title>
<g id="a_node1"><a xlink:title="Abstract base class for an array&#45;like structures (potentially multidimensional) of number elements (w...">
<polygon fill="#bfbfbf" stroke="black" points="0,-67.5 0,-97.5 146,-97.5 146,-67.5 0,-67.5"/>
<text text-anchor="start" x="8" y="-85.5" font-family="Helvetica,sans-Serif" font-size="10.00">LearnCs.Lib.NumberArrayLike</text>
<text text-anchor="middle" x="73" y="-74.5" font-family="Helvetica,sans-Serif" font-size="10.00">Class&lt; ElementType &gt;</text>
</a>
</g>
</g>
<!-- Node3 -->
<g id="node3" class="node"><title>Node3</title>
<g id="a_node3"><a xlink:href="../../d1/df7/classLearnCs_1_1Lib_1_1VectorBase.html" target="_top" xlink:title="Abstract base class for vectors of different element types (with element types being number types lik...">
<polygon fill="white" stroke="black" points="9,-0.5 9,-30.5 137,-30.5 137,-0.5 9,-0.5"/>
<text text-anchor="start" x="17" y="-18.5" font-family="Helvetica,sans-Serif" font-size="10.00">LearnCs::Lib::VectorBase</text>
<text text-anchor="middle" x="73" y="-7.5" font-family="Helvetica,sans-Serif" font-size="10.00">&lt; ElementType &gt;</text>
</a>
</g>
</g>
<!-- Node1&#45;&gt;Node3 -->
<g id="edge2" class="edge"><title>Node1&#45;&gt;Node3</title>
<path fill="none" stroke="midnightblue" d="M73,-57.1081C73,-48.1539 73,-38.3227 73,-30.5765"/>
<polygon fill="midnightblue" stroke="midnightblue" points="69.5001,-57.3959 73,-67.396 76.5001,-57.396 69.5001,-57.3959"/>
</g>
<!-- Node2 -->
<g id="node2" class="node"><title>Node2</title>
<g id="a_node2"><a xlink:href="../../de/df6/interfaceLearnCs_1_1Lib_1_1INumberArrayLikeClass.html" target="_top" xlink:title="Interface for an array&#45;like structures (potentially multidimensional) of number elements (with elemen...">
<polygon fill="white" stroke="black" points="13.5,-134.5 13.5,-164.5 132.5,-164.5 132.5,-134.5 13.5,-134.5"/>
<text text-anchor="start" x="21.5" y="-152.5" font-family="Helvetica,sans-Serif" font-size="10.00">INumberArrayLikeClass</text>
<text text-anchor="middle" x="73" y="-141.5" font-family="Helvetica,sans-Serif" font-size="10.00">&lt; ElementType &gt;</text>
</a>
</g>
</g>
<!-- Node2&#45;&gt;Node1 -->
<g id="edge1" class="edge"><title>Node2&#45;&gt;Node1</title>
<path fill="none" stroke="midnightblue" d="M73,-124.108C73,-115.154 73,-105.323 73,-97.5765"/>
<polygon fill="midnightblue" stroke="midnightblue" points="69.5001,-124.396 73,-134.396 76.5001,-124.396 69.5001,-124.396"/>
</g>
</g>
</svg>
