<?xml version="1.0" encoding="UTF-8" standalone="no"?>
<!DOCTYPE svg PUBLIC "-//W3C//DTD SVG 1.1//EN"
 "http://www.w3.org/Graphics/SVG/1.1/DTD/svg11.dtd">
<!-- Generated by graphviz version 2.38.0 (20140413.2041)
 -->
<!-- Title: IG.Reflection.ISerializationBinder Pages: 1 -->
<svg width="636pt" height="159pt"
 viewBox="0.00 0.00 636.00 159.00" xmlns="http://www.w3.org/2000/svg" xmlns:xlink="http://www.w3.org/1999/xlink">
<g id="graph0" class="graph" transform="scale(1 1) rotate(0) translate(4 155)">
<title>IG.Reflection.ISerializationBinder</title>
<polygon fill="white" stroke="none" points="-4,4 -4,-155 632,-155 632,4 -4,4"/>
<!-- Node1 -->
<g id="node1" class="node"><title>Node1</title>
<g id="a_node1"><a xlink:title="Interface implemented by IGLib&#39;s classes based on the framework&#39;s SerializationBinder class.">
<polygon fill="#bfbfbf" stroke="black" points="0,-60.5 0,-90.5 131,-90.5 131,-60.5 0,-60.5"/>
<text text-anchor="start" x="8" y="-78.5" font-family="Helvetica,sans-Serif" font-size="10.00">IG.Reflection.ISerialization</text>
<text text-anchor="middle" x="65.5" y="-67.5" font-family="Helvetica,sans-Serif" font-size="10.00">Binder</text>
</a>
</g>
</g>
<!-- Node2 -->
<g id="node2" class="node"><title>Node2</title>
<g id="a_node2"><a xlink:href="../../db/dfd/classIG_1_1Reflection_1_1SerializationBinderBase.html" target="_top" xlink:title="Enables to reference classes that both inherit from the framework&#39;s SerializationBinder (necessary fo...">
<polygon fill="white" stroke="black" points="167,-60.5 167,-90.5 295,-90.5 295,-60.5 167,-60.5"/>
<text text-anchor="start" x="175" y="-78.5" font-family="Helvetica,sans-Serif" font-size="10.00">IG.Reflection.Serialization</text>
<text text-anchor="middle" x="231" y="-67.5" font-family="Helvetica,sans-Serif" font-size="10.00">BinderBase</text>
</a>
</g>
</g>
<!-- Node1&#45;&gt;Node2 -->
<g id="edge1" class="edge"><title>Node1&#45;&gt;Node2</title>
<path fill="none" stroke="midnightblue" d="M141.156,-75.5C149.766,-75.5 158.482,-75.5 166.918,-75.5"/>
<polygon fill="midnightblue" stroke="midnightblue" points="141.12,-72.0001 131.12,-75.5 141.119,-79.0001 141.12,-72.0001"/>
</g>
<!-- Node3 -->
<g id="node3" class="node"><title>Node3</title>
<g id="a_node3"><a xlink:href="../../d3/dae/classIG_1_1Reflection_1_1SerializationBinderCascadedImmutable.html" target="_top" xlink:title="A cascaded SerializationBinder class that maps the assembly and type information of the serialized ob...">
<polygon fill="white" stroke="black" points="331,-98.5 331,-128.5 464,-128.5 464,-98.5 331,-98.5"/>
<text text-anchor="start" x="339" y="-116.5" font-family="Helvetica,sans-Serif" font-size="10.00">IG.Reflection.Serialization</text>
<text text-anchor="middle" x="397.5" y="-105.5" font-family="Helvetica,sans-Serif" font-size="10.00">BinderCascadedImmutable</text>
</a>
</g>
</g>
<!-- Node1&#45;&gt;Node3 -->
<g id="edge7" class="edge"><title>Node1&#45;&gt;Node3</title>
<path fill="none" stroke="midnightblue" d="M131.466,-92.7507C143.224,-95.3755 155.425,-97.7782 167,-99.5 221.882,-107.664 284.826,-111.09 330.896,-112.516"/>
<polygon fill="midnightblue" stroke="midnightblue" points="132.249,-89.3393 121.718,-90.5037 130.676,-96.1605 132.249,-89.3393"/>
</g>
<!-- Node4 -->
<g id="node4" class="node"><title>Node4</title>
<g id="a_node4"><a xlink:href="../../d1/d07/classIG_1_1Reflection_1_1SerializationBinderCascaded.html" target="_top" xlink:title="A cascaded SerializationBinder class that maps the assembly and type information of the serialized ob...">
<polygon fill="white" stroke="black" points="500,-120.5 500,-150.5 628,-150.5 628,-120.5 500,-120.5"/>
<text text-anchor="start" x="508" y="-138.5" font-family="Helvetica,sans-Serif" font-size="10.00">IG.Reflection.Serialization</text>
<text text-anchor="middle" x="564" y="-127.5" font-family="Helvetica,sans-Serif" font-size="10.00">BinderCascaded</text>
</a>
</g>
</g>
<!-- Node1&#45;&gt;Node4 -->
<g id="edge6" class="edge"><title>Node1&#45;&gt;Node4</title>
<path fill="none" stroke="midnightblue" d="M103.687,-94.9477C122.234,-103.819 145.293,-113.632 167,-119.5 281.246,-150.382 420.735,-146.989 499.974,-141.437"/>
<polygon fill="midnightblue" stroke="midnightblue" points="105.221,-91.8022 94.7002,-90.5553 102.147,-98.0912 105.221,-91.8022"/>
</g>
<!-- Node5 -->
<g id="node5" class="node"><title>Node5</title>
<g id="a_node5"><a xlink:href="../../da/daa/classIG_1_1Reflection_1_1SerializationBinderSimple.html" target="_top" xlink:title="A simple SerializationBinder, defines a single mapping from the original assembly and type name to a ...">
<polygon fill="white" stroke="black" points="333.5,-22.5 333.5,-52.5 461.5,-52.5 461.5,-22.5 333.5,-22.5"/>
<text text-anchor="start" x="341.5" y="-40.5" font-family="Helvetica,sans-Serif" font-size="10.00">IG.Reflection.Serialization</text>
<text text-anchor="middle" x="397.5" y="-29.5" font-family="Helvetica,sans-Serif" font-size="10.00">BinderSimple</text>
</a>
</g>
</g>
<!-- Node1&#45;&gt;Node5 -->
<g id="edge9" class="edge"><title>Node1&#45;&gt;Node5</title>
<path fill="none" stroke="midnightblue" d="M128.95,-58.0465C141.466,-55.0927 154.586,-52.3787 167,-50.5 222.834,-42.0504 287.061,-38.9699 333.344,-37.9045"/>
<polygon fill="midnightblue" stroke="midnightblue" points="127.953,-54.6869 119.066,-60.4554 129.61,-61.4878 127.953,-54.6869"/>
</g>
<!-- Node6 -->
<g id="node6" class="node"><title>Node6</title>
<g id="a_node6"><a xlink:href="../../da/d8e/classIG_1_1Reflection_1_1SerializationBinderElementary.html" target="_top" xlink:title="A SerializationBinder, defines a single mapping from the original assembly and type name to a target ...">
<polygon fill="white" stroke="black" points="500,-0.5 500,-30.5 628,-30.5 628,-0.5 500,-0.5"/>
<text text-anchor="start" x="508" y="-18.5" font-family="Helvetica,sans-Serif" font-size="10.00">IG.Reflection.Serialization</text>
<text text-anchor="middle" x="564" y="-7.5" font-family="Helvetica,sans-Serif" font-size="10.00">BinderElementary</text>
</a>
</g>
</g>
<!-- Node1&#45;&gt;Node6 -->
<g id="edge8" class="edge"><title>Node1&#45;&gt;Node6</title>
<path fill="none" stroke="midnightblue" d="M108.361,-56.2343C126.118,-48.7506 147.242,-40.7362 167,-35.5 281.283,-5.21286 420.463,-6.56282 499.694,-10.7317"/>
<polygon fill="midnightblue" stroke="midnightblue" points="106.675,-53.1493 98.872,-60.3163 109.441,-59.5796 106.675,-53.1493"/>
</g>
<!-- Node2&#45;&gt;Node3 -->
<g id="edge2" class="edge"><title>Node2&#45;&gt;Node3</title>
<path fill="none" stroke="midnightblue" d="M304.97,-92.3564C313.76,-94.3868 322.692,-96.4502 331.36,-98.4524"/>
<polygon fill="midnightblue" stroke="midnightblue" points="305.661,-88.9238 295.13,-90.0831 304.085,-95.7441 305.661,-88.9238"/>
</g>
<!-- Node2&#45;&gt;Node5 -->
<g id="edge4" class="edge"><title>Node2&#45;&gt;Node5</title>
<path fill="none" stroke="midnightblue" d="M304.903,-58.6591C314.361,-56.4744 323.985,-54.2512 333.268,-52.1069"/>
<polygon fill="midnightblue" stroke="midnightblue" points="304.085,-55.2559 295.13,-60.9169 305.661,-62.0762 304.085,-55.2559"/>
</g>
<!-- Node3&#45;&gt;Node4 -->
<g id="edge3" class="edge"><title>Node3&#45;&gt;Node4</title>
<path fill="none" stroke="midnightblue" d="M474.427,-123.654C482.972,-124.797 491.608,-125.952 499.964,-127.07"/>
<polygon fill="midnightblue" stroke="midnightblue" points="474.836,-120.178 464.461,-122.321 473.908,-127.116 474.836,-120.178"/>
</g>
<!-- Node5&#45;&gt;Node6 -->
<g id="edge5" class="edge"><title>Node5&#45;&gt;Node6</title>
<path fill="none" stroke="midnightblue" d="M471.702,-27.7101C481.063,-26.4581 490.583,-25.185 499.768,-23.9566"/>
<polygon fill="midnightblue" stroke="midnightblue" points="471.077,-24.2624 461.63,-29.0571 472.005,-31.2006 471.077,-24.2624"/>
</g>
</g>
</svg>
