<?xml version="1.0" encoding="UTF-8" standalone="no"?>
<!DOCTYPE svg PUBLIC "-//W3C//DTD SVG 1.1//EN"
 "http://www.w3.org/Graphics/SVG/1.1/DTD/svg11.dtd">
<!-- Generated by graphviz version 2.38.0 (20140413.2041)
 -->
<!-- Title: IG.Num.ConstMisc Pages: 1 -->
<svg width="156pt" height="205pt"
 viewBox="0.00 0.00 155.50 205.00" xmlns="http://www.w3.org/2000/svg" xmlns:xlink="http://www.w3.org/1999/xlink">
<g id="graph0" class="graph" transform="scale(1 1) rotate(0) translate(4 201)">
<title>IG.Num.ConstMisc</title>
<polygon fill="white" stroke="none" points="-4,4 -4,-201 151.5,-201 151.5,4 -4,4"/>
<!-- Node1 -->
<g id="node1" class="node"><title>Node1</title>
<g id="a_node1"><a xlink:title="Miscellaneous constants.">
<polygon fill="#bfbfbf" stroke="black" points="0,-0.5 0,-19.5 99,-19.5 99,-0.5 0,-0.5"/>
<text text-anchor="middle" x="49.5" y="-7.5" font-family="Helvetica,sans-Serif" font-size="10.00">IG.Num.ConstMisc</text>
</a>
</g>
</g>
<!-- Node2 -->
<g id="node2" class="node"><title>Node2</title>
<g id="a_node2"><a xlink:title=" ">
<polygon fill="white" stroke="#bfbfbf" points="29,-177.5 29,-196.5 70,-196.5 70,-177.5 29,-177.5"/>
<text text-anchor="middle" x="49.5" y="-184.5" font-family="Helvetica,sans-Serif" font-size="10.00">static</text>
</a>
</g>
</g>
<!-- Node2&#45;&gt;Node1 -->
<g id="edge1" class="edge"><title>Node2&#45;&gt;Node1</title>
<path fill="none" stroke="#9a32cd" stroke-dasharray="5,2" d="M49.5,-166.951C49.5,-129.297 49.5,-46.6537 49.5,-19.6932"/>
<polygon fill="#9a32cd" stroke="#9a32cd" points="46.0001,-167.081 49.5,-177.081 53.0001,-167.081 46.0001,-167.081"/>
<text text-anchor="middle" x="98.5" y="-151" font-family="Helvetica,sans-Serif" font-size="10.00"> MoonApogee</text>
<text text-anchor="middle" x="98.5" y="-140" font-family="Helvetica,sans-Serif" font-size="10.00">EarthAlbedo</text>
<text text-anchor="middle" x="98.5" y="-129" font-family="Helvetica,sans-Serif" font-size="10.00">MoonEarthDistance</text>
<text text-anchor="middle" x="98.5" y="-118" font-family="Helvetica,sans-Serif" font-size="10.00">MoonEquatorialGravity</text>
<text text-anchor="middle" x="98.5" y="-107" font-family="Helvetica,sans-Serif" font-size="10.00">LightYear</text>
<text text-anchor="middle" x="98.5" y="-96" font-family="Helvetica,sans-Serif" font-size="10.00">MoonMass</text>
<text text-anchor="middle" x="98.5" y="-85" font-family="Helvetica,sans-Serif" font-size="10.00">MoonPolarRadius</text>
<text text-anchor="middle" x="98.5" y="-74" font-family="Helvetica,sans-Serif" font-size="10.00">MoonDensity</text>
<text text-anchor="middle" x="98.5" y="-63" font-family="Helvetica,sans-Serif" font-size="10.00">EarthRotationPeriod</text>
<text text-anchor="middle" x="98.5" y="-52" font-family="Helvetica,sans-Serif" font-size="10.00">EarthDensity</text>
<text text-anchor="middle" x="98.5" y="-41" font-family="Helvetica,sans-Serif" font-size="10.00">...</text>
</g>
</g>
</svg>
