<?xml version="1.0" encoding="UTF-8" standalone="no"?>
<!DOCTYPE svg PUBLIC "-//W3C//DTD SVG 1.1//EN"
 "http://www.w3.org/Graphics/SVG/1.1/DTD/svg11.dtd">
<!-- Generated by graphviz version 2.38.0 (20140413.2041)
 -->
<!-- Title: IG.Num.LinearBasisSafer Pages: 1 -->
<svg width="708pt" height="343pt"
 viewBox="0.00 0.00 707.50 343.00" xmlns="http://www.w3.org/2000/svg" xmlns:xlink="http://www.w3.org/1999/xlink">
<g id="graph0" class="graph" transform="scale(1 1) rotate(0) translate(4 339)">
<title>IG.Num.LinearBasisSafer</title>
<polygon fill="white" stroke="none" points="-4,4 -4,-339 703.5,-339 703.5,4 -4,4"/>
<!-- Node1 -->
<g id="node1" class="node"><title>Node1</title>
<g id="a_node1"><a xlink:title="The same as LinearBasis, just that it has more meaningful error reporting (but is therefore slower).">
<polygon fill="#bfbfbf" stroke="black" points="519.5,-0.5 519.5,-19.5 645.5,-19.5 645.5,-0.5 519.5,-0.5"/>
<text text-anchor="middle" x="582.5" y="-7.5" font-family="Helvetica,sans-Serif" font-size="10.00">IG.Num.LinearBasisSafer</text>
</a>
</g>
</g>
<!-- Node2 -->
<g id="node2" class="node"><title>Node2</title>
<g id="a_node2"><a xlink:href="../../da/d4f/classIG_1_1Num_1_1LinearBasis.html" target="_top" xlink:title="Vector function containing lineer basis in a n&#45;dimensional vector space. Composed of n+1 functions: 1...">
<polygon fill="white" stroke="black" points="548.5,-57.5 548.5,-76.5 616.5,-76.5 616.5,-57.5 548.5,-57.5"/>
<text text-anchor="middle" x="582.5" y="-64.5" font-family="Helvetica,sans-Serif" font-size="10.00">LinearBasis</text>
</a>
</g>
</g>
<!-- Node2&#45;&gt;Node1 -->
<g id="edge1" class="edge"><title>Node2&#45;&gt;Node1</title>
<path fill="none" stroke="midnightblue" d="M582.5,-47.1166C582.5,-37.8173 582.5,-27.0557 582.5,-19.7149"/>
<polygon fill="midnightblue" stroke="midnightblue" points="579,-47.4062 582.5,-57.4063 586,-47.4063 579,-47.4062"/>
</g>
<!-- Node3 -->
<g id="node3" class="node"><title>Node3</title>
<g id="a_node3"><a xlink:href="../../dc/df8/classIG_1_1Num_1_1VectorFunctionBaseComponentWise.html" target="_top" xlink:title="Base class for defining Vector functions whose component&#45;wise evaluation is defined directly.">
<polygon fill="white" stroke="black" points="494,-114.5 494,-133.5 671,-133.5 671,-114.5 494,-114.5"/>
<text text-anchor="middle" x="582.5" y="-121.5" font-family="Helvetica,sans-Serif" font-size="10.00">VectorFunctionBaseComponentWise</text>
</a>
</g>
</g>
<!-- Node3&#45;&gt;Node2 -->
<g id="edge2" class="edge"><title>Node3&#45;&gt;Node2</title>
<path fill="none" stroke="midnightblue" d="M582.5,-104.117C582.5,-94.8173 582.5,-84.0557 582.5,-76.7149"/>
<polygon fill="midnightblue" stroke="midnightblue" points="579,-104.406 582.5,-114.406 586,-104.406 579,-104.406"/>
</g>
<!-- Node4 -->
<g id="node4" class="node"><title>Node4</title>
<g id="a_node4"><a xlink:href="../../dc/d23/classIG_1_1Num_1_1VectorFunctionBaseGeneral.html" target="_top" xlink:title="Base class for VectorFunctionBase and VectorFunctionBaseComponentwise. In general,...">
<polygon fill="white" stroke="black" points="277,-181.5 277,-200.5 416,-200.5 416,-181.5 277,-181.5"/>
<text text-anchor="middle" x="346.5" y="-188.5" font-family="Helvetica,sans-Serif" font-size="10.00">VectorFunctionBaseGeneral</text>
</a>
</g>
</g>
<!-- Node4&#45;&gt;Node3 -->
<g id="edge3" class="edge"><title>Node4&#45;&gt;Node3</title>
<path fill="none" stroke="midnightblue" d="M387.629,-178.672C434.297,-165.819 509.366,-145.143 551.407,-133.564"/>
<polygon fill="midnightblue" stroke="midnightblue" points="386.551,-175.339 377.839,-181.369 388.409,-182.087 386.551,-175.339"/>
</g>
<!-- Node10 -->
<g id="node10" class="node"><title>Node10</title>
<g id="a_node10"><a xlink:href="../../da/de7/classIG_1_1Num_1_1VectorFunctionBase.html" target="_top" xlink:title="Base class for defining Vector functions whose evaluation is defined in bulk, and evaluation of indiv...">
<polygon fill="white" stroke="black" points="273,-114.5 273,-133.5 414,-133.5 414,-114.5 273,-114.5"/>
<text text-anchor="middle" x="343.5" y="-121.5" font-family="Helvetica,sans-Serif" font-size="10.00">IG.Num.VectorFunctionBase</text>
</a>
</g>
</g>
<!-- Node4&#45;&gt;Node10 -->
<g id="edge11" class="edge"><title>Node4&#45;&gt;Node10</title>
<path fill="none" stroke="midnightblue" d="M357.171,-172.309C359.77,-165.958 361.338,-158.708 359.5,-152 357.714,-145.484 353.905,-138.945 350.451,-133.935"/>
<polygon fill="midnightblue" stroke="midnightblue" points="353.991,-170.841 352.58,-181.342 360.231,-174.013 353.991,-170.841"/>
</g>
<!-- Node5 -->
<g id="node5" class="node"><title>Node5</title>
<g id="a_node5"><a xlink:href="../../da/d06/interfaceIG_1_1Num_1_1IVectorFunction.html" target="_top" xlink:title="Vector function of a vector argument.">
<polygon fill="white" stroke="black" points="421,-248.5 421,-267.5 506,-267.5 506,-248.5 421,-248.5"/>
<text text-anchor="middle" x="463.5" y="-255.5" font-family="Helvetica,sans-Serif" font-size="10.00">IVectorFunction</text>
</a>
</g>
</g>
<!-- Node5&#45;&gt;Node2 -->
<g id="edge16" class="edge"><title>Node5&#45;&gt;Node2</title>
<path fill="none" stroke="midnightblue" d="M465.411,-238.131C469.257,-201.576 478.188,-123.815 485.5,-114 500.533,-93.823 526.685,-82.1342 548.05,-75.5923"/>
<polygon fill="midnightblue" stroke="midnightblue" points="461.895,-238.107 464.35,-248.414 468.858,-238.826 461.895,-238.107"/>
</g>
<!-- Node5&#45;&gt;Node3 -->
<g id="edge14" class="edge"><title>Node5&#45;&gt;Node3</title>
<path fill="none" stroke="midnightblue" d="M483.341,-242.23C487.877,-238.464 492.528,-234.267 496.5,-230 525.402,-198.952 523.08,-183.49 551.5,-152 557.525,-145.324 565.129,-138.679 571.298,-133.652"/>
<polygon fill="midnightblue" stroke="midnightblue" points="481.135,-239.512 475.47,-248.465 485.482,-244.998 481.135,-239.512"/>
</g>
<!-- Node5&#45;&gt;Node4 -->
<g id="edge4" class="edge"><title>Node5&#45;&gt;Node4</title>
<path fill="none" stroke="midnightblue" d="M438.817,-243.287C415.628,-230.405 381.644,-211.524 362.029,-200.627"/>
<polygon fill="midnightblue" stroke="midnightblue" points="437.28,-246.437 447.721,-248.234 440.679,-240.318 437.28,-246.437"/>
</g>
<!-- Node5&#45;&gt;Node10 -->
<g id="edge12" class="edge"><title>Node5&#45;&gt;Node10</title>
<path fill="none" stroke="midnightblue" d="M457.351,-238.64C451.187,-222.209 440.461,-198.139 425.5,-181 407.135,-159.96 379.176,-143.124 361.12,-133.596"/>
<polygon fill="midnightblue" stroke="midnightblue" points="454.096,-239.933 460.741,-248.184 460.692,-237.59 454.096,-239.933"/>
</g>
<!-- Node6 -->
<g id="node6" class="node"><title>Node6</title>
<g id="a_node6"><a xlink:href="../../d3/db6/interfaceIG_1_1Lib_1_1ILockable.html" target="_top" xlink:title="Lockable object, has a Lock property that returns object on which lock must be performed in order to ...">
<polygon fill="white" stroke="black" points="434.5,-315.5 434.5,-334.5 492.5,-334.5 492.5,-315.5 434.5,-315.5"/>
<text text-anchor="middle" x="463.5" y="-322.5" font-family="Helvetica,sans-Serif" font-size="10.00">ILockable</text>
</a>
</g>
</g>
<!-- Node6&#45;&gt;Node2 -->
<g id="edge17" class="edge"><title>Node6&#45;&gt;Node2</title>
<path fill="none" stroke="midnightblue" d="M503.14,-321.26C570.363,-315.514 699.5,-299.239 699.5,-259 699.5,-259 699.5,-259 699.5,-123 699.5,-86.0781 651.19,-73.8968 616.656,-69.9058"/>
<polygon fill="midnightblue" stroke="midnightblue" points="502.595,-317.793 492.912,-322.094 503.164,-324.77 502.595,-317.793"/>
</g>
<!-- Node6&#45;&gt;Node3 -->
<g id="edge15" class="edge"><title>Node6&#45;&gt;Node3</title>
<path fill="none" stroke="midnightblue" d="M480.613,-308.292C491.535,-297.652 505.473,-282.871 515.5,-268 547.228,-220.946 571.452,-156.49 579.563,-133.54"/>
<polygon fill="midnightblue" stroke="midnightblue" points="478.13,-305.823 473.292,-315.249 482.952,-310.897 478.13,-305.823"/>
</g>
<!-- Node6&#45;&gt;Node4 -->
<g id="edge6" class="edge"><title>Node6&#45;&gt;Node4</title>
<path fill="none" stroke="midnightblue" d="M448.46,-307.69C438.249,-296.567 424.478,-281.468 412.5,-268 391.132,-243.973 366.385,-215.223 354.155,-200.952"/>
<polygon fill="midnightblue" stroke="midnightblue" points="446.139,-310.337 455.485,-315.328 451.291,-305.598 446.139,-310.337"/>
</g>
<!-- Node6&#45;&gt;Node5 -->
<g id="edge5" class="edge"><title>Node6&#45;&gt;Node5</title>
<path fill="none" stroke="midnightblue" d="M463.5,-305.037C463.5,-292.67 463.5,-277.12 463.5,-267.627"/>
<polygon fill="midnightblue" stroke="midnightblue" points="460,-305.234 463.5,-315.234 467,-305.234 460,-305.234"/>
</g>
<!-- Node6&#45;&gt;Node10 -->
<g id="edge13" class="edge"><title>Node6&#45;&gt;Node10</title>
<path fill="none" stroke="midnightblue" d="M424.175,-318.318C376.475,-309.089 298.047,-285.866 262.5,-230 256.897,-221.194 255.281,-205.26 267.5,-181 279.001,-158.165 304.707,-142.366 323.035,-133.506"/>
<polygon fill="midnightblue" stroke="midnightblue" points="423.685,-321.786 434.149,-320.131 424.937,-314.899 423.685,-321.786"/>
</g>
<!-- Node7 -->
<g id="node7" class="node"><title>Node7</title>
<g id="a_node7"><a xlink:href="../../d5/dc3/classIG_1_1Num_1_1VectorFunctionResults.html" target="_top" xlink:title="Vector function results. Used to transfer parameters input (e.g. vector of parameters,...">
<polygon fill="white" stroke="black" points="68.5,-248.5 68.5,-267.5 220.5,-267.5 220.5,-248.5 68.5,-248.5"/>
<text text-anchor="middle" x="144.5" y="-255.5" font-family="Helvetica,sans-Serif" font-size="10.00">IG.Num.VectorFunctionResults</text>
</a>
</g>
</g>
<!-- Node7&#45;&gt;Node4 -->
<g id="edge7" class="edge"><title>Node7&#45;&gt;Node4</title>
<path fill="none" stroke="#9a32cd" stroke-dasharray="5,2" d="M180.968,-245.265C220.992,-232.386 284.28,-212.021 319.887,-200.564"/>
<polygon fill="#9a32cd" stroke="#9a32cd" points="179.771,-241.974 171.324,-248.369 181.915,-248.637 179.771,-241.974"/>
<text text-anchor="middle" x="287.5" y="-222" font-family="Helvetica,sans-Serif" font-size="10.00"> _auxResults</text>
</g>
<!-- Node8 -->
<g id="node8" class="node"><title>Node8</title>
<g id="a_node8"><a xlink:href="../../d6/dbe/interfaceIG_1_1Num_1_1IVectorFunctionResults.html" target="_top" xlink:title="Vector function results. Used to transfer parameters input (e.g. vector of parameters,...">
<polygon fill="white" stroke="black" points="125.5,-315.5 125.5,-334.5 243.5,-334.5 243.5,-315.5 125.5,-315.5"/>
<text text-anchor="middle" x="184.5" y="-322.5" font-family="Helvetica,sans-Serif" font-size="10.00">IVectorFunctionResults</text>
</a>
</g>
</g>
<!-- Node8&#45;&gt;Node7 -->
<g id="edge8" class="edge"><title>Node8&#45;&gt;Node7</title>
<path fill="none" stroke="midnightblue" d="M173.752,-306.535C166.008,-293.95 155.889,-277.507 149.809,-267.627"/>
<polygon fill="midnightblue" stroke="midnightblue" points="170.884,-308.552 179.105,-315.234 176.845,-304.883 170.884,-308.552"/>
</g>
<!-- Node9 -->
<g id="node9" class="node"><title>Node9</title>
<g id="a_node9"><a xlink:href="../../d3/d24/interfaceIG_1_1Num_1_1IVector.html" target="_top" xlink:title="Generic Vector interface">
<polygon fill="white" stroke="black" points="0,-315.5 0,-334.5 107,-334.5 107,-315.5 0,-315.5"/>
<text text-anchor="middle" x="53.5" y="-322.5" font-family="Helvetica,sans-Serif" font-size="10.00">IG.Num.IVector&lt; T &gt;</text>
</a>
</g>
</g>
<!-- Node9&#45;&gt;Node7 -->
<g id="edge9" class="edge"><title>Node9&#45;&gt;Node7</title>
<path fill="none" stroke="#9a32cd" stroke-dasharray="5,2" d="M71.154,-308.823C79.7947,-301.631 90.4736,-293.085 100.5,-286 109.869,-279.38 120.869,-272.63 129.527,-267.535"/>
<polygon fill="#9a32cd" stroke="#9a32cd" points="68.6763,-306.334 63.2924,-315.459 73.1916,-311.683 68.6763,-306.334"/>
<text text-anchor="middle" x="129.5" y="-289" font-family="Helvetica,sans-Serif" font-size="10.00"> _parameters</text>
</g>
<!-- Node10&#45;&gt;Node4 -->
<g id="edge10" class="edge"><title>Node10&#45;&gt;Node4</title>
<path fill="none" stroke="#9a32cd" stroke-dasharray="5,2" d="M314.683,-138.742C305.239,-145.259 298.338,-153.664 303.5,-163 308.021,-171.177 316.17,-177.212 324.168,-181.476"/>
<polygon fill="#9a32cd" stroke="#9a32cd" points="316.616,-141.664 323.398,-133.525 313.02,-135.658 316.616,-141.664"/>
<text text-anchor="middle" x="331.5" y="-155" font-family="Helvetica,sans-Serif" font-size="10.00"> _resultStore</text>
</g>
</g>
</svg>
