<?xml version="1.0" encoding="UTF-8" standalone="no"?>
<!DOCTYPE svg PUBLIC "-//W3C//DTD SVG 1.1//EN"
 "http://www.w3.org/Graphics/SVG/1.1/DTD/svg11.dtd">
<!-- Generated by graphviz version 2.38.0 (20140413.2041)
 -->
<!-- Title: IG.Num.Field&lt; TElement &gt; Pages: 1 -->
<svg width="321pt" height="127pt"
 viewBox="0.00 0.00 321.00 126.50" xmlns="http://www.w3.org/2000/svg" xmlns:xlink="http://www.w3.org/1999/xlink">
<g id="graph0" class="graph" transform="scale(1 1) rotate(0) translate(4 122.5)">
<title>IG.Num.Field&lt; TElement &gt;</title>
<polygon fill="white" stroke="none" points="-4,4 -4,-122.5 317,-122.5 317,4 -4,4"/>
<!-- Node1 -->
<g id="node1" class="node"><title>Node1</title>
<g id="a_node1"><a xlink:title="A generic field of values of any type. Values must be allocated at once.">
<polygon fill="#bfbfbf" stroke="black" points="0,-55 0,-74 133,-74 133,-55 0,-55"/>
<text text-anchor="middle" x="66.5" y="-62" font-family="Helvetica,sans-Serif" font-size="10.00">IG.Num.Field&lt; TElement &gt;</text>
</a>
</g>
</g>
<!-- Node2 -->
<g id="node2" class="node"><title>Node2</title>
<g id="a_node2"><a xlink:href="../../d7/d6a/classIG_1_1Num_1_1Field1.html" target="_top" xlink:title="A generic field of values of any type. Values must be allocated at once.">
<polygon fill="white" stroke="black" points="169,-99 169,-118 313,-118 313,-99 169,-99"/>
<text text-anchor="middle" x="241" y="-106" font-family="Helvetica,sans-Serif" font-size="10.00">IG::Num::Field1&lt; TElement &gt;</text>
</a>
</g>
</g>
<!-- Node1&#45;&gt;Node2 -->
<g id="edge1" class="edge"><title>Node1&#45;&gt;Node2</title>
<path fill="none" stroke="midnightblue" d="M114.788,-76.5617C142.453,-83.6185 176.89,-92.4024 202.643,-98.9713"/>
<polygon fill="midnightblue" stroke="midnightblue" points="115.485,-73.1276 104.93,-74.0473 113.755,-79.9104 115.485,-73.1276"/>
</g>
<!-- Node3 -->
<g id="node3" class="node"><title>Node3</title>
<g id="a_node3"><a xlink:href="../../dd/db2/classIG_1_1Num_1_1StructuredField2d.html" target="_top" xlink:title="Field where field elements are arranged in a 2 dimensional array. Usually represents a field over a s...">
<polygon fill="white" stroke="black" points="173.5,-49.5 173.5,-79.5 308.5,-79.5 308.5,-49.5 173.5,-49.5"/>
<text text-anchor="start" x="181.5" y="-67.5" font-family="Helvetica,sans-Serif" font-size="10.00">IG::Num::StructuredField2d</text>
<text text-anchor="middle" x="241" y="-56.5" font-family="Helvetica,sans-Serif" font-size="10.00">&lt; TElement &gt;</text>
</a>
</g>
</g>
<!-- Node1&#45;&gt;Node3 -->
<g id="edge2" class="edge"><title>Node1&#45;&gt;Node3</title>
<path fill="none" stroke="midnightblue" d="M143.481,-64.5C153.427,-64.5 163.556,-64.5 173.332,-64.5"/>
<polygon fill="midnightblue" stroke="midnightblue" points="143.207,-61.0001 133.207,-64.5 143.207,-68.0001 143.207,-61.0001"/>
</g>
<!-- Node4 -->
<g id="node4" class="node"><title>Node4</title>
<g id="a_node4"><a xlink:href="../../d5/d2f/classIG_1_1Num_1_1StructuredField3d.html" target="_top" xlink:title="Field where field elements are arranged in a 3 dimensional array. Usually represents a field over a s...">
<polygon fill="white" stroke="black" points="173.5,-0.5 173.5,-30.5 308.5,-30.5 308.5,-0.5 173.5,-0.5"/>
<text text-anchor="start" x="181.5" y="-18.5" font-family="Helvetica,sans-Serif" font-size="10.00">IG::Num::StructuredField3d</text>
<text text-anchor="middle" x="241" y="-7.5" font-family="Helvetica,sans-Serif" font-size="10.00">&lt; TElement &gt;</text>
</a>
</g>
</g>
<!-- Node1&#45;&gt;Node4 -->
<g id="edge3" class="edge"><title>Node1&#45;&gt;Node4</title>
<path fill="none" stroke="midnightblue" d="M111.032,-52.1343C134.129,-45.5735 162.693,-37.4597 187.064,-30.537"/>
<polygon fill="midnightblue" stroke="midnightblue" points="109.832,-48.8366 101.169,-54.936 111.745,-55.5702 109.832,-48.8366"/>
</g>
</g>
</svg>
