<?xml version="1.0" encoding="UTF-8" standalone="no"?>
<!DOCTYPE svg PUBLIC "-//W3C//DTD SVG 1.1//EN"
 "http://www.w3.org/Graphics/SVG/1.1/DTD/svg11.dtd">
<!-- Generated by graphviz version 2.38.0 (20140413.2041)
 -->
<!-- Title: JsonPrettyPrinterPlus.JsonPrettyPrinterInternals.ICharacterStrategy Pages: 1 -->
<!--zoomable 590 -->
<svg id="main" version="1.1" xmlns="http://www.w3.org/2000/svg" xmlns:xlink="http://www.w3.org/1999/xlink" xml:space="preserve" onload="init(evt)">
<style type="text/css"><![CDATA[
.edge:hover path { stroke: red; }
.edge:hover polygon { stroke: red; fill: red; }
]]></style>
<script type="text/javascript"><![CDATA[
var edges = document.getElementsByTagName('g');
if (edges && edges.length) {
  for (var i=0;i<edges.length;i++) {
    if (edges[i].id.substr(0,4)=='edge') {
      edges[i].setAttribute('class','edge');
    }
  }
}
]]></script>
        <defs>
                <circle id="rim" cx="0" cy="0" r="7"/>
                <circle id="rim2" cx="0" cy="0" r="3.5"/>
                <g id="zoomPlus">
                        <use xlink:href="#rim" fill="#404040">
                                <set attributeName="fill" to="#808080" begin="zoomplus.mouseover" end="zoomplus.mouseout"/>
                        </use>
                        <path d="M-4,0h8M0,-4v8" fill="none" stroke="white" stroke-width="1.5" pointer-events="none"/>
                </g>
                <g id="zoomMin">
                        <use xlink:href="#rim" fill="#404040">
                                <set attributeName="fill" to="#808080" begin="zoomminus.mouseover" end="zoomminus.mouseout"/>
                        </use>
                        <path d="M-4,0h8" fill="none" stroke="white" stroke-width="1.5" pointer-events="none"/>
                </g>
                <g id="dirArrow">
                        <path fill="none" stroke="white" stroke-width="1.5" d="M0,-3.0v7 M-2.5,-0.5L0,-3.0L2.5,-0.5"/>
                </g>
               <g id="resetDef">
                       <use xlink:href="#rim2" fill="#404040">
                               <set attributeName="fill" to="#808080" begin="reset.mouseover" end="reset.mouseout"/>
                       </use>
               </g>
        </defs>

<script type="text/javascript">
var viewWidth = 391;
var viewHeight = 590;
var sectionId = 'dynsection-0';
</script>
<script xlink:href="../../svgpan.js"/>
<svg id="graph" class="graph">
<g id="viewport">
<title>JsonPrettyPrinterPlus.JsonPrettyPrinterInternals.ICharacterStrategy</title>
<polygon fill="white" stroke="none" points="-4,4 -4,-586 387,-586 387,4 -4,4"/>
<!-- Node1 -->
<g id="node1" class="node"><title>Node1</title>
<g id="a_node1"><a xlink:title=" ">
<polygon fill="#bfbfbf" stroke="black" points="0,-270.5 0,-311.5 155,-311.5 155,-270.5 0,-270.5"/>
<text text-anchor="start" x="8" y="-299.5" font-family="Helvetica,sans-Serif" font-size="10.00">JsonPrettyPrinterPlus.Json</text>
<text text-anchor="start" x="8" y="-288.5" font-family="Helvetica,sans-Serif" font-size="10.00">PrettyPrinterInternals.ICharacter</text>
<text text-anchor="middle" x="77.5" y="-277.5" font-family="Helvetica,sans-Serif" font-size="10.00">Strategy</text>
</a>
</g>
</g>
<!-- Node2 -->
<g id="node2" class="node"><title>Node2</title>
<g id="a_node2"><a xlink:href="../../d0/d03/classJsonPrettyPrinterPlus_1_1JsonPrettyPrinterInternals_1_1JsonPPStrategies_1_1CloseBracketStrategy.html" target="_top" xlink:title=" ">
<polygon fill="white" stroke="black" points="191,-540.5 191,-581.5 383,-581.5 383,-540.5 191,-540.5"/>
<text text-anchor="start" x="199" y="-569.5" font-family="Helvetica,sans-Serif" font-size="10.00">JsonPrettyPrinterPlus.Json</text>
<text text-anchor="start" x="199" y="-558.5" font-family="Helvetica,sans-Serif" font-size="10.00">PrettyPrinterInternals.JsonPPStrategies.</text>
<text text-anchor="middle" x="287" y="-547.5" font-family="Helvetica,sans-Serif" font-size="10.00">CloseBracketStrategy</text>
</a>
</g>
</g>
<!-- Node1&#45;&gt;Node2 -->
<g id="edge1" class="edge"><title>Node1&#45;&gt;Node2</title>
<path fill="none" stroke="midnightblue" d="M84.5552,-321.782C96.1628,-372.688 126.356,-474.398 191,-531 195.034,-534.532 199.484,-537.649 204.19,-540.399"/>
<polygon fill="midnightblue" stroke="midnightblue" points="87.9113,-320.746 82.3546,-311.725 81.0731,-322.242 87.9113,-320.746"/>
</g>
<!-- Node3 -->
<g id="node3" class="node"><title>Node3</title>
<g id="a_node3"><a xlink:href="../../d7/d9e/classJsonPrettyPrinterPlus_1_1JsonPrettyPrinterInternals_1_1JsonPPStrategies_1_1CloseSquareBracketStrategy.html" target="_top" xlink:title=" ">
<polygon fill="white" stroke="black" points="191,-480.5 191,-521.5 383,-521.5 383,-480.5 191,-480.5"/>
<text text-anchor="start" x="199" y="-509.5" font-family="Helvetica,sans-Serif" font-size="10.00">JsonPrettyPrinterPlus.Json</text>
<text text-anchor="start" x="199" y="-498.5" font-family="Helvetica,sans-Serif" font-size="10.00">PrettyPrinterInternals.JsonPPStrategies.</text>
<text text-anchor="middle" x="287" y="-487.5" font-family="Helvetica,sans-Serif" font-size="10.00">CloseSquareBracketStrategy</text>
</a>
</g>
</g>
<!-- Node1&#45;&gt;Node3 -->
<g id="edge2" class="edge"><title>Node1&#45;&gt;Node3</title>
<path fill="none" stroke="midnightblue" d="M89.5487,-321.059C105.749,-361.037 139.701,-431.266 191,-471 195.512,-474.495 200.44,-477.588 205.601,-480.323"/>
<polygon fill="midnightblue" stroke="midnightblue" points="92.737,-319.603 85.8128,-311.584 86.2249,-322.171 92.737,-319.603"/>
</g>
<!-- Node4 -->
<g id="node4" class="node"><title>Node4</title>
<g id="a_node4"><a xlink:href="../../df/dbb/classJsonPrettyPrinterPlus_1_1JsonPrettyPrinterInternals_1_1JsonPPStrategies_1_1ColonCharacterStrategy.html" target="_top" xlink:title=" ">
<polygon fill="white" stroke="black" points="191,-420.5 191,-461.5 383,-461.5 383,-420.5 191,-420.5"/>
<text text-anchor="start" x="199" y="-449.5" font-family="Helvetica,sans-Serif" font-size="10.00">JsonPrettyPrinterPlus.Json</text>
<text text-anchor="start" x="199" y="-438.5" font-family="Helvetica,sans-Serif" font-size="10.00">PrettyPrinterInternals.JsonPPStrategies.</text>
<text text-anchor="middle" x="287" y="-427.5" font-family="Helvetica,sans-Serif" font-size="10.00">ColonCharacterStrategy</text>
</a>
</g>
</g>
<!-- Node1&#45;&gt;Node4 -->
<g id="edge3" class="edge"><title>Node1&#45;&gt;Node4</title>
<path fill="none" stroke="midnightblue" d="M98.934,-320.239C119.336,-347.391 153.054,-387.117 191,-411 196.562,-414.501 202.567,-417.624 208.759,-420.403"/>
<polygon fill="midnightblue" stroke="midnightblue" points="101.54,-317.875 92.7893,-311.902 95.9046,-322.028 101.54,-317.875"/>
</g>
<!-- Node5 -->
<g id="node5" class="node"><title>Node5</title>
<g id="a_node5"><a xlink:href="../../db/d01/classJsonPrettyPrinterPlus_1_1JsonPrettyPrinterInternals_1_1JsonPPStrategies_1_1CommaStrategy.html" target="_top" xlink:title=" ">
<polygon fill="white" stroke="black" points="191,-360.5 191,-401.5 383,-401.5 383,-360.5 191,-360.5"/>
<text text-anchor="start" x="199" y="-389.5" font-family="Helvetica,sans-Serif" font-size="10.00">JsonPrettyPrinterPlus.Json</text>
<text text-anchor="start" x="199" y="-378.5" font-family="Helvetica,sans-Serif" font-size="10.00">PrettyPrinterInternals.JsonPPStrategies.</text>
<text text-anchor="middle" x="287" y="-367.5" font-family="Helvetica,sans-Serif" font-size="10.00">CommaStrategy</text>
</a>
</g>
</g>
<!-- Node1&#45;&gt;Node5 -->
<g id="edge4" class="edge"><title>Node1&#45;&gt;Node5</title>
<path fill="none" stroke="midnightblue" d="M121.942,-316.582C142.454,-328.03 167.536,-341.137 191,-351 198.972,-354.351 207.454,-357.538 215.943,-360.496"/>
<polygon fill="midnightblue" stroke="midnightblue" points="123.584,-313.49 113.155,-311.625 120.145,-319.587 123.584,-313.49"/>
</g>
<!-- Node6 -->
<g id="node6" class="node"><title>Node6</title>
<g id="a_node6"><a xlink:href="../../dc/dd7/classJsonPrettyPrinterPlus_1_1JsonPrettyPrinterInternals_1_1JsonPPStrategies_1_1DefaultCharacterStrategy.html" target="_top" xlink:title=" ">
<polygon fill="white" stroke="black" points="191,-300.5 191,-341.5 383,-341.5 383,-300.5 191,-300.5"/>
<text text-anchor="start" x="199" y="-329.5" font-family="Helvetica,sans-Serif" font-size="10.00">JsonPrettyPrinterPlus.Json</text>
<text text-anchor="start" x="199" y="-318.5" font-family="Helvetica,sans-Serif" font-size="10.00">PrettyPrinterInternals.JsonPPStrategies.</text>
<text text-anchor="middle" x="287" y="-307.5" font-family="Helvetica,sans-Serif" font-size="10.00">DefaultCharacterStrategy</text>
</a>
</g>
</g>
<!-- Node1&#45;&gt;Node6 -->
<g id="edge5" class="edge"><title>Node1&#45;&gt;Node6</title>
<path fill="none" stroke="midnightblue" d="M165.116,-303.523C173.658,-304.758 182.36,-306.016 190.981,-307.262"/>
<polygon fill="midnightblue" stroke="midnightblue" points="165.574,-300.053 155.176,-302.086 164.572,-306.981 165.574,-300.053"/>
</g>
<!-- Node7 -->
<g id="node7" class="node"><title>Node7</title>
<g id="a_node7"><a xlink:href="../../d1/dad/classJsonPrettyPrinterPlus_1_1JsonPrettyPrinterInternals_1_1JsonPPStrategies_1_1DoubleQuoteStrategy.html" target="_top" xlink:title=" ">
<polygon fill="white" stroke="black" points="191,-240.5 191,-281.5 383,-281.5 383,-240.5 191,-240.5"/>
<text text-anchor="start" x="199" y="-269.5" font-family="Helvetica,sans-Serif" font-size="10.00">JsonPrettyPrinterPlus.Json</text>
<text text-anchor="start" x="199" y="-258.5" font-family="Helvetica,sans-Serif" font-size="10.00">PrettyPrinterInternals.JsonPPStrategies.</text>
<text text-anchor="middle" x="287" y="-247.5" font-family="Helvetica,sans-Serif" font-size="10.00">DoubleQuoteStrategy</text>
</a>
</g>
</g>
<!-- Node1&#45;&gt;Node7 -->
<g id="edge6" class="edge"><title>Node1&#45;&gt;Node7</title>
<path fill="none" stroke="midnightblue" d="M165.116,-278.477C173.658,-277.242 182.36,-275.984 190.981,-274.738"/>
<polygon fill="midnightblue" stroke="midnightblue" points="164.572,-275.019 155.176,-279.914 165.574,-281.947 164.572,-275.019"/>
</g>
<!-- Node8 -->
<g id="node8" class="node"><title>Node8</title>
<g id="a_node8"><a xlink:href="../../d8/d95/classJsonPrettyPrinterPlus_1_1JsonPrettyPrinterInternals_1_1JsonPPStrategies_1_1OpenBracketStrategy.html" target="_top" xlink:title=" ">
<polygon fill="white" stroke="black" points="191,-180.5 191,-221.5 383,-221.5 383,-180.5 191,-180.5"/>
<text text-anchor="start" x="199" y="-209.5" font-family="Helvetica,sans-Serif" font-size="10.00">JsonPrettyPrinterPlus.Json</text>
<text text-anchor="start" x="199" y="-198.5" font-family="Helvetica,sans-Serif" font-size="10.00">PrettyPrinterInternals.JsonPPStrategies.</text>
<text text-anchor="middle" x="287" y="-187.5" font-family="Helvetica,sans-Serif" font-size="10.00">OpenBracketStrategy</text>
</a>
</g>
</g>
<!-- Node1&#45;&gt;Node8 -->
<g id="edge7" class="edge"><title>Node1&#45;&gt;Node8</title>
<path fill="none" stroke="midnightblue" d="M121.942,-265.418C142.454,-253.97 167.536,-240.863 191,-231 198.972,-227.649 207.454,-224.462 215.943,-221.504"/>
<polygon fill="midnightblue" stroke="midnightblue" points="120.145,-262.413 113.155,-270.375 123.584,-268.51 120.145,-262.413"/>
</g>
<!-- Node9 -->
<g id="node9" class="node"><title>Node9</title>
<g id="a_node9"><a xlink:href="../../d7/dac/classJsonPrettyPrinterPlus_1_1JsonPrettyPrinterInternals_1_1JsonPPStrategies_1_1OpenSquareBracketStrategy.html" target="_top" xlink:title=" ">
<polygon fill="white" stroke="black" points="191,-120.5 191,-161.5 383,-161.5 383,-120.5 191,-120.5"/>
<text text-anchor="start" x="199" y="-149.5" font-family="Helvetica,sans-Serif" font-size="10.00">JsonPrettyPrinterPlus.Json</text>
<text text-anchor="start" x="199" y="-138.5" font-family="Helvetica,sans-Serif" font-size="10.00">PrettyPrinterInternals.JsonPPStrategies.</text>
<text text-anchor="middle" x="287" y="-127.5" font-family="Helvetica,sans-Serif" font-size="10.00">OpenSquareBracketStrategy</text>
</a>
</g>
</g>
<!-- Node1&#45;&gt;Node9 -->
<g id="edge8" class="edge"><title>Node1&#45;&gt;Node9</title>
<path fill="none" stroke="midnightblue" d="M98.934,-261.761C119.336,-234.609 153.054,-194.883 191,-171 196.562,-167.499 202.567,-164.376 208.759,-161.597"/>
<polygon fill="midnightblue" stroke="midnightblue" points="95.9046,-259.972 92.7893,-270.098 101.54,-264.125 95.9046,-259.972"/>
</g>
<!-- Node10 -->
<g id="node10" class="node"><title>Node10</title>
<g id="a_node10"><a xlink:href="../../db/d32/classJsonPrettyPrinterPlus_1_1JsonPrettyPrinterInternals_1_1JsonPPStrategies_1_1SingleQuoteStrategy.html" target="_top" xlink:title=" ">
<polygon fill="white" stroke="black" points="191,-60.5 191,-101.5 383,-101.5 383,-60.5 191,-60.5"/>
<text text-anchor="start" x="199" y="-89.5" font-family="Helvetica,sans-Serif" font-size="10.00">JsonPrettyPrinterPlus.Json</text>
<text text-anchor="start" x="199" y="-78.5" font-family="Helvetica,sans-Serif" font-size="10.00">PrettyPrinterInternals.JsonPPStrategies.</text>
<text text-anchor="middle" x="287" y="-67.5" font-family="Helvetica,sans-Serif" font-size="10.00">SingleQuoteStrategy</text>
</a>
</g>
</g>
<!-- Node1&#45;&gt;Node10 -->
<g id="edge9" class="edge"><title>Node1&#45;&gt;Node10</title>
<path fill="none" stroke="midnightblue" d="M89.5487,-260.941C105.749,-220.963 139.701,-150.734 191,-111 195.512,-107.505 200.44,-104.412 205.601,-101.677"/>
<polygon fill="midnightblue" stroke="midnightblue" points="86.2249,-259.829 85.8128,-270.416 92.737,-262.397 86.2249,-259.829"/>
</g>
<!-- Node11 -->
<g id="node11" class="node"><title>Node11</title>
<g id="a_node11"><a xlink:href="../../d0/db3/classJsonPrettyPrinterPlus_1_1JsonPrettyPrinterInternals_1_1JsonPPStrategies_1_1SkipWhileNotInStringStrategy.html" target="_top" xlink:title=" ">
<polygon fill="white" stroke="black" points="191,-0.5 191,-41.5 383,-41.5 383,-0.5 191,-0.5"/>
<text text-anchor="start" x="199" y="-29.5" font-family="Helvetica,sans-Serif" font-size="10.00">JsonPrettyPrinterPlus.Json</text>
<text text-anchor="start" x="199" y="-18.5" font-family="Helvetica,sans-Serif" font-size="10.00">PrettyPrinterInternals.JsonPPStrategies.</text>
<text text-anchor="middle" x="287" y="-7.5" font-family="Helvetica,sans-Serif" font-size="10.00">SkipWhileNotInStringStrategy</text>
</a>
</g>
</g>
<!-- Node1&#45;&gt;Node11 -->
<g id="edge10" class="edge"><title>Node1&#45;&gt;Node11</title>
<path fill="none" stroke="midnightblue" d="M84.5552,-260.218C96.1628,-209.312 126.356,-107.602 191,-51 195.034,-47.4679 199.484,-44.3513 204.19,-41.6014"/>
<polygon fill="midnightblue" stroke="midnightblue" points="81.0731,-259.758 82.3546,-270.275 87.9113,-261.254 81.0731,-259.758"/>
</g>
</g>
</svg>
        <g id="navigator" transform="translate(0 0)" fill="#404254">
                <rect fill="#f2f5e9" fill-opacity="0.5" stroke="#606060" stroke-width=".5" x="0" y="0" width="60" height="60"/>
                <use id="zoomplus" xlink:href="#zoomPlus" x="17" y="9" onmousedown="handleZoom(evt,'in')"/>
                <use id="zoomminus" xlink:href="#zoomMin" x="42" y="9" onmousedown="handleZoom(evt,'out')"/>
                <use id="reset" xlink:href="#resetDef" x="30" y="36" onmousedown="handleReset()"/>
                <g id="arrowUp" xlink:href="#dirArrow" transform="translate(30 24)" onmousedown="handlePan(0,-1)">
                  <use xlink:href="#rim" fill="#404040">
                        <set attributeName="fill" to="#808080" begin="arrowUp.mouseover" end="arrowUp.mouseout"/>
                  </use>
                  <path fill="none" stroke="white" stroke-width="1.5" d="M0,-3.0v7 M-2.5,-0.5L0,-3.0L2.5,-0.5"/>
                </g>
                <g id="arrowRight" xlink:href="#dirArrow" transform="rotate(90) translate(36 -43)" onmousedown="handlePan(1,0)">
                  <use xlink:href="#rim" fill="#404040">
                        <set attributeName="fill" to="#808080" begin="arrowRight.mouseover" end="arrowRight.mouseout"/>
                  </use>
                  <path fill="none" stroke="white" stroke-width="1.5" d="M0,-3.0v7 M-2.5,-0.5L0,-3.0L2.5,-0.5"/>
                </g>
                <g id="arrowDown" xlink:href="#dirArrow" transform="rotate(180) translate(-30 -48)" onmousedown="handlePan(0,1)">
                  <use xlink:href="#rim" fill="#404040">
                        <set attributeName="fill" to="#808080" begin="arrowDown.mouseover" end="arrowDown.mouseout"/>
                  </use>
                  <path fill="none" stroke="white" stroke-width="1.5" d="M0,-3.0v7 M-2.5,-0.5L0,-3.0L2.5,-0.5"/>
                </g>
                <g id="arrowLeft" xlink:href="#dirArrow" transform="rotate(270) translate(-36 17)" onmousedown="handlePan(-1,0)">
                  <use xlink:href="#rim" fill="#404040">
                        <set attributeName="fill" to="#808080" begin="arrowLeft.mouseover" end="arrowLeft.mouseout"/>
                  </use>
                  <path fill="none" stroke="white" stroke-width="1.5" d="M0,-3.0v7 M-2.5,-0.5L0,-3.0L2.5,-0.5"/>
                </g>
        </g>
        <svg viewBox="0 0 15 15" width="100%" height="30px" preserveAspectRatio="xMaxYMin meet">
         <g id="arrow_out" transform="scale(0.3 0.3)">
          <a xlink:href="interfaceJsonPrettyPrinterPlus_1_1JsonPrettyPrinterInternals_1_1ICharacterStrategy__inherit__graph_org.svg" target="_base">
           <rect id="button" ry="5" rx="5" y="6" x="6" height="38" width="38"
                fill="#f2f5e9" fill-opacity="0.5" stroke="#606060" stroke-width="1.0"/>
           <path id="arrow"
             d="M 11.500037,31.436501 C 11.940474,20.09759 22.043105,11.32322 32.158766,21.979434 L 37.068811,17.246167 C 37.068811,17.246167 37.088388,32 37.088388,32 L 22.160133,31.978069 C 22.160133,31.978069 26.997745,27.140456 26.997745,27.140456 C 18.528582,18.264221 13.291696,25.230495 11.500037,31.436501 z"
             style="fill:#404040;"/>
          </a>
         </g>
        </svg>
</svg>
