<?xml version="1.0" encoding="UTF-8" standalone="no"?>
<!DOCTYPE svg PUBLIC "-//W3C//DTD SVG 1.1//EN"
 "http://www.w3.org/Graphics/SVG/1.1/DTD/svg11.dtd">
<!-- Generated by graphviz version 2.38.0 (20140413.2041)
 -->
<!-- Title: IG.Script.ScritpRealFunctionExample.Container.Function Pages: 1 -->
<svg width="270pt" height="369pt"
 viewBox="0.00 0.00 270.00 369.00" xmlns="http://www.w3.org/2000/svg" xmlns:xlink="http://www.w3.org/1999/xlink">
<g id="graph0" class="graph" transform="scale(1 1) rotate(0) translate(4 365)">
<title>IG.Script.ScritpRealFunctionExample.Container.Function</title>
<polygon fill="white" stroke="none" points="-4,4 -4,-365 266,-365 266,4 -4,4"/>
<!-- Node1 -->
<g id="node1" class="node"><title>Node1</title>
<g id="a_node1"><a xlink:title=" ">
<polygon fill="#bfbfbf" stroke="black" points="0,-0.5 0,-30.5 140,-30.5 140,-0.5 0,-0.5"/>
<text text-anchor="start" x="8" y="-18.5" font-family="Helvetica,sans-Serif" font-size="10.00">IG.Script.ScritpRealFunction</text>
<text text-anchor="middle" x="70" y="-7.5" font-family="Helvetica,sans-Serif" font-size="10.00">Example.Container.Function</text>
</a>
</g>
</g>
<!-- Node2 -->
<g id="node2" class="node"><title>Node2</title>
<g id="a_node2"><a xlink:href="../../db/d84/classIG_1_1Lib_1_1LoadableRealFunctionBase.html" target="_top" xlink:title="A RealFunction class used as base class for dynamically loaded functions. Bunctions loaded from scrip...">
<polygon fill="white" stroke="black" points="2.5,-68.5 2.5,-87.5 137.5,-87.5 137.5,-68.5 2.5,-68.5"/>
<text text-anchor="middle" x="70" y="-75.5" font-family="Helvetica,sans-Serif" font-size="10.00">LoadableRealFunctionBase</text>
</a>
</g>
</g>
<!-- Node2&#45;&gt;Node1 -->
<g id="edge1" class="edge"><title>Node2&#45;&gt;Node1</title>
<path fill="none" stroke="midnightblue" d="M70,-58.2154C70,-49.3565 70,-38.9577 70,-30.7587"/>
<polygon fill="midnightblue" stroke="midnightblue" points="66.5001,-58.3318 70,-68.3318 73.5001,-58.3319 66.5001,-58.3318"/>
</g>
<!-- Node3 -->
<g id="node3" class="node"><title>Node3</title>
<g id="a_node3"><a xlink:href="../../d5/d83/classIG_1_1Num_1_1RealFunction.html" target="_top" xlink:title="Represents a real function of a real variabe.">
<polygon fill="white" stroke="black" points="33,-125.5 33,-144.5 107,-144.5 107,-125.5 33,-125.5"/>
<text text-anchor="middle" x="70" y="-132.5" font-family="Helvetica,sans-Serif" font-size="10.00">RealFunction</text>
</a>
</g>
</g>
<!-- Node3&#45;&gt;Node2 -->
<g id="edge2" class="edge"><title>Node3&#45;&gt;Node2</title>
<path fill="none" stroke="midnightblue" d="M70,-115.117C70,-105.817 70,-95.0557 70,-87.7149"/>
<polygon fill="midnightblue" stroke="midnightblue" points="66.5001,-115.406 70,-125.406 73.5001,-115.406 66.5001,-115.406"/>
</g>
<!-- Node4 -->
<g id="node4" class="node"><title>Node4</title>
<g id="a_node4"><a xlink:href="../../d6/d30/classIG_1_1Num_1_1RealFunctionBase.html" target="_top" xlink:title="Base class for real functions of real variable.">
<polygon fill="white" stroke="black" points="13,-284.5 13,-303.5 109,-303.5 109,-284.5 13,-284.5"/>
<text text-anchor="middle" x="61" y="-291.5" font-family="Helvetica,sans-Serif" font-size="10.00">RealFunctionBase</text>
</a>
</g>
</g>
<!-- Node4&#45;&gt;Node3 -->
<g id="edge3" class="edge"><title>Node4&#45;&gt;Node3</title>
<path fill="none" stroke="midnightblue" d="M54.543,-274.591C51.9541,-266.276 49.2833,-256.259 48,-247 42.6601,-208.47 58.7409,-163.14 66.3016,-144.578"/>
<polygon fill="midnightblue" stroke="midnightblue" points="51.3047,-275.946 57.7754,-284.335 57.9486,-273.742 51.3047,-275.946"/>
</g>
<!-- Node7 -->
<g id="node7" class="node"><title>Node7</title>
<g id="a_node7"><a xlink:href="../../d5/d83/classIG_1_1Num_1_1RealFunction.html" target="_top" xlink:title="Represents a real function of a real variabe.">
<polygon fill="white" stroke="black" points="57,-221 57,-240 167,-240 167,-221 57,-221"/>
<text text-anchor="middle" x="112" y="-228" font-family="Helvetica,sans-Serif" font-size="10.00">IG.Num.RealFunction</text>
</a>
</g>
</g>
<!-- Node4&#45;&gt;Node7 -->
<g id="edge8" class="edge"><title>Node4&#45;&gt;Node7</title>
<path fill="none" stroke="midnightblue" d="M74.4846,-276.739C84.1401,-265.096 96.7751,-249.859 104.639,-240.377"/>
<polygon fill="midnightblue" stroke="midnightblue" points="71.7806,-274.517 68.0913,-284.449 77.1689,-278.985 71.7806,-274.517"/>
</g>
<!-- Node5 -->
<g id="node5" class="node"><title>Node5</title>
<g id="a_node5"><a xlink:href="../../db/d0e/interfaceIG_1_1Num_1_1IRealFunction.html" target="_top" xlink:title="Interface for real functions.">
<polygon fill="white" stroke="black" points="23,-341.5 23,-360.5 99,-360.5 99,-341.5 23,-341.5"/>
<text text-anchor="middle" x="61" y="-348.5" font-family="Helvetica,sans-Serif" font-size="10.00">IRealFunction</text>
</a>
</g>
</g>
<!-- Node5&#45;&gt;Node3 -->
<g id="edge5" class="edge"><title>Node5&#45;&gt;Node3</title>
<path fill="none" stroke="midnightblue" d="M34.7898,-336.1C23.0739,-328.358 10.4678,-317.531 4,-304 0.166524,-295.98 2.4898,-292.76 4,-284 13.6965,-227.757 18.4681,-212.429 47,-163 50.8172,-156.387 56.3327,-149.846 61.0057,-144.858"/>
<polygon fill="midnightblue" stroke="midnightblue" points="33.1039,-339.172 43.459,-341.413 36.7617,-333.203 33.1039,-339.172"/>
</g>
<!-- Node5&#45;&gt;Node4 -->
<g id="edge4" class="edge"><title>Node5&#45;&gt;Node4</title>
<path fill="none" stroke="midnightblue" d="M61,-331.117C61,-321.817 61,-311.056 61,-303.715"/>
<polygon fill="midnightblue" stroke="midnightblue" points="57.5001,-331.406 61,-341.406 64.5001,-331.406 57.5001,-331.406"/>
</g>
<!-- Node5&#45;&gt;Node7 -->
<g id="edge9" class="edge"><title>Node5&#45;&gt;Node7</title>
<path fill="none" stroke="midnightblue" d="M87.2102,-336.1C98.9261,-328.358 111.532,-317.531 118,-304 128.131,-282.805 120.373,-254.137 115.373,-240.044"/>
<polygon fill="midnightblue" stroke="midnightblue" points="85.2383,-333.203 78.541,-341.413 88.8961,-339.172 85.2383,-333.203"/>
</g>
<!-- Node6 -->
<g id="node6" class="node"><title>Node6</title>
<g id="a_node6"><a xlink:title=" ">
<polygon fill="white" stroke="#bfbfbf" points="200,-284.5 200,-303.5 262,-303.5 262,-284.5 200,-284.5"/>
<text text-anchor="middle" x="231" y="-291.5" font-family="Helvetica,sans-Serif" font-size="10.00">ICloneable</text>
</a>
</g>
</g>
<!-- Node6&#45;&gt;Node3 -->
<g id="edge6" class="edge"><title>Node6&#45;&gt;Node3</title>
<path fill="none" stroke="midnightblue" d="M244.184,-275.906C255.313,-259.229 267.714,-233.583 256,-214 225.173,-162.463 152.174,-144.972 107.341,-139.039"/>
<polygon fill="midnightblue" stroke="midnightblue" points="241.258,-273.98 238.293,-284.152 246.954,-278.049 241.258,-273.98"/>
</g>
<!-- Node6&#45;&gt;Node7 -->
<g id="edge10" class="edge"><title>Node6&#45;&gt;Node7</title>
<path fill="none" stroke="midnightblue" d="M205.524,-279.834C182.338,-267.851 148.77,-250.503 128.79,-240.177"/>
<polygon fill="midnightblue" stroke="midnightblue" points="203.963,-282.967 214.454,-284.449 207.177,-276.748 203.963,-282.967"/>
</g>
<!-- Node7&#45;&gt;Node3 -->
<g id="edge7" class="edge"><title>Node7&#45;&gt;Node3</title>
<path fill="none" stroke="#9a32cd" stroke-dasharray="5,2" d="M103.95,-211.579C94.9273,-191.493 80.6733,-159.761 73.8666,-144.608"/>
<polygon fill="#9a32cd" stroke="#9a32cd" points="100.834,-213.184 108.124,-220.871 107.219,-210.315 100.834,-213.184"/>
<text text-anchor="middle" x="126" y="-188" font-family="Helvetica,sans-Serif" font-size="10.00"> funcDerivative</text>
<text text-anchor="middle" x="126" y="-177" font-family="Helvetica,sans-Serif" font-size="10.00">funcInverse</text>
<text text-anchor="middle" x="126" y="-166" font-family="Helvetica,sans-Serif" font-size="10.00">funcIntegral</text>
</g>
<!-- Node7&#45;&gt;Node7 -->
<g id="edge11" class="edge"><title>Node7&#45;&gt;Node7</title>
<path fill="none" stroke="#9a32cd" stroke-dasharray="5,2" d="M177.001,-235.284C181.952,-234.222 185,-232.627 185,-230.5 185,-227.18 177.574,-225.156 167.073,-224.43"/>
<polygon fill="#9a32cd" stroke="#9a32cd" points="176.541,-231.815 167.073,-236.57 177.44,-238.757 176.541,-231.815"/>
<text text-anchor="middle" x="216" y="-239" font-family="Helvetica,sans-Serif" font-size="10.00"> funcDerivative</text>
<text text-anchor="middle" x="216" y="-228" font-family="Helvetica,sans-Serif" font-size="10.00">funcInverse</text>
<text text-anchor="middle" x="216" y="-217" font-family="Helvetica,sans-Serif" font-size="10.00">funcIntegral</text>
</g>
</g>
</svg>
