<?xml version="1.0" encoding="UTF-8" standalone="no"?>
<!DOCTYPE svg PUBLIC "-//W3C//DTD SVG 1.1//EN"
 "http://www.w3.org/Graphics/SVG/1.1/DTD/svg11.dtd">
<!-- Generated by graphviz version 2.38.0 (20140413.2041)
 -->
<!-- Title: IG.Lib.ThreadPerformanceTest Pages: 1 -->
<svg width="254pt" height="106pt"
 viewBox="0.00 0.00 253.50 106.00" xmlns="http://www.w3.org/2000/svg" xmlns:xlink="http://www.w3.org/1999/xlink">
<g id="graph0" class="graph" transform="scale(1 1) rotate(0) translate(4 102)">
<title>IG.Lib.ThreadPerformanceTest</title>
<polygon fill="white" stroke="none" points="-4,4 -4,-102 249.5,-102 249.5,4 -4,4"/>
<!-- Node1 -->
<g id="node1" class="node"><title>Node1</title>
<g id="a_node1"><a xlink:title="Used to measure performance of the currend thread. A standard unit operation is provided for which nu...">
<polygon fill="#bfbfbf" stroke="black" points="56.5,-0.5 56.5,-19.5 204.5,-19.5 204.5,-0.5 56.5,-0.5"/>
<text text-anchor="middle" x="130.5" y="-7.5" font-family="Helvetica,sans-Serif" font-size="10.00">IG.Lib.ThreadPerformanceTest</text>
</a>
</g>
</g>
<!-- Node2 -->
<g id="node2" class="node"><title>Node2</title>
<g id="a_node2"><a xlink:href="../../d9/d2b/structIG_1_1Lib_1_1ThreadPerformanceData.html" target="_top" xlink:title="Stores results of performance test.">
<polygon fill="white" stroke="black" points="0,-78.5 0,-97.5 149,-97.5 149,-78.5 0,-78.5"/>
<text text-anchor="middle" x="74.5" y="-85.5" font-family="Helvetica,sans-Serif" font-size="10.00">IG.Lib.ThreadPerformanceData</text>
</a>
</g>
</g>
<!-- Node2&#45;&gt;Node1 -->
<g id="edge1" class="edge"><title>Node2&#45;&gt;Node1</title>
<path fill="none" stroke="#9a32cd" stroke-dasharray="5,2" d="M87.0222,-70.0056C98.5437,-54.3693 115.163,-31.8142 124.151,-19.6165"/>
<polygon fill="#9a32cd" stroke="#9a32cd" points="84.0382,-68.155 80.9239,-78.2818 89.6736,-72.3075 84.0382,-68.155"/>
<text text-anchor="middle" x="120.5" y="-46.5" font-family="Helvetica,sans-Serif" font-size="10.00"> Last</text>
</g>
<!-- Node3 -->
<g id="node3" class="node"><title>Node3</title>
<g id="a_node3"><a xlink:title=" ">
<polygon fill="white" stroke="#bfbfbf" points="167,-78.5 167,-97.5 208,-97.5 208,-78.5 167,-78.5"/>
<text text-anchor="middle" x="187.5" y="-85.5" font-family="Helvetica,sans-Serif" font-size="10.00">static</text>
</a>
</g>
</g>
<!-- Node3&#45;&gt;Node1 -->
<g id="edge2" class="edge"><title>Node3&#45;&gt;Node1</title>
<path fill="none" stroke="#9a32cd" stroke-dasharray="5,2" d="M174.754,-70.0056C163.027,-54.3693 146.111,-31.8142 136.962,-19.6165"/>
<polygon fill="#9a32cd" stroke="#9a32cd" points="172.161,-72.3818 180.961,-78.2818 177.761,-68.1818 172.161,-72.3818"/>
<text text-anchor="middle" x="205.5" y="-52" font-family="Helvetica,sans-Serif" font-size="10.00"> _performLoad</text>
<text text-anchor="middle" x="205.5" y="-41" font-family="Helvetica,sans-Serif" font-size="10.00">_numLoadThreads</text>
</g>
</g>
</svg>
