<?xml version="1.0" encoding="UTF-8" standalone="no"?>
<!DOCTYPE svg PUBLIC "-//W3C//DTD SVG 1.1//EN"
 "http://www.w3.org/Graphics/SVG/1.1/DTD/svg11.dtd">
<!-- Generated by graphviz version 2.38.0 (20140413.2041)
 -->
<!-- Title: IG.Lib.WaitFileRemovalLatence Pages: 1 -->
<svg width="489pt" height="356pt"
 viewBox="0.00 0.00 488.50 356.00" xmlns="http://www.w3.org/2000/svg" xmlns:xlink="http://www.w3.org/1999/xlink">
<g id="graph0" class="graph" transform="scale(1 1) rotate(0) translate(4 352)">
<title>IG.Lib.WaitFileRemovalLatence</title>
<polygon fill="white" stroke="none" points="-4,4 -4,-352 484.5,-352 484.5,4 -4,4"/>
<!-- Node1 -->
<g id="node1" class="node"><title>Node1</title>
<g id="a_node1"><a xlink:title="Implements blocking until the specified file is deleted (becomes nonexistent). File is specified in c...">
<polygon fill="#bfbfbf" stroke="black" points="0,-0.5 0,-19.5 152,-19.5 152,-0.5 0,-0.5"/>
<text text-anchor="middle" x="76" y="-7.5" font-family="Helvetica,sans-Serif" font-size="10.00">IG.Lib.WaitFileRemovalLatence</text>
</a>
</g>
</g>
<!-- Node2 -->
<g id="node2" class="node"><title>Node2</title>
<g id="a_node2"><a xlink:href="../../d4/d27/classIG_1_1Lib_1_1WaitFileEventLatenceBase.html" target="_top" xlink:title="Base class for classes that impelement methods that block until a file or directory is created or del...">
<polygon fill="white" stroke="black" points="9,-57.5 9,-76.5 143,-76.5 143,-57.5 9,-57.5"/>
<text text-anchor="middle" x="76" y="-64.5" font-family="Helvetica,sans-Serif" font-size="10.00">WaitFileEventLatenceBase</text>
</a>
</g>
</g>
<!-- Node2&#45;&gt;Node1 -->
<g id="edge1" class="edge"><title>Node2&#45;&gt;Node1</title>
<path fill="none" stroke="midnightblue" d="M76,-47.1166C76,-37.8173 76,-27.0557 76,-19.7149"/>
<polygon fill="midnightblue" stroke="midnightblue" points="72.5001,-47.4062 76,-57.4063 79.5001,-47.4063 72.5001,-47.4062"/>
</g>
<!-- Node3 -->
<g id="node3" class="node"><title>Node3</title>
<g id="a_node3"><a xlink:href="../../da/d67/classIG_1_1Lib_1_1WaitCondition.html" target="_top" xlink:title="Provides a framework for blocking execution until the specified condition becomes satisfied....">
<polygon fill="white" stroke="black" points="183.5,-114.5 183.5,-133.5 260.5,-133.5 260.5,-114.5 183.5,-114.5"/>
<text text-anchor="middle" x="222" y="-121.5" font-family="Helvetica,sans-Serif" font-size="10.00">WaitCondition</text>
</a>
</g>
</g>
<!-- Node3&#45;&gt;Node2 -->
<g id="edge2" class="edge"><title>Node3&#45;&gt;Node2</title>
<path fill="none" stroke="midnightblue" d="M189.578,-110.786C161.971,-100.386 123.017,-85.7119 98.6523,-76.5334"/>
<polygon fill="midnightblue" stroke="midnightblue" points="188.596,-114.156 199.188,-114.406 191.063,-107.606 188.596,-114.156"/>
</g>
<!-- Node4 -->
<g id="node4" class="node"><title>Node4</title>
<g id="a_node4"><a xlink:href="../../df/dea/classIG_1_1Lib_1_1WaitConditionBase.html" target="_top" xlink:title="Base class for objects that perform waiting until a condition is fulfilled.">
<polygon fill="white" stroke="black" points="172,-171.5 172,-190.5 272,-190.5 272,-171.5 172,-171.5"/>
<text text-anchor="middle" x="222" y="-178.5" font-family="Helvetica,sans-Serif" font-size="10.00">WaitConditionBase</text>
</a>
</g>
</g>
<!-- Node4&#45;&gt;Node3 -->
<g id="edge3" class="edge"><title>Node4&#45;&gt;Node3</title>
<path fill="none" stroke="midnightblue" d="M222,-161.117C222,-151.817 222,-141.056 222,-133.715"/>
<polygon fill="midnightblue" stroke="midnightblue" points="218.5,-161.406 222,-171.406 225.5,-161.406 218.5,-161.406"/>
</g>
<!-- Node5 -->
<g id="node5" class="node"><title>Node5</title>
<g id="a_node5"><a xlink:href="../../de/d1e/interfaceIG_1_1Lib_1_1IWaitCondition.html" target="_top" xlink:title="Interface for classes that implement blocking until a specified condition is met.">
<polygon fill="white" stroke="black" points="99,-228.5 99,-247.5 179,-247.5 179,-228.5 99,-228.5"/>
<text text-anchor="middle" x="139" y="-235.5" font-family="Helvetica,sans-Serif" font-size="10.00">IWaitCondition</text>
</a>
</g>
</g>
<!-- Node5&#45;&gt;Node2 -->
<g id="edge16" class="edge"><title>Node5&#45;&gt;Node2</title>
<path fill="none" stroke="midnightblue" d="M88.7628,-229.346C65.8841,-223.077 40.8662,-211.685 27,-191 1.01793,-152.241 47.053,-97.6089 67.228,-76.6492"/>
<polygon fill="midnightblue" stroke="midnightblue" points="88.1888,-232.809 98.7361,-231.806 89.8655,-226.013 88.1888,-232.809"/>
</g>
<!-- Node5&#45;&gt;Node3 -->
<g id="edge7" class="edge"><title>Node5&#45;&gt;Node3</title>
<path fill="none" stroke="midnightblue" d="M142.862,-218.195C146.406,-204.204 152.703,-185.162 163,-171 174.686,-154.927 193.478,-141.636 206.708,-133.542"/>
<polygon fill="midnightblue" stroke="midnightblue" points="139.404,-217.614 140.586,-228.143 146.228,-219.176 139.404,-217.614"/>
</g>
<!-- Node5&#45;&gt;Node4 -->
<g id="edge4" class="edge"><title>Node5&#45;&gt;Node4</title>
<path fill="none" stroke="midnightblue" d="M160.392,-222.824C175.814,-212.605 196.122,-199.148 209.122,-190.533"/>
<polygon fill="midnightblue" stroke="midnightblue" points="158.371,-219.965 151.969,-228.406 162.238,-225.8 158.371,-219.965"/>
</g>
<!-- Node10 -->
<g id="node10" class="node"><title>Node10</title>
<g id="a_node10"><a xlink:href="../../d2/d48/interfaceIG_1_1Lib_1_1IWaitFileEvent.html" target="_top" xlink:title="Interface for classes that provide waiting for specific file events (such as ceration or deletion of ...">
<polygon fill="white" stroke="black" points="36.5,-171.5 36.5,-190.5 115.5,-190.5 115.5,-171.5 36.5,-171.5"/>
<text text-anchor="middle" x="76" y="-178.5" font-family="Helvetica,sans-Serif" font-size="10.00">IWaitFileEvent</text>
</a>
</g>
</g>
<!-- Node5&#45;&gt;Node10 -->
<g id="edge14" class="edge"><title>Node5&#45;&gt;Node10</title>
<path fill="none" stroke="midnightblue" d="M121.484,-221.708C110.037,-211.715 95.4999,-199.024 85.9825,-190.715"/>
<polygon fill="midnightblue" stroke="midnightblue" points="119.321,-224.466 129.156,-228.406 123.925,-219.193 119.321,-224.466"/>
</g>
<!-- Node6 -->
<g id="node6" class="node"><title>Node6</title>
<g id="a_node6"><a xlink:href="../../d3/db6/interfaceIG_1_1Lib_1_1ILockable.html" target="_top" xlink:title="Lockable object, has a Lock property that returns object on which lock must be performed in order to ...">
<polygon fill="white" stroke="black" points="216,-328.5 216,-347.5 274,-347.5 274,-328.5 216,-328.5"/>
<text text-anchor="middle" x="245" y="-335.5" font-family="Helvetica,sans-Serif" font-size="10.00">ILockable</text>
</a>
</g>
</g>
<!-- Node6&#45;&gt;Node3 -->
<g id="edge8" class="edge"><title>Node6&#45;&gt;Node3</title>
<path fill="none" stroke="midnightblue" d="M255.992,-319.377C274.017,-288.042 305.522,-221.212 281,-171 272.622,-153.844 254.411,-141.223 240.423,-133.586"/>
<polygon fill="midnightblue" stroke="midnightblue" points="252.823,-317.857 250.702,-328.237 258.833,-321.445 252.823,-317.857"/>
</g>
<!-- Node6&#45;&gt;Node4 -->
<g id="edge6" class="edge"><title>Node6&#45;&gt;Node4</title>
<path fill="none" stroke="midnightblue" d="M242.225,-318.3C237.23,-284.636 226.908,-215.074 223.288,-190.681"/>
<polygon fill="midnightblue" stroke="midnightblue" points="238.768,-318.844 243.698,-328.222 245.692,-317.817 238.768,-318.844"/>
</g>
<!-- Node6&#45;&gt;Node5 -->
<g id="edge5" class="edge"><title>Node6&#45;&gt;Node5</title>
<path fill="none" stroke="midnightblue" d="M214.313,-323.918C206.928,-320.022 199.347,-315.343 193,-310 170.964,-291.449 152.443,-262.375 143.962,-247.861"/>
<polygon fill="midnightblue" stroke="midnightblue" points="212.937,-327.142 223.454,-328.425 216.032,-320.864 212.937,-327.142"/>
</g>
<!-- Node7 -->
<g id="node7" class="node"><title>Node7</title>
<g id="a_node7"><a xlink:href="../../de/de7/classIG_1_1Lib_1_1StopWatch1.html" target="_top" xlink:title="Timer for measuring execution times and other intervals of time elapsed between successive events....">
<polygon fill="white" stroke="black" points="328.5,-228.5 328.5,-247.5 427.5,-247.5 427.5,-228.5 328.5,-228.5"/>
<text text-anchor="middle" x="378" y="-235.5" font-family="Helvetica,sans-Serif" font-size="10.00">IG.Lib.StopWatch1</text>
</a>
</g>
</g>
<!-- Node6&#45;&gt;Node7 -->
<g id="edge10" class="edge"><title>Node6&#45;&gt;Node7</title>
<path fill="none" stroke="midnightblue" d="M283.694,-325.474C294.031,-321.451 304.86,-316.322 314,-310 339.659,-292.253 362.147,-262.281 372.283,-247.611"/>
<polygon fill="midnightblue" stroke="midnightblue" points="282.209,-322.289 274.005,-328.994 284.599,-328.869 282.209,-322.289"/>
</g>
<!-- Node6&#45;&gt;Node10 -->
<g id="edge15" class="edge"><title>Node6&#45;&gt;Node10</title>
<path fill="none" stroke="midnightblue" d="M235.799,-319.314C219.794,-288.558 188.47,-228.428 188,-228 167.264,-209.092 137.697,-197.394 114.149,-190.53"/>
<polygon fill="midnightblue" stroke="midnightblue" points="232.853,-321.234 240.574,-328.489 239.063,-318.003 232.853,-321.234"/>
</g>
<!-- Node7&#45;&gt;Node3 -->
<g id="edge9" class="edge"><title>Node7&#45;&gt;Node3</title>
<path fill="none" stroke="#9a32cd" stroke-dasharray="5,2" d="M369.191,-219.36C358.651,-200.031 339.222,-169.457 314,-152 298.26,-141.105 278.096,-134.55 260.659,-130.635"/>
<polygon fill="#9a32cd" stroke="#9a32cd" points="366.138,-221.076 373.875,-228.313 372.341,-217.83 366.138,-221.076"/>
<text text-anchor="middle" x="366.5" y="-178.5" font-family="Helvetica,sans-Serif" font-size="10.00"> _timer</text>
</g>
<!-- Node8 -->
<g id="node8" class="node"><title>Node8</title>
<g id="a_node8"><a xlink:href="../../dc/d79/interfaceIG_1_1Lib_1_1IIdentifiable.html" target="_top" xlink:title="Classes whose instances have unique integer IDs.">
<polygon fill="white" stroke="black" points="415.5,-328.5 415.5,-347.5 480.5,-347.5 480.5,-328.5 415.5,-328.5"/>
<text text-anchor="middle" x="448" y="-335.5" font-family="Helvetica,sans-Serif" font-size="10.00">IIdentifiable</text>
</a>
</g>
</g>
<!-- Node8&#45;&gt;Node7 -->
<g id="edge11" class="edge"><title>Node8&#45;&gt;Node7</title>
<path fill="none" stroke="midnightblue" d="M448.701,-317.676C448.283,-302.206 445.39,-280.733 434,-266 427.531,-257.632 417.808,-251.714 408.271,-247.596"/>
<polygon fill="midnightblue" stroke="midnightblue" points="445.199,-318.103 448.638,-328.124 452.199,-318.146 445.199,-318.103"/>
</g>
<!-- Node9 -->
<g id="node9" class="node"><title>Node9</title>
<g id="a_node9"><a xlink:title=" ">
<polygon fill="white" stroke="#bfbfbf" points="352.5,-328.5 352.5,-347.5 393.5,-347.5 393.5,-328.5 352.5,-328.5"/>
<text text-anchor="middle" x="373" y="-335.5" font-family="Helvetica,sans-Serif" font-size="10.00">static</text>
</a>
</g>
</g>
<!-- Node9&#45;&gt;Node7 -->
<g id="edge12" class="edge"><title>Node9&#45;&gt;Node7</title>
<path fill="none" stroke="#9a32cd" stroke-dasharray="5,2" d="M372.585,-318.165C372.434,-303.837 372.575,-283.646 374,-266 374.488,-259.954 375.488,-253.204 376.366,-247.966"/>
<polygon fill="#9a32cd" stroke="#9a32cd" points="369.087,-318.297 372.75,-328.238 376.086,-318.182 369.087,-318.297"/>
<text text-anchor="middle" x="404" y="-302" font-family="Helvetica,sans-Serif" font-size="10.00"> lastId</text>
<text text-anchor="middle" x="404" y="-291" font-family="Helvetica,sans-Serif" font-size="10.00">_staticLock</text>
<text text-anchor="middle" x="404" y="-280" font-family="Helvetica,sans-Serif" font-size="10.00">numWarnCpu</text>
<text text-anchor="middle" x="404" y="-269" font-family="Helvetica,sans-Serif" font-size="10.00">MaxWarnCpu</text>
</g>
<!-- Node10&#45;&gt;Node2 -->
<g id="edge13" class="edge"><title>Node10&#45;&gt;Node2</title>
<path fill="none" stroke="midnightblue" d="M76,-161.009C76,-136.477 76,-94.7863 76,-76.7476"/>
<polygon fill="midnightblue" stroke="midnightblue" points="72.5001,-161.212 76,-171.212 79.5001,-161.212 72.5001,-161.212"/>
</g>
</g>
</svg>
