<?xml version="1.0" encoding="UTF-8" standalone="no"?>
<!DOCTYPE svg PUBLIC "-//W3C//DTD SVG 1.1//EN"
 "http://www.w3.org/Graphics/SVG/1.1/DTD/svg11.dtd">
<!-- Generated by graphviz version 2.38.0 (20140413.2041)
 -->
<!-- Title: IG.Gr.GraphicPrimitiveSimple Pages: 1 -->
<svg width="276pt" height="286pt"
 viewBox="0.00 0.00 275.50 286.00" xmlns="http://www.w3.org/2000/svg" xmlns:xlink="http://www.w3.org/1999/xlink">
<g id="graph0" class="graph" transform="scale(1 1) rotate(0) translate(4 282)">
<title>IG.Gr.GraphicPrimitiveSimple</title>
<polygon fill="white" stroke="none" points="-4,4 -4,-282 271.5,-282 271.5,4 -4,4"/>
<!-- Node1 -->
<g id="node1" class="node"><title>Node1</title>
<g id="a_node1"><a xlink:title="GraphicPrimitive that has a protected Coordinates[] array.">
<polygon fill="#bfbfbf" stroke="black" points="11.5,-0.5 11.5,-19.5 154.5,-19.5 154.5,-0.5 11.5,-0.5"/>
<text text-anchor="middle" x="83" y="-7.5" font-family="Helvetica,sans-Serif" font-size="10.00">IG.Gr.GraphicPrimitiveSimple</text>
</a>
</g>
</g>
<!-- Node2 -->
<g id="node2" class="node"><title>Node2</title>
<g id="a_node2"><a xlink:href="../../d3/d1a/classIG_1_1Gr_1_1GraphicPrimitive.html" target="_top" xlink:title="Abstract base class for all graphic primitives such as lines, facets, etc.">
<polygon fill="white" stroke="black" points="39.5,-57.5 39.5,-76.5 126.5,-76.5 126.5,-57.5 39.5,-57.5"/>
<text text-anchor="middle" x="83" y="-64.5" font-family="Helvetica,sans-Serif" font-size="10.00">GraphicPrimitive</text>
</a>
</g>
</g>
<!-- Node2&#45;&gt;Node1 -->
<g id="edge1" class="edge"><title>Node2&#45;&gt;Node1</title>
<path fill="none" stroke="midnightblue" d="M83,-47.1166C83,-37.8173 83,-27.0557 83,-19.7149"/>
<polygon fill="midnightblue" stroke="midnightblue" points="79.5001,-47.4062 83,-57.4063 86.5001,-47.4063 79.5001,-47.4062"/>
</g>
<!-- Node3 -->
<g id="node3" class="node"><title>Node3</title>
<g id="a_node3"><a xlink:href="../../d0/da2/classIG_1_1Gr_1_1GraphicObject.html" target="_top" xlink:title="Graphic object, a tree &#45; like collection of graphic primitives.">
<polygon fill="white" stroke="black" points="108.5,-124.5 108.5,-143.5 213.5,-143.5 213.5,-124.5 108.5,-124.5"/>
<text text-anchor="middle" x="161" y="-131.5" font-family="Helvetica,sans-Serif" font-size="10.00">IG.Gr.GraphicObject</text>
</a>
</g>
</g>
<!-- Node3&#45;&gt;Node2 -->
<g id="edge2" class="edge"><title>Node3&#45;&gt;Node2</title>
<path fill="none" stroke="#9a32cd" stroke-dasharray="5,2" d="M142.656,-117.713C127.288,-104.907 105.906,-87.0884 93.3528,-76.6273"/>
<polygon fill="#9a32cd" stroke="#9a32cd" points="140.558,-120.521 150.481,-124.234 145.039,-115.143 140.558,-120.521"/>
<text text-anchor="middle" x="144" y="-98" font-family="Helvetica,sans-Serif" font-size="10.00"> _parent</text>
</g>
<!-- Node3&#45;&gt;Node3 -->
<g id="edge3" class="edge"><title>Node3&#45;&gt;Node3</title>
<path fill="none" stroke="#9a32cd" stroke-dasharray="5,2" d="M223.845,-138.488C228.585,-137.488 231.5,-135.992 231.5,-134 231.5,-130.813 224.039,-128.895 213.575,-128.248"/>
<polygon fill="#9a32cd" stroke="#9a32cd" points="223.073,-135.057 213.575,-139.752 223.928,-142.004 223.073,-135.057"/>
<text text-anchor="middle" x="249.5" y="-131.5" font-family="Helvetica,sans-Serif" font-size="10.00"> _parent</text>
</g>
<!-- Node4 -->
<g id="node4" class="node"><title>Node4</title>
<g id="a_node4"><a xlink:href="../../dc/d46/classIG_1_1Gr_1_1GrPrimitiveSettings.html" target="_top" xlink:title="Settings for graphic primitive.">
<polygon fill="white" stroke="black" points="0,-191.5 0,-210.5 126,-210.5 126,-191.5 0,-191.5"/>
<text text-anchor="middle" x="63" y="-198.5" font-family="Helvetica,sans-Serif" font-size="10.00">IG.Gr.GrPrimitiveSettings</text>
</a>
</g>
</g>
<!-- Node4&#45;&gt;Node2 -->
<g id="edge6" class="edge"><title>Node4&#45;&gt;Node2</title>
<path fill="none" stroke="#9a32cd" stroke-dasharray="5,2" d="M58.544,-181.57C55.5026,-166.047 52.7284,-143.344 57,-124 60.9292,-106.206 71.1054,-87.3501 77.4991,-76.6891"/>
<polygon fill="#9a32cd" stroke="#9a32cd" points="55.15,-182.433 60.7088,-191.452 61.9879,-180.935 55.15,-182.433"/>
<text text-anchor="middle" x="78.5" y="-131.5" font-family="Helvetica,sans-Serif" font-size="10.00"> _settings</text>
</g>
<!-- Node4&#45;&gt;Node3 -->
<g id="edge4" class="edge"><title>Node4&#45;&gt;Node3</title>
<path fill="none" stroke="#9a32cd" stroke-dasharray="5,2" d="M84.7191,-185.595C104.106,-172.736 131.855,-154.331 147.993,-143.627"/>
<polygon fill="#9a32cd" stroke="#9a32cd" points="82.6157,-182.79 76.2167,-191.234 86.4849,-188.623 82.6157,-182.79"/>
<text text-anchor="middle" x="138.5" y="-165" font-family="Helvetica,sans-Serif" font-size="10.00"> _settings</text>
</g>
<!-- Node5 -->
<g id="node5" class="node"><title>Node5</title>
<g id="a_node5"><a xlink:href="../../dd/d52/structIG_1_1Lib_1_1color.html" target="_top" xlink:title="Extended color representation. Stores RGB components and opacity as double numbers ranging fom 0 to 1...">
<polygon fill="white" stroke="black" points="30,-258.5 30,-277.5 96,-277.5 96,-258.5 30,-258.5"/>
<text text-anchor="middle" x="63" y="-265.5" font-family="Helvetica,sans-Serif" font-size="10.00">IG.Lib.color</text>
</a>
</g>
</g>
<!-- Node5&#45;&gt;Node4 -->
<g id="edge5" class="edge"><title>Node5&#45;&gt;Node4</title>
<path fill="none" stroke="#9a32cd" stroke-dasharray="5,2" d="M63,-248.037C63,-235.67 63,-220.12 63,-210.627"/>
<polygon fill="#9a32cd" stroke="#9a32cd" points="59.5001,-248.234 63,-258.234 66.5001,-248.234 59.5001,-248.234"/>
<text text-anchor="middle" x="78" y="-232" font-family="Helvetica,sans-Serif" font-size="10.00"> _color</text>
</g>
</g>
</svg>
