<?xml version="1.0" encoding="UTF-8" standalone="no"?>
<!DOCTYPE svg PUBLIC "-//W3C//DTD SVG 1.1//EN"
 "http://www.w3.org/Graphics/SVG/1.1/DTD/svg11.dtd">
<!-- Generated by graphviz version 2.38.0 (20140413.2041)
 -->
<!-- Title: IG.Lib.LoadableScriptOptBase Pages: 1 -->
<svg width="601pt" height="88pt"
 viewBox="0.00 0.00 601.00 88.00" xmlns="http://www.w3.org/2000/svg" xmlns:xlink="http://www.w3.org/1999/xlink">
<g id="graph0" class="graph" transform="scale(1 1) rotate(0) translate(4 84)">
<title>IG.Lib.LoadableScriptOptBase</title>
<polygon fill="white" stroke="none" points="-4,4 -4,-84 597,-84 597,4 -4,4"/>
<!-- Node1 -->
<g id="node1" class="node"><title>Node1</title>
<g id="a_node1"><a xlink:title="Base class for loadable scripts for optimization problems. AGREEMENTS: The first argument to initiali...">
<polygon fill="#bfbfbf" stroke="black" points="259,-30 259,-49 407,-49 407,-30 259,-30"/>
<text text-anchor="middle" x="333" y="-37" font-family="Helvetica,sans-Serif" font-size="10.00">IG.Lib.LoadableScriptOptBase</text>
</a>
</g>
</g>
<!-- Node5 -->
<g id="node5" class="node"><title>Node5</title>
<g id="a_node5"><a xlink:href="../../d7/d31/classIG_1_1Lib_1_1LoadableScriptOptShellBaseControllable.html" target="_top" xlink:title="Controllable version of LoadableScriptOptBase, implements the ILoadableScriptC interface.">
<polygon fill="white" stroke="black" points="455.5,-49.5 455.5,-79.5 580.5,-79.5 580.5,-49.5 455.5,-49.5"/>
<text text-anchor="start" x="463.5" y="-67.5" font-family="Helvetica,sans-Serif" font-size="10.00">IG.Lib.LoadableScriptOpt</text>
<text text-anchor="middle" x="518" y="-56.5" font-family="Helvetica,sans-Serif" font-size="10.00">ShellBaseControllable</text>
</a>
</g>
</g>
<!-- Node1&#45;&gt;Node5 -->
<g id="edge6" class="edge"><title>Node1&#45;&gt;Node5</title>
<path fill="none" stroke="midnightblue" d="M413.752,-50.3951C427.663,-52.2955 441.943,-54.2463 455.276,-56.0677"/>
<polygon fill="midnightblue" stroke="midnightblue" points="414.088,-46.9086 403.706,-49.0227 413.141,-53.8442 414.088,-46.9086"/>
</g>
<!-- Node6 -->
<g id="node6" class="node"><title>Node6</title>
<g id="a_node6"><a xlink:href="../../d2/dae/classIG_1_1Lib_1_1LoadableScriptOptTest_1_1LoadableScriptOptDerived.html" target="_top" xlink:title=" ">
<polygon fill="white" stroke="black" points="443,-0.5 443,-30.5 593,-30.5 593,-0.5 443,-0.5"/>
<text text-anchor="start" x="451" y="-18.5" font-family="Helvetica,sans-Serif" font-size="10.00">IG.Lib.LoadableScriptOpt</text>
<text text-anchor="middle" x="518" y="-7.5" font-family="Helvetica,sans-Serif" font-size="10.00">Test.LoadableScriptOptDerived</text>
</a>
</g>
</g>
<!-- Node1&#45;&gt;Node6 -->
<g id="edge7" class="edge"><title>Node1&#45;&gt;Node6</title>
<path fill="none" stroke="midnightblue" d="M416.781,-28.6435C425.521,-27.4972 434.368,-26.337 443,-25.205"/>
<polygon fill="midnightblue" stroke="midnightblue" points="416.049,-25.2094 406.589,-29.9801 416.96,-32.15 416.049,-25.2094"/>
</g>
<!-- Node2 -->
<g id="node2" class="node"><title>Node2</title>
<g id="a_node2"><a xlink:href="../../d7/d15/classIG_1_1Lib_1_1LoadableScriptBase.html" target="_top" xlink:title="Base class for classes that can be dynamically loadeded from scripts and run, which provides function...">
<polygon fill="white" stroke="black" points="119,-30 119,-49 223,-49 223,-30 119,-30"/>
<text text-anchor="middle" x="171" y="-37" font-family="Helvetica,sans-Serif" font-size="10.00">LoadableScriptBase</text>
</a>
</g>
</g>
<!-- Node2&#45;&gt;Node1 -->
<g id="edge1" class="edge"><title>Node2&#45;&gt;Node1</title>
<path fill="none" stroke="midnightblue" d="M233.18,-39.5C241.615,-39.5 250.345,-39.5 258.968,-39.5"/>
<polygon fill="midnightblue" stroke="midnightblue" points="233.065,-36.0001 223.065,-39.5 233.065,-43.0001 233.065,-36.0001"/>
</g>
<!-- Node3 -->
<g id="node3" class="node"><title>Node3</title>
<g id="a_node3"><a xlink:href="../../d7/d66/interfaceIG_1_1Lib_1_1ILoadableScript.html" target="_top" xlink:title="Interface for classes that can be dynamically loadeded from scripts and run, which provides functiona...">
<polygon fill="white" stroke="black" points="0,-58 0,-77 83,-77 83,-58 0,-58"/>
<text text-anchor="middle" x="41.5" y="-65" font-family="Helvetica,sans-Serif" font-size="10.00">ILoadableScript</text>
</a>
</g>
</g>
<!-- Node3&#45;&gt;Node1 -->
<g id="edge4" class="edge"><title>Node3&#45;&gt;Node1</title>
<path fill="none" stroke="midnightblue" d="M93.4321,-66.6271C129.663,-65.5998 179.436,-63.3643 223,-58.5 243.331,-56.2298 265.611,-52.5602 284.699,-49.0484"/>
<polygon fill="midnightblue" stroke="midnightblue" points="93.0227,-63.1365 83.1178,-66.8973 93.2061,-70.1341 93.0227,-63.1365"/>
</g>
<!-- Node3&#45;&gt;Node2 -->
<g id="edge2" class="edge"><title>Node3&#45;&gt;Node2</title>
<path fill="none" stroke="midnightblue" d="M93.1643,-56.3737C104.235,-53.9425 115.856,-51.3904 126.613,-49.0281"/>
<polygon fill="midnightblue" stroke="midnightblue" points="92.2088,-53.0001 83.1923,-58.5636 93.7104,-59.8371 92.2088,-53.0001"/>
</g>
<!-- Node4 -->
<g id="node4" class="node"><title>Node4</title>
<g id="a_node4"><a xlink:href="../../d3/db6/interfaceIG_1_1Lib_1_1ILockable.html" target="_top" xlink:title="Lockable object, has a Lock property that returns object on which lock must be performed in order to ...">
<polygon fill="white" stroke="black" points="12.5,-1 12.5,-20 70.5,-20 70.5,-1 12.5,-1"/>
<text text-anchor="middle" x="41.5" y="-8" font-family="Helvetica,sans-Serif" font-size="10.00">ILockable</text>
</a>
</g>
</g>
<!-- Node4&#45;&gt;Node1 -->
<g id="edge5" class="edge"><title>Node4&#45;&gt;Node1</title>
<path fill="none" stroke="midnightblue" d="M80.9577,-11.3254C117.576,-12.4195 174.187,-14.913 223,-20.5 243.229,-22.8154 265.394,-26.4709 284.423,-29.9597"/>
<polygon fill="midnightblue" stroke="midnightblue" points="80.8183,-7.82027 70.7248,-11.0407 80.6236,-14.8176 80.8183,-7.82027"/>
</g>
<!-- Node4&#45;&gt;Node2 -->
<g id="edge3" class="edge"><title>Node4&#45;&gt;Node2</title>
<path fill="none" stroke="midnightblue" d="M80.7491,-19.1998C95.7176,-22.6044 112.932,-26.5198 128.224,-29.998"/>
<polygon fill="midnightblue" stroke="midnightblue" points="81.3236,-15.7411 70.7964,-16.936 79.7711,-22.5668 81.3236,-15.7411"/>
</g>
</g>
</svg>
