<?xml version="1.0" encoding="UTF-8" standalone="no"?>
<!DOCTYPE svg PUBLIC "-//W3C//DTD SVG 1.1//EN"
 "http://www.w3.org/Graphics/SVG/1.1/DTD/svg11.dtd">
<!-- Generated by graphviz version 2.38.0 (20140413.2041)
 -->
<!-- Title: IG.Num.VectorStore&lt; T &gt; Pages: 1 -->
<svg width="213pt" height="140pt"
 viewBox="0.00 0.00 213.00 140.00" xmlns="http://www.w3.org/2000/svg" xmlns:xlink="http://www.w3.org/1999/xlink">
<g id="graph0" class="graph" transform="scale(1 1) rotate(0) translate(4 136)">
<title>IG.Num.VectorStore&lt; T &gt;</title>
<polygon fill="white" stroke="none" points="-4,4 -4,-136 209,-136 209,4 -4,4"/>
<!-- Node1 -->
<g id="node1" class="node"><title>Node1</title>
<g id="a_node1"><a xlink:title="Vector store.">
<polygon fill="#bfbfbf" stroke="black" points="0,-0.5 0,-19.5 128,-19.5 128,-0.5 0,-0.5"/>
<text text-anchor="middle" x="64" y="-7.5" font-family="Helvetica,sans-Serif" font-size="10.00">IG.Num.VectorStore&lt; T &gt;</text>
</a>
</g>
</g>
<!-- Node2 -->
<g id="node2" class="node"><title>Node2</title>
<g id="a_node2"><a xlink:href="../../d3/db6/interfaceIG_1_1Lib_1_1ILockable.html" target="_top" xlink:title="Lockable object, has a Lock property that returns object on which lock must be performed in order to ...">
<polygon fill="white" stroke="black" points="35,-112.5 35,-131.5 93,-131.5 93,-112.5 35,-112.5"/>
<text text-anchor="middle" x="64" y="-119.5" font-family="Helvetica,sans-Serif" font-size="10.00">ILockable</text>
</a>
</g>
</g>
<!-- Node2&#45;&gt;Node1 -->
<g id="edge1" class="edge"><title>Node2&#45;&gt;Node1</title>
<path fill="none" stroke="midnightblue" d="M58.7838,-102.348C56.3517,-78.2538 56.812,-37.3079 60.1646,-19.5914"/>
<polygon fill="midnightblue" stroke="midnightblue" points="55.3316,-102.936 60.157,-112.368 62.2668,-101.986 55.3316,-102.936"/>
</g>
<!-- Node2&#45;&gt;Node1 -->
<g id="edge5" class="edge"><title>Node2&#45;&gt;Node1</title>
<path fill="none" stroke="midnightblue" d="M69.2162,-102.348C71.6483,-78.2538 71.188,-37.3079 67.8354,-19.5914"/>
<polygon fill="midnightblue" stroke="midnightblue" points="65.7332,-101.986 67.843,-112.368 72.6684,-102.936 65.7332,-101.986"/>
</g>
<!-- Node3 -->
<g id="node3" class="node"><title>Node3</title>
<g id="a_node3"><a xlink:href="../../d7/d24/classIG_1_1Lib_1_1ObjectStore.html" target="_top" xlink:title="Object store. Objects of the specified type can be stored here for later reuse (efficiency improvemen...">
<polygon fill="white" stroke="black" points="101,-56.5 101,-75.5 193,-75.5 193,-56.5 101,-56.5"/>
<text text-anchor="middle" x="147" y="-63.5" font-family="Helvetica,sans-Serif" font-size="10.00">ObjectStore&lt; T &gt;</text>
</a>
</g>
</g>
<!-- Node2&#45;&gt;Node3 -->
<g id="edge4" class="edge"><title>Node2&#45;&gt;Node3</title>
<path fill="none" stroke="midnightblue" d="M86.0993,-106.622C101.262,-96.7574 120.883,-83.9919 133.698,-75.6545"/>
<polygon fill="midnightblue" stroke="midnightblue" points="83.8088,-103.937 77.3354,-112.324 87.6262,-109.804 83.8088,-103.937"/>
</g>
<!-- Node3&#45;&gt;Node1 -->
<g id="edge2" class="edge"><title>Node3&#45;&gt;Node1</title>
<path fill="none" stroke="midnightblue" d="M124.901,-50.6221C109.738,-40.7574 90.1172,-27.9919 77.3023,-19.6545"/>
<polygon fill="midnightblue" stroke="midnightblue" points="123.374,-53.8042 133.665,-56.324 127.191,-47.9367 123.374,-53.8042"/>
</g>
<!-- Node4 -->
<g id="node4" class="node"><title>Node4</title>
<g id="a_node4"><a xlink:href="../../d5/dd6/interfaceIG_1_1Lib_1_1IObjectStore.html" target="_top" xlink:title="Object store. Objects of the specified type can be stored here for later reuse (efficiency improvemen...">
<polygon fill="white" stroke="black" points="111,-112.5 111,-131.5 205,-131.5 205,-112.5 111,-112.5"/>
<text text-anchor="middle" x="158" y="-119.5" font-family="Helvetica,sans-Serif" font-size="10.00">IObjectStore&lt; T &gt;</text>
</a>
</g>
</g>
<!-- Node4&#45;&gt;Node3 -->
<g id="edge3" class="edge"><title>Node4&#45;&gt;Node3</title>
<path fill="none" stroke="midnightblue" d="M154.15,-102.101C152.324,-93.1357 150.23,-82.8579 148.783,-75.7511"/>
<polygon fill="midnightblue" stroke="midnightblue" points="150.758,-102.983 156.184,-112.083 157.617,-101.586 150.758,-102.983"/>
</g>
</g>
</svg>
