<?xml version="1.0" encoding="UTF-8" standalone="no"?>
<!DOCTYPE svg PUBLIC "-//W3C//DTD SVG 1.1//EN"
 "http://www.w3.org/Graphics/SVG/1.1/DTD/svg11.dtd">
<!-- Generated by graphviz version 2.38.0 (20140413.2041)
 -->
<!-- Title: IG.Num.AffineTransformationSquare Pages: 1 -->
<svg width="738pt" height="268pt"
 viewBox="0.00 0.00 738.00 268.00" xmlns="http://www.w3.org/2000/svg" xmlns:xlink="http://www.w3.org/1999/xlink">
<g id="graph0" class="graph" transform="scale(1 1) rotate(0) translate(4 264)">
<title>IG.Num.AffineTransformationSquare</title>
<polygon fill="white" stroke="none" points="-4,4 -4,-264 734,-264 734,4 -4,4"/>
<!-- Node1 -->
<g id="node1" class="node"><title>Node1</title>
<g id="a_node1"><a xlink:title="Invertible Affine transformation with square transformation matrix.">
<polygon fill="#bfbfbf" stroke="black" points="590,-134 590,-164 730,-164 730,-134 590,-134"/>
<text text-anchor="start" x="598" y="-152" font-family="Helvetica,sans-Serif" font-size="10.00">IG.Num.AffineTransformation</text>
<text text-anchor="middle" x="660" y="-141" font-family="Helvetica,sans-Serif" font-size="10.00">Square</text>
</a>
</g>
</g>
<!-- Node2 -->
<g id="node2" class="node"><title>Node2</title>
<g id="a_node2"><a xlink:href="../../d5/d50/interfaceIG_1_1Num_1_1IAffineTransformation.html" target="_top" xlink:title="Affine Transformation.">
<polygon fill="white" stroke="black" points="370.5,-240.5 370.5,-259.5 477.5,-259.5 477.5,-240.5 370.5,-240.5"/>
<text text-anchor="middle" x="424" y="-247.5" font-family="Helvetica,sans-Serif" font-size="10.00">IAffineTransformation</text>
</a>
</g>
</g>
<!-- Node2&#45;&gt;Node1 -->
<g id="edge1" class="edge"><title>Node2&#45;&gt;Node1</title>
<path fill="none" stroke="midnightblue" d="M487.692,-239.202C514.463,-233.232 545.564,-224.441 572,-212 598.66,-199.454 625.552,-178.396 642.234,-164.113"/>
<polygon fill="midnightblue" stroke="midnightblue" points="486.706,-235.834 477.663,-241.354 488.175,-242.678 486.706,-235.834"/>
</g>
<!-- Node3 -->
<g id="node3" class="node"><title>Node3</title>
<g id="a_node3"><a xlink:href="../../d3/db6/interfaceIG_1_1Lib_1_1ILockable.html" target="_top" xlink:title="Lockable object, has a Lock property that returns object on which lock must be performed in order to ...">
<polygon fill="white" stroke="black" points="395,-202.5 395,-221.5 453,-221.5 453,-202.5 395,-202.5"/>
<text text-anchor="middle" x="424" y="-209.5" font-family="Helvetica,sans-Serif" font-size="10.00">ILockable</text>
</a>
</g>
</g>
<!-- Node3&#45;&gt;Node1 -->
<g id="edge2" class="edge"><title>Node3&#45;&gt;Node1</title>
<path fill="none" stroke="midnightblue" d="M463.274,-209.768C493.359,-207.246 536.043,-201.959 572,-191 593.498,-184.448 616.327,-173.248 633.204,-164.06"/>
<polygon fill="midnightblue" stroke="midnightblue" points="462.89,-206.287 453.19,-210.55 463.431,-213.266 462.89,-206.287"/>
</g>
<!-- Node4 -->
<g id="node4" class="node"><title>Node4</title>
<g id="a_node4"><a xlink:href="../../d4/d1d/classIG_1_1Num_1_1Matrix.html" target="_top" xlink:title="Real matrix class. Some operations are performed by the MathNet.Numerics.LinearAlgebra....">
<polygon fill="white" stroke="black" points="384,-164.5 384,-183.5 464,-183.5 464,-164.5 384,-164.5"/>
<text text-anchor="middle" x="424" y="-171.5" font-family="Helvetica,sans-Serif" font-size="10.00">IG.Num.Matrix</text>
</a>
</g>
</g>
<!-- Node4&#45;&gt;Node1 -->
<g id="edge3" class="edge"><title>Node4&#45;&gt;Node1</title>
<path fill="none" stroke="#9a32cd" stroke-dasharray="5,2" d="M474.197,-168.744C507.765,-165.158 552.701,-160.357 589.857,-156.387"/>
<polygon fill="#9a32cd" stroke="#9a32cd" points="473.738,-165.273 464.166,-169.816 474.482,-172.233 473.738,-165.273"/>
<text text-anchor="middle" x="542" y="-179" font-family="Helvetica,sans-Serif" font-size="10.00"> _auxMat</text>
<text text-anchor="middle" x="542" y="-168" font-family="Helvetica,sans-Serif" font-size="10.00">_identityMat</text>
</g>
<!-- Node5 -->
<g id="node5" class="node"><title>Node5</title>
<g id="a_node5"><a xlink:href="../../d9/db9/classIG_1_1Num_1_1MatrixBase.html" target="_top" xlink:title="Base class for matrices.">
<polygon fill="white" stroke="black" points="143,-152.5 143,-171.5 209,-171.5 209,-152.5 143,-152.5"/>
<text text-anchor="middle" x="176" y="-159.5" font-family="Helvetica,sans-Serif" font-size="10.00">MatrixBase</text>
</a>
</g>
</g>
<!-- Node5&#45;&gt;Node4 -->
<g id="edge4" class="edge"><title>Node5&#45;&gt;Node4</title>
<path fill="none" stroke="midnightblue" d="M219.156,-164.056C265.385,-166.311 338.965,-169.901 383.931,-172.094"/>
<polygon fill="midnightblue" stroke="midnightblue" points="219.319,-160.56 209.16,-163.569 218.978,-167.552 219.319,-160.56"/>
</g>
<!-- Node6 -->
<g id="node6" class="node"><title>Node6</title>
<g id="a_node6"><a xlink:href="../../d8/d86/interfaceIG_1_1Num_1_1IMatrix.html" target="_top" xlink:title="Generic Matrix interface.">
<polygon fill="white" stroke="black" points="0.5,-177.5 0.5,-196.5 46.5,-196.5 46.5,-177.5 0.5,-177.5"/>
<text text-anchor="middle" x="23.5" y="-184.5" font-family="Helvetica,sans-Serif" font-size="10.00">IMatrix</text>
</a>
</g>
</g>
<!-- Node6&#45;&gt;Node4 -->
<g id="edge7" class="edge"><title>Node6&#45;&gt;Node4</title>
<path fill="none" stroke="midnightblue" d="M56.9428,-187.316C113.608,-187.681 234.277,-187.629 336,-182 351.599,-181.137 368.729,-179.673 383.634,-178.232"/>
<polygon fill="midnightblue" stroke="midnightblue" points="56.8321,-183.815 46.8066,-187.242 56.7806,-190.815 56.8321,-183.815"/>
</g>
<!-- Node6&#45;&gt;Node5 -->
<g id="edge5" class="edge"><title>Node6&#45;&gt;Node5</title>
<path fill="none" stroke="midnightblue" d="M56.6159,-181.665C82.0874,-177.434 117.514,-171.549 142.965,-167.321"/>
<polygon fill="midnightblue" stroke="midnightblue" points="55.9981,-178.22 46.7068,-183.311 57.1452,-185.125 55.9981,-178.22"/>
</g>
<!-- Node7 -->
<g id="node7" class="node"><title>Node7</title>
<g id="a_node7"><a xlink:title=" ">
<polygon fill="white" stroke="#bfbfbf" points="3,-106.5 3,-125.5 44,-125.5 44,-106.5 3,-106.5"/>
<text text-anchor="middle" x="23.5" y="-113.5" font-family="Helvetica,sans-Serif" font-size="10.00">static</text>
</a>
</g>
</g>
<!-- Node7&#45;&gt;Node5 -->
<g id="edge6" class="edge"><title>Node7&#45;&gt;Node5</title>
<path fill="none" stroke="#9a32cd" stroke-dasharray="5,2" d="M53.8117,-124.959C79.7052,-132.873 117.353,-144.38 143.799,-152.464"/>
<polygon fill="#9a32cd" stroke="#9a32cd" points="54.7616,-121.59 44.1752,-122.014 52.7154,-128.284 54.7616,-121.59"/>
<text text-anchor="middle" x="94.5" y="-149" font-family="Helvetica,sans-Serif" font-size="10.00"> _matrixStore</text>
</g>
<!-- Node12 -->
<g id="node12" class="node"><title>Node12</title>
<g id="a_node12"><a xlink:href="../../d0/d5a/classIG_1_1Num_1_1VectorBase.html" target="_top" xlink:title="Base class for real vectors.">
<polygon fill="white" stroke="black" points="142,-76.5 142,-95.5 210,-95.5 210,-76.5 142,-76.5"/>
<text text-anchor="middle" x="176" y="-83.5" font-family="Helvetica,sans-Serif" font-size="10.00">VectorBase</text>
</a>
</g>
</g>
<!-- Node7&#45;&gt;Node12 -->
<g id="edge14" class="edge"><title>Node7&#45;&gt;Node12</title>
<path fill="none" stroke="#9a32cd" stroke-dasharray="5,2" d="M54.2582,-110.068C79.4875,-105.039 115.638,-97.833 141.8,-92.6179"/>
<polygon fill="#9a32cd" stroke="#9a32cd" points="53.2981,-106.691 44.1752,-112.078 54.6665,-113.556 53.2981,-106.691"/>
<text text-anchor="middle" x="94.5" y="-111" font-family="Helvetica,sans-Serif" font-size="10.00"> _matrixStore</text>
</g>
<!-- Node8 -->
<g id="node8" class="node"><title>Node8</title>
<g id="a_node8"><a xlink:title=" ">
<polygon fill="white" stroke="#bfbfbf" points="147,-114.5 147,-133.5 205,-133.5 205,-114.5 147,-114.5"/>
<text text-anchor="middle" x="176" y="-121.5" font-family="Helvetica,sans-Serif" font-size="10.00">Numerics</text>
</a>
</g>
</g>
<!-- Node8&#45;&gt;Node4 -->
<g id="edge8" class="edge"><title>Node8&#45;&gt;Node4</title>
<path fill="none" stroke="#9a32cd" stroke-dasharray="5,2" d="M214.97,-129.042C247.319,-133.616 294.95,-141.009 336,-150 354.52,-154.056 374.969,-159.64 391.386,-164.401"/>
<polygon fill="#9a32cd" stroke="#9a32cd" points="215.419,-125.571 205.032,-127.658 214.454,-132.504 215.419,-125.571"/>
<text text-anchor="middle" x="282" y="-153" font-family="Helvetica,sans-Serif" font-size="10.00"> _copyMathNetNumerics</text>
</g>
<!-- Node11 -->
<g id="node11" class="node"><title>Node11</title>
<g id="a_node11"><a xlink:href="../../d7/de0/classIG_1_1Num_1_1Vector.html" target="_top" xlink:title="Real vector class.">
<polygon fill="white" stroke="black" points="383.5,-38.5 383.5,-57.5 464.5,-57.5 464.5,-38.5 383.5,-38.5"/>
<text text-anchor="middle" x="424" y="-45.5" font-family="Helvetica,sans-Serif" font-size="10.00">IG.Num.Vector</text>
</a>
</g>
</g>
<!-- Node8&#45;&gt;Node11 -->
<g id="edge17" class="edge"><title>Node8&#45;&gt;Node11</title>
<path fill="none" stroke="#9a32cd" stroke-dasharray="5,2" d="M215.153,-117.099C255.331,-109.402 315.554,-96.5165 336,-85 345.858,-79.4476 344.222,-72.6906 354,-67 362.913,-61.8128 373.3,-57.992 383.268,-55.1967"/>
<polygon fill="#9a32cd" stroke="#9a32cd" points="214.332,-113.692 205.155,-118.987 215.631,-120.571 214.332,-113.692"/>
<text text-anchor="middle" x="282" y="-117" font-family="Helvetica,sans-Serif" font-size="10.00"> _copyMathNetNumerics</text>
</g>
<!-- Node9 -->
<g id="node9" class="node"><title>Node9</title>
<g id="a_node9"><a xlink:href="../../d8/d86/interfaceIG_1_1Num_1_1IMatrix.html" target="_top" xlink:title="Generic Matrix interface.">
<polygon fill="white" stroke="black" points="354,-115 354,-145 494,-145 494,-115 354,-115"/>
<text text-anchor="start" x="362" y="-133" font-family="Helvetica,sans-Serif" font-size="10.00">IG.Num.IMatrix&lt; Component</text>
<text text-anchor="middle" x="424" y="-122" font-family="Helvetica,sans-Serif" font-size="10.00">Type &gt;</text>
</a>
</g>
</g>
<!-- Node9&#45;&gt;Node1 -->
<g id="edge9" class="edge"><title>Node9&#45;&gt;Node1</title>
<path fill="none" stroke="#9a32cd" stroke-dasharray="5,2" d="M504.527,-131.683C526.424,-132.572 550.158,-133.928 572,-136 577.777,-136.548 583.757,-137.22 589.75,-137.966"/>
<polygon fill="#9a32cd" stroke="#9a32cd" points="504.401,-128.176 494.276,-131.295 504.136,-135.171 504.401,-128.176"/>
<text text-anchor="middle" x="542" y="-139" font-family="Helvetica,sans-Serif" font-size="10.00"> _transfMatrix</text>
</g>
<!-- Node10 -->
<g id="node10" class="node"><title>Node10</title>
<g id="a_node10"><a xlink:href="../../d3/d24/interfaceIG_1_1Num_1_1IVector.html" target="_top" xlink:title="Generic Vector interface">
<polygon fill="white" stroke="black" points="370.5,-76.5 370.5,-95.5 477.5,-95.5 477.5,-76.5 370.5,-76.5"/>
<text text-anchor="middle" x="424" y="-83.5" font-family="Helvetica,sans-Serif" font-size="10.00">IG.Num.IVector&lt; T &gt;</text>
</a>
</g>
</g>
<!-- Node10&#45;&gt;Node1 -->
<g id="edge10" class="edge"><title>Node10&#45;&gt;Node1</title>
<path fill="none" stroke="#9a32cd" stroke-dasharray="5,2" d="M486.342,-97.5264C512.876,-102.981 544.164,-110.046 572,-118 587.88,-122.537 605.065,-128.442 619.934,-133.879"/>
<polygon fill="#9a32cd" stroke="#9a32cd" points="486.919,-94.0722 476.423,-95.516 485.529,-100.933 486.919,-94.0722"/>
<text text-anchor="middle" x="542" y="-121" font-family="Helvetica,sans-Serif" font-size="10.00"> _translation</text>
</g>
<!-- Node11&#45;&gt;Node1 -->
<g id="edge11" class="edge"><title>Node11&#45;&gt;Node1</title>
<path fill="none" stroke="#9a32cd" stroke-dasharray="5,2" d="M469.509,-60.2124C477.658,-62.4608 486.087,-64.7945 494,-67 528.697,-76.6701 539.401,-73.6799 572,-89 597.738,-101.096 624.203,-120.54 641.078,-134"/>
<polygon fill="#9a32cd" stroke="#9a32cd" points="470.33,-56.8084 459.76,-57.5263 468.471,-63.5569 470.33,-56.8084"/>
<text text-anchor="middle" x="542" y="-92" font-family="Helvetica,sans-Serif" font-size="10.00"> _auxVec</text>
</g>
<!-- Node12&#45;&gt;Node11 -->
<g id="edge12" class="edge"><title>Node12&#45;&gt;Node11</title>
<path fill="none" stroke="midnightblue" d="M220.165,-79.3323C266.283,-72.2083 338.766,-61.0117 383.448,-54.1096"/>
<polygon fill="midnightblue" stroke="midnightblue" points="219.525,-75.8895 210.177,-80.8752 220.594,-82.8074 219.525,-75.8895"/>
</g>
<!-- Node13 -->
<g id="node13" class="node"><title>Node13</title>
<g id="a_node13"><a xlink:href="../../d3/d24/interfaceIG_1_1Num_1_1IVector.html" target="_top" xlink:title="Generic Vector interface">
<polygon fill="white" stroke="black" points="0,-57.5 0,-76.5 47,-76.5 47,-57.5 0,-57.5"/>
<text text-anchor="middle" x="23.5" y="-64.5" font-family="Helvetica,sans-Serif" font-size="10.00">IVector</text>
</a>
</g>
</g>
<!-- Node13&#45;&gt;Node11 -->
<g id="edge15" class="edge"><title>Node13&#45;&gt;Node11</title>
<path fill="none" stroke="midnightblue" d="M57.4496,-65.429C130.253,-61.9578 304.581,-53.6461 383.267,-49.8944"/>
<polygon fill="midnightblue" stroke="midnightblue" points="56.8888,-61.9517 47.0669,-65.924 57.2222,-68.9437 56.8888,-61.9517"/>
</g>
<!-- Node13&#45;&gt;Node12 -->
<g id="edge13" class="edge"><title>Node13&#45;&gt;Node12</title>
<path fill="none" stroke="midnightblue" d="M57.1585,-71.123C82.2634,-74.2924 116.798,-78.6523 141.99,-81.8327"/>
<polygon fill="midnightblue" stroke="midnightblue" points="57.391,-67.6247 47.0314,-69.8445 56.5142,-74.5695 57.391,-67.6247"/>
</g>
<!-- Node14 -->
<g id="node14" class="node"><title>Node14</title>
<g id="a_node14"><a xlink:title=" ">
<polygon fill="white" stroke="#bfbfbf" points="145,-0.5 145,-19.5 207,-19.5 207,-0.5 145,-0.5"/>
<text text-anchor="middle" x="176" y="-7.5" font-family="Helvetica,sans-Serif" font-size="10.00">ICloneable</text>
</a>
</g>
</g>
<!-- Node14&#45;&gt;Node11 -->
<g id="edge16" class="edge"><title>Node14&#45;&gt;Node11</title>
<path fill="none" stroke="midnightblue" d="M217.119,-15.9453C249.277,-20.7375 295.554,-27.6933 336,-34 351.418,-36.4041 368.361,-39.115 383.167,-41.5065"/>
<polygon fill="midnightblue" stroke="midnightblue" points="217.605,-12.4792 207.199,-14.4689 216.575,-19.403 217.605,-12.4792"/>
</g>
</g>
</svg>
