<?xml version="1.0" encoding="UTF-8" standalone="no"?>
<!DOCTYPE svg PUBLIC "-//W3C//DTD SVG 1.1//EN"
 "http://www.w3.org/Graphics/SVG/1.1/DTD/svg11.dtd">
<!-- Generated by graphviz version 2.38.0 (20140413.2041)
 -->
<!-- Title: IG.Num.UnstructuredMesh1d&lt; TCoord, TIndexField, TIndex, TScalarField, TScalar, TVectorField, TVector, TTensorField, TTensor &gt; Pages: 1 -->
<svg width="187pt" height="195pt"
 viewBox="0.00 0.00 187.00 195.00" xmlns="http://www.w3.org/2000/svg" xmlns:xlink="http://www.w3.org/1999/xlink">
<g id="graph0" class="graph" transform="scale(1 1) rotate(0) translate(4 191)">
<title>IG.Num.UnstructuredMesh1d&lt; TCoord, TIndexField, TIndex, TScalarField, TScalar, TVectorField, TVector, TTensorField, TTensor &gt;</title>
<polygon fill="white" stroke="none" points="-4,4 -4,-191 183,-191 183,4 -4,4"/>
<!-- Node1 -->
<g id="node1" class="node"><title>Node1</title>
<g id="a_node1"><a xlink:title="Generic 1D unstructured mesh with collections of named scalar, vector, tensor and index fields.">
<polygon fill="#bfbfbf" stroke="black" points="0,-0.5 0,-63.5 179,-63.5 179,-0.5 0,-0.5"/>
<text text-anchor="start" x="8" y="-51.5" font-family="Helvetica,sans-Serif" font-size="10.00">IG.Num.UnstructuredMesh1d</text>
<text text-anchor="start" x="8" y="-40.5" font-family="Helvetica,sans-Serif" font-size="10.00">&lt; TCoord, TIndexField,</text>
<text text-anchor="start" x="8" y="-29.5" font-family="Helvetica,sans-Serif" font-size="10.00"> TIndex, TScalarField, TScalar,</text>
<text text-anchor="start" x="8" y="-18.5" font-family="Helvetica,sans-Serif" font-size="10.00"> TVectorField, TVector, TTensorField,</text>
<text text-anchor="middle" x="89.5" y="-7.5" font-family="Helvetica,sans-Serif" font-size="10.00"> TTensor &gt;</text>
</a>
</g>
</g>
<!-- Node2 -->
<g id="node2" class="node"><title>Node2</title>
<g id="a_node2"><a xlink:href="../../d3/d28/classIG_1_1Num_1_1UnstructuredMeshGeometry1d.html" target="_top" xlink:title="Geometry and topology of an unstructured 1D mesh. Presents both connected meshes and unconnected sets...">
<polygon fill="white" stroke="black" points="15,-100.5 15,-130.5 164,-130.5 164,-100.5 15,-100.5"/>
<text text-anchor="start" x="23" y="-118.5" font-family="Helvetica,sans-Serif" font-size="10.00">UnstructuredMeshGeometry1d</text>
<text text-anchor="middle" x="89.5" y="-107.5" font-family="Helvetica,sans-Serif" font-size="10.00">&lt; TCoord &gt;</text>
</a>
</g>
</g>
<!-- Node2&#45;&gt;Node1 -->
<g id="edge1" class="edge"><title>Node2&#45;&gt;Node1</title>
<path fill="none" stroke="midnightblue" d="M89.5,-90.1194C89.5,-81.7781 89.5,-72.3394 89.5,-63.5722"/>
<polygon fill="midnightblue" stroke="midnightblue" points="86.0001,-90.3037 89.5,-100.304 93.0001,-90.3038 86.0001,-90.3037"/>
</g>
<!-- Node3 -->
<g id="node3" class="node"><title>Node3</title>
<g id="a_node3"><a xlink:href="../../d3/df2/classIG_1_1Num_1_1Field.html" target="_top" xlink:title=" ">
<polygon fill="white" stroke="black" points="46.5,-167.5 46.5,-186.5 132.5,-186.5 132.5,-167.5 46.5,-167.5"/>
<text text-anchor="middle" x="89.5" y="-174.5" font-family="Helvetica,sans-Serif" font-size="10.00">Field&lt; TCoord &gt;</text>
</a>
</g>
</g>
<!-- Node3&#45;&gt;Node2 -->
<g id="edge2" class="edge"><title>Node3&#45;&gt;Node2</title>
<path fill="none" stroke="midnightblue" d="M89.5,-157.235C89.5,-148.586 89.5,-138.497 89.5,-130.523"/>
<polygon fill="midnightblue" stroke="midnightblue" points="86.0001,-157.475 89.5,-167.475 93.0001,-157.475 86.0001,-157.475"/>
</g>
</g>
</svg>
