<?xml version="1.0" encoding="UTF-8" standalone="no"?>
<!DOCTYPE svg PUBLIC "-//W3C//DTD SVG 1.1//EN"
 "http://www.w3.org/Graphics/SVG/1.1/DTD/svg11.dtd">
<!-- Generated by graphviz version 2.38.0 (20140413.2041)
 -->
<!-- Title: IG.Num.ScalarFunctionRadialUntransformedOneParametric Pages: 1 -->
<!--zoomable 318 -->
<svg id="main" version="1.1" xmlns="http://www.w3.org/2000/svg" xmlns:xlink="http://www.w3.org/1999/xlink" xml:space="preserve" onload="init(evt)">
<style type="text/css"><![CDATA[
.edge:hover path { stroke: red; }
.edge:hover polygon { stroke: red; fill: red; }
]]></style>
<script type="text/javascript"><![CDATA[
var edges = document.getElementsByTagName('g');
if (edges && edges.length) {
  for (var i=0;i<edges.length;i++) {
    if (edges[i].id.substr(0,4)=='edge') {
      edges[i].setAttribute('class','edge');
    }
  }
}
]]></script>
        <defs>
                <circle id="rim" cx="0" cy="0" r="7"/>
                <circle id="rim2" cx="0" cy="0" r="3.5"/>
                <g id="zoomPlus">
                        <use xlink:href="#rim" fill="#404040">
                                <set attributeName="fill" to="#808080" begin="zoomplus.mouseover" end="zoomplus.mouseout"/>
                        </use>
                        <path d="M-4,0h8M0,-4v8" fill="none" stroke="white" stroke-width="1.5" pointer-events="none"/>
                </g>
                <g id="zoomMin">
                        <use xlink:href="#rim" fill="#404040">
                                <set attributeName="fill" to="#808080" begin="zoomminus.mouseover" end="zoomminus.mouseout"/>
                        </use>
                        <path d="M-4,0h8" fill="none" stroke="white" stroke-width="1.5" pointer-events="none"/>
                </g>
                <g id="dirArrow">
                        <path fill="none" stroke="white" stroke-width="1.5" d="M0,-3.0v7 M-2.5,-0.5L0,-3.0L2.5,-0.5"/>
                </g>
               <g id="resetDef">
                       <use xlink:href="#rim2" fill="#404040">
                               <set attributeName="fill" to="#808080" begin="reset.mouseover" end="reset.mouseout"/>
                       </use>
               </g>
        </defs>

<script type="text/javascript">
var viewWidth = 995;
var viewHeight = 318;
var sectionId = 'dynsection-1';
</script>
<script xlink:href="../../svgpan.js"/>
<svg id="graph" class="graph">
<g id="viewport">
<title>IG.Num.ScalarFunctionRadialUntransformedOneParametric</title>
<polygon fill="white" stroke="none" points="-4,4 -4,-314 991,-314 991,4 -4,4"/>
<!-- Node1 -->
<g id="node1" class="node"><title>Node1</title>
<g id="a_node1"><a xlink:title="One parametric radial scalar function (dependent on one tunning parameter).">
<polygon fill="#bfbfbf" stroke="black" points="842,-188 842,-218 987,-218 987,-188 842,-188"/>
<text text-anchor="start" x="850" y="-206" font-family="Helvetica,sans-Serif" font-size="10.00">IG.Num.ScalarFunctionRadial</text>
<text text-anchor="middle" x="914.5" y="-195" font-family="Helvetica,sans-Serif" font-size="10.00">UntransformedOneParametric</text>
</a>
</g>
</g>
<!-- Node2 -->
<g id="node2" class="node"><title>Node2</title>
<g id="a_node2"><a xlink:href="../../d7/ddc/classIG_1_1Num_1_1ScalarFunctionRadialUntransformed.html" target="_top" xlink:title="Radial scalar functions.">
<polygon fill="white" stroke="black" points="544.5,-243.5 544.5,-262.5 716.5,-262.5 716.5,-243.5 544.5,-243.5"/>
<text text-anchor="middle" x="630.5" y="-250.5" font-family="Helvetica,sans-Serif" font-size="10.00">ScalarFunctionRadialUntransformed</text>
</a>
</g>
</g>
<!-- Node2&#45;&gt;Node1 -->
<g id="edge1" class="edge"><title>Node2&#45;&gt;Node1</title>
<path fill="none" stroke="midnightblue" d="M695.123,-241.719C738.73,-233.988 796.641,-223.72 841.869,-215.7"/>
<polygon fill="midnightblue" stroke="midnightblue" points="694.441,-238.286 685.206,-243.478 695.663,-245.178 694.441,-238.286"/>
</g>
<!-- Node3 -->
<g id="node3" class="node"><title>Node3</title>
<g id="a_node3"><a xlink:href="../../d2/d9e/classIG_1_1Num_1_1ScalarFunctionUntransformedBase.html" target="_top" xlink:title="Base class for defining scalar functions without possibility of affine transformation of parameters.">
<polygon fill="white" stroke="black" points="297,-265.5 297,-284.5 464,-284.5 464,-265.5 297,-265.5"/>
<text text-anchor="middle" x="380.5" y="-272.5" font-family="Helvetica,sans-Serif" font-size="10.00">ScalarFunctionUntransformedBase</text>
</a>
</g>
</g>
<!-- Node3&#45;&gt;Node2 -->
<g id="edge2" class="edge"><title>Node3&#45;&gt;Node2</title>
<path fill="none" stroke="midnightblue" d="M474.176,-266.779C497.168,-264.739 521.698,-262.563 544.312,-260.557"/>
<polygon fill="midnightblue" stroke="midnightblue" points="473.732,-263.304 464.08,-267.674 474.351,-270.277 473.732,-263.304"/>
</g>
<!-- Node4 -->
<g id="node4" class="node"><title>Node4</title>
<g id="a_node4"><a xlink:href="../../d8/d56/interfaceIG_1_1Num_1_1IScalarFunctionUntransformed.html" target="_top" xlink:title="Scalar functions of vector arguments.">
<polygon fill="white" stroke="black" points="113,-290.5 113,-309.5 260,-309.5 260,-290.5 113,-290.5"/>
<text text-anchor="middle" x="186.5" y="-297.5" font-family="Helvetica,sans-Serif" font-size="10.00">IScalarFunctionUntransformed</text>
</a>
</g>
</g>
<!-- Node4&#45;&gt;Node2 -->
<g id="edge4" class="edge"><title>Node4&#45;&gt;Node2</title>
<path fill="none" stroke="midnightblue" d="M270.676,-299.148C273.484,-299.101 276.265,-299.052 279,-299 361.237,-297.439 382.495,-305.065 464,-294 512.105,-287.469 566.497,-272.48 599.378,-262.549"/>
<polygon fill="midnightblue" stroke="midnightblue" points="270.364,-295.653 260.42,-299.309 270.473,-302.652 270.364,-295.653"/>
</g>
<!-- Node4&#45;&gt;Node3 -->
<g id="edge3" class="edge"><title>Node4&#45;&gt;Node3</title>
<path fill="none" stroke="midnightblue" d="M270.155,-289.238C282.241,-287.664 294.616,-286.053 306.492,-284.506"/>
<polygon fill="midnightblue" stroke="midnightblue" points="269.551,-285.787 260.087,-290.549 270.455,-292.728 269.551,-285.787"/>
</g>
<!-- Node5 -->
<g id="node5" class="node"><title>Node5</title>
<g id="a_node5"><a xlink:href="../../db/d0e/interfaceIG_1_1Num_1_1IRealFunction.html" target="_top" xlink:title="Interface for real functions.">
<polygon fill="white" stroke="black" points="324.5,-227.5 324.5,-246.5 436.5,-246.5 436.5,-227.5 324.5,-227.5"/>
<text text-anchor="middle" x="380.5" y="-234.5" font-family="Helvetica,sans-Serif" font-size="10.00">IG.Num.IRealFunction</text>
</a>
</g>
</g>
<!-- Node5&#45;&gt;Node2 -->
<g id="edge5" class="edge"><title>Node5&#45;&gt;Node2</title>
<path fill="none" stroke="#9a32cd" stroke-dasharray="5,2" d="M446.984,-239.681C471.473,-240.819 499.523,-242.282 525,-244 531.268,-244.423 537.745,-244.895 544.26,-245.396"/>
<polygon fill="#9a32cd" stroke="#9a32cd" points="446.873,-236.172 436.724,-239.214 446.554,-243.165 446.873,-236.172"/>
<text text-anchor="middle" x="503.5" y="-247" font-family="Helvetica,sans-Serif" font-size="10.00"> _function</text>
</g>
<!-- Node6 -->
<g id="node6" class="node"><title>Node6</title>
<g id="a_node6"><a xlink:href="../../d0/d78/classIG_1_1Num_1_1RealFunctionOneParametric.html" target="_top" xlink:title="Base class for one parametric families of real&#45;valued functions of single variable....">
<polygon fill="white" stroke="black" points="543,-93.5 543,-112.5 718,-112.5 718,-93.5 543,-93.5"/>
<text text-anchor="middle" x="630.5" y="-100.5" font-family="Helvetica,sans-Serif" font-size="10.00">IG.Num.RealFunctionOneParametric</text>
</a>
</g>
</g>
<!-- Node6&#45;&gt;Node1 -->
<g id="edge6" class="edge"><title>Node6&#45;&gt;Node1</title>
<path fill="none" stroke="#9a32cd" stroke-dasharray="5,2" d="M668.065,-115.966C720.245,-134.47 815.853,-168.373 871.079,-187.957"/>
<polygon fill="#9a32cd" stroke="#9a32cd" points="669.134,-112.632 658.539,-112.588 666.795,-119.229 669.134,-112.632"/>
<text text-anchor="middle" x="780" y="-173" font-family="Helvetica,sans-Serif" font-size="10.00"> _parametricfunction</text>
</g>
<!-- Node7 -->
<g id="node7" class="node"><title>Node7</title>
<g id="a_node7"><a xlink:href="../../d1/d20/classIG_1_1Num_1_1RealFunctionParametricBase.html" target="_top" xlink:title="Base class for parameterized real&#45;valued functions of single variable. Parameters that completely def...">
<polygon fill="white" stroke="black" points="309,-120.5 309,-139.5 452,-139.5 452,-120.5 309,-120.5"/>
<text text-anchor="middle" x="380.5" y="-127.5" font-family="Helvetica,sans-Serif" font-size="10.00">RealFunctionParametricBase</text>
</a>
</g>
</g>
<!-- Node7&#45;&gt;Node6 -->
<g id="edge7" class="edge"><title>Node7&#45;&gt;Node6</title>
<path fill="none" stroke="midnightblue" d="M462.325,-121.2C488.07,-118.398 516.653,-115.286 542.796,-112.44"/>
<polygon fill="midnightblue" stroke="midnightblue" points="461.797,-117.737 452.235,-122.299 462.555,-124.696 461.797,-117.737"/>
</g>
<!-- Node8 -->
<g id="node8" class="node"><title>Node8</title>
<g id="a_node8"><a xlink:href="../../d6/d30/classIG_1_1Num_1_1RealFunctionBase.html" target="_top" xlink:title="Base class for real functions of real variable.">
<polygon fill="white" stroke="black" points="138.5,-113.5 138.5,-132.5 234.5,-132.5 234.5,-113.5 138.5,-113.5"/>
<text text-anchor="middle" x="186.5" y="-120.5" font-family="Helvetica,sans-Serif" font-size="10.00">RealFunctionBase</text>
</a>
</g>
</g>
<!-- Node8&#45;&gt;Node7 -->
<g id="edge8" class="edge"><title>Node8&#45;&gt;Node7</title>
<path fill="none" stroke="midnightblue" d="M245.139,-125.101C265.108,-125.829 287.728,-126.654 308.637,-127.416"/>
<polygon fill="midnightblue" stroke="midnightblue" points="245.082,-121.597 234.961,-124.73 244.826,-128.592 245.082,-121.597"/>
</g>
<!-- Node9 -->
<g id="node9" class="node"><title>Node9</title>
<g id="a_node9"><a xlink:href="../../db/d0e/interfaceIG_1_1Num_1_1IRealFunction.html" target="_top" xlink:title="Interface for real functions.">
<polygon fill="white" stroke="black" points="0,-113.5 0,-132.5 76,-132.5 76,-113.5 0,-113.5"/>
<text text-anchor="middle" x="38" y="-120.5" font-family="Helvetica,sans-Serif" font-size="10.00">IRealFunction</text>
</a>
</g>
</g>
<!-- Node9&#45;&gt;Node6 -->
<g id="edge13" class="edge"><title>Node9&#45;&gt;Node6</title>
<path fill="none" stroke="midnightblue" d="M61.8628,-138.044C75.9431,-146.204 94.7404,-155.185 113,-158 267.23,-181.773 309.883,-173.491 464,-149 513.774,-141.09 569.957,-123.577 602.395,-112.587"/>
<polygon fill="midnightblue" stroke="midnightblue" points="63.2956,-134.819 52.9331,-132.613 59.6579,-140.8 63.2956,-134.819"/>
</g>
<!-- Node9&#45;&gt;Node7 -->
<g id="edge10" class="edge"><title>Node9&#45;&gt;Node7</title>
<path fill="none" stroke="midnightblue" d="M78.6819,-135.141C89.6885,-137.972 101.716,-140.574 113,-142 179.741,-150.431 256.539,-145.432 310.496,-139.528"/>
<polygon fill="midnightblue" stroke="midnightblue" points="79.4779,-131.731 68.9113,-132.505 77.654,-138.489 79.4779,-131.731"/>
</g>
<!-- Node9&#45;&gt;Node8 -->
<g id="edge9" class="edge"><title>Node9&#45;&gt;Node8</title>
<path fill="none" stroke="midnightblue" d="M86.4336,-123C103.118,-123 121.85,-123 138.499,-123"/>
<polygon fill="midnightblue" stroke="midnightblue" points="86.3472,-119.5 76.3472,-123 86.3472,-126.5 86.3472,-119.5"/>
</g>
<!-- Node10 -->
<g id="node10" class="node"><title>Node10</title>
<g id="a_node10"><a xlink:href="../../d1/dfb/interfaceIG_1_1Num_1_1IRealFunctionParametric.html" target="_top" xlink:title="Parameterized real&#45;valued functions of single variable.">
<polygon fill="white" stroke="black" points="125,-75.5 125,-94.5 248,-94.5 248,-75.5 125,-75.5"/>
<text text-anchor="middle" x="186.5" y="-82.5" font-family="Helvetica,sans-Serif" font-size="10.00">IRealFunctionParametric</text>
</a>
</g>
</g>
<!-- Node9&#45;&gt;Node10 -->
<g id="edge12" class="edge"><title>Node9&#45;&gt;Node10</title>
<path fill="none" stroke="midnightblue" d="M85.6954,-110.888C106.099,-105.596 129.681,-99.4787 148.798,-94.5201"/>
<polygon fill="midnightblue" stroke="midnightblue" points="84.769,-107.512 75.9681,-113.411 86.5266,-114.288 84.769,-107.512"/>
</g>
<!-- Node11 -->
<g id="node11" class="node"><title>Node11</title>
<g id="a_node11"><a xlink:href="../../da/d11/interfaceIG_1_1Num_1_1IRealFunctionOneParametric.html" target="_top" xlink:title="Parameterized real&#45;valued functions of single variable.">
<polygon fill="white" stroke="black" points="310,-38.5 310,-57.5 451,-57.5 451,-38.5 310,-38.5"/>
<text text-anchor="middle" x="380.5" y="-45.5" font-family="Helvetica,sans-Serif" font-size="10.00">IRealFunctionOneParametric</text>
</a>
</g>
</g>
<!-- Node9&#45;&gt;Node11 -->
<g id="edge17" class="edge"><title>Node9&#45;&gt;Node11</title>
<path fill="none" stroke="midnightblue" d="M55.1898,-105.879C69.0997,-92.4118 90.4331,-74.5431 113,-66 176.536,-41.9475 254.628,-39.529 309.81,-41.8607"/>
<polygon fill="midnightblue" stroke="midnightblue" points="52.48,-103.64 47.9045,-113.196 57.4405,-108.579 52.48,-103.64"/>
</g>
<!-- Node10&#45;&gt;Node6 -->
<g id="edge14" class="edge"><title>Node10&#45;&gt;Node6</title>
<path fill="none" stroke="midnightblue" d="M258.159,-87.8775C335.502,-91.0272 459.557,-96.0793 542.749,-99.4671"/>
<polygon fill="midnightblue" stroke="midnightblue" points="258.166,-84.375 248.031,-87.4651 257.881,-91.3692 258.166,-84.375"/>
</g>
<!-- Node10&#45;&gt;Node7 -->
<g id="edge11" class="edge"><title>Node10&#45;&gt;Node7</title>
<path fill="none" stroke="midnightblue" d="M238.109,-96.8614C269.559,-104.233 309.453,-113.583 338.84,-120.47"/>
<polygon fill="midnightblue" stroke="midnightblue" points="238.753,-93.4177 228.218,-94.5433 237.156,-100.233 238.753,-93.4177"/>
</g>
<!-- Node10&#45;&gt;Node11 -->
<g id="edge16" class="edge"><title>Node10&#45;&gt;Node11</title>
<path fill="none" stroke="midnightblue" d="M246.907,-73.5517C273.52,-68.4233 304.544,-62.4446 329.889,-57.5604"/>
<polygon fill="midnightblue" stroke="midnightblue" points="246.102,-70.1425 236.945,-75.4716 247.426,-77.016 246.102,-70.1425"/>
</g>
<!-- Node11&#45;&gt;Node6 -->
<g id="edge15" class="edge"><title>Node11&#45;&gt;Node6</title>
<path fill="none" stroke="midnightblue" d="M459.052,-59.1844C480.519,-62.7642 503.754,-67.0915 525,-72 550.998,-78.0063 580.058,-86.8004 600.921,-93.4894"/>
<polygon fill="midnightblue" stroke="midnightblue" points="459.434,-55.7006 449.001,-57.5405 458.304,-62.6088 459.434,-55.7006"/>
</g>
<!-- Node12 -->
<g id="node12" class="node"><title>Node12</title>
<g id="a_node12"><a xlink:title=" ">
<polygon fill="white" stroke="#bfbfbf" points="360,-0.5 360,-19.5 401,-19.5 401,-0.5 360,-0.5"/>
<text text-anchor="middle" x="380.5" y="-7.5" font-family="Helvetica,sans-Serif" font-size="10.00">static</text>
</a>
</g>
</g>
<!-- Node12&#45;&gt;Node6 -->
<g id="edge18" class="edge"><title>Node12&#45;&gt;Node6</title>
<path fill="none" stroke="#9a32cd" stroke-dasharray="5,2" d="M411.469,-16.3299C427.183,-19.793 446.708,-24.3231 464,-29 491.411,-36.4139 498.771,-37.1199 525,-48 557.572,-61.5114 593.548,-81.6947 613.651,-93.4853"/>
<polygon fill="#9a32cd" stroke="#9a32cd" points="411.789,-12.8178 401.274,-14.1142 410.302,-19.6581 411.789,-12.8178"/>
<text text-anchor="middle" x="503.5" y="-51" font-family="Helvetica,sans-Serif" font-size="10.00"> _parAux</text>
</g>
</g>
</svg>
        <g id="navigator" transform="translate(0 0)" fill="#404254">
                <rect fill="#f2f5e9" fill-opacity="0.5" stroke="#606060" stroke-width=".5" x="0" y="0" width="60" height="60"/>
                <use id="zoomplus" xlink:href="#zoomPlus" x="17" y="9" onmousedown="handleZoom(evt,'in')"/>
                <use id="zoomminus" xlink:href="#zoomMin" x="42" y="9" onmousedown="handleZoom(evt,'out')"/>
                <use id="reset" xlink:href="#resetDef" x="30" y="36" onmousedown="handleReset()"/>
                <g id="arrowUp" xlink:href="#dirArrow" transform="translate(30 24)" onmousedown="handlePan(0,-1)">
                  <use xlink:href="#rim" fill="#404040">
                        <set attributeName="fill" to="#808080" begin="arrowUp.mouseover" end="arrowUp.mouseout"/>
                  </use>
                  <path fill="none" stroke="white" stroke-width="1.5" d="M0,-3.0v7 M-2.5,-0.5L0,-3.0L2.5,-0.5"/>
                </g>
                <g id="arrowRight" xlink:href="#dirArrow" transform="rotate(90) translate(36 -43)" onmousedown="handlePan(1,0)">
                  <use xlink:href="#rim" fill="#404040">
                        <set attributeName="fill" to="#808080" begin="arrowRight.mouseover" end="arrowRight.mouseout"/>
                  </use>
                  <path fill="none" stroke="white" stroke-width="1.5" d="M0,-3.0v7 M-2.5,-0.5L0,-3.0L2.5,-0.5"/>
                </g>
                <g id="arrowDown" xlink:href="#dirArrow" transform="rotate(180) translate(-30 -48)" onmousedown="handlePan(0,1)">
                  <use xlink:href="#rim" fill="#404040">
                        <set attributeName="fill" to="#808080" begin="arrowDown.mouseover" end="arrowDown.mouseout"/>
                  </use>
                  <path fill="none" stroke="white" stroke-width="1.5" d="M0,-3.0v7 M-2.5,-0.5L0,-3.0L2.5,-0.5"/>
                </g>
                <g id="arrowLeft" xlink:href="#dirArrow" transform="rotate(270) translate(-36 17)" onmousedown="handlePan(-1,0)">
                  <use xlink:href="#rim" fill="#404040">
                        <set attributeName="fill" to="#808080" begin="arrowLeft.mouseover" end="arrowLeft.mouseout"/>
                  </use>
                  <path fill="none" stroke="white" stroke-width="1.5" d="M0,-3.0v7 M-2.5,-0.5L0,-3.0L2.5,-0.5"/>
                </g>
        </g>
        <svg viewBox="0 0 15 15" width="100%" height="30px" preserveAspectRatio="xMaxYMin meet">
         <g id="arrow_out" transform="scale(0.3 0.3)">
          <a xlink:href="classIG_1_1Num_1_1ScalarFunctionRadialUntransformedOneParametric__coll__graph_org.svg" target="_base">
           <rect id="button" ry="5" rx="5" y="6" x="6" height="38" width="38"
                fill="#f2f5e9" fill-opacity="0.5" stroke="#606060" stroke-width="1.0"/>
           <path id="arrow"
             d="M 11.500037,31.436501 C 11.940474,20.09759 22.043105,11.32322 32.158766,21.979434 L 37.068811,17.246167 C 37.068811,17.246167 37.088388,32 37.088388,32 L 22.160133,31.978069 C 22.160133,31.978069 26.997745,27.140456 26.997745,27.140456 C 18.528582,18.264221 13.291696,25.230495 11.500037,31.436501 z"
             style="fill:#404040;"/>
          </a>
         </g>
        </svg>
</svg>
