<?xml version="1.0" encoding="UTF-8" standalone="no"?>
<!DOCTYPE svg PUBLIC "-//W3C//DTD SVG 1.1//EN"
 "http://www.w3.org/Graphics/SVG/1.1/DTD/svg11.dtd">
<!-- Generated by graphviz version 2.38.0 (20140413.2041)
 -->
<!-- Title: IG.Num.NeuralTrainingParametersDto Pages: 1 -->
<svg width="304pt" height="284pt"
 viewBox="0.00 0.00 304.00 284.00" xmlns="http://www.w3.org/2000/svg" xmlns:xlink="http://www.w3.org/1999/xlink">
<g id="graph0" class="graph" transform="scale(1 1) rotate(0) translate(4 280)">
<title>IG.Num.NeuralTrainingParametersDto</title>
<polygon fill="white" stroke="none" points="-4,4 -4,-280 300,-280 300,4 -4,4"/>
<!-- Node1 -->
<g id="node1" class="node"><title>Node1</title>
<g id="a_node1"><a xlink:title="Transfer Object (DTO) for neural network training set.">
<polygon fill="#bfbfbf" stroke="black" points="13.5,-0.5 13.5,-19.5 192.5,-19.5 192.5,-0.5 13.5,-0.5"/>
<text text-anchor="middle" x="103" y="-7.5" font-family="Helvetica,sans-Serif" font-size="10.00">IG.Num.NeuralTrainingParametersDto</text>
</a>
</g>
</g>
<!-- Node2 -->
<g id="node2" class="node"><title>Node2</title>
<g id="a_node2"><a xlink:href="../../da/d46/classIG_1_1Lib_1_1SerializationDto.html" target="_top" xlink:title=" ">
<polygon fill="white" stroke="black" points="0,-177.5 0,-207.5 122,-207.5 122,-177.5 0,-177.5"/>
<text text-anchor="start" x="8" y="-195.5" font-family="Helvetica,sans-Serif" font-size="10.00">SerializationDto&lt; Neural</text>
<text text-anchor="middle" x="61" y="-184.5" font-family="Helvetica,sans-Serif" font-size="10.00">TrainingParameters &gt;</text>
</a>
</g>
</g>
<!-- Node2&#45;&gt;Node1 -->
<g id="edge1" class="edge"><title>Node2&#45;&gt;Node1</title>
<path fill="none" stroke="midnightblue" d="M66.5956,-167.452C76.0622,-126.768 94.8101,-46.197 100.98,-19.6831"/>
<polygon fill="midnightblue" stroke="midnightblue" points="63.1531,-166.803 64.2957,-177.336 69.971,-168.39 63.1531,-166.803"/>
</g>
<!-- Node3 -->
<g id="node3" class="node"><title>Node3</title>
<g id="a_node3"><a xlink:href="../../dc/dec/classIG_1_1Lib_1_1VectorDtoBase.html" target="_top" xlink:title="Base class for various vector DTO (Data Transfer Objects) for vectors. Used to store a state of a vec...">
<polygon fill="white" stroke="black" points="140.5,-177.5 140.5,-207.5 251.5,-207.5 251.5,-177.5 140.5,-177.5"/>
<text text-anchor="start" x="148.5" y="-195.5" font-family="Helvetica,sans-Serif" font-size="10.00">IG.Lib.VectorDtoBase</text>
<text text-anchor="middle" x="196" y="-184.5" font-family="Helvetica,sans-Serif" font-size="10.00">&lt; VectorType &gt;</text>
</a>
</g>
</g>
<!-- Node3&#45;&gt;Node1 -->
<g id="edge2" class="edge"><title>Node3&#45;&gt;Node1</title>
<path fill="none" stroke="#9a32cd" stroke-dasharray="5,2" d="M184.009,-168.226C163.179,-127.799 121.222,-46.3662 107.474,-19.6831"/>
<polygon fill="#9a32cd" stroke="#9a32cd" points="181.011,-170.05 188.702,-177.336 187.234,-166.844 181.011,-170.05"/>
<text text-anchor="middle" x="237" y="-151" font-family="Helvetica,sans-Serif" font-size="10.00"> ErrorsVerificationRms</text>
<text text-anchor="middle" x="237" y="-140" font-family="Helvetica,sans-Serif" font-size="10.00">ErrorsTrainingMax</text>
<text text-anchor="middle" x="237" y="-129" font-family="Helvetica,sans-Serif" font-size="10.00">InputRange</text>
<text text-anchor="middle" x="237" y="-118" font-family="Helvetica,sans-Serif" font-size="10.00">ErrorsTrainingMeanAbs</text>
<text text-anchor="middle" x="237" y="-107" font-family="Helvetica,sans-Serif" font-size="10.00">ErrorsTrainingMaxTable</text>
<text text-anchor="middle" x="237" y="-96" font-family="Helvetica,sans-Serif" font-size="10.00">ErrorsTrainingRmsTable</text>
<text text-anchor="middle" x="237" y="-85" font-family="Helvetica,sans-Serif" font-size="10.00">ToleranceRms</text>
<text text-anchor="middle" x="237" y="-74" font-family="Helvetica,sans-Serif" font-size="10.00">ErrorsVerificationMeanAbs</text>
<text text-anchor="middle" x="237" y="-63" font-family="Helvetica,sans-Serif" font-size="10.00">ErrorsVerificationRmsTable</text>
<text text-anchor="middle" x="237" y="-52" font-family="Helvetica,sans-Serif" font-size="10.00">ErrorsTrainingRms</text>
<text text-anchor="middle" x="237" y="-41" font-family="Helvetica,sans-Serif" font-size="10.00">...</text>
</g>
<!-- Node4 -->
<g id="node4" class="node"><title>Node4</title>
<g id="a_node4"><a xlink:href="../../d7/dd8/classIG_1_1Lib_1_1SerializationDtoBase.html" target="_top" xlink:title=" ">
<polygon fill="white" stroke="black" points="135.5,-245.5 135.5,-275.5 256.5,-275.5 256.5,-245.5 135.5,-245.5"/>
<text text-anchor="start" x="143.5" y="-263.5" font-family="Helvetica,sans-Serif" font-size="10.00">SerializationDtoBase</text>
<text text-anchor="middle" x="196" y="-252.5" font-family="Helvetica,sans-Serif" font-size="10.00">&lt; VectorType, IVector &gt;</text>
</a>
</g>
</g>
<!-- Node4&#45;&gt;Node3 -->
<g id="edge3" class="edge"><title>Node4&#45;&gt;Node3</title>
<path fill="none" stroke="midnightblue" d="M196,-235.032C196,-225.861 196,-215.745 196,-207.793"/>
<polygon fill="midnightblue" stroke="midnightblue" points="192.5,-235.179 196,-245.179 199.5,-235.179 192.5,-235.179"/>
</g>
</g>
</svg>
