<?xml version="1.0" encoding="UTF-8" standalone="no"?>
<!DOCTYPE svg PUBLIC "-//W3C//DTD SVG 1.1//EN"
 "http://www.w3.org/Graphics/SVG/1.1/DTD/svg11.dtd">
<!-- Generated by graphviz version 2.38.0 (20140413.2041)
 -->
<!-- Title: IG.Num.GridGenerator1dFunc Pages: 1 -->
<svg width="176pt" height="196pt"
 viewBox="0.00 0.00 176.00 196.00" xmlns="http://www.w3.org/2000/svg" xmlns:xlink="http://www.w3.org/1999/xlink">
<g id="graph0" class="graph" transform="scale(1 1) rotate(0) translate(4 192)">
<title>IG.Num.GridGenerator1dFunc</title>
<polygon fill="white" stroke="none" points="-4,4 -4,-192 172,-192 172,4 -4,4"/>
<!-- Node1 -->
<g id="node1" class="node"><title>Node1</title>
<g id="a_node1"><a xlink:title="Generates 1D grids with equidistant or geometrically grown intervals.">
<polygon fill="#bfbfbf" stroke="black" points="0,-0.5 0,-19.5 146,-19.5 146,-0.5 0,-0.5"/>
<text text-anchor="middle" x="73" y="-7.5" font-family="Helvetica,sans-Serif" font-size="10.00">IG.Num.GridGenerator1dFunc</text>
</a>
</g>
</g>
<!-- Node2 -->
<g id="node2" class="node"><title>Node2</title>
<g id="a_node2"><a xlink:href="../../d5/de2/classIG_1_1Num_1_1GridGenerator1dBase.html" target="_top" xlink:title="Base class for 1D grid generators.">
<polygon fill="white" stroke="black" points="18,-56.5 18,-75.5 128,-75.5 128,-56.5 18,-56.5"/>
<text text-anchor="middle" x="73" y="-63.5" font-family="Helvetica,sans-Serif" font-size="10.00">GridGenerator1dBase</text>
</a>
</g>
</g>
<!-- Node2&#45;&gt;Node1 -->
<g id="edge1" class="edge"><title>Node2&#45;&gt;Node1</title>
<path fill="none" stroke="midnightblue" d="M73,-45.8045C73,-36.9102 73,-26.7798 73,-19.7511"/>
<polygon fill="midnightblue" stroke="midnightblue" points="69.5001,-46.083 73,-56.083 76.5001,-46.083 69.5001,-46.083"/>
</g>
<!-- Node3 -->
<g id="node3" class="node"><title>Node3</title>
<g id="a_node3"><a xlink:href="../../d5/d2d/interfaceIG_1_1Num_1_1IGridGenerator1d.html" target="_top" xlink:title="Interface for 1d grid generators.">
<polygon fill="white" stroke="black" points="78,-112.5 78,-131.5 168,-131.5 168,-112.5 78,-112.5"/>
<text text-anchor="middle" x="123" y="-119.5" font-family="Helvetica,sans-Serif" font-size="10.00">IGridGenerator1d</text>
</a>
</g>
</g>
<!-- Node3&#45;&gt;Node1 -->
<g id="edge5" class="edge"><title>Node3&#45;&gt;Node1</title>
<path fill="none" stroke="midnightblue" d="M133.166,-102.874C139.316,-89.3282 144.631,-70.6943 137,-56 128.111,-38.883 109.392,-26.9097 94.4826,-19.6403"/>
<polygon fill="midnightblue" stroke="midnightblue" points="129.894,-101.588 128.501,-112.091 136.14,-104.749 129.894,-101.588"/>
</g>
<!-- Node3&#45;&gt;Node2 -->
<g id="edge2" class="edge"><title>Node3&#45;&gt;Node2</title>
<path fill="none" stroke="midnightblue" d="M107.924,-104.718C99.1109,-95.1997 88.3341,-83.5608 81.1028,-75.7511"/>
<polygon fill="midnightblue" stroke="midnightblue" points="105.381,-107.123 114.744,-112.083 110.518,-102.367 105.381,-107.123"/>
</g>
<!-- Node4 -->
<g id="node4" class="node"><title>Node4</title>
<g id="a_node4"><a xlink:href="../../d3/db6/interfaceIG_1_1Lib_1_1ILockable.html" target="_top" xlink:title="Lockable object, has a Lock property that returns object on which lock must be performed in order to ...">
<polygon fill="white" stroke="black" points="21,-168.5 21,-187.5 79,-187.5 79,-168.5 21,-168.5"/>
<text text-anchor="middle" x="50" y="-175.5" font-family="Helvetica,sans-Serif" font-size="10.00">ILockable</text>
</a>
</g>
</g>
<!-- Node4&#45;&gt;Node1 -->
<g id="edge6" class="edge"><title>Node4&#45;&gt;Node1</title>
<path fill="none" stroke="midnightblue" d="M36.1729,-160.355C18.0735,-136.413 -9.3101,-91.2575 9,-56 17.8893,-38.883 36.6084,-26.9097 51.5174,-19.6403"/>
<polygon fill="midnightblue" stroke="midnightblue" points="33.5993,-162.743 42.5404,-168.427 39.0953,-158.408 33.5993,-162.743"/>
</g>
<!-- Node4&#45;&gt;Node2 -->
<g id="edge4" class="edge"><title>Node4&#45;&gt;Node2</title>
<path fill="none" stroke="midnightblue" d="M53.8999,-158.348C58.9379,-134.254 67.4992,-93.3079 71.2036,-75.5914"/>
<polygon fill="midnightblue" stroke="midnightblue" points="50.4256,-157.864 51.8048,-168.368 57.2774,-159.297 50.4256,-157.864"/>
</g>
<!-- Node4&#45;&gt;Node3 -->
<g id="edge3" class="edge"><title>Node4&#45;&gt;Node3</title>
<path fill="none" stroke="midnightblue" d="M70.1416,-162.101C83.2793,-152.382 99.9821,-140.027 111.058,-131.834"/>
<polygon fill="midnightblue" stroke="midnightblue" points="67.6867,-159.563 61.7287,-168.324 71.8497,-165.191 67.6867,-159.563"/>
</g>
</g>
</svg>
