<?xml version="1.0" encoding="UTF-8" standalone="no"?>
<!DOCTYPE svg PUBLIC "-//W3C//DTD SVG 1.1//EN"
 "http://www.w3.org/Graphics/SVG/1.1/DTD/svg11.dtd">
<!-- Generated by graphviz version 2.38.0 (20140413.2041)
 -->
<!-- Title: IG.Num.ComposedFunction Pages: 1 -->
<svg width="311pt" height="301pt"
 viewBox="0.00 0.00 311.41 301.00" xmlns="http://www.w3.org/2000/svg" xmlns:xlink="http://www.w3.org/1999/xlink">
<g id="graph0" class="graph" transform="scale(1 1) rotate(0) translate(4 297)">
<title>IG.Num.ComposedFunction</title>
<polygon fill="white" stroke="none" points="-4,4 -4,-297 307.409,-297 307.409,4 -4,4"/>
<!-- Node1 -->
<g id="node1" class="node"><title>Node1</title>
<g id="a_node1"><a xlink:title="Composition of real functions.">
<polygon fill="#bfbfbf" stroke="black" points="92.9093,-0.5 92.9093,-19.5 229.909,-19.5 229.909,-0.5 92.9093,-0.5"/>
<text text-anchor="middle" x="161.409" y="-7.5" font-family="Helvetica,sans-Serif" font-size="10.00">IG.Num.ComposedFunction</text>
</a>
</g>
</g>
<!-- Node2 -->
<g id="node2" class="node"><title>Node2</title>
<g id="a_node2"><a xlink:href="../../d5/d83/classIG_1_1Num_1_1RealFunction.html" target="_top" xlink:title="Represents a real function of a real variabe.">
<polygon fill="white" stroke="black" points="48.4093,-57.5 48.4093,-76.5 122.409,-76.5 122.409,-57.5 48.4093,-57.5"/>
<text text-anchor="middle" x="85.4093" y="-64.5" font-family="Helvetica,sans-Serif" font-size="10.00">RealFunction</text>
</a>
</g>
</g>
<!-- Node2&#45;&gt;Node1 -->
<g id="edge1" class="edge"><title>Node2&#45;&gt;Node1</title>
<path fill="none" stroke="midnightblue" d="M105.74,-51.287C119.665,-41.2095 137.663,-28.1851 149.367,-19.7149"/>
<polygon fill="midnightblue" stroke="midnightblue" points="103.333,-48.7081 97.2843,-57.4063 107.437,-54.3789 103.333,-48.7081"/>
</g>
<!-- Node3 -->
<g id="node3" class="node"><title>Node3</title>
<g id="a_node3"><a xlink:href="../../d6/d30/classIG_1_1Num_1_1RealFunctionBase.html" target="_top" xlink:title="Base class for real functions of real variable.">
<polygon fill="white" stroke="black" points="11.4093,-216.5 11.4093,-235.5 107.409,-235.5 107.409,-216.5 11.4093,-216.5"/>
<text text-anchor="middle" x="59.4093" y="-223.5" font-family="Helvetica,sans-Serif" font-size="10.00">RealFunctionBase</text>
</a>
</g>
</g>
<!-- Node3&#45;&gt;Node2 -->
<g id="edge2" class="edge"><title>Node3&#45;&gt;Node2</title>
<path fill="none" stroke="midnightblue" d="M58.9045,-206.08C58.7222,-180.391 60.1834,-133.288 71.4093,-95 73.3108,-88.5144 76.8108,-81.7644 79.8354,-76.6358"/>
<polygon fill="midnightblue" stroke="midnightblue" points="55.4081,-206.328 59.0748,-216.268 62.4071,-206.211 55.4081,-206.328"/>
</g>
<!-- Node6 -->
<g id="node6" class="node"><title>Node6</title>
<g id="a_node6"><a xlink:href="../../d5/d83/classIG_1_1Num_1_1RealFunction.html" target="_top" xlink:title="Represents a real function of a real variabe.">
<polygon fill="white" stroke="black" points="113.409,-153 113.409,-172 223.409,-172 223.409,-153 113.409,-153"/>
<text text-anchor="middle" x="168.409" y="-160" font-family="Helvetica,sans-Serif" font-size="10.00">IG.Num.RealFunction</text>
</a>
</g>
</g>
<!-- Node3&#45;&gt;Node6 -->
<g id="edge7" class="edge"><title>Node3&#45;&gt;Node6</title>
<path fill="none" stroke="midnightblue" d="M83.313,-211.513C104.527,-199.543 134.892,-182.411 153.031,-172.177"/>
<polygon fill="midnightblue" stroke="midnightblue" points="81.5547,-208.486 74.5652,-216.449 84.9945,-214.583 81.5547,-208.486"/>
</g>
<!-- Node4 -->
<g id="node4" class="node"><title>Node4</title>
<g id="a_node4"><a xlink:href="../../db/d0e/interfaceIG_1_1Num_1_1IRealFunction.html" target="_top" xlink:title="Interface for real functions.">
<polygon fill="white" stroke="black" points="21.4093,-273.5 21.4093,-292.5 97.4093,-292.5 97.4093,-273.5 21.4093,-273.5"/>
<text text-anchor="middle" x="59.4093" y="-280.5" font-family="Helvetica,sans-Serif" font-size="10.00">IRealFunction</text>
</a>
</g>
</g>
<!-- Node4&#45;&gt;Node2 -->
<g id="edge4" class="edge"><title>Node4&#45;&gt;Node2</title>
<path fill="none" stroke="midnightblue" d="M33.199,-268.1C21.4832,-260.358 8.8771,-249.531 2.40926,-236 -1.42421,-227.98 0.439169,-224.668 2.40926,-216 15.6269,-157.846 26.8852,-144.322 60.4093,-95 64.8623,-88.4486 70.8669,-81.9091 75.8753,-76.9071"/>
<polygon fill="midnightblue" stroke="midnightblue" points="31.5132,-271.172 41.8683,-273.413 35.171,-265.203 31.5132,-271.172"/>
</g>
<!-- Node4&#45;&gt;Node3 -->
<g id="edge3" class="edge"><title>Node4&#45;&gt;Node3</title>
<path fill="none" stroke="midnightblue" d="M59.4093,-263.117C59.4093,-253.817 59.4093,-243.056 59.4093,-235.715"/>
<polygon fill="midnightblue" stroke="midnightblue" points="55.9094,-263.406 59.4093,-273.406 62.9094,-263.406 55.9094,-263.406"/>
</g>
<!-- Node4&#45;&gt;Node6 -->
<g id="edge8" class="edge"><title>Node4&#45;&gt;Node6</title>
<path fill="none" stroke="midnightblue" d="M107.68,-279.513C138.51,-275.12 176.34,-263.909 196.409,-236 211.061,-215.624 189.641,-186.585 176.831,-172.227"/>
<polygon fill="midnightblue" stroke="midnightblue" points="107.029,-276.067 97.5286,-280.756 107.88,-283.015 107.029,-276.067"/>
</g>
<!-- Node5 -->
<g id="node5" class="node"><title>Node5</title>
<g id="a_node5"><a xlink:title=" ">
<polygon fill="white" stroke="#bfbfbf" points="125.409,-216.5 125.409,-235.5 187.409,-235.5 187.409,-216.5 125.409,-216.5"/>
<text text-anchor="middle" x="156.409" y="-223.5" font-family="Helvetica,sans-Serif" font-size="10.00">ICloneable</text>
</a>
</g>
</g>
<!-- Node5&#45;&gt;Node2 -->
<g id="edge5" class="edge"><title>Node5&#45;&gt;Node2</title>
<path fill="none" stroke="midnightblue" d="M133.6,-210.295C123.064,-202.307 111.372,-191.505 104.409,-179 85.3875,-144.836 84.4905,-96.3044 85.0084,-76.7064"/>
<polygon fill="midnightblue" stroke="midnightblue" points="131.874,-213.363 142.049,-216.318 135.938,-207.663 131.874,-213.363"/>
</g>
<!-- Node5&#45;&gt;Node6 -->
<g id="edge9" class="edge"><title>Node5&#45;&gt;Node6</title>
<path fill="none" stroke="midnightblue" d="M160.054,-206.318C162.253,-195.051 164.953,-181.215 166.677,-172.377"/>
<polygon fill="midnightblue" stroke="midnightblue" points="156.558,-205.963 158.078,-216.449 163.428,-207.304 156.558,-205.963"/>
</g>
<!-- Node6&#45;&gt;Node1 -->
<g id="edge11" class="edge"><title>Node6&#45;&gt;Node1</title>
<path fill="none" stroke="#9a32cd" stroke-dasharray="5,2" d="M176.721,-143.691C178.652,-138.72 180.428,-133.243 181.409,-128 188.994,-87.4896 172.521,-38.8656 164.95,-19.531"/>
<polygon fill="#9a32cd" stroke="#9a32cd" points="173.477,-142.375 172.748,-152.945 179.91,-145.137 173.477,-142.375"/>
<text text-anchor="middle" x="204.409" y="-64.5" font-family="Helvetica,sans-Serif" font-size="10.00"> _functions</text>
</g>
<!-- Node6&#45;&gt;Node2 -->
<g id="edge6" class="edge"><title>Node6&#45;&gt;Node2</title>
<path fill="none" stroke="#9a32cd" stroke-dasharray="5,2" d="M143.366,-147.532C135.099,-142.142 126.272,-135.466 119.409,-128 104.825,-112.134 93.9406,-88.9163 88.7636,-76.5293"/>
<polygon fill="#9a32cd" stroke="#9a32cd" points="141.649,-150.585 151.998,-152.854 145.322,-144.626 141.649,-150.585"/>
<text text-anchor="middle" x="150.409" y="-120" font-family="Helvetica,sans-Serif" font-size="10.00"> funcDerivative</text>
<text text-anchor="middle" x="150.409" y="-109" font-family="Helvetica,sans-Serif" font-size="10.00">funcInverse</text>
<text text-anchor="middle" x="150.409" y="-98" font-family="Helvetica,sans-Serif" font-size="10.00">funcIntegral</text>
</g>
<!-- Node6&#45;&gt;Node6 -->
<g id="edge10" class="edge"><title>Node6&#45;&gt;Node6</title>
<path fill="none" stroke="#9a32cd" stroke-dasharray="5,2" d="M233.41,-167.284C238.362,-166.222 241.409,-164.627 241.409,-162.5 241.409,-159.18 233.983,-157.156 223.483,-156.43"/>
<polygon fill="#9a32cd" stroke="#9a32cd" points="232.95,-163.815 223.483,-168.57 233.849,-170.757 232.95,-163.815"/>
<text text-anchor="middle" x="272.409" y="-171" font-family="Helvetica,sans-Serif" font-size="10.00"> funcDerivative</text>
<text text-anchor="middle" x="272.409" y="-160" font-family="Helvetica,sans-Serif" font-size="10.00">funcInverse</text>
<text text-anchor="middle" x="272.409" y="-149" font-family="Helvetica,sans-Serif" font-size="10.00">funcIntegral</text>
</g>
</g>
</svg>
