<?xml version="1.0" encoding="UTF-8" standalone="no"?>
<!DOCTYPE svg PUBLIC "-//W3C//DTD SVG 1.1//EN"
 "http://www.w3.org/Graphics/SVG/1.1/DTD/svg11.dtd">
<!-- Generated by graphviz version 2.38.0 (20140413.2041)
 -->
<!-- Title: IG.Lib.ICommandLineApplicationInterpreter Pages: 1 -->
<svg width="548pt" height="61pt"
 viewBox="0.00 0.00 548.00 61.00" xmlns="http://www.w3.org/2000/svg" xmlns:xlink="http://www.w3.org/1999/xlink">
<g id="graph0" class="graph" transform="scale(1 1) rotate(0) translate(4 57)">
<title>IG.Lib.ICommandLineApplicationInterpreter</title>
<polygon fill="white" stroke="none" points="-4,4 -4,-57 544,-57 544,4 -4,4"/>
<!-- Node1 -->
<g id="node1" class="node"><title>Node1</title>
<g id="a_node1"><a xlink:title="Interface for simple command&#45;line applicatino interpreters.">
<polygon fill="#bfbfbf" stroke="black" points="0,-0.5 0,-30.5 158,-30.5 158,-0.5 0,-0.5"/>
<text text-anchor="start" x="8" y="-18.5" font-family="Helvetica,sans-Serif" font-size="10.00">IG.Lib.ICommandLineApplication</text>
<text text-anchor="middle" x="79" y="-7.5" font-family="Helvetica,sans-Serif" font-size="10.00">Interpreter</text>
</a>
</g>
</g>
<!-- Node2 -->
<g id="node2" class="node"><title>Node2</title>
<g id="a_node2"><a xlink:href="../../de/dcf/classIG_1_1Lib_1_1CommandLineApplicationInterpreter.html" target="_top" xlink:title="Simple command&#45;line application interpreters, holds a set of commands that can be executed by name....">
<polygon fill="white" stroke="black" points="194,-22.5 194,-52.5 349,-52.5 349,-22.5 194,-22.5"/>
<text text-anchor="start" x="202" y="-40.5" font-family="Helvetica,sans-Serif" font-size="10.00">IG.Lib.CommandLineApplication</text>
<text text-anchor="middle" x="271.5" y="-29.5" font-family="Helvetica,sans-Serif" font-size="10.00">Interpreter</text>
</a>
</g>
</g>
<!-- Node1&#45;&gt;Node2 -->
<g id="edge1" class="edge"><title>Node1&#45;&gt;Node2</title>
<path fill="none" stroke="midnightblue" d="M168.073,-25.6712C176.671,-26.6641 185.347,-27.6661 193.819,-28.6445"/>
<polygon fill="midnightblue" stroke="midnightblue" points="168.369,-22.1821 158.033,-24.5117 167.566,-29.1359 168.369,-22.1821"/>
</g>
<!-- Node3 -->
<g id="node3" class="node"><title>Node3</title>
<g id="a_node3"><a xlink:href="../../d2/d86/classIG_1_1Lib_1_1CommandLineApplicationScriptInterpreter.html" target="_top" xlink:title="Command&#45;line interpreters adapted for executing script commands.">
<polygon fill="white" stroke="black" points="385,-0.5 385,-30.5 540,-30.5 540,-0.5 385,-0.5"/>
<text text-anchor="start" x="393" y="-18.5" font-family="Helvetica,sans-Serif" font-size="10.00">IG.Lib.CommandLineApplication</text>
<text text-anchor="middle" x="462.5" y="-7.5" font-family="Helvetica,sans-Serif" font-size="10.00">ScriptInterpreter</text>
</a>
</g>
</g>
<!-- Node1&#45;&gt;Node3 -->
<g id="edge3" class="edge"><title>Node1&#45;&gt;Node3</title>
<path fill="none" stroke="midnightblue" d="M168.344,-13.7971C177.013,-13.676 185.677,-13.573 194,-13.5 262.886,-12.8958 280.114,-12.8877 349,-13.5 360.622,-13.6033 372.92,-13.7666 384.95,-13.9565"/>
<polygon fill="midnightblue" stroke="midnightblue" points="168.133,-10.2997 158.186,-13.9469 168.236,-17.299 168.133,-10.2997"/>
</g>
<!-- Node2&#45;&gt;Node3 -->
<g id="edge2" class="edge"><title>Node2&#45;&gt;Node3</title>
<path fill="none" stroke="midnightblue" d="M359.104,-27.4191C367.674,-26.4216 376.33,-25.4139 384.79,-24.4292"/>
<polygon fill="midnightblue" stroke="midnightblue" points="358.629,-23.9506 349.101,-28.5835 359.439,-30.9037 358.629,-23.9506"/>
</g>
</g>
</svg>
