<?xml version="1.0" encoding="UTF-8" standalone="no"?>
<!DOCTYPE svg PUBLIC "-//W3C//DTD SVG 1.1//EN"
 "http://www.w3.org/Graphics/SVG/1.1/DTD/svg11.dtd">
<!-- Generated by graphviz version 2.38.0 (20140413.2041)
 -->
<!-- Title: IG.Lib.SerializationDtoTypedBase&lt; Type, BaseType &gt;.SerializationDtoTyped&lt; CommonType &gt; Pages: 1 -->
<svg width="389pt" height="127pt"
 viewBox="0.00 0.00 389.00 126.50" xmlns="http://www.w3.org/2000/svg" xmlns:xlink="http://www.w3.org/1999/xlink">
<g id="graph0" class="graph" transform="scale(1 1) rotate(0) translate(4 122.5)">
<title>IG.Lib.SerializationDtoTypedBase&lt; Type, BaseType &gt;.SerializationDtoTyped&lt; CommonType &gt;</title>
<polygon fill="white" stroke="none" points="-4,4 -4,-122.5 385,-122.5 385,4 -4,4"/>
<!-- Node1 -->
<g id="node1" class="node"><title>Node1</title>
<g id="a_node1"><a xlink:title=" ">
<polygon fill="#bfbfbf" stroke="black" points="197,-33.5 197,-74.5 381,-74.5 381,-33.5 197,-33.5"/>
<text text-anchor="start" x="205" y="-62.5" font-family="Helvetica,sans-Serif" font-size="10.00">IG.Lib.SerializationDtoTyped</text>
<text text-anchor="start" x="205" y="-51.5" font-family="Helvetica,sans-Serif" font-size="10.00">Base&lt; Type, BaseType &gt;.Serialization</text>
<text text-anchor="middle" x="289" y="-40.5" font-family="Helvetica,sans-Serif" font-size="10.00">DtoTyped&lt; CommonType &gt;</text>
</a>
</g>
</g>
<!-- Node2 -->
<g id="node2" class="node"><title>Node2</title>
<g id="a_node2"><a xlink:href="../../db/dde/classIG_1_1Lib_1_1SerializationDtoTypedBase.html" target="_top" xlink:title=" ">
<polygon fill="white" stroke="black" points="0,-88 0,-118 161,-118 161,-88 0,-88"/>
<text text-anchor="start" x="8" y="-106" font-family="Helvetica,sans-Serif" font-size="10.00">SerializationDtoTypedBase</text>
<text text-anchor="middle" x="80.5" y="-95" font-family="Helvetica,sans-Serif" font-size="10.00">&lt; CommonType, CommonType &gt;</text>
</a>
</g>
</g>
<!-- Node2&#45;&gt;Node1 -->
<g id="edge1" class="edge"><title>Node2&#45;&gt;Node1</title>
<path fill="none" stroke="midnightblue" d="M154.678,-85.6357C169.85,-82.0355 185.971,-78.2102 201.566,-74.5097"/>
<polygon fill="midnightblue" stroke="midnightblue" points="153.782,-82.2511 144.86,-87.9654 155.398,-89.062 153.782,-82.2511"/>
</g>
<!-- Node3 -->
<g id="node3" class="node"><title>Node3</title>
<g id="a_node3"><a xlink:href="../../d8/d1e/interfaceIG_1_1Lib_1_1ISerializationDto.html" target="_top" xlink:title=" ">
<polygon fill="white" stroke="black" points="34,-39 34,-69 127,-69 127,-39 34,-39"/>
<text text-anchor="start" x="42" y="-57" font-family="Helvetica,sans-Serif" font-size="10.00">ISerializationDto&lt;</text>
<text text-anchor="middle" x="80.5" y="-46" font-family="Helvetica,sans-Serif" font-size="10.00"> CommonType &gt;</text>
</a>
</g>
</g>
<!-- Node3&#45;&gt;Node1 -->
<g id="edge2" class="edge"><title>Node3&#45;&gt;Node1</title>
<path fill="none" stroke="midnightblue" d="M137.269,-54C155.617,-54 176.523,-54 196.8,-54"/>
<polygon fill="midnightblue" stroke="midnightblue" points="137.073,-50.5001 127.073,-54 137.073,-57.5001 137.073,-50.5001"/>
</g>
<!-- Node4 -->
<g id="node4" class="node"><title>Node4</title>
<g id="a_node4"><a xlink:href="../../d3/db6/interfaceIG_1_1Lib_1_1ILockable.html" target="_top" xlink:title="Lockable object, has a Lock property that returns object on which lock must be performed in order to ...">
<polygon fill="white" stroke="black" points="51.5,-0.5 51.5,-19.5 109.5,-19.5 109.5,-0.5 51.5,-0.5"/>
<text text-anchor="middle" x="80.5" y="-7.5" font-family="Helvetica,sans-Serif" font-size="10.00">ILockable</text>
</a>
</g>
</g>
<!-- Node4&#45;&gt;Node1 -->
<g id="edge3" class="edge"><title>Node4&#45;&gt;Node1</title>
<path fill="none" stroke="midnightblue" d="M119.572,-18.1121C141.274,-22.7363 169.476,-28.7454 196.576,-34.5198"/>
<polygon fill="midnightblue" stroke="midnightblue" points="120.29,-14.6866 109.78,-16.0258 118.831,-21.533 120.29,-14.6866"/>
</g>
</g>
</svg>
