<?xml version="1.0" encoding="UTF-8" standalone="no"?>
<!DOCTYPE svg PUBLIC "-//W3C//DTD SVG 1.1//EN"
 "http://www.w3.org/Graphics/SVG/1.1/DTD/svg11.dtd">
<!-- Generated by graphviz version 2.38.0 (20140413.2041)
 -->
<!-- Title: IG.Num.BoundingBox1d Pages: 1 -->
<svg width="210pt" height="163pt"
 viewBox="0.00 0.00 210.00 163.00" xmlns="http://www.w3.org/2000/svg" xmlns:xlink="http://www.w3.org/1999/xlink">
<g id="graph0" class="graph" transform="scale(1 1) rotate(0) translate(4 159)">
<title>IG.Num.BoundingBox1d</title>
<polygon fill="white" stroke="none" points="-4,4 -4,-159 206,-159 206,4 -4,4"/>
<!-- Node1 -->
<g id="node1" class="node"><title>Node1</title>
<g id="a_node1"><a xlink:title="An 1D bounding box.">
<polygon fill="#bfbfbf" stroke="black" points="3,-0.5 3,-19.5 124,-19.5 124,-0.5 3,-0.5"/>
<text text-anchor="middle" x="63.5" y="-7.5" font-family="Helvetica,sans-Serif" font-size="10.00">IG.Num.BoundingBox1d</text>
</a>
</g>
</g>
<!-- Node2 -->
<g id="node2" class="node"><title>Node2</title>
<g id="a_node2"><a xlink:href="../../df/d61/classIG_1_1Num_1_1BoundingBoxBase.html" target="_top" xlink:title="Base class for bounding boxes that define minimal and maximal co&#45;ordinates of objects,...">
<polygon fill="white" stroke="black" points="67,-57.5 67,-76.5 164,-76.5 164,-57.5 67,-57.5"/>
<text text-anchor="middle" x="115.5" y="-64.5" font-family="Helvetica,sans-Serif" font-size="10.00">BoundingBoxBase</text>
</a>
</g>
</g>
<!-- Node2&#45;&gt;Node1 -->
<g id="edge1" class="edge"><title>Node2&#45;&gt;Node1</title>
<path fill="none" stroke="midnightblue" d="M100.489,-50.1229C91.1298,-40.2238 79.4426,-27.8624 71.7396,-19.7149"/>
<polygon fill="midnightblue" stroke="midnightblue" points="97.9616,-52.5443 107.375,-57.4063 103.048,-47.7352 97.9616,-52.5443"/>
</g>
<!-- Node3 -->
<g id="node3" class="node"><title>Node3</title>
<g id="a_node3"><a xlink:href="../../db/d5e/interfaceIG_1_1Num_1_1IBoundingBox.html" target="_top" xlink:title="Bounding box, defines minimum and maximum co&#45;ordinates of domains, geometric objects and their groups...">
<polygon fill="white" stroke="black" points="0,-135.5 0,-154.5 77,-154.5 77,-135.5 0,-135.5"/>
<text text-anchor="middle" x="38.5" y="-142.5" font-family="Helvetica,sans-Serif" font-size="10.00">IBoundingBox</text>
</a>
</g>
</g>
<!-- Node3&#45;&gt;Node1 -->
<g id="edge4" class="edge"><title>Node3&#45;&gt;Node1</title>
<path fill="none" stroke="midnightblue" d="M42.0464,-125.133C47.5443,-95.8844 57.9057,-40.7618 61.8861,-19.5857"/>
<polygon fill="midnightblue" stroke="midnightblue" points="38.548,-124.799 40.1403,-135.273 45.4275,-126.092 38.548,-124.799"/>
</g>
<!-- Node3&#45;&gt;Node2 -->
<g id="edge2" class="edge"><title>Node3&#45;&gt;Node2</title>
<path fill="none" stroke="midnightblue" d="M54.8372,-127.875C70.7021,-112.216 94.181,-89.0422 106.77,-76.6165"/>
<polygon fill="midnightblue" stroke="midnightblue" points="51.9914,-125.766 47.3329,-135.282 56.9087,-130.748 51.9914,-125.766"/>
</g>
<!-- Node4 -->
<g id="node4" class="node"><title>Node4</title>
<g id="a_node4"><a xlink:href="../../d3/d24/interfaceIG_1_1Num_1_1IVector.html" target="_top" xlink:title="Generic Vector interface">
<polygon fill="white" stroke="black" points="95,-135.5 95,-154.5 202,-154.5 202,-135.5 95,-135.5"/>
<text text-anchor="middle" x="148.5" y="-142.5" font-family="Helvetica,sans-Serif" font-size="10.00">IG.Num.IVector&lt; T &gt;</text>
</a>
</g>
</g>
<!-- Node4&#45;&gt;Node2 -->
<g id="edge3" class="edge"><title>Node4&#45;&gt;Node2</title>
<path fill="none" stroke="#9a32cd" stroke-dasharray="5,2" d="M140.543,-125.674C133.786,-110.113 124.389,-88.4722 119.241,-76.6165"/>
<polygon fill="#9a32cd" stroke="#9a32cd" points="137.521,-127.503 144.714,-135.282 143.942,-124.715 137.521,-127.503"/>
<text text-anchor="middle" x="159" y="-109" font-family="Helvetica,sans-Serif" font-size="10.00"> _maxAux</text>
<text text-anchor="middle" x="159" y="-98" font-family="Helvetica,sans-Serif" font-size="10.00">_minAux</text>
</g>
</g>
</svg>
