<?xml version="1.0" encoding="UTF-8" standalone="no"?>
<!DOCTYPE svg PUBLIC "-//W3C//DTD SVG 1.1//EN"
 "http://www.w3.org/Graphics/SVG/1.1/DTD/svg11.dtd">
<!-- Generated by graphviz version 2.38.0 (20140413.2041)
 -->
<!-- Title: IG.Num.ScalarFunctionParametricBase Pages: 1 -->
<svg width="799pt" height="239pt"
 viewBox="0.00 0.00 799.00 238.50" xmlns="http://www.w3.org/2000/svg" xmlns:xlink="http://www.w3.org/1999/xlink">
<g id="graph0" class="graph" transform="scale(1 1) rotate(0) translate(4 234.5)">
<title>IG.Num.ScalarFunctionParametricBase</title>
<polygon fill="white" stroke="none" points="-4,4 -4,-234.5 795,-234.5 795,4 -4,4"/>
<!-- Node1 -->
<g id="node1" class="node"><title>Node1</title>
<g id="a_node1"><a xlink:title="Base class for parameterized scalar functions with affine transformation of co&#45;ordinates....">
<polygon fill="#bfbfbf" stroke="black" points="603,-173 603,-192 791,-192 791,-173 603,-173"/>
<text text-anchor="middle" x="697" y="-180" font-family="Helvetica,sans-Serif" font-size="10.00">IG.Num.ScalarFunctionParametricBase</text>
</a>
</g>
</g>
<!-- Node2 -->
<g id="node2" class="node"><title>Node2</title>
<g id="a_node2"><a xlink:href="../../d2/d85/classIG_1_1Num_1_1ScalarFunctionBase.html" target="_top" xlink:title="Base class for scalar functions with affine transformation of co&#45;ordinates. The reference function is...">
<polygon fill="white" stroke="black" points="448.5,-101 448.5,-120 552.5,-120 552.5,-101 448.5,-101"/>
<text text-anchor="middle" x="500.5" y="-108" font-family="Helvetica,sans-Serif" font-size="10.00">ScalarFunctionBase</text>
</a>
</g>
</g>
<!-- Node2&#45;&gt;Node1 -->
<g id="edge1" class="edge"><title>Node2&#45;&gt;Node1</title>
<path fill="none" stroke="midnightblue" d="M537.076,-123.67C575.522,-137.901 635.861,-160.238 670.065,-172.899"/>
<polygon fill="midnightblue" stroke="midnightblue" points="537.921,-120.25 527.328,-120.061 535.491,-126.815 537.921,-120.25"/>
</g>
<!-- Node3 -->
<g id="node3" class="node"><title>Node3</title>
<g id="a_node3"><a xlink:href="../../d2/d9e/classIG_1_1Num_1_1ScalarFunctionUntransformedBase.html" target="_top" xlink:title="Base class for defining scalar functions without possibility of affine transformation of parameters.">
<polygon fill="white" stroke="black" points="184,-130 184,-149 351,-149 351,-130 184,-130"/>
<text text-anchor="middle" x="267.5" y="-137" font-family="Helvetica,sans-Serif" font-size="10.00">ScalarFunctionUntransformedBase</text>
</a>
</g>
</g>
<!-- Node3&#45;&gt;Node2 -->
<g id="edge2" class="edge"><title>Node3&#45;&gt;Node2</title>
<path fill="none" stroke="midnightblue" d="M354.572,-128.694C386.104,-124.736 420.77,-120.384 448.29,-116.929"/>
<polygon fill="midnightblue" stroke="midnightblue" points="353.944,-125.246 344.458,-129.964 354.816,-132.191 353.944,-125.246"/>
</g>
<!-- Node4 -->
<g id="node4" class="node"><title>Node4</title>
<g id="a_node4"><a xlink:href="../../d8/d56/interfaceIG_1_1Num_1_1IScalarFunctionUntransformed.html" target="_top" xlink:title="Scalar functions of vector arguments.">
<polygon fill="white" stroke="black" points="0,-151 0,-170 147,-170 147,-151 0,-151"/>
<text text-anchor="middle" x="73.5" y="-158" font-family="Helvetica,sans-Serif" font-size="10.00">IScalarFunctionUntransformed</text>
</a>
</g>
</g>
<!-- Node4&#45;&gt;Node3 -->
<g id="edge3" class="edge"><title>Node4&#45;&gt;Node3</title>
<path fill="none" stroke="midnightblue" d="M157.031,-151.473C165.912,-150.502 174.949,-149.513 183.832,-148.542"/>
<polygon fill="midnightblue" stroke="midnightblue" points="156.647,-147.994 147.087,-152.561 157.408,-154.953 156.647,-147.994"/>
</g>
<!-- Node5 -->
<g id="node5" class="node"><title>Node5</title>
<g id="a_node5"><a xlink:href="../../dd/d1e/interfaceIG_1_1Num_1_1IScalarFunction.html" target="_top" xlink:title="Scalar functions of vector arguments, with eventual affine transformation of parameters....">
<polygon fill="white" stroke="black" points="225.5,-170 225.5,-189 309.5,-189 309.5,-170 225.5,-170"/>
<text text-anchor="middle" x="267.5" y="-177" font-family="Helvetica,sans-Serif" font-size="10.00">IScalarFunction</text>
</a>
</g>
</g>
<!-- Node4&#45;&gt;Node5 -->
<g id="edge5" class="edge"><title>Node4&#45;&gt;Node5</title>
<path fill="none" stroke="midnightblue" d="M157.104,-168.674C180.674,-171.007 205.343,-173.448 225.276,-175.421"/>
<polygon fill="midnightblue" stroke="midnightblue" points="157.383,-165.185 147.087,-167.683 156.694,-172.151 157.383,-165.185"/>
</g>
<!-- Node5&#45;&gt;Node1 -->
<g id="edge9" class="edge"><title>Node5&#45;&gt;Node1</title>
<path fill="none" stroke="midnightblue" d="M320.201,-179.863C390.192,-180.354 516.286,-181.239 602.97,-181.847"/>
<polygon fill="midnightblue" stroke="midnightblue" points="319.903,-176.361 309.879,-179.79 319.854,-183.361 319.903,-176.361"/>
</g>
<!-- Node5&#45;&gt;Node2 -->
<g id="edge4" class="edge"><title>Node5&#45;&gt;Node2</title>
<path fill="none" stroke="midnightblue" d="M317.544,-167.402C328.575,-164.574 340.209,-161.507 351,-158.5 393.805,-146.573 442.71,-130.228 472.333,-120.021"/>
<polygon fill="midnightblue" stroke="midnightblue" points="316.454,-164.068 307.625,-169.924 318.179,-170.852 316.454,-164.068"/>
</g>
<!-- Node9 -->
<g id="node9" class="node"><title>Node9</title>
<g id="a_node9"><a xlink:href="../../d4/d4e/interfaceIG_1_1Num_1_1IScalarFunctionParametric.html" target="_top" xlink:title="Parameterized scalar functions with affine transformation of coordinates.">
<polygon fill="white" stroke="black" points="435,-211 435,-230 566,-230 566,-211 435,-211"/>
<text text-anchor="middle" x="500.5" y="-218" font-family="Helvetica,sans-Serif" font-size="10.00">IScalarFunctionParametric</text>
</a>
</g>
</g>
<!-- Node5&#45;&gt;Node9 -->
<g id="edge11" class="edge"><title>Node5&#45;&gt;Node9</title>
<path fill="none" stroke="midnightblue" d="M319.719,-188.591C357.156,-195.236 407.814,-204.227 445.815,-210.971"/>
<polygon fill="midnightblue" stroke="midnightblue" points="319.99,-185.084 309.532,-186.783 318.766,-191.977 319.99,-185.084"/>
</g>
<!-- Node6 -->
<g id="node6" class="node"><title>Node6</title>
<g id="a_node6"><a xlink:href="../../d8/d86/interfaceIG_1_1Num_1_1IMatrix.html" target="_top" xlink:title="Generic Matrix interface.">
<polygon fill="white" stroke="black" points="197.5,-0.5 197.5,-30.5 337.5,-30.5 337.5,-0.5 197.5,-0.5"/>
<text text-anchor="start" x="205.5" y="-18.5" font-family="Helvetica,sans-Serif" font-size="10.00">IG.Num.IMatrix&lt; Component</text>
<text text-anchor="middle" x="267.5" y="-7.5" font-family="Helvetica,sans-Serif" font-size="10.00">Type &gt;</text>
</a>
</g>
</g>
<!-- Node6&#45;&gt;Node2 -->
<g id="edge6" class="edge"><title>Node6&#45;&gt;Node2</title>
<path fill="none" stroke="#9a32cd" stroke-dasharray="5,2" d="M347.475,-31.6941C370.434,-37.7455 395.189,-45.6141 417,-55.5 444.281,-67.8652 472.59,-88.8301 487.926,-100.992"/>
<polygon fill="#9a32cd" stroke="#9a32cd" points="348.314,-28.2962 337.759,-29.2113 346.581,-35.0782 348.314,-28.2962"/>
<text text-anchor="middle" x="393" y="-58.5" font-family="Helvetica,sans-Serif" font-size="10.00"> _refHess</text>
</g>
<!-- Node7 -->
<g id="node7" class="node"><title>Node7</title>
<g id="a_node7"><a xlink:href="../../d3/d24/interfaceIG_1_1Num_1_1IVector.html" target="_top" xlink:title="Generic Vector interface">
<polygon fill="white" stroke="black" points="214,-88 214,-107 321,-107 321,-88 214,-88"/>
<text text-anchor="middle" x="267.5" y="-95" font-family="Helvetica,sans-Serif" font-size="10.00">IG.Num.IVector&lt; T &gt;</text>
</a>
</g>
</g>
<!-- Node7&#45;&gt;Node2 -->
<g id="edge7" class="edge"><title>Node7&#45;&gt;Node2</title>
<path fill="none" stroke="#9a32cd" stroke-dasharray="5,2" d="M331.441,-94.5563C357.903,-93.9719 388.99,-94.1403 417,-96.5 428.292,-97.4513 440.361,-99.1225 451.687,-100.987"/>
<polygon fill="#9a32cd" stroke="#9a32cd" points="331.07,-91.0647 321.165,-94.8255 331.253,-98.0623 331.07,-91.0647"/>
<text text-anchor="middle" x="393" y="-110.5" font-family="Helvetica,sans-Serif" font-size="10.00"> _refParam</text>
<text text-anchor="middle" x="393" y="-99.5" font-family="Helvetica,sans-Serif" font-size="10.00">_refGrad</text>
</g>
<!-- Node8 -->
<g id="node8" class="node"><title>Node8</title>
<g id="a_node8"><a xlink:href="../../d5/d50/interfaceIG_1_1Num_1_1IAffineTransformation.html" target="_top" xlink:title="Affine Transformation.">
<polygon fill="white" stroke="black" points="196,-50 196,-69 339,-69 339,-50 196,-50"/>
<text text-anchor="middle" x="267.5" y="-57" font-family="Helvetica,sans-Serif" font-size="10.00">IG.Num.IAffineTransformation</text>
</a>
</g>
</g>
<!-- Node8&#45;&gt;Node2 -->
<g id="edge8" class="edge"><title>Node8&#45;&gt;Node2</title>
<path fill="none" stroke="#9a32cd" stroke-dasharray="5,2" d="M349.397,-67.0342C371.51,-70.0022 395.342,-74.047 417,-79.5 438.366,-84.8796 461.799,-94.0157 478.213,-100.98"/>
<polygon fill="#9a32cd" stroke="#9a32cd" points="349.737,-63.5492 339.372,-65.7452 348.844,-70.492 349.737,-63.5492"/>
<text text-anchor="middle" x="393" y="-82.5" font-family="Helvetica,sans-Serif" font-size="10.00"> _transf</text>
</g>
<!-- Node9&#45;&gt;Node1 -->
<g id="edge10" class="edge"><title>Node9&#45;&gt;Node1</title>
<path fill="none" stroke="midnightblue" d="M560.308,-209.011C588.059,-203.589 620.789,-197.194 647.15,-192.044"/>
<polygon fill="midnightblue" stroke="midnightblue" points="559.473,-205.607 550.33,-210.96 560.815,-212.478 559.473,-205.607"/>
</g>
</g>
</svg>
