<?xml version="1.0" encoding="UTF-8" standalone="no"?>
<!DOCTYPE svg PUBLIC "-//W3C//DTD SVG 1.1//EN"
 "http://www.w3.org/Graphics/SVG/1.1/DTD/svg11.dtd">
<!-- Generated by graphviz version 2.38.0 (20140413.2041)
 -->
<!-- Title: IG.Gr.GraphicQuadriLateralBase Pages: 1 -->
<svg width="165pt" height="140pt"
 viewBox="0.00 0.00 165.00 140.00" xmlns="http://www.w3.org/2000/svg" xmlns:xlink="http://www.w3.org/1999/xlink">
<g id="graph0" class="graph" transform="scale(1 1) rotate(0) translate(4 136)">
<title>IG.Gr.GraphicQuadriLateralBase</title>
<polygon fill="white" stroke="none" points="-4,4 -4,-136 161,-136 161,4 -4,4"/>
<!-- Node1 -->
<g id="node1" class="node"><title>Node1</title>
<g id="a_node1"><a xlink:title="Base class for graphic line primitive.">
<polygon fill="#bfbfbf" stroke="black" points="0,-0.5 0,-19.5 157,-19.5 157,-0.5 0,-0.5"/>
<text text-anchor="middle" x="78.5" y="-7.5" font-family="Helvetica,sans-Serif" font-size="10.00">IG.Gr.GraphicQuadriLateralBase</text>
</a>
</g>
</g>
<!-- Node2 -->
<g id="node2" class="node"><title>Node2</title>
<g id="a_node2"><a xlink:href="../../d4/d1f/classIG_1_1Gr_1_1GraphicPrimitiveBase.html" target="_top" xlink:title="Base class for graphic primitives.">
<polygon fill="white" stroke="black" points="23.5,-56.5 23.5,-75.5 133.5,-75.5 133.5,-56.5 23.5,-56.5"/>
<text text-anchor="middle" x="78.5" y="-63.5" font-family="Helvetica,sans-Serif" font-size="10.00">GraphicPrimitiveBase</text>
</a>
</g>
</g>
<!-- Node2&#45;&gt;Node1 -->
<g id="edge1" class="edge"><title>Node2&#45;&gt;Node1</title>
<path fill="none" stroke="midnightblue" d="M78.5,-45.8045C78.5,-36.9102 78.5,-26.7798 78.5,-19.7511"/>
<polygon fill="midnightblue" stroke="midnightblue" points="75.0001,-46.083 78.5,-56.083 82.0001,-46.083 75.0001,-46.083"/>
</g>
<!-- Node3 -->
<g id="node3" class="node"><title>Node3</title>
<g id="a_node3"><a xlink:href="../../dd/d5f/interfaceIG_1_1Gr_1_1IGraphicPrimitive.html" target="_top" xlink:title=" ">
<polygon fill="white" stroke="black" points="34,-112.5 34,-131.5 123,-131.5 123,-112.5 34,-112.5"/>
<text text-anchor="middle" x="78.5" y="-119.5" font-family="Helvetica,sans-Serif" font-size="10.00">IGraphicPrimitive</text>
</a>
</g>
</g>
<!-- Node3&#45;&gt;Node2 -->
<g id="edge2" class="edge"><title>Node3&#45;&gt;Node2</title>
<path fill="none" stroke="midnightblue" d="M78.5,-101.805C78.5,-92.9102 78.5,-82.7798 78.5,-75.7511"/>
<polygon fill="midnightblue" stroke="midnightblue" points="75.0001,-102.083 78.5,-112.083 82.0001,-102.083 75.0001,-102.083"/>
</g>
</g>
</svg>
