<?xml version="1.0" encoding="UTF-8" standalone="no"?>
<!DOCTYPE svg PUBLIC "-//W3C//DTD SVG 1.1//EN"
 "http://www.w3.org/Graphics/SVG/1.1/DTD/svg11.dtd">
<!-- Generated by graphviz version 2.38.0 (20140413.2041)
 -->
<!-- Title: IG.Lib.ModuleTest Pages: 1 -->
<svg width="454pt" height="345pt"
 viewBox="0.00 0.00 453.50 345.00" xmlns="http://www.w3.org/2000/svg" xmlns:xlink="http://www.w3.org/1999/xlink">
<g id="graph0" class="graph" transform="scale(1 1) rotate(0) translate(4 341)">
<title>IG.Lib.ModuleTest</title>
<polygon fill="white" stroke="none" points="-4,4 -4,-341 449.5,-341 449.5,4 -4,4"/>
<!-- Node1 -->
<g id="node1" class="node"><title>Node1</title>
<g id="a_node1"><a xlink:title=" ">
<polygon fill="#bfbfbf" stroke="black" points="282,-0.5 282,-19.5 377,-19.5 377,-0.5 282,-0.5"/>
<text text-anchor="middle" x="329.5" y="-7.5" font-family="Helvetica,sans-Serif" font-size="10.00">IG.Lib.ModuleTest</text>
</a>
</g>
</g>
<!-- Node2 -->
<g id="node2" class="node"><title>Node2</title>
<g id="a_node2"><a xlink:href="../../db/dc7/classIG_1_1Lib_1_1Module.html" target="_top" xlink:title="General module (or library) management class, a base class for specific module classes....">
<polygon fill="white" stroke="black" points="148.5,-58.5 148.5,-77.5 196.5,-77.5 196.5,-58.5 148.5,-58.5"/>
<text text-anchor="middle" x="172.5" y="-65.5" font-family="Helvetica,sans-Serif" font-size="10.00">Module</text>
</a>
</g>
</g>
<!-- Node2&#45;&gt;Node1 -->
<g id="edge1" class="edge"><title>Node2&#45;&gt;Node1</title>
<path fill="none" stroke="midnightblue" d="M205.926,-55.0773C235.793,-44.4242 278.826,-29.0748 305.431,-19.5852"/>
<polygon fill="midnightblue" stroke="midnightblue" points="204.588,-51.8386 196.345,-58.4948 206.94,-58.4318 204.588,-51.8386"/>
</g>
<!-- Node3 -->
<g id="node3" class="node"><title>Node3</title>
<g id="a_node3"><a xlink:href="../../d3/db6/interfaceIG_1_1Lib_1_1ILockable.html" target="_top" xlink:title="Lockable object, has a Lock property that returns object on which lock must be performed in order to ...">
<polygon fill="white" stroke="black" points="56.5,-203.5 56.5,-222.5 114.5,-222.5 114.5,-203.5 56.5,-203.5"/>
<text text-anchor="middle" x="85.5" y="-210.5" font-family="Helvetica,sans-Serif" font-size="10.00">ILockable</text>
</a>
</g>
</g>
<!-- Node3&#45;&gt;Node2 -->
<g id="edge2" class="edge"><title>Node3&#45;&gt;Node2</title>
<path fill="none" stroke="midnightblue" d="M89.8659,-193.391C96.2557,-169.19 110.02,-126.53 133.5,-97 139.725,-89.1711 148.683,-82.5294 156.445,-77.6822"/>
<polygon fill="midnightblue" stroke="midnightblue" points="86.4,-192.824 87.3756,-203.374 93.1919,-194.518 86.4,-192.824"/>
</g>
<!-- Node4 -->
<g id="node4" class="node"><title>Node4</title>
<g id="a_node4"><a xlink:href="../../db/db1/interfaceIG_1_1Lib_1_1IReporter.html" target="_top" xlink:title="Interface from which majority of reporters inherit. Includes generic reporting functionality plus tra...">
<polygon fill="white" stroke="black" points="132.5,-203.5 132.5,-222.5 216.5,-222.5 216.5,-203.5 132.5,-203.5"/>
<text text-anchor="middle" x="174.5" y="-210.5" font-family="Helvetica,sans-Serif" font-size="10.00">IG.Lib.IReporter</text>
</a>
</g>
</g>
<!-- Node4&#45;&gt;Node2 -->
<g id="edge3" class="edge"><title>Node4&#45;&gt;Node2</title>
<path fill="none" stroke="#9a32cd" stroke-dasharray="5,2" d="M154.927,-196.366C151.899,-192.965 149.212,-189.134 147.5,-185 132.533,-148.866 133.56,-133.543 147.5,-97 150.38,-89.4499 156.336,-82.6446 161.711,-77.634"/>
<polygon fill="#9a32cd" stroke="#9a32cd" points="152.676,-199.057 162.314,-203.459 157.525,-194.008 152.676,-199.057"/>
<text text-anchor="middle" x="168.5" y="-138.5" font-family="Helvetica,sans-Serif" font-size="10.00"> _reporter</text>
</g>
<!-- Node5 -->
<g id="node5" class="node"><title>Node5</title>
<g id="a_node5"><a xlink:title=" ">
<polygon fill="white" stroke="#bfbfbf" points="0,-260.5 0,-279.5 67,-279.5 67,-260.5 0,-260.5"/>
<text text-anchor="middle" x="33.5" y="-267.5" font-family="Helvetica,sans-Serif" font-size="10.00">IDisposable</text>
</a>
</g>
</g>
<!-- Node5&#45;&gt;Node4 -->
<g id="edge4" class="edge"><title>Node5&#45;&gt;Node4</title>
<path fill="none" stroke="midnightblue" d="M55.2229,-254.807C63.2547,-249.973 72.5787,-244.828 81.5,-241 99.2679,-233.376 119.84,-227.153 137.111,-222.611"/>
<polygon fill="midnightblue" stroke="midnightblue" points="53.1296,-251.988 46.4894,-260.243 56.8287,-257.931 53.1296,-251.988"/>
</g>
<!-- Node6 -->
<g id="node6" class="node"><title>Node6</title>
<g id="a_node6"><a xlink:href="../../de/d0d/interfaceIG_1_1Lib_1_1IReporterBase.html" target="_top" xlink:title="Interface from which all reporters inherit.">
<polygon fill="white" stroke="black" points="195.5,-317.5 195.5,-336.5 273.5,-336.5 273.5,-317.5 195.5,-317.5"/>
<text text-anchor="middle" x="234.5" y="-324.5" font-family="Helvetica,sans-Serif" font-size="10.00">IReporterBase</text>
</a>
</g>
</g>
<!-- Node6&#45;&gt;Node4 -->
<g id="edge5" class="edge"><title>Node6&#45;&gt;Node4</title>
<path fill="none" stroke="midnightblue" d="M185.295,-320.354C159.655,-314.634 130.403,-303.128 114.5,-280 98.97,-257.415 133.598,-234.51 156.448,-222.524"/>
<polygon fill="midnightblue" stroke="midnightblue" points="184.784,-323.821 195.275,-322.341 186.15,-316.956 184.784,-323.821"/>
</g>
<!-- Node7 -->
<g id="node7" class="node"><title>Node7</title>
<g id="a_node7"><a xlink:href="../../d2/d8e/interfaceIG_1_1Lib_1_1IReporterTextWriter.html" target="_top" xlink:title="Reporters that utilize writing messages to files. Messages are typically formatted as multi&#45;line mess...">
<polygon fill="white" stroke="black" points="124,-260.5 124,-279.5 225,-279.5 225,-260.5 124,-260.5"/>
<text text-anchor="middle" x="174.5" y="-267.5" font-family="Helvetica,sans-Serif" font-size="10.00">IReporterTextWriter</text>
</a>
</g>
</g>
<!-- Node6&#45;&gt;Node7 -->
<g id="edge7" class="edge"><title>Node6&#45;&gt;Node7</title>
<path fill="none" stroke="midnightblue" d="M217.499,-310.416C206.648,-300.469 192.983,-287.943 184.007,-279.715"/>
<polygon fill="midnightblue" stroke="midnightblue" points="215.388,-313.229 225.125,-317.406 220.118,-308.069 215.388,-313.229"/>
</g>
<!-- Node8 -->
<g id="node8" class="node"><title>Node8</title>
<g id="a_node8"><a xlink:href="../../d1/ddb/interfaceIG_1_1Lib_1_1IReporterTextLogger.html" target="_top" xlink:title="Reporters that utilize logging messages to files. IReporterTextLogger typically outputs (to a file) m...">
<polygon fill="white" stroke="black" points="243.5,-260.5 243.5,-279.5 347.5,-279.5 347.5,-260.5 243.5,-260.5"/>
<text text-anchor="middle" x="295.5" y="-267.5" font-family="Helvetica,sans-Serif" font-size="10.00">IReporterTextLogger</text>
</a>
</g>
</g>
<!-- Node6&#45;&gt;Node8 -->
<g id="edge9" class="edge"><title>Node6&#45;&gt;Node8</title>
<path fill="none" stroke="midnightblue" d="M251.46,-310.708C262.543,-300.715 276.619,-288.024 285.834,-279.715"/>
<polygon fill="midnightblue" stroke="midnightblue" points="249.114,-308.11 244.031,-317.406 253.802,-313.309 249.114,-308.11"/>
</g>
<!-- Node9 -->
<g id="node9" class="node"><title>Node9</title>
<g id="a_node9"><a xlink:href="../../d0/d0e/interfaceIG_1_1Lib_1_1IReporterTrace.html" target="_top" xlink:title="Reporters that utilize system&#39;s trace utility.">
<polygon fill="white" stroke="black" points="365.5,-260.5 365.5,-279.5 445.5,-279.5 445.5,-260.5 365.5,-260.5"/>
<text text-anchor="middle" x="405.5" y="-267.5" font-family="Helvetica,sans-Serif" font-size="10.00">IReporterTrace</text>
</a>
</g>
</g>
<!-- Node6&#45;&gt;Node9 -->
<g id="edge11" class="edge"><title>Node6&#45;&gt;Node9</title>
<path fill="none" stroke="midnightblue" d="M270.784,-314.33C303.201,-303.903 349.931,-288.873 378.969,-279.533"/>
<polygon fill="midnightblue" stroke="midnightblue" points="269.667,-311.012 261.219,-317.406 271.81,-317.676 269.667,-311.012"/>
</g>
<!-- Node7&#45;&gt;Node4 -->
<g id="edge6" class="edge"><title>Node7&#45;&gt;Node4</title>
<path fill="none" stroke="midnightblue" d="M174.5,-250.117C174.5,-240.817 174.5,-230.056 174.5,-222.715"/>
<polygon fill="midnightblue" stroke="midnightblue" points="171,-250.406 174.5,-260.406 178,-250.406 171,-250.406"/>
</g>
<!-- Node8&#45;&gt;Node4 -->
<g id="edge8" class="edge"><title>Node8&#45;&gt;Node4</title>
<path fill="none" stroke="midnightblue" d="M267.417,-256.235C244.621,-245.873 213.112,-231.551 193.273,-222.533"/>
<polygon fill="midnightblue" stroke="midnightblue" points="266.042,-259.454 276.594,-260.406 268.938,-253.082 266.042,-259.454"/>
</g>
<!-- Node9&#45;&gt;Node4 -->
<g id="edge10" class="edge"><title>Node9&#45;&gt;Node4</title>
<path fill="none" stroke="midnightblue" d="M359.829,-258.126C315.991,-247.688 250.668,-232.135 210.424,-222.553"/>
<polygon fill="midnightblue" stroke="midnightblue" points="359.121,-261.555 369.66,-260.467 360.742,-254.745 359.121,-261.555"/>
</g>
<!-- Node10 -->
<g id="node10" class="node"><title>Node10</title>
<g id="a_node10"><a xlink:title=" ">
<polygon fill="white" stroke="#bfbfbf" points="285,-203.5 285,-222.5 326,-222.5 326,-203.5 285,-203.5"/>
<text text-anchor="middle" x="305.5" y="-210.5" font-family="Helvetica,sans-Serif" font-size="10.00">static</text>
</a>
</g>
</g>
<!-- Node10&#45;&gt;Node1 -->
<g id="edge13" class="edge"><title>Node10&#45;&gt;Node1</title>
<path fill="none" stroke="#9a32cd" stroke-dasharray="5,2" d="M332.271,-197.352C336.398,-193.866 340.085,-189.752 342.5,-185 371.596,-127.749 343.586,-45.9924 333.099,-19.5797"/>
<polygon fill="#9a32cd" stroke="#9a32cd" points="330.093,-194.606 324.01,-203.28 334.175,-200.293 330.093,-194.606"/>
<text text-anchor="middle" x="380" y="-71" font-family="Helvetica,sans-Serif" font-size="10.00"> _moduleTest</text>
<text text-anchor="middle" x="380" y="-60" font-family="Helvetica,sans-Serif" font-size="10.00">_lock</text>
</g>
<!-- Node10&#45;&gt;Node2 -->
<g id="edge12" class="edge"><title>Node10&#45;&gt;Node2</title>
<path fill="none" stroke="#9a32cd" stroke-dasharray="5,2" d="M274.733,-210.673C254.426,-208.168 228.678,-201.619 212.5,-185 184.302,-156.033 205.266,-134.224 189.5,-97 186.661,-90.2972 182.411,-83.2972 178.871,-77.9729"/>
<polygon fill="#9a32cd" stroke="#9a32cd" points="274.485,-214.165 284.776,-211.646 275.16,-207.198 274.485,-214.165"/>
<text text-anchor="middle" x="277.5" y="-177" font-family="Helvetica,sans-Serif" font-size="10.00"> _isAnnDllTestMode</text>
<text text-anchor="middle" x="277.5" y="-166" font-family="Helvetica,sans-Serif" font-size="10.00">_numLoadableScriptWarnings</text>
<text text-anchor="middle" x="277.5" y="-155" font-family="Helvetica,sans-Serif" font-size="10.00">_defaultReporter</text>
<text text-anchor="middle" x="277.5" y="-144" font-family="Helvetica,sans-Serif" font-size="10.00">_SoftwareRoot</text>
<text text-anchor="middle" x="277.5" y="-133" font-family="Helvetica,sans-Serif" font-size="10.00">_annDllLimit</text>
<text text-anchor="middle" x="277.5" y="-122" font-family="Helvetica,sans-Serif" font-size="10.00">AnnYY</text>
<text text-anchor="middle" x="277.5" y="-111" font-family="Helvetica,sans-Serif" font-size="10.00">AnnMM</text>
<text text-anchor="middle" x="277.5" y="-100" font-family="Helvetica,sans-Serif" font-size="10.00">AnnDD</text>
</g>
</g>
</svg>
