<?xml version="1.0" encoding="UTF-8" standalone="no"?>
<!DOCTYPE svg PUBLIC "-//W3C//DTD SVG 1.1//EN"
 "http://www.w3.org/Graphics/SVG/1.1/DTD/svg11.dtd">
<!-- Generated by graphviz version 2.38.0 (20140413.2041)
 -->
<!-- Title: IG.Num.BoundingBoxBase Pages: 1 -->
<svg width="210pt" height="106pt"
 viewBox="0.00 0.00 210.00 106.00" xmlns="http://www.w3.org/2000/svg" xmlns:xlink="http://www.w3.org/1999/xlink">
<g id="graph0" class="graph" transform="scale(1 1) rotate(0) translate(4 102)">
<title>IG.Num.BoundingBoxBase</title>
<polygon fill="white" stroke="none" points="-4,4 -4,-102 206,-102 206,4 -4,4"/>
<!-- Node1 -->
<g id="node1" class="node"><title>Node1</title>
<g id="a_node1"><a xlink:title="Base class for bounding boxes that define minimal and maximal co&#45;ordinates of objects,...">
<polygon fill="#bfbfbf" stroke="black" points="27,-0.5 27,-19.5 160,-19.5 160,-0.5 27,-0.5"/>
<text text-anchor="middle" x="93.5" y="-7.5" font-family="Helvetica,sans-Serif" font-size="10.00">IG.Num.BoundingBoxBase</text>
</a>
</g>
</g>
<!-- Node2 -->
<g id="node2" class="node"><title>Node2</title>
<g id="a_node2"><a xlink:href="../../db/d5e/interfaceIG_1_1Num_1_1IBoundingBox.html" target="_top" xlink:title="Bounding box, defines minimum and maximum co&#45;ordinates of domains, geometric objects and their groups...">
<polygon fill="white" stroke="black" points="0,-78.5 0,-97.5 77,-97.5 77,-78.5 0,-78.5"/>
<text text-anchor="middle" x="38.5" y="-85.5" font-family="Helvetica,sans-Serif" font-size="10.00">IBoundingBox</text>
</a>
</g>
</g>
<!-- Node2&#45;&gt;Node1 -->
<g id="edge1" class="edge"><title>Node2&#45;&gt;Node1</title>
<path fill="none" stroke="midnightblue" d="M50.7986,-70.0056C62.1143,-54.3693 78.4371,-31.8142 87.2644,-19.6165"/>
<polygon fill="midnightblue" stroke="midnightblue" points="47.8365,-68.1287 44.8092,-78.2818 53.5073,-72.2326 47.8365,-68.1287"/>
</g>
<!-- Node3 -->
<g id="node3" class="node"><title>Node3</title>
<g id="a_node3"><a xlink:href="../../d3/d24/interfaceIG_1_1Num_1_1IVector.html" target="_top" xlink:title="Generic Vector interface">
<polygon fill="white" stroke="black" points="95,-78.5 95,-97.5 202,-97.5 202,-78.5 95,-78.5"/>
<text text-anchor="middle" x="148.5" y="-85.5" font-family="Helvetica,sans-Serif" font-size="10.00">IG.Num.IVector&lt; T &gt;</text>
</a>
</g>
</g>
<!-- Node3&#45;&gt;Node1 -->
<g id="edge2" class="edge"><title>Node3&#45;&gt;Node1</title>
<path fill="none" stroke="#9a32cd" stroke-dasharray="5,2" d="M136.201,-70.0056C124.886,-54.3693 108.563,-31.8142 99.7356,-19.6165"/>
<polygon fill="#9a32cd" stroke="#9a32cd" points="133.493,-72.2326 142.191,-78.2818 139.163,-68.1287 133.493,-72.2326"/>
<text text-anchor="middle" x="150" y="-52" font-family="Helvetica,sans-Serif" font-size="10.00"> _maxAux</text>
<text text-anchor="middle" x="150" y="-41" font-family="Helvetica,sans-Serif" font-size="10.00">_minAux</text>
</g>
</g>
</svg>
