<?xml version="1.0" encoding="UTF-8" standalone="no"?>
<!DOCTYPE svg PUBLIC "-//W3C//DTD SVG 1.1//EN"
 "http://www.w3.org/Graphics/SVG/1.1/DTD/svg11.dtd">
<!-- Generated by graphviz version 2.38.0 (20140413.2041)
 -->
<!-- Title: IG.Num.NeuralTrainingTableDto Pages: 1 -->
<!--zoomable 297 -->
<svg id="main" version="1.1" xmlns="http://www.w3.org/2000/svg" xmlns:xlink="http://www.w3.org/1999/xlink" xml:space="preserve" onload="init(evt)">
<style type="text/css"><![CDATA[
.edge:hover path { stroke: red; }
.edge:hover polygon { stroke: red; fill: red; }
]]></style>
<script type="text/javascript"><![CDATA[
var edges = document.getElementsByTagName('g');
if (edges && edges.length) {
  for (var i=0;i<edges.length;i++) {
    if (edges[i].id.substr(0,4)=='edge') {
      edges[i].setAttribute('class','edge');
    }
  }
}
]]></script>
        <defs>
                <circle id="rim" cx="0" cy="0" r="7"/>
                <circle id="rim2" cx="0" cy="0" r="3.5"/>
                <g id="zoomPlus">
                        <use xlink:href="#rim" fill="#404040">
                                <set attributeName="fill" to="#808080" begin="zoomplus.mouseover" end="zoomplus.mouseout"/>
                        </use>
                        <path d="M-4,0h8M0,-4v8" fill="none" stroke="white" stroke-width="1.5" pointer-events="none"/>
                </g>
                <g id="zoomMin">
                        <use xlink:href="#rim" fill="#404040">
                                <set attributeName="fill" to="#808080" begin="zoomminus.mouseover" end="zoomminus.mouseout"/>
                        </use>
                        <path d="M-4,0h8" fill="none" stroke="white" stroke-width="1.5" pointer-events="none"/>
                </g>
                <g id="dirArrow">
                        <path fill="none" stroke="white" stroke-width="1.5" d="M0,-3.0v7 M-2.5,-0.5L0,-3.0L2.5,-0.5"/>
                </g>
               <g id="resetDef">
                       <use xlink:href="#rim2" fill="#404040">
                               <set attributeName="fill" to="#808080" begin="reset.mouseover" end="reset.mouseout"/>
                       </use>
               </g>
        </defs>

<script type="text/javascript">
var viewWidth = 897;
var viewHeight = 297;
var sectionId = 'dynsection-1';
</script>
<script xlink:href="../../svgpan.js"/>
<svg id="graph" class="graph">
<g id="viewport">
<title>IG.Num.NeuralTrainingTableDto</title>
<polygon fill="white" stroke="none" points="-4,4 -4,-293 893,-293 893,4 -4,4"/>
<!-- Node1 -->
<g id="node1" class="node"><title>Node1</title>
<g id="a_node1"><a xlink:title="Transfer Object (DTO) for neural network training results.">
<polygon fill="#bfbfbf" stroke="black" points="737,-183 737,-202 889,-202 889,-183 737,-183"/>
<text text-anchor="middle" x="813" y="-190" font-family="Helvetica,sans-Serif" font-size="10.00">IG.Num.NeuralTrainingTableDto</text>
</a>
</g>
</g>
<!-- Node2 -->
<g id="node2" class="node"><title>Node2</title>
<g id="a_node2"><a xlink:href="../../da/d46/classIG_1_1Lib_1_1SerializationDto.html" target="_top" xlink:title=" ">
<polygon fill="white" stroke="black" points="462.5,-221.5 462.5,-251.5 584.5,-251.5 584.5,-221.5 462.5,-221.5"/>
<text text-anchor="start" x="470.5" y="-239.5" font-family="Helvetica,sans-Serif" font-size="10.00">SerializationDto&lt; Neural</text>
<text text-anchor="middle" x="523.5" y="-228.5" font-family="Helvetica,sans-Serif" font-size="10.00">TrainingTable &gt;</text>
</a>
</g>
</g>
<!-- Node2&#45;&gt;Node1 -->
<g id="edge1" class="edge"><title>Node2&#45;&gt;Node1</title>
<path fill="none" stroke="midnightblue" d="M594.727,-226.235C631.718,-220.776 677.832,-213.889 719,-207.5 730.151,-205.769 742.047,-203.882 753.477,-202.048"/>
<polygon fill="midnightblue" stroke="midnightblue" points="593.93,-222.815 584.547,-227.735 594.951,-229.74 593.93,-222.815"/>
</g>
<!-- Node3 -->
<g id="node3" class="node"><title>Node3</title>
<g id="a_node3"><a xlink:href="../../d6/d52/classIG_1_1Num_1_1NeuralTrainingLimitsDto.html" target="_top" xlink:title="Transfer Object (DTO) for neural network training limits.">
<polygon fill="white" stroke="black" points="446,-183 446,-202 601,-202 601,-183 446,-183"/>
<text text-anchor="middle" x="523.5" y="-190" font-family="Helvetica,sans-Serif" font-size="10.00">IG.Num.NeuralTrainingLimitsDto</text>
</a>
</g>
</g>
<!-- Node3&#45;&gt;Node1 -->
<g id="edge2" class="edge"><title>Node3&#45;&gt;Node1</title>
<path fill="none" stroke="#9a32cd" stroke-dasharray="5,2" d="M611.416,-192.5C651.306,-192.5 698.156,-192.5 736.542,-192.5"/>
<polygon fill="#9a32cd" stroke="#9a32cd" points="611.167,-189 601.167,-192.5 611.167,-196 611.167,-189"/>
<text text-anchor="middle" x="675" y="-195.5" font-family="Helvetica,sans-Serif" font-size="10.00"> TrainingLimits</text>
</g>
<!-- Node4 -->
<g id="node4" class="node"><title>Node4</title>
<g id="a_node4"><a xlink:href="../../da/d46/classIG_1_1Lib_1_1SerializationDto.html" target="_top" xlink:title=" ">
<polygon fill="white" stroke="black" points="158,-258.5 158,-288.5 280,-288.5 280,-258.5 158,-258.5"/>
<text text-anchor="start" x="166" y="-276.5" font-family="Helvetica,sans-Serif" font-size="10.00">SerializationDto&lt; Neural</text>
<text text-anchor="middle" x="219" y="-265.5" font-family="Helvetica,sans-Serif" font-size="10.00">TrainingLimits &gt;</text>
</a>
</g>
</g>
<!-- Node4&#45;&gt;Node3 -->
<g id="edge3" class="edge"><title>Node4&#45;&gt;Node3</title>
<path fill="none" stroke="midnightblue" d="M290.263,-285.9C330.759,-289.094 380.51,-285.823 416,-259.5 433.966,-246.174 417.09,-227.142 434,-212.5 438.882,-208.272 444.471,-204.886 450.414,-202.18"/>
<polygon fill="midnightblue" stroke="midnightblue" points="290.463,-282.404 280.181,-284.959 289.813,-289.373 290.463,-282.404"/>
</g>
<!-- Node5 -->
<g id="node5" class="node"><title>Node5</title>
<g id="a_node5"><a xlink:href="../../dc/dec/classIG_1_1Lib_1_1VectorDtoBase.html" target="_top" xlink:title="Base class for various vector DTO (Data Transfer Objects) for vectors. Used to store a state of a vec...">
<polygon fill="white" stroke="black" points="163.5,-113.5 163.5,-143.5 274.5,-143.5 274.5,-113.5 163.5,-113.5"/>
<text text-anchor="start" x="171.5" y="-131.5" font-family="Helvetica,sans-Serif" font-size="10.00">IG.Lib.VectorDtoBase</text>
<text text-anchor="middle" x="219" y="-120.5" font-family="Helvetica,sans-Serif" font-size="10.00">&lt; VectorType &gt;</text>
</a>
</g>
</g>
<!-- Node5&#45;&gt;Node3 -->
<g id="edge4" class="edge"><title>Node5&#45;&gt;Node3</title>
<path fill="none" stroke="#9a32cd" stroke-dasharray="5,2" d="M250.797,-148.746C264.666,-156.879 281.587,-165.498 298,-170.5 345.857,-185.085 401.856,-190.592 445.954,-192.449"/>
<polygon fill="#9a32cd" stroke="#9a32cd" points="252.526,-145.702 242.159,-143.514 248.899,-151.689 252.526,-145.702"/>
<text text-anchor="middle" x="357" y="-247.5" font-family="Helvetica,sans-Serif" font-size="10.00"> ToleranceRms</text>
<text text-anchor="start" x="303.5" y="-236.5" font-family="Helvetica,sans-Serif" font-size="10.00">ToleranceRmsRelativeTo</text>
<text text-anchor="middle" x="357" y="-225.5" font-family="Helvetica,sans-Serif" font-size="10.00">Range</text>
<text text-anchor="start" x="303.5" y="-214.5" font-family="Helvetica,sans-Serif" font-size="10.00">ToleranceMaxRelativeTo</text>
<text text-anchor="middle" x="357" y="-203.5" font-family="Helvetica,sans-Serif" font-size="10.00">Range</text>
<text text-anchor="middle" x="357" y="-192.5" font-family="Helvetica,sans-Serif" font-size="10.00">ToleranceMax</text>
</g>
<!-- Node7 -->
<g id="node7" class="node"><title>Node7</title>
<g id="a_node7"><a xlink:href="../../df/d34/classIG_1_1Num_1_1NeuralTrainingParametersDto.html" target="_top" xlink:title="Transfer Object (DTO) for neural network training set.">
<polygon fill="white" stroke="black" points="434,-39 434,-58 613,-58 613,-39 434,-39"/>
<text text-anchor="middle" x="523.5" y="-46" font-family="Helvetica,sans-Serif" font-size="10.00">IG.Num.NeuralTrainingParametersDto</text>
</a>
</g>
</g>
<!-- Node5&#45;&gt;Node7 -->
<g id="edge8" class="edge"><title>Node5&#45;&gt;Node7</title>
<path fill="none" stroke="#9a32cd" stroke-dasharray="5,2" d="M234.334,-104.689C247.904,-84.6779 270.3,-57.4809 298,-45.5 359.177,-19.0397 438.793,-29.2672 484.919,-38.9761"/>
<polygon fill="#9a32cd" stroke="#9a32cd" points="231.253,-103.006 228.733,-113.297 237.12,-106.824 231.253,-103.006"/>
<text text-anchor="middle" x="357" y="-158.5" font-family="Helvetica,sans-Serif" font-size="10.00"> ErrorsVerificationRms</text>
<text text-anchor="middle" x="357" y="-147.5" font-family="Helvetica,sans-Serif" font-size="10.00">ErrorsTrainingMax</text>
<text text-anchor="middle" x="357" y="-136.5" font-family="Helvetica,sans-Serif" font-size="10.00">InputRange</text>
<text text-anchor="middle" x="357" y="-125.5" font-family="Helvetica,sans-Serif" font-size="10.00">ErrorsTrainingMeanAbs</text>
<text text-anchor="middle" x="357" y="-114.5" font-family="Helvetica,sans-Serif" font-size="10.00">ErrorsTrainingMaxTable</text>
<text text-anchor="middle" x="357" y="-103.5" font-family="Helvetica,sans-Serif" font-size="10.00">ErrorsTrainingRmsTable</text>
<text text-anchor="middle" x="357" y="-92.5" font-family="Helvetica,sans-Serif" font-size="10.00">ToleranceRms</text>
<text text-anchor="middle" x="357" y="-81.5" font-family="Helvetica,sans-Serif" font-size="10.00">ErrorsVerificationMeanAbs</text>
<text text-anchor="middle" x="357" y="-70.5" font-family="Helvetica,sans-Serif" font-size="10.00">ErrorsVerificationRmsTable</text>
<text text-anchor="middle" x="357" y="-59.5" font-family="Helvetica,sans-Serif" font-size="10.00">ErrorsTrainingRms</text>
<text text-anchor="middle" x="357" y="-48.5" font-family="Helvetica,sans-Serif" font-size="10.00">...</text>
</g>
<!-- Node6 -->
<g id="node6" class="node"><title>Node6</title>
<g id="a_node6"><a xlink:href="../../d7/dd8/classIG_1_1Lib_1_1SerializationDtoBase.html" target="_top" xlink:title=" ">
<polygon fill="white" stroke="black" points="0,-113.5 0,-143.5 121,-143.5 121,-113.5 0,-113.5"/>
<text text-anchor="start" x="8" y="-131.5" font-family="Helvetica,sans-Serif" font-size="10.00">SerializationDtoBase</text>
<text text-anchor="middle" x="60.5" y="-120.5" font-family="Helvetica,sans-Serif" font-size="10.00">&lt; VectorType, IVector &gt;</text>
</a>
</g>
</g>
<!-- Node6&#45;&gt;Node5 -->
<g id="edge5" class="edge"><title>Node6&#45;&gt;Node5</title>
<path fill="none" stroke="midnightblue" d="M131.337,-128.5C142.097,-128.5 153.073,-128.5 163.436,-128.5"/>
<polygon fill="midnightblue" stroke="midnightblue" points="131.112,-125 121.112,-128.5 131.112,-132 131.112,-125"/>
</g>
<!-- Node7&#45;&gt;Node1 -->
<g id="edge6" class="edge"><title>Node7&#45;&gt;Node1</title>
<path fill="none" stroke="#9a32cd" stroke-dasharray="5,2" d="M552.836,-62.6926C611.149,-91.9 743.255,-158.068 792.774,-182.87"/>
<polygon fill="#9a32cd" stroke="#9a32cd" points="554.319,-59.5208 543.81,-58.1718 551.184,-65.7797 554.319,-59.5208"/>
<text text-anchor="middle" x="675" y="-145.5" font-family="Helvetica,sans-Serif" font-size="10.00"> TrainingParameters</text>
</g>
<!-- Node8 -->
<g id="node8" class="node"><title>Node8</title>
<g id="a_node8"><a xlink:href="../../da/d46/classIG_1_1Lib_1_1SerializationDto.html" target="_top" xlink:title=" ">
<polygon fill="white" stroke="black" points="158,-0.5 158,-30.5 280,-30.5 280,-0.5 158,-0.5"/>
<text text-anchor="start" x="166" y="-18.5" font-family="Helvetica,sans-Serif" font-size="10.00">SerializationDto&lt; Neural</text>
<text text-anchor="middle" x="219" y="-7.5" font-family="Helvetica,sans-Serif" font-size="10.00">TrainingParameters &gt;</text>
</a>
</g>
</g>
<!-- Node8&#45;&gt;Node7 -->
<g id="edge7" class="edge"><title>Node8&#45;&gt;Node7</title>
<path fill="none" stroke="midnightblue" d="M290.494,-18.7374C327.881,-20.9075 374.536,-24.335 416,-29.5 435.476,-31.9261 456.798,-35.5374 475.213,-38.9622"/>
<polygon fill="midnightblue" stroke="midnightblue" points="290.388,-15.2259 280.207,-18.1582 289.995,-22.2149 290.388,-15.2259"/>
</g>
</g>
</svg>
        <g id="navigator" transform="translate(0 0)" fill="#404254">
                <rect fill="#f2f5e9" fill-opacity="0.5" stroke="#606060" stroke-width=".5" x="0" y="0" width="60" height="60"/>
                <use id="zoomplus" xlink:href="#zoomPlus" x="17" y="9" onmousedown="handleZoom(evt,'in')"/>
                <use id="zoomminus" xlink:href="#zoomMin" x="42" y="9" onmousedown="handleZoom(evt,'out')"/>
                <use id="reset" xlink:href="#resetDef" x="30" y="36" onmousedown="handleReset()"/>
                <g id="arrowUp" xlink:href="#dirArrow" transform="translate(30 24)" onmousedown="handlePan(0,-1)">
                  <use xlink:href="#rim" fill="#404040">
                        <set attributeName="fill" to="#808080" begin="arrowUp.mouseover" end="arrowUp.mouseout"/>
                  </use>
                  <path fill="none" stroke="white" stroke-width="1.5" d="M0,-3.0v7 M-2.5,-0.5L0,-3.0L2.5,-0.5"/>
                </g>
                <g id="arrowRight" xlink:href="#dirArrow" transform="rotate(90) translate(36 -43)" onmousedown="handlePan(1,0)">
                  <use xlink:href="#rim" fill="#404040">
                        <set attributeName="fill" to="#808080" begin="arrowRight.mouseover" end="arrowRight.mouseout"/>
                  </use>
                  <path fill="none" stroke="white" stroke-width="1.5" d="M0,-3.0v7 M-2.5,-0.5L0,-3.0L2.5,-0.5"/>
                </g>
                <g id="arrowDown" xlink:href="#dirArrow" transform="rotate(180) translate(-30 -48)" onmousedown="handlePan(0,1)">
                  <use xlink:href="#rim" fill="#404040">
                        <set attributeName="fill" to="#808080" begin="arrowDown.mouseover" end="arrowDown.mouseout"/>
                  </use>
                  <path fill="none" stroke="white" stroke-width="1.5" d="M0,-3.0v7 M-2.5,-0.5L0,-3.0L2.5,-0.5"/>
                </g>
                <g id="arrowLeft" xlink:href="#dirArrow" transform="rotate(270) translate(-36 17)" onmousedown="handlePan(-1,0)">
                  <use xlink:href="#rim" fill="#404040">
                        <set attributeName="fill" to="#808080" begin="arrowLeft.mouseover" end="arrowLeft.mouseout"/>
                  </use>
                  <path fill="none" stroke="white" stroke-width="1.5" d="M0,-3.0v7 M-2.5,-0.5L0,-3.0L2.5,-0.5"/>
                </g>
        </g>
        <svg viewBox="0 0 15 15" width="100%" height="30px" preserveAspectRatio="xMaxYMin meet">
         <g id="arrow_out" transform="scale(0.3 0.3)">
          <a xlink:href="classIG_1_1Num_1_1NeuralTrainingTableDto__coll__graph_org.svg" target="_base">
           <rect id="button" ry="5" rx="5" y="6" x="6" height="38" width="38"
                fill="#f2f5e9" fill-opacity="0.5" stroke="#606060" stroke-width="1.0"/>
           <path id="arrow"
             d="M 11.500037,31.436501 C 11.940474,20.09759 22.043105,11.32322 32.158766,21.979434 L 37.068811,17.246167 C 37.068811,17.246167 37.088388,32 37.088388,32 L 22.160133,31.978069 C 22.160133,31.978069 26.997745,27.140456 26.997745,27.140456 C 18.528582,18.264221 13.291696,25.230495 11.500037,31.436501 z"
             style="fill:#404040;"/>
          </a>
         </g>
        </svg>
</svg>
