<?xml version="1.0" encoding="UTF-8" standalone="no"?>
<!DOCTYPE svg PUBLIC "-//W3C//DTD SVG 1.1//EN"
 "http://www.w3.org/Graphics/SVG/1.1/DTD/svg11.dtd">
<!-- Generated by graphviz version 2.38.0 (20140413.2041)
 -->
<!-- Title: IG.Num.Func3d2dExamples.KleinBottle Pages: 1 -->
<svg width="352pt" height="413pt"
 viewBox="0.00 0.00 351.50 413.00" xmlns="http://www.w3.org/2000/svg" xmlns:xlink="http://www.w3.org/1999/xlink">
<g id="graph0" class="graph" transform="scale(1 1) rotate(0) translate(4 409)">
<title>IG.Num.Func3d2dExamples.KleinBottle</title>
<polygon fill="white" stroke="none" points="-4,4 -4,-409 347.5,-409 347.5,4 -4,4"/>
<!-- Node1 -->
<g id="node1" class="node"><title>Node1</title>
<g id="a_node1"><a xlink:title="Defines the Klein&#39;s bottle (a parametric surface), a closed surface with no interior and exterior.">
<polygon fill="#bfbfbf" stroke="black" points="0,-0.5 0,-30.5 142,-30.5 142,-0.5 0,-0.5"/>
<text text-anchor="start" x="8" y="-18.5" font-family="Helvetica,sans-Serif" font-size="10.00">IG.Num.Func3d2dExamples.</text>
<text text-anchor="middle" x="71" y="-7.5" font-family="Helvetica,sans-Serif" font-size="10.00">KleinBottle</text>
</a>
</g>
</g>
<!-- Node2 -->
<g id="node2" class="node"><title>Node2</title>
<g id="a_node2"><a xlink:href="../../d0/d54/classIG_1_1Num_1_1Func3d2dExamples_1_1ParametricSurface.html" target="_top" xlink:title="Base class for easy definition of parametric surfaces intended for plotting.">
<polygon fill="white" stroke="black" points="74.5,-68.5 74.5,-87.5 171.5,-87.5 171.5,-68.5 74.5,-68.5"/>
<text text-anchor="middle" x="123" y="-75.5" font-family="Helvetica,sans-Serif" font-size="10.00">ParametricSurface</text>
</a>
</g>
</g>
<!-- Node2&#45;&gt;Node1 -->
<g id="edge1" class="edge"><title>Node2&#45;&gt;Node1</title>
<path fill="none" stroke="midnightblue" d="M108.851,-60.5387C100.844,-51.2225 90.9289,-39.6865 83.2554,-30.7587"/>
<polygon fill="midnightblue" stroke="midnightblue" points="106.377,-63.0295 115.55,-68.3318 111.686,-58.4667 106.377,-63.0295"/>
</g>
<!-- Node3 -->
<g id="node3" class="node"><title>Node3</title>
<g id="a_node3"><a xlink:href="../../d3/dc0/classIG_1_1Num_1_1Func3d2dBaseNoGradient.html" target="_top" xlink:title="Base class for 3D vector functions of 2 variables (implementations of the IFunc3d2d interface) that d...">
<polygon fill="white" stroke="black" points="112.5,-125.5 112.5,-144.5 243.5,-144.5 243.5,-125.5 112.5,-125.5"/>
<text text-anchor="middle" x="178" y="-132.5" font-family="Helvetica,sans-Serif" font-size="10.00">Func3d2dBaseNoGradient</text>
</a>
</g>
</g>
<!-- Node3&#45;&gt;Node2 -->
<g id="edge2" class="edge"><title>Node3&#45;&gt;Node2</title>
<path fill="none" stroke="midnightblue" d="M162.123,-118.123C152.224,-108.224 139.862,-95.8624 131.715,-87.7149"/>
<polygon fill="midnightblue" stroke="midnightblue" points="159.86,-120.81 169.406,-125.406 164.81,-115.86 159.86,-120.81"/>
</g>
<!-- Node4 -->
<g id="node4" class="node"><title>Node4</title>
<g id="a_node4"><a xlink:href="../../df/d0e/classIG_1_1Num_1_1Func3d2dBase.html" target="_top" xlink:title="Base class for 3D vector functions of 2 variables (base for implementation of IFunc3d2d interface).">
<polygon fill="white" stroke="black" points="150,-182.5 150,-201.5 232,-201.5 232,-182.5 150,-182.5"/>
<text text-anchor="middle" x="191" y="-189.5" font-family="Helvetica,sans-Serif" font-size="10.00">Func3d2dBase</text>
</a>
</g>
</g>
<!-- Node4&#45;&gt;Node3 -->
<g id="edge3" class="edge"><title>Node4&#45;&gt;Node3</title>
<path fill="none" stroke="midnightblue" d="M186.609,-172.423C184.395,-163.054 181.814,-152.136 180.06,-144.715"/>
<polygon fill="midnightblue" stroke="midnightblue" points="183.262,-173.48 188.969,-182.406 190.075,-171.869 183.262,-173.48"/>
</g>
<!-- Node5 -->
<g id="node5" class="node"><title>Node5</title>
<g id="a_node5"><a xlink:href="../../d3/d6f/interfaceIG_1_1Num_1_1IFunc3d2d.html" target="_top" xlink:title="Represents 3D vector functions of 2 variables.">
<polygon fill="white" stroke="black" points="55,-271.5 55,-290.5 117,-290.5 117,-271.5 55,-271.5"/>
<text text-anchor="middle" x="86" y="-278.5" font-family="Helvetica,sans-Serif" font-size="10.00">IFunc3d2d</text>
</a>
</g>
</g>
<!-- Node5&#45;&gt;Node1 -->
<g id="edge12" class="edge"><title>Node5&#45;&gt;Node1</title>
<path fill="none" stroke="midnightblue" d="M73.0408,-263.259C61.3576,-246.464 46,-219.37 46,-193 46,-193 46,-193 46,-77 46,-60.1799 54.3557,-42.5873 61.4058,-30.737"/>
<polygon fill="midnightblue" stroke="midnightblue" points="70.3073,-265.451 79.0325,-271.461 75.9596,-261.322 70.3073,-265.451"/>
</g>
<!-- Node5&#45;&gt;Node2 -->
<g id="edge11" class="edge"><title>Node5&#45;&gt;Node2</title>
<path fill="none" stroke="midnightblue" d="M86.2474,-261.358C87.0363,-231.912 90.2359,-173.043 103,-125 106.622,-111.366 113.669,-96.5664 118.356,-87.5366"/>
<polygon fill="midnightblue" stroke="midnightblue" points="82.7466,-261.367 86.0439,-271.435 89.7452,-261.508 82.7466,-261.367"/>
</g>
<!-- Node5&#45;&gt;Node3 -->
<g id="edge10" class="edge"><title>Node5&#45;&gt;Node3</title>
<path fill="none" stroke="midnightblue" d="M94.8785,-262.148C105.11,-242.094 122.857,-208.841 141,-182 150.183,-168.414 162.341,-153.842 170.167,-144.823"/>
<polygon fill="midnightblue" stroke="midnightblue" points="91.6271,-260.823 90.2511,-271.328 97.8778,-263.974 91.6271,-260.823"/>
</g>
<!-- Node5&#45;&gt;Node4 -->
<g id="edge4" class="edge"><title>Node5&#45;&gt;Node4</title>
<path fill="none" stroke="midnightblue" d="M114.433,-266.765C121.765,-262.793 129.434,-258.117 136,-253 156.063,-237.365 175.103,-214.054 184.641,-201.59"/>
<polygon fill="midnightblue" stroke="midnightblue" points="112.723,-263.708 105.435,-271.397 115.928,-269.932 112.723,-263.708"/>
</g>
<!-- Node6 -->
<g id="node6" class="node"><title>Node6</title>
<g id="a_node6"><a xlink:href="../../da/d29/classIG_1_1Num_1_1Func2dBase.html" target="_top" xlink:title="Base class for scalar functions of 2 variables (base for implementation of IFunc2d interface).">
<polygon fill="white" stroke="black" points="137.5,-271.5 137.5,-290.5 244.5,-290.5 244.5,-271.5 137.5,-271.5"/>
<text text-anchor="middle" x="191" y="-278.5" font-family="Helvetica,sans-Serif" font-size="10.00">IG.Num.Func2dBase</text>
</a>
</g>
</g>
<!-- Node6&#45;&gt;Node4 -->
<g id="edge5" class="edge"><title>Node6&#45;&gt;Node4</title>
<path fill="none" stroke="#9a32cd" stroke-dasharray="5,2" d="M191,-261.195C191,-242.738 191,-215.412 191,-201.625"/>
<polygon fill="#9a32cd" stroke="#9a32cd" points="187.5,-261.34 191,-271.34 194.5,-261.34 187.5,-261.34"/>
<text text-anchor="middle" x="210" y="-245" font-family="Helvetica,sans-Serif" font-size="10.00"> _comp1</text>
<text text-anchor="middle" x="210" y="-234" font-family="Helvetica,sans-Serif" font-size="10.00">_comp2</text>
<text text-anchor="middle" x="210" y="-223" font-family="Helvetica,sans-Serif" font-size="10.00">_comp3</text>
</g>
<!-- Node7 -->
<g id="node7" class="node"><title>Node7</title>
<g id="a_node7"><a xlink:href="../../d2/d9e/classIG_1_1Num_1_1ScalarFunctionUntransformedBase.html" target="_top" xlink:title="Base class for defining scalar functions without possibility of affine transformation of parameters.">
<polygon fill="white" stroke="black" points="107.5,-328.5 107.5,-347.5 274.5,-347.5 274.5,-328.5 107.5,-328.5"/>
<text text-anchor="middle" x="191" y="-335.5" font-family="Helvetica,sans-Serif" font-size="10.00">ScalarFunctionUntransformedBase</text>
</a>
</g>
</g>
<!-- Node7&#45;&gt;Node6 -->
<g id="edge6" class="edge"><title>Node7&#45;&gt;Node6</title>
<path fill="none" stroke="midnightblue" d="M191,-318.117C191,-308.817 191,-298.056 191,-290.715"/>
<polygon fill="midnightblue" stroke="midnightblue" points="187.5,-318.406 191,-328.406 194.5,-318.406 187.5,-318.406"/>
</g>
<!-- Node8 -->
<g id="node8" class="node"><title>Node8</title>
<g id="a_node8"><a xlink:href="../../d8/d56/interfaceIG_1_1Num_1_1IScalarFunctionUntransformed.html" target="_top" xlink:title="Scalar functions of vector arguments.">
<polygon fill="white" stroke="black" points="39.5,-385.5 39.5,-404.5 186.5,-404.5 186.5,-385.5 39.5,-385.5"/>
<text text-anchor="middle" x="113" y="-392.5" font-family="Helvetica,sans-Serif" font-size="10.00">IScalarFunctionUntransformed</text>
</a>
</g>
</g>
<!-- Node8&#45;&gt;Node6 -->
<g id="edge9" class="edge"><title>Node8&#45;&gt;Node6</title>
<path fill="none" stroke="midnightblue" d="M102.123,-376.118C95.1392,-362.112 88.9212,-342.619 98,-328 109.974,-308.719 132.69,-297.274 152.673,-290.623"/>
<polygon fill="midnightblue" stroke="midnightblue" points="99.239,-378.135 107.136,-385.198 105.367,-374.752 99.239,-378.135"/>
</g>
<!-- Node8&#45;&gt;Node7 -->
<g id="edge7" class="edge"><title>Node8&#45;&gt;Node7</title>
<path fill="none" stroke="midnightblue" d="M133.511,-379.537C147.953,-369.354 166.795,-356.068 178.898,-347.533"/>
<polygon fill="midnightblue" stroke="midnightblue" points="131.343,-376.783 125.188,-385.406 135.377,-382.504 131.343,-376.783"/>
</g>
<!-- Node9 -->
<g id="node9" class="node"><title>Node9</title>
<g id="a_node9"><a xlink:href="../../d8/d15/interfaceIG_1_1Num_1_1IFunc2d.html" target="_top" xlink:title="Represents scalar functions of 2 variables.">
<polygon fill="white" stroke="black" points="292.5,-328.5 292.5,-347.5 343.5,-347.5 343.5,-328.5 292.5,-328.5"/>
<text text-anchor="middle" x="318" y="-335.5" font-family="Helvetica,sans-Serif" font-size="10.00">IFunc2d</text>
</a>
</g>
</g>
<!-- Node9&#45;&gt;Node6 -->
<g id="edge8" class="edge"><title>Node9&#45;&gt;Node6</title>
<path fill="none" stroke="midnightblue" d="M288.844,-324.374C264.894,-314.001 231.62,-299.591 210.704,-290.533"/>
<polygon fill="midnightblue" stroke="midnightblue" points="287.589,-327.644 298.156,-328.406 290.371,-321.22 287.589,-327.644"/>
</g>
</g>
</svg>
