<?xml version="1.0" encoding="UTF-8" standalone="no"?>
<!DOCTYPE svg PUBLIC "-//W3C//DTD SVG 1.1//EN"
 "http://www.w3.org/Graphics/SVG/1.1/DTD/svg11.dtd">
<!-- Generated by graphviz version 2.38.0 (20140413.2041)
 -->
<!-- Title: IG.Lib.WaitDirectoryCreationLatence Pages: 1 -->
<svg width="293pt" height="319pt"
 viewBox="0.00 0.00 292.65 319.00" xmlns="http://www.w3.org/2000/svg" xmlns:xlink="http://www.w3.org/1999/xlink">
<g id="graph0" class="graph" transform="scale(1 1) rotate(0) translate(4 315)">
<title>IG.Lib.WaitDirectoryCreationLatence</title>
<polygon fill="white" stroke="none" points="-4,4 -4,-315 288.646,-315 288.646,4 -4,4"/>
<!-- Node1 -->
<g id="node1" class="node"><title>Node1</title>
<g id="a_node1"><a xlink:title="Implements blocking until the specified directory is created (becomes existent). Directory is specifi...">
<polygon fill="#bfbfbf" stroke="black" points="107.146,-0.5 107.146,-30.5 247.146,-30.5 247.146,-0.5 107.146,-0.5"/>
<text text-anchor="start" x="115.146" y="-18.5" font-family="Helvetica,sans-Serif" font-size="10.00">IG.Lib.WaitDirectoryCreation</text>
<text text-anchor="middle" x="177.146" y="-7.5" font-family="Helvetica,sans-Serif" font-size="10.00">Latence</text>
</a>
</g>
</g>
<!-- Node2 -->
<g id="node2" class="node"><title>Node2</title>
<g id="a_node2"><a xlink:href="../../d4/d27/classIG_1_1Lib_1_1WaitFileEventLatenceBase.html" target="_top" xlink:title="Base class for classes that impelement methods that block until a file or directory is created or del...">
<polygon fill="white" stroke="black" points="110.146,-67.5 110.146,-86.5 244.146,-86.5 244.146,-67.5 110.146,-67.5"/>
<text text-anchor="middle" x="177.146" y="-74.5" font-family="Helvetica,sans-Serif" font-size="10.00">WaitFileEventLatenceBase</text>
</a>
</g>
</g>
<!-- Node2&#45;&gt;Node1 -->
<g id="edge1" class="edge"><title>Node2&#45;&gt;Node1</title>
<path fill="none" stroke="midnightblue" d="M177.146,-57.2349C177.146,-48.5864 177.146,-38.4969 177.146,-30.523"/>
<polygon fill="midnightblue" stroke="midnightblue" points="173.646,-57.4751 177.146,-67.4751 180.646,-57.4751 173.646,-57.4751"/>
</g>
<!-- Node3 -->
<g id="node3" class="node"><title>Node3</title>
<g id="a_node3"><a xlink:href="../../da/d67/classIG_1_1Lib_1_1WaitCondition.html" target="_top" xlink:title="Provides a framework for blocking execution until the specified condition becomes satisfied....">
<polygon fill="white" stroke="black" points="47.646,-123.5 47.646,-142.5 124.646,-142.5 124.646,-123.5 47.646,-123.5"/>
<text text-anchor="middle" x="86.146" y="-130.5" font-family="Helvetica,sans-Serif" font-size="10.00">WaitCondition</text>
</a>
</g>
</g>
<!-- Node3&#45;&gt;Node2 -->
<g id="edge2" class="edge"><title>Node3&#45;&gt;Node2</title>
<path fill="none" stroke="midnightblue" d="M109.44,-118.177C126.185,-108.241 148.246,-95.1492 162.562,-86.6545"/>
<polygon fill="midnightblue" stroke="midnightblue" points="107.58,-115.211 100.767,-123.324 111.153,-121.231 107.58,-115.211"/>
</g>
<!-- Node4 -->
<g id="node4" class="node"><title>Node4</title>
<g id="a_node4"><a xlink:href="../../df/dea/classIG_1_1Lib_1_1WaitConditionBase.html" target="_top" xlink:title="Base class for objects that perform waiting until a condition is fulfilled.">
<polygon fill="white" stroke="black" points="11.146,-179.5 11.146,-198.5 111.146,-198.5 111.146,-179.5 11.146,-179.5"/>
<text text-anchor="middle" x="61.146" y="-186.5" font-family="Helvetica,sans-Serif" font-size="10.00">WaitConditionBase</text>
</a>
</g>
</g>
<!-- Node4&#45;&gt;Node3 -->
<g id="edge3" class="edge"><title>Node4&#45;&gt;Node3</title>
<path fill="none" stroke="midnightblue" d="M69.4873,-169.983C73.7308,-160.817 78.6959,-150.092 82.0945,-142.751"/>
<polygon fill="midnightblue" stroke="midnightblue" points="66.2994,-168.538 65.2742,-179.083 72.6516,-171.479 66.2994,-168.538"/>
</g>
<!-- Node5 -->
<g id="node5" class="node"><title>Node5</title>
<g id="a_node5"><a xlink:href="../../de/d1e/interfaceIG_1_1Lib_1_1IWaitCondition.html" target="_top" xlink:title="Interface for classes that implement blocking until a specified condition is met.">
<polygon fill="white" stroke="black" points="99.146,-235.5 99.146,-254.5 179.146,-254.5 179.146,-235.5 99.146,-235.5"/>
<text text-anchor="middle" x="139.146" y="-242.5" font-family="Helvetica,sans-Serif" font-size="10.00">IWaitCondition</text>
</a>
</g>
</g>
<!-- Node5&#45;&gt;Node2 -->
<g id="edge12" class="edge"><title>Node5&#45;&gt;Node2</title>
<path fill="none" stroke="midnightblue" d="M143.511,-224.93C151.755,-188.92 169.31,-112.231 175.185,-86.5681"/>
<polygon fill="midnightblue" stroke="midnightblue" points="140.009,-224.546 141.189,-235.075 146.832,-226.108 140.009,-224.546"/>
</g>
<!-- Node5&#45;&gt;Node3 -->
<g id="edge7" class="edge"><title>Node5&#45;&gt;Node3</title>
<path fill="none" stroke="midnightblue" d="M135.571,-225.294C132.571,-211.929 127.57,-193.772 120.146,-179 113.199,-165.177 101.876,-151.275 94.2245,-142.657"/>
<polygon fill="midnightblue" stroke="midnightblue" points="132.171,-226.134 137.629,-235.215 139.025,-224.712 132.171,-226.134"/>
</g>
<!-- Node5&#45;&gt;Node4 -->
<g id="edge4" class="edge"><title>Node5&#45;&gt;Node4</title>
<path fill="none" stroke="midnightblue" d="M118.378,-229.622C104.129,-219.757 85.6898,-206.992 73.6469,-198.655"/>
<polygon fill="midnightblue" stroke="midnightblue" points="116.4,-232.51 126.614,-235.324 120.384,-226.754 116.4,-232.51"/>
</g>
<!-- Node7 -->
<g id="node7" class="node"><title>Node7</title>
<g id="a_node7"><a xlink:href="../../d2/d48/interfaceIG_1_1Lib_1_1IWaitFileEvent.html" target="_top" xlink:title="Interface for classes that provide waiting for specific file events (such as ceration or deletion of ...">
<polygon fill="white" stroke="black" points="205.646,-179.5 205.646,-198.5 284.646,-198.5 284.646,-179.5 205.646,-179.5"/>
<text text-anchor="middle" x="245.146" y="-186.5" font-family="Helvetica,sans-Serif" font-size="10.00">IWaitFileEvent</text>
</a>
</g>
</g>
<!-- Node5&#45;&gt;Node7 -->
<g id="edge10" class="edge"><title>Node5&#45;&gt;Node7</title>
<path fill="none" stroke="midnightblue" d="M165.202,-230.726C184.83,-220.727 211.174,-207.307 228.157,-198.655"/>
<polygon fill="midnightblue" stroke="midnightblue" points="163.498,-227.666 156.177,-235.324 166.676,-233.903 163.498,-227.666"/>
</g>
<!-- Node6 -->
<g id="node6" class="node"><title>Node6</title>
<g id="a_node6"><a xlink:href="../../d3/db6/interfaceIG_1_1Lib_1_1ILockable.html" target="_top" xlink:title="Lockable object, has a Lock property that returns object on which lock must be performed in order to ...">
<polygon fill="white" stroke="black" points="73.146,-291.5 73.146,-310.5 131.146,-310.5 131.146,-291.5 73.146,-291.5"/>
<text text-anchor="middle" x="102.146" y="-298.5" font-family="Helvetica,sans-Serif" font-size="10.00">ILockable</text>
</a>
</g>
</g>
<!-- Node6&#45;&gt;Node3 -->
<g id="edge8" class="edge"><title>Node6&#45;&gt;Node3</title>
<path fill="none" stroke="midnightblue" d="M80.1653,-285.819C55.7982,-268.644 17.8618,-237.21 2.14596,-199 -9.252,-171.288 27.666,-152.567 56.1539,-142.589"/>
<polygon fill="midnightblue" stroke="midnightblue" points="78.2311,-288.737 88.4624,-291.488 82.1801,-282.957 78.2311,-288.737"/>
</g>
<!-- Node6&#45;&gt;Node4 -->
<g id="edge6" class="edge"><title>Node6&#45;&gt;Node4</title>
<path fill="none" stroke="midnightblue" d="M95.4362,-281.998C86.4902,-257.997 71.0114,-216.468 64.3482,-198.591"/>
<polygon fill="midnightblue" stroke="midnightblue" points="92.1565,-283.221 98.9288,-291.368 98.7157,-280.776 92.1565,-283.221"/>
</g>
<!-- Node6&#45;&gt;Node5 -->
<g id="edge5" class="edge"><title>Node6&#45;&gt;Node5</title>
<path fill="none" stroke="midnightblue" d="M114.092,-282.566C120.458,-273.275 128.013,-262.248 133.15,-254.751"/>
<polygon fill="midnightblue" stroke="midnightblue" points="111.021,-280.855 108.256,-291.083 116.795,-284.812 111.021,-280.855"/>
</g>
<!-- Node6&#45;&gt;Node7 -->
<g id="edge11" class="edge"><title>Node6&#45;&gt;Node7</title>
<path fill="none" stroke="midnightblue" d="M133.151,-287.17C150.287,-279.272 171.427,-268.15 188.146,-255 209.617,-238.112 229.368,-212.384 238.993,-198.92"/>
<polygon fill="midnightblue" stroke="midnightblue" points="131.293,-284.166 123.587,-291.438 134.145,-290.559 131.293,-284.166"/>
</g>
<!-- Node7&#45;&gt;Node2 -->
<g id="edge9" class="edge"><title>Node7&#45;&gt;Node2</title>
<path fill="none" stroke="midnightblue" d="M234.414,-170.64C219.642,-146.744 193.607,-104.629 182.457,-86.5914"/>
<polygon fill="midnightblue" stroke="midnightblue" points="231.575,-172.703 239.81,-179.368 237.529,-169.022 231.575,-172.703"/>
</g>
</g>
</svg>
