<?xml version="1.0" encoding="UTF-8" standalone="no"?>
<!DOCTYPE svg PUBLIC "-//W3C//DTD SVG 1.1//EN"
 "http://www.w3.org/Graphics/SVG/1.1/DTD/svg11.dtd">
<!-- Generated by graphviz version 2.38.0 (20140413.2041)
 -->
<!-- Title: IG.Num.Func3dBase Pages: 1 -->
<svg width="630pt" height="252pt"
 viewBox="0.00 0.00 629.50 252.00" xmlns="http://www.w3.org/2000/svg" xmlns:xlink="http://www.w3.org/1999/xlink">
<g id="graph0" class="graph" transform="scale(1 1) rotate(0) translate(4 248)">
<title>IG.Num.Func3dBase</title>
<polygon fill="white" stroke="none" points="-4,4 -4,-248 625.5,-248 625.5,4 -4,4"/>
<!-- Node1 -->
<g id="node1" class="node"><title>Node1</title>
<g id="a_node1"><a xlink:title="Base class for scalar functions of 3 variables (base for implementation of IFunc3d interface).">
<polygon fill="#bfbfbf" stroke="black" points="198.5,-112.5 198.5,-131.5 305.5,-131.5 305.5,-112.5 198.5,-112.5"/>
<text text-anchor="middle" x="252" y="-119.5" font-family="Helvetica,sans-Serif" font-size="10.00">IG.Num.Func3dBase</text>
</a>
</g>
</g>
<!-- Node5 -->
<g id="node5" class="node"><title>Node5</title>
<g id="a_node5"><a xlink:href="../../de/d93/classIG_1_1Num_1_1Func3dBaseNoGradient.html" target="_top" xlink:title="Base class for scalar functions of 3 variables (implementations of the IFunc3d interface)....">
<polygon fill="white" stroke="black" points="0,-56.5 0,-75.5 156,-75.5 156,-56.5 0,-56.5"/>
<text text-anchor="middle" x="78" y="-63.5" font-family="Helvetica,sans-Serif" font-size="10.00">IG.Num.Func3dBaseNoGradient</text>
</a>
</g>
</g>
<!-- Node1&#45;&gt;Node5 -->
<g id="edge5" class="edge"><title>Node1&#45;&gt;Node5</title>
<path fill="none" stroke="midnightblue" d="M214.739,-109.436C181.933,-99.2551 134.917,-84.664 105.442,-75.5164"/>
<polygon fill="midnightblue" stroke="midnightblue" points="213.841,-112.822 224.429,-112.444 215.916,-106.137 213.841,-112.822"/>
</g>
<!-- Node6 -->
<g id="node6" class="node"><title>Node6</title>
<g id="a_node6"><a xlink:href="../../d0/d67/classIG_1_1Num_1_1Func3dBaseNoHessian.html" target="_top" xlink:title="Base class for scalar functions of 3 variables (implementations of the IFunc3d interface)....">
<polygon fill="white" stroke="black" points="174.5,-56.5 174.5,-75.5 329.5,-75.5 329.5,-56.5 174.5,-56.5"/>
<text text-anchor="middle" x="252" y="-63.5" font-family="Helvetica,sans-Serif" font-size="10.00">IG.Num.Func3dBaseNoHessian</text>
</a>
</g>
</g>
<!-- Node1&#45;&gt;Node6 -->
<g id="edge6" class="edge"><title>Node1&#45;&gt;Node6</title>
<path fill="none" stroke="midnightblue" d="M252,-101.805C252,-92.9102 252,-82.7798 252,-75.7511"/>
<polygon fill="midnightblue" stroke="midnightblue" points="248.5,-102.083 252,-112.083 255.5,-102.083 248.5,-102.083"/>
</g>
<!-- Node8 -->
<g id="node8" class="node"><title>Node8</title>
<g id="a_node8"><a xlink:href="../../d9/d2a/classIG_1_1Num_1_1Func3dVectorFormBase.html" target="_top" xlink:title="Base class for scalar functions of 3 variables (base for implementation of IFunc3d interface).">
<polygon fill="white" stroke="black" points="348,-56.5 348,-75.5 506,-75.5 506,-56.5 348,-56.5"/>
<text text-anchor="middle" x="427" y="-63.5" font-family="Helvetica,sans-Serif" font-size="10.00">IG.Num.Func3dVectorFormBase</text>
</a>
</g>
</g>
<!-- Node1&#45;&gt;Node8 -->
<g id="edge8" class="edge"><title>Node1&#45;&gt;Node8</title>
<path fill="none" stroke="midnightblue" d="M289.475,-109.436C322.47,-99.2551 369.756,-84.664 399.4,-75.5164"/>
<polygon fill="midnightblue" stroke="midnightblue" points="288.253,-106.151 279.729,-112.444 290.317,-112.839 288.253,-106.151"/>
</g>
<!-- Node2 -->
<g id="node2" class="node"><title>Node2</title>
<g id="a_node2"><a xlink:href="../../d2/d9e/classIG_1_1Num_1_1ScalarFunctionUntransformedBase.html" target="_top" xlink:title="Base class for defining scalar functions without possibility of affine transformation of parameters.">
<polygon fill="white" stroke="black" points="168.5,-168.5 168.5,-187.5 335.5,-187.5 335.5,-168.5 168.5,-168.5"/>
<text text-anchor="middle" x="252" y="-175.5" font-family="Helvetica,sans-Serif" font-size="10.00">ScalarFunctionUntransformedBase</text>
</a>
</g>
</g>
<!-- Node2&#45;&gt;Node1 -->
<g id="edge1" class="edge"><title>Node2&#45;&gt;Node1</title>
<path fill="none" stroke="midnightblue" d="M252,-157.805C252,-148.91 252,-138.78 252,-131.751"/>
<polygon fill="midnightblue" stroke="midnightblue" points="248.5,-158.083 252,-168.083 255.5,-158.083 248.5,-158.083"/>
</g>
<!-- Node3 -->
<g id="node3" class="node"><title>Node3</title>
<g id="a_node3"><a xlink:href="../../d8/d56/interfaceIG_1_1Num_1_1IScalarFunctionUntransformed.html" target="_top" xlink:title="Scalar functions of vector arguments.">
<polygon fill="white" stroke="black" points="122.5,-224.5 122.5,-243.5 269.5,-243.5 269.5,-224.5 122.5,-224.5"/>
<text text-anchor="middle" x="196" y="-231.5" font-family="Helvetica,sans-Serif" font-size="10.00">IScalarFunctionUntransformed</text>
</a>
</g>
</g>
<!-- Node3&#45;&gt;Node1 -->
<g id="edge4" class="edge"><title>Node3&#45;&gt;Node1</title>
<path fill="none" stroke="midnightblue" d="M177.416,-217.78C163.5,-204.469 148.523,-184.708 159,-168 170.816,-149.157 193.004,-138.01 212.745,-131.525"/>
<polygon fill="midnightblue" stroke="midnightblue" points="175.085,-220.39 184.87,-224.451 179.753,-215.174 175.085,-220.39"/>
</g>
<!-- Node3&#45;&gt;Node2 -->
<g id="edge2" class="edge"><title>Node3&#45;&gt;Node2</title>
<path fill="none" stroke="midnightblue" d="M212.33,-217.253C222.265,-207.673 234.588,-195.791 242.839,-187.834"/>
<polygon fill="midnightblue" stroke="midnightblue" points="209.766,-214.863 204.997,-224.324 214.625,-219.902 209.766,-214.863"/>
</g>
<!-- Node4 -->
<g id="node4" class="node"><title>Node4</title>
<g id="a_node4"><a xlink:href="../../d5/d03/interfaceIG_1_1Num_1_1IFunc3d.html" target="_top" xlink:title="Represents scalar functions of 2 variables.">
<polygon fill="white" stroke="black" points="353.5,-168.5 353.5,-187.5 404.5,-187.5 404.5,-168.5 353.5,-168.5"/>
<text text-anchor="middle" x="379" y="-175.5" font-family="Helvetica,sans-Serif" font-size="10.00">IFunc3d</text>
</a>
</g>
</g>
<!-- Node4&#45;&gt;Node1 -->
<g id="edge3" class="edge"><title>Node4&#45;&gt;Node1</title>
<path fill="none" stroke="midnightblue" d="M349.609,-164.503C325.8,-154.38 292.894,-140.388 272.029,-131.516"/>
<polygon fill="midnightblue" stroke="midnightblue" points="348.304,-167.751 358.876,-168.444 351.043,-161.31 348.304,-167.751"/>
</g>
<!-- Node7 -->
<g id="node7" class="node"><title>Node7</title>
<g id="a_node7"><a xlink:href="../../db/dd6/classIG_1_1Num_1_1Func3dExamples_1_1Func3dXYZ.html" target="_top" xlink:title="Function f(x, y, z) = x * y * z.">
<polygon fill="white" stroke="black" points="161.5,-0.5 161.5,-19.5 342.5,-19.5 342.5,-0.5 161.5,-0.5"/>
<text text-anchor="middle" x="252" y="-7.5" font-family="Helvetica,sans-Serif" font-size="10.00">IG.Num.Func3dExamples.Func3dXYZ</text>
</a>
</g>
</g>
<!-- Node6&#45;&gt;Node7 -->
<g id="edge7" class="edge"><title>Node6&#45;&gt;Node7</title>
<path fill="none" stroke="midnightblue" d="M252,-45.8045C252,-36.9102 252,-26.7798 252,-19.7511"/>
<polygon fill="midnightblue" stroke="midnightblue" points="248.5,-46.083 252,-56.083 255.5,-46.083 248.5,-46.083"/>
</g>
<!-- Node9 -->
<g id="node9" class="node"><title>Node9</title>
<g id="a_node9"><a xlink:href="../../d4/d33/classIG_1_1Num_1_1Func3dLinear.html" target="_top" xlink:title="Linear (Affine) function of 3 variables.">
<polygon fill="white" stroke="black" points="365.5,-0.5 365.5,-19.5 476.5,-19.5 476.5,-0.5 365.5,-0.5"/>
<text text-anchor="middle" x="421" y="-7.5" font-family="Helvetica,sans-Serif" font-size="10.00">IG.Num.Func3dLinear</text>
</a>
</g>
</g>
<!-- Node8&#45;&gt;Node9 -->
<g id="edge9" class="edge"><title>Node8&#45;&gt;Node9</title>
<path fill="none" stroke="midnightblue" d="M424.9,-46.1005C423.904,-37.1357 422.762,-26.8579 421.972,-19.7511"/>
<polygon fill="midnightblue" stroke="midnightblue" points="421.426,-46.5307 426.009,-56.083 428.383,-45.7576 421.426,-46.5307"/>
</g>
<!-- Node10 -->
<g id="node10" class="node"><title>Node10</title>
<g id="a_node10"><a xlink:href="../../dc/dd8/classIG_1_1Num_1_1Func3dQuadratic.html" target="_top" xlink:title="Quadratic function of 3 variables.">
<polygon fill="white" stroke="black" points="494.5,-0.5 494.5,-19.5 621.5,-19.5 621.5,-0.5 494.5,-0.5"/>
<text text-anchor="middle" x="558" y="-7.5" font-family="Helvetica,sans-Serif" font-size="10.00">IG.Num.Func3dQuadratic</text>
</a>
</g>
</g>
<!-- Node8&#45;&gt;Node10 -->
<g id="edge10" class="edge"><title>Node8&#45;&gt;Node10</title>
<path fill="none" stroke="midnightblue" d="M457.317,-52.503C481.876,-42.3795 515.818,-28.388 537.34,-19.5164"/>
<polygon fill="midnightblue" stroke="midnightblue" points="455.669,-49.3966 447.757,-56.4435 458.337,-55.8683 455.669,-49.3966"/>
</g>
</g>
</svg>
