<?xml version="1.0" encoding="UTF-8" standalone="no"?>
<!DOCTYPE svg PUBLIC "-//W3C//DTD SVG 1.1//EN"
 "http://www.w3.org/Graphics/SVG/1.1/DTD/svg11.dtd">
<!-- Generated by graphviz version 2.38.0 (20140413.2041)
 -->
<!-- Title: IGLib.CoreExtended.ReflectionTypeConverter Pages: 1 -->
<svg width="239pt" height="220pt"
 viewBox="0.00 0.00 238.50 220.00" xmlns="http://www.w3.org/2000/svg" xmlns:xlink="http://www.w3.org/1999/xlink">
<g id="graph0" class="graph" transform="scale(1 1) rotate(0) translate(4 216)">
<title>IGLib.CoreExtended.ReflectionTypeConverter</title>
<polygon fill="white" stroke="none" points="-4,4 -4,-216 234.5,-216 234.5,4 -4,4"/>
<!-- Node1 -->
<g id="node1" class="node"><title>Node1</title>
<g id="a_node1"><a xlink:title="A type converter that supports implicit/explicit conversion operators via reflection,...">
<polygon fill="#bfbfbf" stroke="black" points="60,-0.5 60,-30.5 209,-30.5 209,-0.5 60,-0.5"/>
<text text-anchor="start" x="68" y="-18.5" font-family="Helvetica,sans-Serif" font-size="10.00">IGLib.CoreExtended.Reflection</text>
<text text-anchor="middle" x="134.5" y="-7.5" font-family="Helvetica,sans-Serif" font-size="10.00">TypeConverter</text>
</a>
</g>
</g>
<!-- Node2 -->
<g id="node2" class="node"><title>Node2</title>
<g id="a_node2"><a xlink:href="../../d3/d3d/classIGLib_1_1Core_1_1CollectionTypeConverter.html" target="_top" xlink:title="A type converter that supports conversion between basic types and a wide range of collection types,...">
<polygon fill="white" stroke="black" points="0,-78.5 0,-97.5 121,-97.5 121,-78.5 0,-78.5"/>
<text text-anchor="middle" x="60.5" y="-85.5" font-family="Helvetica,sans-Serif" font-size="10.00">CollectionTypeConverter</text>
</a>
</g>
</g>
<!-- Node2&#45;&gt;Node1 -->
<g id="edge1" class="edge"><title>Node2&#45;&gt;Node1</title>
<path fill="none" stroke="midnightblue" d="M76.8323,-71.4402C89.6462,-59.2323 107.329,-42.3856 119.725,-30.5762"/>
<polygon fill="midnightblue" stroke="midnightblue" points="74.3999,-68.9234 69.5739,-78.3553 79.2283,-73.9916 74.3999,-68.9234"/>
</g>
<!-- Node3 -->
<g id="node3" class="node"><title>Node3</title>
<g id="a_node3"><a xlink:href="../../d9/d23/classIGLib_1_1Core_1_1BasicTypeConverter.html" target="_top" xlink:title="Provides basic type conversion functionality using IConvertible and nullable handling.">
<polygon fill="white" stroke="black" points="9,-135.5 9,-154.5 112,-154.5 112,-135.5 9,-135.5"/>
<text text-anchor="middle" x="60.5" y="-142.5" font-family="Helvetica,sans-Serif" font-size="10.00">BasicTypeConverter</text>
</a>
</g>
</g>
<!-- Node3&#45;&gt;Node2 -->
<g id="edge2" class="edge"><title>Node3&#45;&gt;Node2</title>
<path fill="none" stroke="midnightblue" d="M60.5,-125.117C60.5,-115.817 60.5,-105.056 60.5,-97.7149"/>
<polygon fill="midnightblue" stroke="midnightblue" points="57.0001,-125.406 60.5,-135.406 64.0001,-125.406 57.0001,-125.406"/>
</g>
<!-- Node4 -->
<g id="node4" class="node"><title>Node4</title>
<g id="a_node4"><a xlink:href="../../de/d63/interfaceIGLib_1_1Core_1_1ITypeConverter.html" target="_top" xlink:title="Defines methods for converting objects to a specified type.">
<polygon fill="white" stroke="black" points="20.5,-192.5 20.5,-211.5 100.5,-211.5 100.5,-192.5 20.5,-192.5"/>
<text text-anchor="middle" x="60.5" y="-199.5" font-family="Helvetica,sans-Serif" font-size="10.00">ITypeConverter</text>
</a>
</g>
</g>
<!-- Node4&#45;&gt;Node3 -->
<g id="edge3" class="edge"><title>Node4&#45;&gt;Node3</title>
<path fill="none" stroke="midnightblue" d="M60.5,-182.117C60.5,-172.817 60.5,-162.056 60.5,-154.715"/>
<polygon fill="midnightblue" stroke="midnightblue" points="57.0001,-182.406 60.5,-192.406 64.0001,-182.406 57.0001,-182.406"/>
</g>
<!-- Node5 -->
<g id="node5" class="node"><title>Node5</title>
<g id="a_node5"><a xlink:title=" ">
<polygon fill="white" stroke="#bfbfbf" points="139,-78.5 139,-97.5 180,-97.5 180,-78.5 139,-78.5"/>
<text text-anchor="middle" x="159.5" y="-85.5" font-family="Helvetica,sans-Serif" font-size="10.00">static</text>
</a>
</g>
</g>
<!-- Node5&#45;&gt;Node1 -->
<g id="edge4" class="edge"><title>Node5&#45;&gt;Node1</title>
<path fill="none" stroke="#9a32cd" stroke-dasharray="5,2" d="M152.976,-68.601C148.762,-56.7181 143.363,-41.4943 139.492,-30.5762"/>
<polygon fill="#9a32cd" stroke="#9a32cd" points="149.794,-70.1001 156.435,-78.3553 156.391,-67.7606 149.794,-70.1001"/>
<text text-anchor="middle" x="189.5" y="-52" font-family="Helvetica,sans-Serif" font-size="10.00"> _conversionCache</text>
</g>
</g>
</svg>
