<?xml version="1.0" encoding="UTF-8" standalone="no"?>
<!DOCTYPE svg PUBLIC "-//W3C//DTD SVG 1.1//EN"
 "http://www.w3.org/Graphics/SVG/1.1/DTD/svg11.dtd">
<!-- Generated by graphviz version 2.38.0 (20140413.2041)
 -->
<!-- Title: IG.Lib.IWaitCondition Pages: 1 -->
<svg width="924pt" height="514pt"
 viewBox="0.00 0.00 924.00 513.50" xmlns="http://www.w3.org/2000/svg" xmlns:xlink="http://www.w3.org/1999/xlink">
<g id="graph0" class="graph" transform="scale(1 1) rotate(0) translate(4 509.5)">
<title>IG.Lib.IWaitCondition</title>
<polygon fill="white" stroke="none" points="-4,4 -4,-509.5 920,-509.5 920,4 -4,4"/>
<!-- Node1 -->
<g id="node1" class="node"><title>Node1</title>
<g id="a_node1"><a xlink:title="Interface for classes that implement blocking until a specified condition is met.">
<polygon fill="#bfbfbf" stroke="black" points="94,-188.5 94,-207.5 202,-207.5 202,-188.5 94,-188.5"/>
<text text-anchor="middle" x="148" y="-195.5" font-family="Helvetica,sans-Serif" font-size="10.00">IG.Lib.IWaitCondition</text>
</a>
</g>
</g>
<!-- Node3 -->
<g id="node3" class="node"><title>Node3</title>
<g id="a_node3"><a xlink:href="../../d2/d48/interfaceIG_1_1Lib_1_1IWaitFileEvent.html" target="_top" xlink:title="Interface for classes that provide waiting for specific file events (such as ceration or deletion of ...">
<polygon fill="white" stroke="black" points="248.5,-251.5 248.5,-270.5 355.5,-270.5 355.5,-251.5 248.5,-251.5"/>
<text text-anchor="middle" x="302" y="-258.5" font-family="Helvetica,sans-Serif" font-size="10.00">IG.Lib.IWaitFileEvent</text>
</a>
</g>
</g>
<!-- Node1&#45;&gt;Node3 -->
<g id="edge2" class="edge"><title>Node1&#45;&gt;Node3</title>
<path fill="none" stroke="midnightblue" d="M180.336,-211.613C197.351,-218.945 218.78,-228.085 238,-236 250.622,-241.198 264.74,-246.818 276.408,-251.411"/>
<polygon fill="midnightblue" stroke="midnightblue" points="181.447,-208.28 170.879,-207.528 178.671,-214.706 181.447,-208.28"/>
</g>
<!-- Node16 -->
<g id="node16" class="node"><title>Node16</title>
<g id="a_node16"><a xlink:href="../../d4/d27/classIG_1_1Lib_1_1WaitFileEventLatenceBase.html" target="_top" xlink:title="Base class for classes that impelement methods that block until a file or directory is created or del...">
<polygon fill="white" stroke="black" points="566,-131.5 566,-150.5 728,-150.5 728,-131.5 566,-131.5"/>
<text text-anchor="middle" x="647" y="-138.5" font-family="Helvetica,sans-Serif" font-size="10.00">IG.Lib.WaitFileEventLatenceBase</text>
</a>
</g>
</g>
<!-- Node1&#45;&gt;Node16 -->
<g id="edge27" class="edge"><title>Node1&#45;&gt;Node16</title>
<path fill="none" stroke="midnightblue" d="M209.861,-186.687C219.271,-185.045 228.888,-183.429 238,-182 310.653,-170.602 328.867,-167.747 402,-160 456.612,-154.215 518.276,-149.429 565.95,-146.107"/>
<polygon fill="midnightblue" stroke="midnightblue" points="209.003,-183.284 199.764,-188.471 210.221,-190.178 209.003,-183.284"/>
</g>
<!-- Node21 -->
<g id="node21" class="node"><title>Node21</title>
<g id="a_node21"><a xlink:href="../../da/d67/classIG_1_1Lib_1_1WaitCondition.html" target="_top" xlink:title="Provides a framework for blocking execution until the specified condition becomes satisfied....">
<polygon fill="white" stroke="black" points="413,-169.5 413,-188.5 519,-188.5 519,-169.5 413,-169.5"/>
<text text-anchor="middle" x="466" y="-176.5" font-family="Helvetica,sans-Serif" font-size="10.00">IG.Lib.WaitCondition</text>
</a>
</g>
</g>
<!-- Node1&#45;&gt;Node21 -->
<g id="edge21" class="edge"><title>Node1&#45;&gt;Node21</title>
<path fill="none" stroke="midnightblue" d="M212.54,-194.18C271.411,-190.64 357.928,-185.438 412.849,-182.136"/>
<polygon fill="midnightblue" stroke="midnightblue" points="212.02,-190.704 202.248,-194.798 212.44,-197.692 212.02,-190.704"/>
</g>
<!-- Node22 -->
<g id="node22" class="node"><title>Node22</title>
<g id="a_node22"><a xlink:href="../../df/dea/classIG_1_1Lib_1_1WaitConditionBase.html" target="_top" xlink:title="Base class for objects that perform waiting until a condition is fulfilled.">
<polygon fill="white" stroke="black" points="238,-207.5 238,-226.5 366,-226.5 366,-207.5 238,-207.5"/>
<text text-anchor="middle" x="302" y="-214.5" font-family="Helvetica,sans-Serif" font-size="10.00">IG.Lib.WaitConditionBase</text>
</a>
</g>
</g>
<!-- Node1&#45;&gt;Node22 -->
<g id="edge23" class="edge"><title>Node1&#45;&gt;Node22</title>
<path fill="none" stroke="midnightblue" d="M212.35,-205.919C220.814,-206.977 229.493,-208.062 237.952,-209.119"/>
<polygon fill="midnightblue" stroke="midnightblue" points="212.519,-202.413 202.162,-204.645 211.651,-209.359 212.519,-202.413"/>
</g>
<!-- Node2 -->
<g id="node2" class="node"><title>Node2</title>
<g id="a_node2"><a xlink:href="../../d3/db6/interfaceIG_1_1Lib_1_1ILockable.html" target="_top" xlink:title="Lockable object, has a Lock property that returns object on which lock must be performed in order to ...">
<polygon fill="white" stroke="black" points="0,-188.5 0,-207.5 58,-207.5 58,-188.5 0,-188.5"/>
<text text-anchor="middle" x="29" y="-195.5" font-family="Helvetica,sans-Serif" font-size="10.00">ILockable</text>
</a>
</g>
</g>
<!-- Node2&#45;&gt;Node1 -->
<g id="edge1" class="edge"><title>Node2&#45;&gt;Node1</title>
<path fill="none" stroke="midnightblue" d="M68.1088,-198C76.3793,-198 85.2713,-198 93.9986,-198"/>
<polygon fill="midnightblue" stroke="midnightblue" points="68.0244,-194.5 58.0244,-198 68.0244,-201.5 68.0244,-194.5"/>
</g>
<!-- Node4 -->
<g id="node4" class="node"><title>Node4</title>
<g id="a_node4"><a xlink:href="../../d5/d42/classIG_1_1Lib_1_1WaitFileEventBase.html" target="_top" xlink:title="Base class for classes that provide blocking until a file or directory is created/removed.">
<polygon fill="white" stroke="black" points="402,-207.5 402,-226.5 530,-226.5 530,-207.5 402,-207.5"/>
<text text-anchor="middle" x="466" y="-214.5" font-family="Helvetica,sans-Serif" font-size="10.00">IG.Lib.WaitFileEventBase</text>
</a>
</g>
</g>
<!-- Node3&#45;&gt;Node4 -->
<g id="edge3" class="edge"><title>Node3&#45;&gt;Node4</title>
<path fill="none" stroke="midnightblue" d="M348.094,-248.752C373.958,-241.728 405.944,-233.04 429.917,-226.529"/>
<polygon fill="midnightblue" stroke="midnightblue" points="346.885,-245.454 338.152,-251.453 348.719,-252.209 346.885,-245.454"/>
</g>
<!-- Node10 -->
<g id="node10" class="node"><title>Node10</title>
<g id="a_node10"><a xlink:href="../../dd/d05/classIG_1_1Lib_1_1WaitFileEventBaseByProxy.html" target="_top" xlink:title="Base class for classes that provide blocking until a file or directory is created/removed....">
<polygon fill="white" stroke="black" points="583,-352 583,-382 711,-382 711,-352 583,-352"/>
<text text-anchor="start" x="591" y="-370" font-family="Helvetica,sans-Serif" font-size="10.00">IG.Lib.WaitFileEventBase</text>
<text text-anchor="middle" x="647" y="-359" font-family="Helvetica,sans-Serif" font-size="10.00">ByProxy</text>
</a>
</g>
</g>
<!-- Node3&#45;&gt;Node10 -->
<g id="edge9" class="edge"><title>Node3&#45;&gt;Node10</title>
<path fill="none" stroke="midnightblue" d="M324.417,-276.421C343.781,-289.644 373.536,-308.218 402,-319 461.248,-341.443 532.749,-353.929 582.986,-360.498"/>
<polygon fill="midnightblue" stroke="midnightblue" points="326.252,-273.433 316.045,-270.593 322.253,-279.179 326.252,-273.433"/>
</g>
<!-- Node15 -->
<g id="node15" class="node"><title>Node15</title>
<g id="a_node15"><a xlink:href="../../df/d44/classIG_1_1Lib_1_1WaitFileEventBaseByProxyLatence.html" target="_top" xlink:title="Base class for classes that provide blocking until a file or directory is created/removed....">
<polygon fill="white" stroke="black" points="402,-246 402,-276 530,-276 530,-246 402,-246"/>
<text text-anchor="start" x="410" y="-264" font-family="Helvetica,sans-Serif" font-size="10.00">IG.Lib.WaitFileEventBase</text>
<text text-anchor="middle" x="466" y="-253" font-family="Helvetica,sans-Serif" font-size="10.00">ByProxyLatence</text>
</a>
</g>
</g>
<!-- Node3&#45;&gt;Node15 -->
<g id="edge14" class="edge"><title>Node3&#45;&gt;Node15</title>
<path fill="none" stroke="midnightblue" d="M365.839,-261C377.686,-261 390.078,-261 401.932,-261"/>
<polygon fill="midnightblue" stroke="midnightblue" points="365.597,-257.5 355.597,-261 365.597,-264.5 365.597,-257.5"/>
</g>
<!-- Node3&#45;&gt;Node16 -->
<g id="edge16" class="edge"><title>Node3&#45;&gt;Node16</title>
<path fill="none" stroke="midnightblue" d="M331.563,-274.755C377.423,-294.649 468.55,-324.935 530,-285 563.033,-263.533 541.816,-235.099 566,-204 583.798,-181.113 611.625,-161.695 629.326,-150.694"/>
<polygon fill="midnightblue" stroke="midnightblue" points="332.786,-271.468 322.229,-270.576 329.925,-277.857 332.786,-271.468"/>
</g>
<!-- Node5 -->
<g id="node5" class="node"><title>Node5</title>
<g id="a_node5"><a xlink:href="../../d2/ddf/classIG_1_1Lib_1_1WaitFileEvent.html" target="_top" xlink:title="Concrete class derived from WaitFileEventBase. It does not have a meaningful unblocking condition (it...">
<polygon fill="white" stroke="black" points="594.5,-213.5 594.5,-232.5 699.5,-232.5 699.5,-213.5 594.5,-213.5"/>
<text text-anchor="middle" x="647" y="-220.5" font-family="Helvetica,sans-Serif" font-size="10.00">IG.Lib.WaitFileEvent</text>
</a>
</g>
</g>
<!-- Node4&#45;&gt;Node5 -->
<g id="edge4" class="edge"><title>Node4&#45;&gt;Node5</title>
<path fill="none" stroke="midnightblue" d="M540.106,-219.45C558.311,-220.061 577.453,-220.702 594.379,-221.27"/>
<polygon fill="midnightblue" stroke="midnightblue" points="540.22,-215.952 530.109,-219.115 539.986,-222.949 540.22,-215.952"/>
</g>
<!-- Node6 -->
<g id="node6" class="node"><title>Node6</title>
<g id="a_node6"><a xlink:href="../../d9/d46/classIG_1_1Lib_1_1WaitDirectoryCreation.html" target="_top" xlink:title="Blocking execution of the current thread until the specified directory begins to exist.">
<polygon fill="white" stroke="black" points="770,-289.5 770,-308.5 910,-308.5 910,-289.5 770,-289.5"/>
<text text-anchor="middle" x="840" y="-296.5" font-family="Helvetica,sans-Serif" font-size="10.00">IG.Lib.WaitDirectoryCreation</text>
</a>
</g>
</g>
<!-- Node5&#45;&gt;Node6 -->
<g id="edge5" class="edge"><title>Node5&#45;&gt;Node6</title>
<path fill="none" stroke="midnightblue" d="M673.608,-237.519C696.67,-250.121 731.793,-268.155 764,-280 773.833,-283.616 784.637,-286.793 794.907,-289.462"/>
<polygon fill="midnightblue" stroke="midnightblue" points="675.246,-234.426 664.801,-232.65 671.859,-240.552 675.246,-234.426"/>
</g>
<!-- Node7 -->
<g id="node7" class="node"><title>Node7</title>
<g id="a_node7"><a xlink:href="../../d3/da5/classIG_1_1Lib_1_1WaitDirectoryRemoval.html" target="_top" xlink:title="Blocking execution of the current thread until the specified directory ceases to exist.">
<polygon fill="white" stroke="black" points="769.5,-251.5 769.5,-270.5 910.5,-270.5 910.5,-251.5 769.5,-251.5"/>
<text text-anchor="middle" x="840" y="-258.5" font-family="Helvetica,sans-Serif" font-size="10.00">IG.Lib.WaitDirectoryRemoval</text>
</a>
</g>
</g>
<!-- Node5&#45;&gt;Node7 -->
<g id="edge6" class="edge"><title>Node5&#45;&gt;Node7</title>
<path fill="none" stroke="midnightblue" d="M706.353,-234.61C733.518,-240.014 765.432,-246.364 791.149,-251.48"/>
<polygon fill="midnightblue" stroke="midnightblue" points="706.688,-231.108 696.197,-232.589 705.322,-237.973 706.688,-231.108"/>
</g>
<!-- Node8 -->
<g id="node8" class="node"><title>Node8</title>
<g id="a_node8"><a xlink:href="../../d1/d1e/classIG_1_1Lib_1_1WaitFileCreation.html" target="_top" xlink:title="Blocking execution of the current thread until the specified file begins to exist.">
<polygon fill="white" stroke="black" points="781.5,-213.5 781.5,-232.5 898.5,-232.5 898.5,-213.5 781.5,-213.5"/>
<text text-anchor="middle" x="840" y="-220.5" font-family="Helvetica,sans-Serif" font-size="10.00">IG.Lib.WaitFileCreation</text>
</a>
</g>
</g>
<!-- Node5&#45;&gt;Node8 -->
<g id="edge7" class="edge"><title>Node5&#45;&gt;Node8</title>
<path fill="none" stroke="midnightblue" d="M709.976,-223C732.869,-223 758.705,-223 781.212,-223"/>
<polygon fill="midnightblue" stroke="midnightblue" points="709.687,-219.5 699.687,-223 709.687,-226.5 709.687,-219.5"/>
</g>
<!-- Node9 -->
<g id="node9" class="node"><title>Node9</title>
<g id="a_node9"><a xlink:href="../../d6/de8/classIG_1_1Lib_1_1WaitFileRemoval.html" target="_top" xlink:title="Blocking execution of the current thread until the specified file ceases to exist.">
<polygon fill="white" stroke="black" points="781,-175.5 781,-194.5 899,-194.5 899,-175.5 781,-175.5"/>
<text text-anchor="middle" x="840" y="-182.5" font-family="Helvetica,sans-Serif" font-size="10.00">IG.Lib.WaitFileRemoval</text>
</a>
</g>
</g>
<!-- Node5&#45;&gt;Node9 -->
<g id="edge8" class="edge"><title>Node5&#45;&gt;Node9</title>
<path fill="none" stroke="midnightblue" d="M706.353,-211.39C733.518,-205.986 765.432,-199.636 791.149,-194.52"/>
<polygon fill="midnightblue" stroke="midnightblue" points="705.322,-208.027 696.197,-213.411 706.688,-214.892 705.322,-208.027"/>
</g>
<!-- Node11 -->
<g id="node11" class="node"><title>Node11</title>
<g id="a_node11"><a xlink:href="../../d5/d05/classIG_1_1Lib_1_1WaitDirectoryCreationByProxy.html" target="_top" xlink:title="Implements blocking until the specified directory is created (becomes existent). Directory is specifi...">
<polygon fill="white" stroke="black" points="770,-475 770,-505 910,-505 910,-475 770,-475"/>
<text text-anchor="start" x="778" y="-493" font-family="Helvetica,sans-Serif" font-size="10.00">IG.Lib.WaitDirectoryCreation</text>
<text text-anchor="middle" x="840" y="-482" font-family="Helvetica,sans-Serif" font-size="10.00">ByProxy</text>
</a>
</g>
</g>
<!-- Node10&#45;&gt;Node11 -->
<g id="edge10" class="edge"><title>Node10&#45;&gt;Node11</title>
<path fill="none" stroke="midnightblue" d="M669.04,-389.579C690.875,-411.82 726.962,-445.375 764,-466 769.972,-469.326 776.472,-472.268 783.067,-474.849"/>
<polygon fill="midnightblue" stroke="midnightblue" points="671.398,-386.983 661.933,-382.224 666.364,-391.847 671.398,-386.983"/>
</g>
<!-- Node12 -->
<g id="node12" class="node"><title>Node12</title>
<g id="a_node12"><a xlink:href="../../d4/d92/classIG_1_1Lib_1_1WaitDirectoryRemovalByProxy.html" target="_top" xlink:title="Implements blocking until the specified directory is deleted (becomes nonexistent)....">
<polygon fill="white" stroke="black" points="769.5,-426 769.5,-456 910.5,-456 910.5,-426 769.5,-426"/>
<text text-anchor="start" x="777.5" y="-444" font-family="Helvetica,sans-Serif" font-size="10.00">IG.Lib.WaitDirectoryRemoval</text>
<text text-anchor="middle" x="840" y="-433" font-family="Helvetica,sans-Serif" font-size="10.00">ByProxy</text>
</a>
</g>
</g>
<!-- Node10&#45;&gt;Node12 -->
<g id="edge11" class="edge"><title>Node10&#45;&gt;Node12</title>
<path fill="none" stroke="midnightblue" d="M689.977,-386.265C711.839,-395.999 739.133,-407.687 764,-417 772.194,-420.069 780.978,-423.103 789.546,-425.928"/>
<polygon fill="midnightblue" stroke="midnightblue" points="691.211,-382.982 680.654,-382.086 688.347,-389.37 691.211,-382.982"/>
</g>
<!-- Node13 -->
<g id="node13" class="node"><title>Node13</title>
<g id="a_node13"><a xlink:href="../../db/dbb/classIG_1_1Lib_1_1WaitFileCreationByProxy.html" target="_top" xlink:title="Implements blocking until the specified file is created (becomes existent). File is specified in cons...">
<polygon fill="white" stroke="black" points="775.5,-377 775.5,-407 904.5,-407 904.5,-377 775.5,-377"/>
<text text-anchor="start" x="783.5" y="-395" font-family="Helvetica,sans-Serif" font-size="10.00">IG.Lib.WaitFileCreationBy</text>
<text text-anchor="middle" x="840" y="-384" font-family="Helvetica,sans-Serif" font-size="10.00">Proxy</text>
</a>
</g>
</g>
<!-- Node10&#45;&gt;Node13 -->
<g id="edge12" class="edge"><title>Node10&#45;&gt;Node13</title>
<path fill="none" stroke="midnightblue" d="M721.397,-376.607C739.182,-378.935 758.05,-381.404 775.344,-383.668"/>
<polygon fill="midnightblue" stroke="midnightblue" points="721.44,-373.083 711.07,-375.255 720.531,-380.024 721.44,-373.083"/>
</g>
<!-- Node14 -->
<g id="node14" class="node"><title>Node14</title>
<g id="a_node14"><a xlink:href="../../d2/d43/classIG_1_1Lib_1_1WaitFileRemovalByProxy.html" target="_top" xlink:title="Implements blocking until the specified file is deleted (becomes nonexistent). File is specified in c...">
<polygon fill="white" stroke="black" points="775,-328 775,-358 905,-358 905,-328 775,-328"/>
<text text-anchor="start" x="783" y="-346" font-family="Helvetica,sans-Serif" font-size="10.00">IG.Lib.WaitFileRemovalBy</text>
<text text-anchor="middle" x="840" y="-335" font-family="Helvetica,sans-Serif" font-size="10.00">Proxy</text>
</a>
</g>
</g>
<!-- Node10&#45;&gt;Node14 -->
<g id="edge13" class="edge"><title>Node10&#45;&gt;Node14</title>
<path fill="none" stroke="midnightblue" d="M721.286,-357.791C738.88,-355.581 757.539,-353.236 774.69,-351.081"/>
<polygon fill="midnightblue" stroke="midnightblue" points="720.555,-354.355 711.07,-359.075 721.428,-361.301 720.555,-354.355"/>
</g>
<!-- Node15&#45;&gt;Node10 -->
<g id="edge15" class="edge"><title>Node15&#45;&gt;Node10</title>
<path fill="none" stroke="midnightblue" d="M501.511,-281.437C536.299,-302.038 589.187,-333.356 620.401,-351.841"/>
<polygon fill="midnightblue" stroke="midnightblue" points="503.034,-278.271 492.646,-276.187 499.467,-284.294 503.034,-278.271"/>
</g>
<!-- Node17 -->
<g id="node17" class="node"><title>Node17</title>
<g id="a_node17"><a xlink:href="../../d9/d6b/classIG_1_1Lib_1_1WaitDirectoryCreationLatence.html" target="_top" xlink:title="Implements blocking until the specified directory is created (becomes existent). Directory is specifi...">
<polygon fill="white" stroke="black" points="770,-126 770,-156 910,-156 910,-126 770,-126"/>
<text text-anchor="start" x="778" y="-144" font-family="Helvetica,sans-Serif" font-size="10.00">IG.Lib.WaitDirectoryCreation</text>
<text text-anchor="middle" x="840" y="-133" font-family="Helvetica,sans-Serif" font-size="10.00">Latence</text>
</a>
</g>
</g>
<!-- Node16&#45;&gt;Node17 -->
<g id="edge17" class="edge"><title>Node16&#45;&gt;Node17</title>
<path fill="none" stroke="midnightblue" d="M738.319,-141C748.95,-141 759.666,-141 769.939,-141"/>
<polygon fill="midnightblue" stroke="midnightblue" points="738.171,-137.5 728.171,-141 738.171,-144.5 738.171,-137.5"/>
</g>
<!-- Node18 -->
<g id="node18" class="node"><title>Node18</title>
<g id="a_node18"><a xlink:href="../../d2/dcb/classIG_1_1Lib_1_1WaitDirectoryRemovalLatence.html" target="_top" xlink:title="Implements blocking until the specified directory is deleted (becomes nonexistent)....">
<polygon fill="white" stroke="black" points="769.5,-77 769.5,-107 910.5,-107 910.5,-77 769.5,-77"/>
<text text-anchor="start" x="777.5" y="-95" font-family="Helvetica,sans-Serif" font-size="10.00">IG.Lib.WaitDirectoryRemoval</text>
<text text-anchor="middle" x="840" y="-84" font-family="Helvetica,sans-Serif" font-size="10.00">Latence</text>
</a>
</g>
</g>
<!-- Node16&#45;&gt;Node18 -->
<g id="edge18" class="edge"><title>Node16&#45;&gt;Node18</title>
<path fill="none" stroke="midnightblue" d="M695.172,-128.898C720.923,-122.292 753.039,-114.053 780.387,-107.037"/>
<polygon fill="midnightblue" stroke="midnightblue" points="694.097,-125.561 685.28,-131.436 695.836,-132.341 694.097,-125.561"/>
</g>
<!-- Node19 -->
<g id="node19" class="node"><title>Node19</title>
<g id="a_node19"><a xlink:href="../../d1/de2/classIG_1_1Lib_1_1WaitFileCreationLatence.html" target="_top" xlink:title="Implements blocking until the specified file is created (becomes existent). File is specified in cons...">
<polygon fill="white" stroke="black" points="764,-38.5 764,-57.5 916,-57.5 916,-38.5 764,-38.5"/>
<text text-anchor="middle" x="840" y="-45.5" font-family="Helvetica,sans-Serif" font-size="10.00">IG.Lib.WaitFileCreationLatence</text>
</a>
</g>
</g>
<!-- Node16&#45;&gt;Node19 -->
<g id="edge19" class="edge"><title>Node16&#45;&gt;Node19</title>
<path fill="none" stroke="midnightblue" d="M668.161,-125.282C690.454,-108.606 727.995,-82.5625 764,-67 772.631,-63.2695 782.149,-60.1585 791.425,-57.6072"/>
<polygon fill="midnightblue" stroke="midnightblue" points="665.976,-122.546 660.128,-131.381 670.209,-128.121 665.976,-122.546"/>
</g>
<!-- Node20 -->
<g id="node20" class="node"><title>Node20</title>
<g id="a_node20"><a xlink:href="../../d2/d57/classIG_1_1Lib_1_1WaitFileRemovalLatence.html" target="_top" xlink:title="Implements blocking until the specified file is deleted (becomes nonexistent). File is specified in c...">
<polygon fill="white" stroke="black" points="764,-0.5 764,-19.5 916,-19.5 916,-0.5 764,-0.5"/>
<text text-anchor="middle" x="840" y="-7.5" font-family="Helvetica,sans-Serif" font-size="10.00">IG.Lib.WaitFileRemovalLatence</text>
</a>
</g>
</g>
<!-- Node16&#45;&gt;Node20 -->
<g id="edge20" class="edge"><title>Node16&#45;&gt;Node20</title>
<path fill="none" stroke="midnightblue" d="M661.577,-122.946C681.333,-97.9801 720.432,-53.2548 764,-29 770.924,-25.1452 778.641,-22.0579 786.416,-19.5893"/>
<polygon fill="midnightblue" stroke="midnightblue" points="658.559,-121.127 655.201,-131.176 664.093,-125.415 658.559,-121.127"/>
</g>
<!-- Node21&#45;&gt;Node16 -->
<g id="edge22" class="edge"><title>Node21&#45;&gt;Node16</title>
<path fill="none" stroke="midnightblue" d="M522.024,-167.319C547.408,-161.93 577.161,-155.614 601.156,-150.52"/>
<polygon fill="midnightblue" stroke="midnightblue" points="521.224,-163.911 512.169,-169.411 522.678,-170.758 521.224,-163.911"/>
</g>
<!-- Node22&#45;&gt;Node4 -->
<g id="edge25" class="edge"><title>Node22&#45;&gt;Node4</title>
<path fill="none" stroke="midnightblue" d="M376.374,-217C384.865,-217 393.469,-217 401.808,-217"/>
<polygon fill="midnightblue" stroke="midnightblue" points="376.097,-213.5 366.097,-217 376.097,-220.5 376.097,-213.5"/>
</g>
<!-- Node22&#45;&gt;Node15 -->
<g id="edge26" class="edge"><title>Node22&#45;&gt;Node15</title>
<path fill="none" stroke="midnightblue" d="M347.803,-229.169C366.907,-234.357 389.392,-240.465 409.532,-245.935"/>
<polygon fill="midnightblue" stroke="midnightblue" points="348.719,-225.791 338.152,-226.547 346.885,-232.546 348.719,-225.791"/>
</g>
<!-- Node22&#45;&gt;Node21 -->
<g id="edge24" class="edge"><title>Node22&#45;&gt;Node21</title>
<path fill="none" stroke="midnightblue" d="M353.715,-205.104C376.486,-199.763 402.987,-193.546 424.415,-188.52"/>
<polygon fill="midnightblue" stroke="midnightblue" points="352.816,-201.72 343.879,-207.411 354.415,-208.535 352.816,-201.72"/>
</g>
</g>
</svg>
