<?xml version="1.0" encoding="UTF-8" standalone="no"?>
<!DOCTYPE svg PUBLIC "-//W3C//DTD SVG 1.1//EN"
 "http://www.w3.org/Graphics/SVG/1.1/DTD/svg11.dtd">
<!-- Generated by graphviz version 2.38.0 (20140413.2041)
 -->
<!-- Title: IG.Num.IPointContainer&lt; PointType &gt; Pages: 1 -->
<svg width="130pt" height="106pt"
 viewBox="0.00 0.00 130.00 106.00" xmlns="http://www.w3.org/2000/svg" xmlns:xlink="http://www.w3.org/1999/xlink">
<g id="graph0" class="graph" transform="scale(1 1) rotate(0) translate(4 102)">
<title>IG.Num.IPointContainer&lt; PointType &gt;</title>
<polygon fill="white" stroke="none" points="-4,4 -4,-102 126,-102 126,4 -4,4"/>
<!-- Node1 -->
<g id="node1" class="node"><title>Node1</title>
<g id="a_node1"><a xlink:title="Basic interface for point container classes.">
<polygon fill="#bfbfbf" stroke="black" points="1.5,-67.5 1.5,-97.5 120.5,-97.5 120.5,-67.5 1.5,-67.5"/>
<text text-anchor="start" x="9.5" y="-85.5" font-family="Helvetica,sans-Serif" font-size="10.00">IG.Num.IPointContainer</text>
<text text-anchor="middle" x="61" y="-74.5" font-family="Helvetica,sans-Serif" font-size="10.00">&lt; PointType &gt;</text>
</a>
</g>
</g>
<!-- Node2 -->
<g id="node2" class="node"><title>Node2</title>
<g id="a_node2"><a xlink:href="../../d7/deb/classIG_1_1Num_1_1PointContainer.html" target="_top" xlink:title="Container class that contains a single point plus all the data that are necessary for searching and r...">
<polygon fill="white" stroke="black" points="0,-0.5 0,-30.5 122,-30.5 122,-0.5 0,-0.5"/>
<text text-anchor="start" x="8" y="-18.5" font-family="Helvetica,sans-Serif" font-size="10.00">IG::Num::PointContainer</text>
<text text-anchor="middle" x="61" y="-7.5" font-family="Helvetica,sans-Serif" font-size="10.00">&lt; PointType &gt;</text>
</a>
</g>
</g>
<!-- Node1&#45;&gt;Node2 -->
<g id="edge1" class="edge"><title>Node1&#45;&gt;Node2</title>
<path fill="none" stroke="midnightblue" d="M54.4547,-57.4029C54.0055,-48.3703 54.2957,-38.4078 55.3252,-30.5765"/>
<polygon fill="midnightblue" stroke="midnightblue" points="50.9703,-57.7359 55.3216,-67.396 57.9441,-57.1309 50.9703,-57.7359"/>
</g>
<!-- Node1&#45;&gt;Node2 -->
<g id="edge2" class="edge"><title>Node1&#45;&gt;Node2</title>
<path fill="none" stroke="midnightblue" d="M67.5453,-57.4029C67.9945,-48.3703 67.7043,-38.4078 66.6748,-30.5765"/>
<polygon fill="midnightblue" stroke="midnightblue" points="64.0559,-57.1309 66.6784,-67.396 71.0297,-57.7359 64.0559,-57.1309"/>
</g>
</g>
</svg>
