<?xml version="1.0" encoding="UTF-8" standalone="no"?>
<!DOCTYPE svg PUBLIC "-//W3C//DTD SVG 1.1//EN"
 "http://www.w3.org/Graphics/SVG/1.1/DTD/svg11.dtd">
<!-- Generated by graphviz version 2.38.0 (20140413.2041)
 -->
<!-- Title: IG.Num.StructuredMesh2d&lt; TCoord, TIndexField, TIndex, TScalarField, TScalar, TVectorField, TVector, TTensorField, TTensor &gt; Pages: 1 -->
<svg width="545pt" height="235pt"
 viewBox="0.00 0.00 545.00 235.00" xmlns="http://www.w3.org/2000/svg" xmlns:xlink="http://www.w3.org/1999/xlink">
<g id="graph0" class="graph" transform="scale(1 1) rotate(0) translate(4 231)">
<title>IG.Num.StructuredMesh2d&lt; TCoord, TIndexField, TIndex, TScalarField, TScalar, TVectorField, TVector, TTensorField, TTensor &gt;</title>
<polygon fill="white" stroke="none" points="-4,4 -4,-231 541,-231 541,4 -4,4"/>
<!-- Node1 -->
<g id="node1" class="node"><title>Node1</title>
<g id="a_node1"><a xlink:title="Generic 2D structured mesh with collections of named scalar, vector, tensor and index fields.">
<polygon fill="#bfbfbf" stroke="black" points="373,-82 373,-145 537,-145 537,-82 373,-82"/>
<text text-anchor="start" x="381" y="-133" font-family="Helvetica,sans-Serif" font-size="10.00">IG.Num.StructuredMesh2d</text>
<text text-anchor="start" x="381" y="-122" font-family="Helvetica,sans-Serif" font-size="10.00">&lt; TCoord, TIndexField,</text>
<text text-anchor="start" x="381" y="-111" font-family="Helvetica,sans-Serif" font-size="10.00"> TIndex, TScalarField,</text>
<text text-anchor="start" x="381" y="-100" font-family="Helvetica,sans-Serif" font-size="10.00"> TScalar, TVectorField,</text>
<text text-anchor="middle" x="455" y="-89" font-family="Helvetica,sans-Serif" font-size="10.00"> TVector, TTensorField, TTensor &gt;</text>
</a>
</g>
</g>
<!-- Node2 -->
<g id="node2" class="node"><title>Node2</title>
<g id="a_node2"><a xlink:href="../../da/d85/classIG_1_1Num_1_1StructuredMeshGeometry2d.html" target="_top" xlink:title="Structured mesh geometry in 2 dimensions.">
<polygon fill="white" stroke="black" points="136,-196.5 136,-226.5 275,-226.5 275,-196.5 136,-196.5"/>
<text text-anchor="start" x="144" y="-214.5" font-family="Helvetica,sans-Serif" font-size="10.00">StructuredMeshGeometry2d</text>
<text text-anchor="middle" x="205.5" y="-203.5" font-family="Helvetica,sans-Serif" font-size="10.00">&lt; TCoord &gt;</text>
</a>
</g>
</g>
<!-- Node2&#45;&gt;Node1 -->
<g id="edge1" class="edge"><title>Node2&#45;&gt;Node1</title>
<path fill="none" stroke="midnightblue" d="M264.364,-193.306C292.06,-184.172 325.532,-172.511 355,-160.5 366.54,-155.796 378.656,-150.423 390.298,-145.03"/>
<polygon fill="midnightblue" stroke="midnightblue" points="263.24,-189.991 254.824,-196.428 265.417,-196.644 263.24,-189.991"/>
</g>
<!-- Node3 -->
<g id="node3" class="node"><title>Node3</title>
<g id="a_node3"><a xlink:href="../../dd/db2/classIG_1_1Num_1_1StructuredField2d.html" target="_top" xlink:title=" ">
<polygon fill="white" stroke="black" points="0,-196.5 0,-226.5 99,-226.5 99,-196.5 0,-196.5"/>
<text text-anchor="start" x="8" y="-214.5" font-family="Helvetica,sans-Serif" font-size="10.00">StructuredField2d&lt;</text>
<text text-anchor="middle" x="49.5" y="-203.5" font-family="Helvetica,sans-Serif" font-size="10.00"> TCoord &gt;</text>
</a>
</g>
</g>
<!-- Node3&#45;&gt;Node2 -->
<g id="edge2" class="edge"><title>Node3&#45;&gt;Node2</title>
<path fill="none" stroke="midnightblue" d="M109.249,-211.5C117.941,-211.5 126.961,-211.5 135.832,-211.5"/>
<polygon fill="midnightblue" stroke="midnightblue" points="109.227,-208 99.2266,-211.5 109.227,-215 109.227,-208"/>
</g>
<!-- Node4 -->
<g id="node4" class="node"><title>Node4</title>
<g id="a_node4"><a xlink:href="../../da/d3d/classIG_1_1Num_1_1FieldCollection2d.html" target="_top" xlink:title=" ">
<polygon fill="white" stroke="black" points="140,-147.5 140,-177.5 271,-177.5 271,-147.5 140,-147.5"/>
<text text-anchor="start" x="148" y="-165.5" font-family="Helvetica,sans-Serif" font-size="10.00">IG.Num.FieldCollection2d</text>
<text text-anchor="middle" x="205.5" y="-154.5" font-family="Helvetica,sans-Serif" font-size="10.00">&lt; TTensorField, TTensor &gt;</text>
</a>
</g>
</g>
<!-- Node4&#45;&gt;Node1 -->
<g id="edge3" class="edge"><title>Node4&#45;&gt;Node1</title>
<path fill="none" stroke="#9a32cd" stroke-dasharray="5,2" d="M281.242,-147.703C310.159,-141.978 343.333,-135.41 372.831,-129.57"/>
<polygon fill="#9a32cd" stroke="#9a32cd" points="280.334,-144.314 271.204,-149.69 281.694,-151.181 280.334,-144.314"/>
<text text-anchor="middle" x="324" y="-148.5" font-family="Helvetica,sans-Serif" font-size="10.00"> _tensorFields</text>
</g>
<!-- Node5 -->
<g id="node5" class="node"><title>Node5</title>
<g id="a_node5"><a xlink:href="../../da/d3d/classIG_1_1Num_1_1FieldCollection2d.html" target="_top" xlink:title=" ">
<polygon fill="white" stroke="black" points="141.5,-98.5 141.5,-128.5 269.5,-128.5 269.5,-98.5 141.5,-98.5"/>
<text text-anchor="start" x="149.5" y="-116.5" font-family="Helvetica,sans-Serif" font-size="10.00">IG.Num.FieldCollection2d</text>
<text text-anchor="middle" x="205.5" y="-105.5" font-family="Helvetica,sans-Serif" font-size="10.00">&lt; TScalarField, TScalar &gt;</text>
</a>
</g>
</g>
<!-- Node5&#45;&gt;Node1 -->
<g id="edge4" class="edge"><title>Node5&#45;&gt;Node1</title>
<path fill="none" stroke="#9a32cd" stroke-dasharray="5,2" d="M279.736,-113.5C308.98,-113.5 342.768,-113.5 372.762,-113.5"/>
<polygon fill="#9a32cd" stroke="#9a32cd" points="279.595,-110 269.595,-113.5 279.595,-117 279.595,-110"/>
<text text-anchor="middle" x="324" y="-116.5" font-family="Helvetica,sans-Serif" font-size="10.00"> _scalarFields</text>
</g>
<!-- Node6 -->
<g id="node6" class="node"><title>Node6</title>
<g id="a_node6"><a xlink:href="../../da/d3d/classIG_1_1Num_1_1FieldCollection2d.html" target="_top" xlink:title=" ">
<polygon fill="white" stroke="black" points="142,-49.5 142,-79.5 269,-79.5 269,-49.5 142,-49.5"/>
<text text-anchor="start" x="150" y="-67.5" font-family="Helvetica,sans-Serif" font-size="10.00">IG.Num.FieldCollection2d</text>
<text text-anchor="middle" x="205.5" y="-56.5" font-family="Helvetica,sans-Serif" font-size="10.00">&lt; TIndexField, TIndex &gt;</text>
</a>
</g>
</g>
<!-- Node6&#45;&gt;Node1 -->
<g id="edge5" class="edge"><title>Node6&#45;&gt;Node1</title>
<path fill="none" stroke="#9a32cd" stroke-dasharray="5,2" d="M279.417,-78.9361C308.671,-84.7277 342.511,-91.4275 372.566,-97.3778"/>
<polygon fill="#9a32cd" stroke="#9a32cd" points="279.764,-75.4369 269.275,-76.9281 278.404,-82.3037 279.764,-75.4369"/>
<text text-anchor="middle" x="324" y="-96.5" font-family="Helvetica,sans-Serif" font-size="10.00"> _indexFields</text>
</g>
<!-- Node7 -->
<g id="node7" class="node"><title>Node7</title>
<g id="a_node7"><a xlink:href="../../da/d3d/classIG_1_1Num_1_1FieldCollection2d.html" target="_top" xlink:title=" ">
<polygon fill="white" stroke="black" points="141,-0.5 141,-30.5 270,-30.5 270,-0.5 141,-0.5"/>
<text text-anchor="start" x="149" y="-18.5" font-family="Helvetica,sans-Serif" font-size="10.00">IG.Num.FieldCollection2d</text>
<text text-anchor="middle" x="205.5" y="-7.5" font-family="Helvetica,sans-Serif" font-size="10.00">&lt; TVectorField, TVector &gt;</text>
</a>
</g>
</g>
<!-- Node7&#45;&gt;Node1 -->
<g id="edge6" class="edge"><title>Node7&#45;&gt;Node1</title>
<path fill="none" stroke="#9a32cd" stroke-dasharray="5,2" d="M262.713,-33.7321C290.695,-43.1741 324.891,-55.2678 355,-67.5 365.886,-71.9227 377.306,-76.9013 388.363,-81.9071"/>
<polygon fill="#9a32cd" stroke="#9a32cd" points="263.685,-30.3668 253.091,-30.5071 261.46,-37.0038 263.685,-30.3668"/>
<text text-anchor="middle" x="324" y="-70.5" font-family="Helvetica,sans-Serif" font-size="10.00"> _vectorFields</text>
</g>
</g>
</svg>
