<?xml version="1.0" encoding="UTF-8" standalone="no"?>
<!DOCTYPE svg PUBLIC "-//W3C//DTD SVG 1.1//EN"
 "http://www.w3.org/Graphics/SVG/1.1/DTD/svg11.dtd">
<!-- Generated by graphviz version 2.38.0 (20140413.2041)
 -->
<!-- Title: IG.Lib.Copy.ServerStreamBase Pages: 1 -->
<svg width="233pt" height="252pt"
 viewBox="0.00 0.00 232.50 252.00" xmlns="http://www.w3.org/2000/svg" xmlns:xlink="http://www.w3.org/1999/xlink">
<g id="graph0" class="graph" transform="scale(1 1) rotate(0) translate(4 248)">
<title>IG.Lib.Copy.ServerStreamBase</title>
<polygon fill="white" stroke="none" points="-4,4 -4,-248 228.5,-248 228.5,4 -4,4"/>
<!-- Node1 -->
<g id="node1" class="node"><title>Node1</title>
<g id="a_node1"><a xlink:title="Server that creates a named pipe, listens on its input stream, and sends responses to the client.">
<polygon fill="#bfbfbf" stroke="black" points="9,-56.5 9,-75.5 161,-75.5 161,-56.5 9,-56.5"/>
<text text-anchor="middle" x="85" y="-63.5" font-family="Helvetica,sans-Serif" font-size="10.00">IG.Lib.Copy.ServerStreamBase</text>
</a>
</g>
</g>
<!-- Node5 -->
<g id="node5" class="node"><title>Node5</title>
<g id="a_node5"><a xlink:href="../../dc/dc6/classIG_1_1Lib_1_1Copy_1_1NamedPipeServerBase.html" target="_top" xlink:title="Server that creates a named pipe, listens on its input stream, and sends responses to the client.">
<polygon fill="white" stroke="black" points="0,-0.5 0,-19.5 170,-19.5 170,-0.5 0,-0.5"/>
<text text-anchor="middle" x="85" y="-7.5" font-family="Helvetica,sans-Serif" font-size="10.00">IG.Lib.Copy.NamedPipeServerBase</text>
</a>
</g>
</g>
<!-- Node1&#45;&gt;Node5 -->
<g id="edge6" class="edge"><title>Node1&#45;&gt;Node5</title>
<path fill="none" stroke="midnightblue" d="M85,-45.8045C85,-36.9102 85,-26.7798 85,-19.7511"/>
<polygon fill="midnightblue" stroke="midnightblue" points="81.5001,-46.083 85,-56.083 88.5001,-46.083 81.5001,-46.083"/>
</g>
<!-- Node2 -->
<g id="node2" class="node"><title>Node2</title>
<g id="a_node2"><a xlink:href="../../db/d41/classIG_1_1Lib_1_1Copy_1_1ClientServerStreamBase2.html" target="_top" xlink:title="Base class for named pipe servers and clients, contains common stuff for both.">
<polygon fill="white" stroke="black" points="67,-112.5 67,-131.5 195,-131.5 195,-112.5 67,-112.5"/>
<text text-anchor="middle" x="131" y="-119.5" font-family="Helvetica,sans-Serif" font-size="10.00">ClientServerStreamBase2</text>
</a>
</g>
</g>
<!-- Node2&#45;&gt;Node1 -->
<g id="edge1" class="edge"><title>Node2&#45;&gt;Node1</title>
<path fill="none" stroke="midnightblue" d="M116.886,-104.431C108.824,-94.9673 99.0408,-83.4827 92.4546,-75.7511"/>
<polygon fill="midnightblue" stroke="midnightblue" points="114.255,-106.74 123.404,-112.083 119.584,-102.201 114.255,-106.74"/>
</g>
<!-- Node3 -->
<g id="node3" class="node"><title>Node3</title>
<g id="a_node3"><a xlink:href="../../d5/d2f/classIG_1_1Lib_1_1Copy_1_1ClienServerStreamBase.html" target="_top" xlink:title="Base class for client and server classes with stream&#45;based communication.">
<polygon fill="white" stroke="black" points="105.5,-168.5 105.5,-187.5 224.5,-187.5 224.5,-168.5 105.5,-168.5"/>
<text text-anchor="middle" x="165" y="-175.5" font-family="Helvetica,sans-Serif" font-size="10.00">ClienServerStreamBase</text>
</a>
</g>
</g>
<!-- Node3&#45;&gt;Node2 -->
<g id="edge2" class="edge"><title>Node3&#45;&gt;Node2</title>
<path fill="none" stroke="midnightblue" d="M154.023,-159.566C148.173,-150.275 141.23,-139.248 136.51,-131.751"/>
<polygon fill="midnightblue" stroke="midnightblue" points="151.096,-161.486 159.386,-168.083 157.019,-157.756 151.096,-161.486"/>
</g>
<!-- Node4 -->
<g id="node4" class="node"><title>Node4</title>
<g id="a_node4"><a xlink:href="../../d3/db6/interfaceIG_1_1Lib_1_1ILockable.html" target="_top" xlink:title="Lockable object, has a Lock property that returns object on which lock must be performed in order to ...">
<polygon fill="white" stroke="black" points="48,-224.5 48,-243.5 106,-243.5 106,-224.5 48,-224.5"/>
<text text-anchor="middle" x="77" y="-231.5" font-family="Helvetica,sans-Serif" font-size="10.00">ILockable</text>
</a>
</g>
</g>
<!-- Node4&#45;&gt;Node1 -->
<g id="edge5" class="edge"><title>Node4&#45;&gt;Node1</title>
<path fill="none" stroke="midnightblue" d="M69.4074,-214.81C60.4936,-190.893 48.1062,-147.72 58,-112 61.8426,-98.1272 71.2268,-84.2372 77.8485,-75.6357"/>
<polygon fill="midnightblue" stroke="midnightblue" points="66.2434,-216.328 73.166,-224.348 72.756,-213.761 66.2434,-216.328"/>
</g>
<!-- Node4&#45;&gt;Node2 -->
<g id="edge4" class="edge"><title>Node4&#45;&gt;Node2</title>
<path fill="none" stroke="midnightblue" d="M80.5121,-214.262C83.4816,-200.882 88.4724,-182.72 96,-168 103.12,-154.077 114.783,-140.199 122.67,-131.614"/>
<polygon fill="midnightblue" stroke="midnightblue" points="77.055,-213.699 78.4818,-224.197 83.9133,-215.1 77.055,-213.699"/>
</g>
<!-- Node4&#45;&gt;Node3 -->
<g id="edge3" class="edge"><title>Node4&#45;&gt;Node3</title>
<path fill="none" stroke="midnightblue" d="M99.9769,-218.901C116.113,-208.999 137.181,-196.071 150.896,-187.655"/>
<polygon fill="midnightblue" stroke="midnightblue" points="97.8314,-216.111 91.1387,-224.324 101.493,-222.077 97.8314,-216.111"/>
</g>
</g>
</svg>
