<?xml version="1.0" encoding="UTF-8" standalone="no"?>
<!DOCTYPE svg PUBLIC "-//W3C//DTD SVG 1.1//EN"
 "http://www.w3.org/Graphics/SVG/1.1/DTD/svg11.dtd">
<!-- Generated by graphviz version 2.38.0 (20140413.2041)
 -->
<!-- Title: IG.Num.IResponseEvaluatorVectorSimple Pages: 1 -->
<svg width="729pt" height="113pt"
 viewBox="0.00 0.00 729.00 112.97" xmlns="http://www.w3.org/2000/svg" xmlns:xlink="http://www.w3.org/1999/xlink">
<g id="graph0" class="graph" transform="scale(1 1) rotate(0) translate(4 108.969)">
<title>IG.Num.IResponseEvaluatorVectorSimple</title>
<polygon fill="white" stroke="none" points="-4,4 -4,-108.969 725,-108.969 725,4 -4,4"/>
<!-- Node1 -->
<g id="node1" class="node"><title>Node1</title>
<g id="a_node1"><a xlink:title="Interface for simulators and other systems (used e.g. for optimization) that can calculate vector res...">
<polygon fill="#bfbfbf" stroke="black" points="0,-38.4685 0,-68.4685 138,-68.4685 138,-38.4685 0,-38.4685"/>
<text text-anchor="start" x="8" y="-56.4685" font-family="Helvetica,sans-Serif" font-size="10.00">IG.Num.IResponseEvaluator</text>
<text text-anchor="middle" x="69" y="-45.4685" font-family="Helvetica,sans-Serif" font-size="10.00">VectorSimple</text>
</a>
</g>
</g>
<!-- Node2 -->
<g id="node2" class="node"><title>Node2</title>
<g id="a_node2"><a xlink:href="../../d9/dfc/classIG_1_1Num_1_1SimKosecFileManagerBase.html" target="_top" xlink:title="File manager for interfacing (for optimization purposes) the simulation code of Gregor Kosec.">
<polygon fill="white" stroke="black" points="174,-24.9685 174,-43.9685 347,-43.9685 347,-24.9685 174,-24.9685"/>
<text text-anchor="middle" x="260.5" y="-31.9685" font-family="Helvetica,sans-Serif" font-size="10.00">IG.Num.SimKosecFileManagerBase</text>
</a>
</g>
</g>
<!-- Node1&#45;&gt;Node2 -->
<g id="edge1" class="edge"><title>Node1&#45;&gt;Node2</title>
<path fill="none" stroke="midnightblue" d="M148.302,-45.6177C156.715,-44.7742 165.307,-43.9127 173.801,-43.061"/>
<polygon fill="midnightblue" stroke="midnightblue" points="147.747,-42.1557 138.146,-46.6359 148.445,-49.1208 147.747,-42.1557"/>
</g>
<!-- Node3 -->
<g id="node3" class="node"><title>Node3</title>
<g id="a_node3"><a xlink:href="../../df/dee/classIG_1_1Num_1_1SimKosecFileManagerConvBase.html" target="_top" xlink:title="Base class for interface with simulator of G. Kosec for convection problems in a cave with obstacles.">
<polygon fill="white" stroke="black" points="383,-27.4685 383,-57.4685 534,-57.4685 534,-27.4685 383,-27.4685"/>
<text text-anchor="start" x="391" y="-45.4685" font-family="Helvetica,sans-Serif" font-size="10.00">IG.Num.SimKosecFileManager</text>
<text text-anchor="middle" x="458.5" y="-34.4685" font-family="Helvetica,sans-Serif" font-size="10.00">ConvBase</text>
</a>
</g>
</g>
<!-- Node1&#45;&gt;Node3 -->
<g id="edge7" class="edge"><title>Node1&#45;&gt;Node3</title>
<path fill="none" stroke="midnightblue" d="M148.181,-55.5341C203.695,-56.4962 279.966,-56.7968 347,-53.4685 358.649,-52.8901 370.964,-51.9708 382.979,-50.9039"/>
<polygon fill="midnightblue" stroke="midnightblue" points="148.127,-52.0326 138.064,-55.3475 147.998,-59.0314 148.127,-52.0326"/>
</g>
<!-- Node4 -->
<g id="node4" class="node"><title>Node4</title>
<g id="a_node4"><a xlink:href="../../d3/d50/classIG_1_1Num_1_1SimKosecFileManagerConv2.html" target="_top" xlink:title="Interface with simulator of G. Kosec for convection problems in a cave with 2 obstacles.">
<polygon fill="white" stroke="black" points="570,-74.4685 570,-104.469 721,-104.469 721,-74.4685 570,-74.4685"/>
<text text-anchor="start" x="578" y="-92.4685" font-family="Helvetica,sans-Serif" font-size="10.00">IG.Num.SimKosecFileManager</text>
<text text-anchor="middle" x="645.5" y="-81.4685" font-family="Helvetica,sans-Serif" font-size="10.00">Conv2</text>
</a>
</g>
</g>
<!-- Node1&#45;&gt;Node4 -->
<g id="edge5" class="edge"><title>Node1&#45;&gt;Node4</title>
<path fill="none" stroke="midnightblue" d="M148.25,-66.4519C156.921,-67.609 165.637,-68.65 174,-69.4685 313.344,-83.1071 476.804,-87.4485 569.761,-88.8283"/>
<polygon fill="midnightblue" stroke="midnightblue" points="148.5,-62.9533 138.114,-65.0467 147.539,-69.8869 148.5,-62.9533"/>
</g>
<!-- Node5 -->
<g id="node5" class="node"><title>Node5</title>
<g id="a_node5"><a xlink:href="../../d4/d0f/classIG_1_1Num_1_1SimKosecFileManagerConv3.html" target="_top" xlink:title="Interface with simulator of G. Kosec for convection problems in a cave with 3 obstacles.">
<polygon fill="white" stroke="black" points="570,-4.46854 570,-34.4685 721,-34.4685 721,-4.46854 570,-4.46854"/>
<text text-anchor="start" x="578" y="-22.4685" font-family="Helvetica,sans-Serif" font-size="10.00">IG.Num.SimKosecFileManager</text>
<text text-anchor="middle" x="645.5" y="-11.4685" font-family="Helvetica,sans-Serif" font-size="10.00">Conv3</text>
</a>
</g>
</g>
<!-- Node1&#45;&gt;Node5 -->
<g id="edge6" class="edge"><title>Node1&#45;&gt;Node5</title>
<path fill="none" stroke="midnightblue" d="M111.798,-34.3962C130.423,-26.9013 152.884,-19.2055 174,-15.4685 311.95,8.94449 476.227,-1.1473 569.645,-10.4693"/>
<polygon fill="midnightblue" stroke="midnightblue" points="110.335,-31.2139 102.436,-38.2752 113.014,-37.6808 110.335,-31.2139"/>
</g>
<!-- Node2&#45;&gt;Node3 -->
<g id="edge2" class="edge"><title>Node2&#45;&gt;Node3</title>
<path fill="none" stroke="midnightblue" d="M357.221,-38.3755C365.793,-38.7254 374.389,-39.0763 382.746,-39.4174"/>
<polygon fill="midnightblue" stroke="midnightblue" points="357.318,-34.8767 347.183,-37.9658 357.032,-41.8708 357.318,-34.8767"/>
</g>
<!-- Node3&#45;&gt;Node4 -->
<g id="edge3" class="edge"><title>Node3&#45;&gt;Node4</title>
<path fill="none" stroke="midnightblue" d="M528.478,-59.9928C547.187,-64.7458 567.271,-69.8482 585.383,-74.4495"/>
<polygon fill="midnightblue" stroke="midnightblue" points="529.098,-56.539 518.544,-57.4689 527.374,-63.3235 529.098,-56.539"/>
</g>
<!-- Node3&#45;&gt;Node5 -->
<g id="edge4" class="edge"><title>Node3&#45;&gt;Node5</title>
<path fill="none" stroke="midnightblue" d="M544.19,-31.9396C552.738,-30.8768 561.376,-29.8029 569.809,-28.7545"/>
<polygon fill="midnightblue" stroke="midnightblue" points="543.705,-28.4728 534.213,-33.1799 544.569,-35.4193 543.705,-28.4728"/>
</g>
</g>
</svg>
