<?xml version="1.0" encoding="UTF-8" standalone="no"?>
<!DOCTYPE svg PUBLIC "-//W3C//DTD SVG 1.1//EN"
 "http://www.w3.org/Graphics/SVG/1.1/DTD/svg11.dtd">
<!-- Generated by graphviz version 2.38.0 (20140413.2041)
 -->
<!-- Title: IG.Lib.CommandLine Pages: 1 -->
<svg width="467pt" height="180pt"
 viewBox="0.00 0.00 467.00 180.00" xmlns="http://www.w3.org/2000/svg" xmlns:xlink="http://www.w3.org/1999/xlink">
<g id="graph0" class="graph" transform="scale(1 1) rotate(0) translate(4 176)">
<title>IG.Lib.CommandLine</title>
<polygon fill="white" stroke="none" points="-4,4 -4,-176 463,-176 463,4 -4,4"/>
<!-- Node1 -->
<g id="node1" class="node"><title>Node1</title>
<g id="a_node1"><a xlink:title="Represents a single command&#45;line that can be executed. $A Igor Feb09;">
<polygon fill="#bfbfbf" stroke="black" points="352,-76.5 352,-95.5 459,-95.5 459,-76.5 352,-76.5"/>
<text text-anchor="middle" x="405.5" y="-83.5" font-family="Helvetica,sans-Serif" font-size="10.00">IG.Lib.CommandLine</text>
</a>
</g>
</g>
<!-- Node2 -->
<g id="node2" class="node"><title>Node2</title>
<g id="a_node2"><a xlink:href="../../d0/de6/classIG_1_1Lib_1_1InterpreterCommandBase.html" target="_top" xlink:title=" ">
<polygon fill="white" stroke="black" points="176,-152.5 176,-171.5 303,-171.5 303,-152.5 176,-152.5"/>
<text text-anchor="middle" x="239.5" y="-159.5" font-family="Helvetica,sans-Serif" font-size="10.00">InterpreterCommandBase</text>
</a>
</g>
</g>
<!-- Node2&#45;&gt;Node1 -->
<g id="edge1" class="edge"><title>Node2&#45;&gt;Node1</title>
<path fill="none" stroke="midnightblue" d="M298.074,-149.608C304.221,-147.668 310.304,-145.471 316,-143 345.34,-130.27 375.923,-108.308 392.339,-95.6849"/>
<polygon fill="midnightblue" stroke="midnightblue" points="297.014,-146.271 288.406,-152.449 298.987,-152.987 297.014,-146.271"/>
</g>
<!-- Node3 -->
<g id="node3" class="node"><title>Node3</title>
<g id="a_node3"><a xlink:href="../../d2/dc2/interfaceIG_1_1Lib_1_1IInterpreterCommandData.html" target="_top" xlink:title=" ">
<polygon fill="white" stroke="black" points="0,-152.5 0,-171.5 127,-171.5 127,-152.5 0,-152.5"/>
<text text-anchor="middle" x="63.5" y="-159.5" font-family="Helvetica,sans-Serif" font-size="10.00">IInterpreterCommandData</text>
</a>
</g>
</g>
<!-- Node3&#45;&gt;Node2 -->
<g id="edge2" class="edge"><title>Node3&#45;&gt;Node2</title>
<path fill="none" stroke="midnightblue" d="M137.429,-162C150.175,-162 163.334,-162 175.774,-162"/>
<polygon fill="midnightblue" stroke="midnightblue" points="137.318,-158.5 127.318,-162 137.318,-165.5 137.318,-158.5"/>
</g>
<!-- Node4 -->
<g id="node4" class="node"><title>Node4</title>
<g id="a_node4"><a xlink:href="../../da/d2c/interfaceIG_1_1Lib_1_1IInterpreterCommand.html" target="_top" xlink:title=" ">
<polygon fill="white" stroke="black" points="186,-114.5 186,-133.5 293,-133.5 293,-114.5 186,-114.5"/>
<text text-anchor="middle" x="239.5" y="-121.5" font-family="Helvetica,sans-Serif" font-size="10.00">IInterpreterCommand</text>
</a>
</g>
</g>
<!-- Node4&#45;&gt;Node1 -->
<g id="edge3" class="edge"><title>Node4&#45;&gt;Node1</title>
<path fill="none" stroke="midnightblue" d="M291.841,-112.104C314.893,-106.763 341.721,-100.546 363.413,-95.5201"/>
<polygon fill="midnightblue" stroke="midnightblue" points="290.836,-108.744 281.884,-114.411 292.416,-115.563 290.836,-108.744"/>
</g>
<!-- Node5 -->
<g id="node5" class="node"><title>Node5</title>
<g id="a_node5"><a xlink:href="../../d3/db6/interfaceIG_1_1Lib_1_1ILockable.html" target="_top" xlink:title="Lockable object, has a Lock property that returns object on which lock must be performed in order to ...">
<polygon fill="white" stroke="black" points="210.5,-76.5 210.5,-95.5 268.5,-95.5 268.5,-76.5 210.5,-76.5"/>
<text text-anchor="middle" x="239.5" y="-83.5" font-family="Helvetica,sans-Serif" font-size="10.00">ILockable</text>
</a>
</g>
</g>
<!-- Node5&#45;&gt;Node1 -->
<g id="edge4" class="edge"><title>Node5&#45;&gt;Node1</title>
<path fill="none" stroke="midnightblue" d="M278.861,-86C300.605,-86 328.125,-86 351.863,-86"/>
<polygon fill="midnightblue" stroke="midnightblue" points="278.693,-82.5001 268.693,-86 278.693,-89.5001 278.693,-82.5001"/>
</g>
<!-- Node6 -->
<g id="node6" class="node"><title>Node6</title>
<g id="a_node6"><a xlink:title=" ">
<polygon fill="white" stroke="#bfbfbf" points="206,-38.5 206,-57.5 273,-57.5 273,-38.5 206,-38.5"/>
<text text-anchor="middle" x="239.5" y="-45.5" font-family="Helvetica,sans-Serif" font-size="10.00">IDisposable</text>
</a>
</g>
</g>
<!-- Node6&#45;&gt;Node1 -->
<g id="edge5" class="edge"><title>Node6&#45;&gt;Node1</title>
<path fill="none" stroke="midnightblue" d="M283.124,-57.8762C307.849,-63.6053 338.839,-70.7858 363.315,-76.4572"/>
<polygon fill="midnightblue" stroke="midnightblue" points="283.826,-54.4462 273.294,-55.5985 282.246,-61.2656 283.826,-54.4462"/>
</g>
<!-- Node7 -->
<g id="node7" class="node"><title>Node7</title>
<g id="a_node7"><a xlink:href="../../d5/d7a/interfaceIG_1_1Lib_1_1IRegisterable.html" target="_top" xlink:title=" ">
<polygon fill="white" stroke="black" points="163,-0.5 163,-19.5 316,-19.5 316,-0.5 163,-0.5"/>
<text text-anchor="middle" x="239.5" y="-7.5" font-family="Helvetica,sans-Serif" font-size="10.00">IRegisterable&lt; CommandLine &gt;</text>
</a>
</g>
</g>
<!-- Node7&#45;&gt;Node1 -->
<g id="edge6" class="edge"><title>Node7&#45;&gt;Node1</title>
<path fill="none" stroke="midnightblue" d="M298.074,-22.3921C304.221,-24.3324 310.304,-26.5286 316,-29 345.34,-41.7298 375.923,-63.6917 392.339,-76.3151"/>
<polygon fill="midnightblue" stroke="midnightblue" points="298.987,-19.0128 288.406,-19.5511 297.014,-25.7288 298.987,-19.0128"/>
</g>
</g>
</svg>
