<?xml version="1.0" encoding="UTF-8" standalone="no"?>
<!DOCTYPE svg PUBLIC "-//W3C//DTD SVG 1.1//EN"
 "http://www.w3.org/Graphics/SVG/1.1/DTD/svg11.dtd">
<!-- Generated by graphviz version 2.38.0 (20140413.2041)
 -->
<!-- Title: IG.Num.M Pages: 1 -->
<!--zoomable 241 -->
<svg id="main" version="1.1" xmlns="http://www.w3.org/2000/svg" xmlns:xlink="http://www.w3.org/1999/xlink" xml:space="preserve" onload="init(evt)">
<style type="text/css"><![CDATA[
.edge:hover path { stroke: red; }
.edge:hover polygon { stroke: red; fill: red; }
]]></style>
<script type="text/javascript"><![CDATA[
var edges = document.getElementsByTagName('g');
if (edges && edges.length) {
  for (var i=0;i<edges.length;i++) {
    if (edges[i].id.substr(0,4)=='edge') {
      edges[i].setAttribute('class','edge');
    }
  }
}
]]></script>
        <defs>
                <circle id="rim" cx="0" cy="0" r="7"/>
                <circle id="rim2" cx="0" cy="0" r="3.5"/>
                <g id="zoomPlus">
                        <use xlink:href="#rim" fill="#404040">
                                <set attributeName="fill" to="#808080" begin="zoomplus.mouseover" end="zoomplus.mouseout"/>
                        </use>
                        <path d="M-4,0h8M0,-4v8" fill="none" stroke="white" stroke-width="1.5" pointer-events="none"/>
                </g>
                <g id="zoomMin">
                        <use xlink:href="#rim" fill="#404040">
                                <set attributeName="fill" to="#808080" begin="zoomminus.mouseover" end="zoomminus.mouseout"/>
                        </use>
                        <path d="M-4,0h8" fill="none" stroke="white" stroke-width="1.5" pointer-events="none"/>
                </g>
                <g id="dirArrow">
                        <path fill="none" stroke="white" stroke-width="1.5" d="M0,-3.0v7 M-2.5,-0.5L0,-3.0L2.5,-0.5"/>
                </g>
               <g id="resetDef">
                       <use xlink:href="#rim2" fill="#404040">
                               <set attributeName="fill" to="#808080" begin="reset.mouseover" end="reset.mouseout"/>
                       </use>
               </g>
        </defs>

<script type="text/javascript">
var viewWidth = 603;
var viewHeight = 241;
var sectionId = 'dynsection-0';
</script>
<script xlink:href="../../svgpan.js"/>
<svg id="graph" class="graph">
<g id="viewport">
<title>IG.Num.M</title>
<polygon fill="white" stroke="none" points="-4,4 -4,-236.5 599,-236.5 599,4 -4,4"/>
<!-- Node1 -->
<g id="node1" class="node"><title>Node1</title>
<g id="a_node1"><a xlink:title="Defines some mathematical functions to be used in derived and other classes.">
<polygon fill="#bfbfbf" stroke="black" points="0,-118 0,-137 61,-137 61,-118 0,-118"/>
<text text-anchor="middle" x="30.5" y="-125" font-family="Helvetica,sans-Serif" font-size="10.00">IG.Num.M</text>
</a>
</g>
</g>
<!-- Node2 -->
<g id="node2" class="node"><title>Node2</title>
<g id="a_node2"><a xlink:href="../../d8/d6f/classIG_1_1Num_1_1ExampleMathClass.html" target="_top" xlink:title="Example class that derives from the M class. Implements a method that uses basic mathematical functio...">
<polygon fill="white" stroke="black" points="103,-213 103,-232 240,-232 240,-213 103,-213"/>
<text text-anchor="middle" x="171.5" y="-220" font-family="Helvetica,sans-Serif" font-size="10.00">IG.Num.ExampleMathClass</text>
</a>
</g>
</g>
<!-- Node1&#45;&gt;Node2 -->
<g id="edge1" class="edge"><title>Node1&#45;&gt;Node2</title>
<path fill="none" stroke="midnightblue" d="M42.5358,-145.791C54.001,-163.223 73.5349,-188.912 97,-203.5 103.268,-207.397 110.311,-210.498 117.49,-212.965"/>
<polygon fill="midnightblue" stroke="midnightblue" points="45.3276,-143.657 37.0226,-137.079 39.4125,-147.4 45.3276,-143.657"/>
</g>
<!-- Node3 -->
<g id="node3" class="node"><title>Node3</title>
<g id="a_node3"><a xlink:href="../../df/dd5/classIG_1_1Num_1_1Func3d2dExamples.html" target="_top" xlink:title="Contains a number of example 3D vector functions of 2 variables.">
<polygon fill="white" stroke="black" points="102,-175 102,-194 241,-194 241,-175 102,-175"/>
<text text-anchor="middle" x="171.5" y="-182" font-family="Helvetica,sans-Serif" font-size="10.00">IG.Num.Func3d2dExamples</text>
</a>
</g>
</g>
<!-- Node1&#45;&gt;Node3 -->
<g id="edge2" class="edge"><title>Node1&#45;&gt;Node3</title>
<path fill="none" stroke="midnightblue" d="M54.1384,-142.696C66.4065,-150.391 82.0739,-159.376 97,-165.5 106.023,-169.202 115.971,-172.351 125.556,-174.958"/>
<polygon fill="midnightblue" stroke="midnightblue" points="55.7917,-139.598 45.4881,-137.131 52.0044,-145.485 55.7917,-139.598"/>
</g>
<!-- Node4 -->
<g id="node4" class="node"><title>Node4</title>
<g id="a_node4"><a xlink:href="../../d7/d48/classIG_1_1Num_1_1MExt.html" target="_top" xlink:title="Defines some mathematical functions to be used in derived classes. In addition to functions defined i...">
<polygon fill="white" stroke="black" points="133.5,-137 133.5,-156 209.5,-156 209.5,-137 133.5,-137"/>
<text text-anchor="middle" x="171.5" y="-144" font-family="Helvetica,sans-Serif" font-size="10.00">IG.Num.MExt</text>
</a>
</g>
</g>
<!-- Node1&#45;&gt;Node4 -->
<g id="edge3" class="edge"><title>Node1&#45;&gt;Node4</title>
<path fill="none" stroke="midnightblue" d="M71.4064,-132.955C90.8872,-135.618 114.182,-138.802 133.291,-141.414"/>
<polygon fill="midnightblue" stroke="midnightblue" points="71.7009,-129.463 61.319,-131.576 70.7528,-136.398 71.7009,-129.463"/>
</g>
<!-- Node7 -->
<g id="node7" class="node"><title>Node7</title>
<g id="a_node7"><a xlink:href="../../df/d6a/classIG_1_1Num_1_1UtilMath.html" target="_top" xlink:title="Additional mathematical utilities. Needs cleanup (instead of methods acting on IVector,...">
<polygon fill="white" stroke="black" points="127,-99 127,-118 216,-118 216,-99 127,-99"/>
<text text-anchor="middle" x="171.5" y="-106" font-family="Helvetica,sans-Serif" font-size="10.00">IG.Num.UtilMath</text>
</a>
</g>
</g>
<!-- Node1&#45;&gt;Node7 -->
<g id="edge6" class="edge"><title>Node1&#45;&gt;Node7</title>
<path fill="none" stroke="midnightblue" d="M71.631,-122.014C88.8865,-119.656 109.102,-116.893 126.741,-114.481"/>
<polygon fill="midnightblue" stroke="midnightblue" points="70.7528,-118.602 61.319,-123.424 71.7009,-125.537 70.7528,-118.602"/>
</g>
<!-- Node8 -->
<g id="node8" class="node"><title>Node8</title>
<g id="a_node8"><a xlink:href="../../d3/d1b/classIG_1_1Script_1_1ScritpRealFunctionExample_1_1Container.html" target="_top" xlink:title="Container class inherits from M in order to enable use of comfortable mathematical functions.">
<polygon fill="white" stroke="black" points="101.5,-49.5 101.5,-79.5 241.5,-79.5 241.5,-49.5 101.5,-49.5"/>
<text text-anchor="start" x="109.5" y="-67.5" font-family="Helvetica,sans-Serif" font-size="10.00">IG.Script.ScritpRealFunction</text>
<text text-anchor="middle" x="171.5" y="-56.5" font-family="Helvetica,sans-Serif" font-size="10.00">Example.Container</text>
</a>
</g>
</g>
<!-- Node1&#45;&gt;Node8 -->
<g id="edge7" class="edge"><title>Node1&#45;&gt;Node8</title>
<path fill="none" stroke="midnightblue" d="M54.8151,-112.46C67.0626,-104.952 82.5044,-96.0916 97,-89.5 104.852,-85.9293 113.372,-82.5814 121.735,-79.5682"/>
<polygon fill="midnightblue" stroke="midnightblue" points="52.7687,-109.611 46.1406,-117.877 56.4765,-115.549 52.7687,-109.611"/>
</g>
<!-- Node9 -->
<g id="node9" class="node"><title>Node9</title>
<g id="a_node9"><a xlink:href="../../d1/dd4/classIG_1_1Script_1_1ScritpScalarFunctionExample_1_1Container.html" target="_top" xlink:title="Container class inherits from M in order to enable use of comfortable mathematical functions.">
<polygon fill="white" stroke="black" points="97,-0.5 97,-30.5 246,-30.5 246,-0.5 97,-0.5"/>
<text text-anchor="start" x="105" y="-18.5" font-family="Helvetica,sans-Serif" font-size="10.00">IG.Script.ScritpScalarFunction</text>
<text text-anchor="middle" x="171.5" y="-7.5" font-family="Helvetica,sans-Serif" font-size="10.00">Example.Container</text>
</a>
</g>
</g>
<!-- Node1&#45;&gt;Node9 -->
<g id="edge8" class="edge"><title>Node1&#45;&gt;Node9</title>
<path fill="none" stroke="midnightblue" d="M41.0169,-109.003C52.0071,-89.3675 71.8469,-58.7111 97,-40.5 102.35,-36.6269 108.344,-33.3206 114.54,-30.5059"/>
<polygon fill="midnightblue" stroke="midnightblue" points="37.8861,-107.434 36.2214,-117.898 44.0477,-110.756 37.8861,-107.434"/>
</g>
<!-- Node5 -->
<g id="node5" class="node"><title>Node5</title>
<g id="a_node5"><a xlink:href="../../d8/d55/classIG_1_1Num_1_1Experimental_1_1MX.html" target="_top" xlink:title="Defines some mathematical functions to be used in derived classes. Beside the auxiliary functions alr...">
<polygon fill="white" stroke="black" points="282,-137 282,-156 408,-156 408,-137 282,-137"/>
<text text-anchor="middle" x="345" y="-144" font-family="Helvetica,sans-Serif" font-size="10.00">IG.Num.Experimental.MX</text>
</a>
</g>
</g>
<!-- Node4&#45;&gt;Node5 -->
<g id="edge4" class="edge"><title>Node4&#45;&gt;Node5</title>
<path fill="none" stroke="midnightblue" d="M219.724,-146.5C238.934,-146.5 261.399,-146.5 281.907,-146.5"/>
<polygon fill="midnightblue" stroke="midnightblue" points="219.713,-143 209.713,-146.5 219.713,-150 219.713,-143"/>
</g>
<!-- Node6 -->
<g id="node6" class="node"><title>Node6</title>
<g id="a_node6"><a xlink:href="../../d4/d5a/classIG_1_1Num_1_1Experimental_1_1ExampleMathClassExperimental.html" target="_top" xlink:title="Example class that derives from the M class. Implements a method that uses basic mathematical functio...">
<polygon fill="white" stroke="black" points="444,-131.5 444,-161.5 595,-161.5 595,-131.5 444,-131.5"/>
<text text-anchor="start" x="452" y="-149.5" font-family="Helvetica,sans-Serif" font-size="10.00">IG.Num.Experimental.Example</text>
<text text-anchor="middle" x="519.5" y="-138.5" font-family="Helvetica,sans-Serif" font-size="10.00">MathClassExperimental</text>
</a>
</g>
</g>
<!-- Node5&#45;&gt;Node6 -->
<g id="edge5" class="edge"><title>Node5&#45;&gt;Node6</title>
<path fill="none" stroke="midnightblue" d="M418.454,-146.5C426.889,-146.5 435.505,-146.5 443.968,-146.5"/>
<polygon fill="midnightblue" stroke="midnightblue" points="418.276,-143 408.276,-146.5 418.276,-150 418.276,-143"/>
</g>
</g>
</svg>
        <g id="navigator" transform="translate(0 0)" fill="#404254">
                <rect fill="#f2f5e9" fill-opacity="0.5" stroke="#606060" stroke-width=".5" x="0" y="0" width="60" height="60"/>
                <use id="zoomplus" xlink:href="#zoomPlus" x="17" y="9" onmousedown="handleZoom(evt,'in')"/>
                <use id="zoomminus" xlink:href="#zoomMin" x="42" y="9" onmousedown="handleZoom(evt,'out')"/>
                <use id="reset" xlink:href="#resetDef" x="30" y="36" onmousedown="handleReset()"/>
                <g id="arrowUp" xlink:href="#dirArrow" transform="translate(30 24)" onmousedown="handlePan(0,-1)">
                  <use xlink:href="#rim" fill="#404040">
                        <set attributeName="fill" to="#808080" begin="arrowUp.mouseover" end="arrowUp.mouseout"/>
                  </use>
                  <path fill="none" stroke="white" stroke-width="1.5" d="M0,-3.0v7 M-2.5,-0.5L0,-3.0L2.5,-0.5"/>
                </g>
                <g id="arrowRight" xlink:href="#dirArrow" transform="rotate(90) translate(36 -43)" onmousedown="handlePan(1,0)">
                  <use xlink:href="#rim" fill="#404040">
                        <set attributeName="fill" to="#808080" begin="arrowRight.mouseover" end="arrowRight.mouseout"/>
                  </use>
                  <path fill="none" stroke="white" stroke-width="1.5" d="M0,-3.0v7 M-2.5,-0.5L0,-3.0L2.5,-0.5"/>
                </g>
                <g id="arrowDown" xlink:href="#dirArrow" transform="rotate(180) translate(-30 -48)" onmousedown="handlePan(0,1)">
                  <use xlink:href="#rim" fill="#404040">
                        <set attributeName="fill" to="#808080" begin="arrowDown.mouseover" end="arrowDown.mouseout"/>
                  </use>
                  <path fill="none" stroke="white" stroke-width="1.5" d="M0,-3.0v7 M-2.5,-0.5L0,-3.0L2.5,-0.5"/>
                </g>
                <g id="arrowLeft" xlink:href="#dirArrow" transform="rotate(270) translate(-36 17)" onmousedown="handlePan(-1,0)">
                  <use xlink:href="#rim" fill="#404040">
                        <set attributeName="fill" to="#808080" begin="arrowLeft.mouseover" end="arrowLeft.mouseout"/>
                  </use>
                  <path fill="none" stroke="white" stroke-width="1.5" d="M0,-3.0v7 M-2.5,-0.5L0,-3.0L2.5,-0.5"/>
                </g>
        </g>
        <svg viewBox="0 0 15 15" width="100%" height="30px" preserveAspectRatio="xMaxYMin meet">
         <g id="arrow_out" transform="scale(0.3 0.3)">
          <a xlink:href="classIG_1_1Num_1_1M__inherit__graph_org.svg" target="_base">
           <rect id="button" ry="5" rx="5" y="6" x="6" height="38" width="38"
                fill="#f2f5e9" fill-opacity="0.5" stroke="#606060" stroke-width="1.0"/>
           <path id="arrow"
             d="M 11.500037,31.436501 C 11.940474,20.09759 22.043105,11.32322 32.158766,21.979434 L 37.068811,17.246167 C 37.068811,17.246167 37.088388,32 37.088388,32 L 22.160133,31.978069 C 22.160133,31.978069 26.997745,27.140456 26.997745,27.140456 C 18.528582,18.264221 13.291696,25.230495 11.500037,31.436501 z"
             style="fill:#404040;"/>
          </a>
         </g>
        </svg>
</svg>
