<?xml version="1.0" encoding="UTF-8" standalone="no"?>
<!DOCTYPE svg PUBLIC "-//W3C//DTD SVG 1.1//EN"
 "http://www.w3.org/Graphics/SVG/1.1/DTD/svg11.dtd">
<!-- Generated by graphviz version 2.38.0 (20140413.2041)
 -->
<!-- Title: IG.Num.Func2dBase Pages: 1 -->
<svg width="290pt" height="140pt"
 viewBox="0.00 0.00 290.00 140.00" xmlns="http://www.w3.org/2000/svg" xmlns:xlink="http://www.w3.org/1999/xlink">
<g id="graph0" class="graph" transform="scale(1 1) rotate(0) translate(4 136)">
<title>IG.Num.Func2dBase</title>
<polygon fill="white" stroke="none" points="-4,4 -4,-136 286,-136 286,4 -4,4"/>
<!-- Node1 -->
<g id="node1" class="node"><title>Node1</title>
<g id="a_node1"><a xlink:title="Base class for scalar functions of 2 variables (base for implementation of IFunc2d interface).">
<polygon fill="#bfbfbf" stroke="black" points="76,-0.5 76,-19.5 183,-19.5 183,-0.5 76,-0.5"/>
<text text-anchor="middle" x="129.5" y="-7.5" font-family="Helvetica,sans-Serif" font-size="10.00">IG.Num.Func2dBase</text>
</a>
</g>
</g>
<!-- Node2 -->
<g id="node2" class="node"><title>Node2</title>
<g id="a_node2"><a xlink:href="../../d2/d9e/classIG_1_1Num_1_1ScalarFunctionUntransformedBase.html" target="_top" xlink:title="Base class for defining scalar functions without possibility of affine transformation of parameters.">
<polygon fill="white" stroke="black" points="46,-56.5 46,-75.5 213,-75.5 213,-56.5 46,-56.5"/>
<text text-anchor="middle" x="129.5" y="-63.5" font-family="Helvetica,sans-Serif" font-size="10.00">ScalarFunctionUntransformedBase</text>
</a>
</g>
</g>
<!-- Node2&#45;&gt;Node1 -->
<g id="edge1" class="edge"><title>Node2&#45;&gt;Node1</title>
<path fill="none" stroke="midnightblue" d="M129.5,-45.8045C129.5,-36.9102 129.5,-26.7798 129.5,-19.7511"/>
<polygon fill="midnightblue" stroke="midnightblue" points="126,-46.083 129.5,-56.083 133,-46.083 126,-46.083"/>
</g>
<!-- Node3 -->
<g id="node3" class="node"><title>Node3</title>
<g id="a_node3"><a xlink:href="../../d8/d56/interfaceIG_1_1Num_1_1IScalarFunctionUntransformed.html" target="_top" xlink:title="Scalar functions of vector arguments.">
<polygon fill="white" stroke="black" points="0,-112.5 0,-131.5 147,-131.5 147,-112.5 0,-112.5"/>
<text text-anchor="middle" x="73.5" y="-119.5" font-family="Helvetica,sans-Serif" font-size="10.00">IScalarFunctionUntransformed</text>
</a>
</g>
</g>
<!-- Node3&#45;&gt;Node1 -->
<g id="edge4" class="edge"><title>Node3&#45;&gt;Node1</title>
<path fill="none" stroke="midnightblue" d="M54.9164,-105.78C41.0001,-92.4688 26.0234,-72.7079 36.5,-56 48.3156,-37.1566 70.5044,-26.0099 90.2452,-19.5247"/>
<polygon fill="midnightblue" stroke="midnightblue" points="52.5846,-108.39 62.3702,-112.451 57.2529,-103.174 52.5846,-108.39"/>
</g>
<!-- Node3&#45;&gt;Node2 -->
<g id="edge2" class="edge"><title>Node3&#45;&gt;Node2</title>
<path fill="none" stroke="midnightblue" d="M89.8299,-105.253C99.765,-95.6731 112.088,-83.7906 120.339,-75.8339"/>
<polygon fill="midnightblue" stroke="midnightblue" points="87.2664,-102.863 82.4974,-112.324 92.1253,-107.902 87.2664,-102.863"/>
</g>
<!-- Node4 -->
<g id="node4" class="node"><title>Node4</title>
<g id="a_node4"><a xlink:href="../../d8/d15/interfaceIG_1_1Num_1_1IFunc2d.html" target="_top" xlink:title="Represents scalar functions of 2 variables.">
<polygon fill="white" stroke="black" points="231,-56.5 231,-75.5 282,-75.5 282,-56.5 231,-56.5"/>
<text text-anchor="middle" x="256.5" y="-63.5" font-family="Helvetica,sans-Serif" font-size="10.00">IFunc2d</text>
</a>
</g>
</g>
<!-- Node4&#45;&gt;Node1 -->
<g id="edge3" class="edge"><title>Node4&#45;&gt;Node1</title>
<path fill="none" stroke="midnightblue" d="M227.109,-52.503C203.3,-42.3795 170.394,-28.388 149.529,-19.5164"/>
<polygon fill="midnightblue" stroke="midnightblue" points="225.804,-55.7515 236.376,-56.4435 228.543,-49.3096 225.804,-55.7515"/>
</g>
</g>
</svg>
