<?xml version="1.0" encoding="UTF-8" standalone="no"?>
<!DOCTYPE svg PUBLIC "-//W3C//DTD SVG 1.1//EN"
 "http://www.w3.org/Graphics/SVG/1.1/DTD/svg11.dtd">
<!-- Generated by graphviz version 2.38.0 (20140413.2041)
 -->
<!-- Title: IG.Num.Func3d2dBase Pages: 1 -->
<svg width="312pt" height="231pt"
 viewBox="0.00 0.00 312.00 231.00" xmlns="http://www.w3.org/2000/svg" xmlns:xlink="http://www.w3.org/1999/xlink">
<g id="graph0" class="graph" transform="scale(1 1) rotate(0) translate(4 227)">
<title>IG.Num.Func3d2dBase</title>
<polygon fill="white" stroke="none" points="-4,4 -4,-227 308,-227 308,4 -4,4"/>
<!-- Node1 -->
<g id="node1" class="node"><title>Node1</title>
<g id="a_node1"><a xlink:title="Base class for 3D vector functions of 2 variables (base for implementation of IFunc3d2d interface).">
<polygon fill="#bfbfbf" stroke="black" points="23.5,-0.5 23.5,-19.5 141.5,-19.5 141.5,-0.5 23.5,-0.5"/>
<text text-anchor="middle" x="82.5" y="-7.5" font-family="Helvetica,sans-Serif" font-size="10.00">IG.Num.Func3d2dBase</text>
</a>
</g>
</g>
<!-- Node2 -->
<g id="node2" class="node"><title>Node2</title>
<g id="a_node2"><a xlink:href="../../d3/d6f/interfaceIG_1_1Num_1_1IFunc3d2d.html" target="_top" xlink:title="Represents 3D vector functions of 2 variables.">
<polygon fill="white" stroke="black" points="17.5,-89.5 17.5,-108.5 79.5,-108.5 79.5,-89.5 17.5,-89.5"/>
<text text-anchor="middle" x="48.5" y="-96.5" font-family="Helvetica,sans-Serif" font-size="10.00">IFunc3d2d</text>
</a>
</g>
</g>
<!-- Node2&#45;&gt;Node1 -->
<g id="edge1" class="edge"><title>Node2&#45;&gt;Node1</title>
<path fill="none" stroke="midnightblue" d="M55.5451,-79.9727C62.7589,-61.514 73.6651,-33.6071 79.1293,-19.6249"/>
<polygon fill="midnightblue" stroke="midnightblue" points="52.2645,-78.752 51.8844,-89.34 58.7843,-81.3 52.2645,-78.752"/>
</g>
<!-- Node3 -->
<g id="node3" class="node"><title>Node3</title>
<g id="a_node3"><a xlink:href="../../da/d29/classIG_1_1Num_1_1Func2dBase.html" target="_top" xlink:title="Base class for scalar functions of 2 variables (base for implementation of IFunc2d interface).">
<polygon fill="white" stroke="black" points="98,-89.5 98,-108.5 205,-108.5 205,-89.5 98,-89.5"/>
<text text-anchor="middle" x="151.5" y="-96.5" font-family="Helvetica,sans-Serif" font-size="10.00">IG.Num.Func2dBase</text>
</a>
</g>
</g>
<!-- Node3&#45;&gt;Node1 -->
<g id="edge2" class="edge"><title>Node3&#45;&gt;Node1</title>
<path fill="none" stroke="#9a32cd" stroke-dasharray="5,2" d="M138.212,-81.2449C123.598,-62.8195 100.688,-33.9322 89.3405,-19.6249"/>
<polygon fill="#9a32cd" stroke="#9a32cd" points="135.676,-83.6799 144.632,-89.34 141.16,-79.3301 135.676,-83.6799"/>
<text text-anchor="middle" x="148.5" y="-63" font-family="Helvetica,sans-Serif" font-size="10.00"> _comp1</text>
<text text-anchor="middle" x="148.5" y="-52" font-family="Helvetica,sans-Serif" font-size="10.00">_comp2</text>
<text text-anchor="middle" x="148.5" y="-41" font-family="Helvetica,sans-Serif" font-size="10.00">_comp3</text>
</g>
<!-- Node4 -->
<g id="node4" class="node"><title>Node4</title>
<g id="a_node4"><a xlink:href="../../d2/d9e/classIG_1_1Num_1_1ScalarFunctionUntransformedBase.html" target="_top" xlink:title="Base class for defining scalar functions without possibility of affine transformation of parameters.">
<polygon fill="white" stroke="black" points="68,-146.5 68,-165.5 235,-165.5 235,-146.5 68,-146.5"/>
<text text-anchor="middle" x="151.5" y="-153.5" font-family="Helvetica,sans-Serif" font-size="10.00">ScalarFunctionUntransformedBase</text>
</a>
</g>
</g>
<!-- Node4&#45;&gt;Node3 -->
<g id="edge3" class="edge"><title>Node4&#45;&gt;Node3</title>
<path fill="none" stroke="midnightblue" d="M151.5,-136.117C151.5,-126.817 151.5,-116.056 151.5,-108.715"/>
<polygon fill="midnightblue" stroke="midnightblue" points="148,-136.406 151.5,-146.406 155,-136.406 148,-136.406"/>
</g>
<!-- Node5 -->
<g id="node5" class="node"><title>Node5</title>
<g id="a_node5"><a xlink:href="../../d8/d56/interfaceIG_1_1Num_1_1IScalarFunctionUntransformed.html" target="_top" xlink:title="Scalar functions of vector arguments.">
<polygon fill="white" stroke="black" points="0,-203.5 0,-222.5 147,-222.5 147,-203.5 0,-203.5"/>
<text text-anchor="middle" x="73.5" y="-210.5" font-family="Helvetica,sans-Serif" font-size="10.00">IScalarFunctionUntransformed</text>
</a>
</g>
</g>
<!-- Node5&#45;&gt;Node3 -->
<g id="edge6" class="edge"><title>Node5&#45;&gt;Node3</title>
<path fill="none" stroke="midnightblue" d="M62.6232,-194.118C55.6392,-180.112 49.4212,-160.619 58.5,-146 70.4737,-126.719 93.1899,-115.274 113.173,-108.623"/>
<polygon fill="midnightblue" stroke="midnightblue" points="59.739,-196.135 67.6363,-203.198 65.8672,-192.752 59.739,-196.135"/>
</g>
<!-- Node5&#45;&gt;Node4 -->
<g id="edge4" class="edge"><title>Node5&#45;&gt;Node4</title>
<path fill="none" stroke="midnightblue" d="M94.0111,-197.537C108.453,-187.354 127.295,-174.068 139.398,-165.533"/>
<polygon fill="midnightblue" stroke="midnightblue" points="91.8431,-194.783 85.6875,-203.406 95.8771,-200.504 91.8431,-194.783"/>
</g>
<!-- Node6 -->
<g id="node6" class="node"><title>Node6</title>
<g id="a_node6"><a xlink:href="../../d8/d15/interfaceIG_1_1Num_1_1IFunc2d.html" target="_top" xlink:title="Represents scalar functions of 2 variables.">
<polygon fill="white" stroke="black" points="253,-146.5 253,-165.5 304,-165.5 304,-146.5 253,-146.5"/>
<text text-anchor="middle" x="278.5" y="-153.5" font-family="Helvetica,sans-Serif" font-size="10.00">IFunc2d</text>
</a>
</g>
</g>
<!-- Node6&#45;&gt;Node3 -->
<g id="edge5" class="edge"><title>Node6&#45;&gt;Node3</title>
<path fill="none" stroke="midnightblue" d="M249.344,-142.374C225.394,-132.001 192.12,-117.591 171.204,-108.533"/>
<polygon fill="midnightblue" stroke="midnightblue" points="248.089,-145.644 258.656,-146.406 250.871,-139.22 248.089,-145.644"/>
</g>
</g>
</svg>
