<?xml version="1.0" encoding="UTF-8" standalone="no"?>
<!DOCTYPE svg PUBLIC "-//W3C//DTD SVG 1.1//EN"
 "http://www.w3.org/Graphics/SVG/1.1/DTD/svg11.dtd">
<!-- Generated by graphviz version 2.38.0 (20140413.2041)
 -->
<!-- Title: IG.Num.ParallelJobServerBase&lt; JobContainerType &gt; Pages: 1 -->
<svg width="261pt" height="117pt"
 viewBox="0.00 0.00 261.00 117.00" xmlns="http://www.w3.org/2000/svg" xmlns:xlink="http://www.w3.org/1999/xlink">
<g id="graph0" class="graph" transform="scale(1 1) rotate(0) translate(4 113)">
<title>IG.Num.ParallelJobServerBase&lt; JobContainerType &gt;</title>
<polygon fill="white" stroke="none" points="-4,4 -4,-113 257,-113 257,4 -4,4"/>
<!-- Node1 -->
<g id="node1" class="node"><title>Node1</title>
<g id="a_node1"><a xlink:title="Parallel job server. Waits for job requests and executes them in a parallel thread.">
<polygon fill="#bfbfbf" stroke="black" points="42,-0.5 42,-30.5 176,-30.5 176,-0.5 42,-0.5"/>
<text text-anchor="start" x="50" y="-18.5" font-family="Helvetica,sans-Serif" font-size="10.00">IG.Num.ParallelJobServer</text>
<text text-anchor="middle" x="109" y="-7.5" font-family="Helvetica,sans-Serif" font-size="10.00">Base&lt; JobContainerType &gt;</text>
</a>
</g>
</g>
<!-- Node2 -->
<g id="node2" class="node"><title>Node2</title>
<g id="a_node2"><a xlink:href="../../d3/db6/interfaceIG_1_1Lib_1_1ILockable.html" target="_top" xlink:title="Lockable object, has a Lock property that returns object on which lock must be performed in order to ...">
<polygon fill="white" stroke="black" points="0,-89.5 0,-108.5 58,-108.5 58,-89.5 0,-89.5"/>
<text text-anchor="middle" x="29" y="-96.5" font-family="Helvetica,sans-Serif" font-size="10.00">ILockable</text>
</a>
</g>
</g>
<!-- Node2&#45;&gt;Node1 -->
<g id="edge1" class="edge"><title>Node2&#45;&gt;Node1</title>
<path fill="none" stroke="midnightblue" d="M44.917,-81.7846C59.5999,-66.8264 81.1797,-44.8419 95.1621,-30.5974"/>
<polygon fill="midnightblue" stroke="midnightblue" points="42.0688,-79.6898 37.5614,-89.2781 47.0643,-84.5934 42.0688,-79.6898"/>
</g>
<!-- Node3 -->
<g id="node3" class="node"><title>Node3</title>
<g id="a_node3"><a xlink:href="../../dc/d79/interfaceIG_1_1Lib_1_1IIdentifiable.html" target="_top" xlink:title="Classes whose instances have unique integer IDs.">
<polygon fill="white" stroke="black" points="76.5,-89.5 76.5,-108.5 141.5,-108.5 141.5,-89.5 76.5,-89.5"/>
<text text-anchor="middle" x="109" y="-96.5" font-family="Helvetica,sans-Serif" font-size="10.00">IIdentifiable</text>
</a>
</g>
</g>
<!-- Node3&#45;&gt;Node1 -->
<g id="edge2" class="edge"><title>Node3&#45;&gt;Node1</title>
<path fill="none" stroke="midnightblue" d="M109,-79.229C109,-64.4075 109,-44.0505 109,-30.5974"/>
<polygon fill="midnightblue" stroke="midnightblue" points="105.5,-79.278 109,-89.2781 112.5,-79.2781 105.5,-79.278"/>
</g>
<!-- Node4 -->
<g id="node4" class="node"><title>Node4</title>
<g id="a_node4"><a xlink:title=" ">
<polygon fill="white" stroke="#bfbfbf" points="159.5,-89.5 159.5,-108.5 200.5,-108.5 200.5,-89.5 159.5,-89.5"/>
<text text-anchor="middle" x="180" y="-96.5" font-family="Helvetica,sans-Serif" font-size="10.00">static</text>
</a>
</g>
</g>
<!-- Node4&#45;&gt;Node1 -->
<g id="edge3" class="edge"><title>Node4&#45;&gt;Node1</title>
<path fill="none" stroke="#9a32cd" stroke-dasharray="5,2" d="M165.51,-81.3673C152.489,-66.4199 133.576,-44.71 121.281,-30.5974"/>
<polygon fill="#9a32cd" stroke="#9a32cd" points="163.194,-84.037 172.402,-89.2781 168.472,-79.4389 163.194,-84.037"/>
<text text-anchor="middle" x="204.5" y="-63" font-family="Helvetica,sans-Serif" font-size="10.00"> _defaultSleepTimeMs</text>
<text text-anchor="middle" x="204.5" y="-52" font-family="Helvetica,sans-Serif" font-size="10.00">_nextId</text>
</g>
</g>
</svg>
