<?xml version="1.0" encoding="UTF-8" standalone="no"?>
<!DOCTYPE svg PUBLIC "-//W3C//DTD SVG 1.1//EN"
 "http://www.w3.org/Graphics/SVG/1.1/DTD/svg11.dtd">
<!-- Generated by graphviz version 2.38.0 (20140413.2041)
 -->
<!-- Title: IG.Lib.ColorScale Pages: 1 -->
<svg width="133pt" height="140pt"
 viewBox="0.00 0.00 133.00 140.00" xmlns="http://www.w3.org/2000/svg" xmlns:xlink="http://www.w3.org/1999/xlink">
<g id="graph0" class="graph" transform="scale(1 1) rotate(0) translate(4 136)">
<title>IG.Lib.ColorScale</title>
<polygon fill="white" stroke="none" points="-4,4 -4,-136 129,-136 129,4 -4,4"/>
<!-- Node1 -->
<g id="node1" class="node"><title>Node1</title>
<g id="a_node1"><a xlink:title=" ">
<polygon fill="#bfbfbf" stroke="black" points="0,-0.5 0,-19.5 92,-19.5 92,-0.5 0,-0.5"/>
<text text-anchor="middle" x="46" y="-7.5" font-family="Helvetica,sans-Serif" font-size="10.00">IG.Lib.ColorScale</text>
</a>
</g>
</g>
<!-- Node2 -->
<g id="node2" class="node"><title>Node2</title>
<g id="a_node2"><a xlink:href="../../d1/d6b/classIG_1_1Lib_1_1ColorScaleBase.html" target="_top" xlink:title=" ">
<polygon fill="white" stroke="black" points="39,-56.5 39,-75.5 125,-75.5 125,-56.5 39,-56.5"/>
<text text-anchor="middle" x="82" y="-63.5" font-family="Helvetica,sans-Serif" font-size="10.00">ColorScaleBase</text>
</a>
</g>
</g>
<!-- Node2&#45;&gt;Node1 -->
<g id="edge1" class="edge"><title>Node2&#45;&gt;Node1</title>
<path fill="none" stroke="midnightblue" d="M70.3771,-47.5656C64.1832,-38.2747 56.8323,-27.2484 51.8341,-19.7511"/>
<polygon fill="midnightblue" stroke="midnightblue" points="67.5961,-49.7039 76.0553,-56.083 73.4205,-45.821 67.5961,-49.7039"/>
</g>
<!-- Node3 -->
<g id="node3" class="node"><title>Node3</title>
<g id="a_node3"><a xlink:href="../../d0/d9a/interfaceIG_1_1Lib_1_1IColorScale.html" target="_top" xlink:title=" ">
<polygon fill="white" stroke="black" points="13,-112.5 13,-131.5 79,-131.5 79,-112.5 13,-112.5"/>
<text text-anchor="middle" x="46" y="-119.5" font-family="Helvetica,sans-Serif" font-size="10.00">IColorScale</text>
</a>
</g>
</g>
<!-- Node3&#45;&gt;Node1 -->
<g id="edge3" class="edge"><title>Node3&#45;&gt;Node1</title>
<path fill="none" stroke="midnightblue" d="M37.9425,-102.827C34.7948,-94.7781 31.568,-85.0902 30,-76 26.4838,-55.6146 35.5926,-32.1528 41.4698,-19.7482"/>
<polygon fill="midnightblue" stroke="midnightblue" points="34.8055,-104.398 41.8888,-112.277 41.2649,-101.701 34.8055,-104.398"/>
</g>
<!-- Node3&#45;&gt;Node2 -->
<g id="edge2" class="edge"><title>Node3&#45;&gt;Node2</title>
<path fill="none" stroke="midnightblue" d="M57.6229,-103.566C63.8168,-94.2747 71.1677,-83.2484 76.1659,-75.7511"/>
<polygon fill="midnightblue" stroke="midnightblue" points="54.5795,-101.821 51.9447,-112.083 60.4039,-105.704 54.5795,-101.821"/>
</g>
</g>
</svg>
