<?xml version="1.0" encoding="UTF-8" standalone="no"?>
<!DOCTYPE svg PUBLIC "-//W3C//DTD SVG 1.1//EN"
 "http://www.w3.org/Graphics/SVG/1.1/DTD/svg11.dtd">
<!-- Generated by graphviz version 2.38.0 (20140413.2041)
 -->
<!-- Title: IG.Num.RealFunctionOneParametric Pages: 1 -->
<svg width="675pt" height="178pt"
 viewBox="0.00 0.00 675.00 178.22" xmlns="http://www.w3.org/2000/svg" xmlns:xlink="http://www.w3.org/1999/xlink">
<g id="graph0" class="graph" transform="scale(1 1) rotate(0) translate(4 174.22)">
<title>IG.Num.RealFunctionOneParametric</title>
<polygon fill="white" stroke="none" points="-4,4 -4,-174.22 671,-174.22 671,4 -4,4"/>
<!-- Node1 -->
<g id="node1" class="node"><title>Node1</title>
<g id="a_node1"><a xlink:title="Base class for one parametric families of real&#45;valued functions of single variable....">
<polygon fill="#bfbfbf" stroke="black" points="492,-76.5 492,-95.5 667,-95.5 667,-76.5 492,-76.5"/>
<text text-anchor="middle" x="579.5" y="-83.5" font-family="Helvetica,sans-Serif" font-size="10.00">IG.Num.RealFunctionOneParametric</text>
</a>
</g>
</g>
<!-- Node2 -->
<g id="node2" class="node"><title>Node2</title>
<g id="a_node2"><a xlink:href="../../d1/d20/classIG_1_1Num_1_1RealFunctionParametricBase.html" target="_top" xlink:title="Base class for parameterized real&#45;valued functions of single variable. Parameters that completely def...">
<polygon fill="white" stroke="black" points="273,-120.5 273,-139.5 416,-139.5 416,-120.5 273,-120.5"/>
<text text-anchor="middle" x="344.5" y="-127.5" font-family="Helvetica,sans-Serif" font-size="10.00">RealFunctionParametricBase</text>
</a>
</g>
</g>
<!-- Node2&#45;&gt;Node1 -->
<g id="edge1" class="edge"><title>Node2&#45;&gt;Node1</title>
<path fill="none" stroke="midnightblue" d="M405.957,-118.583C443.874,-111.423 492.188,-102.299 528.041,-95.5287"/>
<polygon fill="midnightblue" stroke="midnightblue" points="405.234,-115.158 396.058,-120.453 406.533,-122.036 405.234,-115.158"/>
</g>
<!-- Node3 -->
<g id="node3" class="node"><title>Node3</title>
<g id="a_node3"><a xlink:href="../../d6/d30/classIG_1_1Num_1_1RealFunctionBase.html" target="_top" xlink:title="Base class for real functions of real variable.">
<polygon fill="white" stroke="black" points="126.5,-113.5 126.5,-132.5 222.5,-132.5 222.5,-113.5 126.5,-113.5"/>
<text text-anchor="middle" x="174.5" y="-120.5" font-family="Helvetica,sans-Serif" font-size="10.00">RealFunctionBase</text>
</a>
</g>
</g>
<!-- Node3&#45;&gt;Node2 -->
<g id="edge2" class="edge"><title>Node3&#45;&gt;Node2</title>
<path fill="none" stroke="midnightblue" d="M232.823,-125.388C245.672,-125.924 259.449,-126.498 272.77,-127.053"/>
<polygon fill="midnightblue" stroke="midnightblue" points="232.882,-121.888 222.744,-124.969 232.59,-128.882 232.882,-121.888"/>
</g>
<!-- Node4 -->
<g id="node4" class="node"><title>Node4</title>
<g id="a_node4"><a xlink:href="../../db/d0e/interfaceIG_1_1Num_1_1IRealFunction.html" target="_top" xlink:title="Interface for real functions.">
<polygon fill="white" stroke="black" points="0,-113.5 0,-132.5 76,-132.5 76,-113.5 0,-113.5"/>
<text text-anchor="middle" x="38" y="-120.5" font-family="Helvetica,sans-Serif" font-size="10.00">IRealFunction</text>
</a>
</g>
</g>
<!-- Node4&#45;&gt;Node1 -->
<g id="edge7" class="edge"><title>Node4&#45;&gt;Node1</title>
<path fill="none" stroke="midnightblue" d="M61.8858,-137.888C75.9742,-145.911 94.772,-154.642 113,-157 246.6,-174.285 284.166,-176.705 416,-149 470.188,-137.612 529.942,-110.312 559.614,-95.6689"/>
<polygon fill="midnightblue" stroke="midnightblue" points="63.3265,-134.671 52.9495,-132.533 59.7286,-140.675 63.3265,-134.671"/>
</g>
<!-- Node4&#45;&gt;Node2 -->
<g id="edge4" class="edge"><title>Node4&#45;&gt;Node2</title>
<path fill="none" stroke="midnightblue" d="M78.6819,-135.141C89.6885,-137.972 101.716,-140.574 113,-142 168.459,-149.006 231.921,-144.813 278.196,-139.546"/>
<polygon fill="midnightblue" stroke="midnightblue" points="79.4779,-131.731 68.9113,-132.505 77.654,-138.489 79.4779,-131.731"/>
</g>
<!-- Node4&#45;&gt;Node3 -->
<g id="edge3" class="edge"><title>Node4&#45;&gt;Node3</title>
<path fill="none" stroke="midnightblue" d="M86.2695,-123C99.2853,-123 113.399,-123 126.405,-123"/>
<polygon fill="midnightblue" stroke="midnightblue" points="86.1088,-119.5 76.1088,-123 86.1087,-126.5 86.1088,-119.5"/>
</g>
<!-- Node5 -->
<g id="node5" class="node"><title>Node5</title>
<g id="a_node5"><a xlink:href="../../d1/dfb/interfaceIG_1_1Num_1_1IRealFunctionParametric.html" target="_top" xlink:title="Parameterized real&#45;valued functions of single variable.">
<polygon fill="white" stroke="black" points="113,-75.5 113,-94.5 236,-94.5 236,-75.5 113,-75.5"/>
<text text-anchor="middle" x="174.5" y="-82.5" font-family="Helvetica,sans-Serif" font-size="10.00">IRealFunctionParametric</text>
</a>
</g>
</g>
<!-- Node4&#45;&gt;Node5 -->
<g id="edge6" class="edge"><title>Node4&#45;&gt;Node5</title>
<path fill="none" stroke="midnightblue" d="M82.6004,-110.682C101.08,-105.461 122.289,-99.4684 139.571,-94.5859"/>
<polygon fill="midnightblue" stroke="midnightblue" points="81.6117,-107.324 72.94,-113.411 83.515,-114.06 81.6117,-107.324"/>
</g>
<!-- Node6 -->
<g id="node6" class="node"><title>Node6</title>
<g id="a_node6"><a xlink:href="../../da/d11/interfaceIG_1_1Num_1_1IRealFunctionOneParametric.html" target="_top" xlink:title="Parameterized real&#45;valued functions of single variable.">
<polygon fill="white" stroke="black" points="274,-38.5 274,-57.5 415,-57.5 415,-38.5 274,-38.5"/>
<text text-anchor="middle" x="344.5" y="-45.5" font-family="Helvetica,sans-Serif" font-size="10.00">IRealFunctionOneParametric</text>
</a>
</g>
</g>
<!-- Node4&#45;&gt;Node6 -->
<g id="edge11" class="edge"><title>Node4&#45;&gt;Node6</title>
<path fill="none" stroke="midnightblue" d="M55.2136,-105.941C69.1375,-92.5108 90.4783,-74.6614 113,-66 164.42,-46.2252 226.958,-42.4803 273.913,-43.2611"/>
<polygon fill="midnightblue" stroke="midnightblue" points="52.5157,-103.689 47.9196,-113.235 57.4655,-108.639 52.5157,-103.689"/>
</g>
<!-- Node5&#45;&gt;Node1 -->
<g id="edge8" class="edge"><title>Node5&#45;&gt;Node1</title>
<path fill="none" stroke="midnightblue" d="M246.518,-85.1762C314.934,-85.346 418.559,-85.6031 491.808,-85.7849"/>
<polygon fill="midnightblue" stroke="midnightblue" points="246.278,-81.6757 236.27,-85.1508 246.261,-88.6757 246.278,-81.6757"/>
</g>
<!-- Node5&#45;&gt;Node2 -->
<g id="edge5" class="edge"><title>Node5&#45;&gt;Node2</title>
<path fill="none" stroke="midnightblue" d="M220.859,-97.1496C248.207,-104.475 282.543,-113.672 307.923,-120.47"/>
<polygon fill="midnightblue" stroke="midnightblue" points="221.694,-93.75 211.128,-94.5433 219.882,-100.512 221.694,-93.75"/>
</g>
<!-- Node5&#45;&gt;Node6 -->
<g id="edge10" class="edge"><title>Node5&#45;&gt;Node6</title>
<path fill="none" stroke="midnightblue" d="M228.716,-73.2799C251.722,-68.2129 278.304,-62.3585 300.091,-57.5604"/>
<polygon fill="midnightblue" stroke="midnightblue" points="227.777,-69.9026 218.764,-75.4716 229.283,-76.7388 227.777,-69.9026"/>
</g>
<!-- Node6&#45;&gt;Node1 -->
<g id="edge9" class="edge"><title>Node6&#45;&gt;Node1</title>
<path fill="none" stroke="midnightblue" d="M414.204,-59.205C447.815,-64.6866 487.848,-71.2155 519.981,-76.4561"/>
<polygon fill="midnightblue" stroke="midnightblue" points="414.428,-55.6953 403.995,-57.54 413.301,-62.604 414.428,-55.6953"/>
</g>
<!-- Node7 -->
<g id="node7" class="node"><title>Node7</title>
<g id="a_node7"><a xlink:title=" ">
<polygon fill="white" stroke="#bfbfbf" points="324,-0.5 324,-19.5 365,-19.5 365,-0.5 324,-0.5"/>
<text text-anchor="middle" x="344.5" y="-7.5" font-family="Helvetica,sans-Serif" font-size="10.00">static</text>
</a>
</g>
</g>
<!-- Node7&#45;&gt;Node1 -->
<g id="edge12" class="edge"><title>Node7&#45;&gt;Node1</title>
<path fill="none" stroke="#9a32cd" stroke-dasharray="5,2" d="M375.014,-17.689C387.665,-21.0533 402.588,-25.1131 416,-29 441.924,-36.5131 448.458,-38.2779 474,-47 501.672,-56.4492 533.057,-68.32 554.147,-76.4681"/>
<polygon fill="#9a32cd" stroke="#9a32cd" points="375.568,-14.2152 365.005,-15.0457 373.78,-20.9832 375.568,-14.2152"/>
<text text-anchor="middle" x="454" y="-50" font-family="Helvetica,sans-Serif" font-size="10.00"> _parAux</text>
</g>
</g>
</svg>
