<?xml version="1.0" encoding="UTF-8" standalone="no"?>
<!DOCTYPE svg PUBLIC "-//W3C//DTD SVG 1.1//EN"
 "http://www.w3.org/Graphics/SVG/1.1/DTD/svg11.dtd">
<!-- Generated by graphviz version 2.38.0 (20140413.2041)
 -->
<!-- Title: IG.Num.SampledDataCsv Pages: 1 -->
<svg width="637pt" height="329pt"
 viewBox="0.00 0.00 637.00 329.00" xmlns="http://www.w3.org/2000/svg" xmlns:xlink="http://www.w3.org/1999/xlink">
<g id="graph0" class="graph" transform="scale(1 1) rotate(0) translate(4 325)">
<title>IG.Num.SampledDataCsv</title>
<polygon fill="white" stroke="none" points="-4,4 -4,-325 633,-325 633,4 -4,4"/>
<!-- Node1 -->
<g id="node1" class="node"><title>Node1</title>
<g id="a_node1"><a xlink:title="Base class for CSV (comma separated files) representation, importer and exporter of sampled data and ...">
<polygon fill="#bfbfbf" stroke="black" points="166.5,-0.5 166.5,-19.5 293.5,-19.5 293.5,-0.5 166.5,-0.5"/>
<text text-anchor="middle" x="230" y="-7.5" font-family="Helvetica,sans-Serif" font-size="10.00">IG.Num.SampledDataCsv</text>
</a>
</g>
</g>
<!-- Node2 -->
<g id="node2" class="node"><title>Node2</title>
<g id="a_node2"><a xlink:href="../../d1/d01/classIG_1_1Lib_1_1StringTable.html" target="_top" xlink:title="2D tables of data represented by strings. Maps to CSV files.">
<polygon fill="white" stroke="black" points="29.5,-118 29.5,-137 94.5,-137 94.5,-118 29.5,-118"/>
<text text-anchor="middle" x="62" y="-125" font-family="Helvetica,sans-Serif" font-size="10.00">StringTable</text>
</a>
</g>
</g>
<!-- Node2&#45;&gt;Node1 -->
<g id="edge1" class="edge"><title>Node2&#45;&gt;Node1</title>
<path fill="none" stroke="midnightblue" d="M74.1494,-109.775C89.3392,-89.9902 117.127,-57.309 148,-38 161.216,-29.7346 177.227,-23.7288 191.581,-19.5107"/>
<polygon fill="midnightblue" stroke="midnightblue" points="71.2846,-107.762 68.091,-117.864 76.8873,-111.958 71.2846,-107.762"/>
</g>
<!-- Node3 -->
<g id="node3" class="node"><title>Node3</title>
<g id="a_node3"><a xlink:href="../../d3/db6/interfaceIG_1_1Lib_1_1ILockable.html" target="_top" xlink:title="Lockable object, has a Lock property that returns object on which lock must be performed in order to ...">
<polygon fill="white" stroke="black" points="0,-301.5 0,-320.5 58,-320.5 58,-301.5 0,-301.5"/>
<text text-anchor="middle" x="29" y="-308.5" font-family="Helvetica,sans-Serif" font-size="10.00">ILockable</text>
</a>
</g>
</g>
<!-- Node3&#45;&gt;Node2 -->
<g id="edge2" class="edge"><title>Node3&#45;&gt;Node2</title>
<path fill="none" stroke="midnightblue" d="M30.9141,-291.257C33.1895,-270.359 37.3953,-235.603 43,-206 47.7933,-180.683 55.6513,-151.243 59.5903,-137.036"/>
<polygon fill="midnightblue" stroke="midnightblue" points="27.421,-291.009 29.852,-301.321 34.3823,-291.744 27.421,-291.009"/>
</g>
<!-- Node4 -->
<g id="node4" class="node"><title>Node4</title>
<g id="a_node4"><a xlink:title=" ">
<polygon fill="white" stroke="#bfbfbf" points="141.5,-301.5 141.5,-320.5 182.5,-320.5 182.5,-301.5 141.5,-301.5"/>
<text text-anchor="middle" x="162" y="-308.5" font-family="Helvetica,sans-Serif" font-size="10.00">static</text>
</a>
</g>
</g>
<!-- Node4&#45;&gt;Node1 -->
<g id="edge7" class="edge"><title>Node4&#45;&gt;Node1</title>
<path fill="none" stroke="#9a32cd" stroke-dasharray="5,2" d="M158.078,-291.054C150.258,-248.656 136.298,-143.829 171,-67 180.418,-46.1499 201.543,-29.2629 215.787,-19.6727"/>
<polygon fill="#9a32cd" stroke="#9a32cd" points="154.682,-291.926 160.032,-301.071 161.553,-290.586 154.682,-291.926"/>
<text text-anchor="middle" x="242.5" y="-180" font-family="Helvetica,sans-Serif" font-size="10.00"> _defaultKeyData</text>
<text text-anchor="middle" x="242.5" y="-169" font-family="Helvetica,sans-Serif" font-size="10.00">_defaultKeyNumInputParameters</text>
<text text-anchor="middle" x="242.5" y="-158" font-family="Helvetica,sans-Serif" font-size="10.00">_defaultIsKeysCaseSensitive</text>
<text text-anchor="middle" x="242.5" y="-147" font-family="Helvetica,sans-Serif" font-size="10.00">_defaultKeyDefaultValues</text>
<text text-anchor="middle" x="242.5" y="-136" font-family="Helvetica,sans-Serif" font-size="10.00">_defaultKeyOptimizationIndices</text>
<text text-anchor="middle" x="242.5" y="-125" font-family="Helvetica,sans-Serif" font-size="10.00">_defaultKeySclaingLengths</text>
<text text-anchor="middle" x="242.5" y="-114" font-family="Helvetica,sans-Serif" font-size="10.00">_defaultKeyTargetValues</text>
<text text-anchor="middle" x="242.5" y="-103" font-family="Helvetica,sans-Serif" font-size="10.00">_defaultKeyNumSamplingPoints</text>
<text text-anchor="middle" x="242.5" y="-92" font-family="Helvetica,sans-Serif" font-size="10.00">_defaultKeyElementIndices</text>
<text text-anchor="middle" x="242.5" y="-81" font-family="Helvetica,sans-Serif" font-size="10.00">_defaultKeyElementTypeInput</text>
<text text-anchor="middle" x="242.5" y="-70" font-family="Helvetica,sans-Serif" font-size="10.00">...</text>
</g>
<!-- Node4&#45;&gt;Node2 -->
<g id="edge3" class="edge"><title>Node4&#45;&gt;Node2</title>
<path fill="none" stroke="#9a32cd" stroke-dasharray="5,2" d="M131.26,-305.72C105.404,-301.418 71.3514,-293.861 63,-283 28.6638,-238.346 49.9875,-162.987 58.7594,-137.347"/>
<polygon fill="#9a32cd" stroke="#9a32cd" points="130.97,-309.217 141.392,-307.313 132.057,-302.302 130.97,-309.217"/>
<text text-anchor="middle" x="105.5" y="-242" font-family="Helvetica,sans-Serif" font-size="10.00"> DefaultOutputLevel</text>
</g>
<!-- Node5 -->
<g id="node5" class="node"><title>Node5</title>
<g id="a_node5"><a xlink:href="../../d5/dd5/classIG_1_1Num_1_1InputOutputDataDefiniton.html" target="_top" xlink:title="Definition of input and output data for vector functions, approximations, etc. Contains descriptiove ...">
<polygon fill="white" stroke="black" points="323.5,-118 323.5,-137 484.5,-137 484.5,-118 323.5,-118"/>
<text text-anchor="middle" x="404" y="-125" font-family="Helvetica,sans-Serif" font-size="10.00">IG.Num.InputOutputDataDefiniton</text>
</a>
</g>
</g>
<!-- Node4&#45;&gt;Node5 -->
<g id="edge5" class="edge"><title>Node4&#45;&gt;Node5</title>
<path fill="none" stroke="#9a32cd" stroke-dasharray="5,2" d="M181.436,-295.423C229.688,-259.234 353.833,-166.125 392.395,-137.203"/>
<polygon fill="#9a32cd" stroke="#9a32cd" points="179.248,-292.689 173.348,-301.489 183.448,-298.289 179.248,-292.689"/>
<text text-anchor="start" x="298" y="-275" font-family="Helvetica,sans-Serif" font-size="10.00"> _defaultElementNameStating</text>
<text text-anchor="middle" x="372" y="-264" font-family="Helvetica,sans-Serif" font-size="10.00">Index</text>
<text text-anchor="middle" x="372" y="-253" font-family="Helvetica,sans-Serif" font-size="10.00">DefaultDescription</text>
<text text-anchor="middle" x="372" y="-242" font-family="Helvetica,sans-Serif" font-size="10.00">_defaultElementNameNumDigits</text>
<text text-anchor="middle" x="372" y="-231" font-family="Helvetica,sans-Serif" font-size="10.00">_defaultOutputElementNameBase</text>
<text text-anchor="middle" x="372" y="-220" font-family="Helvetica,sans-Serif" font-size="10.00">_defaultInputElementNameBase</text>
<text text-anchor="middle" x="372" y="-209" font-family="Helvetica,sans-Serif" font-size="10.00">DefaultName</text>
</g>
<!-- Node5&#45;&gt;Node1 -->
<g id="edge4" class="edge"><title>Node5&#45;&gt;Node1</title>
<path fill="none" stroke="#9a32cd" stroke-dasharray="5,2" d="M382.482,-112.217C346.01,-88.0063 273.103,-39.6116 243.23,-19.782"/>
<polygon fill="#9a32cd" stroke="#9a32cd" points="380.655,-115.204 390.922,-117.819 384.526,-109.372 380.655,-115.204"/>
<text text-anchor="middle" x="320.5" y="-41" font-family="Helvetica,sans-Serif" font-size="10.00"> _dataDefinition</text>
</g>
<!-- Node6 -->
<g id="node6" class="node"><title>Node6</title>
<g id="a_node6"><a xlink:href="../../d4/d29/classIG_1_1Num_1_1SampledDataSet.html" target="_top" xlink:title="Sampled data consisting of elements of which each contains vector of input parameters and output valu...">
<polygon fill="white" stroke="black" points="503,-118 503,-137 629,-137 629,-118 503,-118"/>
<text text-anchor="middle" x="566" y="-125" font-family="Helvetica,sans-Serif" font-size="10.00">IG.Num.SampledDataSet</text>
</a>
</g>
</g>
<!-- Node6&#45;&gt;Node1 -->
<g id="edge6" class="edge"><title>Node6&#45;&gt;Node1</title>
<path fill="none" stroke="#9a32cd" stroke-dasharray="5,2" d="M550.775,-110.384C536.977,-96.7529 515.423,-77.769 493,-67 429.141,-36.3311 348.577,-22.3443 293.551,-16.0386"/>
<polygon fill="#9a32cd" stroke="#9a32cd" points="548.447,-113.008 557.951,-117.689 553.44,-108.102 548.447,-113.008"/>
<text text-anchor="middle" x="479" y="-41" font-family="Helvetica,sans-Serif" font-size="10.00"> _sampledData</text>
</g>
</g>
</svg>
