<?xml version="1.0" encoding="UTF-8" standalone="no"?>
<!DOCTYPE svg PUBLIC "-//W3C//DTD SVG 1.1//EN"
 "http://www.w3.org/Graphics/SVG/1.1/DTD/svg11.dtd">
<!-- Generated by graphviz version 2.38.0 (20140413.2041)
 -->
<!-- Title: IG.Lib.IpcStreamClientServerBase2 Pages: 1 -->
<svg width="290pt" height="275pt"
 viewBox="0.00 0.00 290.00 275.00" xmlns="http://www.w3.org/2000/svg" xmlns:xlink="http://www.w3.org/1999/xlink">
<g id="graph0" class="graph" transform="scale(1 1) rotate(0) translate(4 271)">
<title>IG.Lib.IpcStreamClientServerBase2</title>
<polygon fill="white" stroke="none" points="-4,4 -4,-271 286,-271 286,4 -4,4"/>
<!-- Node1 -->
<g id="node1" class="node"><title>Node1</title>
<g id="a_node1"><a xlink:title="Base class for named pipe servers and clients, contains common stuff for both.">
<polygon fill="#bfbfbf" stroke="black" points="40.5,-0.5 40.5,-30.5 181.5,-30.5 181.5,-0.5 40.5,-0.5"/>
<text text-anchor="start" x="48.5" y="-18.5" font-family="Helvetica,sans-Serif" font-size="10.00">IG.Lib.IpcStreamClientServer</text>
<text text-anchor="middle" x="111" y="-7.5" font-family="Helvetica,sans-Serif" font-size="10.00">Base2</text>
</a>
</g>
</g>
<!-- Node2 -->
<g id="node2" class="node"><title>Node2</title>
<g id="a_node2"><a xlink:href="../../d5/dd9/classIG_1_1Lib_1_1IpcStreamClientServerBase.html" target="_top" xlink:title="Base class for client and server classes with stream&#45;based communication.">
<polygon fill="white" stroke="black" points="43.5,-69.5 43.5,-88.5 178.5,-88.5 178.5,-69.5 43.5,-69.5"/>
<text text-anchor="middle" x="111" y="-76.5" font-family="Helvetica,sans-Serif" font-size="10.00">IpcStreamClientServerBase</text>
</a>
</g>
</g>
<!-- Node2&#45;&gt;Node1 -->
<g id="edge1" class="edge"><title>Node2&#45;&gt;Node1</title>
<path fill="none" stroke="midnightblue" d="M111,-59.3344C111,-50.1126 111,-39.1664 111,-30.6479"/>
<polygon fill="midnightblue" stroke="midnightblue" points="107.5,-59.4487 111,-69.4487 114.5,-59.4487 107.5,-59.4487"/>
</g>
<!-- Node3 -->
<g id="node3" class="node"><title>Node3</title>
<g id="a_node3"><a xlink:href="../../d3/db6/interfaceIG_1_1Lib_1_1ILockable.html" target="_top" xlink:title="Lockable object, has a Lock property that returns object on which lock must be performed in order to ...">
<polygon fill="white" stroke="black" points="0,-247.5 0,-266.5 58,-266.5 58,-247.5 0,-247.5"/>
<text text-anchor="middle" x="29" y="-254.5" font-family="Helvetica,sans-Serif" font-size="10.00">ILockable</text>
</a>
</g>
</g>
<!-- Node3&#45;&gt;Node1 -->
<g id="edge4" class="edge"><title>Node3&#45;&gt;Node1</title>
<path fill="none" stroke="midnightblue" d="M23.7616,-237.247C14.8868,-201.334 0.8936,-121.657 34,-68 44.2182,-51.4389 61.9791,-39.0279 77.8697,-30.5437"/>
<polygon fill="midnightblue" stroke="midnightblue" points="20.4714,-238.498 26.3969,-247.281 27.2418,-236.72 20.4714,-238.498"/>
</g>
<!-- Node3&#45;&gt;Node2 -->
<g id="edge2" class="edge"><title>Node3&#45;&gt;Node2</title>
<path fill="none" stroke="midnightblue" d="M30.8597,-236.811C34.5998,-201.558 43.9807,-128.239 59,-108 65.4769,-99.2722 75.5054,-92.9715 85.0339,-88.5844"/>
<polygon fill="midnightblue" stroke="midnightblue" points="27.3355,-236.873 29.8076,-247.175 34.2998,-237.58 27.3355,-236.873"/>
</g>
<!-- Node4 -->
<g id="node4" class="node"><title>Node4</title>
<g id="a_node4"><a xlink:title=" ">
<polygon fill="white" stroke="#bfbfbf" points="136.5,-247.5 136.5,-266.5 177.5,-266.5 177.5,-247.5 136.5,-247.5"/>
<text text-anchor="middle" x="157" y="-254.5" font-family="Helvetica,sans-Serif" font-size="10.00">static</text>
</a>
</g>
</g>
<!-- Node4&#45;&gt;Node1 -->
<g id="edge5" class="edge"><title>Node4&#45;&gt;Node1</title>
<path fill="none" stroke="#9a32cd" stroke-dasharray="5,2" d="M186.844,-244.542C193.281,-240.618 199.267,-235.519 203,-229 229.722,-182.331 213.17,-160.807 203,-108 199.379,-89.1982 199.008,-82.9139 187,-68 174.306,-52.2335 155.502,-39.4357 139.775,-30.5414"/>
<polygon fill="#9a32cd" stroke="#9a32cd" points="185.197,-241.453 177.957,-249.188 188.44,-247.657 185.197,-241.453"/>
<text text-anchor="middle" x="241" y="-82" font-family="Helvetica,sans-Serif" font-size="10.00"> _defaultPipeName</text>
<text text-anchor="middle" x="241" y="-71" font-family="Helvetica,sans-Serif" font-size="10.00">_defaultErrorBegin</text>
</g>
<!-- Node4&#45;&gt;Node2 -->
<g id="edge3" class="edge"><title>Node4&#45;&gt;Node2</title>
<path fill="none" stroke="#9a32cd" stroke-dasharray="5,2" d="M126.19,-253.183C110.209,-249.977 91.9873,-243.21 82,-229 51.0771,-185.002 60.9852,-157.502 82,-108 85.3365,-100.141 92.0791,-93.4132 98.2237,-88.5236"/>
<polygon fill="#9a32cd" stroke="#9a32cd" points="125.828,-256.669 136.259,-254.818 126.95,-249.76 125.828,-256.669"/>
<text text-anchor="middle" x="142.5" y="-221" font-family="Helvetica,sans-Serif" font-size="10.00"> _defaultMsgTestSpeed</text>
<text text-anchor="middle" x="142.5" y="-210" font-family="Helvetica,sans-Serif" font-size="10.00">_defaultStopRequest</text>
<text text-anchor="middle" x="142.5" y="-199" font-family="Helvetica,sans-Serif" font-size="10.00">_defaultMessagePrefix</text>
<text text-anchor="middle" x="142.5" y="-188" font-family="Helvetica,sans-Serif" font-size="10.00">_defaultMsgRequestBegin</text>
<text text-anchor="middle" x="142.5" y="-177" font-family="Helvetica,sans-Serif" font-size="10.00">_defaultMsgRequestEnd</text>
<text text-anchor="middle" x="142.5" y="-166" font-family="Helvetica,sans-Serif" font-size="10.00">_defaultMessageSeparator</text>
<text text-anchor="middle" x="142.5" y="-155" font-family="Helvetica,sans-Serif" font-size="10.00">_defaultStoppedResponse</text>
<text text-anchor="middle" x="142.5" y="-144" font-family="Helvetica,sans-Serif" font-size="10.00">_defaultMsgResponseEnd</text>
<text text-anchor="middle" x="142.5" y="-133" font-family="Helvetica,sans-Serif" font-size="10.00">_defaultIsMultilineResponse</text>
<text text-anchor="middle" x="142.5" y="-122" font-family="Helvetica,sans-Serif" font-size="10.00">_defaultMsgResponseBegin</text>
<text text-anchor="middle" x="142.5" y="-111" font-family="Helvetica,sans-Serif" font-size="10.00">...</text>
</g>
</g>
</svg>
