<?xml version="1.0" encoding="UTF-8" standalone="no"?>
<!DOCTYPE svg PUBLIC "-//W3C//DTD SVG 1.1//EN"
 "http://www.w3.org/Graphics/SVG/1.1/DTD/svg11.dtd">
<!-- Generated by graphviz version 2.38.0 (20140413.2041)
 -->
<!-- Title: IG.Num.PointContainerSampledDataElement Pages: 1 -->
<svg width="420pt" height="127pt"
 viewBox="0.00 0.00 420.00 126.50" xmlns="http://www.w3.org/2000/svg" xmlns:xlink="http://www.w3.org/1999/xlink">
<g id="graph0" class="graph" transform="scale(1 1) rotate(0) translate(4 122.5)">
<title>IG.Num.PointContainerSampledDataElement</title>
<polygon fill="white" stroke="none" points="-4,4 -4,-122.5 416,-122.5 416,4 -4,4"/>
<!-- Node1 -->
<g id="node1" class="node"><title>Node1</title>
<g id="a_node1"><a xlink:title="Container class that contains a single vector point plus all the data that are necessary for searchin...">
<polygon fill="#bfbfbf" stroke="black" points="257,-39 257,-69 412,-69 412,-39 257,-39"/>
<text text-anchor="start" x="265" y="-57" font-family="Helvetica,sans-Serif" font-size="10.00">IG.Num.PointContainerSampled</text>
<text text-anchor="middle" x="334.5" y="-46" font-family="Helvetica,sans-Serif" font-size="10.00">DataElement</text>
</a>
</g>
</g>
<!-- Node2 -->
<g id="node2" class="node"><title>Node2</title>
<g id="a_node2"><a xlink:href="../../d7/deb/classIG_1_1Num_1_1PointContainer.html" target="_top" xlink:title=" ">
<polygon fill="white" stroke="black" points="0,-88 0,-118 221,-118 221,-88 0,-88"/>
<text text-anchor="start" x="8" y="-106" font-family="Helvetica,sans-Serif" font-size="10.00">PointContainer&lt; PointContainer</text>
<text text-anchor="middle" x="110.5" y="-95" font-family="Helvetica,sans-Serif" font-size="10.00">SampledDataElement, SampledDataElement &gt;</text>
</a>
</g>
</g>
<!-- Node2&#45;&gt;Node1 -->
<g id="edge1" class="edge"><title>Node2&#45;&gt;Node1</title>
<path fill="none" stroke="midnightblue" d="M190.06,-85.8103C200.465,-83.5249 210.991,-81.209 221,-79 235.555,-75.7876 251.167,-72.3277 265.987,-69.0363"/>
<polygon fill="midnightblue" stroke="midnightblue" points="189.158,-82.4249 180.14,-87.9875 190.658,-89.2621 189.158,-82.4249"/>
</g>
<!-- Node3 -->
<g id="node3" class="node"><title>Node3</title>
<g id="a_node3"><a xlink:href="../../df/d22/interfaceIG_1_1Num_1_1IPointContainer.html" target="_top" xlink:title=" ">
<polygon fill="white" stroke="black" points="45.5,-39 45.5,-69 175.5,-69 175.5,-39 45.5,-39"/>
<text text-anchor="start" x="53.5" y="-57" font-family="Helvetica,sans-Serif" font-size="10.00">IPointContainer&lt; Sampled</text>
<text text-anchor="middle" x="110.5" y="-46" font-family="Helvetica,sans-Serif" font-size="10.00">DataElement &gt;</text>
</a>
</g>
</g>
<!-- Node3&#45;&gt;Node1 -->
<g id="edge2" class="edge"><title>Node3&#45;&gt;Node1</title>
<path fill="none" stroke="midnightblue" d="M186.009,-54C208.81,-54 233.922,-54 256.862,-54"/>
<polygon fill="midnightblue" stroke="midnightblue" points="185.712,-50.5001 175.712,-54 185.712,-57.5001 185.712,-50.5001"/>
</g>
<!-- Node4 -->
<g id="node4" class="node"><title>Node4</title>
<g id="a_node4"><a xlink:href="../../d3/db6/interfaceIG_1_1Lib_1_1ILockable.html" target="_top" xlink:title="Lockable object, has a Lock property that returns object on which lock must be performed in order to ...">
<polygon fill="white" stroke="black" points="81.5,-0.5 81.5,-19.5 139.5,-19.5 139.5,-0.5 81.5,-0.5"/>
<text text-anchor="middle" x="110.5" y="-7.5" font-family="Helvetica,sans-Serif" font-size="10.00">ILockable</text>
</a>
</g>
</g>
<!-- Node4&#45;&gt;Node1 -->
<g id="edge3" class="edge"><title>Node4&#45;&gt;Node1</title>
<path fill="none" stroke="midnightblue" d="M149.757,-16.702C170.808,-20.4616 197.378,-25.3241 221,-30 235.105,-32.7921 250.175,-35.9121 264.552,-38.9546"/>
<polygon fill="midnightblue" stroke="midnightblue" points="150.362,-13.2547 139.904,-14.9507 149.137,-20.1467 150.362,-13.2547"/>
</g>
</g>
</svg>
