<?xml version="1.0" encoding="UTF-8" standalone="no"?>
<!DOCTYPE svg PUBLIC "-//W3C//DTD SVG 1.1//EN"
 "http://www.w3.org/Graphics/SVG/1.1/DTD/svg11.dtd">
<!-- Generated by graphviz version 2.38.0 (20140413.2041)
 -->
<!-- Title: IG.Lib.ISerializationDtoAux&lt; Type &gt; Pages: 1 -->
<svg width="130pt" height="106pt"
 viewBox="0.00 0.00 130.00 106.00" xmlns="http://www.w3.org/2000/svg" xmlns:xlink="http://www.w3.org/1999/xlink">
<g id="graph0" class="graph" transform="scale(1 1) rotate(0) translate(4 102)">
<title>IG.Lib.ISerializationDtoAux&lt; Type &gt;</title>
<polygon fill="white" stroke="none" points="-4,4 -4,-102 126,-102 126,4 -4,4"/>
<!-- Node1 -->
<g id="node1" class="node"><title>Node1</title>
<g id="a_node1"><a xlink:title="This interface facilitates use of static helper methods for copying on the SerializationDtoBase class...">
<polygon fill="#bfbfbf" stroke="black" points="3,-67.5 3,-97.5 119,-97.5 119,-67.5 3,-67.5"/>
<text text-anchor="start" x="11" y="-85.5" font-family="Helvetica,sans-Serif" font-size="10.00">IG.Lib.ISerializationDto</text>
<text text-anchor="middle" x="61" y="-74.5" font-family="Helvetica,sans-Serif" font-size="10.00">Aux&lt; Type &gt;</text>
</a>
</g>
</g>
<!-- Node2 -->
<g id="node2" class="node"><title>Node2</title>
<g id="a_node2"><a xlink:href="../../d8/d1e/interfaceIG_1_1Lib_1_1ISerializationDto.html" target="_top" xlink:title="Interface for Data Transfer Objects (DTO). This class is used as template for producing concrete DTO ...">
<polygon fill="white" stroke="black" points="0,-0.5 0,-30.5 122,-30.5 122,-0.5 0,-0.5"/>
<text text-anchor="start" x="8" y="-18.5" font-family="Helvetica,sans-Serif" font-size="10.00">IG::Lib::ISerializationDto</text>
<text text-anchor="middle" x="61" y="-7.5" font-family="Helvetica,sans-Serif" font-size="10.00">&lt; Type &gt;</text>
</a>
</g>
</g>
<!-- Node1&#45;&gt;Node2 -->
<g id="edge1" class="edge"><title>Node1&#45;&gt;Node2</title>
<path fill="none" stroke="midnightblue" d="M61,-57.1081C61,-48.1539 61,-38.3227 61,-30.5765"/>
<polygon fill="midnightblue" stroke="midnightblue" points="57.5001,-57.3959 61,-67.396 64.5001,-57.396 57.5001,-57.3959"/>
</g>
</g>
</svg>
