<?xml version="1.0" encoding="UTF-8" standalone="no"?>
<!DOCTYPE svg PUBLIC "-//W3C//DTD SVG 1.1//EN"
 "http://www.w3.org/Graphics/SVG/1.1/DTD/svg11.dtd">
<!-- Generated by graphviz version 2.38.0 (20140413.2041)
 -->
<!-- Title: IG.Num.InputOutputDataDefinitonDto Pages: 1 -->
<svg width="618pt" height="129pt"
 viewBox="0.00 0.00 618.00 129.00" xmlns="http://www.w3.org/2000/svg" xmlns:xlink="http://www.w3.org/1999/xlink">
<g id="graph0" class="graph" transform="scale(1 1) rotate(0) translate(4 125)">
<title>IG.Num.InputOutputDataDefinitonDto</title>
<polygon fill="white" stroke="none" points="-4,4 -4,-125 614,-125 614,4 -4,4"/>
<!-- Node1 -->
<g id="node1" class="node"><title>Node1</title>
<g id="a_node1"><a xlink:title="DTO (data transfer object) for data definition that contains input and output elements.">
<polygon fill="#bfbfbf" stroke="black" points="434,-52 434,-71 610,-71 610,-52 434,-52"/>
<text text-anchor="middle" x="522" y="-59" font-family="Helvetica,sans-Serif" font-size="10.00">IG.Num.InputOutputDataDefinitonDto</text>
</a>
</g>
</g>
<!-- Node2 -->
<g id="node2" class="node"><title>Node2</title>
<g id="a_node2"><a xlink:href="../../da/d46/classIG_1_1Lib_1_1SerializationDto.html" target="_top" xlink:title=" ">
<polygon fill="white" stroke="black" points="206.5,-90.5 206.5,-120.5 350.5,-120.5 350.5,-90.5 206.5,-90.5"/>
<text text-anchor="start" x="214.5" y="-108.5" font-family="Helvetica,sans-Serif" font-size="10.00">SerializationDto&lt; InputOutput</text>
<text text-anchor="middle" x="278.5" y="-97.5" font-family="Helvetica,sans-Serif" font-size="10.00">DataDefiniton &gt;</text>
</a>
</g>
</g>
<!-- Node2&#45;&gt;Node1 -->
<g id="edge1" class="edge"><title>Node2&#45;&gt;Node1</title>
<path fill="none" stroke="midnightblue" d="M360.571,-90.7293C396.27,-84.2251 437.176,-76.7723 468.747,-71.0202"/>
<polygon fill="midnightblue" stroke="midnightblue" points="359.862,-87.3007 350.652,-92.5365 361.117,-94.1873 359.862,-87.3007"/>
</g>
<!-- Node3 -->
<g id="node3" class="node"><title>Node3</title>
<g id="a_node3"><a xlink:href="../../d9/df9/classIG_1_1Num_1_1InputElementDefinitionDto.html" target="_top" xlink:title="DTO (data transfer object) for data input element definition.">
<polygon fill="white" stroke="black" points="196.5,-52 196.5,-71 360.5,-71 360.5,-52 196.5,-52"/>
<text text-anchor="middle" x="278.5" y="-59" font-family="Helvetica,sans-Serif" font-size="10.00">IG.Num.InputElementDefinitionDto</text>
</a>
</g>
</g>
<!-- Node3&#45;&gt;Node1 -->
<g id="edge2" class="edge"><title>Node3&#45;&gt;Node1</title>
<path fill="none" stroke="#9a32cd" stroke-dasharray="5,2" d="M370.654,-61.5C391.385,-61.5 413.357,-61.5 433.914,-61.5"/>
<polygon fill="#9a32cd" stroke="#9a32cd" points="370.588,-58.0001 360.588,-61.5 370.588,-65.0001 370.588,-58.0001"/>
<text text-anchor="middle" x="399.5" y="-64.5" font-family="Helvetica,sans-Serif" font-size="10.00"> Input</text>
</g>
<!-- Node4 -->
<g id="node4" class="node"><title>Node4</title>
<g id="a_node4"><a xlink:href="../../de/d82/classIG_1_1Num_1_1InputOutputElementDefinitionDto.html" target="_top" xlink:title=" ">
<polygon fill="white" stroke="black" points="4.5,-49.5 4.5,-79.5 150.5,-79.5 150.5,-49.5 4.5,-49.5"/>
<text text-anchor="start" x="12.5" y="-67.5" font-family="Helvetica,sans-Serif" font-size="10.00">InputOutputElementDefinition</text>
<text text-anchor="middle" x="77.5" y="-56.5" font-family="Helvetica,sans-Serif" font-size="10.00">Dto&lt; InputElementDefinition &gt;</text>
</a>
</g>
</g>
<!-- Node4&#45;&gt;Node3 -->
<g id="edge3" class="edge"><title>Node4&#45;&gt;Node3</title>
<path fill="none" stroke="midnightblue" d="M160.798,-63.2593C172.489,-63.0831 184.507,-62.9019 196.18,-62.7259"/>
<polygon fill="midnightblue" stroke="midnightblue" points="160.571,-59.7623 150.625,-63.4127 160.677,-66.7615 160.571,-59.7623"/>
</g>
<!-- Node5 -->
<g id="node5" class="node"><title>Node5</title>
<g id="a_node5"><a xlink:href="../../dd/d56/classIG_1_1Num_1_1OutputElementDefinitionDto.html" target="_top" xlink:title="DTO (data transfer object) for data output element definition.">
<polygon fill="white" stroke="black" points="192,-11 192,-30 365,-30 365,-11 192,-11"/>
<text text-anchor="middle" x="278.5" y="-18" font-family="Helvetica,sans-Serif" font-size="10.00">IG.Num.OutputElementDefinitionDto</text>
</a>
</g>
</g>
<!-- Node5&#45;&gt;Node1 -->
<g id="edge4" class="edge"><title>Node5&#45;&gt;Node1</title>
<path fill="none" stroke="#9a32cd" stroke-dasharray="5,2" d="M345.8,-31.7559C383.16,-38.0986 429.317,-45.9347 464.874,-51.9714"/>
<polygon fill="#9a32cd" stroke="#9a32cd" points="345.957,-28.2325 335.512,-30.0093 344.785,-35.1338 345.957,-28.2325"/>
<text text-anchor="middle" x="399.5" y="-46.5" font-family="Helvetica,sans-Serif" font-size="10.00"> Output</text>
</g>
<!-- Node6 -->
<g id="node6" class="node"><title>Node6</title>
<g id="a_node6"><a xlink:href="../../de/d82/classIG_1_1Num_1_1InputOutputElementDefinitionDto.html" target="_top" xlink:title=" ">
<polygon fill="white" stroke="black" points="0,-0.5 0,-30.5 155,-30.5 155,-0.5 0,-0.5"/>
<text text-anchor="start" x="8" y="-18.5" font-family="Helvetica,sans-Serif" font-size="10.00">InputOutputElementDefinition</text>
<text text-anchor="middle" x="77.5" y="-7.5" font-family="Helvetica,sans-Serif" font-size="10.00">Dto&lt; OutputElementDefinition &gt;</text>
</a>
</g>
</g>
<!-- Node6&#45;&gt;Node5 -->
<g id="edge5" class="edge"><title>Node6&#45;&gt;Node5</title>
<path fill="none" stroke="midnightblue" d="M165.411,-17.6837C174.215,-17.9049 183.153,-18.1295 191.943,-18.3503"/>
<polygon fill="midnightblue" stroke="midnightblue" points="165.239,-14.1784 155.154,-17.426 165.063,-21.1761 165.239,-14.1784"/>
</g>
</g>
</svg>
