<?xml version="1.0" encoding="UTF-8" standalone="no"?>
<!DOCTYPE svg PUBLIC "-//W3C//DTD SVG 1.1//EN"
 "http://www.w3.org/Graphics/SVG/1.1/DTD/svg11.dtd">
<!-- Generated by graphviz version 2.38.0 (20140413.2041)
 -->
<!-- Title: IG.Num.ScalarFunctionScriptControllerBase&lt; ScalarFunctionType &gt; Pages: 1 -->
<svg width="1336pt" height="542pt"
 viewBox="0.00 0.00 1336.00 541.50" xmlns="http://www.w3.org/2000/svg" xmlns:xlink="http://www.w3.org/1999/xlink">
<g id="graph0" class="graph" transform="scale(1 1) rotate(0) translate(4 537.5)">
<title>IG.Num.ScalarFunctionScriptControllerBase&lt; ScalarFunctionType &gt;</title>
<polygon fill="white" stroke="none" points="-4,4 -4,-537.5 1332,-537.5 1332,4 -4,4"/>
<!-- Node1 -->
<g id="node1" class="node"><title>Node1</title>
<g id="a_node1"><a xlink:title="Base class for building scalar functions from scripts. This is currently an interrmediate class betwe...">
<polygon fill="#bfbfbf" stroke="black" points="1143,-140.5 1143,-170.5 1328,-170.5 1328,-140.5 1143,-140.5"/>
<text text-anchor="start" x="1151" y="-158.5" font-family="Helvetica,sans-Serif" font-size="10.00">IG.Num.ScalarFunctionScript</text>
<text text-anchor="middle" x="1235.5" y="-147.5" font-family="Helvetica,sans-Serif" font-size="10.00">ControllerBase&lt; ScalarFunctionType &gt;</text>
</a>
</g>
</g>
<!-- Node2 -->
<g id="node2" class="node"><title>Node2</title>
<g id="a_node2"><a xlink:href="../../dd/d37/classIG_1_1Lib_1_1ScalarFunctionLoader.html" target="_top" xlink:title="Dynamically generates IScalarFunction classes from user definitions. User can define in string form h...">
<polygon fill="white" stroke="black" points="895,-226 895,-245 1035,-245 1035,-226 895,-226"/>
<text text-anchor="middle" x="965" y="-233" font-family="Helvetica,sans-Serif" font-size="10.00">IG.Lib.ScalarFunctionLoader</text>
</a>
</g>
</g>
<!-- Node2&#45;&gt;Node1 -->
<g id="edge1" class="edge"><title>Node2&#45;&gt;Node1</title>
<path fill="none" stroke="#9a32cd" stroke-dasharray="5,2" d="M1007.8,-223.046C1055.39,-208.867 1133.11,-185.709 1184.04,-170.535"/>
<polygon fill="#9a32cd" stroke="#9a32cd" points="1006.7,-219.72 998.121,-225.93 1008.7,-226.428 1006.7,-219.72"/>
<text text-anchor="middle" x="1089" y="-210.5" font-family="Helvetica,sans-Serif" font-size="10.00"> _functionLoader</text>
</g>
<!-- Node3 -->
<g id="node3" class="node"><title>Node3</title>
<g id="a_node3"><a xlink:href="../../d3/db6/interfaceIG_1_1Lib_1_1ILockable.html" target="_top" xlink:title="Lockable object, has a Lock property that returns object on which lock must be performed in order to ...">
<polygon fill="white" stroke="black" points="238.5,-294 238.5,-313 296.5,-313 296.5,-294 238.5,-294"/>
<text text-anchor="middle" x="267.5" y="-301" font-family="Helvetica,sans-Serif" font-size="10.00">ILockable</text>
</a>
</g>
</g>
<!-- Node3&#45;&gt;Node2 -->
<g id="edge2" class="edge"><title>Node3&#45;&gt;Node2</title>
<path fill="none" stroke="midnightblue" d="M306.921,-308.004C346.938,-312.047 411.427,-316.745 467,-312.5 634.374,-299.716 830.651,-262.708 918.027,-245.068"/>
<polygon fill="midnightblue" stroke="midnightblue" points="307.113,-304.505 296.803,-306.942 306.383,-311.466 307.113,-304.505"/>
</g>
<!-- Node12 -->
<g id="node12" class="node"><title>Node12</title>
<g id="a_node12"><a xlink:href="../../d3/d40/classIG_1_1Lib_1_1ScriptLoaderBase.html" target="_top" xlink:title="Dynamically compiles, loads and instantiates classes of type ILoadableScript from files or from strin...">
<polygon fill="white" stroke="black" points="485,-226 485,-245 607,-245 607,-226 485,-226"/>
<text text-anchor="middle" x="546" y="-233" font-family="Helvetica,sans-Serif" font-size="10.00">IG.Lib.ScriptLoaderBase</text>
</a>
</g>
</g>
<!-- Node3&#45;&gt;Node12 -->
<g id="edge13" class="edge"><title>Node3&#45;&gt;Node12</title>
<path fill="none" stroke="midnightblue" d="M306.808,-306.681C347.695,-308.744 413.78,-308.205 467,-289.5 494.348,-279.888 520.959,-257.969 534.921,-245.208"/>
<polygon fill="midnightblue" stroke="midnightblue" points="306.915,-303.182 296.728,-306.094 306.507,-310.17 306.915,-303.182"/>
</g>
<!-- Node17 -->
<g id="node17" class="node"><title>Node17</title>
<g id="a_node17"><a xlink:href="../../d7/d15/classIG_1_1Lib_1_1LoadableScriptBase.html" target="_top" xlink:title="Base class for classes that can be dynamically loadeded from scripts and run, which provides function...">
<polygon fill="white" stroke="black" points="494,-57 494,-76 598,-76 598,-57 494,-57"/>
<text text-anchor="middle" x="546" y="-64" font-family="Helvetica,sans-Serif" font-size="10.00">LoadableScriptBase</text>
</a>
</g>
</g>
<!-- Node3&#45;&gt;Node17 -->
<g id="edge20" class="edge"><title>Node3&#45;&gt;Node17</title>
<path fill="none" stroke="midnightblue" d="M306.814,-299.925C357.498,-294.482 443.207,-282.571 467,-262.5 483.781,-248.344 476.923,-236.914 485,-216.5 505.947,-163.556 531.401,-100.258 541.043,-76.3179"/>
<polygon fill="midnightblue" stroke="midnightblue" points="306.15,-296.475 296.565,-300.99 306.873,-303.438 306.15,-296.475"/>
</g>
<!-- Node4 -->
<g id="node4" class="node"><title>Node4</title>
<g id="a_node4"><a xlink:href="../../d5/d06/classIG_1_1Lib_1_1LoadableScalarFunctionBase.html" target="_top" xlink:title="A ScalarFunction class used as base class for dynamically loaded scalar functions....">
<polygon fill="white" stroke="black" points="644,-370 644,-389 816,-389 816,-370 644,-370"/>
<text text-anchor="middle" x="730" y="-377" font-family="Helvetica,sans-Serif" font-size="10.00">IG.Lib.LoadableScalarFunctionBase</text>
</a>
</g>
</g>
<!-- Node4&#45;&gt;Node2 -->
<g id="edge3" class="edge"><title>Node4&#45;&gt;Node2</title>
<path fill="none" stroke="#9a32cd" stroke-dasharray="5,2" d="M816.272,-367.535C837.22,-362.066 858.829,-354.1 877,-342.5 917.159,-316.863 947.454,-266.427 958.954,-245.239"/>
<polygon fill="#9a32cd" stroke="#9a32cd" points="815.268,-364.177 806.385,-369.951 816.93,-370.977 815.268,-364.177"/>
<text text-anchor="middle" x="855.5" y="-365.5" font-family="Helvetica,sans-Serif" font-size="10.00"> _function</text>
</g>
<!-- Node5 -->
<g id="node5" class="node"><title>Node5</title>
<g id="a_node5"><a xlink:href="../../d2/d85/classIG_1_1Num_1_1ScalarFunctionBase.html" target="_top" xlink:title="Base class for scalar functions with affine transformation of co&#45;ordinates. The reference function is...">
<polygon fill="white" stroke="black" points="494,-410 494,-429 598,-429 598,-410 494,-410"/>
<text text-anchor="middle" x="546" y="-417" font-family="Helvetica,sans-Serif" font-size="10.00">ScalarFunctionBase</text>
</a>
</g>
</g>
<!-- Node5&#45;&gt;Node4 -->
<g id="edge4" class="edge"><title>Node5&#45;&gt;Node4</title>
<path fill="none" stroke="midnightblue" d="M600.699,-407.698C627.816,-401.738 660.276,-394.604 685.762,-389.003"/>
<polygon fill="midnightblue" stroke="midnightblue" points="599.609,-404.354 590.594,-409.919 601.112,-411.191 599.609,-404.354"/>
</g>
<!-- Node6 -->
<g id="node6" class="node"><title>Node6</title>
<g id="a_node6"><a xlink:href="../../d2/d9e/classIG_1_1Num_1_1ScalarFunctionUntransformedBase.html" target="_top" xlink:title="Base class for defining scalar functions without possibility of affine transformation of parameters.">
<polygon fill="white" stroke="black" points="184,-514 184,-533 351,-533 351,-514 184,-514"/>
<text text-anchor="middle" x="267.5" y="-521" font-family="Helvetica,sans-Serif" font-size="10.00">ScalarFunctionUntransformedBase</text>
</a>
</g>
</g>
<!-- Node6&#45;&gt;Node5 -->
<g id="edge5" class="edge"><title>Node6&#45;&gt;Node5</title>
<path fill="none" stroke="midnightblue" d="M341.001,-511.987C379.595,-504.207 427.178,-491.925 467,-473.5 492.86,-461.535 519.389,-441.081 533.874,-429.075"/>
<polygon fill="midnightblue" stroke="midnightblue" points="340.024,-508.612 330.881,-513.966 341.367,-515.482 340.024,-508.612"/>
</g>
<!-- Node7 -->
<g id="node7" class="node"><title>Node7</title>
<g id="a_node7"><a xlink:href="../../d8/d56/interfaceIG_1_1Num_1_1IScalarFunctionUntransformed.html" target="_top" xlink:title="Scalar functions of vector arguments.">
<polygon fill="white" stroke="black" points="0,-496 0,-515 147,-515 147,-496 0,-496"/>
<text text-anchor="middle" x="73.5" y="-503" font-family="Helvetica,sans-Serif" font-size="10.00">IScalarFunctionUntransformed</text>
</a>
</g>
</g>
<!-- Node7&#45;&gt;Node6 -->
<g id="edge6" class="edge"><title>Node7&#45;&gt;Node6</title>
<path fill="none" stroke="midnightblue" d="M157.317,-513.264C166.106,-514.088 175.045,-514.926 183.832,-515.75"/>
<polygon fill="midnightblue" stroke="midnightblue" points="157.37,-509.754 147.087,-512.305 156.717,-516.723 157.37,-509.754"/>
</g>
<!-- Node8 -->
<g id="node8" class="node"><title>Node8</title>
<g id="a_node8"><a xlink:href="../../dd/d1e/interfaceIG_1_1Num_1_1IScalarFunction.html" target="_top" xlink:title="Scalar functions of vector arguments, with eventual affine transformation of parameters....">
<polygon fill="white" stroke="black" points="225.5,-476 225.5,-495 309.5,-495 309.5,-476 225.5,-476"/>
<text text-anchor="middle" x="267.5" y="-483" font-family="Helvetica,sans-Serif" font-size="10.00">IScalarFunction</text>
</a>
</g>
</g>
<!-- Node7&#45;&gt;Node8 -->
<g id="edge8" class="edge"><title>Node7&#45;&gt;Node8</title>
<path fill="none" stroke="midnightblue" d="M157.104,-496.895C180.674,-494.44 205.343,-491.871 225.276,-489.794"/>
<polygon fill="midnightblue" stroke="midnightblue" points="156.67,-493.422 147.087,-497.939 157.396,-500.384 156.67,-493.422"/>
</g>
<!-- Node8&#45;&gt;Node5 -->
<g id="edge7" class="edge"><title>Node8&#45;&gt;Node5</title>
<path fill="none" stroke="midnightblue" d="M319.792,-478.417C360.2,-472.245 417.74,-462.139 467,-448.5 486.075,-443.218 507.072,-435.284 522.472,-429.049"/>
<polygon fill="midnightblue" stroke="midnightblue" points="319.015,-474.994 309.645,-479.939 320.054,-481.917 319.015,-474.994"/>
</g>
<!-- Node9 -->
<g id="node9" class="node"><title>Node9</title>
<g id="a_node9"><a xlink:href="../../d8/d86/interfaceIG_1_1Num_1_1IMatrix.html" target="_top" xlink:title="Generic Matrix interface.">
<polygon fill="white" stroke="black" points="197.5,-426.5 197.5,-456.5 337.5,-456.5 337.5,-426.5 197.5,-426.5"/>
<text text-anchor="start" x="205.5" y="-444.5" font-family="Helvetica,sans-Serif" font-size="10.00">IG.Num.IMatrix&lt; Component</text>
<text text-anchor="middle" x="267.5" y="-433.5" font-family="Helvetica,sans-Serif" font-size="10.00">Type &gt;</text>
</a>
</g>
</g>
<!-- Node9&#45;&gt;Node5 -->
<g id="edge9" class="edge"><title>Node9&#45;&gt;Node5</title>
<path fill="none" stroke="#9a32cd" stroke-dasharray="5,2" d="M347.702,-435.198C394.65,-431.463 452.784,-426.837 493.75,-423.578"/>
<polygon fill="#9a32cd" stroke="#9a32cd" points="347.25,-431.723 337.559,-436.005 347.806,-438.701 347.25,-431.723"/>
<text text-anchor="middle" x="418" y="-436.5" font-family="Helvetica,sans-Serif" font-size="10.00"> _refHess</text>
</g>
<!-- Node10 -->
<g id="node10" class="node"><title>Node10</title>
<g id="a_node10"><a xlink:href="../../d3/d24/interfaceIG_1_1Num_1_1IVector.html" target="_top" xlink:title="Generic Vector interface">
<polygon fill="white" stroke="black" points="214,-388 214,-407 321,-407 321,-388 214,-388"/>
<text text-anchor="middle" x="267.5" y="-395" font-family="Helvetica,sans-Serif" font-size="10.00">IG.Num.IVector&lt; T &gt;</text>
</a>
</g>
</g>
<!-- Node10&#45;&gt;Node5 -->
<g id="edge10" class="edge"><title>Node10&#45;&gt;Node5</title>
<path fill="none" stroke="#9a32cd" stroke-dasharray="5,2" d="M331.577,-394.868C370.718,-394.122 421.965,-394.748 467,-400.5 482.208,-402.442 498.748,-406.223 512.667,-409.904"/>
<polygon fill="#9a32cd" stroke="#9a32cd" points="331.305,-391.374 321.387,-395.099 331.464,-398.372 331.305,-391.374"/>
<text text-anchor="middle" x="418" y="-414.5" font-family="Helvetica,sans-Serif" font-size="10.00"> _refParam</text>
<text text-anchor="middle" x="418" y="-403.5" font-family="Helvetica,sans-Serif" font-size="10.00">_refGrad</text>
</g>
<!-- Node11 -->
<g id="node11" class="node"><title>Node11</title>
<g id="a_node11"><a xlink:href="../../d5/d50/interfaceIG_1_1Num_1_1IAffineTransformation.html" target="_top" xlink:title="Affine Transformation.">
<polygon fill="white" stroke="black" points="196,-350 196,-369 339,-369 339,-350 196,-350"/>
<text text-anchor="middle" x="267.5" y="-357" font-family="Helvetica,sans-Serif" font-size="10.00">IG.Num.IAffineTransformation</text>
</a>
</g>
</g>
<!-- Node11&#45;&gt;Node5 -->
<g id="edge11" class="edge"><title>Node11&#45;&gt;Node5</title>
<path fill="none" stroke="#9a32cd" stroke-dasharray="5,2" d="M349.161,-361.493C385.724,-364.052 429.149,-369.43 467,-380.5 490.105,-387.257 514.598,-400.665 529.842,-409.856"/>
<polygon fill="#9a32cd" stroke="#9a32cd" points="349.244,-357.992 339.041,-360.844 348.796,-364.977 349.244,-357.992"/>
<text text-anchor="middle" x="418" y="-383.5" font-family="Helvetica,sans-Serif" font-size="10.00"> _transf</text>
</g>
<!-- Node12&#45;&gt;Node2 -->
<g id="edge12" class="edge"><title>Node12&#45;&gt;Node2</title>
<path fill="none" stroke="#9a32cd" stroke-dasharray="5,2" d="M617.313,-235.5C694.596,-235.5 817.956,-235.5 894.795,-235.5"/>
<polygon fill="#9a32cd" stroke="#9a32cd" points="617.19,-232 607.19,-235.5 617.19,-239 617.19,-232"/>
<text text-anchor="middle" x="730" y="-238.5" font-family="Helvetica,sans-Serif" font-size="10.00"> _loader</text>
</g>
<!-- Node13 -->
<g id="node13" class="node"><title>Node13</title>
<g id="a_node13"><a xlink:href="../../d7/d66/interfaceIG_1_1Lib_1_1ILoadableScript.html" target="_top" xlink:title="Interface for classes that can be dynamically loadeded from scripts and run, which provides functiona...">
<polygon fill="white" stroke="black" points="211.5,-245 211.5,-264 323.5,-264 323.5,-245 211.5,-245"/>
<text text-anchor="middle" x="267.5" y="-252" font-family="Helvetica,sans-Serif" font-size="10.00">IG.Lib.ILoadableScript</text>
</a>
</g>
</g>
<!-- Node13&#45;&gt;Node12 -->
<g id="edge14" class="edge"><title>Node13&#45;&gt;Node12</title>
<path fill="none" stroke="#9a32cd" stroke-dasharray="5,2" d="M333.877,-250.008C379.52,-246.871 440.002,-242.715 484.528,-239.655"/>
<polygon fill="#9a32cd" stroke="#9a32cd" points="333.526,-246.523 323.789,-250.701 334.006,-253.507 333.526,-246.523"/>
<text text-anchor="middle" x="418" y="-250.5" font-family="Helvetica,sans-Serif" font-size="10.00"> _runnableObject</text>
</g>
<!-- Node14 -->
<g id="node14" class="node"><title>Node14</title>
<g id="a_node14"><a xlink:href="../../d7/df0/classIG_1_1Lib_1_1Logger.html" target="_top" xlink:title="Temporary logging of errors, warnings and infos for later processing. It is used to log multiple even...">
<polygon fill="white" stroke="black" points="230.5,-207 230.5,-226 304.5,-226 304.5,-207 230.5,-207"/>
<text text-anchor="middle" x="267.5" y="-214" font-family="Helvetica,sans-Serif" font-size="10.00">IG.Lib.Logger</text>
</a>
</g>
</g>
<!-- Node14&#45;&gt;Node12 -->
<g id="edge15" class="edge"><title>Node14&#45;&gt;Node12</title>
<path fill="none" stroke="#9a32cd" stroke-dasharray="5,2" d="M314.819,-217.987C355.085,-219.482 414.962,-222.192 467,-226.5 472.842,-226.984 478.921,-227.559 484.995,-228.181"/>
<polygon fill="#9a32cd" stroke="#9a32cd" points="314.888,-214.488 304.768,-217.624 314.635,-221.483 314.888,-214.488"/>
<text text-anchor="middle" x="418" y="-229.5" font-family="Helvetica,sans-Serif" font-size="10.00"> _logger</text>
</g>
<!-- Node15 -->
<g id="node15" class="node"><title>Node15</title>
<g id="a_node15"><a xlink:title=" ">
<polygon fill="white" stroke="#bfbfbf" points="247,-109 247,-128 288,-128 288,-109 247,-109"/>
<text text-anchor="middle" x="267.5" y="-116" font-family="Helvetica,sans-Serif" font-size="10.00">static</text>
</a>
</g>
</g>
<!-- Node15&#45;&gt;Node1 -->
<g id="edge23" class="edge"><title>Node15&#45;&gt;Node1</title>
<path fill="none" stroke="#9a32cd" stroke-dasharray="5,2" d="M298.537,-118.5C349.308,-118.5 455.332,-118.5 545,-118.5 545,-118.5 545,-118.5 966,-118.5 1033.76,-118.5 1110.24,-130.207 1164.2,-140.451"/>
<polygon fill="#9a32cd" stroke="#9a32cd" points="298.281,-115 288.281,-118.5 298.281,-122 298.281,-115"/>
<text text-anchor="middle" x="730" y="-154.5" font-family="Helvetica,sans-Serif" font-size="10.00"> _defaultLowerBound</text>
<text text-anchor="middle" x="730" y="-143.5" font-family="Helvetica,sans-Serif" font-size="10.00">_defaultUpperBound</text>
<text text-anchor="middle" x="730" y="-132.5" font-family="Helvetica,sans-Serif" font-size="10.00">_defaultFunctionsSeparator</text>
<text text-anchor="middle" x="730" y="-121.5" font-family="Helvetica,sans-Serif" font-size="10.00">_defaultParameterNamesSeparator</text>
</g>
<!-- Node15&#45;&gt;Node12 -->
<g id="edge16" class="edge"><title>Node15&#45;&gt;Node12</title>
<path fill="none" stroke="#9a32cd" stroke-dasharray="5,2" d="M297.971,-122.616C337.99,-129.055 410.951,-143.852 467,-172.5 494.899,-186.76 522.127,-212.113 535.835,-225.91"/>
<polygon fill="#9a32cd" stroke="#9a32cd" points="298.484,-119.154 288.067,-121.086 297.416,-126.072 298.484,-119.154"/>
<text text-anchor="middle" x="418" y="-208.5" font-family="Helvetica,sans-Serif" font-size="10.00"> _isScriptingInitialized</text>
<text text-anchor="middle" x="418" y="-197.5" font-family="Helvetica,sans-Serif" font-size="10.00">_usedClassFullNames</text>
<text text-anchor="middle" x="418" y="-186.5" font-family="Helvetica,sans-Serif" font-size="10.00">_global</text>
<text text-anchor="middle" x="418" y="-175.5" font-family="Helvetica,sans-Serif" font-size="10.00">_defaultAssemblies</text>
</g>
<!-- Node15&#45;&gt;Node17 -->
<g id="edge22" class="edge"><title>Node15&#45;&gt;Node17</title>
<path fill="none" stroke="#9a32cd" stroke-dasharray="5,2" d="M297.759,-110.469C317.725,-105.175 344.831,-98.3493 369,-93.5 410.826,-85.1078 458.702,-77.9175 493.951,-73.0721"/>
<polygon fill="#9a32cd" stroke="#9a32cd" points="296.775,-107.109 288.023,-113.08 298.588,-113.87 296.775,-107.109"/>
<text text-anchor="middle" x="418" y="-96.5" font-family="Helvetica,sans-Serif" font-size="10.00"> _defaultOutputLevel</text>
</g>
<!-- Node16 -->
<g id="node16" class="node"><title>Node16</title>
<g id="a_node16"><a xlink:href="../../d7/dba/classIG_1_1Lib_1_1LoadableScriptScalarFunctionBase.html" target="_top" xlink:title="Base class for loadable scripts that define scalar functions of several variables.">
<polygon fill="white" stroke="black" points="661.5,-51.5 661.5,-81.5 798.5,-81.5 798.5,-51.5 661.5,-51.5"/>
<text text-anchor="start" x="669.5" y="-69.5" font-family="Helvetica,sans-Serif" font-size="10.00">IG.Lib.LoadableScriptScalar</text>
<text text-anchor="middle" x="730" y="-58.5" font-family="Helvetica,sans-Serif" font-size="10.00">FunctionBase</text>
</a>
</g>
</g>
<!-- Node16&#45;&gt;Node2 -->
<g id="edge17" class="edge"><title>Node16&#45;&gt;Node2</title>
<path fill="none" stroke="#9a32cd" stroke-dasharray="5,2" d="M794.024,-85.3852C801.652,-88.6375 809.157,-92.3358 816,-96.5 878.032,-134.249 936.064,-201.251 956.367,-225.984"/>
<polygon fill="#9a32cd" stroke="#9a32cd" points="795.278,-82.1172 784.694,-81.638 792.669,-88.6129 795.278,-82.1172"/>
<text text-anchor="middle" x="855.5" y="-143.5" font-family="Helvetica,sans-Serif" font-size="10.00"> _creator</text>
</g>
<!-- Node17&#45;&gt;Node16 -->
<g id="edge18" class="edge"><title>Node17&#45;&gt;Node16</title>
<path fill="none" stroke="midnightblue" d="M608.511,-66.5C625.459,-66.5 643.936,-66.5 661.216,-66.5"/>
<polygon fill="midnightblue" stroke="midnightblue" points="608.182,-63.0001 598.181,-66.5 608.181,-70.0001 608.182,-63.0001"/>
</g>
<!-- Node18 -->
<g id="node18" class="node"><title>Node18</title>
<g id="a_node18"><a xlink:href="../../d7/d66/interfaceIG_1_1Lib_1_1ILoadableScript.html" target="_top" xlink:title="Interface for classes that can be dynamically loadeded from scripts and run, which provides functiona...">
<polygon fill="white" stroke="black" points="226,-50 226,-69 309,-69 309,-50 226,-50"/>
<text text-anchor="middle" x="267.5" y="-57" font-family="Helvetica,sans-Serif" font-size="10.00">ILoadableScript</text>
</a>
</g>
</g>
<!-- Node18&#45;&gt;Node17 -->
<g id="edge19" class="edge"><title>Node18&#45;&gt;Node17</title>
<path fill="none" stroke="midnightblue" d="M319.167,-60.7827C368.705,-62.0368 443.75,-63.9367 493.553,-65.1976"/>
<polygon fill="midnightblue" stroke="midnightblue" points="319.087,-57.2797 309.002,-60.5254 318.91,-64.2774 319.087,-57.2797"/>
</g>
<!-- Node19 -->
<g id="node19" class="node"><title>Node19</title>
<g id="a_node19"><a xlink:href="../../de/dfd/interfaceIG_1_1Lib_1_1ICommandLineApplicationInterpreter.html" target="_top" xlink:title="Interface for simple command&#45;line applicatino interpreters.">
<polygon fill="white" stroke="black" points="188.5,-0.5 188.5,-30.5 346.5,-30.5 346.5,-0.5 188.5,-0.5"/>
<text text-anchor="start" x="196.5" y="-18.5" font-family="Helvetica,sans-Serif" font-size="10.00">IG.Lib.ICommandLineApplication</text>
<text text-anchor="middle" x="267.5" y="-7.5" font-family="Helvetica,sans-Serif" font-size="10.00">Interpreter</text>
</a>
</g>
</g>
<!-- Node19&#45;&gt;Node17 -->
<g id="edge21" class="edge"><title>Node19&#45;&gt;Node17</title>
<path fill="none" stroke="#9a32cd" stroke-dasharray="5,2" d="M356.594,-28.1701C391.132,-33.537 431.032,-40.2319 467,-47.5 480.525,-50.233 495.254,-53.6936 508.234,-56.9105"/>
<polygon fill="#9a32cd" stroke="#9a32cd" points="356.948,-24.6834 346.532,-26.6203 355.883,-31.6019 356.948,-24.6834"/>
<text text-anchor="middle" x="418" y="-50.5" font-family="Helvetica,sans-Serif" font-size="10.00"> _script_interpreter</text>
</g>
</g>
</svg>
