<?xml version="1.0" encoding="UTF-8" standalone="no"?>
<!DOCTYPE svg PUBLIC "-//W3C//DTD SVG 1.1//EN"
 "http://www.w3.org/Graphics/SVG/1.1/DTD/svg11.dtd">
<!-- Generated by graphviz version 2.38.0 (20140413.2041)
 -->
<!-- Title: IG.Num.IVectorApproximator Pages: 1 -->
<svg width="717pt" height="104pt"
 viewBox="0.00 0.00 717.00 104.00" xmlns="http://www.w3.org/2000/svg" xmlns:xlink="http://www.w3.org/1999/xlink">
<g id="graph0" class="graph" transform="scale(1 1) rotate(0) translate(4 100)">
<title>IG.Num.IVectorApproximator</title>
<polygon fill="white" stroke="none" points="-4,4 -4,-100 713,-100 713,4 -4,4"/>
<!-- Node1 -->
<g id="node1" class="node"><title>Node1</title>
<g id="a_node1"><a xlink:title="Interface for vector function approximators.">
<polygon fill="#bfbfbf" stroke="black" points="0,-38.5 0,-57.5 141,-57.5 141,-38.5 0,-38.5"/>
<text text-anchor="middle" x="70.5" y="-45.5" font-family="Helvetica,sans-Serif" font-size="10.00">IG.Num.IVectorApproximator</text>
</a>
</g>
</g>
<!-- Node2 -->
<g id="node2" class="node"><title>Node2</title>
<g id="a_node2"><a xlink:href="../../d7/db4/interfaceIG_1_1Num_1_1INeuralApproximator.html" target="_top" xlink:title="Approximator of response by using neural networks. $A Igor Mar11;">
<polygon fill="white" stroke="black" points="187.5,-76.5 187.5,-95.5 327.5,-95.5 327.5,-76.5 187.5,-76.5"/>
<text text-anchor="middle" x="257.5" y="-83.5" font-family="Helvetica,sans-Serif" font-size="10.00">IG.Num.INeuralApproximator</text>
</a>
</g>
</g>
<!-- Node1&#45;&gt;Node2 -->
<g id="edge1" class="edge"><title>Node1&#45;&gt;Node2</title>
<path fill="none" stroke="midnightblue" d="M128.02,-59.6095C154.331,-65.014 185.243,-71.3635 210.152,-76.4799"/>
<polygon fill="midnightblue" stroke="midnightblue" points="128.683,-56.1727 118.183,-57.589 127.275,-63.0296 128.683,-56.1727"/>
</g>
<!-- Node3 -->
<g id="node3" class="node"><title>Node3</title>
<g id="a_node3"><a xlink:href="../../dc/db5/classIG_1_1Num_1_1NeuralApproximatorBase.html" target="_top" xlink:title="Base class for neural network approximators.">
<polygon fill="white" stroke="black" points="374,-38.5 374,-57.5 535,-57.5 535,-38.5 374,-38.5"/>
<text text-anchor="middle" x="454.5" y="-45.5" font-family="Helvetica,sans-Serif" font-size="10.00">IG.Num.NeuralApproximatorBase</text>
</a>
</g>
</g>
<!-- Node1&#45;&gt;Node3 -->
<g id="edge4" class="edge"><title>Node1&#45;&gt;Node3</title>
<path fill="none" stroke="midnightblue" d="M151.364,-48C216.662,-48 308.536,-48 373.792,-48"/>
<polygon fill="midnightblue" stroke="midnightblue" points="151.121,-44.5001 141.121,-48 151.12,-51.5001 151.121,-44.5001"/>
</g>
<!-- Node5 -->
<g id="node5" class="node"><title>Node5</title>
<g id="a_node5"><a xlink:href="../../db/d03/classIG_1_1Num_1_1VectorApproximatorBase.html" target="_top" xlink:title="Base class for vector function approximators.">
<polygon fill="white" stroke="black" points="177,-0.5 177,-19.5 338,-19.5 338,-0.5 177,-0.5"/>
<text text-anchor="middle" x="257.5" y="-7.5" font-family="Helvetica,sans-Serif" font-size="10.00">IG.Num.VectorApproximatorBase</text>
</a>
</g>
</g>
<!-- Node1&#45;&gt;Node5 -->
<g id="edge5" class="edge"><title>Node1&#45;&gt;Node5</title>
<path fill="none" stroke="midnightblue" d="M128.02,-36.3905C154.331,-30.986 185.243,-24.6365 210.152,-19.5201"/>
<polygon fill="midnightblue" stroke="midnightblue" points="127.275,-32.9704 118.183,-38.411 128.683,-39.8273 127.275,-32.9704"/>
</g>
<!-- Node2&#45;&gt;Node3 -->
<g id="edge2" class="edge"><title>Node2&#45;&gt;Node3</title>
<path fill="none" stroke="midnightblue" d="M317.459,-74.5106C345.282,-69.0886 378.096,-62.6942 404.525,-57.5439"/>
<polygon fill="midnightblue" stroke="midnightblue" points="316.601,-71.1118 307.455,-76.46 317.94,-77.9826 316.601,-71.1118"/>
</g>
<!-- Node4 -->
<g id="node4" class="node"><title>Node4</title>
<g id="a_node4"><a xlink:href="../../dd/d0e/classIG_1_1Num_1_1NeuralApproximatorAforgeFake.html" target="_top" xlink:title=" ">
<polygon fill="white" stroke="black" points="571,-33 571,-63 709,-63 709,-33 571,-33"/>
<text text-anchor="start" x="579" y="-51" font-family="Helvetica,sans-Serif" font-size="10.00">IG.Num.NeuralApproximator</text>
<text text-anchor="middle" x="640" y="-40" font-family="Helvetica,sans-Serif" font-size="10.00">AforgeFake</text>
</a>
</g>
</g>
<!-- Node3&#45;&gt;Node4 -->
<g id="edge3" class="edge"><title>Node3&#45;&gt;Node4</title>
<path fill="none" stroke="midnightblue" d="M545.27,-48C553.886,-48 562.525,-48 570.883,-48"/>
<polygon fill="midnightblue" stroke="midnightblue" points="545.185,-44.5001 535.185,-48 545.185,-51.5001 545.185,-44.5001"/>
</g>
<!-- Node5&#45;&gt;Node3 -->
<g id="edge6" class="edge"><title>Node5&#45;&gt;Node3</title>
<path fill="none" stroke="midnightblue" d="M317.459,-21.4894C345.282,-26.9114 378.096,-33.3058 404.525,-38.4561"/>
<polygon fill="midnightblue" stroke="midnightblue" points="317.94,-18.0174 307.455,-19.54 316.601,-24.8882 317.94,-18.0174"/>
</g>
</g>
</svg>
