<?xml version="1.0" encoding="UTF-8" standalone="no"?>
<!DOCTYPE svg PUBLIC "-//W3C//DTD SVG 1.1//EN"
 "http://www.w3.org/Graphics/SVG/1.1/DTD/svg11.dtd">
<!-- Generated by graphviz version 2.38.0 (20140413.2041)
 -->
<!-- Title: IG.Num.AnalysisResultsDto Pages: 1 -->
<svg width="776pt" height="156pt"
 viewBox="0.00 0.00 776.00 155.50" xmlns="http://www.w3.org/2000/svg" xmlns:xlink="http://www.w3.org/1999/xlink">
<g id="graph0" class="graph" transform="scale(1 1) rotate(0) translate(4 151.5)">
<title>IG.Num.AnalysisResultsDto</title>
<polygon fill="white" stroke="none" points="-4,4 -4,-151.5 772,-151.5 772,4 -4,4"/>
<!-- Node1 -->
<g id="node1" class="node"><title>Node1</title>
<g id="a_node1"><a xlink:title="DTO (Data Transfer Objects) for storing contents of direct analysis request (in optimization problems...">
<polygon fill="#bfbfbf" stroke="black" points="630,-58 630,-77 768,-77 768,-58 630,-58"/>
<text text-anchor="middle" x="699" y="-65" font-family="Helvetica,sans-Serif" font-size="10.00">IG.Num.AnalysisResultsDto</text>
</a>
</g>
</g>
<!-- Node2 -->
<g id="node2" class="node"><title>Node2</title>
<g id="a_node2"><a xlink:href="../../dc/ddd/classIG_1_1Num_1_1AnalysisRequestDto.html" target="_top" xlink:title="DTO (Data Transfer Objects) for storing contents of direct analysis request (in optimization problems...">
<polygon fill="white" stroke="black" points="394.5,-108 394.5,-127 499.5,-127 499.5,-108 394.5,-108"/>
<text text-anchor="middle" x="447" y="-115" font-family="Helvetica,sans-Serif" font-size="10.00">AnalysisRequestDto</text>
</a>
</g>
</g>
<!-- Node2&#45;&gt;Node1 -->
<g id="edge1" class="edge"><title>Node2&#45;&gt;Node1</title>
<path fill="none" stroke="midnightblue" d="M505.544,-105.991C549.348,-97.2304 608.928,-85.3143 650.141,-77.0719"/>
<polygon fill="midnightblue" stroke="midnightblue" points="504.731,-102.584 495.612,-107.978 506.104,-109.448 504.731,-102.584"/>
</g>
<!-- Node3 -->
<g id="node3" class="node"><title>Node3</title>
<g id="a_node3"><a xlink:href="../../d7/dd8/classIG_1_1Lib_1_1SerializationDtoBase.html" target="_top" xlink:title=" ">
<polygon fill="white" stroke="black" points="158,-106 158,-147 298,-147 298,-106 158,-106"/>
<text text-anchor="start" x="166" y="-135" font-family="Helvetica,sans-Serif" font-size="10.00">SerializationDtoBase</text>
<text text-anchor="start" x="166" y="-124" font-family="Helvetica,sans-Serif" font-size="10.00">&lt; AnalysisResults, Analysis</text>
<text text-anchor="middle" x="228" y="-113" font-family="Helvetica,sans-Serif" font-size="10.00">Results &gt;</text>
</a>
</g>
</g>
<!-- Node3&#45;&gt;Node2 -->
<g id="edge2" class="edge"><title>Node3&#45;&gt;Node2</title>
<path fill="none" stroke="midnightblue" d="M308.259,-123.213C336.926,-122.024 368.535,-120.713 394.235,-119.647"/>
<polygon fill="midnightblue" stroke="midnightblue" points="308.103,-119.716 298.257,-123.628 308.393,-126.71 308.103,-119.716"/>
</g>
<!-- Node4 -->
<g id="node4" class="node"><title>Node4</title>
<g id="a_node4"><a xlink:href="../../dc/dec/classIG_1_1Lib_1_1VectorDtoBase.html" target="_top" xlink:title="Base class for various vector DTO (Data Transfer Objects) for vectors. Used to store a state of a vec...">
<polygon fill="white" stroke="black" points="172.5,-54.5 172.5,-84.5 283.5,-84.5 283.5,-54.5 172.5,-54.5"/>
<text text-anchor="start" x="180.5" y="-72.5" font-family="Helvetica,sans-Serif" font-size="10.00">IG.Lib.VectorDtoBase</text>
<text text-anchor="middle" x="228" y="-61.5" font-family="Helvetica,sans-Serif" font-size="10.00">&lt; VectorType &gt;</text>
</a>
</g>
</g>
<!-- Node4&#45;&gt;Node1 -->
<g id="edge7" class="edge"><title>Node4&#45;&gt;Node1</title>
<path fill="none" stroke="#9a32cd" stroke-dasharray="5,2" d="M293.875,-69.2233C382.184,-68.8468 539.525,-68.1758 629.62,-67.7916"/>
<polygon fill="#9a32cd" stroke="#9a32cd" points="293.703,-65.724 283.718,-69.2667 293.733,-72.7239 293.703,-65.724"/>
<text text-anchor="middle" x="447" y="-83.5" font-family="Helvetica,sans-Serif" font-size="10.00"> _constraintGradients</text>
<text text-anchor="middle" x="447" y="-72.5" font-family="Helvetica,sans-Serif" font-size="10.00">_objectiveGratient</text>
</g>
<!-- Node4&#45;&gt;Node2 -->
<g id="edge3" class="edge"><title>Node4&#45;&gt;Node2</title>
<path fill="none" stroke="#9a32cd" stroke-dasharray="5,2" d="M293.958,-83.8687C329.188,-91.6614 371.76,-101.078 402.885,-107.963"/>
<polygon fill="#9a32cd" stroke="#9a32cd" points="294.278,-80.3549 283.758,-81.6124 292.766,-87.1897 294.278,-80.3549"/>
<text text-anchor="middle" x="345" y="-103.5" font-family="Helvetica,sans-Serif" font-size="10.00"> _parameters</text>
</g>
<!-- Node5 -->
<g id="node5" class="node"><title>Node5</title>
<g id="a_node5"><a xlink:href="../../d7/dd8/classIG_1_1Lib_1_1SerializationDtoBase.html" target="_top" xlink:title=" ">
<polygon fill="white" stroke="black" points="0,-54.5 0,-84.5 121,-84.5 121,-54.5 0,-54.5"/>
<text text-anchor="start" x="8" y="-72.5" font-family="Helvetica,sans-Serif" font-size="10.00">SerializationDtoBase</text>
<text text-anchor="middle" x="60.5" y="-61.5" font-family="Helvetica,sans-Serif" font-size="10.00">&lt; VectorType, IVector &gt;</text>
</a>
</g>
</g>
<!-- Node5&#45;&gt;Node4 -->
<g id="edge4" class="edge"><title>Node5&#45;&gt;Node4</title>
<path fill="none" stroke="midnightblue" d="M131.547,-69.5C145.167,-69.5 159.256,-69.5 172.293,-69.5"/>
<polygon fill="midnightblue" stroke="midnightblue" points="131.249,-66.0001 121.249,-69.5 131.249,-73.0001 131.249,-66.0001"/>
</g>
<!-- Node6 -->
<g id="node6" class="node"><title>Node6</title>
<g id="a_node6"><a xlink:href="../../d1/d42/classIG_1_1Lib_1_1MatrixDtoBase.html" target="_top" xlink:title="Base class for various matrix DTO (Data Transfer Objects) for matrixs. Used to store a state of a mat...">
<polygon fill="white" stroke="black" points="392,-0.5 392,-30.5 502,-30.5 502,-0.5 392,-0.5"/>
<text text-anchor="start" x="400" y="-18.5" font-family="Helvetica,sans-Serif" font-size="10.00">IG.Lib.MatrixDtoBase</text>
<text text-anchor="middle" x="447" y="-7.5" font-family="Helvetica,sans-Serif" font-size="10.00">&lt; MatrixType &gt;</text>
</a>
</g>
</g>
<!-- Node6&#45;&gt;Node1 -->
<g id="edge5" class="edge"><title>Node6&#45;&gt;Node1</title>
<path fill="none" stroke="#9a32cd" stroke-dasharray="5,2" d="M512.352,-17.3286C542.912,-19.3219 579.725,-23.3671 612,-31.5 636.328,-37.6302 662.723,-49.5345 679.764,-57.9735"/>
<polygon fill="#9a32cd" stroke="#9a32cd" points="512.434,-13.8274 502.244,-16.7284 512.019,-20.8151 512.434,-13.8274"/>
<text text-anchor="middle" x="566" y="-45.5" font-family="Helvetica,sans-Serif" font-size="10.00"> _constraintHessians</text>
<text text-anchor="middle" x="566" y="-34.5" font-family="Helvetica,sans-Serif" font-size="10.00">_objectiveHessian</text>
</g>
<!-- Node7 -->
<g id="node7" class="node"><title>Node7</title>
<g id="a_node7"><a xlink:href="../../d7/dd8/classIG_1_1Lib_1_1SerializationDtoBase.html" target="_top" xlink:title=" ">
<polygon fill="white" stroke="black" points="169,-0.5 169,-30.5 287,-30.5 287,-0.5 169,-0.5"/>
<text text-anchor="start" x="177" y="-18.5" font-family="Helvetica,sans-Serif" font-size="10.00">SerializationDtoBase</text>
<text text-anchor="middle" x="228" y="-7.5" font-family="Helvetica,sans-Serif" font-size="10.00">&lt; MatrixType, IMatrix &gt;</text>
</a>
</g>
</g>
<!-- Node7&#45;&gt;Node6 -->
<g id="edge6" class="edge"><title>Node7&#45;&gt;Node6</title>
<path fill="none" stroke="midnightblue" d="M297.282,-15.5C327.76,-15.5 363.17,-15.5 391.791,-15.5"/>
<polygon fill="midnightblue" stroke="midnightblue" points="297.152,-12.0001 287.152,-15.5 297.152,-19.0001 297.152,-12.0001"/>
</g>
</g>
</svg>
