<?xml version="1.0" encoding="UTF-8" standalone="no"?>
<!DOCTYPE svg PUBLIC "-//W3C//DTD SVG 1.1//EN"
 "http://www.w3.org/Graphics/SVG/1.1/DTD/svg11.dtd">
<!-- Generated by graphviz version 2.38.0 (20140413.2041)
 -->
<!-- Title: IG.Num.VectorFunctionExamples.RosenrockAndCircle Pages: 1 -->
<svg width="272pt" height="263pt"
 viewBox="0.00 0.00 271.57 263.00" xmlns="http://www.w3.org/2000/svg" xmlns:xlink="http://www.w3.org/1999/xlink">
<g id="graph0" class="graph" transform="scale(1 1) rotate(0) translate(4 259)">
<title>IG.Num.VectorFunctionExamples.RosenrockAndCircle</title>
<polygon fill="white" stroke="none" points="-4,4 -4,-259 267.57,-259 267.57,4 -4,4"/>
<!-- Node1 -->
<g id="node1" class="node"><title>Node1</title>
<g id="a_node1"><a xlink:title="Example &#45; 2 component vector function of 2 variables. The first component is the Rosenbrock function ...">
<polygon fill="#bfbfbf" stroke="black" points="98.5698,-0.5 98.5698,-30.5 263.57,-30.5 263.57,-0.5 98.5698,-0.5"/>
<text text-anchor="start" x="106.57" y="-18.5" font-family="Helvetica,sans-Serif" font-size="10.00">IG.Num.VectorFunctionExamples.</text>
<text text-anchor="middle" x="181.07" y="-7.5" font-family="Helvetica,sans-Serif" font-size="10.00">RosenrockAndCircle</text>
</a>
</g>
</g>
<!-- Node2 -->
<g id="node2" class="node"><title>Node2</title>
<g id="a_node2"><a xlink:href="../../da/de7/classIG_1_1Num_1_1VectorFunctionBase.html" target="_top" xlink:title="Base class for defining Vector functions whose evaluation is defined in bulk, and evaluation of indiv...">
<polygon fill="white" stroke="black" points="60.5698,-67.5 60.5698,-86.5 165.57,-86.5 165.57,-67.5 60.5698,-67.5"/>
<text text-anchor="middle" x="113.07" y="-74.5" font-family="Helvetica,sans-Serif" font-size="10.00">VectorFunctionBase</text>
</a>
</g>
</g>
<!-- Node2&#45;&gt;Node1 -->
<g id="edge1" class="edge"><title>Node2&#45;&gt;Node1</title>
<path fill="none" stroke="midnightblue" d="M130.617,-60.6459C141.246,-51.3456 154.702,-39.572 165.044,-30.523"/>
<polygon fill="midnightblue" stroke="midnightblue" points="128.034,-58.256 122.813,-67.4751 132.643,-63.524 128.034,-58.256"/>
</g>
<!-- Node3 -->
<g id="node3" class="node"><title>Node3</title>
<g id="a_node3"><a xlink:href="../../dc/d23/classIG_1_1Num_1_1VectorFunctionBaseGeneral.html" target="_top" xlink:title="Base class for VectorFunctionBase and VectorFunctionBaseComponentwise. In general,...">
<polygon fill="white" stroke="black" points="16.5698,-123.5 16.5698,-142.5 155.57,-142.5 155.57,-123.5 16.5698,-123.5"/>
<text text-anchor="middle" x="86.0698" y="-130.5" font-family="Helvetica,sans-Serif" font-size="10.00">VectorFunctionBaseGeneral</text>
</a>
</g>
</g>
<!-- Node3&#45;&gt;Node2 -->
<g id="edge2" class="edge"><title>Node3&#45;&gt;Node2</title>
<path fill="none" stroke="midnightblue" d="M95.0785,-113.983C99.6614,-104.817 105.024,-94.0922 108.694,-86.7511"/>
<polygon fill="midnightblue" stroke="midnightblue" points="91.87,-112.573 90.5283,-123.083 98.131,-115.704 91.87,-112.573"/>
</g>
<!-- Node4 -->
<g id="node4" class="node"><title>Node4</title>
<g id="a_node4"><a xlink:href="../../da/d06/interfaceIG_1_1Num_1_1IVectorFunction.html" target="_top" xlink:title="Vector function of a vector argument.">
<polygon fill="white" stroke="black" points="127.57,-179.5 127.57,-198.5 212.57,-198.5 212.57,-179.5 127.57,-179.5"/>
<text text-anchor="middle" x="170.07" y="-186.5" font-family="Helvetica,sans-Serif" font-size="10.00">IVectorFunction</text>
</a>
</g>
</g>
<!-- Node4&#45;&gt;Node1 -->
<g id="edge8" class="edge"><title>Node4&#45;&gt;Node1</title>
<path fill="none" stroke="midnightblue" d="M175.61,-169.656C177.777,-161.566 179.999,-151.893 181.07,-143 185.955,-102.444 183.741,-54.0426 182.166,-30.6052"/>
<polygon fill="midnightblue" stroke="midnightblue" points="172.183,-168.909 172.8,-179.486 178.913,-170.833 172.183,-168.909"/>
</g>
<!-- Node4&#45;&gt;Node2 -->
<g id="edge6" class="edge"><title>Node4&#45;&gt;Node2</title>
<path fill="none" stroke="midnightblue" d="M172.281,-169.401C173.056,-155.828 172.316,-137.369 165.07,-123 157.006,-107.01 140.539,-94.3089 128.285,-86.5321"/>
<polygon fill="midnightblue" stroke="midnightblue" points="168.786,-169.185 171.383,-179.457 175.758,-169.807 168.786,-169.185"/>
</g>
<!-- Node4&#45;&gt;Node3 -->
<g id="edge3" class="edge"><title>Node4&#45;&gt;Node3</title>
<path fill="none" stroke="midnightblue" d="M148.137,-173.901C132.734,-163.999 112.624,-151.071 99.5324,-142.655"/>
<polygon fill="midnightblue" stroke="midnightblue" points="146.269,-176.86 156.574,-179.324 150.055,-170.972 146.269,-176.86"/>
</g>
<!-- Node5 -->
<g id="node5" class="node"><title>Node5</title>
<g id="a_node5"><a xlink:href="../../d3/db6/interfaceIG_1_1Lib_1_1ILockable.html" target="_top" xlink:title="Lockable object, has a Lock property that returns object on which lock must be performed in order to ...">
<polygon fill="white" stroke="black" points="57.0698,-235.5 57.0698,-254.5 115.07,-254.5 115.07,-235.5 57.0698,-235.5"/>
<text text-anchor="middle" x="86.0698" y="-242.5" font-family="Helvetica,sans-Serif" font-size="10.00">ILockable</text>
</a>
</g>
</g>
<!-- Node5&#45;&gt;Node2 -->
<g id="edge7" class="edge"><title>Node5&#45;&gt;Node2</title>
<path fill="none" stroke="midnightblue" d="M64.6525,-229.704C33.396,-207.026 -18.3698,-161.437 7.06982,-123 19.704,-103.911 42.2414,-92.8956 63.2959,-86.5504"/>
<polygon fill="midnightblue" stroke="midnightblue" points="62.651,-232.575 72.8434,-235.467 66.6794,-226.85 62.651,-232.575"/>
</g>
<!-- Node5&#45;&gt;Node3 -->
<g id="edge5" class="edge"><title>Node5&#45;&gt;Node3</title>
<path fill="none" stroke="midnightblue" d="M86.0698,-225.348C86.0698,-201.254 86.0698,-160.308 86.0698,-142.591"/>
<polygon fill="midnightblue" stroke="midnightblue" points="82.5699,-225.368 86.0698,-235.368 89.5699,-225.369 82.5699,-225.368"/>
</g>
<!-- Node5&#45;&gt;Node4 -->
<g id="edge4" class="edge"><title>Node5&#45;&gt;Node4</title>
<path fill="none" stroke="midnightblue" d="M108.002,-229.901C123.405,-219.999 143.516,-207.071 156.607,-198.655"/>
<polygon fill="midnightblue" stroke="midnightblue" points="106.085,-226.972 99.5659,-235.324 109.87,-232.86 106.085,-226.972"/>
</g>
</g>
</svg>
