<?xml version="1.0" encoding="UTF-8" standalone="no"?>
<!DOCTYPE svg PUBLIC "-//W3C//DTD SVG 1.1//EN"
 "http://www.w3.org/Graphics/SVG/1.1/DTD/svg11.dtd">
<!-- Generated by graphviz version 2.38.0 (20140413.2041)
 -->
<!-- Title: IG.Lib.CsvData Pages: 1 -->
<svg width="187pt" height="152pt"
 viewBox="0.00 0.00 187.00 152.00" xmlns="http://www.w3.org/2000/svg" xmlns:xlink="http://www.w3.org/1999/xlink">
<g id="graph0" class="graph" transform="scale(1 1) rotate(0) translate(4 148)">
<title>IG.Lib.CsvData</title>
<polygon fill="white" stroke="none" points="-4,4 -4,-148 183,-148 183,4 -4,4"/>
<!-- Node1 -->
<g id="node1" class="node"><title>Node1</title>
<g id="a_node1"><a xlink:title="Memory representation of CSV data.">
<polygon fill="#bfbfbf" stroke="black" points="9.5,-0.5 9.5,-19.5 90.5,-19.5 90.5,-0.5 9.5,-0.5"/>
<text text-anchor="middle" x="50" y="-7.5" font-family="Helvetica,sans-Serif" font-size="10.00">IG.Lib.CsvData</text>
</a>
</g>
</g>
<!-- Node2 -->
<g id="node2" class="node"><title>Node2</title>
<g id="a_node2"><a xlink:href="../../d1/d01/classIG_1_1Lib_1_1StringTable.html" target="_top" xlink:title="2D tables of data represented by strings. Maps to CSV files.">
<polygon fill="white" stroke="black" points="57.5,-57.5 57.5,-76.5 122.5,-76.5 122.5,-57.5 57.5,-57.5"/>
<text text-anchor="middle" x="90" y="-64.5" font-family="Helvetica,sans-Serif" font-size="10.00">StringTable</text>
</a>
</g>
</g>
<!-- Node2&#45;&gt;Node1 -->
<g id="edge1" class="edge"><title>Node2&#45;&gt;Node1</title>
<path fill="none" stroke="midnightblue" d="M77.8069,-49.2344C70.7223,-39.4932 62.0876,-27.6204 56.3381,-19.7149"/>
<polygon fill="midnightblue" stroke="midnightblue" points="75.0377,-51.3775 83.75,-57.4063 80.6988,-47.2603 75.0377,-51.3775"/>
</g>
<!-- Node3 -->
<g id="node3" class="node"><title>Node3</title>
<g id="a_node3"><a xlink:href="../../d3/db6/interfaceIG_1_1Lib_1_1ILockable.html" target="_top" xlink:title="Lockable object, has a Lock property that returns object on which lock must be performed in order to ...">
<polygon fill="white" stroke="black" points="0,-124.5 0,-143.5 58,-143.5 58,-124.5 0,-124.5"/>
<text text-anchor="middle" x="29" y="-131.5" font-family="Helvetica,sans-Serif" font-size="10.00">ILockable</text>
</a>
</g>
</g>
<!-- Node3&#45;&gt;Node1 -->
<g id="edge4" class="edge"><title>Node3&#45;&gt;Node1</title>
<path fill="none" stroke="midnightblue" d="M32.2376,-114.191C36.8497,-87.3972 45.1263,-39.314 48.5034,-19.6944"/>
<polygon fill="midnightblue" stroke="midnightblue" points="28.7574,-113.777 30.5103,-124.226 35.656,-114.965 28.7574,-113.777"/>
</g>
<!-- Node3&#45;&gt;Node2 -->
<g id="edge2" class="edge"><title>Node3&#45;&gt;Node2</title>
<path fill="none" stroke="midnightblue" d="M44.3581,-116.635C56.2879,-103.923 72.359,-86.7978 81.9036,-76.6273"/>
<polygon fill="midnightblue" stroke="midnightblue" points="41.5177,-114.547 37.2267,-124.234 46.6221,-119.337 41.5177,-114.547"/>
</g>
<!-- Node4 -->
<g id="node4" class="node"><title>Node4</title>
<g id="a_node4"><a xlink:title=" ">
<polygon fill="white" stroke="#bfbfbf" points="76.5,-124.5 76.5,-143.5 117.5,-143.5 117.5,-124.5 76.5,-124.5"/>
<text text-anchor="middle" x="97" y="-131.5" font-family="Helvetica,sans-Serif" font-size="10.00">static</text>
</a>
</g>
</g>
<!-- Node4&#45;&gt;Node2 -->
<g id="edge3" class="edge"><title>Node4&#45;&gt;Node2</title>
<path fill="none" stroke="#9a32cd" stroke-dasharray="5,2" d="M94.9578,-114.037C93.626,-101.67 91.9514,-86.1198 90.9291,-76.6273"/>
<polygon fill="#9a32cd" stroke="#9a32cd" points="91.5053,-114.666 96.0559,-124.234 98.465,-113.917 91.5053,-114.666"/>
<text text-anchor="middle" x="136.5" y="-98" font-family="Helvetica,sans-Serif" font-size="10.00"> DefaultOutputLevel</text>
</g>
</g>
</svg>
