<?xml version="1.0" encoding="UTF-8" standalone="no"?>
<!DOCTYPE svg PUBLIC "-//W3C//DTD SVG 1.1//EN"
 "http://www.w3.org/Graphics/SVG/1.1/DTD/svg11.dtd">
<!-- Generated by graphviz version 2.38.0 (20140413.2041)
 -->
<!-- Title: IG.Lib.WaitDirectoryRemoval Pages: 1 -->
<svg width="364pt" height="323pt"
 viewBox="0.00 0.00 363.78 323.00" xmlns="http://www.w3.org/2000/svg" xmlns:xlink="http://www.w3.org/1999/xlink">
<g id="graph0" class="graph" transform="scale(1 1) rotate(0) translate(4 319)">
<title>IG.Lib.WaitDirectoryRemoval</title>
<polygon fill="white" stroke="none" points="-4,4 -4,-319 359.782,-319 359.782,4 -4,4"/>
<!-- Node1 -->
<g id="node1" class="node"><title>Node1</title>
<g id="a_node1"><a xlink:title="Blocking execution of the current thread until the specified directory ceases to exist.">
<polygon fill="#bfbfbf" stroke="black" points="104.782,-0.5 104.782,-19.5 245.782,-19.5 245.782,-0.5 104.782,-0.5"/>
<text text-anchor="middle" x="175.282" y="-7.5" font-family="Helvetica,sans-Serif" font-size="10.00">IG.Lib.WaitDirectoryRemoval</text>
</a>
</g>
</g>
<!-- Node2 -->
<g id="node2" class="node"><title>Node2</title>
<g id="a_node2"><a xlink:href="../../d2/ddf/classIG_1_1Lib_1_1WaitFileEvent.html" target="_top" xlink:title="Concrete class derived from WaitFileEventBase. It does not have a meaningful unblocking condition (it...">
<polygon fill="white" stroke="black" points="136.782,-57.5 136.782,-76.5 213.782,-76.5 213.782,-57.5 136.782,-57.5"/>
<text text-anchor="middle" x="175.282" y="-64.5" font-family="Helvetica,sans-Serif" font-size="10.00">WaitFileEvent</text>
</a>
</g>
</g>
<!-- Node2&#45;&gt;Node1 -->
<g id="edge1" class="edge"><title>Node2&#45;&gt;Node1</title>
<path fill="none" stroke="midnightblue" d="M175.282,-47.1166C175.282,-37.8173 175.282,-27.0557 175.282,-19.7149"/>
<polygon fill="midnightblue" stroke="midnightblue" points="171.782,-47.4062 175.282,-57.4063 178.782,-47.4063 171.782,-47.4062"/>
</g>
<!-- Node3 -->
<g id="node3" class="node"><title>Node3</title>
<g id="a_node3"><a xlink:href="../../d5/d42/classIG_1_1Lib_1_1WaitFileEventBase.html" target="_top" xlink:title="Base class for classes that provide blocking until a file or directory is created/removed.">
<polygon fill="white" stroke="black" points="125.782,-114.5 125.782,-133.5 224.782,-133.5 224.782,-114.5 125.782,-114.5"/>
<text text-anchor="middle" x="175.282" y="-121.5" font-family="Helvetica,sans-Serif" font-size="10.00">WaitFileEventBase</text>
</a>
</g>
</g>
<!-- Node3&#45;&gt;Node2 -->
<g id="edge2" class="edge"><title>Node3&#45;&gt;Node2</title>
<path fill="none" stroke="midnightblue" d="M175.282,-104.117C175.282,-94.8173 175.282,-84.0557 175.282,-76.7149"/>
<polygon fill="midnightblue" stroke="midnightblue" points="171.782,-104.406 175.282,-114.406 178.782,-104.406 171.782,-104.406"/>
</g>
<!-- Node4 -->
<g id="node4" class="node"><title>Node4</title>
<g id="a_node4"><a xlink:href="../../df/dea/classIG_1_1Lib_1_1WaitConditionBase.html" target="_top" xlink:title="Base class for objects that perform waiting until a condition is fulfilled.">
<polygon fill="white" stroke="black" points="17.282,-181.5 17.282,-200.5 117.282,-200.5 117.282,-181.5 17.282,-181.5"/>
<text text-anchor="middle" x="67.282" y="-188.5" font-family="Helvetica,sans-Serif" font-size="10.00">WaitConditionBase</text>
</a>
</g>
</g>
<!-- Node4&#45;&gt;Node3 -->
<g id="edge3" class="edge"><title>Node4&#45;&gt;Node3</title>
<path fill="none" stroke="midnightblue" d="M90.6395,-175.942C112.028,-163.07 143.003,-144.427 160.947,-133.627"/>
<polygon fill="midnightblue" stroke="midnightblue" points="88.6104,-173.078 81.8473,-181.234 92.2201,-179.076 88.6104,-173.078"/>
</g>
<!-- Node5 -->
<g id="node5" class="node"><title>Node5</title>
<g id="a_node5"><a xlink:href="../../de/d1e/interfaceIG_1_1Lib_1_1IWaitCondition.html" target="_top" xlink:title="Interface for classes that implement blocking until a specified condition is met.">
<polygon fill="white" stroke="black" points="67.282,-238.5 67.282,-257.5 147.282,-257.5 147.282,-238.5 67.282,-238.5"/>
<text text-anchor="middle" x="107.282" y="-245.5" font-family="Helvetica,sans-Serif" font-size="10.00">IWaitCondition</text>
</a>
</g>
</g>
<!-- Node5&#45;&gt;Node4 -->
<g id="edge4" class="edge"><title>Node5&#45;&gt;Node4</title>
<path fill="none" stroke="midnightblue" d="M95.0888,-230.234C88.0043,-220.493 79.3695,-208.62 73.6201,-200.715"/>
<polygon fill="midnightblue" stroke="midnightblue" points="92.3196,-232.377 101.032,-238.406 97.9808,-228.26 92.3196,-232.377"/>
</g>
<!-- Node7 -->
<g id="node7" class="node"><title>Node7</title>
<g id="a_node7"><a xlink:href="../../d2/d48/interfaceIG_1_1Lib_1_1IWaitFileEvent.html" target="_top" xlink:title="Interface for classes that provide waiting for specific file events (such as ceration or deletion of ...">
<polygon fill="white" stroke="black" points="135.782,-181.5 135.782,-200.5 214.782,-200.5 214.782,-181.5 135.782,-181.5"/>
<text text-anchor="middle" x="175.282" y="-188.5" font-family="Helvetica,sans-Serif" font-size="10.00">IWaitFileEvent</text>
</a>
</g>
</g>
<!-- Node5&#45;&gt;Node7 -->
<g id="edge8" class="edge"><title>Node5&#45;&gt;Node7</title>
<path fill="none" stroke="midnightblue" d="M125.83,-231.998C138.238,-221.962 154.135,-209.104 164.507,-200.715"/>
<polygon fill="midnightblue" stroke="midnightblue" points="123.481,-229.396 117.907,-238.406 127.883,-234.839 123.481,-229.396"/>
</g>
<!-- Node6 -->
<g id="node6" class="node"><title>Node6</title>
<g id="a_node6"><a xlink:href="../../d3/db6/interfaceIG_1_1Lib_1_1ILockable.html" target="_top" xlink:title="Lockable object, has a Lock property that returns object on which lock must be performed in order to ...">
<polygon fill="white" stroke="black" points="33.282,-295.5 33.282,-314.5 91.282,-314.5 91.282,-295.5 33.282,-295.5"/>
<text text-anchor="middle" x="62.282" y="-302.5" font-family="Helvetica,sans-Serif" font-size="10.00">ILockable</text>
</a>
</g>
</g>
<!-- Node6&#45;&gt;Node3 -->
<g id="edge10" class="edge"><title>Node6&#45;&gt;Node3</title>
<path fill="none" stroke="midnightblue" d="M45.6022,-288.221C21.7356,-263.704 -16.6653,-215.678 8.28199,-181 34.8011,-144.137 86.7478,-131.197 125.699,-126.83"/>
<polygon fill="midnightblue" stroke="midnightblue" points="43.179,-290.747 52.7417,-295.309 48.1106,-285.779 43.179,-290.747"/>
</g>
<!-- Node6&#45;&gt;Node4 -->
<g id="edge6" class="edge"><title>Node6&#45;&gt;Node4</title>
<path fill="none" stroke="midnightblue" d="M59.5819,-285.258C58.0586,-272.032 56.7405,-253.907 58.282,-238 59.5535,-224.879 62.8198,-209.943 65.0471,-200.744"/>
<polygon fill="midnightblue" stroke="midnightblue" points="56.1458,-285.976 60.9067,-295.441 63.0873,-285.073 56.1458,-285.976"/>
</g>
<!-- Node6&#45;&gt;Node5 -->
<g id="edge5" class="edge"><title>Node6&#45;&gt;Node5</title>
<path fill="none" stroke="midnightblue" d="M75.7558,-287.532C83.7708,-277.736 93.6175,-265.701 100.152,-257.715"/>
<polygon fill="midnightblue" stroke="midnightblue" points="72.9368,-285.45 69.3132,-295.406 78.3545,-289.883 72.9368,-285.45"/>
</g>
<!-- Node6&#45;&gt;Node7 -->
<g id="edge9" class="edge"><title>Node6&#45;&gt;Node7</title>
<path fill="none" stroke="midnightblue" d="M100.982,-293.303C120.102,-286.183 142.063,-274.95 156.282,-258 170.382,-241.191 174.029,-214.449 174.965,-200.737"/>
<polygon fill="midnightblue" stroke="midnightblue" points="99.6001,-290.077 91.2979,-296.659 101.893,-296.691 99.6001,-290.077"/>
</g>
<!-- Node7&#45;&gt;Node3 -->
<g id="edge7" class="edge"><title>Node7&#45;&gt;Node3</title>
<path fill="none" stroke="midnightblue" d="M175.282,-171.037C175.282,-158.67 175.282,-143.12 175.282,-133.627"/>
<polygon fill="midnightblue" stroke="midnightblue" points="171.782,-171.234 175.282,-181.234 178.782,-171.234 171.782,-171.234"/>
</g>
<!-- Node8 -->
<g id="node8" class="node"><title>Node8</title>
<g id="a_node8"><a xlink:title=" ">
<polygon fill="white" stroke="#bfbfbf" points="233.282,-181.5 233.282,-200.5 283.282,-200.5 283.282,-181.5 233.282,-181.5"/>
<text text-anchor="middle" x="258.282" y="-188.5" font-family="Helvetica,sans-Serif" font-size="10.00">System</text>
</a>
</g>
</g>
<!-- Node8&#45;&gt;Node3 -->
<g id="edge11" class="edge"><title>Node8&#45;&gt;Node3</title>
<path fill="none" stroke="#9a32cd" stroke-dasharray="5,2" d="M239.215,-175.068C222.832,-162.238 199.78,-144.185 186.298,-133.627"/>
<polygon fill="#9a32cd" stroke="#9a32cd" points="237.057,-177.824 247.088,-181.234 241.373,-172.313 237.057,-177.824"/>
<text text-anchor="middle" x="255.782" y="-155" font-family="Helvetica,sans-Serif" font-size="10.00"> NotifyFiltersAll</text>
</g>
<!-- Node9 -->
<g id="node9" class="node"><title>Node9</title>
<g id="a_node9"><a xlink:title=" ">
<polygon fill="white" stroke="#bfbfbf" points="314.782,-181.5 314.782,-200.5 355.782,-200.5 355.782,-181.5 314.782,-181.5"/>
<text text-anchor="middle" x="335.282" y="-188.5" font-family="Helvetica,sans-Serif" font-size="10.00">static</text>
</a>
</g>
</g>
<!-- Node9&#45;&gt;Node3 -->
<g id="edge12" class="edge"><title>Node9&#45;&gt;Node3</title>
<path fill="none" stroke="#9a32cd" stroke-dasharray="5,2" d="M320.982,-173.638C313.46,-165.992 303.657,-157.404 293.282,-152 272.22,-141.03 246.761,-134.484 224.89,-130.593"/>
<polygon fill="#9a32cd" stroke="#9a32cd" points="318.795,-176.427 328.167,-181.369 323.923,-171.661 318.795,-176.427"/>
<text text-anchor="middle" x="326.782" y="-155" font-family="Helvetica,sans-Serif" font-size="10.00"> _pulser</text>
</g>
</g>
</svg>
