<?xml version="1.0" encoding="UTF-8" standalone="no"?>
<!DOCTYPE svg PUBLIC "-//W3C//DTD SVG 1.1//EN"
 "http://www.w3.org/Graphics/SVG/1.1/DTD/svg11.dtd">
<!-- Generated by graphviz version 2.38.0 (20140413.2041)
 -->
<!-- Title: IG.Lib.LoadableScriptBase.Script_CommandAdapter Pages: 1 -->
<svg width="430pt" height="184pt"
 viewBox="0.00 0.00 429.50 184.00" xmlns="http://www.w3.org/2000/svg" xmlns:xlink="http://www.w3.org/1999/xlink">
<g id="graph0" class="graph" transform="scale(1 1) rotate(0) translate(4 180)">
<title>IG.Lib.LoadableScriptBase.Script_CommandAdapter</title>
<polygon fill="white" stroke="none" points="-4,4 -4,-180 425.5,-180 425.5,4 -4,4"/>
<!-- Node1 -->
<g id="node1" class="node"><title>Node1</title>
<g id="a_node1"><a xlink:title="Adapts that converts internal script commands (delegate of type Script_CommandDelegate) to interprete...">
<polygon fill="#bfbfbf" stroke="black" points="126,-0.5 126,-30.5 261,-30.5 261,-0.5 126,-0.5"/>
<text text-anchor="start" x="134" y="-18.5" font-family="Helvetica,sans-Serif" font-size="10.00">IG.Lib.LoadableScriptBase.</text>
<text text-anchor="middle" x="193.5" y="-7.5" font-family="Helvetica,sans-Serif" font-size="10.00">Script_CommandAdapter</text>
</a>
</g>
</g>
<!-- Node2 -->
<g id="node2" class="node"><title>Node2</title>
<g id="a_node2"><a xlink:href="../../d7/d15/classIG_1_1Lib_1_1LoadableScriptBase.html" target="_top" xlink:title="Base class for classes that can be dynamically loadeded from scripts and run, which provides function...">
<polygon fill="white" stroke="black" points="127.5,-78.5 127.5,-97.5 259.5,-97.5 259.5,-78.5 127.5,-78.5"/>
<text text-anchor="middle" x="193.5" y="-85.5" font-family="Helvetica,sans-Serif" font-size="10.00">IG.Lib.LoadableScriptBase</text>
</a>
</g>
</g>
<!-- Node2&#45;&gt;Node1 -->
<g id="edge1" class="edge"><title>Node2&#45;&gt;Node1</title>
<path fill="none" stroke="#9a32cd" stroke-dasharray="5,2" d="M193.5,-68.2362C193.5,-56.4079 193.5,-41.3829 193.5,-30.5762"/>
<polygon fill="#9a32cd" stroke="#9a32cd" points="190,-68.3553 193.5,-78.3553 197,-68.3554 190,-68.3553"/>
<text text-anchor="middle" x="210" y="-52" font-family="Helvetica,sans-Serif" font-size="10.00"> _script</text>
</g>
<!-- Node3 -->
<g id="node3" class="node"><title>Node3</title>
<g id="a_node3"><a xlink:href="../../d7/d66/interfaceIG_1_1Lib_1_1ILoadableScript.html" target="_top" xlink:title="Interface for classes that can be dynamically loadeded from scripts and run, which provides functiona...">
<polygon fill="white" stroke="black" points="0,-151 0,-170 83,-170 83,-151 0,-151"/>
<text text-anchor="middle" x="41.5" y="-158" font-family="Helvetica,sans-Serif" font-size="10.00">ILoadableScript</text>
</a>
</g>
</g>
<!-- Node3&#45;&gt;Node2 -->
<g id="edge2" class="edge"><title>Node3&#45;&gt;Node2</title>
<path fill="none" stroke="midnightblue" d="M69.1316,-146.684C99.8799,-132.422 148.701,-109.778 175.1,-97.5341"/>
<polygon fill="midnightblue" stroke="midnightblue" points="67.4338,-143.613 59.8348,-150.996 70.3792,-149.963 67.4338,-143.613"/>
</g>
<!-- Node4 -->
<g id="node4" class="node"><title>Node4</title>
<g id="a_node4"><a xlink:href="../../d3/db6/interfaceIG_1_1Lib_1_1ILockable.html" target="_top" xlink:title="Lockable object, has a Lock property that returns object on which lock must be performed in order to ...">
<polygon fill="white" stroke="black" points="101.5,-151 101.5,-170 159.5,-170 159.5,-151 101.5,-151"/>
<text text-anchor="middle" x="130.5" y="-158" font-family="Helvetica,sans-Serif" font-size="10.00">ILockable</text>
</a>
</g>
</g>
<!-- Node4&#45;&gt;Node2 -->
<g id="edge3" class="edge"><title>Node4&#45;&gt;Node2</title>
<path fill="none" stroke="midnightblue" d="M144.98,-143.296C157.651,-129.117 175.572,-109.063 185.712,-97.7154"/>
<polygon fill="midnightblue" stroke="midnightblue" points="142.279,-141.067 138.225,-150.855 147.498,-145.731 142.279,-141.067"/>
</g>
<!-- Node5 -->
<g id="node5" class="node"><title>Node5</title>
<g id="a_node5"><a xlink:href="../../de/dfd/interfaceIG_1_1Lib_1_1ICommandLineApplicationInterpreter.html" target="_top" xlink:title="Interface for simple command&#45;line applicatino interpreters.">
<polygon fill="white" stroke="black" points="177.5,-145.5 177.5,-175.5 335.5,-175.5 335.5,-145.5 177.5,-145.5"/>
<text text-anchor="start" x="185.5" y="-163.5" font-family="Helvetica,sans-Serif" font-size="10.00">IG.Lib.ICommandLineApplication</text>
<text text-anchor="middle" x="256.5" y="-152.5" font-family="Helvetica,sans-Serif" font-size="10.00">Interpreter</text>
</a>
</g>
</g>
<!-- Node5&#45;&gt;Node2 -->
<g id="edge4" class="edge"><title>Node5&#45;&gt;Node2</title>
<path fill="none" stroke="#9a32cd" stroke-dasharray="5,2" d="M237.074,-137.762C225.084,-124.344 210.344,-107.849 201.447,-97.8932"/>
<polygon fill="#9a32cd" stroke="#9a32cd" points="234.478,-140.109 243.751,-145.233 239.697,-135.445 234.478,-140.109"/>
<text text-anchor="middle" x="268.5" y="-119" font-family="Helvetica,sans-Serif" font-size="10.00"> _script_interpreter</text>
</g>
<!-- Node6 -->
<g id="node6" class="node"><title>Node6</title>
<g id="a_node6"><a xlink:title=" ">
<polygon fill="white" stroke="#bfbfbf" points="354,-151 354,-170 395,-170 395,-151 354,-151"/>
<text text-anchor="middle" x="374.5" y="-158" font-family="Helvetica,sans-Serif" font-size="10.00">static</text>
</a>
</g>
</g>
<!-- Node6&#45;&gt;Node2 -->
<g id="edge5" class="edge"><title>Node6&#45;&gt;Node2</title>
<path fill="none" stroke="#9a32cd" stroke-dasharray="5,2" d="M356.952,-144.098C345.35,-134.677 329.397,-123.107 313.5,-116 294.59,-107.546 272.782,-101.623 252.987,-97.5253"/>
<polygon fill="#9a32cd" stroke="#9a32cd" points="354.994,-147.025 364.903,-150.775 359.496,-141.664 354.994,-147.025"/>
<text text-anchor="middle" x="377.5" y="-119" font-family="Helvetica,sans-Serif" font-size="10.00"> _defaultOutputLevel</text>
</g>
</g>
</svg>
