<?xml version="1.0" encoding="UTF-8" standalone="no"?>
<!DOCTYPE svg PUBLIC "-//W3C//DTD SVG 1.1//EN"
 "http://www.w3.org/Graphics/SVG/1.1/DTD/svg11.dtd">
<!-- Generated by graphviz version 2.38.0 (20140413.2041)
 -->
<!-- Title: IG.Num.RandomGaussian Pages: 1 -->
<svg width="219pt" height="106pt"
 viewBox="0.00 0.00 219.00 106.00" xmlns="http://www.w3.org/2000/svg" xmlns:xlink="http://www.w3.org/1999/xlink">
<g id="graph0" class="graph" transform="scale(1 1) rotate(0) translate(4 102)">
<title>IG.Num.RandomGaussian</title>
<polygon fill="white" stroke="none" points="-4,4 -4,-102 215,-102 215,4 -4,4"/>
<!-- Node1 -->
<g id="node1" class="node"><title>Node1</title>
<g id="a_node1"><a xlink:title="Gaussian random number generator.">
<polygon fill="#bfbfbf" stroke="black" points="55,-0.5 55,-19.5 185,-19.5 185,-0.5 55,-0.5"/>
<text text-anchor="middle" x="120" y="-7.5" font-family="Helvetica,sans-Serif" font-size="10.00">IG.Num.RandomGaussian</text>
</a>
</g>
</g>
<!-- Node2 -->
<g id="node2" class="node"><title>Node2</title>
<g id="a_node2"><a xlink:href="../../d4/d43/interfaceIG_1_1Num_1_1IRandomGenerator.html" target="_top" xlink:title="Uniform random number generator.">
<polygon fill="white" stroke="black" points="0,-78.5 0,-97.5 134,-97.5 134,-78.5 0,-78.5"/>
<text text-anchor="middle" x="67" y="-85.5" font-family="Helvetica,sans-Serif" font-size="10.00">IG.Num.IRandomGenerator</text>
</a>
</g>
</g>
<!-- Node2&#45;&gt;Node1 -->
<g id="edge1" class="edge"><title>Node2&#45;&gt;Node1</title>
<path fill="none" stroke="#9a32cd" stroke-dasharray="5,2" d="M78.8514,-70.0056C89.7556,-54.3693 105.485,-31.8142 113.991,-19.6165"/>
<polygon fill="#9a32cd" stroke="#9a32cd" points="75.9291,-68.0773 73.0798,-78.2818 81.6708,-72.0814 75.9291,-68.0773"/>
<text text-anchor="middle" x="120.5" y="-46.5" font-family="Helvetica,sans-Serif" font-size="10.00"> _random</text>
</g>
<!-- Node3 -->
<g id="node3" class="node"><title>Node3</title>
<g id="a_node3"><a xlink:title=" ">
<polygon fill="white" stroke="#bfbfbf" points="152.5,-78.5 152.5,-97.5 193.5,-97.5 193.5,-78.5 152.5,-78.5"/>
<text text-anchor="middle" x="173" y="-85.5" font-family="Helvetica,sans-Serif" font-size="10.00">static</text>
</a>
</g>
</g>
<!-- Node3&#45;&gt;Node1 -->
<g id="edge2" class="edge"><title>Node3&#45;&gt;Node1</title>
<path fill="none" stroke="#9a32cd" stroke-dasharray="5,2" d="M164.161,-69.3235C159.057,-59.7285 152.228,-47.8495 145,-38 140.162,-31.4074 133.912,-24.6574 128.872,-19.5556"/>
<polygon fill="#9a32cd" stroke="#9a32cd" points="161.105,-71.0332 168.801,-78.3149 167.326,-67.8233 161.105,-71.0332"/>
<text text-anchor="middle" x="185" y="-52" font-family="Helvetica,sans-Serif" font-size="10.00"> _lockStatic</text>
<text text-anchor="middle" x="185" y="-41" font-family="Helvetica,sans-Serif" font-size="10.00">_global</text>
</g>
</g>
</svg>
