<?xml version="1.0" encoding="UTF-8" standalone="no"?>
<!DOCTYPE svg PUBLIC "-//W3C//DTD SVG 1.1//EN"
 "http://www.w3.org/Graphics/SVG/1.1/DTD/svg11.dtd">
<!-- Generated by graphviz version 2.38.0 (20140413.2041)
 -->
<!-- Title: IG.Num.ScalarFunctionParametric Pages: 1 -->
<svg width="358pt" height="252pt"
 viewBox="0.00 0.00 358.00 252.00" xmlns="http://www.w3.org/2000/svg" xmlns:xlink="http://www.w3.org/1999/xlink">
<g id="graph0" class="graph" transform="scale(1 1) rotate(0) translate(4 248)">
<title>IG.Num.ScalarFunctionParametric</title>
<polygon fill="white" stroke="none" points="-4,4 -4,-248 354,-248 354,4 -4,4"/>
<!-- Node1 -->
<g id="node1" class="node"><title>Node1</title>
<g id="a_node1"><a xlink:title="Base class for parameterized scalar functions with affine transformation of co&#45;ordinates....">
<polygon fill="#bfbfbf" stroke="black" points="0,-0.5 0,-19.5 165,-19.5 165,-0.5 0,-0.5"/>
<text text-anchor="middle" x="82.5" y="-7.5" font-family="Helvetica,sans-Serif" font-size="10.00">IG.Num.ScalarFunctionParametric</text>
</a>
</g>
</g>
<!-- Node2 -->
<g id="node2" class="node"><title>Node2</title>
<g id="a_node2"><a xlink:href="../../d3/dbb/classIG_1_1Num_1_1ScalarFunctionParametricBase.html" target="_top" xlink:title="Base class for parameterized scalar functions with affine transformation of co&#45;ordinates....">
<polygon fill="white" stroke="black" points="110.5,-56.5 110.5,-75.5 262.5,-75.5 262.5,-56.5 110.5,-56.5"/>
<text text-anchor="middle" x="186.5" y="-63.5" font-family="Helvetica,sans-Serif" font-size="10.00">ScalarFunctionParametricBase</text>
</a>
</g>
</g>
<!-- Node2&#45;&gt;Node1 -->
<g id="edge1" class="edge"><title>Node2&#45;&gt;Node1</title>
<path fill="none" stroke="midnightblue" d="M160.672,-51.5895C141.443,-41.6052 115.755,-28.2672 99.1679,-19.6545"/>
<polygon fill="midnightblue" stroke="midnightblue" points="159.303,-54.822 169.791,-56.324 162.529,-48.6095 159.303,-54.822"/>
</g>
<!-- Node3 -->
<g id="node3" class="node"><title>Node3</title>
<g id="a_node3"><a xlink:href="../../d2/d85/classIG_1_1Num_1_1ScalarFunctionBase.html" target="_top" xlink:title="Base class for scalar functions with affine transformation of co&#45;ordinates. The reference function is...">
<polygon fill="white" stroke="black" points="214.5,-112.5 214.5,-131.5 318.5,-131.5 318.5,-112.5 214.5,-112.5"/>
<text text-anchor="middle" x="266.5" y="-119.5" font-family="Helvetica,sans-Serif" font-size="10.00">ScalarFunctionBase</text>
</a>
</g>
</g>
<!-- Node3&#45;&gt;Node2 -->
<g id="edge2" class="edge"><title>Node3&#45;&gt;Node2</title>
<path fill="none" stroke="midnightblue" d="M245.199,-106.622C230.585,-96.7574 211.673,-83.9919 199.321,-75.6545"/>
<polygon fill="midnightblue" stroke="midnightblue" points="243.4,-109.63 253.647,-112.324 247.316,-103.828 243.4,-109.63"/>
</g>
<!-- Node4 -->
<g id="node4" class="node"><title>Node4</title>
<g id="a_node4"><a xlink:href="../../d2/d9e/classIG_1_1Num_1_1ScalarFunctionUntransformedBase.html" target="_top" xlink:title="Base class for defining scalar functions without possibility of affine transformation of parameters.">
<polygon fill="white" stroke="black" points="183,-168.5 183,-187.5 350,-187.5 350,-168.5 183,-168.5"/>
<text text-anchor="middle" x="266.5" y="-175.5" font-family="Helvetica,sans-Serif" font-size="10.00">ScalarFunctionUntransformedBase</text>
</a>
</g>
</g>
<!-- Node4&#45;&gt;Node3 -->
<g id="edge3" class="edge"><title>Node4&#45;&gt;Node3</title>
<path fill="none" stroke="midnightblue" d="M266.5,-157.805C266.5,-148.91 266.5,-138.78 266.5,-131.751"/>
<polygon fill="midnightblue" stroke="midnightblue" points="263,-158.083 266.5,-168.083 270,-158.083 263,-158.083"/>
</g>
<!-- Node5 -->
<g id="node5" class="node"><title>Node5</title>
<g id="a_node5"><a xlink:href="../../d8/d56/interfaceIG_1_1Num_1_1IScalarFunctionUntransformed.html" target="_top" xlink:title="Scalar functions of vector arguments.">
<polygon fill="white" stroke="black" points="121,-224.5 121,-243.5 268,-243.5 268,-224.5 121,-224.5"/>
<text text-anchor="middle" x="194.5" y="-231.5" font-family="Helvetica,sans-Serif" font-size="10.00">IScalarFunctionUntransformed</text>
</a>
</g>
</g>
<!-- Node5&#45;&gt;Node4 -->
<g id="edge4" class="edge"><title>Node5&#45;&gt;Node4</title>
<path fill="none" stroke="midnightblue" d="M214.366,-218.101C227.323,-208.382 243.797,-196.027 254.721,-187.834"/>
<polygon fill="midnightblue" stroke="midnightblue" points="211.968,-215.524 206.068,-224.324 216.168,-221.124 211.968,-215.524"/>
</g>
<!-- Node6 -->
<g id="node6" class="node"><title>Node6</title>
<g id="a_node6"><a xlink:href="../../dd/d1e/interfaceIG_1_1Num_1_1IScalarFunction.html" target="_top" xlink:title="Scalar functions of vector arguments, with eventual affine transformation of parameters....">
<polygon fill="white" stroke="black" points="80.5,-168.5 80.5,-187.5 164.5,-187.5 164.5,-168.5 80.5,-168.5"/>
<text text-anchor="middle" x="122.5" y="-175.5" font-family="Helvetica,sans-Serif" font-size="10.00">IScalarFunction</text>
</a>
</g>
</g>
<!-- Node5&#45;&gt;Node6 -->
<g id="edge6" class="edge"><title>Node5&#45;&gt;Node6</title>
<path fill="none" stroke="midnightblue" d="M174.634,-218.101C161.677,-208.382 145.203,-196.027 134.279,-187.834"/>
<polygon fill="midnightblue" stroke="midnightblue" points="172.832,-221.124 182.932,-224.324 177.032,-215.524 172.832,-221.124"/>
</g>
<!-- Node6&#45;&gt;Node1 -->
<g id="edge10" class="edge"><title>Node6&#45;&gt;Node1</title>
<path fill="none" stroke="midnightblue" d="M70.7173,-167.557C50.5847,-161.083 29.5095,-150.213 17.5,-132 -9.01667,-91.7864 46.7836,-39.6979 71.5041,-19.5124"/>
<polygon fill="midnightblue" stroke="midnightblue" points="69.9015,-170.964 80.481,-170.395 71.8555,-164.243 69.9015,-170.964"/>
</g>
<!-- Node6&#45;&gt;Node2 -->
<g id="edge7" class="edge"><title>Node6&#45;&gt;Node2</title>
<path fill="none" stroke="midnightblue" d="M141.011,-161.822C149.808,-153.764 159.831,-143.218 166.5,-132 177.48,-113.529 182.957,-88.4682 185.205,-75.5235"/>
<polygon fill="midnightblue" stroke="midnightblue" points="138.632,-159.254 133.409,-168.472 143.24,-164.523 138.632,-159.254"/>
</g>
<!-- Node6&#45;&gt;Node3 -->
<g id="edge5" class="edge"><title>Node6&#45;&gt;Node3</title>
<path fill="none" stroke="midnightblue" d="M154.751,-164.906C181.824,-154.754 219.817,-140.506 243.79,-131.516"/>
<polygon fill="midnightblue" stroke="midnightblue" points="153.452,-161.655 145.317,-168.444 155.909,-168.209 153.452,-161.655"/>
</g>
<!-- Node7 -->
<g id="node7" class="node"><title>Node7</title>
<g id="a_node7"><a xlink:href="../../d4/d4e/interfaceIG_1_1Num_1_1IScalarFunctionParametric.html" target="_top" xlink:title="Parameterized scalar functions with affine transformation of coordinates.">
<polygon fill="white" stroke="black" points="27,-112.5 27,-131.5 158,-131.5 158,-112.5 27,-112.5"/>
<text text-anchor="middle" x="92.5" y="-119.5" font-family="Helvetica,sans-Serif" font-size="10.00">IScalarFunctionParametric</text>
</a>
</g>
</g>
<!-- Node6&#45;&gt;Node7 -->
<g id="edge9" class="edge"><title>Node6&#45;&gt;Node7</title>
<path fill="none" stroke="midnightblue" d="M112.653,-159.275C107.525,-150.045 101.484,-139.17 97.3617,-131.751"/>
<polygon fill="midnightblue" stroke="midnightblue" points="109.63,-161.041 117.546,-168.083 115.749,-157.642 109.63,-161.041"/>
</g>
<!-- Node7&#45;&gt;Node1 -->
<g id="edge11" class="edge"><title>Node7&#45;&gt;Node1</title>
<path fill="none" stroke="midnightblue" d="M90.8044,-102.348C88.614,-78.2538 84.8916,-37.3079 83.281,-19.5914"/>
<polygon fill="midnightblue" stroke="midnightblue" points="87.3242,-102.726 91.7153,-112.368 94.2955,-102.093 87.3242,-102.726"/>
</g>
<!-- Node7&#45;&gt;Node2 -->
<g id="edge8" class="edge"><title>Node7&#45;&gt;Node2</title>
<path fill="none" stroke="midnightblue" d="M116.562,-107.177C133.859,-97.2407 156.648,-84.1492 171.435,-75.6545"/>
<polygon fill="midnightblue" stroke="midnightblue" points="114.53,-104.308 107.603,-112.324 118.017,-110.378 114.53,-104.308"/>
</g>
</g>
</svg>
