<?xml version="1.0" encoding="UTF-8" standalone="no"?>
<!DOCTYPE svg PUBLIC "-//W3C//DTD SVG 1.1//EN"
 "http://www.w3.org/Graphics/SVG/1.1/DTD/svg11.dtd">
<!-- Generated by graphviz version 2.38.0 (20140413.2041)
 -->
<!-- Title: IG.Lib.SerializationDto Pages: 1 -->
<svg width="162pt" height="162pt"
 viewBox="0.00 0.00 162.00 162.00" xmlns="http://www.w3.org/2000/svg" xmlns:xlink="http://www.w3.org/1999/xlink">
<g id="graph0" class="graph" transform="scale(1 1) rotate(0) translate(4 158)">
<title>IG.Lib.SerializationDto</title>
<polygon fill="white" stroke="none" points="-4,4 -4,-158 158,-158 158,4 -4,4"/>
<!-- Node1 -->
<g id="node1" class="node"><title>Node1</title>
<g id="a_node1"><a xlink:title="Auxiliary base class for DTOs, contains some static methods. Provided for simplicity,...">
<polygon fill="#bfbfbf" stroke="black" points="20.5,-134.5 20.5,-153.5 133.5,-153.5 133.5,-134.5 20.5,-134.5"/>
<text text-anchor="middle" x="77" y="-141.5" font-family="Helvetica,sans-Serif" font-size="10.00">IG.Lib.SerializationDto</text>
</a>
</g>
</g>
<!-- Node2 -->
<g id="node2" class="node"><title>Node2</title>
<g id="a_node2"><a xlink:href="../../d7/dd8/classIG_1_1Lib_1_1SerializationDtoBase.html" target="_top" xlink:title="Generic base class for Data Transfer Objects (DTO). This class is used as template for producing conc...">
<polygon fill="white" stroke="black" points="9,-67.5 9,-97.5 145,-97.5 145,-67.5 9,-67.5"/>
<text text-anchor="start" x="17" y="-85.5" font-family="Helvetica,sans-Serif" font-size="10.00">IG.Lib.SerializationDtoBase</text>
<text text-anchor="middle" x="77" y="-74.5" font-family="Helvetica,sans-Serif" font-size="10.00">&lt; Type, BaseType &gt;</text>
</a>
</g>
</g>
<!-- Node1&#45;&gt;Node2 -->
<g id="edge1" class="edge"><title>Node1&#45;&gt;Node2</title>
<path fill="none" stroke="midnightblue" d="M77,-124.235C77,-115.586 77,-105.497 77,-97.523"/>
<polygon fill="midnightblue" stroke="midnightblue" points="73.5001,-124.475 77,-134.475 80.5001,-124.475 73.5001,-124.475"/>
</g>
<!-- Node3 -->
<g id="node3" class="node"><title>Node3</title>
<g id="a_node3"><a xlink:href="../../db/dde/classIG_1_1Lib_1_1SerializationDtoTypedBase.html" target="_top" xlink:title=" ">
<polygon fill="white" stroke="black" points="0,-0.5 0,-30.5 154,-30.5 154,-0.5 0,-0.5"/>
<text text-anchor="start" x="8" y="-18.5" font-family="Helvetica,sans-Serif" font-size="10.00">IG::Lib::SerializationDto</text>
<text text-anchor="middle" x="77" y="-7.5" font-family="Helvetica,sans-Serif" font-size="10.00">TypedBase&lt; Type, BaseType &gt;</text>
</a>
</g>
</g>
<!-- Node2&#45;&gt;Node3 -->
<g id="edge2" class="edge"><title>Node2&#45;&gt;Node3</title>
<path fill="none" stroke="midnightblue" d="M77,-57.1081C77,-48.1539 77,-38.3227 77,-30.5765"/>
<polygon fill="midnightblue" stroke="midnightblue" points="73.5001,-57.3959 77,-67.396 80.5001,-57.396 73.5001,-57.3959"/>
</g>
</g>
</svg>
