<?xml version="1.0" encoding="UTF-8" standalone="no"?>
<!DOCTYPE svg PUBLIC "-//W3C//DTD SVG 1.1//EN"
 "http://www.w3.org/Graphics/SVG/1.1/DTD/svg11.dtd">
<!-- Generated by graphviz version 2.38.0 (20140413.2041)
 -->
<!-- Title: IG.Num.MatrixStore&lt; T &gt; Pages: 1 -->
<svg width="212pt" height="140pt"
 viewBox="0.00 0.00 212.00 140.00" xmlns="http://www.w3.org/2000/svg" xmlns:xlink="http://www.w3.org/1999/xlink">
<g id="graph0" class="graph" transform="scale(1 1) rotate(0) translate(4 136)">
<title>IG.Num.MatrixStore&lt; T &gt;</title>
<polygon fill="white" stroke="none" points="-4,4 -4,-136 208,-136 208,4 -4,4"/>
<!-- Node1 -->
<g id="node1" class="node"><title>Node1</title>
<g id="a_node1"><a xlink:title="Matrix store.">
<polygon fill="#bfbfbf" stroke="black" points="78,-0.5 78,-19.5 204,-19.5 204,-0.5 78,-0.5"/>
<text text-anchor="middle" x="141" y="-7.5" font-family="Helvetica,sans-Serif" font-size="10.00">IG.Num.MatrixStore&lt; T &gt;</text>
</a>
</g>
</g>
<!-- Node2 -->
<g id="node2" class="node"><title>Node2</title>
<g id="a_node2"><a xlink:href="../../d7/d24/classIG_1_1Lib_1_1ObjectStore.html" target="_top" xlink:title="Object store. Objects of the specified type can be stored here for later reuse (efficiency improvemen...">
<polygon fill="white" stroke="black" points="12,-56.5 12,-75.5 104,-75.5 104,-56.5 12,-56.5"/>
<text text-anchor="middle" x="58" y="-63.5" font-family="Helvetica,sans-Serif" font-size="10.00">ObjectStore&lt; T &gt;</text>
</a>
</g>
</g>
<!-- Node2&#45;&gt;Node1 -->
<g id="edge1" class="edge"><title>Node2&#45;&gt;Node1</title>
<path fill="none" stroke="midnightblue" d="M80.0993,-50.6221C95.2618,-40.7574 114.883,-27.9919 127.698,-19.6545"/>
<polygon fill="midnightblue" stroke="midnightblue" points="77.8088,-47.9367 71.3354,-56.324 81.6262,-53.8042 77.8088,-47.9367"/>
</g>
<!-- Node3 -->
<g id="node3" class="node"><title>Node3</title>
<g id="a_node3"><a xlink:href="../../d5/dd6/interfaceIG_1_1Lib_1_1IObjectStore.html" target="_top" xlink:title="Object store. Objects of the specified type can be stored here for later reuse (efficiency improvemen...">
<polygon fill="white" stroke="black" points="0,-112.5 0,-131.5 94,-131.5 94,-112.5 0,-112.5"/>
<text text-anchor="middle" x="47" y="-119.5" font-family="Helvetica,sans-Serif" font-size="10.00">IObjectStore&lt; T &gt;</text>
</a>
</g>
</g>
<!-- Node3&#45;&gt;Node2 -->
<g id="edge2" class="edge"><title>Node3&#45;&gt;Node2</title>
<path fill="none" stroke="midnightblue" d="M50.8499,-102.101C52.6761,-93.1357 54.7697,-82.8579 56.2174,-75.7511"/>
<polygon fill="midnightblue" stroke="midnightblue" points="47.383,-101.586 48.8164,-112.083 54.2421,-102.983 47.383,-101.586"/>
</g>
<!-- Node4 -->
<g id="node4" class="node"><title>Node4</title>
<g id="a_node4"><a xlink:href="../../d3/db6/interfaceIG_1_1Lib_1_1ILockable.html" target="_top" xlink:title="Lockable object, has a Lock property that returns object on which lock must be performed in order to ...">
<polygon fill="white" stroke="black" points="112,-112.5 112,-131.5 170,-131.5 170,-112.5 112,-112.5"/>
<text text-anchor="middle" x="141" y="-119.5" font-family="Helvetica,sans-Serif" font-size="10.00">ILockable</text>
</a>
</g>
</g>
<!-- Node4&#45;&gt;Node1 -->
<g id="edge4" class="edge"><title>Node4&#45;&gt;Node1</title>
<path fill="none" stroke="midnightblue" d="M135.784,-102.348C133.352,-78.2538 133.812,-37.3079 137.165,-19.5914"/>
<polygon fill="midnightblue" stroke="midnightblue" points="132.332,-102.936 137.157,-112.368 139.267,-101.986 132.332,-102.936"/>
</g>
<!-- Node4&#45;&gt;Node1 -->
<g id="edge5" class="edge"><title>Node4&#45;&gt;Node1</title>
<path fill="none" stroke="midnightblue" d="M146.216,-102.348C148.648,-78.2538 148.188,-37.3079 144.835,-19.5914"/>
<polygon fill="midnightblue" stroke="midnightblue" points="142.733,-101.986 144.843,-112.368 149.668,-102.936 142.733,-101.986"/>
</g>
<!-- Node4&#45;&gt;Node2 -->
<g id="edge3" class="edge"><title>Node4&#45;&gt;Node2</title>
<path fill="none" stroke="midnightblue" d="M118.901,-106.622C103.738,-96.7574 84.1172,-83.9919 71.3023,-75.6545"/>
<polygon fill="midnightblue" stroke="midnightblue" points="117.374,-109.804 127.665,-112.324 121.191,-103.937 117.374,-109.804"/>
</g>
</g>
</svg>
