<?xml version="1.0" encoding="UTF-8" standalone="no"?>
<!DOCTYPE svg PUBLIC "-//W3C//DTD SVG 1.1//EN"
 "http://www.w3.org/Graphics/SVG/1.1/DTD/svg11.dtd">
<!-- Generated by graphviz version 2.38.0 (20140413.2041)
 -->
<!-- Title: IGLib.Gr3D.Curve3DParameterizationFromCylindricalWithBounds Pages: 1 -->
<svg width="592pt" height="78pt"
 viewBox="0.00 0.00 592.00 77.50" xmlns="http://www.w3.org/2000/svg" xmlns:xlink="http://www.w3.org/1999/xlink">
<g id="graph0" class="graph" transform="scale(1 1) rotate(0) translate(4 73.5)">
<title>IGLib.Gr3D.Curve3DParameterizationFromCylindricalWithBounds</title>
<polygon fill="white" stroke="none" points="-4,4 -4,-73.5 588,-73.5 588,4 -4,4"/>
<!-- Node1 -->
<g id="node1" class="node"><title>Node1</title>
<g id="a_node1"><a xlink:title="Cartesion parameterization of a curve in 3D. Beside the Curve and (optional) CurveDerivative,...">
<polygon fill="#bfbfbf" stroke="black" points="209,-22.5 209,-52.5 386,-52.5 386,-22.5 209,-22.5"/>
<text text-anchor="start" x="217" y="-40.5" font-family="Helvetica,sans-Serif" font-size="10.00">IGLib.Gr3D.Curve3DParameterization</text>
<text text-anchor="middle" x="297.5" y="-29.5" font-family="Helvetica,sans-Serif" font-size="10.00">FromCylindricalWithBounds</text>
</a>
</g>
</g>
<!-- Node4 -->
<g id="node4" class="node"><title>Node4</title>
<g id="a_node4"><a xlink:href="../../df/d6e/classIGLib_1_1Gr3D_1_1CylindricalBilliardKnot.html" target="_top" xlink:title="Cartesian and cylindrical parameterization of a cylindrical billiard knot in 3D.">
<polygon fill="white" stroke="black" points="422,-50 422,-69 584,-69 584,-50 422,-50"/>
<text text-anchor="middle" x="503" y="-57" font-family="Helvetica,sans-Serif" font-size="10.00">IGLib.Gr3D.CylindricalBilliardKnot</text>
</a>
</g>
</g>
<!-- Node1&#45;&gt;Node4 -->
<g id="edge3" class="edge"><title>Node1&#45;&gt;Node4</title>
<path fill="none" stroke="midnightblue" d="M396.309,-48.074C404.881,-49.0006 413.49,-49.9313 421.892,-50.8397"/>
<polygon fill="midnightblue" stroke="midnightblue" points="396.597,-44.5848 386.279,-46.9896 395.845,-51.5442 396.597,-44.5848"/>
</g>
<!-- Node5 -->
<g id="node5" class="node"><title>Node5</title>
<g id="a_node5"><a xlink:href="../../da/da0/classIGLib_1_1Gr3D_1_1CylindricalBilliardKnot__WrongParameterization.html" target="_top" xlink:title="Cartesian and cylindrical parameterization of a cylindrical billiard knot in 3D.">
<polygon fill="white" stroke="black" points="431,-0.5 431,-30.5 575,-30.5 575,-0.5 431,-0.5"/>
<text text-anchor="start" x="439" y="-18.5" font-family="Helvetica,sans-Serif" font-size="10.00">IGLib.Gr3D.CylindricalBilliard</text>
<text text-anchor="middle" x="503" y="-7.5" font-family="Helvetica,sans-Serif" font-size="10.00">Knot_WrongParameterization</text>
</a>
</g>
</g>
<!-- Node1&#45;&gt;Node5 -->
<g id="edge4" class="edge"><title>Node1&#45;&gt;Node5</title>
<path fill="none" stroke="midnightblue" d="M396.416,-26.9145C407.988,-25.6635 419.626,-24.4053 430.731,-23.2048"/>
<polygon fill="midnightblue" stroke="midnightblue" points="395.845,-23.4558 386.279,-28.0104 396.597,-30.4152 395.845,-23.4558"/>
</g>
<!-- Node2 -->
<g id="node2" class="node"><title>Node2</title>
<g id="a_node2"><a xlink:href="../../dc/d9b/interfaceIGLib_1_1Gr3D_1_1ICurve3DCylindricalParameterization.html" target="_top" xlink:title="Cylindrical parameterization of a curve in 3D. Beside the CurveCylindrical and (optional) CurveDeriva...">
<polygon fill="white" stroke="black" points="0,-50 0,-69 173,-69 173,-50 0,-50"/>
<text text-anchor="middle" x="86.5" y="-57" font-family="Helvetica,sans-Serif" font-size="10.00">ICurve3DCylindricalParameterization</text>
</a>
</g>
</g>
<!-- Node2&#45;&gt;Node1 -->
<g id="edge1" class="edge"><title>Node2&#45;&gt;Node1</title>
<path fill="none" stroke="midnightblue" d="M183.164,-49.4301C191.771,-48.5241 200.458,-47.6097 208.99,-46.7116"/>
<polygon fill="midnightblue" stroke="midnightblue" points="182.69,-45.9606 173.111,-50.4883 183.423,-52.9221 182.69,-45.9606"/>
</g>
<!-- Node3 -->
<g id="node3" class="node"><title>Node3</title>
<g id="a_node3"><a xlink:href="../../d3/d54/interfaceIGLib_1_1Gr3D_1_1ICurve3DParameterizationWithBounds.html" target="_top" xlink:title="Cartesion parameterization of a curve in 3D. Beside the Curve and (optional) CurveDerivative,...">
<polygon fill="white" stroke="black" points="22.5,-0.5 22.5,-30.5 150.5,-30.5 150.5,-0.5 22.5,-0.5"/>
<text text-anchor="start" x="30.5" y="-18.5" font-family="Helvetica,sans-Serif" font-size="10.00">ICurve3DParameterization</text>
<text text-anchor="middle" x="86.5" y="-7.5" font-family="Helvetica,sans-Serif" font-size="10.00">WithBounds</text>
</a>
</g>
</g>
<!-- Node3&#45;&gt;Node1 -->
<g id="edge2" class="edge"><title>Node3&#45;&gt;Node1</title>
<path fill="none" stroke="midnightblue" d="M160.796,-23.2154C176.292,-24.8465 192.796,-26.5838 208.764,-28.2646"/>
<polygon fill="midnightblue" stroke="midnightblue" points="161.086,-19.7266 150.774,-22.1604 160.353,-26.6881 161.086,-19.7266"/>
</g>
</g>
</svg>
