<?xml version="1.0" encoding="UTF-8" standalone="no"?>
<!DOCTYPE svg PUBLIC "-//W3C//DTD SVG 1.1//EN"
 "http://www.w3.org/Graphics/SVG/1.1/DTD/svg11.dtd">
<!-- Generated by graphviz version 2.38.0 (20140413.2041)
 -->
<!-- Title: IG.Num.RandomGenerator Pages: 1 -->
<svg width="216pt" height="140pt"
 viewBox="0.00 0.00 216.00 140.00" xmlns="http://www.w3.org/2000/svg" xmlns:xlink="http://www.w3.org/1999/xlink">
<g id="graph0" class="graph" transform="scale(1 1) rotate(0) translate(4 136)">
<title>IG.Num.RandomGenerator</title>
<polygon fill="white" stroke="none" points="-4,4 -4,-136 212,-136 212,4 -4,4"/>
<!-- Node1 -->
<g id="node1" class="node"><title>Node1</title>
<g id="a_node1"><a xlink:title="Default generator of uniformly distributed random numbers. Provides a global generator and a static f...">
<polygon fill="#bfbfbf" stroke="black" points="46.5,-0.5 46.5,-19.5 177.5,-19.5 177.5,-0.5 46.5,-0.5"/>
<text text-anchor="middle" x="112" y="-7.5" font-family="Helvetica,sans-Serif" font-size="10.00">IG.Num.RandomGenerator</text>
</a>
</g>
</g>
<!-- Node2 -->
<g id="node2" class="node"><title>Node2</title>
<g id="a_node2"><a xlink:href="../../dd/d56/classIG_1_1Num_1_1RandomGeneratorSystem.html" target="_top" xlink:title="Generator of uniformly distributed random numbers. Based on system random generator....">
<polygon fill="white" stroke="black" points="1.5,-56.5 1.5,-75.5 130.5,-75.5 130.5,-56.5 1.5,-56.5"/>
<text text-anchor="middle" x="66" y="-63.5" font-family="Helvetica,sans-Serif" font-size="10.00">RandomGeneratorSystem</text>
</a>
</g>
</g>
<!-- Node2&#45;&gt;Node1 -->
<g id="edge1" class="edge"><title>Node2&#45;&gt;Node1</title>
<path fill="none" stroke="midnightblue" d="M80.114,-48.4314C88.176,-38.9673 97.9592,-27.4827 104.545,-19.7511"/>
<polygon fill="midnightblue" stroke="midnightblue" points="77.4163,-46.2009 73.596,-56.083 82.745,-50.7402 77.4163,-46.2009"/>
</g>
<!-- Node3 -->
<g id="node3" class="node"><title>Node3</title>
<g id="a_node3"><a xlink:title=" ">
<polygon fill="white" stroke="#bfbfbf" points="0,-112.5 0,-131.5 92,-131.5 92,-112.5 0,-112.5"/>
<text text-anchor="middle" x="46" y="-119.5" font-family="Helvetica,sans-Serif" font-size="10.00">System::Random</text>
</a>
</g>
</g>
<!-- Node3&#45;&gt;Node2 -->
<g id="edge2" class="edge"><title>Node3&#45;&gt;Node2</title>
<path fill="none" stroke="midnightblue" d="M52.7816,-102.69C56.1522,-93.589 60.0688,-83.0141 62.7589,-75.7511"/>
<polygon fill="midnightblue" stroke="midnightblue" points="49.4937,-101.49 49.3026,-112.083 56.0579,-103.921 49.4937,-101.49"/>
</g>
<!-- Node4 -->
<g id="node4" class="node"><title>Node4</title>
<g id="a_node4"><a xlink:href="../../d4/d43/interfaceIG_1_1Num_1_1IRandomGenerator.html" target="_top" xlink:title="Uniform random number generator.">
<polygon fill="white" stroke="black" points="110,-112.5 110,-131.5 208,-131.5 208,-112.5 110,-112.5"/>
<text text-anchor="middle" x="159" y="-119.5" font-family="Helvetica,sans-Serif" font-size="10.00">IRandomGenerator</text>
</a>
</g>
</g>
<!-- Node4&#45;&gt;Node1 -->
<g id="edge4" class="edge"><title>Node4&#45;&gt;Node1</title>
<path fill="none" stroke="midnightblue" d="M154.595,-102.533C151.13,-89.282 145.762,-71.164 139,-56 133.063,-42.6863 124,-28.4366 118.038,-19.6216"/>
<polygon fill="midnightblue" stroke="midnightblue" points="151.228,-103.494 157.047,-112.347 158.019,-101.797 151.228,-103.494"/>
</g>
<!-- Node4&#45;&gt;Node2 -->
<g id="edge3" class="edge"><title>Node4&#45;&gt;Node2</title>
<path fill="none" stroke="midnightblue" d="M135.194,-107.177C118.081,-97.2407 95.5347,-84.1492 80.905,-75.6545"/>
<polygon fill="midnightblue" stroke="midnightblue" points="133.653,-110.329 144.058,-112.324 137.168,-104.276 133.653,-110.329"/>
</g>
</g>
</svg>
