<?xml version="1.0" encoding="UTF-8" standalone="no"?>
<!DOCTYPE svg PUBLIC "-//W3C//DTD SVG 1.1//EN"
 "http://www.w3.org/Graphics/SVG/1.1/DTD/svg11.dtd">
<!-- Generated by graphviz version 2.38.0 (20140413.2041)
 -->
<!-- Title: IG.Lib.WaitDirectoryCreation Pages: 1 -->
<svg width="226pt" height="308pt"
 viewBox="0.00 0.00 225.50 308.00" xmlns="http://www.w3.org/2000/svg" xmlns:xlink="http://www.w3.org/1999/xlink">
<g id="graph0" class="graph" transform="scale(1 1) rotate(0) translate(4 304)">
<title>IG.Lib.WaitDirectoryCreation</title>
<polygon fill="white" stroke="none" points="-4,4 -4,-304 221.5,-304 221.5,4 -4,4"/>
<!-- Node1 -->
<g id="node1" class="node"><title>Node1</title>
<g id="a_node1"><a xlink:title="Blocking execution of the current thread until the specified directory begins to exist.">
<polygon fill="#bfbfbf" stroke="black" points="0,-0.5 0,-19.5 140,-19.5 140,-0.5 0,-0.5"/>
<text text-anchor="middle" x="70" y="-7.5" font-family="Helvetica,sans-Serif" font-size="10.00">IG.Lib.WaitDirectoryCreation</text>
</a>
</g>
</g>
<!-- Node2 -->
<g id="node2" class="node"><title>Node2</title>
<g id="a_node2"><a xlink:href="../../d2/ddf/classIG_1_1Lib_1_1WaitFileEvent.html" target="_top" xlink:title="Concrete class derived from WaitFileEventBase. It does not have a meaningful unblocking condition (it...">
<polygon fill="white" stroke="black" points="31.5,-56.5 31.5,-75.5 108.5,-75.5 108.5,-56.5 31.5,-56.5"/>
<text text-anchor="middle" x="70" y="-63.5" font-family="Helvetica,sans-Serif" font-size="10.00">WaitFileEvent</text>
</a>
</g>
</g>
<!-- Node2&#45;&gt;Node1 -->
<g id="edge1" class="edge"><title>Node2&#45;&gt;Node1</title>
<path fill="none" stroke="midnightblue" d="M70,-45.8045C70,-36.9102 70,-26.7798 70,-19.7511"/>
<polygon fill="midnightblue" stroke="midnightblue" points="66.5001,-46.083 70,-56.083 73.5001,-46.083 66.5001,-46.083"/>
</g>
<!-- Node3 -->
<g id="node3" class="node"><title>Node3</title>
<g id="a_node3"><a xlink:href="../../d5/d42/classIG_1_1Lib_1_1WaitFileEventBase.html" target="_top" xlink:title="Base class for classes that provide blocking until a file or directory is created/removed.">
<polygon fill="white" stroke="black" points="20.5,-112.5 20.5,-131.5 119.5,-131.5 119.5,-112.5 20.5,-112.5"/>
<text text-anchor="middle" x="70" y="-119.5" font-family="Helvetica,sans-Serif" font-size="10.00">WaitFileEventBase</text>
</a>
</g>
</g>
<!-- Node3&#45;&gt;Node2 -->
<g id="edge2" class="edge"><title>Node3&#45;&gt;Node2</title>
<path fill="none" stroke="midnightblue" d="M70,-101.805C70,-92.9102 70,-82.7798 70,-75.7511"/>
<polygon fill="midnightblue" stroke="midnightblue" points="66.5001,-102.083 70,-112.083 73.5001,-102.083 66.5001,-102.083"/>
</g>
<!-- Node4 -->
<g id="node4" class="node"><title>Node4</title>
<g id="a_node4"><a xlink:href="../../df/dea/classIG_1_1Lib_1_1WaitConditionBase.html" target="_top" xlink:title="Base class for objects that perform waiting until a condition is fulfilled.">
<polygon fill="white" stroke="black" points="20,-168.5 20,-187.5 120,-187.5 120,-168.5 20,-168.5"/>
<text text-anchor="middle" x="70" y="-175.5" font-family="Helvetica,sans-Serif" font-size="10.00">WaitConditionBase</text>
</a>
</g>
</g>
<!-- Node4&#45;&gt;Node3 -->
<g id="edge3" class="edge"><title>Node4&#45;&gt;Node3</title>
<path fill="none" stroke="midnightblue" d="M70,-157.805C70,-148.91 70,-138.78 70,-131.751"/>
<polygon fill="midnightblue" stroke="midnightblue" points="66.5001,-158.083 70,-168.083 73.5001,-158.083 66.5001,-158.083"/>
</g>
<!-- Node5 -->
<g id="node5" class="node"><title>Node5</title>
<g id="a_node5"><a xlink:href="../../de/d1e/interfaceIG_1_1Lib_1_1IWaitCondition.html" target="_top" xlink:title="Interface for classes that implement blocking until a specified condition is met.">
<polygon fill="white" stroke="black" points="70,-224.5 70,-243.5 150,-243.5 150,-224.5 70,-224.5"/>
<text text-anchor="middle" x="110" y="-231.5" font-family="Helvetica,sans-Serif" font-size="10.00">IWaitCondition</text>
</a>
</g>
</g>
<!-- Node5&#45;&gt;Node4 -->
<g id="edge4" class="edge"><title>Node5&#45;&gt;Node4</title>
<path fill="none" stroke="midnightblue" d="M97.3003,-215.855C90.374,-206.505 82.0937,-195.327 76.4823,-187.751"/>
<polygon fill="midnightblue" stroke="midnightblue" points="94.63,-218.131 103.395,-224.083 100.255,-213.964 94.63,-218.131"/>
</g>
<!-- Node7 -->
<g id="node7" class="node"><title>Node7</title>
<g id="a_node7"><a xlink:href="../../d2/d48/interfaceIG_1_1Lib_1_1IWaitFileEvent.html" target="_top" xlink:title="Interface for classes that provide waiting for specific file events (such as ceration or deletion of ...">
<polygon fill="white" stroke="black" points="138.5,-168.5 138.5,-187.5 217.5,-187.5 217.5,-168.5 138.5,-168.5"/>
<text text-anchor="middle" x="178" y="-175.5" font-family="Helvetica,sans-Serif" font-size="10.00">IWaitFileEvent</text>
</a>
</g>
</g>
<!-- Node5&#45;&gt;Node7 -->
<g id="edge8" class="edge"><title>Node5&#45;&gt;Node7</title>
<path fill="none" stroke="midnightblue" d="M128.762,-218.101C141,-208.382 156.559,-196.027 166.876,-187.834"/>
<polygon fill="midnightblue" stroke="midnightblue" points="126.58,-215.364 120.925,-224.324 130.933,-220.846 126.58,-215.364"/>
</g>
<!-- Node6 -->
<g id="node6" class="node"><title>Node6</title>
<g id="a_node6"><a xlink:href="../../d3/db6/interfaceIG_1_1Lib_1_1ILockable.html" target="_top" xlink:title="Lockable object, has a Lock property that returns object on which lock must be performed in order to ...">
<polygon fill="white" stroke="black" points="47,-280.5 47,-299.5 105,-299.5 105,-280.5 47,-280.5"/>
<text text-anchor="middle" x="76" y="-287.5" font-family="Helvetica,sans-Serif" font-size="10.00">ILockable</text>
</a>
</g>
</g>
<!-- Node6&#45;&gt;Node3 -->
<g id="edge10" class="edge"><title>Node6&#45;&gt;Node3</title>
<path fill="none" stroke="midnightblue" d="M61.3115,-272.811C45.3423,-254.014 20.7921,-221.309 11,-188 8.49299,-179.472 7.05694,-175.966 11,-168 19.2861,-151.259 37.1137,-139.046 51.0158,-131.602"/>
<polygon fill="midnightblue" stroke="midnightblue" points="58.7454,-275.194 67.961,-280.421 64.0166,-270.588 58.7454,-275.194"/>
</g>
<!-- Node6&#45;&gt;Node4 -->
<g id="edge6" class="edge"><title>Node6&#45;&gt;Node4</title>
<path fill="none" stroke="midnightblue" d="M68.4438,-270.782C65.4923,-262.725 62.4675,-253.043 61,-244 57.7518,-223.983 63.3717,-200.378 67.098,-187.851"/>
<polygon fill="midnightblue" stroke="midnightblue" points="65.2436,-272.209 72.1443,-280.249 71.7632,-269.661 65.2436,-272.209"/>
</g>
<!-- Node6&#45;&gt;Node5 -->
<g id="edge5" class="edge"><title>Node6&#45;&gt;Node5</title>
<path fill="none" stroke="midnightblue" d="M86.9772,-271.566C92.827,-262.275 99.7695,-251.248 104.49,-243.751"/>
<polygon fill="midnightblue" stroke="midnightblue" points="83.9808,-269.756 81.6144,-280.083 89.9044,-273.486 83.9808,-269.756"/>
</g>
<!-- Node6&#45;&gt;Node7 -->
<g id="edge9" class="edge"><title>Node6&#45;&gt;Node7</title>
<path fill="none" stroke="midnightblue" d="M112.873,-276.499C129.095,-269.303 147.122,-258.713 159,-244 172.589,-227.168 176.459,-200.953 177.561,-187.538"/>
<polygon fill="midnightblue" stroke="midnightblue" points="111.486,-273.285 103.59,-280.35 114.168,-279.751 111.486,-273.285"/>
</g>
<!-- Node7&#45;&gt;Node3 -->
<g id="edge7" class="edge"><title>Node7&#45;&gt;Node3</title>
<path fill="none" stroke="midnightblue" d="M151.452,-163.726C131.454,-153.727 104.613,-140.307 87.309,-131.655"/>
<polygon fill="midnightblue" stroke="midnightblue" points="150.138,-166.982 160.648,-168.324 153.269,-160.721 150.138,-166.982"/>
</g>
</g>
</svg>
