<?xml version="1.0" encoding="UTF-8" standalone="no"?>
<!DOCTYPE svg PUBLIC "-//W3C//DTD SVG 1.1//EN"
 "http://www.w3.org/Graphics/SVG/1.1/DTD/svg11.dtd">
<!-- Generated by graphviz version 2.38.0 (20140413.2041)
 -->
<!-- Title: IG.Num.OptimizationResultsBase Pages: 1 -->
<svg width="292pt" height="117pt"
 viewBox="0.00 0.00 291.50 117.00" xmlns="http://www.w3.org/2000/svg" xmlns:xlink="http://www.w3.org/1999/xlink">
<g id="graph0" class="graph" transform="scale(1 1) rotate(0) translate(4 113)">
<title>IG.Num.OptimizationResultsBase</title>
<polygon fill="white" stroke="none" points="-4,4 -4,-113 287.5,-113 287.5,4 -4,4"/>
<!-- Node1 -->
<g id="node1" class="node"><title>Node1</title>
<g id="a_node1"><a xlink:title="Base class for storage of optimization results. Stores optimal analysis results, best current guess,...">
<polygon fill="#bfbfbf" stroke="black" points="54,-0.5 54,-19.5 217,-19.5 217,-0.5 54,-0.5"/>
<text text-anchor="middle" x="135.5" y="-7.5" font-family="Helvetica,sans-Serif" font-size="10.00">IG.Num.OptimizationResultsBase</text>
</a>
</g>
</g>
<!-- Node2 -->
<g id="node2" class="node"><title>Node2</title>
<g id="a_node2"><a xlink:href="../../d4/d34/interfaceIG_1_1Num_1_1IAnalysisResults.html" target="_top" xlink:title="Single objective optimization analysis results. Used to transfer parameters input (e....">
<polygon fill="white" stroke="black" points="0,-89.5 0,-108.5 125,-108.5 125,-89.5 0,-89.5"/>
<text text-anchor="middle" x="62.5" y="-96.5" font-family="Helvetica,sans-Serif" font-size="10.00">IG.Num.IAnalysisResults</text>
</a>
</g>
</g>
<!-- Node2&#45;&gt;Node1 -->
<g id="edge1" class="edge"><title>Node2&#45;&gt;Node1</title>
<path fill="none" stroke="#9a32cd" stroke-dasharray="5,2" d="M76.5588,-81.2449C92.0193,-62.8195 116.258,-33.9322 128.263,-19.6249"/>
<polygon fill="#9a32cd" stroke="#9a32cd" points="73.513,-79.4298 69.7664,-89.34 78.8754,-83.9292 73.513,-79.4298"/>
<text text-anchor="middle" x="146" y="-63" font-family="Helvetica,sans-Serif" font-size="10.00"> _currentGuess</text>
<text text-anchor="middle" x="146" y="-52" font-family="Helvetica,sans-Serif" font-size="10.00">_results</text>
<text text-anchor="middle" x="146" y="-41" font-family="Helvetica,sans-Serif" font-size="10.00">_buestGuess</text>
</g>
<!-- Node3 -->
<g id="node3" class="node"><title>Node3</title>
<g id="a_node3"><a xlink:href="../../dd/d7b/interfaceIG_1_1Num_1_1IOptimizationData.html" target="_top" xlink:title="Information about optimization data and algorithm parameters.">
<polygon fill="white" stroke="black" points="143.5,-89.5 143.5,-108.5 273.5,-108.5 273.5,-89.5 143.5,-89.5"/>
<text text-anchor="middle" x="208.5" y="-96.5" font-family="Helvetica,sans-Serif" font-size="10.00">IG.Num.IOptimizationData</text>
</a>
</g>
</g>
<!-- Node3&#45;&gt;Node1 -->
<g id="edge2" class="edge"><title>Node3&#45;&gt;Node1</title>
<path fill="none" stroke="#9a32cd" stroke-dasharray="5,2" d="M204.155,-79.2648C200.416,-66.458 193.937,-49.7426 183.5,-38 176.513,-30.1389 166.668,-24.0484 157.711,-19.6583"/>
<polygon fill="#9a32cd" stroke="#9a32cd" points="200.858,-80.4949 206.766,-89.2898 207.632,-78.7305 200.858,-80.4949"/>
<text text-anchor="middle" x="242.5" y="-52" font-family="Helvetica,sans-Serif" font-size="10.00"> _optimizationData</text>
</g>
</g>
</svg>
