<?xml version="1.0" encoding="UTF-8" standalone="no"?>
<!DOCTYPE svg PUBLIC "-//W3C//DTD SVG 1.1//EN"
 "http://www.w3.org/Graphics/SVG/1.1/DTD/svg11.dtd">
<!-- Generated by graphviz version 2.38.0 (20140413.2041)
 -->
<!-- Title: IG.Lib.SerializerJsonBase Pages: 1 -->
<svg width="182pt" height="152pt"
 viewBox="0.00 0.00 182.00 152.00" xmlns="http://www.w3.org/2000/svg" xmlns:xlink="http://www.w3.org/1999/xlink">
<g id="graph0" class="graph" transform="scale(1 1) rotate(0) translate(4 148)">
<title>IG.Lib.SerializerJsonBase</title>
<polygon fill="white" stroke="none" points="-4,4 -4,-148 178,-148 178,4 -4,4"/>
<!-- Node1 -->
<g id="node1" class="node"><title>Node1</title>
<g id="a_node1"><a xlink:title="Helper class for JSON serialization and deserialization. This class does not enable formatting of the...">
<polygon fill="#bfbfbf" stroke="black" points="10.5,-0.5 10.5,-19.5 138.5,-19.5 138.5,-0.5 10.5,-0.5"/>
<text text-anchor="middle" x="74.5" y="-7.5" font-family="Helvetica,sans-Serif" font-size="10.00">IG.Lib.SerializerJsonBase</text>
</a>
</g>
</g>
<!-- Node2 -->
<g id="node2" class="node"><title>Node2</title>
<g id="a_node2"><a xlink:href="../../d0/d1b/classIG_1_1Lib_1_1SerializerBase.html" target="_top" xlink:title="Base class for serialization helper classes.">
<polygon fill="white" stroke="black" points="34.5,-67.5 34.5,-86.5 114.5,-86.5 114.5,-67.5 34.5,-67.5"/>
<text text-anchor="middle" x="74.5" y="-74.5" font-family="Helvetica,sans-Serif" font-size="10.00">SerializerBase</text>
</a>
</g>
</g>
<!-- Node2&#45;&gt;Node1 -->
<g id="edge1" class="edge"><title>Node2&#45;&gt;Node1</title>
<path fill="none" stroke="midnightblue" d="M74.5,-57.037C74.5,-44.6703 74.5,-29.1198 74.5,-19.6273"/>
<polygon fill="midnightblue" stroke="midnightblue" points="71.0001,-57.2338 74.5,-67.2338 78.0001,-57.2338 71.0001,-57.2338"/>
</g>
<!-- Node3 -->
<g id="node3" class="node"><title>Node3</title>
<g id="a_node3"><a xlink:href="../../d1/d02/interfaceIG_1_1Lib_1_1ISerializer.html" target="_top" xlink:title="Interface for helper classes that perform serialization/deserialization of objects.">
<polygon fill="white" stroke="black" points="0,-124.5 0,-143.5 59,-143.5 59,-124.5 0,-124.5"/>
<text text-anchor="middle" x="29.5" y="-131.5" font-family="Helvetica,sans-Serif" font-size="10.00">ISerializer</text>
</a>
</g>
</g>
<!-- Node3&#45;&gt;Node1 -->
<g id="edge3" class="edge"><title>Node3&#45;&gt;Node1</title>
<path fill="none" stroke="midnightblue" d="M24.3351,-114.075C21.5891,-100.536 19.8221,-82.1114 25.5,-67 32.9518,-47.1673 50.9656,-29.7628 62.9506,-19.8148"/>
<polygon fill="midnightblue" stroke="midnightblue" points="21.0058,-115.202 26.7301,-124.117 27.8149,-113.578 21.0058,-115.202"/>
</g>
<!-- Node3&#45;&gt;Node2 -->
<g id="edge2" class="edge"><title>Node3&#45;&gt;Node2</title>
<path fill="none" stroke="midnightblue" d="M42.9739,-116.532C50.9888,-106.736 60.8355,-94.701 67.3696,-86.7149"/>
<polygon fill="midnightblue" stroke="midnightblue" points="40.1548,-114.45 36.5313,-124.406 45.5725,-118.883 40.1548,-114.45"/>
</g>
<!-- Node4 -->
<g id="node4" class="node"><title>Node4</title>
<g id="a_node4"><a xlink:title=" ">
<polygon fill="white" stroke="#bfbfbf" points="133,-67.5 133,-86.5 174,-86.5 174,-67.5 133,-67.5"/>
<text text-anchor="middle" x="153.5" y="-74.5" font-family="Helvetica,sans-Serif" font-size="10.00">static</text>
</a>
</g>
</g>
<!-- Node4&#45;&gt;Node1 -->
<g id="edge4" class="edge"><title>Node4&#45;&gt;Node1</title>
<path fill="none" stroke="#9a32cd" stroke-dasharray="5,2" d="M134.921,-60.7134C119.356,-47.907 97.6997,-30.0884 84.9855,-19.6273"/>
<polygon fill="#9a32cd" stroke="#9a32cd" points="132.9,-63.5829 142.846,-67.2338 137.347,-58.1774 132.9,-63.5829"/>
<text text-anchor="middle" x="136.5" y="-41" font-family="Helvetica,sans-Serif" font-size="10.00"> _global</text>
</g>
</g>
</svg>
