<?xml version="1.0" encoding="UTF-8" standalone="no"?>
<!DOCTYPE svg PUBLIC "-//W3C//DTD SVG 1.1//EN"
 "http://www.w3.org/Graphics/SVG/1.1/DTD/svg11.dtd">
<!-- Generated by graphviz version 2.38.0 (20140413.2041)
 -->
<!-- Title: IG.Lib.ColorScale Pages: 1 -->
<svg width="215pt" height="152pt"
 viewBox="0.00 0.00 215.00 152.00" xmlns="http://www.w3.org/2000/svg" xmlns:xlink="http://www.w3.org/1999/xlink">
<g id="graph0" class="graph" transform="scale(1 1) rotate(0) translate(4 148)">
<title>IG.Lib.ColorScale</title>
<polygon fill="white" stroke="none" points="-4,4 -4,-148 211,-148 211,4 -4,4"/>
<!-- Node1 -->
<g id="node1" class="node"><title>Node1</title>
<g id="a_node1"><a xlink:title=" ">
<polygon fill="#bfbfbf" stroke="black" points="34,-0.5 34,-19.5 126,-19.5 126,-0.5 34,-0.5"/>
<text text-anchor="middle" x="80" y="-7.5" font-family="Helvetica,sans-Serif" font-size="10.00">IG.Lib.ColorScale</text>
</a>
</g>
</g>
<!-- Node2 -->
<g id="node2" class="node"><title>Node2</title>
<g id="a_node2"><a xlink:href="../../d1/d6b/classIG_1_1Lib_1_1ColorScaleBase.html" target="_top" xlink:title=" ">
<polygon fill="white" stroke="black" points="37,-67.5 37,-86.5 123,-86.5 123,-67.5 37,-67.5"/>
<text text-anchor="middle" x="80" y="-74.5" font-family="Helvetica,sans-Serif" font-size="10.00">ColorScaleBase</text>
</a>
</g>
</g>
<!-- Node2&#45;&gt;Node1 -->
<g id="edge1" class="edge"><title>Node2&#45;&gt;Node1</title>
<path fill="none" stroke="midnightblue" d="M80,-57.037C80,-44.6703 80,-29.1198 80,-19.6273"/>
<polygon fill="midnightblue" stroke="midnightblue" points="76.5001,-57.2338 80,-67.2338 83.5001,-57.2338 76.5001,-57.2338"/>
</g>
<!-- Node3 -->
<g id="node3" class="node"><title>Node3</title>
<g id="a_node3"><a xlink:href="../../d0/d9a/interfaceIG_1_1Lib_1_1IColorScale.html" target="_top" xlink:title=" ">
<polygon fill="white" stroke="black" points="0,-124.5 0,-143.5 66,-143.5 66,-124.5 0,-124.5"/>
<text text-anchor="middle" x="33" y="-131.5" font-family="Helvetica,sans-Serif" font-size="10.00">IColorScale</text>
</a>
</g>
</g>
<!-- Node3&#45;&gt;Node1 -->
<g id="edge3" class="edge"><title>Node3&#45;&gt;Node1</title>
<path fill="none" stroke="midnightblue" d="M27.2695,-114.032C24.1848,-100.473 22.0934,-82.0413 28,-67 35.9531,-46.7471 55.0571,-29.4608 67.761,-19.652"/>
<polygon fill="midnightblue" stroke="midnightblue" points="23.9919,-115.326 29.9406,-124.094 30.7576,-113.53 23.9919,-115.326"/>
</g>
<!-- Node3&#45;&gt;Node2 -->
<g id="edge2" class="edge"><title>Node3&#45;&gt;Node2</title>
<path fill="none" stroke="midnightblue" d="M47.0727,-116.532C55.4439,-106.736 65.7282,-94.701 72.5527,-86.7149"/>
<polygon fill="midnightblue" stroke="midnightblue" points="44.1795,-114.53 40.3438,-124.406 49.5011,-119.078 44.1795,-114.53"/>
</g>
<!-- Node4 -->
<g id="node4" class="node"><title>Node4</title>
<g id="a_node4"><a xlink:href="../../dd/d52/structIG_1_1Lib_1_1color.html" target="_top" xlink:title="Extended color representation. Stores RGB components and opacity as double numbers ranging fom 0 to 1...">
<polygon fill="white" stroke="black" points="141,-67.5 141,-86.5 207,-86.5 207,-67.5 141,-67.5"/>
<text text-anchor="middle" x="174" y="-74.5" font-family="Helvetica,sans-Serif" font-size="10.00">IG.Lib.color</text>
</a>
</g>
</g>
<!-- Node4&#45;&gt;Node1 -->
<g id="edge4" class="edge"><title>Node4&#45;&gt;Node1</title>
<path fill="none" stroke="#9a32cd" stroke-dasharray="5,2" d="M152.915,-61.4196C134.331,-48.5695 107.885,-30.2821 92.4764,-19.6273"/>
<polygon fill="#9a32cd" stroke="#9a32cd" points="151.107,-64.425 161.323,-67.2338 155.088,-58.6674 151.107,-64.425"/>
<text text-anchor="middle" x="169.5" y="-41" font-family="Helvetica,sans-Serif" font-size="10.00"> _definitionColors</text>
</g>
</g>
</svg>
