<?xml version="1.0" encoding="UTF-8" standalone="no"?>
<!DOCTYPE svg PUBLIC "-//W3C//DTD SVG 1.1//EN"
 "http://www.w3.org/Graphics/SVG/1.1/DTD/svg11.dtd">
<!-- Generated by graphviz version 2.38.0 (20140413.2041)
 -->
<!-- Title: IG.Lib.ScriptLoaderBase Pages: 1 -->
<svg width="133pt" height="207pt"
 viewBox="0.00 0.00 133.00 207.00" xmlns="http://www.w3.org/2000/svg" xmlns:xlink="http://www.w3.org/1999/xlink">
<g id="graph0" class="graph" transform="scale(1 1) rotate(0) translate(4 203)">
<title>IG.Lib.ScriptLoaderBase</title>
<polygon fill="white" stroke="none" points="-4,4 -4,-203 129,-203 129,4 -4,4"/>
<!-- Node1 -->
<g id="node1" class="node"><title>Node1</title>
<g id="a_node1"><a xlink:title="Dynamically compiles, loads and instantiates classes of type ILoadableScript from files or from strin...">
<polygon fill="#bfbfbf" stroke="black" points="1.5,-123.5 1.5,-142.5 123.5,-142.5 123.5,-123.5 1.5,-123.5"/>
<text text-anchor="middle" x="62.5" y="-130.5" font-family="Helvetica,sans-Serif" font-size="10.00">IG.Lib.ScriptLoaderBase</text>
</a>
</g>
</g>
<!-- Node3 -->
<g id="node3" class="node"><title>Node3</title>
<g id="a_node3"><a xlink:href="../../d3/dc9/classIG_1_1Lib_1_1ScriptLoaderIGLib.html" target="_top" xlink:title="Base script loader class for IGLib.">
<polygon fill="white" stroke="black" points="1.5,-67.5 1.5,-86.5 123.5,-86.5 123.5,-67.5 1.5,-67.5"/>
<text text-anchor="middle" x="62.5" y="-74.5" font-family="Helvetica,sans-Serif" font-size="10.00">IG.Lib.ScriptLoaderIGLib</text>
</a>
</g>
</g>
<!-- Node1&#45;&gt;Node3 -->
<g id="edge2" class="edge"><title>Node1&#45;&gt;Node3</title>
<path fill="none" stroke="midnightblue" d="M62.5,-112.805C62.5,-103.91 62.5,-93.7798 62.5,-86.7511"/>
<polygon fill="midnightblue" stroke="midnightblue" points="59.0001,-113.083 62.5,-123.083 66.0001,-113.083 59.0001,-113.083"/>
</g>
<!-- Node2 -->
<g id="node2" class="node"><title>Node2</title>
<g id="a_node2"><a xlink:href="../../d3/db6/interfaceIG_1_1Lib_1_1ILockable.html" target="_top" xlink:title="Lockable object, has a Lock property that returns object on which lock must be performed in order to ...">
<polygon fill="white" stroke="black" points="33.5,-179.5 33.5,-198.5 91.5,-198.5 91.5,-179.5 33.5,-179.5"/>
<text text-anchor="middle" x="62.5" y="-186.5" font-family="Helvetica,sans-Serif" font-size="10.00">ILockable</text>
</a>
</g>
</g>
<!-- Node2&#45;&gt;Node1 -->
<g id="edge1" class="edge"><title>Node2&#45;&gt;Node1</title>
<path fill="none" stroke="midnightblue" d="M62.5,-168.805C62.5,-159.91 62.5,-149.78 62.5,-142.751"/>
<polygon fill="midnightblue" stroke="midnightblue" points="59.0001,-169.083 62.5,-179.083 66.0001,-169.083 59.0001,-169.083"/>
</g>
<!-- Node4 -->
<g id="node4" class="node"><title>Node4</title>
<g id="a_node4"><a xlink:href="../../d5/d5b/classIG_1_1Lib_1_1ScriptLoaderIGLib_1_1ScriptLoaderTest.html" target="_top" xlink:title="ScriptLoader used for testing.">
<polygon fill="white" stroke="black" points="0,-0.5 0,-30.5 125,-30.5 125,-0.5 0,-0.5"/>
<text text-anchor="start" x="8" y="-18.5" font-family="Helvetica,sans-Serif" font-size="10.00">IG.Lib.ScriptLoaderIGLib.</text>
<text text-anchor="middle" x="62.5" y="-7.5" font-family="Helvetica,sans-Serif" font-size="10.00">ScriptLoaderTest</text>
</a>
</g>
</g>
<!-- Node3&#45;&gt;Node4 -->
<g id="edge3" class="edge"><title>Node3&#45;&gt;Node4</title>
<path fill="none" stroke="midnightblue" d="M62.5,-57.2349C62.5,-48.5864 62.5,-38.4969 62.5,-30.523"/>
<polygon fill="midnightblue" stroke="midnightblue" points="59.0001,-57.4751 62.5,-67.4751 66.0001,-57.4751 59.0001,-57.4751"/>
</g>
</g>
</svg>
