<?xml version="1.0" encoding="UTF-8" standalone="no"?>
<!DOCTYPE svg PUBLIC "-//W3C//DTD SVG 1.1//EN"
 "http://www.w3.org/Graphics/SVG/1.1/DTD/svg11.dtd">
<!-- Generated by graphviz version 2.38.0 (20140413.2041)
 -->
<!-- Title: IG.Lib.StopWatch1 Pages: 1 -->
<svg width="228pt" height="128pt"
 viewBox="0.00 0.00 228.00 128.00" xmlns="http://www.w3.org/2000/svg" xmlns:xlink="http://www.w3.org/1999/xlink">
<g id="graph0" class="graph" transform="scale(1 1) rotate(0) translate(4 124)">
<title>IG.Lib.StopWatch1</title>
<polygon fill="white" stroke="none" points="-4,4 -4,-124 224,-124 224,4 -4,4"/>
<!-- Node1 -->
<g id="node1" class="node"><title>Node1</title>
<g id="a_node1"><a xlink:title="Timer for measuring execution times and other intervals of time elapsed between successive events....">
<polygon fill="#bfbfbf" stroke="black" points="59.5,-0.5 59.5,-19.5 158.5,-19.5 158.5,-0.5 59.5,-0.5"/>
<text text-anchor="middle" x="109" y="-7.5" font-family="Helvetica,sans-Serif" font-size="10.00">IG.Lib.StopWatch1</text>
</a>
</g>
</g>
<!-- Node2 -->
<g id="node2" class="node"><title>Node2</title>
<g id="a_node2"><a xlink:href="../../d3/db6/interfaceIG_1_1Lib_1_1ILockable.html" target="_top" xlink:title="Lockable object, has a Lock property that returns object on which lock must be performed in order to ...">
<polygon fill="white" stroke="black" points="0,-100.5 0,-119.5 58,-119.5 58,-100.5 0,-100.5"/>
<text text-anchor="middle" x="29" y="-107.5" font-family="Helvetica,sans-Serif" font-size="10.00">ILockable</text>
</a>
</g>
</g>
<!-- Node2&#45;&gt;Node1 -->
<g id="edge1" class="edge"><title>Node2&#45;&gt;Node1</title>
<path fill="none" stroke="midnightblue" d="M42.4528,-92.5203C59.6424,-71.463 88.7569,-35.7978 102.031,-19.5374"/>
<polygon fill="midnightblue" stroke="midnightblue" points="39.7119,-90.3432 36.0995,-100.303 45.1346,-94.7698 39.7119,-90.3432"/>
</g>
<!-- Node3 -->
<g id="node3" class="node"><title>Node3</title>
<g id="a_node3"><a xlink:href="../../dc/d79/interfaceIG_1_1Lib_1_1IIdentifiable.html" target="_top" xlink:title="Classes whose instances have unique integer IDs.">
<polygon fill="white" stroke="black" points="76.5,-100.5 76.5,-119.5 141.5,-119.5 141.5,-100.5 76.5,-100.5"/>
<text text-anchor="middle" x="109" y="-107.5" font-family="Helvetica,sans-Serif" font-size="10.00">IIdentifiable</text>
</a>
</g>
</g>
<!-- Node3&#45;&gt;Node1 -->
<g id="edge2" class="edge"><title>Node3&#45;&gt;Node1</title>
<path fill="none" stroke="midnightblue" d="M109,-90.2203C109,-68.9514 109,-35.2197 109,-19.5374"/>
<polygon fill="midnightblue" stroke="midnightblue" points="105.5,-90.3031 109,-100.303 112.5,-90.3032 105.5,-90.3031"/>
</g>
<!-- Node4 -->
<g id="node4" class="node"><title>Node4</title>
<g id="a_node4"><a xlink:title=" ">
<polygon fill="white" stroke="#bfbfbf" points="159.5,-100.5 159.5,-119.5 200.5,-119.5 200.5,-100.5 159.5,-100.5"/>
<text text-anchor="middle" x="180" y="-107.5" font-family="Helvetica,sans-Serif" font-size="10.00">static</text>
</a>
</g>
</g>
<!-- Node4&#45;&gt;Node1 -->
<g id="edge3" class="edge"><title>Node4&#45;&gt;Node1</title>
<path fill="none" stroke="#9a32cd" stroke-dasharray="5,2" d="M167.651,-91.9554C152.347,-70.8305 126.861,-35.6533 115.185,-19.5374"/>
<polygon fill="#9a32cd" stroke="#9a32cd" points="164.998,-94.2585 173.699,-100.303 170.667,-90.1516 164.998,-94.2585"/>
<text text-anchor="middle" x="190" y="-74" font-family="Helvetica,sans-Serif" font-size="10.00"> lastId</text>
<text text-anchor="middle" x="190" y="-63" font-family="Helvetica,sans-Serif" font-size="10.00">_staticLock</text>
<text text-anchor="middle" x="190" y="-52" font-family="Helvetica,sans-Serif" font-size="10.00">numWarnCpu</text>
<text text-anchor="middle" x="190" y="-41" font-family="Helvetica,sans-Serif" font-size="10.00">MaxWarnCpu</text>
</g>
</g>
</svg>
