<?xml version="1.0" encoding="UTF-8" standalone="no"?>
<!DOCTYPE svg PUBLIC "-//W3C//DTD SVG 1.1//EN"
 "http://www.w3.org/Graphics/SVG/1.1/DTD/svg11.dtd">
<!-- Generated by graphviz version 2.38.0 (20140413.2041)
 -->
<!-- Title: IG.Lib.ExpressionEvaluatorJs Pages: 1 -->
<svg width="517pt" height="229pt"
 viewBox="0.00 0.00 517.00 228.50" xmlns="http://www.w3.org/2000/svg" xmlns:xlink="http://www.w3.org/1999/xlink">
<g id="graph0" class="graph" transform="scale(1 1) rotate(0) translate(4 224.5)">
<title>IG.Lib.ExpressionEvaluatorJs</title>
<polygon fill="white" stroke="none" points="-4,4 -4,-224.5 513,-224.5 513,4 -4,4"/>
<!-- Node1 -->
<g id="node1" class="node"><title>Node1</title>
<g id="a_node1"><a xlink:title="JavaScript Evaluator with command&#45;line interpreter.">
<polygon fill="#bfbfbf" stroke="black" points="366,-126 366,-145 509,-145 509,-126 366,-126"/>
<text text-anchor="middle" x="437.5" y="-133" font-family="Helvetica,sans-Serif" font-size="10.00">IG.Lib.ExpressionEvaluatorJs</text>
</a>
</g>
</g>
<!-- Node2 -->
<g id="node2" class="node"><title>Node2</title>
<g id="a_node2"><a xlink:href="../../dd/dec/classIG_1_1Lib_1_1ExpressionEvaluatorCompiled.html" target="_top" xlink:title="Base class for expression evaluators that utilize the functionality of CodeDomProvider class.">
<polygon fill="white" stroke="black" points="183,-126 183,-145 329,-145 329,-126 183,-126"/>
<text text-anchor="middle" x="256" y="-133" font-family="Helvetica,sans-Serif" font-size="10.00">ExpressionEvaluatorCompiled</text>
</a>
</g>
</g>
<!-- Node2&#45;&gt;Node1 -->
<g id="edge1" class="edge"><title>Node2&#45;&gt;Node1</title>
<path fill="none" stroke="midnightblue" d="M339.51,-135.5C348.318,-135.5 357.22,-135.5 365.873,-135.5"/>
<polygon fill="midnightblue" stroke="midnightblue" points="339.234,-132 329.234,-135.5 339.234,-139 339.234,-132"/>
</g>
<!-- Node3 -->
<g id="node3" class="node"><title>Node3</title>
<g id="a_node3"><a xlink:href="../../d3/db6/interfaceIG_1_1Lib_1_1ILockable.html" target="_top" xlink:title="Lockable object, has a Lock property that returns object on which lock must be performed in order to ...">
<polygon fill="white" stroke="black" points="3.5,-151 3.5,-170 61.5,-170 61.5,-151 3.5,-151"/>
<text text-anchor="middle" x="32.5" y="-158" font-family="Helvetica,sans-Serif" font-size="10.00">ILockable</text>
</a>
</g>
</g>
<!-- Node3&#45;&gt;Node1 -->
<g id="edge5" class="edge"><title>Node3&#45;&gt;Node1</title>
<path fill="none" stroke="midnightblue" d="M71.9647,-161.734C128.472,-163.09 237.172,-163.965 329,-154.5 349.549,-152.382 372.088,-148.623 391.197,-145.005"/>
<polygon fill="midnightblue" stroke="midnightblue" points="71.7953,-158.228 61.708,-161.468 71.614,-165.226 71.7953,-158.228"/>
</g>
<!-- Node3&#45;&gt;Node2 -->
<g id="edge2" class="edge"><title>Node3&#45;&gt;Node2</title>
<path fill="none" stroke="midnightblue" d="M71.7367,-156.184C102.153,-152.751 145.589,-147.849 182.54,-143.678"/>
<polygon fill="midnightblue" stroke="midnightblue" points="71.0975,-152.734 61.5531,-157.334 71.8826,-159.69 71.0975,-152.734"/>
</g>
<!-- Node4 -->
<g id="node4" class="node"><title>Node4</title>
<g id="a_node4"><a xlink:href="../../dc/d79/interfaceIG_1_1Lib_1_1IIdentifiable.html" target="_top" xlink:title="Classes whose instances have unique integer IDs.">
<polygon fill="white" stroke="black" points="0,-201 0,-220 65,-220 65,-201 0,-201"/>
<text text-anchor="middle" x="32.5" y="-208" font-family="Helvetica,sans-Serif" font-size="10.00">IIdentifiable</text>
</a>
</g>
</g>
<!-- Node4&#45;&gt;Node1 -->
<g id="edge6" class="edge"><title>Node4&#45;&gt;Node1</title>
<path fill="none" stroke="midnightblue" d="M75.4861,-207.467C133.145,-202.766 239.838,-192.147 329,-172.5 337.648,-170.594 339.598,-169.297 348,-166.5 368.852,-159.557 392.323,-151.316 409.852,-145.077"/>
<polygon fill="midnightblue" stroke="midnightblue" points="74.9968,-203.995 65.3058,-208.277 75.5518,-210.973 74.9968,-203.995"/>
</g>
<!-- Node4&#45;&gt;Node2 -->
<g id="edge3" class="edge"><title>Node4&#45;&gt;Node2</title>
<path fill="none" stroke="midnightblue" d="M71.4992,-197.633C115.545,-182.719 187.124,-158.483 226.606,-145.114"/>
<polygon fill="midnightblue" stroke="midnightblue" points="70.353,-194.326 62.0038,-200.849 72.5981,-200.957 70.353,-194.326"/>
</g>
<!-- Node5 -->
<g id="node5" class="node"><title>Node5</title>
<g id="a_node5"><a xlink:title=" ">
<polygon fill="white" stroke="#bfbfbf" points="12,-75 12,-94 53,-94 53,-75 12,-75"/>
<text text-anchor="middle" x="32.5" y="-82" font-family="Helvetica,sans-Serif" font-size="10.00">static</text>
</a>
</g>
</g>
<!-- Node5&#45;&gt;Node1 -->
<g id="edge8" class="edge"><title>Node5&#45;&gt;Node1</title>
<path fill="none" stroke="#9a32cd" stroke-dasharray="5,2" d="M63.4218,-79.9838C117.339,-72.8144 234.03,-61.7368 329,-83.5 364.566,-91.6504 402.04,-113.172 421.987,-125.827"/>
<polygon fill="#9a32cd" stroke="#9a32cd" points="62.6257,-76.5605 53.1996,-81.3979 63.585,-83.4945 62.6257,-76.5605"/>
<text text-anchor="middle" x="256" y="-108.5" font-family="Helvetica,sans-Serif" font-size="10.00"> _globalLock</text>
<text text-anchor="middle" x="256" y="-97.5" font-family="Helvetica,sans-Serif" font-size="10.00">_evaluatorGlobal</text>
<text text-anchor="middle" x="256" y="-86.5" font-family="Helvetica,sans-Serif" font-size="10.00">_register</text>
</g>
<!-- Node5&#45;&gt;Node2 -->
<g id="edge4" class="edge"><title>Node5&#45;&gt;Node2</title>
<path fill="none" stroke="#9a32cd" stroke-dasharray="5,2" d="M63.1188,-89.3172C89.8812,-93.8625 130.281,-101.204 165,-109.5 184.931,-114.263 207.045,-120.636 224.365,-125.88"/>
<polygon fill="#9a32cd" stroke="#9a32cd" points="63.6683,-85.8606 53.2272,-87.6592 62.511,-92.7643 63.6683,-85.8606"/>
<text text-anchor="middle" x="124" y="-134.5" font-family="Helvetica,sans-Serif" font-size="10.00"> _lastId</text>
<text text-anchor="middle" x="124" y="-123.5" font-family="Helvetica,sans-Serif" font-size="10.00">DefaultOutputLevel</text>
<text text-anchor="middle" x="124" y="-112.5" font-family="Helvetica,sans-Serif" font-size="10.00">_idLock</text>
</g>
<!-- Node6 -->
<g id="node6" class="node"><title>Node6</title>
<g id="a_node6"><a xlink:href="../../d5/d7a/interfaceIG_1_1Lib_1_1IRegisterable.html" target="_top" xlink:title=" ">
<polygon fill="white" stroke="black" points="190.5,-0.5 190.5,-30.5 321.5,-30.5 321.5,-0.5 190.5,-0.5"/>
<text text-anchor="start" x="198.5" y="-18.5" font-family="Helvetica,sans-Serif" font-size="10.00">IRegisterable&lt; Expression</text>
<text text-anchor="middle" x="256" y="-7.5" font-family="Helvetica,sans-Serif" font-size="10.00">EvaluatorJs &gt;</text>
</a>
</g>
</g>
<!-- Node6&#45;&gt;Node1 -->
<g id="edge7" class="edge"><title>Node6&#45;&gt;Node1</title>
<path fill="none" stroke="midnightblue" d="M302.603,-34.471C311.366,-38.1251 320.47,-41.9269 329,-45.5 337.451,-49.0398 340.301,-48.5332 348,-53.5 381.267,-74.9598 413.651,-109.428 428.323,-126"/>
<polygon fill="midnightblue" stroke="midnightblue" points="303.847,-31.1977 293.27,-30.5815 301.154,-37.6591 303.847,-31.1977"/>
</g>
</g>
</svg>
