<?xml version="1.0" encoding="UTF-8" standalone="no"?>
<!DOCTYPE svg PUBLIC "-//W3C//DTD SVG 1.1//EN"
 "http://www.w3.org/Graphics/SVG/1.1/DTD/svg11.dtd">
<!-- Generated by graphviz version 2.38.0 (20140413.2041)
 -->
<!-- Title: IG.Lib.WaitDirectoryRemovalLatence Pages: 1 -->
<svg width="483pt" height="367pt"
 viewBox="0.00 0.00 483.00 367.00" xmlns="http://www.w3.org/2000/svg" xmlns:xlink="http://www.w3.org/1999/xlink">
<g id="graph0" class="graph" transform="scale(1 1) rotate(0) translate(4 363)">
<title>IG.Lib.WaitDirectoryRemovalLatence</title>
<polygon fill="white" stroke="none" points="-4,4 -4,-363 479,-363 479,4 -4,4"/>
<!-- Node1 -->
<g id="node1" class="node"><title>Node1</title>
<g id="a_node1"><a xlink:title="Implements blocking until the specified directory is deleted (becomes nonexistent)....">
<polygon fill="#bfbfbf" stroke="black" points="0,-0.5 0,-30.5 141,-30.5 141,-0.5 0,-0.5"/>
<text text-anchor="start" x="8" y="-18.5" font-family="Helvetica,sans-Serif" font-size="10.00">IG.Lib.WaitDirectoryRemoval</text>
<text text-anchor="middle" x="70.5" y="-7.5" font-family="Helvetica,sans-Serif" font-size="10.00">Latence</text>
</a>
</g>
</g>
<!-- Node2 -->
<g id="node2" class="node"><title>Node2</title>
<g id="a_node2"><a xlink:href="../../d4/d27/classIG_1_1Lib_1_1WaitFileEventLatenceBase.html" target="_top" xlink:title="Base class for classes that impelement methods that block until a file or directory is created or del...">
<polygon fill="white" stroke="black" points="3.5,-68.5 3.5,-87.5 137.5,-87.5 137.5,-68.5 3.5,-68.5"/>
<text text-anchor="middle" x="70.5" y="-75.5" font-family="Helvetica,sans-Serif" font-size="10.00">WaitFileEventLatenceBase</text>
</a>
</g>
</g>
<!-- Node2&#45;&gt;Node1 -->
<g id="edge1" class="edge"><title>Node2&#45;&gt;Node1</title>
<path fill="none" stroke="midnightblue" d="M70.5,-58.2154C70.5,-49.3565 70.5,-38.9577 70.5,-30.7587"/>
<polygon fill="midnightblue" stroke="midnightblue" points="67.0001,-58.3318 70.5,-68.3318 74.0001,-58.3319 67.0001,-58.3318"/>
</g>
<!-- Node3 -->
<g id="node3" class="node"><title>Node3</title>
<g id="a_node3"><a xlink:href="../../da/d67/classIG_1_1Lib_1_1WaitCondition.html" target="_top" xlink:title="Provides a framework for blocking execution until the specified condition becomes satisfied....">
<polygon fill="white" stroke="black" points="178,-125.5 178,-144.5 255,-144.5 255,-125.5 178,-125.5"/>
<text text-anchor="middle" x="216.5" y="-132.5" font-family="Helvetica,sans-Serif" font-size="10.00">WaitCondition</text>
</a>
</g>
</g>
<!-- Node3&#45;&gt;Node2 -->
<g id="edge2" class="edge"><title>Node3&#45;&gt;Node2</title>
<path fill="none" stroke="midnightblue" d="M184.078,-121.786C156.471,-111.386 117.517,-96.7119 93.1523,-87.5334"/>
<polygon fill="midnightblue" stroke="midnightblue" points="183.096,-125.156 193.688,-125.406 185.563,-118.606 183.096,-125.156"/>
</g>
<!-- Node4 -->
<g id="node4" class="node"><title>Node4</title>
<g id="a_node4"><a xlink:href="../../df/dea/classIG_1_1Lib_1_1WaitConditionBase.html" target="_top" xlink:title="Base class for objects that perform waiting until a condition is fulfilled.">
<polygon fill="white" stroke="black" points="166.5,-182.5 166.5,-201.5 266.5,-201.5 266.5,-182.5 166.5,-182.5"/>
<text text-anchor="middle" x="216.5" y="-189.5" font-family="Helvetica,sans-Serif" font-size="10.00">WaitConditionBase</text>
</a>
</g>
</g>
<!-- Node4&#45;&gt;Node3 -->
<g id="edge3" class="edge"><title>Node4&#45;&gt;Node3</title>
<path fill="none" stroke="midnightblue" d="M216.5,-172.117C216.5,-162.817 216.5,-152.056 216.5,-144.715"/>
<polygon fill="midnightblue" stroke="midnightblue" points="213,-172.406 216.5,-182.406 220,-172.406 213,-172.406"/>
</g>
<!-- Node5 -->
<g id="node5" class="node"><title>Node5</title>
<g id="a_node5"><a xlink:href="../../de/d1e/interfaceIG_1_1Lib_1_1IWaitCondition.html" target="_top" xlink:title="Interface for classes that implement blocking until a specified condition is met.">
<polygon fill="white" stroke="black" points="93.5,-239.5 93.5,-258.5 173.5,-258.5 173.5,-239.5 93.5,-239.5"/>
<text text-anchor="middle" x="133.5" y="-246.5" font-family="Helvetica,sans-Serif" font-size="10.00">IWaitCondition</text>
</a>
</g>
</g>
<!-- Node5&#45;&gt;Node2 -->
<g id="edge16" class="edge"><title>Node5&#45;&gt;Node2</title>
<path fill="none" stroke="midnightblue" d="M83.2628,-240.346C60.3841,-234.077 35.3662,-222.685 21.5,-202 -4.48207,-163.241 41.553,-108.609 61.728,-87.6492"/>
<polygon fill="midnightblue" stroke="midnightblue" points="82.6888,-243.809 93.2361,-242.806 84.3655,-237.013 82.6888,-243.809"/>
</g>
<!-- Node5&#45;&gt;Node3 -->
<g id="edge7" class="edge"><title>Node5&#45;&gt;Node3</title>
<path fill="none" stroke="midnightblue" d="M137.362,-229.195C140.906,-215.204 147.203,-196.162 157.5,-182 169.186,-165.927 187.978,-152.636 201.208,-144.542"/>
<polygon fill="midnightblue" stroke="midnightblue" points="133.904,-228.614 135.086,-239.143 140.728,-230.176 133.904,-228.614"/>
</g>
<!-- Node5&#45;&gt;Node4 -->
<g id="edge4" class="edge"><title>Node5&#45;&gt;Node4</title>
<path fill="none" stroke="midnightblue" d="M154.892,-233.824C170.314,-223.605 190.622,-210.148 203.622,-201.533"/>
<polygon fill="midnightblue" stroke="midnightblue" points="152.871,-230.965 146.469,-239.406 156.738,-236.8 152.871,-230.965"/>
</g>
<!-- Node10 -->
<g id="node10" class="node"><title>Node10</title>
<g id="a_node10"><a xlink:href="../../d2/d48/interfaceIG_1_1Lib_1_1IWaitFileEvent.html" target="_top" xlink:title="Interface for classes that provide waiting for specific file events (such as ceration or deletion of ...">
<polygon fill="white" stroke="black" points="31,-182.5 31,-201.5 110,-201.5 110,-182.5 31,-182.5"/>
<text text-anchor="middle" x="70.5" y="-189.5" font-family="Helvetica,sans-Serif" font-size="10.00">IWaitFileEvent</text>
</a>
</g>
</g>
<!-- Node5&#45;&gt;Node10 -->
<g id="edge14" class="edge"><title>Node5&#45;&gt;Node10</title>
<path fill="none" stroke="midnightblue" d="M115.984,-232.708C104.537,-222.715 89.9999,-210.024 80.4825,-201.715"/>
<polygon fill="midnightblue" stroke="midnightblue" points="113.821,-235.466 123.656,-239.406 118.425,-230.193 113.821,-235.466"/>
</g>
<!-- Node6 -->
<g id="node6" class="node"><title>Node6</title>
<g id="a_node6"><a xlink:href="../../d3/db6/interfaceIG_1_1Lib_1_1ILockable.html" target="_top" xlink:title="Lockable object, has a Lock property that returns object on which lock must be performed in order to ...">
<polygon fill="white" stroke="black" points="210.5,-339.5 210.5,-358.5 268.5,-358.5 268.5,-339.5 210.5,-339.5"/>
<text text-anchor="middle" x="239.5" y="-346.5" font-family="Helvetica,sans-Serif" font-size="10.00">ILockable</text>
</a>
</g>
</g>
<!-- Node6&#45;&gt;Node3 -->
<g id="edge8" class="edge"><title>Node6&#45;&gt;Node3</title>
<path fill="none" stroke="midnightblue" d="M250.492,-330.377C268.517,-299.042 300.022,-232.212 275.5,-182 267.122,-164.844 248.911,-152.223 234.923,-144.586"/>
<polygon fill="midnightblue" stroke="midnightblue" points="247.323,-328.857 245.202,-339.237 253.333,-332.445 247.323,-328.857"/>
</g>
<!-- Node6&#45;&gt;Node4 -->
<g id="edge6" class="edge"><title>Node6&#45;&gt;Node4</title>
<path fill="none" stroke="midnightblue" d="M236.725,-329.3C231.73,-295.636 221.408,-226.074 217.788,-201.681"/>
<polygon fill="midnightblue" stroke="midnightblue" points="233.268,-329.844 238.198,-339.222 240.192,-328.817 233.268,-329.844"/>
</g>
<!-- Node6&#45;&gt;Node5 -->
<g id="edge5" class="edge"><title>Node6&#45;&gt;Node5</title>
<path fill="none" stroke="midnightblue" d="M208.813,-334.918C201.428,-331.022 193.847,-326.343 187.5,-321 165.464,-302.449 146.943,-273.375 138.462,-258.861"/>
<polygon fill="midnightblue" stroke="midnightblue" points="207.437,-338.142 217.954,-339.425 210.532,-331.864 207.437,-338.142"/>
</g>
<!-- Node7 -->
<g id="node7" class="node"><title>Node7</title>
<g id="a_node7"><a xlink:href="../../de/de7/classIG_1_1Lib_1_1StopWatch1.html" target="_top" xlink:title="Timer for measuring execution times and other intervals of time elapsed between successive events....">
<polygon fill="white" stroke="black" points="323,-239.5 323,-258.5 422,-258.5 422,-239.5 323,-239.5"/>
<text text-anchor="middle" x="372.5" y="-246.5" font-family="Helvetica,sans-Serif" font-size="10.00">IG.Lib.StopWatch1</text>
</a>
</g>
</g>
<!-- Node6&#45;&gt;Node7 -->
<g id="edge10" class="edge"><title>Node6&#45;&gt;Node7</title>
<path fill="none" stroke="midnightblue" d="M278.194,-336.474C288.531,-332.451 299.36,-327.322 308.5,-321 334.159,-303.253 356.647,-273.281 366.783,-258.611"/>
<polygon fill="midnightblue" stroke="midnightblue" points="276.709,-333.289 268.505,-339.994 279.099,-339.869 276.709,-333.289"/>
</g>
<!-- Node6&#45;&gt;Node10 -->
<g id="edge15" class="edge"><title>Node6&#45;&gt;Node10</title>
<path fill="none" stroke="midnightblue" d="M230.299,-330.314C214.294,-299.558 182.97,-239.428 182.5,-239 161.764,-220.092 132.197,-208.394 108.649,-201.53"/>
<polygon fill="midnightblue" stroke="midnightblue" points="227.353,-332.234 235.074,-339.489 233.563,-329.003 227.353,-332.234"/>
</g>
<!-- Node7&#45;&gt;Node3 -->
<g id="edge9" class="edge"><title>Node7&#45;&gt;Node3</title>
<path fill="none" stroke="#9a32cd" stroke-dasharray="5,2" d="M363.691,-230.36C353.151,-211.031 333.722,-180.457 308.5,-163 292.76,-152.105 272.596,-145.55 255.159,-141.635"/>
<polygon fill="#9a32cd" stroke="#9a32cd" points="360.638,-232.076 368.375,-239.313 366.841,-228.83 360.638,-232.076"/>
<text text-anchor="middle" x="361" y="-189.5" font-family="Helvetica,sans-Serif" font-size="10.00"> _timer</text>
</g>
<!-- Node8 -->
<g id="node8" class="node"><title>Node8</title>
<g id="a_node8"><a xlink:href="../../dc/d79/interfaceIG_1_1Lib_1_1IIdentifiable.html" target="_top" xlink:title="Classes whose instances have unique integer IDs.">
<polygon fill="white" stroke="black" points="410,-339.5 410,-358.5 475,-358.5 475,-339.5 410,-339.5"/>
<text text-anchor="middle" x="442.5" y="-346.5" font-family="Helvetica,sans-Serif" font-size="10.00">IIdentifiable</text>
</a>
</g>
</g>
<!-- Node8&#45;&gt;Node7 -->
<g id="edge11" class="edge"><title>Node8&#45;&gt;Node7</title>
<path fill="none" stroke="midnightblue" d="M443.201,-328.676C442.783,-313.206 439.89,-291.733 428.5,-277 422.031,-268.632 412.308,-262.714 402.771,-258.596"/>
<polygon fill="midnightblue" stroke="midnightblue" points="439.699,-329.103 443.138,-339.124 446.699,-329.146 439.699,-329.103"/>
</g>
<!-- Node9 -->
<g id="node9" class="node"><title>Node9</title>
<g id="a_node9"><a xlink:title=" ">
<polygon fill="white" stroke="#bfbfbf" points="347,-339.5 347,-358.5 388,-358.5 388,-339.5 347,-339.5"/>
<text text-anchor="middle" x="367.5" y="-346.5" font-family="Helvetica,sans-Serif" font-size="10.00">static</text>
</a>
</g>
</g>
<!-- Node9&#45;&gt;Node7 -->
<g id="edge12" class="edge"><title>Node9&#45;&gt;Node7</title>
<path fill="none" stroke="#9a32cd" stroke-dasharray="5,2" d="M367.085,-329.165C366.934,-314.837 367.075,-294.646 368.5,-277 368.988,-270.954 369.988,-264.204 370.866,-258.966"/>
<polygon fill="#9a32cd" stroke="#9a32cd" points="363.587,-329.297 367.25,-339.238 370.586,-329.182 363.587,-329.297"/>
<text text-anchor="middle" x="398.5" y="-313" font-family="Helvetica,sans-Serif" font-size="10.00"> lastId</text>
<text text-anchor="middle" x="398.5" y="-302" font-family="Helvetica,sans-Serif" font-size="10.00">_staticLock</text>
<text text-anchor="middle" x="398.5" y="-291" font-family="Helvetica,sans-Serif" font-size="10.00">numWarnCpu</text>
<text text-anchor="middle" x="398.5" y="-280" font-family="Helvetica,sans-Serif" font-size="10.00">MaxWarnCpu</text>
</g>
<!-- Node10&#45;&gt;Node2 -->
<g id="edge13" class="edge"><title>Node10&#45;&gt;Node2</title>
<path fill="none" stroke="midnightblue" d="M70.5,-172.009C70.5,-147.477 70.5,-105.786 70.5,-87.7476"/>
<polygon fill="midnightblue" stroke="midnightblue" points="67.0001,-172.212 70.5,-182.212 74.0001,-172.212 67.0001,-172.212"/>
</g>
</g>
</svg>
