<?xml version="1.0" encoding="UTF-8" standalone="no"?>
<!DOCTYPE svg PUBLIC "-//W3C//DTD SVG 1.1//EN"
 "http://www.w3.org/Graphics/SVG/1.1/DTD/svg11.dtd">
<!-- Generated by graphviz version 2.38.0 (20140413.2041)
 -->
<!-- Title: IG.Lib.InterfaceInverse Pages: 1 -->
<svg width="168pt" height="140pt"
 viewBox="0.00 0.00 167.50 140.00" xmlns="http://www.w3.org/2000/svg" xmlns:xlink="http://www.w3.org/1999/xlink">
<g id="graph0" class="graph" transform="scale(1 1) rotate(0) translate(4 136)">
<title>IG.Lib.InterfaceInverse</title>
<polygon fill="white" stroke="none" points="-4,4 -4,-136 163.5,-136 163.5,4 -4,4"/>
<!-- Node1 -->
<g id="node1" class="node"><title>Node1</title>
<g id="a_node1"><a xlink:title="Interface for Inverse Interpreter.">
<polygon fill="#bfbfbf" stroke="black" points="0,-0.5 0,-19.5 112,-19.5 112,-0.5 0,-0.5"/>
<text text-anchor="middle" x="56" y="-7.5" font-family="Helvetica,sans-Serif" font-size="10.00">IG.Lib.InterfaceInverse</text>
</a>
</g>
</g>
<!-- Node2 -->
<g id="node2" class="node"><title>Node2</title>
<g id="a_node2"><a xlink:href="../../d1/dec/classIG_1_1Lib_1_1InterfaceInterpreterBase.html" target="_top" xlink:title="Base class for interfaces with interpreters.">
<polygon fill="white" stroke="black" points="40.5,-56.5 40.5,-75.5 159.5,-75.5 159.5,-56.5 40.5,-56.5"/>
<text text-anchor="middle" x="100" y="-63.5" font-family="Helvetica,sans-Serif" font-size="10.00">InterfaceInterpreterBase</text>
</a>
</g>
</g>
<!-- Node2&#45;&gt;Node1 -->
<g id="edge1" class="edge"><title>Node2&#45;&gt;Node1</title>
<path fill="none" stroke="midnightblue" d="M86.2655,-48.144C78.5995,-38.7357 69.3667,-27.4046 63.1305,-19.7511"/>
<polygon fill="midnightblue" stroke="midnightblue" points="83.7042,-50.5415 92.7343,-56.083 89.1309,-46.1198 83.7042,-50.5415"/>
</g>
<!-- Node3 -->
<g id="node3" class="node"><title>Node3</title>
<g id="a_node3"><a xlink:href="../../d3/db6/interfaceIG_1_1Lib_1_1ILockable.html" target="_top" xlink:title="Lockable object, has a Lock property that returns object on which lock must be performed in order to ...">
<polygon fill="white" stroke="black" points="27,-112.5 27,-131.5 85,-131.5 85,-112.5 27,-112.5"/>
<text text-anchor="middle" x="56" y="-119.5" font-family="Helvetica,sans-Serif" font-size="10.00">ILockable</text>
</a>
</g>
</g>
<!-- Node3&#45;&gt;Node1 -->
<g id="edge3" class="edge"><title>Node3&#45;&gt;Node1</title>
<path fill="none" stroke="midnightblue" d="M44.2432,-103.769C39.4366,-95.7104 34.4387,-85.7548 32,-76 26.8068,-55.227 40.4384,-31.9166 49.2273,-19.6403"/>
<polygon fill="midnightblue" stroke="midnightblue" points="41.3091,-105.678 49.6332,-112.232 47.2134,-101.917 41.3091,-105.678"/>
</g>
<!-- Node3&#45;&gt;Node2 -->
<g id="edge2" class="edge"><title>Node3&#45;&gt;Node2</title>
<path fill="none" stroke="midnightblue" d="M69.7345,-104.144C77.4005,-94.7357 86.6333,-83.4046 92.8695,-75.7511"/>
<polygon fill="midnightblue" stroke="midnightblue" points="66.8691,-102.12 63.2657,-112.083 72.2958,-106.541 66.8691,-102.12"/>
</g>
</g>
</svg>
