<?xml version="1.0" encoding="UTF-8" standalone="no"?>
<!DOCTYPE svg PUBLIC "-//W3C//DTD SVG 1.1//EN"
 "http://www.w3.org/Graphics/SVG/1.1/DTD/svg11.dtd">
<!-- Generated by graphviz version 2.38.0 (20140413.2041)
 -->
<!-- Title: IG.Num.UnstructuredMesh1d2d Pages: 1 -->
<svg width="318pt" height="83pt"
 viewBox="0.00 0.00 318.00 83.00" xmlns="http://www.w3.org/2000/svg" xmlns:xlink="http://www.w3.org/1999/xlink">
<g id="graph0" class="graph" transform="scale(1 1) rotate(0) translate(4 79)">
<title>IG.Num.UnstructuredMesh1d2d</title>
<polygon fill="white" stroke="none" points="-4,4 -4,-79 314,-79 314,4 -4,4"/>
<!-- Node1 -->
<g id="node1" class="node"><title>Node1</title>
<g id="a_node1"><a xlink:title="Unstructured mesh in 1D embedded in 2D space.">
<polygon fill="#bfbfbf" stroke="black" points="157,-28 157,-47 310,-47 310,-28 157,-28"/>
<text text-anchor="middle" x="233.5" y="-35" font-family="Helvetica,sans-Serif" font-size="10.00">IG.Num.UnstructuredMesh1d2d</text>
</a>
</g>
</g>
<!-- Node2 -->
<g id="node2" class="node"><title>Node2</title>
<g id="a_node2"><a xlink:href="../../d5/d27/classIG_1_1Num_1_1UnstructuredMesh1d.html" target="_top" xlink:title=" ">
<polygon fill="white" stroke="black" points="0,-0.5 0,-74.5 121,-74.5 121,-0.5 0,-0.5"/>
<text text-anchor="start" x="8" y="-62.5" font-family="Helvetica,sans-Serif" font-size="10.00">UnstructuredMesh1d</text>
<text text-anchor="start" x="8" y="-51.5" font-family="Helvetica,sans-Serif" font-size="10.00">&lt; vec2, Field&lt; int &gt;</text>
<text text-anchor="start" x="8" y="-40.5" font-family="Helvetica,sans-Serif" font-size="10.00">, int, Field&lt; double</text>
<text text-anchor="start" x="8" y="-29.5" font-family="Helvetica,sans-Serif" font-size="10.00"> &gt;, double, Field&lt; vec2</text>
<text text-anchor="start" x="8" y="-18.5" font-family="Helvetica,sans-Serif" font-size="10.00"> &gt;, vec2, Field&lt; mat3 &gt;,</text>
<text text-anchor="middle" x="60.5" y="-7.5" font-family="Helvetica,sans-Serif" font-size="10.00"> mat3 &gt;</text>
</a>
</g>
</g>
<!-- Node2&#45;&gt;Node1 -->
<g id="edge1" class="edge"><title>Node2&#45;&gt;Node1</title>
<path fill="none" stroke="midnightblue" d="M131.394,-37.5C139.766,-37.5 148.344,-37.5 156.793,-37.5"/>
<polygon fill="midnightblue" stroke="midnightblue" points="131.308,-34.0001 121.308,-37.5 131.307,-41.0001 131.308,-34.0001"/>
</g>
</g>
</svg>
