<?xml version="1.0" encoding="UTF-8" standalone="no"?>
<!DOCTYPE svg PUBLIC "-//W3C//DTD SVG 1.1//EN"
 "http://www.w3.org/Graphics/SVG/1.1/DTD/svg11.dtd">
<!-- Generated by graphviz version 2.38.0 (20140413.2041)
 -->
<!-- Title: IG.Lib.ISerializer Pages: 1 -->
<svg width="167pt" height="196pt"
 viewBox="0.00 0.00 167.00 196.00" xmlns="http://www.w3.org/2000/svg" xmlns:xlink="http://www.w3.org/1999/xlink">
<g id="graph0" class="graph" transform="scale(1 1) rotate(0) translate(4 192)">
<title>IG.Lib.ISerializer</title>
<polygon fill="white" stroke="none" points="-4,4 -4,-192 163,-192 163,4 -4,4"/>
<!-- Node1 -->
<g id="node1" class="node"><title>Node1</title>
<g id="a_node1"><a xlink:title="Interface for helper classes that perform serialization/deserialization of objects.">
<polygon fill="#bfbfbf" stroke="black" points="51,-168.5 51,-187.5 139,-187.5 139,-168.5 51,-168.5"/>
<text text-anchor="middle" x="95" y="-175.5" font-family="Helvetica,sans-Serif" font-size="10.00">IG.Lib.ISerializer</text>
</a>
</g>
</g>
<!-- Node2 -->
<g id="node2" class="node"><title>Node2</title>
<g id="a_node2"><a xlink:href="../../d0/d1b/classIG_1_1Lib_1_1SerializerBase.html" target="_top" xlink:title="Base class for serialization helper classes.">
<polygon fill="white" stroke="black" points="0,-112.5 0,-131.5 108,-131.5 108,-112.5 0,-112.5"/>
<text text-anchor="middle" x="54" y="-119.5" font-family="Helvetica,sans-Serif" font-size="10.00">IG.Lib.SerializerBase</text>
</a>
</g>
</g>
<!-- Node1&#45;&gt;Node2 -->
<g id="edge1" class="edge"><title>Node1&#45;&gt;Node2</title>
<path fill="none" stroke="midnightblue" d="M81.9828,-159.855C74.8833,-150.505 66.396,-139.327 60.6443,-131.751"/>
<polygon fill="midnightblue" stroke="midnightblue" points="79.395,-162.235 88.2297,-168.083 84.9701,-158.002 79.395,-162.235"/>
</g>
<!-- Node3 -->
<g id="node3" class="node"><title>Node3</title>
<g id="a_node3"><a xlink:href="../../d0/d1a/classIG_1_1Lib_1_1SerializerJsonBase.html" target="_top" xlink:title="Helper class for JSON serialization and deserialization. This class does not enable formatting of the...">
<polygon fill="white" stroke="black" points="31,-56.5 31,-75.5 159,-75.5 159,-56.5 31,-56.5"/>
<text text-anchor="middle" x="95" y="-63.5" font-family="Helvetica,sans-Serif" font-size="10.00">IG.Lib.SerializerJsonBase</text>
</a>
</g>
</g>
<!-- Node1&#45;&gt;Node3 -->
<g id="edge4" class="edge"><title>Node1&#45;&gt;Node3</title>
<path fill="none" stroke="midnightblue" d="M106.495,-159.573C113.643,-146.638 120.809,-128.464 117,-112 113.864,-98.4442 106.054,-84.255 100.638,-75.5194"/>
<polygon fill="midnightblue" stroke="midnightblue" points="103.382,-157.958 101.214,-168.328 109.376,-161.573 103.382,-157.958"/>
</g>
<!-- Node2&#45;&gt;Node3 -->
<g id="edge2" class="edge"><title>Node2&#45;&gt;Node3</title>
<path fill="none" stroke="midnightblue" d="M67.0172,-103.855C74.1167,-94.5048 82.604,-83.3265 88.3557,-75.7511"/>
<polygon fill="midnightblue" stroke="midnightblue" points="64.0299,-102.002 60.7703,-112.083 69.605,-106.235 64.0299,-102.002"/>
</g>
<!-- Node4 -->
<g id="node4" class="node"><title>Node4</title>
<g id="a_node4"><a xlink:href="../../d4/d1f/classIG_1_1Lib_1_1SerializerJson.html" target="_top" xlink:title="Helper class for JSON serialization and deserialization. This class enables formatting of the generat...">
<polygon fill="white" stroke="black" points="42,-0.5 42,-19.5 148,-19.5 148,-0.5 42,-0.5"/>
<text text-anchor="middle" x="95" y="-7.5" font-family="Helvetica,sans-Serif" font-size="10.00">IG.Lib.SerializerJson</text>
</a>
</g>
</g>
<!-- Node3&#45;&gt;Node4 -->
<g id="edge3" class="edge"><title>Node3&#45;&gt;Node4</title>
<path fill="none" stroke="midnightblue" d="M95,-45.8045C95,-36.9102 95,-26.7798 95,-19.7511"/>
<polygon fill="midnightblue" stroke="midnightblue" points="91.5001,-46.083 95,-56.083 98.5001,-46.083 91.5001,-46.083"/>
</g>
</g>
</svg>
