<?xml version="1.0" encoding="UTF-8" standalone="no"?>
<!DOCTYPE svg PUBLIC "-//W3C//DTD SVG 1.1//EN"
 "http://www.w3.org/Graphics/SVG/1.1/DTD/svg11.dtd">
<!-- Generated by graphviz version 2.38.0 (20140413.2041)
 -->
<!-- Title: IG.Lib.WaitFileEventLatenceBase Pages: 1 -->
<svg width="494pt" height="299pt"
 viewBox="0.00 0.00 493.50 299.00" xmlns="http://www.w3.org/2000/svg" xmlns:xlink="http://www.w3.org/1999/xlink">
<g id="graph0" class="graph" transform="scale(1 1) rotate(0) translate(4 295)">
<title>IG.Lib.WaitFileEventLatenceBase</title>
<polygon fill="white" stroke="none" points="-4,4 -4,-295 489.5,-295 489.5,4 -4,4"/>
<!-- Node1 -->
<g id="node1" class="node"><title>Node1</title>
<g id="a_node1"><a xlink:title="Base class for classes that impelement methods that block until a file or directory is created or del...">
<polygon fill="#bfbfbf" stroke="black" points="0,-0.5 0,-19.5 162,-19.5 162,-0.5 0,-0.5"/>
<text text-anchor="middle" x="81" y="-7.5" font-family="Helvetica,sans-Serif" font-size="10.00">IG.Lib.WaitFileEventLatenceBase</text>
</a>
</g>
</g>
<!-- Node2 -->
<g id="node2" class="node"><title>Node2</title>
<g id="a_node2"><a xlink:href="../../da/d67/classIG_1_1Lib_1_1WaitCondition.html" target="_top" xlink:title="Provides a framework for blocking execution until the specified condition becomes satisfied....">
<polygon fill="white" stroke="black" points="188.5,-57.5 188.5,-76.5 265.5,-76.5 265.5,-57.5 188.5,-57.5"/>
<text text-anchor="middle" x="227" y="-64.5" font-family="Helvetica,sans-Serif" font-size="10.00">WaitCondition</text>
</a>
</g>
</g>
<!-- Node2&#45;&gt;Node1 -->
<g id="edge1" class="edge"><title>Node2&#45;&gt;Node1</title>
<path fill="none" stroke="midnightblue" d="M194.578,-53.7862C166.971,-43.3864 128.017,-28.7119 103.652,-19.5334"/>
<polygon fill="midnightblue" stroke="midnightblue" points="193.596,-57.1562 204.188,-57.4063 196.063,-50.6056 193.596,-57.1562"/>
</g>
<!-- Node3 -->
<g id="node3" class="node"><title>Node3</title>
<g id="a_node3"><a xlink:href="../../df/dea/classIG_1_1Lib_1_1WaitConditionBase.html" target="_top" xlink:title="Base class for objects that perform waiting until a condition is fulfilled.">
<polygon fill="white" stroke="black" points="177,-114.5 177,-133.5 277,-133.5 277,-114.5 177,-114.5"/>
<text text-anchor="middle" x="227" y="-121.5" font-family="Helvetica,sans-Serif" font-size="10.00">WaitConditionBase</text>
</a>
</g>
</g>
<!-- Node3&#45;&gt;Node2 -->
<g id="edge2" class="edge"><title>Node3&#45;&gt;Node2</title>
<path fill="none" stroke="midnightblue" d="M227,-104.117C227,-94.8173 227,-84.0557 227,-76.7149"/>
<polygon fill="midnightblue" stroke="midnightblue" points="223.5,-104.406 227,-114.406 230.5,-104.406 223.5,-104.406"/>
</g>
<!-- Node4 -->
<g id="node4" class="node"><title>Node4</title>
<g id="a_node4"><a xlink:href="../../de/d1e/interfaceIG_1_1Lib_1_1IWaitCondition.html" target="_top" xlink:title="Interface for classes that implement blocking until a specified condition is met.">
<polygon fill="white" stroke="black" points="104,-171.5 104,-190.5 184,-190.5 184,-171.5 104,-171.5"/>
<text text-anchor="middle" x="144" y="-178.5" font-family="Helvetica,sans-Serif" font-size="10.00">IWaitCondition</text>
</a>
</g>
</g>
<!-- Node4&#45;&gt;Node1 -->
<g id="edge15" class="edge"><title>Node4&#45;&gt;Node1</title>
<path fill="none" stroke="midnightblue" d="M93.7628,-172.346C70.8841,-166.077 45.8662,-154.685 32,-134 6.01793,-95.2407 52.053,-40.6089 72.228,-19.6492"/>
<polygon fill="midnightblue" stroke="midnightblue" points="93.1888,-175.809 103.736,-174.806 94.8655,-169.013 93.1888,-175.809"/>
</g>
<!-- Node4&#45;&gt;Node2 -->
<g id="edge6" class="edge"><title>Node4&#45;&gt;Node2</title>
<path fill="none" stroke="midnightblue" d="M147.862,-161.195C151.406,-147.204 157.703,-128.162 168,-114 179.686,-97.9272 198.478,-84.6355 211.708,-76.5418"/>
<polygon fill="midnightblue" stroke="midnightblue" points="144.404,-160.614 145.586,-171.143 151.228,-162.176 144.404,-160.614"/>
</g>
<!-- Node4&#45;&gt;Node3 -->
<g id="edge3" class="edge"><title>Node4&#45;&gt;Node3</title>
<path fill="none" stroke="midnightblue" d="M165.392,-165.824C180.814,-155.605 201.122,-142.148 214.122,-133.533"/>
<polygon fill="midnightblue" stroke="midnightblue" points="163.371,-162.965 156.969,-171.406 167.238,-168.8 163.371,-162.965"/>
</g>
<!-- Node9 -->
<g id="node9" class="node"><title>Node9</title>
<g id="a_node9"><a xlink:href="../../d2/d48/interfaceIG_1_1Lib_1_1IWaitFileEvent.html" target="_top" xlink:title="Interface for classes that provide waiting for specific file events (such as ceration or deletion of ...">
<polygon fill="white" stroke="black" points="41.5,-114.5 41.5,-133.5 120.5,-133.5 120.5,-114.5 41.5,-114.5"/>
<text text-anchor="middle" x="81" y="-121.5" font-family="Helvetica,sans-Serif" font-size="10.00">IWaitFileEvent</text>
</a>
</g>
</g>
<!-- Node4&#45;&gt;Node9 -->
<g id="edge13" class="edge"><title>Node4&#45;&gt;Node9</title>
<path fill="none" stroke="midnightblue" d="M126.484,-164.708C115.037,-154.715 100.5,-142.024 90.9825,-133.715"/>
<polygon fill="midnightblue" stroke="midnightblue" points="124.321,-167.466 134.156,-171.406 128.925,-162.193 124.321,-167.466"/>
</g>
<!-- Node5 -->
<g id="node5" class="node"><title>Node5</title>
<g id="a_node5"><a xlink:href="../../d3/db6/interfaceIG_1_1Lib_1_1ILockable.html" target="_top" xlink:title="Lockable object, has a Lock property that returns object on which lock must be performed in order to ...">
<polygon fill="white" stroke="black" points="221,-271.5 221,-290.5 279,-290.5 279,-271.5 221,-271.5"/>
<text text-anchor="middle" x="250" y="-278.5" font-family="Helvetica,sans-Serif" font-size="10.00">ILockable</text>
</a>
</g>
</g>
<!-- Node5&#45;&gt;Node2 -->
<g id="edge7" class="edge"><title>Node5&#45;&gt;Node2</title>
<path fill="none" stroke="midnightblue" d="M260.992,-262.377C279.017,-231.042 310.522,-164.212 286,-114 277.622,-96.8436 259.411,-84.2228 245.423,-76.5857"/>
<polygon fill="midnightblue" stroke="midnightblue" points="257.823,-260.857 255.702,-271.237 263.833,-264.445 257.823,-260.857"/>
</g>
<!-- Node5&#45;&gt;Node3 -->
<g id="edge5" class="edge"><title>Node5&#45;&gt;Node3</title>
<path fill="none" stroke="midnightblue" d="M247.225,-261.3C242.23,-227.636 231.908,-158.074 228.288,-133.681"/>
<polygon fill="midnightblue" stroke="midnightblue" points="243.768,-261.844 248.698,-271.222 250.692,-260.817 243.768,-261.844"/>
</g>
<!-- Node5&#45;&gt;Node4 -->
<g id="edge4" class="edge"><title>Node5&#45;&gt;Node4</title>
<path fill="none" stroke="midnightblue" d="M219.313,-266.918C211.928,-263.022 204.347,-258.343 198,-253 175.964,-234.449 157.443,-205.375 148.962,-190.861"/>
<polygon fill="midnightblue" stroke="midnightblue" points="217.937,-270.142 228.454,-271.425 221.032,-263.864 217.937,-270.142"/>
</g>
<!-- Node6 -->
<g id="node6" class="node"><title>Node6</title>
<g id="a_node6"><a xlink:href="../../de/de7/classIG_1_1Lib_1_1StopWatch1.html" target="_top" xlink:title="Timer for measuring execution times and other intervals of time elapsed between successive events....">
<polygon fill="white" stroke="black" points="333.5,-171.5 333.5,-190.5 432.5,-190.5 432.5,-171.5 333.5,-171.5"/>
<text text-anchor="middle" x="383" y="-178.5" font-family="Helvetica,sans-Serif" font-size="10.00">IG.Lib.StopWatch1</text>
</a>
</g>
</g>
<!-- Node5&#45;&gt;Node6 -->
<g id="edge9" class="edge"><title>Node5&#45;&gt;Node6</title>
<path fill="none" stroke="midnightblue" d="M288.694,-268.474C299.031,-264.451 309.86,-259.322 319,-253 344.659,-235.253 367.147,-205.281 377.283,-190.611"/>
<polygon fill="midnightblue" stroke="midnightblue" points="287.209,-265.289 279.005,-271.994 289.599,-271.869 287.209,-265.289"/>
</g>
<!-- Node5&#45;&gt;Node9 -->
<g id="edge14" class="edge"><title>Node5&#45;&gt;Node9</title>
<path fill="none" stroke="midnightblue" d="M240.799,-262.314C224.794,-231.558 193.47,-171.428 193,-171 172.264,-152.092 142.697,-140.394 119.149,-133.53"/>
<polygon fill="midnightblue" stroke="midnightblue" points="237.853,-264.234 245.574,-271.489 244.063,-261.003 237.853,-264.234"/>
</g>
<!-- Node6&#45;&gt;Node2 -->
<g id="edge8" class="edge"><title>Node6&#45;&gt;Node2</title>
<path fill="none" stroke="#9a32cd" stroke-dasharray="5,2" d="M374.191,-162.36C363.651,-143.031 344.222,-112.457 319,-95 303.26,-84.1054 283.096,-77.5504 265.659,-73.6346"/>
<polygon fill="#9a32cd" stroke="#9a32cd" points="371.138,-164.076 378.875,-171.313 377.341,-160.83 371.138,-164.076"/>
<text text-anchor="middle" x="371.5" y="-121.5" font-family="Helvetica,sans-Serif" font-size="10.00"> _timer</text>
</g>
<!-- Node7 -->
<g id="node7" class="node"><title>Node7</title>
<g id="a_node7"><a xlink:href="../../dc/d79/interfaceIG_1_1Lib_1_1IIdentifiable.html" target="_top" xlink:title="Classes whose instances have unique integer IDs.">
<polygon fill="white" stroke="black" points="420.5,-271.5 420.5,-290.5 485.5,-290.5 485.5,-271.5 420.5,-271.5"/>
<text text-anchor="middle" x="453" y="-278.5" font-family="Helvetica,sans-Serif" font-size="10.00">IIdentifiable</text>
</a>
</g>
</g>
<!-- Node7&#45;&gt;Node6 -->
<g id="edge10" class="edge"><title>Node7&#45;&gt;Node6</title>
<path fill="none" stroke="midnightblue" d="M453.701,-260.676C453.283,-245.206 450.39,-223.733 439,-209 432.531,-200.632 422.808,-194.714 413.271,-190.596"/>
<polygon fill="midnightblue" stroke="midnightblue" points="450.199,-261.103 453.638,-271.124 457.199,-261.146 450.199,-261.103"/>
</g>
<!-- Node8 -->
<g id="node8" class="node"><title>Node8</title>
<g id="a_node8"><a xlink:title=" ">
<polygon fill="white" stroke="#bfbfbf" points="357.5,-271.5 357.5,-290.5 398.5,-290.5 398.5,-271.5 357.5,-271.5"/>
<text text-anchor="middle" x="378" y="-278.5" font-family="Helvetica,sans-Serif" font-size="10.00">static</text>
</a>
</g>
</g>
<!-- Node8&#45;&gt;Node6 -->
<g id="edge11" class="edge"><title>Node8&#45;&gt;Node6</title>
<path fill="none" stroke="#9a32cd" stroke-dasharray="5,2" d="M377.585,-261.165C377.434,-246.837 377.575,-226.646 379,-209 379.488,-202.954 380.488,-196.204 381.366,-190.966"/>
<polygon fill="#9a32cd" stroke="#9a32cd" points="374.087,-261.297 377.75,-271.238 381.086,-261.182 374.087,-261.297"/>
<text text-anchor="middle" x="409" y="-245" font-family="Helvetica,sans-Serif" font-size="10.00"> lastId</text>
<text text-anchor="middle" x="409" y="-234" font-family="Helvetica,sans-Serif" font-size="10.00">_staticLock</text>
<text text-anchor="middle" x="409" y="-223" font-family="Helvetica,sans-Serif" font-size="10.00">numWarnCpu</text>
<text text-anchor="middle" x="409" y="-212" font-family="Helvetica,sans-Serif" font-size="10.00">MaxWarnCpu</text>
</g>
<!-- Node9&#45;&gt;Node1 -->
<g id="edge12" class="edge"><title>Node9&#45;&gt;Node1</title>
<path fill="none" stroke="midnightblue" d="M81,-104.009C81,-79.4766 81,-37.7863 81,-19.7476"/>
<polygon fill="midnightblue" stroke="midnightblue" points="77.5001,-104.212 81,-114.212 84.5001,-104.212 77.5001,-104.212"/>
</g>
</g>
</svg>
