<?xml version="1.0" encoding="UTF-8" standalone="no"?>
<!DOCTYPE svg PUBLIC "-//W3C//DTD SVG 1.1//EN"
 "http://www.w3.org/Graphics/SVG/1.1/DTD/svg11.dtd">
<!-- Generated by graphviz version 2.38.0 (20140413.2041)
 -->
<!-- Title: IG.Num.AffineTransformationDiagonal Pages: 1 -->
<svg width="720pt" height="319pt"
 viewBox="0.00 0.00 719.50 319.00" xmlns="http://www.w3.org/2000/svg" xmlns:xlink="http://www.w3.org/1999/xlink">
<g id="graph0" class="graph" transform="scale(1 1) rotate(0) translate(4 315)">
<title>IG.Num.AffineTransformationDiagonal</title>
<polygon fill="white" stroke="none" points="-4,4 -4,-315 715.5,-315 715.5,4 -4,4"/>
<!-- Node1 -->
<g id="node1" class="node"><title>Node1</title>
<g id="a_node1"><a xlink:title="Affine transformation with diagonal tansformation matrix.">
<polygon fill="#bfbfbf" stroke="black" points="81.5,-0.5 81.5,-30.5 221.5,-30.5 221.5,-0.5 81.5,-0.5"/>
<text text-anchor="start" x="89.5" y="-18.5" font-family="Helvetica,sans-Serif" font-size="10.00">IG.Num.AffineTransformation</text>
<text text-anchor="middle" x="151.5" y="-7.5" font-family="Helvetica,sans-Serif" font-size="10.00">Diagonal</text>
</a>
</g>
</g>
<!-- Node2 -->
<g id="node2" class="node"><title>Node2</title>
<g id="a_node2"><a xlink:href="../../de/d0d/classIG_1_1Num_1_1AffineTransformationSquare.html" target="_top" xlink:title="Invertible Affine transformation with square transformation matrix.">
<polygon fill="white" stroke="black" points="180,-68.5 180,-87.5 315,-87.5 315,-68.5 180,-68.5"/>
<text text-anchor="middle" x="247.5" y="-75.5" font-family="Helvetica,sans-Serif" font-size="10.00">AffineTransformationSquare</text>
</a>
</g>
</g>
<!-- Node2&#45;&gt;Node1 -->
<g id="edge1" class="edge"><title>Node2&#45;&gt;Node1</title>
<path fill="none" stroke="midnightblue" d="M224.862,-62.7331C209.434,-53.0104 189.102,-40.1972 173.756,-30.526"/>
<polygon fill="midnightblue" stroke="midnightblue" points="223.419,-65.9612 233.746,-68.3318 227.151,-60.0391 223.419,-65.9612"/>
</g>
<!-- Node3 -->
<g id="node3" class="node"><title>Node3</title>
<g id="a_node3"><a xlink:href="../../d5/d50/interfaceIG_1_1Num_1_1IAffineTransformation.html" target="_top" xlink:title="Affine Transformation.">
<polygon fill="white" stroke="black" points="0,-152 0,-171 107,-171 107,-152 0,-152"/>
<text text-anchor="middle" x="53.5" y="-159" font-family="Helvetica,sans-Serif" font-size="10.00">IAffineTransformation</text>
</a>
</g>
</g>
<!-- Node3&#45;&gt;Node1 -->
<g id="edge19" class="edge"><title>Node3&#45;&gt;Node1</title>
<path fill="none" stroke="midnightblue" d="M65.175,-143.345C84.7714,-114.55 123.905,-57.0481 141.964,-30.512"/>
<polygon fill="midnightblue" stroke="midnightblue" points="62.0696,-141.687 59.3369,-151.923 67.8566,-145.625 62.0696,-141.687"/>
</g>
<!-- Node3&#45;&gt;Node2 -->
<g id="edge2" class="edge"><title>Node3&#45;&gt;Node2</title>
<path fill="none" stroke="midnightblue" d="M83.346,-147.962C123.192,-131.222 192.727,-102.01 227.087,-87.5754"/>
<polygon fill="midnightblue" stroke="midnightblue" points="81.7586,-144.832 73.8947,-151.932 84.4698,-151.286 81.7586,-144.832"/>
</g>
<!-- Node4 -->
<g id="node4" class="node"><title>Node4</title>
<g id="a_node4"><a xlink:href="../../d3/db6/interfaceIG_1_1Lib_1_1ILockable.html" target="_top" xlink:title="Lockable object, has a Lock property that returns object on which lock must be performed in order to ...">
<polygon fill="white" stroke="black" points="125.5,-152 125.5,-171 183.5,-171 183.5,-152 125.5,-152"/>
<text text-anchor="middle" x="154.5" y="-159" font-family="Helvetica,sans-Serif" font-size="10.00">ILockable</text>
</a>
</g>
</g>
<!-- Node4&#45;&gt;Node1 -->
<g id="edge20" class="edge"><title>Node4&#45;&gt;Node1</title>
<path fill="none" stroke="midnightblue" d="M154.111,-141.817C153.501,-112.56 152.335,-56.5866 151.792,-30.512"/>
<polygon fill="midnightblue" stroke="midnightblue" points="150.614,-141.998 154.321,-151.923 157.612,-141.853 150.614,-141.998"/>
</g>
<!-- Node4&#45;&gt;Node2 -->
<g id="edge3" class="edge"><title>Node4&#45;&gt;Node2</title>
<path fill="none" stroke="midnightblue" d="M172.004,-145.161C191.401,-128.162 222.002,-101.345 237.619,-87.6592"/>
<polygon fill="midnightblue" stroke="midnightblue" points="169.667,-142.555 164.453,-151.778 174.28,-147.82 169.667,-142.555"/>
</g>
<!-- Node5 -->
<g id="node5" class="node"><title>Node5</title>
<g id="a_node5"><a xlink:href="../../d4/d1d/classIG_1_1Num_1_1Matrix.html" target="_top" xlink:title="Real matrix class. Some operations are performed by the MathNet.Numerics.LinearAlgebra....">
<polygon fill="white" stroke="black" points="201.5,-152 201.5,-171 281.5,-171 281.5,-152 201.5,-152"/>
<text text-anchor="middle" x="241.5" y="-159" font-family="Helvetica,sans-Serif" font-size="10.00">IG.Num.Matrix</text>
</a>
</g>
</g>
<!-- Node5&#45;&gt;Node2 -->
<g id="edge4" class="edge"><title>Node5&#45;&gt;Node2</title>
<path fill="none" stroke="#9a32cd" stroke-dasharray="5,2" d="M242.908,-141.376C244.158,-124.398 245.927,-100.367 246.863,-87.6592"/>
<polygon fill="#9a32cd" stroke="#9a32cd" points="239.386,-141.548 242.142,-151.778 246.367,-142.062 239.386,-141.548"/>
<text text-anchor="middle" x="272.5" y="-120" font-family="Helvetica,sans-Serif" font-size="10.00"> _auxMat</text>
<text text-anchor="middle" x="272.5" y="-109" font-family="Helvetica,sans-Serif" font-size="10.00">_identityMat</text>
</g>
<!-- Node6 -->
<g id="node6" class="node"><title>Node6</title>
<g id="a_node6"><a xlink:href="../../d9/db9/classIG_1_1Num_1_1MatrixBase.html" target="_top" xlink:title="Base class for matrices.">
<polygon fill="white" stroke="black" points="269.5,-224.5 269.5,-243.5 335.5,-243.5 335.5,-224.5 269.5,-224.5"/>
<text text-anchor="middle" x="302.5" y="-231.5" font-family="Helvetica,sans-Serif" font-size="10.00">MatrixBase</text>
</a>
</g>
</g>
<!-- Node6&#45;&gt;Node5 -->
<g id="edge5" class="edge"><title>Node6&#45;&gt;Node5</title>
<path fill="none" stroke="midnightblue" d="M288.134,-216.397C275.888,-202.243 258.767,-182.457 249.041,-171.215"/>
<polygon fill="midnightblue" stroke="midnightblue" points="285.83,-219.083 295.02,-224.355 291.124,-214.503 285.83,-219.083"/>
</g>
<!-- Node7 -->
<g id="node7" class="node"><title>Node7</title>
<g id="a_node7"><a xlink:href="../../d8/d86/interfaceIG_1_1Num_1_1IMatrix.html" target="_top" xlink:title="Generic Matrix interface.">
<polygon fill="white" stroke="black" points="240.5,-291.5 240.5,-310.5 286.5,-310.5 286.5,-291.5 240.5,-291.5"/>
<text text-anchor="middle" x="263.5" y="-298.5" font-family="Helvetica,sans-Serif" font-size="10.00">IMatrix</text>
</a>
</g>
</g>
<!-- Node7&#45;&gt;Node5 -->
<g id="edge8" class="edge"><title>Node7&#45;&gt;Node5</title>
<path fill="none" stroke="midnightblue" d="M260.518,-281.362C255.697,-251.231 246.378,-192.99 242.876,-171.098"/>
<polygon fill="midnightblue" stroke="midnightblue" points="257.088,-282.077 262.124,-291.399 264,-280.971 257.088,-282.077"/>
</g>
<!-- Node7&#45;&gt;Node6 -->
<g id="edge6" class="edge"><title>Node7&#45;&gt;Node6</title>
<path fill="none" stroke="midnightblue" d="M273.979,-282.535C281.53,-269.95 291.396,-253.507 297.324,-243.627"/>
<polygon fill="midnightblue" stroke="midnightblue" points="270.903,-280.858 268.76,-291.234 276.906,-284.46 270.903,-280.858"/>
</g>
<!-- Node8 -->
<g id="node8" class="node"><title>Node8</title>
<g id="a_node8"><a xlink:title=" ">
<polygon fill="white" stroke="#bfbfbf" points="400,-291.5 400,-310.5 441,-310.5 441,-291.5 400,-291.5"/>
<text text-anchor="middle" x="420.5" y="-298.5" font-family="Helvetica,sans-Serif" font-size="10.00">static</text>
</a>
</g>
</g>
<!-- Node8&#45;&gt;Node6 -->
<g id="edge7" class="edge"><title>Node8&#45;&gt;Node6</title>
<path fill="none" stroke="#9a32cd" stroke-dasharray="5,2" d="M395.606,-286.287C372.219,-273.405 337.944,-254.524 318.162,-243.627"/>
<polygon fill="#9a32cd" stroke="#9a32cd" points="394.138,-289.475 404.586,-291.234 397.516,-283.343 394.138,-289.475"/>
<text text-anchor="middle" x="399" y="-265" font-family="Helvetica,sans-Serif" font-size="10.00"> _matrixStore</text>
</g>
<!-- Node13 -->
<g id="node13" class="node"><title>Node13</title>
<g id="a_node13"><a xlink:href="../../d0/d5a/classIG_1_1Num_1_1VectorBase.html" target="_top" xlink:title="Base class for real vectors.">
<polygon fill="white" stroke="black" points="525.5,-224.5 525.5,-243.5 593.5,-243.5 593.5,-224.5 525.5,-224.5"/>
<text text-anchor="middle" x="559.5" y="-231.5" font-family="Helvetica,sans-Serif" font-size="10.00">VectorBase</text>
</a>
</g>
</g>
<!-- Node8&#45;&gt;Node13 -->
<g id="edge15" class="edge"><title>Node8&#45;&gt;Node13</title>
<path fill="none" stroke="#9a32cd" stroke-dasharray="5,2" d="M448.059,-287.113C475.59,-274.239 517.146,-254.806 540.966,-243.667"/>
<polygon fill="#9a32cd" stroke="#9a32cd" points="446.534,-283.962 438.958,-291.369 449.499,-290.303 446.534,-283.962"/>
<text text-anchor="middle" x="528" y="-265" font-family="Helvetica,sans-Serif" font-size="10.00"> _matrixStore</text>
</g>
<!-- Node9 -->
<g id="node9" class="node"><title>Node9</title>
<g id="a_node9"><a xlink:title=" ">
<polygon fill="white" stroke="#bfbfbf" points="390.5,-224.5 390.5,-243.5 448.5,-243.5 448.5,-224.5 390.5,-224.5"/>
<text text-anchor="middle" x="419.5" y="-231.5" font-family="Helvetica,sans-Serif" font-size="10.00">Numerics</text>
</a>
</g>
</g>
<!-- Node9&#45;&gt;Node5 -->
<g id="edge9" class="edge"><title>Node9&#45;&gt;Node5</title>
<path fill="none" stroke="#9a32cd" stroke-dasharray="5,2" d="M380.093,-223.345C363.328,-218.781 343.712,-212.83 326.5,-206 300.922,-195.85 272.776,-180.573 256.146,-171.085"/>
<polygon fill="#9a32cd" stroke="#9a32cd" points="379.554,-226.823 390.117,-226.003 381.348,-220.057 379.554,-226.823"/>
<text text-anchor="middle" x="380.5" y="-198" font-family="Helvetica,sans-Serif" font-size="10.00"> _copyMathNetNumerics</text>
</g>
<!-- Node12 -->
<g id="node12" class="node"><title>Node12</title>
<g id="a_node12"><a xlink:href="../../d7/de0/classIG_1_1Num_1_1Vector.html" target="_top" xlink:title="Real vector class.">
<polygon fill="white" stroke="black" points="583,-152 583,-171 664,-171 664,-152 583,-152"/>
<text text-anchor="middle" x="623.5" y="-159" font-family="Helvetica,sans-Serif" font-size="10.00">IG.Num.Vector</text>
</a>
</g>
</g>
<!-- Node9&#45;&gt;Node12 -->
<g id="edge18" class="edge"><title>Node9&#45;&gt;Node12</title>
<path fill="none" stroke="#9a32cd" stroke-dasharray="5,2" d="M437.053,-217.986C447.331,-209.966 460.927,-200.615 474.5,-195 515.825,-177.905 529.967,-187.241 573.5,-177 580.802,-175.282 588.625,-173.154 595.864,-171.062"/>
<polygon fill="#9a32cd" stroke="#9a32cd" points="434.833,-215.28 429.273,-224.299 439.244,-220.716 434.833,-215.28"/>
<text text-anchor="middle" x="528.5" y="-198" font-family="Helvetica,sans-Serif" font-size="10.00"> _copyMathNetNumerics</text>
</g>
<!-- Node10 -->
<g id="node10" class="node"><title>Node10</title>
<g id="a_node10"><a xlink:href="../../d8/d86/interfaceIG_1_1Num_1_1IMatrix.html" target="_top" xlink:title="Generic Matrix interface.">
<polygon fill="white" stroke="black" points="299.5,-146.5 299.5,-176.5 439.5,-176.5 439.5,-146.5 299.5,-146.5"/>
<text text-anchor="start" x="307.5" y="-164.5" font-family="Helvetica,sans-Serif" font-size="10.00">IG.Num.IMatrix&lt; Component</text>
<text text-anchor="middle" x="369.5" y="-153.5" font-family="Helvetica,sans-Serif" font-size="10.00">Type &gt;</text>
</a>
</g>
</g>
<!-- Node10&#45;&gt;Node2 -->
<g id="edge10" class="edge"><title>Node10&#45;&gt;Node2</title>
<path fill="none" stroke="#9a32cd" stroke-dasharray="5,2" d="M347.044,-139.65C334.74,-128.836 318.896,-115.863 303.5,-106 292.412,-98.897 279.174,-92.432 268.354,-87.6101"/>
<polygon fill="#9a32cd" stroke="#9a32cd" points="344.791,-142.331 354.578,-146.391 349.459,-137.114 344.791,-142.331"/>
<text text-anchor="middle" x="362.5" y="-114.5" font-family="Helvetica,sans-Serif" font-size="10.00"> _transfMatrix</text>
</g>
<!-- Node11 -->
<g id="node11" class="node"><title>Node11</title>
<g id="a_node11"><a xlink:href="../../d3/d24/interfaceIG_1_1Num_1_1IVector.html" target="_top" xlink:title="Generic Vector interface">
<polygon fill="white" stroke="black" points="458,-152 458,-171 565,-171 565,-152 458,-152"/>
<text text-anchor="middle" x="511.5" y="-159" font-family="Helvetica,sans-Serif" font-size="10.00">IG.Num.IVector&lt; T &gt;</text>
</a>
</g>
</g>
<!-- Node11&#45;&gt;Node2 -->
<g id="edge11" class="edge"><title>Node11&#45;&gt;Node2</title>
<path fill="none" stroke="#9a32cd" stroke-dasharray="5,2" d="M487.86,-147.024C465.124,-134.619 429.445,-116.586 396.5,-106 370.47,-97.6357 340.999,-91.6113 315.178,-87.4061"/>
<polygon fill="#9a32cd" stroke="#9a32cd" points="486.322,-150.174 496.766,-151.958 489.714,-144.05 486.322,-150.174"/>
<text text-anchor="middle" x="475.5" y="-114.5" font-family="Helvetica,sans-Serif" font-size="10.00"> _translation</text>
</g>
<!-- Node12&#45;&gt;Node2 -->
<g id="edge12" class="edge"><title>Node12&#45;&gt;Node2</title>
<path fill="none" stroke="#9a32cd" stroke-dasharray="5,2" d="M600.355,-146.896C577.367,-134.076 540.704,-115.463 506.5,-106 443.102,-88.4611 368.105,-82.1371 315.172,-79.9455"/>
<polygon fill="#9a32cd" stroke="#9a32cd" points="598.899,-150.094 609.323,-151.992 602.358,-144.008 598.899,-150.094"/>
<text text-anchor="middle" x="583.5" y="-114.5" font-family="Helvetica,sans-Serif" font-size="10.00"> _auxVec</text>
</g>
<!-- Node13&#45;&gt;Node12 -->
<g id="edge13" class="edge"><title>Node13&#45;&gt;Node12</title>
<path fill="none" stroke="midnightblue" d="M574.21,-216.796C587.082,-202.617 605.287,-182.563 615.588,-171.215"/>
<polygon fill="midnightblue" stroke="midnightblue" points="571.478,-214.599 567.348,-224.355 576.661,-219.304 571.478,-214.599"/>
</g>
<!-- Node14 -->
<g id="node14" class="node"><title>Node14</title>
<g id="a_node14"><a xlink:href="../../d3/d24/interfaceIG_1_1Num_1_1IVector.html" target="_top" xlink:title="Generic Vector interface">
<polygon fill="white" stroke="black" points="576,-291.5 576,-310.5 623,-310.5 623,-291.5 576,-291.5"/>
<text text-anchor="middle" x="599.5" y="-298.5" font-family="Helvetica,sans-Serif" font-size="10.00">IVector</text>
</a>
</g>
</g>
<!-- Node14&#45;&gt;Node12 -->
<g id="edge16" class="edge"><title>Node14&#45;&gt;Node12</title>
<path fill="none" stroke="midnightblue" d="M602.753,-281.362C608.012,-251.231 618.178,-192.99 621.999,-171.098"/>
<polygon fill="midnightblue" stroke="midnightblue" points="599.273,-280.946 601.001,-291.399 606.169,-282.15 599.273,-280.946"/>
</g>
<!-- Node14&#45;&gt;Node13 -->
<g id="edge14" class="edge"><title>Node14&#45;&gt;Node13</title>
<path fill="none" stroke="midnightblue" d="M588.752,-282.535C581.008,-269.95 570.889,-253.507 564.809,-243.627"/>
<polygon fill="midnightblue" stroke="midnightblue" points="585.884,-284.552 594.105,-291.234 591.845,-280.883 585.884,-284.552"/>
</g>
<!-- Node15 -->
<g id="node15" class="node"><title>Node15</title>
<g id="a_node15"><a xlink:title=" ">
<polygon fill="white" stroke="#bfbfbf" points="649.5,-224.5 649.5,-243.5 711.5,-243.5 711.5,-224.5 649.5,-224.5"/>
<text text-anchor="middle" x="680.5" y="-231.5" font-family="Helvetica,sans-Serif" font-size="10.00">ICloneable</text>
</a>
</g>
</g>
<!-- Node15&#45;&gt;Node12 -->
<g id="edge17" class="edge"><title>Node15&#45;&gt;Node12</title>
<path fill="none" stroke="midnightblue" d="M667.076,-216.397C655.633,-202.243 639.635,-182.457 630.546,-171.215"/>
<polygon fill="midnightblue" stroke="midnightblue" points="664.502,-218.78 673.511,-224.355 669.945,-214.378 664.502,-218.78"/>
</g>
</g>
</svg>
