<?xml version="1.0" encoding="UTF-8" standalone="no"?>
<!DOCTYPE svg PUBLIC "-//W3C//DTD SVG 1.1//EN"
 "http://www.w3.org/Graphics/SVG/1.1/DTD/svg11.dtd">
<!-- Generated by graphviz version 2.38.0 (20140413.2041)
 -->
<!-- Title: IG.Lib.LoadableScriptOptBase.AnalysisScript Pages: 1 -->
<!--zoomable 373 -->
<svg id="main" version="1.1" xmlns="http://www.w3.org/2000/svg" xmlns:xlink="http://www.w3.org/1999/xlink" xml:space="preserve" onload="init(evt)">
<style type="text/css"><![CDATA[
.edge:hover path { stroke: red; }
.edge:hover polygon { stroke: red; fill: red; }
]]></style>
<script type="text/javascript"><![CDATA[
var edges = document.getElementsByTagName('g');
if (edges && edges.length) {
  for (var i=0;i<edges.length;i++) {
    if (edges[i].id.substr(0,4)=='edge') {
      edges[i].setAttribute('class','edge');
    }
  }
}
]]></script>
        <defs>
                <circle id="rim" cx="0" cy="0" r="7"/>
                <circle id="rim2" cx="0" cy="0" r="3.5"/>
                <g id="zoomPlus">
                        <use xlink:href="#rim" fill="#404040">
                                <set attributeName="fill" to="#808080" begin="zoomplus.mouseover" end="zoomplus.mouseout"/>
                        </use>
                        <path d="M-4,0h8M0,-4v8" fill="none" stroke="white" stroke-width="1.5" pointer-events="none"/>
                </g>
                <g id="zoomMin">
                        <use xlink:href="#rim" fill="#404040">
                                <set attributeName="fill" to="#808080" begin="zoomminus.mouseover" end="zoomminus.mouseout"/>
                        </use>
                        <path d="M-4,0h8" fill="none" stroke="white" stroke-width="1.5" pointer-events="none"/>
                </g>
                <g id="dirArrow">
                        <path fill="none" stroke="white" stroke-width="1.5" d="M0,-3.0v7 M-2.5,-0.5L0,-3.0L2.5,-0.5"/>
                </g>
               <g id="resetDef">
                       <use xlink:href="#rim2" fill="#404040">
                               <set attributeName="fill" to="#808080" begin="reset.mouseover" end="reset.mouseout"/>
                       </use>
               </g>
        </defs>

<script type="text/javascript">
var viewWidth = 848;
var viewHeight = 373;
var sectionId = 'dynsection-1';
</script>
<script xlink:href="../../svgpan.js"/>
<svg id="graph" class="graph">
<g id="viewport">
<title>IG.Lib.LoadableScriptOptBase.AnalysisScript</title>
<polygon fill="white" stroke="none" points="-4,4 -4,-369 844,-369 844,4 -4,4"/>
<!-- Node1 -->
<g id="node1" class="node"><title>Node1</title>
<g id="a_node1"><a xlink:title=" ">
<polygon fill="#bfbfbf" stroke="black" points="715,-302 715,-332 840,-332 840,-302 715,-302"/>
<text text-anchor="start" x="723" y="-320" font-family="Helvetica,sans-Serif" font-size="10.00">IG.Lib.LoadableScriptOpt</text>
<text text-anchor="middle" x="777.5" y="-309" font-family="Helvetica,sans-Serif" font-size="10.00">Base.AnalysisScript</text>
</a>
</g>
</g>
<!-- Node2 -->
<g id="node2" class="node"><title>Node2</title>
<g id="a_node2"><a xlink:href="../../dd/d1e/classIG_1_1Num_1_1AnalysisBase.html" target="_top" xlink:title="Base class for direct analysis classes that define optimization problems. Represent the complete defi...">
<polygon fill="white" stroke="black" points="533.5,-345.5 533.5,-364.5 610.5,-364.5 610.5,-345.5 533.5,-345.5"/>
<text text-anchor="middle" x="572" y="-352.5" font-family="Helvetica,sans-Serif" font-size="10.00">AnalysisBase</text>
</a>
</g>
</g>
<!-- Node2&#45;&gt;Node1 -->
<g id="edge1" class="edge"><title>Node2&#45;&gt;Node1</title>
<path fill="none" stroke="midnightblue" d="M620.779,-346.078C648.881,-340.831 684.713,-334.14 714.919,-328.499"/>
<polygon fill="midnightblue" stroke="midnightblue" points="619.987,-342.665 610.8,-347.942 621.272,-349.546 619.987,-342.665"/>
</g>
<!-- Node3 -->
<g id="node3" class="node"><title>Node3</title>
<g id="a_node3"><a xlink:href="../../d5/d59/interfaceIG_1_1Num_1_1IAnalysis.html" target="_top" xlink:title="Interface for direct analysis classes used in optimization problems.">
<polygon fill="white" stroke="black" points="321,-319.5 321,-338.5 377,-338.5 377,-319.5 321,-319.5"/>
<text text-anchor="middle" x="349" y="-326.5" font-family="Helvetica,sans-Serif" font-size="10.00">IAnalysis</text>
</a>
</g>
</g>
<!-- Node3&#45;&gt;Node1 -->
<g id="edge4" class="edge"><title>Node3&#45;&gt;Node1</title>
<path fill="none" stroke="midnightblue" d="M387.152,-327.955C460.537,-325.89 624.751,-321.27 714.694,-318.739"/>
<polygon fill="midnightblue" stroke="midnightblue" points="386.901,-324.46 377.003,-328.24 387.098,-331.458 386.901,-324.46"/>
</g>
<!-- Node3&#45;&gt;Node2 -->
<g id="edge2" class="edge"><title>Node3&#45;&gt;Node2</title>
<path fill="none" stroke="midnightblue" d="M387.125,-333.368C427.741,-338.146 492.49,-345.763 533.323,-350.567"/>
<polygon fill="midnightblue" stroke="midnightblue" points="387.439,-329.881 377.099,-332.188 386.621,-336.833 387.439,-329.881"/>
</g>
<!-- Node4 -->
<g id="node4" class="node"><title>Node4</title>
<g id="a_node4"><a xlink:href="../../d3/db6/interfaceIG_1_1Lib_1_1ILockable.html" target="_top" xlink:title="Lockable object, has a Lock property that returns object on which lock must be performed in order to ...">
<polygon fill="white" stroke="black" points="50,-240.5 50,-259.5 108,-259.5 108,-240.5 50,-240.5"/>
<text text-anchor="middle" x="79" y="-247.5" font-family="Helvetica,sans-Serif" font-size="10.00">ILockable</text>
</a>
</g>
</g>
<!-- Node4&#45;&gt;Node2 -->
<g id="edge3" class="edge"><title>Node4&#45;&gt;Node2</title>
<path fill="none" stroke="midnightblue" d="M103.209,-265.309C139.545,-288.313 212.875,-330.916 282,-348 369.944,-369.735 477.545,-364.3 533.364,-359.204"/>
<polygon fill="midnightblue" stroke="midnightblue" points="104.69,-262.101 94.384,-259.644 100.909,-267.991 104.69,-262.101"/>
</g>
<!-- Node5 -->
<g id="node5" class="node"><title>Node5</title>
<g id="a_node5"><a xlink:href="../../d5/d05/classIG_1_1Lib_1_1LoadableScriptOptBase.html" target="_top" xlink:title="Base class for loadable scripts for optimization problems. AGREEMENTS: The first argument to initiali...">
<polygon fill="white" stroke="black" points="498,-187.5 498,-206.5 646,-206.5 646,-187.5 498,-187.5"/>
<text text-anchor="middle" x="572" y="-194.5" font-family="Helvetica,sans-Serif" font-size="10.00">IG.Lib.LoadableScriptOptBase</text>
</a>
</g>
</g>
<!-- Node4&#45;&gt;Node5 -->
<g id="edge12" class="edge"><title>Node4&#45;&gt;Node5</title>
<path fill="none" stroke="midnightblue" d="M118.527,-250.664C155.812,-250.953 213.888,-250.468 264,-246 360.798,-237.369 384.055,-227.459 480,-212 490.907,-210.243 502.546,-208.343 513.729,-206.505"/>
<polygon fill="midnightblue" stroke="midnightblue" points="118.155,-247.161 108.12,-250.559 118.084,-254.16 118.155,-247.161"/>
</g>
<!-- Node6 -->
<g id="node6" class="node"><title>Node6</title>
<g id="a_node6"><a xlink:href="../../d7/d15/classIG_1_1Lib_1_1LoadableScriptBase.html" target="_top" xlink:title="Base class for classes that can be dynamically loadeded from scripts and run, which provides function...">
<polygon fill="white" stroke="black" points="297,-85.5 297,-104.5 401,-104.5 401,-85.5 297,-85.5"/>
<text text-anchor="middle" x="349" y="-92.5" font-family="Helvetica,sans-Serif" font-size="10.00">LoadableScriptBase</text>
</a>
</g>
</g>
<!-- Node4&#45;&gt;Node6 -->
<g id="edge8" class="edge"><title>Node4&#45;&gt;Node6</title>
<path fill="none" stroke="midnightblue" d="M118.07,-239.965C168.766,-226.307 253.33,-202.377 264,-192 281.533,-174.949 267.145,-159.428 282,-140 293.962,-124.356 312.96,-112.222 327.509,-104.517"/>
<polygon fill="midnightblue" stroke="midnightblue" points="116.863,-236.665 108.11,-242.634 118.675,-243.427 116.863,-236.665"/>
</g>
<!-- Node11 -->
<g id="node11" class="node"><title>Node11</title>
<g id="a_node11"><a xlink:href="../../de/de7/classIG_1_1Lib_1_1StopWatch1.html" target="_top" xlink:title="Timer for measuring execution times and other intervals of time elapsed between successive events....">
<polygon fill="white" stroke="black" points="299.5,-187.5 299.5,-206.5 398.5,-206.5 398.5,-187.5 299.5,-187.5"/>
<text text-anchor="middle" x="349" y="-194.5" font-family="Helvetica,sans-Serif" font-size="10.00">IG.Lib.StopWatch1</text>
</a>
</g>
</g>
<!-- Node4&#45;&gt;Node11 -->
<g id="edge15" class="edge"><title>Node4&#45;&gt;Node11</title>
<path fill="none" stroke="midnightblue" d="M117.988,-246.545C155.437,-242.691 214.134,-235.449 264,-224 283.857,-219.441 305.754,-212.331 322.211,-206.552"/>
<polygon fill="midnightblue" stroke="midnightblue" points="117.616,-243.064 108.014,-247.542 118.313,-250.029 117.616,-243.064"/>
</g>
<!-- Node5&#45;&gt;Node1 -->
<g id="edge5" class="edge"><title>Node5&#45;&gt;Node1</title>
<path fill="none" stroke="#9a32cd" stroke-dasharray="5,2" d="M597.951,-211.713C636.914,-234.689 711.801,-278.848 751.062,-302"/>
<polygon fill="#9a32cd" stroke="#9a32cd" points="599.701,-208.682 589.309,-206.617 596.145,-214.712 599.701,-208.682"/>
<text text-anchor="middle" x="680.5" y="-271" font-family="Helvetica,sans-Serif" font-size="10.00"> _script</text>
</g>
<!-- Node6&#45;&gt;Node5 -->
<g id="edge6" class="edge"><title>Node6&#45;&gt;Node5</title>
<path fill="none" stroke="midnightblue" d="M380.137,-108.909C425.651,-129.916 510.779,-169.206 550.103,-187.355"/>
<polygon fill="midnightblue" stroke="midnightblue" points="381.337,-105.609 370.791,-104.596 378.404,-111.964 381.337,-105.609"/>
</g>
<!-- Node7 -->
<g id="node7" class="node"><title>Node7</title>
<g id="a_node7"><a xlink:href="../../d7/d66/interfaceIG_1_1Lib_1_1ILoadableScript.html" target="_top" xlink:title="Interface for classes that can be dynamically loadeded from scripts and run, which provides functiona...">
<polygon fill="white" stroke="black" points="37.5,-0.5 37.5,-19.5 120.5,-19.5 120.5,-0.5 37.5,-0.5"/>
<text text-anchor="middle" x="79" y="-7.5" font-family="Helvetica,sans-Serif" font-size="10.00">ILoadableScript</text>
</a>
</g>
</g>
<!-- Node7&#45;&gt;Node5 -->
<g id="edge11" class="edge"><title>Node7&#45;&gt;Node5</title>
<path fill="none" stroke="midnightblue" d="M130.587,-11.5313C198.82,-15.4156 322.555,-28.9781 416,-76 477.6,-106.997 538.494,-164.414 561.442,-187.257"/>
<polygon fill="midnightblue" stroke="midnightblue" points="130.698,-8.03239 120.529,-11.0064 130.333,-15.0229 130.698,-8.03239"/>
</g>
<!-- Node7&#45;&gt;Node6 -->
<g id="edge7" class="edge"><title>Node7&#45;&gt;Node6</title>
<path fill="none" stroke="midnightblue" d="M125.231,-22.3472C162.641,-32.7808 217.053,-48.4681 264,-64 284.219,-70.689 306.854,-79.0969 323.529,-85.4682"/>
<polygon fill="midnightblue" stroke="midnightblue" points="125.723,-18.8514 115.151,-19.5482 123.85,-25.5962 125.723,-18.8514"/>
</g>
<!-- Node8 -->
<g id="node8" class="node"><title>Node8</title>
<g id="a_node8"><a xlink:href="../../de/dfd/interfaceIG_1_1Lib_1_1ICommandLineApplicationInterpreter.html" target="_top" xlink:title="Interface for simple command&#45;line applicatino interpreters.">
<polygon fill="white" stroke="black" points="0,-46 0,-76 158,-76 158,-46 0,-46"/>
<text text-anchor="start" x="8" y="-64" font-family="Helvetica,sans-Serif" font-size="10.00">IG.Lib.ICommandLineApplication</text>
<text text-anchor="middle" x="79" y="-53" font-family="Helvetica,sans-Serif" font-size="10.00">Interpreter</text>
</a>
</g>
</g>
<!-- Node8&#45;&gt;Node6 -->
<g id="edge9" class="edge"><title>Node8&#45;&gt;Node6</title>
<path fill="none" stroke="#9a32cd" stroke-dasharray="5,2" d="M168.305,-66.4385C198.725,-68.9053 232.946,-72.3411 264,-77 278.602,-79.1907 294.472,-82.3789 308.447,-85.4656"/>
<polygon fill="#9a32cd" stroke="#9a32cd" points="168.388,-62.9343 158.144,-65.6387 167.838,-69.9127 168.388,-62.9343"/>
<text text-anchor="middle" x="220" y="-80" font-family="Helvetica,sans-Serif" font-size="10.00"> _script_interpreter</text>
</g>
<!-- Node9 -->
<g id="node9" class="node"><title>Node9</title>
<g id="a_node9"><a xlink:title=" ">
<polygon fill="white" stroke="#bfbfbf" points="58.5,-107.5 58.5,-126.5 99.5,-126.5 99.5,-107.5 58.5,-107.5"/>
<text text-anchor="middle" x="79" y="-114.5" font-family="Helvetica,sans-Serif" font-size="10.00">static</text>
</a>
</g>
</g>
<!-- Node9&#45;&gt;Node6 -->
<g id="edge10" class="edge"><title>Node9&#45;&gt;Node6</title>
<path fill="none" stroke="#9a32cd" stroke-dasharray="5,2" d="M109.438,-108.883C128.299,-104.101 153.395,-98.5101 176,-96 216.364,-91.5181 262.384,-91.516 296.659,-92.4988"/>
<polygon fill="#9a32cd" stroke="#9a32cd" points="108.45,-105.523 99.6555,-111.432 110.215,-112.297 108.45,-105.523"/>
<text text-anchor="middle" x="220" y="-99" font-family="Helvetica,sans-Serif" font-size="10.00"> _defaultOutputLevel</text>
</g>
<!-- Node9&#45;&gt;Node11 -->
<g id="edge17" class="edge"><title>Node9&#45;&gt;Node11</title>
<path fill="none" stroke="#9a32cd" stroke-dasharray="5,2" d="M109.714,-113.613C148.775,-110.759 217.833,-111.402 264,-144 277.967,-153.862 268.728,-167.221 282,-178 287.091,-182.134 293.04,-185.369 299.245,-187.9"/>
<polygon fill="#9a32cd" stroke="#9a32cd" points="109.201,-110.144 99.5367,-114.487 109.799,-117.118 109.201,-110.144"/>
<text text-anchor="middle" x="220" y="-180" font-family="Helvetica,sans-Serif" font-size="10.00"> lastId</text>
<text text-anchor="middle" x="220" y="-169" font-family="Helvetica,sans-Serif" font-size="10.00">_staticLock</text>
<text text-anchor="middle" x="220" y="-158" font-family="Helvetica,sans-Serif" font-size="10.00">numWarnCpu</text>
<text text-anchor="middle" x="220" y="-147" font-family="Helvetica,sans-Serif" font-size="10.00">MaxWarnCpu</text>
</g>
<!-- Node10 -->
<g id="node10" class="node"><title>Node10</title>
<g id="a_node10"><a xlink:href="../../d5/d59/interfaceIG_1_1Num_1_1IAnalysis.html" target="_top" xlink:title="Interface for direct analysis classes used in optimization problems.">
<polygon fill="white" stroke="black" points="303,-149.5 303,-168.5 395,-168.5 395,-149.5 303,-149.5"/>
<text text-anchor="middle" x="349" y="-156.5" font-family="Helvetica,sans-Serif" font-size="10.00">IG.Num.IAnalysis</text>
</a>
</g>
</g>
<!-- Node10&#45;&gt;Node5 -->
<g id="edge13" class="edge"><title>Node10&#45;&gt;Node5</title>
<path fill="none" stroke="#9a32cd" stroke-dasharray="5,2" d="M405.394,-168.525C439.076,-174.316 481.94,-181.687 515.62,-187.478"/>
<polygon fill="#9a32cd" stroke="#9a32cd" points="405.704,-165.027 395.256,-166.782 404.518,-171.926 405.704,-165.027"/>
<text text-anchor="middle" x="457" y="-184" font-family="Helvetica,sans-Serif" font-size="10.00"> _analysis</text>
</g>
<!-- Node11&#45;&gt;Node5 -->
<g id="edge14" class="edge"><title>Node11&#45;&gt;Node5</title>
<path fill="none" stroke="#9a32cd" stroke-dasharray="5,2" d="M408.97,-197C436.32,-197 469.097,-197 497.993,-197"/>
<polygon fill="#9a32cd" stroke="#9a32cd" points="408.773,-193.5 398.773,-197 408.773,-200.5 408.773,-193.5"/>
<text text-anchor="middle" x="457" y="-200" font-family="Helvetica,sans-Serif" font-size="10.00"> _timer</text>
</g>
<!-- Node12 -->
<g id="node12" class="node"><title>Node12</title>
<g id="a_node12"><a xlink:href="../../dc/d79/interfaceIG_1_1Lib_1_1IIdentifiable.html" target="_top" xlink:title="Classes whose instances have unique integer IDs.">
<polygon fill="white" stroke="black" points="46.5,-178.5 46.5,-197.5 111.5,-197.5 111.5,-178.5 46.5,-178.5"/>
<text text-anchor="middle" x="79" y="-185.5" font-family="Helvetica,sans-Serif" font-size="10.00">IIdentifiable</text>
</a>
</g>
</g>
<!-- Node12&#45;&gt;Node11 -->
<g id="edge16" class="edge"><title>Node12&#45;&gt;Node11</title>
<path fill="none" stroke="midnightblue" d="M121.583,-189.396C169.617,-191.01 248.543,-193.66 299.377,-195.367"/>
<polygon fill="midnightblue" stroke="midnightblue" points="121.643,-185.897 111.531,-189.059 121.408,-192.893 121.643,-185.897"/>
</g>
<!-- Node13 -->
<g id="node13" class="node"><title>Node13</title>
<g id="a_node13"><a xlink:href="../../d4/d43/interfaceIG_1_1Num_1_1IRandomGenerator.html" target="_top" xlink:title="Uniform random number generator.">
<polygon fill="white" stroke="black" points="282,-281.5 282,-300.5 416,-300.5 416,-281.5 282,-281.5"/>
<text text-anchor="middle" x="349" y="-288.5" font-family="Helvetica,sans-Serif" font-size="10.00">IG.Num.IRandomGenerator</text>
</a>
</g>
</g>
<!-- Node13&#45;&gt;Node5 -->
<g id="edge18" class="edge"><title>Node13&#45;&gt;Node5</title>
<path fill="none" stroke="#9a32cd" stroke-dasharray="5,2" d="M426.248,-283.126C444.37,-279.584 463.284,-274.447 480,-267 513.501,-252.075 545.855,-222.442 561.404,-206.955"/>
<polygon fill="#9a32cd" stroke="#9a32cd" points="425.496,-279.706 416.281,-284.935 426.746,-286.593 425.496,-279.706"/>
<text text-anchor="middle" x="457" y="-285" font-family="Helvetica,sans-Serif" font-size="10.00"> _randGen</text>
</g>
</g>
</svg>
        <g id="navigator" transform="translate(0 0)" fill="#404254">
                <rect fill="#f2f5e9" fill-opacity="0.5" stroke="#606060" stroke-width=".5" x="0" y="0" width="60" height="60"/>
                <use id="zoomplus" xlink:href="#zoomPlus" x="17" y="9" onmousedown="handleZoom(evt,'in')"/>
                <use id="zoomminus" xlink:href="#zoomMin" x="42" y="9" onmousedown="handleZoom(evt,'out')"/>
                <use id="reset" xlink:href="#resetDef" x="30" y="36" onmousedown="handleReset()"/>
                <g id="arrowUp" xlink:href="#dirArrow" transform="translate(30 24)" onmousedown="handlePan(0,-1)">
                  <use xlink:href="#rim" fill="#404040">
                        <set attributeName="fill" to="#808080" begin="arrowUp.mouseover" end="arrowUp.mouseout"/>
                  </use>
                  <path fill="none" stroke="white" stroke-width="1.5" d="M0,-3.0v7 M-2.5,-0.5L0,-3.0L2.5,-0.5"/>
                </g>
                <g id="arrowRight" xlink:href="#dirArrow" transform="rotate(90) translate(36 -43)" onmousedown="handlePan(1,0)">
                  <use xlink:href="#rim" fill="#404040">
                        <set attributeName="fill" to="#808080" begin="arrowRight.mouseover" end="arrowRight.mouseout"/>
                  </use>
                  <path fill="none" stroke="white" stroke-width="1.5" d="M0,-3.0v7 M-2.5,-0.5L0,-3.0L2.5,-0.5"/>
                </g>
                <g id="arrowDown" xlink:href="#dirArrow" transform="rotate(180) translate(-30 -48)" onmousedown="handlePan(0,1)">
                  <use xlink:href="#rim" fill="#404040">
                        <set attributeName="fill" to="#808080" begin="arrowDown.mouseover" end="arrowDown.mouseout"/>
                  </use>
                  <path fill="none" stroke="white" stroke-width="1.5" d="M0,-3.0v7 M-2.5,-0.5L0,-3.0L2.5,-0.5"/>
                </g>
                <g id="arrowLeft" xlink:href="#dirArrow" transform="rotate(270) translate(-36 17)" onmousedown="handlePan(-1,0)">
                  <use xlink:href="#rim" fill="#404040">
                        <set attributeName="fill" to="#808080" begin="arrowLeft.mouseover" end="arrowLeft.mouseout"/>
                  </use>
                  <path fill="none" stroke="white" stroke-width="1.5" d="M0,-3.0v7 M-2.5,-0.5L0,-3.0L2.5,-0.5"/>
                </g>
        </g>
        <svg viewBox="0 0 15 15" width="100%" height="30px" preserveAspectRatio="xMaxYMin meet">
         <g id="arrow_out" transform="scale(0.3 0.3)">
          <a xlink:href="classIG_1_1Lib_1_1LoadableScriptOptBase_1_1AnalysisScript__coll__graph_org.svg" target="_base">
           <rect id="button" ry="5" rx="5" y="6" x="6" height="38" width="38"
                fill="#f2f5e9" fill-opacity="0.5" stroke="#606060" stroke-width="1.0"/>
           <path id="arrow"
             d="M 11.500037,31.436501 C 11.940474,20.09759 22.043105,11.32322 32.158766,21.979434 L 37.068811,17.246167 C 37.068811,17.246167 37.088388,32 37.088388,32 L 22.160133,31.978069 C 22.160133,31.978069 26.997745,27.140456 26.997745,27.140456 C 18.528582,18.264221 13.291696,25.230495 11.500037,31.436501 z"
             style="fill:#404040;"/>
          </a>
         </g>
        </svg>
</svg>
