<?xml version="1.0" encoding="UTF-8" standalone="no"?>
<!DOCTYPE svg PUBLIC "-//W3C//DTD SVG 1.1//EN"
 "http://www.w3.org/Graphics/SVG/1.1/DTD/svg11.dtd">
<!-- Generated by graphviz version 2.38.0 (20140413.2041)
 -->
<!-- Title: IG.Num.IRealFunction Pages: 1 -->
<!--zoomable 743 -->
<svg id="main" version="1.1" xmlns="http://www.w3.org/2000/svg" xmlns:xlink="http://www.w3.org/1999/xlink" xml:space="preserve" onload="init(evt)">
<style type="text/css"><![CDATA[
.edge:hover path { stroke: red; }
.edge:hover polygon { stroke: red; fill: red; }
]]></style>
<script type="text/javascript"><![CDATA[
var edges = document.getElementsByTagName('g');
if (edges && edges.length) {
  for (var i=0;i<edges.length;i++) {
    if (edges[i].id.substr(0,4)=='edge') {
      edges[i].setAttribute('class','edge');
    }
  }
}
]]></script>
        <defs>
                <circle id="rim" cx="0" cy="0" r="7"/>
                <circle id="rim2" cx="0" cy="0" r="3.5"/>
                <g id="zoomPlus">
                        <use xlink:href="#rim" fill="#404040">
                                <set attributeName="fill" to="#808080" begin="zoomplus.mouseover" end="zoomplus.mouseout"/>
                        </use>
                        <path d="M-4,0h8M0,-4v8" fill="none" stroke="white" stroke-width="1.5" pointer-events="none"/>
                </g>
                <g id="zoomMin">
                        <use xlink:href="#rim" fill="#404040">
                                <set attributeName="fill" to="#808080" begin="zoomminus.mouseover" end="zoomminus.mouseout"/>
                        </use>
                        <path d="M-4,0h8" fill="none" stroke="white" stroke-width="1.5" pointer-events="none"/>
                </g>
                <g id="dirArrow">
                        <path fill="none" stroke="white" stroke-width="1.5" d="M0,-3.0v7 M-2.5,-0.5L0,-3.0L2.5,-0.5"/>
                </g>
               <g id="resetDef">
                       <use xlink:href="#rim2" fill="#404040">
                               <set attributeName="fill" to="#808080" begin="reset.mouseover" end="reset.mouseout"/>
                       </use>
               </g>
        </defs>

<script type="text/javascript">
var viewWidth = 917;
var viewHeight = 743;
var sectionId = 'dynsection-0';
</script>
<script xlink:href="../../svgpan.js"/>
<svg id="graph" class="graph">
<g id="viewport">
<title>IG.Num.IRealFunction</title>
<polygon fill="white" stroke="none" points="-4,4 -4,-739.021 913,-739.021 913,4 -4,4"/>
<!-- Node1 -->
<g id="node1" class="node"><title>Node1</title>
<g id="a_node1"><a xlink:title="Interface for real functions.">
<polygon fill="#bfbfbf" stroke="black" points="0,-209.521 0,-228.521 112,-228.521 112,-209.521 0,-209.521"/>
<text text-anchor="middle" x="56" y="-216.521" font-family="Helvetica,sans-Serif" font-size="10.00">IG.Num.IRealFunction</text>
</a>
</g>
</g>
<!-- Node2 -->
<g id="node2" class="node"><title>Node2</title>
<g id="a_node2"><a xlink:href="../../dc/dbf/classIG_1_1Num_1_1Func_1_1Cubic.html" target="_top" xlink:title="Cubic function, f(x) = a3*x*x*x + a2*x*x + a1*x + a0. Specific properties: Zero &#45; returns a zero....">
<polygon fill="white" stroke="black" points="594.5,-715.521 594.5,-734.521 696.5,-734.521 696.5,-715.521 594.5,-715.521"/>
<text text-anchor="middle" x="645.5" y="-722.521" font-family="Helvetica,sans-Serif" font-size="10.00">IG.Num.Func.Cubic</text>
</a>
</g>
</g>
<!-- Node1&#45;&gt;Node2 -->
<g id="edge1" class="edge"><title>Node1&#45;&gt;Node2</title>
<path fill="none" stroke="midnightblue" d="M58.5176,-238.804C63.2838,-289.106 81.8395,-423.99 148,-510.021 260.377,-656.15 492.24,-704.584 594.35,-719.233"/>
<polygon fill="midnightblue" stroke="midnightblue" points="61.9882,-238.313 57.6388,-228.652 55.0143,-238.917 61.9882,-238.313"/>
</g>
<!-- Node3 -->
<g id="node3" class="node"><title>Node3</title>
<g id="a_node3"><a xlink:href="../../dd/dd0/classIG_1_1Num_1_1Func_1_1PenaltyPower.html" target="_top" xlink:title="Penalty function consisting of sticked together constant zero&#45;valued function and a power function wi...">
<polygon fill="white" stroke="black" points="577,-677.521 577,-696.521 714,-696.521 714,-677.521 577,-677.521"/>
<text text-anchor="middle" x="645.5" y="-684.521" font-family="Helvetica,sans-Serif" font-size="10.00">IG.Num.Func.PenaltyPower</text>
</a>
</g>
</g>
<!-- Node1&#45;&gt;Node3 -->
<g id="edge2" class="edge"><title>Node1&#45;&gt;Node3</title>
<path fill="none" stroke="midnightblue" d="M61.2238,-238.76C70.6246,-278.682 96.6113,-370.126 148,-428.021 288.165,-585.934 361.365,-591.096 558,-668.021 567.737,-671.83 578.404,-674.956 588.82,-677.494"/>
<polygon fill="midnightblue" stroke="midnightblue" points="64.6223,-237.92 59.0047,-228.937 57.7943,-239.463 64.6223,-237.92"/>
</g>
<!-- Node4 -->
<g id="node4" class="node"><title>Node4</title>
<g id="a_node4"><a xlink:href="../../da/d11/interfaceIG_1_1Num_1_1IRealFunctionOneParametric.html" target="_top" xlink:title="Parameterized real&#45;valued functions of single variable.">
<polygon fill="white" stroke="black" points="344,-152.521 344,-171.521 521,-171.521 521,-152.521 344,-152.521"/>
<text text-anchor="middle" x="432.5" y="-159.521" font-family="Helvetica,sans-Serif" font-size="10.00">IG.Num.IRealFunctionOneParametric</text>
</a>
</g>
</g>
<!-- Node1&#45;&gt;Node4 -->
<g id="edge3" class="edge"><title>Node1&#45;&gt;Node4</title>
<path fill="none" stroke="midnightblue" d="M122.229,-209.117C172.677,-201.455 244.268,-190.576 307,-181.021 327.211,-177.943 349.266,-174.579 369.122,-171.548"/>
<polygon fill="midnightblue" stroke="midnightblue" points="121.475,-205.692 112.113,-210.654 122.526,-212.612 121.475,-205.692"/>
</g>
<!-- Node5 -->
<g id="node5" class="node"><title>Node5</title>
<g id="a_node5"><a xlink:href="../../d0/d78/classIG_1_1Num_1_1RealFunctionOneParametric.html" target="_top" xlink:title="Base class for one parametric families of real&#45;valued functions of single variable....">
<polygon fill="white" stroke="black" points="558,-57.5212 558,-76.5212 733,-76.5212 733,-57.5212 558,-57.5212"/>
<text text-anchor="middle" x="645.5" y="-64.5212" font-family="Helvetica,sans-Serif" font-size="10.00">IG.Num.RealFunctionOneParametric</text>
</a>
</g>
</g>
<!-- Node1&#45;&gt;Node5 -->
<g id="edge36" class="edge"><title>Node1&#45;&gt;Node5</title>
<path fill="none" stroke="midnightblue" d="M104.9,-230.687C196.599,-249.992 398.769,-277.545 522,-181.021 557.546,-153.179 523.829,-115.535 558,-86.0212 562.422,-82.2022 567.437,-79.0983 572.771,-76.5814"/>
<polygon fill="midnightblue" stroke="midnightblue" points="105.577,-227.253 95.0626,-228.558 104.096,-234.094 105.577,-227.253"/>
</g>
<!-- Node6 -->
<g id="node6" class="node"><title>Node6</title>
<g id="a_node6"><a xlink:href="../../d1/dfb/interfaceIG_1_1Num_1_1IRealFunctionParametric.html" target="_top" xlink:title="Parameterized real&#45;valued functions of single variable.">
<polygon fill="white" stroke="black" points="148,-114.521 148,-133.521 307,-133.521 307,-114.521 148,-114.521"/>
<text text-anchor="middle" x="227.5" y="-121.521" font-family="Helvetica,sans-Serif" font-size="10.00">IG.Num.IRealFunctionParametric</text>
</a>
</g>
</g>
<!-- Node1&#45;&gt;Node6 -->
<g id="edge5" class="edge"><title>Node1&#45;&gt;Node6</title>
<path fill="none" stroke="midnightblue" d="M72.4298,-202.205C89.3257,-184.81 118.03,-158.119 148,-143.021 155.639,-139.173 164.094,-136.08 172.544,-133.601"/>
<polygon fill="midnightblue" stroke="midnightblue" points="69.8816,-199.806 65.5357,-209.468 74.9587,-204.625 69.8816,-199.806"/>
</g>
<!-- Node7 -->
<g id="node7" class="node"><title>Node7</title>
<g id="a_node7"><a xlink:href="../../d2/d3f/classIG_1_1Num_1_1RealFunctionParametric.html" target="_top" xlink:title="Base class for parameterized real&#45;valued functions of single variable. Parameters that completely def...">
<polygon fill="white" stroke="black" points="567,-19.5212 567,-38.5212 724,-38.5212 724,-19.5212 567,-19.5212"/>
<text text-anchor="middle" x="645.5" y="-26.5212" font-family="Helvetica,sans-Serif" font-size="10.00">IG.Num.RealFunctionParametric</text>
</a>
</g>
</g>
<!-- Node1&#45;&gt;Node7 -->
<g id="edge37" class="edge"><title>Node1&#45;&gt;Node7</title>
<path fill="none" stroke="midnightblue" d="M62.9318,-199.684C73.9928,-167.099 101.006,-101.622 148,-69.0212 289.397,29.0693 510.983,-1.16973 602.648,-19.4985"/>
<polygon fill="midnightblue" stroke="midnightblue" points="59.5434,-198.787 59.7865,-209.379 66.2018,-200.947 59.5434,-198.787"/>
</g>
<!-- Node8 -->
<g id="node8" class="node"><title>Node8</title>
<g id="a_node8"><a xlink:href="../../d1/d20/classIG_1_1Num_1_1RealFunctionParametricBase.html" target="_top" xlink:title="Base class for parameterized real&#45;valued functions of single variable. Parameters that completely def...">
<polygon fill="white" stroke="black" points="343,-76.5212 343,-95.5212 522,-95.5212 522,-76.5212 343,-76.5212"/>
<text text-anchor="middle" x="432.5" y="-83.5212" font-family="Helvetica,sans-Serif" font-size="10.00">IG.Num.RealFunctionParametricBase</text>
</a>
</g>
</g>
<!-- Node1&#45;&gt;Node8 -->
<g id="edge38" class="edge"><title>Node1&#45;&gt;Node8</title>
<path fill="none" stroke="midnightblue" d="M65.6187,-200.434C79.0285,-173.93 107.61,-126.153 148,-105.021 217.606,-68.6045 310.319,-70.1428 370.455,-76.507"/>
<polygon fill="midnightblue" stroke="midnightblue" points="62.4596,-198.927 61.2292,-209.45 68.7534,-201.991 62.4596,-198.927"/>
</g>
<!-- Node9 -->
<g id="node9" class="node"><title>Node9</title>
<g id="a_node9"><a xlink:href="../../d7/d8a/interfaceIG_1_1Num_1_1IRealFunctionPenalty.html" target="_top" xlink:title="Interface that must be satisfied by penalty functions. Penalty functions have small values where argu...">
<polygon fill="white" stroke="black" points="155,-399.521 155,-418.521 300,-418.521 300,-399.521 155,-399.521"/>
<text text-anchor="middle" x="227.5" y="-406.521" font-family="Helvetica,sans-Serif" font-size="10.00">IG.Num.IRealFunctionPenalty</text>
</a>
</g>
</g>
<!-- Node1&#45;&gt;Node9 -->
<g id="edge12" class="edge"><title>Node1&#45;&gt;Node9</title>
<path fill="none" stroke="midnightblue" d="M68.2615,-237.345C84.2986,-262.714 115.404,-309.327 148,-344.021 168.597,-365.943 196.455,-387.414 212.848,-399.365"/>
<polygon fill="midnightblue" stroke="midnightblue" points="71.1475,-235.359 62.8812,-228.732 65.2106,-239.068 71.1475,-235.359"/>
</g>
<!-- Node10 -->
<g id="node10" class="node"><title>Node10</title>
<g id="a_node10"><a xlink:href="../../d5/d83/classIG_1_1Num_1_1RealFunction.html" target="_top" xlink:title="Represents a real function of a real variabe.">
<polygon fill="white" stroke="black" points="377.5,-373.521 377.5,-392.521 487.5,-392.521 487.5,-373.521 377.5,-373.521"/>
<text text-anchor="middle" x="432.5" y="-380.521" font-family="Helvetica,sans-Serif" font-size="10.00">IG.Num.RealFunction</text>
</a>
</g>
</g>
<!-- Node1&#45;&gt;Node10 -->
<g id="edge14" class="edge"><title>Node1&#45;&gt;Node10</title>
<path fill="none" stroke="midnightblue" d="M87.9975,-232.596C161.756,-264.895 346.264,-345.695 409.687,-373.469"/>
<polygon fill="midnightblue" stroke="midnightblue" points="89.3176,-229.353 78.7534,-228.547 86.5096,-235.765 89.3176,-229.353"/>
</g>
<!-- Node27 -->
<g id="node27" class="node"><title>Node27</title>
<g id="a_node27"><a xlink:href="../../d6/d30/classIG_1_1Num_1_1RealFunctionBase.html" target="_top" xlink:title="Base class for real functions of real variable.">
<polygon fill="white" stroke="black" points="161.5,-152.521 161.5,-171.521 293.5,-171.521 293.5,-152.521 161.5,-152.521"/>
<text text-anchor="middle" x="227.5" y="-159.521" font-family="Helvetica,sans-Serif" font-size="10.00">IG.Num.RealFunctionBase</text>
</a>
</g>
</g>
<!-- Node1&#45;&gt;Node27 -->
<g id="edge33" class="edge"><title>Node1&#45;&gt;Node27</title>
<path fill="none" stroke="midnightblue" d="M91.8425,-205.913C108.729,-199.681 129.345,-192.251 148,-186.021 163.004,-181.011 179.755,-175.833 193.918,-171.575"/>
<polygon fill="midnightblue" stroke="midnightblue" points="90.5327,-202.666 82.3744,-209.425 92.9674,-209.228 90.5327,-202.666"/>
</g>
<!-- Node4&#45;&gt;Node5 -->
<g id="edge4" class="edge"><title>Node4&#45;&gt;Node5</title>
<path fill="none" stroke="midnightblue" d="M501.238,-149.062C508.596,-146.107 515.692,-142.478 522,-138.021 544.958,-121.803 534.654,-101.677 558,-86.0212 563.746,-82.1676 570.145,-79.0816 576.79,-76.6126"/>
<polygon fill="midnightblue" stroke="midnightblue" points="500.038,-145.774 491.817,-152.457 502.411,-152.36 500.038,-145.774"/>
</g>
<!-- Node6&#45;&gt;Node4 -->
<g id="edge6" class="edge"><title>Node6&#45;&gt;Node4</title>
<path fill="none" stroke="midnightblue" d="M289.497,-135.439C318.542,-140.876 352.882,-147.304 380.516,-152.477"/>
<polygon fill="midnightblue" stroke="midnightblue" points="289.937,-131.961 279.463,-133.561 288.649,-138.841 289.937,-131.961"/>
</g>
<!-- Node6&#45;&gt;Node5 -->
<g id="edge7" class="edge"><title>Node6&#45;&gt;Node5</title>
<path fill="none" stroke="midnightblue" d="M317.293,-127.846C376.367,-128.078 455.107,-123.905 522,-105.021 539.411,-100.106 541.011,-92.2404 558,-86.0212 568.251,-82.2685 579.47,-79.1359 590.331,-76.5681"/>
<polygon fill="midnightblue" stroke="midnightblue" points="317.273,-124.346 307.244,-127.764 317.215,-131.346 317.273,-124.346"/>
</g>
<!-- Node6&#45;&gt;Node7 -->
<g id="edge8" class="edge"><title>Node6&#45;&gt;Node7</title>
<path fill="none" stroke="midnightblue" d="M252.575,-109.025C275.086,-95.7472 310.081,-76.9751 343,-67.0212 416.982,-44.6506 505.027,-35.4393 566.811,-31.6522"/>
<polygon fill="midnightblue" stroke="midnightblue" points="250.503,-106.186 243.734,-114.337 254.108,-112.187 250.503,-106.186"/>
</g>
<!-- Node6&#45;&gt;Node8 -->
<g id="edge9" class="edge"><title>Node6&#45;&gt;Node8</title>
<path fill="none" stroke="midnightblue" d="M289.497,-112.603C318.542,-107.166 352.882,-100.738 380.516,-95.5651"/>
<polygon fill="midnightblue" stroke="midnightblue" points="288.649,-109.201 279.463,-114.481 289.937,-116.081 288.649,-109.201"/>
</g>
<!-- Node8&#45;&gt;Node5 -->
<g id="edge10" class="edge"><title>Node8&#45;&gt;Node5</title>
<path fill="none" stroke="midnightblue" d="M532.113,-77.1414C540.707,-76.3675 549.363,-75.5881 557.85,-74.8238"/>
<polygon fill="midnightblue" stroke="midnightblue" points="531.712,-73.6632 522.066,-78.0461 532.34,-80.635 531.712,-73.6632"/>
</g>
<!-- Node8&#45;&gt;Node7 -->
<g id="edge11" class="edge"><title>Node8&#45;&gt;Node7</title>
<path fill="none" stroke="midnightblue" d="M481.881,-73.8958C494.984,-70.3422 509.106,-66.2634 522,-62.0212 538.307,-56.6559 541.567,-52.9887 558,-48.0212 569.774,-44.462 582.637,-41.2719 594.758,-38.5677"/>
<polygon fill="midnightblue" stroke="midnightblue" points="480.858,-70.5462 472.098,-76.5048 482.662,-77.3098 480.858,-70.5462"/>
</g>
<!-- Node9&#45;&gt;Node3 -->
<g id="edge13" class="edge"><title>Node9&#45;&gt;Node3</title>
<path fill="none" stroke="midnightblue" d="M303.225,-420.594C370.035,-434.857 465.817,-465.636 522,-530.021 563.675,-577.781 512.315,-624.082 558,-668.021 563.43,-673.244 569.95,-677.163 576.945,-680.087"/>
<polygon fill="midnightblue" stroke="midnightblue" points="303.674,-417.113 293.174,-418.525 302.263,-423.969 303.674,-417.113"/>
</g>
<!-- Node10&#45;&gt;Node2 -->
<g id="edge19" class="edge"><title>Node10&#45;&gt;Node2</title>
<path fill="none" stroke="midnightblue" d="M434.872,-402.95C439.908,-459.807 462.454,-623.97 558,-706.021 568.148,-714.736 581.389,-719.722 594.448,-722.507"/>
<polygon fill="midnightblue" stroke="midnightblue" points="438.346,-402.479 434.062,-392.789 431.368,-403.035 438.346,-402.479"/>
</g>
<!-- Node10&#45;&gt;Node3 -->
<g id="edge23" class="edge"><title>Node10&#45;&gt;Node3</title>
<path fill="none" stroke="midnightblue" d="M472.572,-396.869C490.421,-405.19 510.176,-417.605 522,-435.021 580.857,-521.714 486.274,-591.633 558,-668.021 563.262,-673.626 569.769,-677.765 576.833,-680.799"/>
<polygon fill="midnightblue" stroke="midnightblue" points="473.479,-393.447 462.914,-392.661 470.684,-399.864 473.479,-393.447"/>
</g>
<!-- Node11 -->
<g id="node11" class="node"><title>Node11</title>
<g id="a_node11"><a xlink:href="../../db/d84/classIG_1_1Lib_1_1LoadableRealFunctionBase.html" target="_top" xlink:title="A RealFunction class used as base class for dynamically loaded functions. Bunctions loaded from scrip...">
<polygon fill="white" stroke="black" points="563.5,-171.521 563.5,-190.521 727.5,-190.521 727.5,-171.521 563.5,-171.521"/>
<text text-anchor="middle" x="645.5" y="-178.521" font-family="Helvetica,sans-Serif" font-size="10.00">IG.Lib.LoadableRealFunctionBase</text>
</a>
</g>
</g>
<!-- Node10&#45;&gt;Node11 -->
<g id="edge15" class="edge"><title>Node10&#45;&gt;Node11</title>
<path fill="none" stroke="midnightblue" d="M445.739,-364.844C476.722,-318.854 555.953,-201.406 558,-200.021 563.731,-196.144 570.119,-193.043 576.758,-190.565"/>
<polygon fill="midnightblue" stroke="midnightblue" points="442.747,-363.021 440.064,-373.27 448.553,-366.931 442.747,-363.021"/>
</g>
<!-- Node13 -->
<g id="node13" class="node"><title>Node13</title>
<g id="a_node13"><a xlink:href="../../d2/d7a/classIG_1_1Num_1_1ComposedFunction.html" target="_top" xlink:title="Composition of real functions.">
<polygon fill="white" stroke="black" points="577,-133.521 577,-152.521 714,-152.521 714,-133.521 577,-133.521"/>
<text text-anchor="middle" x="645.5" y="-140.521" font-family="Helvetica,sans-Serif" font-size="10.00">IG.Num.ComposedFunction</text>
</a>
</g>
</g>
<!-- Node10&#45;&gt;Node13 -->
<g id="edge17" class="edge"><title>Node10&#45;&gt;Node13</title>
<path fill="none" stroke="midnightblue" d="M447.29,-365.286C465.902,-340.795 499.336,-294.787 522,-252.021 542.173,-213.955 525.14,-189.882 558,-162.021 563.512,-157.348 569.916,-153.75 576.698,-150.99"/>
<polygon fill="midnightblue" stroke="midnightblue" points="444.46,-363.225 441.151,-373.29 450.014,-367.485 444.46,-363.225"/>
</g>
<!-- Node14 -->
<g id="node14" class="node"><title>Node14</title>
<g id="a_node14"><a xlink:href="../../d6/d88/classIG_1_1Num_1_1Func_1_1Constant.html" target="_top" xlink:title="A RealFunction class representing a constant function.">
<polygon fill="white" stroke="black" points="587.5,-95.5212 587.5,-114.521 703.5,-114.521 703.5,-95.5212 587.5,-95.5212"/>
<text text-anchor="middle" x="645.5" y="-102.521" font-family="Helvetica,sans-Serif" font-size="10.00">IG.Num.Func.Constant</text>
</a>
</g>
</g>
<!-- Node10&#45;&gt;Node14 -->
<g id="edge18" class="edge"><title>Node10&#45;&gt;Node14</title>
<path fill="none" stroke="midnightblue" d="M447.96,-365.618C467.336,-341.507 501.641,-295.931 522,-252.021 546.858,-198.408 515.02,-164.58 558,-124.021 566.051,-116.423 576.416,-111.596 587.156,-108.583"/>
<polygon fill="midnightblue" stroke="midnightblue" points="445.152,-363.524 441.55,-373.487 450.579,-367.945 445.152,-363.524"/>
</g>
<!-- Node15 -->
<g id="node15" class="node"><title>Node15</title>
<g id="a_node15"><a xlink:href="../../da/da5/classIG_1_1Num_1_1Func_1_1Exp.html" target="_top" xlink:title="A RealFunction class representing exponential function.">
<polygon fill="white" stroke="black" points="598,-639.521 598,-658.521 693,-658.521 693,-639.521 598,-639.521"/>
<text text-anchor="middle" x="645.5" y="-646.521" font-family="Helvetica,sans-Serif" font-size="10.00">IG.Num.Func.Exp</text>
</a>
</g>
</g>
<!-- Node10&#45;&gt;Node15 -->
<g id="edge20" class="edge"><title>Node10&#45;&gt;Node15</title>
<path fill="none" stroke="midnightblue" d="M471.473,-396.611C489.494,-404.971 509.724,-417.496 522,-435.021 572.564,-507.204 496.739,-566.663 558,-630.021 568.367,-640.743 583.296,-646.068 597.843,-648.546"/>
<polygon fill="midnightblue" stroke="midnightblue" points="472.87,-393.402 462.304,-392.615 470.073,-399.819 472.87,-393.402"/>
</g>
<!-- Node16 -->
<g id="node16" class="node"><title>Node16</title>
<g id="a_node16"><a xlink:href="../../d4/d1e/classIG_1_1Num_1_1Func_1_1Identity.html" target="_top" xlink:title="A RealFunction class representing identity (or linear) function.">
<polygon fill="white" stroke="black" points="591,-601.521 591,-620.521 700,-620.521 700,-601.521 591,-601.521"/>
<text text-anchor="middle" x="645.5" y="-608.521" font-family="Helvetica,sans-Serif" font-size="10.00">IG.Num.Func.Identity</text>
</a>
</g>
</g>
<!-- Node10&#45;&gt;Node16 -->
<g id="edge21" class="edge"><title>Node10&#45;&gt;Node16</title>
<path fill="none" stroke="midnightblue" d="M470.777,-396.659C488.811,-405.078 509.261,-417.641 522,-435.021 564.32,-492.762 507.147,-541.633 558,-592.021 566.847,-600.787 578.755,-605.908 590.901,-608.813"/>
<polygon fill="midnightblue" stroke="midnightblue" points="472.183,-393.454 461.62,-392.63 469.364,-399.861 472.183,-393.454"/>
</g>
<!-- Node17 -->
<g id="node17" class="node"><title>Node17</title>
<g id="a_node17"><a xlink:href="../../d8/ddb/classIG_1_1Num_1_1Func_1_1Linear.html" target="_top" xlink:title="Linear function, f(x) = a1*x + a0. Specific properties: Zero &#45; returns a zero. HasZero &#45; either the f...">
<polygon fill="white" stroke="black" points="593.5,-563.521 593.5,-582.521 697.5,-582.521 697.5,-563.521 593.5,-563.521"/>
<text text-anchor="middle" x="645.5" y="-570.521" font-family="Helvetica,sans-Serif" font-size="10.00">IG.Num.Func.Linear</text>
</a>
</g>
</g>
<!-- Node10&#45;&gt;Node17 -->
<g id="edge22" class="edge"><title>Node10&#45;&gt;Node17</title>
<path fill="none" stroke="midnightblue" d="M469.532,-396.673C487.614,-405.195 508.487,-417.848 522,-435.021 556.169,-478.446 517.443,-516.493 558,-554.021 567.593,-562.897 580.351,-567.974 593.116,-570.795"/>
<polygon fill="midnightblue" stroke="midnightblue" points="470.943,-393.47 460.384,-392.591 468.09,-399.863 470.943,-393.47"/>
</g>
<!-- Node18 -->
<g id="node18" class="node"><title>Node18</title>
<g id="a_node18"><a xlink:href="../../d7/d61/classIG_1_1Num_1_1Func_1_1Quadratic.html" target="_top" xlink:title="Quadratic function, f(x) = a2*x*x + a1*x + a0. Specific properties: Zero &#45; returns a zero....">
<polygon fill="white" stroke="black" points="586,-525.521 586,-544.521 705,-544.521 705,-525.521 586,-525.521"/>
<text text-anchor="middle" x="645.5" y="-532.521" font-family="Helvetica,sans-Serif" font-size="10.00">IG.Num.Func.Quadratic</text>
</a>
</g>
</g>
<!-- Node10&#45;&gt;Node18 -->
<g id="edge24" class="edge"><title>Node10&#45;&gt;Node18</title>
<path fill="none" stroke="midnightblue" d="M467.572,-396.845C485.654,-405.582 507.142,-418.382 522,-435.021 548.239,-464.407 527.476,-491.115 558,-516.021 565.982,-522.534 575.71,-526.939 585.725,-529.894"/>
<polygon fill="midnightblue" stroke="midnightblue" points="469.027,-393.661 458.48,-392.647 466.093,-400.017 469.027,-393.661"/>
</g>
<!-- Node19 -->
<g id="node19" class="node"><title>Node19</title>
<g id="a_node19"><a xlink:href="../../d0/dc0/classIG_1_1Num_1_1Func_1_1ReciprocalPower.html" target="_top" xlink:title="A RealFunction class representing a reciprocal power function.">
<polygon fill="white" stroke="black" points="570.5,-487.521 570.5,-506.521 720.5,-506.521 720.5,-487.521 570.5,-487.521"/>
<text text-anchor="middle" x="645.5" y="-494.521" font-family="Helvetica,sans-Serif" font-size="10.00">IG.Num.Func.ReciprocalPower</text>
</a>
</g>
</g>
<!-- Node10&#45;&gt;Node19 -->
<g id="edge25" class="edge"><title>Node10&#45;&gt;Node19</title>
<path fill="none" stroke="midnightblue" d="M463.043,-397.107C481.081,-406.474 504.048,-419.823 522,-435.021 541.023,-451.126 536.686,-465.1 558,-478.021 564.442,-481.927 571.588,-485.034 578.931,-487.504"/>
<polygon fill="midnightblue" stroke="midnightblue" points="464.615,-393.979 454.112,-392.583 461.451,-400.224 464.615,-393.979"/>
</g>
<!-- Node20 -->
<g id="node20" class="node"><title>Node20</title>
<g id="a_node20"><a xlink:href="../../d9/d61/classIG_1_1Num_1_1Func_1_1WeightGauss.html" target="_top" xlink:title="A RealFunction class representing bell like polynomial weighting function with finite support,...">
<polygon fill="white" stroke="black" points="577,-449.521 577,-468.521 714,-468.521 714,-449.521 577,-449.521"/>
<text text-anchor="middle" x="645.5" y="-456.521" font-family="Helvetica,sans-Serif" font-size="10.00">IG.Num.Func.WeightGauss</text>
</a>
</g>
</g>
<!-- Node10&#45;&gt;Node20 -->
<g id="edge26" class="edge"><title>Node10&#45;&gt;Node20</title>
<path fill="none" stroke="midnightblue" d="M460.272,-397.305C485.037,-410.023 523.17,-428.371 558,-440.021 568.936,-443.679 580.889,-446.824 592.323,-449.444"/>
<polygon fill="midnightblue" stroke="midnightblue" points="461.643,-394.073 451.156,-392.566 458.414,-400.284 461.643,-394.073"/>
</g>
<!-- Node21 -->
<g id="node21" class="node"><title>Node21</title>
<g id="a_node21"><a xlink:href="../../d5/d42/classIG_1_1Num_1_1Func_1_1WeightPol3.html" target="_top" xlink:title="A RealFunction class representing bell like polynomial weighting function with finite support....">
<polygon fill="white" stroke="black" points="581.5,-411.521 581.5,-430.521 709.5,-430.521 709.5,-411.521 581.5,-411.521"/>
<text text-anchor="middle" x="645.5" y="-418.521" font-family="Helvetica,sans-Serif" font-size="10.00">IG.Num.Func.WeightPol3</text>
</a>
</g>
</g>
<!-- Node10&#45;&gt;Node21 -->
<g id="edge27" class="edge"><title>Node10&#45;&gt;Node21</title>
<path fill="none" stroke="midnightblue" d="M496.505,-394.368C526.779,-399.82 562.658,-406.282 591.506,-411.477"/>
<polygon fill="midnightblue" stroke="midnightblue" points="496.934,-390.889 486.472,-392.561 495.693,-397.778 496.934,-390.889"/>
</g>
<!-- Node22 -->
<g id="node22" class="node"><title>Node22</title>
<g id="a_node22"><a xlink:href="../../da/d50/classIG_1_1Num_1_1Func_1_1WeightPol4.html" target="_top" xlink:title="A RealFunction class representing bell like polynomial weighting function with finite support,...">
<polygon fill="white" stroke="black" points="581.5,-373.521 581.5,-392.521 709.5,-392.521 709.5,-373.521 581.5,-373.521"/>
<text text-anchor="middle" x="645.5" y="-380.521" font-family="Helvetica,sans-Serif" font-size="10.00">IG.Num.Func.WeightPol4</text>
</a>
</g>
</g>
<!-- Node10&#45;&gt;Node22 -->
<g id="edge28" class="edge"><title>Node10&#45;&gt;Node22</title>
<path fill="none" stroke="midnightblue" d="M497.864,-383.021C524.32,-383.021 554.868,-383.021 581.212,-383.021"/>
<polygon fill="midnightblue" stroke="midnightblue" points="497.564,-379.521 487.564,-383.021 497.564,-386.521 497.564,-379.521"/>
</g>
<!-- Node23 -->
<g id="node23" class="node"><title>Node23</title>
<g id="a_node23"><a xlink:href="../../d1/d27/classIG_1_1Num_1_1Func_1_1WeightPol5.html" target="_top" xlink:title="A RealFunction class representing bell like polynomial weighting function with finite support,...">
<polygon fill="white" stroke="black" points="581.5,-335.521 581.5,-354.521 709.5,-354.521 709.5,-335.521 581.5,-335.521"/>
<text text-anchor="middle" x="645.5" y="-342.521" font-family="Helvetica,sans-Serif" font-size="10.00">IG.Num.Func.WeightPol5</text>
</a>
</g>
</g>
<!-- Node10&#45;&gt;Node23 -->
<g id="edge29" class="edge"><title>Node10&#45;&gt;Node23</title>
<path fill="none" stroke="midnightblue" d="M496.505,-371.674C526.779,-366.222 562.658,-359.761 591.506,-354.565"/>
<polygon fill="midnightblue" stroke="midnightblue" points="495.693,-368.264 486.472,-373.481 496.934,-375.153 495.693,-368.264"/>
</g>
<!-- Node24 -->
<g id="node24" class="node"><title>Node24</title>
<g id="a_node24"><a xlink:href="../../df/d14/classIG_1_1Num_1_1Func_1_1WeightPol7.html" target="_top" xlink:title="A RealFunction class representing bell like polynomial weighting function with finite support,...">
<polygon fill="white" stroke="black" points="581.5,-297.521 581.5,-316.521 709.5,-316.521 709.5,-297.521 581.5,-297.521"/>
<text text-anchor="middle" x="645.5" y="-304.521" font-family="Helvetica,sans-Serif" font-size="10.00">IG.Num.Func.WeightPol7</text>
</a>
</g>
</g>
<!-- Node10&#45;&gt;Node24 -->
<g id="edge30" class="edge"><title>Node10&#45;&gt;Node24</title>
<path fill="none" stroke="midnightblue" d="M460.272,-368.738C485.037,-356.019 523.17,-337.671 558,-326.021 568.936,-322.363 580.889,-319.218 592.323,-316.599"/>
<polygon fill="midnightblue" stroke="midnightblue" points="458.414,-365.759 451.156,-373.476 461.643,-371.97 458.414,-365.759"/>
</g>
<!-- Node25 -->
<g id="node25" class="node"><title>Node25</title>
<g id="a_node25"><a xlink:href="../../d4/d40/classIG_1_1Num_1_1Func_1_1WeightReciprocalPower.html" target="_top" xlink:title="A RealFunction class representing bell like polynomial weighting function with finite support,...">
<polygon fill="white" stroke="black" points="568.5,-248.021 568.5,-278.021 722.5,-278.021 722.5,-248.021 568.5,-248.021"/>
<text text-anchor="start" x="576.5" y="-266.021" font-family="Helvetica,sans-Serif" font-size="10.00">IG.Num.Func.WeightReciprocal</text>
<text text-anchor="middle" x="645.5" y="-255.021" font-family="Helvetica,sans-Serif" font-size="10.00">Power</text>
</a>
</g>
</g>
<!-- Node10&#45;&gt;Node25 -->
<g id="edge31" class="edge"><title>Node10&#45;&gt;Node25</title>
<path fill="none" stroke="midnightblue" d="M450.762,-366.455C473.577,-345.405 515.828,-309.262 558,-288.021 565.539,-284.224 573.746,-280.916 582.004,-278.061"/>
<polygon fill="midnightblue" stroke="midnightblue" points="448.177,-364.081 443.272,-373.472 452.963,-369.189 448.177,-364.081"/>
</g>
<!-- Node26 -->
<g id="node26" class="node"><title>Node26</title>
<g id="a_node26"><a xlink:href="../../d6/d03/classIG_1_1Num_1_1FunctionPolynomial.html" target="_top" xlink:title="Polynomial real functions of one variable.">
<polygon fill="white" stroke="black" points="576.5,-209.521 576.5,-228.521 714.5,-228.521 714.5,-209.521 576.5,-209.521"/>
<text text-anchor="middle" x="645.5" y="-216.521" font-family="Helvetica,sans-Serif" font-size="10.00">IG.Num.FunctionPolynomial</text>
</a>
</g>
</g>
<!-- Node10&#45;&gt;Node26 -->
<g id="edge32" class="edge"><title>Node10&#45;&gt;Node26</title>
<path fill="none" stroke="midnightblue" d="M443.946,-364.382C462.552,-333.013 504.547,-269.973 558,-238.021 564.467,-234.156 571.627,-231.074 578.978,-228.617"/>
<polygon fill="midnightblue" stroke="midnightblue" points="440.721,-362.966 438.742,-373.374 446.78,-366.472 440.721,-362.966"/>
</g>
<!-- Node12 -->
<g id="node12" class="node"><title>Node12</title>
<g id="a_node12"><a xlink:href="../../d5/d44/classIG_1_1Script_1_1ScritpRealFunctionExample_1_1Container_1_1Function.html" target="_top" xlink:title=" ">
<polygon fill="white" stroke="black" points="769,-166.021 769,-196.021 909,-196.021 909,-166.021 769,-166.021"/>
<text text-anchor="start" x="777" y="-184.021" font-family="Helvetica,sans-Serif" font-size="10.00">IG.Script.ScritpRealFunction</text>
<text text-anchor="middle" x="839" y="-173.021" font-family="Helvetica,sans-Serif" font-size="10.00">Example.Container.Function</text>
</a>
</g>
</g>
<!-- Node11&#45;&gt;Node12 -->
<g id="edge16" class="edge"><title>Node11&#45;&gt;Node12</title>
<path fill="none" stroke="midnightblue" d="M738.016,-181.021C748.359,-181.021 758.768,-181.021 768.758,-181.021"/>
<polygon fill="midnightblue" stroke="midnightblue" points="737.713,-177.521 727.713,-181.021 737.713,-184.521 737.713,-177.521"/>
</g>
<!-- Node27&#45;&gt;Node8 -->
<g id="edge35" class="edge"><title>Node27&#45;&gt;Node8</title>
<path fill="none" stroke="midnightblue" d="M284.275,-149.925C291.977,-147.848 299.733,-145.538 307,-143.021 346.086,-129.484 389.555,-108.017 413.393,-95.6526"/>
<polygon fill="midnightblue" stroke="midnightblue" points="283.395,-146.538 274.589,-152.429 285.147,-153.315 283.395,-146.538"/>
</g>
<!-- Node27&#45;&gt;Node10 -->
<g id="edge34" class="edge"><title>Node27&#45;&gt;Node10</title>
<path fill="none" stroke="midnightblue" d="M244.481,-179.419C285.083,-223.621 391.21,-339.158 422.619,-373.353"/>
<polygon fill="midnightblue" stroke="midnightblue" points="246.827,-176.799 237.485,-171.802 241.672,-181.535 246.827,-176.799"/>
</g>
</g>
</svg>
        <g id="navigator" transform="translate(0 0)" fill="#404254">
                <rect fill="#f2f5e9" fill-opacity="0.5" stroke="#606060" stroke-width=".5" x="0" y="0" width="60" height="60"/>
                <use id="zoomplus" xlink:href="#zoomPlus" x="17" y="9" onmousedown="handleZoom(evt,'in')"/>
                <use id="zoomminus" xlink:href="#zoomMin" x="42" y="9" onmousedown="handleZoom(evt,'out')"/>
                <use id="reset" xlink:href="#resetDef" x="30" y="36" onmousedown="handleReset()"/>
                <g id="arrowUp" xlink:href="#dirArrow" transform="translate(30 24)" onmousedown="handlePan(0,-1)">
                  <use xlink:href="#rim" fill="#404040">
                        <set attributeName="fill" to="#808080" begin="arrowUp.mouseover" end="arrowUp.mouseout"/>
                  </use>
                  <path fill="none" stroke="white" stroke-width="1.5" d="M0,-3.0v7 M-2.5,-0.5L0,-3.0L2.5,-0.5"/>
                </g>
                <g id="arrowRight" xlink:href="#dirArrow" transform="rotate(90) translate(36 -43)" onmousedown="handlePan(1,0)">
                  <use xlink:href="#rim" fill="#404040">
                        <set attributeName="fill" to="#808080" begin="arrowRight.mouseover" end="arrowRight.mouseout"/>
                  </use>
                  <path fill="none" stroke="white" stroke-width="1.5" d="M0,-3.0v7 M-2.5,-0.5L0,-3.0L2.5,-0.5"/>
                </g>
                <g id="arrowDown" xlink:href="#dirArrow" transform="rotate(180) translate(-30 -48)" onmousedown="handlePan(0,1)">
                  <use xlink:href="#rim" fill="#404040">
                        <set attributeName="fill" to="#808080" begin="arrowDown.mouseover" end="arrowDown.mouseout"/>
                  </use>
                  <path fill="none" stroke="white" stroke-width="1.5" d="M0,-3.0v7 M-2.5,-0.5L0,-3.0L2.5,-0.5"/>
                </g>
                <g id="arrowLeft" xlink:href="#dirArrow" transform="rotate(270) translate(-36 17)" onmousedown="handlePan(-1,0)">
                  <use xlink:href="#rim" fill="#404040">
                        <set attributeName="fill" to="#808080" begin="arrowLeft.mouseover" end="arrowLeft.mouseout"/>
                  </use>
                  <path fill="none" stroke="white" stroke-width="1.5" d="M0,-3.0v7 M-2.5,-0.5L0,-3.0L2.5,-0.5"/>
                </g>
        </g>
        <svg viewBox="0 0 15 15" width="100%" height="30px" preserveAspectRatio="xMaxYMin meet">
         <g id="arrow_out" transform="scale(0.3 0.3)">
          <a xlink:href="interfaceIG_1_1Num_1_1IRealFunction__inherit__graph_org.svg" target="_base">
           <rect id="button" ry="5" rx="5" y="6" x="6" height="38" width="38"
                fill="#f2f5e9" fill-opacity="0.5" stroke="#606060" stroke-width="1.0"/>
           <path id="arrow"
             d="M 11.500037,31.436501 C 11.940474,20.09759 22.043105,11.32322 32.158766,21.979434 L 37.068811,17.246167 C 37.068811,17.246167 37.088388,32 37.088388,32 L 22.160133,31.978069 C 22.160133,31.978069 26.997745,27.140456 26.997745,27.140456 C 18.528582,18.264221 13.291696,25.230495 11.500037,31.436501 z"
             style="fill:#404040;"/>
          </a>
         </g>
        </svg>
</svg>
