<?xml version="1.0" encoding="UTF-8" standalone="no"?>
<!DOCTYPE svg PUBLIC "-//W3C//DTD SVG 1.1//EN"
 "http://www.w3.org/Graphics/SVG/1.1/DTD/svg11.dtd">
<!-- Generated by graphviz version 2.38.0 (20140413.2041)
 -->
<!-- Title: IG.Neural.MapDataDefinitionDto Pages: 1 -->
<svg width="598pt" height="151pt"
 viewBox="0.00 0.00 598.00 150.50" xmlns="http://www.w3.org/2000/svg" xmlns:xlink="http://www.w3.org/1999/xlink">
<g id="graph0" class="graph" transform="scale(1 1) rotate(0) translate(4 146.5)">
<title>IG.Neural.MapDataDefinitionDto</title>
<polygon fill="white" stroke="none" points="-4,4 -4,-146.5 594,-146.5 594,4 -4,4"/>
<!-- Node1 -->
<g id="node1" class="node"><title>Node1</title>
<g id="a_node1"><a xlink:title=" ">
<polygon fill="#bfbfbf" stroke="black" points="436,-68.5 436,-87.5 590,-87.5 590,-68.5 436,-68.5"/>
<text text-anchor="middle" x="513" y="-75.5" font-family="Helvetica,sans-Serif" font-size="10.00">IG.Neural.MapDataDefinitionDto</text>
</a>
</g>
</g>
<!-- Node2 -->
<g id="node2" class="node"><title>Node2</title>
<g id="a_node2"><a xlink:href="../../da/d46/classIG_1_1Lib_1_1SerializationDto.html" target="_top" xlink:title=" ">
<polygon fill="white" stroke="black" points="229.5,-112 229.5,-142 360.5,-142 360.5,-112 229.5,-112"/>
<text text-anchor="start" x="237.5" y="-130" font-family="Helvetica,sans-Serif" font-size="10.00">SerializationDto&lt; Mapping</text>
<text text-anchor="middle" x="295" y="-119" font-family="Helvetica,sans-Serif" font-size="10.00">Definition &gt;</text>
</a>
</g>
</g>
<!-- Node2&#45;&gt;Node1 -->
<g id="edge1" class="edge"><title>Node2&#45;&gt;Node1</title>
<path fill="none" stroke="midnightblue" d="M370.661,-110.063C403.888,-102.525 441.783,-93.9288 469.965,-87.5357"/>
<polygon fill="midnightblue" stroke="midnightblue" points="369.492,-106.739 360.515,-112.365 371.041,-113.566 369.492,-106.739"/>
</g>
<!-- Node3 -->
<g id="node3" class="node"><title>Node3</title>
<g id="a_node3"><a xlink:href="../../da/d0a/classIG_1_1Neural_1_1MapImputElementDefinitionDto.html" target="_top" xlink:title="DTO (data transfer object) for neural data input element mapping definition.">
<polygon fill="white" stroke="black" points="225.5,-63 225.5,-93 364.5,-93 364.5,-63 225.5,-63"/>
<text text-anchor="start" x="233.5" y="-81" font-family="Helvetica,sans-Serif" font-size="10.00">IG.Neural.MapImputElement</text>
<text text-anchor="middle" x="295" y="-70" font-family="Helvetica,sans-Serif" font-size="10.00">DefinitionDto</text>
</a>
</g>
</g>
<!-- Node3&#45;&gt;Node1 -->
<g id="edge2" class="edge"><title>Node3&#45;&gt;Node1</title>
<path fill="none" stroke="#9a32cd" stroke-dasharray="5,2" d="M374.868,-78C394.702,-78 415.954,-78 435.662,-78"/>
<polygon fill="#9a32cd" stroke="#9a32cd" points="374.641,-74.5001 364.641,-78 374.641,-81.5001 374.641,-74.5001"/>
<text text-anchor="middle" x="401.5" y="-81" font-family="Helvetica,sans-Serif" font-size="10.00"> Input</text>
</g>
<!-- Node4 -->
<g id="node4" class="node"><title>Node4</title>
<g id="a_node4"><a xlink:href="../../da/db9/classIG_1_1Neural_1_1MapNeuralImputOutputElementDefinitionDto.html" target="_top" xlink:title=" ">
<polygon fill="white" stroke="black" points="4,-60.5 4,-101.5 182,-101.5 182,-60.5 4,-60.5"/>
<text text-anchor="start" x="12" y="-89.5" font-family="Helvetica,sans-Serif" font-size="10.00">MapNeuralImputOutputElement</text>
<text text-anchor="start" x="12" y="-78.5" font-family="Helvetica,sans-Serif" font-size="10.00">DefinitionDto&lt; InputMappingDefinition</text>
<text text-anchor="middle" x="93" y="-67.5" font-family="Helvetica,sans-Serif" font-size="10.00">Element &gt;</text>
</a>
</g>
</g>
<!-- Node4&#45;&gt;Node3 -->
<g id="edge3" class="edge"><title>Node4&#45;&gt;Node3</title>
<path fill="none" stroke="midnightblue" d="M192.297,-79.5255C203.521,-79.3572 214.773,-79.1884 225.488,-79.0277"/>
<polygon fill="midnightblue" stroke="midnightblue" points="191.96,-76.0301 182.014,-79.6798 192.065,-83.0293 191.96,-76.0301"/>
</g>
<!-- Node5 -->
<g id="node5" class="node"><title>Node5</title>
<g id="a_node5"><a xlink:href="../../de/de5/classIG_1_1Neural_1_1MapOutputElementDefinitionDto.html" target="_top" xlink:title="DTO (data transfer object) for neural data output element mapping definition.">
<polygon fill="white" stroke="black" points="223,-11 223,-41 367,-41 367,-11 223,-11"/>
<text text-anchor="start" x="231" y="-29" font-family="Helvetica,sans-Serif" font-size="10.00">IG.Neural.MapOutputElement</text>
<text text-anchor="middle" x="295" y="-18" font-family="Helvetica,sans-Serif" font-size="10.00">DefinitionDto</text>
</a>
</g>
</g>
<!-- Node5&#45;&gt;Node1 -->
<g id="edge4" class="edge"><title>Node5&#45;&gt;Node1</title>
<path fill="none" stroke="#9a32cd" stroke-dasharray="5,2" d="M368.575,-43.4719C403.275,-51.8254 443.46,-61.4996 472.451,-68.4789"/>
<polygon fill="#9a32cd" stroke="#9a32cd" points="369.018,-39.9784 358.476,-41.0406 367.379,-46.784 369.018,-39.9784"/>
<text text-anchor="middle" x="401.5" y="-58" font-family="Helvetica,sans-Serif" font-size="10.00"> Output</text>
</g>
<!-- Node6 -->
<g id="node6" class="node"><title>Node6</title>
<g id="a_node6"><a xlink:href="../../da/db9/classIG_1_1Neural_1_1MapNeuralImputOutputElementDefinitionDto.html" target="_top" xlink:title=" ">
<polygon fill="white" stroke="black" points="0,-0.5 0,-41.5 186,-41.5 186,-0.5 0,-0.5"/>
<text text-anchor="start" x="8" y="-29.5" font-family="Helvetica,sans-Serif" font-size="10.00">MapNeuralImputOutputElement</text>
<text text-anchor="start" x="8" y="-18.5" font-family="Helvetica,sans-Serif" font-size="10.00">DefinitionDto&lt; OutputMappingDefinition</text>
<text text-anchor="middle" x="93" y="-7.5" font-family="Helvetica,sans-Serif" font-size="10.00">Element &gt;</text>
</a>
</g>
</g>
<!-- Node6&#45;&gt;Node5 -->
<g id="edge5" class="edge"><title>Node6&#45;&gt;Node5</title>
<path fill="none" stroke="midnightblue" d="M196.21,-23.5552C205.171,-23.7793 214.109,-24.0027 222.735,-24.2184"/>
<polygon fill="midnightblue" stroke="midnightblue" points="196.182,-20.0535 186.097,-23.3024 196.007,-27.0514 196.182,-20.0535"/>
</g>
</g>
</svg>
