<?xml version="1.0" encoding="UTF-8" standalone="no"?>
<!DOCTYPE svg PUBLIC "-//W3C//DTD SVG 1.1//EN"
 "http://www.w3.org/Graphics/SVG/1.1/DTD/svg11.dtd">
<!-- Generated by graphviz version 2.38.0 (20140413.2041)
 -->
<!-- Title: IG.Num.Func3d2dBaseNoGradient Pages: 1 -->
<!--zoomable 725 -->
<svg id="main" version="1.1" xmlns="http://www.w3.org/2000/svg" xmlns:xlink="http://www.w3.org/1999/xlink" xml:space="preserve" onload="init(evt)">
<style type="text/css"><![CDATA[
.edge:hover path { stroke: red; }
.edge:hover polygon { stroke: red; fill: red; }
]]></style>
<script type="text/javascript"><![CDATA[
var edges = document.getElementsByTagName('g');
if (edges && edges.length) {
  for (var i=0;i<edges.length;i++) {
    if (edges[i].id.substr(0,4)=='edge') {
      edges[i].setAttribute('class','edge');
    }
  }
}
]]></script>
        <defs>
                <circle id="rim" cx="0" cy="0" r="7"/>
                <circle id="rim2" cx="0" cy="0" r="3.5"/>
                <g id="zoomPlus">
                        <use xlink:href="#rim" fill="#404040">
                                <set attributeName="fill" to="#808080" begin="zoomplus.mouseover" end="zoomplus.mouseout"/>
                        </use>
                        <path d="M-4,0h8M0,-4v8" fill="none" stroke="white" stroke-width="1.5" pointer-events="none"/>
                </g>
                <g id="zoomMin">
                        <use xlink:href="#rim" fill="#404040">
                                <set attributeName="fill" to="#808080" begin="zoomminus.mouseover" end="zoomminus.mouseout"/>
                        </use>
                        <path d="M-4,0h8" fill="none" stroke="white" stroke-width="1.5" pointer-events="none"/>
                </g>
                <g id="dirArrow">
                        <path fill="none" stroke="white" stroke-width="1.5" d="M0,-3.0v7 M-2.5,-0.5L0,-3.0L2.5,-0.5"/>
                </g>
               <g id="resetDef">
                       <use xlink:href="#rim2" fill="#404040">
                               <set attributeName="fill" to="#808080" begin="reset.mouseover" end="reset.mouseout"/>
                       </use>
               </g>
        </defs>

<script type="text/javascript">
var viewWidth = 975;
var viewHeight = 725;
var sectionId = 'dynsection-0';
</script>
<script xlink:href="../../svgpan.js"/>
<svg id="graph" class="graph">
<g id="viewport">
<title>IG.Num.Func3d2dBaseNoGradient</title>
<polygon fill="white" stroke="none" points="-4,4 -4,-721 971,-721 971,4 -4,4"/>
<!-- Node1 -->
<g id="node1" class="node"><title>Node1</title>
<g id="a_node1"><a xlink:title="Base class for 3D vector functions of 2 variables (implementations of the IFunc3d2d interface) that d...">
<polygon fill="#bfbfbf" stroke="black" points="216,-349 216,-368 383,-368 383,-349 216,-349"/>
<text text-anchor="middle" x="299.5" y="-356" font-family="Helvetica,sans-Serif" font-size="10.00">IG.Num.Func3d2dBaseNoGradient</text>
</a>
</g>
</g>
<!-- Node4 -->
<g id="node4" class="node"><title>Node4</title>
<g id="a_node4"><a xlink:href="../../d0/d54/classIG_1_1Num_1_1Func3d2dExamples_1_1ParametricSurface.html" target="_top" xlink:title="Base class for easy definition of parametric surfaces intended for plotting.">
<polygon fill="white" stroke="black" points="419,-343.5 419,-373.5 561,-373.5 561,-343.5 419,-343.5"/>
<text text-anchor="start" x="427" y="-361.5" font-family="Helvetica,sans-Serif" font-size="10.00">IG.Num.Func3d2dExamples.</text>
<text text-anchor="middle" x="490" y="-350.5" font-family="Helvetica,sans-Serif" font-size="10.00">ParametricSurface</text>
</a>
</g>
</g>
<!-- Node1&#45;&gt;Node4 -->
<g id="edge4" class="edge"><title>Node1&#45;&gt;Node4</title>
<path fill="none" stroke="midnightblue" d="M393.237,-358.5C401.825,-358.5 410.431,-358.5 418.768,-358.5"/>
<polygon fill="midnightblue" stroke="midnightblue" points="393.179,-355 383.179,-358.5 393.179,-362 393.179,-355"/>
</g>
<!-- Node2 -->
<g id="node2" class="node"><title>Node2</title>
<g id="a_node2"><a xlink:href="../../df/d0e/classIG_1_1Num_1_1Func3d2dBase.html" target="_top" xlink:title="Base class for 3D vector functions of 2 variables (base for implementation of IFunc3d2d interface).">
<polygon fill="white" stroke="black" points="98,-330 98,-349 180,-349 180,-330 98,-330"/>
<text text-anchor="middle" x="139" y="-337" font-family="Helvetica,sans-Serif" font-size="10.00">Func3d2dBase</text>
</a>
</g>
</g>
<!-- Node2&#45;&gt;Node1 -->
<g id="edge1" class="edge"><title>Node2&#45;&gt;Node1</title>
<path fill="none" stroke="midnightblue" d="M190.425,-345.545C199.548,-346.638 209.262,-347.803 218.981,-348.968"/>
<polygon fill="midnightblue" stroke="midnightblue" points="190.752,-342.059 180.406,-344.344 189.919,-349.009 190.752,-342.059"/>
</g>
<!-- Node3 -->
<g id="node3" class="node"><title>Node3</title>
<g id="a_node3"><a xlink:href="../../d3/d6f/interfaceIG_1_1Num_1_1IFunc3d2d.html" target="_top" xlink:title="Represents 3D vector functions of 2 variables.">
<polygon fill="white" stroke="black" points="0,-349 0,-368 62,-368 62,-349 0,-349"/>
<text text-anchor="middle" x="31" y="-356" font-family="Helvetica,sans-Serif" font-size="10.00">IFunc3d2d</text>
</a>
</g>
</g>
<!-- Node3&#45;&gt;Node1 -->
<g id="edge3" class="edge"><title>Node3&#45;&gt;Node1</title>
<path fill="none" stroke="midnightblue" d="M72.1805,-358.5C110.061,-358.5 167.987,-358.5 215.752,-358.5"/>
<polygon fill="midnightblue" stroke="midnightblue" points="72.0529,-355 62.0529,-358.5 72.0529,-362 72.0529,-355"/>
</g>
<!-- Node3&#45;&gt;Node2 -->
<g id="edge2" class="edge"><title>Node3&#45;&gt;Node2</title>
<path fill="none" stroke="midnightblue" d="M72.1085,-351.311C80.5611,-349.796 89.4795,-348.197 97.9307,-346.682"/>
<polygon fill="midnightblue" stroke="midnightblue" points="71.3174,-347.897 62.0918,-353.106 72.5525,-354.787 71.3174,-347.897"/>
</g>
<!-- Node5 -->
<g id="node5" class="node"><title>Node5</title>
<g id="a_node5"><a xlink:href="../../d2/dff/classIG_1_1Num_1_1Func3d2dExamples_1_1CylinderParametric.html" target="_top" xlink:title="Parametric equation of an origin&#45;centered (ellipsoidal) cylindrical surface in form of 3D vector func...">
<polygon fill="white" stroke="black" points="597,-686.5 597,-716.5 739,-716.5 739,-686.5 597,-686.5"/>
<text text-anchor="start" x="605" y="-704.5" font-family="Helvetica,sans-Serif" font-size="10.00">IG.Num.Func3d2dExamples.</text>
<text text-anchor="middle" x="668" y="-693.5" font-family="Helvetica,sans-Serif" font-size="10.00">CylinderParametric</text>
</a>
</g>
</g>
<!-- Node4&#45;&gt;Node5 -->
<g id="edge5" class="edge"><title>Node4&#45;&gt;Node5</title>
<path fill="none" stroke="midnightblue" d="M492.062,-383.558C495.931,-442.953 513.873,-593.581 597,-677.5 600.436,-680.968 604.394,-683.936 608.643,-686.475"/>
<polygon fill="midnightblue" stroke="midnightblue" points="495.556,-383.351 491.491,-373.567 488.568,-383.75 495.556,-383.351"/>
</g>
<!-- Node6 -->
<g id="node6" class="node"><title>Node6</title>
<g id="a_node6"><a xlink:href="../../de/d46/classIG_1_1Num_1_1Func3d2dExamples_1_1EllipsoidParametric.html" target="_top" xlink:title="Parametric equation of an origin&#45;centered ellipsoid surface in form of 3D vector function of 2 variab...">
<polygon fill="white" stroke="black" points="597,-637.5 597,-667.5 739,-667.5 739,-637.5 597,-637.5"/>
<text text-anchor="start" x="605" y="-655.5" font-family="Helvetica,sans-Serif" font-size="10.00">IG.Num.Func3d2dExamples.</text>
<text text-anchor="middle" x="668" y="-644.5" font-family="Helvetica,sans-Serif" font-size="10.00">EllipsoidParametric</text>
</a>
</g>
</g>
<!-- Node4&#45;&gt;Node6 -->
<g id="edge6" class="edge"><title>Node4&#45;&gt;Node6</title>
<path fill="none" stroke="midnightblue" d="M493.877,-383.992C501.197,-437.008 525.336,-559.909 597,-628.5 600.62,-631.964 604.761,-634.93 609.181,-637.469"/>
<polygon fill="midnightblue" stroke="midnightblue" points="497.311,-383.254 492.559,-373.785 490.368,-384.151 497.311,-383.254"/>
</g>
<!-- Node9 -->
<g id="node9" class="node"><title>Node9</title>
<g id="a_node9"><a xlink:href="../../de/d49/classIG_1_1Num_1_1Func3d2dExamples_1_1EnneperSurface.html" target="_top" xlink:title="Parametric equation of the Enneper surface, in form of 3D vector function of 2 variables.">
<polygon fill="white" stroke="black" points="597,-588.5 597,-618.5 739,-618.5 739,-588.5 597,-588.5"/>
<text text-anchor="start" x="605" y="-606.5" font-family="Helvetica,sans-Serif" font-size="10.00">IG.Num.Func3d2dExamples.</text>
<text text-anchor="middle" x="668" y="-595.5" font-family="Helvetica,sans-Serif" font-size="10.00">EnneperSurface</text>
</a>
</g>
</g>
<!-- Node4&#45;&gt;Node9 -->
<g id="edge9" class="edge"><title>Node4&#45;&gt;Node9</title>
<path fill="none" stroke="midnightblue" d="M496.255,-383.437C507.102,-428.874 536.214,-525.436 597,-579.5 600.84,-582.915 605.189,-585.849 609.794,-588.369"/>
<polygon fill="midnightblue" stroke="midnightblue" points="499.634,-382.51 493.992,-373.543 492.81,-384.071 499.634,-382.51"/>
</g>
<!-- Node10 -->
<g id="node10" class="node"><title>Node10</title>
<g id="a_node10"><a xlink:href="../../d5/dc2/classIG_1_1Num_1_1Func3d2dExamples_1_1HyperboloidParametric.html" target="_top" xlink:title="Parametric definition of an origin&#45;centered hyperboloid surface (x^2/a^2+y^2/b^2&#45;z^2/c^2=1) in form o...">
<polygon fill="white" stroke="black" points="597,-539.5 597,-569.5 739,-569.5 739,-539.5 597,-539.5"/>
<text text-anchor="start" x="605" y="-557.5" font-family="Helvetica,sans-Serif" font-size="10.00">IG.Num.Func3d2dExamples.</text>
<text text-anchor="middle" x="668" y="-546.5" font-family="Helvetica,sans-Serif" font-size="10.00">HyperboloidParametric</text>
</a>
</g>
</g>
<!-- Node4&#45;&gt;Node10 -->
<g id="edge10" class="edge"><title>Node4&#45;&gt;Node10</title>
<path fill="none" stroke="midnightblue" d="M499.866,-383.097C514.47,-420.246 547.039,-490.56 597,-530.5 601.315,-533.95 606.155,-536.917 611.223,-539.468"/>
<polygon fill="midnightblue" stroke="midnightblue" points="503.058,-381.646 496.223,-373.551 496.518,-384.142 503.058,-381.646"/>
</g>
<!-- Node15 -->
<g id="node15" class="node"><title>Node15</title>
<g id="a_node15"><a xlink:href="../../df/d5f/classIG_1_1Num_1_1Func3d2dExamples_1_1HyperboloidParametric2.html" target="_top" xlink:title="Alternative parametric definition of an origin&#45;centered hyperboloid surface (x^2/a^2+y^2/b^2&#45;z^2/c^2=...">
<polygon fill="white" stroke="black" points="597,-490.5 597,-520.5 739,-520.5 739,-490.5 597,-490.5"/>
<text text-anchor="start" x="605" y="-508.5" font-family="Helvetica,sans-Serif" font-size="10.00">IG.Num.Func3d2dExamples.</text>
<text text-anchor="middle" x="668" y="-497.5" font-family="Helvetica,sans-Serif" font-size="10.00">HyperboloidParametric2</text>
</a>
</g>
</g>
<!-- Node4&#45;&gt;Node15 -->
<g id="edge15" class="edge"><title>Node4&#45;&gt;Node15</title>
<path fill="none" stroke="midnightblue" d="M505.766,-382.257C524.024,-409.799 557.566,-454.816 597,-481.5 602.001,-484.884 607.525,-487.834 613.212,-490.396"/>
<polygon fill="midnightblue" stroke="midnightblue" points="508.552,-380.122 500.173,-373.638 502.68,-383.932 508.552,-380.122"/>
</g>
<!-- Node16 -->
<g id="node16" class="node"><title>Node16</title>
<g id="a_node16"><a xlink:href="../../db/de8/classIG_1_1Num_1_1Func3d2dExamples_1_1KleinBottle.html" target="_top" xlink:title="Defines the Klein&#39;s bottle (a parametric surface), a closed surface with no interior and exterior.">
<polygon fill="white" stroke="black" points="597,-441.5 597,-471.5 739,-471.5 739,-441.5 597,-441.5"/>
<text text-anchor="start" x="605" y="-459.5" font-family="Helvetica,sans-Serif" font-size="10.00">IG.Num.Func3d2dExamples.</text>
<text text-anchor="middle" x="668" y="-448.5" font-family="Helvetica,sans-Serif" font-size="10.00">KleinBottle</text>
</a>
</g>
</g>
<!-- Node4&#45;&gt;Node16 -->
<g id="edge16" class="edge"><title>Node4&#45;&gt;Node16</title>
<path fill="none" stroke="midnightblue" d="M517.13,-379.855C537.823,-395.976 567.98,-417.763 597,-432.5 603.415,-435.757 610.373,-438.738 617.329,-441.407"/>
<polygon fill="midnightblue" stroke="midnightblue" points="519.16,-376.999 509.143,-373.548 514.822,-382.492 519.16,-376.999"/>
</g>
<!-- Node17 -->
<g id="node17" class="node"><title>Node17</title>
<g id="a_node17"><a xlink:href="../../d2/d37/classIG_1_1Num_1_1Func3d2dExamples_1_1KleinBottle1.html" target="_top" xlink:title="Defines the Klein&#39;s bottle (a parametric surface), a closed surface with no interior and exterior.">
<polygon fill="white" stroke="black" points="597,-392.5 597,-422.5 739,-422.5 739,-392.5 597,-392.5"/>
<text text-anchor="start" x="605" y="-410.5" font-family="Helvetica,sans-Serif" font-size="10.00">IG.Num.Func3d2dExamples.</text>
<text text-anchor="middle" x="668" y="-399.5" font-family="Helvetica,sans-Serif" font-size="10.00">KleinBottle1</text>
</a>
</g>
</g>
<!-- Node4&#45;&gt;Node17 -->
<g id="edge17" class="edge"><title>Node4&#45;&gt;Node17</title>
<path fill="none" stroke="midnightblue" d="M555.011,-376.321C574.014,-381.612 594.632,-387.352 612.937,-392.448"/>
<polygon fill="midnightblue" stroke="midnightblue" points="555.814,-372.912 545.242,-373.601 553.937,-379.655 555.814,-372.912"/>
</g>
<!-- Node18 -->
<g id="node18" class="node"><title>Node18</title>
<g id="a_node18"><a xlink:href="../../d6/d09/classIG_1_1Num_1_1Func3d2dExamples_1_1KleinBottle2.html" target="_top" xlink:title="Defines the Klein&#39;s bottle (a parametric surface), a closed surface with no interior and exterior.">
<polygon fill="white" stroke="black" points="597,-343.5 597,-373.5 739,-373.5 739,-343.5 597,-343.5"/>
<text text-anchor="start" x="605" y="-361.5" font-family="Helvetica,sans-Serif" font-size="10.00">IG.Num.Func3d2dExamples.</text>
<text text-anchor="middle" x="668" y="-350.5" font-family="Helvetica,sans-Serif" font-size="10.00">KleinBottle2</text>
</a>
</g>
</g>
<!-- Node4&#45;&gt;Node18 -->
<g id="edge18" class="edge"><title>Node4&#45;&gt;Node18</title>
<path fill="none" stroke="midnightblue" d="M571.101,-358.5C579.706,-358.5 588.412,-358.5 596.888,-358.5"/>
<polygon fill="midnightblue" stroke="midnightblue" points="571.066,-355 561.066,-358.5 571.066,-362 571.066,-355"/>
</g>
<!-- Node19 -->
<g id="node19" class="node"><title>Node19</title>
<g id="a_node19"><a xlink:href="../../d0/d6c/classIG_1_1Num_1_1Func3d2dExamples_1_1SnailConicSpiral__ToCheck.html" target="_top" xlink:title="Defines a parametric definition of a snail shell &#45; like surface (a parametric surface) in form of 3D ...">
<polygon fill="white" stroke="black" points="597,-294.5 597,-324.5 739,-324.5 739,-294.5 597,-294.5"/>
<text text-anchor="start" x="605" y="-312.5" font-family="Helvetica,sans-Serif" font-size="10.00">IG.Num.Func3d2dExamples.</text>
<text text-anchor="middle" x="668" y="-301.5" font-family="Helvetica,sans-Serif" font-size="10.00">SnailConicSpiral_ToCheck</text>
</a>
</g>
</g>
<!-- Node4&#45;&gt;Node19 -->
<g id="edge19" class="edge"><title>Node4&#45;&gt;Node19</title>
<path fill="none" stroke="midnightblue" d="M555.011,-340.679C574.014,-335.388 594.632,-329.648 612.937,-324.552"/>
<polygon fill="midnightblue" stroke="midnightblue" points="553.937,-337.345 545.242,-343.399 555.814,-344.088 553.937,-337.345"/>
</g>
<!-- Node20 -->
<g id="node20" class="node"><title>Node20</title>
<g id="a_node20"><a xlink:href="../../df/d3d/classIG_1_1Num_1_1Func3d2dExamples_1_1SnailShell1.html" target="_top" xlink:title="Definition of parametric surface that ressembles a snail&#39;s shell in form of 3D vector function of 2 v...">
<polygon fill="white" stroke="black" points="597,-245.5 597,-275.5 739,-275.5 739,-245.5 597,-245.5"/>
<text text-anchor="start" x="605" y="-263.5" font-family="Helvetica,sans-Serif" font-size="10.00">IG.Num.Func3d2dExamples.</text>
<text text-anchor="middle" x="668" y="-252.5" font-family="Helvetica,sans-Serif" font-size="10.00">SnailShell1</text>
</a>
</g>
</g>
<!-- Node4&#45;&gt;Node20 -->
<g id="edge20" class="edge"><title>Node4&#45;&gt;Node20</title>
<path fill="none" stroke="midnightblue" d="M517.13,-337.145C537.823,-321.024 567.98,-299.237 597,-284.5 603.415,-281.243 610.373,-278.262 617.329,-275.593"/>
<polygon fill="midnightblue" stroke="midnightblue" points="514.822,-334.508 509.143,-343.452 519.16,-340.001 514.822,-334.508"/>
</g>
<!-- Node21 -->
<g id="node21" class="node"><title>Node21</title>
<g id="a_node21"><a xlink:href="../../d3/de2/classIG_1_1Num_1_1Func3d2dExamples_1_1SnailShell1Streched.html" target="_top" xlink:title="Definition of parametric surface that ressembles a snail&#39;s shell (a bit stretched along the axis) in ...">
<polygon fill="white" stroke="black" points="597,-196.5 597,-226.5 739,-226.5 739,-196.5 597,-196.5"/>
<text text-anchor="start" x="605" y="-214.5" font-family="Helvetica,sans-Serif" font-size="10.00">IG.Num.Func3d2dExamples.</text>
<text text-anchor="middle" x="668" y="-203.5" font-family="Helvetica,sans-Serif" font-size="10.00">SnailShell1Streched</text>
</a>
</g>
</g>
<!-- Node4&#45;&gt;Node21 -->
<g id="edge21" class="edge"><title>Node4&#45;&gt;Node21</title>
<path fill="none" stroke="midnightblue" d="M505.766,-334.743C524.024,-307.201 557.566,-262.184 597,-235.5 602.001,-232.116 607.525,-229.166 613.212,-226.604"/>
<polygon fill="midnightblue" stroke="midnightblue" points="502.68,-333.068 500.173,-343.362 508.552,-336.878 502.68,-333.068"/>
</g>
<!-- Node22 -->
<g id="node22" class="node"><title>Node22</title>
<g id="a_node22"><a xlink:href="../../dc/d0f/classIG_1_1Num_1_1Func3d2dExamples_1_1Surface.html" target="_top" xlink:title="Base class for easy definition of surfaces defined through a function of 2 variables.">
<polygon fill="white" stroke="black" points="597,-147.5 597,-177.5 739,-177.5 739,-147.5 597,-147.5"/>
<text text-anchor="start" x="605" y="-165.5" font-family="Helvetica,sans-Serif" font-size="10.00">IG.Num.Func3d2dExamples.</text>
<text text-anchor="middle" x="668" y="-154.5" font-family="Helvetica,sans-Serif" font-size="10.00">Surface</text>
</a>
</g>
</g>
<!-- Node4&#45;&gt;Node22 -->
<g id="edge22" class="edge"><title>Node4&#45;&gt;Node22</title>
<path fill="none" stroke="midnightblue" d="M499.866,-333.903C514.47,-296.754 547.039,-226.44 597,-186.5 601.315,-183.05 606.155,-180.083 611.223,-177.532"/>
<polygon fill="midnightblue" stroke="midnightblue" points="496.518,-332.858 496.223,-343.449 503.058,-335.354 496.518,-332.858"/>
</g>
<!-- Node26 -->
<g id="node26" class="node"><title>Node26</title>
<g id="a_node26"><a xlink:href="../../de/d95/classIG_1_1Num_1_1Func3d2dExamples_1_1Torus.html" target="_top" xlink:title="Parametric equation of a toroid surface in form of 3D vector function of 2 variables.">
<polygon fill="white" stroke="black" points="597,-98.5 597,-128.5 739,-128.5 739,-98.5 597,-98.5"/>
<text text-anchor="start" x="605" y="-116.5" font-family="Helvetica,sans-Serif" font-size="10.00">IG.Num.Func3d2dExamples.</text>
<text text-anchor="middle" x="668" y="-105.5" font-family="Helvetica,sans-Serif" font-size="10.00">Torus</text>
</a>
</g>
</g>
<!-- Node4&#45;&gt;Node26 -->
<g id="edge26" class="edge"><title>Node4&#45;&gt;Node26</title>
<path fill="none" stroke="midnightblue" d="M496.255,-333.563C507.102,-288.126 536.214,-191.564 597,-137.5 600.84,-134.085 605.189,-131.151 609.794,-128.631"/>
<polygon fill="midnightblue" stroke="midnightblue" points="492.81,-332.929 493.992,-343.457 499.634,-334.49 492.81,-332.929"/>
</g>
<!-- Node27 -->
<g id="node27" class="node"><title>Node27</title>
<g id="a_node27"><a xlink:href="../../de/de3/classIG_1_1Num_1_1Func3d2dExamples_1_1TorusHorizontal.html" target="_top" xlink:title="Parametric equation of a horizontal toroid surface in form of 3D vector function of 2 variables.">
<polygon fill="white" stroke="black" points="597,-49.5 597,-79.5 739,-79.5 739,-49.5 597,-49.5"/>
<text text-anchor="start" x="605" y="-67.5" font-family="Helvetica,sans-Serif" font-size="10.00">IG.Num.Func3d2dExamples.</text>
<text text-anchor="middle" x="668" y="-56.5" font-family="Helvetica,sans-Serif" font-size="10.00">TorusHorizontal</text>
</a>
</g>
</g>
<!-- Node4&#45;&gt;Node27 -->
<g id="edge27" class="edge"><title>Node4&#45;&gt;Node27</title>
<path fill="none" stroke="midnightblue" d="M493.877,-333.008C501.197,-279.992 525.336,-157.091 597,-88.5 600.62,-85.0355 604.761,-82.0697 609.181,-79.5308"/>
<polygon fill="midnightblue" stroke="midnightblue" points="490.368,-332.849 492.559,-343.215 497.311,-333.746 490.368,-332.849"/>
</g>
<!-- Node29 -->
<g id="node29" class="node"><title>Node29</title>
<g id="a_node29"><a xlink:href="../../df/d65/classIG_1_1Num_1_1Func3d2dExamples_1_1UmbilicTorus.html" target="_top" xlink:title="Parametric equation of the umbilic torus surface, a closed single&#45;edged surface in 3D,...">
<polygon fill="white" stroke="black" points="597,-0.5 597,-30.5 739,-30.5 739,-0.5 597,-0.5"/>
<text text-anchor="start" x="605" y="-18.5" font-family="Helvetica,sans-Serif" font-size="10.00">IG.Num.Func3d2dExamples.</text>
<text text-anchor="middle" x="668" y="-7.5" font-family="Helvetica,sans-Serif" font-size="10.00">UmbilicTorus</text>
</a>
</g>
</g>
<!-- Node4&#45;&gt;Node29 -->
<g id="edge29" class="edge"><title>Node4&#45;&gt;Node29</title>
<path fill="none" stroke="midnightblue" d="M492.062,-333.442C495.931,-274.047 513.873,-123.419 597,-39.5 600.436,-36.0316 604.394,-33.0641 608.643,-30.5252"/>
<polygon fill="midnightblue" stroke="midnightblue" points="488.568,-333.25 491.491,-343.433 495.556,-333.649 488.568,-333.25"/>
</g>
<!-- Node7 -->
<g id="node7" class="node"><title>Node7</title>
<g id="a_node7"><a xlink:href="../../d9/d8e/classIG_1_1Num_1_1Func3d2dExamples_1_1MobiusStrip.html" target="_top" xlink:title="Defines the Möbius strip (a parametric surface), a surface with only one side and only one boundary c...">
<polygon fill="white" stroke="black" points="800,-686.5 800,-716.5 942,-716.5 942,-686.5 800,-686.5"/>
<text text-anchor="start" x="808" y="-704.5" font-family="Helvetica,sans-Serif" font-size="10.00">IG.Num.Func3d2dExamples.</text>
<text text-anchor="middle" x="871" y="-693.5" font-family="Helvetica,sans-Serif" font-size="10.00">MobiusStrip</text>
</a>
</g>
</g>
<!-- Node6&#45;&gt;Node7 -->
<g id="edge7" class="edge"><title>Node6&#45;&gt;Node7</title>
<path fill="none" stroke="midnightblue" d="M740.391,-669.904C762.626,-675.324 786.942,-681.252 808.444,-686.494"/>
<polygon fill="midnightblue" stroke="midnightblue" points="741.217,-666.503 730.673,-667.535 739.559,-673.304 741.217,-666.503"/>
</g>
<!-- Node8 -->
<g id="node8" class="node"><title>Node8</title>
<g id="a_node8"><a xlink:href="../../d3/dd4/classIG_1_1Num_1_1Func3d2dExamples_1_1SphereParametric.html" target="_top" xlink:title="Parametric equation of an origin&#45;centered sphere.">
<polygon fill="white" stroke="black" points="800,-637.5 800,-667.5 942,-667.5 942,-637.5 800,-637.5"/>
<text text-anchor="start" x="808" y="-655.5" font-family="Helvetica,sans-Serif" font-size="10.00">IG.Num.Func3d2dExamples.</text>
<text text-anchor="middle" x="871" y="-644.5" font-family="Helvetica,sans-Serif" font-size="10.00">SphereParametric</text>
</a>
</g>
</g>
<!-- Node6&#45;&gt;Node8 -->
<g id="edge8" class="edge"><title>Node6&#45;&gt;Node8</title>
<path fill="none" stroke="midnightblue" d="M749.318,-652.5C766.052,-652.5 783.563,-652.5 799.893,-652.5"/>
<polygon fill="midnightblue" stroke="midnightblue" points="749.018,-649 739.018,-652.5 749.018,-656 749.018,-649"/>
</g>
<!-- Node11 -->
<g id="node11" class="node"><title>Node11</title>
<g id="a_node11"><a xlink:href="../../d5/dde/classIG_1_1Num_1_1Func3d2dExamples_1_1HyperboloidParametricMinus.html" target="_top" xlink:title="Alternative parameterization of an origin&#45;centered hyperboloid surface (x^2/a^2+y^2/b^2&#45;z^2/c^2=1) in...">
<polygon fill="white" stroke="black" points="800,-588.5 800,-618.5 942,-618.5 942,-588.5 800,-588.5"/>
<text text-anchor="start" x="808" y="-606.5" font-family="Helvetica,sans-Serif" font-size="10.00">IG.Num.Func3d2dExamples.</text>
<text text-anchor="middle" x="871" y="-595.5" font-family="Helvetica,sans-Serif" font-size="10.00">HyperboloidParametricMinus</text>
</a>
</g>
</g>
<!-- Node10&#45;&gt;Node11 -->
<g id="edge11" class="edge"><title>Node10&#45;&gt;Node11</title>
<path fill="none" stroke="midnightblue" d="M740.391,-571.904C762.626,-577.324 786.942,-583.252 808.444,-588.494"/>
<polygon fill="midnightblue" stroke="midnightblue" points="741.217,-568.503 730.673,-569.535 739.559,-575.304 741.217,-568.503"/>
</g>
<!-- Node12 -->
<g id="node12" class="node"><title>Node12</title>
<g id="a_node12"><a xlink:href="../../dd/d78/classIG_1_1Num_1_1Func3d2dExamples_1_1HyperboloidParametricPlus.html" target="_top" xlink:title="Alternative parameterization of an origin&#45;centered hyperboloid surface (x^2/a^2+y^2/b^2&#45;z^2/c^2=1) in...">
<polygon fill="white" stroke="black" points="800,-539.5 800,-569.5 942,-569.5 942,-539.5 800,-539.5"/>
<text text-anchor="start" x="808" y="-557.5" font-family="Helvetica,sans-Serif" font-size="10.00">IG.Num.Func3d2dExamples.</text>
<text text-anchor="middle" x="871" y="-546.5" font-family="Helvetica,sans-Serif" font-size="10.00">HyperboloidParametricPlus</text>
</a>
</g>
</g>
<!-- Node10&#45;&gt;Node12 -->
<g id="edge12" class="edge"><title>Node10&#45;&gt;Node12</title>
<path fill="none" stroke="midnightblue" d="M749.318,-554.5C766.052,-554.5 783.563,-554.5 799.893,-554.5"/>
<polygon fill="midnightblue" stroke="midnightblue" points="749.018,-551 739.018,-554.5 749.018,-558 749.018,-551"/>
</g>
<!-- Node13 -->
<g id="node13" class="node"><title>Node13</title>
<g id="a_node13"><a xlink:href="../../d8/d4c/classIG_1_1Num_1_1Func3d2dExamples_1_1HyperboloidTwosheetedLowerParametric.html" target="_top" xlink:title="Parametric definition of an origin&#45;centered upper two&#45;sheeted hyperboloid surface (x^2/a^2+y^2/b^2&#45;z^...">
<polygon fill="white" stroke="black" points="775,-490.5 775,-520.5 967,-520.5 967,-490.5 775,-490.5"/>
<text text-anchor="start" x="783" y="-508.5" font-family="Helvetica,sans-Serif" font-size="10.00">IG.Num.Func3d2dExamples.</text>
<text text-anchor="middle" x="871" y="-497.5" font-family="Helvetica,sans-Serif" font-size="10.00">HyperboloidTwosheetedLowerParametric</text>
</a>
</g>
</g>
<!-- Node10&#45;&gt;Node13 -->
<g id="edge13" class="edge"><title>Node10&#45;&gt;Node13</title>
<path fill="none" stroke="midnightblue" d="M740.391,-537.096C762.626,-531.676 786.942,-525.748 808.444,-520.506"/>
<polygon fill="midnightblue" stroke="midnightblue" points="739.559,-533.696 730.673,-539.465 741.217,-540.497 739.559,-533.696"/>
</g>
<!-- Node14 -->
<g id="node14" class="node"><title>Node14</title>
<g id="a_node14"><a xlink:href="../../da/d7a/classIG_1_1Num_1_1Func3d2dExamples_1_1HyperboloidTwosheetedUpperParametric.html" target="_top" xlink:title="Parametric definition of an origin&#45;centered upper two&#45;sheeted hyperboloid surface (x^2/a^2+y^2/b^2&#45;z^...">
<polygon fill="white" stroke="black" points="775,-441.5 775,-471.5 967,-471.5 967,-441.5 775,-441.5"/>
<text text-anchor="start" x="783" y="-459.5" font-family="Helvetica,sans-Serif" font-size="10.00">IG.Num.Func3d2dExamples.</text>
<text text-anchor="middle" x="871" y="-448.5" font-family="Helvetica,sans-Serif" font-size="10.00">HyperboloidTwosheetedUpperParametric</text>
</a>
</g>
</g>
<!-- Node10&#45;&gt;Node14 -->
<g id="edge14" class="edge"><title>Node10&#45;&gt;Node14</title>
<path fill="none" stroke="midnightblue" d="M732.611,-534.733C734.823,-533.407 736.962,-531.998 739,-530.5 760.776,-514.498 752.655,-496.697 775,-481.5 780.641,-477.664 786.838,-474.416 793.281,-471.666"/>
<polygon fill="midnightblue" stroke="midnightblue" points="730.956,-531.649 723.777,-539.441 734.248,-537.826 730.956,-531.649"/>
</g>
<!-- Node23 -->
<g id="node23" class="node"><title>Node23</title>
<g id="a_node23"><a xlink:href="../../d3/d38/classIG_1_1Num_1_1Func3d2dExamples_1_1HyperbolicParaboloid.html" target="_top" xlink:title="Surface that is a graph of the function z/c=x^2/a^2&#45;y^2/b^2.">
<polygon fill="white" stroke="black" points="800,-196.5 800,-226.5 942,-226.5 942,-196.5 800,-196.5"/>
<text text-anchor="start" x="808" y="-214.5" font-family="Helvetica,sans-Serif" font-size="10.00">IG.Num.Func3d2dExamples.</text>
<text text-anchor="middle" x="871" y="-203.5" font-family="Helvetica,sans-Serif" font-size="10.00">HyperbolicParaboloid</text>
</a>
</g>
</g>
<!-- Node22&#45;&gt;Node23 -->
<g id="edge23" class="edge"><title>Node22&#45;&gt;Node23</title>
<path fill="none" stroke="midnightblue" d="M740.391,-179.904C762.626,-185.324 786.942,-191.252 808.444,-196.494"/>
<polygon fill="midnightblue" stroke="midnightblue" points="741.217,-176.503 730.673,-177.535 739.559,-183.304 741.217,-176.503"/>
</g>
<!-- Node24 -->
<g id="node24" class="node"><title>Node24</title>
<g id="a_node24"><a xlink:href="../../df/dc7/classIG_1_1Num_1_1Func3d2dExamples_1_1Paraboloid.html" target="_top" xlink:title="Surface that is a graph of the function z/c=x^2/a^2+y^2/b^2.">
<polygon fill="white" stroke="black" points="800,-147.5 800,-177.5 942,-177.5 942,-147.5 800,-147.5"/>
<text text-anchor="start" x="808" y="-165.5" font-family="Helvetica,sans-Serif" font-size="10.00">IG.Num.Func3d2dExamples.</text>
<text text-anchor="middle" x="871" y="-154.5" font-family="Helvetica,sans-Serif" font-size="10.00">Paraboloid</text>
</a>
</g>
</g>
<!-- Node22&#45;&gt;Node24 -->
<g id="edge24" class="edge"><title>Node22&#45;&gt;Node24</title>
<path fill="none" stroke="midnightblue" d="M749.318,-162.5C766.052,-162.5 783.563,-162.5 799.893,-162.5"/>
<polygon fill="midnightblue" stroke="midnightblue" points="749.018,-159 739.018,-162.5 749.018,-166 749.018,-159"/>
</g>
<!-- Node25 -->
<g id="node25" class="node"><title>Node25</title>
<g id="a_node25"><a xlink:href="../../da/db2/classIG_1_1Num_1_1Func3d2dExamples_1_1SaddleXY.html" target="_top" xlink:title="Parametric surface that is a graph of the function f(x,y)=x*y.">
<polygon fill="white" stroke="black" points="800,-98.5 800,-128.5 942,-128.5 942,-98.5 800,-98.5"/>
<text text-anchor="start" x="808" y="-116.5" font-family="Helvetica,sans-Serif" font-size="10.00">IG.Num.Func3d2dExamples.</text>
<text text-anchor="middle" x="871" y="-105.5" font-family="Helvetica,sans-Serif" font-size="10.00">SaddleXY</text>
</a>
</g>
</g>
<!-- Node22&#45;&gt;Node25 -->
<g id="edge25" class="edge"><title>Node22&#45;&gt;Node25</title>
<path fill="none" stroke="midnightblue" d="M740.391,-145.096C762.626,-139.676 786.942,-133.748 808.444,-128.506"/>
<polygon fill="midnightblue" stroke="midnightblue" points="739.559,-141.696 730.673,-147.465 741.217,-148.497 739.559,-141.696"/>
</g>
<!-- Node28 -->
<g id="node28" class="node"><title>Node28</title>
<g id="a_node28"><a xlink:href="../../dc/db8/classIG_1_1Num_1_1Func3d2dExamples_1_1TorusVertical.html" target="_top" xlink:title="Parametric equation of a horizontal toroid surface in form of 3D vector function of 2 variables.">
<polygon fill="white" stroke="black" points="800,-49.5 800,-79.5 942,-79.5 942,-49.5 800,-49.5"/>
<text text-anchor="start" x="808" y="-67.5" font-family="Helvetica,sans-Serif" font-size="10.00">IG.Num.Func3d2dExamples.</text>
<text text-anchor="middle" x="871" y="-56.5" font-family="Helvetica,sans-Serif" font-size="10.00">TorusVertical</text>
</a>
</g>
</g>
<!-- Node27&#45;&gt;Node28 -->
<g id="edge28" class="edge"><title>Node27&#45;&gt;Node28</title>
<path fill="none" stroke="midnightblue" d="M749.318,-64.5C766.052,-64.5 783.563,-64.5 799.893,-64.5"/>
<polygon fill="midnightblue" stroke="midnightblue" points="749.018,-61.0001 739.018,-64.5 749.018,-68.0001 749.018,-61.0001"/>
</g>
</g>
</svg>
        <g id="navigator" transform="translate(0 0)" fill="#404254">
                <rect fill="#f2f5e9" fill-opacity="0.5" stroke="#606060" stroke-width=".5" x="0" y="0" width="60" height="60"/>
                <use id="zoomplus" xlink:href="#zoomPlus" x="17" y="9" onmousedown="handleZoom(evt,'in')"/>
                <use id="zoomminus" xlink:href="#zoomMin" x="42" y="9" onmousedown="handleZoom(evt,'out')"/>
                <use id="reset" xlink:href="#resetDef" x="30" y="36" onmousedown="handleReset()"/>
                <g id="arrowUp" xlink:href="#dirArrow" transform="translate(30 24)" onmousedown="handlePan(0,-1)">
                  <use xlink:href="#rim" fill="#404040">
                        <set attributeName="fill" to="#808080" begin="arrowUp.mouseover" end="arrowUp.mouseout"/>
                  </use>
                  <path fill="none" stroke="white" stroke-width="1.5" d="M0,-3.0v7 M-2.5,-0.5L0,-3.0L2.5,-0.5"/>
                </g>
                <g id="arrowRight" xlink:href="#dirArrow" transform="rotate(90) translate(36 -43)" onmousedown="handlePan(1,0)">
                  <use xlink:href="#rim" fill="#404040">
                        <set attributeName="fill" to="#808080" begin="arrowRight.mouseover" end="arrowRight.mouseout"/>
                  </use>
                  <path fill="none" stroke="white" stroke-width="1.5" d="M0,-3.0v7 M-2.5,-0.5L0,-3.0L2.5,-0.5"/>
                </g>
                <g id="arrowDown" xlink:href="#dirArrow" transform="rotate(180) translate(-30 -48)" onmousedown="handlePan(0,1)">
                  <use xlink:href="#rim" fill="#404040">
                        <set attributeName="fill" to="#808080" begin="arrowDown.mouseover" end="arrowDown.mouseout"/>
                  </use>
                  <path fill="none" stroke="white" stroke-width="1.5" d="M0,-3.0v7 M-2.5,-0.5L0,-3.0L2.5,-0.5"/>
                </g>
                <g id="arrowLeft" xlink:href="#dirArrow" transform="rotate(270) translate(-36 17)" onmousedown="handlePan(-1,0)">
                  <use xlink:href="#rim" fill="#404040">
                        <set attributeName="fill" to="#808080" begin="arrowLeft.mouseover" end="arrowLeft.mouseout"/>
                  </use>
                  <path fill="none" stroke="white" stroke-width="1.5" d="M0,-3.0v7 M-2.5,-0.5L0,-3.0L2.5,-0.5"/>
                </g>
        </g>
        <svg viewBox="0 0 15 15" width="100%" height="30px" preserveAspectRatio="xMaxYMin meet">
         <g id="arrow_out" transform="scale(0.3 0.3)">
          <a xlink:href="classIG_1_1Num_1_1Func3d2dBaseNoGradient__inherit__graph_org.svg" target="_base">
           <rect id="button" ry="5" rx="5" y="6" x="6" height="38" width="38"
                fill="#f2f5e9" fill-opacity="0.5" stroke="#606060" stroke-width="1.0"/>
           <path id="arrow"
             d="M 11.500037,31.436501 C 11.940474,20.09759 22.043105,11.32322 32.158766,21.979434 L 37.068811,17.246167 C 37.068811,17.246167 37.088388,32 37.088388,32 L 22.160133,31.978069 C 22.160133,31.978069 26.997745,27.140456 26.997745,27.140456 C 18.528582,18.264221 13.291696,25.230495 11.500037,31.436501 z"
             style="fill:#404040;"/>
          </a>
         </g>
        </svg>
</svg>
