<?xml version="1.0" encoding="UTF-8" standalone="no"?>
<!DOCTYPE svg PUBLIC "-//W3C//DTD SVG 1.1//EN"
 "http://www.w3.org/Graphics/SVG/1.1/DTD/svg11.dtd">
<!-- Generated by graphviz version 2.38.0 (20140413.2041)
 -->
<!-- Title: IG.Num.Func3d2dExamples.MobiusStrip Pages: 1 -->
<!--zoomable 470 -->
<svg id="main" version="1.1" xmlns="http://www.w3.org/2000/svg" xmlns:xlink="http://www.w3.org/1999/xlink" xml:space="preserve" onload="init(evt)">
<style type="text/css"><![CDATA[
.edge:hover path { stroke: red; }
.edge:hover polygon { stroke: red; fill: red; }
]]></style>
<script type="text/javascript"><![CDATA[
var edges = document.getElementsByTagName('g');
if (edges && edges.length) {
  for (var i=0;i<edges.length;i++) {
    if (edges[i].id.substr(0,4)=='edge') {
      edges[i].setAttribute('class','edge');
    }
  }
}
]]></script>
        <defs>
                <circle id="rim" cx="0" cy="0" r="7"/>
                <circle id="rim2" cx="0" cy="0" r="3.5"/>
                <g id="zoomPlus">
                        <use xlink:href="#rim" fill="#404040">
                                <set attributeName="fill" to="#808080" begin="zoomplus.mouseover" end="zoomplus.mouseout"/>
                        </use>
                        <path d="M-4,0h8M0,-4v8" fill="none" stroke="white" stroke-width="1.5" pointer-events="none"/>
                </g>
                <g id="zoomMin">
                        <use xlink:href="#rim" fill="#404040">
                                <set attributeName="fill" to="#808080" begin="zoomminus.mouseover" end="zoomminus.mouseout"/>
                        </use>
                        <path d="M-4,0h8" fill="none" stroke="white" stroke-width="1.5" pointer-events="none"/>
                </g>
                <g id="dirArrow">
                        <path fill="none" stroke="white" stroke-width="1.5" d="M0,-3.0v7 M-2.5,-0.5L0,-3.0L2.5,-0.5"/>
                </g>
               <g id="resetDef">
                       <use xlink:href="#rim2" fill="#404040">
                               <set attributeName="fill" to="#808080" begin="reset.mouseover" end="reset.mouseout"/>
                       </use>
               </g>
        </defs>

<script type="text/javascript">
var viewWidth = 389;
var viewHeight = 470;
var sectionId = 'dynsection-1';
</script>
<script xlink:href="../../svgpan.js"/>
<svg id="graph" class="graph">
<g id="viewport">
<title>IG.Num.Func3d2dExamples.MobiusStrip</title>
<polygon fill="white" stroke="none" points="-4,4 -4,-466 384.5,-466 384.5,4 -4,4"/>
<!-- Node1 -->
<g id="node1" class="node"><title>Node1</title>
<g id="a_node1"><a xlink:title="Defines the Möbius strip (a parametric surface), a surface with only one side and only one boundary c...">
<polygon fill="#bfbfbf" stroke="black" points="0,-0.5 0,-30.5 142,-30.5 142,-0.5 0,-0.5"/>
<text text-anchor="start" x="8" y="-18.5" font-family="Helvetica,sans-Serif" font-size="10.00">IG.Num.Func3d2dExamples.</text>
<text text-anchor="middle" x="71" y="-7.5" font-family="Helvetica,sans-Serif" font-size="10.00">MobiusStrip</text>
</a>
</g>
</g>
<!-- Node2 -->
<g id="node2" class="node"><title>Node2</title>
<g id="a_node2"><a xlink:href="../../de/d46/classIG_1_1Num_1_1Func3d2dExamples_1_1EllipsoidParametric.html" target="_top" xlink:title="Parametric equation of an origin&#45;centered ellipsoid surface in form of 3D vector function of 2 variab...">
<polygon fill="white" stroke="black" points="73.5,-68.5 73.5,-87.5 174.5,-87.5 174.5,-68.5 73.5,-68.5"/>
<text text-anchor="middle" x="124" y="-75.5" font-family="Helvetica,sans-Serif" font-size="10.00">EllipsoidParametric</text>
</a>
</g>
</g>
<!-- Node2&#45;&gt;Node1 -->
<g id="edge1" class="edge"><title>Node2&#45;&gt;Node1</title>
<path fill="none" stroke="midnightblue" d="M109.579,-60.5387C101.418,-51.2225 91.3121,-39.6865 83.4911,-30.7587"/>
<polygon fill="midnightblue" stroke="midnightblue" points="107.184,-63.1162 116.406,-68.3318 112.45,-58.5036 107.184,-63.1162"/>
</g>
<!-- Node3 -->
<g id="node3" class="node"><title>Node3</title>
<g id="a_node3"><a xlink:href="../../d0/d54/classIG_1_1Num_1_1Func3d2dExamples_1_1ParametricSurface.html" target="_top" xlink:title="Base class for easy definition of parametric surfaces intended for plotting.">
<polygon fill="white" stroke="black" points="111.5,-125.5 111.5,-144.5 208.5,-144.5 208.5,-125.5 111.5,-125.5"/>
<text text-anchor="middle" x="160" y="-132.5" font-family="Helvetica,sans-Serif" font-size="10.00">ParametricSurface</text>
</a>
</g>
</g>
<!-- Node3&#45;&gt;Node2 -->
<g id="edge2" class="edge"><title>Node3&#45;&gt;Node2</title>
<path fill="none" stroke="midnightblue" d="M148.831,-116.936C142.492,-107.251 134.826,-95.5397 129.704,-87.7149"/>
<polygon fill="midnightblue" stroke="midnightblue" points="145.97,-118.956 154.375,-125.406 151.827,-115.122 145.97,-118.956"/>
</g>
<!-- Node4 -->
<g id="node4" class="node"><title>Node4</title>
<g id="a_node4"><a xlink:href="../../d3/dc0/classIG_1_1Num_1_1Func3d2dBaseNoGradient.html" target="_top" xlink:title="Base class for 3D vector functions of 2 variables (implementations of the IFunc3d2d interface) that d...">
<polygon fill="white" stroke="black" points="149.5,-182.5 149.5,-201.5 280.5,-201.5 280.5,-182.5 149.5,-182.5"/>
<text text-anchor="middle" x="215" y="-189.5" font-family="Helvetica,sans-Serif" font-size="10.00">Func3d2dBaseNoGradient</text>
</a>
</g>
</g>
<!-- Node4&#45;&gt;Node3 -->
<g id="edge3" class="edge"><title>Node4&#45;&gt;Node3</title>
<path fill="none" stroke="midnightblue" d="M199.123,-175.123C189.224,-165.224 176.862,-152.862 168.715,-144.715"/>
<polygon fill="midnightblue" stroke="midnightblue" points="196.86,-177.81 206.406,-182.406 201.81,-172.86 196.86,-177.81"/>
</g>
<!-- Node5 -->
<g id="node5" class="node"><title>Node5</title>
<g id="a_node5"><a xlink:href="../../df/d0e/classIG_1_1Num_1_1Func3d2dBase.html" target="_top" xlink:title="Base class for 3D vector functions of 2 variables (base for implementation of IFunc3d2d interface).">
<polygon fill="white" stroke="black" points="187,-239.5 187,-258.5 269,-258.5 269,-239.5 187,-239.5"/>
<text text-anchor="middle" x="228" y="-246.5" font-family="Helvetica,sans-Serif" font-size="10.00">Func3d2dBase</text>
</a>
</g>
</g>
<!-- Node5&#45;&gt;Node4 -->
<g id="edge4" class="edge"><title>Node5&#45;&gt;Node4</title>
<path fill="none" stroke="midnightblue" d="M223.609,-229.423C221.395,-220.054 218.814,-209.136 217.06,-201.715"/>
<polygon fill="midnightblue" stroke="midnightblue" points="220.262,-230.48 225.969,-239.406 227.075,-228.869 220.262,-230.48"/>
</g>
<!-- Node6 -->
<g id="node6" class="node"><title>Node6</title>
<g id="a_node6"><a xlink:href="../../d3/d6f/interfaceIG_1_1Num_1_1IFunc3d2d.html" target="_top" xlink:title="Represents 3D vector functions of 2 variables.">
<polygon fill="white" stroke="black" points="90,-328.5 90,-347.5 152,-347.5 152,-328.5 90,-328.5"/>
<text text-anchor="middle" x="121" y="-335.5" font-family="Helvetica,sans-Serif" font-size="10.00">IFunc3d2d</text>
</a>
</g>
</g>
<!-- Node6&#45;&gt;Node1 -->
<g id="edge14" class="edge"><title>Node6&#45;&gt;Node1</title>
<path fill="none" stroke="midnightblue" d="M96.5692,-322.752C74.3478,-307.753 45,-281.905 45,-250 45,-250 45,-250 45,-77 45,-60.0802 53.6899,-42.5031 61.0221,-30.6837"/>
<polygon fill="midnightblue" stroke="midnightblue" points="94.9456,-325.868 105.253,-328.321 98.7246,-319.976 94.9456,-325.868"/>
</g>
<!-- Node6&#45;&gt;Node2 -->
<g id="edge13" class="edge"><title>Node6&#45;&gt;Node2</title>
<path fill="none" stroke="midnightblue" d="M108.689,-320.162C97.5897,-303.292 83,-276.145 83,-250 83,-250 83,-250 83,-134 83,-114.468 99.8264,-97.3893 111.92,-87.6366"/>
<polygon fill="midnightblue" stroke="midnightblue" points="105.818,-322.165 114.381,-328.405 111.579,-318.187 105.818,-322.165"/>
</g>
<!-- Node6&#45;&gt;Node3 -->
<g id="edge12" class="edge"><title>Node6&#45;&gt;Node3</title>
<path fill="none" stroke="midnightblue" d="M121.559,-318.356C122.824,-288.906 126.911,-230.031 140,-182 143.709,-168.389 150.733,-153.584 155.391,-144.546"/>
<polygon fill="midnightblue" stroke="midnightblue" points="118.058,-318.313 121.19,-328.434 125.053,-318.569 118.058,-318.313"/>
</g>
<!-- Node6&#45;&gt;Node4 -->
<g id="edge11" class="edge"><title>Node6&#45;&gt;Node4</title>
<path fill="none" stroke="midnightblue" d="M130.163,-319.458C140.84,-299.466 159.404,-266.06 178,-239 187.404,-225.316 199.722,-210.53 207.501,-201.517"/>
<polygon fill="midnightblue" stroke="midnightblue" points="127.043,-317.87 125.464,-328.347 133.232,-321.142 127.043,-317.87"/>
</g>
<!-- Node6&#45;&gt;Node5 -->
<g id="edge5" class="edge"><title>Node6&#45;&gt;Node5</title>
<path fill="none" stroke="midnightblue" d="M150.53,-323.937C158.174,-319.958 166.169,-315.235 173,-310 193.189,-294.528 212.178,-271.151 221.674,-258.634"/>
<polygon fill="midnightblue" stroke="midnightblue" points="148.899,-320.839 141.483,-328.405 151.999,-327.115 148.899,-320.839"/>
</g>
<!-- Node7 -->
<g id="node7" class="node"><title>Node7</title>
<g id="a_node7"><a xlink:href="../../da/d29/classIG_1_1Num_1_1Func2dBase.html" target="_top" xlink:title="Base class for scalar functions of 2 variables (base for implementation of IFunc2d interface).">
<polygon fill="white" stroke="black" points="174.5,-328.5 174.5,-347.5 281.5,-347.5 281.5,-328.5 174.5,-328.5"/>
<text text-anchor="middle" x="228" y="-335.5" font-family="Helvetica,sans-Serif" font-size="10.00">IG.Num.Func2dBase</text>
</a>
</g>
</g>
<!-- Node7&#45;&gt;Node5 -->
<g id="edge6" class="edge"><title>Node7&#45;&gt;Node5</title>
<path fill="none" stroke="#9a32cd" stroke-dasharray="5,2" d="M228,-318.195C228,-299.738 228,-272.412 228,-258.625"/>
<polygon fill="#9a32cd" stroke="#9a32cd" points="224.5,-318.34 228,-328.34 231.5,-318.34 224.5,-318.34"/>
<text text-anchor="middle" x="247" y="-302" font-family="Helvetica,sans-Serif" font-size="10.00"> _comp1</text>
<text text-anchor="middle" x="247" y="-291" font-family="Helvetica,sans-Serif" font-size="10.00">_comp2</text>
<text text-anchor="middle" x="247" y="-280" font-family="Helvetica,sans-Serif" font-size="10.00">_comp3</text>
</g>
<!-- Node8 -->
<g id="node8" class="node"><title>Node8</title>
<g id="a_node8"><a xlink:href="../../d2/d9e/classIG_1_1Num_1_1ScalarFunctionUntransformedBase.html" target="_top" xlink:title="Base class for defining scalar functions without possibility of affine transformation of parameters.">
<polygon fill="white" stroke="black" points="144.5,-385.5 144.5,-404.5 311.5,-404.5 311.5,-385.5 144.5,-385.5"/>
<text text-anchor="middle" x="228" y="-392.5" font-family="Helvetica,sans-Serif" font-size="10.00">ScalarFunctionUntransformedBase</text>
</a>
</g>
</g>
<!-- Node8&#45;&gt;Node7 -->
<g id="edge7" class="edge"><title>Node8&#45;&gt;Node7</title>
<path fill="none" stroke="midnightblue" d="M228,-375.117C228,-365.817 228,-355.056 228,-347.715"/>
<polygon fill="midnightblue" stroke="midnightblue" points="224.5,-375.406 228,-385.406 231.5,-375.406 224.5,-375.406"/>
</g>
<!-- Node9 -->
<g id="node9" class="node"><title>Node9</title>
<g id="a_node9"><a xlink:href="../../d8/d56/interfaceIG_1_1Num_1_1IScalarFunctionUntransformed.html" target="_top" xlink:title="Scalar functions of vector arguments.">
<polygon fill="white" stroke="black" points="76.5,-442.5 76.5,-461.5 223.5,-461.5 223.5,-442.5 76.5,-442.5"/>
<text text-anchor="middle" x="150" y="-449.5" font-family="Helvetica,sans-Serif" font-size="10.00">IScalarFunctionUntransformed</text>
</a>
</g>
</g>
<!-- Node9&#45;&gt;Node7 -->
<g id="edge10" class="edge"><title>Node9&#45;&gt;Node7</title>
<path fill="none" stroke="midnightblue" d="M139.123,-433.118C132.139,-419.112 125.921,-399.619 135,-385 146.974,-365.719 169.69,-354.274 189.673,-347.623"/>
<polygon fill="midnightblue" stroke="midnightblue" points="136.239,-435.135 144.136,-442.198 142.367,-431.752 136.239,-435.135"/>
</g>
<!-- Node9&#45;&gt;Node8 -->
<g id="edge8" class="edge"><title>Node9&#45;&gt;Node8</title>
<path fill="none" stroke="midnightblue" d="M170.511,-436.537C184.953,-426.354 203.795,-413.068 215.898,-404.533"/>
<polygon fill="midnightblue" stroke="midnightblue" points="168.343,-433.783 162.188,-442.406 172.377,-439.504 168.343,-433.783"/>
</g>
<!-- Node10 -->
<g id="node10" class="node"><title>Node10</title>
<g id="a_node10"><a xlink:href="../../d8/d15/interfaceIG_1_1Num_1_1IFunc2d.html" target="_top" xlink:title="Represents scalar functions of 2 variables.">
<polygon fill="white" stroke="black" points="329.5,-385.5 329.5,-404.5 380.5,-404.5 380.5,-385.5 329.5,-385.5"/>
<text text-anchor="middle" x="355" y="-392.5" font-family="Helvetica,sans-Serif" font-size="10.00">IFunc2d</text>
</a>
</g>
</g>
<!-- Node10&#45;&gt;Node7 -->
<g id="edge9" class="edge"><title>Node10&#45;&gt;Node7</title>
<path fill="none" stroke="midnightblue" d="M325.844,-381.374C301.894,-371.001 268.62,-356.591 247.704,-347.533"/>
<polygon fill="midnightblue" stroke="midnightblue" points="324.589,-384.644 335.156,-385.406 327.371,-378.22 324.589,-384.644"/>
</g>
</g>
</svg>
        <g id="navigator" transform="translate(0 0)" fill="#404254">
                <rect fill="#f2f5e9" fill-opacity="0.5" stroke="#606060" stroke-width=".5" x="0" y="0" width="60" height="60"/>
                <use id="zoomplus" xlink:href="#zoomPlus" x="17" y="9" onmousedown="handleZoom(evt,'in')"/>
                <use id="zoomminus" xlink:href="#zoomMin" x="42" y="9" onmousedown="handleZoom(evt,'out')"/>
                <use id="reset" xlink:href="#resetDef" x="30" y="36" onmousedown="handleReset()"/>
                <g id="arrowUp" xlink:href="#dirArrow" transform="translate(30 24)" onmousedown="handlePan(0,-1)">
                  <use xlink:href="#rim" fill="#404040">
                        <set attributeName="fill" to="#808080" begin="arrowUp.mouseover" end="arrowUp.mouseout"/>
                  </use>
                  <path fill="none" stroke="white" stroke-width="1.5" d="M0,-3.0v7 M-2.5,-0.5L0,-3.0L2.5,-0.5"/>
                </g>
                <g id="arrowRight" xlink:href="#dirArrow" transform="rotate(90) translate(36 -43)" onmousedown="handlePan(1,0)">
                  <use xlink:href="#rim" fill="#404040">
                        <set attributeName="fill" to="#808080" begin="arrowRight.mouseover" end="arrowRight.mouseout"/>
                  </use>
                  <path fill="none" stroke="white" stroke-width="1.5" d="M0,-3.0v7 M-2.5,-0.5L0,-3.0L2.5,-0.5"/>
                </g>
                <g id="arrowDown" xlink:href="#dirArrow" transform="rotate(180) translate(-30 -48)" onmousedown="handlePan(0,1)">
                  <use xlink:href="#rim" fill="#404040">
                        <set attributeName="fill" to="#808080" begin="arrowDown.mouseover" end="arrowDown.mouseout"/>
                  </use>
                  <path fill="none" stroke="white" stroke-width="1.5" d="M0,-3.0v7 M-2.5,-0.5L0,-3.0L2.5,-0.5"/>
                </g>
                <g id="arrowLeft" xlink:href="#dirArrow" transform="rotate(270) translate(-36 17)" onmousedown="handlePan(-1,0)">
                  <use xlink:href="#rim" fill="#404040">
                        <set attributeName="fill" to="#808080" begin="arrowLeft.mouseover" end="arrowLeft.mouseout"/>
                  </use>
                  <path fill="none" stroke="white" stroke-width="1.5" d="M0,-3.0v7 M-2.5,-0.5L0,-3.0L2.5,-0.5"/>
                </g>
        </g>
        <svg viewBox="0 0 15 15" width="100%" height="30px" preserveAspectRatio="xMaxYMin meet">
         <g id="arrow_out" transform="scale(0.3 0.3)">
          <a xlink:href="classIG_1_1Num_1_1Func3d2dExamples_1_1MobiusStrip__coll__graph_org.svg" target="_base">
           <rect id="button" ry="5" rx="5" y="6" x="6" height="38" width="38"
                fill="#f2f5e9" fill-opacity="0.5" stroke="#606060" stroke-width="1.0"/>
           <path id="arrow"
             d="M 11.500037,31.436501 C 11.940474,20.09759 22.043105,11.32322 32.158766,21.979434 L 37.068811,17.246167 C 37.068811,17.246167 37.088388,32 37.088388,32 L 22.160133,31.978069 C 22.160133,31.978069 26.997745,27.140456 26.997745,27.140456 C 18.528582,18.264221 13.291696,25.230495 11.500037,31.436501 z"
             style="fill:#404040;"/>
          </a>
         </g>
        </svg>
</svg>
