<?xml version="1.0" encoding="UTF-8" standalone="no"?>
<!DOCTYPE svg PUBLIC "-//W3C//DTD SVG 1.1//EN"
 "http://www.w3.org/Graphics/SVG/1.1/DTD/svg11.dtd">
<!-- Generated by graphviz version 2.38.0 (20140413.2041)
 -->
<!-- Title: IG.Num.PointContainerVector Pages: 1 -->
<svg width="342pt" height="116pt"
 viewBox="0.00 0.00 342.00 115.50" xmlns="http://www.w3.org/2000/svg" xmlns:xlink="http://www.w3.org/1999/xlink">
<g id="graph0" class="graph" transform="scale(1 1) rotate(0) translate(4 111.5)">
<title>IG.Num.PointContainerVector</title>
<polygon fill="white" stroke="none" points="-4,4 -4,-111.5 338,-111.5 338,4 -4,4"/>
<!-- Node1 -->
<g id="node1" class="node"><title>Node1</title>
<g id="a_node1"><a xlink:title="Container class that contains a single vector point plus all the data that are necessary for searchin...">
<polygon fill="#bfbfbf" stroke="black" points="189,-38.5 189,-57.5 334,-57.5 334,-38.5 189,-38.5"/>
<text text-anchor="middle" x="261.5" y="-45.5" font-family="Helvetica,sans-Serif" font-size="10.00">IG.Num.PointContainerVector</text>
</a>
</g>
</g>
<!-- Node2 -->
<g id="node2" class="node"><title>Node2</title>
<g id="a_node2"><a xlink:href="../../d7/deb/classIG_1_1Num_1_1PointContainer.html" target="_top" xlink:title=" ">
<polygon fill="white" stroke="black" points="0,-77 0,-107 153,-107 153,-77 0,-77"/>
<text text-anchor="start" x="8" y="-95" font-family="Helvetica,sans-Serif" font-size="10.00">PointContainer&lt; PointContainer</text>
<text text-anchor="middle" x="76.5" y="-84" font-family="Helvetica,sans-Serif" font-size="10.00">Vector, IVector &gt;</text>
</a>
</g>
</g>
<!-- Node2&#45;&gt;Node1 -->
<g id="edge1" class="edge"><title>Node2&#45;&gt;Node1</title>
<path fill="none" stroke="midnightblue" d="M149.853,-74.6036C174.076,-68.7794 200.174,-62.5046 220.937,-57.5124"/>
<polygon fill="midnightblue" stroke="midnightblue" points="148.871,-71.2399 139.966,-76.9808 150.508,-78.046 148.871,-71.2399"/>
</g>
<!-- Node3 -->
<g id="node3" class="node"><title>Node3</title>
<g id="a_node3"><a xlink:href="../../df/d22/interfaceIG_1_1Num_1_1IPointContainer.html" target="_top" xlink:title=" ">
<polygon fill="white" stroke="black" points="11,-38.5 11,-57.5 142,-57.5 142,-38.5 11,-38.5"/>
<text text-anchor="middle" x="76.5" y="-45.5" font-family="Helvetica,sans-Serif" font-size="10.00">IPointContainer&lt; IVector &gt;</text>
</a>
</g>
</g>
<!-- Node3&#45;&gt;Node1 -->
<g id="edge2" class="edge"><title>Node3&#45;&gt;Node1</title>
<path fill="none" stroke="midnightblue" d="M152.082,-48C164.199,-48 176.726,-48 188.774,-48"/>
<polygon fill="midnightblue" stroke="midnightblue" points="152.019,-44.5001 142.019,-48 152.019,-51.5001 152.019,-44.5001"/>
</g>
<!-- Node4 -->
<g id="node4" class="node"><title>Node4</title>
<g id="a_node4"><a xlink:href="../../d3/db6/interfaceIG_1_1Lib_1_1ILockable.html" target="_top" xlink:title="Lockable object, has a Lock property that returns object on which lock must be performed in order to ...">
<polygon fill="white" stroke="black" points="47.5,-0.5 47.5,-19.5 105.5,-19.5 105.5,-0.5 47.5,-0.5"/>
<text text-anchor="middle" x="76.5" y="-7.5" font-family="Helvetica,sans-Serif" font-size="10.00">ILockable</text>
</a>
</g>
</g>
<!-- Node4&#45;&gt;Node1 -->
<g id="edge3" class="edge"><title>Node4&#45;&gt;Node1</title>
<path fill="none" stroke="midnightblue" d="M115.76,-17.9446C144.504,-23.9134 183.998,-32.1143 214.47,-38.4419"/>
<polygon fill="midnightblue" stroke="midnightblue" points="116.195,-14.4605 105.693,-15.8542 114.772,-21.3143 116.195,-14.4605"/>
</g>
</g>
</svg>
