<?xml version="1.0" encoding="UTF-8" standalone="no"?>
<!DOCTYPE svg PUBLIC "-//W3C//DTD SVG 1.1//EN"
 "http://www.w3.org/Graphics/SVG/1.1/DTD/svg11.dtd">
<!-- Generated by graphviz version 2.38.0 (20140413.2041)
 -->
<!-- Title: IGLib.Gr3D.ICurve2DPolarParameterization Pages: 1 -->
<svg width="495pt" height="186pt"
 viewBox="0.00 0.00 495.00 186.00" xmlns="http://www.w3.org/2000/svg" xmlns:xlink="http://www.w3.org/1999/xlink">
<g id="graph0" class="graph" transform="scale(1 1) rotate(0) translate(4 182)">
<title>IGLib.Gr3D.ICurve2DPolarParameterization</title>
<polygon fill="white" stroke="none" points="-4,4 -4,-182 491,-182 491,4 -4,4"/>
<!-- Node1 -->
<g id="node1" class="node"><title>Node1</title>
<g id="a_node1"><a xlink:title="Cylindrical parameterization of a curve in 3D. Beside the CurveCylindrical and (optional) CurveDeriva...">
<polygon fill="#bfbfbf" stroke="black" points="0,-73.5 0,-103.5 128,-103.5 128,-73.5 0,-73.5"/>
<text text-anchor="start" x="8" y="-91.5" font-family="Helvetica,sans-Serif" font-size="10.00">IGLib.Gr3D.ICurve2DPolar</text>
<text text-anchor="middle" x="64" y="-80.5" font-family="Helvetica,sans-Serif" font-size="10.00">Parameterization</text>
</a>
</g>
</g>
<!-- Node2 -->
<g id="node2" class="node"><title>Node2</title>
<g id="a_node2"><a xlink:href="../../d5/d39/classIGLib_1_1Gr3D_1_1ConicalCurve3DParameterizationFromPolarWithBounds.html" target="_top" xlink:title="Cartesion parameterization of a curve in 3D. Beside the Curve and (optional) CurveDerivative,...">
<polygon fill="white" stroke="black" points="164,-68 164,-109 326,-109 326,-68 164,-68"/>
<text text-anchor="start" x="172" y="-97" font-family="Helvetica,sans-Serif" font-size="10.00">IGLib.Gr3D.ConicalCurve3</text>
<text text-anchor="start" x="172" y="-86" font-family="Helvetica,sans-Serif" font-size="10.00">DParameterizationFromPolarWith</text>
<text text-anchor="middle" x="245" y="-75" font-family="Helvetica,sans-Serif" font-size="10.00">Bounds</text>
</a>
</g>
</g>
<!-- Node1&#45;&gt;Node2 -->
<g id="edge1" class="edge"><title>Node1&#45;&gt;Node2</title>
<path fill="none" stroke="midnightblue" d="M138.288,-88.5C146.731,-88.5 155.373,-88.5 163.9,-88.5"/>
<polygon fill="midnightblue" stroke="midnightblue" points="138.109,-85.0001 128.109,-88.5 138.109,-92.0001 138.109,-85.0001"/>
</g>
<!-- Node3 -->
<g id="node3" class="node"><title>Node3</title>
<g id="a_node3"><a xlink:href="../../d5/d08/classIGLib_1_1Gr3D_1_1ConicalSpiralArchimedean3D.html" target="_top" xlink:title="A 3D parametric curve with bounds &#45; the conical archimedean spiral.">
<polygon fill="white" stroke="black" points="362,-147.5 362,-177.5 487,-177.5 487,-147.5 362,-147.5"/>
<text text-anchor="start" x="370" y="-165.5" font-family="Helvetica,sans-Serif" font-size="10.00">IGLib.Gr3D.ConicalSpiral</text>
<text text-anchor="middle" x="424.5" y="-154.5" font-family="Helvetica,sans-Serif" font-size="10.00">Archimedean3D</text>
</a>
</g>
</g>
<!-- Node2&#45;&gt;Node3 -->
<g id="edge2" class="edge"><title>Node2&#45;&gt;Node3</title>
<path fill="none" stroke="midnightblue" d="M302.08,-113.141C321.048,-121.35 342.389,-130.45 362,-138.5 369.21,-141.46 376.929,-144.54 384.377,-147.469"/>
<polygon fill="midnightblue" stroke="midnightblue" points="303.256,-109.836 292.689,-109.066 300.47,-116.257 303.256,-109.836"/>
</g>
<!-- Node4 -->
<g id="node4" class="node"><title>Node4</title>
<g id="a_node4"><a xlink:href="../../de/dc6/classIGLib_1_1Gr3D_1_1ConicalSpiralFermats3D.html" target="_top" xlink:title="A 3D parametric curve with bounds &#45; the conical Fermat&#39;s spiral.">
<polygon fill="white" stroke="black" points="362,-98.5 362,-128.5 487,-128.5 487,-98.5 362,-98.5"/>
<text text-anchor="start" x="370" y="-116.5" font-family="Helvetica,sans-Serif" font-size="10.00">IGLib.Gr3D.ConicalSpiral</text>
<text text-anchor="middle" x="424.5" y="-105.5" font-family="Helvetica,sans-Serif" font-size="10.00">Fermats3D</text>
</a>
</g>
</g>
<!-- Node2&#45;&gt;Node4 -->
<g id="edge3" class="edge"><title>Node2&#45;&gt;Node4</title>
<path fill="none" stroke="midnightblue" d="M336.289,-101.217C344.908,-102.431 353.508,-103.642 361.763,-104.805"/>
<polygon fill="midnightblue" stroke="midnightblue" points="336.572,-97.7222 326.182,-99.7932 335.596,-104.654 336.572,-97.7222"/>
</g>
<!-- Node5 -->
<g id="node5" class="node"><title>Node5</title>
<g id="a_node5"><a xlink:href="../../d8/d32/classIGLib_1_1Gr3D_1_1ConicalSpiralHyperbolic3D.html" target="_top" xlink:title="A 3D parametric curve with bounds &#45; the conical hyperbolic spiral.">
<polygon fill="white" stroke="black" points="362,-49.5 362,-79.5 487,-79.5 487,-49.5 362,-49.5"/>
<text text-anchor="start" x="370" y="-67.5" font-family="Helvetica,sans-Serif" font-size="10.00">IGLib.Gr3D.ConicalSpiral</text>
<text text-anchor="middle" x="424.5" y="-56.5" font-family="Helvetica,sans-Serif" font-size="10.00">Hyperbolic3D</text>
</a>
</g>
</g>
<!-- Node2&#45;&gt;Node5 -->
<g id="edge4" class="edge"><title>Node2&#45;&gt;Node5</title>
<path fill="none" stroke="midnightblue" d="M336.289,-76.2919C344.908,-75.1265 353.508,-73.9638 361.763,-72.8476"/>
<polygon fill="midnightblue" stroke="midnightblue" points="335.622,-72.8501 326.182,-77.6585 336.56,-79.787 335.622,-72.8501"/>
</g>
<!-- Node6 -->
<g id="node6" class="node"><title>Node6</title>
<g id="a_node6"><a xlink:href="../../da/d9b/classIGLib_1_1Gr3D_1_1ConicalSpiralLogarithmic3D.html" target="_top" xlink:title="A 3D parametric curve with bounds &#45; the conical logarithmic spiral.">
<polygon fill="white" stroke="black" points="362,-0.5 362,-30.5 487,-30.5 487,-0.5 362,-0.5"/>
<text text-anchor="start" x="370" y="-18.5" font-family="Helvetica,sans-Serif" font-size="10.00">IGLib.Gr3D.ConicalSpiral</text>
<text text-anchor="middle" x="424.5" y="-7.5" font-family="Helvetica,sans-Serif" font-size="10.00">Logarithmic3D</text>
</a>
</g>
</g>
<!-- Node2&#45;&gt;Node6 -->
<g id="edge5" class="edge"><title>Node2&#45;&gt;Node6</title>
<path fill="none" stroke="midnightblue" d="M304.748,-64.1072C323.076,-56.5196 343.369,-48.1415 362,-40.5 369.891,-37.2636 378.359,-33.8093 386.411,-30.5335"/>
<polygon fill="midnightblue" stroke="midnightblue" points="303.261,-60.9346 295.362,-67.9949 305.94,-67.4018 303.261,-60.9346"/>
</g>
</g>
</svg>
