<?xml version="1.0" encoding="UTF-8" standalone="no"?>
<!DOCTYPE svg PUBLIC "-//W3C//DTD SVG 1.1//EN"
 "http://www.w3.org/Graphics/SVG/1.1/DTD/svg11.dtd">
<!-- Generated by graphviz version 2.38.0 (20140413.2041)
 -->
<!-- Title: IG.Lib.IReporterTextLogger Pages: 1 -->
<svg width="250pt" height="308pt"
 viewBox="0.00 0.00 249.50 308.00" xmlns="http://www.w3.org/2000/svg" xmlns:xlink="http://www.w3.org/1999/xlink">
<g id="graph0" class="graph" transform="scale(1 1) rotate(0) translate(4 304)">
<title>IG.Lib.IReporterTextLogger</title>
<polygon fill="white" stroke="none" points="-4,4 -4,-304 245.5,-304 245.5,4 -4,4"/>
<!-- Node1 -->
<g id="node1" class="node"><title>Node1</title>
<g id="a_node1"><a xlink:title="Reporters that utilize logging messages to files. IReporterTextLogger typically outputs (to a file) m...">
<polygon fill="#bfbfbf" stroke="black" points="58.5,-224.5 58.5,-243.5 190.5,-243.5 190.5,-224.5 58.5,-224.5"/>
<text text-anchor="middle" x="124.5" y="-231.5" font-family="Helvetica,sans-Serif" font-size="10.00">IG.Lib.IReporterTextLogger</text>
</a>
</g>
</g>
<!-- Node3 -->
<g id="node3" class="node"><title>Node3</title>
<g id="a_node3"><a xlink:href="../../db/db1/interfaceIG_1_1Lib_1_1IReporter.html" target="_top" xlink:title="Interface from which majority of reporters inherit. Includes generic reporting functionality plus tra...">
<polygon fill="white" stroke="black" points="82.5,-168.5 82.5,-187.5 166.5,-187.5 166.5,-168.5 82.5,-168.5"/>
<text text-anchor="middle" x="124.5" y="-175.5" font-family="Helvetica,sans-Serif" font-size="10.00">IG.Lib.IReporter</text>
</a>
</g>
</g>
<!-- Node1&#45;&gt;Node3 -->
<g id="edge2" class="edge"><title>Node1&#45;&gt;Node3</title>
<path fill="none" stroke="midnightblue" d="M124.5,-213.805C124.5,-204.91 124.5,-194.78 124.5,-187.751"/>
<polygon fill="midnightblue" stroke="midnightblue" points="121,-214.083 124.5,-224.083 128,-214.083 121,-214.083"/>
</g>
<!-- Node2 -->
<g id="node2" class="node"><title>Node2</title>
<g id="a_node2"><a xlink:href="../../de/d0d/interfaceIG_1_1Lib_1_1IReporterBase.html" target="_top" xlink:title="Interface from which all reporters inherit.">
<polygon fill="white" stroke="black" points="85.5,-280.5 85.5,-299.5 163.5,-299.5 163.5,-280.5 85.5,-280.5"/>
<text text-anchor="middle" x="124.5" y="-287.5" font-family="Helvetica,sans-Serif" font-size="10.00">IReporterBase</text>
</a>
</g>
</g>
<!-- Node2&#45;&gt;Node1 -->
<g id="edge1" class="edge"><title>Node2&#45;&gt;Node1</title>
<path fill="none" stroke="midnightblue" d="M124.5,-269.805C124.5,-260.91 124.5,-250.78 124.5,-243.751"/>
<polygon fill="midnightblue" stroke="midnightblue" points="121,-270.083 124.5,-280.083 128,-270.083 121,-270.083"/>
</g>
<!-- Node4 -->
<g id="node4" class="node"><title>Node4</title>
<g id="a_node4"><a xlink:href="../../dd/d3c/interfaceIG_1_1Lib_1_1IReporterConsole.html" target="_top" xlink:title=" ">
<polygon fill="white" stroke="black" points="0,-112.5 0,-131.5 119,-131.5 119,-112.5 0,-112.5"/>
<text text-anchor="middle" x="59.5" y="-119.5" font-family="Helvetica,sans-Serif" font-size="10.00">IG.Lib.IReporterConsole</text>
</a>
</g>
</g>
<!-- Node3&#45;&gt;Node4 -->
<g id="edge3" class="edge"><title>Node3&#45;&gt;Node4</title>
<path fill="none" stroke="midnightblue" d="M106.227,-161.82C94.5822,-152.145 79.9005,-139.948 70.1334,-131.834"/>
<polygon fill="midnightblue" stroke="midnightblue" points="104.128,-164.626 114.057,-168.324 108.601,-159.242 104.128,-164.626"/>
</g>
<!-- Node7 -->
<g id="node7" class="node"><title>Node7</title>
<g id="a_node7"><a xlink:href="../../d4/de2/classIG_1_1Lib_1_1ReporterBase.html" target="_top" xlink:title="Base IGlib class for reporting, tracing and logging; provides a global reporter and a basis for creat...">
<polygon fill="white" stroke="black" points="137.5,-112.5 137.5,-131.5 241.5,-131.5 241.5,-112.5 137.5,-112.5"/>
<text text-anchor="middle" x="189.5" y="-119.5" font-family="Helvetica,sans-Serif" font-size="10.00">IG.Lib.ReporterBase</text>
</a>
</g>
</g>
<!-- Node3&#45;&gt;Node7 -->
<g id="edge7" class="edge"><title>Node3&#45;&gt;Node7</title>
<path fill="none" stroke="midnightblue" d="M142.773,-161.82C154.418,-152.145 169.099,-139.948 178.867,-131.834"/>
<polygon fill="midnightblue" stroke="midnightblue" points="140.399,-159.242 134.943,-168.324 144.872,-164.626 140.399,-159.242"/>
</g>
<!-- Node5 -->
<g id="node5" class="node"><title>Node5</title>
<g id="a_node5"><a xlink:href="../../de/df1/classIG_1_1Lib_1_1ReporterConsole.html" target="_top" xlink:title=" ">
<polygon fill="white" stroke="black" points="51,-0.5 51,-19.5 168,-19.5 168,-0.5 51,-0.5"/>
<text text-anchor="middle" x="109.5" y="-7.5" font-family="Helvetica,sans-Serif" font-size="10.00">IG.Lib.ReporterConsole</text>
</a>
</g>
</g>
<!-- Node4&#45;&gt;Node5 -->
<g id="edge4" class="edge"><title>Node4&#45;&gt;Node5</title>
<path fill="none" stroke="midnightblue" d="M63.2733,-102.391C66.3679,-89.0724 71.401,-70.9315 78.5,-56 84.9361,-42.4629 95.2362,-28.4942 102.179,-19.7833"/>
<polygon fill="midnightblue" stroke="midnightblue" points="59.8303,-101.753 61.1268,-112.269 66.6706,-103.24 59.8303,-101.753"/>
</g>
<!-- Node6 -->
<g id="node6" class="node"><title>Node6</title>
<g id="a_node6"><a xlink:href="../../da/df9/classIG_1_1Lib_1_1ReporterConsole__Base.html" target="_top" xlink:title="Base class for reporter classes that contain either reporting via system console, reporting via messa...">
<polygon fill="white" stroke="black" points="88,-56.5 88,-75.5 233,-75.5 233,-56.5 88,-56.5"/>
<text text-anchor="middle" x="160.5" y="-63.5" font-family="Helvetica,sans-Serif" font-size="10.00">IG.Lib.ReporterConsole_Base</text>
</a>
</g>
</g>
<!-- Node4&#45;&gt;Node6 -->
<g id="edge5" class="edge"><title>Node4&#45;&gt;Node6</title>
<path fill="none" stroke="midnightblue" d="M84.5825,-107.59C103.257,-97.6052 128.204,-84.2672 144.313,-75.6545"/>
<polygon fill="midnightblue" stroke="midnightblue" points="82.8959,-104.522 75.7274,-112.324 86.1963,-110.696 82.8959,-104.522"/>
</g>
<!-- Node6&#45;&gt;Node5 -->
<g id="edge6" class="edge"><title>Node6&#45;&gt;Node5</title>
<path fill="none" stroke="midnightblue" d="M145.122,-48.7175C136.133,-39.1997 125.141,-27.5608 117.765,-19.7511"/>
<polygon fill="midnightblue" stroke="midnightblue" points="142.668,-51.216 152.078,-56.083 147.757,-46.4096 142.668,-51.216"/>
</g>
<!-- Node7&#45;&gt;Node6 -->
<g id="edge8" class="edge"><title>Node7&#45;&gt;Node6</title>
<path fill="none" stroke="midnightblue" d="M179.824,-102.983C174.902,-93.8168 169.142,-83.0922 165.2,-75.7511"/>
<polygon fill="midnightblue" stroke="midnightblue" points="176.896,-104.929 184.711,-112.083 183.063,-101.617 176.896,-104.929"/>
</g>
</g>
</svg>
