<?xml version="1.0" encoding="UTF-8" standalone="no"?>
<!DOCTYPE svg PUBLIC "-//W3C//DTD SVG 1.1//EN"
 "http://www.w3.org/Graphics/SVG/1.1/DTD/svg11.dtd">
<!-- Generated by graphviz version 2.38.0 (20140413.2041)
 -->
<!-- Title: IG.Num.AnalysisRequestDto Pages: 1 -->
<svg width="541pt" height="100pt"
 viewBox="0.00 0.00 541.00 99.50" xmlns="http://www.w3.org/2000/svg" xmlns:xlink="http://www.w3.org/1999/xlink">
<g id="graph0" class="graph" transform="scale(1 1) rotate(0) translate(4 95.5)">
<title>IG.Num.AnalysisRequestDto</title>
<polygon fill="white" stroke="none" points="-4,4 -4,-95.5 537,-95.5 537,4 -4,4"/>
<!-- Node1 -->
<g id="node1" class="node"><title>Node1</title>
<g id="a_node1"><a xlink:title="DTO (Data Transfer Objects) for storing contents of direct analysis request (in optimization problems...">
<polygon fill="#bfbfbf" stroke="black" points="392,-41 392,-60 533,-60 533,-41 392,-41"/>
<text text-anchor="middle" x="462.5" y="-48" font-family="Helvetica,sans-Serif" font-size="10.00">IG.Num.AnalysisRequestDto</text>
</a>
</g>
</g>
<!-- Node2 -->
<g id="node2" class="node"><title>Node2</title>
<g id="a_node2"><a xlink:href="../../d7/dd8/classIG_1_1Lib_1_1SerializationDtoBase.html" target="_top" xlink:title=" ">
<polygon fill="white" stroke="black" points="158,-50 158,-91 298,-91 298,-50 158,-50"/>
<text text-anchor="start" x="166" y="-79" font-family="Helvetica,sans-Serif" font-size="10.00">SerializationDtoBase</text>
<text text-anchor="start" x="166" y="-68" font-family="Helvetica,sans-Serif" font-size="10.00">&lt; AnalysisResults, Analysis</text>
<text text-anchor="middle" x="228" y="-57" font-family="Helvetica,sans-Serif" font-size="10.00">Results &gt;</text>
</a>
</g>
</g>
<!-- Node2&#45;&gt;Node1 -->
<g id="edge1" class="edge"><title>Node2&#45;&gt;Node1</title>
<path fill="none" stroke="midnightblue" d="M308.356,-63.6737C335.461,-61.3421 365.551,-58.7537 391.835,-56.4927"/>
<polygon fill="midnightblue" stroke="midnightblue" points="307.791,-60.2092 298.128,-64.5535 308.391,-67.1835 307.791,-60.2092"/>
</g>
<!-- Node3 -->
<g id="node3" class="node"><title>Node3</title>
<g id="a_node3"><a xlink:href="../../dc/dec/classIG_1_1Lib_1_1VectorDtoBase.html" target="_top" xlink:title="Base class for various vector DTO (Data Transfer Objects) for vectors. Used to store a state of a vec...">
<polygon fill="white" stroke="black" points="172.5,-0.5 172.5,-30.5 283.5,-30.5 283.5,-0.5 172.5,-0.5"/>
<text text-anchor="start" x="180.5" y="-18.5" font-family="Helvetica,sans-Serif" font-size="10.00">IG.Lib.VectorDtoBase</text>
<text text-anchor="middle" x="228" y="-7.5" font-family="Helvetica,sans-Serif" font-size="10.00">&lt; VectorType &gt;</text>
</a>
</g>
</g>
<!-- Node3&#45;&gt;Node1 -->
<g id="edge2" class="edge"><title>Node3&#45;&gt;Node1</title>
<path fill="none" stroke="#9a32cd" stroke-dasharray="5,2" d="M293.427,-25.1986C326.139,-30.123 365.734,-36.0837 398.275,-40.9823"/>
<polygon fill="#9a32cd" stroke="#9a32cd" points="293.921,-21.7336 283.511,-23.7059 292.878,-28.6556 293.921,-21.7336"/>
<text text-anchor="middle" x="345" y="-40.5" font-family="Helvetica,sans-Serif" font-size="10.00"> _parameters</text>
</g>
<!-- Node4 -->
<g id="node4" class="node"><title>Node4</title>
<g id="a_node4"><a xlink:href="../../d7/dd8/classIG_1_1Lib_1_1SerializationDtoBase.html" target="_top" xlink:title=" ">
<polygon fill="white" stroke="black" points="0,-0.5 0,-30.5 121,-30.5 121,-0.5 0,-0.5"/>
<text text-anchor="start" x="8" y="-18.5" font-family="Helvetica,sans-Serif" font-size="10.00">SerializationDtoBase</text>
<text text-anchor="middle" x="60.5" y="-7.5" font-family="Helvetica,sans-Serif" font-size="10.00">&lt; VectorType, IVector &gt;</text>
</a>
</g>
</g>
<!-- Node4&#45;&gt;Node3 -->
<g id="edge3" class="edge"><title>Node4&#45;&gt;Node3</title>
<path fill="none" stroke="midnightblue" d="M131.547,-15.5C145.167,-15.5 159.256,-15.5 172.293,-15.5"/>
<polygon fill="midnightblue" stroke="midnightblue" points="131.249,-12.0001 121.249,-15.5 131.249,-19.0001 131.249,-12.0001"/>
</g>
</g>
</svg>
