<?xml version="1.0" encoding="UTF-8" standalone="no"?>
<!DOCTYPE svg PUBLIC "-//W3C//DTD SVG 1.1//EN"
 "http://www.w3.org/Graphics/SVG/1.1/DTD/svg11.dtd">
<!-- Generated by graphviz version 2.38.0 (20140413.2041)
 -->
<!-- Title: IG.Lib.IpcStreamClientServerBase Pages: 1 -->
<svg width="240pt" height="205pt"
 viewBox="0.00 0.00 240.00 205.00" xmlns="http://www.w3.org/2000/svg" xmlns:xlink="http://www.w3.org/1999/xlink">
<g id="graph0" class="graph" transform="scale(1 1) rotate(0) translate(4 201)">
<title>IG.Lib.IpcStreamClientServerBase</title>
<polygon fill="white" stroke="none" points="-4,4 -4,-201 236,-201 236,4 -4,4"/>
<!-- Node1 -->
<g id="node1" class="node"><title>Node1</title>
<g id="a_node1"><a xlink:title="Base class for client and server classes with stream&#45;based communication.">
<polygon fill="#bfbfbf" stroke="black" points="0,-0.5 0,-19.5 164,-19.5 164,-0.5 0,-0.5"/>
<text text-anchor="middle" x="82" y="-7.5" font-family="Helvetica,sans-Serif" font-size="10.00">IG.Lib.IpcStreamClientServerBase</text>
</a>
</g>
</g>
<!-- Node2 -->
<g id="node2" class="node"><title>Node2</title>
<g id="a_node2"><a xlink:href="../../d3/db6/interfaceIG_1_1Lib_1_1ILockable.html" target="_top" xlink:title="Lockable object, has a Lock property that returns object on which lock must be performed in order to ...">
<polygon fill="white" stroke="black" points="19,-177.5 19,-196.5 77,-196.5 77,-177.5 19,-177.5"/>
<text text-anchor="middle" x="48" y="-184.5" font-family="Helvetica,sans-Serif" font-size="10.00">ILockable</text>
</a>
</g>
</g>
<!-- Node2&#45;&gt;Node1 -->
<g id="edge1" class="edge"><title>Node2&#45;&gt;Node1</title>
<path fill="none" stroke="midnightblue" d="M51.7009,-166.951C59.0166,-129.297 75.073,-46.6537 80.311,-19.6932"/>
<polygon fill="midnightblue" stroke="midnightblue" points="48.2043,-166.597 49.7328,-177.081 55.0758,-167.932 48.2043,-166.597"/>
</g>
<!-- Node3 -->
<g id="node3" class="node"><title>Node3</title>
<g id="a_node3"><a xlink:title=" ">
<polygon fill="white" stroke="#bfbfbf" points="95.5,-177.5 95.5,-196.5 136.5,-196.5 136.5,-177.5 95.5,-177.5"/>
<text text-anchor="middle" x="116" y="-184.5" font-family="Helvetica,sans-Serif" font-size="10.00">static</text>
</a>
</g>
</g>
<!-- Node3&#45;&gt;Node1 -->
<g id="edge2" class="edge"><title>Node3&#45;&gt;Node1</title>
<path fill="none" stroke="#9a32cd" stroke-dasharray="5,2" d="M112.299,-166.951C104.983,-129.297 88.927,-46.6537 83.689,-19.6932"/>
<polygon fill="#9a32cd" stroke="#9a32cd" points="108.924,-167.932 114.267,-177.081 115.796,-166.597 108.924,-167.932"/>
<text text-anchor="middle" x="171.5" y="-151" font-family="Helvetica,sans-Serif" font-size="10.00"> _defaultMsgTestSpeed</text>
<text text-anchor="middle" x="171.5" y="-140" font-family="Helvetica,sans-Serif" font-size="10.00">_defaultStopRequest</text>
<text text-anchor="middle" x="171.5" y="-129" font-family="Helvetica,sans-Serif" font-size="10.00">_defaultMessagePrefix</text>
<text text-anchor="middle" x="171.5" y="-118" font-family="Helvetica,sans-Serif" font-size="10.00">_defaultMsgRequestBegin</text>
<text text-anchor="middle" x="171.5" y="-107" font-family="Helvetica,sans-Serif" font-size="10.00">_defaultMsgRequestEnd</text>
<text text-anchor="middle" x="171.5" y="-96" font-family="Helvetica,sans-Serif" font-size="10.00">_defaultMessageSeparator</text>
<text text-anchor="middle" x="171.5" y="-85" font-family="Helvetica,sans-Serif" font-size="10.00">_defaultStoppedResponse</text>
<text text-anchor="middle" x="171.5" y="-74" font-family="Helvetica,sans-Serif" font-size="10.00">_defaultMsgResponseEnd</text>
<text text-anchor="middle" x="171.5" y="-63" font-family="Helvetica,sans-Serif" font-size="10.00">_defaultIsMultilineResponse</text>
<text text-anchor="middle" x="171.5" y="-52" font-family="Helvetica,sans-Serif" font-size="10.00">_defaultMsgResponseBegin</text>
<text text-anchor="middle" x="171.5" y="-41" font-family="Helvetica,sans-Serif" font-size="10.00">...</text>
</g>
</g>
</svg>
