<?xml version="1.0" encoding="UTF-8" standalone="no"?>
<!DOCTYPE svg PUBLIC "-//W3C//DTD SVG 1.1//EN"
 "http://www.w3.org/Graphics/SVG/1.1/DTD/svg11.dtd">
<!-- Generated by graphviz version 2.38.0 (20140413.2041)
 -->
<!-- Title: IG.Num.VectorFunctionBaseComponentWise Pages: 1 -->
<svg width="436pt" height="330pt"
 viewBox="0.00 0.00 435.50 330.00" xmlns="http://www.w3.org/2000/svg" xmlns:xlink="http://www.w3.org/1999/xlink">
<g id="graph0" class="graph" transform="scale(1 1) rotate(0) translate(4 326)">
<title>IG.Num.VectorFunctionBaseComponentWise</title>
<polygon fill="white" stroke="none" points="-4,4 -4,-326 431.5,-326 431.5,4 -4,4"/>
<!-- Node1 -->
<g id="node1" class="node"><title>Node1</title>
<g id="a_node1"><a xlink:title="Base class for defining Vector functions whose component&#45;wise evaluation is defined directly.">
<polygon fill="#bfbfbf" stroke="black" points="138.5,-123.5 138.5,-153.5 279.5,-153.5 279.5,-123.5 138.5,-123.5"/>
<text text-anchor="start" x="146.5" y="-141.5" font-family="Helvetica,sans-Serif" font-size="10.00">IG.Num.VectorFunctionBase</text>
<text text-anchor="middle" x="209" y="-130.5" font-family="Helvetica,sans-Serif" font-size="10.00">ComponentWise</text>
</a>
</g>
</g>
<!-- Node5 -->
<g id="node5" class="node"><title>Node5</title>
<g id="a_node5"><a xlink:href="../../da/d4f/classIG_1_1Num_1_1LinearBasis.html" target="_top" xlink:title="Vector function containing lineer basis in a n&#45;dimensional vector space. Composed of n+1 functions: 1...">
<polygon fill="white" stroke="black" points="16,-62 16,-81 120,-81 120,-62 16,-62"/>
<text text-anchor="middle" x="68" y="-69" font-family="Helvetica,sans-Serif" font-size="10.00">IG.Num.LinearBasis</text>
</a>
</g>
</g>
<!-- Node1&#45;&gt;Node5 -->
<g id="edge7" class="edge"><title>Node1&#45;&gt;Node5</title>
<path fill="none" stroke="midnightblue" d="M169.154,-119.131C142.015,-106.62 107.35,-90.6399 86.4537,-81.007"/>
<polygon fill="midnightblue" stroke="midnightblue" points="167.858,-122.388 178.405,-123.396 170.789,-116.031 167.858,-122.388"/>
</g>
<!-- Node7 -->
<g id="node7" class="node"><title>Node7</title>
<g id="a_node7"><a xlink:href="../../d2/de4/classIG_1_1Num_1_1QuadraticBasis.html" target="_top" xlink:title="Vector function containing quadratic basis in a n&#45;dimensional vector space. Composed of (n+1)*(n+2)/2...">
<polygon fill="white" stroke="black" points="149.5,-62 149.5,-81 268.5,-81 268.5,-62 149.5,-62"/>
<text text-anchor="middle" x="209" y="-69" font-family="Helvetica,sans-Serif" font-size="10.00">IG.Num.QuadraticBasis</text>
</a>
</g>
</g>
<!-- Node1&#45;&gt;Node7 -->
<g id="edge9" class="edge"><title>Node1&#45;&gt;Node7</title>
<path fill="none" stroke="midnightblue" d="M209,-113.25C209,-102.017 209,-89.3767 209,-81.1945"/>
<polygon fill="midnightblue" stroke="midnightblue" points="205.5,-113.396 209,-123.396 212.5,-113.396 205.5,-113.396"/>
</g>
<!-- Node9 -->
<g id="node9" class="node"><title>Node9</title>
<g id="a_node9"><a xlink:href="../../db/db9/classIG_1_1Num_1_1VectorFunctionFromScalar.html" target="_top" xlink:title=" ">
<polygon fill="white" stroke="black" points="286.5,-56.5 286.5,-86.5 427.5,-86.5 427.5,-56.5 286.5,-56.5"/>
<text text-anchor="start" x="294.5" y="-74.5" font-family="Helvetica,sans-Serif" font-size="10.00">IG.Num.VectorFunctionFrom</text>
<text text-anchor="middle" x="357" y="-63.5" font-family="Helvetica,sans-Serif" font-size="10.00">Scalar</text>
</a>
</g>
</g>
<!-- Node1&#45;&gt;Node9 -->
<g id="edge11" class="edge"><title>Node1&#45;&gt;Node9</title>
<path fill="none" stroke="midnightblue" d="M250.511,-119.269C274.084,-108.916 303.144,-96.1528 324.949,-86.5765"/>
<polygon fill="midnightblue" stroke="midnightblue" points="248.862,-116.17 241.114,-123.396 251.677,-122.579 248.862,-116.17"/>
</g>
<!-- Node2 -->
<g id="node2" class="node"><title>Node2</title>
<g id="a_node2"><a xlink:href="../../dc/d23/classIG_1_1Num_1_1VectorFunctionBaseGeneral.html" target="_top" xlink:title="Base class for VectorFunctionBase and VectorFunctionBaseComponentwise. In general,...">
<polygon fill="white" stroke="black" points="139.5,-190.5 139.5,-209.5 278.5,-209.5 278.5,-190.5 139.5,-190.5"/>
<text text-anchor="middle" x="209" y="-197.5" font-family="Helvetica,sans-Serif" font-size="10.00">VectorFunctionBaseGeneral</text>
</a>
</g>
</g>
<!-- Node2&#45;&gt;Node1 -->
<g id="edge1" class="edge"><title>Node2&#45;&gt;Node1</title>
<path fill="none" stroke="midnightblue" d="M209,-180.235C209,-171.586 209,-161.497 209,-153.523"/>
<polygon fill="midnightblue" stroke="midnightblue" points="205.5,-180.475 209,-190.475 212.5,-180.475 205.5,-180.475"/>
</g>
<!-- Node3 -->
<g id="node3" class="node"><title>Node3</title>
<g id="a_node3"><a xlink:href="../../da/d06/interfaceIG_1_1Num_1_1IVectorFunction.html" target="_top" xlink:title="Vector function of a vector argument.">
<polygon fill="white" stroke="black" points="207.5,-246.5 207.5,-265.5 292.5,-265.5 292.5,-246.5 207.5,-246.5"/>
<text text-anchor="middle" x="250" y="-253.5" font-family="Helvetica,sans-Serif" font-size="10.00">IVectorFunction</text>
</a>
</g>
</g>
<!-- Node3&#45;&gt;Node1 -->
<g id="edge5" class="edge"><title>Node3&#45;&gt;Node1</title>
<path fill="none" stroke="midnightblue" d="M269.325,-239.326C282.986,-226.247 297.342,-207.06 288,-190 279.009,-173.581 262.153,-161.723 246.314,-153.641"/>
<polygon fill="midnightblue" stroke="midnightblue" points="266.683,-236.992 261.546,-246.258 271.34,-242.218 266.683,-236.992"/>
</g>
<!-- Node3&#45;&gt;Node2 -->
<g id="edge2" class="edge"><title>Node3&#45;&gt;Node2</title>
<path fill="none" stroke="midnightblue" d="M236.983,-237.855C229.883,-228.505 221.396,-217.327 215.644,-209.751"/>
<polygon fill="midnightblue" stroke="midnightblue" points="234.395,-240.235 243.23,-246.083 239.97,-236.002 234.395,-240.235"/>
</g>
<!-- Node4 -->
<g id="node4" class="node"><title>Node4</title>
<g id="a_node4"><a xlink:href="../../d3/db6/interfaceIG_1_1Lib_1_1ILockable.html" target="_top" xlink:title="Lockable object, has a Lock property that returns object on which lock must be performed in order to ...">
<polygon fill="white" stroke="black" points="150,-302.5 150,-321.5 208,-321.5 208,-302.5 150,-302.5"/>
<text text-anchor="middle" x="179" y="-309.5" font-family="Helvetica,sans-Serif" font-size="10.00">ILockable</text>
</a>
</g>
</g>
<!-- Node4&#45;&gt;Node1 -->
<g id="edge6" class="edge"><title>Node4&#45;&gt;Node1</title>
<path fill="none" stroke="midnightblue" d="M163.668,-295.074C142.84,-271.416 110.33,-225.92 130,-190 138.991,-173.581 155.847,-161.723 171.686,-153.641"/>
<polygon fill="midnightblue" stroke="midnightblue" points="161.111,-297.464 170.444,-302.48 166.276,-292.739 161.111,-297.464"/>
</g>
<!-- Node4&#45;&gt;Node2 -->
<g id="edge4" class="edge"><title>Node4&#45;&gt;Node2</title>
<path fill="none" stroke="midnightblue" d="M183.998,-292.674C190.557,-268.625 201.803,-227.388 206.657,-209.591"/>
<polygon fill="midnightblue" stroke="midnightblue" points="180.609,-291.8 181.354,-302.368 187.362,-293.642 180.609,-291.8"/>
</g>
<!-- Node4&#45;&gt;Node3 -->
<g id="edge3" class="edge"><title>Node4&#45;&gt;Node3</title>
<path fill="none" stroke="midnightblue" d="M198.59,-296.101C211.368,-286.382 227.613,-274.027 238.385,-265.834"/>
<polygon fill="midnightblue" stroke="midnightblue" points="196.248,-293.484 190.407,-302.324 200.486,-299.056 196.248,-293.484"/>
</g>
<!-- Node6 -->
<g id="node6" class="node"><title>Node6</title>
<g id="a_node6"><a xlink:href="../../d9/d57/classIG_1_1Num_1_1LinearBasisSafer.html" target="_top" xlink:title="The same as LinearBasis, just that it has more meaningful error reporting (but is therefore slower).">
<polygon fill="white" stroke="black" points="0,-0.5 0,-19.5 126,-19.5 126,-0.5 0,-0.5"/>
<text text-anchor="middle" x="63" y="-7.5" font-family="Helvetica,sans-Serif" font-size="10.00">IG.Num.LinearBasisSafer</text>
</a>
</g>
</g>
<!-- Node5&#45;&gt;Node6 -->
<g id="edge8" class="edge"><title>Node5&#45;&gt;Node6</title>
<path fill="none" stroke="midnightblue" d="M66.43,-51.8165C65.5207,-40.9962 64.42,-27.898 63.715,-19.5091"/>
<polygon fill="midnightblue" stroke="midnightblue" points="62.9584,-52.3033 67.2836,-61.9751 69.9339,-51.7171 62.9584,-52.3033"/>
</g>
<!-- Node8 -->
<g id="node8" class="node"><title>Node8</title>
<g id="a_node8"><a xlink:href="../../d6/d46/classIG_1_1Num_1_1QuadraticBasisSafer.html" target="_top" xlink:title="The same as QuadraticBasis, just that it has more meaningful exceptions.">
<polygon fill="white" stroke="black" points="144,-0.5 144,-19.5 286,-19.5 286,-0.5 144,-0.5"/>
<text text-anchor="middle" x="215" y="-7.5" font-family="Helvetica,sans-Serif" font-size="10.00">IG.Num.QuadraticBasisSafer</text>
</a>
</g>
</g>
<!-- Node7&#45;&gt;Node8 -->
<g id="edge10" class="edge"><title>Node7&#45;&gt;Node8</title>
<path fill="none" stroke="midnightblue" d="M210.884,-51.8165C211.975,-40.9962 213.296,-27.898 214.142,-19.5091"/>
<polygon fill="midnightblue" stroke="midnightblue" points="207.381,-51.6744 209.86,-61.9751 214.345,-52.3768 207.381,-51.6744"/>
</g>
</g>
</svg>
