<?xml version="1.0" encoding="UTF-8" standalone="no"?>
<!DOCTYPE svg PUBLIC "-//W3C//DTD SVG 1.1//EN"
 "http://www.w3.org/Graphics/SVG/1.1/DTD/svg11.dtd">
<!-- Generated by graphviz version 2.38.0 (20140413.2041)
 -->
<!-- Title: IG.Lib.WaitFileEventBaseByProxy Pages: 1 -->
<svg width="579pt" height="445pt"
 viewBox="0.00 0.00 578.50 445.00" xmlns="http://www.w3.org/2000/svg" xmlns:xlink="http://www.w3.org/1999/xlink">
<g id="graph0" class="graph" transform="scale(1 1) rotate(0) translate(4 441)">
<title>IG.Lib.WaitFileEventBaseByProxy</title>
<polygon fill="white" stroke="none" points="-4,4 -4,-441 574.5,-441 574.5,4 -4,4"/>
<!-- Node1 -->
<g id="node1" class="node"><title>Node1</title>
<g id="a_node1"><a xlink:title="Base class for classes that provide blocking until a file or directory is created/removed....">
<polygon fill="#bfbfbf" stroke="black" points="442.5,-0.5 442.5,-30.5 570.5,-30.5 570.5,-0.5 442.5,-0.5"/>
<text text-anchor="start" x="450.5" y="-18.5" font-family="Helvetica,sans-Serif" font-size="10.00">IG.Lib.WaitFileEventBase</text>
<text text-anchor="middle" x="506.5" y="-7.5" font-family="Helvetica,sans-Serif" font-size="10.00">ByProxy</text>
</a>
</g>
</g>
<!-- Node2 -->
<g id="node2" class="node"><title>Node2</title>
<g id="a_node2"><a xlink:href="../../df/d44/classIG_1_1Lib_1_1WaitFileEventBaseByProxyLatence.html" target="_top" xlink:title="Base class for classes that provide blocking until a file or directory is created/removed....">
<polygon fill="white" stroke="black" points="341,-68.5 341,-98.5 478,-98.5 478,-68.5 341,-68.5"/>
<text text-anchor="start" x="349" y="-86.5" font-family="Helvetica,sans-Serif" font-size="10.00">WaitFileEventBaseByProxy</text>
<text text-anchor="middle" x="409.5" y="-75.5" font-family="Helvetica,sans-Serif" font-size="10.00">Latence</text>
</a>
</g>
</g>
<!-- Node2&#45;&gt;Node1 -->
<g id="edge1" class="edge"><title>Node2&#45;&gt;Node1</title>
<path fill="none" stroke="midnightblue" d="M439.058,-62.3884C454.178,-52.1003 472.213,-39.8293 485.827,-30.5663"/>
<polygon fill="midnightblue" stroke="midnightblue" points="436.846,-59.6598 430.548,-68.179 440.784,-65.4472 436.846,-59.6598"/>
</g>
<!-- Node3 -->
<g id="node3" class="node"><title>Node3</title>
<g id="a_node3"><a xlink:href="../../df/dea/classIG_1_1Lib_1_1WaitConditionBase.html" target="_top" xlink:title="Base class for objects that perform waiting until a condition is fulfilled.">
<polygon fill="white" stroke="black" points="231.5,-260.5 231.5,-279.5 331.5,-279.5 331.5,-260.5 231.5,-260.5"/>
<text text-anchor="middle" x="281.5" y="-267.5" font-family="Helvetica,sans-Serif" font-size="10.00">WaitConditionBase</text>
</a>
</g>
</g>
<!-- Node3&#45;&gt;Node2 -->
<g id="edge2" class="edge"><title>Node3&#45;&gt;Node2</title>
<path fill="none" stroke="midnightblue" d="M259.542,-254.382C249.597,-246.415 238.88,-235.607 233.5,-223 225.008,-203.101 236.203,-155.804 244.5,-146 268.495,-117.647 306.88,-102.354 340.591,-94.1108"/>
<polygon fill="midnightblue" stroke="midnightblue" points="257.473,-257.205 267.58,-260.382 261.66,-251.596 257.473,-257.205"/>
</g>
<!-- Node8 -->
<g id="node8" class="node"><title>Node8</title>
<g id="a_node8"><a xlink:href="../../da/d67/classIG_1_1Lib_1_1WaitCondition.html" target="_top" xlink:title="Provides a framework for blocking execution until the specified condition becomes satisfied....">
<polygon fill="white" stroke="black" points="243,-203.5 243,-222.5 320,-222.5 320,-203.5 243,-203.5"/>
<text text-anchor="middle" x="281.5" y="-210.5" font-family="Helvetica,sans-Serif" font-size="10.00">WaitCondition</text>
</a>
</g>
</g>
<!-- Node3&#45;&gt;Node8 -->
<g id="edge12" class="edge"><title>Node3&#45;&gt;Node8</title>
<path fill="none" stroke="midnightblue" d="M281.5,-250.117C281.5,-240.817 281.5,-230.056 281.5,-222.715"/>
<polygon fill="midnightblue" stroke="midnightblue" points="278,-250.406 281.5,-260.406 285,-250.406 278,-250.406"/>
</g>
<!-- Node4 -->
<g id="node4" class="node"><title>Node4</title>
<g id="a_node4"><a xlink:href="../../de/d1e/interfaceIG_1_1Lib_1_1IWaitCondition.html" target="_top" xlink:title="Interface for classes that implement blocking until a specified condition is met.">
<polygon fill="white" stroke="black" points="326.5,-317.5 326.5,-336.5 406.5,-336.5 406.5,-317.5 326.5,-317.5"/>
<text text-anchor="middle" x="366.5" y="-324.5" font-family="Helvetica,sans-Serif" font-size="10.00">IWaitCondition</text>
</a>
</g>
</g>
<!-- Node4&#45;&gt;Node3 -->
<g id="edge3" class="edge"><title>Node4&#45;&gt;Node3</title>
<path fill="none" stroke="midnightblue" d="M344.592,-311.824C328.799,-301.605 308.002,-288.148 294.688,-279.533"/>
<polygon fill="midnightblue" stroke="midnightblue" points="342.922,-314.912 353.219,-317.406 346.724,-309.035 342.922,-314.912"/>
</g>
<!-- Node6 -->
<g id="node6" class="node"><title>Node6</title>
<g id="a_node6"><a xlink:href="../../d2/d48/interfaceIG_1_1Lib_1_1IWaitFileEvent.html" target="_top" xlink:title="Interface for classes that provide waiting for specific file events (such as ceration or deletion of ...">
<polygon fill="white" stroke="black" points="412,-203.5 412,-222.5 491,-222.5 491,-203.5 412,-203.5"/>
<text text-anchor="middle" x="451.5" y="-210.5" font-family="Helvetica,sans-Serif" font-size="10.00">IWaitFileEvent</text>
</a>
</g>
</g>
<!-- Node4&#45;&gt;Node6 -->
<g id="edge7" class="edge"><title>Node4&#45;&gt;Node6</title>
<path fill="none" stroke="midnightblue" d="M394.93,-312.431C400.912,-308.672 406.82,-304.176 411.5,-299 432.611,-275.652 444.625,-239.196 449.26,-222.668"/>
<polygon fill="midnightblue" stroke="midnightblue" points="393.184,-309.398 386.247,-317.405 396.664,-315.472 393.184,-309.398"/>
</g>
<!-- Node7 -->
<g id="node7" class="node"><title>Node7</title>
<g id="a_node7"><a xlink:href="../../d4/d27/classIG_1_1Lib_1_1WaitFileEventLatenceBase.html" target="_top" xlink:title="Base class for classes that impelement methods that block until a file or directory is created or del...">
<polygon fill="white" stroke="black" points="253.5,-146.5 253.5,-165.5 415.5,-165.5 415.5,-146.5 253.5,-146.5"/>
<text text-anchor="middle" x="334.5" y="-153.5" font-family="Helvetica,sans-Serif" font-size="10.00">IG.Lib.WaitFileEventLatenceBase</text>
</a>
</g>
</g>
<!-- Node4&#45;&gt;Node7 -->
<g id="edge20" class="edge"><title>Node4&#45;&gt;Node7</title>
<path fill="none" stroke="midnightblue" d="M373.19,-307.416C373.724,-304.295 373.917,-301.072 373.5,-298 366.53,-246.658 345.903,-187.606 337.811,-165.734"/>
<polygon fill="midnightblue" stroke="midnightblue" points="369.758,-306.698 370.462,-317.269 376.504,-308.566 369.758,-306.698"/>
</g>
<!-- Node4&#45;&gt;Node8 -->
<g id="edge13" class="edge"><title>Node4&#45;&gt;Node8</title>
<path fill="none" stroke="midnightblue" d="M361.989,-307.197C357.98,-293.208 351.089,-274.166 340.5,-260 328.602,-244.083 309.851,-230.761 296.689,-222.618"/>
<polygon fill="midnightblue" stroke="midnightblue" points="358.676,-308.362 364.603,-317.144 365.447,-306.583 358.676,-308.362"/>
</g>
<!-- Node5 -->
<g id="node5" class="node"><title>Node5</title>
<g id="a_node5"><a xlink:href="../../d3/db6/interfaceIG_1_1Lib_1_1ILockable.html" target="_top" xlink:title="Lockable object, has a Lock property that returns object on which lock must be performed in order to ...">
<polygon fill="white" stroke="black" points="337.5,-417.5 337.5,-436.5 395.5,-436.5 395.5,-417.5 337.5,-417.5"/>
<text text-anchor="middle" x="366.5" y="-424.5" font-family="Helvetica,sans-Serif" font-size="10.00">ILockable</text>
</a>
</g>
</g>
<!-- Node5&#45;&gt;Node1 -->
<g id="edge22" class="edge"><title>Node5&#45;&gt;Node1</title>
<path fill="none" stroke="midnightblue" d="M405.725,-425.265C434.167,-423.117 472.557,-416.752 501.5,-399 535.759,-377.987 557.5,-368.19 557.5,-328 557.5,-328 557.5,-328 557.5,-82.5 557.5,-61.2134 540.684,-42.6112 526.364,-30.6292"/>
<polygon fill="midnightblue" stroke="midnightblue" points="405.499,-421.773 395.733,-425.88 405.929,-428.759 405.499,-421.773"/>
</g>
<!-- Node5&#45;&gt;Node2 -->
<g id="edge9" class="edge"><title>Node5&#45;&gt;Node2</title>
<path fill="none" stroke="midnightblue" d="M405.483,-418.704C450.812,-407.703 519.5,-382.107 519.5,-328 519.5,-328 519.5,-328 519.5,-184 519.5,-142.799 476.531,-114.232 444.305,-98.6006"/>
<polygon fill="midnightblue" stroke="midnightblue" points="404.606,-415.314 395.638,-420.956 406.167,-422.138 404.606,-415.314"/>
</g>
<!-- Node5&#45;&gt;Node3 -->
<g id="edge5" class="edge"><title>Node5&#45;&gt;Node3</title>
<path fill="none" stroke="midnightblue" d="M356.794,-408.419C346.893,-390.474 331.097,-361.812 317.5,-337 306.21,-316.397 292.998,-292.138 286.149,-279.549"/>
<polygon fill="midnightblue" stroke="midnightblue" points="353.862,-410.351 361.759,-417.415 359.991,-406.968 353.862,-410.351"/>
</g>
<!-- Node5&#45;&gt;Node4 -->
<g id="edge4" class="edge"><title>Node5&#45;&gt;Node4</title>
<path fill="none" stroke="midnightblue" d="M366.5,-407.22C366.5,-385.951 366.5,-352.22 366.5,-336.537"/>
<polygon fill="midnightblue" stroke="midnightblue" points="363,-407.303 366.5,-417.303 370,-407.303 363,-407.303"/>
</g>
<!-- Node5&#45;&gt;Node6 -->
<g id="edge8" class="edge"><title>Node5&#45;&gt;Node6</title>
<path fill="none" stroke="midnightblue" d="M377.269,-408.844C393.697,-382.119 425.243,-328.564 445.5,-280 452.482,-263.262 459.479,-259.027 457.5,-241 456.829,-234.89 455.329,-228.14 453.997,-222.918"/>
<polygon fill="midnightblue" stroke="midnightblue" points="374.247,-407.075 371.949,-417.418 380.195,-410.766 374.247,-407.075"/>
</g>
<!-- Node5&#45;&gt;Node8 -->
<g id="edge14" class="edge"><title>Node5&#45;&gt;Node8</title>
<path fill="none" stroke="midnightblue" d="M342.382,-412.194C336.294,-408.26 329.945,-403.744 324.5,-399 271.981,-353.238 246.668,-345.332 222.5,-280 219.416,-271.663 218.599,-267.987 222.5,-260 230.878,-242.844 249.089,-230.223 263.077,-222.586"/>
<polygon fill="midnightblue" stroke="midnightblue" points="340.632,-415.226 350.98,-417.5 344.308,-409.269 340.632,-415.226"/>
</g>
<!-- Node9 -->
<g id="node9" class="node"><title>Node9</title>
<g id="a_node9"><a xlink:href="../../de/de7/classIG_1_1Lib_1_1StopWatch1.html" target="_top" xlink:title="Timer for measuring execution times and other intervals of time elapsed between successive events....">
<polygon fill="white" stroke="black" points="64,-317.5 64,-336.5 163,-336.5 163,-317.5 64,-317.5"/>
<text text-anchor="middle" x="113.5" y="-324.5" font-family="Helvetica,sans-Serif" font-size="10.00">IG.Lib.StopWatch1</text>
</a>
</g>
</g>
<!-- Node5&#45;&gt;Node9 -->
<g id="edge16" class="edge"><title>Node5&#45;&gt;Node9</title>
<path fill="none" stroke="midnightblue" d="M327.327,-423.659C282.989,-420.37 214.115,-413.131 192.5,-399 173.099,-386.316 181.531,-370.723 164.5,-355 156.108,-347.253 145.077,-341.051 135.421,-336.555"/>
<polygon fill="midnightblue" stroke="midnightblue" points="327.259,-427.163 337.481,-424.376 327.752,-420.18 327.259,-427.163"/>
</g>
<!-- Node6&#45;&gt;Node1 -->
<g id="edge21" class="edge"><title>Node6&#45;&gt;Node1</title>
<path fill="none" stroke="midnightblue" d="M458.536,-193.462C459.558,-190.637 460.577,-187.748 461.5,-185 474.218,-147.149 477.236,-137.589 487.5,-99 493.847,-75.1374 500.046,-47.0646 503.558,-30.5844"/>
<polygon fill="midnightblue" stroke="midnightblue" points="455.175,-192.456 454.972,-203.049 461.737,-194.895 455.175,-192.456"/>
</g>
<!-- Node6&#45;&gt;Node2 -->
<g id="edge6" class="edge"><title>Node6&#45;&gt;Node2</title>
<path fill="none" stroke="midnightblue" d="M449.003,-193.305C445.973,-173.741 439.928,-142.397 429.5,-117 426.883,-110.626 423.091,-104.067 419.512,-98.5257"/>
<polygon fill="midnightblue" stroke="midnightblue" points="445.557,-193.931 450.449,-203.329 452.485,-192.931 445.557,-193.931"/>
</g>
<!-- Node6&#45;&gt;Node7 -->
<g id="edge19" class="edge"><title>Node6&#45;&gt;Node7</title>
<path fill="none" stroke="midnightblue" d="M426.672,-198.641C417.569,-193.872 407.137,-188.556 397.5,-184 383.73,-177.49 367.98,-170.74 355.672,-165.617"/>
<polygon fill="midnightblue" stroke="midnightblue" points="425.111,-201.775 435.587,-203.357 428.384,-195.587 425.111,-201.775"/>
</g>
<!-- Node7&#45;&gt;Node2 -->
<g id="edge10" class="edge"><title>Node7&#45;&gt;Node2</title>
<path fill="none" stroke="#9a32cd" stroke-dasharray="5,2" d="M344.281,-137.779C348.699,-130.86 354.316,-123.096 360.5,-117 367.479,-110.121 376.115,-103.83 384.183,-98.655"/>
<polygon fill="#9a32cd" stroke="#9a32cd" points="341.217,-136.083 339.059,-146.455 347.215,-139.692 341.217,-136.083"/>
<text text-anchor="middle" x="395" y="-120" font-family="Helvetica,sans-Serif" font-size="10.00"> _waiterLatence</text>
</g>
<!-- Node8&#45;&gt;Node7 -->
<g id="edge11" class="edge"><title>Node8&#45;&gt;Node7</title>
<path fill="none" stroke="midnightblue" d="M296.8,-196.123C306.339,-186.224 318.251,-173.862 326.102,-165.715"/>
<polygon fill="midnightblue" stroke="midnightblue" points="294.2,-193.777 289.781,-203.406 299.24,-198.634 294.2,-193.777"/>
</g>
<!-- Node9&#45;&gt;Node8 -->
<g id="edge15" class="edge"><title>Node9&#45;&gt;Node8</title>
<path fill="none" stroke="#9a32cd" stroke-dasharray="5,2" d="M122.59,-308.661C130.663,-294.407 143.488,-274.3 158.5,-260 181.611,-237.985 216.23,-226.292 242.859,-220.215"/>
<polygon fill="#9a32cd" stroke="#9a32cd" points="119.511,-306.997 117.792,-317.451 125.655,-310.351 119.511,-306.997"/>
<text text-anchor="middle" x="174" y="-267.5" font-family="Helvetica,sans-Serif" font-size="10.00"> _timer</text>
</g>
<!-- Node10 -->
<g id="node10" class="node"><title>Node10</title>
<g id="a_node10"><a xlink:href="../../dc/d79/interfaceIG_1_1Lib_1_1IIdentifiable.html" target="_top" xlink:title="Classes whose instances have unique integer IDs.">
<polygon fill="white" stroke="black" points="0,-417.5 0,-436.5 65,-436.5 65,-417.5 0,-417.5"/>
<text text-anchor="middle" x="32.5" y="-424.5" font-family="Helvetica,sans-Serif" font-size="10.00">IIdentifiable</text>
</a>
</g>
</g>
<!-- Node10&#45;&gt;Node9 -->
<g id="edge17" class="edge"><title>Node10&#45;&gt;Node9</title>
<path fill="none" stroke="midnightblue" d="M46.121,-409.52C63.5255,-388.463 93.0039,-352.798 106.444,-336.537"/>
<polygon fill="midnightblue" stroke="midnightblue" points="43.3613,-407.365 39.6882,-417.303 48.7569,-411.825 43.3613,-407.365"/>
</g>
<!-- Node11 -->
<g id="node11" class="node"><title>Node11</title>
<g id="a_node11"><a xlink:title=" ">
<polygon fill="white" stroke="#bfbfbf" points="83,-417.5 83,-436.5 124,-436.5 124,-417.5 83,-417.5"/>
<text text-anchor="middle" x="103.5" y="-424.5" font-family="Helvetica,sans-Serif" font-size="10.00">static</text>
</a>
</g>
</g>
<!-- Node11&#45;&gt;Node9 -->
<g id="edge18" class="edge"><title>Node11&#45;&gt;Node9</title>
<path fill="none" stroke="#9a32cd" stroke-dasharray="5,2" d="M102.198,-407.054C101.587,-392.669 101.541,-372.455 104.5,-355 105.557,-348.764 107.807,-342.014 109.793,-336.823"/>
<polygon fill="#9a32cd" stroke="#9a32cd" points="98.7112,-407.387 102.762,-417.177 105.7,-406.998 98.7112,-407.387"/>
<text text-anchor="middle" x="134.5" y="-391" font-family="Helvetica,sans-Serif" font-size="10.00"> lastId</text>
<text text-anchor="middle" x="134.5" y="-380" font-family="Helvetica,sans-Serif" font-size="10.00">_staticLock</text>
<text text-anchor="middle" x="134.5" y="-369" font-family="Helvetica,sans-Serif" font-size="10.00">numWarnCpu</text>
<text text-anchor="middle" x="134.5" y="-358" font-family="Helvetica,sans-Serif" font-size="10.00">MaxWarnCpu</text>
</g>
</g>
</svg>
