<?xml version="1.0" encoding="UTF-8" standalone="no"?>
<!DOCTYPE svg PUBLIC "-//W3C//DTD SVG 1.1//EN"
 "http://www.w3.org/Graphics/SVG/1.1/DTD/svg11.dtd">
<!-- Generated by graphviz version 2.38.0 (20140413.2041)
 -->
<!-- Title: IG.Num.RealFunctionBase Pages: 1 -->
<!--zoomable 730 -->
<svg id="main" version="1.1" xmlns="http://www.w3.org/2000/svg" xmlns:xlink="http://www.w3.org/1999/xlink" xml:space="preserve" onload="init(evt)">
<style type="text/css"><![CDATA[
.edge:hover path { stroke: red; }
.edge:hover polygon { stroke: red; fill: red; }
]]></style>
<script type="text/javascript"><![CDATA[
var edges = document.getElementsByTagName('g');
if (edges && edges.length) {
  for (var i=0;i<edges.length;i++) {
    if (edges[i].id.substr(0,4)=='edge') {
      edges[i].setAttribute('class','edge');
    }
  }
}
]]></script>
        <defs>
                <circle id="rim" cx="0" cy="0" r="7"/>
                <circle id="rim2" cx="0" cy="0" r="3.5"/>
                <g id="zoomPlus">
                        <use xlink:href="#rim" fill="#404040">
                                <set attributeName="fill" to="#808080" begin="zoomplus.mouseover" end="zoomplus.mouseout"/>
                        </use>
                        <path d="M-4,0h8M0,-4v8" fill="none" stroke="white" stroke-width="1.5" pointer-events="none"/>
                </g>
                <g id="zoomMin">
                        <use xlink:href="#rim" fill="#404040">
                                <set attributeName="fill" to="#808080" begin="zoomminus.mouseover" end="zoomminus.mouseout"/>
                        </use>
                        <path d="M-4,0h8" fill="none" stroke="white" stroke-width="1.5" pointer-events="none"/>
                </g>
                <g id="dirArrow">
                        <path fill="none" stroke="white" stroke-width="1.5" d="M0,-3.0v7 M-2.5,-0.5L0,-3.0L2.5,-0.5"/>
                </g>
               <g id="resetDef">
                       <use xlink:href="#rim2" fill="#404040">
                               <set attributeName="fill" to="#808080" begin="reset.mouseover" end="reset.mouseout"/>
                       </use>
               </g>
        </defs>

<script type="text/javascript">
var viewWidth = 854;
var viewHeight = 730;
var sectionId = 'dynsection-0';
</script>
<script xlink:href="../../svgpan.js"/>
<svg id="graph" class="graph">
<g id="viewport">
<title>IG.Num.RealFunctionBase</title>
<polygon fill="white" stroke="none" points="-4,4 -4,-725.5 850,-725.5 850,4 -4,4"/>
<!-- Node1 -->
<g id="node1" class="node"><title>Node1</title>
<g id="a_node1"><a xlink:title="Base class for real functions of real variable.">
<polygon fill="#bfbfbf" stroke="black" points="112,-196.5 112,-215.5 244,-215.5 244,-196.5 112,-196.5"/>
<text text-anchor="middle" x="178" y="-203.5" font-family="Helvetica,sans-Serif" font-size="10.00">IG.Num.RealFunctionBase</text>
</a>
</g>
</g>
<!-- Node3 -->
<g id="node3" class="node"><title>Node3</title>
<g id="a_node3"><a xlink:href="../../d5/d83/classIG_1_1Num_1_1RealFunction.html" target="_top" xlink:title="Represents a real function of a real variabe.">
<polygon fill="white" stroke="black" points="314.5,-373.5 314.5,-392.5 424.5,-392.5 424.5,-373.5 314.5,-373.5"/>
<text text-anchor="middle" x="369.5" y="-380.5" font-family="Helvetica,sans-Serif" font-size="10.00">IG.Num.RealFunction</text>
</a>
</g>
</g>
<!-- Node1&#45;&gt;Node3 -->
<g id="edge2" class="edge"><title>Node1&#45;&gt;Node3</title>
<path fill="none" stroke="midnightblue" d="M196.632,-222.469C235.488,-258.762 327.476,-344.682 358.261,-373.437"/>
<polygon fill="midnightblue" stroke="midnightblue" points="198.885,-219.784 189.188,-215.516 194.107,-224.9 198.885,-219.784"/>
</g>
<!-- Node22 -->
<g id="node22" class="node"><title>Node22</title>
<g id="a_node22"><a xlink:href="../../d1/d20/classIG_1_1Num_1_1RealFunctionParametricBase.html" target="_top" xlink:title="Base class for parameterized real&#45;valued functions of single variable. Parameters that completely def...">
<polygon fill="white" stroke="black" points="280,-38.5 280,-57.5 459,-57.5 459,-38.5 280,-38.5"/>
<text text-anchor="middle" x="369.5" y="-45.5" font-family="Helvetica,sans-Serif" font-size="10.00">IG.Num.RealFunctionParametricBase</text>
</a>
</g>
</g>
<!-- Node1&#45;&gt;Node22 -->
<g id="edge21" class="edge"><title>Node1&#45;&gt;Node22</title>
<path fill="none" stroke="midnightblue" d="M198.64,-189.624C238.064,-156.754 325.737,-83.655 357.083,-57.5195"/>
<polygon fill="midnightblue" stroke="midnightblue" points="196.008,-187.262 190.569,-196.354 200.491,-192.639 196.008,-187.262"/>
</g>
<!-- Node2 -->
<g id="node2" class="node"><title>Node2</title>
<g id="a_node2"><a xlink:href="../../db/d0e/interfaceIG_1_1Num_1_1IRealFunction.html" target="_top" xlink:title="Interface for real functions.">
<polygon fill="white" stroke="black" points="0,-196.5 0,-215.5 76,-215.5 76,-196.5 0,-196.5"/>
<text text-anchor="middle" x="38" y="-203.5" font-family="Helvetica,sans-Serif" font-size="10.00">IRealFunction</text>
</a>
</g>
</g>
<!-- Node2&#45;&gt;Node1 -->
<g id="edge1" class="edge"><title>Node2&#45;&gt;Node1</title>
<path fill="none" stroke="midnightblue" d="M86.4785,-206C94.7021,-206 103.379,-206 111.973,-206"/>
<polygon fill="midnightblue" stroke="midnightblue" points="86.3448,-202.5 76.3448,-206 86.3448,-209.5 86.3448,-202.5"/>
</g>
<!-- Node4 -->
<g id="node4" class="node"><title>Node4</title>
<g id="a_node4"><a xlink:href="../../db/d84/classIG_1_1Lib_1_1LoadableRealFunctionBase.html" target="_top" xlink:title="A RealFunction class used as base class for dynamically loaded functions. Bunctions loaded from scrip...">
<polygon fill="white" stroke="black" points="500.5,-696.5 500.5,-715.5 664.5,-715.5 664.5,-696.5 500.5,-696.5"/>
<text text-anchor="middle" x="582.5" y="-703.5" font-family="Helvetica,sans-Serif" font-size="10.00">IG.Lib.LoadableRealFunctionBase</text>
</a>
</g>
</g>
<!-- Node3&#45;&gt;Node4 -->
<g id="edge3" class="edge"><title>Node3&#45;&gt;Node4</title>
<path fill="none" stroke="midnightblue" d="M372.396,-402.852C378.715,-457.401 404.121,-610.585 495,-687 499.472,-690.76 504.522,-693.823 509.88,-696.312"/>
<polygon fill="midnightblue" stroke="midnightblue" points="375.862,-402.344 371.32,-392.772 368.901,-403.087 375.862,-402.344"/>
</g>
<!-- Node6 -->
<g id="node6" class="node"><title>Node6</title>
<g id="a_node6"><a xlink:href="../../d2/d7a/classIG_1_1Num_1_1ComposedFunction.html" target="_top" xlink:title="Composition of real functions.">
<polygon fill="white" stroke="black" points="514,-658.5 514,-677.5 651,-677.5 651,-658.5 514,-658.5"/>
<text text-anchor="middle" x="582.5" y="-665.5" font-family="Helvetica,sans-Serif" font-size="10.00">IG.Num.ComposedFunction</text>
</a>
</g>
</g>
<!-- Node3&#45;&gt;Node6 -->
<g id="edge5" class="edge"><title>Node3&#45;&gt;Node6</title>
<path fill="none" stroke="midnightblue" d="M373.632,-402.67C382.632,-452.377 413.359,-583.703 495,-649 500.643,-653.514 507.13,-657.01 513.961,-659.711"/>
<polygon fill="midnightblue" stroke="midnightblue" points="377.047,-401.876 371.91,-392.61 370.147,-403.057 377.047,-401.876"/>
</g>
<!-- Node7 -->
<g id="node7" class="node"><title>Node7</title>
<g id="a_node7"><a xlink:href="../../d6/d88/classIG_1_1Num_1_1Func_1_1Constant.html" target="_top" xlink:title="A RealFunction class representing a constant function.">
<polygon fill="white" stroke="black" points="524.5,-620.5 524.5,-639.5 640.5,-639.5 640.5,-620.5 524.5,-620.5"/>
<text text-anchor="middle" x="582.5" y="-627.5" font-family="Helvetica,sans-Serif" font-size="10.00">IG.Num.Func.Constant</text>
</a>
</g>
</g>
<!-- Node3&#45;&gt;Node7 -->
<g id="edge6" class="edge"><title>Node3&#45;&gt;Node7</title>
<path fill="none" stroke="midnightblue" d="M375.235,-402.538C387.101,-447.105 422.496,-556.61 495,-611 503.487,-617.366 513.682,-621.681 524.049,-624.588"/>
<polygon fill="midnightblue" stroke="midnightblue" points="378.583,-401.502 372.716,-392.68 371.8,-403.235 378.583,-401.502"/>
</g>
<!-- Node8 -->
<g id="node8" class="node"><title>Node8</title>
<g id="a_node8"><a xlink:href="../../dc/dbf/classIG_1_1Num_1_1Func_1_1Cubic.html" target="_top" xlink:title="Cubic function, f(x) = a3*x*x*x + a2*x*x + a1*x + a0. Specific properties: Zero &#45; returns a zero....">
<polygon fill="white" stroke="black" points="531.5,-582.5 531.5,-601.5 633.5,-601.5 633.5,-582.5 531.5,-582.5"/>
<text text-anchor="middle" x="582.5" y="-589.5" font-family="Helvetica,sans-Serif" font-size="10.00">IG.Num.Func.Cubic</text>
</a>
</g>
</g>
<!-- Node3&#45;&gt;Node8 -->
<g id="edge7" class="edge"><title>Node3&#45;&gt;Node8</title>
<path fill="none" stroke="midnightblue" d="M377.412,-402.423C392.344,-441.414 431.483,-529.221 495,-573 505.634,-580.33 518.603,-584.895 531.229,-587.721"/>
<polygon fill="midnightblue" stroke="midnightblue" points="380.601,-400.956 373.843,-392.797 374.038,-403.39 380.601,-400.956"/>
</g>
<!-- Node9 -->
<g id="node9" class="node"><title>Node9</title>
<g id="a_node9"><a xlink:href="../../da/da5/classIG_1_1Num_1_1Func_1_1Exp.html" target="_top" xlink:title="A RealFunction class representing exponential function.">
<polygon fill="white" stroke="black" points="535,-544.5 535,-563.5 630,-563.5 630,-544.5 535,-544.5"/>
<text text-anchor="middle" x="582.5" y="-551.5" font-family="Helvetica,sans-Serif" font-size="10.00">IG.Num.Func.Exp</text>
</a>
</g>
</g>
<!-- Node3&#45;&gt;Node9 -->
<g id="edge8" class="edge"><title>Node3&#45;&gt;Node9</title>
<path fill="none" stroke="midnightblue" d="M380.212,-401.646C398.198,-434.214 439.932,-501.209 495,-535 506.925,-542.318 521.303,-546.834 534.882,-549.615"/>
<polygon fill="midnightblue" stroke="midnightblue" points="383.227,-399.863 375.404,-392.719 377.064,-403.183 383.227,-399.863"/>
</g>
<!-- Node10 -->
<g id="node10" class="node"><title>Node10</title>
<g id="a_node10"><a xlink:href="../../d4/d1e/classIG_1_1Num_1_1Func_1_1Identity.html" target="_top" xlink:title="A RealFunction class representing identity (or linear) function.">
<polygon fill="white" stroke="black" points="528,-506.5 528,-525.5 637,-525.5 637,-506.5 528,-506.5"/>
<text text-anchor="middle" x="582.5" y="-513.5" font-family="Helvetica,sans-Serif" font-size="10.00">IG.Num.Func.Identity</text>
</a>
</g>
</g>
<!-- Node3&#45;&gt;Node10 -->
<g id="edge9" class="edge"><title>Node3&#45;&gt;Node10</title>
<path fill="none" stroke="midnightblue" d="M384.594,-400.835C405.744,-426.312 448.232,-472.723 495,-497 505.098,-502.242 516.586,-506.041 527.817,-508.793"/>
<polygon fill="midnightblue" stroke="midnightblue" points="387.057,-398.316 378.031,-392.767 381.626,-402.733 387.057,-398.316"/>
</g>
<!-- Node11 -->
<g id="node11" class="node"><title>Node11</title>
<g id="a_node11"><a xlink:href="../../d8/ddb/classIG_1_1Num_1_1Func_1_1Linear.html" target="_top" xlink:title="Linear function, f(x) = a1*x + a0. Specific properties: Zero &#45; returns a zero. HasZero &#45; either the f...">
<polygon fill="white" stroke="black" points="530.5,-468.5 530.5,-487.5 634.5,-487.5 634.5,-468.5 530.5,-468.5"/>
<text text-anchor="middle" x="582.5" y="-475.5" font-family="Helvetica,sans-Serif" font-size="10.00">IG.Num.Func.Linear</text>
</a>
</g>
</g>
<!-- Node3&#45;&gt;Node11 -->
<g id="edge10" class="edge"><title>Node3&#45;&gt;Node11</title>
<path fill="none" stroke="midnightblue" d="M391.46,-398.82C415.316,-416.082 456.038,-443.341 495,-459 506.128,-463.472 518.505,-466.983 530.337,-469.703"/>
<polygon fill="midnightblue" stroke="midnightblue" points="393.313,-395.838 383.182,-392.739 389.169,-401.48 393.313,-395.838"/>
</g>
<!-- Node12 -->
<g id="node12" class="node"><title>Node12</title>
<g id="a_node12"><a xlink:href="../../dd/dd0/classIG_1_1Num_1_1Func_1_1PenaltyPower.html" target="_top" xlink:title="Penalty function consisting of sticked together constant zero&#45;valued function and a power function wi...">
<polygon fill="white" stroke="black" points="514,-430.5 514,-449.5 651,-449.5 651,-430.5 514,-430.5"/>
<text text-anchor="middle" x="582.5" y="-437.5" font-family="Helvetica,sans-Serif" font-size="10.00">IG.Num.Func.PenaltyPower</text>
</a>
</g>
</g>
<!-- Node3&#45;&gt;Node12 -->
<g id="edge11" class="edge"><title>Node3&#45;&gt;Node12</title>
<path fill="none" stroke="midnightblue" d="M409.126,-395.662C433.595,-403.466 465.987,-413.399 495,-421 507.791,-424.351 521.75,-427.595 534.649,-430.425"/>
<polygon fill="midnightblue" stroke="midnightblue" points="410.084,-392.294 399.492,-392.569 407.944,-398.959 410.084,-392.294"/>
</g>
<!-- Node13 -->
<g id="node13" class="node"><title>Node13</title>
<g id="a_node13"><a xlink:href="../../d7/d61/classIG_1_1Num_1_1Func_1_1Quadratic.html" target="_top" xlink:title="Quadratic function, f(x) = a2*x*x + a1*x + a0. Specific properties: Zero &#45; returns a zero....">
<polygon fill="white" stroke="black" points="523,-392.5 523,-411.5 642,-411.5 642,-392.5 523,-392.5"/>
<text text-anchor="middle" x="582.5" y="-399.5" font-family="Helvetica,sans-Serif" font-size="10.00">IG.Num.Func.Quadratic</text>
</a>
</g>
</g>
<!-- Node3&#45;&gt;Node13 -->
<g id="edge12" class="edge"><title>Node3&#45;&gt;Node13</title>
<path fill="none" stroke="midnightblue" d="M434.666,-388.778C462.703,-391.303 495.367,-394.244 522.759,-396.71"/>
<polygon fill="midnightblue" stroke="midnightblue" points="434.837,-385.279 424.564,-387.868 434.21,-392.251 434.837,-385.279"/>
</g>
<!-- Node14 -->
<g id="node14" class="node"><title>Node14</title>
<g id="a_node14"><a xlink:href="../../d0/dc0/classIG_1_1Num_1_1Func_1_1ReciprocalPower.html" target="_top" xlink:title="A RealFunction class representing a reciprocal power function.">
<polygon fill="white" stroke="black" points="507.5,-354.5 507.5,-373.5 657.5,-373.5 657.5,-354.5 507.5,-354.5"/>
<text text-anchor="middle" x="582.5" y="-361.5" font-family="Helvetica,sans-Serif" font-size="10.00">IG.Num.Func.ReciprocalPower</text>
</a>
</g>
</g>
<!-- Node3&#45;&gt;Node14 -->
<g id="edge13" class="edge"><title>Node3&#45;&gt;Node14</title>
<path fill="none" stroke="midnightblue" d="M434.531,-377.234C457.482,-375.167 483.548,-372.82 507.289,-370.683"/>
<polygon fill="midnightblue" stroke="midnightblue" points="434.21,-373.749 424.564,-378.132 434.837,-380.721 434.21,-373.749"/>
</g>
<!-- Node15 -->
<g id="node15" class="node"><title>Node15</title>
<g id="a_node15"><a xlink:href="../../d9/d61/classIG_1_1Num_1_1Func_1_1WeightGauss.html" target="_top" xlink:title="A RealFunction class representing bell like polynomial weighting function with finite support,...">
<polygon fill="white" stroke="black" points="514,-316.5 514,-335.5 651,-335.5 651,-316.5 514,-316.5"/>
<text text-anchor="middle" x="582.5" y="-323.5" font-family="Helvetica,sans-Serif" font-size="10.00">IG.Num.Func.WeightGauss</text>
</a>
</g>
</g>
<!-- Node3&#45;&gt;Node15 -->
<g id="edge14" class="edge"><title>Node3&#45;&gt;Node15</title>
<path fill="none" stroke="midnightblue" d="M409.126,-370.338C433.595,-362.534 465.987,-352.601 495,-345 507.791,-341.649 521.75,-338.405 534.649,-335.575"/>
<polygon fill="midnightblue" stroke="midnightblue" points="407.944,-367.041 399.492,-373.431 410.084,-373.706 407.944,-367.041"/>
</g>
<!-- Node16 -->
<g id="node16" class="node"><title>Node16</title>
<g id="a_node16"><a xlink:href="../../d5/d42/classIG_1_1Num_1_1Func_1_1WeightPol3.html" target="_top" xlink:title="A RealFunction class representing bell like polynomial weighting function with finite support....">
<polygon fill="white" stroke="black" points="518.5,-278.5 518.5,-297.5 646.5,-297.5 646.5,-278.5 518.5,-278.5"/>
<text text-anchor="middle" x="582.5" y="-285.5" font-family="Helvetica,sans-Serif" font-size="10.00">IG.Num.Func.WeightPol3</text>
</a>
</g>
</g>
<!-- Node3&#45;&gt;Node16 -->
<g id="edge15" class="edge"><title>Node3&#45;&gt;Node16</title>
<path fill="none" stroke="midnightblue" d="M391.46,-367.18C415.316,-349.918 456.038,-322.659 495,-307 504.416,-303.216 514.726,-300.12 524.844,-297.609"/>
<polygon fill="midnightblue" stroke="midnightblue" points="389.169,-364.52 383.182,-373.261 393.313,-370.162 389.169,-364.52"/>
</g>
<!-- Node17 -->
<g id="node17" class="node"><title>Node17</title>
<g id="a_node17"><a xlink:href="../../da/d50/classIG_1_1Num_1_1Func_1_1WeightPol4.html" target="_top" xlink:title="A RealFunction class representing bell like polynomial weighting function with finite support,...">
<polygon fill="white" stroke="black" points="518.5,-240.5 518.5,-259.5 646.5,-259.5 646.5,-240.5 518.5,-240.5"/>
<text text-anchor="middle" x="582.5" y="-247.5" font-family="Helvetica,sans-Serif" font-size="10.00">IG.Num.Func.WeightPol4</text>
</a>
</g>
</g>
<!-- Node3&#45;&gt;Node17 -->
<g id="edge16" class="edge"><title>Node3&#45;&gt;Node17</title>
<path fill="none" stroke="midnightblue" d="M384.594,-365.165C405.744,-339.688 448.232,-293.277 495,-269 502.505,-265.104 510.779,-262.005 519.143,-259.54"/>
<polygon fill="midnightblue" stroke="midnightblue" points="381.626,-363.267 378.031,-373.233 387.057,-367.684 381.626,-363.267"/>
</g>
<!-- Node18 -->
<g id="node18" class="node"><title>Node18</title>
<g id="a_node18"><a xlink:href="../../d1/d27/classIG_1_1Num_1_1Func_1_1WeightPol5.html" target="_top" xlink:title="A RealFunction class representing bell like polynomial weighting function with finite support,...">
<polygon fill="white" stroke="black" points="518.5,-202.5 518.5,-221.5 646.5,-221.5 646.5,-202.5 518.5,-202.5"/>
<text text-anchor="middle" x="582.5" y="-209.5" font-family="Helvetica,sans-Serif" font-size="10.00">IG.Num.Func.WeightPol5</text>
</a>
</g>
</g>
<!-- Node3&#45;&gt;Node18 -->
<g id="edge17" class="edge"><title>Node3&#45;&gt;Node18</title>
<path fill="none" stroke="midnightblue" d="M380.212,-364.354C398.198,-331.786 439.932,-264.791 495,-231 502.077,-226.658 510.017,-223.302 518.141,-220.71"/>
<polygon fill="midnightblue" stroke="midnightblue" points="377.064,-362.817 375.404,-373.281 383.227,-366.137 377.064,-362.817"/>
</g>
<!-- Node19 -->
<g id="node19" class="node"><title>Node19</title>
<g id="a_node19"><a xlink:href="../../df/d14/classIG_1_1Num_1_1Func_1_1WeightPol7.html" target="_top" xlink:title="A RealFunction class representing bell like polynomial weighting function with finite support,...">
<polygon fill="white" stroke="black" points="518.5,-164.5 518.5,-183.5 646.5,-183.5 646.5,-164.5 518.5,-164.5"/>
<text text-anchor="middle" x="582.5" y="-171.5" font-family="Helvetica,sans-Serif" font-size="10.00">IG.Num.Func.WeightPol7</text>
</a>
</g>
</g>
<!-- Node3&#45;&gt;Node19 -->
<g id="edge18" class="edge"><title>Node3&#45;&gt;Node19</title>
<path fill="none" stroke="midnightblue" d="M377.412,-363.577C392.344,-324.586 431.483,-236.779 495,-193 501.963,-188.201 509.926,-184.587 518.139,-181.87"/>
<polygon fill="midnightblue" stroke="midnightblue" points="374.038,-362.61 373.843,-373.203 380.601,-365.044 374.038,-362.61"/>
</g>
<!-- Node20 -->
<g id="node20" class="node"><title>Node20</title>
<g id="a_node20"><a xlink:href="../../d4/d40/classIG_1_1Num_1_1Func_1_1WeightReciprocalPower.html" target="_top" xlink:title="A RealFunction class representing bell like polynomial weighting function with finite support,...">
<polygon fill="white" stroke="black" points="505.5,-115 505.5,-145 659.5,-145 659.5,-115 505.5,-115"/>
<text text-anchor="start" x="513.5" y="-133" font-family="Helvetica,sans-Serif" font-size="10.00">IG.Num.Func.WeightReciprocal</text>
<text text-anchor="middle" x="582.5" y="-122" font-family="Helvetica,sans-Serif" font-size="10.00">Power</text>
</a>
</g>
</g>
<!-- Node3&#45;&gt;Node20 -->
<g id="edge19" class="edge"><title>Node3&#45;&gt;Node20</title>
<path fill="none" stroke="midnightblue" d="M375.486,-363.785C387.879,-319.898 424.305,-211.722 495,-155 499.877,-151.087 505.342,-147.786 511.092,-145.002"/>
<polygon fill="midnightblue" stroke="midnightblue" points="372.094,-362.919 372.846,-373.487 378.849,-364.757 372.094,-362.919"/>
</g>
<!-- Node21 -->
<g id="node21" class="node"><title>Node21</title>
<g id="a_node21"><a xlink:href="../../d6/d03/classIG_1_1Num_1_1FunctionPolynomial.html" target="_top" xlink:title="Polynomial real functions of one variable.">
<polygon fill="white" stroke="black" points="513.5,-76.5 513.5,-95.5 651.5,-95.5 651.5,-76.5 513.5,-76.5"/>
<text text-anchor="middle" x="582.5" y="-83.5" font-family="Helvetica,sans-Serif" font-size="10.00">IG.Num.FunctionPolynomial</text>
</a>
</g>
</g>
<!-- Node3&#45;&gt;Node21 -->
<g id="edge20" class="edge"><title>Node3&#45;&gt;Node21</title>
<path fill="none" stroke="midnightblue" d="M373.231,-363.14C381.395,-311.768 410.527,-173.727 495,-105 500.486,-100.536 506.794,-97.0634 513.45,-94.3692"/>
<polygon fill="midnightblue" stroke="midnightblue" points="369.738,-362.835 371.723,-373.242 376.661,-363.868 369.738,-362.835"/>
</g>
<!-- Node5 -->
<g id="node5" class="node"><title>Node5</title>
<g id="a_node5"><a xlink:href="../../d5/d44/classIG_1_1Script_1_1ScritpRealFunctionExample_1_1Container_1_1Function.html" target="_top" xlink:title=" ">
<polygon fill="white" stroke="black" points="706,-691 706,-721 846,-721 846,-691 706,-691"/>
<text text-anchor="start" x="714" y="-709" font-family="Helvetica,sans-Serif" font-size="10.00">IG.Script.ScritpRealFunction</text>
<text text-anchor="middle" x="776" y="-698" font-family="Helvetica,sans-Serif" font-size="10.00">Example.Container.Function</text>
</a>
</g>
</g>
<!-- Node4&#45;&gt;Node5 -->
<g id="edge4" class="edge"><title>Node4&#45;&gt;Node5</title>
<path fill="none" stroke="midnightblue" d="M675.016,-706C685.359,-706 695.768,-706 705.758,-706"/>
<polygon fill="midnightblue" stroke="midnightblue" points="674.713,-702.5 664.713,-706 674.713,-709.5 674.713,-702.5"/>
</g>
<!-- Node23 -->
<g id="node23" class="node"><title>Node23</title>
<g id="a_node23"><a xlink:href="../../d0/d78/classIG_1_1Num_1_1RealFunctionOneParametric.html" target="_top" xlink:title="Base class for one parametric families of real&#45;valued functions of single variable....">
<polygon fill="white" stroke="black" points="495,-38.5 495,-57.5 670,-57.5 670,-38.5 495,-38.5"/>
<text text-anchor="middle" x="582.5" y="-45.5" font-family="Helvetica,sans-Serif" font-size="10.00">IG.Num.RealFunctionOneParametric</text>
</a>
</g>
</g>
<!-- Node22&#45;&gt;Node23 -->
<g id="edge22" class="edge"><title>Node22&#45;&gt;Node23</title>
<path fill="none" stroke="midnightblue" d="M469.113,-48C477.707,-48 486.363,-48 494.85,-48"/>
<polygon fill="midnightblue" stroke="midnightblue" points="469.066,-44.5001 459.066,-48 469.066,-51.5001 469.066,-44.5001"/>
</g>
<!-- Node24 -->
<g id="node24" class="node"><title>Node24</title>
<g id="a_node24"><a xlink:href="../../d2/d3f/classIG_1_1Num_1_1RealFunctionParametric.html" target="_top" xlink:title="Base class for parameterized real&#45;valued functions of single variable. Parameters that completely def...">
<polygon fill="white" stroke="black" points="504,-0.5 504,-19.5 661,-19.5 661,-0.5 504,-0.5"/>
<text text-anchor="middle" x="582.5" y="-7.5" font-family="Helvetica,sans-Serif" font-size="10.00">IG.Num.RealFunctionParametric</text>
</a>
</g>
</g>
<!-- Node22&#45;&gt;Node24 -->
<g id="edge23" class="edge"><title>Node22&#45;&gt;Node24</title>
<path fill="none" stroke="midnightblue" d="M433.505,-36.653C463.779,-31.2009 499.658,-24.7393 528.506,-19.5439"/>
<polygon fill="midnightblue" stroke="midnightblue" points="432.693,-33.2429 423.472,-38.46 433.934,-40.1321 432.693,-33.2429"/>
</g>
</g>
</svg>
        <g id="navigator" transform="translate(0 0)" fill="#404254">
                <rect fill="#f2f5e9" fill-opacity="0.5" stroke="#606060" stroke-width=".5" x="0" y="0" width="60" height="60"/>
                <use id="zoomplus" xlink:href="#zoomPlus" x="17" y="9" onmousedown="handleZoom(evt,'in')"/>
                <use id="zoomminus" xlink:href="#zoomMin" x="42" y="9" onmousedown="handleZoom(evt,'out')"/>
                <use id="reset" xlink:href="#resetDef" x="30" y="36" onmousedown="handleReset()"/>
                <g id="arrowUp" xlink:href="#dirArrow" transform="translate(30 24)" onmousedown="handlePan(0,-1)">
                  <use xlink:href="#rim" fill="#404040">
                        <set attributeName="fill" to="#808080" begin="arrowUp.mouseover" end="arrowUp.mouseout"/>
                  </use>
                  <path fill="none" stroke="white" stroke-width="1.5" d="M0,-3.0v7 M-2.5,-0.5L0,-3.0L2.5,-0.5"/>
                </g>
                <g id="arrowRight" xlink:href="#dirArrow" transform="rotate(90) translate(36 -43)" onmousedown="handlePan(1,0)">
                  <use xlink:href="#rim" fill="#404040">
                        <set attributeName="fill" to="#808080" begin="arrowRight.mouseover" end="arrowRight.mouseout"/>
                  </use>
                  <path fill="none" stroke="white" stroke-width="1.5" d="M0,-3.0v7 M-2.5,-0.5L0,-3.0L2.5,-0.5"/>
                </g>
                <g id="arrowDown" xlink:href="#dirArrow" transform="rotate(180) translate(-30 -48)" onmousedown="handlePan(0,1)">
                  <use xlink:href="#rim" fill="#404040">
                        <set attributeName="fill" to="#808080" begin="arrowDown.mouseover" end="arrowDown.mouseout"/>
                  </use>
                  <path fill="none" stroke="white" stroke-width="1.5" d="M0,-3.0v7 M-2.5,-0.5L0,-3.0L2.5,-0.5"/>
                </g>
                <g id="arrowLeft" xlink:href="#dirArrow" transform="rotate(270) translate(-36 17)" onmousedown="handlePan(-1,0)">
                  <use xlink:href="#rim" fill="#404040">
                        <set attributeName="fill" to="#808080" begin="arrowLeft.mouseover" end="arrowLeft.mouseout"/>
                  </use>
                  <path fill="none" stroke="white" stroke-width="1.5" d="M0,-3.0v7 M-2.5,-0.5L0,-3.0L2.5,-0.5"/>
                </g>
        </g>
        <svg viewBox="0 0 15 15" width="100%" height="30px" preserveAspectRatio="xMaxYMin meet">
         <g id="arrow_out" transform="scale(0.3 0.3)">
          <a xlink:href="classIG_1_1Num_1_1RealFunctionBase__inherit__graph_org.svg" target="_base">
           <rect id="button" ry="5" rx="5" y="6" x="6" height="38" width="38"
                fill="#f2f5e9" fill-opacity="0.5" stroke="#606060" stroke-width="1.0"/>
           <path id="arrow"
             d="M 11.500037,31.436501 C 11.940474,20.09759 22.043105,11.32322 32.158766,21.979434 L 37.068811,17.246167 C 37.068811,17.246167 37.088388,32 37.088388,32 L 22.160133,31.978069 C 22.160133,31.978069 26.997745,27.140456 26.997745,27.140456 C 18.528582,18.264221 13.291696,25.230495 11.500037,31.436501 z"
             style="fill:#404040;"/>
          </a>
         </g>
        </svg>
</svg>
