<?xml version="1.0" encoding="UTF-8" standalone="no"?>
<!DOCTYPE svg PUBLIC "-//W3C//DTD SVG 1.1//EN"
 "http://www.w3.org/Graphics/SVG/1.1/DTD/svg11.dtd">
<!-- Generated by graphviz version 2.38.0 (20140413.2041)
 -->
<!-- Title: IG.Lib.IpcStreamClientServerBase Pages: 1 -->
<svg width="990pt" height="148pt"
 viewBox="0.00 0.00 990.00 147.50" xmlns="http://www.w3.org/2000/svg" xmlns:xlink="http://www.w3.org/1999/xlink">
<g id="graph0" class="graph" transform="scale(1 1) rotate(0) translate(4 143.5)">
<title>IG.Lib.IpcStreamClientServerBase</title>
<polygon fill="white" stroke="none" points="-4,4 -4,-143.5 986,-143.5 986,4 -4,4"/>
<!-- Node1 -->
<g id="node1" class="node"><title>Node1</title>
<g id="a_node1"><a xlink:title="Base class for client and server classes with stream&#45;based communication.">
<polygon fill="#bfbfbf" stroke="black" points="94,-57.5 94,-76.5 258,-76.5 258,-57.5 94,-57.5"/>
<text text-anchor="middle" x="176" y="-64.5" font-family="Helvetica,sans-Serif" font-size="10.00">IG.Lib.IpcStreamClientServerBase</text>
</a>
</g>
</g>
<!-- Node3 -->
<g id="node3" class="node"><title>Node3</title>
<g id="a_node3"><a xlink:href="../../da/d2c/classIG_1_1Lib_1_1IpcStreamClientServerBase2.html" target="_top" xlink:title="Base class for named pipe servers and clients, contains common stuff for both.">
<polygon fill="white" stroke="black" points="294,-52 294,-82 435,-82 435,-52 294,-52"/>
<text text-anchor="start" x="302" y="-70" font-family="Helvetica,sans-Serif" font-size="10.00">IG.Lib.IpcStreamClientServer</text>
<text text-anchor="middle" x="364.5" y="-59" font-family="Helvetica,sans-Serif" font-size="10.00">Base2</text>
</a>
</g>
</g>
<!-- Node1&#45;&gt;Node3 -->
<g id="edge2" class="edge"><title>Node1&#45;&gt;Node3</title>
<path fill="none" stroke="midnightblue" d="M268.326,-67C276.924,-67 285.545,-67 293.895,-67"/>
<polygon fill="midnightblue" stroke="midnightblue" points="268.259,-63.5001 258.259,-67 268.259,-70.5001 268.259,-63.5001"/>
</g>
<!-- Node2 -->
<g id="node2" class="node"><title>Node2</title>
<g id="a_node2"><a xlink:href="../../d3/db6/interfaceIG_1_1Lib_1_1ILockable.html" target="_top" xlink:title="Lockable object, has a Lock property that returns object on which lock must be performed in order to ...">
<polygon fill="white" stroke="black" points="0,-57.5 0,-76.5 58,-76.5 58,-57.5 0,-57.5"/>
<text text-anchor="middle" x="29" y="-64.5" font-family="Helvetica,sans-Serif" font-size="10.00">ILockable</text>
</a>
</g>
</g>
<!-- Node2&#45;&gt;Node1 -->
<g id="edge1" class="edge"><title>Node2&#45;&gt;Node1</title>
<path fill="none" stroke="midnightblue" d="M68.5618,-67C76.4349,-67 84.9976,-67 93.7326,-67"/>
<polygon fill="midnightblue" stroke="midnightblue" points="68.3017,-63.5001 58.3017,-67 68.3016,-70.5001 68.3017,-63.5001"/>
</g>
<!-- Node4 -->
<g id="node4" class="node"><title>Node4</title>
<g id="a_node4"><a xlink:href="../../da/d66/classIG_1_1Lib_1_1IpcStreamClientBase.html" target="_top" xlink:title="Client to the pipe server (classes derived from IpcStreamClientServerBase2).">
<polygon fill="white" stroke="black" points="472,-76.5 472,-95.5 609,-95.5 609,-76.5 472,-76.5"/>
<text text-anchor="middle" x="540.5" y="-83.5" font-family="Helvetica,sans-Serif" font-size="10.00">IG.Lib.IpcStreamClientBase</text>
</a>
</g>
</g>
<!-- Node3&#45;&gt;Node4 -->
<g id="edge3" class="edge"><title>Node3&#45;&gt;Node4</title>
<path fill="none" stroke="midnightblue" d="M445.044,-75.6859C453.981,-76.6617 463.024,-77.6491 471.791,-78.6065"/>
<polygon fill="midnightblue" stroke="midnightblue" points="445.34,-72.1975 435.02,-74.5912 444.581,-79.1561 445.34,-72.1975"/>
</g>
<!-- Node8 -->
<g id="node8" class="node"><title>Node8</title>
<g id="a_node8"><a xlink:href="../../d1/d4d/classIG_1_1Lib_1_1IpcStreamServerBase.html" target="_top" xlink:title="Server that creates a named pipe, listens on its input stream, and sends responses to the client.">
<polygon fill="white" stroke="black" points="471,-38.5 471,-57.5 610,-57.5 610,-38.5 471,-38.5"/>
<text text-anchor="middle" x="540.5" y="-45.5" font-family="Helvetica,sans-Serif" font-size="10.00">IG.Lib.IpcStreamServerBase</text>
</a>
</g>
</g>
<!-- Node3&#45;&gt;Node8 -->
<g id="edge7" class="edge"><title>Node3&#45;&gt;Node8</title>
<path fill="none" stroke="midnightblue" d="M445.089,-58.3092C453.723,-57.3664 462.455,-56.4129 470.942,-55.4862"/>
<polygon fill="midnightblue" stroke="midnightblue" points="444.581,-54.8439 435.02,-59.4088 445.34,-61.8025 444.581,-54.8439"/>
</g>
<!-- Node5 -->
<g id="node5" class="node"><title>Node5</title>
<g id="a_node5"><a xlink:href="../../d3/d53/classIG_1_1Lib_1_1NamedPipeClientBase.html" target="_top" xlink:title="Client to the pipe server (classes derived from IpcStreamClientServerBase2).">
<polygon fill="white" stroke="black" points="647,-114.5 647,-133.5 790,-133.5 790,-114.5 647,-114.5"/>
<text text-anchor="middle" x="718.5" y="-121.5" font-family="Helvetica,sans-Serif" font-size="10.00">IG.Lib.NamedPipeClientBase</text>
</a>
</g>
</g>
<!-- Node4&#45;&gt;Node5 -->
<g id="edge4" class="edge"><title>Node4&#45;&gt;Node5</title>
<path fill="none" stroke="midnightblue" d="M595.933,-97.7526C620.819,-103.126 649.919,-109.409 673.407,-114.48"/>
<polygon fill="midnightblue" stroke="midnightblue" points="596.426,-94.2784 585.912,-95.589 594.948,-101.121 596.426,-94.2784"/>
</g>
<!-- Node7 -->
<g id="node7" class="node"><title>Node7</title>
<g id="a_node7"><a xlink:href="../../df/d28/classIG_1_1Lib_1_1PipeClientBase.html" target="_top" xlink:title="Client to the pipe server (classes derived from IpcStreamClientServerBase2).">
<polygon fill="white" stroke="black" points="662.5,-76.5 662.5,-95.5 774.5,-95.5 774.5,-76.5 662.5,-76.5"/>
<text text-anchor="middle" x="718.5" y="-83.5" font-family="Helvetica,sans-Serif" font-size="10.00">IG.Lib.PipeClientBase</text>
</a>
</g>
</g>
<!-- Node4&#45;&gt;Node7 -->
<g id="edge6" class="edge"><title>Node4&#45;&gt;Node7</title>
<path fill="none" stroke="midnightblue" d="M619.069,-86C633.671,-86 648.661,-86 662.401,-86"/>
<polygon fill="midnightblue" stroke="midnightblue" points="619.043,-82.5001 609.043,-86 619.043,-89.5001 619.043,-82.5001"/>
</g>
<!-- Node6 -->
<g id="node6" class="node"><title>Node6</title>
<g id="a_node6"><a xlink:href="../../df/d39/classIG_1_1Lib_1_1CommandLineApplicationInterpreter_1_1InterpreterPipeClient.html" target="_top" xlink:title="Client to the interpreter pipe server (classes derived from InterpreterPipeServer).">
<polygon fill="white" stroke="black" points="827,-109 827,-139 982,-139 982,-109 827,-109"/>
<text text-anchor="start" x="835" y="-127" font-family="Helvetica,sans-Serif" font-size="10.00">IG.Lib.CommandLineApplication</text>
<text text-anchor="middle" x="904.5" y="-116" font-family="Helvetica,sans-Serif" font-size="10.00">Interpreter.InterpreterPipeClient</text>
</a>
</g>
</g>
<!-- Node5&#45;&gt;Node6 -->
<g id="edge5" class="edge"><title>Node5&#45;&gt;Node6</title>
<path fill="none" stroke="midnightblue" d="M800.392,-124C809.219,-124 818.185,-124 826.958,-124"/>
<polygon fill="midnightblue" stroke="midnightblue" points="800.113,-120.5 790.113,-124 800.113,-127.5 800.113,-120.5"/>
</g>
<!-- Node9 -->
<g id="node9" class="node"><title>Node9</title>
<g id="a_node9"><a xlink:href="../../d3/d6a/classIG_1_1Lib_1_1NamedPipeServerBase.html" target="_top" xlink:title="Server that creates a named pipe, listens on its input stream, and sends responses to the client.">
<polygon fill="white" stroke="black" points="646,-38.5 646,-57.5 791,-57.5 791,-38.5 646,-38.5"/>
<text text-anchor="middle" x="718.5" y="-45.5" font-family="Helvetica,sans-Serif" font-size="10.00">IG.Lib.NamedPipeServerBase</text>
</a>
</g>
</g>
<!-- Node8&#45;&gt;Node9 -->
<g id="edge8" class="edge"><title>Node8&#45;&gt;Node9</title>
<path fill="none" stroke="midnightblue" d="M620.082,-48C628.692,-48 637.423,-48 645.942,-48"/>
<polygon fill="midnightblue" stroke="midnightblue" points="620.05,-44.5001 610.05,-48 620.05,-51.5001 620.05,-44.5001"/>
</g>
<!-- Node11 -->
<g id="node11" class="node"><title>Node11</title>
<g id="a_node11"><a xlink:href="../../d9/db5/classIG_1_1Lib_1_1PipeServerBase.html" target="_top" xlink:title="Server that creates a named pipe, listens on its input stream, and sends responses to the client.">
<polygon fill="white" stroke="black" points="661.5,-0.5 661.5,-19.5 775.5,-19.5 775.5,-0.5 661.5,-0.5"/>
<text text-anchor="middle" x="718.5" y="-7.5" font-family="Helvetica,sans-Serif" font-size="10.00">IG.Lib.PipeServerBase</text>
</a>
</g>
</g>
<!-- Node8&#45;&gt;Node11 -->
<g id="edge10" class="edge"><title>Node8&#45;&gt;Node11</title>
<path fill="none" stroke="midnightblue" d="M595.933,-36.2474C620.819,-30.8742 649.919,-24.5914 673.407,-19.5201"/>
<polygon fill="midnightblue" stroke="midnightblue" points="594.948,-32.8793 585.912,-38.411 596.426,-39.7216 594.948,-32.8793"/>
</g>
<!-- Node10 -->
<g id="node10" class="node"><title>Node10</title>
<g id="a_node10"><a xlink:href="../../da/d87/classIG_1_1Lib_1_1CommandLineApplicationInterpreter_1_1InterpreterPipeServer.html" target="_top" xlink:title="Command&#45;line interpreter&#39;s server that creates a named pipe, listens on its input stream for client r...">
<polygon fill="white" stroke="black" points="827,-33 827,-63 982,-63 982,-33 827,-33"/>
<text text-anchor="start" x="835" y="-51" font-family="Helvetica,sans-Serif" font-size="10.00">IG.Lib.CommandLineApplication</text>
<text text-anchor="middle" x="904.5" y="-40" font-family="Helvetica,sans-Serif" font-size="10.00">Interpreter.InterpreterPipeServer</text>
</a>
</g>
</g>
<!-- Node9&#45;&gt;Node10 -->
<g id="edge9" class="edge"><title>Node9&#45;&gt;Node10</title>
<path fill="none" stroke="midnightblue" d="M801.413,-48C809.876,-48 818.455,-48 826.858,-48"/>
<polygon fill="midnightblue" stroke="midnightblue" points="801.166,-44.5001 791.166,-48 801.166,-51.5001 801.166,-44.5001"/>
</g>
</g>
</svg>
