<?xml version="1.0" encoding="UTF-8" standalone="no"?>
<!DOCTYPE svg PUBLIC "-//W3C//DTD SVG 1.1//EN"
 "http://www.w3.org/Graphics/SVG/1.1/DTD/svg11.dtd">
<!-- Generated by graphviz version 2.38.0 (20140413.2041)
 -->
<!-- Title: IG.Num.VectorFunctionRequestDTO Pages: 1 -->
<svg width="558pt" height="100pt"
 viewBox="0.00 0.00 558.00 99.50" xmlns="http://www.w3.org/2000/svg" xmlns:xlink="http://www.w3.org/1999/xlink">
<g id="graph0" class="graph" transform="scale(1 1) rotate(0) translate(4 95.5)">
<title>IG.Num.VectorFunctionRequestDTO</title>
<polygon fill="white" stroke="none" points="-4,4 -4,-95.5 554,-95.5 554,4 -4,4"/>
<!-- Node1 -->
<g id="node1" class="node"><title>Node1</title>
<g id="a_node1"><a xlink:title="DTO (Data Transfer Objects) for storing contents of vector function evaluation request.">
<polygon fill="#bfbfbf" stroke="black" points="376,-41 376,-60 550,-60 550,-41 376,-41"/>
<text text-anchor="middle" x="463" y="-48" font-family="Helvetica,sans-Serif" font-size="10.00">IG.Num.VectorFunctionRequestDTO</text>
</a>
</g>
</g>
<!-- Node2 -->
<g id="node2" class="node"><title>Node2</title>
<g id="a_node2"><a xlink:href="../../d7/dd8/classIG_1_1Lib_1_1SerializationDtoBase.html" target="_top" xlink:title=" ">
<polygon fill="white" stroke="black" points="158,-50 158,-91 286,-91 286,-50 158,-50"/>
<text text-anchor="start" x="166" y="-79" font-family="Helvetica,sans-Serif" font-size="10.00">SerializationDtoBase</text>
<text text-anchor="start" x="166" y="-68" font-family="Helvetica,sans-Serif" font-size="10.00">&lt; VectorFunctionResults,</text>
<text text-anchor="middle" x="222" y="-57" font-family="Helvetica,sans-Serif" font-size="10.00"> VectorFunctionResults &gt;</text>
</a>
</g>
</g>
<!-- Node2&#45;&gt;Node1 -->
<g id="edge1" class="edge"><title>Node2&#45;&gt;Node1</title>
<path fill="none" stroke="midnightblue" d="M296.266,-64.369C321.32,-62.2724 349.58,-59.9075 375.574,-57.7323"/>
<polygon fill="midnightblue" stroke="midnightblue" points="295.78,-60.8973 286.107,-65.2191 296.364,-67.8729 295.78,-60.8973"/>
</g>
<!-- Node3 -->
<g id="node3" class="node"><title>Node3</title>
<g id="a_node3"><a xlink:href="../../dc/dec/classIG_1_1Lib_1_1VectorDtoBase.html" target="_top" xlink:title="Base class for various vector DTO (Data Transfer Objects) for vectors. Used to store a state of a vec...">
<polygon fill="white" stroke="black" points="166.5,-0.5 166.5,-30.5 277.5,-30.5 277.5,-0.5 166.5,-0.5"/>
<text text-anchor="start" x="174.5" y="-18.5" font-family="Helvetica,sans-Serif" font-size="10.00">IG.Lib.VectorDtoBase</text>
<text text-anchor="middle" x="222" y="-7.5" font-family="Helvetica,sans-Serif" font-size="10.00">&lt; VectorType &gt;</text>
</a>
</g>
</g>
<!-- Node3&#45;&gt;Node1 -->
<g id="edge2" class="edge"><title>Node3&#45;&gt;Node1</title>
<path fill="none" stroke="#9a32cd" stroke-dasharray="5,2" d="M287.803,-24.9899C321.727,-29.9579 363.15,-36.0241 397.09,-40.9944"/>
<polygon fill="#9a32cd" stroke="#9a32cd" points="287.933,-21.4718 277.532,-23.4858 286.919,-28.398 287.933,-21.4718"/>
<text text-anchor="middle" x="331" y="-38.5" font-family="Helvetica,sans-Serif" font-size="10.00"> Parameters</text>
</g>
<!-- Node4 -->
<g id="node4" class="node"><title>Node4</title>
<g id="a_node4"><a xlink:href="../../d7/dd8/classIG_1_1Lib_1_1SerializationDtoBase.html" target="_top" xlink:title=" ">
<polygon fill="white" stroke="black" points="0,-0.5 0,-30.5 121,-30.5 121,-0.5 0,-0.5"/>
<text text-anchor="start" x="8" y="-18.5" font-family="Helvetica,sans-Serif" font-size="10.00">SerializationDtoBase</text>
<text text-anchor="middle" x="60.5" y="-7.5" font-family="Helvetica,sans-Serif" font-size="10.00">&lt; VectorType, IVector &gt;</text>
</a>
</g>
</g>
<!-- Node4&#45;&gt;Node3 -->
<g id="edge3" class="edge"><title>Node4&#45;&gt;Node3</title>
<path fill="none" stroke="midnightblue" d="M131.503,-15.5C143.174,-15.5 155.128,-15.5 166.344,-15.5"/>
<polygon fill="midnightblue" stroke="midnightblue" points="131.346,-12.0001 121.346,-15.5 131.346,-19.0001 131.346,-12.0001"/>
</g>
</g>
</svg>
