<?xml version="1.0" encoding="UTF-8" standalone="no"?>
<!DOCTYPE svg PUBLIC "-//W3C//DTD SVG 1.1//EN"
 "http://www.w3.org/Graphics/SVG/1.1/DTD/svg11.dtd">
<!-- Generated by graphviz version 2.38.0 (20140413.2041)
 -->
<!-- Title: IG.Lib.SerializerBase.SerializationTestClass Pages: 1 -->
<svg width="306pt" height="207pt"
 viewBox="0.00 0.00 306.00 207.00" xmlns="http://www.w3.org/2000/svg" xmlns:xlink="http://www.w3.org/1999/xlink">
<g id="graph0" class="graph" transform="scale(1 1) rotate(0) translate(4 203)">
<title>IG.Lib.SerializerBase.SerializationTestClass</title>
<polygon fill="white" stroke="none" points="-4,4 -4,-203 302,-203 302,4 -4,4"/>
<!-- Node1 -->
<g id="node1" class="node"><title>Node1</title>
<g id="a_node1"><a xlink:title="Test class for testing serialization.">
<polygon fill="#bfbfbf" stroke="black" points="23,-0.5 23,-30.5 187,-30.5 187,-0.5 23,-0.5"/>
<text text-anchor="start" x="31" y="-18.5" font-family="Helvetica,sans-Serif" font-size="10.00">IG.Lib.SerializerBase.Serialization</text>
<text text-anchor="middle" x="105" y="-7.5" font-family="Helvetica,sans-Serif" font-size="10.00">TestClass</text>
</a>
</g>
</g>
<!-- Node2 -->
<g id="node2" class="node"><title>Node2</title>
<g id="a_node2"><a xlink:href="../../d5/d02/interfaceIG_1_1Lib_1_1SerializerBase_1_1ISerializationTestClass.html" target="_top" xlink:title="Interface for classes for testing serialization.">
<polygon fill="white" stroke="black" points="0,-117 0,-136 116,-136 116,-117 0,-117"/>
<text text-anchor="middle" x="58" y="-124" font-family="Helvetica,sans-Serif" font-size="10.00">ISerializationTestClass</text>
</a>
</g>
</g>
<!-- Node2&#45;&gt;Node1 -->
<g id="edge1" class="edge"><title>Node2&#45;&gt;Node1</title>
<path fill="none" stroke="midnightblue" d="M65.6897,-107.666C74.9587,-86.1703 90.3477,-50.4808 98.8616,-30.7359"/>
<polygon fill="midnightblue" stroke="midnightblue" points="62.4336,-106.378 61.688,-116.947 68.8615,-109.15 62.4336,-106.378"/>
</g>
<!-- Node3 -->
<g id="node3" class="node"><title>Node3</title>
<g id="a_node3"><a xlink:href="../../da/d22/classIG_1_1Lib_1_1SerializerBase_1_1SerializationTestArrayMember.html" target="_top" xlink:title="Member of arrays in test classes for testing serialization.">
<polygon fill="white" stroke="black" points="134,-111.5 134,-141.5 298,-141.5 298,-111.5 134,-111.5"/>
<text text-anchor="start" x="142" y="-129.5" font-family="Helvetica,sans-Serif" font-size="10.00">IG.Lib.SerializerBase.Serialization</text>
<text text-anchor="middle" x="216" y="-118.5" font-family="Helvetica,sans-Serif" font-size="10.00">TestArrayMember</text>
</a>
</g>
</g>
<!-- Node3&#45;&gt;Node1 -->
<g id="edge2" class="edge"><title>Node3&#45;&gt;Node1</title>
<path fill="none" stroke="#9a32cd" stroke-dasharray="5,2" d="M194.195,-104.087C172.101,-82.3921 138.546,-49.4417 119.515,-30.7533"/>
<polygon fill="#9a32cd" stroke="#9a32cd" points="191.901,-106.741 201.489,-111.25 196.806,-101.746 191.901,-106.741"/>
<text text-anchor="middle" x="225" y="-85" font-family="Helvetica,sans-Serif" font-size="10.00"> _testJaggedArray2d</text>
<text text-anchor="middle" x="225" y="-74" font-family="Helvetica,sans-Serif" font-size="10.00">_testArray</text>
<text text-anchor="middle" x="225" y="-63" font-family="Helvetica,sans-Serif" font-size="10.00">_rectangularArray2d</text>
<text text-anchor="middle" x="225" y="-52" font-family="Helvetica,sans-Serif" font-size="10.00">_singleElement</text>
</g>
<!-- Node4 -->
<g id="node4" class="node"><title>Node4</title>
<g id="a_node4"><a xlink:href="../../d3/d29/interfaceIG_1_1Lib_1_1SerializerBase_1_1ISerializationTestArrayMember.html" target="_top" xlink:title="Interface for members of arrays in classes for testing serialization.">
<polygon fill="white" stroke="black" points="141.5,-179.5 141.5,-198.5 290.5,-198.5 290.5,-179.5 141.5,-179.5"/>
<text text-anchor="middle" x="216" y="-186.5" font-family="Helvetica,sans-Serif" font-size="10.00">ISerializationTestArrayMember</text>
</a>
</g>
</g>
<!-- Node4&#45;&gt;Node3 -->
<g id="edge3" class="edge"><title>Node4&#45;&gt;Node3</title>
<path fill="none" stroke="midnightblue" d="M216,-169.215C216,-160.356 216,-149.958 216,-141.759"/>
<polygon fill="midnightblue" stroke="midnightblue" points="212.5,-169.332 216,-179.332 219.5,-169.332 212.5,-169.332"/>
</g>
</g>
</svg>
