<?xml version="1.0" encoding="UTF-8" standalone="no"?>
<!DOCTYPE svg PUBLIC "-//W3C//DTD SVG 1.1//EN"
 "http://www.w3.org/Graphics/SVG/1.1/DTD/svg11.dtd">
<!-- Generated by graphviz version 2.38.0 (20140413.2041)
 -->
<!-- Title: IG.Num.IFunc2d Pages: 1 -->
<svg width="678pt" height="473pt"
 viewBox="0.00 0.00 678.00 472.70" xmlns="http://www.w3.org/2000/svg" xmlns:xlink="http://www.w3.org/1999/xlink">
<g id="graph0" class="graph" transform="scale(1 1) rotate(0) translate(4 468.703)">
<title>IG.Num.IFunc2d</title>
<polygon fill="white" stroke="none" points="-4,4 -4,-468.703 674,-468.703 674,4 -4,4"/>
<!-- Node1 -->
<g id="node1" class="node"><title>Node1</title>
<g id="a_node1"><a xlink:title="Represents scalar functions of 2 variables.">
<polygon fill="#bfbfbf" stroke="black" points="0,-252 0,-271 87,-271 87,-252 0,-252"/>
<text text-anchor="middle" x="43.5" y="-259" font-family="Helvetica,sans-Serif" font-size="10.00">IG.Num.IFunc2d</text>
</a>
</g>
</g>
<!-- Node2 -->
<g id="node2" class="node"><title>Node2</title>
<g id="a_node2"><a xlink:href="../../da/d29/classIG_1_1Num_1_1Func2dBase.html" target="_top" xlink:title="Base class for scalar functions of 2 variables (base for implementation of IFunc2d interface).">
<polygon fill="white" stroke="black" points="134,-290 134,-309 241,-309 241,-290 134,-290"/>
<text text-anchor="middle" x="187.5" y="-297" font-family="Helvetica,sans-Serif" font-size="10.00">IG.Num.Func2dBase</text>
</a>
</g>
</g>
<!-- Node1&#45;&gt;Node2 -->
<g id="edge1" class="edge"><title>Node1&#45;&gt;Node2</title>
<path fill="none" stroke="midnightblue" d="M89.9929,-273.674C109.628,-278.929 132.266,-284.987 150.679,-289.914"/>
<polygon fill="midnightblue" stroke="midnightblue" points="90.8975,-270.293 80.3326,-271.089 89.0879,-277.055 90.8975,-270.293"/>
</g>
<!-- Node3 -->
<g id="node3" class="node"><title>Node3</title>
<g id="a_node3"><a xlink:href="../../d8/d1b/classIG_1_1Num_1_1Func2dBaseNoGradient.html" target="_top" xlink:title="Base class for scalar functions of 2 variables (implementations of the IFunc2d interface)....">
<polygon fill="white" stroke="black" points="295,-404 295,-423 451,-423 451,-404 295,-404"/>
<text text-anchor="middle" x="373" y="-411" font-family="Helvetica,sans-Serif" font-size="10.00">IG.Num.Func2dBaseNoGradient</text>
</a>
</g>
</g>
<!-- Node1&#45;&gt;Node3 -->
<g id="edge12" class="edge"><title>Node1&#45;&gt;Node3</title>
<path fill="none" stroke="midnightblue" d="M51.3063,-280.841C61.9816,-308.055 85.4135,-356.95 123,-380.5 174.088,-412.509 242.616,-419.57 294.848,-419.293"/>
<polygon fill="midnightblue" stroke="midnightblue" points="54.505,-279.402 47.7262,-271.26 47.9478,-281.852 54.505,-279.402"/>
</g>
<!-- Node4 -->
<g id="node4" class="node"><title>Node4</title>
<g id="a_node4"><a xlink:href="../../da/dee/classIG_1_1Num_1_1Func2dBaseNoHessian.html" target="_top" xlink:title="Base class for scalar functions of 2 variables (implementations of the IFunc2d interface)....">
<polygon fill="white" stroke="black" points="295.5,-366 295.5,-385 450.5,-385 450.5,-366 295.5,-366"/>
<text text-anchor="middle" x="373" y="-373" font-family="Helvetica,sans-Serif" font-size="10.00">IG.Num.Func2dBaseNoHessian</text>
</a>
</g>
</g>
<!-- Node1&#45;&gt;Node4 -->
<g id="edge13" class="edge"><title>Node1&#45;&gt;Node4</title>
<path fill="none" stroke="midnightblue" d="M54.7158,-280.03C67.5787,-301.348 91.8179,-335.471 123,-351.5 176.11,-378.8 244.001,-383.698 295.474,-382.382"/>
<polygon fill="midnightblue" stroke="midnightblue" points="57.6667,-278.141 49.6223,-271.246 51.6113,-281.653 57.6667,-278.141"/>
</g>
<!-- Node5 -->
<g id="node5" class="node"><title>Node5</title>
<g id="a_node5"><a xlink:href="../../df/d8b/classIG_1_1Num_1_1Func2dExamples_1_1Func2dXY.html" target="_top" xlink:title="Function f(x, y) = x * y.">
<polygon fill="white" stroke="black" points="494,-404 494,-423 670,-423 670,-404 494,-404"/>
<text text-anchor="middle" x="582" y="-411" font-family="Helvetica,sans-Serif" font-size="10.00">IG.Num.Func2dExamples.Func2dXY</text>
</a>
</g>
</g>
<!-- Node1&#45;&gt;Node5 -->
<g id="edge15" class="edge"><title>Node1&#45;&gt;Node5</title>
<path fill="none" stroke="midnightblue" d="M48.5383,-281.225C56.4604,-314.417 77.3994,-380.899 123,-412.5 259.429,-507.043 477.897,-448.065 553.895,-423.073"/>
<polygon fill="midnightblue" stroke="midnightblue" points="51.9273,-280.342 46.334,-271.344 45.0953,-281.866 51.9273,-280.342"/>
</g>
<!-- Node6 -->
<g id="node6" class="node"><title>Node6</title>
<g id="a_node6"><a xlink:href="../../d0/d88/classIG_1_1Num_1_1Func2dVectorFormBase.html" target="_top" xlink:title="Base class for scalar functions of 2 variables (base for implementation of IFunc2d interface).">
<polygon fill="white" stroke="black" points="294,-271 294,-290 452,-290 452,-271 294,-271"/>
<text text-anchor="middle" x="373" y="-278" font-family="Helvetica,sans-Serif" font-size="10.00">IG.Num.Func2dVectorFormBase</text>
</a>
</g>
</g>
<!-- Node1&#45;&gt;Node6 -->
<g id="edge18" class="edge"><title>Node1&#45;&gt;Node6</title>
<path fill="none" stroke="midnightblue" d="M97.5368,-264.577C150.672,-267.66 233.061,-272.439 293.715,-275.958"/>
<polygon fill="midnightblue" stroke="midnightblue" points="97.5009,-261.069 87.3149,-263.984 97.0954,-268.057 97.5009,-261.069"/>
</g>
<!-- Node7 -->
<g id="node7" class="node"><title>Node7</title>
<g id="a_node7"><a xlink:href="../../db/d84/classIG_1_1Num_1_1Func2dLinear.html" target="_top" xlink:title="Linear (Affine) function of 2 variables.">
<polygon fill="white" stroke="black" points="526.5,-299 526.5,-318 637.5,-318 637.5,-299 526.5,-299"/>
<text text-anchor="middle" x="582" y="-306" font-family="Helvetica,sans-Serif" font-size="10.00">IG.Num.Func2dLinear</text>
</a>
</g>
</g>
<!-- Node1&#45;&gt;Node7 -->
<g id="edge16" class="edge"><title>Node1&#45;&gt;Node7</title>
<path fill="none" stroke="midnightblue" d="M60.8214,-278.197C75.5806,-292.011 98.6716,-310.599 123,-318.5 270.694,-366.466 459.518,-335.448 540.818,-318.026"/>
<polygon fill="midnightblue" stroke="midnightblue" points="63.1369,-275.567 53.5241,-271.112 58.2607,-280.589 63.1369,-275.567"/>
</g>
<!-- Node8 -->
<g id="node8" class="node"><title>Node8</title>
<g id="a_node8"><a xlink:href="../../de/d0a/classIG_1_1Num_1_1Func2dQuadratic.html" target="_top" xlink:title="Quadratic function of 2 variables.">
<polygon fill="white" stroke="black" points="518.5,-218 518.5,-237 645.5,-237 645.5,-218 518.5,-218"/>
<text text-anchor="middle" x="582" y="-225" font-family="Helvetica,sans-Serif" font-size="10.00">IG.Num.Func2dQuadratic</text>
</a>
</g>
</g>
<!-- Node1&#45;&gt;Node8 -->
<g id="edge17" class="edge"><title>Node1&#45;&gt;Node8</title>
<path fill="none" stroke="midnightblue" d="M97.1575,-258.163C196.572,-251.863 411.475,-238.243 518.213,-231.479"/>
<polygon fill="midnightblue" stroke="midnightblue" points="96.8053,-254.678 87.0467,-258.804 97.2481,-261.664 96.8053,-254.678"/>
</g>
<!-- Node10 -->
<g id="node10" class="node"><title>Node10</title>
<g id="a_node10"><a xlink:href="../../db/d2c/classIG_1_1Num_1_1Func3d2dBase_1_1ComponentFunction1.html" target="_top" xlink:title="Class that represents a scalar function of 2 variables that is the first component of the specified 3...">
<polygon fill="white" stroke="black" points="497,-165.5 497,-195.5 667,-195.5 667,-165.5 497,-165.5"/>
<text text-anchor="start" x="505" y="-183.5" font-family="Helvetica,sans-Serif" font-size="10.00">IG.Num.Func3d2dBase.Component</text>
<text text-anchor="middle" x="582" y="-172.5" font-family="Helvetica,sans-Serif" font-size="10.00">Function1</text>
</a>
</g>
</g>
<!-- Node1&#45;&gt;Node10 -->
<g id="edge19" class="edge"><title>Node1&#45;&gt;Node10</title>
<path fill="none" stroke="midnightblue" d="M95.9336,-249.788C104.932,-247.903 114.222,-246.062 123,-244.5 252.832,-221.404 404.6,-201.599 496.71,-190.369"/>
<polygon fill="midnightblue" stroke="midnightblue" points="94.9892,-246.411 85.9405,-251.922 96.4509,-253.257 94.9892,-246.411"/>
</g>
<!-- Node11 -->
<g id="node11" class="node"><title>Node11</title>
<g id="a_node11"><a xlink:href="../../d9/dbc/classIG_1_1Num_1_1Func3d2dBase_1_1ComponentFunction2.html" target="_top" xlink:title="Class that represents a scalar function of 2 variables that is the first component of the specified 3...">
<polygon fill="white" stroke="black" points="497,-111.5 497,-141.5 667,-141.5 667,-111.5 497,-111.5"/>
<text text-anchor="start" x="505" y="-129.5" font-family="Helvetica,sans-Serif" font-size="10.00">IG.Num.Func3d2dBase.Component</text>
<text text-anchor="middle" x="582" y="-118.5" font-family="Helvetica,sans-Serif" font-size="10.00">Function2</text>
</a>
</g>
</g>
<!-- Node1&#45;&gt;Node11 -->
<g id="edge20" class="edge"><title>Node1&#45;&gt;Node11</title>
<path fill="none" stroke="midnightblue" d="M63.4905,-245.177C102.41,-212.933 195.384,-141.987 288,-116.5 359.279,-96.8845 443.997,-102.747 503.957,-111.491"/>
<polygon fill="midnightblue" stroke="midnightblue" points="61.0192,-242.682 55.6111,-251.793 65.5203,-248.043 61.0192,-242.682"/>
</g>
<!-- Node12 -->
<g id="node12" class="node"><title>Node12</title>
<g id="a_node12"><a xlink:href="../../db/d01/classIG_1_1Num_1_1Func3d2dBase_1_1ComponentFunction3.html" target="_top" xlink:title="Class that represents a scalar function of 2 variables that is the third component of the specified 3...">
<polygon fill="white" stroke="black" points="497,-51.5 497,-81.5 667,-81.5 667,-51.5 497,-51.5"/>
<text text-anchor="start" x="505" y="-69.5" font-family="Helvetica,sans-Serif" font-size="10.00">IG.Num.Func3d2dBase.Component</text>
<text text-anchor="middle" x="582" y="-58.5" font-family="Helvetica,sans-Serif" font-size="10.00">Function3</text>
</a>
</g>
</g>
<!-- Node1&#45;&gt;Node12 -->
<g id="edge21" class="edge"><title>Node1&#45;&gt;Node12</title>
<path fill="none" stroke="midnightblue" d="M49.7684,-242.194C59.0999,-211.958 81.5696,-153.954 123,-125.5 234.686,-48.7963 398.511,-47.6529 496.962,-55.7345"/>
<polygon fill="midnightblue" stroke="midnightblue" points="46.3568,-241.391 46.9141,-251.971 53.0763,-243.353 46.3568,-241.391"/>
</g>
<!-- Node13 -->
<g id="node13" class="node"><title>Node13</title>
<g id="a_node13"><a xlink:href="../../d4/d33/classIG_1_1Num_1_1Func2dBasePlain__ToConsider.html" target="_top" xlink:title="Base class for scalar functions of 2 variables.">
<polygon fill="white" stroke="black" points="123,-0.5 123,-30.5 252,-30.5 252,-0.5 123,-0.5"/>
<text text-anchor="start" x="131" y="-18.5" font-family="Helvetica,sans-Serif" font-size="10.00">IG.Num.Func2dBasePlain</text>
<text text-anchor="middle" x="187.5" y="-7.5" font-family="Helvetica,sans-Serif" font-size="10.00">_ToConsider</text>
</a>
</g>
</g>
<!-- Node1&#45;&gt;Node13 -->
<g id="edge14" class="edge"><title>Node1&#45;&gt;Node13</title>
<path fill="none" stroke="midnightblue" d="M46.6143,-241.902C52.0309,-200.619 69.9392,-103.727 123,-45.5 128.502,-39.4619 135.474,-34.5295 142.769,-30.5376"/>
<polygon fill="midnightblue" stroke="midnightblue" points="43.1199,-241.646 45.3989,-251.993 50.0697,-242.484 43.1199,-241.646"/>
</g>
<!-- Node2&#45;&gt;Node3 -->
<g id="edge2" class="edge"><title>Node2&#45;&gt;Node3</title>
<path fill="none" stroke="midnightblue" d="M201.835,-317.1C219.227,-338.76 251.744,-375.051 288,-394.5 295.247,-398.387 303.257,-401.481 311.368,-403.943"/>
<polygon fill="midnightblue" stroke="midnightblue" points="204.46,-314.775 195.537,-309.063 198.95,-319.093 204.46,-314.775"/>
</g>
<!-- Node2&#45;&gt;Node4 -->
<g id="edge3" class="edge"><title>Node2&#45;&gt;Node4</title>
<path fill="none" stroke="midnightblue" d="M221.026,-312.971C257.772,-328.191 316.65,-352.576 348.948,-365.953"/>
<polygon fill="midnightblue" stroke="midnightblue" points="222.319,-309.718 211.74,-309.125 219.64,-316.186 222.319,-309.718"/>
</g>
<!-- Node2&#45;&gt;Node6 -->
<g id="edge5" class="edge"><title>Node2&#45;&gt;Node6</title>
<path fill="none" stroke="midnightblue" d="M251.319,-292.996C264.976,-291.582 279.586,-290.069 293.756,-288.602"/>
<polygon fill="midnightblue" stroke="midnightblue" points="250.67,-289.544 241.084,-294.055 251.391,-296.507 250.67,-289.544"/>
</g>
<!-- Node9 -->
<g id="node9" class="node"><title>Node9</title>
<g id="a_node9"><a xlink:href="../../df/d17/classIG_1_1Num_1_1Func3d2dBase_1_1ComponentFunctionBase.html" target="_top" xlink:title="Base function for component functions, provides internal variable for vector function.">
<polygon fill="white" stroke="black" points="288,-126.5 288,-156.5 458,-156.5 458,-126.5 288,-126.5"/>
<text text-anchor="start" x="296" y="-144.5" font-family="Helvetica,sans-Serif" font-size="10.00">IG.Num.Func3d2dBase.Component</text>
<text text-anchor="middle" x="373" y="-133.5" font-family="Helvetica,sans-Serif" font-size="10.00">FunctionBase</text>
</a>
</g>
</g>
<!-- Node2&#45;&gt;Node9 -->
<g id="edge8" class="edge"><title>Node2&#45;&gt;Node9</title>
<path fill="none" stroke="midnightblue" d="M207.458,-283.176C243.174,-252.423 319.941,-186.325 354.503,-156.565"/>
<polygon fill="midnightblue" stroke="midnightblue" points="204.997,-280.677 199.703,-289.854 209.564,-285.982 204.997,-280.677"/>
</g>
<!-- Node4&#45;&gt;Node5 -->
<g id="edge4" class="edge"><title>Node4&#45;&gt;Node5</title>
<path fill="none" stroke="midnightblue" d="M435.811,-386.847C465.511,-392.299 500.709,-398.761 529.011,-403.956"/>
<polygon fill="midnightblue" stroke="midnightblue" points="436.435,-383.403 425.968,-385.04 435.171,-390.288 436.435,-383.403"/>
</g>
<!-- Node6&#45;&gt;Node7 -->
<g id="edge6" class="edge"><title>Node6&#45;&gt;Node7</title>
<path fill="none" stroke="midnightblue" d="M454.529,-291.393C478.52,-294.638 504.244,-298.118 526.188,-301.086"/>
<polygon fill="midnightblue" stroke="midnightblue" points="454.749,-287.891 444.37,-290.019 453.81,-294.828 454.749,-287.891"/>
</g>
<!-- Node6&#45;&gt;Node8 -->
<g id="edge7" class="edge"><title>Node6&#45;&gt;Node8</title>
<path fill="none" stroke="midnightblue" d="M421.573,-268.32C458.715,-258.81 509.592,-245.783 543.793,-237.026"/>
<polygon fill="midnightblue" stroke="midnightblue" points="420.305,-265.031 411.486,-270.902 422.042,-271.812 420.305,-265.031"/>
</g>
<!-- Node9&#45;&gt;Node10 -->
<g id="edge9" class="edge"><title>Node9&#45;&gt;Node10</title>
<path fill="none" stroke="midnightblue" d="M463.697,-158.399C476.209,-160.757 488.995,-163.166 501.306,-165.485"/>
<polygon fill="midnightblue" stroke="midnightblue" points="464.211,-154.935 453.736,-156.523 462.915,-161.814 464.211,-154.935"/>
</g>
<!-- Node9&#45;&gt;Node11 -->
<g id="edge10" class="edge"><title>Node9&#45;&gt;Node11</title>
<path fill="none" stroke="midnightblue" d="M468.434,-134.657C477.921,-133.97 487.51,-133.275 496.88,-132.596"/>
<polygon fill="midnightblue" stroke="midnightblue" points="467.916,-131.185 458.195,-135.399 468.422,-138.167 467.916,-131.185"/>
</g>
<!-- Node9&#45;&gt;Node12 -->
<g id="edge11" class="edge"><title>Node9&#45;&gt;Node12</title>
<path fill="none" stroke="midnightblue" d="M425.506,-122.838C460.69,-110.091 506.702,-93.4195 539.526,-81.5266"/>
<polygon fill="midnightblue" stroke="midnightblue" points="424.099,-119.625 415.89,-126.323 426.484,-126.207 424.099,-119.625"/>
</g>
</g>
</svg>
