<?xml version="1.0" encoding="UTF-8" standalone="no"?>
<!DOCTYPE svg PUBLIC "-//W3C//DTD SVG 1.1//EN"
 "http://www.w3.org/Graphics/SVG/1.1/DTD/svg11.dtd">
<!-- Generated by graphviz version 2.38.0 (20140413.2041)
 -->
<!-- Title: IG.Num.VectorApproximatorBase Pages: 1 -->
<svg width="191pt" height="207pt"
 viewBox="0.00 0.00 191.00 207.00" xmlns="http://www.w3.org/2000/svg" xmlns:xlink="http://www.w3.org/1999/xlink">
<g id="graph0" class="graph" transform="scale(1 1) rotate(0) translate(4 203)">
<title>IG.Num.VectorApproximatorBase</title>
<polygon fill="white" stroke="none" points="-4,4 -4,-203 187,-203 187,4 -4,4"/>
<!-- Node1 -->
<g id="node1" class="node"><title>Node1</title>
<g id="a_node1"><a xlink:title="Base class for vector function approximators.">
<polygon fill="#bfbfbf" stroke="black" points="22,-123.5 22,-142.5 183,-142.5 183,-123.5 22,-123.5"/>
<text text-anchor="middle" x="102.5" y="-130.5" font-family="Helvetica,sans-Serif" font-size="10.00">IG.Num.VectorApproximatorBase</text>
</a>
</g>
</g>
<!-- Node4 -->
<g id="node4" class="node"><title>Node4</title>
<g id="a_node4"><a xlink:href="../../dc/db5/classIG_1_1Num_1_1NeuralApproximatorBase.html" target="_top" xlink:title="Base class for neural network approximators.">
<polygon fill="white" stroke="black" points="22,-67.5 22,-86.5 183,-86.5 183,-67.5 22,-67.5"/>
<text text-anchor="middle" x="102.5" y="-74.5" font-family="Helvetica,sans-Serif" font-size="10.00">IG.Num.NeuralApproximatorBase</text>
</a>
</g>
</g>
<!-- Node1&#45;&gt;Node4 -->
<g id="edge3" class="edge"><title>Node1&#45;&gt;Node4</title>
<path fill="none" stroke="midnightblue" d="M102.5,-112.805C102.5,-103.91 102.5,-93.7798 102.5,-86.7511"/>
<polygon fill="midnightblue" stroke="midnightblue" points="99.0001,-113.083 102.5,-123.083 106,-113.083 99.0001,-113.083"/>
</g>
<!-- Node2 -->
<g id="node2" class="node"><title>Node2</title>
<g id="a_node2"><a xlink:href="../../dc/d13/interfaceIG_1_1Num_1_1IVectorApproximator.html" target="_top" xlink:title="Interface for vector function approximators.">
<polygon fill="white" stroke="black" points="0,-179.5 0,-198.5 105,-198.5 105,-179.5 0,-179.5"/>
<text text-anchor="middle" x="52.5" y="-186.5" font-family="Helvetica,sans-Serif" font-size="10.00">IVectorApproximator</text>
</a>
</g>
</g>
<!-- Node2&#45;&gt;Node1 -->
<g id="edge1" class="edge"><title>Node2&#45;&gt;Node1</title>
<path fill="none" stroke="midnightblue" d="M67.5763,-171.718C76.3891,-162.2 87.1659,-150.561 94.3972,-142.751"/>
<polygon fill="midnightblue" stroke="midnightblue" points="64.9824,-169.367 60.7565,-179.083 70.1188,-174.123 64.9824,-169.367"/>
</g>
<!-- Node3 -->
<g id="node3" class="node"><title>Node3</title>
<g id="a_node3"><a xlink:href="../../d3/db6/interfaceIG_1_1Lib_1_1ILockable.html" target="_top" xlink:title="Lockable object, has a Lock property that returns object on which lock must be performed in order to ...">
<polygon fill="white" stroke="black" points="123.5,-179.5 123.5,-198.5 181.5,-198.5 181.5,-179.5 123.5,-179.5"/>
<text text-anchor="middle" x="152.5" y="-186.5" font-family="Helvetica,sans-Serif" font-size="10.00">ILockable</text>
</a>
</g>
</g>
<!-- Node3&#45;&gt;Node1 -->
<g id="edge2" class="edge"><title>Node3&#45;&gt;Node1</title>
<path fill="none" stroke="midnightblue" d="M137.424,-171.718C128.611,-162.2 117.834,-150.561 110.603,-142.751"/>
<polygon fill="midnightblue" stroke="midnightblue" points="134.881,-174.123 144.244,-179.083 140.018,-169.367 134.881,-174.123"/>
</g>
<!-- Node5 -->
<g id="node5" class="node"><title>Node5</title>
<g id="a_node5"><a xlink:href="../../dd/d0e/classIG_1_1Num_1_1NeuralApproximatorAforgeFake.html" target="_top" xlink:title=" ">
<polygon fill="white" stroke="black" points="33.5,-0.5 33.5,-30.5 171.5,-30.5 171.5,-0.5 33.5,-0.5"/>
<text text-anchor="start" x="41.5" y="-18.5" font-family="Helvetica,sans-Serif" font-size="10.00">IG.Num.NeuralApproximator</text>
<text text-anchor="middle" x="102.5" y="-7.5" font-family="Helvetica,sans-Serif" font-size="10.00">AforgeFake</text>
</a>
</g>
</g>
<!-- Node4&#45;&gt;Node5 -->
<g id="edge4" class="edge"><title>Node4&#45;&gt;Node5</title>
<path fill="none" stroke="midnightblue" d="M102.5,-57.2349C102.5,-48.5864 102.5,-38.4969 102.5,-30.523"/>
<polygon fill="midnightblue" stroke="midnightblue" points="99.0001,-57.4751 102.5,-67.4751 106,-57.4751 99.0001,-57.4751"/>
</g>
</g>
</svg>
