<?xml version="1.0" encoding="UTF-8" standalone="no"?>
<!DOCTYPE svg PUBLIC "-//W3C//DTD SVG 1.1//EN"
 "http://www.w3.org/Graphics/SVG/1.1/DTD/svg11.dtd">
<!-- Generated by graphviz version 2.38.0 (20140413.2041)
 -->
<!-- Title: IG.Num.ScalarFunctionConstant Pages: 1 -->
<svg width="226pt" height="140pt"
 viewBox="0.00 0.00 226.00 140.00" xmlns="http://www.w3.org/2000/svg" xmlns:xlink="http://www.w3.org/1999/xlink">
<g id="graph0" class="graph" transform="scale(1 1) rotate(0) translate(4 136)">
<title>IG.Num.ScalarFunctionConstant</title>
<polygon fill="white" stroke="none" points="-4,4 -4,-136 222,-136 222,4 -4,4"/>
<!-- Node1 -->
<g id="node1" class="node"><title>Node1</title>
<g id="a_node1"><a xlink:title="Constant scalar function of vector variable. Function is evaluated according to f(x) = c where x is v...">
<polygon fill="#bfbfbf" stroke="black" points="0,-0.5 0,-19.5 157,-19.5 157,-0.5 0,-0.5"/>
<text text-anchor="middle" x="78.5" y="-7.5" font-family="Helvetica,sans-Serif" font-size="10.00">IG.Num.ScalarFunctionConstant</text>
</a>
</g>
</g>
<!-- Node2 -->
<g id="node2" class="node"><title>Node2</title>
<g id="a_node2"><a xlink:href="../../d2/d9e/classIG_1_1Num_1_1ScalarFunctionUntransformedBase.html" target="_top" xlink:title="Base class for defining scalar functions without possibility of affine transformation of parameters.">
<polygon fill="white" stroke="black" points="51,-56.5 51,-75.5 218,-75.5 218,-56.5 51,-56.5"/>
<text text-anchor="middle" x="134.5" y="-63.5" font-family="Helvetica,sans-Serif" font-size="10.00">ScalarFunctionUntransformedBase</text>
</a>
</g>
</g>
<!-- Node2&#45;&gt;Node1 -->
<g id="edge1" class="edge"><title>Node2&#45;&gt;Node1</title>
<path fill="none" stroke="midnightblue" d="M118.17,-49.2533C108.235,-39.6731 95.9125,-27.7906 87.6611,-19.8339"/>
<polygon fill="midnightblue" stroke="midnightblue" points="115.875,-51.902 125.503,-56.324 120.734,-46.8631 115.875,-51.902"/>
</g>
<!-- Node3 -->
<g id="node3" class="node"><title>Node3</title>
<g id="a_node3"><a xlink:href="../../d8/d56/interfaceIG_1_1Num_1_1IScalarFunctionUntransformed.html" target="_top" xlink:title="Scalar functions of vector arguments.">
<polygon fill="white" stroke="black" points="5,-112.5 5,-131.5 152,-131.5 152,-112.5 5,-112.5"/>
<text text-anchor="middle" x="78.5" y="-119.5" font-family="Helvetica,sans-Serif" font-size="10.00">IScalarFunctionUntransformed</text>
</a>
</g>
</g>
<!-- Node3&#45;&gt;Node1 -->
<g id="edge3" class="edge"><title>Node3&#45;&gt;Node1</title>
<path fill="none" stroke="midnightblue" d="M61.0998,-104.819C53.8665,-96.916 46.2852,-86.7906 42.5,-76 34.9849,-54.576 54.8187,-31.8874 67.9487,-19.7991"/>
<polygon fill="midnightblue" stroke="midnightblue" points="58.8326,-107.506 68.3379,-112.185 63.8256,-102.6 58.8326,-107.506"/>
</g>
<!-- Node3&#45;&gt;Node2 -->
<g id="edge2" class="edge"><title>Node3&#45;&gt;Node2</title>
<path fill="none" stroke="midnightblue" d="M94.8299,-105.253C104.765,-95.6731 117.088,-83.7906 125.339,-75.8339"/>
<polygon fill="midnightblue" stroke="midnightblue" points="92.2664,-102.863 87.4974,-112.324 97.1253,-107.902 92.2664,-102.863"/>
</g>
</g>
</svg>
