<?xml version="1.0" encoding="UTF-8" standalone="no"?>
<!DOCTYPE svg PUBLIC "-//W3C//DTD SVG 1.1//EN"
 "http://www.w3.org/Graphics/SVG/1.1/DTD/svg11.dtd">
<!-- Generated by graphviz version 2.38.0 (20140413.2041)
 -->
<!-- Title: IG.Lib.IReporterConsole Pages: 1 -->
<svg width="454pt" height="196pt"
 viewBox="0.00 0.00 453.50 196.00" xmlns="http://www.w3.org/2000/svg" xmlns:xlink="http://www.w3.org/1999/xlink">
<g id="graph0" class="graph" transform="scale(1 1) rotate(0) translate(4 192)">
<title>IG.Lib.IReporterConsole</title>
<polygon fill="white" stroke="none" points="-4,4 -4,-192 449.5,-192 449.5,4 -4,4"/>
<!-- Node1 -->
<g id="node1" class="node"><title>Node1</title>
<g id="a_node1"><a xlink:title=" ">
<polygon fill="#bfbfbf" stroke="black" points="115,-0.5 115,-19.5 234,-19.5 234,-0.5 115,-0.5"/>
<text text-anchor="middle" x="174.5" y="-7.5" font-family="Helvetica,sans-Serif" font-size="10.00">IG.Lib.IReporterConsole</text>
</a>
</g>
</g>
<!-- Node2 -->
<g id="node2" class="node"><title>Node2</title>
<g id="a_node2"><a xlink:href="../../db/db1/interfaceIG_1_1Lib_1_1IReporter.html" target="_top" xlink:title="Interface from which majority of reporters inherit. Includes generic reporting functionality plus tra...">
<polygon fill="white" stroke="black" points="146.5,-56.5 146.5,-75.5 202.5,-75.5 202.5,-56.5 146.5,-56.5"/>
<text text-anchor="middle" x="174.5" y="-63.5" font-family="Helvetica,sans-Serif" font-size="10.00">IReporter</text>
</a>
</g>
</g>
<!-- Node2&#45;&gt;Node1 -->
<g id="edge1" class="edge"><title>Node2&#45;&gt;Node1</title>
<path fill="none" stroke="midnightblue" d="M174.5,-45.8045C174.5,-36.9102 174.5,-26.7798 174.5,-19.7511"/>
<polygon fill="midnightblue" stroke="midnightblue" points="171,-46.083 174.5,-56.083 178,-46.083 171,-46.083"/>
</g>
<!-- Node3 -->
<g id="node3" class="node"><title>Node3</title>
<g id="a_node3"><a xlink:title=" ">
<polygon fill="white" stroke="#bfbfbf" points="0,-112.5 0,-131.5 67,-131.5 67,-112.5 0,-112.5"/>
<text text-anchor="middle" x="33.5" y="-119.5" font-family="Helvetica,sans-Serif" font-size="10.00">IDisposable</text>
</a>
</g>
</g>
<!-- Node3&#45;&gt;Node2 -->
<g id="edge2" class="edge"><title>Node3&#45;&gt;Node2</title>
<path fill="none" stroke="midnightblue" d="M65.4286,-108.772C91.914,-98.6287 128.892,-84.4669 152.263,-75.5164"/>
<polygon fill="midnightblue" stroke="midnightblue" points="63.9287,-105.599 55.8419,-112.444 66.4322,-112.136 63.9287,-105.599"/>
</g>
<!-- Node4 -->
<g id="node4" class="node"><title>Node4</title>
<g id="a_node4"><a xlink:href="../../de/d0d/interfaceIG_1_1Lib_1_1IReporterBase.html" target="_top" xlink:title="Interface from which all reporters inherit.">
<polygon fill="white" stroke="black" points="195.5,-168.5 195.5,-187.5 273.5,-187.5 273.5,-168.5 195.5,-168.5"/>
<text text-anchor="middle" x="234.5" y="-175.5" font-family="Helvetica,sans-Serif" font-size="10.00">IReporterBase</text>
</a>
</g>
</g>
<!-- Node4&#45;&gt;Node2 -->
<g id="edge3" class="edge"><title>Node4&#45;&gt;Node2</title>
<path fill="none" stroke="midnightblue" d="M185.326,-171.773C159.695,-166.268 130.443,-155.006 114.5,-132 99.1043,-109.784 133.237,-87.3924 156.074,-75.5671"/>
<polygon fill="midnightblue" stroke="midnightblue" points="184.823,-175.24 195.302,-173.675 186.134,-168.364 184.823,-175.24"/>
</g>
<!-- Node5 -->
<g id="node5" class="node"><title>Node5</title>
<g id="a_node5"><a xlink:href="../../d2/d8e/interfaceIG_1_1Lib_1_1IReporterTextWriter.html" target="_top" xlink:title="Reporters that utilize writing messages to files. Messages are typically formatted as multi&#45;line mess...">
<polygon fill="white" stroke="black" points="124,-112.5 124,-131.5 225,-131.5 225,-112.5 124,-112.5"/>
<text text-anchor="middle" x="174.5" y="-119.5" font-family="Helvetica,sans-Serif" font-size="10.00">IReporterTextWriter</text>
</a>
</g>
</g>
<!-- Node4&#45;&gt;Node5 -->
<g id="edge5" class="edge"><title>Node4&#45;&gt;Node5</title>
<path fill="none" stroke="midnightblue" d="M217.319,-161.537C206.621,-151.909 193.244,-139.869 184.315,-131.834"/>
<polygon fill="midnightblue" stroke="midnightblue" points="215.086,-164.236 224.86,-168.324 219.768,-159.033 215.086,-164.236"/>
</g>
<!-- Node6 -->
<g id="node6" class="node"><title>Node6</title>
<g id="a_node6"><a xlink:href="../../d1/ddb/interfaceIG_1_1Lib_1_1IReporterTextLogger.html" target="_top" xlink:title="Reporters that utilize logging messages to files. IReporterTextLogger typically outputs (to a file) m...">
<polygon fill="white" stroke="black" points="243.5,-112.5 243.5,-131.5 347.5,-131.5 347.5,-112.5 243.5,-112.5"/>
<text text-anchor="middle" x="295.5" y="-119.5" font-family="Helvetica,sans-Serif" font-size="10.00">IReporterTextLogger</text>
</a>
</g>
</g>
<!-- Node4&#45;&gt;Node6 -->
<g id="edge7" class="edge"><title>Node4&#45;&gt;Node6</title>
<path fill="none" stroke="midnightblue" d="M251.967,-161.537C262.844,-151.909 276.444,-139.869 285.521,-131.834"/>
<polygon fill="midnightblue" stroke="midnightblue" points="249.468,-159.075 244.301,-168.324 254.108,-164.316 249.468,-159.075"/>
</g>
<!-- Node7 -->
<g id="node7" class="node"><title>Node7</title>
<g id="a_node7"><a xlink:href="../../d0/d0e/interfaceIG_1_1Lib_1_1IReporterTrace.html" target="_top" xlink:title="Reporters that utilize system&#39;s trace utility.">
<polygon fill="white" stroke="black" points="365.5,-112.5 365.5,-131.5 445.5,-131.5 445.5,-112.5 365.5,-112.5"/>
<text text-anchor="middle" x="405.5" y="-119.5" font-family="Helvetica,sans-Serif" font-size="10.00">IReporterTrace</text>
</a>
</g>
</g>
<!-- Node4&#45;&gt;Node7 -->
<g id="edge9" class="edge"><title>Node4&#45;&gt;Node7</title>
<path fill="none" stroke="midnightblue" d="M271.536,-165.304C303.757,-155.129 349.689,-140.625 378.531,-131.516"/>
<polygon fill="midnightblue" stroke="midnightblue" points="270.077,-162.095 261.595,-168.444 272.185,-168.77 270.077,-162.095"/>
</g>
<!-- Node5&#45;&gt;Node2 -->
<g id="edge4" class="edge"><title>Node5&#45;&gt;Node2</title>
<path fill="none" stroke="midnightblue" d="M174.5,-101.805C174.5,-92.9102 174.5,-82.7798 174.5,-75.7511"/>
<polygon fill="midnightblue" stroke="midnightblue" points="171,-102.083 174.5,-112.083 178,-102.083 171,-102.083"/>
</g>
<!-- Node6&#45;&gt;Node2 -->
<g id="edge6" class="edge"><title>Node6&#45;&gt;Node2</title>
<path fill="none" stroke="midnightblue" d="M267.194,-108.368C244.535,-98.2553 213.374,-84.3486 193.583,-75.5164"/>
<polygon fill="midnightblue" stroke="midnightblue" points="265.769,-111.564 276.327,-112.444 268.622,-105.172 265.769,-111.564"/>
</g>
<!-- Node7&#45;&gt;Node2 -->
<g id="edge8" class="edge"><title>Node7&#45;&gt;Node2</title>
<path fill="none" stroke="midnightblue" d="M358.997,-110.129C312.168,-99.1821 241.451,-82.6509 202.575,-73.5631"/>
<polygon fill="midnightblue" stroke="midnightblue" points="358.363,-113.575 368.897,-112.444 359.957,-106.759 358.363,-113.575"/>
</g>
</g>
</svg>
