<?xml version="1.0" encoding="UTF-8" standalone="no"?>
<!DOCTYPE svg PUBLIC "-//W3C//DTD SVG 1.1//EN"
 "http://www.w3.org/Graphics/SVG/1.1/DTD/svg11.dtd">
<!-- Generated by graphviz version 2.38.0 (20140413.2041)
 -->
<!-- Title: IG.Lib.AppTest Pages: 1 -->
<svg width="102pt" height="196pt"
 viewBox="0.00 0.00 101.50 196.00" xmlns="http://www.w3.org/2000/svg" xmlns:xlink="http://www.w3.org/1999/xlink">
<g id="graph0" class="graph" transform="scale(1 1) rotate(0) translate(4 192)">
<title>IG.Lib.AppTest</title>
<polygon fill="white" stroke="none" points="-4,4 -4,-192 97.5,-192 97.5,4 -4,4"/>
<!-- Node1 -->
<g id="node1" class="node"><title>Node1</title>
<g id="a_node1"><a xlink:title=" ">
<polygon fill="#bfbfbf" stroke="black" points="3,-0.5 3,-19.5 84,-19.5 84,-0.5 3,-0.5"/>
<text text-anchor="middle" x="43.5" y="-7.5" font-family="Helvetica,sans-Serif" font-size="10.00">IG.Lib.AppTest</text>
</a>
</g>
</g>
<!-- Node2 -->
<g id="node2" class="node"><title>Node2</title>
<g id="a_node2"><a xlink:href="../../d1/d77/classIG_1_1Lib_1_1ApplicationBase.html" target="_top" xlink:title="Base class for all application classes. Provides some basic functionality such as keeping information...">
<polygon fill="white" stroke="black" points="0,-56.5 0,-75.5 87,-75.5 87,-56.5 0,-56.5"/>
<text text-anchor="middle" x="43.5" y="-63.5" font-family="Helvetica,sans-Serif" font-size="10.00">ApplicationBase</text>
</a>
</g>
</g>
<!-- Node2&#45;&gt;Node1 -->
<g id="edge1" class="edge"><title>Node2&#45;&gt;Node1</title>
<path fill="none" stroke="midnightblue" d="M43.5,-45.8045C43.5,-36.9102 43.5,-26.7798 43.5,-19.7511"/>
<polygon fill="midnightblue" stroke="midnightblue" points="40.0001,-46.083 43.5,-56.083 47.0001,-46.083 40.0001,-46.083"/>
</g>
<!-- Node3 -->
<g id="node3" class="node"><title>Node3</title>
<g id="a_node3"><a xlink:href="../../db/dc7/classIG_1_1Lib_1_1Module.html" target="_top" xlink:title="General module (or library) management class, a base class for specific module classes....">
<polygon fill="white" stroke="black" points="45.5,-112.5 45.5,-131.5 93.5,-131.5 93.5,-112.5 45.5,-112.5"/>
<text text-anchor="middle" x="69.5" y="-119.5" font-family="Helvetica,sans-Serif" font-size="10.00">Module</text>
</a>
</g>
</g>
<!-- Node3&#45;&gt;Node2 -->
<g id="edge2" class="edge"><title>Node3&#45;&gt;Node2</title>
<path fill="none" stroke="midnightblue" d="M60.825,-102.983C56.4118,-93.8168 51.2481,-83.0922 47.7135,-75.7511"/>
<polygon fill="midnightblue" stroke="midnightblue" points="57.7149,-104.591 65.2066,-112.083 64.0219,-101.555 57.7149,-104.591"/>
</g>
<!-- Node4 -->
<g id="node4" class="node"><title>Node4</title>
<g id="a_node4"><a xlink:href="../../d3/db6/interfaceIG_1_1Lib_1_1ILockable.html" target="_top" xlink:title="Lockable object, has a Lock property that returns object on which lock must be performed in order to ...">
<polygon fill="white" stroke="black" points="14.5,-168.5 14.5,-187.5 72.5,-187.5 72.5,-168.5 14.5,-168.5"/>
<text text-anchor="middle" x="43.5" y="-175.5" font-family="Helvetica,sans-Serif" font-size="10.00">ILockable</text>
</a>
</g>
</g>
<!-- Node4&#45;&gt;Node2 -->
<g id="edge4" class="edge"><title>Node4&#45;&gt;Node2</title>
<path fill="none" stroke="midnightblue" d="M39.9719,-158.547C38.5919,-150.437 37.1788,-140.78 36.5,-132 34.9427,-111.857 38.9352,-88.3006 41.5128,-75.8158"/>
<polygon fill="midnightblue" stroke="midnightblue" points="36.5337,-159.204 41.7611,-168.419 43.4215,-157.955 36.5337,-159.204"/>
</g>
<!-- Node4&#45;&gt;Node3 -->
<g id="edge3" class="edge"><title>Node4&#45;&gt;Node3</title>
<path fill="none" stroke="midnightblue" d="M52.175,-158.983C56.5882,-149.817 61.7519,-139.092 65.2865,-131.751"/>
<polygon fill="midnightblue" stroke="midnightblue" points="48.9781,-157.555 47.7934,-168.083 55.2851,-160.591 48.9781,-157.555"/>
</g>
</g>
</svg>
