<?xml version="1.0" encoding="UTF-8" standalone="no"?>
<!DOCTYPE svg PUBLIC "-//W3C//DTD SVG 1.1//EN"
 "http://www.w3.org/Graphics/SVG/1.1/DTD/svg11.dtd">
<!-- Generated by graphviz version 2.38.0 (20140413.2041)
 -->
<!-- Title: IG.Lib.IInterpreterCommand Pages: 1 -->
<svg width="266pt" height="95pt"
 viewBox="0.00 0.00 266.00 95.00" xmlns="http://www.w3.org/2000/svg" xmlns:xlink="http://www.w3.org/1999/xlink">
<g id="graph0" class="graph" transform="scale(1 1) rotate(0) translate(4 91)">
<title>IG.Lib.IInterpreterCommand</title>
<polygon fill="white" stroke="none" points="-4,4 -4,-91 262,-91 262,4 -4,4"/>
<!-- Node1 -->
<g id="node1" class="node"><title>Node1</title>
<g id="a_node1"><a xlink:title=" ">
<polygon fill="#bfbfbf" stroke="black" points="55,-67.5 55,-86.5 190,-86.5 190,-67.5 55,-67.5"/>
<text text-anchor="middle" x="122.5" y="-74.5" font-family="Helvetica,sans-Serif" font-size="10.00">IG.Lib.IInterpreterCommand</text>
</a>
</g>
</g>
<!-- Node2 -->
<g id="node2" class="node"><title>Node2</title>
<g id="a_node2"><a xlink:href="../../d3/d58/classIG_1_1Lib_1_1CommandLine.html" target="_top" xlink:title="Represents a single command&#45;line that can be executed. $A Igor Feb09;">
<polygon fill="white" stroke="black" points="0,-6 0,-25 107,-25 107,-6 0,-6"/>
<text text-anchor="middle" x="53.5" y="-13" font-family="Helvetica,sans-Serif" font-size="10.00">IG.Lib.CommandLine</text>
</a>
</g>
</g>
<!-- Node1&#45;&gt;Node2 -->
<g id="edge1" class="edge"><title>Node1&#45;&gt;Node2</title>
<path fill="none" stroke="midnightblue" d="M104.699,-60.6496C91.5437,-49.3058 74.1201,-34.2811 63.3677,-25.0091"/>
<polygon fill="midnightblue" stroke="midnightblue" points="102.755,-63.5952 112.614,-67.4751 107.326,-58.294 102.755,-63.5952"/>
</g>
<!-- Node3 -->
<g id="node3" class="node"><title>Node3</title>
<g id="a_node3"><a xlink:href="../../d8/d24/classIG_1_1Lib_1_1InterpreterCommandDataBase.html" target="_top" xlink:title=" ">
<polygon fill="white" stroke="black" points="125,-0.5 125,-30.5 258,-30.5 258,-0.5 125,-0.5"/>
<text text-anchor="start" x="133" y="-18.5" font-family="Helvetica,sans-Serif" font-size="10.00">IG.Lib.InterpreterCommand</text>
<text text-anchor="middle" x="191.5" y="-7.5" font-family="Helvetica,sans-Serif" font-size="10.00">DataBase</text>
</a>
</g>
</g>
<!-- Node1&#45;&gt;Node3 -->
<g id="edge2" class="edge"><title>Node1&#45;&gt;Node3</title>
<path fill="none" stroke="midnightblue" d="M139.986,-60.9215C150.82,-51.579 164.64,-39.6616 175.238,-30.523"/>
<polygon fill="midnightblue" stroke="midnightblue" points="137.674,-58.294 132.386,-67.4751 142.245,-63.5952 137.674,-58.294"/>
</g>
</g>
</svg>
