<?xml version="1.0" encoding="UTF-8" standalone="no"?>
<!DOCTYPE svg PUBLIC "-//W3C//DTD SVG 1.1//EN"
 "http://www.w3.org/Graphics/SVG/1.1/DTD/svg11.dtd">
<!-- Generated by graphviz version 2.38.0 (20140413.2041)
 -->
<!-- Title: IG.Num.ScalarFunctionTransformed Pages: 1 -->
<svg width="281pt" height="196pt"
 viewBox="0.00 0.00 281.00 196.00" xmlns="http://www.w3.org/2000/svg" xmlns:xlink="http://www.w3.org/1999/xlink">
<g id="graph0" class="graph" transform="scale(1 1) rotate(0) translate(4 192)">
<title>IG.Num.ScalarFunctionTransformed</title>
<polygon fill="white" stroke="none" points="-4,4 -4,-192 277,-192 277,4 -4,4"/>
<!-- Node1 -->
<g id="node1" class="node"><title>Node1</title>
<g id="a_node1"><a xlink:title="Scalar function that is defined as some reference function evaluated at inverse affine&#45;trasformed par...">
<polygon fill="#bfbfbf" stroke="black" points="102,-0.5 102,-19.5 273,-19.5 273,-0.5 102,-0.5"/>
<text text-anchor="middle" x="187.5" y="-7.5" font-family="Helvetica,sans-Serif" font-size="10.00">IG.Num.ScalarFunctionTransformed</text>
</a>
</g>
</g>
<!-- Node2 -->
<g id="node2" class="node"><title>Node2</title>
<g id="a_node2"><a xlink:href="../../d2/d85/classIG_1_1Num_1_1ScalarFunctionBase.html" target="_top" xlink:title="Base class for scalar functions with affine transformation of co&#45;ordinates. The reference function is...">
<polygon fill="white" stroke="black" points="95.5,-56.5 95.5,-75.5 199.5,-75.5 199.5,-56.5 95.5,-56.5"/>
<text text-anchor="middle" x="147.5" y="-63.5" font-family="Helvetica,sans-Serif" font-size="10.00">ScalarFunctionBase</text>
</a>
</g>
</g>
<!-- Node2&#45;&gt;Node1 -->
<g id="edge1" class="edge"><title>Node2&#45;&gt;Node1</title>
<path fill="none" stroke="midnightblue" d="M160.2,-47.8554C167.126,-38.5048 175.406,-27.3265 181.018,-19.7511"/>
<polygon fill="midnightblue" stroke="midnightblue" points="157.245,-45.9641 154.105,-56.083 162.87,-50.1307 157.245,-45.9641"/>
</g>
<!-- Node3 -->
<g id="node3" class="node"><title>Node3</title>
<g id="a_node3"><a xlink:href="../../d2/d9e/classIG_1_1Num_1_1ScalarFunctionUntransformedBase.html" target="_top" xlink:title="Base class for defining scalar functions without possibility of affine transformation of parameters.">
<polygon fill="white" stroke="black" points="0,-112.5 0,-131.5 167,-131.5 167,-112.5 0,-112.5"/>
<text text-anchor="middle" x="83.5" y="-119.5" font-family="Helvetica,sans-Serif" font-size="10.00">ScalarFunctionUntransformedBase</text>
</a>
</g>
</g>
<!-- Node3&#45;&gt;Node2 -->
<g id="edge2" class="edge"><title>Node3&#45;&gt;Node2</title>
<path fill="none" stroke="midnightblue" d="M101.491,-105.82C112.958,-96.1452 127.413,-83.9481 137.03,-75.8339"/>
<polygon fill="midnightblue" stroke="midnightblue" points="99.1686,-103.2 93.7827,-112.324 103.683,-108.55 99.1686,-103.2"/>
</g>
<!-- Node4 -->
<g id="node4" class="node"><title>Node4</title>
<g id="a_node4"><a xlink:href="../../d8/d56/interfaceIG_1_1Num_1_1IScalarFunctionUntransformed.html" target="_top" xlink:title="Scalar functions of vector arguments.">
<polygon fill="white" stroke="black" points="82,-168.5 82,-187.5 229,-187.5 229,-168.5 82,-168.5"/>
<text text-anchor="middle" x="155.5" y="-175.5" font-family="Helvetica,sans-Serif" font-size="10.00">IScalarFunctionUntransformed</text>
</a>
</g>
</g>
<!-- Node4&#45;&gt;Node3 -->
<g id="edge3" class="edge"><title>Node4&#45;&gt;Node3</title>
<path fill="none" stroke="midnightblue" d="M135.634,-162.101C122.677,-152.382 106.203,-140.027 95.2785,-131.834"/>
<polygon fill="midnightblue" stroke="midnightblue" points="133.832,-165.124 143.932,-168.324 138.032,-159.524 133.832,-165.124"/>
</g>
<!-- Node5 -->
<g id="node5" class="node"><title>Node5</title>
<g id="a_node5"><a xlink:href="../../dd/d1e/interfaceIG_1_1Num_1_1IScalarFunction.html" target="_top" xlink:title="Scalar functions of vector arguments, with eventual affine transformation of parameters....">
<polygon fill="white" stroke="black" points="185.5,-112.5 185.5,-131.5 269.5,-131.5 269.5,-112.5 185.5,-112.5"/>
<text text-anchor="middle" x="227.5" y="-119.5" font-family="Helvetica,sans-Serif" font-size="10.00">IScalarFunction</text>
</a>
</g>
</g>
<!-- Node4&#45;&gt;Node5 -->
<g id="edge5" class="edge"><title>Node4&#45;&gt;Node5</title>
<path fill="none" stroke="midnightblue" d="M175.366,-162.101C188.323,-152.382 204.797,-140.027 215.721,-131.834"/>
<polygon fill="midnightblue" stroke="midnightblue" points="172.968,-159.524 167.068,-168.324 177.168,-165.124 172.968,-159.524"/>
</g>
<!-- Node5&#45;&gt;Node1 -->
<g id="edge6" class="edge"><title>Node5&#45;&gt;Node1</title>
<path fill="none" stroke="midnightblue" d="M222.955,-102.72C219.49,-89.5582 214.332,-71.4704 208.5,-56 203.634,-43.0926 196.647,-28.7413 192.092,-19.793"/>
<polygon fill="midnightblue" stroke="midnightblue" points="219.575,-103.631 225.444,-112.451 226.357,-101.895 219.575,-103.631"/>
</g>
<!-- Node5&#45;&gt;Node2 -->
<g id="edge4" class="edge"><title>Node5&#45;&gt;Node2</title>
<path fill="none" stroke="midnightblue" d="M206.199,-106.622C191.585,-96.7574 172.673,-83.9919 160.321,-75.6545"/>
<polygon fill="midnightblue" stroke="midnightblue" points="204.4,-109.63 214.647,-112.324 208.316,-103.828 204.4,-109.63"/>
</g>
</g>
</svg>
