<?xml version="1.0" encoding="UTF-8" standalone="no"?>
<!DOCTYPE svg PUBLIC "-//W3C//DTD SVG 1.1//EN"
 "http://www.w3.org/Graphics/SVG/1.1/DTD/svg11.dtd">
<!-- Generated by graphviz version 2.38.0 (20140413.2041)
 -->
<!-- Title: IG.Gr.GraphicObject Pages: 1 -->
<svg width="178pt" height="162pt"
 viewBox="0.00 0.00 177.50 162.00" xmlns="http://www.w3.org/2000/svg" xmlns:xlink="http://www.w3.org/1999/xlink">
<g id="graph0" class="graph" transform="scale(1 1) rotate(0) translate(4 158)">
<title>IG.Gr.GraphicObject</title>
<polygon fill="white" stroke="none" points="-4,4 -4,-158 173.5,-158 173.5,4 -4,4"/>
<!-- Node1 -->
<g id="node1" class="node"><title>Node1</title>
<g id="a_node1"><a xlink:title="Graphic object, a tree &#45; like collection of graphic primitives.">
<polygon fill="#bfbfbf" stroke="black" points="10.5,-0.5 10.5,-19.5 115.5,-19.5 115.5,-0.5 10.5,-0.5"/>
<text text-anchor="middle" x="63" y="-7.5" font-family="Helvetica,sans-Serif" font-size="10.00">IG.Gr.GraphicObject</text>
</a>
</g>
</g>
<!-- Node1&#45;&gt;Node1 -->
<g id="edge1" class="edge"><title>Node1&#45;&gt;Node1</title>
<path fill="none" stroke="#9a32cd" stroke-dasharray="5,2" d="M125.845,-14.4883C130.585,-13.4883 133.5,-11.9922 133.5,-10 133.5,-6.8125 126.039,-4.89502 115.575,-4.24756"/>
<polygon fill="#9a32cd" stroke="#9a32cd" points="125.073,-11.0568 115.575,-15.7524 125.928,-18.0044 125.073,-11.0568"/>
<text text-anchor="middle" x="151.5" y="-7.5" font-family="Helvetica,sans-Serif" font-size="10.00"> _parent</text>
</g>
<!-- Node2 -->
<g id="node2" class="node"><title>Node2</title>
<g id="a_node2"><a xlink:href="../../dc/d46/classIG_1_1Gr_1_1GrPrimitiveSettings.html" target="_top" xlink:title="Settings for graphic primitive.">
<polygon fill="white" stroke="black" points="0,-67.5 0,-86.5 126,-86.5 126,-67.5 0,-67.5"/>
<text text-anchor="middle" x="63" y="-74.5" font-family="Helvetica,sans-Serif" font-size="10.00">IG.Gr.GrPrimitiveSettings</text>
</a>
</g>
</g>
<!-- Node2&#45;&gt;Node1 -->
<g id="edge2" class="edge"><title>Node2&#45;&gt;Node1</title>
<path fill="none" stroke="#9a32cd" stroke-dasharray="5,2" d="M63,-57.037C63,-44.6703 63,-29.1198 63,-19.6273"/>
<polygon fill="#9a32cd" stroke="#9a32cd" points="59.5001,-57.2338 63,-67.2338 66.5001,-57.2338 59.5001,-57.2338"/>
<text text-anchor="middle" x="84.5" y="-41" font-family="Helvetica,sans-Serif" font-size="10.00"> _settings</text>
</g>
<!-- Node3 -->
<g id="node3" class="node"><title>Node3</title>
<g id="a_node3"><a xlink:href="../../dd/d52/structIG_1_1Lib_1_1color.html" target="_top" xlink:title="Extended color representation. Stores RGB components and opacity as double numbers ranging fom 0 to 1...">
<polygon fill="white" stroke="black" points="30,-134.5 30,-153.5 96,-153.5 96,-134.5 30,-134.5"/>
<text text-anchor="middle" x="63" y="-141.5" font-family="Helvetica,sans-Serif" font-size="10.00">IG.Lib.color</text>
</a>
</g>
</g>
<!-- Node3&#45;&gt;Node2 -->
<g id="edge3" class="edge"><title>Node3&#45;&gt;Node2</title>
<path fill="none" stroke="#9a32cd" stroke-dasharray="5,2" d="M63,-124.037C63,-111.67 63,-96.1198 63,-86.6273"/>
<polygon fill="#9a32cd" stroke="#9a32cd" points="59.5001,-124.234 63,-134.234 66.5001,-124.234 59.5001,-124.234"/>
<text text-anchor="middle" x="78" y="-108" font-family="Helvetica,sans-Serif" font-size="10.00"> _color</text>
</g>
</g>
</svg>
