<?xml version="1.0" encoding="UTF-8" standalone="no"?>
<!DOCTYPE svg PUBLIC "-//W3C//DTD SVG 1.1//EN"
 "http://www.w3.org/Graphics/SVG/1.1/DTD/svg11.dtd">
<!-- Generated by graphviz version 2.38.0 (20140413.2041)
 -->
<!-- Title: IG.Num.ScalarFunctionParametric Pages: 1 -->
<svg width="1022pt" height="255pt"
 viewBox="0.00 0.00 1022.00 255.08" xmlns="http://www.w3.org/2000/svg" xmlns:xlink="http://www.w3.org/1999/xlink">
<g id="graph0" class="graph" transform="scale(1 1) rotate(0) translate(4 251.075)">
<title>IG.Num.ScalarFunctionParametric</title>
<polygon fill="white" stroke="none" points="-4,4 -4,-251.075 1018,-251.075 1018,4 -4,4"/>
<!-- Node1 -->
<g id="node1" class="node"><title>Node1</title>
<g id="a_node1"><a xlink:title="Base class for parameterized scalar functions with affine transformation of co&#45;ordinates....">
<polygon fill="#bfbfbf" stroke="black" points="849,-202.5 849,-221.5 1014,-221.5 1014,-202.5 849,-202.5"/>
<text text-anchor="middle" x="931.5" y="-209.5" font-family="Helvetica,sans-Serif" font-size="10.00">IG.Num.ScalarFunctionParametric</text>
</a>
</g>
</g>
<!-- Node2 -->
<g id="node2" class="node"><title>Node2</title>
<g id="a_node2"><a xlink:href="../../d3/dbb/classIG_1_1Num_1_1ScalarFunctionParametricBase.html" target="_top" xlink:title="Base class for parameterized scalar functions with affine transformation of co&#45;ordinates....">
<polygon fill="white" stroke="black" points="660,-176.5 660,-195.5 812,-195.5 812,-176.5 660,-176.5"/>
<text text-anchor="middle" x="736" y="-183.5" font-family="Helvetica,sans-Serif" font-size="10.00">ScalarFunctionParametricBase</text>
</a>
</g>
</g>
<!-- Node2&#45;&gt;Node1 -->
<g id="edge1" class="edge"><title>Node2&#45;&gt;Node1</title>
<path fill="none" stroke="midnightblue" d="M817.924,-196.874C831.748,-198.731 846.015,-200.648 859.555,-202.467"/>
<polygon fill="midnightblue" stroke="midnightblue" points="818.331,-193.397 807.954,-195.534 817.398,-200.334 818.331,-193.397"/>
</g>
<!-- Node3 -->
<g id="node3" class="node"><title>Node3</title>
<g id="a_node3"><a xlink:href="../../d2/d85/classIG_1_1Num_1_1ScalarFunctionBase.html" target="_top" xlink:title="Base class for scalar functions with affine transformation of co&#45;ordinates. The reference function is...">
<polygon fill="white" stroke="black" points="448.5,-106.5 448.5,-125.5 552.5,-125.5 552.5,-106.5 448.5,-106.5"/>
<text text-anchor="middle" x="500.5" y="-113.5" font-family="Helvetica,sans-Serif" font-size="10.00">ScalarFunctionBase</text>
</a>
</g>
</g>
<!-- Node3&#45;&gt;Node2 -->
<g id="edge2" class="edge"><title>Node3&#45;&gt;Node2</title>
<path fill="none" stroke="midnightblue" d="M543.101,-128.471C588.89,-142.198 661.499,-163.965 703.035,-176.417"/>
<polygon fill="midnightblue" stroke="midnightblue" points="544.061,-125.106 533.478,-125.586 542.051,-131.811 544.061,-125.106"/>
</g>
<!-- Node4 -->
<g id="node4" class="node"><title>Node4</title>
<g id="a_node4"><a xlink:href="../../d2/d9e/classIG_1_1Num_1_1ScalarFunctionUntransformedBase.html" target="_top" xlink:title="Base class for defining scalar functions without possibility of affine transformation of parameters.">
<polygon fill="white" stroke="black" points="184,-90.5 184,-109.5 351,-109.5 351,-90.5 184,-90.5"/>
<text text-anchor="middle" x="267.5" y="-97.5" font-family="Helvetica,sans-Serif" font-size="10.00">ScalarFunctionUntransformedBase</text>
</a>
</g>
</g>
<!-- Node4&#45;&gt;Node3 -->
<g id="edge3" class="edge"><title>Node4&#45;&gt;Node3</title>
<path fill="none" stroke="midnightblue" d="M361.596,-106.448C391.14,-108.495 422.718,-110.682 448.191,-112.446"/>
<polygon fill="midnightblue" stroke="midnightblue" points="361.462,-102.931 351.244,-105.731 360.978,-109.914 361.462,-102.931"/>
</g>
<!-- Node5 -->
<g id="node5" class="node"><title>Node5</title>
<g id="a_node5"><a xlink:href="../../d8/d56/interfaceIG_1_1Num_1_1IScalarFunctionUntransformed.html" target="_top" xlink:title="Scalar functions of vector arguments.">
<polygon fill="white" stroke="black" points="0,-141.5 0,-160.5 147,-160.5 147,-141.5 0,-141.5"/>
<text text-anchor="middle" x="73.5" y="-148.5" font-family="Helvetica,sans-Serif" font-size="10.00">IScalarFunctionUntransformed</text>
</a>
</g>
</g>
<!-- Node5&#45;&gt;Node4 -->
<g id="edge4" class="edge"><title>Node5&#45;&gt;Node4</title>
<path fill="none" stroke="midnightblue" d="M115.188,-138.5C135.739,-132.342 161.109,-124.975 184,-119 196.515,-115.733 210.174,-112.467 222.712,-109.587"/>
<polygon fill="midnightblue" stroke="midnightblue" points="114.082,-135.177 105.518,-141.415 116.103,-141.88 114.082,-135.177"/>
</g>
<!-- Node6 -->
<g id="node6" class="node"><title>Node6</title>
<g id="a_node6"><a xlink:href="../../dd/d1e/interfaceIG_1_1Num_1_1IScalarFunction.html" target="_top" xlink:title="Scalar functions of vector arguments, with eventual affine transformation of parameters....">
<polygon fill="white" stroke="black" points="225.5,-178.5 225.5,-197.5 309.5,-197.5 309.5,-178.5 225.5,-178.5"/>
<text text-anchor="middle" x="267.5" y="-185.5" font-family="Helvetica,sans-Serif" font-size="10.00">IScalarFunction</text>
</a>
</g>
</g>
<!-- Node5&#45;&gt;Node6 -->
<g id="edge6" class="edge"><title>Node5&#45;&gt;Node6</title>
<path fill="none" stroke="midnightblue" d="M133.777,-162.423C163.453,-168.142 198.642,-174.923 225.328,-180.066"/>
<polygon fill="midnightblue" stroke="midnightblue" points="134.426,-158.984 123.945,-160.528 133.102,-165.858 134.426,-158.984"/>
</g>
<!-- Node6&#45;&gt;Node1 -->
<g id="edge13" class="edge"><title>Node6&#45;&gt;Node1</title>
<path fill="none" stroke="midnightblue" d="M302.499,-201.131C335.706,-213.204 387.971,-230.224 435,-237 594.21,-259.941 784.82,-236.107 876.293,-221.534"/>
<polygon fill="midnightblue" stroke="midnightblue" points="303.425,-197.742 292.832,-197.56 301,-204.308 303.425,-197.742"/>
</g>
<!-- Node6&#45;&gt;Node2 -->
<g id="edge10" class="edge"><title>Node6&#45;&gt;Node2</title>
<path fill="none" stroke="midnightblue" d="M320.03,-187.779C402.479,-187.426 564.449,-186.731 659.824,-186.322"/>
<polygon fill="midnightblue" stroke="midnightblue" points="319.884,-184.28 309.899,-187.823 319.914,-191.28 319.884,-184.28"/>
</g>
<!-- Node6&#45;&gt;Node3 -->
<g id="edge5" class="edge"><title>Node6&#45;&gt;Node3</title>
<path fill="none" stroke="midnightblue" d="M319.654,-176.421C330.076,-173.832 340.93,-170.968 351,-168 395.151,-154.989 445.516,-136.578 474.787,-125.512"/>
<polygon fill="midnightblue" stroke="midnightblue" points="318.722,-173.046 309.835,-178.814 320.379,-179.847 318.722,-173.046"/>
</g>
<!-- Node10 -->
<g id="node10" class="node"><title>Node10</title>
<g id="a_node10"><a xlink:href="../../d4/d4e/interfaceIG_1_1Num_1_1IScalarFunctionParametric.html" target="_top" xlink:title="Parameterized scalar functions with affine transformation of coordinates.">
<polygon fill="white" stroke="black" points="435,-208.5 435,-227.5 566,-227.5 566,-208.5 435,-208.5"/>
<text text-anchor="middle" x="500.5" y="-215.5" font-family="Helvetica,sans-Serif" font-size="10.00">IScalarFunctionParametric</text>
</a>
</g>
</g>
<!-- Node6&#45;&gt;Node10 -->
<g id="edge12" class="edge"><title>Node6&#45;&gt;Node10</title>
<path fill="none" stroke="midnightblue" d="M319.696,-194.649C353.641,-199.057 398.463,-204.878 434.863,-209.606"/>
<polygon fill="midnightblue" stroke="midnightblue" points="319.9,-191.146 309.532,-193.329 318.998,-198.088 319.9,-191.146"/>
</g>
<!-- Node7 -->
<g id="node7" class="node"><title>Node7</title>
<g id="a_node7"><a xlink:href="../../d8/d86/interfaceIG_1_1Num_1_1IMatrix.html" target="_top" xlink:title="Generic Matrix interface.">
<polygon fill="white" stroke="black" points="197.5,-129 197.5,-159 337.5,-159 337.5,-129 197.5,-129"/>
<text text-anchor="start" x="205.5" y="-147" font-family="Helvetica,sans-Serif" font-size="10.00">IG.Num.IMatrix&lt; Component</text>
<text text-anchor="middle" x="267.5" y="-136" font-family="Helvetica,sans-Serif" font-size="10.00">Type &gt;</text>
</a>
</g>
</g>
<!-- Node7&#45;&gt;Node3 -->
<g id="edge7" class="edge"><title>Node7&#45;&gt;Node3</title>
<path fill="none" stroke="#9a32cd" stroke-dasharray="5,2" d="M347.957,-134.369C381.162,-130.344 418.784,-125.784 448.236,-122.214"/>
<polygon fill="#9a32cd" stroke="#9a32cd" points="347.314,-130.921 337.808,-135.599 348.156,-137.87 347.314,-130.921"/>
<text text-anchor="middle" x="393" y="-135" font-family="Helvetica,sans-Serif" font-size="10.00"> _refHess</text>
</g>
<!-- Node8 -->
<g id="node8" class="node"><title>Node8</title>
<g id="a_node8"><a xlink:href="../../d3/d24/interfaceIG_1_1Num_1_1IVector.html" target="_top" xlink:title="Generic Vector interface">
<polygon fill="white" stroke="black" points="214,-0.5 214,-19.5 321,-19.5 321,-0.5 214,-0.5"/>
<text text-anchor="middle" x="267.5" y="-7.5" font-family="Helvetica,sans-Serif" font-size="10.00">IG.Num.IVector&lt; T &gt;</text>
</a>
</g>
</g>
<!-- Node8&#45;&gt;Node1 -->
<g id="edge15" class="edge"><title>Node8&#45;&gt;Node1</title>
<path fill="none" stroke="#9a32cd" stroke-dasharray="5,2" d="M331.132,-17.7882C357.801,-21.7048 389.125,-27.1044 417,-34 611.634,-82.148 836.962,-173.01 907.918,-202.499"/>
<polygon fill="#9a32cd" stroke="#9a32cd" points="331.551,-14.3126 321.156,-16.3597 330.559,-21.2419 331.551,-14.3126"/>
<text text-anchor="middle" x="613" y="-105" font-family="Helvetica,sans-Serif" font-size="10.00"> _parameters</text>
</g>
<!-- Node8&#45;&gt;Node3 -->
<g id="edge8" class="edge"><title>Node8&#45;&gt;Node3</title>
<path fill="none" stroke="#9a32cd" stroke-dasharray="5,2" d="M320.514,-22.1541C349.741,-30.0315 386.386,-41.6918 417,-57 444.719,-70.8604 473.319,-93.5495 488.486,-106.377"/>
<polygon fill="#9a32cd" stroke="#9a32cd" points="321.069,-18.6811 310.508,-19.5258 319.291,-25.4515 321.069,-18.6811"/>
<text text-anchor="middle" x="393" y="-71" font-family="Helvetica,sans-Serif" font-size="10.00"> _refParam</text>
<text text-anchor="middle" x="393" y="-60" font-family="Helvetica,sans-Serif" font-size="10.00">_refGrad</text>
</g>
<!-- Node9 -->
<g id="node9" class="node"><title>Node9</title>
<g id="a_node9"><a xlink:href="../../d5/d50/interfaceIG_1_1Num_1_1IAffineTransformation.html" target="_top" xlink:title="Affine Transformation.">
<polygon fill="white" stroke="black" points="196,-52.5 196,-71.5 339,-71.5 339,-52.5 196,-52.5"/>
<text text-anchor="middle" x="267.5" y="-59.5" font-family="Helvetica,sans-Serif" font-size="10.00">IG.Num.IAffineTransformation</text>
</a>
</g>
</g>
<!-- Node9&#45;&gt;Node3 -->
<g id="edge9" class="edge"><title>Node9&#45;&gt;Node3</title>
<path fill="none" stroke="#9a32cd" stroke-dasharray="5,2" d="M328.315,-73.5489C355.476,-79.0334 387.956,-85.9281 417,-93 433.614,-97.0453 451.95,-102.098 467.108,-106.436"/>
<polygon fill="#9a32cd" stroke="#9a32cd" points="328.677,-70.0519 318.184,-71.5185 327.301,-76.9154 328.677,-70.0519"/>
<text text-anchor="middle" x="393" y="-96" font-family="Helvetica,sans-Serif" font-size="10.00"> _transf</text>
</g>
<!-- Node10&#45;&gt;Node1 -->
<g id="edge14" class="edge"><title>Node10&#45;&gt;Node1</title>
<path fill="none" stroke="midnightblue" d="M576.654,-216.949C652.816,-215.884 770.3,-214.241 848.748,-213.143"/>
<polygon fill="midnightblue" stroke="midnightblue" points="576.14,-213.456 566.19,-217.095 576.238,-220.455 576.14,-213.456"/>
</g>
<!-- Node10&#45;&gt;Node2 -->
<g id="edge11" class="edge"><title>Node10&#45;&gt;Node2</title>
<path fill="none" stroke="midnightblue" d="M576.202,-207.762C604.888,-203.831 637.482,-199.364 665.644,-195.505"/>
<polygon fill="midnightblue" stroke="midnightblue" points="575.665,-204.303 566.233,-209.129 576.615,-211.238 575.665,-204.303"/>
</g>
</g>
</svg>
