<?xml version="1.0" encoding="UTF-8" standalone="no"?>
<!DOCTYPE svg PUBLIC "-//W3C//DTD SVG 1.1//EN"
 "http://www.w3.org/Graphics/SVG/1.1/DTD/svg11.dtd">
<!-- Generated by graphviz version 2.38.0 (20140413.2041)
 -->
<!-- Title: IG.Lib.LoadableScriptScalarFunctionBase Pages: 1 -->
<svg width="430pt" height="174pt"
 viewBox="0.00 0.00 429.50 174.00" xmlns="http://www.w3.org/2000/svg" xmlns:xlink="http://www.w3.org/1999/xlink">
<g id="graph0" class="graph" transform="scale(1 1) rotate(0) translate(4 170)">
<title>IG.Lib.LoadableScriptScalarFunctionBase</title>
<polygon fill="white" stroke="none" points="-4,4 -4,-170 425.5,-170 425.5,4 -4,4"/>
<!-- Node1 -->
<g id="node1" class="node"><title>Node1</title>
<g id="a_node1"><a xlink:title="Base class for loadable scripts that define scalar functions of several variables.">
<polygon fill="#bfbfbf" stroke="black" points="125,-0.5 125,-30.5 262,-30.5 262,-0.5 125,-0.5"/>
<text text-anchor="start" x="133" y="-18.5" font-family="Helvetica,sans-Serif" font-size="10.00">IG.Lib.LoadableScriptScalar</text>
<text text-anchor="middle" x="193.5" y="-7.5" font-family="Helvetica,sans-Serif" font-size="10.00">FunctionBase</text>
</a>
</g>
</g>
<!-- Node2 -->
<g id="node2" class="node"><title>Node2</title>
<g id="a_node2"><a xlink:href="../../d7/d15/classIG_1_1Lib_1_1LoadableScriptBase.html" target="_top" xlink:title="Base class for classes that can be dynamically loadeded from scripts and run, which provides function...">
<polygon fill="white" stroke="black" points="141.5,-68.5 141.5,-87.5 245.5,-87.5 245.5,-68.5 141.5,-68.5"/>
<text text-anchor="middle" x="193.5" y="-75.5" font-family="Helvetica,sans-Serif" font-size="10.00">LoadableScriptBase</text>
</a>
</g>
</g>
<!-- Node2&#45;&gt;Node1 -->
<g id="edge1" class="edge"><title>Node2&#45;&gt;Node1</title>
<path fill="none" stroke="midnightblue" d="M193.5,-58.2154C193.5,-49.3565 193.5,-38.9577 193.5,-30.7587"/>
<polygon fill="midnightblue" stroke="midnightblue" points="190,-58.3318 193.5,-68.3318 197,-58.3319 190,-58.3318"/>
</g>
<!-- Node3 -->
<g id="node3" class="node"><title>Node3</title>
<g id="a_node3"><a xlink:href="../../d7/d66/interfaceIG_1_1Lib_1_1ILoadableScript.html" target="_top" xlink:title="Interface for classes that can be dynamically loadeded from scripts and run, which provides functiona...">
<polygon fill="white" stroke="black" points="0,-141 0,-160 83,-160 83,-141 0,-141"/>
<text text-anchor="middle" x="41.5" y="-148" font-family="Helvetica,sans-Serif" font-size="10.00">ILoadableScript</text>
</a>
</g>
</g>
<!-- Node3&#45;&gt;Node2 -->
<g id="edge2" class="edge"><title>Node3&#45;&gt;Node2</title>
<path fill="none" stroke="midnightblue" d="M69.1316,-136.684C99.8799,-122.422 148.701,-99.7783 175.1,-87.5341"/>
<polygon fill="midnightblue" stroke="midnightblue" points="67.4338,-133.613 59.8348,-140.996 70.3792,-139.963 67.4338,-133.613"/>
</g>
<!-- Node4 -->
<g id="node4" class="node"><title>Node4</title>
<g id="a_node4"><a xlink:href="../../d3/db6/interfaceIG_1_1Lib_1_1ILockable.html" target="_top" xlink:title="Lockable object, has a Lock property that returns object on which lock must be performed in order to ...">
<polygon fill="white" stroke="black" points="101.5,-141 101.5,-160 159.5,-160 159.5,-141 101.5,-141"/>
<text text-anchor="middle" x="130.5" y="-148" font-family="Helvetica,sans-Serif" font-size="10.00">ILockable</text>
</a>
</g>
</g>
<!-- Node4&#45;&gt;Node2 -->
<g id="edge3" class="edge"><title>Node4&#45;&gt;Node2</title>
<path fill="none" stroke="midnightblue" d="M144.98,-133.296C157.651,-119.117 175.572,-99.0626 185.712,-87.7154"/>
<polygon fill="midnightblue" stroke="midnightblue" points="142.279,-131.067 138.225,-140.855 147.498,-135.731 142.279,-131.067"/>
</g>
<!-- Node5 -->
<g id="node5" class="node"><title>Node5</title>
<g id="a_node5"><a xlink:href="../../de/dfd/interfaceIG_1_1Lib_1_1ICommandLineApplicationInterpreter.html" target="_top" xlink:title="Interface for simple command&#45;line applicatino interpreters.">
<polygon fill="white" stroke="black" points="177.5,-135.5 177.5,-165.5 335.5,-165.5 335.5,-135.5 177.5,-135.5"/>
<text text-anchor="start" x="185.5" y="-153.5" font-family="Helvetica,sans-Serif" font-size="10.00">IG.Lib.ICommandLineApplication</text>
<text text-anchor="middle" x="256.5" y="-142.5" font-family="Helvetica,sans-Serif" font-size="10.00">Interpreter</text>
</a>
</g>
</g>
<!-- Node5&#45;&gt;Node2 -->
<g id="edge4" class="edge"><title>Node5&#45;&gt;Node2</title>
<path fill="none" stroke="#9a32cd" stroke-dasharray="5,2" d="M237.074,-127.762C225.084,-114.344 210.344,-97.8487 201.447,-87.8932"/>
<polygon fill="#9a32cd" stroke="#9a32cd" points="234.478,-130.109 243.751,-135.233 239.697,-125.445 234.478,-130.109"/>
<text text-anchor="middle" x="268.5" y="-109" font-family="Helvetica,sans-Serif" font-size="10.00"> _script_interpreter</text>
</g>
<!-- Node6 -->
<g id="node6" class="node"><title>Node6</title>
<g id="a_node6"><a xlink:title=" ">
<polygon fill="white" stroke="#bfbfbf" points="354,-141 354,-160 395,-160 395,-141 354,-141"/>
<text text-anchor="middle" x="374.5" y="-148" font-family="Helvetica,sans-Serif" font-size="10.00">static</text>
</a>
</g>
</g>
<!-- Node6&#45;&gt;Node2 -->
<g id="edge5" class="edge"><title>Node6&#45;&gt;Node2</title>
<path fill="none" stroke="#9a32cd" stroke-dasharray="5,2" d="M356.952,-134.098C345.35,-124.677 329.397,-113.107 313.5,-106 292.251,-96.5006 267.342,-90.1957 245.742,-86.0871"/>
<polygon fill="#9a32cd" stroke="#9a32cd" points="354.994,-137.025 364.903,-140.775 359.496,-131.664 354.994,-137.025"/>
<text text-anchor="middle" x="377.5" y="-109" font-family="Helvetica,sans-Serif" font-size="10.00"> _defaultOutputLevel</text>
</g>
</g>
</svg>
