<?xml version="1.0" encoding="UTF-8" standalone="no"?>
<!DOCTYPE svg PUBLIC "-//W3C//DTD SVG 1.1//EN"
 "http://www.w3.org/Graphics/SVG/1.1/DTD/svg11.dtd">
<!-- Generated by graphviz version 2.38.0 (20140413.2041)
 -->
<!-- Title: IG.Lib.IpcStreamClientBase Pages: 1 -->
<svg width="355pt" height="321pt"
 viewBox="0.00 0.00 354.50 321.00" xmlns="http://www.w3.org/2000/svg" xmlns:xlink="http://www.w3.org/1999/xlink">
<g id="graph0" class="graph" transform="scale(1 1) rotate(0) translate(4 317)">
<title>IG.Lib.IpcStreamClientBase</title>
<polygon fill="white" stroke="none" points="-4,4 -4,-317 350.5,-317 350.5,4 -4,4"/>
<!-- Node1 -->
<g id="node1" class="node"><title>Node1</title>
<g id="a_node1"><a xlink:title="Client to the pipe server (classes derived from IpcStreamClientServerBase2).">
<polygon fill="#bfbfbf" stroke="black" points="0,-0.5 0,-19.5 137,-19.5 137,-0.5 0,-0.5"/>
<text text-anchor="middle" x="68.5" y="-7.5" font-family="Helvetica,sans-Serif" font-size="10.00">IG.Lib.IpcStreamClientBase</text>
</a>
</g>
</g>
<!-- Node2 -->
<g id="node2" class="node"><title>Node2</title>
<g id="a_node2"><a xlink:href="../../da/d2c/classIG_1_1Lib_1_1IpcStreamClientServerBase2.html" target="_top" xlink:title="Base class for named pipe servers and clients, contains common stuff for both.">
<polygon fill="white" stroke="black" points="79.5,-57.5 79.5,-76.5 219.5,-76.5 219.5,-57.5 79.5,-57.5"/>
<text text-anchor="middle" x="149.5" y="-64.5" font-family="Helvetica,sans-Serif" font-size="10.00">IpcStreamClientServerBase2</text>
</a>
</g>
</g>
<!-- Node2&#45;&gt;Node1 -->
<g id="edge1" class="edge"><title>Node2&#45;&gt;Node1</title>
<path fill="none" stroke="midnightblue" d="M128.2,-51.537C113.203,-41.3539 93.6362,-28.0678 81.0674,-19.5334"/>
<polygon fill="midnightblue" stroke="midnightblue" points="126.605,-54.6843 136.844,-57.4063 130.537,-48.8931 126.605,-54.6843"/>
</g>
<!-- Node3 -->
<g id="node3" class="node"><title>Node3</title>
<g id="a_node3"><a xlink:href="../../d5/dd9/classIG_1_1Lib_1_1IpcStreamClientServerBase.html" target="_top" xlink:title="Base class for client and server classes with stream&#45;based communication.">
<polygon fill="white" stroke="black" points="100,-115.5 100,-134.5 235,-134.5 235,-115.5 100,-115.5"/>
<text text-anchor="middle" x="167.5" y="-122.5" font-family="Helvetica,sans-Serif" font-size="10.00">IpcStreamClientServerBase</text>
</a>
</g>
</g>
<!-- Node3&#45;&gt;Node2 -->
<g id="edge2" class="edge"><title>Node3&#45;&gt;Node2</title>
<path fill="none" stroke="midnightblue" d="M161.58,-105.581C158.429,-95.7787 154.705,-84.1948 152.234,-76.5052"/>
<polygon fill="midnightblue" stroke="midnightblue" points="158.295,-106.801 164.688,-115.25 164.959,-104.659 158.295,-106.801"/>
</g>
<!-- Node4 -->
<g id="node4" class="node"><title>Node4</title>
<g id="a_node4"><a xlink:href="../../d3/db6/interfaceIG_1_1Lib_1_1ILockable.html" target="_top" xlink:title="Lockable object, has a Lock property that returns object on which lock must be performed in order to ...">
<polygon fill="white" stroke="black" points="42.5,-293.5 42.5,-312.5 100.5,-312.5 100.5,-293.5 42.5,-293.5"/>
<text text-anchor="middle" x="71.5" y="-300.5" font-family="Helvetica,sans-Serif" font-size="10.00">ILockable</text>
</a>
</g>
</g>
<!-- Node4&#45;&gt;Node1 -->
<g id="edge7" class="edge"><title>Node4&#45;&gt;Node1</title>
<path fill="none" stroke="midnightblue" d="M63.7253,-283.651C62.8045,-280.8 62.0115,-277.854 61.5,-275 43.7852,-176.165 61.5021,-53.2282 66.9934,-19.7564"/>
<polygon fill="midnightblue" stroke="midnightblue" points="60.5346,-285.109 67.3466,-293.223 67.0817,-282.632 60.5346,-285.109"/>
</g>
<!-- Node4&#45;&gt;Node2 -->
<g id="edge5" class="edge"><title>Node4&#45;&gt;Node2</title>
<path fill="none" stroke="midnightblue" d="M68.6551,-283.043C64.2744,-247.352 59.3538,-168.846 90.5,-114 100.057,-97.1715 118.476,-84.3494 132.203,-76.5709"/>
<polygon fill="midnightblue" stroke="midnightblue" points="65.2494,-283.973 70.0671,-293.409 72.1853,-283.028 65.2494,-283.973"/>
</g>
<!-- Node4&#45;&gt;Node3 -->
<g id="edge3" class="edge"><title>Node4&#45;&gt;Node3</title>
<path fill="none" stroke="midnightblue" d="M81.1117,-284.124C82.6356,-281.105 84.1519,-277.983 85.5,-275 109.257,-222.426 98.3585,-200.505 132.5,-154 138.118,-146.347 146.33,-139.629 153.388,-134.693"/>
<polygon fill="midnightblue" stroke="midnightblue" points="77.9405,-282.635 76.4126,-293.119 84.145,-285.876 77.9405,-282.635"/>
</g>
<!-- Node5 -->
<g id="node5" class="node"><title>Node5</title>
<g id="a_node5"><a xlink:title=" ">
<polygon fill="white" stroke="#bfbfbf" points="133,-293.5 133,-312.5 174,-312.5 174,-293.5 133,-293.5"/>
<text text-anchor="middle" x="153.5" y="-300.5" font-family="Helvetica,sans-Serif" font-size="10.00">static</text>
</a>
</g>
</g>
<!-- Node5&#45;&gt;Node2 -->
<g id="edge6" class="edge"><title>Node5&#45;&gt;Node2</title>
<path fill="none" stroke="#9a32cd" stroke-dasharray="5,2" d="M183.973,-298.934C213.863,-295.222 256.384,-287.818 266.5,-275 311.28,-218.26 296.288,-163.378 243.5,-114 224.526,-96.2516 197.419,-83.9782 177.185,-76.6013"/>
<polygon fill="#9a32cd" stroke="#9a32cd" points="183.53,-295.462 174.002,-300.095 184.34,-302.415 183.53,-295.462"/>
<text text-anchor="middle" x="305.5" y="-128" font-family="Helvetica,sans-Serif" font-size="10.00"> _defaultPipeName</text>
<text text-anchor="middle" x="305.5" y="-117" font-family="Helvetica,sans-Serif" font-size="10.00">_defaultErrorBegin</text>
</g>
<!-- Node5&#45;&gt;Node3 -->
<g id="edge4" class="edge"><title>Node5&#45;&gt;Node3</title>
<path fill="none" stroke="#9a32cd" stroke-dasharray="5,2" d="M147.276,-283.566C146.54,-280.727 145.907,-277.806 145.5,-275 137.781,-221.779 127.922,-204.824 145.5,-154 148.006,-146.755 153.246,-139.96 157.983,-134.878"/>
<polygon fill="#9a32cd" stroke="#9a32cd" points="143.928,-284.586 150.174,-293.145 150.628,-282.56 143.928,-284.586"/>
<text text-anchor="middle" x="206" y="-267" font-family="Helvetica,sans-Serif" font-size="10.00"> _defaultMsgTestSpeed</text>
<text text-anchor="middle" x="206" y="-256" font-family="Helvetica,sans-Serif" font-size="10.00">_defaultStopRequest</text>
<text text-anchor="middle" x="206" y="-245" font-family="Helvetica,sans-Serif" font-size="10.00">_defaultMessagePrefix</text>
<text text-anchor="middle" x="206" y="-234" font-family="Helvetica,sans-Serif" font-size="10.00">_defaultMsgRequestBegin</text>
<text text-anchor="middle" x="206" y="-223" font-family="Helvetica,sans-Serif" font-size="10.00">_defaultMsgRequestEnd</text>
<text text-anchor="middle" x="206" y="-212" font-family="Helvetica,sans-Serif" font-size="10.00">_defaultMessageSeparator</text>
<text text-anchor="middle" x="206" y="-201" font-family="Helvetica,sans-Serif" font-size="10.00">_defaultStoppedResponse</text>
<text text-anchor="middle" x="206" y="-190" font-family="Helvetica,sans-Serif" font-size="10.00">_defaultMsgResponseEnd</text>
<text text-anchor="middle" x="206" y="-179" font-family="Helvetica,sans-Serif" font-size="10.00">_defaultIsMultilineResponse</text>
<text text-anchor="middle" x="206" y="-168" font-family="Helvetica,sans-Serif" font-size="10.00">_defaultMsgResponseBegin</text>
<text text-anchor="middle" x="206" y="-157" font-family="Helvetica,sans-Serif" font-size="10.00">...</text>
</g>
</g>
</svg>
