<?xml version="1.0" encoding="UTF-8" standalone="no"?>
<!DOCTYPE svg PUBLIC "-//W3C//DTD SVG 1.1//EN"
 "http://www.w3.org/Graphics/SVG/1.1/DTD/svg11.dtd">
<!-- Generated by graphviz version 2.38.0 (20140413.2041)
 -->
<!-- Title: IGLib.Core.ReadonlyArrayAccessor&lt; ElementType &gt; Pages: 1 -->
<svg width="144pt" height="173pt"
 viewBox="0.00 0.00 144.00 173.00" xmlns="http://www.w3.org/2000/svg" xmlns:xlink="http://www.w3.org/1999/xlink">
<g id="graph0" class="graph" transform="scale(1 1) rotate(0) translate(4 169)">
<title>IGLib.Core.ReadonlyArrayAccessor&lt; ElementType &gt;</title>
<polygon fill="white" stroke="none" points="-4,4 -4,-169 140,-169 140,4 -4,4"/>
<!-- Node1 -->
<g id="node1" class="node"><title>Node1</title>
<g id="a_node1"><a xlink:title="Provides readonly access to elements of a fixed array. This is typically used to access array&#45;like in...">
<polygon fill="#bfbfbf" stroke="black" points="1.5,-67.5 1.5,-97.5 134.5,-97.5 134.5,-67.5 1.5,-67.5"/>
<text text-anchor="start" x="9.5" y="-85.5" font-family="Helvetica,sans-Serif" font-size="10.00">IGLib.Core.ReadonlyArray</text>
<text text-anchor="middle" x="68" y="-74.5" font-family="Helvetica,sans-Serif" font-size="10.00">Accessor&lt; ElementType &gt;</text>
</a>
</g>
</g>
<!-- Node3 -->
<g id="node3" class="node"><title>Node3</title>
<g id="a_node3"><a xlink:href="../../d3/daf/classIGLib_1_1Core_1_1ArrayAccessor.html" target="_top" xlink:title="Provides read/write access to elements of a fixed array. This is typically used to access array&#45;like ...">
<polygon fill="white" stroke="black" points="0,-0.5 0,-30.5 136,-30.5 136,-0.5 0,-0.5"/>
<text text-anchor="start" x="8" y="-18.5" font-family="Helvetica,sans-Serif" font-size="10.00">IGLib::Core::ArrayAccessor</text>
<text text-anchor="middle" x="68" y="-7.5" font-family="Helvetica,sans-Serif" font-size="10.00">&lt; ElementType &gt;</text>
</a>
</g>
</g>
<!-- Node1&#45;&gt;Node3 -->
<g id="edge2" class="edge"><title>Node1&#45;&gt;Node3</title>
<path fill="none" stroke="midnightblue" d="M68,-57.1081C68,-48.1539 68,-38.3227 68,-30.5765"/>
<polygon fill="midnightblue" stroke="midnightblue" points="64.5001,-57.3959 68,-67.396 71.5001,-57.396 64.5001,-57.3959"/>
</g>
<!-- Node2 -->
<g id="node2" class="node"><title>Node2</title>
<g id="a_node2"><a xlink:href="../../d4/d68/interfaceIGLib_1_1Core_1_1IReadonlyArrayAccessor.html" target="_top" xlink:title="Provides read only access to elements of an underlying onedimensional array&#45;like structure.">
<polygon fill="white" stroke="black" points="6,-134.5 6,-164.5 130,-164.5 130,-134.5 6,-134.5"/>
<text text-anchor="start" x="14" y="-152.5" font-family="Helvetica,sans-Serif" font-size="10.00">IReadonlyArrayAccessor</text>
<text text-anchor="middle" x="68" y="-141.5" font-family="Helvetica,sans-Serif" font-size="10.00">&lt; ElementType &gt;</text>
</a>
</g>
</g>
<!-- Node2&#45;&gt;Node1 -->
<g id="edge1" class="edge"><title>Node2&#45;&gt;Node1</title>
<path fill="none" stroke="midnightblue" d="M68,-124.108C68,-115.154 68,-105.323 68,-97.5765"/>
<polygon fill="midnightblue" stroke="midnightblue" points="64.5001,-124.396 68,-134.396 71.5001,-124.396 64.5001,-124.396"/>
</g>
</g>
</svg>
