<?xml version="1.0" encoding="UTF-8" standalone="no"?>
<!DOCTYPE svg PUBLIC "-//W3C//DTD SVG 1.1//EN"
 "http://www.w3.org/Graphics/SVG/1.1/DTD/svg11.dtd">
<!-- Generated by graphviz version 2.38.0 (20140413.2041)
 -->
<!-- Title: IG.Lib.Copy.NamedPipeServerBase Pages: 1 -->
<svg width="279pt" height="252pt"
 viewBox="0.00 0.00 278.50 252.00" xmlns="http://www.w3.org/2000/svg" xmlns:xlink="http://www.w3.org/1999/xlink">
<g id="graph0" class="graph" transform="scale(1 1) rotate(0) translate(4 248)">
<title>IG.Lib.Copy.NamedPipeServerBase</title>
<polygon fill="white" stroke="none" points="-4,4 -4,-248 274.5,-248 274.5,4 -4,4"/>
<!-- Node1 -->
<g id="node1" class="node"><title>Node1</title>
<g id="a_node1"><a xlink:title="Server that creates a named pipe, listens on its input stream, and sends responses to the client.">
<polygon fill="#bfbfbf" stroke="black" points="0,-0.5 0,-19.5 170,-19.5 170,-0.5 0,-0.5"/>
<text text-anchor="middle" x="85" y="-7.5" font-family="Helvetica,sans-Serif" font-size="10.00">IG.Lib.Copy.NamedPipeServerBase</text>
</a>
</g>
</g>
<!-- Node2 -->
<g id="node2" class="node"><title>Node2</title>
<g id="a_node2"><a xlink:href="../../de/dc2/classIG_1_1Lib_1_1Copy_1_1ServerStreamBase.html" target="_top" xlink:title="Server that creates a named pipe, listens on its input stream, and sends responses to the client.">
<polygon fill="white" stroke="black" points="75,-56.5 75,-75.5 173,-75.5 173,-56.5 75,-56.5"/>
<text text-anchor="middle" x="124" y="-63.5" font-family="Helvetica,sans-Serif" font-size="10.00">ServerStreamBase</text>
</a>
</g>
</g>
<!-- Node2&#45;&gt;Node1 -->
<g id="edge1" class="edge"><title>Node2&#45;&gt;Node1</title>
<path fill="none" stroke="midnightblue" d="M111.618,-47.8554C104.865,-38.5048 96.7914,-27.3265 91.3202,-19.7511"/>
<polygon fill="midnightblue" stroke="midnightblue" points="108.868,-50.0254 117.56,-56.083 114.542,-45.927 108.868,-50.0254"/>
</g>
<!-- Node3 -->
<g id="node3" class="node"><title>Node3</title>
<g id="a_node3"><a xlink:href="../../db/d41/classIG_1_1Lib_1_1Copy_1_1ClientServerStreamBase2.html" target="_top" xlink:title="Base class for named pipe servers and clients, contains common stuff for both.">
<polygon fill="white" stroke="black" points="113,-112.5 113,-131.5 241,-131.5 241,-112.5 113,-112.5"/>
<text text-anchor="middle" x="177" y="-119.5" font-family="Helvetica,sans-Serif" font-size="10.00">ClientServerStreamBase2</text>
</a>
</g>
</g>
<!-- Node3&#45;&gt;Node2 -->
<g id="edge2" class="edge"><title>Node3&#45;&gt;Node2</title>
<path fill="none" stroke="midnightblue" d="M161.019,-104.718C151.678,-95.1997 140.254,-83.5608 132.589,-75.7511"/>
<polygon fill="midnightblue" stroke="midnightblue" points="158.746,-107.398 168.248,-112.083 163.741,-102.494 158.746,-107.398"/>
</g>
<!-- Node4 -->
<g id="node4" class="node"><title>Node4</title>
<g id="a_node4"><a xlink:href="../../d5/d2f/classIG_1_1Lib_1_1Copy_1_1ClienServerStreamBase.html" target="_top" xlink:title="Base class for client and server classes with stream&#45;based communication.">
<polygon fill="white" stroke="black" points="151.5,-168.5 151.5,-187.5 270.5,-187.5 270.5,-168.5 151.5,-168.5"/>
<text text-anchor="middle" x="211" y="-175.5" font-family="Helvetica,sans-Serif" font-size="10.00">ClienServerStreamBase</text>
</a>
</g>
</g>
<!-- Node4&#45;&gt;Node3 -->
<g id="edge3" class="edge"><title>Node4&#45;&gt;Node3</title>
<path fill="none" stroke="midnightblue" d="M200.023,-159.566C194.173,-150.275 187.23,-139.248 182.51,-131.751"/>
<polygon fill="midnightblue" stroke="midnightblue" points="197.096,-161.486 205.386,-168.083 203.019,-157.756 197.096,-161.486"/>
</g>
<!-- Node5 -->
<g id="node5" class="node"><title>Node5</title>
<g id="a_node5"><a xlink:href="../../d3/db6/interfaceIG_1_1Lib_1_1ILockable.html" target="_top" xlink:title="Lockable object, has a Lock property that returns object on which lock must be performed in order to ...">
<polygon fill="white" stroke="black" points="75,-224.5 75,-243.5 133,-243.5 133,-224.5 75,-224.5"/>
<text text-anchor="middle" x="104" y="-231.5" font-family="Helvetica,sans-Serif" font-size="10.00">ILockable</text>
</a>
</g>
</g>
<!-- Node5&#45;&gt;Node1 -->
<g id="edge7" class="edge"><title>Node5&#45;&gt;Node1</title>
<path fill="none" stroke="midnightblue" d="M98.0573,-214.675C88.9864,-185.641 72.0976,-127.113 66,-76 64.9471,-67.1737 64.2362,-64.7121 66,-56 68.6924,-42.7013 75.4412,-28.4478 80.1241,-19.6279"/>
<polygon fill="midnightblue" stroke="midnightblue" points="94.7462,-215.813 101.112,-224.282 101.417,-213.691 94.7462,-215.813"/>
</g>
<!-- Node5&#45;&gt;Node2 -->
<g id="edge6" class="edge"><title>Node5&#45;&gt;Node2</title>
<path fill="none" stroke="midnightblue" d="M101.609,-214.19C99.0999,-190.179 96.4673,-147.496 104,-112 106.84,-98.619 113.942,-84.3861 118.87,-75.5932"/>
<polygon fill="midnightblue" stroke="midnightblue" points="98.1602,-214.833 102.786,-224.364 105.114,-214.028 98.1602,-214.833"/>
</g>
<!-- Node5&#45;&gt;Node3 -->
<g id="edge5" class="edge"><title>Node5&#45;&gt;Node3</title>
<path fill="none" stroke="midnightblue" d="M113.484,-215.357C120.828,-202.061 131.49,-183.527 142,-168 150.877,-154.886 162.329,-140.586 169.671,-131.706"/>
<polygon fill="midnightblue" stroke="midnightblue" points="110.285,-213.912 108.572,-224.367 116.431,-217.262 110.285,-213.912"/>
</g>
<!-- Node5&#45;&gt;Node4 -->
<g id="edge4" class="edge"><title>Node5&#45;&gt;Node4</title>
<path fill="none" stroke="midnightblue" d="M130.302,-219.726C150.115,-209.727 176.707,-196.307 193.851,-187.655"/>
<polygon fill="midnightblue" stroke="midnightblue" points="128.542,-216.694 121.191,-224.324 131.696,-222.943 128.542,-216.694"/>
</g>
</g>
</svg>
