<?xml version="1.0" encoding="UTF-8" standalone="no"?>
<!DOCTYPE svg PUBLIC "-//W3C//DTD SVG 1.1//EN"
 "http://www.w3.org/Graphics/SVG/1.1/DTD/svg11.dtd">
<!-- Generated by graphviz version 2.38.0 (20140413.2041)
 -->
<!-- Title: IG.Num.NeuralTrainingParameters Pages: 1 -->
<svg width="488pt" height="216pt"
 viewBox="0.00 0.00 487.50 216.00" xmlns="http://www.w3.org/2000/svg" xmlns:xlink="http://www.w3.org/1999/xlink">
<g id="graph0" class="graph" transform="scale(1 1) rotate(0) translate(4 212)">
<title>IG.Num.NeuralTrainingParameters</title>
<polygon fill="white" stroke="none" points="-4,4 -4,-212 483.5,-212 483.5,4 -4,4"/>
<!-- Node1 -->
<g id="node1" class="node"><title>Node1</title>
<g id="a_node1"><a xlink:title="Contains Parameters that define neural network architecture and trainig procedure,...">
<polygon fill="#bfbfbf" stroke="black" points="114.5,-0.5 114.5,-19.5 278.5,-19.5 278.5,-0.5 114.5,-0.5"/>
<text text-anchor="middle" x="196.5" y="-7.5" font-family="Helvetica,sans-Serif" font-size="10.00">IG.Num.NeuralTrainingParameters</text>
</a>
</g>
</g>
<!-- Node2 -->
<g id="node2" class="node"><title>Node2</title>
<g id="a_node2"><a xlink:href="../../d3/d24/interfaceIG_1_1Num_1_1IVector.html" target="_top" xlink:title="Generic Vector interface">
<polygon fill="white" stroke="black" points="0,-188.5 0,-207.5 107,-207.5 107,-188.5 0,-188.5"/>
<text text-anchor="middle" x="53.5" y="-195.5" font-family="Helvetica,sans-Serif" font-size="10.00">IG.Num.IVector&lt; T &gt;</text>
</a>
</g>
</g>
<!-- Node2&#45;&gt;Node1 -->
<g id="edge1" class="edge"><title>Node2&#45;&gt;Node1</title>
<path fill="none" stroke="#9a32cd" stroke-dasharray="5,2" d="M49.5205,-178.352C43.6908,-145.48 37.0417,-77.0157 72.5,-38 80.0572,-29.6846 101.278,-23.7092 124.074,-19.5292"/>
<polygon fill="#9a32cd" stroke="#9a32cd" points="46.1283,-179.244 51.478,-188.389 52.9989,-177.904 46.1283,-179.244"/>
<text text-anchor="middle" x="132.5" y="-156.5" font-family="Helvetica,sans-Serif" font-size="10.00"> _tolMaxRelative</text>
<text text-anchor="middle" x="132.5" y="-145.5" font-family="Helvetica,sans-Serif" font-size="10.00">_errorsTrainingMax</text>
<text text-anchor="middle" x="132.5" y="-134.5" font-family="Helvetica,sans-Serif" font-size="10.00">_errorsVerificationMax</text>
<text text-anchor="middle" x="132.5" y="-123.5" font-family="Helvetica,sans-Serif" font-size="10.00">_errorsVerificationRms</text>
<text text-anchor="middle" x="132.5" y="-112.5" font-family="Helvetica,sans-Serif" font-size="10.00">_errorsVerificationMeanAbs</text>
<text text-anchor="middle" x="132.5" y="-101.5" font-family="Helvetica,sans-Serif" font-size="10.00">_tolRmsRelative</text>
<text text-anchor="middle" x="132.5" y="-90.5" font-family="Helvetica,sans-Serif" font-size="10.00">_toleranceMax</text>
<text text-anchor="middle" x="132.5" y="-79.5" font-family="Helvetica,sans-Serif" font-size="10.00">_outputRange</text>
<text text-anchor="middle" x="132.5" y="-68.5" font-family="Helvetica,sans-Serif" font-size="10.00">_toleranceRms</text>
<text text-anchor="middle" x="132.5" y="-57.5" font-family="Helvetica,sans-Serif" font-size="10.00">_errorsTrainingRms</text>
<text text-anchor="middle" x="132.5" y="-46.5" font-family="Helvetica,sans-Serif" font-size="10.00">...</text>
</g>
<!-- Node3 -->
<g id="node3" class="node"><title>Node3</title>
<g id="a_node3"><a xlink:href="../../db/d5e/interfaceIG_1_1Num_1_1IBoundingBox.html" target="_top" xlink:title="Bounding box, defines minimum and maximum co&#45;ordinates of domains, geometric objects and their groups...">
<polygon fill="white" stroke="black" points="140,-188.5 140,-207.5 253,-207.5 253,-188.5 140,-188.5"/>
<text text-anchor="middle" x="196.5" y="-195.5" font-family="Helvetica,sans-Serif" font-size="10.00">IG.Num.IBoundingBox</text>
</a>
</g>
</g>
<!-- Node3&#45;&gt;Node1 -->
<g id="edge2" class="edge"><title>Node3&#45;&gt;Node1</title>
<path fill="none" stroke="#9a32cd" stroke-dasharray="5,2" d="M196.5,-177.86C196.5,-138.211 196.5,-48.4172 196.5,-19.8812"/>
<polygon fill="#9a32cd" stroke="#9a32cd" points="193,-178.029 196.5,-188.029 200,-178.029 193,-178.029"/>
<text text-anchor="middle" x="242" y="-107" font-family="Helvetica,sans-Serif" font-size="10.00"> _inputNeuronRange</text>
<text text-anchor="middle" x="242" y="-96" font-family="Helvetica,sans-Serif" font-size="10.00">_outputNeuronRange</text>
</g>
<!-- Node4 -->
<g id="node4" class="node"><title>Node4</title>
<g id="a_node4"><a xlink:title=" ">
<polygon fill="white" stroke="#bfbfbf" points="290,-188.5 290,-207.5 331,-207.5 331,-188.5 290,-188.5"/>
<text text-anchor="middle" x="310.5" y="-195.5" font-family="Helvetica,sans-Serif" font-size="10.00">static</text>
</a>
</g>
</g>
<!-- Node4&#45;&gt;Node1 -->
<g id="edge3" class="edge"><title>Node4&#45;&gt;Node1</title>
<path fill="none" stroke="#9a32cd" stroke-dasharray="5,2" d="M313.787,-178.557C318.461,-146.005 323.004,-78.0288 288.5,-38 281.218,-29.5525 271.446,-23.6773 260.987,-19.6066"/>
<polygon fill="#9a32cd" stroke="#9a32cd" points="310.322,-178.061 312.192,-188.489 317.233,-179.171 310.322,-178.061"/>
<text text-anchor="middle" x="398" y="-162" font-family="Helvetica,sans-Serif" font-size="10.00"> DefaultInputLength</text>
<text text-anchor="middle" x="398" y="-151" font-family="Helvetica,sans-Serif" font-size="10.00">DefaultEpochsInBundle</text>
<text text-anchor="middle" x="398" y="-140" font-family="Helvetica,sans-Serif" font-size="10.00">DefaultInputBoundSafetyFactor</text>
<text text-anchor="middle" x="398" y="-129" font-family="Helvetica,sans-Serif" font-size="10.00">DefaultToleranceMax</text>
<text text-anchor="middle" x="398" y="-118" font-family="Helvetica,sans-Serif" font-size="10.00">DefaultToleranceRms</text>
<text text-anchor="middle" x="398" y="-107" font-family="Helvetica,sans-Serif" font-size="10.00">DefaultNumHiddenLayers</text>
<text text-anchor="middle" x="398" y="-96" font-family="Helvetica,sans-Serif" font-size="10.00">DefaultSigmoidAlphaValue</text>
<text text-anchor="middle" x="398" y="-85" font-family="Helvetica,sans-Serif" font-size="10.00">DefaultOutputBoundSafetyFactor</text>
<text text-anchor="start" x="316.5" y="-74" font-family="Helvetica,sans-Serif" font-size="10.00">DefaultToleranceMaxRelativeToRange</text>
<text text-anchor="middle" x="398" y="-63" font-family="Helvetica,sans-Serif" font-size="10.00">Scalar</text>
<text text-anchor="middle" x="398" y="-52" font-family="Helvetica,sans-Serif" font-size="10.00">DefaultNumHiddenNeurons</text>
<text text-anchor="middle" x="398" y="-41" font-family="Helvetica,sans-Serif" font-size="10.00">...</text>
</g>
</g>
</svg>
