<?xml version="1.0" encoding="UTF-8" standalone="no"?>
<!DOCTYPE svg PUBLIC "-//W3C//DTD SVG 1.1//EN"
 "http://www.w3.org/Graphics/SVG/1.1/DTD/svg11.dtd">
<!-- Generated by graphviz version 2.38.0 (20140413.2041)
 -->
<!-- Title: IGLib.Gr3D.CylindricalBilliardKnot Pages: 1 -->
<!--zoomable 100 -->
<svg id="main" version="1.1" xmlns="http://www.w3.org/2000/svg" xmlns:xlink="http://www.w3.org/1999/xlink" xml:space="preserve" onload="init(evt)">
<style type="text/css"><![CDATA[
.edge:hover path { stroke: red; }
.edge:hover polygon { stroke: red; fill: red; }
]]></style>
<script type="text/javascript"><![CDATA[
var edges = document.getElementsByTagName('g');
if (edges && edges.length) {
  for (var i=0;i<edges.length;i++) {
    if (edges[i].id.substr(0,4)=='edge') {
      edges[i].setAttribute('class','edge');
    }
  }
}
]]></script>
        <defs>
                <circle id="rim" cx="0" cy="0" r="7"/>
                <circle id="rim2" cx="0" cy="0" r="3.5"/>
                <g id="zoomPlus">
                        <use xlink:href="#rim" fill="#404040">
                                <set attributeName="fill" to="#808080" begin="zoomplus.mouseover" end="zoomplus.mouseout"/>
                        </use>
                        <path d="M-4,0h8M0,-4v8" fill="none" stroke="white" stroke-width="1.5" pointer-events="none"/>
                </g>
                <g id="zoomMin">
                        <use xlink:href="#rim" fill="#404040">
                                <set attributeName="fill" to="#808080" begin="zoomminus.mouseover" end="zoomminus.mouseout"/>
                        </use>
                        <path d="M-4,0h8" fill="none" stroke="white" stroke-width="1.5" pointer-events="none"/>
                </g>
                <g id="dirArrow">
                        <path fill="none" stroke="white" stroke-width="1.5" d="M0,-3.0v7 M-2.5,-0.5L0,-3.0L2.5,-0.5"/>
                </g>
               <g id="resetDef">
                       <use xlink:href="#rim2" fill="#404040">
                               <set attributeName="fill" to="#808080" begin="reset.mouseover" end="reset.mouseout"/>
                       </use>
               </g>
        </defs>

<script type="text/javascript">
var viewWidth = 564;
var viewHeight = 100;
var sectionId = 'dynsection-1';
</script>
<script xlink:href="../../svgpan.js"/>
<svg id="graph" class="graph">
<g id="viewport">
<title>IGLib.Gr3D.CylindricalBilliardKnot</title>
<polygon fill="white" stroke="none" points="-4,4 -4,-95.5 560,-95.5 560,4 -4,4"/>
<!-- Node1 -->
<g id="node1" class="node"><title>Node1</title>
<g id="a_node1"><a xlink:title="Cartesian and cylindrical parameterization of a cylindrical billiard knot in 3D.">
<polygon fill="#bfbfbf" stroke="black" points="394,-39 394,-58 556,-58 556,-39 394,-39"/>
<text text-anchor="middle" x="475" y="-46" font-family="Helvetica,sans-Serif" font-size="10.00">IGLib.Gr3D.CylindricalBilliardKnot</text>
</a>
</g>
</g>
<!-- Node2 -->
<g id="node2" class="node"><title>Node2</title>
<g id="a_node2"><a xlink:href="../../d7/dac/classIGLib_1_1Gr3D_1_1Curve3DParameterizationFromCylindricalWithBounds.html" target="_top" xlink:title="Cartesion parameterization of a curve in 3D. Beside the Curve and (optional) CurveDerivative,...">
<polygon fill="white" stroke="black" points="209,-33.5 209,-63.5 358,-63.5 358,-33.5 209,-33.5"/>
<text text-anchor="start" x="217" y="-51.5" font-family="Helvetica,sans-Serif" font-size="10.00">Curve3DParameterizationFrom</text>
<text text-anchor="middle" x="283.5" y="-40.5" font-family="Helvetica,sans-Serif" font-size="10.00">CylindricalWithBounds</text>
</a>
</g>
</g>
<!-- Node2&#45;&gt;Node1 -->
<g id="edge1" class="edge"><title>Node2&#45;&gt;Node1</title>
<path fill="none" stroke="midnightblue" d="M368.048,-48.5C376.639,-48.5 385.355,-48.5 393.908,-48.5"/>
<polygon fill="midnightblue" stroke="midnightblue" points="368.037,-45.0001 358.037,-48.5 368.037,-52.0001 368.037,-45.0001"/>
</g>
<!-- Node3 -->
<g id="node3" class="node"><title>Node3</title>
<g id="a_node3"><a xlink:href="../../dc/d9b/interfaceIGLib_1_1Gr3D_1_1ICurve3DCylindricalParameterization.html" target="_top" xlink:title="Cylindrical parameterization of a curve in 3D. Beside the CurveCylindrical and (optional) CurveDeriva...">
<polygon fill="white" stroke="black" points="0,-72 0,-91 173,-91 173,-72 0,-72"/>
<text text-anchor="middle" x="86.5" y="-79" font-family="Helvetica,sans-Serif" font-size="10.00">ICurve3DCylindricalParameterization</text>
</a>
</g>
</g>
<!-- Node3&#45;&gt;Node1 -->
<g id="edge4" class="edge"><title>Node3&#45;&gt;Node1</title>
<path fill="none" stroke="midnightblue" d="M183.274,-82.9158C235.159,-82.6154 300.284,-80.5132 358,-73.5 385.097,-70.2074 415.22,-63.6259 437.977,-58.0422"/>
<polygon fill="midnightblue" stroke="midnightblue" points="183.067,-79.4164 173.08,-82.9528 183.093,-86.4164 183.067,-79.4164"/>
</g>
<!-- Node3&#45;&gt;Node2 -->
<g id="edge2" class="edge"><title>Node3&#45;&gt;Node2</title>
<path fill="none" stroke="midnightblue" d="M153.882,-70.2661C171.612,-67.2656 190.876,-64.0056 208.966,-60.9442"/>
<polygon fill="midnightblue" stroke="midnightblue" points="152.916,-66.8797 143.64,-71.9993 154.084,-73.7816 152.916,-66.8797"/>
</g>
<!-- Node4 -->
<g id="node4" class="node"><title>Node4</title>
<g id="a_node4"><a xlink:href="../../d3/d54/interfaceIGLib_1_1Gr3D_1_1ICurve3DParameterizationWithBounds.html" target="_top" xlink:title="Cartesion parameterization of a curve in 3D. Beside the Curve and (optional) CurveDerivative,...">
<polygon fill="white" stroke="black" points="22.5,-0.5 22.5,-30.5 150.5,-30.5 150.5,-0.5 22.5,-0.5"/>
<text text-anchor="start" x="30.5" y="-18.5" font-family="Helvetica,sans-Serif" font-size="10.00">ICurve3DParameterization</text>
<text text-anchor="middle" x="86.5" y="-7.5" font-family="Helvetica,sans-Serif" font-size="10.00">WithBounds</text>
</a>
</g>
</g>
<!-- Node4&#45;&gt;Node1 -->
<g id="edge5" class="edge"><title>Node4&#45;&gt;Node1</title>
<path fill="none" stroke="midnightblue" d="M160.873,-14.0602C215.439,-13.8641 291.62,-15.434 358,-23.5 385.097,-26.7926 415.22,-33.3741 437.977,-38.9578"/>
<polygon fill="midnightblue" stroke="midnightblue" points="160.58,-10.5617 150.6,-14.1189 160.62,-17.5616 160.58,-10.5617"/>
</g>
<!-- Node4&#45;&gt;Node2 -->
<g id="edge3" class="edge"><title>Node4&#45;&gt;Node2</title>
<path fill="none" stroke="midnightblue" d="M160.726,-27.8921C176.449,-30.5529 193.071,-33.3659 208.812,-36.0297"/>
<polygon fill="midnightblue" stroke="midnightblue" points="160.985,-24.3863 150.542,-26.1686 159.817,-31.2882 160.985,-24.3863"/>
</g>
</g>
</svg>
        <g id="navigator" transform="translate(0 0)" fill="#404254">
                <rect fill="#f2f5e9" fill-opacity="0.5" stroke="#606060" stroke-width=".5" x="0" y="0" width="60" height="60"/>
                <use id="zoomplus" xlink:href="#zoomPlus" x="17" y="9" onmousedown="handleZoom(evt,'in')"/>
                <use id="zoomminus" xlink:href="#zoomMin" x="42" y="9" onmousedown="handleZoom(evt,'out')"/>
                <use id="reset" xlink:href="#resetDef" x="30" y="36" onmousedown="handleReset()"/>
                <g id="arrowUp" xlink:href="#dirArrow" transform="translate(30 24)" onmousedown="handlePan(0,-1)">
                  <use xlink:href="#rim" fill="#404040">
                        <set attributeName="fill" to="#808080" begin="arrowUp.mouseover" end="arrowUp.mouseout"/>
                  </use>
                  <path fill="none" stroke="white" stroke-width="1.5" d="M0,-3.0v7 M-2.5,-0.5L0,-3.0L2.5,-0.5"/>
                </g>
                <g id="arrowRight" xlink:href="#dirArrow" transform="rotate(90) translate(36 -43)" onmousedown="handlePan(1,0)">
                  <use xlink:href="#rim" fill="#404040">
                        <set attributeName="fill" to="#808080" begin="arrowRight.mouseover" end="arrowRight.mouseout"/>
                  </use>
                  <path fill="none" stroke="white" stroke-width="1.5" d="M0,-3.0v7 M-2.5,-0.5L0,-3.0L2.5,-0.5"/>
                </g>
                <g id="arrowDown" xlink:href="#dirArrow" transform="rotate(180) translate(-30 -48)" onmousedown="handlePan(0,1)">
                  <use xlink:href="#rim" fill="#404040">
                        <set attributeName="fill" to="#808080" begin="arrowDown.mouseover" end="arrowDown.mouseout"/>
                  </use>
                  <path fill="none" stroke="white" stroke-width="1.5" d="M0,-3.0v7 M-2.5,-0.5L0,-3.0L2.5,-0.5"/>
                </g>
                <g id="arrowLeft" xlink:href="#dirArrow" transform="rotate(270) translate(-36 17)" onmousedown="handlePan(-1,0)">
                  <use xlink:href="#rim" fill="#404040">
                        <set attributeName="fill" to="#808080" begin="arrowLeft.mouseover" end="arrowLeft.mouseout"/>
                  </use>
                  <path fill="none" stroke="white" stroke-width="1.5" d="M0,-3.0v7 M-2.5,-0.5L0,-3.0L2.5,-0.5"/>
                </g>
        </g>
        <svg viewBox="0 0 15 15" width="100%" height="30px" preserveAspectRatio="xMaxYMin meet">
         <g id="arrow_out" transform="scale(0.3 0.3)">
          <a xlink:href="classIGLib_1_1Gr3D_1_1CylindricalBilliardKnot__coll__graph_org.svg" target="_base">
           <rect id="button" ry="5" rx="5" y="6" x="6" height="38" width="38"
                fill="#f2f5e9" fill-opacity="0.5" stroke="#606060" stroke-width="1.0"/>
           <path id="arrow"
             d="M 11.500037,31.436501 C 11.940474,20.09759 22.043105,11.32322 32.158766,21.979434 L 37.068811,17.246167 C 37.068811,17.246167 37.088388,32 37.088388,32 L 22.160133,31.978069 C 22.160133,31.978069 26.997745,27.140456 26.997745,27.140456 C 18.528582,18.264221 13.291696,25.230495 11.500037,31.436501 z"
             style="fill:#404040;"/>
          </a>
         </g>
        </svg>
</svg>
