<?xml version="1.0" encoding="UTF-8" standalone="no"?>
<!DOCTYPE svg PUBLIC "-//W3C//DTD SVG 1.1//EN"
 "http://www.w3.org/Graphics/SVG/1.1/DTD/svg11.dtd">
<!-- Generated by graphviz version 2.38.0 (20140413.2041)
 -->
<!-- Title: IG.Num.ScalarFunctionRadialUntransformed Pages: 1 -->
<svg width="374pt" height="163pt"
 viewBox="0.00 0.00 373.50 163.00" xmlns="http://www.w3.org/2000/svg" xmlns:xlink="http://www.w3.org/1999/xlink">
<g id="graph0" class="graph" transform="scale(1 1) rotate(0) translate(4 159)">
<title>IG.Num.ScalarFunctionRadialUntransformed</title>
<polygon fill="white" stroke="none" points="-4,4 -4,-159 369.5,-159 369.5,4 -4,4"/>
<!-- Node1 -->
<g id="node1" class="node"><title>Node1</title>
<g id="a_node1"><a xlink:title="Radial scalar functions.">
<polygon fill="#bfbfbf" stroke="black" points="79,-0.5 79,-30.5 224,-30.5 224,-0.5 79,-0.5"/>
<text text-anchor="start" x="87" y="-18.5" font-family="Helvetica,sans-Serif" font-size="10.00">IG.Num.ScalarFunctionRadial</text>
<text text-anchor="middle" x="151.5" y="-7.5" font-family="Helvetica,sans-Serif" font-size="10.00">Untransformed</text>
</a>
</g>
</g>
<!-- Node2 -->
<g id="node2" class="node"><title>Node2</title>
<g id="a_node2"><a xlink:href="../../d2/d9e/classIG_1_1Num_1_1ScalarFunctionUntransformedBase.html" target="_top" xlink:title="Base class for defining scalar functions without possibility of affine transformation of parameters.">
<polygon fill="white" stroke="black" points="68,-78.5 68,-97.5 235,-97.5 235,-78.5 68,-78.5"/>
<text text-anchor="middle" x="151.5" y="-85.5" font-family="Helvetica,sans-Serif" font-size="10.00">ScalarFunctionUntransformedBase</text>
</a>
</g>
</g>
<!-- Node2&#45;&gt;Node1 -->
<g id="edge1" class="edge"><title>Node2&#45;&gt;Node1</title>
<path fill="none" stroke="midnightblue" d="M151.5,-68.2362C151.5,-56.4079 151.5,-41.3829 151.5,-30.5762"/>
<polygon fill="midnightblue" stroke="midnightblue" points="148,-68.3553 151.5,-78.3553 155,-68.3554 148,-68.3553"/>
</g>
<!-- Node3 -->
<g id="node3" class="node"><title>Node3</title>
<g id="a_node3"><a xlink:href="../../d8/d56/interfaceIG_1_1Num_1_1IScalarFunctionUntransformed.html" target="_top" xlink:title="Scalar functions of vector arguments.">
<polygon fill="white" stroke="black" points="0,-135.5 0,-154.5 147,-154.5 147,-135.5 0,-135.5"/>
<text text-anchor="middle" x="73.5" y="-142.5" font-family="Helvetica,sans-Serif" font-size="10.00">IScalarFunctionUntransformed</text>
</a>
</g>
</g>
<!-- Node3&#45;&gt;Node1 -->
<g id="edge3" class="edge"><title>Node3&#45;&gt;Node1</title>
<path fill="none" stroke="midnightblue" d="M63.1343,-126.413C56.4354,-112.573 50.3515,-93.1576 58.5,-78 70.3235,-56.0063 93.8458,-40.562 114.275,-30.6511"/>
<polygon fill="midnightblue" stroke="midnightblue" points="60.1212,-128.201 67.9262,-135.366 66.2927,-124.898 60.1212,-128.201"/>
</g>
<!-- Node3&#45;&gt;Node2 -->
<g id="edge2" class="edge"><title>Node3&#45;&gt;Node2</title>
<path fill="none" stroke="midnightblue" d="M94.0111,-129.537C108.453,-119.354 127.295,-106.068 139.398,-97.5334"/>
<polygon fill="midnightblue" stroke="midnightblue" points="91.8431,-126.783 85.6875,-135.406 95.8771,-132.504 91.8431,-126.783"/>
</g>
<!-- Node4 -->
<g id="node4" class="node"><title>Node4</title>
<g id="a_node4"><a xlink:href="../../db/d0e/interfaceIG_1_1Num_1_1IRealFunction.html" target="_top" xlink:title="Interface for real functions.">
<polygon fill="white" stroke="black" points="253.5,-78.5 253.5,-97.5 365.5,-97.5 365.5,-78.5 253.5,-78.5"/>
<text text-anchor="middle" x="309.5" y="-85.5" font-family="Helvetica,sans-Serif" font-size="10.00">IG.Num.IRealFunction</text>
</a>
</g>
</g>
<!-- Node4&#45;&gt;Node1 -->
<g id="edge4" class="edge"><title>Node4&#45;&gt;Node1</title>
<path fill="none" stroke="#9a32cd" stroke-dasharray="5,2" d="M281.309,-74.421C253.66,-62.0841 211.589,-43.3119 182.889,-30.5059"/>
<polygon fill="#9a32cd" stroke="#9a32cd" points="279.883,-77.6175 290.442,-78.4961 282.736,-71.225 279.883,-77.6175"/>
<text text-anchor="middle" x="267" y="-52" font-family="Helvetica,sans-Serif" font-size="10.00"> _function</text>
</g>
</g>
</svg>
