<?xml version="1.0" encoding="UTF-8" standalone="no"?>
<!DOCTYPE svg PUBLIC "-//W3C//DTD SVG 1.1//EN"
 "http://www.w3.org/Graphics/SVG/1.1/DTD/svg11.dtd">
<!-- Generated by graphviz version 2.38.0 (20140413.2041)
 -->
<!-- Title: IG.Num.ScalarFunctionBase Pages: 1 -->
<svg width="583pt" height="193pt"
 viewBox="0.00 0.00 583.00 193.00" xmlns="http://www.w3.org/2000/svg" xmlns:xlink="http://www.w3.org/1999/xlink">
<g id="graph0" class="graph" transform="scale(1 1) rotate(0) translate(4 189)">
<title>IG.Num.ScalarFunctionBase</title>
<polygon fill="white" stroke="none" points="-4,4 -4,-189 579,-189 579,4 -4,4"/>
<!-- Node1 -->
<g id="node1" class="node"><title>Node1</title>
<g id="a_node1"><a xlink:title="Base class for scalar functions with affine transformation of co&#45;ordinates. The reference function is...">
<polygon fill="#bfbfbf" stroke="black" points="435,-83.5 435,-102.5 575,-102.5 575,-83.5 435,-83.5"/>
<text text-anchor="middle" x="505" y="-90.5" font-family="Helvetica,sans-Serif" font-size="10.00">IG.Num.ScalarFunctionBase</text>
</a>
</g>
</g>
<!-- Node2 -->
<g id="node2" class="node"><title>Node2</title>
<g id="a_node2"><a xlink:href="../../d2/d9e/classIG_1_1Num_1_1ScalarFunctionUntransformedBase.html" target="_top" xlink:title="Base class for defining scalar functions without possibility of affine transformation of parameters.">
<polygon fill="white" stroke="black" points="184,-165.5 184,-184.5 351,-184.5 351,-165.5 184,-165.5"/>
<text text-anchor="middle" x="267.5" y="-172.5" font-family="Helvetica,sans-Serif" font-size="10.00">ScalarFunctionUntransformedBase</text>
</a>
</g>
</g>
<!-- Node2&#45;&gt;Node1 -->
<g id="edge1" class="edge"><title>Node2&#45;&gt;Node1</title>
<path fill="none" stroke="midnightblue" d="M325.86,-163.073C334.351,-160.938 342.948,-158.566 351,-156 399.719,-140.475 454.657,-116.082 483.613,-102.658"/>
<polygon fill="midnightblue" stroke="midnightblue" points="324.873,-159.711 315.98,-165.469 326.523,-166.514 324.873,-159.711"/>
</g>
<!-- Node3 -->
<g id="node3" class="node"><title>Node3</title>
<g id="a_node3"><a xlink:href="../../d8/d56/interfaceIG_1_1Num_1_1IScalarFunctionUntransformed.html" target="_top" xlink:title="Scalar functions of vector arguments.">
<polygon fill="white" stroke="black" points="0,-147.5 0,-166.5 147,-166.5 147,-147.5 0,-147.5"/>
<text text-anchor="middle" x="73.5" y="-154.5" font-family="Helvetica,sans-Serif" font-size="10.00">IScalarFunctionUntransformed</text>
</a>
</g>
</g>
<!-- Node3&#45;&gt;Node2 -->
<g id="edge2" class="edge"><title>Node3&#45;&gt;Node2</title>
<path fill="none" stroke="midnightblue" d="M157.317,-164.764C166.106,-165.588 175.045,-166.426 183.832,-167.25"/>
<polygon fill="midnightblue" stroke="midnightblue" points="157.37,-161.254 147.087,-163.805 156.717,-168.223 157.37,-161.254"/>
</g>
<!-- Node4 -->
<g id="node4" class="node"><title>Node4</title>
<g id="a_node4"><a xlink:href="../../dd/d1e/interfaceIG_1_1Num_1_1IScalarFunction.html" target="_top" xlink:title="Scalar functions of vector arguments, with eventual affine transformation of parameters....">
<polygon fill="white" stroke="black" points="225.5,-127.5 225.5,-146.5 309.5,-146.5 309.5,-127.5 225.5,-127.5"/>
<text text-anchor="middle" x="267.5" y="-134.5" font-family="Helvetica,sans-Serif" font-size="10.00">IScalarFunction</text>
</a>
</g>
</g>
<!-- Node3&#45;&gt;Node4 -->
<g id="edge4" class="edge"><title>Node3&#45;&gt;Node4</title>
<path fill="none" stroke="midnightblue" d="M157.104,-148.395C180.674,-145.94 205.343,-143.371 225.276,-141.294"/>
<polygon fill="midnightblue" stroke="midnightblue" points="156.67,-144.922 147.087,-149.439 157.396,-151.884 156.67,-144.922"/>
</g>
<!-- Node4&#45;&gt;Node1 -->
<g id="edge3" class="edge"><title>Node4&#45;&gt;Node1</title>
<path fill="none" stroke="midnightblue" d="M319.461,-127.479C358.898,-120.11 413.269,-109.952 452.773,-102.571"/>
<polygon fill="midnightblue" stroke="midnightblue" points="318.708,-124.059 309.521,-129.336 319.994,-130.94 318.708,-124.059"/>
</g>
<!-- Node5 -->
<g id="node5" class="node"><title>Node5</title>
<g id="a_node5"><a xlink:href="../../d8/d86/interfaceIG_1_1Num_1_1IMatrix.html" target="_top" xlink:title="Generic Matrix interface.">
<polygon fill="white" stroke="black" points="197.5,-78 197.5,-108 337.5,-108 337.5,-78 197.5,-78"/>
<text text-anchor="start" x="205.5" y="-96" font-family="Helvetica,sans-Serif" font-size="10.00">IG.Num.IMatrix&lt; Component</text>
<text text-anchor="middle" x="267.5" y="-85" font-family="Helvetica,sans-Serif" font-size="10.00">Type &gt;</text>
</a>
</g>
</g>
<!-- Node5&#45;&gt;Node1 -->
<g id="edge5" class="edge"><title>Node5&#45;&gt;Node1</title>
<path fill="none" stroke="#9a32cd" stroke-dasharray="5,2" d="M347.809,-93C376.055,-93 407.617,-93 434.935,-93"/>
<polygon fill="#9a32cd" stroke="#9a32cd" points="347.567,-89.5001 337.567,-93 347.567,-96.5001 347.567,-89.5001"/>
<text text-anchor="middle" x="393" y="-96" font-family="Helvetica,sans-Serif" font-size="10.00"> _refHess</text>
</g>
<!-- Node6 -->
<g id="node6" class="node"><title>Node6</title>
<g id="a_node6"><a xlink:href="../../d3/d24/interfaceIG_1_1Num_1_1IVector.html" target="_top" xlink:title="Generic Vector interface">
<polygon fill="white" stroke="black" points="214,-38.5 214,-57.5 321,-57.5 321,-38.5 214,-38.5"/>
<text text-anchor="middle" x="267.5" y="-45.5" font-family="Helvetica,sans-Serif" font-size="10.00">IG.Num.IVector&lt; T &gt;</text>
</a>
</g>
</g>
<!-- Node6&#45;&gt;Node1 -->
<g id="edge6" class="edge"><title>Node6&#45;&gt;Node1</title>
<path fill="none" stroke="#9a32cd" stroke-dasharray="5,2" d="M331.051,-53.711C357.706,-56.735 389.043,-61.0753 417,-67 437.048,-71.2486 459.17,-77.8869 476.089,-83.3923"/>
<polygon fill="#9a32cd" stroke="#9a32cd" points="331.404,-50.2287 321.081,-52.6159 330.639,-57.1869 331.404,-50.2287"/>
<text text-anchor="middle" x="393" y="-81" font-family="Helvetica,sans-Serif" font-size="10.00"> _refParam</text>
<text text-anchor="middle" x="393" y="-70" font-family="Helvetica,sans-Serif" font-size="10.00">_refGrad</text>
</g>
<!-- Node7 -->
<g id="node7" class="node"><title>Node7</title>
<g id="a_node7"><a xlink:href="../../d5/d50/interfaceIG_1_1Num_1_1IAffineTransformation.html" target="_top" xlink:title="Affine Transformation.">
<polygon fill="white" stroke="black" points="196,-0.5 196,-19.5 339,-19.5 339,-0.5 196,-0.5"/>
<text text-anchor="middle" x="267.5" y="-7.5" font-family="Helvetica,sans-Serif" font-size="10.00">IG.Num.IAffineTransformation</text>
</a>
</g>
</g>
<!-- Node7&#45;&gt;Node1 -->
<g id="edge7" class="edge"><title>Node7&#45;&gt;Node1</title>
<path fill="none" stroke="#9a32cd" stroke-dasharray="5,2" d="M320.452,-21.8691C330.588,-24.2117 341.13,-26.6673 351,-29 380.374,-35.9426 388.871,-34.0572 417,-45 443.848,-55.4444 472.691,-72.6887 489.501,-83.4164"/>
<polygon fill="#9a32cd" stroke="#9a32cd" points="321.022,-18.4088 310.492,-19.5727 319.45,-25.2299 321.022,-18.4088"/>
<text text-anchor="middle" x="393" y="-48" font-family="Helvetica,sans-Serif" font-size="10.00"> _transf</text>
</g>
</g>
</svg>
