<?xml version="1.0" encoding="UTF-8" standalone="no"?>
<!DOCTYPE svg PUBLIC "-//W3C//DTD SVG 1.1//EN"
 "http://www.w3.org/Graphics/SVG/1.1/DTD/svg11.dtd">
<!-- Generated by graphviz version 2.38.0 (20140413.2041)
 -->
<!-- Title: IG.Num.Func.WeightGauss Pages: 1 -->
<svg width="269pt" height="301pt"
 viewBox="0.00 0.00 268.50 301.00" xmlns="http://www.w3.org/2000/svg" xmlns:xlink="http://www.w3.org/1999/xlink">
<g id="graph0" class="graph" transform="scale(1 1) rotate(0) translate(4 297)">
<title>IG.Num.Func.WeightGauss</title>
<polygon fill="white" stroke="none" points="-4,4 -4,-297 264.5,-297 264.5,4 -4,4"/>
<!-- Node1 -->
<g id="node1" class="node"><title>Node1</title>
<g id="a_node1"><a xlink:title="A RealFunction class representing bell like polynomial weighting function with finite support,...">
<polygon fill="#bfbfbf" stroke="black" points="0,-0.5 0,-19.5 137,-19.5 137,-0.5 0,-0.5"/>
<text text-anchor="middle" x="68.5" y="-7.5" font-family="Helvetica,sans-Serif" font-size="10.00">IG.Num.Func.WeightGauss</text>
</a>
</g>
</g>
<!-- Node2 -->
<g id="node2" class="node"><title>Node2</title>
<g id="a_node2"><a xlink:href="../../d5/d83/classIG_1_1Num_1_1RealFunction.html" target="_top" xlink:title="Represents a real function of a real variabe.">
<polygon fill="white" stroke="black" points="31.5,-57.5 31.5,-76.5 105.5,-76.5 105.5,-57.5 31.5,-57.5"/>
<text text-anchor="middle" x="68.5" y="-64.5" font-family="Helvetica,sans-Serif" font-size="10.00">RealFunction</text>
</a>
</g>
</g>
<!-- Node2&#45;&gt;Node1 -->
<g id="edge1" class="edge"><title>Node2&#45;&gt;Node1</title>
<path fill="none" stroke="midnightblue" d="M68.5,-47.1166C68.5,-37.8173 68.5,-27.0557 68.5,-19.7149"/>
<polygon fill="midnightblue" stroke="midnightblue" points="65.0001,-47.4062 68.5,-57.4063 72.0001,-47.4063 65.0001,-47.4062"/>
</g>
<!-- Node3 -->
<g id="node3" class="node"><title>Node3</title>
<g id="a_node3"><a xlink:href="../../d6/d30/classIG_1_1Num_1_1RealFunctionBase.html" target="_top" xlink:title="Base class for real functions of real variable.">
<polygon fill="white" stroke="black" points="11.5,-216.5 11.5,-235.5 107.5,-235.5 107.5,-216.5 11.5,-216.5"/>
<text text-anchor="middle" x="59.5" y="-223.5" font-family="Helvetica,sans-Serif" font-size="10.00">RealFunctionBase</text>
</a>
</g>
</g>
<!-- Node3&#45;&gt;Node2 -->
<g id="edge2" class="edge"><title>Node3&#45;&gt;Node2</title>
<path fill="none" stroke="midnightblue" d="M53.043,-206.591C50.4541,-198.276 47.7833,-188.259 46.5,-179 41.1601,-140.47 57.2409,-95.1402 64.8016,-76.578"/>
<polygon fill="midnightblue" stroke="midnightblue" points="49.8047,-207.946 56.2754,-216.335 56.4486,-205.742 49.8047,-207.946"/>
</g>
<!-- Node6 -->
<g id="node6" class="node"><title>Node6</title>
<g id="a_node6"><a xlink:href="../../d5/d83/classIG_1_1Num_1_1RealFunction.html" target="_top" xlink:title="Represents a real function of a real variabe.">
<polygon fill="white" stroke="black" points="55.5,-153 55.5,-172 165.5,-172 165.5,-153 55.5,-153"/>
<text text-anchor="middle" x="110.5" y="-160" font-family="Helvetica,sans-Serif" font-size="10.00">IG.Num.RealFunction</text>
</a>
</g>
</g>
<!-- Node3&#45;&gt;Node6 -->
<g id="edge7" class="edge"><title>Node3&#45;&gt;Node6</title>
<path fill="none" stroke="midnightblue" d="M72.9846,-208.739C82.6401,-197.096 95.2751,-181.859 103.139,-172.377"/>
<polygon fill="midnightblue" stroke="midnightblue" points="70.2806,-206.517 66.5913,-216.449 75.6689,-210.985 70.2806,-206.517"/>
</g>
<!-- Node4 -->
<g id="node4" class="node"><title>Node4</title>
<g id="a_node4"><a xlink:href="../../db/d0e/interfaceIG_1_1Num_1_1IRealFunction.html" target="_top" xlink:title="Interface for real functions.">
<polygon fill="white" stroke="black" points="21.5,-273.5 21.5,-292.5 97.5,-292.5 97.5,-273.5 21.5,-273.5"/>
<text text-anchor="middle" x="59.5" y="-280.5" font-family="Helvetica,sans-Serif" font-size="10.00">IRealFunction</text>
</a>
</g>
</g>
<!-- Node4&#45;&gt;Node2 -->
<g id="edge4" class="edge"><title>Node4&#45;&gt;Node2</title>
<path fill="none" stroke="midnightblue" d="M33.2898,-268.1C21.5739,-260.358 8.96784,-249.531 2.5,-236 -1.33348,-227.98 0.989795,-224.76 2.5,-216 12.1965,-159.757 16.9681,-144.429 45.5,-95 49.3172,-88.3871 54.8327,-81.8457 59.5057,-76.8581"/>
<polygon fill="midnightblue" stroke="midnightblue" points="31.6039,-271.172 41.959,-273.413 35.2617,-265.203 31.6039,-271.172"/>
</g>
<!-- Node4&#45;&gt;Node3 -->
<g id="edge3" class="edge"><title>Node4&#45;&gt;Node3</title>
<path fill="none" stroke="midnightblue" d="M59.5,-263.117C59.5,-253.817 59.5,-243.056 59.5,-235.715"/>
<polygon fill="midnightblue" stroke="midnightblue" points="56.0001,-263.406 59.5,-273.406 63.0001,-263.406 56.0001,-263.406"/>
</g>
<!-- Node4&#45;&gt;Node6 -->
<g id="edge8" class="edge"><title>Node4&#45;&gt;Node6</title>
<path fill="none" stroke="midnightblue" d="M85.7102,-268.1C97.4261,-260.358 110.032,-249.531 116.5,-236 126.631,-214.805 118.873,-186.137 113.873,-172.044"/>
<polygon fill="midnightblue" stroke="midnightblue" points="83.7383,-265.203 77.041,-273.413 87.3961,-271.172 83.7383,-265.203"/>
</g>
<!-- Node5 -->
<g id="node5" class="node"><title>Node5</title>
<g id="a_node5"><a xlink:title=" ">
<polygon fill="white" stroke="#bfbfbf" points="198.5,-216.5 198.5,-235.5 260.5,-235.5 260.5,-216.5 198.5,-216.5"/>
<text text-anchor="middle" x="229.5" y="-223.5" font-family="Helvetica,sans-Serif" font-size="10.00">ICloneable</text>
</a>
</g>
</g>
<!-- Node5&#45;&gt;Node2 -->
<g id="edge5" class="edge"><title>Node5&#45;&gt;Node2</title>
<path fill="none" stroke="midnightblue" d="M242.684,-207.906C253.813,-191.229 266.214,-165.583 254.5,-146 223.673,-94.4632 150.674,-76.9716 105.841,-71.0395"/>
<polygon fill="midnightblue" stroke="midnightblue" points="239.758,-205.98 236.793,-216.152 245.454,-210.049 239.758,-205.98"/>
</g>
<!-- Node5&#45;&gt;Node6 -->
<g id="edge9" class="edge"><title>Node5&#45;&gt;Node6</title>
<path fill="none" stroke="midnightblue" d="M204.024,-211.834C180.838,-199.851 147.27,-182.503 127.29,-172.177"/>
<polygon fill="midnightblue" stroke="midnightblue" points="202.463,-214.967 212.954,-216.449 205.677,-208.748 202.463,-214.967"/>
</g>
<!-- Node6&#45;&gt;Node2 -->
<g id="edge6" class="edge"><title>Node6&#45;&gt;Node2</title>
<path fill="none" stroke="#9a32cd" stroke-dasharray="5,2" d="M102.45,-143.579C93.4273,-123.493 79.1733,-91.7608 72.3666,-76.6078"/>
<polygon fill="#9a32cd" stroke="#9a32cd" points="99.3337,-145.184 106.624,-152.871 105.719,-142.315 99.3337,-145.184"/>
<text text-anchor="middle" x="124.5" y="-120" font-family="Helvetica,sans-Serif" font-size="10.00"> funcDerivative</text>
<text text-anchor="middle" x="124.5" y="-109" font-family="Helvetica,sans-Serif" font-size="10.00">funcInverse</text>
<text text-anchor="middle" x="124.5" y="-98" font-family="Helvetica,sans-Serif" font-size="10.00">funcIntegral</text>
</g>
<!-- Node6&#45;&gt;Node6 -->
<g id="edge10" class="edge"><title>Node6&#45;&gt;Node6</title>
<path fill="none" stroke="#9a32cd" stroke-dasharray="5,2" d="M175.501,-167.284C180.452,-166.222 183.5,-164.627 183.5,-162.5 183.5,-159.18 176.074,-157.156 165.573,-156.43"/>
<polygon fill="#9a32cd" stroke="#9a32cd" points="175.041,-163.815 165.573,-168.57 175.94,-170.757 175.041,-163.815"/>
<text text-anchor="middle" x="214.5" y="-171" font-family="Helvetica,sans-Serif" font-size="10.00"> funcDerivative</text>
<text text-anchor="middle" x="214.5" y="-160" font-family="Helvetica,sans-Serif" font-size="10.00">funcInverse</text>
<text text-anchor="middle" x="214.5" y="-149" font-family="Helvetica,sans-Serif" font-size="10.00">funcIntegral</text>
</g>
</g>
</svg>
