<?xml version="1.0" encoding="UTF-8" standalone="no"?>
<!DOCTYPE svg PUBLIC "-//W3C//DTD SVG 1.1//EN"
 "http://www.w3.org/Graphics/SVG/1.1/DTD/svg11.dtd">
<!-- Generated by graphviz version 2.38.0 (20140413.2041)
 -->
<!-- Title: IG.Num.Matrix3d Pages: 1 -->
<svg width="117pt" height="140pt"
 viewBox="0.00 0.00 117.00 140.00" xmlns="http://www.w3.org/2000/svg" xmlns:xlink="http://www.w3.org/1999/xlink">
<g id="graph0" class="graph" transform="scale(1 1) rotate(0) translate(4 136)">
<title>IG.Num.Matrix3d</title>
<polygon fill="white" stroke="none" points="-4,4 -4,-136 113,-136 113,4 -4,4"/>
<!-- Node1 -->
<g id="node1" class="node"><title>Node1</title>
<g id="a_node1"><a xlink:title="Matrix in a 3 dimensional space.">
<polygon fill="#bfbfbf" stroke="black" points="0,-0.5 0,-19.5 90,-19.5 90,-0.5 0,-0.5"/>
<text text-anchor="middle" x="45" y="-7.5" font-family="Helvetica,sans-Serif" font-size="10.00">IG.Num.Matrix3d</text>
</a>
</g>
</g>
<!-- Node2 -->
<g id="node2" class="node"><title>Node2</title>
<g id="a_node2"><a xlink:href="../../d9/db9/classIG_1_1Num_1_1MatrixBase.html" target="_top" xlink:title="Base class for matrices.">
<polygon fill="white" stroke="black" points="43,-56.5 43,-75.5 109,-75.5 109,-56.5 43,-56.5"/>
<text text-anchor="middle" x="76" y="-63.5" font-family="Helvetica,sans-Serif" font-size="10.00">MatrixBase</text>
</a>
</g>
</g>
<!-- Node2&#45;&gt;Node1 -->
<g id="edge1" class="edge"><title>Node2&#45;&gt;Node1</title>
<path fill="none" stroke="midnightblue" d="M65.8244,-47.2747C60.5261,-38.0454 54.283,-27.1703 50.0238,-19.7511"/>
<polygon fill="midnightblue" stroke="midnightblue" points="62.8669,-49.153 70.881,-56.083 68.9376,-45.6679 62.8669,-49.153"/>
</g>
<!-- Node3 -->
<g id="node3" class="node"><title>Node3</title>
<g id="a_node3"><a xlink:href="../../d8/d86/interfaceIG_1_1Num_1_1IMatrix.html" target="_top" xlink:title="Generic Matrix interface.">
<polygon fill="white" stroke="black" points="22,-112.5 22,-131.5 68,-131.5 68,-112.5 22,-112.5"/>
<text text-anchor="middle" x="45" y="-119.5" font-family="Helvetica,sans-Serif" font-size="10.00">IMatrix</text>
</a>
</g>
</g>
<!-- Node3&#45;&gt;Node1 -->
<g id="edge3" class="edge"><title>Node3&#45;&gt;Node1</title>
<path fill="none" stroke="midnightblue" d="M39.4601,-102.656C37.2923,-94.5656 35.0712,-84.8931 34,-76 31.5638,-55.7738 37.8335,-32.2498 41.8802,-19.7925"/>
<polygon fill="midnightblue" stroke="midnightblue" points="36.1563,-103.833 42.2701,-112.486 42.8868,-101.909 36.1563,-103.833"/>
</g>
<!-- Node3&#45;&gt;Node2 -->
<g id="edge2" class="edge"><title>Node3&#45;&gt;Node2</title>
<path fill="none" stroke="midnightblue" d="M55.1756,-103.275C60.4739,-94.0454 66.717,-83.1703 70.9762,-75.7511"/>
<polygon fill="midnightblue" stroke="midnightblue" points="52.0624,-101.668 50.119,-112.083 58.1331,-105.153 52.0624,-101.668"/>
</g>
</g>
</svg>
