<?xml version="1.0" encoding="UTF-8" standalone="no"?>
<!DOCTYPE svg PUBLIC "-//W3C//DTD SVG 1.1//EN"
 "http://www.w3.org/Graphics/SVG/1.1/DTD/svg11.dtd">
<!-- Generated by graphviz version 2.38.0 (20140413.2041)
 -->
<!-- Title: IG.Num.RandomGenerator Pages: 1 -->
<svg width="237pt" height="163pt"
 viewBox="0.00 0.00 236.50 163.00" xmlns="http://www.w3.org/2000/svg" xmlns:xlink="http://www.w3.org/1999/xlink">
<g id="graph0" class="graph" transform="scale(1 1) rotate(0) translate(4 159)">
<title>IG.Num.RandomGenerator</title>
<polygon fill="white" stroke="none" points="-4,4 -4,-159 232.5,-159 232.5,4 -4,4"/>
<!-- Node1 -->
<g id="node1" class="node"><title>Node1</title>
<g id="a_node1"><a xlink:title="Default generator of uniformly distributed random numbers. Provides a global generator and a static f...">
<polygon fill="#bfbfbf" stroke="black" points="93.5,-0.5 93.5,-19.5 224.5,-19.5 224.5,-0.5 93.5,-0.5"/>
<text text-anchor="middle" x="159" y="-7.5" font-family="Helvetica,sans-Serif" font-size="10.00">IG.Num.RandomGenerator</text>
</a>
</g>
</g>
<!-- Node2 -->
<g id="node2" class="node"><title>Node2</title>
<g id="a_node2"><a xlink:href="../../dd/d56/classIG_1_1Num_1_1RandomGeneratorSystem.html" target="_top" xlink:title="Generator of uniformly distributed random numbers. Based on system random generator....">
<polygon fill="white" stroke="black" points="1.5,-78.5 1.5,-97.5 130.5,-97.5 130.5,-78.5 1.5,-78.5"/>
<text text-anchor="middle" x="66" y="-85.5" font-family="Helvetica,sans-Serif" font-size="10.00">RandomGeneratorSystem</text>
</a>
</g>
</g>
<!-- Node2&#45;&gt;Node1 -->
<g id="edge1" class="edge"><title>Node2&#45;&gt;Node1</title>
<path fill="none" stroke="midnightblue" d="M84.4282,-71.9404C103.586,-56.2848 132.902,-32.3271 148.456,-19.6165"/>
<polygon fill="midnightblue" stroke="midnightblue" points="82.1968,-69.2438 76.6683,-78.2818 86.6263,-74.6641 82.1968,-69.2438"/>
</g>
<!-- Node3 -->
<g id="node3" class="node"><title>Node3</title>
<g id="a_node3"><a xlink:title=" ">
<polygon fill="white" stroke="#bfbfbf" points="0,-135.5 0,-154.5 92,-154.5 92,-135.5 0,-135.5"/>
<text text-anchor="middle" x="46" y="-142.5" font-family="Helvetica,sans-Serif" font-size="10.00">System::Random</text>
</a>
</g>
</g>
<!-- Node3&#45;&gt;Node2 -->
<g id="edge2" class="edge"><title>Node3&#45;&gt;Node2</title>
<path fill="none" stroke="midnightblue" d="M52.6445,-125.728C56.0756,-116.292 60.1029,-105.217 62.8309,-97.7149"/>
<polygon fill="midnightblue" stroke="midnightblue" points="49.2532,-124.812 49.125,-135.406 55.8318,-127.204 49.2532,-124.812"/>
</g>
<!-- Node4 -->
<g id="node4" class="node"><title>Node4</title>
<g id="a_node4"><a xlink:href="../../d4/d43/interfaceIG_1_1Num_1_1IRandomGenerator.html" target="_top" xlink:title="Uniform random number generator.">
<polygon fill="white" stroke="black" points="110,-135.5 110,-154.5 208,-154.5 208,-135.5 110,-135.5"/>
<text text-anchor="middle" x="159" y="-142.5" font-family="Helvetica,sans-Serif" font-size="10.00">IRandomGenerator</text>
</a>
</g>
</g>
<!-- Node4&#45;&gt;Node1 -->
<g id="edge4" class="edge"><title>Node4&#45;&gt;Node1</title>
<path fill="none" stroke="midnightblue" d="M159,-125.133C159,-95.8844 159,-40.7618 159,-19.5857"/>
<polygon fill="midnightblue" stroke="midnightblue" points="155.5,-125.273 159,-135.273 162.5,-125.274 155.5,-125.273"/>
</g>
<!-- Node4&#45;&gt;Node2 -->
<g id="edge3" class="edge"><title>Node4&#45;&gt;Node2</title>
<path fill="none" stroke="midnightblue" d="M135.513,-130.11C118.176,-119.857 95.1324,-106.229 80.4292,-97.5334"/>
<polygon fill="midnightblue" stroke="midnightblue" points="134.08,-133.328 144.469,-135.406 137.643,-127.303 134.08,-133.328"/>
</g>
<!-- Node5 -->
<g id="node5" class="node"><title>Node5</title>
<g id="a_node5"><a xlink:title=" ">
<polygon fill="white" stroke="#bfbfbf" points="187.5,-78.5 187.5,-97.5 228.5,-97.5 228.5,-78.5 187.5,-78.5"/>
<text text-anchor="middle" x="208" y="-85.5" font-family="Helvetica,sans-Serif" font-size="10.00">static</text>
</a>
</g>
</g>
<!-- Node5&#45;&gt;Node1 -->
<g id="edge5" class="edge"><title>Node5&#45;&gt;Node1</title>
<path fill="none" stroke="#9a32cd" stroke-dasharray="5,2" d="M196.759,-69.5654C186.691,-53.9486 172.346,-31.7002 164.555,-19.6165"/>
<polygon fill="#9a32cd" stroke="#9a32cd" points="194.019,-71.7738 202.379,-78.2818 199.902,-67.9806 194.019,-71.7738"/>
<text text-anchor="middle" x="205.5" y="-52" font-family="Helvetica,sans-Serif" font-size="10.00"> _lock</text>
<text text-anchor="middle" x="205.5" y="-41" font-family="Helvetica,sans-Serif" font-size="10.00">_global</text>
</g>
</g>
</svg>
