<?xml version="1.0" encoding="UTF-8" standalone="no"?>
<!DOCTYPE svg PUBLIC "-//W3C//DTD SVG 1.1//EN"
 "http://www.w3.org/Graphics/SVG/1.1/DTD/svg11.dtd">
<!-- Generated by graphviz version 2.38.0 (20140413.2041)
 -->
<!-- Title: IG.Num.Func3d2dBase.ComponentFunction1 Pages: 1 -->
<svg width="356pt" height="277pt"
 viewBox="0.00 0.00 355.50 277.00" xmlns="http://www.w3.org/2000/svg" xmlns:xlink="http://www.w3.org/1999/xlink">
<g id="graph0" class="graph" transform="scale(1 1) rotate(0) translate(4 273)">
<title>IG.Num.Func3d2dBase.ComponentFunction1</title>
<polygon fill="white" stroke="none" points="-4,4 -4,-273 351.5,-273 351.5,4 -4,4"/>
<!-- Node1 -->
<g id="node1" class="node"><title>Node1</title>
<g id="a_node1"><a xlink:title="Class that represents a scalar function of 2 variables that is the first component of the specified 3...">
<polygon fill="#bfbfbf" stroke="black" points="0,-0.5 0,-30.5 170,-30.5 170,-0.5 0,-0.5"/>
<text text-anchor="start" x="8" y="-18.5" font-family="Helvetica,sans-Serif" font-size="10.00">IG.Num.Func3d2dBase.Component</text>
<text text-anchor="middle" x="85" y="-7.5" font-family="Helvetica,sans-Serif" font-size="10.00">Function1</text>
</a>
</g>
</g>
<!-- Node2 -->
<g id="node2" class="node"><title>Node2</title>
<g id="a_node2"><a xlink:href="../../df/d17/classIG_1_1Num_1_1Func3d2dBase_1_1ComponentFunctionBase.html" target="_top" xlink:title="Base function for component functions, provides internal variable for vector function.">
<polygon fill="white" stroke="black" points="113,-68.5 113,-87.5 239,-87.5 239,-68.5 113,-68.5"/>
<text text-anchor="middle" x="176" y="-75.5" font-family="Helvetica,sans-Serif" font-size="10.00">ComponentFunctionBase</text>
</a>
</g>
</g>
<!-- Node2&#45;&gt;Node1 -->
<g id="edge1" class="edge"><title>Node2&#45;&gt;Node1</title>
<path fill="none" stroke="midnightblue" d="M154.541,-62.7331C139.916,-53.0104 120.644,-40.1972 106.097,-30.526"/>
<polygon fill="midnightblue" stroke="midnightblue" points="152.697,-65.71 162.962,-68.3318 156.572,-59.8807 152.697,-65.71"/>
</g>
<!-- Node3 -->
<g id="node3" class="node"><title>Node3</title>
<g id="a_node3"><a xlink:href="../../da/d29/classIG_1_1Num_1_1Func2dBase.html" target="_top" xlink:title="Base class for scalar functions of 2 variables (base for implementation of IFunc2d interface).">
<polygon fill="white" stroke="black" points="116.5,-135.5 116.5,-154.5 187.5,-154.5 187.5,-135.5 116.5,-135.5"/>
<text text-anchor="middle" x="152" y="-142.5" font-family="Helvetica,sans-Serif" font-size="10.00">Func2dBase</text>
</a>
</g>
</g>
<!-- Node3&#45;&gt;Node2 -->
<g id="edge2" class="edge"><title>Node3&#45;&gt;Node2</title>
<path fill="none" stroke="midnightblue" d="M158.724,-125.79C163.333,-113.308 169.238,-97.3135 172.815,-87.6273"/>
<polygon fill="midnightblue" stroke="midnightblue" points="155.417,-124.641 155.237,-135.234 161.984,-127.065 155.417,-124.641"/>
</g>
<!-- Node4 -->
<g id="node4" class="node"><title>Node4</title>
<g id="a_node4"><a xlink:href="../../d2/d9e/classIG_1_1Num_1_1ScalarFunctionUntransformedBase.html" target="_top" xlink:title="Base class for defining scalar functions without possibility of affine transformation of parameters.">
<polygon fill="white" stroke="black" points="180.5,-192.5 180.5,-211.5 347.5,-211.5 347.5,-192.5 180.5,-192.5"/>
<text text-anchor="middle" x="264" y="-199.5" font-family="Helvetica,sans-Serif" font-size="10.00">ScalarFunctionUntransformedBase</text>
</a>
</g>
</g>
<!-- Node4&#45;&gt;Node3 -->
<g id="edge3" class="edge"><title>Node4&#45;&gt;Node3</title>
<path fill="none" stroke="midnightblue" d="M237.439,-187.957C216.386,-177.618 187.576,-163.47 169.377,-154.533"/>
<polygon fill="midnightblue" stroke="midnightblue" points="235.981,-191.14 246.5,-192.406 239.067,-184.857 235.981,-191.14"/>
</g>
<!-- Node5 -->
<g id="node5" class="node"><title>Node5</title>
<g id="a_node5"><a xlink:href="../../d8/d56/interfaceIG_1_1Num_1_1IScalarFunctionUntransformed.html" target="_top" xlink:title="Scalar functions of vector arguments.">
<polygon fill="white" stroke="black" points="78.5,-249.5 78.5,-268.5 225.5,-268.5 225.5,-249.5 78.5,-249.5"/>
<text text-anchor="middle" x="152" y="-256.5" font-family="Helvetica,sans-Serif" font-size="10.00">IScalarFunctionUntransformed</text>
</a>
</g>
</g>
<!-- Node5&#45;&gt;Node1 -->
<g id="edge9" class="edge"><title>Node5&#45;&gt;Node1</title>
<path fill="none" stroke="midnightblue" d="M83.8485,-246.318C62.3081,-238.417 44,-225.178 44,-203 44,-203 44,-203 44,-77 44,-58.729 56.9727,-41.8703 68.3237,-30.6161"/>
<polygon fill="midnightblue" stroke="midnightblue" points="82.9824,-249.717 93.5747,-249.487 85.1508,-243.061 82.9824,-249.717"/>
</g>
<!-- Node5&#45;&gt;Node3 -->
<g id="edge6" class="edge"><title>Node5&#45;&gt;Node3</title>
<path fill="none" stroke="midnightblue" d="M152,-239.009C152,-214.477 152,-172.786 152,-154.748"/>
<polygon fill="midnightblue" stroke="midnightblue" points="148.5,-239.212 152,-249.212 155.5,-239.212 148.5,-239.212"/>
</g>
<!-- Node5&#45;&gt;Node4 -->
<g id="edge4" class="edge"><title>Node5&#45;&gt;Node4</title>
<path fill="none" stroke="midnightblue" d="M178.561,-244.957C199.614,-234.618 228.424,-220.47 246.623,-211.533"/>
<polygon fill="midnightblue" stroke="midnightblue" points="176.933,-241.857 169.5,-249.406 180.019,-248.14 176.933,-241.857"/>
</g>
<!-- Node6 -->
<g id="node6" class="node"><title>Node6</title>
<g id="a_node6"><a xlink:href="../../d8/d15/interfaceIG_1_1Num_1_1IFunc2d.html" target="_top" xlink:title="Represents scalar functions of 2 variables.">
<polygon fill="white" stroke="black" points="72.5,-192.5 72.5,-211.5 123.5,-211.5 123.5,-192.5 72.5,-192.5"/>
<text text-anchor="middle" x="98" y="-199.5" font-family="Helvetica,sans-Serif" font-size="10.00">IFunc2d</text>
</a>
</g>
</g>
<!-- Node6&#45;&gt;Node1 -->
<g id="edge8" class="edge"><title>Node6&#45;&gt;Node1</title>
<path fill="none" stroke="midnightblue" d="M96.67,-182.124C94.0567,-145.036 88.3057,-63.4149 85.9925,-30.5854"/>
<polygon fill="midnightblue" stroke="midnightblue" points="93.1787,-182.372 97.373,-192.101 100.161,-181.88 93.1787,-182.372"/>
</g>
<!-- Node6&#45;&gt;Node3 -->
<g id="edge5" class="edge"><title>Node6&#45;&gt;Node3</title>
<path fill="none" stroke="midnightblue" d="M113.588,-185.123C123.308,-175.224 135.444,-162.862 143.444,-154.715"/>
<polygon fill="midnightblue" stroke="midnightblue" points="110.946,-182.819 106.438,-192.406 115.941,-187.723 110.946,-182.819"/>
</g>
<!-- Node7 -->
<g id="node7" class="node"><title>Node7</title>
<g id="a_node7"><a xlink:href="../../d3/d6f/interfaceIG_1_1Num_1_1IFunc3d2d.html" target="_top" xlink:title="Represents 3D vector functions of 2 variables.">
<polygon fill="white" stroke="black" points="206,-135.5 206,-154.5 304,-154.5 304,-135.5 206,-135.5"/>
<text text-anchor="middle" x="255" y="-142.5" font-family="Helvetica,sans-Serif" font-size="10.00">IG.Num.IFunc3d2d</text>
</a>
</g>
</g>
<!-- Node7&#45;&gt;Node2 -->
<g id="edge7" class="edge"><title>Node7&#45;&gt;Node2</title>
<path fill="none" stroke="#9a32cd" stroke-dasharray="5,2" d="M236.421,-128.713C220.856,-115.907 199.2,-98.0884 186.485,-87.6273"/>
<polygon fill="#9a32cd" stroke="#9a32cd" points="234.4,-131.583 244.346,-135.234 238.847,-126.177 234.4,-131.583"/>
<text text-anchor="middle" x="257" y="-109" font-family="Helvetica,sans-Serif" font-size="10.00"> _vectorFunction</text>
</g>
</g>
</svg>
