<?xml version="1.0" encoding="UTF-8" standalone="no"?>
<!DOCTYPE svg PUBLIC "-//W3C//DTD SVG 1.1//EN"
 "http://www.w3.org/Graphics/SVG/1.1/DTD/svg11.dtd">
<!-- Generated by graphviz version 2.38.0 (20140413.2041)
 -->
<!-- Title: IG.Num.Func3d2dExamples.CylinderParametric Pages: 1 -->
<svg width="239pt" height="263pt"
 viewBox="0.00 0.00 238.50 263.00" xmlns="http://www.w3.org/2000/svg" xmlns:xlink="http://www.w3.org/1999/xlink">
<g id="graph0" class="graph" transform="scale(1 1) rotate(0) translate(4 259)">
<title>IG.Num.Func3d2dExamples.CylinderParametric</title>
<polygon fill="white" stroke="none" points="-4,4 -4,-259 234.5,-259 234.5,4 -4,4"/>
<!-- Node1 -->
<g id="node1" class="node"><title>Node1</title>
<g id="a_node1"><a xlink:title="Parametric equation of an origin&#45;centered (ellipsoidal) cylindrical surface in form of 3D vector func...">
<polygon fill="#bfbfbf" stroke="black" points="0,-0.5 0,-30.5 142,-30.5 142,-0.5 0,-0.5"/>
<text text-anchor="start" x="8" y="-18.5" font-family="Helvetica,sans-Serif" font-size="10.00">IG.Num.Func3d2dExamples.</text>
<text text-anchor="middle" x="71" y="-7.5" font-family="Helvetica,sans-Serif" font-size="10.00">CylinderParametric</text>
</a>
</g>
</g>
<!-- Node2 -->
<g id="node2" class="node"><title>Node2</title>
<g id="a_node2"><a xlink:href="../../d0/d54/classIG_1_1Num_1_1Func3d2dExamples_1_1ParametricSurface.html" target="_top" xlink:title="Base class for easy definition of parametric surfaces intended for plotting.">
<polygon fill="white" stroke="black" points="61.5,-67.5 61.5,-86.5 158.5,-86.5 158.5,-67.5 61.5,-67.5"/>
<text text-anchor="middle" x="110" y="-74.5" font-family="Helvetica,sans-Serif" font-size="10.00">ParametricSurface</text>
</a>
</g>
</g>
<!-- Node2&#45;&gt;Node1 -->
<g id="edge1" class="edge"><title>Node2&#45;&gt;Node1</title>
<path fill="none" stroke="midnightblue" d="M98.8331,-58.9634C92.9294,-49.9564 85.7705,-39.0344 80.1915,-30.523"/>
<polygon fill="midnightblue" stroke="midnightblue" points="96.003,-61.0303 104.412,-67.4751 101.857,-57.1929 96.003,-61.0303"/>
</g>
<!-- Node3 -->
<g id="node3" class="node"><title>Node3</title>
<g id="a_node3"><a xlink:href="../../d3/dc0/classIG_1_1Num_1_1Func3d2dBaseNoGradient.html" target="_top" xlink:title="Base class for 3D vector functions of 2 variables (implementations of the IFunc3d2d interface) that d...">
<polygon fill="white" stroke="black" points="99.5,-123.5 99.5,-142.5 230.5,-142.5 230.5,-123.5 99.5,-123.5"/>
<text text-anchor="middle" x="165" y="-130.5" font-family="Helvetica,sans-Serif" font-size="10.00">Func3d2dBaseNoGradient</text>
</a>
</g>
</g>
<!-- Node3&#45;&gt;Node2 -->
<g id="edge2" class="edge"><title>Node3&#45;&gt;Node2</title>
<path fill="none" stroke="midnightblue" d="M148.706,-116.002C138.959,-106.433 126.947,-94.6389 118.913,-86.7511"/>
<polygon fill="midnightblue" stroke="midnightblue" points="146.33,-118.575 155.918,-123.083 151.234,-113.58 146.33,-118.575"/>
</g>
<!-- Node4 -->
<g id="node4" class="node"><title>Node4</title>
<g id="a_node4"><a xlink:href="../../df/d0e/classIG_1_1Num_1_1Func3d2dBase.html" target="_top" xlink:title="Base class for 3D vector functions of 2 variables (base for implementation of IFunc3d2d interface).">
<polygon fill="white" stroke="black" points="137,-179.5 137,-198.5 219,-198.5 219,-179.5 137,-179.5"/>
<text text-anchor="middle" x="178" y="-186.5" font-family="Helvetica,sans-Serif" font-size="10.00">Func3d2dBase</text>
</a>
</g>
</g>
<!-- Node4&#45;&gt;Node3 -->
<g id="edge3" class="edge"><title>Node4&#45;&gt;Node3</title>
<path fill="none" stroke="midnightblue" d="M173.45,-169.101C171.292,-160.136 168.818,-149.858 167.107,-142.751"/>
<polygon fill="midnightblue" stroke="midnightblue" points="170.11,-170.18 175.853,-179.083 176.915,-168.542 170.11,-170.18"/>
</g>
<!-- Node5 -->
<g id="node5" class="node"><title>Node5</title>
<g id="a_node5"><a xlink:href="../../d3/d6f/interfaceIG_1_1Num_1_1IFunc3d2d.html" target="_top" xlink:title="Represents 3D vector functions of 2 variables.">
<polygon fill="white" stroke="black" points="59,-235.5 59,-254.5 121,-254.5 121,-235.5 59,-235.5"/>
<text text-anchor="middle" x="90" y="-242.5" font-family="Helvetica,sans-Serif" font-size="10.00">IFunc3d2d</text>
</a>
</g>
</g>
<!-- Node5&#45;&gt;Node1 -->
<g id="edge7" class="edge"><title>Node5&#45;&gt;Node1</title>
<path fill="none" stroke="midnightblue" d="M81.2952,-225.817C67.0585,-193.828 41.3881,-125.341 52,-67 54.3134,-54.2817 59.6538,-40.6006 64.0855,-30.6905"/>
<polygon fill="midnightblue" stroke="midnightblue" points="78.2537,-227.58 85.616,-235.199 84.6118,-224.652 78.2537,-227.58"/>
</g>
<!-- Node5&#45;&gt;Node2 -->
<g id="edge6" class="edge"><title>Node5&#45;&gt;Node2</title>
<path fill="none" stroke="midnightblue" d="M87.6093,-225.19C85.0999,-201.179 82.4673,-158.496 90,-123 92.8396,-109.619 99.9422,-95.3861 104.87,-86.5932"/>
<polygon fill="midnightblue" stroke="midnightblue" points="84.1602,-225.833 88.7862,-235.364 91.1138,-225.028 84.1602,-225.833"/>
</g>
<!-- Node5&#45;&gt;Node3 -->
<g id="edge5" class="edge"><title>Node5&#45;&gt;Node3</title>
<path fill="none" stroke="midnightblue" d="M99.3622,-226.273C106.644,-212.934 117.281,-194.383 128,-179 137.252,-165.723 149.392,-151.464 157.196,-142.637"/>
<polygon fill="midnightblue" stroke="midnightblue" points="96.1517,-224.854 94.5021,-235.319 102.318,-228.167 96.1517,-224.854"/>
</g>
<!-- Node5&#45;&gt;Node4 -->
<g id="edge4" class="edge"><title>Node5&#45;&gt;Node4</title>
<path fill="none" stroke="midnightblue" d="M112.977,-229.901C129.113,-219.999 150.181,-207.071 163.896,-198.655"/>
<polygon fill="midnightblue" stroke="midnightblue" points="110.831,-227.111 104.139,-235.324 114.493,-233.077 110.831,-227.111"/>
</g>
</g>
</svg>
